<?xml version="1.0" encoding="UTF-8" standalone="no"?>
<!DOCTYPE svg PUBLIC "-//W3C//DTD SVG 1.1//EN"
 "http://www.w3.org/Graphics/SVG/1.1/DTD/svg11.dtd">
<!-- Generated by graphviz version 11.0.0 (20240428.1522)
 -->
<!-- Title: v8::internal::maglev::LoadSignedIntDataViewElement Pages: 1 -->
<svg width="752pt" height="281pt"
 viewBox="0.00 0.00 752.00 281.00" xmlns="http://www.w3.org/2000/svg" xmlns:xlink="http://www.w3.org/1999/xlink">
<g id="graph0" class="graph" transform="scale(1 1) rotate(0) translate(4 277)">
<title>v8::internal::maglev::LoadSignedIntDataViewElement</title>
<!-- Node1 -->
<g id="Node000001" class="node">
<title>Node1</title>
<g id="a_Node000001"><a xlink:title=" ">
<polygon fill="#999999" stroke="none" points="744,-273 546,-273 546,0 744,0 744,-273"/>
<text text-anchor="start" x="555" y="-259.5" font-family="Cascadia Code NF" font-size="10.00">v8::internal::maglev</text>
<text text-anchor="start" x="555" y="-246.75" font-family="Cascadia Code NF" font-size="10.00">::LoadSignedIntDataViewElement</text>
<text text-anchor="start" x="550" y="-230.5" font-family="Cascadia Code NF" font-size="10.00">+</text>
<text text-anchor="start" x="560" y="-230.5" font-family="Cascadia Code NF" font-size="10.00">kProperties</text>
<text text-anchor="start" x="550" y="-214.5" font-family="Cascadia Code NF" font-size="10.00">+</text>
<text text-anchor="start" x="560" y="-214.5" font-family="Cascadia Code NF" font-size="10.00">kInputTypes</text>
<text text-anchor="start" x="550" y="-198.5" font-family="Cascadia Code NF" font-size="10.00">+</text>
<text text-anchor="start" x="560" y="-198.5" font-family="Cascadia Code NF" font-size="10.00">kObjectIndex</text>
<text text-anchor="start" x="550" y="-182.5" font-family="Cascadia Code NF" font-size="10.00">+</text>
<text text-anchor="start" x="560" y="-182.5" font-family="Cascadia Code NF" font-size="10.00">kIndexIndex</text>
<text text-anchor="start" x="550" y="-166.5" font-family="Cascadia Code NF" font-size="10.00">+</text>
<text text-anchor="start" x="560" y="-166.5" font-family="Cascadia Code NF" font-size="10.00">kIsLittleEndianIndex</text>
<text text-anchor="start" x="550" y="-150.5" font-family="Cascadia Code NF" font-size="10.00">+</text>
<text text-anchor="start" x="560" y="-150.5" font-family="Cascadia Code NF" font-size="10.00">LoadSignedIntDataViewElement()</text>
<text text-anchor="start" x="550" y="-134.5" font-family="Cascadia Code NF" font-size="10.00">+</text>
<text text-anchor="start" x="560" y="-134.5" font-family="Cascadia Code NF" font-size="10.00">object_input()</text>
<text text-anchor="start" x="550" y="-118.5" font-family="Cascadia Code NF" font-size="10.00">+</text>
<text text-anchor="start" x="560" y="-118.5" font-family="Cascadia Code NF" font-size="10.00">index_input()</text>
<text text-anchor="start" x="550" y="-102.5" font-family="Cascadia Code NF" font-size="10.00">+</text>
<text text-anchor="start" x="560" y="-102.5" font-family="Cascadia Code NF" font-size="10.00">is_little_endian_input()</text>
<text text-anchor="start" x="550" y="-86.5" font-family="Cascadia Code NF" font-size="10.00">+</text>
<text text-anchor="start" x="560" y="-86.5" font-family="Cascadia Code NF" font-size="10.00">is_little_endian_constant()</text>
<text text-anchor="start" x="550" y="-70.5" font-family="Cascadia Code NF" font-size="10.00">+</text>
<text text-anchor="start" x="560" y="-70.5" font-family="Cascadia Code NF" font-size="10.00">SetValueLocationConstraints()</text>
<text text-anchor="start" x="550" y="-54.5" font-family="Cascadia Code NF" font-size="10.00">+</text>
<text text-anchor="start" x="560" y="-54.5" font-family="Cascadia Code NF" font-size="10.00">GenerateCode()</text>
<text text-anchor="start" x="550" y="-38.5" font-family="Cascadia Code NF" font-size="10.00">+</text>
<text text-anchor="start" x="560" y="-38.5" font-family="Cascadia Code NF" font-size="10.00">PrintParams()</text>
<text text-anchor="start" x="550" y="-22.5" font-family="Cascadia Code NF" font-size="10.00">+</text>
<text text-anchor="start" x="560" y="-22.5" font-family="Cascadia Code NF" font-size="10.00">options()</text>
<text text-anchor="start" x="550" y="-6.5" font-family="Cascadia Code NF" font-size="10.00">+</text>
<text text-anchor="start" x="560" y="-6.5" font-family="Cascadia Code NF" font-size="10.00">type()</text>
<polygon fill="#666666" stroke="#666666" points="546,-242 546,-242 744,-242 744,-242 546,-242"/>
<polygon fill="#666666" stroke="#666666" points="546,-162 546,-162 558,-162 558,-162 546,-162"/>
<polygon fill="#666666" stroke="#666666" points="558,-162 558,-162 744,-162 744,-162 558,-162"/>
<polygon fill="none" stroke="#666666" points="546,0 546,-273 744,-273 744,0 546,0"/>
</a>
</g>
</g>
<!-- Node2 -->
<g id="Node000002" class="node">
<title>Node2</title>
<g id="a_Node000002"><a xlink:href="$df/d36/classv8_1_1internal_1_1maglev_1_1FixedInputNodeTMixin.html" xlink:title=" ">
<polygon fill="white" stroke="none" points="510,-201 290,-201 290,-72 510,-72 510,-201"/>
<text text-anchor="start" x="295" y="-187.5" font-family="Cascadia Code NF" font-size="10.00">FixedInputValueNodeT</text>
<text text-anchor="start" x="295" y="-174.75" font-family="Cascadia Code NF" font-size="10.00">&lt; 3, LoadSignedIntDataViewElement &gt;</text>
<text text-anchor="start" x="311.5" y="-158.5" font-family="Cascadia Code NF" font-size="10.00">#</text>
<text text-anchor="start" x="339" y="-158.5" font-family="Cascadia Code NF" font-size="10.00">kInputTypes</text>
<text text-anchor="start" x="311.5" y="-142.5" font-family="Cascadia Code NF" font-size="10.00">+</text>
<text text-anchor="start" x="339" y="-142.5" font-family="Cascadia Code NF" font-size="10.00">has_inputs()</text>
<text text-anchor="start" x="311.5" y="-126.5" font-family="Cascadia Code NF" font-size="10.00">+</text>
<text text-anchor="start" x="339" y="-126.5" font-family="Cascadia Code NF" font-size="10.00">input_count()</text>
<text text-anchor="start" x="311.5" y="-110.5" font-family="Cascadia Code NF" font-size="10.00">+</text>
<text text-anchor="start" x="339" y="-110.5" font-family="Cascadia Code NF" font-size="10.00">end()</text>
<text text-anchor="start" x="311.5" y="-94.5" font-family="Cascadia Code NF" font-size="10.00">+</text>
<text text-anchor="start" x="339" y="-94.5" font-family="Cascadia Code NF" font-size="10.00">VerifyInputs()</text>
<text text-anchor="start" x="311.5" y="-78.5" font-family="Cascadia Code NF" font-size="10.00">#</text>
<text text-anchor="start" x="339" y="-78.5" font-family="Cascadia Code NF" font-size="10.00">FixedInputNodeTMixin()</text>
<polygon fill="#bfbfbf" stroke="#bfbfbf" points="290,-170 290,-170 510,-170 510,-170 290,-170"/>
<polygon fill="#bfbfbf" stroke="#bfbfbf" points="290,-154 290,-154 337,-154 337,-154 290,-154"/>
<polygon fill="#bfbfbf" stroke="#bfbfbf" points="337,-154 337,-154 510,-154 510,-154 337,-154"/>
<polygon fill="none" stroke="#bfbfbf" points="290,-72 290,-201 510,-201 510,-72 290,-72"/>
</a>
</g>
</g>
<!-- Node2&#45;&gt;Node1 -->
<g id="edge1_Node000001_Node000002" class="edge">
<title>Node2&#45;&gt;Node1</title>
<g id="a_edge1_Node000001_Node000002"><a xlink:title=" ">
<path fill="none" stroke="#63b8ff" d="M521.12,-136.5C529.5,-136.5 537.89,-136.5 546.13,-136.5"/>
<polygon fill="none" stroke="#63b8ff" points="521.22,-133 511.22,-136.5 521.22,-140 521.22,-133"/>
</a>
</g>
</g>
<!-- Node3 -->
<g id="Node000003" class="node">
<title>Node3</title>
<g id="a_Node000003"><a xlink:href="$dc/d85/classv8_1_1internal_1_1maglev_1_1NodeTMixin.html" xlink:title=" ">
<polygon fill="white" stroke="none" points="254,-201 70,-201 70,-72 254,-72 254,-201"/>
<text text-anchor="start" x="75" y="-187.5" font-family="Cascadia Code NF" font-size="10.00">v8::internal::maglev</text>
<text text-anchor="start" x="75" y="-174.75" font-family="Cascadia Code NF" font-size="10.00">::NodeTMixin&lt; Base, Derived &gt;</text>
<text text-anchor="start" x="159" y="-158.5" font-family="Cascadia Code NF" font-size="10.00"> </text>
<text text-anchor="start" x="97.5" y="-142.5" font-family="Cascadia Code NF" font-size="10.00">+</text>
<text text-anchor="start" x="131" y="-142.5" font-family="Cascadia Code NF" font-size="10.00">opcode()</text>
<text text-anchor="start" x="97.5" y="-126.5" font-family="Cascadia Code NF" font-size="10.00">+</text>
<text text-anchor="start" x="131" y="-126.5" font-family="Cascadia Code NF" font-size="10.00">properties()</text>
<text text-anchor="start" x="97.5" y="-110.5" font-family="Cascadia Code NF" font-size="10.00">+</text>
<text text-anchor="start" x="131" y="-110.5" font-family="Cascadia Code NF" font-size="10.00">New()</text>
<text text-anchor="start" x="97.5" y="-94.5" font-family="Cascadia Code NF" font-size="10.00">+</text>
<text text-anchor="start" x="131" y="-94.5" font-family="Cascadia Code NF" font-size="10.00">New()</text>
<text text-anchor="start" x="97.5" y="-78.5" font-family="Cascadia Code NF" font-size="10.00">#</text>
<text text-anchor="start" x="131" y="-78.5" font-family="Cascadia Code NF" font-size="10.00">NodeTMixin()</text>
<polygon fill="#bfbfbf" stroke="#bfbfbf" points="70,-170 70,-170 254,-170 254,-170 70,-170"/>
<polygon fill="#bfbfbf" stroke="#bfbfbf" points="70,-154 70,-154 254,-154 254,-154 70,-154"/>
<polygon fill="none" stroke="#bfbfbf" points="70,-72 70,-201 254,-201 254,-72 70,-72"/>
</a>
</g>
</g>
<!-- Node3&#45;&gt;Node2 -->
<g id="edge2_Node000002_Node000003" class="edge">
<title>Node3&#45;&gt;Node2</title>
<g id="a_edge2_Node000002_Node000003"><a xlink:title=" ">
<path fill="none" stroke="#63b8ff" d="M265.2,-136.5C273.55,-136.5 282,-136.5 290.39,-136.5"/>
<polygon fill="none" stroke="#63b8ff" points="265.42,-133 255.42,-136.5 265.42,-140 265.42,-133"/>
</a>
</g>
</g>
<!-- Node4 -->
<g id="Node000004" class="node">
<title>Node4</title>
<g id="a_Node000004"><a xlink:title=" ">
<polygon fill="white" stroke="none" points="34,-162.5 0,-162.5 0,-110.5 34,-110.5 34,-162.5"/>
<text text-anchor="start" x="5" y="-149" font-family="Cascadia Code NF" font-size="10.00">Base</text>
<text text-anchor="start" x="14" y="-133" font-family="Cascadia Code NF" font-size="10.00"> </text>
<text text-anchor="start" x="14" y="-117" font-family="Cascadia Code NF" font-size="10.00"> </text>
<polygon fill="#bfbfbf" stroke="#bfbfbf" points="0,-144.5 0,-144.5 34,-144.5 34,-144.5 0,-144.5"/>
<polygon fill="#bfbfbf" stroke="#bfbfbf" points="0,-128.5 0,-128.5 34,-128.5 34,-128.5 0,-128.5"/>
<polygon fill="none" stroke="#bfbfbf" points="0,-110.5 0,-162.5 34,-162.5 34,-110.5 0,-110.5"/>
</a>
</g>
</g>
<!-- Node4&#45;&gt;Node3 -->
<g id="edge3_Node000003_Node000004" class="edge">
<title>Node4&#45;&gt;Node3</title>
<g id="a_edge3_Node000003_Node000004"><a xlink:title=" ">
<path fill="none" stroke="#63b8ff" d="M45.25,-136.5C52.68,-136.5 61.15,-136.5 70.07,-136.5"/>
<polygon fill="none" stroke="#63b8ff" points="45.36,-133 35.36,-136.5 45.36,-140 45.36,-133"/>
</a>
</g>
</g>
</g>
</svg>
