<?xml version="1.0" encoding="UTF-8" standalone="no"?>
<!DOCTYPE svg PUBLIC "-//W3C//DTD SVG 1.1//EN"
 "http://www.w3.org/Graphics/SVG/1.1/DTD/svg11.dtd">
<!-- Generated by graphviz version 11.0.0 (20240428.1522)
 -->
<!-- Title: v8::internal::maglev::ThrowIfNotSuperConstructor Pages: 1 -->
<svg width="710pt" height="185pt"
 viewBox="0.00 0.00 710.00 185.00" xmlns="http://www.w3.org/2000/svg" xmlns:xlink="http://www.w3.org/1999/xlink">
<g id="graph0" class="graph" transform="scale(1 1) rotate(0) translate(4 181)">
<title>v8::internal::maglev::ThrowIfNotSuperConstructor</title>
<!-- Node1 -->
<g id="Node000001" class="node">
<title>Node1</title>
<g id="a_Node000001"><a xlink:title=" ">
<polygon fill="#999999" stroke="none" points="702,-177 510,-177 510,0 702,0 702,-177"/>
<text text-anchor="start" x="522" y="-163.5" font-family="Cascadia Code NF" font-size="10.00">v8::internal::maglev</text>
<text text-anchor="start" x="522" y="-150.75" font-family="Cascadia Code NF" font-size="10.00">::ThrowIfNotSuperConstructor</text>
<text text-anchor="start" x="514" y="-134.5" font-family="Cascadia Code NF" font-size="10.00">+</text>
<text text-anchor="start" x="524" y="-134.5" font-family="Cascadia Code NF" font-size="10.00">kProperties</text>
<text text-anchor="start" x="514" y="-118.5" font-family="Cascadia Code NF" font-size="10.00">+</text>
<text text-anchor="start" x="524" y="-118.5" font-family="Cascadia Code NF" font-size="10.00">kInputTypes</text>
<text text-anchor="start" x="514" y="-102.5" font-family="Cascadia Code NF" font-size="10.00">+</text>
<text text-anchor="start" x="524" y="-102.5" font-family="Cascadia Code NF" font-size="10.00">ThrowIfNotSuperConstructor()</text>
<text text-anchor="start" x="514" y="-86.5" font-family="Cascadia Code NF" font-size="10.00">+</text>
<text text-anchor="start" x="524" y="-86.5" font-family="Cascadia Code NF" font-size="10.00">constructor()</text>
<text text-anchor="start" x="514" y="-70.5" font-family="Cascadia Code NF" font-size="10.00">+</text>
<text text-anchor="start" x="524" y="-70.5" font-family="Cascadia Code NF" font-size="10.00">function()</text>
<text text-anchor="start" x="514" y="-54.5" font-family="Cascadia Code NF" font-size="10.00">+</text>
<text text-anchor="start" x="524" y="-54.5" font-family="Cascadia Code NF" font-size="10.00">MaxCallStackArgs()</text>
<text text-anchor="start" x="514" y="-38.5" font-family="Cascadia Code NF" font-size="10.00">+</text>
<text text-anchor="start" x="524" y="-38.5" font-family="Cascadia Code NF" font-size="10.00">SetValueLocationConstraints()</text>
<text text-anchor="start" x="514" y="-22.5" font-family="Cascadia Code NF" font-size="10.00">+</text>
<text text-anchor="start" x="524" y="-22.5" font-family="Cascadia Code NF" font-size="10.00">GenerateCode()</text>
<text text-anchor="start" x="514" y="-6.5" font-family="Cascadia Code NF" font-size="10.00">+</text>
<text text-anchor="start" x="524" y="-6.5" font-family="Cascadia Code NF" font-size="10.00">PrintParams()</text>
<polygon fill="#666666" stroke="#666666" points="510,-146 510,-146 702,-146 702,-146 510,-146"/>
<polygon fill="#666666" stroke="#666666" points="510,-114 510,-114 522,-114 522,-114 510,-114"/>
<polygon fill="#666666" stroke="#666666" points="522,-114 522,-114 702,-114 702,-114 522,-114"/>
<polygon fill="none" stroke="#666666" points="510,0 510,-177 702,-177 702,0 510,0"/>
</a>
</g>
</g>
<!-- Node2 -->
<g id="Node000002" class="node">
<title>Node2</title>
<g id="a_Node000002"><a xlink:href="../../df/d36/classv8_1_1internal_1_1maglev_1_1FixedInputNodeTMixin.html" target="_top" xlink:title=" ">
<polygon fill="white" stroke="none" points="474,-153 290,-153 290,-24 474,-24 474,-153"/>
<text text-anchor="start" x="295" y="-139.5" font-family="Cascadia Code NF" font-size="10.00">FixedInputNodeT&lt; 2,</text>
<text text-anchor="start" x="295" y="-126.75" font-family="Cascadia Code NF" font-size="10.00"> ThrowIfNotSuperConstructor &gt;</text>
<text text-anchor="start" x="302.5" y="-110.5" font-family="Cascadia Code NF" font-size="10.00">#</text>
<text text-anchor="start" x="321" y="-110.5" font-family="Cascadia Code NF" font-size="10.00">kInputTypes</text>
<text text-anchor="start" x="302.5" y="-94.5" font-family="Cascadia Code NF" font-size="10.00">+</text>
<text text-anchor="start" x="321" y="-94.5" font-family="Cascadia Code NF" font-size="10.00">has_inputs()</text>
<text text-anchor="start" x="302.5" y="-78.5" font-family="Cascadia Code NF" font-size="10.00">+</text>
<text text-anchor="start" x="321" y="-78.5" font-family="Cascadia Code NF" font-size="10.00">input_count()</text>
<text text-anchor="start" x="302.5" y="-62.5" font-family="Cascadia Code NF" font-size="10.00">+</text>
<text text-anchor="start" x="321" y="-62.5" font-family="Cascadia Code NF" font-size="10.00">end()</text>
<text text-anchor="start" x="302.5" y="-46.5" font-family="Cascadia Code NF" font-size="10.00">+</text>
<text text-anchor="start" x="321" y="-46.5" font-family="Cascadia Code NF" font-size="10.00">VerifyInputs()</text>
<text text-anchor="start" x="302.5" y="-30.5" font-family="Cascadia Code NF" font-size="10.00">#</text>
<text text-anchor="start" x="321" y="-30.5" font-family="Cascadia Code NF" font-size="10.00">FixedInputNodeTMixin()</text>
<polygon fill="#bfbfbf" stroke="#bfbfbf" points="290,-122 290,-122 474,-122 474,-122 290,-122"/>
<polygon fill="#bfbfbf" stroke="#bfbfbf" points="290,-106 290,-106 319,-106 319,-106 290,-106"/>
<polygon fill="#bfbfbf" stroke="#bfbfbf" points="319,-106 319,-106 474,-106 474,-106 319,-106"/>
<polygon fill="none" stroke="#bfbfbf" points="290,-24 290,-153 474,-153 474,-24 290,-24"/>
</a>
</g>
</g>
<!-- Node2&#45;&gt;Node1 -->
<g id="edge1_Node000001_Node000002" class="edge">
<title>Node2&#45;&gt;Node1</title>
<g id="a_edge1_Node000001_Node000002"><a xlink:title=" ">
<path fill="none" stroke="#63b8ff" d="M485.24,-88.5C493.57,-88.5 501.97,-88.5 510.24,-88.5"/>
<polygon fill="none" stroke="#63b8ff" points="485.45,-85 475.45,-88.5 485.45,-92 485.45,-85"/>
</a>
</g>
</g>
<!-- Node3 -->
<g id="Node000003" class="node">
<title>Node3</title>
<g id="a_Node000003"><a xlink:href="../../dc/d85/classv8_1_1internal_1_1maglev_1_1NodeTMixin.html" target="_top" xlink:title=" ">
<polygon fill="white" stroke="none" points="254,-153 70,-153 70,-24 254,-24 254,-153"/>
<text text-anchor="start" x="75" y="-139.5" font-family="Cascadia Code NF" font-size="10.00">v8::internal::maglev</text>
<text text-anchor="start" x="75" y="-126.75" font-family="Cascadia Code NF" font-size="10.00">::NodeTMixin&lt; Base, Derived &gt;</text>
<text text-anchor="start" x="159" y="-110.5" font-family="Cascadia Code NF" font-size="10.00"> </text>
<text text-anchor="start" x="97.5" y="-94.5" font-family="Cascadia Code NF" font-size="10.00">+</text>
<text text-anchor="start" x="131" y="-94.5" font-family="Cascadia Code NF" font-size="10.00">opcode()</text>
<text text-anchor="start" x="97.5" y="-78.5" font-family="Cascadia Code NF" font-size="10.00">+</text>
<text text-anchor="start" x="131" y="-78.5" font-family="Cascadia Code NF" font-size="10.00">properties()</text>
<text text-anchor="start" x="97.5" y="-62.5" font-family="Cascadia Code NF" font-size="10.00">+</text>
<text text-anchor="start" x="131" y="-62.5" font-family="Cascadia Code NF" font-size="10.00">New()</text>
<text text-anchor="start" x="97.5" y="-46.5" font-family="Cascadia Code NF" font-size="10.00">+</text>
<text text-anchor="start" x="131" y="-46.5" font-family="Cascadia Code NF" font-size="10.00">New()</text>
<text text-anchor="start" x="97.5" y="-30.5" font-family="Cascadia Code NF" font-size="10.00">#</text>
<text text-anchor="start" x="131" y="-30.5" font-family="Cascadia Code NF" font-size="10.00">NodeTMixin()</text>
<polygon fill="#bfbfbf" stroke="#bfbfbf" points="70,-122 70,-122 254,-122 254,-122 70,-122"/>
<polygon fill="#bfbfbf" stroke="#bfbfbf" points="70,-106 70,-106 254,-106 254,-106 70,-106"/>
<polygon fill="none" stroke="#bfbfbf" points="70,-24 70,-153 254,-153 254,-24 70,-24"/>
</a>
</g>
</g>
<!-- Node3&#45;&gt;Node2 -->
<g id="edge2_Node000002_Node000003" class="edge">
<title>Node3&#45;&gt;Node2</title>
<g id="a_edge2_Node000002_Node000003"><a xlink:title=" ">
<path fill="none" stroke="#63b8ff" d="M265.22,-88.5C273.59,-88.5 282,-88.5 290.27,-88.5"/>
<polygon fill="none" stroke="#63b8ff" points="265.39,-85 255.39,-88.5 265.39,-92 265.39,-85"/>
</a>
</g>
</g>
<!-- Node4 -->
<g id="Node000004" class="node">
<title>Node4</title>
<g id="a_Node000004"><a xlink:title=" ">
<polygon fill="white" stroke="none" points="34,-114.5 0,-114.5 0,-62.5 34,-62.5 34,-114.5"/>
<text text-anchor="start" x="5" y="-101" font-family="Cascadia Code NF" font-size="10.00">Base</text>
<text text-anchor="start" x="14" y="-85" font-family="Cascadia Code NF" font-size="10.00"> </text>
<text text-anchor="start" x="14" y="-69" font-family="Cascadia Code NF" font-size="10.00"> </text>
<polygon fill="#bfbfbf" stroke="#bfbfbf" points="0,-96.5 0,-96.5 34,-96.5 34,-96.5 0,-96.5"/>
<polygon fill="#bfbfbf" stroke="#bfbfbf" points="0,-80.5 0,-80.5 34,-80.5 34,-80.5 0,-80.5"/>
<polygon fill="none" stroke="#bfbfbf" points="0,-62.5 0,-114.5 34,-114.5 34,-62.5 0,-62.5"/>
</a>
</g>
</g>
<!-- Node4&#45;&gt;Node3 -->
<g id="edge3_Node000003_Node000004" class="edge">
<title>Node4&#45;&gt;Node3</title>
<g id="a_edge3_Node000003_Node000004"><a xlink:title=" ">
<path fill="none" stroke="#63b8ff" d="M45.25,-88.5C52.68,-88.5 61.15,-88.5 70.07,-88.5"/>
<polygon fill="none" stroke="#63b8ff" points="45.36,-85 35.36,-88.5 45.36,-92 45.36,-85"/>
</a>
</g>
</g>
</g>
</svg>
