<?xml version="1.0" encoding="UTF-8" standalone="no"?>
<!DOCTYPE svg PUBLIC "-//W3C//DTD SVG 1.1//EN"
 "http://www.w3.org/Graphics/SVG/1.1/DTD/svg11.dtd">
<!-- Generated by graphviz version 11.0.0 (20240428.1522)
 -->
<!-- Title: v8::internal::maglev::detail::ArrayWrapper&lt; Size &gt; Pages: 1 -->
<svg width="286pt" height="86pt"
 viewBox="0.00 0.00 286.00 86.00" xmlns="http://www.w3.org/2000/svg" xmlns:xlink="http://www.w3.org/1999/xlink">

<svg id="main" version="1.1" xmlns="http://www.w3.org/2000/svg" xmlns:xlink="http://www.w3.org/1999/xlink" xml:space="preserve" onload="init(evt)">
<style type="text/css"><![CDATA[
.node, .edge {opacity: 0.7;}
.node.selected, .edge.selected {opacity: 1;}
.edge:hover path { stroke: red; }
.edge:hover polygon { stroke: red; fill: red; }
svg#main { background-color: #111; }
]]></style>
<script type="application/ecmascript" xlink:href="../../svg.min.js"/>
<svg id="graph" class="graph">
<g id="graph0" class="graph" transform="scale(1 1) rotate(0) translate(4 82)">
<title>v8::internal::maglev::detail::ArrayWrapper&lt; Size &gt;</title>
<!-- Node1 -->
<g id="Node000001" class="node">
<title>Node1</title>
<g id="a_Node000001"><a xlink:title=" ">
<polygon fill="#999999" stroke="none" points="278,-78 136,-78 136,0 278,0 278,-78"/>
<text text-anchor="start" x="141" y="-64.5" font-family="Cascadia Code NF" font-size="10.00">v8::internal::maglev</text>
<text text-anchor="start" x="141" y="-51.75" font-family="Cascadia Code NF" font-size="10.00">::detail::ArrayWrapper</text>
<text text-anchor="start" x="183" y="-39" font-family="Cascadia Code NF" font-size="10.00">&lt; Size &gt;</text>
<text text-anchor="start" x="204" y="-22.5" font-family="Cascadia Code NF" font-size="10.00"> </text>
<text text-anchor="start" x="150" y="-6.5" font-family="Cascadia Code NF" font-size="10.00">+</text>
<text text-anchor="start" x="170" y="-6.5" font-family="Cascadia Code NF" font-size="10.00">ArrayWrapper()</text>
<polygon fill="#666666" stroke="#666666" points="136,-34 136,-34 278,-34 278,-34 136,-34"/>
<polygon fill="#666666" stroke="#666666" points="136,-18 136,-18 278,-18 278,-18 136,-18"/>
<polygon fill="none" stroke="#666666" points="136,0 136,-78 278,-78 278,0 136,0"/>
</a>
</g>
</g>
<!-- Node2 -->
<g id="Node000002" class="node">
<title>Node2</title>
<g id="a_Node000002"><a xlink:title=" ">
<polygon fill="white" stroke="none" points="100,-65 0,-65 0,-13 100,-13 100,-65"/>
<text text-anchor="start" x="5" y="-51.5" font-family="Cascadia Code NF" font-size="10.00">std::array&lt; T &gt;</text>
<text text-anchor="start" x="12.5" y="-35.5" font-family="Cascadia Code NF" font-size="10.00">+</text>
<text text-anchor="start" x="31" y="-35.5" font-family="Cascadia Code NF" font-size="10.00">elements</text>
<text text-anchor="start" x="47" y="-19.5" font-family="Cascadia Code NF" font-size="10.00"> </text>
<polygon fill="#666666" stroke="#666666" points="0,-47 0,-47 100,-47 100,-47 0,-47"/>
<polygon fill="#666666" stroke="#666666" points="0,-31 0,-31 29,-31 29,-31 0,-31"/>
<polygon fill="#666666" stroke="#666666" points="29,-31 29,-31 100,-31 100,-31 29,-31"/>
<polygon fill="none" stroke="#666666" points="0,-13 0,-65 100,-65 100,-13 0,-13"/>
</a>
</g>
</g>
<!-- Node2&#45;&gt;Node1 -->
<g id="edge1_Node000001_Node000002" class="edge">
<title>Node2&#45;&gt;Node1</title>
<g id="a_edge1_Node000001_Node000002"><a xlink:title=" ">
<path fill="none" stroke="#63b8ff" d="M111.06,-39C119.32,-39 127.86,-39 136.27,-39"/>
<polygon fill="none" stroke="#63b8ff" points="111.13,-35.5 101.13,-39 111.13,-42.5 111.13,-35.5"/>
</a>
</g>
</g>
</g>
</svg>
</svg>

<style type='text/css'>
<![CDATA[
[data-mouse-over-selected='false'] { opacity: 0.7; }
[data-mouse-over-selected='true']  { opacity: 1.0; }
]]>
</style>
<script type="application/ecmascript"><![CDATA[
document.addEventListener('DOMContentLoaded', (event) => {
  highlightEdges();
  highlightAdjacentNodes();
});
]]></script>
</svg>
