<?xml version="1.0" encoding="UTF-8" standalone="no"?>
<!DOCTYPE svg PUBLIC "-//W3C//DTD SVG 1.1//EN"
 "http://www.w3.org/Graphics/SVG/1.1/DTD/svg11.dtd">
<!-- Generated by graphviz version 11.0.0 (20240428.1522)
 -->
<!-- Title: v8::internal::compiler::turboshaft::v_traits&lt; T, std::enable_if_t&lt; is_taggable_v&lt; T &gt; &gt; &gt; Pages: 1 -->
<svg width="438pt" height="130pt"
 viewBox="0.00 0.00 438.00 130.00" xmlns="http://www.w3.org/2000/svg" xmlns:xlink="http://www.w3.org/1999/xlink">
<g id="graph0" class="graph" transform="scale(1 1) rotate(0) translate(4 126)">
<title>v8::internal::compiler::turboshaft::v_traits&lt; T, std::enable_if_t&lt; is_taggable_v&lt; T &gt; &gt; &gt;</title>
<!-- Node1 -->
<g id="Node000001" class="node">
<title>Node1</title>
<g id="a_Node000001"><a xlink:title=" ">
<polygon fill="#999999" stroke="none" points="430,-106.5 274,-106.5 274,-15.5 430,-15.5 430,-106.5"/>
<text text-anchor="start" x="283" y="-93" font-family="Cascadia Code NF" font-size="10.00">v8::internal::compiler</text>
<text text-anchor="start" x="283" y="-80.25" font-family="Cascadia Code NF" font-size="10.00">::turboshaft::v_traits</text>
<text text-anchor="start" x="283" y="-67.5" font-family="Cascadia Code NF" font-size="10.00">&lt; T, std::enable_if_t&lt;</text>
<text text-anchor="start" x="283" y="-54.75" font-family="Cascadia Code NF" font-size="10.00"> is_taggable_v&lt; T &gt; &gt; &gt;</text>
<text text-anchor="start" x="349" y="-38" font-family="Cascadia Code NF" font-size="10.00"> </text>
<text text-anchor="start" x="278" y="-22" font-family="Cascadia Code NF" font-size="10.00">+</text>
<text text-anchor="start" x="288" y="-22" font-family="Cascadia Code NF" font-size="10.00">allows_representation()</text>
<polygon fill="#666666" stroke="#666666" points="274,-49.5 274,-49.5 430,-49.5 430,-49.5 274,-49.5"/>
<polygon fill="#666666" stroke="#666666" points="274,-33.5 274,-33.5 430,-33.5 430,-33.5 274,-33.5"/>
<polygon fill="none" stroke="#666666" points="274,-15.5 274,-106.5 430,-106.5 430,-15.5 274,-15.5"/>
</a>
</g>
</g>
<!-- Node2 -->
<g id="Node000002" class="node">
<title>Node2</title>
<g id="a_Node000002"><a xlink:title=" ">
<polygon fill="white" stroke="none" points="85,-122 51,-122 51,-70 85,-70 85,-122"/>
<text text-anchor="start" x="56" y="-108.5" font-family="Cascadia Code NF" font-size="10.00">bool</text>
<text text-anchor="start" x="65" y="-92.5" font-family="Cascadia Code NF" font-size="10.00"> </text>
<text text-anchor="start" x="65" y="-76.5" font-family="Cascadia Code NF" font-size="10.00"> </text>
<polygon fill="#bfbfbf" stroke="#bfbfbf" points="51,-104 51,-104 85,-104 85,-104 51,-104"/>
<polygon fill="#bfbfbf" stroke="#bfbfbf" points="51,-88 51,-88 85,-88 85,-88 51,-88"/>
<polygon fill="none" stroke="#bfbfbf" points="51,-70 51,-122 85,-122 85,-70 51,-70"/>
</a>
</g>
</g>
<!-- Node2&#45;&gt;Node1 -->
<g id="edge1_Node000001_Node000002" class="edge">
<title>Node2&#45;&gt;Node1</title>
<g id="a_edge1_Node000001_Node000002"><a xlink:title=" ">
<path fill="none" stroke="#63b8ff" d="M84.97,-94.02C118.38,-89.87 197.81,-80.01 261.23,-72.14"/>
<polygon fill="none" stroke="#63b8ff" points="261.29,-72.13 266.75,-67.43 273.2,-70.66 267.74,-75.36 261.29,-72.13"/>
</a>
</g>
<text text-anchor="middle" x="205" y="-87.25" font-family="Cascadia Code NF" font-size="10.00" fill="grey"> +is_abstract_tag</text>
</g>
<!-- Node3 -->
<g id="Node000003" class="node">
<title>Node3</title>
<g id="a_Node000003"><a xlink:title=" ">
<polygon fill="white" stroke="none" points="136,-52 0,-52 0,0 136,0 136,-52"/>
<text text-anchor="start" x="5" y="-38.5" font-family="Cascadia Code NF" font-size="10.00">static constexpr auto</text>
<text text-anchor="start" x="65" y="-22.5" font-family="Cascadia Code NF" font-size="10.00"> </text>
<text text-anchor="start" x="65" y="-6.5" font-family="Cascadia Code NF" font-size="10.00"> </text>
<polygon fill="#bfbfbf" stroke="#bfbfbf" points="0,-34 0,-34 136,-34 136,-34 0,-34"/>
<polygon fill="#bfbfbf" stroke="#bfbfbf" points="0,-18 0,-18 136,-18 136,-18 0,-18"/>
<polygon fill="none" stroke="#bfbfbf" points="0,0 0,-52 136,-52 136,0 0,0"/>
</a>
</g>
</g>
<!-- Node3&#45;&gt;Node1 -->
<g id="edge2_Node000001_Node000003" class="edge">
<title>Node3&#45;&gt;Node1</title>
<g id="a_edge2_Node000001_Node000003"><a xlink:title=" ">
<path fill="none" stroke="#63b8ff" d="M135.83,-34.29C173.31,-38.95 220.56,-44.81 261.23,-49.86"/>
<polygon fill="none" stroke="#63b8ff" points="261.37,-49.88 267.82,-46.65 273.28,-51.35 266.84,-54.58 261.37,-49.88"/>
</a>
</g>
<text text-anchor="middle" x="205" y="-51.25" font-family="Cascadia Code NF" font-size="10.00" fill="grey"> +rep</text>
</g>
</g>
</svg>
