<?xml version="1.0" encoding="UTF-8" standalone="no"?>
<!DOCTYPE svg PUBLIC "-//W3C//DTD SVG 1.1//EN"
 "http://www.w3.org/Graphics/SVG/1.1/DTD/svg11.dtd">
<!-- Generated by graphviz version 11.0.0 (20240428.1522)
 -->
<!-- Title: v8::internal::JSAsyncFromSyncIterator Pages: 1 -->
<!--zoomable 285 -->

<svg id="main" version="1.1" xmlns="http://www.w3.org/2000/svg" xmlns:xlink="http://www.w3.org/1999/xlink" xml:space="preserve" onload="init(evt)">
<style type="text/css"><![CDATA[
.node, .edge {opacity: 0.7;}
.node.selected, .edge.selected {opacity: 1;}
.edge:hover path { stroke: red; }
.edge:hover polygon { stroke: red; fill: red; }
svg#main { background-color: #111; }
]]></style>

<defs>
  <circle id="rim" cx="0" cy="0" r="7"/>
  <circle id="rim2" cx="0" cy="0" r="3.5"/>
  <g id="zoomPlus">
    <use xlink:href="#rim" fill="#404040"><set attributeName="fill" to="#808080" begin="zoomplus.mouseover" end="zoomplus.mouseout"/></use>
    <path d="M-4,0h8M0,-4v8" fill="none" stroke="white" stroke-width="1.5" pointer-events="none"/>
  </g>
  <g id="zoomMin">
    <use xlink:href="#rim" fill="#404040"><set attributeName="fill" to="#808080" begin="zoomminus.mouseover" end="zoomminus.mouseout"/></use>
    <path d="M-4,0h8" fill="none" stroke="white" stroke-width="1.5" pointer-events="none"/>
  </g>
  <g id="arrowUp" transform="translate(30 24)">
    <use xlink:href="#rim"/>
    <path pointer-events="none" fill="none" stroke="white" stroke-width="1.5" d="M0,-3.0v7 M-2.5,-0.5L0,-3.0L2.5,-0.5"/>
  </g>
  <g id="arrowRight" transform="rotate(90) translate(36 -43)">
    <use xlink:href="#rim"/>
    <path pointer-events="none" fill="none" stroke="white" stroke-width="1.5" d="M0,-3.0v7 M-2.5,-0.5L0,-3.0L2.5,-0.5"/>
  </g>
  <g id="arrowDown" transform="rotate(180) translate(-30 -48)">
    <use xlink:href="#rim"/>
    <path pointer-events="none" fill="none" stroke="white" stroke-width="1.5" d="M0,-3.0v7 M-2.5,-0.5L0,-3.0L2.5,-0.5"/>
  </g>
  <g id="arrowLeft" transform="rotate(270) translate(-36 17)">
    <use xlink:href="#rim"/>
    <path pointer-events="none" fill="none" stroke="white" stroke-width="1.5" d="M0,-3.0v7 M-2.5,-0.5L0,-3.0L2.5,-0.5"/>
  </g>
  <g id="resetDef">
    <use xlink:href="#rim2" fill="#404040"><set attributeName="fill" to="#808080" begin="reset.mouseover" end="reset.mouseout"/></use>
  </g>
</defs>
<script type="application/ecmascript">
var viewWidth = 698;
var viewHeight = 285;
var sectionId = 'dynsection-1';
</script>
<script type="application/ecmascript" xlink:href="../../svg.min.js"/>
<svg id="graph" class="graph">
<g id="viewport">
<title>v8::internal::JSAsyncFromSyncIterator</title>
<!-- Node1 -->
<g id="Node000001" class="node">
<title>Node1</title>
<g id="a_Node000001"><a xlink:title=" ">
<polygon fill="#999999" stroke="none" points="690,-171 530,-171 530,-106 690,-106 690,-171"/>
<text text-anchor="start" x="535" y="-157.5" font-family="Cascadia Code NF" font-size="10.00">v8::internal::JSAsyncFrom</text>
<text text-anchor="start" x="574" y="-144.75" font-family="Cascadia Code NF" font-size="10.00">SyncIterator</text>
<text text-anchor="start" x="607" y="-128.5" font-family="Cascadia Code NF" font-size="10.00"> </text>
<text text-anchor="start" x="607" y="-112.5" font-family="Cascadia Code NF" font-size="10.00"> </text>
<polygon fill="#666666" stroke="#666666" points="530,-140 530,-140 690,-140 690,-140 530,-140"/>
<polygon fill="#666666" stroke="#666666" points="530,-124 530,-124 690,-124 690,-124 530,-124"/>
<polygon fill="none" stroke="#666666" points="530,-106 530,-171 690,-171 690,-106 530,-106"/>
</a>
</g>
</g>
<!-- Node2 -->
<g id="Node000002" class="node">
<title>Node2</title>
<g id="a_Node000002"><a xlink:href="../../d6/d99/classTorqueGeneratedJSAsyncFromSyncIterator.html" target="_top" xlink:title=" ">
<polygon fill="white" stroke="none" points="494,-277 256,-277 256,0 494,0 494,-277"/>
<text text-anchor="start" x="261" y="-263.5" font-family="Cascadia Code NF" font-size="10.00">TorqueGeneratedJSAsyncFrom</text>
<text text-anchor="start" x="261" y="-250.75" font-family="Cascadia Code NF" font-size="10.00">SyncIterator&lt; JSAsyncFromSyncIterator,</text>
<text text-anchor="start" x="342" y="-238" font-family="Cascadia Code NF" font-size="10.00"> JSObject &gt;</text>
<text text-anchor="start" x="372" y="-221.5" font-family="Cascadia Code NF" font-size="10.00"> </text>
<text text-anchor="start" x="276" y="-205.5" font-family="Cascadia Code NF" font-size="10.00">+</text>
<text text-anchor="start" x="302" y="-205.5" font-family="Cascadia Code NF" font-size="10.00">sync_iterator()</text>
<text text-anchor="start" x="276" y="-189.5" font-family="Cascadia Code NF" font-size="10.00">+</text>
<text text-anchor="start" x="302" y="-189.5" font-family="Cascadia Code NF" font-size="10.00">sync_iterator()</text>
<text text-anchor="start" x="276" y="-173.5" font-family="Cascadia Code NF" font-size="10.00">+</text>
<text text-anchor="start" x="302" y="-173.5" font-family="Cascadia Code NF" font-size="10.00">set_sync_iterator()</text>
<text text-anchor="start" x="276" y="-157.5" font-family="Cascadia Code NF" font-size="10.00">+</text>
<text text-anchor="start" x="302" y="-157.5" font-family="Cascadia Code NF" font-size="10.00">next()</text>
<text text-anchor="start" x="276" y="-141.5" font-family="Cascadia Code NF" font-size="10.00">+</text>
<text text-anchor="start" x="302" y="-141.5" font-family="Cascadia Code NF" font-size="10.00">next()</text>
<text text-anchor="start" x="276" y="-125.5" font-family="Cascadia Code NF" font-size="10.00">+</text>
<text text-anchor="start" x="302" y="-125.5" font-family="Cascadia Code NF" font-size="10.00">set_next()</text>
<text text-anchor="start" x="276" y="-109.5" font-family="Cascadia Code NF" font-size="10.00">+</text>
<text text-anchor="start" x="302" y="-109.5" font-family="Cascadia Code NF" font-size="10.00">TorqueGeneratedJSAsyncFrom</text>
<text text-anchor="start" x="302" y="-96.75" font-family="Cascadia Code NF" font-size="10.00">SyncIterator()</text>
<text text-anchor="start" x="276" y="-80.5" font-family="Cascadia Code NF" font-size="10.00">+</text>
<text text-anchor="start" x="302" y="-80.5" font-family="Cascadia Code NF" font-size="10.00">cast()</text>
<text text-anchor="start" x="276" y="-64.5" font-family="Cascadia Code NF" font-size="10.00">+</text>
<text text-anchor="start" x="302" y="-64.5" font-family="Cascadia Code NF" font-size="10.00">unchecked_cast()</text>
<text text-anchor="start" x="276" y="-48.5" font-family="Cascadia Code NF" font-size="10.00">#</text>
<text text-anchor="start" x="302" y="-48.5" font-family="Cascadia Code NF" font-size="10.00">TorqueGeneratedJSAsyncFrom</text>
<text text-anchor="start" x="302" y="-35.75" font-family="Cascadia Code NF" font-size="10.00">SyncIterator()</text>
<text text-anchor="start" x="276" y="-19.5" font-family="Cascadia Code NF" font-size="10.00">#</text>
<text text-anchor="start" x="302" y="-19.5" font-family="Cascadia Code NF" font-size="10.00">TorqueGeneratedJSAsyncFrom</text>
<text text-anchor="start" x="302" y="-6.75" font-family="Cascadia Code NF" font-size="10.00">SyncIterator()</text>
<polygon fill="#bfbfbf" stroke="#bfbfbf" points="256,-233 256,-233 494,-233 494,-233 256,-233"/>
<polygon fill="#bfbfbf" stroke="#bfbfbf" points="256,-217 256,-217 494,-217 494,-217 256,-217"/>
<polygon fill="none" stroke="#bfbfbf" points="256,0 256,-277 494,-277 494,0 256,0"/>
</a>
</g>
</g>
<!-- Node2&#45;&gt;Node1 -->
<g id="edge1_Node000001_Node000002" class="edge">
<title>Node2&#45;&gt;Node1</title>
<g id="a_edge1_Node000001_Node000002"><a xlink:title=" ">
<path fill="none" stroke="#63b8ff" d="M505.38,-138.5C513.79,-138.5 522.11,-138.5 530.17,-138.5"/>
<polygon fill="none" stroke="#63b8ff" points="505.38,-135 495.38,-138.5 505.38,-142 505.38,-135"/>
</a>
</g>
</g>
<!-- Node3 -->
<g id="Node000003" class="node">
<title>Node3</title>
<g id="a_Node000003"><a xlink:title=" ">
<polygon fill="white" stroke="none" points="58,-233.5 0,-233.5 0,-181.5 58,-181.5 58,-233.5"/>
<text text-anchor="start" x="5" y="-220" font-family="Cascadia Code NF" font-size="10.00">JSObject</text>
<text text-anchor="start" x="26" y="-204" font-family="Cascadia Code NF" font-size="10.00"> </text>
<text text-anchor="start" x="26" y="-188" font-family="Cascadia Code NF" font-size="10.00"> </text>
<polygon fill="#bfbfbf" stroke="#bfbfbf" points="0,-215.5 0,-215.5 58,-215.5 58,-215.5 0,-215.5"/>
<polygon fill="#bfbfbf" stroke="#bfbfbf" points="0,-199.5 0,-199.5 58,-199.5 58,-199.5 0,-199.5"/>
<polygon fill="none" stroke="#bfbfbf" points="0,-181.5 0,-233.5 58,-233.5 58,-181.5 0,-181.5"/>
</a>
</g>
</g>
<!-- Node3&#45;&gt;Node2 -->
<g id="edge2_Node000002_Node000003" class="edge">
<title>Node3&#45;&gt;Node2</title>
<g id="a_edge2_Node000002_Node000003"><a xlink:title=" ">
<path fill="none" stroke="#63b8ff" d="M69.33,-206C111.47,-203.78 180.13,-198.38 238,-185.5 243.97,-184.17 250.05,-182.66 256.15,-181.03"/>
<polygon fill="none" stroke="#63b8ff" points="69.24,-202.5 59.42,-206.49 69.58,-209.49 69.24,-202.5"/>
</a>
</g>
</g>
<!-- Node4 -->
<g id="Node000004" class="node">
<title>Node4</title>
<g id="a_Node000004"><a xlink:href="../../d1/da0/classint.html" target="_top" xlink:title=" ">
<polygon fill="white" stroke="none" points="43,-95.5 15,-95.5 15,-43.5 43,-43.5 43,-95.5"/>
<text text-anchor="start" x="20" y="-82" font-family="Cascadia Code NF" font-size="10.00">int</text>
<text text-anchor="start" x="26" y="-66" font-family="Cascadia Code NF" font-size="10.00"> </text>
<text text-anchor="start" x="26" y="-50" font-family="Cascadia Code NF" font-size="10.00"> </text>
<polygon fill="#bfbfbf" stroke="#bfbfbf" points="15,-77.5 15,-77.5 43,-77.5 43,-77.5 15,-77.5"/>
<polygon fill="#bfbfbf" stroke="#bfbfbf" points="15,-61.5 15,-61.5 43,-61.5 43,-61.5 15,-61.5"/>
<polygon fill="none" stroke="#bfbfbf" points="15,-43.5 15,-95.5 43,-95.5 43,-43.5 15,-43.5"/>
</a>
</g>
</g>
<!-- Node4&#45;&gt;Node2 -->
<g id="edge3_Node000002_Node000004" class="edge">
<title>Node4&#45;&gt;Node2</title>
<g id="a_edge3_Node000002_Node000004"><a xlink:title=" ">
<path fill="none" stroke="#63b8ff" d="M42.92,-67.1C75.99,-61.42 166.14,-48.96 238,-66.75 240,-67.24 242,-67.77 244,-68.34"/>
<polygon fill="none" stroke="#63b8ff" points="243.98,-68.33 250.9,-66.31 255.44,-71.91 248.52,-73.94 243.98,-68.33"/>
</a>
</g>
<text text-anchor="middle" x="157" y="-172.75" font-family="Cascadia Code NF" font-size="10.00" fill="grey"> +kEndOfStrongFieldsOffset</text>
<text text-anchor="middle" x="157" y="-160" font-family="Cascadia Code NF" font-size="10.00" fill="grey">+kEndOfWeakFieldsOffset</text>
<text text-anchor="middle" x="157" y="-147.25" font-family="Cascadia Code NF" font-size="10.00" fill="grey">+kHeaderSize</text>
<text text-anchor="middle" x="157" y="-134.5" font-family="Cascadia Code NF" font-size="10.00" fill="grey">+kNextOffset</text>
<text text-anchor="middle" x="157" y="-121.75" font-family="Cascadia Code NF" font-size="10.00" fill="grey">+kNextOffsetEnd</text>
<text text-anchor="middle" x="157" y="-109" font-family="Cascadia Code NF" font-size="10.00" fill="grey">+kStartOfStrongFieldsOffset</text>
<text text-anchor="middle" x="157" y="-96.25" font-family="Cascadia Code NF" font-size="10.00" fill="grey">+kStartOfWeakFieldsOffset</text>
<text text-anchor="middle" x="157" y="-83.5" font-family="Cascadia Code NF" font-size="10.00" fill="grey">+kSyncIteratorOffset</text>
<text text-anchor="middle" x="157" y="-70.75" font-family="Cascadia Code NF" font-size="10.00" fill="grey">+kSyncIteratorOffsetEnd</text>
</g>
</g>
</svg>

<g id="navigator" transform="translate(0 0)" fill="#404254">
  <rect fill="#f2f5e9" fill-opacity="0.5" stroke="#606060" stroke-width=".5" x="0" y="0" width="60" height="60"/>
  <use id="zoomplus" xlink:href="#zoomPlus" x="17" y="9" onmousedown="handleZoom(evt,'in')"/>
  <use id="zoomminus" xlink:href="#zoomMin" x="42" y="9" onmousedown="handleZoom(evt,'out')"/>
  <use id="reset" xlink:href="#resetDef" x="30" y="36" onmousedown="handleReset()"/>
   <use id="arrowup" xlink:href="#arrowUp" x="0" y="0" onmousedown="handlePan(0,-1)"/>
  <use id="arrowright" xlink:href="#arrowRight" x="0" y="0" onmousedown="handlePan(1,0)"/>
  <use id="arrowdown" xlink:href="#arrowDown" x="0" y="0" onmousedown="handlePan(0,1)"/>
  <use id="arrowleft" xlink:href="#arrowLeft" x="0" y="0" onmousedown="handlePan(-1,0)"/>
</g>
<svg viewBox="0 0 15 15" width="100%" height="30px" preserveAspectRatio="xMaxYMin meet">
 <g id="arrow_out" transform="scale(0.3 0.3)">
  <a xlink:href="classv8_1_1internal_1_1JSAsyncFromSyncIterator__coll__graph_org.svg" target="_base">
   <rect id="button" ry="5" rx="5" y="6" x="6" height="38" width="38"
        fill="#f2f5e9" fill-opacity="0.5" stroke="#606060" stroke-width="1.0"/>
   <path id="arrow"
     d="M 11.500037,31.436501 C 11.940474,20.09759 22.043105,11.32322 32.158766,21.979434 L 37.068811,17.246167 C 37.068811,17.246167 37.088388,32 37.088388,32 L 22.160133,31.978069 C 22.160133,31.978069 26.997745,27.140456 26.997745,27.140456 C 18.528582,18.264221 13.291696,25.230495 11.500037,31.436501 z"
     style="fill:#404040;"/>
  </a>
 </g>
</svg>

<style type='text/css'>
<![CDATA[
[data-mouse-over-selected='false'] { opacity: 0.7; }
[data-mouse-over-selected='true']  { opacity: 1.0; }
]]>
</style>
<script type="application/ecmascript"><![CDATA[
document.addEventListener('DOMContentLoaded', (event) => {
  highlightEdges();
  highlightAdjacentNodes();
});
]]></script>
</svg>
