<?xml version="1.0" encoding="UTF-8" standalone="no"?>
<!DOCTYPE svg PUBLIC "-//W3C//DTD SVG 1.1//EN"
 "http://www.w3.org/Graphics/SVG/1.1/DTD/svg11.dtd">
<!-- Generated by graphviz version 11.0.0 (20240428.1522)
 -->
<!-- Title: v8::internal::Displacement Pages: 1 -->
<svg width="174pt" height="156pt"
 viewBox="0.00 0.00 174.00 156.00" xmlns="http://www.w3.org/2000/svg" xmlns:xlink="http://www.w3.org/1999/xlink">
<g id="graph0" class="graph" transform="scale(1 1) rotate(0) translate(4 152)">
<title>v8::internal::Displacement</title>
<!-- Node1 -->
<g id="Node000001" class="node">
<title>Node1</title>
<g id="a_Node000001"><a xlink:title=" ">
<polygon fill="#999999" stroke="none" points="166,-148 0,-148 0,0 166,0 166,-148"/>
<text text-anchor="start" x="5" y="-134.5" font-family="Cascadia Code NF" font-size="10.00">v8::internal::Displacement</text>
<text text-anchor="start" x="80" y="-118.5" font-family="Cascadia Code NF" font-size="10.00"> </text>
<text text-anchor="start" x="20" y="-102.5" font-family="Cascadia Code NF" font-size="10.00">+</text>
<text text-anchor="start" x="46" y="-102.5" font-family="Cascadia Code NF" font-size="10.00">data()</text>
<text text-anchor="start" x="20" y="-86.5" font-family="Cascadia Code NF" font-size="10.00">+</text>
<text text-anchor="start" x="46" y="-86.5" font-family="Cascadia Code NF" font-size="10.00">type()</text>
<text text-anchor="start" x="20" y="-70.5" font-family="Cascadia Code NF" font-size="10.00">+</text>
<text text-anchor="start" x="46" y="-70.5" font-family="Cascadia Code NF" font-size="10.00">next()</text>
<text text-anchor="start" x="20" y="-54.5" font-family="Cascadia Code NF" font-size="10.00">+</text>
<text text-anchor="start" x="46" y="-54.5" font-family="Cascadia Code NF" font-size="10.00">link_to()</text>
<text text-anchor="start" x="20" y="-38.5" font-family="Cascadia Code NF" font-size="10.00">+</text>
<text text-anchor="start" x="46" y="-38.5" font-family="Cascadia Code NF" font-size="10.00">Displacement()</text>
<text text-anchor="start" x="20" y="-22.5" font-family="Cascadia Code NF" font-size="10.00">+</text>
<text text-anchor="start" x="46" y="-22.5" font-family="Cascadia Code NF" font-size="10.00">Displacement()</text>
<text text-anchor="start" x="20" y="-6.5" font-family="Cascadia Code NF" font-size="10.00">+</text>
<text text-anchor="start" x="46" y="-6.5" font-family="Cascadia Code NF" font-size="10.00">print()</text>
<polygon fill="#666666" stroke="#666666" points="0,-130 0,-130 166,-130 166,-130 0,-130"/>
<polygon fill="#666666" stroke="#666666" points="0,-114 0,-114 166,-114 166,-114 0,-114"/>
<polygon fill="none" stroke="#666666" points="0,0 0,-148 166,-148 166,0 0,0"/>
</a>
</g>
</g>
</g>
</svg>
