<?xml version="1.0" encoding="UTF-8" standalone="no"?>
<!DOCTYPE svg PUBLIC "-//W3C//DTD SVG 1.1//EN"
 "http://www.w3.org/Graphics/SVG/1.1/DTD/svg11.dtd">
<!-- Generated by graphviz version 11.0.0 (20240428.1522)
 -->
<!-- Title: v8::internal::maglev::Float64Compare Pages: 1 -->
<!--zoomable 388 -->

<svg id="main" version="1.1" xmlns="http://www.w3.org/2000/svg" xmlns:xlink="http://www.w3.org/1999/xlink" xml:space="preserve" onload="init(evt)">
<style type="text/css"><![CDATA[
.node, .edge {opacity: 0.7;}
.node.selected, .edge.selected {opacity: 1;}
.edge:hover path { stroke: red; }
.edge:hover polygon { stroke: red; fill: red; }
svg#main { background-color: #111; }
]]></style>

<defs>
  <circle id="rim" cx="0" cy="0" r="7"/>
  <circle id="rim2" cx="0" cy="0" r="3.5"/>
  <g id="zoomPlus">
    <use xlink:href="#rim" fill="#404040"><set attributeName="fill" to="#808080" begin="zoomplus.mouseover" end="zoomplus.mouseout"/></use>
    <path d="M-4,0h8M0,-4v8" fill="none" stroke="white" stroke-width="1.5" pointer-events="none"/>
  </g>
  <g id="zoomMin">
    <use xlink:href="#rim" fill="#404040"><set attributeName="fill" to="#808080" begin="zoomminus.mouseover" end="zoomminus.mouseout"/></use>
    <path d="M-4,0h8" fill="none" stroke="white" stroke-width="1.5" pointer-events="none"/>
  </g>
  <g id="arrowUp" transform="translate(30 24)">
    <use xlink:href="#rim"/>
    <path pointer-events="none" fill="none" stroke="white" stroke-width="1.5" d="M0,-3.0v7 M-2.5,-0.5L0,-3.0L2.5,-0.5"/>
  </g>
  <g id="arrowRight" transform="rotate(90) translate(36 -43)">
    <use xlink:href="#rim"/>
    <path pointer-events="none" fill="none" stroke="white" stroke-width="1.5" d="M0,-3.0v7 M-2.5,-0.5L0,-3.0L2.5,-0.5"/>
  </g>
  <g id="arrowDown" transform="rotate(180) translate(-30 -48)">
    <use xlink:href="#rim"/>
    <path pointer-events="none" fill="none" stroke="white" stroke-width="1.5" d="M0,-3.0v7 M-2.5,-0.5L0,-3.0L2.5,-0.5"/>
  </g>
  <g id="arrowLeft" transform="rotate(270) translate(-36 17)">
    <use xlink:href="#rim"/>
    <path pointer-events="none" fill="none" stroke="white" stroke-width="1.5" d="M0,-3.0v7 M-2.5,-0.5L0,-3.0L2.5,-0.5"/>
  </g>
  <g id="resetDef">
    <use xlink:href="#rim2" fill="#404040"><set attributeName="fill" to="#808080" begin="reset.mouseover" end="reset.mouseout"/></use>
  </g>
</defs>
<script type="application/ecmascript">
var viewWidth = 916;
var viewHeight = 388;
var sectionId = 'dynsection-1';
</script>
<script type="application/ecmascript" xlink:href="../../svg.min.js"/>
<svg id="graph" class="graph">
<g id="viewport">
<title>v8::internal::maglev::Float64Compare</title>
<!-- Node1 -->
<g id="Node000001" class="node">
<title>Node1</title>
<g id="a_Node000001"><a xlink:title=" ">
<polygon fill="#999999" stroke="none" points="908,-197.5 716,-197.5 716,-20.5 908,-20.5 908,-197.5"/>
<text text-anchor="start" x="752" y="-184" font-family="Cascadia Code NF" font-size="10.00">v8::internal::maglev</text>
<text text-anchor="start" x="764" y="-171.25" font-family="Cascadia Code NF" font-size="10.00">::Float64Compare</text>
<text text-anchor="start" x="809" y="-155" font-family="Cascadia Code NF" font-size="10.00"> </text>
<text text-anchor="start" x="720" y="-139" font-family="Cascadia Code NF" font-size="10.00">+</text>
<text text-anchor="start" x="730" y="-139" font-family="Cascadia Code NF" font-size="10.00">Float64Compare()</text>
<text text-anchor="start" x="720" y="-123" font-family="Cascadia Code NF" font-size="10.00">+</text>
<text text-anchor="start" x="730" y="-123" font-family="Cascadia Code NF" font-size="10.00">left_input()</text>
<text text-anchor="start" x="720" y="-107" font-family="Cascadia Code NF" font-size="10.00">+</text>
<text text-anchor="start" x="730" y="-107" font-family="Cascadia Code NF" font-size="10.00">right_input()</text>
<text text-anchor="start" x="720" y="-91" font-family="Cascadia Code NF" font-size="10.00">+</text>
<text text-anchor="start" x="730" y="-91" font-family="Cascadia Code NF" font-size="10.00">operation()</text>
<text text-anchor="start" x="720" y="-75" font-family="Cascadia Code NF" font-size="10.00">+</text>
<text text-anchor="start" x="730" y="-75" font-family="Cascadia Code NF" font-size="10.00">SetValueLocationConstraints()</text>
<text text-anchor="start" x="720" y="-59" font-family="Cascadia Code NF" font-size="10.00">+</text>
<text text-anchor="start" x="730" y="-59" font-family="Cascadia Code NF" font-size="10.00">GenerateCode()</text>
<text text-anchor="start" x="720" y="-43" font-family="Cascadia Code NF" font-size="10.00">+</text>
<text text-anchor="start" x="730" y="-43" font-family="Cascadia Code NF" font-size="10.00">PrintParams()</text>
<text text-anchor="start" x="720" y="-27" font-family="Cascadia Code NF" font-size="10.00">+</text>
<text text-anchor="start" x="730" y="-27" font-family="Cascadia Code NF" font-size="10.00">options()</text>
<polygon fill="#666666" stroke="#666666" points="716,-166.5 716,-166.5 908,-166.5 908,-166.5 716,-166.5"/>
<polygon fill="#666666" stroke="#666666" points="716,-150.5 716,-150.5 908,-150.5 908,-150.5 716,-150.5"/>
<polygon fill="none" stroke="#666666" points="716,-20.5 716,-197.5 908,-197.5 908,-20.5 716,-20.5"/>
</a>
</g>
</g>
<!-- Node2 -->
<g id="Node000002" class="node">
<title>Node2</title>
<g id="a_Node000002"><a xlink:href="../../df/d36/classv8_1_1internal_1_1maglev_1_1FixedInputNodeTMixin.html" target="_top" xlink:title=" ">
<polygon fill="white" stroke="none" points="602,-295.5 452,-295.5 452,-166.5 602,-166.5 602,-295.5"/>
<text text-anchor="start" x="464" y="-282" font-family="Cascadia Code NF" font-size="10.00">FixedInputValueNodeT</text>
<text text-anchor="start" x="464" y="-269.25" font-family="Cascadia Code NF" font-size="10.00">&lt; 2, Float64Compare &gt;</text>
<text text-anchor="start" x="524" y="-253" font-family="Cascadia Code NF" font-size="10.00"> </text>
<text text-anchor="start" x="456" y="-237" font-family="Cascadia Code NF" font-size="10.00">+</text>
<text text-anchor="start" x="466" y="-237" font-family="Cascadia Code NF" font-size="10.00">has_inputs()</text>
<text text-anchor="start" x="456" y="-221" font-family="Cascadia Code NF" font-size="10.00">+</text>
<text text-anchor="start" x="466" y="-221" font-family="Cascadia Code NF" font-size="10.00">input_count()</text>
<text text-anchor="start" x="456" y="-205" font-family="Cascadia Code NF" font-size="10.00">+</text>
<text text-anchor="start" x="466" y="-205" font-family="Cascadia Code NF" font-size="10.00">end()</text>
<text text-anchor="start" x="456" y="-189" font-family="Cascadia Code NF" font-size="10.00">+</text>
<text text-anchor="start" x="466" y="-189" font-family="Cascadia Code NF" font-size="10.00">VerifyInputs()</text>
<text text-anchor="start" x="456" y="-173" font-family="Cascadia Code NF" font-size="10.00">#</text>
<text text-anchor="start" x="466" y="-173" font-family="Cascadia Code NF" font-size="10.00">FixedInputNodeTMixin()</text>
<polygon fill="#bfbfbf" stroke="#bfbfbf" points="452,-264.5 452,-264.5 602,-264.5 602,-264.5 452,-264.5"/>
<polygon fill="#bfbfbf" stroke="#bfbfbf" points="452,-248.5 452,-248.5 602,-248.5 602,-248.5 452,-248.5"/>
<polygon fill="none" stroke="#bfbfbf" points="452,-166.5 452,-295.5 602,-295.5 602,-166.5 452,-166.5"/>
</a>
</g>
</g>
<!-- Node2&#45;&gt;Node1 -->
<g id="edge1_Node000001_Node000002" class="edge">
<title>Node2&#45;&gt;Node1</title>
<g id="a_edge1_Node000001_Node000002"><a xlink:title=" ">
<path fill="none" stroke="#63b8ff" d="M612.4,-194.62C645.03,-180.55 682.53,-164.38 716.1,-149.91"/>
<polygon fill="none" stroke="#63b8ff" points="611.17,-191.33 603.38,-198.51 613.94,-197.76 611.17,-191.33"/>
</a>
</g>
</g>
<!-- Node3 -->
<g id="Node000003" class="node">
<title>Node3</title>
<g id="a_Node000003"><a xlink:href="../../dc/d85/classv8_1_1internal_1_1maglev_1_1NodeTMixin.html" target="_top" xlink:title=" ">
<polygon fill="white" stroke="none" points="326,-379.5 142,-379.5 142,-250.5 326,-250.5 326,-379.5"/>
<text text-anchor="start" x="147" y="-366" font-family="Cascadia Code NF" font-size="10.00">v8::internal::maglev</text>
<text text-anchor="start" x="147" y="-353.25" font-family="Cascadia Code NF" font-size="10.00">::NodeTMixin&lt; Base, Derived &gt;</text>
<text text-anchor="start" x="231" y="-337" font-family="Cascadia Code NF" font-size="10.00"> </text>
<text text-anchor="start" x="169.5" y="-321" font-family="Cascadia Code NF" font-size="10.00">+</text>
<text text-anchor="start" x="203" y="-321" font-family="Cascadia Code NF" font-size="10.00">opcode()</text>
<text text-anchor="start" x="169.5" y="-305" font-family="Cascadia Code NF" font-size="10.00">+</text>
<text text-anchor="start" x="203" y="-305" font-family="Cascadia Code NF" font-size="10.00">properties()</text>
<text text-anchor="start" x="169.5" y="-289" font-family="Cascadia Code NF" font-size="10.00">+</text>
<text text-anchor="start" x="203" y="-289" font-family="Cascadia Code NF" font-size="10.00">New()</text>
<text text-anchor="start" x="169.5" y="-273" font-family="Cascadia Code NF" font-size="10.00">+</text>
<text text-anchor="start" x="203" y="-273" font-family="Cascadia Code NF" font-size="10.00">New()</text>
<text text-anchor="start" x="169.5" y="-257" font-family="Cascadia Code NF" font-size="10.00">#</text>
<text text-anchor="start" x="203" y="-257" font-family="Cascadia Code NF" font-size="10.00">NodeTMixin()</text>
<polygon fill="#bfbfbf" stroke="#bfbfbf" points="142,-348.5 142,-348.5 326,-348.5 326,-348.5 142,-348.5"/>
<polygon fill="#bfbfbf" stroke="#bfbfbf" points="142,-332.5 142,-332.5 326,-332.5 326,-332.5 142,-332.5"/>
<polygon fill="none" stroke="#bfbfbf" points="142,-250.5 142,-379.5 326,-379.5 326,-250.5 142,-250.5"/>
</a>
</g>
</g>
<!-- Node3&#45;&gt;Node2 -->
<g id="edge2_Node000002_Node000003" class="edge">
<title>Node3&#45;&gt;Node2</title>
<g id="a_edge2_Node000002_Node000003"><a xlink:title=" ">
<path fill="none" stroke="#63b8ff" d="M336.51,-285.7C374.64,-274.69 417.23,-262.4 452.35,-252.26"/>
<polygon fill="none" stroke="#63b8ff" points="335.97,-282.21 327.33,-288.35 337.91,-288.94 335.97,-282.21"/>
</a>
</g>
</g>
<!-- Node4 -->
<g id="Node000004" class="node">
<title>Node4</title>
<g id="a_Node000004"><a xlink:title=" ">
<polygon fill="white" stroke="none" points="34,-341 0,-341 0,-289 34,-289 34,-341"/>
<text text-anchor="start" x="5" y="-327.5" font-family="Cascadia Code NF" font-size="10.00">Base</text>
<text text-anchor="start" x="14" y="-311.5" font-family="Cascadia Code NF" font-size="10.00"> </text>
<text text-anchor="start" x="14" y="-295.5" font-family="Cascadia Code NF" font-size="10.00"> </text>
<polygon fill="#bfbfbf" stroke="#bfbfbf" points="0,-323 0,-323 34,-323 34,-323 0,-323"/>
<polygon fill="#bfbfbf" stroke="#bfbfbf" points="0,-307 0,-307 34,-307 34,-307 0,-307"/>
<polygon fill="none" stroke="#bfbfbf" points="0,-289 0,-341 34,-341 34,-289 0,-289"/>
</a>
</g>
</g>
<!-- Node4&#45;&gt;Node3 -->
<g id="edge3_Node000003_Node000004" class="edge">
<title>Node4&#45;&gt;Node3</title>
<g id="a_edge3_Node000003_Node000004"><a xlink:title=" ">
<path fill="none" stroke="#63b8ff" d="M45.04,-315C69.55,-315 107.11,-315 142.23,-315"/>
<polygon fill="none" stroke="#63b8ff" points="45.32,-311.5 35.32,-315 45.32,-318.5 45.32,-311.5"/>
</a>
</g>
</g>
<!-- Node5 -->
<g id="Node000005" class="node">
<title>Node5</title>
<g id="a_Node000005"><a xlink:href="../../d3/d3f/structv8_1_1internal_1_1maglev_1_1detail_1_1YouNeedToDefineAnInputTypesArrayInYourDerivedClass.html" target="_top" xlink:title=" ">
<polygon fill="white" stroke="none" points="338,-232 130,-232 130,-154 338,-154 338,-232"/>
<text text-anchor="start" x="135" y="-218.5" font-family="Cascadia Code NF" font-size="10.00">v8::internal::maglev</text>
<text text-anchor="start" x="135" y="-205.75" font-family="Cascadia Code NF" font-size="10.00">::detail::YouNeedToDefineAn</text>
<text text-anchor="start" x="135" y="-193" font-family="Cascadia Code NF" font-size="10.00">InputTypesArrayInYourDerivedClass</text>
<text text-anchor="start" x="231" y="-176.5" font-family="Cascadia Code NF" font-size="10.00"> </text>
<text text-anchor="start" x="231" y="-160.5" font-family="Cascadia Code NF" font-size="10.00"> </text>
<polygon fill="#bfbfbf" stroke="#bfbfbf" points="130,-188 130,-188 338,-188 338,-188 130,-188"/>
<polygon fill="#bfbfbf" stroke="#bfbfbf" points="130,-172 130,-172 338,-172 338,-172 130,-172"/>
<polygon fill="none" stroke="#bfbfbf" points="130,-154 130,-232 338,-232 338,-154 130,-154"/>
</a>
</g>
</g>
<!-- Node5&#45;&gt;Node2 -->
<g id="edge4_Node000002_Node000005" class="edge">
<title>Node5&#45;&gt;Node2</title>
<g id="a_edge4_Node000002_Node000005"><a xlink:title=" ">
<path fill="none" stroke="#63b8ff" d="M337.6,-206.4C370.82,-210.74 407.32,-215.5 439.27,-219.67"/>
<polygon fill="none" stroke="#63b8ff" points="439.41,-219.69 445.87,-216.5 451.31,-221.25 444.84,-224.44 439.41,-219.69"/>
</a>
</g>
<text text-anchor="middle" x="395" y="-221.25" font-family="Cascadia Code NF" font-size="10.00" fill="grey"> #kInputTypes</text>
</g>
<!-- Node6 -->
<g id="Node000006" class="node">
<title>Node6</title>
<g id="a_Node000006"><a xlink:href="../../d1/d62/classv8_1_1internal_1_1maglev_1_1detail_1_1ArrayWrapper.html" target="_top" xlink:title=" ">
<polygon fill="white" stroke="none" points="598,-148 456,-148 456,-70 598,-70 598,-148"/>
<text text-anchor="start" x="461" y="-134.5" font-family="Cascadia Code NF" font-size="10.00">v8::internal::maglev</text>
<text text-anchor="start" x="461" y="-121.75" font-family="Cascadia Code NF" font-size="10.00">::detail::ArrayWrapper</text>
<text text-anchor="start" x="503" y="-109" font-family="Cascadia Code NF" font-size="10.00">&lt; Size &gt;</text>
<text text-anchor="start" x="524" y="-92.5" font-family="Cascadia Code NF" font-size="10.00"> </text>
<text text-anchor="start" x="470" y="-76.5" font-family="Cascadia Code NF" font-size="10.00">+</text>
<text text-anchor="start" x="490" y="-76.5" font-family="Cascadia Code NF" font-size="10.00">ArrayWrapper()</text>
<polygon fill="#bfbfbf" stroke="#bfbfbf" points="456,-104 456,-104 598,-104 598,-104 456,-104"/>
<polygon fill="#bfbfbf" stroke="#bfbfbf" points="456,-88 456,-88 598,-88 598,-88 456,-88"/>
<polygon fill="none" stroke="#bfbfbf" points="456,-70 456,-148 598,-148 598,-70 456,-70"/>
</a>
</g>
</g>
<!-- Node6&#45;&gt;Node1 -->
<g id="edge5_Node000001_Node000006" class="edge">
<title>Node6&#45;&gt;Node1</title>
<g id="a_edge5_Node000001_Node000006"><a xlink:title=" ">
<path fill="none" stroke="#63b8ff" d="M597.96,-109C629.73,-109 668.05,-109 703.37,-109"/>
<polygon fill="none" stroke="#63b8ff" points="703.33,-109 709.33,-105 715.33,-109 709.33,-113 703.33,-109"/>
</a>
</g>
<text text-anchor="middle" x="659" y="-112.25" font-family="Cascadia Code NF" font-size="10.00" fill="grey"> +kInputTypes</text>
</g>
<!-- Node7 -->
<g id="Node000007" class="node">
<title>Node7</title>
<g id="a_Node000007"><a xlink:title=" ">
<polygon fill="white" stroke="none" points="284,-135 184,-135 184,-83 284,-83 284,-135"/>
<text text-anchor="start" x="189" y="-121.5" font-family="Cascadia Code NF" font-size="10.00">std::array&lt; T &gt;</text>
<text text-anchor="start" x="231" y="-105.5" font-family="Cascadia Code NF" font-size="10.00"> </text>
<text text-anchor="start" x="231" y="-89.5" font-family="Cascadia Code NF" font-size="10.00"> </text>
<polygon fill="#666666" stroke="#666666" points="184,-117 184,-117 284,-117 284,-117 184,-117"/>
<polygon fill="#666666" stroke="#666666" points="184,-101 184,-101 284,-101 284,-101 184,-101"/>
<polygon fill="none" stroke="#666666" points="184,-83 184,-135 284,-135 284,-83 184,-83"/>
</a>
</g>
</g>
<!-- Node7&#45;&gt;Node6 -->
<g id="edge6_Node000006_Node000007" class="edge">
<title>Node7&#45;&gt;Node6</title>
<g id="a_edge6_Node000006_Node000007"><a xlink:title=" ">
<path fill="none" stroke="#63b8ff" d="M295.19,-109C342.01,-109 407.03,-109 456.13,-109"/>
<polygon fill="none" stroke="#63b8ff" points="295.22,-105.5 285.22,-109 295.22,-112.5 295.22,-105.5"/>
</a>
</g>
</g>
<!-- Node8 -->
<g id="Node000008" class="node">
<title>Node8</title>
<g id="a_Node000008"><a xlink:title=" ">
<polygon fill="white" stroke="none" points="25,-135 9,-135 9,-83 25,-83 25,-135"/>
<text text-anchor="start" x="14" y="-121.5" font-family="Cascadia Code NF" font-size="10.00">T</text>
<text text-anchor="start" x="14" y="-105.5" font-family="Cascadia Code NF" font-size="10.00"> </text>
<text text-anchor="start" x="14" y="-89.5" font-family="Cascadia Code NF" font-size="10.00"> </text>
<polygon fill="#bfbfbf" stroke="#bfbfbf" points="9,-117 9,-117 25,-117 25,-117 9,-117"/>
<polygon fill="#bfbfbf" stroke="#bfbfbf" points="9,-101 9,-101 25,-101 25,-101 9,-101"/>
<polygon fill="none" stroke="#bfbfbf" points="9,-83 9,-135 25,-135 25,-83 9,-83"/>
</a>
</g>
</g>
<!-- Node8&#45;&gt;Node7 -->
<g id="edge7_Node000007_Node000008" class="edge">
<title>Node8&#45;&gt;Node7</title>
<g id="a_edge7_Node000007_Node000008"><a xlink:title=" ">
<path fill="none" stroke="#63b8ff" d="M24.67,-109C46.61,-109 118.14,-109 171.3,-109"/>
<polygon fill="none" stroke="#63b8ff" points="171.13,-109 177.13,-105 183.13,-109 177.13,-113 171.13,-109"/>
</a>
</g>
<text text-anchor="middle" x="82" y="-112.25" font-family="Cascadia Code NF" font-size="10.00" fill="grey"> +elements</text>
</g>
<!-- Node9 -->
<g id="Node000009" class="node">
<title>Node9</title>
<g id="a_Node000009"><a xlink:href="../../d1/da0/classint.html" target="_top" xlink:title=" ">
<polygon fill="white" stroke="none" points="541,-52 513,-52 513,0 541,0 541,-52"/>
<text text-anchor="start" x="518" y="-38.5" font-family="Cascadia Code NF" font-size="10.00">int</text>
<text text-anchor="start" x="524" y="-22.5" font-family="Cascadia Code NF" font-size="10.00"> </text>
<text text-anchor="start" x="524" y="-6.5" font-family="Cascadia Code NF" font-size="10.00"> </text>
<polygon fill="#bfbfbf" stroke="#bfbfbf" points="513,-34 513,-34 541,-34 541,-34 513,-34"/>
<polygon fill="#bfbfbf" stroke="#bfbfbf" points="513,-18 513,-18 541,-18 541,-18 513,-18"/>
<polygon fill="none" stroke="#bfbfbf" points="513,0 513,-52 541,-52 541,0 513,0"/>
</a>
</g>
</g>
<!-- Node9&#45;&gt;Node1 -->
<g id="edge8_Node000001_Node000009" class="edge">
<title>Node9&#45;&gt;Node1</title>
<g id="a_edge8_Node000001_Node000009"><a xlink:title=" ">
<path fill="none" stroke="#63b8ff" d="M540.9,-29.78C569.69,-38.23 641.57,-59.31 703.95,-77.6"/>
<polygon fill="none" stroke="#63b8ff" points="703.91,-77.59 710.79,-75.44 715.42,-80.97 708.54,-83.12 703.91,-77.59"/>
</a>
</g>
<text text-anchor="middle" x="659" y="-91" font-family="Cascadia Code NF" font-size="10.00" fill="grey"> +kLeftIndex</text>
<text text-anchor="middle" x="659" y="-78.25" font-family="Cascadia Code NF" font-size="10.00" fill="grey">+kRightIndex</text>
</g>
</g>
</svg>

<g id="navigator" transform="translate(0 0)" fill="#404254">
  <rect fill="#f2f5e9" fill-opacity="0.5" stroke="#606060" stroke-width=".5" x="0" y="0" width="60" height="60"/>
  <use id="zoomplus" xlink:href="#zoomPlus" x="17" y="9" onmousedown="handleZoom(evt,'in')"/>
  <use id="zoomminus" xlink:href="#zoomMin" x="42" y="9" onmousedown="handleZoom(evt,'out')"/>
  <use id="reset" xlink:href="#resetDef" x="30" y="36" onmousedown="handleReset()"/>
   <use id="arrowup" xlink:href="#arrowUp" x="0" y="0" onmousedown="handlePan(0,-1)"/>
  <use id="arrowright" xlink:href="#arrowRight" x="0" y="0" onmousedown="handlePan(1,0)"/>
  <use id="arrowdown" xlink:href="#arrowDown" x="0" y="0" onmousedown="handlePan(0,1)"/>
  <use id="arrowleft" xlink:href="#arrowLeft" x="0" y="0" onmousedown="handlePan(-1,0)"/>
</g>
<svg viewBox="0 0 15 15" width="100%" height="30px" preserveAspectRatio="xMaxYMin meet">
 <g id="arrow_out" transform="scale(0.3 0.3)">
  <a xlink:href="classv8_1_1internal_1_1maglev_1_1Float64Compare__coll__graph_org.svg" target="_base">
   <rect id="button" ry="5" rx="5" y="6" x="6" height="38" width="38"
        fill="#f2f5e9" fill-opacity="0.5" stroke="#606060" stroke-width="1.0"/>
   <path id="arrow"
     d="M 11.500037,31.436501 C 11.940474,20.09759 22.043105,11.32322 32.158766,21.979434 L 37.068811,17.246167 C 37.068811,17.246167 37.088388,32 37.088388,32 L 22.160133,31.978069 C 22.160133,31.978069 26.997745,27.140456 26.997745,27.140456 C 18.528582,18.264221 13.291696,25.230495 11.500037,31.436501 z"
     style="fill:#404040;"/>
  </a>
 </g>
</svg>

<style type='text/css'>
<![CDATA[
[data-mouse-over-selected='false'] { opacity: 0.7; }
[data-mouse-over-selected='true']  { opacity: 1.0; }
]]>
</style>
<script type="application/ecmascript"><![CDATA[
document.addEventListener('DOMContentLoaded', (event) => {
  highlightEdges();
  highlightAdjacentNodes();
});
]]></script>
</svg>
