<?xml version="1.0" encoding="UTF-8" standalone="no"?>
<!DOCTYPE svg PUBLIC "-//W3C//DTD SVG 1.1//EN"
 "http://www.w3.org/Graphics/SVG/1.1/DTD/svg11.dtd">
<!-- Generated by graphviz version 11.0.0 (20240428.1522)
 -->
<!-- Title: v8::internal::compiler::StackSlotOperator Pages: 1 -->
<svg width="810pt" height="297pt"
 viewBox="0.00 0.00 810.00 297.00" xmlns="http://www.w3.org/2000/svg" xmlns:xlink="http://www.w3.org/1999/xlink">
<g id="graph0" class="graph" transform="scale(1 1) rotate(0) translate(4 293)">
<title>v8::internal::compiler::StackSlotOperator</title>
<!-- Node1 -->
<g id="Node000001" class="node">
<title>Node1</title>
<g id="a_Node000001"><a xlink:title=" ">
<polygon fill="#999999" stroke="none" points="802,-177 660,-177 660,-112 802,-112 802,-177"/>
<text text-anchor="start" x="665" y="-163.5" font-family="Cascadia Code NF" font-size="10.00">v8::internal::compiler</text>
<text text-anchor="start" x="674" y="-150.75" font-family="Cascadia Code NF" font-size="10.00">::StackSlotOperator</text>
<text text-anchor="start" x="728" y="-134.5" font-family="Cascadia Code NF" font-size="10.00"> </text>
<text text-anchor="start" x="666.5" y="-118.5" font-family="Cascadia Code NF" font-size="10.00">+</text>
<text text-anchor="start" x="679" y="-118.5" font-family="Cascadia Code NF" font-size="10.00">StackSlotOperator()</text>
<polygon fill="#666666" stroke="#666666" points="660,-146 660,-146 802,-146 802,-146 660,-146"/>
<polygon fill="#666666" stroke="#666666" points="660,-130 660,-130 802,-130 802,-130 660,-130"/>
<polygon fill="none" stroke="#666666" points="660,-112 660,-177 802,-177 802,-112 660,-112"/>
</a>
</g>
</g>
<!-- Node2 -->
<g id="Node000002" class="node">
<title>Node2</title>
<g id="a_Node000002"><a xlink:href="../../d9/dae/classv8_1_1internal_1_1compiler_1_1Operator1.html" target="_top" xlink:title=" ">
<polygon fill="white" stroke="none" points="624,-233 386,-233 386,-56 624,-56 624,-233"/>
<text text-anchor="start" x="391" y="-219.5" font-family="Cascadia Code NF" font-size="10.00">v8::internal::compiler</text>
<text text-anchor="start" x="391" y="-206.75" font-family="Cascadia Code NF" font-size="10.00">::Operator1&lt; StackSlotRepresentation &gt;</text>
<text text-anchor="start" x="502" y="-190.5" font-family="Cascadia Code NF" font-size="10.00"> </text>
<text text-anchor="start" x="421" y="-174.5" font-family="Cascadia Code NF" font-size="10.00">+</text>
<text text-anchor="start" x="462" y="-174.5" font-family="Cascadia Code NF" font-size="10.00">Operator1()</text>
<text text-anchor="start" x="421" y="-158.5" font-family="Cascadia Code NF" font-size="10.00">+</text>
<text text-anchor="start" x="462" y="-158.5" font-family="Cascadia Code NF" font-size="10.00">parameter()</text>
<text text-anchor="start" x="421" y="-142.5" font-family="Cascadia Code NF" font-size="10.00">+</text>
<text text-anchor="start" x="462" y="-142.5" font-family="Cascadia Code NF" font-size="10.00">Equals()</text>
<text text-anchor="start" x="421" y="-126.5" font-family="Cascadia Code NF" font-size="10.00">+</text>
<text text-anchor="start" x="462" y="-126.5" font-family="Cascadia Code NF" font-size="10.00">HashCode()</text>
<text text-anchor="start" x="421" y="-110.5" font-family="Cascadia Code NF" font-size="10.00">+</text>
<text text-anchor="start" x="462" y="-110.5" font-family="Cascadia Code NF" font-size="10.00">PrintParameter()</text>
<text text-anchor="start" x="421" y="-94.5" font-family="Cascadia Code NF" font-size="10.00">+</text>
<text text-anchor="start" x="462" y="-94.5" font-family="Cascadia Code NF" font-size="10.00">PrintParameter()</text>
<text text-anchor="start" x="421" y="-78.5" font-family="Cascadia Code NF" font-size="10.00">+</text>
<text text-anchor="start" x="462" y="-78.5" font-family="Cascadia Code NF" font-size="10.00">PrintParameter()</text>
<text text-anchor="start" x="421" y="-62.5" font-family="Cascadia Code NF" font-size="10.00">+</text>
<text text-anchor="start" x="462" y="-62.5" font-family="Cascadia Code NF" font-size="10.00">PrintToImpl()</text>
<polygon fill="#bfbfbf" stroke="#bfbfbf" points="386,-202 386,-202 624,-202 624,-202 386,-202"/>
<polygon fill="#bfbfbf" stroke="#bfbfbf" points="386,-186 386,-186 624,-186 624,-186 386,-186"/>
<polygon fill="none" stroke="#bfbfbf" points="386,-56 386,-233 624,-233 624,-56 386,-56"/>
</a>
</g>
</g>
<!-- Node2&#45;&gt;Node1 -->
<g id="edge1_Node000001_Node000002" class="edge">
<title>Node2&#45;&gt;Node1</title>
<g id="a_edge1_Node000001_Node000002"><a xlink:title=" ">
<path fill="none" stroke="#63b8ff" d="M635.13,-144.5C643.63,-144.5 651.99,-144.5 660.01,-144.5"/>
<polygon fill="none" stroke="#63b8ff" points="635.42,-141 625.42,-144.5 635.42,-148 635.42,-141"/>
</a>
</g>
</g>
<!-- Node3 -->
<g id="Node000003" class="node">
<title>Node3</title>
<g id="a_Node000003"><a xlink:href="../../d3/da2/classv8_1_1internal_1_1compiler_1_1Operator.html" target="_top" xlink:title=" ">
<polygon fill="white" stroke="none" points="350,-289 208,-289 208,0 350,0 350,-289"/>
<text text-anchor="start" x="213" y="-275.5" font-family="Cascadia Code NF" font-size="10.00">v8::internal::compiler</text>
<text text-anchor="start" x="249" y="-262.75" font-family="Cascadia Code NF" font-size="10.00">::Operator</text>
<text text-anchor="start" x="276" y="-246.5" font-family="Cascadia Code NF" font-size="10.00"> </text>
<text text-anchor="start" x="213" y="-230.5" font-family="Cascadia Code NF" font-size="10.00">+</text>
<text text-anchor="start" x="224" y="-230.5" font-family="Cascadia Code NF" font-size="10.00">Operator()</text>
<text text-anchor="start" x="213" y="-214.5" font-family="Cascadia Code NF" font-size="10.00">+</text>
<text text-anchor="start" x="224" y="-214.5" font-family="Cascadia Code NF" font-size="10.00">Operator()</text>
<text text-anchor="start" x="213" y="-198.5" font-family="Cascadia Code NF" font-size="10.00">+</text>
<text text-anchor="start" x="224" y="-198.5" font-family="Cascadia Code NF" font-size="10.00">operator=()</text>
<text text-anchor="start" x="213" y="-182.5" font-family="Cascadia Code NF" font-size="10.00">+</text>
<text text-anchor="start" x="224" y="-182.5" font-family="Cascadia Code NF" font-size="10.00">~Operator()</text>
<text text-anchor="start" x="213" y="-166.5" font-family="Cascadia Code NF" font-size="10.00">+</text>
<text text-anchor="start" x="224" y="-166.5" font-family="Cascadia Code NF" font-size="10.00">opcode()</text>
<text text-anchor="start" x="213" y="-150.5" font-family="Cascadia Code NF" font-size="10.00">+</text>
<text text-anchor="start" x="224" y="-150.5" font-family="Cascadia Code NF" font-size="10.00">mnemonic()</text>
<text text-anchor="start" x="213" y="-134.5" font-family="Cascadia Code NF" font-size="10.00">+</text>
<text text-anchor="start" x="224" y="-134.5" font-family="Cascadia Code NF" font-size="10.00">Equals()</text>
<text text-anchor="start" x="213" y="-118.5" font-family="Cascadia Code NF" font-size="10.00">+</text>
<text text-anchor="start" x="224" y="-118.5" font-family="Cascadia Code NF" font-size="10.00">HashCode()</text>
<text text-anchor="start" x="213" y="-102.5" font-family="Cascadia Code NF" font-size="10.00">+</text>
<text text-anchor="start" x="224" y="-102.5" font-family="Cascadia Code NF" font-size="10.00">HasProperty()</text>
<text text-anchor="start" x="213" y="-86.5" font-family="Cascadia Code NF" font-size="10.00">+</text>
<text text-anchor="start" x="224" y="-86.5" font-family="Cascadia Code NF" font-size="10.00">properties()</text>
<text text-anchor="start" x="224" y="-70.5" font-family="Cascadia Code NF" font-size="10.00">and 8 more...</text>
<text text-anchor="start" x="213" y="-54.5" font-family="Cascadia Code NF" font-size="10.00">+</text>
<text text-anchor="start" x="224" y="-54.5" font-family="Cascadia Code NF" font-size="10.00">ZeroIfEliminatable()</text>
<text text-anchor="start" x="213" y="-38.5" font-family="Cascadia Code NF" font-size="10.00">+</text>
<text text-anchor="start" x="224" y="-38.5" font-family="Cascadia Code NF" font-size="10.00">ZeroIfNoThrow()</text>
<text text-anchor="start" x="213" y="-22.5" font-family="Cascadia Code NF" font-size="10.00">+</text>
<text text-anchor="start" x="224" y="-22.5" font-family="Cascadia Code NF" font-size="10.00">ZeroIfPure()</text>
<text text-anchor="start" x="213" y="-6.5" font-family="Cascadia Code NF" font-size="10.00">#</text>
<text text-anchor="start" x="224" y="-6.5" font-family="Cascadia Code NF" font-size="10.00">PrintToImpl()</text>
<polygon fill="#bfbfbf" stroke="#bfbfbf" points="208,-258 208,-258 350,-258 350,-258 208,-258"/>
<polygon fill="#bfbfbf" stroke="#bfbfbf" points="208,-242 208,-242 350,-242 350,-242 208,-242"/>
<polygon fill="none" stroke="#bfbfbf" points="208,0 208,-289 350,-289 350,0 208,0"/>
</a>
</g>
</g>
<!-- Node3&#45;&gt;Node2 -->
<g id="edge2_Node000002_Node000003" class="edge">
<title>Node3&#45;&gt;Node2</title>
<g id="a_edge2_Node000002_Node000003"><a xlink:title=" ">
<path fill="none" stroke="#63b8ff" d="M361.25,-144.5C369.37,-144.5 377.71,-144.5 386.11,-144.5"/>
<polygon fill="none" stroke="#63b8ff" points="361.47,-141 351.47,-144.5 361.47,-148 361.47,-141"/>
</a>
</g>
</g>
<!-- Node4 -->
<g id="Node000004" class="node">
<title>Node4</title>
<g id="a_Node000004"><a xlink:href="../../d2/dca/classNON__EXPORTED__BASEZoneObject.html" target="_top" xlink:title=" ">
<polygon fill="white" stroke="none" points="172,-170.5 0,-170.5 0,-118.5 172,-118.5 172,-170.5"/>
<text text-anchor="start" x="5" y="-157" font-family="Cascadia Code NF" font-size="10.00">NON_EXPORTED_BASEZoneObject</text>
<text text-anchor="start" x="83" y="-141" font-family="Cascadia Code NF" font-size="10.00"> </text>
<text text-anchor="start" x="83" y="-125" font-family="Cascadia Code NF" font-size="10.00"> </text>
<polygon fill="#bfbfbf" stroke="#bfbfbf" points="0,-152.5 0,-152.5 172,-152.5 172,-152.5 0,-152.5"/>
<polygon fill="#bfbfbf" stroke="#bfbfbf" points="0,-136.5 0,-136.5 172,-136.5 172,-136.5 0,-136.5"/>
<polygon fill="none" stroke="#bfbfbf" points="0,-118.5 0,-170.5 172,-170.5 172,-118.5 0,-118.5"/>
</a>
</g>
</g>
<!-- Node4&#45;&gt;Node3 -->
<g id="edge3_Node000003_Node000004" class="edge">
<title>Node4&#45;&gt;Node3</title>
<g id="a_edge3_Node000003_Node000004"><a xlink:title=" ">
<path fill="none" stroke="#63b8ff" d="M183.33,-144.5C191.73,-144.5 200.12,-144.5 208.25,-144.5"/>
<polygon fill="none" stroke="#63b8ff" points="183.4,-141 173.4,-144.5 183.4,-148 183.4,-141"/>
</a>
</g>
</g>
</g>
</svg>
