<?xml version="1.0" encoding="UTF-8" standalone="no"?>
<!DOCTYPE svg PUBLIC "-//W3C//DTD SVG 1.1//EN"
 "http://www.w3.org/Graphics/SVG/1.1/DTD/svg11.dtd">
<!-- Generated by graphviz version 11.0.0 (20240428.1522)
 -->
<!-- Title: v8::internal::compiler::turboshaft::OpMaskT&lt; Op, Mask, Value &gt; Pages: 1 -->
<svg width="280pt" height="86pt"
 viewBox="0.00 0.00 280.00 86.00" xmlns="http://www.w3.org/2000/svg" xmlns:xlink="http://www.w3.org/1999/xlink">
<g id="graph0" class="graph" transform="scale(1 1) rotate(0) translate(4 82)">
<title>v8::internal::compiler::turboshaft::OpMaskT&lt; Op, Mask, Value &gt;</title>
<!-- Node1 -->
<g id="Node000001" class="node">
<title>Node1</title>
<g id="a_Node000001"><a xlink:title=" ">
<polygon fill="#999999" stroke="none" points="272,-78 130,-78 130,0 272,0 272,-78"/>
<text text-anchor="start" x="135" y="-64.5" font-family="Cascadia Code NF" font-size="10.00">v8::internal::compiler</text>
<text text-anchor="start" x="135" y="-51.75" font-family="Cascadia Code NF" font-size="10.00">::turboshaft::OpMaskT</text>
<text text-anchor="start" x="144" y="-39" font-family="Cascadia Code NF" font-size="10.00">&lt; Op, Mask, Value &gt;</text>
<text text-anchor="start" x="198" y="-22.5" font-family="Cascadia Code NF" font-size="10.00"> </text>
<text text-anchor="start" x="198" y="-6.5" font-family="Cascadia Code NF" font-size="10.00"> </text>
<polygon fill="#666666" stroke="#666666" points="130,-34 130,-34 272,-34 272,-34 130,-34"/>
<polygon fill="#666666" stroke="#666666" points="130,-18 130,-18 272,-18 272,-18 130,-18"/>
<polygon fill="none" stroke="#666666" points="130,0 130,-78 272,-78 272,0 130,0"/>
</a>
</g>
</g>
<!-- Node2 -->
<g id="Node000002" class="node">
<title>Node2</title>
<g id="a_Node000002"><a xlink:title=" ">
<polygon fill="white" stroke="none" points="58,-65 0,-65 0,-13 58,-13 58,-65"/>
<text text-anchor="start" x="5" y="-51.5" font-family="Cascadia Code NF" font-size="10.00">uint64_t</text>
<text text-anchor="start" x="26" y="-35.5" font-family="Cascadia Code NF" font-size="10.00"> </text>
<text text-anchor="start" x="26" y="-19.5" font-family="Cascadia Code NF" font-size="10.00"> </text>
<polygon fill="#bfbfbf" stroke="#bfbfbf" points="0,-47 0,-47 58,-47 58,-47 0,-47"/>
<polygon fill="#bfbfbf" stroke="#bfbfbf" points="0,-31 0,-31 58,-31 58,-31 0,-31"/>
<polygon fill="none" stroke="#bfbfbf" points="0,-13 0,-65 58,-65 58,-13 0,-13"/>
</a>
</g>
</g>
<!-- Node2&#45;&gt;Node1 -->
<g id="edge1_Node000001_Node000002" class="edge">
<title>Node2&#45;&gt;Node1</title>
<g id="a_edge1_Node000001_Node000002"><a xlink:title=" ">
<path fill="none" stroke="#63b8ff" d="M57.69,-39C74.05,-39 95.72,-39 117.19,-39"/>
<polygon fill="none" stroke="#63b8ff" points="117.23,-39 123.23,-35 129.23,-39 123.23,-43 117.23,-39"/>
</a>
</g>
<text text-anchor="middle" x="94" y="-55" font-family="Cascadia Code NF" font-size="10.00" fill="grey"> +mask</text>
<text text-anchor="middle" x="94" y="-42.25" font-family="Cascadia Code NF" font-size="10.00" fill="grey">+value</text>
</g>
</g>
</svg>
