<?xml version="1.0" encoding="UTF-8" standalone="no"?>
<!DOCTYPE svg PUBLIC "-//W3C//DTD SVG 1.1//EN"
 "http://www.w3.org/Graphics/SVG/1.1/DTD/svg11.dtd">
<!-- Generated by graphviz version 11.0.0 (20240428.1522)
 -->
<!-- Title: cppgc::internal::HeapObjectName Pages: 1 -->
<svg width="382pt" height="130pt"
 viewBox="0.00 0.00 382.00 130.00" xmlns="http://www.w3.org/2000/svg" xmlns:xlink="http://www.w3.org/1999/xlink">

<svg id="main" version="1.1" xmlns="http://www.w3.org/2000/svg" xmlns:xlink="http://www.w3.org/1999/xlink" xml:space="preserve" onload="init(evt)">
<style type="text/css"><![CDATA[
.node, .edge {opacity: 0.7;}
.node.selected, .edge.selected {opacity: 1;}
.edge:hover path { stroke: red; }
.edge:hover polygon { stroke: red; fill: red; }
svg#main { background-color: #111; }
]]></style>
<script type="application/ecmascript" xlink:href="../../svg.min.js"/>
<svg id="graph" class="graph">
<g id="graph0" class="graph" transform="scale(1 1) rotate(0) translate(4 126)">
<title>cppgc::internal::HeapObjectName</title>
<!-- Node1 -->
<g id="Node000001" class="node">
<title>Node1</title>
<g id="a_Node000001"><a xlink:title=" ">
<polygon fill="#999999" stroke="none" points="374,-87 178,-87 178,-35 374,-35 374,-87"/>
<text text-anchor="start" x="183" y="-73.5" font-family="Cascadia Code NF" font-size="10.00">cppgc::internal::HeapObjectName</text>
<text text-anchor="start" x="273" y="-57.5" font-family="Cascadia Code NF" font-size="10.00"> </text>
<text text-anchor="start" x="273" y="-41.5" font-family="Cascadia Code NF" font-size="10.00"> </text>
<polygon fill="#666666" stroke="#666666" points="178,-69 178,-69 374,-69 374,-69 178,-69"/>
<polygon fill="#666666" stroke="#666666" points="178,-53 178,-53 374,-53 374,-53 178,-53"/>
<polygon fill="none" stroke="#666666" points="178,-35 178,-87 374,-87 374,-35 178,-35"/>
</a>
</g>
</g>
<!-- Node2 -->
<g id="Node000002" class="node">
<title>Node2</title>
<g id="a_Node000002"><a xlink:title=" ">
<polygon fill="white" stroke="none" points="40,-122 0,-122 0,-70 40,-70 40,-122"/>
<text text-anchor="start" x="5" y="-108.5" font-family="Cascadia Code NF" font-size="10.00">const</text>
<text text-anchor="start" x="17" y="-92.5" font-family="Cascadia Code NF" font-size="10.00"> </text>
<text text-anchor="start" x="17" y="-76.5" font-family="Cascadia Code NF" font-size="10.00"> </text>
<polygon fill="#bfbfbf" stroke="#bfbfbf" points="0,-104 0,-104 40,-104 40,-104 0,-104"/>
<polygon fill="#bfbfbf" stroke="#bfbfbf" points="0,-88 0,-88 40,-88 40,-88 0,-88"/>
<polygon fill="none" stroke="#bfbfbf" points="0,-70 0,-122 40,-122 40,-70 0,-70"/>
</a>
</g>
</g>
<!-- Node2&#45;&gt;Node1 -->
<g id="edge1_Node000001_Node000002" class="edge">
<title>Node2&#45;&gt;Node1</title>
<g id="a_edge1_Node000001_Node000002"><a xlink:title=" ">
<path fill="none" stroke="#63b8ff" d="M39.68,-93.43C66.39,-89.75 117.58,-82.69 165.41,-76.1"/>
<polygon fill="none" stroke="#63b8ff" points="165.35,-76.11 170.74,-71.33 177.23,-74.47 171.84,-79.25 165.35,-76.11"/>
</a>
</g>
<text text-anchor="middle" x="109" y="-93.25" font-family="Cascadia Code NF" font-size="10.00" fill="grey"> +value</text>
</g>
<!-- Node3 -->
<g id="Node000003" class="node">
<title>Node3</title>
<g id="a_Node000003"><a xlink:title=" ">
<polygon fill="white" stroke="none" points="37,-52 3,-52 3,0 37,0 37,-52"/>
<text text-anchor="start" x="8" y="-38.5" font-family="Cascadia Code NF" font-size="10.00">bool</text>
<text text-anchor="start" x="17" y="-22.5" font-family="Cascadia Code NF" font-size="10.00"> </text>
<text text-anchor="start" x="17" y="-6.5" font-family="Cascadia Code NF" font-size="10.00"> </text>
<polygon fill="#bfbfbf" stroke="#bfbfbf" points="3,-34 3,-34 37,-34 37,-34 3,-34"/>
<polygon fill="#bfbfbf" stroke="#bfbfbf" points="3,-18 3,-18 37,-18 37,-18 3,-18"/>
<polygon fill="none" stroke="#bfbfbf" points="3,0 3,-52 37,-52 37,0 3,0"/>
</a>
</g>
</g>
<!-- Node3&#45;&gt;Node1 -->
<g id="edge2_Node000001_Node000003" class="edge">
<title>Node3&#45;&gt;Node1</title>
<g id="a_edge2_Node000001_Node000003"><a xlink:title=" ">
<path fill="none" stroke="#63b8ff" d="M36.89,-28.19C62.67,-31.74 115.71,-39.05 165.2,-45.87"/>
<polygon fill="none" stroke="#63b8ff" points="165.25,-45.88 171.74,-42.73 177.13,-47.51 170.65,-50.66 165.25,-45.88"/>
</a>
</g>
<text text-anchor="middle" x="109" y="-47.25" font-family="Cascadia Code NF" font-size="10.00" fill="grey"> +name_was_hidden</text>
</g>
</g>
</svg>
</svg>

<style type='text/css'>
<![CDATA[
[data-mouse-over-selected='false'] { opacity: 0.7; }
[data-mouse-over-selected='true']  { opacity: 1.0; }
]]>
</style>
<script type="application/ecmascript"><![CDATA[
document.addEventListener('DOMContentLoaded', (event) => {
  highlightEdges();
  highlightAdjacentNodes();
});
]]></script>
</svg>
