<?xml version="1.0" encoding="UTF-8" standalone="no"?>
<!DOCTYPE svg PUBLIC "-//W3C//DTD SVG 1.1//EN"
 "http://www.w3.org/Graphics/SVG/1.1/DTD/svg11.dtd">
<!-- Generated by graphviz version 11.0.0 (20240428.1522)
 -->
<!-- Title: v8::internal::maglev::Call Pages: 1 -->
<svg width="362pt" height="281pt"
 viewBox="0.00 0.00 362.00 281.00" xmlns="http://www.w3.org/2000/svg" xmlns:xlink="http://www.w3.org/1999/xlink">
<g id="graph0" class="graph" transform="scale(1 1) rotate(0) translate(4 277)">
<title>v8::internal::maglev::Call</title>
<!-- Node1 -->
<g id="Node000001" class="node">
<title>Node1</title>
<g id="a_Node000001"><a xlink:title=" ">
<polygon fill="#999999" stroke="none" points="354,-273 224,-273 224,0 354,0 354,-273"/>
<text text-anchor="start" x="229" y="-259.5" font-family="Cascadia Code NF" font-size="10.00">v8::internal::maglev</text>
<text text-anchor="start" x="271" y="-246.75" font-family="Cascadia Code NF" font-size="10.00">::Call</text>
<text text-anchor="start" x="232" y="-230.5" font-family="Cascadia Code NF" font-size="10.00">+</text>
<text text-anchor="start" x="246" y="-230.5" font-family="Cascadia Code NF" font-size="10.00">kFunctionIndex</text>
<text text-anchor="start" x="232" y="-214.5" font-family="Cascadia Code NF" font-size="10.00">+</text>
<text text-anchor="start" x="246" y="-214.5" font-family="Cascadia Code NF" font-size="10.00">kContextIndex</text>
<text text-anchor="start" x="232" y="-198.5" font-family="Cascadia Code NF" font-size="10.00">+</text>
<text text-anchor="start" x="246" y="-198.5" font-family="Cascadia Code NF" font-size="10.00">kFixedInputCount</text>
<text text-anchor="start" x="232" y="-182.5" font-family="Cascadia Code NF" font-size="10.00">+</text>
<text text-anchor="start" x="246" y="-182.5" font-family="Cascadia Code NF" font-size="10.00">kProperties</text>
<text text-anchor="start" x="232" y="-166.5" font-family="Cascadia Code NF" font-size="10.00">+</text>
<text text-anchor="start" x="246" y="-166.5" font-family="Cascadia Code NF" font-size="10.00">Call()</text>
<text text-anchor="start" x="232" y="-150.5" font-family="Cascadia Code NF" font-size="10.00">+</text>
<text text-anchor="start" x="246" y="-150.5" font-family="Cascadia Code NF" font-size="10.00">function()</text>
<text text-anchor="start" x="232" y="-134.5" font-family="Cascadia Code NF" font-size="10.00">+</text>
<text text-anchor="start" x="246" y="-134.5" font-family="Cascadia Code NF" font-size="10.00">function()</text>
<text text-anchor="start" x="232" y="-118.5" font-family="Cascadia Code NF" font-size="10.00">+</text>
<text text-anchor="start" x="246" y="-118.5" font-family="Cascadia Code NF" font-size="10.00">context()</text>
<text text-anchor="start" x="232" y="-102.5" font-family="Cascadia Code NF" font-size="10.00">+</text>
<text text-anchor="start" x="246" y="-102.5" font-family="Cascadia Code NF" font-size="10.00">context()</text>
<text text-anchor="start" x="232" y="-86.5" font-family="Cascadia Code NF" font-size="10.00">+</text>
<text text-anchor="start" x="246" y="-86.5" font-family="Cascadia Code NF" font-size="10.00">num_args()</text>
<text text-anchor="start" x="232" y="-70.5" font-family="Cascadia Code NF" font-size="10.00">+</text>
<text text-anchor="start" x="246" y="-70.5" font-family="Cascadia Code NF" font-size="10.00">arg()</text>
<text text-anchor="start" x="232" y="-54.5" font-family="Cascadia Code NF" font-size="10.00">+</text>
<text text-anchor="start" x="246" y="-54.5" font-family="Cascadia Code NF" font-size="10.00">set_arg()</text>
<text text-anchor="start" x="232" y="-38.5" font-family="Cascadia Code NF" font-size="10.00">+</text>
<text text-anchor="start" x="246" y="-38.5" font-family="Cascadia Code NF" font-size="10.00">args()</text>
<text text-anchor="start" x="232" y="-22.5" font-family="Cascadia Code NF" font-size="10.00">+</text>
<text text-anchor="start" x="246" y="-22.5" font-family="Cascadia Code NF" font-size="10.00">VerifyInputs()</text>
<text text-anchor="start" x="246" y="-6.5" font-family="Cascadia Code NF" font-size="10.00">and 6 more...</text>
<polygon fill="#666666" stroke="#666666" points="224,-242 224,-242 354,-242 354,-242 224,-242"/>
<polygon fill="#666666" stroke="#666666" points="224,-178 224,-178 244,-178 244,-178 224,-178"/>
<polygon fill="#666666" stroke="#666666" points="244,-178 244,-178 354,-178 354,-178 244,-178"/>
<polygon fill="none" stroke="#666666" points="224,0 224,-273 354,-273 354,0 224,0"/>
</a>
</g>
</g>
<!-- Node2 -->
<g id="Node000002" class="node">
<title>Node2</title>
<g id="a_Node000002"><a xlink:href="../../dc/d85/classv8_1_1internal_1_1maglev_1_1NodeTMixin.html" target="_top" xlink:title=" ">
<polygon fill="white" stroke="none" points="188,-194.5 70,-194.5 70,-78.5 188,-78.5 188,-194.5"/>
<text text-anchor="start" x="75" y="-181" font-family="Cascadia Code NF" font-size="10.00">ValueNodeT&lt; Call &gt;</text>
<text text-anchor="start" x="126" y="-165" font-family="Cascadia Code NF" font-size="10.00"> </text>
<text text-anchor="start" x="81" y="-149" font-family="Cascadia Code NF" font-size="10.00">+</text>
<text text-anchor="start" x="98" y="-149" font-family="Cascadia Code NF" font-size="10.00">opcode()</text>
<text text-anchor="start" x="81" y="-133" font-family="Cascadia Code NF" font-size="10.00">+</text>
<text text-anchor="start" x="98" y="-133" font-family="Cascadia Code NF" font-size="10.00">properties()</text>
<text text-anchor="start" x="81" y="-117" font-family="Cascadia Code NF" font-size="10.00">+</text>
<text text-anchor="start" x="98" y="-117" font-family="Cascadia Code NF" font-size="10.00">New()</text>
<text text-anchor="start" x="81" y="-101" font-family="Cascadia Code NF" font-size="10.00">+</text>
<text text-anchor="start" x="98" y="-101" font-family="Cascadia Code NF" font-size="10.00">New()</text>
<text text-anchor="start" x="81" y="-85" font-family="Cascadia Code NF" font-size="10.00">#</text>
<text text-anchor="start" x="98" y="-85" font-family="Cascadia Code NF" font-size="10.00">NodeTMixin()</text>
<polygon fill="#bfbfbf" stroke="#bfbfbf" points="70,-176.5 70,-176.5 188,-176.5 188,-176.5 70,-176.5"/>
<polygon fill="#bfbfbf" stroke="#bfbfbf" points="70,-160.5 70,-160.5 188,-160.5 188,-160.5 70,-160.5"/>
<polygon fill="none" stroke="#bfbfbf" points="70,-78.5 70,-194.5 188,-194.5 188,-78.5 70,-78.5"/>
</a>
</g>
</g>
<!-- Node2&#45;&gt;Node1 -->
<g id="edge1_Node000001_Node000002" class="edge">
<title>Node2&#45;&gt;Node1</title>
<g id="a_edge1_Node000001_Node000002"><a xlink:title=" ">
<path fill="none" stroke="#63b8ff" d="M199.45,-136.5C207.68,-136.5 216.06,-136.5 224.21,-136.5"/>
<polygon fill="none" stroke="#63b8ff" points="199.45,-133 189.45,-136.5 199.45,-140 199.45,-133"/>
</a>
</g>
</g>
<!-- Node3 -->
<g id="Node000003" class="node">
<title>Node3</title>
<g id="a_Node000003"><a xlink:title=" ">
<polygon fill="white" stroke="none" points="34,-162.5 0,-162.5 0,-110.5 34,-110.5 34,-162.5"/>
<text text-anchor="start" x="5" y="-149" font-family="Cascadia Code NF" font-size="10.00">Base</text>
<text text-anchor="start" x="14" y="-133" font-family="Cascadia Code NF" font-size="10.00"> </text>
<text text-anchor="start" x="14" y="-117" font-family="Cascadia Code NF" font-size="10.00"> </text>
<polygon fill="#bfbfbf" stroke="#bfbfbf" points="0,-144.5 0,-144.5 34,-144.5 34,-144.5 0,-144.5"/>
<polygon fill="#bfbfbf" stroke="#bfbfbf" points="0,-128.5 0,-128.5 34,-128.5 34,-128.5 0,-128.5"/>
<polygon fill="none" stroke="#bfbfbf" points="0,-110.5 0,-162.5 34,-162.5 34,-110.5 0,-110.5"/>
</a>
</g>
</g>
<!-- Node3&#45;&gt;Node2 -->
<g id="edge2_Node000002_Node000003" class="edge">
<title>Node3&#45;&gt;Node2</title>
<g id="a_edge2_Node000002_Node000003"><a xlink:title=" ">
<path fill="none" stroke="#63b8ff" d="M45.17,-136.5C52.79,-136.5 61.38,-136.5 70.08,-136.5"/>
<polygon fill="none" stroke="#63b8ff" points="45.27,-133 35.27,-136.5 45.27,-140 45.27,-133"/>
</a>
</g>
</g>
</g>
</svg>
