<?xml version="1.0" encoding="UTF-8" standalone="no"?>
<!DOCTYPE svg PUBLIC "-//W3C//DTD SVG 1.1//EN"
 "http://www.w3.org/Graphics/SVG/1.1/DTD/svg11.dtd">
<!-- Generated by graphviz version 11.0.0 (20240428.1522)
 -->
<!-- Title: v8::internal::UnalignedValueMember&lt; T &gt; Pages: 1 -->
<svg width="316pt" height="105pt"
 viewBox="0.00 0.00 316.00 105.00" xmlns="http://www.w3.org/2000/svg" xmlns:xlink="http://www.w3.org/1999/xlink">

<svg id="main" version="1.1" xmlns="http://www.w3.org/2000/svg" xmlns:xlink="http://www.w3.org/1999/xlink" xml:space="preserve" onload="init(evt)">
<style type="text/css"><![CDATA[
.node, .edge {opacity: 0.7;}
.node.selected, .edge.selected {opacity: 1;}
.edge:hover path { stroke: red; }
.edge:hover polygon { stroke: red; fill: red; }
svg#main { background-color: #111; }
]]></style>
<script type="application/ecmascript" xlink:href="../../svg.min.js"/>
<svg id="graph" class="graph">
<g id="graph0" class="graph" transform="scale(1 1) rotate(0) translate(4 101)">
<title>v8::internal::UnalignedValueMember&lt; T &gt;</title>
<!-- Node1 -->
<g id="Node000001" class="node">
<title>Node1</title>
<g id="a_Node000001"><a xlink:title=" ">
<polygon fill="#999999" stroke="none" points="308,-97 130,-97 130,0 308,0 308,-97"/>
<text text-anchor="start" x="135" y="-83.5" font-family="Cascadia Code NF" font-size="10.00">v8::internal::UnalignedValue</text>
<text text-anchor="start" x="186" y="-70.75" font-family="Cascadia Code NF" font-size="10.00">Member&lt; T &gt;</text>
<text text-anchor="start" x="216" y="-54.5" font-family="Cascadia Code NF" font-size="10.00"> </text>
<text text-anchor="start" x="141" y="-38.5" font-family="Cascadia Code NF" font-size="10.00">+</text>
<text text-anchor="start" x="158" y="-38.5" font-family="Cascadia Code NF" font-size="10.00">UnalignedValueMember()</text>
<text text-anchor="start" x="141" y="-22.5" font-family="Cascadia Code NF" font-size="10.00">+</text>
<text text-anchor="start" x="158" y="-22.5" font-family="Cascadia Code NF" font-size="10.00">value()</text>
<text text-anchor="start" x="141" y="-6.5" font-family="Cascadia Code NF" font-size="10.00">+</text>
<text text-anchor="start" x="158" y="-6.5" font-family="Cascadia Code NF" font-size="10.00">set_value()</text>
<polygon fill="#666666" stroke="#666666" points="130,-66 130,-66 308,-66 308,-66 130,-66"/>
<polygon fill="#666666" stroke="#666666" points="130,-50 130,-50 308,-50 308,-50 130,-50"/>
<polygon fill="none" stroke="#666666" points="130,0 130,-97 308,-97 308,0 130,0"/>
</a>
</g>
</g>
<!-- Node2 -->
<g id="Node000002" class="node">
<title>Node2</title>
<g id="a_Node000002"><a xlink:href="../../da/d7d/classchar.html" target="_top" xlink:title=" ">
<polygon fill="white" stroke="none" points="34,-74.5 0,-74.5 0,-22.5 34,-22.5 34,-74.5"/>
<text text-anchor="start" x="5" y="-61" font-family="Cascadia Code NF" font-size="10.00">char</text>
<text text-anchor="start" x="14" y="-45" font-family="Cascadia Code NF" font-size="10.00"> </text>
<text text-anchor="start" x="14" y="-29" font-family="Cascadia Code NF" font-size="10.00"> </text>
<polygon fill="#bfbfbf" stroke="#bfbfbf" points="0,-56.5 0,-56.5 34,-56.5 34,-56.5 0,-56.5"/>
<polygon fill="#bfbfbf" stroke="#bfbfbf" points="0,-40.5 0,-40.5 34,-40.5 34,-40.5 0,-40.5"/>
<polygon fill="none" stroke="#bfbfbf" points="0,-22.5 0,-74.5 34,-74.5 34,-22.5 0,-22.5"/>
</a>
</g>
</g>
<!-- Node2&#45;&gt;Node1 -->
<g id="edge1_Node000001_Node000002" class="edge">
<title>Node2&#45;&gt;Node1</title>
<g id="a_edge1_Node000001_Node000002"><a xlink:title=" ">
<path fill="none" stroke="#63b8ff" d="M33.69,-48.5C52.23,-48.5 84.68,-48.5 117.23,-48.5"/>
<polygon fill="none" stroke="#63b8ff" points="117.27,-48.5 123.27,-44.5 129.27,-48.5 123.27,-52.5 117.27,-48.5"/>
</a>
</g>
<text text-anchor="middle" x="82" y="-51.75" font-family="Cascadia Code NF" font-size="10.00" fill="grey"> #storage_</text>
</g>
</g>
</svg>
</svg>

<style type='text/css'>
<![CDATA[
[data-mouse-over-selected='false'] { opacity: 0.7; }
[data-mouse-over-selected='true']  { opacity: 1.0; }
]]>
</style>
<script type="application/ecmascript"><![CDATA[
document.addEventListener('DOMContentLoaded', (event) => {
  highlightEdges();
  highlightAdjacentNodes();
});
]]></script>
</svg>
