<?xml version="1.0" encoding="UTF-8" standalone="no"?>
<!DOCTYPE svg PUBLIC "-//W3C//DTD SVG 1.1//EN"
 "http://www.w3.org/Graphics/SVG/1.1/DTD/svg11.dtd">
<!-- Generated by graphviz version 11.0.0 (20240428.1522)
 -->
<!-- Title: v8::internal::PageIteratorImpl&lt; PageType &gt; Pages: 1 -->
<svg width="358pt" height="185pt"
 viewBox="0.00 0.00 358.00 185.00" xmlns="http://www.w3.org/2000/svg" xmlns:xlink="http://www.w3.org/1999/xlink">
<g id="graph0" class="graph" transform="scale(1 1) rotate(0) translate(4 181)">
<title>v8::internal::PageIteratorImpl&lt; PageType &gt;</title>
<!-- Node1 -->
<g id="Node000001" class="node">
<title>Node1</title>
<g id="a_Node000001"><a xlink:title=" ">
<polygon fill="#999999" stroke="none" points="350,-177 184,-177 184,0 350,0 350,-177"/>
<text text-anchor="start" x="189" y="-163.5" font-family="Cascadia Code NF" font-size="10.00">v8::internal::PageIterator</text>
<text text-anchor="start" x="219" y="-150.75" font-family="Cascadia Code NF" font-size="10.00">Impl&lt; PageType &gt;</text>
<text text-anchor="start" x="264" y="-134.5" font-family="Cascadia Code NF" font-size="10.00"> </text>
<text text-anchor="start" x="198" y="-118.5" font-family="Cascadia Code NF" font-size="10.00">+</text>
<text text-anchor="start" x="218" y="-118.5" font-family="Cascadia Code NF" font-size="10.00">PageIteratorImpl()</text>
<text text-anchor="start" x="198" y="-102.5" font-family="Cascadia Code NF" font-size="10.00">+</text>
<text text-anchor="start" x="218" y="-102.5" font-family="Cascadia Code NF" font-size="10.00">PageIteratorImpl()</text>
<text text-anchor="start" x="198" y="-86.5" font-family="Cascadia Code NF" font-size="10.00">+</text>
<text text-anchor="start" x="218" y="-86.5" font-family="Cascadia Code NF" font-size="10.00">operator=()</text>
<text text-anchor="start" x="198" y="-70.5" font-family="Cascadia Code NF" font-size="10.00">+</text>
<text text-anchor="start" x="218" y="-70.5" font-family="Cascadia Code NF" font-size="10.00">operator*()</text>
<text text-anchor="start" x="198" y="-54.5" font-family="Cascadia Code NF" font-size="10.00">+</text>
<text text-anchor="start" x="218" y="-54.5" font-family="Cascadia Code NF" font-size="10.00">operator==()</text>
<text text-anchor="start" x="198" y="-38.5" font-family="Cascadia Code NF" font-size="10.00">+</text>
<text text-anchor="start" x="218" y="-38.5" font-family="Cascadia Code NF" font-size="10.00">operator!=()</text>
<text text-anchor="start" x="198" y="-22.5" font-family="Cascadia Code NF" font-size="10.00">+</text>
<text text-anchor="start" x="218" y="-22.5" font-family="Cascadia Code NF" font-size="10.00">operator++()</text>
<text text-anchor="start" x="198" y="-6.5" font-family="Cascadia Code NF" font-size="10.00">+</text>
<text text-anchor="start" x="218" y="-6.5" font-family="Cascadia Code NF" font-size="10.00">operator++()</text>
<polygon fill="#666666" stroke="#666666" points="184,-146 184,-146 350,-146 350,-146 184,-146"/>
<polygon fill="#666666" stroke="#666666" points="184,-130 184,-130 350,-130 350,-130 184,-130"/>
<polygon fill="none" stroke="#666666" points="184,0 184,-177 350,-177 350,0 184,0"/>
</a>
</g>
</g>
<!-- Node2 -->
<g id="Node000002" class="node">
<title>Node2</title>
<g id="a_Node000002"><a xlink:href="$d8/d3b/structv8_1_1base_1_1iterator.html" xlink:title=" ">
<polygon fill="white" stroke="none" points="148,-127.5 0,-127.5 0,-49.5 148,-49.5 148,-127.5"/>
<text text-anchor="start" x="5" y="-114" font-family="Cascadia Code NF" font-size="10.00">v8::base::iterator</text>
<text text-anchor="start" x="5" y="-101.25" font-family="Cascadia Code NF" font-size="10.00">&lt; std::forward_iterator</text>
<text text-anchor="start" x="26" y="-88.5" font-family="Cascadia Code NF" font-size="10.00">_tag, PageType &gt;</text>
<text text-anchor="start" x="71" y="-72" font-family="Cascadia Code NF" font-size="10.00"> </text>
<text text-anchor="start" x="71" y="-56" font-family="Cascadia Code NF" font-size="10.00"> </text>
<polygon fill="#bfbfbf" stroke="#bfbfbf" points="0,-83.5 0,-83.5 148,-83.5 148,-83.5 0,-83.5"/>
<polygon fill="#bfbfbf" stroke="#bfbfbf" points="0,-67.5 0,-67.5 148,-67.5 148,-67.5 0,-67.5"/>
<polygon fill="none" stroke="#bfbfbf" points="0,-49.5 0,-127.5 148,-127.5 148,-49.5 0,-49.5"/>
</a>
</g>
</g>
<!-- Node2&#45;&gt;Node1 -->
<g id="edge1_Node000001_Node000002" class="edge">
<title>Node2&#45;&gt;Node1</title>
<g id="a_edge1_Node000001_Node000002"><a xlink:title=" ">
<path fill="none" stroke="#63b8ff" d="M159.04,-88.5C167.4,-88.5 175.87,-88.5 184.19,-88.5"/>
<polygon fill="none" stroke="#63b8ff" points="159.27,-85 149.27,-88.5 159.27,-92 159.27,-85"/>
</a>
</g>
</g>
</g>
</svg>
