<?xml version="1.0" encoding="UTF-8" standalone="no"?>
<!DOCTYPE svg PUBLIC "-//W3C//DTD SVG 1.1//EN"
 "http://www.w3.org/Graphics/SVG/1.1/DTD/svg11.dtd">
<!-- Generated by graphviz version 11.0.0 (20240428.1522)
 -->
<!-- Title: v8::internal::interpreter::ControlFlowBuilder Pages: 1 -->
<svg width="652pt" height="1140pt"
 viewBox="0.00 0.00 652.00 1140.00" xmlns="http://www.w3.org/2000/svg" xmlns:xlink="http://www.w3.org/1999/xlink">
<g id="graph0" class="graph" transform="scale(1 1) rotate(0) translate(4 1136)">
<title>v8::internal::interpreter::ControlFlowBuilder</title>
<!-- Node1 -->
<g id="Node000001" class="node">
<title>Node1</title>
<g id="a_Node000001"><a xlink:title=" ">
<polygon fill="#999999" stroke="none" points="160,-487 0,-487 0,-358 160,-358 160,-487"/>
<text text-anchor="start" x="5" y="-473.5" font-family="Cascadia Code NF" font-size="10.00">v8::internal::interpreter</text>
<text text-anchor="start" x="20" y="-460.75" font-family="Cascadia Code NF" font-size="10.00">::ControlFlowBuilder</text>
<text text-anchor="start" x="77" y="-444.5" font-family="Cascadia Code NF" font-size="10.00"> </text>
<text text-anchor="start" x="8" y="-428.5" font-family="Cascadia Code NF" font-size="10.00">+</text>
<text text-anchor="start" x="22" y="-428.5" font-family="Cascadia Code NF" font-size="10.00">ControlFlowBuilder()</text>
<text text-anchor="start" x="8" y="-412.5" font-family="Cascadia Code NF" font-size="10.00">+</text>
<text text-anchor="start" x="22" y="-412.5" font-family="Cascadia Code NF" font-size="10.00">ControlFlowBuilder()</text>
<text text-anchor="start" x="8" y="-396.5" font-family="Cascadia Code NF" font-size="10.00">+</text>
<text text-anchor="start" x="22" y="-396.5" font-family="Cascadia Code NF" font-size="10.00">operator=()</text>
<text text-anchor="start" x="8" y="-380.5" font-family="Cascadia Code NF" font-size="10.00">+</text>
<text text-anchor="start" x="22" y="-380.5" font-family="Cascadia Code NF" font-size="10.00">~ControlFlowBuilder()</text>
<text text-anchor="start" x="8" y="-364.5" font-family="Cascadia Code NF" font-size="10.00">#</text>
<text text-anchor="start" x="22" y="-364.5" font-family="Cascadia Code NF" font-size="10.00">builder()</text>
<polygon fill="#666666" stroke="#666666" points="0,-456 0,-456 160,-456 160,-456 0,-456"/>
<polygon fill="#666666" stroke="#666666" points="0,-440 0,-440 160,-440 160,-440 0,-440"/>
<polygon fill="none" stroke="#666666" points="0,-358 0,-487 160,-487 160,-358 0,-358"/>
</a>
</g>
</g>
<!-- Node2 -->
<g id="Node000002" class="node">
<title>Node2</title>
<g id="a_Node000002"><a xlink:href="../../d3/db5/classv8_1_1internal_1_1interpreter_1_1BreakableControlFlowBuilder.html" target="_top" xlink:title=" ">
<polygon fill="white" stroke="none" points="408,-1121 210,-1121 210,-784 408,-784 408,-1121"/>
<text text-anchor="start" x="222" y="-1107.5" font-family="Cascadia Code NF" font-size="10.00">v8::internal::interpreter</text>
<text text-anchor="start" x="222" y="-1094.75" font-family="Cascadia Code NF" font-size="10.00">::BreakableControlFlowBuilder</text>
<text text-anchor="start" x="214" y="-1078.5" font-family="Cascadia Code NF" font-size="10.00">#</text>
<text text-anchor="start" x="224" y="-1078.5" font-family="Cascadia Code NF" font-size="10.00">break_labels_</text>
<text text-anchor="start" x="214" y="-1062.5" font-family="Cascadia Code NF" font-size="10.00">#</text>
<text text-anchor="start" x="224" y="-1062.5" font-family="Cascadia Code NF" font-size="10.00">node_</text>
<text text-anchor="start" x="214" y="-1046.5" font-family="Cascadia Code NF" font-size="10.00">#</text>
<text text-anchor="start" x="224" y="-1046.5" font-family="Cascadia Code NF" font-size="10.00">block_coverage_builder_</text>
<text text-anchor="start" x="214" y="-1030.5" font-family="Cascadia Code NF" font-size="10.00">+</text>
<text text-anchor="start" x="224" y="-1030.5" font-family="Cascadia Code NF" font-size="10.00">BreakableControlFlowBuilder()</text>
<text text-anchor="start" x="214" y="-1014.5" font-family="Cascadia Code NF" font-size="10.00">+</text>
<text text-anchor="start" x="224" y="-1014.5" font-family="Cascadia Code NF" font-size="10.00">~BreakableControlFlowBuilder()</text>
<text text-anchor="start" x="214" y="-998.5" font-family="Cascadia Code NF" font-size="10.00">+</text>
<text text-anchor="start" x="224" y="-998.5" font-family="Cascadia Code NF" font-size="10.00">Break()</text>
<text text-anchor="start" x="214" y="-982.5" font-family="Cascadia Code NF" font-size="10.00">+</text>
<text text-anchor="start" x="224" y="-982.5" font-family="Cascadia Code NF" font-size="10.00">BreakIfTrue()</text>
<text text-anchor="start" x="214" y="-966.5" font-family="Cascadia Code NF" font-size="10.00">+</text>
<text text-anchor="start" x="224" y="-966.5" font-family="Cascadia Code NF" font-size="10.00">BreakIfFalse()</text>
<text text-anchor="start" x="214" y="-950.5" font-family="Cascadia Code NF" font-size="10.00">+</text>
<text text-anchor="start" x="224" y="-950.5" font-family="Cascadia Code NF" font-size="10.00">BreakIfUndefined()</text>
<text text-anchor="start" x="214" y="-934.5" font-family="Cascadia Code NF" font-size="10.00">+</text>
<text text-anchor="start" x="224" y="-934.5" font-family="Cascadia Code NF" font-size="10.00">BreakIfNull()</text>
<text text-anchor="start" x="214" y="-918.5" font-family="Cascadia Code NF" font-size="10.00">+</text>
<text text-anchor="start" x="224" y="-918.5" font-family="Cascadia Code NF" font-size="10.00">BreakIfForInDone()</text>
<text text-anchor="start" x="214" y="-902.5" font-family="Cascadia Code NF" font-size="10.00">+</text>
<text text-anchor="start" x="224" y="-902.5" font-family="Cascadia Code NF" font-size="10.00">break_labels()</text>
<text text-anchor="start" x="214" y="-886.5" font-family="Cascadia Code NF" font-size="10.00">#</text>
<text text-anchor="start" x="224" y="-886.5" font-family="Cascadia Code NF" font-size="10.00">EmitJump()</text>
<text text-anchor="start" x="214" y="-870.5" font-family="Cascadia Code NF" font-size="10.00">#</text>
<text text-anchor="start" x="224" y="-870.5" font-family="Cascadia Code NF" font-size="10.00">EmitJumpIfTrue()</text>
<text text-anchor="start" x="214" y="-854.5" font-family="Cascadia Code NF" font-size="10.00">#</text>
<text text-anchor="start" x="224" y="-854.5" font-family="Cascadia Code NF" font-size="10.00">EmitJumpIfFalse()</text>
<text text-anchor="start" x="214" y="-838.5" font-family="Cascadia Code NF" font-size="10.00">#</text>
<text text-anchor="start" x="224" y="-838.5" font-family="Cascadia Code NF" font-size="10.00">EmitJumpIfUndefined()</text>
<text text-anchor="start" x="214" y="-822.5" font-family="Cascadia Code NF" font-size="10.00">#</text>
<text text-anchor="start" x="224" y="-822.5" font-family="Cascadia Code NF" font-size="10.00">EmitJumpIfNull()</text>
<text text-anchor="start" x="214" y="-806.5" font-family="Cascadia Code NF" font-size="10.00">#</text>
<text text-anchor="start" x="224" y="-806.5" font-family="Cascadia Code NF" font-size="10.00">EmitJumpIfForInDone()</text>
<text text-anchor="start" x="214" y="-790.5" font-family="Cascadia Code NF" font-size="10.00">#</text>
<text text-anchor="start" x="224" y="-790.5" font-family="Cascadia Code NF" font-size="10.00">BindBreakTarget()</text>
<polygon fill="#bfbfbf" stroke="#bfbfbf" points="210,-1090 210,-1090 408,-1090 408,-1090 210,-1090"/>
<polygon fill="#bfbfbf" stroke="#bfbfbf" points="210,-1042 210,-1042 222,-1042 222,-1042 210,-1042"/>
<polygon fill="#bfbfbf" stroke="#bfbfbf" points="222,-1042 222,-1042 408,-1042 408,-1042 222,-1042"/>
<polygon fill="none" stroke="#bfbfbf" points="210,-784 210,-1121 408,-1121 408,-784 210,-784"/>
</a>
</g>
</g>
<!-- Node1&#45;&gt;Node2 -->
<g id="edge1_Node000001_Node000002" class="edge">
<title>Node1&#45;&gt;Node2</title>
<g id="a_edge1_Node000001_Node000002"><a xlink:title=" ">
<path fill="none" stroke="#63b8ff" d="M99.64,-497.72C119.06,-570.63 152.69,-683.4 196,-775.5 200.33,-784.71 205.06,-794.03 210.04,-803.32"/>
<polygon fill="none" stroke="#63b8ff" points="103.09,-497.05 97.15,-488.27 96.32,-498.84 103.09,-497.05"/>
</a>
</g>
</g>
<!-- Node6 -->
<g id="Node000006" class="node">
<title>Node6</title>
<g id="a_Node000006"><a xlink:href="../../d8/dbb/classv8_1_1internal_1_1interpreter_1_1ConditionalChainControlFlowBuilder.html" target="_top" xlink:title=" ">
<polygon fill="white" stroke="none" points="422,-766 196,-766 196,-521 422,-521 422,-766"/>
<text text-anchor="start" x="201" y="-752.5" font-family="Cascadia Code NF" font-size="10.00">v8::internal::interpreter</text>
<text text-anchor="start" x="201" y="-739.75" font-family="Cascadia Code NF" font-size="10.00">::ConditionalChainControlFlowBuilder</text>
<text text-anchor="start" x="306" y="-723.5" font-family="Cascadia Code NF" font-size="10.00"> </text>
<text text-anchor="start" x="211.5" y="-707.5" font-family="Cascadia Code NF" font-size="10.00">+</text>
<text text-anchor="start" x="233" y="-707.5" font-family="Cascadia Code NF" font-size="10.00">ConditionalChainControlFlow</text>
<text text-anchor="start" x="233" y="-694.75" font-family="Cascadia Code NF" font-size="10.00">Builder()</text>
<text text-anchor="start" x="211.5" y="-678.5" font-family="Cascadia Code NF" font-size="10.00">+</text>
<text text-anchor="start" x="233" y="-678.5" font-family="Cascadia Code NF" font-size="10.00">~ConditionalChainControl</text>
<text text-anchor="start" x="233" y="-665.75" font-family="Cascadia Code NF" font-size="10.00">FlowBuilder()</text>
<text text-anchor="start" x="211.5" y="-649.5" font-family="Cascadia Code NF" font-size="10.00">+</text>
<text text-anchor="start" x="233" y="-649.5" font-family="Cascadia Code NF" font-size="10.00">then_labels_at()</text>
<text text-anchor="start" x="211.5" y="-633.5" font-family="Cascadia Code NF" font-size="10.00">+</text>
<text text-anchor="start" x="233" y="-633.5" font-family="Cascadia Code NF" font-size="10.00">else_labels_at()</text>
<text text-anchor="start" x="211.5" y="-617.5" font-family="Cascadia Code NF" font-size="10.00">+</text>
<text text-anchor="start" x="233" y="-617.5" font-family="Cascadia Code NF" font-size="10.00">block_coverage_then</text>
<text text-anchor="start" x="233" y="-604.75" font-family="Cascadia Code NF" font-size="10.00">_slot_at()</text>
<text text-anchor="start" x="211.5" y="-588.5" font-family="Cascadia Code NF" font-size="10.00">+</text>
<text text-anchor="start" x="233" y="-588.5" font-family="Cascadia Code NF" font-size="10.00">block_coverage_else</text>
<text text-anchor="start" x="233" y="-575.75" font-family="Cascadia Code NF" font-size="10.00">_slot_at()</text>
<text text-anchor="start" x="211.5" y="-559.5" font-family="Cascadia Code NF" font-size="10.00">+</text>
<text text-anchor="start" x="233" y="-559.5" font-family="Cascadia Code NF" font-size="10.00">ThenAt()</text>
<text text-anchor="start" x="211.5" y="-543.5" font-family="Cascadia Code NF" font-size="10.00">+</text>
<text text-anchor="start" x="233" y="-543.5" font-family="Cascadia Code NF" font-size="10.00">ElseAt()</text>
<text text-anchor="start" x="211.5" y="-527.5" font-family="Cascadia Code NF" font-size="10.00">+</text>
<text text-anchor="start" x="233" y="-527.5" font-family="Cascadia Code NF" font-size="10.00">JumpToEnd()</text>
<polygon fill="#bfbfbf" stroke="#bfbfbf" points="196,-735 196,-735 422,-735 422,-735 196,-735"/>
<polygon fill="#bfbfbf" stroke="#bfbfbf" points="196,-719 196,-719 422,-719 422,-719 196,-719"/>
<polygon fill="none" stroke="#bfbfbf" points="196,-521 196,-766 422,-766 422,-521 196,-521"/>
</a>
</g>
</g>
<!-- Node1&#45;&gt;Node6 -->
<g id="edge5_Node000001_Node000006" class="edge">
<title>Node1&#45;&gt;Node6</title>
<g id="a_edge5_Node000001_Node000006"><a xlink:title=" ">
<path fill="none" stroke="#63b8ff" d="M155.05,-494.59C168.21,-507.41 182.18,-521.01 196.12,-534.58"/>
<polygon fill="none" stroke="#63b8ff" points="157.65,-492.24 148.05,-487.78 152.77,-497.26 157.65,-492.24"/>
</a>
</g>
</g>
<!-- Node7 -->
<g id="Node000007" class="node">
<title>Node7</title>
<g id="a_Node000007"><a xlink:href="../../d8/d8e/classv8_1_1internal_1_1interpreter_1_1ConditionalControlFlowBuilder.html" target="_top" xlink:title=" ">
<polygon fill="white" stroke="none" points="414,-503 204,-503 204,-342 414,-342 414,-503"/>
<text text-anchor="start" x="216" y="-489.5" font-family="Cascadia Code NF" font-size="10.00">v8::internal::interpreter</text>
<text text-anchor="start" x="216" y="-476.75" font-family="Cascadia Code NF" font-size="10.00">::ConditionalControlFlowBuilder</text>
<text text-anchor="start" x="306" y="-460.5" font-family="Cascadia Code NF" font-size="10.00"> </text>
<text text-anchor="start" x="208" y="-444.5" font-family="Cascadia Code NF" font-size="10.00">+</text>
<text text-anchor="start" x="218" y="-444.5" font-family="Cascadia Code NF" font-size="10.00">ConditionalControlFlowBuilder()</text>
<text text-anchor="start" x="208" y="-428.5" font-family="Cascadia Code NF" font-size="10.00">+</text>
<text text-anchor="start" x="218" y="-428.5" font-family="Cascadia Code NF" font-size="10.00">~ConditionalControlFlowBuilder()</text>
<text text-anchor="start" x="208" y="-412.5" font-family="Cascadia Code NF" font-size="10.00">+</text>
<text text-anchor="start" x="218" y="-412.5" font-family="Cascadia Code NF" font-size="10.00">then_labels()</text>
<text text-anchor="start" x="208" y="-396.5" font-family="Cascadia Code NF" font-size="10.00">+</text>
<text text-anchor="start" x="218" y="-396.5" font-family="Cascadia Code NF" font-size="10.00">else_labels()</text>
<text text-anchor="start" x="208" y="-380.5" font-family="Cascadia Code NF" font-size="10.00">+</text>
<text text-anchor="start" x="218" y="-380.5" font-family="Cascadia Code NF" font-size="10.00">Then()</text>
<text text-anchor="start" x="208" y="-364.5" font-family="Cascadia Code NF" font-size="10.00">+</text>
<text text-anchor="start" x="218" y="-364.5" font-family="Cascadia Code NF" font-size="10.00">Else()</text>
<text text-anchor="start" x="208" y="-348.5" font-family="Cascadia Code NF" font-size="10.00">+</text>
<text text-anchor="start" x="218" y="-348.5" font-family="Cascadia Code NF" font-size="10.00">JumpToEnd()</text>
<polygon fill="#bfbfbf" stroke="#bfbfbf" points="204,-472 204,-472 414,-472 414,-472 204,-472"/>
<polygon fill="#bfbfbf" stroke="#bfbfbf" points="204,-456 204,-456 414,-456 414,-456 204,-456"/>
<polygon fill="none" stroke="#bfbfbf" points="204,-342 204,-503 414,-503 414,-342 204,-342"/>
</a>
</g>
</g>
<!-- Node1&#45;&gt;Node7 -->
<g id="edge6_Node000001_Node000007" class="edge">
<title>Node1&#45;&gt;Node7</title>
<g id="a_edge6_Node000001_Node000007"><a xlink:title=" ">
<path fill="none" stroke="#63b8ff" d="M170.99,-422.5C181.9,-422.5 193.11,-422.5 204.19,-422.5"/>
<polygon fill="none" stroke="#63b8ff" points="171.27,-419 161.27,-422.5 171.27,-426 171.27,-419"/>
</a>
</g>
</g>
<!-- Node8 -->
<g id="Node000008" class="node">
<title>Node8</title>
<g id="a_Node000008"><a xlink:href="../../df/d22/classv8_1_1internal_1_1interpreter_1_1TryCatchBuilder.html" target="_top" xlink:title=" ">
<polygon fill="white" stroke="none" points="389,-324 229,-324 229,-195 389,-195 389,-324"/>
<text text-anchor="start" x="234" y="-310.5" font-family="Cascadia Code NF" font-size="10.00">v8::internal::interpreter</text>
<text text-anchor="start" x="258" y="-297.75" font-family="Cascadia Code NF" font-size="10.00">::TryCatchBuilder</text>
<text text-anchor="start" x="306" y="-281.5" font-family="Cascadia Code NF" font-size="10.00"> </text>
<text text-anchor="start" x="241.5" y="-265.5" font-family="Cascadia Code NF" font-size="10.00">+</text>
<text text-anchor="start" x="260" y="-265.5" font-family="Cascadia Code NF" font-size="10.00">TryCatchBuilder()</text>
<text text-anchor="start" x="241.5" y="-249.5" font-family="Cascadia Code NF" font-size="10.00">+</text>
<text text-anchor="start" x="260" y="-249.5" font-family="Cascadia Code NF" font-size="10.00">~TryCatchBuilder()</text>
<text text-anchor="start" x="241.5" y="-233.5" font-family="Cascadia Code NF" font-size="10.00">+</text>
<text text-anchor="start" x="260" y="-233.5" font-family="Cascadia Code NF" font-size="10.00">BeginTry()</text>
<text text-anchor="start" x="241.5" y="-217.5" font-family="Cascadia Code NF" font-size="10.00">+</text>
<text text-anchor="start" x="260" y="-217.5" font-family="Cascadia Code NF" font-size="10.00">EndTry()</text>
<text text-anchor="start" x="241.5" y="-201.5" font-family="Cascadia Code NF" font-size="10.00">+</text>
<text text-anchor="start" x="260" y="-201.5" font-family="Cascadia Code NF" font-size="10.00">EndCatch()</text>
<polygon fill="#bfbfbf" stroke="#bfbfbf" points="229,-293 229,-293 389,-293 389,-293 229,-293"/>
<polygon fill="#bfbfbf" stroke="#bfbfbf" points="229,-277 229,-277 389,-277 389,-277 229,-277"/>
<polygon fill="none" stroke="#bfbfbf" points="229,-195 229,-324 389,-324 389,-195 229,-195"/>
</a>
</g>
</g>
<!-- Node1&#45;&gt;Node8 -->
<g id="edge7_Node000001_Node000008" class="edge">
<title>Node1&#45;&gt;Node8</title>
<g id="a_edge7_Node000001_Node000008"><a xlink:title=" ">
<path fill="none" stroke="#63b8ff" d="M168.94,-353.37C178.01,-346.56 187.15,-339.84 196,-333.5 206.61,-325.9 217.94,-318.09 229.17,-310.52"/>
<polygon fill="none" stroke="#63b8ff" points="166.99,-350.46 161.12,-359.28 171.21,-356.05 166.99,-350.46"/>
</a>
</g>
</g>
<!-- Node9 -->
<g id="Node000009" class="node">
<title>Node9</title>
<g id="a_Node000009"><a xlink:href="../../d9/dc9/classv8_1_1internal_1_1interpreter_1_1TryFinallyBuilder.html" target="_top" xlink:title=" ">
<polygon fill="white" stroke="none" points="389,-177 229,-177 229,0 389,0 389,-177"/>
<text text-anchor="start" x="234" y="-163.5" font-family="Cascadia Code NF" font-size="10.00">v8::internal::interpreter</text>
<text text-anchor="start" x="252" y="-150.75" font-family="Cascadia Code NF" font-size="10.00">::TryFinallyBuilder</text>
<text text-anchor="start" x="306" y="-134.5" font-family="Cascadia Code NF" font-size="10.00"> </text>
<text text-anchor="start" x="238.5" y="-118.5" font-family="Cascadia Code NF" font-size="10.00">+</text>
<text text-anchor="start" x="254" y="-118.5" font-family="Cascadia Code NF" font-size="10.00">TryFinallyBuilder()</text>
<text text-anchor="start" x="238.5" y="-102.5" font-family="Cascadia Code NF" font-size="10.00">+</text>
<text text-anchor="start" x="254" y="-102.5" font-family="Cascadia Code NF" font-size="10.00">~TryFinallyBuilder()</text>
<text text-anchor="start" x="238.5" y="-86.5" font-family="Cascadia Code NF" font-size="10.00">+</text>
<text text-anchor="start" x="254" y="-86.5" font-family="Cascadia Code NF" font-size="10.00">BeginTry()</text>
<text text-anchor="start" x="238.5" y="-70.5" font-family="Cascadia Code NF" font-size="10.00">+</text>
<text text-anchor="start" x="254" y="-70.5" font-family="Cascadia Code NF" font-size="10.00">LeaveTry()</text>
<text text-anchor="start" x="238.5" y="-54.5" font-family="Cascadia Code NF" font-size="10.00">+</text>
<text text-anchor="start" x="254" y="-54.5" font-family="Cascadia Code NF" font-size="10.00">EndTry()</text>
<text text-anchor="start" x="238.5" y="-38.5" font-family="Cascadia Code NF" font-size="10.00">+</text>
<text text-anchor="start" x="254" y="-38.5" font-family="Cascadia Code NF" font-size="10.00">BeginHandler()</text>
<text text-anchor="start" x="238.5" y="-22.5" font-family="Cascadia Code NF" font-size="10.00">+</text>
<text text-anchor="start" x="254" y="-22.5" font-family="Cascadia Code NF" font-size="10.00">BeginFinally()</text>
<text text-anchor="start" x="238.5" y="-6.5" font-family="Cascadia Code NF" font-size="10.00">+</text>
<text text-anchor="start" x="254" y="-6.5" font-family="Cascadia Code NF" font-size="10.00">EndFinally()</text>
<polygon fill="#bfbfbf" stroke="#bfbfbf" points="229,-146 229,-146 389,-146 389,-146 229,-146"/>
<polygon fill="#bfbfbf" stroke="#bfbfbf" points="229,-130 229,-130 389,-130 389,-130 229,-130"/>
<polygon fill="none" stroke="#bfbfbf" points="229,0 229,-177 389,-177 389,0 229,0"/>
</a>
</g>
</g>
<!-- Node1&#45;&gt;Node9 -->
<g id="edge8_Node000001_Node000009" class="edge">
<title>Node1&#45;&gt;Node9</title>
<g id="a_edge8_Node000001_Node000009"><a xlink:title=" ">
<path fill="none" stroke="#63b8ff" d="M108.15,-347.65C128.04,-298.67 158.14,-234.86 196,-185.5 205.71,-172.85 217.28,-160.63 229.25,-149.39"/>
<polygon fill="none" stroke="#63b8ff" points="104.97,-346.19 104.5,-356.77 111.47,-348.79 104.97,-346.19"/>
</a>
</g>
</g>
<!-- Node3 -->
<g id="Node000003" class="node">
<title>Node3</title>
<g id="a_Node000003"><a xlink:href="../../d9/d3c/classv8_1_1internal_1_1interpreter_1_1BlockBuilder.html" target="_top" xlink:title=" ">
<polygon fill="white" stroke="none" points="631,-1132 471,-1132 471,-1067 631,-1067 631,-1132"/>
<text text-anchor="start" x="476" y="-1118.5" font-family="Cascadia Code NF" font-size="10.00">v8::internal::interpreter</text>
<text text-anchor="start" x="509" y="-1105.75" font-family="Cascadia Code NF" font-size="10.00">::BlockBuilder</text>
<text text-anchor="start" x="548" y="-1089.5" font-family="Cascadia Code NF" font-size="10.00"> </text>
<text text-anchor="start" x="489.5" y="-1073.5" font-family="Cascadia Code NF" font-size="10.00">+</text>
<text text-anchor="start" x="514" y="-1073.5" font-family="Cascadia Code NF" font-size="10.00">BlockBuilder()</text>
<polygon fill="#bfbfbf" stroke="#bfbfbf" points="471,-1101 471,-1101 631,-1101 631,-1101 471,-1101"/>
<polygon fill="#bfbfbf" stroke="#bfbfbf" points="471,-1085 471,-1085 631,-1085 631,-1085 471,-1085"/>
<polygon fill="none" stroke="#bfbfbf" points="471,-1067 471,-1132 631,-1132 631,-1067 471,-1067"/>
</a>
</g>
</g>
<!-- Node2&#45;&gt;Node3 -->
<g id="edge2_Node000002_Node000003" class="edge">
<title>Node2&#45;&gt;Node3</title>
<g id="a_edge2_Node000002_Node000003"><a xlink:title=" ">
<path fill="none" stroke="#63b8ff" d="M416.99,-1032.93C430.53,-1041.97 444.41,-1050.71 458,-1058.5 463.16,-1061.46 468.57,-1064.35 474.07,-1067.15"/>
<polygon fill="none" stroke="#63b8ff" points="419.18,-1030.18 408.93,-1027.48 415.26,-1035.98 419.18,-1030.18"/>
</a>
</g>
</g>
<!-- Node4 -->
<g id="Node000004" class="node">
<title>Node4</title>
<g id="a_Node000004"><a xlink:href="../../d9/d28/classv8_1_1internal_1_1interpreter_1_1LoopBuilder.html" target="_top" xlink:title=" ">
<polygon fill="white" stroke="none" points="631,-1049 471,-1049 471,-856 631,-856 631,-1049"/>
<text text-anchor="start" x="476" y="-1035.5" font-family="Cascadia Code NF" font-size="10.00">v8::internal::interpreter</text>
<text text-anchor="start" x="512" y="-1022.75" font-family="Cascadia Code NF" font-size="10.00">::LoopBuilder</text>
<text text-anchor="start" x="548" y="-1006.5" font-family="Cascadia Code NF" font-size="10.00"> </text>
<text text-anchor="start" x="479" y="-990.5" font-family="Cascadia Code NF" font-size="10.00">+</text>
<text text-anchor="start" x="493" y="-990.5" font-family="Cascadia Code NF" font-size="10.00">LoopBuilder()</text>
<text text-anchor="start" x="479" y="-974.5" font-family="Cascadia Code NF" font-size="10.00">+</text>
<text text-anchor="start" x="493" y="-974.5" font-family="Cascadia Code NF" font-size="10.00">~LoopBuilder()</text>
<text text-anchor="start" x="479" y="-958.5" font-family="Cascadia Code NF" font-size="10.00">+</text>
<text text-anchor="start" x="493" y="-958.5" font-family="Cascadia Code NF" font-size="10.00">LoopHeader()</text>
<text text-anchor="start" x="479" y="-942.5" font-family="Cascadia Code NF" font-size="10.00">+</text>
<text text-anchor="start" x="493" y="-942.5" font-family="Cascadia Code NF" font-size="10.00">LoopBody()</text>
<text text-anchor="start" x="479" y="-926.5" font-family="Cascadia Code NF" font-size="10.00">+</text>
<text text-anchor="start" x="493" y="-926.5" font-family="Cascadia Code NF" font-size="10.00">JumpToHeader()</text>
<text text-anchor="start" x="479" y="-910.5" font-family="Cascadia Code NF" font-size="10.00">+</text>
<text text-anchor="start" x="493" y="-910.5" font-family="Cascadia Code NF" font-size="10.00">BindContinueTarget()</text>
<text text-anchor="start" x="479" y="-894.5" font-family="Cascadia Code NF" font-size="10.00">+</text>
<text text-anchor="start" x="493" y="-894.5" font-family="Cascadia Code NF" font-size="10.00">Continue()</text>
<text text-anchor="start" x="479" y="-878.5" font-family="Cascadia Code NF" font-size="10.00">+</text>
<text text-anchor="start" x="493" y="-878.5" font-family="Cascadia Code NF" font-size="10.00">ContinueIfUndefined()</text>
<text text-anchor="start" x="479" y="-862.5" font-family="Cascadia Code NF" font-size="10.00">+</text>
<text text-anchor="start" x="493" y="-862.5" font-family="Cascadia Code NF" font-size="10.00">ContinueIfNull()</text>
<polygon fill="#bfbfbf" stroke="#bfbfbf" points="471,-1018 471,-1018 631,-1018 631,-1018 471,-1018"/>
<polygon fill="#bfbfbf" stroke="#bfbfbf" points="471,-1002 471,-1002 631,-1002 631,-1002 471,-1002"/>
<polygon fill="none" stroke="#bfbfbf" points="471,-856 471,-1049 631,-1049 631,-856 471,-856"/>
</a>
</g>
</g>
<!-- Node2&#45;&gt;Node4 -->
<g id="edge3_Node000002_Node000004" class="edge">
<title>Node2&#45;&gt;Node4</title>
<g id="a_edge3_Node000002_Node000004"><a xlink:title=" ">
<path fill="none" stroke="#63b8ff" d="M419.36,-952.5C436.79,-952.5 454.51,-952.5 471.06,-952.5"/>
<polygon fill="none" stroke="#63b8ff" points="419.48,-949 409.48,-952.5 419.48,-956 419.48,-949"/>
</a>
</g>
</g>
<!-- Node5 -->
<g id="Node000005" class="node">
<title>Node5</title>
<g id="a_Node000005"><a xlink:href="../../d5/de9/classv8_1_1internal_1_1interpreter_1_1SwitchBuilder.html" target="_top" xlink:title=" ">
<polygon fill="white" stroke="none" points="644,-837.5 458,-837.5 458,-631.5 644,-631.5 644,-837.5"/>
<text text-anchor="start" x="476" y="-824" font-family="Cascadia Code NF" font-size="10.00">v8::internal::interpreter</text>
<text text-anchor="start" x="506" y="-811.25" font-family="Cascadia Code NF" font-size="10.00">::SwitchBuilder</text>
<text text-anchor="start" x="548" y="-795" font-family="Cascadia Code NF" font-size="10.00"> </text>
<text text-anchor="start" x="462" y="-779" font-family="Cascadia Code NF" font-size="10.00">+</text>
<text text-anchor="start" x="472" y="-779" font-family="Cascadia Code NF" font-size="10.00">SwitchBuilder()</text>
<text text-anchor="start" x="462" y="-763" font-family="Cascadia Code NF" font-size="10.00">+</text>
<text text-anchor="start" x="472" y="-763" font-family="Cascadia Code NF" font-size="10.00">~SwitchBuilder()</text>
<text text-anchor="start" x="462" y="-747" font-family="Cascadia Code NF" font-size="10.00">+</text>
<text text-anchor="start" x="472" y="-747" font-family="Cascadia Code NF" font-size="10.00">BindCaseTargetForJumpTable()</text>
<text text-anchor="start" x="462" y="-731" font-family="Cascadia Code NF" font-size="10.00">+</text>
<text text-anchor="start" x="472" y="-731" font-family="Cascadia Code NF" font-size="10.00">BindCaseTargetForCompare</text>
<text text-anchor="start" x="472" y="-718.25" font-family="Cascadia Code NF" font-size="10.00">Jump()</text>
<text text-anchor="start" x="462" y="-702" font-family="Cascadia Code NF" font-size="10.00">+</text>
<text text-anchor="start" x="472" y="-702" font-family="Cascadia Code NF" font-size="10.00">JumpToCaseIfTrue()</text>
<text text-anchor="start" x="462" y="-686" font-family="Cascadia Code NF" font-size="10.00">+</text>
<text text-anchor="start" x="472" y="-686" font-family="Cascadia Code NF" font-size="10.00">EmitJumpTableIfExists()</text>
<text text-anchor="start" x="462" y="-670" font-family="Cascadia Code NF" font-size="10.00">+</text>
<text text-anchor="start" x="472" y="-670" font-family="Cascadia Code NF" font-size="10.00">BindDefault()</text>
<text text-anchor="start" x="462" y="-654" font-family="Cascadia Code NF" font-size="10.00">+</text>
<text text-anchor="start" x="472" y="-654" font-family="Cascadia Code NF" font-size="10.00">JumpToDefault()</text>
<text text-anchor="start" x="462" y="-638" font-family="Cascadia Code NF" font-size="10.00">+</text>
<text text-anchor="start" x="472" y="-638" font-family="Cascadia Code NF" font-size="10.00">JumpToFallThroughIfFalse()</text>
<polygon fill="#bfbfbf" stroke="#bfbfbf" points="458,-806.5 458,-806.5 644,-806.5 644,-806.5 458,-806.5"/>
<polygon fill="#bfbfbf" stroke="#bfbfbf" points="458,-790.5 458,-790.5 644,-790.5 644,-790.5 458,-790.5"/>
<polygon fill="none" stroke="#bfbfbf" points="458,-631.5 458,-837.5 644,-837.5 644,-631.5 458,-631.5"/>
</a>
</g>
</g>
<!-- Node2&#45;&gt;Node5 -->
<g id="edge4_Node000002_Node000005" class="edge">
<title>Node2&#45;&gt;Node5</title>
<g id="a_edge4_Node000002_Node000005"><a xlink:title=" ">
<path fill="none" stroke="#63b8ff" d="M416.17,-856.06C430.17,-843.35 444.42,-830.4 458.15,-817.93"/>
<polygon fill="none" stroke="#63b8ff" points="414.13,-853.18 409.08,-862.5 418.84,-858.37 414.13,-853.18"/>
</a>
</g>
</g>
</g>
</svg>
