<?xml version="1.0" encoding="UTF-8" standalone="no"?>
<!DOCTYPE svg PUBLIC "-//W3C//DTD SVG 1.1//EN"
 "http://www.w3.org/Graphics/SVG/1.1/DTD/svg11.dtd">
<!-- Generated by graphviz version 11.0.0 (20240428.1522)
 -->
<!-- Title: v8::internal::WasmDispatchTable Pages: 1 -->
<!--zoomable 457 -->

<svg id="main" version="1.1" xmlns="http://www.w3.org/2000/svg" xmlns:xlink="http://www.w3.org/1999/xlink" xml:space="preserve" onload="init(evt)">
<style type="text/css"><![CDATA[
.node, .edge {opacity: 0.7;}
.node.selected, .edge.selected {opacity: 1;}
.edge:hover path { stroke: red; }
.edge:hover polygon { stroke: red; fill: red; }
svg#main { background-color: #111; }
]]></style>

<defs>
  <circle id="rim" cx="0" cy="0" r="7"/>
  <circle id="rim2" cx="0" cy="0" r="3.5"/>
  <g id="zoomPlus">
    <use xlink:href="#rim" fill="#404040"><set attributeName="fill" to="#808080" begin="zoomplus.mouseover" end="zoomplus.mouseout"/></use>
    <path d="M-4,0h8M0,-4v8" fill="none" stroke="white" stroke-width="1.5" pointer-events="none"/>
  </g>
  <g id="zoomMin">
    <use xlink:href="#rim" fill="#404040"><set attributeName="fill" to="#808080" begin="zoomminus.mouseover" end="zoomminus.mouseout"/></use>
    <path d="M-4,0h8" fill="none" stroke="white" stroke-width="1.5" pointer-events="none"/>
  </g>
  <g id="arrowUp" transform="translate(30 24)">
    <use xlink:href="#rim"/>
    <path pointer-events="none" fill="none" stroke="white" stroke-width="1.5" d="M0,-3.0v7 M-2.5,-0.5L0,-3.0L2.5,-0.5"/>
  </g>
  <g id="arrowRight" transform="rotate(90) translate(36 -43)">
    <use xlink:href="#rim"/>
    <path pointer-events="none" fill="none" stroke="white" stroke-width="1.5" d="M0,-3.0v7 M-2.5,-0.5L0,-3.0L2.5,-0.5"/>
  </g>
  <g id="arrowDown" transform="rotate(180) translate(-30 -48)">
    <use xlink:href="#rim"/>
    <path pointer-events="none" fill="none" stroke="white" stroke-width="1.5" d="M0,-3.0v7 M-2.5,-0.5L0,-3.0L2.5,-0.5"/>
  </g>
  <g id="arrowLeft" transform="rotate(270) translate(-36 17)">
    <use xlink:href="#rim"/>
    <path pointer-events="none" fill="none" stroke="white" stroke-width="1.5" d="M0,-3.0v7 M-2.5,-0.5L0,-3.0L2.5,-0.5"/>
  </g>
  <g id="resetDef">
    <use xlink:href="#rim2" fill="#404040"><set attributeName="fill" to="#808080" begin="reset.mouseover" end="reset.mouseout"/></use>
  </g>
</defs>
<script type="application/ecmascript">
var viewWidth = 838;
var viewHeight = 457;
var sectionId = 'dynsection-0';
</script>
<script type="application/ecmascript" xlink:href="../../svg.min.js"/>
<svg id="graph" class="graph">
<g id="viewport">
<title>v8::internal::WasmDispatchTable</title>
<!-- Node1 -->
<g id="Node000001" class="node">
<title>Node1</title>
<g id="a_Node000001"><a xlink:title=" ">
<polygon fill="#999999" stroke="none" points="830,-449 664,-449 664,0 830,0 830,-449"/>
<text text-anchor="start" x="669" y="-435.5" font-family="Cascadia Code NF" font-size="10.00">v8::internal::WasmDispatch</text>
<text text-anchor="start" x="732" y="-422.75" font-family="Cascadia Code NF" font-size="10.00">Table</text>
<text text-anchor="start" x="673.5" y="-406.5" font-family="Cascadia Code NF" font-size="10.00">+</text>
<text text-anchor="start" x="689" y="-406.5" font-family="Cascadia Code NF" font-size="10.00">kLengthOffset</text>
<text text-anchor="start" x="673.5" y="-390.5" font-family="Cascadia Code NF" font-size="10.00">+</text>
<text text-anchor="start" x="689" y="-390.5" font-family="Cascadia Code NF" font-size="10.00">kCapacityOffset</text>
<text text-anchor="start" x="673.5" y="-374.5" font-family="Cascadia Code NF" font-size="10.00">+</text>
<text text-anchor="start" x="689" y="-374.5" font-family="Cascadia Code NF" font-size="10.00">kEntriesOffset</text>
<text text-anchor="start" x="673.5" y="-358.5" font-family="Cascadia Code NF" font-size="10.00">+</text>
<text text-anchor="start" x="689" y="-358.5" font-family="Cascadia Code NF" font-size="10.00">kTargetBias</text>
<text text-anchor="start" x="673.5" y="-342.5" font-family="Cascadia Code NF" font-size="10.00">+</text>
<text text-anchor="start" x="689" y="-342.5" font-family="Cascadia Code NF" font-size="10.00">kRefBias</text>
<text text-anchor="start" x="673.5" y="-326.5" font-family="Cascadia Code NF" font-size="10.00">+</text>
<text text-anchor="start" x="689" y="-326.5" font-family="Cascadia Code NF" font-size="10.00">kSigBias</text>
<text text-anchor="start" x="673.5" y="-310.5" font-family="Cascadia Code NF" font-size="10.00">+</text>
<text text-anchor="start" x="689" y="-310.5" font-family="Cascadia Code NF" font-size="10.00">kEntryPaddingOffset</text>
<text text-anchor="start" x="673.5" y="-294.5" font-family="Cascadia Code NF" font-size="10.00">+</text>
<text text-anchor="start" x="689" y="-294.5" font-family="Cascadia Code NF" font-size="10.00">kEntryPaddingBytes</text>
<text text-anchor="start" x="673.5" y="-278.5" font-family="Cascadia Code NF" font-size="10.00">+</text>
<text text-anchor="start" x="689" y="-278.5" font-family="Cascadia Code NF" font-size="10.00">kEntrySize</text>
<text text-anchor="start" x="673.5" y="-262.5" font-family="Cascadia Code NF" font-size="10.00">+</text>
<text text-anchor="start" x="689" y="-262.5" font-family="Cascadia Code NF" font-size="10.00">kMaxLength</text>
<text text-anchor="start" x="673.5" y="-246.5" font-family="Cascadia Code NF" font-size="10.00">+</text>
<text text-anchor="start" x="689" y="-246.5" font-family="Cascadia Code NF" font-size="10.00">clear_entry_padding()</text>
<text text-anchor="start" x="673.5" y="-230.5" font-family="Cascadia Code NF" font-size="10.00">+</text>
<text text-anchor="start" x="689" y="-230.5" font-family="Cascadia Code NF" font-size="10.00">length()</text>
<text text-anchor="start" x="673.5" y="-214.5" font-family="Cascadia Code NF" font-size="10.00">+</text>
<text text-anchor="start" x="689" y="-214.5" font-family="Cascadia Code NF" font-size="10.00">length()</text>
<text text-anchor="start" x="673.5" y="-198.5" font-family="Cascadia Code NF" font-size="10.00">+</text>
<text text-anchor="start" x="689" y="-198.5" font-family="Cascadia Code NF" font-size="10.00">capacity()</text>
<text text-anchor="start" x="673.5" y="-182.5" font-family="Cascadia Code NF" font-size="10.00">+</text>
<text text-anchor="start" x="689" y="-182.5" font-family="Cascadia Code NF" font-size="10.00">ref()</text>
<text text-anchor="start" x="673.5" y="-166.5" font-family="Cascadia Code NF" font-size="10.00">+</text>
<text text-anchor="start" x="689" y="-166.5" font-family="Cascadia Code NF" font-size="10.00">target()</text>
<text text-anchor="start" x="673.5" y="-150.5" font-family="Cascadia Code NF" font-size="10.00">+</text>
<text text-anchor="start" x="689" y="-150.5" font-family="Cascadia Code NF" font-size="10.00">sig()</text>
<text text-anchor="start" x="673.5" y="-134.5" font-family="Cascadia Code NF" font-size="10.00">+</text>
<text text-anchor="start" x="689" y="-134.5" font-family="Cascadia Code NF" font-size="10.00">Set()</text>
<text text-anchor="start" x="673.5" y="-118.5" font-family="Cascadia Code NF" font-size="10.00">+</text>
<text text-anchor="start" x="689" y="-118.5" font-family="Cascadia Code NF" font-size="10.00">SetForImport()</text>
<text text-anchor="start" x="673.5" y="-102.5" font-family="Cascadia Code NF" font-size="10.00">+</text>
<text text-anchor="start" x="689" y="-102.5" font-family="Cascadia Code NF" font-size="10.00">Clear()</text>
<text text-anchor="start" x="673.5" y="-86.5" font-family="Cascadia Code NF" font-size="10.00">+</text>
<text text-anchor="start" x="689" y="-86.5" font-family="Cascadia Code NF" font-size="10.00">SetTarget()</text>
<text text-anchor="start" x="673.5" y="-70.5" font-family="Cascadia Code NF" font-size="10.00">+</text>
<text text-anchor="start" x="689" y="-70.5" font-family="Cascadia Code NF" font-size="10.00">OBJECT_CONSTRUCTORS()</text>
<text text-anchor="start" x="673.5" y="-54.5" font-family="Cascadia Code NF" font-size="10.00">+</text>
<text text-anchor="start" x="689" y="-54.5" font-family="Cascadia Code NF" font-size="10.00">SizeFor()</text>
<text text-anchor="start" x="673.5" y="-38.5" font-family="Cascadia Code NF" font-size="10.00">+</text>
<text text-anchor="start" x="689" y="-38.5" font-family="Cascadia Code NF" font-size="10.00">OffsetOf()</text>
<text text-anchor="start" x="673.5" y="-22.5" font-family="Cascadia Code NF" font-size="10.00">+</text>
<text text-anchor="start" x="689" y="-22.5" font-family="Cascadia Code NF" font-size="10.00">New()</text>
<text text-anchor="start" x="673.5" y="-6.5" font-family="Cascadia Code NF" font-size="10.00">+</text>
<text text-anchor="start" x="689" y="-6.5" font-family="Cascadia Code NF" font-size="10.00">Grow()</text>
<polygon fill="#666666" stroke="#666666" points="664,-418 664,-418 830,-418 830,-418 664,-418"/>
<polygon fill="#666666" stroke="#666666" points="664,-258 664,-258 687,-258 687,-258 664,-258"/>
<polygon fill="#666666" stroke="#666666" points="687,-258 687,-258 830,-258 830,-258 687,-258"/>
<polygon fill="none" stroke="#666666" points="664,0 664,-449 830,-449 830,0 664,0"/>
</a>
</g>
</g>
<!-- Node2 -->
<g id="Node000002" class="node">
<title>Node2</title>
<g id="a_Node000002"><a xlink:href="../../d6/d80/classv8_1_1internal_1_1TrustedObject.html" target="_top" xlink:title=" ">
<polygon fill="white" stroke="none" points="628,-322.5 418,-322.5 418,-126.5 628,-126.5 628,-322.5"/>
<text text-anchor="start" x="442" y="-309" font-family="Cascadia Code NF" font-size="10.00">v8::internal::TrustedObject</text>
<text text-anchor="start" x="422" y="-293" font-family="Cascadia Code NF" font-size="10.00">+</text>
<text text-anchor="start" x="432" y="-293" font-family="Cascadia Code NF" font-size="10.00">kHeaderSize</text>
<text text-anchor="start" x="422" y="-277" font-family="Cascadia Code NF" font-size="10.00">+</text>
<text text-anchor="start" x="432" y="-277" font-family="Cascadia Code NF" font-size="10.00">ReadProtectedPointerField()</text>
<text text-anchor="start" x="422" y="-261" font-family="Cascadia Code NF" font-size="10.00">+</text>
<text text-anchor="start" x="432" y="-261" font-family="Cascadia Code NF" font-size="10.00">ReadProtectedPointerField()</text>
<text text-anchor="start" x="422" y="-245" font-family="Cascadia Code NF" font-size="10.00">+</text>
<text text-anchor="start" x="432" y="-245" font-family="Cascadia Code NF" font-size="10.00">WriteProtectedPointerField()</text>
<text text-anchor="start" x="422" y="-229" font-family="Cascadia Code NF" font-size="10.00">+</text>
<text text-anchor="start" x="432" y="-229" font-family="Cascadia Code NF" font-size="10.00">WriteProtectedPointerField()</text>
<text text-anchor="start" x="422" y="-213" font-family="Cascadia Code NF" font-size="10.00">+</text>
<text text-anchor="start" x="432" y="-213" font-family="Cascadia Code NF" font-size="10.00">IsProtectedPointerFieldCleared()</text>
<text text-anchor="start" x="422" y="-197" font-family="Cascadia Code NF" font-size="10.00">+</text>
<text text-anchor="start" x="432" y="-197" font-family="Cascadia Code NF" font-size="10.00">IsProtectedPointerFieldCleared()</text>
<text text-anchor="start" x="422" y="-181" font-family="Cascadia Code NF" font-size="10.00">+</text>
<text text-anchor="start" x="432" y="-181" font-family="Cascadia Code NF" font-size="10.00">ClearProtectedPointerField()</text>
<text text-anchor="start" x="422" y="-165" font-family="Cascadia Code NF" font-size="10.00">+</text>
<text text-anchor="start" x="432" y="-165" font-family="Cascadia Code NF" font-size="10.00">ClearProtectedPointerField()</text>
<text text-anchor="start" x="422" y="-149" font-family="Cascadia Code NF" font-size="10.00">+</text>
<text text-anchor="start" x="432" y="-149" font-family="Cascadia Code NF" font-size="10.00">RawProtectedPointerField()</text>
<text text-anchor="start" x="422" y="-133" font-family="Cascadia Code NF" font-size="10.00">+</text>
<text text-anchor="start" x="432" y="-133" font-family="Cascadia Code NF" font-size="10.00">OBJECT_CONSTRUCTORS()</text>
<polygon fill="#bfbfbf" stroke="#bfbfbf" points="418,-304.5 418,-304.5 628,-304.5 628,-304.5 418,-304.5"/>
<polygon fill="#bfbfbf" stroke="#bfbfbf" points="418,-288.5 418,-288.5 430,-288.5 430,-288.5 418,-288.5"/>
<polygon fill="#bfbfbf" stroke="#bfbfbf" points="430,-288.5 430,-288.5 628,-288.5 628,-288.5 430,-288.5"/>
<polygon fill="none" stroke="#bfbfbf" points="418,-126.5 418,-322.5 628,-322.5 628,-126.5 418,-126.5"/>
</a>
</g>
</g>
<!-- Node2&#45;&gt;Node1 -->
<g id="edge1_Node000001_Node000002" class="edge">
<title>Node2&#45;&gt;Node1</title>
<g id="a_edge1_Node000001_Node000002"><a xlink:title=" ">
<path fill="none" stroke="#63b8ff" d="M639.29,-224.5C647.68,-224.5 656.04,-224.5 664.17,-224.5"/>
<polygon fill="none" stroke="#63b8ff" points="639.36,-221 629.36,-224.5 639.36,-228 639.36,-221"/>
</a>
</g>
</g>
<!-- Node3 -->
<g id="Node000003" class="node">
<title>Node3</title>
<g id="a_Node000003"><a xlink:href="../../d0/d31/classv8_1_1internal_1_1HeapObject.html" target="_top" xlink:title=" ">
<polygon fill="white" stroke="none" points="382,-439.5 196,-439.5 196,-9.5 382,-9.5 382,-439.5"/>
<text text-anchor="start" x="217" y="-426" font-family="Cascadia Code NF" font-size="10.00">v8::internal::HeapObject</text>
<text text-anchor="start" x="200" y="-410" font-family="Cascadia Code NF" font-size="10.00">+</text>
<text text-anchor="start" x="210" y="-410" font-family="Cascadia Code NF" font-size="10.00">kMapOffset</text>
<text text-anchor="start" x="200" y="-394" font-family="Cascadia Code NF" font-size="10.00">+</text>
<text text-anchor="start" x="210" y="-394" font-family="Cascadia Code NF" font-size="10.00">kHeaderSize</text>
<text text-anchor="start" x="200" y="-378" font-family="Cascadia Code NF" font-size="10.00">+</text>
<text text-anchor="start" x="210" y="-378" font-family="Cascadia Code NF" font-size="10.00">HeapObject()</text>
<text text-anchor="start" x="200" y="-362" font-family="Cascadia Code NF" font-size="10.00">+</text>
<text text-anchor="start" x="210" y="-362" font-family="Cascadia Code NF" font-size="10.00">set_map()</text>
<text text-anchor="start" x="200" y="-346" font-family="Cascadia Code NF" font-size="10.00">+</text>
<text text-anchor="start" x="210" y="-346" font-family="Cascadia Code NF" font-size="10.00">set_map_safe_transition()</text>
<text text-anchor="start" x="200" y="-330" font-family="Cascadia Code NF" font-size="10.00">+</text>
<text text-anchor="start" x="210" y="-330" font-family="Cascadia Code NF" font-size="10.00">map_slot()</text>
<text text-anchor="start" x="200" y="-314" font-family="Cascadia Code NF" font-size="10.00">+</text>
<text text-anchor="start" x="210" y="-314" font-family="Cascadia Code NF" font-size="10.00">set_map_no_write_barrier()</text>
<text text-anchor="start" x="200" y="-298" font-family="Cascadia Code NF" font-size="10.00">+</text>
<text text-anchor="start" x="210" y="-298" font-family="Cascadia Code NF" font-size="10.00">set_map_no_write_barrier()</text>
<text text-anchor="start" x="200" y="-282" font-family="Cascadia Code NF" font-size="10.00">+</text>
<text text-anchor="start" x="210" y="-282" font-family="Cascadia Code NF" font-size="10.00">set_map_safe_transition</text>
<text text-anchor="start" x="210" y="-269.25" font-family="Cascadia Code NF" font-size="10.00">_no_write_barrier()</text>
<text text-anchor="start" x="200" y="-253" font-family="Cascadia Code NF" font-size="10.00">+</text>
<text text-anchor="start" x="210" y="-253" font-family="Cascadia Code NF" font-size="10.00">set_map_safe_transition</text>
<text text-anchor="start" x="210" y="-240.25" font-family="Cascadia Code NF" font-size="10.00">_no_write_barrier()</text>
<text text-anchor="start" x="200" y="-224" font-family="Cascadia Code NF" font-size="10.00">+</text>
<text text-anchor="start" x="210" y="-224" font-family="Cascadia Code NF" font-size="10.00">set_map()</text>
<text text-anchor="start" x="200" y="-208" font-family="Cascadia Code NF" font-size="10.00">+</text>
<text text-anchor="start" x="210" y="-208" font-family="Cascadia Code NF" font-size="10.00">set_map_safe_transition()</text>
<text text-anchor="start" x="210" y="-192" font-family="Cascadia Code NF" font-size="10.00">and 69 more...</text>
<text text-anchor="start" x="200" y="-176" font-family="Cascadia Code NF" font-size="10.00">+</text>
<text text-anchor="start" x="210" y="-176" font-family="Cascadia Code NF" font-size="10.00">SetFillerMap()</text>
<text text-anchor="start" x="200" y="-160" font-family="Cascadia Code NF" font-size="10.00">+</text>
<text text-anchor="start" x="210" y="-160" font-family="Cascadia Code NF" font-size="10.00">FromAddress()</text>
<text text-anchor="start" x="200" y="-144" font-family="Cascadia Code NF" font-size="10.00">+</text>
<text text-anchor="start" x="210" y="-144" font-family="Cascadia Code NF" font-size="10.00">SeqCst_CompareAndSwapField()</text>
<text text-anchor="start" x="200" y="-128" font-family="Cascadia Code NF" font-size="10.00">+</text>
<text text-anchor="start" x="210" y="-128" font-family="Cascadia Code NF" font-size="10.00">Print()</text>
<text text-anchor="start" x="200" y="-112" font-family="Cascadia Code NF" font-size="10.00">+</text>
<text text-anchor="start" x="210" y="-112" font-family="Cascadia Code NF" font-size="10.00">Print()</text>
<text text-anchor="start" x="200" y="-96" font-family="Cascadia Code NF" font-size="10.00">+</text>
<text text-anchor="start" x="210" y="-96" font-family="Cascadia Code NF" font-size="10.00">RequiredAlignment()</text>
<text text-anchor="start" x="200" y="-80" font-family="Cascadia Code NF" font-size="10.00">#</text>
<text text-anchor="start" x="210" y="-80" font-family="Cascadia Code NF" font-size="10.00">HeapObject()</text>
<text text-anchor="start" x="200" y="-64" font-family="Cascadia Code NF" font-size="10.00">#</text>
<text text-anchor="start" x="210" y="-64" font-family="Cascadia Code NF" font-size="10.00">HeapObject()</text>
<text text-anchor="start" x="200" y="-48" font-family="Cascadia Code NF" font-size="10.00">#</text>
<text text-anchor="start" x="210" y="-48" font-family="Cascadia Code NF" font-size="10.00">field_address()</text>
<text text-anchor="start" x="200" y="-32" font-family="Cascadia Code NF" font-size="10.00">#</text>
<text text-anchor="start" x="210" y="-32" font-family="Cascadia Code NF" font-size="10.00">IsSmi()</text>
<text text-anchor="start" x="200" y="-16" font-family="Cascadia Code NF" font-size="10.00">#</text>
<text text-anchor="start" x="210" y="-16" font-family="Cascadia Code NF" font-size="10.00">IsHeapObject()</text>
<polygon fill="#bfbfbf" stroke="#bfbfbf" points="196,-421.5 196,-421.5 382,-421.5 382,-421.5 196,-421.5"/>
<polygon fill="#bfbfbf" stroke="#bfbfbf" points="196,-389.5 196,-389.5 208,-389.5 208,-389.5 196,-389.5"/>
<polygon fill="#bfbfbf" stroke="#bfbfbf" points="208,-389.5 208,-389.5 382,-389.5 382,-389.5 208,-389.5"/>
<polygon fill="none" stroke="#bfbfbf" points="196,-9.5 196,-439.5 382,-439.5 382,-9.5 196,-9.5"/>
</a>
</g>
</g>
<!-- Node3&#45;&gt;Node2 -->
<g id="edge2_Node000002_Node000003" class="edge">
<title>Node3&#45;&gt;Node2</title>
<g id="a_edge2_Node000002_Node000003"><a xlink:title=" ">
<path fill="none" stroke="#63b8ff" d="M393.06,-224.5C401.46,-224.5 409.94,-224.5 418.34,-224.5"/>
<polygon fill="none" stroke="#63b8ff" points="393.21,-221 383.21,-224.5 393.21,-228 393.21,-221"/>
</a>
</g>
</g>
<!-- Node4 -->
<g id="Node000004" class="node">
<title>Node4</title>
<g id="a_Node000004"><a xlink:href="../../df/d94/classv8_1_1internal_1_1TaggedImpl.html" target="_top" xlink:title=" ">
<polygon fill="white" stroke="none" points="160,-367.5 0,-367.5 0,-81.5 160,-81.5 160,-367.5"/>
<text text-anchor="start" x="5" y="-354" font-family="Cascadia Code NF" font-size="10.00">v8::internal::TaggedImpl</text>
<text text-anchor="start" x="5" y="-341.25" font-family="Cascadia Code NF" font-size="10.00">&lt; HeapObjectReferenceType</text>
<text text-anchor="start" x="23" y="-328.5" font-family="Cascadia Code NF" font-size="10.00">::STRONG, Address &gt;</text>
<text text-anchor="start" x="17" y="-312" font-family="Cascadia Code NF" font-size="10.00">+</text>
<text text-anchor="start" x="40" y="-312" font-family="Cascadia Code NF" font-size="10.00">kIsFull</text>
<text text-anchor="start" x="17" y="-296" font-family="Cascadia Code NF" font-size="10.00">+</text>
<text text-anchor="start" x="40" y="-296" font-family="Cascadia Code NF" font-size="10.00">kCanBeWeak</text>
<text text-anchor="start" x="17" y="-280" font-family="Cascadia Code NF" font-size="10.00">+</text>
<text text-anchor="start" x="40" y="-280" font-family="Cascadia Code NF" font-size="10.00">TaggedImpl()</text>
<text text-anchor="start" x="17" y="-264" font-family="Cascadia Code NF" font-size="10.00">+</text>
<text text-anchor="start" x="40" y="-264" font-family="Cascadia Code NF" font-size="10.00">TaggedImpl()</text>
<text text-anchor="start" x="17" y="-248" font-family="Cascadia Code NF" font-size="10.00">+</text>
<text text-anchor="start" x="40" y="-248" font-family="Cascadia Code NF" font-size="10.00">operator bool()</text>
<text text-anchor="start" x="17" y="-232" font-family="Cascadia Code NF" font-size="10.00">+</text>
<text text-anchor="start" x="40" y="-232" font-family="Cascadia Code NF" font-size="10.00">operator==()</text>
<text text-anchor="start" x="17" y="-216" font-family="Cascadia Code NF" font-size="10.00">+</text>
<text text-anchor="start" x="40" y="-216" font-family="Cascadia Code NF" font-size="10.00">operator!=()</text>
<text text-anchor="start" x="17" y="-200" font-family="Cascadia Code NF" font-size="10.00">+</text>
<text text-anchor="start" x="40" y="-200" font-family="Cascadia Code NF" font-size="10.00">SafeEquals()</text>
<text text-anchor="start" x="17" y="-184" font-family="Cascadia Code NF" font-size="10.00">+</text>
<text text-anchor="start" x="40" y="-184" font-family="Cascadia Code NF" font-size="10.00">operator&lt;()</text>
<text text-anchor="start" x="17" y="-168" font-family="Cascadia Code NF" font-size="10.00">+</text>
<text text-anchor="start" x="40" y="-168" font-family="Cascadia Code NF" font-size="10.00">ptr()</text>
<text text-anchor="start" x="17" y="-152" font-family="Cascadia Code NF" font-size="10.00">+</text>
<text text-anchor="start" x="40" y="-152" font-family="Cascadia Code NF" font-size="10.00">IsObject()</text>
<text text-anchor="start" x="17" y="-136" font-family="Cascadia Code NF" font-size="10.00">+</text>
<text text-anchor="start" x="40" y="-136" font-family="Cascadia Code NF" font-size="10.00">IsSmi()</text>
<text text-anchor="start" x="40" y="-120" font-family="Cascadia Code NF" font-size="10.00">and 25 more...</text>
<text text-anchor="start" x="17" y="-104" font-family="Cascadia Code NF" font-size="10.00">#</text>
<text text-anchor="start" x="40" y="-104" font-family="Cascadia Code NF" font-size="10.00">ptr_location()</text>
<text text-anchor="start" x="17" y="-88" font-family="Cascadia Code NF" font-size="10.00">#</text>
<text text-anchor="start" x="40" y="-88" font-family="Cascadia Code NF" font-size="10.00">ptr_location()</text>
<polygon fill="#bfbfbf" stroke="#bfbfbf" points="0,-323.5 0,-323.5 160,-323.5 160,-323.5 0,-323.5"/>
<polygon fill="#bfbfbf" stroke="#bfbfbf" points="0,-291.5 0,-291.5 38,-291.5 38,-291.5 0,-291.5"/>
<polygon fill="#bfbfbf" stroke="#bfbfbf" points="38,-291.5 38,-291.5 160,-291.5 160,-291.5 38,-291.5"/>
<polygon fill="none" stroke="#bfbfbf" points="0,-81.5 0,-367.5 160,-367.5 160,-81.5 0,-81.5"/>
</a>
</g>
</g>
<!-- Node4&#45;&gt;Node3 -->
<g id="edge3_Node000003_Node000004" class="edge">
<title>Node4&#45;&gt;Node3</title>
<g id="a_edge3_Node000003_Node000004"><a xlink:title=" ">
<path fill="none" stroke="#63b8ff" d="M171.1,-224.5C179.42,-224.5 187.86,-224.5 196.2,-224.5"/>
<polygon fill="none" stroke="#63b8ff" points="171.36,-221 161.36,-224.5 171.36,-228 171.36,-221"/>
</a>
</g>
</g>
</g>
</svg>

<g id="navigator" transform="translate(0 0)" fill="#404254">
  <rect fill="#f2f5e9" fill-opacity="0.5" stroke="#606060" stroke-width=".5" x="0" y="0" width="60" height="60"/>
  <use id="zoomplus" xlink:href="#zoomPlus" x="17" y="9" onmousedown="handleZoom(evt,'in')"/>
  <use id="zoomminus" xlink:href="#zoomMin" x="42" y="9" onmousedown="handleZoom(evt,'out')"/>
  <use id="reset" xlink:href="#resetDef" x="30" y="36" onmousedown="handleReset()"/>
   <use id="arrowup" xlink:href="#arrowUp" x="0" y="0" onmousedown="handlePan(0,-1)"/>
  <use id="arrowright" xlink:href="#arrowRight" x="0" y="0" onmousedown="handlePan(1,0)"/>
  <use id="arrowdown" xlink:href="#arrowDown" x="0" y="0" onmousedown="handlePan(0,1)"/>
  <use id="arrowleft" xlink:href="#arrowLeft" x="0" y="0" onmousedown="handlePan(-1,0)"/>
</g>
<svg viewBox="0 0 15 15" width="100%" height="30px" preserveAspectRatio="xMaxYMin meet">
 <g id="arrow_out" transform="scale(0.3 0.3)">
  <a xlink:href="classv8_1_1internal_1_1WasmDispatchTable__inherit__graph_org.svg" target="_base">
   <rect id="button" ry="5" rx="5" y="6" x="6" height="38" width="38"
        fill="#f2f5e9" fill-opacity="0.5" stroke="#606060" stroke-width="1.0"/>
   <path id="arrow"
     d="M 11.500037,31.436501 C 11.940474,20.09759 22.043105,11.32322 32.158766,21.979434 L 37.068811,17.246167 C 37.068811,17.246167 37.088388,32 37.088388,32 L 22.160133,31.978069 C 22.160133,31.978069 26.997745,27.140456 26.997745,27.140456 C 18.528582,18.264221 13.291696,25.230495 11.500037,31.436501 z"
     style="fill:#404040;"/>
  </a>
 </g>
</svg>

<style type='text/css'>
<![CDATA[
[data-mouse-over-selected='false'] { opacity: 0.7; }
[data-mouse-over-selected='true']  { opacity: 1.0; }
]]>
</style>
<script type="application/ecmascript"><![CDATA[
document.addEventListener('DOMContentLoaded', (event) => {
  highlightEdges();
  highlightAdjacentNodes();
});
]]></script>
</svg>
