<?xml version="1.0" encoding="UTF-8" standalone="no"?>
<!DOCTYPE svg PUBLIC "-//W3C//DTD SVG 1.1//EN"
 "http://www.w3.org/Graphics/SVG/1.1/DTD/svg11.dtd">
<!-- Generated by graphviz version 11.0.0 (20240428.1522)
 -->
<!-- Title: v8::internal::NumberDictionaryBaseShape Pages: 1 -->
<svg width="822pt" height="220pt"
 viewBox="0.00 0.00 822.00 220.00" xmlns="http://www.w3.org/2000/svg" xmlns:xlink="http://www.w3.org/1999/xlink">
<g id="graph0" class="graph" transform="scale(1 1) rotate(0) translate(4 216)">
<title>v8::internal::NumberDictionaryBaseShape</title>
<!-- Node1 -->
<g id="Node000001" class="node">
<title>Node1</title>
<g id="a_Node000001"><a xlink:title=" ">
<polygon fill="#999999" stroke="none" points="588,-178 398,-178 398,-49 588,-49 588,-178"/>
<text text-anchor="start" x="403" y="-164.5" font-family="Cascadia Code NF" font-size="10.00">v8::internal::NumberDictionary</text>
<text text-anchor="start" x="466" y="-151.75" font-family="Cascadia Code NF" font-size="10.00">BaseShape</text>
<text text-anchor="start" x="415" y="-135.5" font-family="Cascadia Code NF" font-size="10.00">+</text>
<text text-anchor="start" x="438" y="-135.5" font-family="Cascadia Code NF" font-size="10.00">kMatchNeedsHoleCheck</text>
<text text-anchor="start" x="415" y="-119.5" font-family="Cascadia Code NF" font-size="10.00">+</text>
<text text-anchor="start" x="438" y="-119.5" font-family="Cascadia Code NF" font-size="10.00">IsMatch()</text>
<text text-anchor="start" x="415" y="-103.5" font-family="Cascadia Code NF" font-size="10.00">+</text>
<text text-anchor="start" x="438" y="-103.5" font-family="Cascadia Code NF" font-size="10.00">AsHandle()</text>
<text text-anchor="start" x="415" y="-87.5" font-family="Cascadia Code NF" font-size="10.00">+</text>
<text text-anchor="start" x="438" y="-87.5" font-family="Cascadia Code NF" font-size="10.00">AsHandle()</text>
<text text-anchor="start" x="415" y="-71.5" font-family="Cascadia Code NF" font-size="10.00">+</text>
<text text-anchor="start" x="438" y="-71.5" font-family="Cascadia Code NF" font-size="10.00">Hash()</text>
<text text-anchor="start" x="415" y="-55.5" font-family="Cascadia Code NF" font-size="10.00">+</text>
<text text-anchor="start" x="438" y="-55.5" font-family="Cascadia Code NF" font-size="10.00">HashForObject()</text>
<polygon fill="#666666" stroke="#666666" points="398,-147 398,-147 588,-147 588,-147 398,-147"/>
<polygon fill="#666666" stroke="#666666" points="398,-131 398,-131 436,-131 436,-131 398,-131"/>
<polygon fill="#666666" stroke="#666666" points="436,-131 436,-131 588,-131 588,-131 436,-131"/>
<polygon fill="none" stroke="#666666" points="398,-49 398,-178 588,-178 588,-49 398,-49"/>
</a>
</g>
</g>
<!-- Node4 -->
<g id="Node000004" class="node">
<title>Node4</title>
<g id="a_Node000004"><a xlink:href="$d0/dfe/classv8_1_1internal_1_1NumberDictionaryShape.html" xlink:title=" ">
<polygon fill="white" stroke="none" points="814,-212 624,-212 624,-131 814,-131 814,-212"/>
<text text-anchor="start" x="629" y="-198.5" font-family="Cascadia Code NF" font-size="10.00">v8::internal::NumberDictionary</text>
<text text-anchor="start" x="704" y="-185.75" font-family="Cascadia Code NF" font-size="10.00">Shape</text>
<text text-anchor="start" x="654.5" y="-169.5" font-family="Cascadia Code NF" font-size="10.00">+</text>
<text text-anchor="start" x="691" y="-169.5" font-family="Cascadia Code NF" font-size="10.00">kPrefixSize</text>
<text text-anchor="start" x="654.5" y="-153.5" font-family="Cascadia Code NF" font-size="10.00">+</text>
<text text-anchor="start" x="691" y="-153.5" font-family="Cascadia Code NF" font-size="10.00">kEntrySize</text>
<text text-anchor="start" x="716" y="-137.5" font-family="Cascadia Code NF" font-size="10.00"> </text>
<polygon fill="#bfbfbf" stroke="#bfbfbf" points="624,-181 624,-181 814,-181 814,-181 624,-181"/>
<polygon fill="#bfbfbf" stroke="#bfbfbf" points="624,-149 624,-149 689,-149 689,-149 624,-149"/>
<polygon fill="#bfbfbf" stroke="#bfbfbf" points="689,-149 689,-149 814,-149 814,-149 689,-149"/>
<polygon fill="none" stroke="#bfbfbf" points="624,-131 624,-212 814,-212 814,-131 624,-131"/>
</a>
</g>
</g>
<!-- Node1&#45;&gt;Node4 -->
<g id="edge3_Node000001_Node000004" class="edge">
<title>Node1&#45;&gt;Node4</title>
<g id="a_edge3_Node000001_Node000004"><a xlink:title=" ">
<path fill="none" stroke="#63b8ff" d="M598.83,-140.64C607.34,-142.85 615.9,-145.06 624.32,-147.24"/>
<polygon fill="none" stroke="#63b8ff" points="599.72,-137.26 589.16,-138.14 597.97,-144.04 599.72,-137.26"/>
</a>
</g>
</g>
<!-- Node5 -->
<g id="Node000005" class="node">
<title>Node5</title>
<g id="a_Node000005"><a xlink:href="$d2/d70/classv8_1_1internal_1_1SimpleNumberDictionaryShape.html" xlink:title=" ">
<polygon fill="white" stroke="none" points="802,-113 636,-113 636,0 802,0 802,-113"/>
<text text-anchor="start" x="641" y="-99.5" font-family="Cascadia Code NF" font-size="10.00">v8::internal::SimpleNumber</text>
<text text-anchor="start" x="674" y="-86.75" font-family="Cascadia Code NF" font-size="10.00">DictionaryShape</text>
<text text-anchor="start" x="656" y="-70.5" font-family="Cascadia Code NF" font-size="10.00">+</text>
<text text-anchor="start" x="682" y="-70.5" font-family="Cascadia Code NF" font-size="10.00">kHasDetails</text>
<text text-anchor="start" x="656" y="-54.5" font-family="Cascadia Code NF" font-size="10.00">+</text>
<text text-anchor="start" x="682" y="-54.5" font-family="Cascadia Code NF" font-size="10.00">kPrefixSize</text>
<text text-anchor="start" x="656" y="-38.5" font-family="Cascadia Code NF" font-size="10.00">+</text>
<text text-anchor="start" x="682" y="-38.5" font-family="Cascadia Code NF" font-size="10.00">kEntrySize</text>
<text text-anchor="start" x="656" y="-22.5" font-family="Cascadia Code NF" font-size="10.00">+</text>
<text text-anchor="start" x="682" y="-22.5" font-family="Cascadia Code NF" font-size="10.00">DetailsAt()</text>
<text text-anchor="start" x="656" y="-6.5" font-family="Cascadia Code NF" font-size="10.00">+</text>
<text text-anchor="start" x="682" y="-6.5" font-family="Cascadia Code NF" font-size="10.00">DetailsAtPut()</text>
<polygon fill="#bfbfbf" stroke="#bfbfbf" points="636,-82 636,-82 802,-82 802,-82 636,-82"/>
<polygon fill="#bfbfbf" stroke="#bfbfbf" points="636,-34 636,-34 680,-34 680,-34 636,-34"/>
<polygon fill="#bfbfbf" stroke="#bfbfbf" points="680,-34 680,-34 802,-34 802,-34 680,-34"/>
<polygon fill="none" stroke="#bfbfbf" points="636,0 636,-113 802,-113 802,0 636,0"/>
</a>
</g>
</g>
<!-- Node1&#45;&gt;Node5 -->
<g id="edge4_Node000001_Node000005" class="edge">
<title>Node1&#45;&gt;Node5</title>
<g id="a_edge4_Node000001_Node000005"><a xlink:title=" ">
<path fill="none" stroke="#63b8ff" d="M598.68,-86.86C611.23,-83.67 623.91,-80.44 636.07,-77.35"/>
<polygon fill="none" stroke="#63b8ff" points="597.99,-83.43 589.17,-89.28 599.72,-90.21 597.99,-83.43"/>
</a>
</g>
</g>
<!-- Node2 -->
<g id="Node000002" class="node">
<title>Node2</title>
<g id="a_Node000002"><a xlink:href="$da/dc4/classv8_1_1internal_1_1BaseDictionaryShape.html" xlink:title=" ">
<polygon fill="white" stroke="none" points="362,-154 184,-154 184,-73 362,-73 362,-154"/>
<text text-anchor="start" x="189" y="-140.5" font-family="Cascadia Code NF" font-size="10.00">v8::internal::BaseDictionary</text>
<text text-anchor="start" x="222" y="-127.75" font-family="Cascadia Code NF" font-size="10.00">Shape&lt; uint32_t &gt;</text>
<text text-anchor="start" x="207" y="-111.5" font-family="Cascadia Code NF" font-size="10.00">+</text>
<text text-anchor="start" x="236" y="-111.5" font-family="Cascadia Code NF" font-size="10.00">kHasDetails</text>
<text text-anchor="start" x="207" y="-95.5" font-family="Cascadia Code NF" font-size="10.00">+</text>
<text text-anchor="start" x="236" y="-95.5" font-family="Cascadia Code NF" font-size="10.00">DetailsAt()</text>
<text text-anchor="start" x="207" y="-79.5" font-family="Cascadia Code NF" font-size="10.00">+</text>
<text text-anchor="start" x="236" y="-79.5" font-family="Cascadia Code NF" font-size="10.00">DetailsAtPut()</text>
<polygon fill="#bfbfbf" stroke="#bfbfbf" points="184,-123 184,-123 362,-123 362,-123 184,-123"/>
<polygon fill="#bfbfbf" stroke="#bfbfbf" points="184,-107 184,-107 234,-107 234,-107 184,-107"/>
<polygon fill="#bfbfbf" stroke="#bfbfbf" points="234,-107 234,-107 362,-107 362,-107 234,-107"/>
<polygon fill="none" stroke="#bfbfbf" points="184,-73 184,-154 362,-154 362,-73 184,-73"/>
</a>
</g>
</g>
<!-- Node2&#45;&gt;Node1 -->
<g id="edge1_Node000001_Node000002" class="edge">
<title>Node2&#45;&gt;Node1</title>
<g id="a_edge1_Node000001_Node000002"><a xlink:title=" ">
<path fill="none" stroke="#63b8ff" d="M373.01,-113.5C381.34,-113.5 389.75,-113.5 398.04,-113.5"/>
<polygon fill="none" stroke="#63b8ff" points="373.24,-110 363.24,-113.5 373.24,-117 373.24,-110"/>
</a>
</g>
</g>
<!-- Node3 -->
<g id="Node000003" class="node">
<title>Node3</title>
<g id="a_Node000003"><a xlink:href="$de/dd8/classv8_1_1internal_1_1BaseShape.html" xlink:title=" ">
<polygon fill="white" stroke="none" points="148,-146 0,-146 0,-81 148,-81 148,-146"/>
<text text-anchor="start" x="5" y="-132.5" font-family="Cascadia Code NF" font-size="10.00">v8::internal::BaseShape</text>
<text text-anchor="start" x="38" y="-119.75" font-family="Cascadia Code NF" font-size="10.00">&lt; uint32_t &gt;</text>
<text text-anchor="start" x="71" y="-103.5" font-family="Cascadia Code NF" font-size="10.00"> </text>
<text text-anchor="start" x="24.5" y="-87.5" font-family="Cascadia Code NF" font-size="10.00">+</text>
<text text-anchor="start" x="55" y="-87.5" font-family="Cascadia Code NF" font-size="10.00">Unwrap()</text>
<polygon fill="#bfbfbf" stroke="#bfbfbf" points="0,-115 0,-115 148,-115 148,-115 0,-115"/>
<polygon fill="#bfbfbf" stroke="#bfbfbf" points="0,-99 0,-99 148,-99 148,-99 0,-99"/>
<polygon fill="none" stroke="#bfbfbf" points="0,-81 0,-146 148,-146 148,-81 0,-81"/>
</a>
</g>
</g>
<!-- Node3&#45;&gt;Node2 -->
<g id="edge2_Node000002_Node000003" class="edge">
<title>Node3&#45;&gt;Node2</title>
<g id="a_edge2_Node000002_Node000003"><a xlink:title=" ">
<path fill="none" stroke="#63b8ff" d="M159.03,-113.5C167.34,-113.5 175.8,-113.5 184.15,-113.5"/>
<polygon fill="none" stroke="#63b8ff" points="159.31,-110 149.31,-113.5 159.31,-117 159.31,-110"/>
</a>
</g>
</g>
</g>
</svg>
