<?xml version="1.0" encoding="UTF-8" standalone="no"?>
<!DOCTYPE svg PUBLIC "-//W3C//DTD SVG 1.1//EN"
 "http://www.w3.org/Graphics/SVG/1.1/DTD/svg11.dtd">
<!-- Generated by graphviz version 11.0.0 (20240428.1522)
 -->
<!-- Title: vTune::internal::JITCodeLineInfo::LineNumInfo Pages: 1 -->
<svg width="292pt" height="130pt"
 viewBox="0.00 0.00 292.00 130.00" xmlns="http://www.w3.org/2000/svg" xmlns:xlink="http://www.w3.org/1999/xlink">
<g id="graph0" class="graph" transform="scale(1 1) rotate(0) translate(4 126)">
<title>vTune::internal::JITCodeLineInfo::LineNumInfo</title>
<!-- Node1 -->
<g id="Node000001" class="node">
<title>Node1</title>
<g id="a_Node000001"><a xlink:title=" ">
<polygon fill="#999999" stroke="none" points="284,-93.5 130,-93.5 130,-28.5 284,-28.5 284,-93.5"/>
<text text-anchor="start" x="135" y="-80" font-family="Cascadia Code NF" font-size="10.00">vTune::internal::JITCode</text>
<text text-anchor="start" x="144" y="-67.25" font-family="Cascadia Code NF" font-size="10.00">LineInfo::LineNumInfo</text>
<text text-anchor="start" x="204" y="-51" font-family="Cascadia Code NF" font-size="10.00"> </text>
<text text-anchor="start" x="148.5" y="-35" font-family="Cascadia Code NF" font-size="10.00">+</text>
<text text-anchor="start" x="173" y="-35" font-family="Cascadia Code NF" font-size="10.00">LineNumInfo()</text>
<polygon fill="#666666" stroke="#666666" points="130,-62.5 130,-62.5 284,-62.5 284,-62.5 130,-62.5"/>
<polygon fill="#666666" stroke="#666666" points="130,-46.5 130,-46.5 284,-46.5 284,-46.5 130,-46.5"/>
<polygon fill="none" stroke="#666666" points="130,-28.5 130,-93.5 284,-93.5 284,-28.5 130,-28.5"/>
</a>
</g>
</g>
<!-- Node2 -->
<g id="Node000002" class="node">
<title>Node2</title>
<g id="a_Node000002"><a xlink:title=" ">
<polygon fill="white" stroke="none" points="58,-122 0,-122 0,-70 58,-70 58,-122"/>
<text text-anchor="start" x="5" y="-108.5" font-family="Cascadia Code NF" font-size="10.00">intptr_t</text>
<text text-anchor="start" x="26" y="-92.5" font-family="Cascadia Code NF" font-size="10.00"> </text>
<text text-anchor="start" x="26" y="-76.5" font-family="Cascadia Code NF" font-size="10.00"> </text>
<polygon fill="#bfbfbf" stroke="#bfbfbf" points="0,-104 0,-104 58,-104 58,-104 0,-104"/>
<polygon fill="#bfbfbf" stroke="#bfbfbf" points="0,-88 0,-88 58,-88 58,-88 0,-88"/>
<polygon fill="none" stroke="#bfbfbf" points="0,-70 0,-122 58,-122 58,-70 0,-70"/>
</a>
</g>
</g>
<!-- Node2&#45;&gt;Node1 -->
<g id="edge1_Node000001_Node000002" class="edge">
<title>Node2&#45;&gt;Node1</title>
<g id="a_edge1_Node000001_Node000002"><a xlink:title=" ">
<path fill="none" stroke="#63b8ff" d="M57.89,-90.45C74.17,-87.22 95.72,-82.93 117.32,-78.63"/>
<polygon fill="none" stroke="#63b8ff" points="117.36,-78.63 122.46,-73.53 129.13,-76.29 124.02,-81.38 117.36,-78.63"/>
</a>
</g>
<text text-anchor="middle" x="94" y="-89.25" font-family="Cascadia Code NF" font-size="10.00" fill="grey"> +pc_</text>
</g>
<!-- Node3 -->
<g id="Node000003" class="node">
<title>Node3</title>
<g id="a_Node000003"><a xlink:href="../../d1/da0/classint.html" target="_top" xlink:title=" ">
<polygon fill="white" stroke="none" points="43,-52 15,-52 15,0 43,0 43,-52"/>
<text text-anchor="start" x="20" y="-38.5" font-family="Cascadia Code NF" font-size="10.00">int</text>
<text text-anchor="start" x="26" y="-22.5" font-family="Cascadia Code NF" font-size="10.00"> </text>
<text text-anchor="start" x="26" y="-6.5" font-family="Cascadia Code NF" font-size="10.00"> </text>
<polygon fill="#bfbfbf" stroke="#bfbfbf" points="15,-34 15,-34 43,-34 43,-34 15,-34"/>
<polygon fill="#bfbfbf" stroke="#bfbfbf" points="15,-18 15,-18 43,-18 43,-18 15,-18"/>
<polygon fill="none" stroke="#bfbfbf" points="15,0 15,-52 43,-52 43,0 15,0"/>
</a>
</g>
</g>
<!-- Node3&#45;&gt;Node1 -->
<g id="edge2_Node000001_Node000003" class="edge">
<title>Node3&#45;&gt;Node1</title>
<g id="a_edge2_Node000001_Node000003"><a xlink:title=" ">
<path fill="none" stroke="#63b8ff" d="M42.94,-28.57C59.2,-31.81 88.53,-37.64 117.88,-43.48"/>
<polygon fill="none" stroke="#63b8ff" points="117.76,-43.45 124.43,-40.7 129.53,-45.79 122.87,-48.55 117.76,-43.45"/>
</a>
</g>
<text text-anchor="middle" x="94" y="-44.25" font-family="Cascadia Code NF" font-size="10.00" fill="grey"> +pos_</text>
</g>
</g>
</svg>
