<?xml version="1.0" encoding="UTF-8" standalone="no"?>
<!DOCTYPE svg PUBLIC "-//W3C//DTD SVG 1.1//EN"
 "http://www.w3.org/Graphics/SVG/1.1/DTD/svg11.dtd">
<!-- Generated by graphviz version 11.0.0 (20240428.1522)
 -->
<!-- Title: v8::internal::maglev::Phi Pages: 1 -->
<svg width="580pt" height="482pt"
 viewBox="0.00 0.00 580.00 482.00" xmlns="http://www.w3.org/2000/svg" xmlns:xlink="http://www.w3.org/1999/xlink">
<g id="graph0" class="graph" transform="scale(1 1) rotate(0) translate(4 478)">
<title>v8::internal::maglev::Phi</title>
<!-- Node1 -->
<g id="Node000001" class="node">
<title>Node1</title>
<g id="a_Node000001"><a xlink:title=" ">
<polygon fill="#999999" stroke="none" points="572,-420 380,-420 380,-208 572,-208 572,-420"/>
<text text-anchor="start" x="401" y="-406.5" font-family="Cascadia Code NF" font-size="10.00">v8::internal::maglev::Phi</text>
<text text-anchor="start" x="473" y="-390.5" font-family="Cascadia Code NF" font-size="10.00"> </text>
<text text-anchor="start" x="384" y="-374.5" font-family="Cascadia Code NF" font-size="10.00">+</text>
<text text-anchor="start" x="394" y="-374.5" font-family="Cascadia Code NF" font-size="10.00">Phi()</text>
<text text-anchor="start" x="384" y="-358.5" font-family="Cascadia Code NF" font-size="10.00">+</text>
<text text-anchor="start" x="394" y="-358.5" font-family="Cascadia Code NF" font-size="10.00">backedge_input()</text>
<text text-anchor="start" x="384" y="-342.5" font-family="Cascadia Code NF" font-size="10.00">+</text>
<text text-anchor="start" x="394" y="-342.5" font-family="Cascadia Code NF" font-size="10.00">owner()</text>
<text text-anchor="start" x="384" y="-326.5" font-family="Cascadia Code NF" font-size="10.00">+</text>
<text text-anchor="start" x="394" y="-326.5" font-family="Cascadia Code NF" font-size="10.00">merge_state()</text>
<text text-anchor="start" x="384" y="-310.5" font-family="Cascadia Code NF" font-size="10.00">+</text>
<text text-anchor="start" x="394" y="-310.5" font-family="Cascadia Code NF" font-size="10.00">is_exception_phi()</text>
<text text-anchor="start" x="384" y="-294.5" font-family="Cascadia Code NF" font-size="10.00">+</text>
<text text-anchor="start" x="394" y="-294.5" font-family="Cascadia Code NF" font-size="10.00">is_loop_phi()</text>
<text text-anchor="start" x="384" y="-278.5" font-family="Cascadia Code NF" font-size="10.00">+</text>
<text text-anchor="start" x="394" y="-278.5" font-family="Cascadia Code NF" font-size="10.00">is_backedge_offset()</text>
<text text-anchor="start" x="384" y="-262.5" font-family="Cascadia Code NF" font-size="10.00">+</text>
<text text-anchor="start" x="394" y="-262.5" font-family="Cascadia Code NF" font-size="10.00">VerifyInputs()</text>
<text text-anchor="start" x="384" y="-246.5" font-family="Cascadia Code NF" font-size="10.00">+</text>
<text text-anchor="start" x="394" y="-246.5" font-family="Cascadia Code NF" font-size="10.00">SetValueLocationConstraints()</text>
<text text-anchor="start" x="384" y="-230.5" font-family="Cascadia Code NF" font-size="10.00">+</text>
<text text-anchor="start" x="394" y="-230.5" font-family="Cascadia Code NF" font-size="10.00">GenerateCode()</text>
<text text-anchor="start" x="394" y="-214.5" font-family="Cascadia Code NF" font-size="10.00">and 17 more...</text>
<polygon fill="#666666" stroke="#666666" points="380,-402 380,-402 572,-402 572,-402 380,-402"/>
<polygon fill="#666666" stroke="#666666" points="380,-386 380,-386 572,-386 572,-386 380,-386"/>
<polygon fill="none" stroke="#666666" points="380,-208 380,-420 572,-420 572,-208 380,-208"/>
</a>
</g>
</g>
<!-- Node2 -->
<g id="Node000002" class="node">
<title>Node2</title>
<g id="a_Node000002"><a xlink:href="../../dc/d85/classv8_1_1internal_1_1maglev_1_1NodeTMixin.html" target="_top" xlink:title=" ">
<polygon fill="white" stroke="none" points="212,-474 100,-474 100,-358 212,-358 212,-474"/>
<text text-anchor="start" x="105" y="-460.5" font-family="Cascadia Code NF" font-size="10.00">ValueNodeT&lt; Phi &gt;</text>
<text text-anchor="start" x="153" y="-444.5" font-family="Cascadia Code NF" font-size="10.00"> </text>
<text text-anchor="start" x="109.5" y="-428.5" font-family="Cascadia Code NF" font-size="10.00">+</text>
<text text-anchor="start" x="125" y="-428.5" font-family="Cascadia Code NF" font-size="10.00">opcode()</text>
<text text-anchor="start" x="109.5" y="-412.5" font-family="Cascadia Code NF" font-size="10.00">+</text>
<text text-anchor="start" x="125" y="-412.5" font-family="Cascadia Code NF" font-size="10.00">properties()</text>
<text text-anchor="start" x="109.5" y="-396.5" font-family="Cascadia Code NF" font-size="10.00">+</text>
<text text-anchor="start" x="125" y="-396.5" font-family="Cascadia Code NF" font-size="10.00">New()</text>
<text text-anchor="start" x="109.5" y="-380.5" font-family="Cascadia Code NF" font-size="10.00">+</text>
<text text-anchor="start" x="125" y="-380.5" font-family="Cascadia Code NF" font-size="10.00">New()</text>
<text text-anchor="start" x="109.5" y="-364.5" font-family="Cascadia Code NF" font-size="10.00">#</text>
<text text-anchor="start" x="125" y="-364.5" font-family="Cascadia Code NF" font-size="10.00">NodeTMixin()</text>
<polygon fill="#bfbfbf" stroke="#bfbfbf" points="100,-456 100,-456 212,-456 212,-456 100,-456"/>
<polygon fill="#bfbfbf" stroke="#bfbfbf" points="100,-440 100,-440 212,-440 212,-440 100,-440"/>
<polygon fill="none" stroke="#bfbfbf" points="100,-358 100,-474 212,-474 212,-358 100,-358"/>
</a>
</g>
</g>
<!-- Node2&#45;&gt;Node1 -->
<g id="edge1_Node000001_Node000002" class="edge">
<title>Node2&#45;&gt;Node1</title>
<g id="a_edge1_Node000001_Node000002"><a xlink:title=" ">
<path fill="none" stroke="#63b8ff" d="M222.59,-394.96C268.12,-380.36 329.47,-360.68 380.29,-344.38"/>
<polygon fill="none" stroke="#63b8ff" points="221.56,-391.62 213.11,-398 223.7,-398.28 221.56,-391.62"/>
</a>
</g>
</g>
<!-- Node3 -->
<g id="Node000003" class="node">
<title>Node3</title>
<g id="a_Node000003"><a xlink:title=" ">
<polygon fill="white" stroke="none" points="34,-442 0,-442 0,-390 34,-390 34,-442"/>
<text text-anchor="start" x="5" y="-428.5" font-family="Cascadia Code NF" font-size="10.00">Base</text>
<text text-anchor="start" x="14" y="-412.5" font-family="Cascadia Code NF" font-size="10.00"> </text>
<text text-anchor="start" x="14" y="-396.5" font-family="Cascadia Code NF" font-size="10.00"> </text>
<polygon fill="#bfbfbf" stroke="#bfbfbf" points="0,-424 0,-424 34,-424 34,-424 0,-424"/>
<polygon fill="#bfbfbf" stroke="#bfbfbf" points="0,-408 0,-408 34,-408 34,-408 0,-408"/>
<polygon fill="none" stroke="#bfbfbf" points="0,-390 0,-442 34,-442 34,-390 0,-390"/>
</a>
</g>
</g>
<!-- Node3&#45;&gt;Node2 -->
<g id="edge2_Node000002_Node000003" class="edge">
<title>Node3&#45;&gt;Node2</title>
<g id="a_edge2_Node000002_Node000003"><a xlink:title=" ">
<path fill="none" stroke="#63b8ff" d="M45.46,-416C61.11,-416 81.31,-416 100.08,-416"/>
<polygon fill="none" stroke="#63b8ff" points="45.5,-412.5 35.5,-416 45.5,-419.5 45.5,-412.5"/>
</a>
</g>
</g>
<!-- Node4 -->
<g id="Node000004" class="node">
<title>Node4</title>
<g id="a_Node000004"><a xlink:title=" ">
<polygon fill="white" stroke="none" points="185,-340 127,-340 127,-288 185,-288 185,-340"/>
<text text-anchor="start" x="132" y="-326.5" font-family="Cascadia Code NF" font-size="10.00">NodeType</text>
<text text-anchor="start" x="153" y="-310.5" font-family="Cascadia Code NF" font-size="10.00"> </text>
<text text-anchor="start" x="153" y="-294.5" font-family="Cascadia Code NF" font-size="10.00"> </text>
<polygon fill="#bfbfbf" stroke="#bfbfbf" points="127,-322 127,-322 185,-322 185,-322 127,-322"/>
<polygon fill="#bfbfbf" stroke="#bfbfbf" points="127,-306 127,-306 185,-306 185,-306 127,-306"/>
<polygon fill="none" stroke="#bfbfbf" points="127,-288 127,-340 185,-340 185,-288 127,-288"/>
</a>
</g>
</g>
<!-- Node4&#45;&gt;Node1 -->
<g id="edge3_Node000001_Node000004" class="edge">
<title>Node4&#45;&gt;Node1</title>
<g id="a_edge3_Node000001_Node000004"><a xlink:title=" ">
<path fill="none" stroke="#63b8ff" d="M184.94,-314C225.51,-314 302.93,-314 367.59,-314"/>
<polygon fill="none" stroke="#63b8ff" points="367.43,-314 373.43,-310 379.43,-314 373.43,-318 367.43,-314"/>
</a>
</g>
<text text-anchor="middle" x="311" y="-330" font-family="Cascadia Code NF" font-size="10.00" fill="grey"> +post_loop_type_</text>
<text text-anchor="middle" x="311" y="-317.25" font-family="Cascadia Code NF" font-size="10.00" fill="grey">+type_</text>
</g>
<!-- Node5 -->
<g id="Node000005" class="node">
<title>Node5</title>
<g id="a_Node000005"><a xlink:href="../../d1/d03/classv8_1_1internal_1_1compiler_1_1turboshaft_1_1SnapshotTable.html" target="_top" xlink:title=" ">
<polygon fill="white" stroke="none" points="242,-270 70,-270 70,0 242,0 242,-270"/>
<text text-anchor="start" x="75" y="-256.5" font-family="Cascadia Code NF" font-size="10.00">v8::internal::compiler</text>
<text text-anchor="start" x="75" y="-243.75" font-family="Cascadia Code NF" font-size="10.00">::turboshaft::SnapshotTable</text>
<text text-anchor="start" x="111" y="-231" font-family="Cascadia Code NF" font-size="10.00">&lt; ValueNode * &gt;</text>
<text text-anchor="start" x="153" y="-214.5" font-family="Cascadia Code NF" font-size="10.00"> </text>
<text text-anchor="start" x="81" y="-198.5" font-family="Cascadia Code NF" font-size="10.00">+</text>
<text text-anchor="start" x="98" y="-198.5" font-family="Cascadia Code NF" font-size="10.00">StartNewSnapshot()</text>
<text text-anchor="start" x="81" y="-182.5" font-family="Cascadia Code NF" font-size="10.00">+</text>
<text text-anchor="start" x="98" y="-182.5" font-family="Cascadia Code NF" font-size="10.00">StartNewSnapshot()</text>
<text text-anchor="start" x="81" y="-166.5" font-family="Cascadia Code NF" font-size="10.00">+</text>
<text text-anchor="start" x="98" y="-166.5" font-family="Cascadia Code NF" font-size="10.00">StartNewSnapshot()</text>
<text text-anchor="start" x="81" y="-150.5" font-family="Cascadia Code NF" font-size="10.00">+</text>
<text text-anchor="start" x="98" y="-150.5" font-family="Cascadia Code NF" font-size="10.00">StartNewSnapshot()</text>
<text text-anchor="start" x="81" y="-134.5" font-family="Cascadia Code NF" font-size="10.00">+</text>
<text text-anchor="start" x="98" y="-134.5" font-family="Cascadia Code NF" font-size="10.00">StartNewSnapshot()</text>
<text text-anchor="start" x="81" y="-118.5" font-family="Cascadia Code NF" font-size="10.00">+</text>
<text text-anchor="start" x="98" y="-118.5" font-family="Cascadia Code NF" font-size="10.00">Seal()</text>
<text text-anchor="start" x="81" y="-102.5" font-family="Cascadia Code NF" font-size="10.00">+</text>
<text text-anchor="start" x="98" y="-102.5" font-family="Cascadia Code NF" font-size="10.00">Get()</text>
<text text-anchor="start" x="81" y="-86.5" font-family="Cascadia Code NF" font-size="10.00">+</text>
<text text-anchor="start" x="98" y="-86.5" font-family="Cascadia Code NF" font-size="10.00">GetPredecessorValue()</text>
<text text-anchor="start" x="81" y="-70.5" font-family="Cascadia Code NF" font-size="10.00">+</text>
<text text-anchor="start" x="98" y="-70.5" font-family="Cascadia Code NF" font-size="10.00">Set()</text>
<text text-anchor="start" x="81" y="-54.5" font-family="Cascadia Code NF" font-size="10.00">+</text>
<text text-anchor="start" x="98" y="-54.5" font-family="Cascadia Code NF" font-size="10.00">SnapshotTable()</text>
<text text-anchor="start" x="81" y="-38.5" font-family="Cascadia Code NF" font-size="10.00">+</text>
<text text-anchor="start" x="98" y="-38.5" font-family="Cascadia Code NF" font-size="10.00">NewKey()</text>
<text text-anchor="start" x="81" y="-22.5" font-family="Cascadia Code NF" font-size="10.00">+</text>
<text text-anchor="start" x="98" y="-22.5" font-family="Cascadia Code NF" font-size="10.00">NewKey()</text>
<text text-anchor="start" x="81" y="-6.5" font-family="Cascadia Code NF" font-size="10.00">+</text>
<text text-anchor="start" x="98" y="-6.5" font-family="Cascadia Code NF" font-size="10.00">IsSealed()</text>
<polygon fill="#bfbfbf" stroke="#bfbfbf" points="70,-226 70,-226 242,-226 242,-226 70,-226"/>
<polygon fill="#bfbfbf" stroke="#bfbfbf" points="70,-210 70,-210 242,-210 242,-210 70,-210"/>
<polygon fill="none" stroke="#bfbfbf" points="70,0 70,-270 242,-270 242,0 70,0"/>
</a>
</g>
</g>
<!-- Node5&#45;&gt;Node1 -->
<g id="edge4_Node000001_Node000005" class="edge">
<title>Node5&#45;&gt;Node1</title>
<g id="a_edge4_Node000001_Node000005"><a xlink:title=" ">
<path fill="none" stroke="#63b8ff" d="M241.8,-182.73C280.82,-204.7 327.52,-230.98 368.84,-254.25"/>
<polygon fill="none" stroke="#63b8ff" points="368.82,-254.23 376.01,-253.69 379.28,-260.12 372.09,-260.66 368.82,-254.23"/>
</a>
</g>
<text text-anchor="middle" x="311" y="-248.25" font-family="Cascadia Code NF" font-size="10.00" fill="grey"> +key_</text>
</g>
</g>
</svg>
