<?xml version="1.0" encoding="UTF-8" standalone="no"?>
<!DOCTYPE svg PUBLIC "-//W3C//DTD SVG 1.1//EN"
 "http://www.w3.org/Graphics/SVG/1.1/DTD/svg11.dtd">
<!-- Generated by graphviz version 11.0.0 (20240428.1522)
 -->
<!-- Title: v8::internal::compiler::BytecodeLiveness Pages: 1 -->
<!--zoomable 233 -->

<svg id="main" version="1.1" xmlns="http://www.w3.org/2000/svg" xmlns:xlink="http://www.w3.org/1999/xlink" xml:space="preserve" onload="init(evt)">
<style type="text/css"><![CDATA[
.node, .edge {opacity: 0.7;}
.node.selected, .edge.selected {opacity: 1;}
.edge:hover path { stroke: red; }
.edge:hover polygon { stroke: red; fill: red; }
svg#main { background-color: #111; }
]]></style>

<defs>
  <circle id="rim" cx="0" cy="0" r="7"/>
  <circle id="rim2" cx="0" cy="0" r="3.5"/>
  <g id="zoomPlus">
    <use xlink:href="#rim" fill="#404040"><set attributeName="fill" to="#808080" begin="zoomplus.mouseover" end="zoomplus.mouseout"/></use>
    <path d="M-4,0h8M0,-4v8" fill="none" stroke="white" stroke-width="1.5" pointer-events="none"/>
  </g>
  <g id="zoomMin">
    <use xlink:href="#rim" fill="#404040"><set attributeName="fill" to="#808080" begin="zoomminus.mouseover" end="zoomminus.mouseout"/></use>
    <path d="M-4,0h8" fill="none" stroke="white" stroke-width="1.5" pointer-events="none"/>
  </g>
  <g id="arrowUp" transform="translate(30 24)">
    <use xlink:href="#rim"/>
    <path pointer-events="none" fill="none" stroke="white" stroke-width="1.5" d="M0,-3.0v7 M-2.5,-0.5L0,-3.0L2.5,-0.5"/>
  </g>
  <g id="arrowRight" transform="rotate(90) translate(36 -43)">
    <use xlink:href="#rim"/>
    <path pointer-events="none" fill="none" stroke="white" stroke-width="1.5" d="M0,-3.0v7 M-2.5,-0.5L0,-3.0L2.5,-0.5"/>
  </g>
  <g id="arrowDown" transform="rotate(180) translate(-30 -48)">
    <use xlink:href="#rim"/>
    <path pointer-events="none" fill="none" stroke="white" stroke-width="1.5" d="M0,-3.0v7 M-2.5,-0.5L0,-3.0L2.5,-0.5"/>
  </g>
  <g id="arrowLeft" transform="rotate(270) translate(-36 17)">
    <use xlink:href="#rim"/>
    <path pointer-events="none" fill="none" stroke="white" stroke-width="1.5" d="M0,-3.0v7 M-2.5,-0.5L0,-3.0L2.5,-0.5"/>
  </g>
  <g id="resetDef">
    <use xlink:href="#rim2" fill="#404040"><set attributeName="fill" to="#808080" begin="reset.mouseover" end="reset.mouseout"/></use>
  </g>
</defs>
<script type="application/ecmascript">
var viewWidth = 556;
var viewHeight = 233;
var sectionId = 'dynsection-0';
</script>
<script type="application/ecmascript" xlink:href="../../svg.min.js"/>
<svg id="graph" class="graph">
<g id="viewport">
<title>v8::internal::compiler::BytecodeLiveness</title>
<!-- Node1 -->
<g id="Node000001" class="node">
<title>Node1</title>
<g id="a_Node000001"><a xlink:title=" ">
<polygon fill="#999999" stroke="none" points="548,-145 406,-145 406,-80 548,-80 548,-145"/>
<text text-anchor="start" x="411" y="-131.5" font-family="Cascadia Code NF" font-size="10.00">v8::internal::compiler</text>
<text text-anchor="start" x="423" y="-118.75" font-family="Cascadia Code NF" font-size="10.00">::BytecodeLiveness</text>
<text text-anchor="start" x="474" y="-102.5" font-family="Cascadia Code NF" font-size="10.00"> </text>
<text text-anchor="start" x="474" y="-86.5" font-family="Cascadia Code NF" font-size="10.00"> </text>
<polygon fill="#666666" stroke="#666666" points="406,-114 406,-114 548,-114 548,-114 406,-114"/>
<polygon fill="#666666" stroke="#666666" points="406,-98 406,-98 548,-98 548,-98 406,-98"/>
<polygon fill="none" stroke="#666666" points="406,-80 406,-145 548,-145 548,-80 406,-80"/>
</a>
</g>
</g>
<!-- Node2 -->
<g id="Node000002" class="node">
<title>Node2</title>
<g id="a_Node000002"><a xlink:href="../../d5/d47/classv8_1_1internal_1_1compiler_1_1BytecodeLivenessState.html" target="_top" xlink:title=" ">
<polygon fill="white" stroke="none" points="346,-225 190,-225 190,0 346,0 346,-225"/>
<text text-anchor="start" x="199" y="-211.5" font-family="Cascadia Code NF" font-size="10.00">v8::internal::compiler</text>
<text text-anchor="start" x="199" y="-198.75" font-family="Cascadia Code NF" font-size="10.00">::BytecodeLivenessState</text>
<text text-anchor="start" x="265" y="-182.5" font-family="Cascadia Code NF" font-size="10.00"> </text>
<text text-anchor="start" x="194" y="-166.5" font-family="Cascadia Code NF" font-size="10.00">+</text>
<text text-anchor="start" x="204" y="-166.5" font-family="Cascadia Code NF" font-size="10.00">BytecodeLivenessState()</text>
<text text-anchor="start" x="194" y="-150.5" font-family="Cascadia Code NF" font-size="10.00">+</text>
<text text-anchor="start" x="204" y="-150.5" font-family="Cascadia Code NF" font-size="10.00">BytecodeLivenessState()</text>
<text text-anchor="start" x="194" y="-134.5" font-family="Cascadia Code NF" font-size="10.00">+</text>
<text text-anchor="start" x="204" y="-134.5" font-family="Cascadia Code NF" font-size="10.00">operator=()</text>
<text text-anchor="start" x="194" y="-118.5" font-family="Cascadia Code NF" font-size="10.00">+</text>
<text text-anchor="start" x="204" y="-118.5" font-family="Cascadia Code NF" font-size="10.00">BytecodeLivenessState()</text>
<text text-anchor="start" x="194" y="-102.5" font-family="Cascadia Code NF" font-size="10.00">+</text>
<text text-anchor="start" x="204" y="-102.5" font-family="Cascadia Code NF" font-size="10.00">RegisterIsLive()</text>
<text text-anchor="start" x="194" y="-86.5" font-family="Cascadia Code NF" font-size="10.00">+</text>
<text text-anchor="start" x="204" y="-86.5" font-family="Cascadia Code NF" font-size="10.00">AccumulatorIsLive()</text>
<text text-anchor="start" x="194" y="-70.5" font-family="Cascadia Code NF" font-size="10.00">+</text>
<text text-anchor="start" x="204" y="-70.5" font-family="Cascadia Code NF" font-size="10.00">Equals()</text>
<text text-anchor="start" x="194" y="-54.5" font-family="Cascadia Code NF" font-size="10.00">+</text>
<text text-anchor="start" x="204" y="-54.5" font-family="Cascadia Code NF" font-size="10.00">MarkRegisterLive()</text>
<text text-anchor="start" x="194" y="-38.5" font-family="Cascadia Code NF" font-size="10.00">+</text>
<text text-anchor="start" x="204" y="-38.5" font-family="Cascadia Code NF" font-size="10.00">MarkRegisterDead()</text>
<text text-anchor="start" x="194" y="-22.5" font-family="Cascadia Code NF" font-size="10.00">+</text>
<text text-anchor="start" x="204" y="-22.5" font-family="Cascadia Code NF" font-size="10.00">MarkAccumulatorLive()</text>
<text text-anchor="start" x="204" y="-6.5" font-family="Cascadia Code NF" font-size="10.00">and 9 more...</text>
<polygon fill="#bfbfbf" stroke="#bfbfbf" points="190,-194 190,-194 346,-194 346,-194 190,-194"/>
<polygon fill="#bfbfbf" stroke="#bfbfbf" points="190,-178 190,-178 346,-178 346,-178 190,-178"/>
<polygon fill="none" stroke="#bfbfbf" points="190,0 190,-225 346,-225 346,0 190,0"/>
</a>
</g>
</g>
<!-- Node2&#45;&gt;Node1 -->
<g id="edge1_Node000001_Node000002" class="edge">
<title>Node2&#45;&gt;Node1</title>
<g id="a_edge1_Node000001_Node000002"><a xlink:title=" ">
<path fill="none" stroke="#63b8ff" d="M345.78,-112.5C361.25,-112.5 377.56,-112.5 393.22,-112.5"/>
<polygon fill="none" stroke="#63b8ff" points="393.28,-112.5 399.28,-108.5 405.28,-112.5 399.28,-116.5 393.28,-112.5"/>
</a>
</g>
<text text-anchor="middle" x="376" y="-128.5" font-family="Cascadia Code NF" font-size="10.00" fill="grey"> +in</text>
<text text-anchor="middle" x="376" y="-115.75" font-family="Cascadia Code NF" font-size="10.00" fill="grey">+out</text>
</g>
<!-- Node3 -->
<g id="Node000003" class="node">
<title>Node3</title>
<g id="a_Node000003"><a xlink:href="../../dc/dca/classv8_1_1internal_1_1ZoneObject.html" target="_top" xlink:title=" ">
<polygon fill="white" stroke="none" points="154,-162.5 0,-162.5 0,-62.5 154,-62.5 154,-162.5"/>
<text text-anchor="start" x="5" y="-149" font-family="Cascadia Code NF" font-size="10.00">v8::internal::ZoneObject</text>
<text text-anchor="start" x="74" y="-133" font-family="Cascadia Code NF" font-size="10.00"> </text>
<text text-anchor="start" x="12.5" y="-117" font-family="Cascadia Code NF" font-size="10.00">+</text>
<text text-anchor="start" x="31" y="-117" font-family="Cascadia Code NF" font-size="10.00">operator new()</text>
<text text-anchor="start" x="12.5" y="-101" font-family="Cascadia Code NF" font-size="10.00">+</text>
<text text-anchor="start" x="31" y="-101" font-family="Cascadia Code NF" font-size="10.00">operator new()</text>
<text text-anchor="start" x="12.5" y="-85" font-family="Cascadia Code NF" font-size="10.00">+</text>
<text text-anchor="start" x="31" y="-85" font-family="Cascadia Code NF" font-size="10.00">operator delete()</text>
<text text-anchor="start" x="12.5" y="-69" font-family="Cascadia Code NF" font-size="10.00">+</text>
<text text-anchor="start" x="31" y="-69" font-family="Cascadia Code NF" font-size="10.00">operator delete()</text>
<polygon fill="#bfbfbf" stroke="#bfbfbf" points="0,-144.5 0,-144.5 154,-144.5 154,-144.5 0,-144.5"/>
<polygon fill="#bfbfbf" stroke="#bfbfbf" points="0,-128.5 0,-128.5 154,-128.5 154,-128.5 0,-128.5"/>
<polygon fill="none" stroke="#bfbfbf" points="0,-62.5 0,-162.5 154,-162.5 154,-62.5 0,-62.5"/>
</a>
</g>
</g>
<!-- Node3&#45;&gt;Node2 -->
<g id="edge2_Node000002_Node000003" class="edge">
<title>Node3&#45;&gt;Node2</title>
<g id="a_edge2_Node000002_Node000003"><a xlink:title=" ">
<path fill="none" stroke="#63b8ff" d="M165.15,-112.5C173.53,-112.5 182,-112.5 190.27,-112.5"/>
<polygon fill="none" stroke="#63b8ff" points="165.3,-109 155.3,-112.5 165.3,-116 165.3,-109"/>
</a>
</g>
</g>
</g>
</svg>

<g id="navigator" transform="translate(0 0)" fill="#404254">
  <rect fill="#f2f5e9" fill-opacity="0.5" stroke="#606060" stroke-width=".5" x="0" y="0" width="60" height="60"/>
  <use id="zoomplus" xlink:href="#zoomPlus" x="17" y="9" onmousedown="handleZoom(evt,'in')"/>
  <use id="zoomminus" xlink:href="#zoomMin" x="42" y="9" onmousedown="handleZoom(evt,'out')"/>
  <use id="reset" xlink:href="#resetDef" x="30" y="36" onmousedown="handleReset()"/>
   <use id="arrowup" xlink:href="#arrowUp" x="0" y="0" onmousedown="handlePan(0,-1)"/>
  <use id="arrowright" xlink:href="#arrowRight" x="0" y="0" onmousedown="handlePan(1,0)"/>
  <use id="arrowdown" xlink:href="#arrowDown" x="0" y="0" onmousedown="handlePan(0,1)"/>
  <use id="arrowleft" xlink:href="#arrowLeft" x="0" y="0" onmousedown="handlePan(-1,0)"/>
</g>
<svg viewBox="0 0 15 15" width="100%" height="30px" preserveAspectRatio="xMaxYMin meet">
 <g id="arrow_out" transform="scale(0.3 0.3)">
  <a xlink:href="structv8_1_1internal_1_1compiler_1_1BytecodeLiveness__coll__graph_org.svg" target="_base">
   <rect id="button" ry="5" rx="5" y="6" x="6" height="38" width="38"
        fill="#f2f5e9" fill-opacity="0.5" stroke="#606060" stroke-width="1.0"/>
   <path id="arrow"
     d="M 11.500037,31.436501 C 11.940474,20.09759 22.043105,11.32322 32.158766,21.979434 L 37.068811,17.246167 C 37.068811,17.246167 37.088388,32 37.088388,32 L 22.160133,31.978069 C 22.160133,31.978069 26.997745,27.140456 26.997745,27.140456 C 18.528582,18.264221 13.291696,25.230495 11.500037,31.436501 z"
     style="fill:#404040;"/>
  </a>
 </g>
</svg>

<style type='text/css'>
<![CDATA[
[data-mouse-over-selected='false'] { opacity: 0.7; }
[data-mouse-over-selected='true']  { opacity: 1.0; }
]]>
</style>
<script type="application/ecmascript"><![CDATA[
document.addEventListener('DOMContentLoaded', (event) => {
  highlightEdges();
  highlightAdjacentNodes();
});
]]></script>
</svg>
