<?xml version="1.0" encoding="UTF-8" standalone="no"?>
<!DOCTYPE svg PUBLIC "-//W3C//DTD SVG 1.1//EN"
 "http://www.w3.org/Graphics/SVG/1.1/DTD/svg11.dtd">
<!-- Generated by graphviz version 11.0.0 (20240428.1522)
 -->
<!-- Title: TorqueGeneratedWasmFunctionData&lt; D, P &gt; Pages: 1 -->
<svg width="420pt" height="336pt"
 viewBox="0.00 0.00 420.00 336.00" xmlns="http://www.w3.org/2000/svg" xmlns:xlink="http://www.w3.org/1999/xlink">

<svg id="main" version="1.1" xmlns="http://www.w3.org/2000/svg" xmlns:xlink="http://www.w3.org/1999/xlink" xml:space="preserve" onload="init(evt)">
<style type="text/css"><![CDATA[
.node, .edge {opacity: 0.7;}
.node.selected, .edge.selected {opacity: 1;}
.edge:hover path { stroke: red; }
.edge:hover polygon { stroke: red; fill: red; }
svg#main { background-color: #111; }
]]></style>
<script type="application/ecmascript" xlink:href="../../svg.min.js"/>
<svg id="graph" class="graph">
<g id="graph0" class="graph" transform="scale(1 1) rotate(0) translate(4 332)">
<title>TorqueGeneratedWasmFunctionData&lt; D, P &gt;</title>
<!-- Node1 -->
<g id="Node000001" class="node">
<title>Node1</title>
<g id="a_Node000001"><a xlink:title=" ">
<polygon fill="#999999" stroke="none" points="412,-328 232,-328 232,0 412,0 412,-328"/>
<text text-anchor="start" x="241" y="-314.5" font-family="Cascadia Code NF" font-size="10.00">TorqueGeneratedWasmFunction</text>
<text text-anchor="start" x="286" y="-301.75" font-family="Cascadia Code NF" font-size="10.00">Data&lt; D, P &gt;</text>
<text text-anchor="start" x="236" y="-285.5" font-family="Cascadia Code NF" font-size="10.00">+</text>
<text text-anchor="start" x="246" y="-285.5" font-family="Cascadia Code NF" font-size="10.00">kWrapperCodeOffset</text>
<text text-anchor="start" x="236" y="-269.5" font-family="Cascadia Code NF" font-size="10.00">+</text>
<text text-anchor="start" x="246" y="-269.5" font-family="Cascadia Code NF" font-size="10.00">kWrapperCodeOffsetEnd</text>
<text text-anchor="start" x="236" y="-253.5" font-family="Cascadia Code NF" font-size="10.00">+</text>
<text text-anchor="start" x="246" y="-253.5" font-family="Cascadia Code NF" font-size="10.00">kStartOfStrongFieldsOffset</text>
<text text-anchor="start" x="236" y="-237.5" font-family="Cascadia Code NF" font-size="10.00">+</text>
<text text-anchor="start" x="246" y="-237.5" font-family="Cascadia Code NF" font-size="10.00">kStartOfWeakFieldsOffset</text>
<text text-anchor="start" x="236" y="-221.5" font-family="Cascadia Code NF" font-size="10.00">+</text>
<text text-anchor="start" x="246" y="-221.5" font-family="Cascadia Code NF" font-size="10.00">func_ref()</text>
<text text-anchor="start" x="236" y="-205.5" font-family="Cascadia Code NF" font-size="10.00">+</text>
<text text-anchor="start" x="246" y="-205.5" font-family="Cascadia Code NF" font-size="10.00">func_ref()</text>
<text text-anchor="start" x="236" y="-189.5" font-family="Cascadia Code NF" font-size="10.00">+</text>
<text text-anchor="start" x="246" y="-189.5" font-family="Cascadia Code NF" font-size="10.00">set_func_ref()</text>
<text text-anchor="start" x="236" y="-173.5" font-family="Cascadia Code NF" font-size="10.00">+</text>
<text text-anchor="start" x="246" y="-173.5" font-family="Cascadia Code NF" font-size="10.00">js_promise_flags()</text>
<text text-anchor="start" x="236" y="-157.5" font-family="Cascadia Code NF" font-size="10.00">+</text>
<text text-anchor="start" x="246" y="-157.5" font-family="Cascadia Code NF" font-size="10.00">set_js_promise_flags()</text>
<text text-anchor="start" x="236" y="-141.5" font-family="Cascadia Code NF" font-size="10.00">+</text>
<text text-anchor="start" x="246" y="-141.5" font-family="Cascadia Code NF" font-size="10.00">AllocatedSize()</text>
<text text-anchor="start" x="236" y="-125.5" font-family="Cascadia Code NF" font-size="10.00">+</text>
<text text-anchor="start" x="246" y="-125.5" font-family="Cascadia Code NF" font-size="10.00">TorqueGeneratedWasmFunction</text>
<text text-anchor="start" x="246" y="-112.75" font-family="Cascadia Code NF" font-size="10.00">Data()</text>
<text text-anchor="start" x="236" y="-96.5" font-family="Cascadia Code NF" font-size="10.00">+</text>
<text text-anchor="start" x="246" y="-96.5" font-family="Cascadia Code NF" font-size="10.00">cast()</text>
<text text-anchor="start" x="236" y="-80.5" font-family="Cascadia Code NF" font-size="10.00">+</text>
<text text-anchor="start" x="246" y="-80.5" font-family="Cascadia Code NF" font-size="10.00">unchecked_cast()</text>
<text text-anchor="start" x="236" y="-64.5" font-family="Cascadia Code NF" font-size="10.00">+</text>
<text text-anchor="start" x="246" y="-64.5" font-family="Cascadia Code NF" font-size="10.00">SizeFor()</text>
<text text-anchor="start" x="236" y="-48.5" font-family="Cascadia Code NF" font-size="10.00">#</text>
<text text-anchor="start" x="246" y="-48.5" font-family="Cascadia Code NF" font-size="10.00">TorqueGeneratedWasmFunction</text>
<text text-anchor="start" x="246" y="-35.75" font-family="Cascadia Code NF" font-size="10.00">Data()</text>
<text text-anchor="start" x="236" y="-19.5" font-family="Cascadia Code NF" font-size="10.00">#</text>
<text text-anchor="start" x="246" y="-19.5" font-family="Cascadia Code NF" font-size="10.00">TorqueGeneratedWasmFunction</text>
<text text-anchor="start" x="246" y="-6.75" font-family="Cascadia Code NF" font-size="10.00">Data()</text>
<polygon fill="#666666" stroke="#666666" points="232,-297 232,-297 412,-297 412,-297 232,-297"/>
<polygon fill="#666666" stroke="#666666" points="232,-233 232,-233 244,-233 244,-233 232,-233"/>
<polygon fill="#666666" stroke="#666666" points="244,-233 244,-233 412,-233 412,-233 244,-233"/>
<polygon fill="none" stroke="#666666" points="232,0 232,-328 412,-328 412,0 232,0"/>
</a>
</g>
</g>
<!-- Node2 -->
<g id="Node000002" class="node">
<title>Node2</title>
<g id="a_Node000002"><a xlink:href="../../db/d72/classP.html" target="_top" xlink:title=" ">
<polygon fill="white" stroke="none" points="22,-272 6,-272 6,-220 22,-220 22,-272"/>
<text text-anchor="start" x="11" y="-258.5" font-family="Cascadia Code NF" font-size="10.00">P</text>
<text text-anchor="start" x="11" y="-242.5" font-family="Cascadia Code NF" font-size="10.00"> </text>
<text text-anchor="start" x="11" y="-226.5" font-family="Cascadia Code NF" font-size="10.00"> </text>
<polygon fill="#bfbfbf" stroke="#bfbfbf" points="6,-254 6,-254 22,-254 22,-254 6,-254"/>
<polygon fill="#bfbfbf" stroke="#bfbfbf" points="6,-238 6,-238 22,-238 22,-238 6,-238"/>
<polygon fill="none" stroke="#bfbfbf" points="6,-220 6,-272 22,-272 22,-220 6,-220"/>
</a>
</g>
</g>
<!-- Node2&#45;&gt;Node1 -->
<g id="edge1_Node000001_Node000002" class="edge">
<title>Node2&#45;&gt;Node1</title>
<g id="a_edge1_Node000001_Node000002"><a xlink:title=" ">
<path fill="none" stroke="#63b8ff" d="M32.96,-246.38C68.46,-246.62 149.73,-244.63 214,-224 220.08,-222.05 226.21,-219.73 232.29,-217.16"/>
<polygon fill="none" stroke="#63b8ff" points="33.29,-242.88 23.24,-246.23 33.19,-249.88 33.29,-242.88"/>
</a>
</g>
</g>
<!-- Node3 -->
<g id="Node000003" class="node">
<title>Node3</title>
<g id="a_Node000003"><a xlink:href="../../d1/da0/classint.html" target="_top" xlink:title=" ">
<polygon fill="white" stroke="none" points="28,-109 0,-109 0,-57 28,-57 28,-109"/>
<text text-anchor="start" x="5" y="-95.5" font-family="Cascadia Code NF" font-size="10.00">int</text>
<text text-anchor="start" x="11" y="-79.5" font-family="Cascadia Code NF" font-size="10.00"> </text>
<text text-anchor="start" x="11" y="-63.5" font-family="Cascadia Code NF" font-size="10.00"> </text>
<polygon fill="#bfbfbf" stroke="#bfbfbf" points="0,-91 0,-91 28,-91 28,-91 0,-91"/>
<polygon fill="#bfbfbf" stroke="#bfbfbf" points="0,-75 0,-75 28,-75 28,-75 0,-75"/>
<polygon fill="none" stroke="#bfbfbf" points="0,-57 0,-109 28,-109 28,-57 0,-57"/>
</a>
</g>
</g>
<!-- Node3&#45;&gt;Node1 -->
<g id="edge2_Node000001_Node000003" class="edge">
<title>Node3&#45;&gt;Node1</title>
<g id="a_edge2_Node000001_Node000003"><a xlink:title=" ">
<path fill="none" stroke="#63b8ff" d="M27.55,-80.4C59.64,-74.29 146.85,-61.23 214,-83.75 216.12,-84.46 218.23,-85.23 220.33,-86.06"/>
<polygon fill="none" stroke="#63b8ff" points="220.44,-86.1 227.54,-84.88 231.4,-90.97 224.3,-92.2 220.44,-86.1"/>
</a>
</g>
<text text-anchor="middle" x="130" y="-213.75" font-family="Cascadia Code NF" font-size="10.00" fill="grey"> +kEndOfStrongFieldsOffset</text>
<text text-anchor="middle" x="130" y="-201" font-family="Cascadia Code NF" font-size="10.00" fill="grey">+kEndOfWeakFieldsOffset</text>
<text text-anchor="middle" x="130" y="-188.25" font-family="Cascadia Code NF" font-size="10.00" fill="grey">+kFuncRefOffset</text>
<text text-anchor="middle" x="130" y="-175.5" font-family="Cascadia Code NF" font-size="10.00" fill="grey">+kFuncRefOffsetEnd</text>
<text text-anchor="middle" x="130" y="-162.75" font-family="Cascadia Code NF" font-size="10.00" fill="grey">+kHeaderSize</text>
<text text-anchor="middle" x="130" y="-150" font-family="Cascadia Code NF" font-size="10.00" fill="grey">+kJsPromiseFlagsOffset</text>
<text text-anchor="middle" x="130" y="-137.25" font-family="Cascadia Code NF" font-size="10.00" fill="grey">+kJsPromiseFlagsOffsetEnd</text>
<text text-anchor="middle" x="130" y="-124.5" font-family="Cascadia Code NF" font-size="10.00" fill="grey">+kProtectedInternalOffset</text>
<text text-anchor="middle" x="130" y="-111.75" font-family="Cascadia Code NF" font-size="10.00" fill="grey">+kProtectedInternalOffsetEnd</text>
<text text-anchor="middle" x="130" y="-99" font-family="Cascadia Code NF" font-size="10.00" fill="grey">+kSize</text>
<text text-anchor="middle" x="130" y="-86.25" font-family="Cascadia Code NF" font-size="10.00" fill="grey">...</text>
</g>
</g>
</svg>
</svg>

<style type='text/css'>
<![CDATA[
[data-mouse-over-selected='false'] { opacity: 0.7; }
[data-mouse-over-selected='true']  { opacity: 1.0; }
]]>
</style>
<script type="application/ecmascript"><![CDATA[
document.addEventListener('DOMContentLoaded', (event) => {
  highlightEdges();
  highlightAdjacentNodes();
});
]]></script>
</svg>
