<?xml version="1.0" encoding="UTF-8" standalone="no"?>
<!DOCTYPE svg PUBLIC "-//W3C//DTD SVG 1.1//EN"
 "http://www.w3.org/Graphics/SVG/1.1/DTD/svg11.dtd">
<!-- Generated by graphviz version 11.0.0 (20240428.1522)
 -->
<!-- Title: v8::internal::ParserBase&lt; Impl &gt;::FunctionState::LoopScope Pages: 1 -->
<svg width="162pt" height="102pt"
 viewBox="0.00 0.00 162.00 102.00" xmlns="http://www.w3.org/2000/svg" xmlns:xlink="http://www.w3.org/1999/xlink">
<g id="graph0" class="graph" transform="scale(1 1) rotate(0) translate(4 98)">
<title>v8::internal::ParserBase&lt; Impl &gt;::FunctionState::LoopScope</title>
<!-- Node1 -->
<g id="Node000001" class="node">
<title>Node1</title>
<g id="a_Node000001"><a xlink:title=" ">
<polygon fill="#999999" stroke="none" points="154,-94 0,-94 0,0 154,0 154,-94"/>
<text text-anchor="start" x="5" y="-80.5" font-family="Cascadia Code NF" font-size="10.00">v8::internal::ParserBase</text>
<text text-anchor="start" x="5" y="-67.75" font-family="Cascadia Code NF" font-size="10.00">&lt; Impl &gt;::FunctionState</text>
<text text-anchor="start" x="44" y="-55" font-family="Cascadia Code NF" font-size="10.00">::LoopScope</text>
<text text-anchor="start" x="74" y="-38.5" font-family="Cascadia Code NF" font-size="10.00"> </text>
<text text-anchor="start" x="20" y="-22.5" font-family="Cascadia Code NF" font-size="10.00">+</text>
<text text-anchor="start" x="46" y="-22.5" font-family="Cascadia Code NF" font-size="10.00">LoopScope()</text>
<text text-anchor="start" x="20" y="-6.5" font-family="Cascadia Code NF" font-size="10.00">+</text>
<text text-anchor="start" x="46" y="-6.5" font-family="Cascadia Code NF" font-size="10.00">~LoopScope()</text>
<polygon fill="#666666" stroke="#666666" points="0,-50 0,-50 154,-50 154,-50 0,-50"/>
<polygon fill="#666666" stroke="#666666" points="0,-34 0,-34 154,-34 154,-34 0,-34"/>
<polygon fill="none" stroke="#666666" points="0,0 0,-94 154,-94 154,0 0,0"/>
</a>
</g>
</g>
</g>
</svg>
