<?xml version="1.0" encoding="UTF-8" standalone="no"?>
<!DOCTYPE svg PUBLIC "-//W3C//DTD SVG 1.1//EN"
 "http://www.w3.org/Graphics/SVG/1.1/DTD/svg11.dtd">
<!-- Generated by graphviz version 11.0.0 (20240428.1522)
 -->
<!-- Title: v8::internal::StackFrameIteratorBase Pages: 1 -->
<!--zoomable 332 -->

<svg id="main" version="1.1" xmlns="http://www.w3.org/2000/svg" xmlns:xlink="http://www.w3.org/1999/xlink" xml:space="preserve" onload="init(evt)">
<style type="text/css"><![CDATA[
.node, .edge {opacity: 0.7;}
.node.selected, .edge.selected {opacity: 1;}
.edge:hover path { stroke: red; }
.edge:hover polygon { stroke: red; fill: red; }
svg#main { background-color: #111; }
]]></style>

<defs>
  <circle id="rim" cx="0" cy="0" r="7"/>
  <circle id="rim2" cx="0" cy="0" r="3.5"/>
  <g id="zoomPlus">
    <use xlink:href="#rim" fill="#404040"><set attributeName="fill" to="#808080" begin="zoomplus.mouseover" end="zoomplus.mouseout"/></use>
    <path d="M-4,0h8M0,-4v8" fill="none" stroke="white" stroke-width="1.5" pointer-events="none"/>
  </g>
  <g id="zoomMin">
    <use xlink:href="#rim" fill="#404040"><set attributeName="fill" to="#808080" begin="zoomminus.mouseover" end="zoomminus.mouseout"/></use>
    <path d="M-4,0h8" fill="none" stroke="white" stroke-width="1.5" pointer-events="none"/>
  </g>
  <g id="arrowUp" transform="translate(30 24)">
    <use xlink:href="#rim"/>
    <path pointer-events="none" fill="none" stroke="white" stroke-width="1.5" d="M0,-3.0v7 M-2.5,-0.5L0,-3.0L2.5,-0.5"/>
  </g>
  <g id="arrowRight" transform="rotate(90) translate(36 -43)">
    <use xlink:href="#rim"/>
    <path pointer-events="none" fill="none" stroke="white" stroke-width="1.5" d="M0,-3.0v7 M-2.5,-0.5L0,-3.0L2.5,-0.5"/>
  </g>
  <g id="arrowDown" transform="rotate(180) translate(-30 -48)">
    <use xlink:href="#rim"/>
    <path pointer-events="none" fill="none" stroke="white" stroke-width="1.5" d="M0,-3.0v7 M-2.5,-0.5L0,-3.0L2.5,-0.5"/>
  </g>
  <g id="arrowLeft" transform="rotate(270) translate(-36 17)">
    <use xlink:href="#rim"/>
    <path pointer-events="none" fill="none" stroke="white" stroke-width="1.5" d="M0,-3.0v7 M-2.5,-0.5L0,-3.0L2.5,-0.5"/>
  </g>
  <g id="resetDef">
    <use xlink:href="#rim2" fill="#404040"><set attributeName="fill" to="#808080" begin="reset.mouseover" end="reset.mouseout"/></use>
  </g>
</defs>
<script type="application/ecmascript">
var viewWidth = 638;
var viewHeight = 332;
var sectionId = 'dynsection-0';
</script>
<script type="application/ecmascript" xlink:href="../../svg.min.js"/>
<svg id="graph" class="graph">
<g id="viewport">
<title>v8::internal::StackFrameIteratorBase</title>
<!-- Node1 -->
<g id="Node000001" class="node">
<title>Node1</title>
<g id="a_Node000001"><a xlink:title=" ">
<polygon fill="#999999" stroke="none" points="162,-278 0,-278 0,-21 162,-21 162,-278"/>
<text text-anchor="start" x="9" y="-264.5" font-family="Cascadia Code NF" font-size="10.00">v8::internal::StackFrame</text>
<text text-anchor="start" x="45" y="-251.75" font-family="Cascadia Code NF" font-size="10.00">IteratorBase</text>
<text text-anchor="start" x="4" y="-235.5" font-family="Cascadia Code NF" font-size="10.00">+</text>
<text text-anchor="start" x="14" y="-235.5" font-family="Cascadia Code NF" font-size="10.00">uninitialized_</text>
<text text-anchor="start" x="4" y="-219.5" font-family="Cascadia Code NF" font-size="10.00">#</text>
<text text-anchor="start" x="14" y="-219.5" font-family="Cascadia Code NF" font-size="10.00">isolate_</text>
<text text-anchor="start" x="4" y="-203.5" font-family="Cascadia Code NF" font-size="10.00">#</text>
<text text-anchor="start" x="14" y="-203.5" font-family="Cascadia Code NF" font-size="10.00">@75</text>
<text text-anchor="start" x="4" y="-187.5" font-family="Cascadia Code NF" font-size="10.00">#</text>
<text text-anchor="start" x="14" y="-187.5" font-family="Cascadia Code NF" font-size="10.00">frame_</text>
<text text-anchor="start" x="4" y="-171.5" font-family="Cascadia Code NF" font-size="10.00">#</text>
<text text-anchor="start" x="14" y="-171.5" font-family="Cascadia Code NF" font-size="10.00">handler_</text>
<text text-anchor="start" x="4" y="-155.5" font-family="Cascadia Code NF" font-size="10.00">+</text>
<text text-anchor="start" x="14" y="-155.5" font-family="Cascadia Code NF" font-size="10.00">StackFrameIteratorBase()</text>
<text text-anchor="start" x="4" y="-139.5" font-family="Cascadia Code NF" font-size="10.00">+</text>
<text text-anchor="start" x="14" y="-139.5" font-family="Cascadia Code NF" font-size="10.00">operator=()</text>
<text text-anchor="start" x="4" y="-123.5" font-family="Cascadia Code NF" font-size="10.00">+</text>
<text text-anchor="start" x="14" y="-123.5" font-family="Cascadia Code NF" font-size="10.00">isolate()</text>
<text text-anchor="start" x="4" y="-107.5" font-family="Cascadia Code NF" font-size="10.00">+</text>
<text text-anchor="start" x="14" y="-107.5" font-family="Cascadia Code NF" font-size="10.00">done()</text>
<text text-anchor="start" x="4" y="-91.5" font-family="Cascadia Code NF" font-size="10.00">+</text>
<text text-anchor="start" x="14" y="-91.5" font-family="Cascadia Code NF" font-size="10.00">ComputeStackFrameType()</text>
<text text-anchor="start" x="4" y="-75.5" font-family="Cascadia Code NF" font-size="10.00">#</text>
<text text-anchor="start" x="14" y="-75.5" font-family="Cascadia Code NF" font-size="10.00">StackFrameIteratorBase()</text>
<text text-anchor="start" x="4" y="-59.5" font-family="Cascadia Code NF" font-size="10.00">#</text>
<text text-anchor="start" x="14" y="-59.5" font-family="Cascadia Code NF" font-size="10.00">handler()</text>
<text text-anchor="start" x="4" y="-43.5" font-family="Cascadia Code NF" font-size="10.00">#</text>
<text text-anchor="start" x="14" y="-43.5" font-family="Cascadia Code NF" font-size="10.00">SetNewFrame()</text>
<text text-anchor="start" x="4" y="-27.5" font-family="Cascadia Code NF" font-size="10.00">#</text>
<text text-anchor="start" x="14" y="-27.5" font-family="Cascadia Code NF" font-size="10.00">SetNewFrame()</text>
<polygon fill="#666666" stroke="#666666" points="0,-247 0,-247 162,-247 162,-247 0,-247"/>
<polygon fill="#666666" stroke="#666666" points="0,-167 0,-167 12,-167 12,-167 0,-167"/>
<polygon fill="#666666" stroke="#666666" points="12,-167 12,-167 162,-167 162,-167 12,-167"/>
<polygon fill="none" stroke="#666666" points="0,-21 0,-278 162,-278 162,-21 0,-21"/>
</a>
</g>
</g>
<!-- Node2 -->
<g id="Node000002" class="node">
<title>Node2</title>
<g id="a_Node000002"><a xlink:href="../../df/d52/classv8_1_1internal_1_1StackFrameIterator.html" target="_top" xlink:title=" ">
<polygon fill="white" stroke="none" points="378,-324 222,-324 222,-147 378,-147 378,-324"/>
<text text-anchor="start" x="228" y="-310.5" font-family="Cascadia Code NF" font-size="10.00">v8::internal::StackFrame</text>
<text text-anchor="start" x="276" y="-297.75" font-family="Cascadia Code NF" font-size="10.00">Iterator</text>
<text text-anchor="start" x="297" y="-281.5" font-family="Cascadia Code NF" font-size="10.00"> </text>
<text text-anchor="start" x="226" y="-265.5" font-family="Cascadia Code NF" font-size="10.00">+</text>
<text text-anchor="start" x="236" y="-265.5" font-family="Cascadia Code NF" font-size="10.00">StackFrameIterator()</text>
<text text-anchor="start" x="226" y="-249.5" font-family="Cascadia Code NF" font-size="10.00">+</text>
<text text-anchor="start" x="236" y="-249.5" font-family="Cascadia Code NF" font-size="10.00">StackFrameIterator()</text>
<text text-anchor="start" x="226" y="-233.5" font-family="Cascadia Code NF" font-size="10.00">+</text>
<text text-anchor="start" x="236" y="-233.5" font-family="Cascadia Code NF" font-size="10.00">StackFrameIterator()</text>
<text text-anchor="start" x="226" y="-217.5" font-family="Cascadia Code NF" font-size="10.00">+</text>
<text text-anchor="start" x="236" y="-217.5" font-family="Cascadia Code NF" font-size="10.00">operator=()</text>
<text text-anchor="start" x="226" y="-201.5" font-family="Cascadia Code NF" font-size="10.00">+</text>
<text text-anchor="start" x="236" y="-201.5" font-family="Cascadia Code NF" font-size="10.00">frame()</text>
<text text-anchor="start" x="226" y="-185.5" font-family="Cascadia Code NF" font-size="10.00">+</text>
<text text-anchor="start" x="236" y="-185.5" font-family="Cascadia Code NF" font-size="10.00">Advance()</text>
<text text-anchor="start" x="226" y="-169.5" font-family="Cascadia Code NF" font-size="10.00">+</text>
<text text-anchor="start" x="236" y="-169.5" font-family="Cascadia Code NF" font-size="10.00">Reframe()</text>
<text text-anchor="start" x="226" y="-153.5" font-family="Cascadia Code NF" font-size="10.00">+</text>
<text text-anchor="start" x="236" y="-153.5" font-family="Cascadia Code NF" font-size="10.00">ComputeStackFrameType()</text>
<polygon fill="#bfbfbf" stroke="#bfbfbf" points="222,-293 222,-293 378,-293 378,-293 222,-293"/>
<polygon fill="#bfbfbf" stroke="#bfbfbf" points="222,-277 222,-277 378,-277 378,-277 222,-277"/>
<polygon fill="none" stroke="#bfbfbf" points="222,-147 222,-324 378,-324 378,-147 222,-147"/>
</a>
</g>
</g>
<!-- Node1&#45;&gt;Node2 -->
<g id="edge1_Node000001_Node000002" class="edge">
<title>Node1&#45;&gt;Node2</title>
<g id="a_edge1_Node000001_Node000002"><a xlink:title=" ">
<path fill="none" stroke="#63b8ff" d="M172.14,-185.22C188.77,-191.81 205.99,-198.64 222.18,-205.06"/>
<polygon fill="none" stroke="#63b8ff" points="173.87,-182.15 163.29,-181.71 171.29,-188.65 173.87,-182.15"/>
</a>
</g>
</g>
<!-- Node3 -->
<g id="Node000003" class="node">
<title>Node3</title>
<g id="a_Node000003"><a xlink:href="../../d2/d2c/classv8_1_1internal_1_1StackFrameIteratorForProfiler.html" target="_top" xlink:title=" ">
<polygon fill="white" stroke="none" points="402,-129 198,-129 198,0 402,0 402,-129"/>
<text text-anchor="start" x="228" y="-115.5" font-family="Cascadia Code NF" font-size="10.00">v8::internal::StackFrame</text>
<text text-anchor="start" x="243" y="-102.75" font-family="Cascadia Code NF" font-size="10.00">IteratorForProfiler</text>
<text text-anchor="start" x="297" y="-86.5" font-family="Cascadia Code NF" font-size="10.00"> </text>
<text text-anchor="start" x="202" y="-70.5" font-family="Cascadia Code NF" font-size="10.00">+</text>
<text text-anchor="start" x="212" y="-70.5" font-family="Cascadia Code NF" font-size="10.00">StackFrameIteratorForProfiler()</text>
<text text-anchor="start" x="202" y="-54.5" font-family="Cascadia Code NF" font-size="10.00">+</text>
<text text-anchor="start" x="212" y="-54.5" font-family="Cascadia Code NF" font-size="10.00">frame()</text>
<text text-anchor="start" x="202" y="-38.5" font-family="Cascadia Code NF" font-size="10.00">+</text>
<text text-anchor="start" x="212" y="-38.5" font-family="Cascadia Code NF" font-size="10.00">Advance()</text>
<text text-anchor="start" x="202" y="-22.5" font-family="Cascadia Code NF" font-size="10.00">+</text>
<text text-anchor="start" x="212" y="-22.5" font-family="Cascadia Code NF" font-size="10.00">top_frame_type()</text>
<text text-anchor="start" x="202" y="-6.5" font-family="Cascadia Code NF" font-size="10.00">+</text>
<text text-anchor="start" x="212" y="-6.5" font-family="Cascadia Code NF" font-size="10.00">ComputeStackFrameType()</text>
<polygon fill="#bfbfbf" stroke="#bfbfbf" points="198,-98 198,-98 402,-98 402,-98 198,-98"/>
<polygon fill="#bfbfbf" stroke="#bfbfbf" points="198,-82 198,-82 402,-82 402,-82 198,-82"/>
<polygon fill="none" stroke="#bfbfbf" points="198,0 198,-129 402,-129 402,0 198,0"/>
</a>
</g>
</g>
<!-- Node1&#45;&gt;Node3 -->
<g id="edge2_Node000001_Node000003" class="edge">
<title>Node1&#45;&gt;Node3</title>
<g id="a_edge2_Node000001_Node000003"><a xlink:title=" ">
<path fill="none" stroke="#63b8ff" d="M172.54,-114.04C181.03,-110.71 189.68,-107.32 198.26,-103.96"/>
<polygon fill="none" stroke="#63b8ff" points="171.32,-110.75 163.29,-117.66 173.88,-117.27 171.32,-110.75"/>
</a>
</g>
</g>
<!-- Node4 -->
<g id="Node000004" class="node">
<title>Node4</title>
<g id="a_Node000004"><a xlink:href="../../d2/dfc/classv8_1_1internal_1_1StackFrameIteratorForProfilerForTesting.html" target="_top" xlink:title=" ">
<polygon fill="white" stroke="none" points="630,-111.5 438,-111.5 438,-17.5 630,-17.5 630,-111.5"/>
<text text-anchor="start" x="447" y="-98" font-family="Cascadia Code NF" font-size="10.00">v8::internal::StackFrame</text>
<text text-anchor="start" x="447" y="-85.25" font-family="Cascadia Code NF" font-size="10.00">IteratorForProfilerForTesting</text>
<text text-anchor="start" x="531" y="-69" font-family="Cascadia Code NF" font-size="10.00"> </text>
<text text-anchor="start" x="442" y="-53" font-family="Cascadia Code NF" font-size="10.00">+</text>
<text text-anchor="start" x="452" y="-53" font-family="Cascadia Code NF" font-size="10.00">StackFrameIteratorForProfiler</text>
<text text-anchor="start" x="452" y="-40.25" font-family="Cascadia Code NF" font-size="10.00">ForTesting()</text>
<text text-anchor="start" x="442" y="-24" font-family="Cascadia Code NF" font-size="10.00">+</text>
<text text-anchor="start" x="452" y="-24" font-family="Cascadia Code NF" font-size="10.00">Advance()</text>
<polygon fill="#bfbfbf" stroke="#bfbfbf" points="438,-80.5 438,-80.5 630,-80.5 630,-80.5 438,-80.5"/>
<polygon fill="#bfbfbf" stroke="#bfbfbf" points="438,-64.5 438,-64.5 630,-64.5 630,-64.5 438,-64.5"/>
<polygon fill="none" stroke="#bfbfbf" points="438,-17.5 438,-111.5 630,-111.5 630,-17.5 438,-17.5"/>
</a>
</g>
</g>
<!-- Node3&#45;&gt;Node4 -->
<g id="edge3_Node000003_Node000004" class="edge">
<title>Node3&#45;&gt;Node4</title>
<g id="a_edge3_Node000003_Node000004"><a xlink:title=" ">
<path fill="none" stroke="#63b8ff" d="M413.15,-64.5C421.53,-64.5 429.94,-64.5 438.2,-64.5"/>
<polygon fill="none" stroke="#63b8ff" points="413.26,-61 403.26,-64.5 413.26,-68 413.26,-61"/>
</a>
</g>
</g>
</g>
</svg>

<g id="navigator" transform="translate(0 0)" fill="#404254">
  <rect fill="#f2f5e9" fill-opacity="0.5" stroke="#606060" stroke-width=".5" x="0" y="0" width="60" height="60"/>
  <use id="zoomplus" xlink:href="#zoomPlus" x="17" y="9" onmousedown="handleZoom(evt,'in')"/>
  <use id="zoomminus" xlink:href="#zoomMin" x="42" y="9" onmousedown="handleZoom(evt,'out')"/>
  <use id="reset" xlink:href="#resetDef" x="30" y="36" onmousedown="handleReset()"/>
   <use id="arrowup" xlink:href="#arrowUp" x="0" y="0" onmousedown="handlePan(0,-1)"/>
  <use id="arrowright" xlink:href="#arrowRight" x="0" y="0" onmousedown="handlePan(1,0)"/>
  <use id="arrowdown" xlink:href="#arrowDown" x="0" y="0" onmousedown="handlePan(0,1)"/>
  <use id="arrowleft" xlink:href="#arrowLeft" x="0" y="0" onmousedown="handlePan(-1,0)"/>
</g>
<svg viewBox="0 0 15 15" width="100%" height="30px" preserveAspectRatio="xMaxYMin meet">
 <g id="arrow_out" transform="scale(0.3 0.3)">
  <a xlink:href="classv8_1_1internal_1_1StackFrameIteratorBase__inherit__graph_org.svg" target="_base">
   <rect id="button" ry="5" rx="5" y="6" x="6" height="38" width="38"
        fill="#f2f5e9" fill-opacity="0.5" stroke="#606060" stroke-width="1.0"/>
   <path id="arrow"
     d="M 11.500037,31.436501 C 11.940474,20.09759 22.043105,11.32322 32.158766,21.979434 L 37.068811,17.246167 C 37.068811,17.246167 37.088388,32 37.088388,32 L 22.160133,31.978069 C 22.160133,31.978069 26.997745,27.140456 26.997745,27.140456 C 18.528582,18.264221 13.291696,25.230495 11.500037,31.436501 z"
     style="fill:#404040;"/>
  </a>
 </g>
</svg>

<style type='text/css'>
<![CDATA[
[data-mouse-over-selected='false'] { opacity: 0.7; }
[data-mouse-over-selected='true']  { opacity: 1.0; }
]]>
</style>
<script type="application/ecmascript"><![CDATA[
document.addEventListener('DOMContentLoaded', (event) => {
  highlightEdges();
  highlightAdjacentNodes();
});
]]></script>
</svg>
