<?xml version="1.0" encoding="UTF-8" standalone="no"?>
<!DOCTYPE svg PUBLIC "-//W3C//DTD SVG 1.1//EN"
 "http://www.w3.org/Graphics/SVG/1.1/DTD/svg11.dtd">
<!-- Generated by graphviz version 11.0.0 (20240428.1522)
 -->
<!-- Title: v8::internal::RegExpGroup Pages: 1 -->
<svg width="548pt" height="220pt"
 viewBox="0.00 0.00 548.00 220.00" xmlns="http://www.w3.org/2000/svg" xmlns:xlink="http://www.w3.org/1999/xlink">
<g id="graph0" class="graph" transform="scale(1 1) rotate(0) translate(4 216)">
<title>v8::internal::RegExpGroup</title>
<!-- Node1 -->
<g id="Node000001" class="node">
<title>Node1</title>
<g id="a_Node000001"><a xlink:title=" ">
<polygon fill="#999999" stroke="none" points="540,-196 380,-196 380,-16 540,-16 540,-196"/>
<text text-anchor="start" x="385" y="-182.5" font-family="Cascadia Code NF" font-size="10.00">v8::internal::RegExpGroup</text>
<text text-anchor="start" x="457" y="-166.5" font-family="Cascadia Code NF" font-size="10.00"> </text>
<text text-anchor="start" x="391" y="-150.5" font-family="Cascadia Code NF" font-size="10.00">+</text>
<text text-anchor="start" x="408" y="-150.5" font-family="Cascadia Code NF" font-size="10.00">RegExpGroup()</text>
<text text-anchor="start" x="391" y="-134.5" font-family="Cascadia Code NF" font-size="10.00">+</text>
<text text-anchor="start" x="408" y="-134.5" font-family="Cascadia Code NF" font-size="10.00">DECL_BOILERPLATE()</text>
<text text-anchor="start" x="391" y="-118.5" font-family="Cascadia Code NF" font-size="10.00">+</text>
<text text-anchor="start" x="408" y="-118.5" font-family="Cascadia Code NF" font-size="10.00">IsAnchoredAtStart()</text>
<text text-anchor="start" x="391" y="-102.5" font-family="Cascadia Code NF" font-size="10.00">+</text>
<text text-anchor="start" x="408" y="-102.5" font-family="Cascadia Code NF" font-size="10.00">IsAnchoredAtEnd()</text>
<text text-anchor="start" x="391" y="-86.5" font-family="Cascadia Code NF" font-size="10.00">+</text>
<text text-anchor="start" x="408" y="-86.5" font-family="Cascadia Code NF" font-size="10.00">min_match()</text>
<text text-anchor="start" x="391" y="-70.5" font-family="Cascadia Code NF" font-size="10.00">+</text>
<text text-anchor="start" x="408" y="-70.5" font-family="Cascadia Code NF" font-size="10.00">max_match()</text>
<text text-anchor="start" x="391" y="-54.5" font-family="Cascadia Code NF" font-size="10.00">+</text>
<text text-anchor="start" x="408" y="-54.5" font-family="Cascadia Code NF" font-size="10.00">CaptureRegisters()</text>
<text text-anchor="start" x="391" y="-38.5" font-family="Cascadia Code NF" font-size="10.00">+</text>
<text text-anchor="start" x="408" y="-38.5" font-family="Cascadia Code NF" font-size="10.00">body()</text>
<text text-anchor="start" x="391" y="-22.5" font-family="Cascadia Code NF" font-size="10.00">+</text>
<text text-anchor="start" x="408" y="-22.5" font-family="Cascadia Code NF" font-size="10.00">flags()</text>
<polygon fill="#666666" stroke="#666666" points="380,-178 380,-178 540,-178 540,-178 380,-178"/>
<polygon fill="#666666" stroke="#666666" points="380,-162 380,-162 540,-162 540,-162 380,-162"/>
<polygon fill="none" stroke="#666666" points="380,-16 380,-196 540,-196 540,-16 380,-16"/>
</a>
</g>
</g>
<!-- Node2 -->
<g id="Node000002" class="node">
<title>Node2</title>
<g id="a_Node000002"><a xlink:href="$d8/d20/classv8_1_1internal_1_1RegExpTree.html" xlink:title=" ">
<polygon fill="white" stroke="none" points="344,-212 190,-212 190,0 344,0 344,-212"/>
<text text-anchor="start" x="195" y="-198.5" font-family="Cascadia Code NF" font-size="10.00">v8::internal::RegExpTree</text>
<text text-anchor="start" x="199.5" y="-182.5" font-family="Cascadia Code NF" font-size="10.00">+</text>
<text text-anchor="start" x="215" y="-182.5" font-family="Cascadia Code NF" font-size="10.00">kInfinity</text>
<text text-anchor="start" x="199.5" y="-166.5" font-family="Cascadia Code NF" font-size="10.00">+</text>
<text text-anchor="start" x="215" y="-166.5" font-family="Cascadia Code NF" font-size="10.00">~RegExpTree()</text>
<text text-anchor="start" x="199.5" y="-150.5" font-family="Cascadia Code NF" font-size="10.00">+</text>
<text text-anchor="start" x="215" y="-150.5" font-family="Cascadia Code NF" font-size="10.00">Accept()</text>
<text text-anchor="start" x="199.5" y="-134.5" font-family="Cascadia Code NF" font-size="10.00">+</text>
<text text-anchor="start" x="215" y="-134.5" font-family="Cascadia Code NF" font-size="10.00">ToNode()</text>
<text text-anchor="start" x="199.5" y="-118.5" font-family="Cascadia Code NF" font-size="10.00">+</text>
<text text-anchor="start" x="215" y="-118.5" font-family="Cascadia Code NF" font-size="10.00">IsTextElement()</text>
<text text-anchor="start" x="199.5" y="-102.5" font-family="Cascadia Code NF" font-size="10.00">+</text>
<text text-anchor="start" x="215" y="-102.5" font-family="Cascadia Code NF" font-size="10.00">IsAnchoredAtStart()</text>
<text text-anchor="start" x="199.5" y="-86.5" font-family="Cascadia Code NF" font-size="10.00">+</text>
<text text-anchor="start" x="215" y="-86.5" font-family="Cascadia Code NF" font-size="10.00">IsAnchoredAtEnd()</text>
<text text-anchor="start" x="199.5" y="-70.5" font-family="Cascadia Code NF" font-size="10.00">+</text>
<text text-anchor="start" x="215" y="-70.5" font-family="Cascadia Code NF" font-size="10.00">min_match()</text>
<text text-anchor="start" x="199.5" y="-54.5" font-family="Cascadia Code NF" font-size="10.00">+</text>
<text text-anchor="start" x="215" y="-54.5" font-family="Cascadia Code NF" font-size="10.00">max_match()</text>
<text text-anchor="start" x="199.5" y="-38.5" font-family="Cascadia Code NF" font-size="10.00">+</text>
<text text-anchor="start" x="215" y="-38.5" font-family="Cascadia Code NF" font-size="10.00">CaptureRegisters()</text>
<text text-anchor="start" x="199.5" y="-22.5" font-family="Cascadia Code NF" font-size="10.00">+</text>
<text text-anchor="start" x="215" y="-22.5" font-family="Cascadia Code NF" font-size="10.00">AppendToText()</text>
<text text-anchor="start" x="199.5" y="-6.5" font-family="Cascadia Code NF" font-size="10.00">+</text>
<text text-anchor="start" x="215" y="-6.5" font-family="Cascadia Code NF" font-size="10.00">Print()</text>
<polygon fill="#bfbfbf" stroke="#bfbfbf" points="190,-194 190,-194 344,-194 344,-194 190,-194"/>
<polygon fill="#bfbfbf" stroke="#bfbfbf" points="190,-178 190,-178 213,-178 213,-178 190,-178"/>
<polygon fill="#bfbfbf" stroke="#bfbfbf" points="213,-178 213,-178 344,-178 344,-178 213,-178"/>
<polygon fill="none" stroke="#bfbfbf" points="190,0 190,-212 344,-212 344,0 190,0"/>
</a>
</g>
</g>
<!-- Node2&#45;&gt;Node1 -->
<g id="edge1_Node000001_Node000002" class="edge">
<title>Node2&#45;&gt;Node1</title>
<g id="a_edge1_Node000001_Node000002"><a xlink:title=" ">
<path fill="none" stroke="#63b8ff" d="M355.09,-106C363.46,-106 371.91,-106 380.2,-106"/>
<polygon fill="none" stroke="#63b8ff" points="355.28,-102.5 345.28,-106 355.28,-109.5 355.28,-102.5"/>
</a>
</g>
</g>
<!-- Node3 -->
<g id="Node000003" class="node">
<title>Node3</title>
<g id="a_Node000003"><a xlink:href="$dc/dca/classv8_1_1internal_1_1ZoneObject.html" xlink:title=" ">
<polygon fill="white" stroke="none" points="154,-156 0,-156 0,-56 154,-56 154,-156"/>
<text text-anchor="start" x="5" y="-142.5" font-family="Cascadia Code NF" font-size="10.00">v8::internal::ZoneObject</text>
<text text-anchor="start" x="74" y="-126.5" font-family="Cascadia Code NF" font-size="10.00"> </text>
<text text-anchor="start" x="12.5" y="-110.5" font-family="Cascadia Code NF" font-size="10.00">+</text>
<text text-anchor="start" x="31" y="-110.5" font-family="Cascadia Code NF" font-size="10.00">operator new()</text>
<text text-anchor="start" x="12.5" y="-94.5" font-family="Cascadia Code NF" font-size="10.00">+</text>
<text text-anchor="start" x="31" y="-94.5" font-family="Cascadia Code NF" font-size="10.00">operator new()</text>
<text text-anchor="start" x="12.5" y="-78.5" font-family="Cascadia Code NF" font-size="10.00">+</text>
<text text-anchor="start" x="31" y="-78.5" font-family="Cascadia Code NF" font-size="10.00">operator delete()</text>
<text text-anchor="start" x="12.5" y="-62.5" font-family="Cascadia Code NF" font-size="10.00">+</text>
<text text-anchor="start" x="31" y="-62.5" font-family="Cascadia Code NF" font-size="10.00">operator delete()</text>
<polygon fill="#bfbfbf" stroke="#bfbfbf" points="0,-138 0,-138 154,-138 154,-138 0,-138"/>
<polygon fill="#bfbfbf" stroke="#bfbfbf" points="0,-122 0,-122 154,-122 154,-122 0,-122"/>
<polygon fill="none" stroke="#bfbfbf" points="0,-56 0,-156 154,-156 154,-56 0,-56"/>
</a>
</g>
</g>
<!-- Node3&#45;&gt;Node2 -->
<g id="edge2_Node000002_Node000003" class="edge">
<title>Node3&#45;&gt;Node2</title>
<g id="a_edge2_Node000002_Node000003"><a xlink:title=" ">
<path fill="none" stroke="#63b8ff" d="M165.2,-106C173.51,-106 181.9,-106 190.1,-106"/>
<polygon fill="none" stroke="#63b8ff" points="165.44,-102.5 155.44,-106 165.44,-109.5 165.44,-102.5"/>
</a>
</g>
</g>
</g>
</svg>
