<?xml version="1.0" encoding="UTF-8" standalone="no"?>
<!DOCTYPE svg PUBLIC "-//W3C//DTD SVG 1.1//EN"
 "http://www.w3.org/Graphics/SVG/1.1/DTD/svg11.dtd">
<!-- Generated by graphviz version 11.0.0 (20240428.1522)
 -->
<!-- Title: v8::internal::compiler::TypedObjectStateInfo Pages: 1 -->
<svg width="454pt" height="130pt"
 viewBox="0.00 0.00 454.00 130.00" xmlns="http://www.w3.org/2000/svg" xmlns:xlink="http://www.w3.org/1999/xlink">
<g id="graph0" class="graph" transform="scale(1 1) rotate(0) translate(4 126)">
<title>v8::internal::compiler::TypedObjectStateInfo</title>
<!-- Node1 -->
<g id="Node000001" class="node">
<title>Node1</title>
<g id="a_Node000001"><a xlink:title=" ">
<polygon fill="#999999" stroke="none" points="446,-109.5 296,-109.5 296,-12.5 446,-12.5 446,-109.5"/>
<text text-anchor="start" x="305" y="-96" font-family="Cascadia Code NF" font-size="10.00">v8::internal::compiler</text>
<text text-anchor="start" x="305" y="-83.25" font-family="Cascadia Code NF" font-size="10.00">::TypedObjectStateInfo</text>
<text text-anchor="start" x="368" y="-67" font-family="Cascadia Code NF" font-size="10.00"> </text>
<text text-anchor="start" x="300" y="-51" font-family="Cascadia Code NF" font-size="10.00">+</text>
<text text-anchor="start" x="310" y="-51" font-family="Cascadia Code NF" font-size="10.00">TypedObjectStateInfo()</text>
<text text-anchor="start" x="300" y="-35" font-family="Cascadia Code NF" font-size="10.00">+</text>
<text text-anchor="start" x="310" y="-35" font-family="Cascadia Code NF" font-size="10.00">object_id()</text>
<text text-anchor="start" x="300" y="-19" font-family="Cascadia Code NF" font-size="10.00">+</text>
<text text-anchor="start" x="310" y="-19" font-family="Cascadia Code NF" font-size="10.00">machine_types()</text>
<polygon fill="#666666" stroke="#666666" points="296,-78.5 296,-78.5 446,-78.5 446,-78.5 296,-78.5"/>
<polygon fill="#666666" stroke="#666666" points="296,-62.5 296,-62.5 446,-62.5 446,-62.5 296,-62.5"/>
<polygon fill="none" stroke="#666666" points="296,-12.5 296,-109.5 446,-109.5 446,-12.5 296,-12.5"/>
</a>
</g>
</g>
<!-- Node2 -->
<g id="Node000002" class="node">
<title>Node2</title>
<g id="a_Node000002"><a xlink:title=" ">
<polygon fill="white" stroke="none" points="260,-87 136,-87 136,-35 260,-35 260,-87"/>
<text text-anchor="start" x="141" y="-73.5" font-family="Cascadia Code NF" font-size="10.00">std::pair&lt; T1, T2 &gt;</text>
<text text-anchor="start" x="195" y="-57.5" font-family="Cascadia Code NF" font-size="10.00"> </text>
<text text-anchor="start" x="195" y="-41.5" font-family="Cascadia Code NF" font-size="10.00"> </text>
<polygon fill="#666666" stroke="#666666" points="136,-69 136,-69 260,-69 260,-69 136,-69"/>
<polygon fill="#666666" stroke="#666666" points="136,-53 136,-53 260,-53 260,-53 136,-53"/>
<polygon fill="none" stroke="#666666" points="136,-35 136,-87 260,-87 260,-35 136,-35"/>
</a>
</g>
</g>
<!-- Node2&#45;&gt;Node1 -->
<g id="edge1_Node000001_Node000002" class="edge">
<title>Node2&#45;&gt;Node1</title>
<g id="a_edge1_Node000001_Node000002"><a xlink:title=" ">
<path fill="none" stroke="#63b8ff" d="M271.01,-61C279.36,-61 287.88,-61 296.25,-61"/>
<polygon fill="none" stroke="#63b8ff" points="271.28,-57.5 261.28,-61 271.28,-64.5 271.28,-57.5"/>
</a>
</g>
</g>
<!-- Node3 -->
<g id="Node000003" class="node">
<title>Node3</title>
<g id="a_Node000003"><a xlink:title=" ">
<polygon fill="white" stroke="none" points="22,-122 0,-122 0,-70 22,-70 22,-122"/>
<text text-anchor="start" x="5" y="-108.5" font-family="Cascadia Code NF" font-size="10.00">T1</text>
<text text-anchor="start" x="8" y="-92.5" font-family="Cascadia Code NF" font-size="10.00"> </text>
<text text-anchor="start" x="8" y="-76.5" font-family="Cascadia Code NF" font-size="10.00"> </text>
<polygon fill="#bfbfbf" stroke="#bfbfbf" points="0,-104 0,-104 22,-104 22,-104 0,-104"/>
<polygon fill="#bfbfbf" stroke="#bfbfbf" points="0,-88 0,-88 22,-88 22,-88 0,-88"/>
<polygon fill="none" stroke="#bfbfbf" points="0,-70 0,-122 22,-122 22,-70 0,-70"/>
</a>
</g>
</g>
<!-- Node3&#45;&gt;Node2 -->
<g id="edge2_Node000002_Node000003" class="edge">
<title>Node3&#45;&gt;Node2</title>
<g id="a_edge2_Node000002_Node000003"><a xlink:title=" ">
<path fill="none" stroke="#63b8ff" d="M21.95,-94.12C41.07,-90.5 84.52,-82.28 123.34,-74.94"/>
<polygon fill="none" stroke="#63b8ff" points="123.34,-74.94 128.49,-69.89 135.13,-72.71 129.98,-77.75 123.34,-74.94"/>
</a>
</g>
<text text-anchor="middle" x="79" y="-93.25" font-family="Cascadia Code NF" font-size="10.00" fill="grey"> +first_type</text>
</g>
<!-- Node4 -->
<g id="Node000004" class="node">
<title>Node4</title>
<g id="a_Node000004"><a xlink:title=" ">
<polygon fill="white" stroke="none" points="22,-52 0,-52 0,0 22,0 22,-52"/>
<text text-anchor="start" x="5" y="-38.5" font-family="Cascadia Code NF" font-size="10.00">T2</text>
<text text-anchor="start" x="8" y="-22.5" font-family="Cascadia Code NF" font-size="10.00"> </text>
<text text-anchor="start" x="8" y="-6.5" font-family="Cascadia Code NF" font-size="10.00"> </text>
<polygon fill="#bfbfbf" stroke="#bfbfbf" points="0,-34 0,-34 22,-34 22,-34 0,-34"/>
<polygon fill="#bfbfbf" stroke="#bfbfbf" points="0,-18 0,-18 22,-18 22,-18 0,-18"/>
<polygon fill="none" stroke="#bfbfbf" points="0,0 0,-52 22,-52 22,0 0,0"/>
</a>
</g>
</g>
<!-- Node4&#45;&gt;Node2 -->
<g id="edge3_Node000002_Node000004" class="edge">
<title>Node4&#45;&gt;Node2</title>
<g id="a_edge3_Node000002_Node000004"><a xlink:title=" ">
<path fill="none" stroke="#63b8ff" d="M21.95,-27.88C41.07,-31.5 84.52,-39.72 123.34,-47.06"/>
<polygon fill="none" stroke="#63b8ff" points="123.34,-47.06 129.98,-44.25 135.13,-49.29 128.49,-52.11 123.34,-47.06"/>
</a>
</g>
<text text-anchor="middle" x="79" y="-48.25" font-family="Cascadia Code NF" font-size="10.00" fill="grey"> +second_type</text>
</g>
</g>
</svg>
