<?xml version="1.0" encoding="UTF-8" standalone="no"?>
<!DOCTYPE svg PUBLIC "-//W3C//DTD SVG 1.1//EN"
 "http://www.w3.org/Graphics/SVG/1.1/DTD/svg11.dtd">
<!-- Generated by graphviz version 11.0.0 (20240428.1522)
 -->
<!-- Title: v8::JSEntryStubs Pages: 1 -->
<svg width="726pt" height="133pt"
 viewBox="0.00 0.00 726.00 132.75" xmlns="http://www.w3.org/2000/svg" xmlns:xlink="http://www.w3.org/1999/xlink">
<g id="graph0" class="graph" transform="scale(1 1) rotate(0) translate(4 128.75)">
<title>v8::JSEntryStubs</title>
<!-- Node1 -->
<g id="Node000001" class="node">
<title>Node1</title>
<g id="a_Node000001"><a xlink:title=" ">
<polygon fill="#999999" stroke="none" points="718,-87 612,-87 612,-35 718,-35 718,-87"/>
<text text-anchor="start" x="617" y="-73.5" font-family="Cascadia Code NF" font-size="10.00">v8::JSEntryStubs</text>
<text text-anchor="start" x="662" y="-57.5" font-family="Cascadia Code NF" font-size="10.00"> </text>
<text text-anchor="start" x="662" y="-41.5" font-family="Cascadia Code NF" font-size="10.00"> </text>
<polygon fill="#666666" stroke="#666666" points="612,-69 612,-69 718,-69 718,-69 612,-69"/>
<polygon fill="#666666" stroke="#666666" points="612,-53 612,-53 718,-53 718,-53 612,-53"/>
<polygon fill="none" stroke="#666666" points="612,-35 612,-87 718,-87 718,-35 612,-35"/>
</a>
</g>
</g>
<!-- Node2 -->
<g id="Node000002" class="node">
<title>Node2</title>
<g id="a_Node000002"><a xlink:href="$df/d73/structv8_1_1JSEntryStub.html" xlink:title=" ">
<polygon fill="white" stroke="none" points="456,-87 356,-87 356,-35 456,-35 456,-87"/>
<text text-anchor="start" x="361" y="-73.5" font-family="Cascadia Code NF" font-size="10.00">v8::JSEntryStub</text>
<text text-anchor="start" x="403" y="-57.5" font-family="Cascadia Code NF" font-size="10.00"> </text>
<text text-anchor="start" x="403" y="-41.5" font-family="Cascadia Code NF" font-size="10.00"> </text>
<polygon fill="#bfbfbf" stroke="#bfbfbf" points="356,-69 356,-69 456,-69 456,-69 356,-69"/>
<polygon fill="#bfbfbf" stroke="#bfbfbf" points="356,-53 356,-53 456,-53 456,-53 356,-53"/>
<polygon fill="none" stroke="#bfbfbf" points="356,-35 356,-87 456,-87 456,-35 356,-35"/>
</a>
</g>
</g>
<!-- Node2&#45;&gt;Node1 -->
<g id="edge1_Node000001_Node000002" class="edge">
<title>Node2&#45;&gt;Node1</title>
<g id="a_edge1_Node000001_Node000002"><a xlink:title=" ">
<path fill="none" stroke="#63b8ff" d="M455.94,-61C496.55,-61 554.63,-61 599.11,-61"/>
<polygon fill="none" stroke="#63b8ff" points="599.25,-61 605.25,-57 611.25,-61 605.25,-65 599.25,-61"/>
</a>
</g>
<text text-anchor="start" x="474" y="-115.25" font-family="Cascadia Code NF" font-size="10.00" fill="grey"> +js_construct_entry</text>
<text text-anchor="middle" x="534" y="-102.5" font-family="Cascadia Code NF" font-size="10.00" fill="grey">_stub</text>
<text text-anchor="middle" x="534" y="-89.75" font-family="Cascadia Code NF" font-size="10.00" fill="grey">+js_entry_stub</text>
<text text-anchor="start" x="474" y="-77" font-family="Cascadia Code NF" font-size="10.00" fill="grey">+js_run_microtasks</text>
<text text-anchor="middle" x="534" y="-64.25" font-family="Cascadia Code NF" font-size="10.00" fill="grey">_entry_stub</text>
</g>
<!-- Node3 -->
<g id="Node000003" class="node">
<title>Node3</title>
<g id="a_Node000003"><a xlink:href="$dc/d5d/structv8_1_1MemoryRange.html" xlink:title=" ">
<polygon fill="white" stroke="none" points="284,-87 184,-87 184,-35 284,-35 284,-87"/>
<text text-anchor="start" x="189" y="-73.5" font-family="Cascadia Code NF" font-size="10.00">v8::MemoryRange</text>
<text text-anchor="start" x="231" y="-57.5" font-family="Cascadia Code NF" font-size="10.00"> </text>
<text text-anchor="start" x="231" y="-41.5" font-family="Cascadia Code NF" font-size="10.00"> </text>
<polygon fill="#bfbfbf" stroke="#bfbfbf" points="184,-69 184,-69 284,-69 284,-69 184,-69"/>
<polygon fill="#bfbfbf" stroke="#bfbfbf" points="184,-53 184,-53 284,-53 284,-53 184,-53"/>
<polygon fill="none" stroke="#bfbfbf" points="184,-35 184,-87 284,-87 284,-35 184,-35"/>
</a>
</g>
</g>
<!-- Node3&#45;&gt;Node2 -->
<g id="edge2_Node000002_Node000003" class="edge">
<title>Node3&#45;&gt;Node2</title>
<g id="a_edge2_Node000002_Node000003"><a xlink:title=" ">
<path fill="none" stroke="#63b8ff" d="M283.72,-61C302.3,-61 323.73,-61 343.36,-61"/>
<polygon fill="none" stroke="#63b8ff" points="343.38,-61 349.38,-57 355.38,-61 349.38,-65 343.38,-61"/>
</a>
</g>
<text text-anchor="middle" x="320" y="-64.25" font-family="Cascadia Code NF" font-size="10.00" fill="grey"> +code</text>
</g>
<!-- Node4 -->
<g id="Node000004" class="node">
<title>Node4</title>
<g id="a_Node000004"><a xlink:title=" ">
<polygon fill="white" stroke="none" points="43,-122 3,-122 3,-70 43,-70 43,-122"/>
<text text-anchor="start" x="8" y="-108.5" font-family="Cascadia Code NF" font-size="10.00">const</text>
<text text-anchor="start" x="20" y="-92.5" font-family="Cascadia Code NF" font-size="10.00"> </text>
<text text-anchor="start" x="20" y="-76.5" font-family="Cascadia Code NF" font-size="10.00"> </text>
<polygon fill="#bfbfbf" stroke="#bfbfbf" points="3,-104 3,-104 43,-104 43,-104 3,-104"/>
<polygon fill="#bfbfbf" stroke="#bfbfbf" points="3,-88 3,-88 43,-88 43,-88 3,-88"/>
<polygon fill="none" stroke="#bfbfbf" points="3,-70 3,-122 43,-122 43,-70 3,-70"/>
</a>
</g>
</g>
<!-- Node4&#45;&gt;Node3 -->
<g id="edge3_Node000003_Node000004" class="edge">
<title>Node4&#45;&gt;Node3</title>
<g id="a_edge3_Node000003_Node000004"><a xlink:title=" ">
<path fill="none" stroke="#63b8ff" d="M42.92,-92.83C71.66,-88.02 127.63,-78.65 171.42,-71.31"/>
<polygon fill="none" stroke="#63b8ff" points="171.57,-71.29 176.82,-66.35 183.4,-69.31 178.14,-74.24 171.57,-71.29"/>
</a>
</g>
<text text-anchor="middle" x="115" y="-91.25" font-family="Cascadia Code NF" font-size="10.00" fill="grey"> +start</text>
</g>
<!-- Node5 -->
<g id="Node000005" class="node">
<title>Node5</title>
<g id="a_Node000005"><a xlink:title=" ">
<polygon fill="white" stroke="none" points="46,-52 0,-52 0,0 46,0 46,-52"/>
<text text-anchor="start" x="5" y="-38.5" font-family="Cascadia Code NF" font-size="10.00">size_t</text>
<text text-anchor="start" x="20" y="-22.5" font-family="Cascadia Code NF" font-size="10.00"> </text>
<text text-anchor="start" x="20" y="-6.5" font-family="Cascadia Code NF" font-size="10.00"> </text>
<polygon fill="#bfbfbf" stroke="#bfbfbf" points="0,-34 0,-34 46,-34 46,-34 0,-34"/>
<polygon fill="#bfbfbf" stroke="#bfbfbf" points="0,-18 0,-18 46,-18 46,-18 0,-18"/>
<polygon fill="none" stroke="#bfbfbf" points="0,0 0,-52 46,-52 46,0 0,0"/>
</a>
</g>
</g>
<!-- Node5&#45;&gt;Node3 -->
<g id="edge4_Node000003_Node000005" class="edge">
<title>Node5&#45;&gt;Node3</title>
<g id="a_edge4_Node000003_Node000005"><a xlink:title=" ">
<path fill="none" stroke="#63b8ff" d="M45.97,-29.68C75.51,-34.63 129.2,-43.62 171.51,-50.7"/>
<polygon fill="none" stroke="#63b8ff" points="171.5,-50.7 178.08,-47.75 183.34,-52.68 176.76,-55.64 171.5,-50.7"/>
</a>
</g>
<text text-anchor="middle" x="115" y="-52.25" font-family="Cascadia Code NF" font-size="10.00" fill="grey"> +length_in_bytes</text>
</g>
</g>
</svg>
