<?xml version="1.0" encoding="UTF-8" standalone="no"?>
<!DOCTYPE svg PUBLIC "-//W3C//DTD SVG 1.1//EN"
 "http://www.w3.org/Graphics/SVG/1.1/DTD/svg11.dtd">
<!-- Generated by graphviz version 11.0.0 (20240428.1522)
 -->
<!-- Title: v8::internal::NewSpace Pages: 1 -->
<!--zoomable 496 -->

<svg id="main" version="1.1" xmlns="http://www.w3.org/2000/svg" xmlns:xlink="http://www.w3.org/1999/xlink" xml:space="preserve" onload="init(evt)">
<style type="text/css"><![CDATA[
.node, .edge {opacity: 0.7;}
.node.selected, .edge.selected {opacity: 1;}
.edge:hover path { stroke: red; }
.edge:hover polygon { stroke: red; fill: red; }
svg#main { background-color: #111; }
]]></style>

<defs>
  <circle id="rim" cx="0" cy="0" r="7"/>
  <circle id="rim2" cx="0" cy="0" r="3.5"/>
  <g id="zoomPlus">
    <use xlink:href="#rim" fill="#404040"><set attributeName="fill" to="#808080" begin="zoomplus.mouseover" end="zoomplus.mouseout"/></use>
    <path d="M-4,0h8M0,-4v8" fill="none" stroke="white" stroke-width="1.5" pointer-events="none"/>
  </g>
  <g id="zoomMin">
    <use xlink:href="#rim" fill="#404040"><set attributeName="fill" to="#808080" begin="zoomminus.mouseover" end="zoomminus.mouseout"/></use>
    <path d="M-4,0h8" fill="none" stroke="white" stroke-width="1.5" pointer-events="none"/>
  </g>
  <g id="arrowUp" transform="translate(30 24)">
    <use xlink:href="#rim"/>
    <path pointer-events="none" fill="none" stroke="white" stroke-width="1.5" d="M0,-3.0v7 M-2.5,-0.5L0,-3.0L2.5,-0.5"/>
  </g>
  <g id="arrowRight" transform="rotate(90) translate(36 -43)">
    <use xlink:href="#rim"/>
    <path pointer-events="none" fill="none" stroke="white" stroke-width="1.5" d="M0,-3.0v7 M-2.5,-0.5L0,-3.0L2.5,-0.5"/>
  </g>
  <g id="arrowDown" transform="rotate(180) translate(-30 -48)">
    <use xlink:href="#rim"/>
    <path pointer-events="none" fill="none" stroke="white" stroke-width="1.5" d="M0,-3.0v7 M-2.5,-0.5L0,-3.0L2.5,-0.5"/>
  </g>
  <g id="arrowLeft" transform="rotate(270) translate(-36 17)">
    <use xlink:href="#rim"/>
    <path pointer-events="none" fill="none" stroke="white" stroke-width="1.5" d="M0,-3.0v7 M-2.5,-0.5L0,-3.0L2.5,-0.5"/>
  </g>
  <g id="resetDef">
    <use xlink:href="#rim2" fill="#404040"><set attributeName="fill" to="#808080" begin="reset.mouseover" end="reset.mouseout"/></use>
  </g>
</defs>
<script type="application/ecmascript">
var viewWidth = 580;
var viewHeight = 496;
var sectionId = 'dynsection-0';
</script>
<script type="application/ecmascript" xlink:href="../../svg.min.js"/>
<svg id="graph" class="graph">
<g id="viewport">
<title>v8::internal::NewSpace</title>
<!-- Node1 -->
<g id="Node000001" class="node">
<title>Node1</title>
<g id="a_Node000001"><a xlink:title=" ">
<polygon fill="#999999" stroke="none" points="364,-381.5 184,-381.5 184,-111.5 364,-111.5 364,-381.5"/>
<text text-anchor="start" x="208" y="-368" font-family="Cascadia Code NF" font-size="10.00">v8::internal::NewSpace</text>
<text text-anchor="start" x="188" y="-352" font-family="Cascadia Code NF" font-size="10.00">#</text>
<text text-anchor="start" x="198" y="-352" font-family="Cascadia Code NF" font-size="10.00">mutex_</text>
<text text-anchor="start" x="188" y="-336" font-family="Cascadia Code NF" font-size="10.00">#</text>
<text text-anchor="start" x="198" y="-336" font-family="Cascadia Code NF" font-size="10.00">kAllocationBufferParking</text>
<text text-anchor="start" x="198" y="-323.25" font-family="Cascadia Code NF" font-size="10.00">Threshold</text>
<text text-anchor="start" x="188" y="-307" font-family="Cascadia Code NF" font-size="10.00">+</text>
<text text-anchor="start" x="198" y="-307" font-family="Cascadia Code NF" font-size="10.00">NewSpace()</text>
<text text-anchor="start" x="188" y="-291" font-family="Cascadia Code NF" font-size="10.00">+</text>
<text text-anchor="start" x="198" y="-291" font-family="Cascadia Code NF" font-size="10.00">mutex()</text>
<text text-anchor="start" x="188" y="-275" font-family="Cascadia Code NF" font-size="10.00">+</text>
<text text-anchor="start" x="198" y="-275" font-family="Cascadia Code NF" font-size="10.00">Contains()</text>
<text text-anchor="start" x="188" y="-259" font-family="Cascadia Code NF" font-size="10.00">+</text>
<text text-anchor="start" x="198" y="-259" font-family="Cascadia Code NF" font-size="10.00">Contains()</text>
<text text-anchor="start" x="188" y="-243" font-family="Cascadia Code NF" font-size="10.00">+</text>
<text text-anchor="start" x="198" y="-243" font-family="Cascadia Code NF" font-size="10.00">ContainsSlow()</text>
<text text-anchor="start" x="188" y="-227" font-family="Cascadia Code NF" font-size="10.00">+</text>
<text text-anchor="start" x="198" y="-227" font-family="Cascadia Code NF" font-size="10.00">ExternalBackingStoreOverall</text>
<text text-anchor="start" x="198" y="-214.25" font-family="Cascadia Code NF" font-size="10.00">Bytes()</text>
<text text-anchor="start" x="188" y="-198" font-family="Cascadia Code NF" font-size="10.00">+</text>
<text text-anchor="start" x="198" y="-198" font-family="Cascadia Code NF" font-size="10.00">PromotePageToOldSpace()</text>
<text text-anchor="start" x="188" y="-182" font-family="Cascadia Code NF" font-size="10.00">+</text>
<text text-anchor="start" x="198" y="-182" font-family="Cascadia Code NF" font-size="10.00">Capacity()</text>
<text text-anchor="start" x="188" y="-166" font-family="Cascadia Code NF" font-size="10.00">+</text>
<text text-anchor="start" x="198" y="-166" font-family="Cascadia Code NF" font-size="10.00">TotalCapacity()</text>
<text text-anchor="start" x="188" y="-150" font-family="Cascadia Code NF" font-size="10.00">+</text>
<text text-anchor="start" x="198" y="-150" font-family="Cascadia Code NF" font-size="10.00">MaximumCapacity()</text>
<text text-anchor="start" x="198" y="-134" font-family="Cascadia Code NF" font-size="10.00">and 12 more...</text>
<text text-anchor="start" x="188" y="-118" font-family="Cascadia Code NF" font-size="10.00">#</text>
<text text-anchor="start" x="198" y="-118" font-family="Cascadia Code NF" font-size="10.00">RemovePage()</text>
<polygon fill="#666666" stroke="#666666" points="184,-363.5 184,-363.5 364,-363.5 364,-363.5 184,-363.5"/>
<polygon fill="#666666" stroke="#666666" points="184,-318.5 184,-318.5 196,-318.5 196,-318.5 184,-318.5"/>
<polygon fill="#666666" stroke="#666666" points="196,-318.5 196,-318.5 364,-318.5 364,-318.5 196,-318.5"/>
<polygon fill="none" stroke="#666666" points="184,-111.5 184,-381.5 364,-381.5 364,-111.5 184,-111.5"/>
</a>
</g>
</g>
<!-- Node3 -->
<g id="Node000003" class="node">
<title>Node3</title>
<g id="a_Node000003"><a xlink:href="../../d4/d89/classv8_1_1internal_1_1PagedNewSpace.html" target="_top" xlink:title=" ">
<polygon fill="white" stroke="none" points="572,-487.5 400,-487.5 400,-259.5 572,-259.5 572,-487.5"/>
<text text-anchor="start" x="405" y="-474" font-family="Cascadia Code NF" font-size="10.00">v8::internal::PagedNewSpace</text>
<text text-anchor="start" x="483" y="-458" font-family="Cascadia Code NF" font-size="10.00"> </text>
<text text-anchor="start" x="417" y="-442" font-family="Cascadia Code NF" font-size="10.00">+</text>
<text text-anchor="start" x="440" y="-442" font-family="Cascadia Code NF" font-size="10.00">PagedNewSpace()</text>
<text text-anchor="start" x="417" y="-426" font-family="Cascadia Code NF" font-size="10.00">+</text>
<text text-anchor="start" x="440" y="-426" font-family="Cascadia Code NF" font-size="10.00">~PagedNewSpace()</text>
<text text-anchor="start" x="417" y="-410" font-family="Cascadia Code NF" font-size="10.00">+</text>
<text text-anchor="start" x="440" y="-410" font-family="Cascadia Code NF" font-size="10.00">ContainsSlow()</text>
<text text-anchor="start" x="417" y="-394" font-family="Cascadia Code NF" font-size="10.00">+</text>
<text text-anchor="start" x="440" y="-394" font-family="Cascadia Code NF" font-size="10.00">Grow()</text>
<text text-anchor="start" x="417" y="-378" font-family="Cascadia Code NF" font-size="10.00">+</text>
<text text-anchor="start" x="440" y="-378" font-family="Cascadia Code NF" font-size="10.00">StartShrinking()</text>
<text text-anchor="start" x="417" y="-362" font-family="Cascadia Code NF" font-size="10.00">+</text>
<text text-anchor="start" x="440" y="-362" font-family="Cascadia Code NF" font-size="10.00">FinishShrinking()</text>
<text text-anchor="start" x="417" y="-346" font-family="Cascadia Code NF" font-size="10.00">+</text>
<text text-anchor="start" x="440" y="-346" font-family="Cascadia Code NF" font-size="10.00">Size()</text>
<text text-anchor="start" x="417" y="-330" font-family="Cascadia Code NF" font-size="10.00">+</text>
<text text-anchor="start" x="440" y="-330" font-family="Cascadia Code NF" font-size="10.00">SizeOfObjects()</text>
<text text-anchor="start" x="417" y="-314" font-family="Cascadia Code NF" font-size="10.00">+</text>
<text text-anchor="start" x="440" y="-314" font-family="Cascadia Code NF" font-size="10.00">Capacity()</text>
<text text-anchor="start" x="417" y="-298" font-family="Cascadia Code NF" font-size="10.00">+</text>
<text text-anchor="start" x="440" y="-298" font-family="Cascadia Code NF" font-size="10.00">TotalCapacity()</text>
<text text-anchor="start" x="440" y="-282" font-family="Cascadia Code NF" font-size="10.00">and 27 more...</text>
<text text-anchor="start" x="417" y="-266" font-family="Cascadia Code NF" font-size="10.00">+</text>
<text text-anchor="start" x="440" y="-266" font-family="Cascadia Code NF" font-size="10.00">From()</text>
<polygon fill="#bfbfbf" stroke="#bfbfbf" points="400,-469.5 400,-469.5 572,-469.5 572,-469.5 400,-469.5"/>
<polygon fill="#bfbfbf" stroke="#bfbfbf" points="400,-453.5 400,-453.5 572,-453.5 572,-453.5 400,-453.5"/>
<polygon fill="none" stroke="#bfbfbf" points="400,-259.5 400,-487.5 572,-487.5 572,-259.5 400,-259.5"/>
</a>
</g>
</g>
<!-- Node1&#45;&gt;Node3 -->
<g id="edge2_Node000001_Node000003" class="edge">
<title>Node1&#45;&gt;Node3</title>
<g id="a_edge2_Node000001_Node000003"><a xlink:title=" ">
<path fill="none" stroke="#63b8ff" d="M373.44,-306.03C382.4,-311.45 391.42,-316.91 400.24,-322.24"/>
<polygon fill="none" stroke="#63b8ff" points="375.42,-303.14 365.05,-300.96 371.8,-309.13 375.42,-303.14"/>
</a>
</g>
</g>
<!-- Node4 -->
<g id="Node000004" class="node">
<title>Node4</title>
<g id="a_Node000004"><a xlink:href="../../df/d6a/classv8_1_1internal_1_1SemiSpaceNewSpace.html" target="_top" xlink:title=" ">
<polygon fill="white" stroke="none" points="569,-241 403,-241 403,0 569,0 569,-241"/>
<text text-anchor="start" x="408" y="-227.5" font-family="Cascadia Code NF" font-size="10.00">v8::internal::SemiSpaceNew</text>
<text text-anchor="start" x="471" y="-214.75" font-family="Cascadia Code NF" font-size="10.00">Space</text>
<text text-anchor="start" x="483" y="-198.5" font-family="Cascadia Code NF" font-size="10.00"> </text>
<text text-anchor="start" x="414" y="-182.5" font-family="Cascadia Code NF" font-size="10.00">+</text>
<text text-anchor="start" x="431" y="-182.5" font-family="Cascadia Code NF" font-size="10.00">SemiSpaceNewSpace()</text>
<text text-anchor="start" x="414" y="-166.5" font-family="Cascadia Code NF" font-size="10.00">+</text>
<text text-anchor="start" x="431" y="-166.5" font-family="Cascadia Code NF" font-size="10.00">~SemiSpaceNewSpace()</text>
<text text-anchor="start" x="414" y="-150.5" font-family="Cascadia Code NF" font-size="10.00">+</text>
<text text-anchor="start" x="431" y="-150.5" font-family="Cascadia Code NF" font-size="10.00">ContainsSlow()</text>
<text text-anchor="start" x="414" y="-134.5" font-family="Cascadia Code NF" font-size="10.00">+</text>
<text text-anchor="start" x="431" y="-134.5" font-family="Cascadia Code NF" font-size="10.00">Grow()</text>
<text text-anchor="start" x="414" y="-118.5" font-family="Cascadia Code NF" font-size="10.00">+</text>
<text text-anchor="start" x="431" y="-118.5" font-family="Cascadia Code NF" font-size="10.00">Shrink()</text>
<text text-anchor="start" x="414" y="-102.5" font-family="Cascadia Code NF" font-size="10.00">+</text>
<text text-anchor="start" x="431" y="-102.5" font-family="Cascadia Code NF" font-size="10.00">Size()</text>
<text text-anchor="start" x="414" y="-86.5" font-family="Cascadia Code NF" font-size="10.00">+</text>
<text text-anchor="start" x="431" y="-86.5" font-family="Cascadia Code NF" font-size="10.00">SizeOfObjects()</text>
<text text-anchor="start" x="414" y="-70.5" font-family="Cascadia Code NF" font-size="10.00">+</text>
<text text-anchor="start" x="431" y="-70.5" font-family="Cascadia Code NF" font-size="10.00">Capacity()</text>
<text text-anchor="start" x="414" y="-54.5" font-family="Cascadia Code NF" font-size="10.00">+</text>
<text text-anchor="start" x="431" y="-54.5" font-family="Cascadia Code NF" font-size="10.00">TotalCapacity()</text>
<text text-anchor="start" x="414" y="-38.5" font-family="Cascadia Code NF" font-size="10.00">+</text>
<text text-anchor="start" x="431" y="-38.5" font-family="Cascadia Code NF" font-size="10.00">CommittedMemory()</text>
<text text-anchor="start" x="431" y="-22.5" font-family="Cascadia Code NF" font-size="10.00">and 39 more...</text>
<text text-anchor="start" x="414" y="-6.5" font-family="Cascadia Code NF" font-size="10.00">+</text>
<text text-anchor="start" x="431" y="-6.5" font-family="Cascadia Code NF" font-size="10.00">From()</text>
<polygon fill="#bfbfbf" stroke="#bfbfbf" points="403,-210 403,-210 569,-210 569,-210 403,-210"/>
<polygon fill="#bfbfbf" stroke="#bfbfbf" points="403,-194 403,-194 569,-194 569,-194 403,-194"/>
<polygon fill="none" stroke="#bfbfbf" points="403,0 403,-241 569,-241 569,0 403,0"/>
</a>
</g>
</g>
<!-- Node1&#45;&gt;Node4 -->
<g id="edge3_Node000001_Node000004" class="edge">
<title>Node1&#45;&gt;Node4</title>
<g id="a_edge3_Node000001_Node000004"><a xlink:title=" ">
<path fill="none" stroke="#63b8ff" d="M373.32,-187.51C383.33,-181.5 393.43,-175.44 403.24,-169.56"/>
<polygon fill="none" stroke="#63b8ff" points="371.83,-184.32 365.05,-192.47 375.43,-190.32 371.83,-184.32"/>
</a>
</g>
</g>
<!-- Node2 -->
<g id="Node000002" class="node">
<title>Node2</title>
<g id="a_Node000002"><a xlink:href="../../d5/dff/classNON__EXPORTED__BASEpublic_01SpaceWithLinearArea.html" target="_top" xlink:title=" ">
<polygon fill="white" stroke="none" points="148,-279 0,-279 0,-214 148,-214 148,-279"/>
<text text-anchor="start" x="5" y="-265.5" font-family="Cascadia Code NF" font-size="10.00">NON_EXPORTED_BASEpublic</text>
<text text-anchor="start" x="14" y="-252.75" font-family="Cascadia Code NF" font-size="10.00"> SpaceWithLinearArea</text>
<text text-anchor="start" x="71" y="-236.5" font-family="Cascadia Code NF" font-size="10.00"> </text>
<text text-anchor="start" x="71" y="-220.5" font-family="Cascadia Code NF" font-size="10.00"> </text>
<polygon fill="#bfbfbf" stroke="#bfbfbf" points="0,-248 0,-248 148,-248 148,-248 0,-248"/>
<polygon fill="#bfbfbf" stroke="#bfbfbf" points="0,-232 0,-232 148,-232 148,-232 0,-232"/>
<polygon fill="none" stroke="#bfbfbf" points="0,-214 0,-279 148,-279 148,-214 0,-214"/>
</a>
</g>
</g>
<!-- Node2&#45;&gt;Node1 -->
<g id="edge1_Node000001_Node000002" class="edge">
<title>Node2&#45;&gt;Node1</title>
<g id="a_edge1_Node000001_Node000002"><a xlink:title=" ">
<path fill="none" stroke="#8b1a1a" d="M159.36,-246.5C167.56,-246.5 175.9,-246.5 184.14,-246.5"/>
<polygon fill="none" stroke="#8b1a1a" points="159.4,-243 149.4,-246.5 159.4,-250 159.4,-243"/>
</a>
</g>
</g>
</g>
</svg>

<g id="navigator" transform="translate(0 0)" fill="#404254">
  <rect fill="#f2f5e9" fill-opacity="0.5" stroke="#606060" stroke-width=".5" x="0" y="0" width="60" height="60"/>
  <use id="zoomplus" xlink:href="#zoomPlus" x="17" y="9" onmousedown="handleZoom(evt,'in')"/>
  <use id="zoomminus" xlink:href="#zoomMin" x="42" y="9" onmousedown="handleZoom(evt,'out')"/>
  <use id="reset" xlink:href="#resetDef" x="30" y="36" onmousedown="handleReset()"/>
   <use id="arrowup" xlink:href="#arrowUp" x="0" y="0" onmousedown="handlePan(0,-1)"/>
  <use id="arrowright" xlink:href="#arrowRight" x="0" y="0" onmousedown="handlePan(1,0)"/>
  <use id="arrowdown" xlink:href="#arrowDown" x="0" y="0" onmousedown="handlePan(0,1)"/>
  <use id="arrowleft" xlink:href="#arrowLeft" x="0" y="0" onmousedown="handlePan(-1,0)"/>
</g>
<svg viewBox="0 0 15 15" width="100%" height="30px" preserveAspectRatio="xMaxYMin meet">
 <g id="arrow_out" transform="scale(0.3 0.3)">
  <a xlink:href="classv8_1_1internal_1_1NewSpace__inherit__graph_org.svg" target="_base">
   <rect id="button" ry="5" rx="5" y="6" x="6" height="38" width="38"
        fill="#f2f5e9" fill-opacity="0.5" stroke="#606060" stroke-width="1.0"/>
   <path id="arrow"
     d="M 11.500037,31.436501 C 11.940474,20.09759 22.043105,11.32322 32.158766,21.979434 L 37.068811,17.246167 C 37.068811,17.246167 37.088388,32 37.088388,32 L 22.160133,31.978069 C 22.160133,31.978069 26.997745,27.140456 26.997745,27.140456 C 18.528582,18.264221 13.291696,25.230495 11.500037,31.436501 z"
     style="fill:#404040;"/>
  </a>
 </g>
</svg>

<style type='text/css'>
<![CDATA[
[data-mouse-over-selected='false'] { opacity: 0.7; }
[data-mouse-over-selected='true']  { opacity: 1.0; }
]]>
</style>
<script type="application/ecmascript"><![CDATA[
document.addEventListener('DOMContentLoaded', (event) => {
  highlightEdges();
  highlightAdjacentNodes();
});
]]></script>
</svg>
