<?xml version="1.0" encoding="UTF-8" standalone="no"?>
<!DOCTYPE svg PUBLIC "-//W3C//DTD SVG 1.1//EN"
 "http://www.w3.org/Graphics/SVG/1.1/DTD/svg11.dtd">
<!-- Generated by graphviz version 11.0.0 (20240428.1522)
 -->
<!-- Title: v8_inspector::InternalPropertyMirror Pages: 1 -->
<!--zoomable 537 -->

<svg id="main" version="1.1" xmlns="http://www.w3.org/2000/svg" xmlns:xlink="http://www.w3.org/1999/xlink" xml:space="preserve" onload="init(evt)">
<style type="text/css"><![CDATA[
.node, .edge {opacity: 0.7;}
.node.selected, .edge.selected {opacity: 1;}
.edge:hover path { stroke: red; }
.edge:hover polygon { stroke: red; fill: red; }
svg#main { background-color: #111; }
]]></style>

<defs>
  <circle id="rim" cx="0" cy="0" r="7"/>
  <circle id="rim2" cx="0" cy="0" r="3.5"/>
  <g id="zoomPlus">
    <use xlink:href="#rim" fill="#404040"><set attributeName="fill" to="#808080" begin="zoomplus.mouseover" end="zoomplus.mouseout"/></use>
    <path d="M-4,0h8M0,-4v8" fill="none" stroke="white" stroke-width="1.5" pointer-events="none"/>
  </g>
  <g id="zoomMin">
    <use xlink:href="#rim" fill="#404040"><set attributeName="fill" to="#808080" begin="zoomminus.mouseover" end="zoomminus.mouseout"/></use>
    <path d="M-4,0h8" fill="none" stroke="white" stroke-width="1.5" pointer-events="none"/>
  </g>
  <g id="arrowUp" transform="translate(30 24)">
    <use xlink:href="#rim"/>
    <path pointer-events="none" fill="none" stroke="white" stroke-width="1.5" d="M0,-3.0v7 M-2.5,-0.5L0,-3.0L2.5,-0.5"/>
  </g>
  <g id="arrowRight" transform="rotate(90) translate(36 -43)">
    <use xlink:href="#rim"/>
    <path pointer-events="none" fill="none" stroke="white" stroke-width="1.5" d="M0,-3.0v7 M-2.5,-0.5L0,-3.0L2.5,-0.5"/>
  </g>
  <g id="arrowDown" transform="rotate(180) translate(-30 -48)">
    <use xlink:href="#rim"/>
    <path pointer-events="none" fill="none" stroke="white" stroke-width="1.5" d="M0,-3.0v7 M-2.5,-0.5L0,-3.0L2.5,-0.5"/>
  </g>
  <g id="arrowLeft" transform="rotate(270) translate(-36 17)">
    <use xlink:href="#rim"/>
    <path pointer-events="none" fill="none" stroke="white" stroke-width="1.5" d="M0,-3.0v7 M-2.5,-0.5L0,-3.0L2.5,-0.5"/>
  </g>
  <g id="resetDef">
    <use xlink:href="#rim2" fill="#404040"><set attributeName="fill" to="#808080" begin="reset.mouseover" end="reset.mouseout"/></use>
  </g>
</defs>
<script type="application/ecmascript">
var viewWidth = 712;
var viewHeight = 537;
var sectionId = 'dynsection-0';
</script>
<script type="application/ecmascript" xlink:href="../../svg.min.js"/>
<svg id="graph" class="graph">
<g id="viewport">
<title>v8_inspector::InternalPropertyMirror</title>
<!-- Node1 -->
<g id="Node000001" class="node">
<title>Node1</title>
<g id="a_Node000001"><a xlink:title=" ">
<polygon fill="#999999" stroke="none" points="704,-256.5 514,-256.5 514,-191.5 704,-191.5 704,-256.5"/>
<text text-anchor="start" x="519" y="-243" font-family="Cascadia Code NF" font-size="10.00">v8_inspector::InternalProperty</text>
<text text-anchor="start" x="591" y="-230.25" font-family="Cascadia Code NF" font-size="10.00">Mirror</text>
<text text-anchor="start" x="606" y="-214" font-family="Cascadia Code NF" font-size="10.00"> </text>
<text text-anchor="start" x="606" y="-198" font-family="Cascadia Code NF" font-size="10.00"> </text>
<polygon fill="#666666" stroke="#666666" points="514,-225.5 514,-225.5 704,-225.5 704,-225.5 514,-225.5"/>
<polygon fill="#666666" stroke="#666666" points="514,-209.5 514,-209.5 704,-209.5 704,-209.5 514,-209.5"/>
<polygon fill="none" stroke="#666666" points="514,-191.5 514,-256.5 704,-256.5 704,-191.5 514,-191.5"/>
</a>
</g>
</g>
<!-- Node2 -->
<g id="Node000002" class="node">
<title>Node2</title>
<g id="a_Node000002"><a xlink:href="../../d6/d98/classv8__inspector_1_1String16.html" target="_top" xlink:title=" ">
<polygon fill="white" stroke="none" points="427,-529 285,-529 285,-157 427,-157 427,-529"/>
<text text-anchor="start" x="290" y="-515.5" font-family="Cascadia Code NF" font-size="10.00">v8_inspector::String16</text>
<text text-anchor="start" x="353" y="-499.5" font-family="Cascadia Code NF" font-size="10.00"> </text>
<text text-anchor="start" x="297.5" y="-483.5" font-family="Cascadia Code NF" font-size="10.00">+</text>
<text text-anchor="start" x="316" y="-483.5" font-family="Cascadia Code NF" font-size="10.00">String16()</text>
<text text-anchor="start" x="297.5" y="-467.5" font-family="Cascadia Code NF" font-size="10.00">+</text>
<text text-anchor="start" x="316" y="-467.5" font-family="Cascadia Code NF" font-size="10.00">String16()</text>
<text text-anchor="start" x="297.5" y="-451.5" font-family="Cascadia Code NF" font-size="10.00">+</text>
<text text-anchor="start" x="316" y="-451.5" font-family="Cascadia Code NF" font-size="10.00">String16()</text>
<text text-anchor="start" x="297.5" y="-435.5" font-family="Cascadia Code NF" font-size="10.00">+</text>
<text text-anchor="start" x="316" y="-435.5" font-family="Cascadia Code NF" font-size="10.00">String16()</text>
<text text-anchor="start" x="297.5" y="-419.5" font-family="Cascadia Code NF" font-size="10.00">+</text>
<text text-anchor="start" x="316" y="-419.5" font-family="Cascadia Code NF" font-size="10.00">String16()</text>
<text text-anchor="start" x="297.5" y="-403.5" font-family="Cascadia Code NF" font-size="10.00">+</text>
<text text-anchor="start" x="316" y="-403.5" font-family="Cascadia Code NF" font-size="10.00">String16()</text>
<text text-anchor="start" x="297.5" y="-387.5" font-family="Cascadia Code NF" font-size="10.00">+</text>
<text text-anchor="start" x="316" y="-387.5" font-family="Cascadia Code NF" font-size="10.00">String16()</text>
<text text-anchor="start" x="297.5" y="-371.5" font-family="Cascadia Code NF" font-size="10.00">+</text>
<text text-anchor="start" x="316" y="-371.5" font-family="Cascadia Code NF" font-size="10.00">String16()</text>
<text text-anchor="start" x="297.5" y="-355.5" font-family="Cascadia Code NF" font-size="10.00">+</text>
<text text-anchor="start" x="316" y="-355.5" font-family="Cascadia Code NF" font-size="10.00">String16()</text>
<text text-anchor="start" x="297.5" y="-339.5" font-family="Cascadia Code NF" font-size="10.00">+</text>
<text text-anchor="start" x="316" y="-339.5" font-family="Cascadia Code NF" font-size="10.00">String16()</text>
<text text-anchor="start" x="316" y="-323.5" font-family="Cascadia Code NF" font-size="10.00">and 24 more...</text>
<text text-anchor="start" x="297.5" y="-307.5" font-family="Cascadia Code NF" font-size="10.00">+</text>
<text text-anchor="start" x="316" y="-307.5" font-family="Cascadia Code NF" font-size="10.00">fromInteger()</text>
<text text-anchor="start" x="297.5" y="-291.5" font-family="Cascadia Code NF" font-size="10.00">+</text>
<text text-anchor="start" x="316" y="-291.5" font-family="Cascadia Code NF" font-size="10.00">fromInteger()</text>
<text text-anchor="start" x="297.5" y="-275.5" font-family="Cascadia Code NF" font-size="10.00">+</text>
<text text-anchor="start" x="316" y="-275.5" font-family="Cascadia Code NF" font-size="10.00">fromInteger64()</text>
<text text-anchor="start" x="297.5" y="-259.5" font-family="Cascadia Code NF" font-size="10.00">+</text>
<text text-anchor="start" x="316" y="-259.5" font-family="Cascadia Code NF" font-size="10.00">fromUInt64()</text>
<text text-anchor="start" x="297.5" y="-243.5" font-family="Cascadia Code NF" font-size="10.00">+</text>
<text text-anchor="start" x="316" y="-243.5" font-family="Cascadia Code NF" font-size="10.00">fromDouble()</text>
<text text-anchor="start" x="297.5" y="-227.5" font-family="Cascadia Code NF" font-size="10.00">+</text>
<text text-anchor="start" x="316" y="-227.5" font-family="Cascadia Code NF" font-size="10.00">fromDouble()</text>
<text text-anchor="start" x="297.5" y="-211.5" font-family="Cascadia Code NF" font-size="10.00">+</text>
<text text-anchor="start" x="316" y="-211.5" font-family="Cascadia Code NF" font-size="10.00">fromUTF8()</text>
<text text-anchor="start" x="297.5" y="-195.5" font-family="Cascadia Code NF" font-size="10.00">+</text>
<text text-anchor="start" x="316" y="-195.5" font-family="Cascadia Code NF" font-size="10.00">fromUTF16LE()</text>
<text text-anchor="start" x="297.5" y="-179.5" font-family="Cascadia Code NF" font-size="10.00">+</text>
<text text-anchor="start" x="316" y="-179.5" font-family="Cascadia Code NF" font-size="10.00">fromUTF16LE()</text>
<text text-anchor="start" x="297.5" y="-163.5" font-family="Cascadia Code NF" font-size="10.00">+</text>
<text text-anchor="start" x="316" y="-163.5" font-family="Cascadia Code NF" font-size="10.00">concat()</text>
<polygon fill="#bfbfbf" stroke="#bfbfbf" points="285,-511 285,-511 427,-511 427,-511 285,-511"/>
<polygon fill="#bfbfbf" stroke="#bfbfbf" points="285,-495 285,-495 427,-495 427,-495 285,-495"/>
<polygon fill="none" stroke="#bfbfbf" points="285,-157 285,-529 427,-529 427,-157 285,-157"/>
</a>
</g>
</g>
<!-- Node2&#45;&gt;Node1 -->
<g id="edge1_Node000001_Node000002" class="edge">
<title>Node2&#45;&gt;Node1</title>
<g id="a_edge1_Node000001_Node000002"><a xlink:title=" ">
<path fill="none" stroke="#63b8ff" d="M426.92,-309.85C458.31,-294.97 495.52,-277.33 528.02,-261.92"/>
<polygon fill="none" stroke="#63b8ff" points="528.1,-261.88 531.81,-255.7 538.94,-256.74 535.24,-262.92 528.1,-261.88"/>
</a>
</g>
<text text-anchor="middle" x="475" y="-297.25" font-family="Cascadia Code NF" font-size="10.00" fill="grey"> +name</text>
</g>
<!-- Node3 -->
<g id="Node000003" class="node">
<title>Node3</title>
<g id="a_Node000003"><a xlink:title=" ">
<polygon fill="white" stroke="none" points="107,-369 67,-369 67,-317 107,-317 107,-369"/>
<text text-anchor="start" x="72" y="-355.5" font-family="Cascadia Code NF" font-size="10.00">const</text>
<text text-anchor="start" x="84" y="-339.5" font-family="Cascadia Code NF" font-size="10.00"> </text>
<text text-anchor="start" x="84" y="-323.5" font-family="Cascadia Code NF" font-size="10.00"> </text>
<polygon fill="#bfbfbf" stroke="#bfbfbf" points="67,-351 67,-351 107,-351 107,-351 67,-351"/>
<polygon fill="#bfbfbf" stroke="#bfbfbf" points="67,-335 67,-335 107,-335 107,-335 67,-335"/>
<polygon fill="none" stroke="#bfbfbf" points="67,-317 67,-369 107,-369 107,-317 67,-317"/>
</a>
</g>
</g>
<!-- Node3&#45;&gt;Node2 -->
<g id="edge2_Node000002_Node000003" class="edge">
<title>Node3&#45;&gt;Node2</title>
<g id="a_edge2_Node000002_Node000003"><a xlink:title=" ">
<path fill="none" stroke="#63b8ff" d="M106.77,-343C140.65,-343 213.9,-343 272.09,-343"/>
<polygon fill="none" stroke="#63b8ff" points="272.11,-343 278.11,-339 284.11,-343 278.11,-347 272.11,-343"/>
</a>
</g>
<text text-anchor="middle" x="225" y="-346.25" font-family="Cascadia Code NF" font-size="10.00" fill="grey"> +kNotFound</text>
</g>
<!-- Node4 -->
<g id="Node000004" class="node">
<title>Node4</title>
<g id="a_Node000004"><a xlink:title=" ">
<polygon fill="white" stroke="none" points="436,-138.5 276,-138.5 276,-73.5 436,-73.5 436,-138.5"/>
<text text-anchor="start" x="281" y="-125" font-family="Cascadia Code NF" font-size="10.00">std::unique_ptr&lt; v8</text>
<text text-anchor="start" x="281" y="-112.25" font-family="Cascadia Code NF" font-size="10.00">_inspector::ValueMirror &gt;</text>
<text text-anchor="start" x="353" y="-96" font-family="Cascadia Code NF" font-size="10.00"> </text>
<text text-anchor="start" x="297.5" y="-80" font-family="Cascadia Code NF" font-size="10.00">+</text>
<text text-anchor="start" x="325" y="-80" font-family="Cascadia Code NF" font-size="10.00">operator&#45;&gt;()</text>
<polygon fill="#666666" stroke="#666666" points="276,-107.5 276,-107.5 436,-107.5 436,-107.5 276,-107.5"/>
<polygon fill="#666666" stroke="#666666" points="276,-91.5 276,-91.5 436,-91.5 436,-91.5 276,-91.5"/>
<polygon fill="none" stroke="#666666" points="276,-73.5 276,-138.5 436,-138.5 436,-73.5 276,-73.5"/>
</a>
</g>
</g>
<!-- Node4&#45;&gt;Node1 -->
<g id="edge3_Node000001_Node000004" class="edge">
<title>Node4&#45;&gt;Node1</title>
<g id="a_edge3_Node000001_Node000004"><a xlink:title=" ">
<path fill="none" stroke="#63b8ff" d="M425.92,-138.4C457.47,-153.23 495.05,-170.9 527.85,-186.32"/>
<polygon fill="none" stroke="#63b8ff" points="527.56,-186.18 534.69,-185.12 538.42,-191.29 531.29,-192.36 527.56,-186.18"/>
</a>
</g>
<text text-anchor="middle" x="475" y="-171.25" font-family="Cascadia Code NF" font-size="10.00" fill="grey"> +value</text>
</g>
<!-- Node5 -->
<g id="Node000005" class="node">
<title>Node5</title>
<g id="a_Node000005"><a xlink:href="../../d4/d41/classv8__inspector_1_1ValueMirror.html" target="_top" xlink:title=" ">
<polygon fill="white" stroke="none" points="174,-212 0,-212 0,0 174,0 174,-212"/>
<text text-anchor="start" x="12" y="-198.5" font-family="Cascadia Code NF" font-size="10.00">v8_inspector::ValueMirror</text>
<text text-anchor="start" x="84" y="-182.5" font-family="Cascadia Code NF" font-size="10.00"> </text>
<text text-anchor="start" x="4" y="-166.5" font-family="Cascadia Code NF" font-size="10.00">+</text>
<text text-anchor="start" x="14" y="-166.5" font-family="Cascadia Code NF" font-size="10.00">~ValueMirror()</text>
<text text-anchor="start" x="4" y="-150.5" font-family="Cascadia Code NF" font-size="10.00">+</text>
<text text-anchor="start" x="14" y="-150.5" font-family="Cascadia Code NF" font-size="10.00">buildRemoteObject()</text>
<text text-anchor="start" x="4" y="-134.5" font-family="Cascadia Code NF" font-size="10.00">+</text>
<text text-anchor="start" x="14" y="-134.5" font-family="Cascadia Code NF" font-size="10.00">buildPropertyPreview()</text>
<text text-anchor="start" x="4" y="-118.5" font-family="Cascadia Code NF" font-size="10.00">+</text>
<text text-anchor="start" x="14" y="-118.5" font-family="Cascadia Code NF" font-size="10.00">buildObjectPreview()</text>
<text text-anchor="start" x="4" y="-102.5" font-family="Cascadia Code NF" font-size="10.00">+</text>
<text text-anchor="start" x="14" y="-102.5" font-family="Cascadia Code NF" font-size="10.00">buildEntryPreview()</text>
<text text-anchor="start" x="4" y="-86.5" font-family="Cascadia Code NF" font-size="10.00">+</text>
<text text-anchor="start" x="14" y="-86.5" font-family="Cascadia Code NF" font-size="10.00">v8Value()</text>
<text text-anchor="start" x="4" y="-70.5" font-family="Cascadia Code NF" font-size="10.00">+</text>
<text text-anchor="start" x="14" y="-70.5" font-family="Cascadia Code NF" font-size="10.00">buildDeepSerializedValue()</text>
<text text-anchor="start" x="4" y="-54.5" font-family="Cascadia Code NF" font-size="10.00">+</text>
<text text-anchor="start" x="14" y="-54.5" font-family="Cascadia Code NF" font-size="10.00">create()</text>
<text text-anchor="start" x="4" y="-38.5" font-family="Cascadia Code NF" font-size="10.00">+</text>
<text text-anchor="start" x="14" y="-38.5" font-family="Cascadia Code NF" font-size="10.00">getProperties()</text>
<text text-anchor="start" x="4" y="-22.5" font-family="Cascadia Code NF" font-size="10.00">+</text>
<text text-anchor="start" x="14" y="-22.5" font-family="Cascadia Code NF" font-size="10.00">getInternalProperties()</text>
<text text-anchor="start" x="4" y="-6.5" font-family="Cascadia Code NF" font-size="10.00">+</text>
<text text-anchor="start" x="14" y="-6.5" font-family="Cascadia Code NF" font-size="10.00">getPrivateProperties()</text>
<polygon fill="#bfbfbf" stroke="#bfbfbf" points="0,-194 0,-194 174,-194 174,-194 0,-194"/>
<polygon fill="#bfbfbf" stroke="#bfbfbf" points="0,-178 0,-178 174,-178 174,-178 0,-178"/>
<polygon fill="none" stroke="#bfbfbf" points="0,0 0,-212 174,-212 174,0 0,0"/>
</a>
</g>
</g>
<!-- Node5&#45;&gt;Node4 -->
<g id="edge4_Node000004_Node000005" class="edge">
<title>Node5&#45;&gt;Node4</title>
<g id="a_edge4_Node000004_Node000005"><a xlink:title=" ">
<path fill="none" stroke="#63b8ff" d="M173.95,-106C202.37,-106 234.1,-106 262.96,-106"/>
<polygon fill="none" stroke="#63b8ff" points="263.1,-106 269.1,-102 275.1,-106 269.1,-110 263.1,-106"/>
</a>
</g>
<text text-anchor="middle" x="225" y="-109.25" font-family="Cascadia Code NF" font-size="10.00" fill="grey"> +ptr</text>
</g>
</g>
</svg>

<g id="navigator" transform="translate(0 0)" fill="#404254">
  <rect fill="#f2f5e9" fill-opacity="0.5" stroke="#606060" stroke-width=".5" x="0" y="0" width="60" height="60"/>
  <use id="zoomplus" xlink:href="#zoomPlus" x="17" y="9" onmousedown="handleZoom(evt,'in')"/>
  <use id="zoomminus" xlink:href="#zoomMin" x="42" y="9" onmousedown="handleZoom(evt,'out')"/>
  <use id="reset" xlink:href="#resetDef" x="30" y="36" onmousedown="handleReset()"/>
   <use id="arrowup" xlink:href="#arrowUp" x="0" y="0" onmousedown="handlePan(0,-1)"/>
  <use id="arrowright" xlink:href="#arrowRight" x="0" y="0" onmousedown="handlePan(1,0)"/>
  <use id="arrowdown" xlink:href="#arrowDown" x="0" y="0" onmousedown="handlePan(0,1)"/>
  <use id="arrowleft" xlink:href="#arrowLeft" x="0" y="0" onmousedown="handlePan(-1,0)"/>
</g>
<svg viewBox="0 0 15 15" width="100%" height="30px" preserveAspectRatio="xMaxYMin meet">
 <g id="arrow_out" transform="scale(0.3 0.3)">
  <a xlink:href="structv8__inspector_1_1InternalPropertyMirror__coll__graph_org.svg" target="_base">
   <rect id="button" ry="5" rx="5" y="6" x="6" height="38" width="38"
        fill="#f2f5e9" fill-opacity="0.5" stroke="#606060" stroke-width="1.0"/>
   <path id="arrow"
     d="M 11.500037,31.436501 C 11.940474,20.09759 22.043105,11.32322 32.158766,21.979434 L 37.068811,17.246167 C 37.068811,17.246167 37.088388,32 37.088388,32 L 22.160133,31.978069 C 22.160133,31.978069 26.997745,27.140456 26.997745,27.140456 C 18.528582,18.264221 13.291696,25.230495 11.500037,31.436501 z"
     style="fill:#404040;"/>
  </a>
 </g>
</svg>

<style type='text/css'>
<![CDATA[
[data-mouse-over-selected='false'] { opacity: 0.7; }
[data-mouse-over-selected='true']  { opacity: 1.0; }
]]>
</style>
<script type="application/ecmascript"><![CDATA[
document.addEventListener('DOMContentLoaded', (event) => {
  highlightEdges();
  highlightAdjacentNodes();
});
]]></script>
</svg>
