<?xml version="1.0" encoding="UTF-8" standalone="no"?>
<!DOCTYPE svg PUBLIC "-//W3C//DTD SVG 1.1//EN"
 "http://www.w3.org/Graphics/SVG/1.1/DTD/svg11.dtd">
<!-- Generated by graphviz version 11.0.0 (20240428.1522)
 -->
<!-- Title: v8::internal::JSShadowRealm Pages: 1 -->
<svg width="508pt" height="281pt"
 viewBox="0.00 0.00 508.00 281.00" xmlns="http://www.w3.org/2000/svg" xmlns:xlink="http://www.w3.org/1999/xlink">
<g id="graph0" class="graph" transform="scale(1 1) rotate(0) translate(4 277)">
<title>v8::internal::JSShadowRealm</title>
<!-- Node1 -->
<g id="Node000001" class="node">
<title>Node1</title>
<g id="a_Node000001"><a xlink:title=" ">
<polygon fill="#999999" stroke="none" points="500,-162.5 328,-162.5 328,-110.5 500,-110.5 500,-162.5"/>
<text text-anchor="start" x="333" y="-149" font-family="Cascadia Code NF" font-size="10.00">v8::internal::JSShadowRealm</text>
<text text-anchor="start" x="411" y="-133" font-family="Cascadia Code NF" font-size="10.00"> </text>
<text text-anchor="start" x="411" y="-117" font-family="Cascadia Code NF" font-size="10.00"> </text>
<polygon fill="#666666" stroke="#666666" points="328,-144.5 328,-144.5 500,-144.5 500,-144.5 328,-144.5"/>
<polygon fill="#666666" stroke="#666666" points="328,-128.5 328,-128.5 500,-128.5 500,-128.5 328,-128.5"/>
<polygon fill="none" stroke="#666666" points="328,-110.5 328,-162.5 500,-162.5 500,-110.5 328,-110.5"/>
</a>
</g>
</g>
<!-- Node2 -->
<g id="Node000002" class="node">
<title>Node2</title>
<g id="a_Node000002"><a xlink:href="../../d5/db9/classTorqueGeneratedJSShadowRealm.html" target="_top" xlink:title=" ">
<polygon fill="white" stroke="none" points="292,-273 94,-273 94,0 292,0 292,-273"/>
<text text-anchor="start" x="109" y="-259.5" font-family="Cascadia Code NF" font-size="10.00">TorqueGeneratedJSShadowRealm</text>
<text text-anchor="start" x="112" y="-246.75" font-family="Cascadia Code NF" font-size="10.00">&lt; JSShadowRealm, JSObject &gt;</text>
<text text-anchor="start" x="98" y="-230.5" font-family="Cascadia Code NF" font-size="10.00">+</text>
<text text-anchor="start" x="108" y="-230.5" font-family="Cascadia Code NF" font-size="10.00">kStartOfStrongFieldsOffset</text>
<text text-anchor="start" x="98" y="-214.5" font-family="Cascadia Code NF" font-size="10.00">+</text>
<text text-anchor="start" x="108" y="-214.5" font-family="Cascadia Code NF" font-size="10.00">kNativeContextOffset</text>
<text text-anchor="start" x="98" y="-198.5" font-family="Cascadia Code NF" font-size="10.00">+</text>
<text text-anchor="start" x="108" y="-198.5" font-family="Cascadia Code NF" font-size="10.00">kNativeContextOffsetEnd</text>
<text text-anchor="start" x="98" y="-182.5" font-family="Cascadia Code NF" font-size="10.00">+</text>
<text text-anchor="start" x="108" y="-182.5" font-family="Cascadia Code NF" font-size="10.00">kEndOfStrongFieldsOffset</text>
<text text-anchor="start" x="98" y="-166.5" font-family="Cascadia Code NF" font-size="10.00">+</text>
<text text-anchor="start" x="108" y="-166.5" font-family="Cascadia Code NF" font-size="10.00">kStartOfWeakFieldsOffset</text>
<text text-anchor="start" x="98" y="-150.5" font-family="Cascadia Code NF" font-size="10.00">+</text>
<text text-anchor="start" x="108" y="-150.5" font-family="Cascadia Code NF" font-size="10.00">kEndOfWeakFieldsOffset</text>
<text text-anchor="start" x="98" y="-134.5" font-family="Cascadia Code NF" font-size="10.00">+</text>
<text text-anchor="start" x="108" y="-134.5" font-family="Cascadia Code NF" font-size="10.00">kHeaderSize</text>
<text text-anchor="start" x="98" y="-118.5" font-family="Cascadia Code NF" font-size="10.00">+</text>
<text text-anchor="start" x="108" y="-118.5" font-family="Cascadia Code NF" font-size="10.00">native_context()</text>
<text text-anchor="start" x="98" y="-102.5" font-family="Cascadia Code NF" font-size="10.00">+</text>
<text text-anchor="start" x="108" y="-102.5" font-family="Cascadia Code NF" font-size="10.00">native_context()</text>
<text text-anchor="start" x="98" y="-86.5" font-family="Cascadia Code NF" font-size="10.00">+</text>
<text text-anchor="start" x="108" y="-86.5" font-family="Cascadia Code NF" font-size="10.00">set_native_context()</text>
<text text-anchor="start" x="98" y="-70.5" font-family="Cascadia Code NF" font-size="10.00">+</text>
<text text-anchor="start" x="108" y="-70.5" font-family="Cascadia Code NF" font-size="10.00">TorqueGeneratedJSShadowRealm()</text>
<text text-anchor="start" x="98" y="-54.5" font-family="Cascadia Code NF" font-size="10.00">+</text>
<text text-anchor="start" x="108" y="-54.5" font-family="Cascadia Code NF" font-size="10.00">cast()</text>
<text text-anchor="start" x="98" y="-38.5" font-family="Cascadia Code NF" font-size="10.00">+</text>
<text text-anchor="start" x="108" y="-38.5" font-family="Cascadia Code NF" font-size="10.00">unchecked_cast()</text>
<text text-anchor="start" x="98" y="-22.5" font-family="Cascadia Code NF" font-size="10.00">#</text>
<text text-anchor="start" x="108" y="-22.5" font-family="Cascadia Code NF" font-size="10.00">TorqueGeneratedJSShadowRealm()</text>
<text text-anchor="start" x="98" y="-6.5" font-family="Cascadia Code NF" font-size="10.00">#</text>
<text text-anchor="start" x="108" y="-6.5" font-family="Cascadia Code NF" font-size="10.00">TorqueGeneratedJSShadowRealm()</text>
<polygon fill="#bfbfbf" stroke="#bfbfbf" points="94,-242 94,-242 292,-242 292,-242 94,-242"/>
<polygon fill="#bfbfbf" stroke="#bfbfbf" points="94,-130 94,-130 106,-130 106,-130 94,-130"/>
<polygon fill="#bfbfbf" stroke="#bfbfbf" points="106,-130 106,-130 292,-130 292,-130 106,-130"/>
<polygon fill="none" stroke="#bfbfbf" points="94,0 94,-273 292,-273 292,0 94,0"/>
</a>
</g>
</g>
<!-- Node2&#45;&gt;Node1 -->
<g id="edge1_Node000001_Node000002" class="edge">
<title>Node2&#45;&gt;Node1</title>
<g id="a_edge1_Node000001_Node000002"><a xlink:title=" ">
<path fill="none" stroke="#63b8ff" d="M303.32,-136.5C311.67,-136.5 320.01,-136.5 328.16,-136.5"/>
<polygon fill="none" stroke="#63b8ff" points="303.48,-133 293.48,-136.5 303.48,-140 303.48,-133"/>
</a>
</g>
</g>
<!-- Node3 -->
<g id="Node000003" class="node">
<title>Node3</title>
<g id="a_Node000003"><a xlink:title=" ">
<polygon fill="white" stroke="none" points="58,-162.5 0,-162.5 0,-110.5 58,-110.5 58,-162.5"/>
<text text-anchor="start" x="5" y="-149" font-family="Cascadia Code NF" font-size="10.00">JSObject</text>
<text text-anchor="start" x="26" y="-133" font-family="Cascadia Code NF" font-size="10.00"> </text>
<text text-anchor="start" x="26" y="-117" font-family="Cascadia Code NF" font-size="10.00"> </text>
<polygon fill="#bfbfbf" stroke="#bfbfbf" points="0,-144.5 0,-144.5 58,-144.5 58,-144.5 0,-144.5"/>
<polygon fill="#bfbfbf" stroke="#bfbfbf" points="0,-128.5 0,-128.5 58,-128.5 58,-128.5 0,-128.5"/>
<polygon fill="none" stroke="#bfbfbf" points="0,-110.5 0,-162.5 58,-162.5 58,-110.5 0,-110.5"/>
</a>
</g>
</g>
<!-- Node3&#45;&gt;Node2 -->
<g id="edge2_Node000002_Node000003" class="edge">
<title>Node3&#45;&gt;Node2</title>
<g id="a_edge2_Node000002_Node000003"><a xlink:title=" ">
<path fill="none" stroke="#63b8ff" d="M69.09,-136.5C76.9,-136.5 85.42,-136.5 94.22,-136.5"/>
<polygon fill="none" stroke="#63b8ff" points="69.36,-133 59.36,-136.5 69.36,-140 69.36,-133"/>
</a>
</g>
</g>
</g>
</svg>
