<?xml version="1.0" encoding="UTF-8" standalone="no"?>
<!DOCTYPE svg PUBLIC "-//W3C//DTD SVG 1.1//EN"
 "http://www.w3.org/Graphics/SVG/1.1/DTD/svg11.dtd">
<!-- Generated by graphviz version 11.0.0 (20240428.1522)
 -->
<!-- Title: v8::internal::VariableLookupResult Pages: 1 -->
<svg width="466pt" height="410pt"
 viewBox="0.00 0.00 466.00 410.00" xmlns="http://www.w3.org/2000/svg" xmlns:xlink="http://www.w3.org/1999/xlink">
<g id="graph0" class="graph" transform="scale(1 1) rotate(0) translate(4 406)">
<title>v8::internal::VariableLookupResult</title>
<!-- Node1 -->
<g id="Node000001" class="node">
<title>Node1</title>
<g id="a_Node000001"><a xlink:title=" ">
<polygon fill="#999999" stroke="none" points="458,-233.5 280,-233.5 280,-168.5 458,-168.5 458,-233.5"/>
<text text-anchor="start" x="285" y="-220" font-family="Cascadia Code NF" font-size="10.00">v8::internal::VariableLookup</text>
<text text-anchor="start" x="351" y="-207.25" font-family="Cascadia Code NF" font-size="10.00">Result</text>
<text text-anchor="start" x="366" y="-191" font-family="Cascadia Code NF" font-size="10.00"> </text>
<text text-anchor="start" x="366" y="-175" font-family="Cascadia Code NF" font-size="10.00"> </text>
<polygon fill="#666666" stroke="#666666" points="280,-202.5 280,-202.5 458,-202.5 458,-202.5 280,-202.5"/>
<polygon fill="#666666" stroke="#666666" points="280,-186.5 280,-186.5 458,-186.5 458,-186.5 280,-186.5"/>
<polygon fill="none" stroke="#666666" points="280,-168.5 280,-233.5 458,-233.5 458,-168.5 280,-168.5"/>
</a>
</g>
</g>
<!-- Node2 -->
<g id="Node000002" class="node">
<title>Node2</title>
<g id="a_Node000002"><a xlink:href="$d1/da0/classint.html" xlink:title=" ">
<polygon fill="white" stroke="none" points="73,-402 45,-402 45,-350 73,-350 73,-402"/>
<text text-anchor="start" x="50" y="-388.5" font-family="Cascadia Code NF" font-size="10.00">int</text>
<text text-anchor="start" x="56" y="-372.5" font-family="Cascadia Code NF" font-size="10.00"> </text>
<text text-anchor="start" x="56" y="-356.5" font-family="Cascadia Code NF" font-size="10.00"> </text>
<polygon fill="#bfbfbf" stroke="#bfbfbf" points="45,-384 45,-384 73,-384 73,-384 45,-384"/>
<polygon fill="#bfbfbf" stroke="#bfbfbf" points="45,-368 45,-368 73,-368 73,-368 45,-368"/>
<polygon fill="none" stroke="#bfbfbf" points="45,-350 45,-402 73,-402 73,-350 45,-350"/>
</a>
</g>
</g>
<!-- Node2&#45;&gt;Node1 -->
<g id="edge1_Node000001_Node000002" class="edge">
<title>Node2&#45;&gt;Node1</title>
<g id="a_edge1_Node000001_Node000002"><a xlink:title=" ">
<path fill="none" stroke="#63b8ff" d="M72.6,-373.09C105.58,-365.11 196.42,-340.71 262,-300 287.19,-284.36 311.63,-262.17 330.68,-242.76"/>
<polygon fill="none" stroke="#63b8ff" points="330.64,-242.8 331.91,-235.7 338.96,-234.14 337.68,-241.24 330.64,-242.8"/>
</a>
</g>
<text text-anchor="middle" x="199" y="-369" font-family="Cascadia Code NF" font-size="10.00" fill="grey"> +context_index</text>
<text text-anchor="middle" x="199" y="-356.25" font-family="Cascadia Code NF" font-size="10.00" fill="grey">+slot_index</text>
</g>
<!-- Node3 -->
<g id="Node000003" class="node">
<title>Node3</title>
<g id="a_Node000003"><a xlink:title=" ">
<polygon fill="white" stroke="none" points="76,-332 42,-332 42,-280 76,-280 76,-332"/>
<text text-anchor="start" x="47" y="-318.5" font-family="Cascadia Code NF" font-size="10.00">bool</text>
<text text-anchor="start" x="56" y="-302.5" font-family="Cascadia Code NF" font-size="10.00"> </text>
<text text-anchor="start" x="56" y="-286.5" font-family="Cascadia Code NF" font-size="10.00"> </text>
<polygon fill="#bfbfbf" stroke="#bfbfbf" points="42,-314 42,-314 76,-314 76,-314 42,-314"/>
<polygon fill="#bfbfbf" stroke="#bfbfbf" points="42,-298 42,-298 76,-298 76,-298 42,-298"/>
<polygon fill="none" stroke="#bfbfbf" points="42,-280 42,-332 76,-332 76,-280 42,-280"/>
</a>
</g>
</g>
<!-- Node3&#45;&gt;Node1 -->
<g id="edge2_Node000001_Node000003" class="edge">
<title>Node3&#45;&gt;Node1</title>
<g id="a_edge2_Node000001_Node000003"><a xlink:title=" ">
<path fill="none" stroke="#63b8ff" d="M75.85,-301.5C110.09,-291.67 193.42,-267.24 262,-243 266.64,-241.36 271.39,-239.64 276.16,-237.87"/>
<polygon fill="none" stroke="#63b8ff" points="276,-237.93 280.21,-232.08 287.24,-233.72 283.02,-239.57 276,-237.93"/>
</a>
</g>
<text text-anchor="middle" x="199" y="-286.25" font-family="Cascadia Code NF" font-size="10.00" fill="grey"> +is_repl_mode</text>
</g>
<!-- Node4 -->
<g id="Node000004" class="node">
<title>Node4</title>
<g id="a_Node000004"><a xlink:title=" ">
<polygon fill="white" stroke="none" points="100,-262 18,-262 18,-210 100,-210 100,-262"/>
<text text-anchor="start" x="23" y="-248.5" font-family="Cascadia Code NF" font-size="10.00">IsStaticFlag</text>
<text text-anchor="start" x="56" y="-232.5" font-family="Cascadia Code NF" font-size="10.00"> </text>
<text text-anchor="start" x="56" y="-216.5" font-family="Cascadia Code NF" font-size="10.00"> </text>
<polygon fill="#bfbfbf" stroke="#bfbfbf" points="18,-244 18,-244 100,-244 100,-244 18,-244"/>
<polygon fill="#bfbfbf" stroke="#bfbfbf" points="18,-228 18,-228 100,-228 100,-228 18,-228"/>
<polygon fill="none" stroke="#bfbfbf" points="18,-210 18,-262 100,-262 100,-210 18,-210"/>
</a>
</g>
</g>
<!-- Node4&#45;&gt;Node1 -->
<g id="edge3_Node000001_Node000004" class="edge">
<title>Node4&#45;&gt;Node1</title>
<g id="a_edge3_Node000001_Node000004"><a xlink:title=" ">
<path fill="none" stroke="#63b8ff" d="M99.95,-231.46C142.17,-226.66 210.41,-218.91 267.46,-212.42"/>
<polygon fill="none" stroke="#63b8ff" points="267.38,-212.43 272.89,-207.78 279.31,-211.08 273.8,-215.73 267.38,-212.43"/>
</a>
</g>
<text text-anchor="middle" x="199" y="-229.25" font-family="Cascadia Code NF" font-size="10.00" fill="grey"> +is_static_flag</text>
</g>
<!-- Node5 -->
<g id="Node000005" class="node">
<title>Node5</title>
<g id="a_Node000005"><a xlink:title=" ">
<polygon fill="white" stroke="none" points="100,-192 18,-192 18,-140 100,-140 100,-192"/>
<text text-anchor="start" x="23" y="-178.5" font-family="Cascadia Code NF" font-size="10.00">VariableMode</text>
<text text-anchor="start" x="56" y="-162.5" font-family="Cascadia Code NF" font-size="10.00"> </text>
<text text-anchor="start" x="56" y="-146.5" font-family="Cascadia Code NF" font-size="10.00"> </text>
<polygon fill="#bfbfbf" stroke="#bfbfbf" points="18,-174 18,-174 100,-174 100,-174 18,-174"/>
<polygon fill="#bfbfbf" stroke="#bfbfbf" points="18,-158 18,-158 100,-158 100,-158 18,-158"/>
<polygon fill="none" stroke="#bfbfbf" points="18,-140 18,-192 100,-192 100,-140 18,-140"/>
</a>
</g>
</g>
<!-- Node5&#45;&gt;Node1 -->
<g id="edge4_Node000001_Node000005" class="edge">
<title>Node5&#45;&gt;Node1</title>
<g id="a_edge4_Node000001_Node000005"><a xlink:title=" ">
<path fill="none" stroke="#63b8ff" d="M99.95,-170.54C142.17,-175.34 210.41,-183.09 267.46,-189.58"/>
<polygon fill="none" stroke="#63b8ff" points="267.38,-189.57 273.8,-186.27 279.31,-190.92 272.89,-194.22 267.38,-189.57"/>
</a>
</g>
<text text-anchor="middle" x="199" y="-191.25" font-family="Cascadia Code NF" font-size="10.00" fill="grey"> +mode</text>
</g>
<!-- Node6 -->
<g id="Node000006" class="node">
<title>Node6</title>
<g id="a_Node000006"><a xlink:title=" ">
<polygon fill="white" stroke="none" points="118,-122 0,-122 0,-70 118,-70 118,-122"/>
<text text-anchor="start" x="5" y="-108.5" font-family="Cascadia Code NF" font-size="10.00">InitializationFlag</text>
<text text-anchor="start" x="56" y="-92.5" font-family="Cascadia Code NF" font-size="10.00"> </text>
<text text-anchor="start" x="56" y="-76.5" font-family="Cascadia Code NF" font-size="10.00"> </text>
<polygon fill="#bfbfbf" stroke="#bfbfbf" points="0,-104 0,-104 118,-104 118,-104 0,-104"/>
<polygon fill="#bfbfbf" stroke="#bfbfbf" points="0,-88 0,-88 118,-88 118,-88 0,-88"/>
<polygon fill="none" stroke="#bfbfbf" points="0,-70 0,-122 118,-122 118,-70 0,-70"/>
</a>
</g>
</g>
<!-- Node6&#45;&gt;Node1 -->
<g id="edge5_Node000001_Node000006" class="edge">
<title>Node6&#45;&gt;Node1</title>
<g id="a_edge5_Node000001_Node000006"><a xlink:title=" ">
<path fill="none" stroke="#63b8ff" d="M117.89,-112.43C158.51,-124.3 213.93,-141.18 262,-158.25 267.05,-160.04 272.21,-161.93 277.41,-163.88"/>
<polygon fill="none" stroke="#63b8ff" points="277.5,-163.91 284.53,-162.31 288.72,-168.19 281.69,-169.79 277.5,-163.91"/>
</a>
</g>
<text text-anchor="middle" x="199" y="-161.25" font-family="Cascadia Code NF" font-size="10.00" fill="grey"> +init_flag</text>
</g>
<!-- Node7 -->
<g id="Node000007" class="node">
<title>Node7</title>
<g id="a_Node000007"><a xlink:title=" ">
<polygon fill="white" stroke="none" points="115,-52 3,-52 3,0 115,0 115,-52"/>
<text text-anchor="start" x="8" y="-38.5" font-family="Cascadia Code NF" font-size="10.00">MaybeAssignedFlag</text>
<text text-anchor="start" x="56" y="-22.5" font-family="Cascadia Code NF" font-size="10.00"> </text>
<text text-anchor="start" x="56" y="-6.5" font-family="Cascadia Code NF" font-size="10.00"> </text>
<polygon fill="#bfbfbf" stroke="#bfbfbf" points="3,-34 3,-34 115,-34 115,-34 3,-34"/>
<polygon fill="#bfbfbf" stroke="#bfbfbf" points="3,-18 3,-18 115,-18 115,-18 3,-18"/>
<polygon fill="none" stroke="#bfbfbf" points="3,0 3,-52 115,-52 115,0 3,0"/>
</a>
</g>
</g>
<!-- Node7&#45;&gt;Node1 -->
<g id="edge6_Node000001_Node000007" class="edge">
<title>Node7&#45;&gt;Node1</title>
<g id="a_edge6_Node000001_Node000007"><a xlink:title=" ">
<path fill="none" stroke="#63b8ff" d="M115,-40.02C157.22,-52.28 215.9,-72.62 262,-101.25 287.46,-117.06 312.08,-139.63 331.17,-159.3"/>
<polygon fill="none" stroke="#63b8ff" points="331.2,-159.33 338.23,-160.93 339.46,-168.03 332.43,-166.44 331.2,-159.33"/>
</a>
</g>
<text text-anchor="middle" x="199" y="-104.25" font-family="Cascadia Code NF" font-size="10.00" fill="grey"> +maybe_assigned_flag</text>
</g>
</g>
</svg>
