<?xml version="1.0" encoding="UTF-8" standalone="no"?>
<!DOCTYPE svg PUBLIC "-//W3C//DTD SVG 1.1//EN"
 "http://www.w3.org/Graphics/SVG/1.1/DTD/svg11.dtd">
<!-- Generated by graphviz version 11.0.0 (20240428.1522)
 -->
<!-- Title: v8::internal::SerializedData Pages: 1 -->
<!--zoomable 474 -->

<svg id="main" version="1.1" xmlns="http://www.w3.org/2000/svg" xmlns:xlink="http://www.w3.org/1999/xlink" xml:space="preserve" onload="init(evt)">
<style type="text/css"><![CDATA[
.node, .edge {opacity: 0.7;}
.node.selected, .edge.selected {opacity: 1;}
.edge:hover path { stroke: red; }
.edge:hover polygon { stroke: red; fill: red; }
svg#main { background-color: #111; }
]]></style>

<defs>
  <circle id="rim" cx="0" cy="0" r="7"/>
  <circle id="rim2" cx="0" cy="0" r="3.5"/>
  <g id="zoomPlus">
    <use xlink:href="#rim" fill="#404040"><set attributeName="fill" to="#808080" begin="zoomplus.mouseover" end="zoomplus.mouseout"/></use>
    <path d="M-4,0h8M0,-4v8" fill="none" stroke="white" stroke-width="1.5" pointer-events="none"/>
  </g>
  <g id="zoomMin">
    <use xlink:href="#rim" fill="#404040"><set attributeName="fill" to="#808080" begin="zoomminus.mouseover" end="zoomminus.mouseout"/></use>
    <path d="M-4,0h8" fill="none" stroke="white" stroke-width="1.5" pointer-events="none"/>
  </g>
  <g id="arrowUp" transform="translate(30 24)">
    <use xlink:href="#rim"/>
    <path pointer-events="none" fill="none" stroke="white" stroke-width="1.5" d="M0,-3.0v7 M-2.5,-0.5L0,-3.0L2.5,-0.5"/>
  </g>
  <g id="arrowRight" transform="rotate(90) translate(36 -43)">
    <use xlink:href="#rim"/>
    <path pointer-events="none" fill="none" stroke="white" stroke-width="1.5" d="M0,-3.0v7 M-2.5,-0.5L0,-3.0L2.5,-0.5"/>
  </g>
  <g id="arrowDown" transform="rotate(180) translate(-30 -48)">
    <use xlink:href="#rim"/>
    <path pointer-events="none" fill="none" stroke="white" stroke-width="1.5" d="M0,-3.0v7 M-2.5,-0.5L0,-3.0L2.5,-0.5"/>
  </g>
  <g id="arrowLeft" transform="rotate(270) translate(-36 17)">
    <use xlink:href="#rim"/>
    <path pointer-events="none" fill="none" stroke="white" stroke-width="1.5" d="M0,-3.0v7 M-2.5,-0.5L0,-3.0L2.5,-0.5"/>
  </g>
  <g id="resetDef">
    <use xlink:href="#rim2" fill="#404040"><set attributeName="fill" to="#808080" begin="reset.mouseover" end="reset.mouseout"/></use>
  </g>
</defs>
<script type="application/ecmascript">
var viewWidth = 414;
var viewHeight = 474;
var sectionId = 'dynsection-0';
</script>
<script type="application/ecmascript" xlink:href="../../svg.min.js"/>
<svg id="graph" class="graph">
<g id="viewport">
<title>v8::internal::SerializedData</title>
<!-- Node1 -->
<g id="Node000001" class="node">
<title>Node1</title>
<g id="a_Node000001"><a xlink:title=" ">
<polygon fill="#999999" stroke="none" points="178,-333 0,-333 0,-57 178,-57 178,-333"/>
<text text-anchor="start" x="5" y="-319.5" font-family="Cascadia Code NF" font-size="10.00">v8::internal::SerializedData</text>
<text text-anchor="start" x="17" y="-303.5" font-family="Cascadia Code NF" font-size="10.00">+</text>
<text text-anchor="start" x="40" y="-303.5" font-family="Cascadia Code NF" font-size="10.00">kMagicNumberOffset</text>
<text text-anchor="start" x="17" y="-287.5" font-family="Cascadia Code NF" font-size="10.00">+</text>
<text text-anchor="start" x="40" y="-287.5" font-family="Cascadia Code NF" font-size="10.00">kMagicNumber</text>
<text text-anchor="start" x="17" y="-271.5" font-family="Cascadia Code NF" font-size="10.00">#</text>
<text text-anchor="start" x="40" y="-271.5" font-family="Cascadia Code NF" font-size="10.00">data_</text>
<text text-anchor="start" x="17" y="-255.5" font-family="Cascadia Code NF" font-size="10.00">#</text>
<text text-anchor="start" x="40" y="-255.5" font-family="Cascadia Code NF" font-size="10.00">size_</text>
<text text-anchor="start" x="17" y="-239.5" font-family="Cascadia Code NF" font-size="10.00">#</text>
<text text-anchor="start" x="40" y="-239.5" font-family="Cascadia Code NF" font-size="10.00">owns_data_</text>
<text text-anchor="start" x="17" y="-223.5" font-family="Cascadia Code NF" font-size="10.00">+</text>
<text text-anchor="start" x="40" y="-223.5" font-family="Cascadia Code NF" font-size="10.00">SerializedData()</text>
<text text-anchor="start" x="17" y="-207.5" font-family="Cascadia Code NF" font-size="10.00">+</text>
<text text-anchor="start" x="40" y="-207.5" font-family="Cascadia Code NF" font-size="10.00">SerializedData()</text>
<text text-anchor="start" x="17" y="-191.5" font-family="Cascadia Code NF" font-size="10.00">+</text>
<text text-anchor="start" x="40" y="-191.5" font-family="Cascadia Code NF" font-size="10.00">SerializedData()</text>
<text text-anchor="start" x="17" y="-175.5" font-family="Cascadia Code NF" font-size="10.00">+</text>
<text text-anchor="start" x="40" y="-175.5" font-family="Cascadia Code NF" font-size="10.00">SerializedData()</text>
<text text-anchor="start" x="17" y="-159.5" font-family="Cascadia Code NF" font-size="10.00">+</text>
<text text-anchor="start" x="40" y="-159.5" font-family="Cascadia Code NF" font-size="10.00">operator=()</text>
<text text-anchor="start" x="17" y="-143.5" font-family="Cascadia Code NF" font-size="10.00">+</text>
<text text-anchor="start" x="40" y="-143.5" font-family="Cascadia Code NF" font-size="10.00">~SerializedData()</text>
<text text-anchor="start" x="17" y="-127.5" font-family="Cascadia Code NF" font-size="10.00">+</text>
<text text-anchor="start" x="40" y="-127.5" font-family="Cascadia Code NF" font-size="10.00">GetMagicNumber()</text>
<text text-anchor="start" x="17" y="-111.5" font-family="Cascadia Code NF" font-size="10.00">#</text>
<text text-anchor="start" x="40" y="-111.5" font-family="Cascadia Code NF" font-size="10.00">SetHeaderValue()</text>
<text text-anchor="start" x="17" y="-95.5" font-family="Cascadia Code NF" font-size="10.00">#</text>
<text text-anchor="start" x="40" y="-95.5" font-family="Cascadia Code NF" font-size="10.00">GetHeaderValue()</text>
<text text-anchor="start" x="17" y="-79.5" font-family="Cascadia Code NF" font-size="10.00">#</text>
<text text-anchor="start" x="40" y="-79.5" font-family="Cascadia Code NF" font-size="10.00">AllocateData()</text>
<text text-anchor="start" x="17" y="-63.5" font-family="Cascadia Code NF" font-size="10.00">#</text>
<text text-anchor="start" x="40" y="-63.5" font-family="Cascadia Code NF" font-size="10.00">SetMagicNumber()</text>
<polygon fill="#666666" stroke="#666666" points="0,-315 0,-315 178,-315 178,-315 0,-315"/>
<polygon fill="#666666" stroke="#666666" points="0,-235 0,-235 38,-235 38,-235 0,-235"/>
<polygon fill="#666666" stroke="#666666" points="38,-235 38,-235 178,-235 178,-235 38,-235"/>
<polygon fill="none" stroke="#666666" points="0,-57 0,-333 178,-333 178,-57 0,-57"/>
</a>
</g>
</g>
<!-- Node2 -->
<g id="Node000002" class="node">
<title>Node2</title>
<g id="a_Node000002"><a xlink:href="../../dd/d69/classv8_1_1internal_1_1SerializedCodeData.html" target="_top" xlink:title=" ">
<polygon fill="white" stroke="none" points="406,-465.5 214,-465.5 214,-166.5 406,-166.5 406,-465.5"/>
<text text-anchor="start" x="238" y="-452" font-family="Cascadia Code NF" font-size="10.00">v8::internal::Serialized</text>
<text text-anchor="start" x="286" y="-439.25" font-family="Cascadia Code NF" font-size="10.00">CodeData</text>
<text text-anchor="start" x="218" y="-423" font-family="Cascadia Code NF" font-size="10.00">+</text>
<text text-anchor="start" x="228" y="-423" font-family="Cascadia Code NF" font-size="10.00">kVersionHashOffset</text>
<text text-anchor="start" x="218" y="-407" font-family="Cascadia Code NF" font-size="10.00">+</text>
<text text-anchor="start" x="228" y="-407" font-family="Cascadia Code NF" font-size="10.00">kSourceHashOffset</text>
<text text-anchor="start" x="218" y="-391" font-family="Cascadia Code NF" font-size="10.00">+</text>
<text text-anchor="start" x="228" y="-391" font-family="Cascadia Code NF" font-size="10.00">kFlagHashOffset</text>
<text text-anchor="start" x="218" y="-375" font-family="Cascadia Code NF" font-size="10.00">+</text>
<text text-anchor="start" x="228" y="-375" font-family="Cascadia Code NF" font-size="10.00">kReadOnlySnapshotChecksum</text>
<text text-anchor="start" x="228" y="-362.25" font-family="Cascadia Code NF" font-size="10.00">Offset</text>
<text text-anchor="start" x="218" y="-346" font-family="Cascadia Code NF" font-size="10.00">+</text>
<text text-anchor="start" x="228" y="-346" font-family="Cascadia Code NF" font-size="10.00">kPayloadLengthOffset</text>
<text text-anchor="start" x="218" y="-330" font-family="Cascadia Code NF" font-size="10.00">+</text>
<text text-anchor="start" x="228" y="-330" font-family="Cascadia Code NF" font-size="10.00">kChecksumOffset</text>
<text text-anchor="start" x="218" y="-314" font-family="Cascadia Code NF" font-size="10.00">+</text>
<text text-anchor="start" x="228" y="-314" font-family="Cascadia Code NF" font-size="10.00">kUnalignedHeaderSize</text>
<text text-anchor="start" x="218" y="-298" font-family="Cascadia Code NF" font-size="10.00">+</text>
<text text-anchor="start" x="228" y="-298" font-family="Cascadia Code NF" font-size="10.00">kHeaderSize</text>
<text text-anchor="start" x="218" y="-282" font-family="Cascadia Code NF" font-size="10.00">+</text>
<text text-anchor="start" x="228" y="-282" font-family="Cascadia Code NF" font-size="10.00">SerializedCodeData()</text>
<text text-anchor="start" x="218" y="-266" font-family="Cascadia Code NF" font-size="10.00">+</text>
<text text-anchor="start" x="228" y="-266" font-family="Cascadia Code NF" font-size="10.00">GetScriptData()</text>
<text text-anchor="start" x="218" y="-250" font-family="Cascadia Code NF" font-size="10.00">+</text>
<text text-anchor="start" x="228" y="-250" font-family="Cascadia Code NF" font-size="10.00">Payload()</text>
<text text-anchor="start" x="218" y="-234" font-family="Cascadia Code NF" font-size="10.00">+</text>
<text text-anchor="start" x="228" y="-234" font-family="Cascadia Code NF" font-size="10.00">FromCachedData()</text>
<text text-anchor="start" x="218" y="-218" font-family="Cascadia Code NF" font-size="10.00">+</text>
<text text-anchor="start" x="228" y="-218" font-family="Cascadia Code NF" font-size="10.00">FromCachedDataWithoutSource()</text>
<text text-anchor="start" x="218" y="-202" font-family="Cascadia Code NF" font-size="10.00">+</text>
<text text-anchor="start" x="228" y="-202" font-family="Cascadia Code NF" font-size="10.00">FromPartiallySanityChecked</text>
<text text-anchor="start" x="228" y="-189.25" font-family="Cascadia Code NF" font-size="10.00">CachedData()</text>
<text text-anchor="start" x="218" y="-173" font-family="Cascadia Code NF" font-size="10.00">+</text>
<text text-anchor="start" x="228" y="-173" font-family="Cascadia Code NF" font-size="10.00">SourceHash()</text>
<polygon fill="#bfbfbf" stroke="#bfbfbf" points="214,-434.5 214,-434.5 406,-434.5 406,-434.5 214,-434.5"/>
<polygon fill="#bfbfbf" stroke="#bfbfbf" points="214,-293.5 214,-293.5 226,-293.5 226,-293.5 214,-293.5"/>
<polygon fill="#bfbfbf" stroke="#bfbfbf" points="226,-293.5 226,-293.5 406,-293.5 406,-293.5 226,-293.5"/>
<polygon fill="none" stroke="#bfbfbf" points="214,-166.5 214,-465.5 406,-465.5 406,-166.5 214,-166.5"/>
</a>
</g>
</g>
<!-- Node1&#45;&gt;Node2 -->
<g id="edge1_Node000001_Node000002" class="edge">
<title>Node1&#45;&gt;Node2</title>
<g id="a_edge1_Node000001_Node000002"><a xlink:title=" ">
<path fill="none" stroke="#63b8ff" d="M187.74,-249C196.59,-253.89 205.53,-258.83 214.35,-263.7"/>
<polygon fill="none" stroke="#63b8ff" points="189.58,-246.02 179.14,-244.25 186.2,-252.15 189.58,-246.02"/>
</a>
</g>
</g>
<!-- Node3 -->
<g id="Node000003" class="node">
<title>Node3</title>
<g id="a_Node000003"><a xlink:href="../../df/d80/classv8_1_1internal_1_1SnapshotData.html" target="_top" xlink:title=" ">
<polygon fill="white" stroke="none" points="393,-148 227,-148 227,0 393,0 393,-148"/>
<text text-anchor="start" x="232" y="-134.5" font-family="Cascadia Code NF" font-size="10.00">v8::internal::SnapshotData</text>
<text text-anchor="start" x="238" y="-118.5" font-family="Cascadia Code NF" font-size="10.00">#</text>
<text text-anchor="start" x="255" y="-118.5" font-family="Cascadia Code NF" font-size="10.00">kPayloadLengthOffset</text>
<text text-anchor="start" x="238" y="-102.5" font-family="Cascadia Code NF" font-size="10.00">#</text>
<text text-anchor="start" x="255" y="-102.5" font-family="Cascadia Code NF" font-size="10.00">kHeaderSize</text>
<text text-anchor="start" x="238" y="-86.5" font-family="Cascadia Code NF" font-size="10.00">+</text>
<text text-anchor="start" x="255" y="-86.5" font-family="Cascadia Code NF" font-size="10.00">SnapshotData()</text>
<text text-anchor="start" x="238" y="-70.5" font-family="Cascadia Code NF" font-size="10.00">+</text>
<text text-anchor="start" x="255" y="-70.5" font-family="Cascadia Code NF" font-size="10.00">SnapshotData()</text>
<text text-anchor="start" x="238" y="-54.5" font-family="Cascadia Code NF" font-size="10.00">+</text>
<text text-anchor="start" x="255" y="-54.5" font-family="Cascadia Code NF" font-size="10.00">Payload()</text>
<text text-anchor="start" x="238" y="-38.5" font-family="Cascadia Code NF" font-size="10.00">+</text>
<text text-anchor="start" x="255" y="-38.5" font-family="Cascadia Code NF" font-size="10.00">RawData()</text>
<text text-anchor="start" x="238" y="-22.5" font-family="Cascadia Code NF" font-size="10.00">#</text>
<text text-anchor="start" x="255" y="-22.5" font-family="Cascadia Code NF" font-size="10.00">SnapshotData()</text>
<text text-anchor="start" x="238" y="-6.5" font-family="Cascadia Code NF" font-size="10.00">#</text>
<text text-anchor="start" x="255" y="-6.5" font-family="Cascadia Code NF" font-size="10.00">Resize()</text>
<polygon fill="#bfbfbf" stroke="#bfbfbf" points="227,-130 227,-130 393,-130 393,-130 227,-130"/>
<polygon fill="#bfbfbf" stroke="#bfbfbf" points="227,-98 227,-98 253,-98 253,-98 227,-98"/>
<polygon fill="#bfbfbf" stroke="#bfbfbf" points="253,-98 253,-98 393,-98 393,-98 253,-98"/>
<polygon fill="none" stroke="#bfbfbf" points="227,0 227,-148 393,-148 393,0 227,0"/>
</a>
</g>
</g>
<!-- Node1&#45;&gt;Node3 -->
<g id="edge2_Node000001_Node000003" class="edge">
<title>Node1&#45;&gt;Node3</title>
<g id="a_edge2_Node000001_Node000003"><a xlink:title=" ">
<path fill="none" stroke="#63b8ff" d="M187.82,-140.95C200.98,-133.68 214.36,-126.29 227.2,-119.19"/>
<polygon fill="none" stroke="#63b8ff" points="186.2,-137.85 179.14,-145.75 189.58,-143.98 186.2,-137.85"/>
</a>
</g>
</g>
</g>
</svg>

<g id="navigator" transform="translate(0 0)" fill="#404254">
  <rect fill="#f2f5e9" fill-opacity="0.5" stroke="#606060" stroke-width=".5" x="0" y="0" width="60" height="60"/>
  <use id="zoomplus" xlink:href="#zoomPlus" x="17" y="9" onmousedown="handleZoom(evt,'in')"/>
  <use id="zoomminus" xlink:href="#zoomMin" x="42" y="9" onmousedown="handleZoom(evt,'out')"/>
  <use id="reset" xlink:href="#resetDef" x="30" y="36" onmousedown="handleReset()"/>
   <use id="arrowup" xlink:href="#arrowUp" x="0" y="0" onmousedown="handlePan(0,-1)"/>
  <use id="arrowright" xlink:href="#arrowRight" x="0" y="0" onmousedown="handlePan(1,0)"/>
  <use id="arrowdown" xlink:href="#arrowDown" x="0" y="0" onmousedown="handlePan(0,1)"/>
  <use id="arrowleft" xlink:href="#arrowLeft" x="0" y="0" onmousedown="handlePan(-1,0)"/>
</g>
<svg viewBox="0 0 15 15" width="100%" height="30px" preserveAspectRatio="xMaxYMin meet">
 <g id="arrow_out" transform="scale(0.3 0.3)">
  <a xlink:href="classv8_1_1internal_1_1SerializedData__inherit__graph_org.svg" target="_base">
   <rect id="button" ry="5" rx="5" y="6" x="6" height="38" width="38"
        fill="#f2f5e9" fill-opacity="0.5" stroke="#606060" stroke-width="1.0"/>
   <path id="arrow"
     d="M 11.500037,31.436501 C 11.940474,20.09759 22.043105,11.32322 32.158766,21.979434 L 37.068811,17.246167 C 37.068811,17.246167 37.088388,32 37.088388,32 L 22.160133,31.978069 C 22.160133,31.978069 26.997745,27.140456 26.997745,27.140456 C 18.528582,18.264221 13.291696,25.230495 11.500037,31.436501 z"
     style="fill:#404040;"/>
  </a>
 </g>
</svg>

<style type='text/css'>
<![CDATA[
[data-mouse-over-selected='false'] { opacity: 0.7; }
[data-mouse-over-selected='true']  { opacity: 1.0; }
]]>
</style>
<script type="application/ecmascript"><![CDATA[
document.addEventListener('DOMContentLoaded', (event) => {
  highlightEdges();
  highlightAdjacentNodes();
});
]]></script>
</svg>
