<?xml version="1.0" encoding="UTF-8" standalone="no"?>
<!DOCTYPE svg PUBLIC "-//W3C//DTD SVG 1.1//EN"
 "http://www.w3.org/Graphics/SVG/1.1/DTD/svg11.dtd">
<!-- Generated by graphviz version 11.0.0 (20240428.1522)
 -->
<!-- Title: TorqueGeneratedTemplateInfo&lt; D, P &gt; Pages: 1 -->
<svg width="438pt" height="329pt"
 viewBox="0.00 0.00 438.00 329.00" xmlns="http://www.w3.org/2000/svg" xmlns:xlink="http://www.w3.org/1999/xlink">
<g id="graph0" class="graph" transform="scale(1 1) rotate(0) translate(4 325)">
<title>TorqueGeneratedTemplateInfo&lt; D, P &gt;</title>
<!-- Node1 -->
<g id="Node000001" class="node">
<title>Node1</title>
<g id="a_Node000001"><a xlink:title=" ">
<polygon fill="#999999" stroke="none" points="430,-321 238,-321 238,0 430,0 430,-321"/>
<text text-anchor="start" x="253" y="-307.5" font-family="Cascadia Code NF" font-size="10.00">TorqueGeneratedTemplateInfo</text>
<text text-anchor="start" x="310" y="-294.75" font-family="Cascadia Code NF" font-size="10.00">&lt; D, P &gt;</text>
<text text-anchor="start" x="242" y="-278.5" font-family="Cascadia Code NF" font-size="10.00">+</text>
<text text-anchor="start" x="252" y="-278.5" font-family="Cascadia Code NF" font-size="10.00">kStartOfStrongFieldsOffset</text>
<text text-anchor="start" x="242" y="-262.5" font-family="Cascadia Code NF" font-size="10.00">+</text>
<text text-anchor="start" x="252" y="-262.5" font-family="Cascadia Code NF" font-size="10.00">kSerialNumberOffsetEnd</text>
<text text-anchor="start" x="242" y="-246.5" font-family="Cascadia Code NF" font-size="10.00">+</text>
<text text-anchor="start" x="252" y="-246.5" font-family="Cascadia Code NF" font-size="10.00">kStartOfWeakFieldsOffset</text>
<text text-anchor="start" x="242" y="-230.5" font-family="Cascadia Code NF" font-size="10.00">+</text>
<text text-anchor="start" x="252" y="-230.5" font-family="Cascadia Code NF" font-size="10.00">serial_number()</text>
<text text-anchor="start" x="242" y="-214.5" font-family="Cascadia Code NF" font-size="10.00">+</text>
<text text-anchor="start" x="252" y="-214.5" font-family="Cascadia Code NF" font-size="10.00">set_serial_number()</text>
<text text-anchor="start" x="242" y="-198.5" font-family="Cascadia Code NF" font-size="10.00">+</text>
<text text-anchor="start" x="252" y="-198.5" font-family="Cascadia Code NF" font-size="10.00">number_of_properties()</text>
<text text-anchor="start" x="242" y="-182.5" font-family="Cascadia Code NF" font-size="10.00">+</text>
<text text-anchor="start" x="252" y="-182.5" font-family="Cascadia Code NF" font-size="10.00">set_number_of_properties()</text>
<text text-anchor="start" x="242" y="-166.5" font-family="Cascadia Code NF" font-size="10.00">+</text>
<text text-anchor="start" x="252" y="-166.5" font-family="Cascadia Code NF" font-size="10.00">property_list()</text>
<text text-anchor="start" x="242" y="-150.5" font-family="Cascadia Code NF" font-size="10.00">+</text>
<text text-anchor="start" x="252" y="-150.5" font-family="Cascadia Code NF" font-size="10.00">property_list()</text>
<text text-anchor="start" x="242" y="-134.5" font-family="Cascadia Code NF" font-size="10.00">+</text>
<text text-anchor="start" x="252" y="-134.5" font-family="Cascadia Code NF" font-size="10.00">set_property_list()</text>
<text text-anchor="start" x="242" y="-118.5" font-family="Cascadia Code NF" font-size="10.00">+</text>
<text text-anchor="start" x="252" y="-118.5" font-family="Cascadia Code NF" font-size="10.00">property_accessors()</text>
<text text-anchor="start" x="242" y="-102.5" font-family="Cascadia Code NF" font-size="10.00">+</text>
<text text-anchor="start" x="252" y="-102.5" font-family="Cascadia Code NF" font-size="10.00">property_accessors()</text>
<text text-anchor="start" x="242" y="-86.5" font-family="Cascadia Code NF" font-size="10.00">+</text>
<text text-anchor="start" x="252" y="-86.5" font-family="Cascadia Code NF" font-size="10.00">set_property_accessors()</text>
<text text-anchor="start" x="242" y="-70.5" font-family="Cascadia Code NF" font-size="10.00">+</text>
<text text-anchor="start" x="252" y="-70.5" font-family="Cascadia Code NF" font-size="10.00">TorqueGeneratedTemplateInfo()</text>
<text text-anchor="start" x="242" y="-54.5" font-family="Cascadia Code NF" font-size="10.00">+</text>
<text text-anchor="start" x="252" y="-54.5" font-family="Cascadia Code NF" font-size="10.00">cast()</text>
<text text-anchor="start" x="242" y="-38.5" font-family="Cascadia Code NF" font-size="10.00">+</text>
<text text-anchor="start" x="252" y="-38.5" font-family="Cascadia Code NF" font-size="10.00">unchecked_cast()</text>
<text text-anchor="start" x="242" y="-22.5" font-family="Cascadia Code NF" font-size="10.00">#</text>
<text text-anchor="start" x="252" y="-22.5" font-family="Cascadia Code NF" font-size="10.00">TorqueGeneratedTemplateInfo()</text>
<text text-anchor="start" x="242" y="-6.5" font-family="Cascadia Code NF" font-size="10.00">#</text>
<text text-anchor="start" x="252" y="-6.5" font-family="Cascadia Code NF" font-size="10.00">TorqueGeneratedTemplateInfo()</text>
<polygon fill="#666666" stroke="#666666" points="238,-290 238,-290 430,-290 430,-290 238,-290"/>
<polygon fill="#666666" stroke="#666666" points="238,-242 238,-242 250,-242 250,-242 238,-242"/>
<polygon fill="#666666" stroke="#666666" points="250,-242 250,-242 430,-242 430,-242 250,-242"/>
<polygon fill="none" stroke="#666666" points="238,0 238,-321 430,-321 430,0 238,0"/>
</a>
</g>
</g>
<!-- Node2 -->
<g id="Node000002" class="node">
<title>Node2</title>
<g id="a_Node000002"><a xlink:href="$db/d72/classP.html" xlink:title=" ">
<polygon fill="white" stroke="none" points="22,-268.5 6,-268.5 6,-216.5 22,-216.5 22,-268.5"/>
<text text-anchor="start" x="11" y="-255" font-family="Cascadia Code NF" font-size="10.00">P</text>
<text text-anchor="start" x="11" y="-239" font-family="Cascadia Code NF" font-size="10.00"> </text>
<text text-anchor="start" x="11" y="-223" font-family="Cascadia Code NF" font-size="10.00"> </text>
<polygon fill="#bfbfbf" stroke="#bfbfbf" points="6,-250.5 6,-250.5 22,-250.5 22,-250.5 6,-250.5"/>
<polygon fill="#bfbfbf" stroke="#bfbfbf" points="6,-234.5 6,-234.5 22,-234.5 22,-234.5 6,-234.5"/>
<polygon fill="none" stroke="#bfbfbf" points="6,-216.5 6,-268.5 22,-268.5 22,-216.5 6,-216.5"/>
</a>
</g>
</g>
<!-- Node2&#45;&gt;Node1 -->
<g id="edge1_Node000001_Node000002" class="edge">
<title>Node2&#45;&gt;Node1</title>
<g id="a_edge1_Node000001_Node000002"><a xlink:title=" ">
<path fill="none" stroke="#63b8ff" d="M32.98,-242.83C69.21,-243.02 153.25,-240.97 220,-220.5 226.05,-218.64 232.16,-216.46 238.23,-214.04"/>
<polygon fill="none" stroke="#63b8ff" points="33.47,-239.34 23.43,-242.71 33.38,-246.34 33.47,-239.34"/>
</a>
</g>
</g>
<!-- Node3 -->
<g id="Node000003" class="node">
<title>Node3</title>
<g id="a_Node000003"><a xlink:href="$d1/da0/classint.html" xlink:title=" ">
<polygon fill="white" stroke="none" points="28,-105.5 0,-105.5 0,-53.5 28,-53.5 28,-105.5"/>
<text text-anchor="start" x="5" y="-92" font-family="Cascadia Code NF" font-size="10.00">int</text>
<text text-anchor="start" x="11" y="-76" font-family="Cascadia Code NF" font-size="10.00"> </text>
<text text-anchor="start" x="11" y="-60" font-family="Cascadia Code NF" font-size="10.00"> </text>
<polygon fill="#bfbfbf" stroke="#bfbfbf" points="0,-87.5 0,-87.5 28,-87.5 28,-87.5 0,-87.5"/>
<polygon fill="#bfbfbf" stroke="#bfbfbf" points="0,-71.5 0,-71.5 28,-71.5 28,-71.5 0,-71.5"/>
<polygon fill="none" stroke="#bfbfbf" points="0,-53.5 0,-105.5 28,-105.5 28,-53.5 0,-53.5"/>
</a>
</g>
</g>
<!-- Node3&#45;&gt;Node1 -->
<g id="edge2_Node000001_Node000003" class="edge">
<title>Node3&#45;&gt;Node1</title>
<g id="a_edge2_Node000001_Node000003"><a xlink:title=" ">
<path fill="none" stroke="#63b8ff" d="M27.9,-76.92C60.86,-70.88 150.53,-57.95 220,-80.25 222.09,-80.92 224.17,-81.64 226.24,-82.42"/>
<polygon fill="none" stroke="#63b8ff" points="226.12,-82.37 233.2,-80.99 237.19,-87 230.11,-88.37 226.12,-82.37"/>
</a>
</g>
<text text-anchor="middle" x="133" y="-210.25" font-family="Cascadia Code NF" font-size="10.00" fill="grey"> +kEndOfStrongFieldsOffset</text>
<text text-anchor="middle" x="133" y="-197.5" font-family="Cascadia Code NF" font-size="10.00" fill="grey">+kEndOfWeakFieldsOffset</text>
<text text-anchor="middle" x="133" y="-184.75" font-family="Cascadia Code NF" font-size="10.00" fill="grey">+kHeaderSize</text>
<text text-anchor="middle" x="133" y="-172" font-family="Cascadia Code NF" font-size="10.00" fill="grey">+kNumberOfPropertiesOffset</text>
<text text-anchor="middle" x="133" y="-159.25" font-family="Cascadia Code NF" font-size="10.00" fill="grey">+kNumberOfPropertiesOffsetEnd</text>
<text text-anchor="middle" x="133" y="-146.5" font-family="Cascadia Code NF" font-size="10.00" fill="grey">+kPropertyAccessorsOffset</text>
<text text-anchor="middle" x="133" y="-133.75" font-family="Cascadia Code NF" font-size="10.00" fill="grey">+kPropertyAccessorsOffsetEnd</text>
<text text-anchor="middle" x="133" y="-121" font-family="Cascadia Code NF" font-size="10.00" fill="grey">+kPropertyListOffset</text>
<text text-anchor="middle" x="133" y="-108.25" font-family="Cascadia Code NF" font-size="10.00" fill="grey">+kPropertyListOffsetEnd</text>
<text text-anchor="middle" x="133" y="-95.5" font-family="Cascadia Code NF" font-size="10.00" fill="grey">+kSerialNumberOffset</text>
<text text-anchor="middle" x="133" y="-82.75" font-family="Cascadia Code NF" font-size="10.00" fill="grey">...</text>
</g>
</g>
</svg>
