<?xml version="1.0" encoding="UTF-8" standalone="no"?>
<!DOCTYPE svg PUBLIC "-//W3C//DTD SVG 1.1//EN"
 "http://www.w3.org/Graphics/SVG/1.1/DTD/svg11.dtd">
<!-- Generated by graphviz version 11.0.0 (20240428.1522)
 -->
<!-- Title: TorqueGeneratedExportedSubClass&lt; D, P &gt; Pages: 1 -->
<svg width="396pt" height="320pt"
 viewBox="0.00 0.00 396.00 320.00" xmlns="http://www.w3.org/2000/svg" xmlns:xlink="http://www.w3.org/1999/xlink">

<svg id="main" version="1.1" xmlns="http://www.w3.org/2000/svg" xmlns:xlink="http://www.w3.org/1999/xlink" xml:space="preserve" onload="init(evt)">
<style type="text/css"><![CDATA[
.node, .edge {opacity: 0.7;}
.node.selected, .edge.selected {opacity: 1;}
.edge:hover path { stroke: red; }
.edge:hover polygon { stroke: red; fill: red; }
svg#main { background-color: #111; }
]]></style>
<script type="application/ecmascript" xlink:href="../../svg.min.js"/>
<svg id="graph" class="graph">
<g id="graph0" class="graph" transform="scale(1 1) rotate(0) translate(4 316)">
<title>TorqueGeneratedExportedSubClass&lt; D, P &gt;</title>
<!-- Node1 -->
<g id="Node000001" class="node">
<title>Node1</title>
<g id="a_Node000001"><a xlink:title=" ">
<polygon fill="#999999" stroke="none" points="388,-312 214,-312 214,0 388,0 388,-312"/>
<text text-anchor="start" x="223" y="-298.5" font-family="Cascadia Code NF" font-size="10.00">TorqueGeneratedExportedSub</text>
<text text-anchor="start" x="262" y="-285.75" font-family="Cascadia Code NF" font-size="10.00">Class&lt; D, P &gt;</text>
<text text-anchor="start" x="218" y="-269.5" font-family="Cascadia Code NF" font-size="10.00">+</text>
<text text-anchor="start" x="228" y="-269.5" font-family="Cascadia Code NF" font-size="10.00">kStartOfStrongFieldsOffset</text>
<text text-anchor="start" x="218" y="-253.5" font-family="Cascadia Code NF" font-size="10.00">+</text>
<text text-anchor="start" x="228" y="-253.5" font-family="Cascadia Code NF" font-size="10.00">kStartOfWeakFieldsOffset</text>
<text text-anchor="start" x="218" y="-237.5" font-family="Cascadia Code NF" font-size="10.00">+</text>
<text text-anchor="start" x="228" y="-237.5" font-family="Cascadia Code NF" font-size="10.00">c_field()</text>
<text text-anchor="start" x="218" y="-221.5" font-family="Cascadia Code NF" font-size="10.00">+</text>
<text text-anchor="start" x="228" y="-221.5" font-family="Cascadia Code NF" font-size="10.00">set_c_field()</text>
<text text-anchor="start" x="218" y="-205.5" font-family="Cascadia Code NF" font-size="10.00">+</text>
<text text-anchor="start" x="228" y="-205.5" font-family="Cascadia Code NF" font-size="10.00">d_field()</text>
<text text-anchor="start" x="218" y="-189.5" font-family="Cascadia Code NF" font-size="10.00">+</text>
<text text-anchor="start" x="228" y="-189.5" font-family="Cascadia Code NF" font-size="10.00">set_d_field()</text>
<text text-anchor="start" x="218" y="-173.5" font-family="Cascadia Code NF" font-size="10.00">+</text>
<text text-anchor="start" x="228" y="-173.5" font-family="Cascadia Code NF" font-size="10.00">e_field()</text>
<text text-anchor="start" x="218" y="-157.5" font-family="Cascadia Code NF" font-size="10.00">+</text>
<text text-anchor="start" x="228" y="-157.5" font-family="Cascadia Code NF" font-size="10.00">set_e_field()</text>
<text text-anchor="start" x="218" y="-141.5" font-family="Cascadia Code NF" font-size="10.00">+</text>
<text text-anchor="start" x="228" y="-141.5" font-family="Cascadia Code NF" font-size="10.00">AllocatedSize()</text>
<text text-anchor="start" x="218" y="-125.5" font-family="Cascadia Code NF" font-size="10.00">+</text>
<text text-anchor="start" x="228" y="-125.5" font-family="Cascadia Code NF" font-size="10.00">TorqueGeneratedExportedSub</text>
<text text-anchor="start" x="228" y="-112.75" font-family="Cascadia Code NF" font-size="10.00">Class()</text>
<text text-anchor="start" x="218" y="-96.5" font-family="Cascadia Code NF" font-size="10.00">+</text>
<text text-anchor="start" x="228" y="-96.5" font-family="Cascadia Code NF" font-size="10.00">cast()</text>
<text text-anchor="start" x="218" y="-80.5" font-family="Cascadia Code NF" font-size="10.00">+</text>
<text text-anchor="start" x="228" y="-80.5" font-family="Cascadia Code NF" font-size="10.00">unchecked_cast()</text>
<text text-anchor="start" x="218" y="-64.5" font-family="Cascadia Code NF" font-size="10.00">+</text>
<text text-anchor="start" x="228" y="-64.5" font-family="Cascadia Code NF" font-size="10.00">SizeFor()</text>
<text text-anchor="start" x="218" y="-48.5" font-family="Cascadia Code NF" font-size="10.00">#</text>
<text text-anchor="start" x="228" y="-48.5" font-family="Cascadia Code NF" font-size="10.00">TorqueGeneratedExportedSub</text>
<text text-anchor="start" x="228" y="-35.75" font-family="Cascadia Code NF" font-size="10.00">Class()</text>
<text text-anchor="start" x="218" y="-19.5" font-family="Cascadia Code NF" font-size="10.00">#</text>
<text text-anchor="start" x="228" y="-19.5" font-family="Cascadia Code NF" font-size="10.00">TorqueGeneratedExportedSub</text>
<text text-anchor="start" x="228" y="-6.75" font-family="Cascadia Code NF" font-size="10.00">Class()</text>
<polygon fill="#666666" stroke="#666666" points="214,-281 214,-281 388,-281 388,-281 214,-281"/>
<polygon fill="#666666" stroke="#666666" points="214,-249 214,-249 226,-249 226,-249 214,-249"/>
<polygon fill="#666666" stroke="#666666" points="226,-249 226,-249 388,-249 388,-249 226,-249"/>
<polygon fill="none" stroke="#666666" points="214,0 214,-312 388,-312 388,0 214,0"/>
</a>
</g>
</g>
<!-- Node2 -->
<g id="Node000002" class="node">
<title>Node2</title>
<g id="a_Node000002"><a xlink:href="../../db/d72/classP.html" target="_top" xlink:title=" ">
<polygon fill="white" stroke="none" points="22,-264 6,-264 6,-212 22,-212 22,-264"/>
<text text-anchor="start" x="11" y="-250.5" font-family="Cascadia Code NF" font-size="10.00">P</text>
<text text-anchor="start" x="11" y="-234.5" font-family="Cascadia Code NF" font-size="10.00"> </text>
<text text-anchor="start" x="11" y="-218.5" font-family="Cascadia Code NF" font-size="10.00"> </text>
<polygon fill="#bfbfbf" stroke="#bfbfbf" points="6,-246 6,-246 22,-246 22,-246 6,-246"/>
<polygon fill="#bfbfbf" stroke="#bfbfbf" points="6,-230 6,-230 22,-230 22,-230 6,-230"/>
<polygon fill="none" stroke="#bfbfbf" points="6,-212 6,-264 22,-264 22,-212 6,-212"/>
</a>
</g>
</g>
<!-- Node2&#45;&gt;Node1 -->
<g id="edge1_Node000001_Node000002" class="edge">
<title>Node2&#45;&gt;Node1</title>
<g id="a_edge1_Node000001_Node000002"><a xlink:title=" ">
<path fill="none" stroke="#63b8ff" d="M33.13,-238.17C66.33,-237.96 138.73,-235.11 196,-216 202.03,-213.99 208.1,-211.6 214.11,-208.96"/>
<polygon fill="none" stroke="#63b8ff" points="33.31,-234.67 23.3,-238.14 33.29,-241.67 33.31,-234.67"/>
</a>
</g>
</g>
<!-- Node3 -->
<g id="Node000003" class="node">
<title>Node3</title>
<g id="a_Node000003"><a xlink:href="../../d1/da0/classint.html" target="_top" xlink:title=" ">
<polygon fill="white" stroke="none" points="28,-101 0,-101 0,-49 28,-49 28,-101"/>
<text text-anchor="start" x="5" y="-87.5" font-family="Cascadia Code NF" font-size="10.00">int</text>
<text text-anchor="start" x="11" y="-71.5" font-family="Cascadia Code NF" font-size="10.00"> </text>
<text text-anchor="start" x="11" y="-55.5" font-family="Cascadia Code NF" font-size="10.00"> </text>
<polygon fill="#bfbfbf" stroke="#bfbfbf" points="0,-83 0,-83 28,-83 28,-83 0,-83"/>
<polygon fill="#bfbfbf" stroke="#bfbfbf" points="0,-67 0,-67 28,-67 28,-67 0,-67"/>
<polygon fill="none" stroke="#bfbfbf" points="0,-49 0,-101 28,-101 28,-49 0,-49"/>
</a>
</g>
</g>
<!-- Node3&#45;&gt;Node1 -->
<g id="edge2_Node000001_Node000003" class="edge">
<title>Node3&#45;&gt;Node1</title>
<g id="a_edge2_Node000001_Node000003"><a xlink:title=" ">
<path fill="none" stroke="#63b8ff" d="M27.75,-72.33C57.98,-66.59 135.96,-55.14 196,-75.75 198.11,-76.48 200.22,-77.26 202.31,-78.11"/>
<polygon fill="none" stroke="#63b8ff" points="202.41,-78.15 209.53,-77.01 213.32,-83.14 206.21,-84.28 202.41,-78.15"/>
</a>
</g>
<text text-anchor="middle" x="121" y="-205.75" font-family="Cascadia Code NF" font-size="10.00" fill="grey"> +kCFieldOffset</text>
<text text-anchor="middle" x="121" y="-193" font-family="Cascadia Code NF" font-size="10.00" fill="grey">+kCFieldOffsetEnd</text>
<text text-anchor="middle" x="121" y="-180.25" font-family="Cascadia Code NF" font-size="10.00" fill="grey">+kDFieldOffset</text>
<text text-anchor="middle" x="121" y="-167.5" font-family="Cascadia Code NF" font-size="10.00" fill="grey">+kDFieldOffsetEnd</text>
<text text-anchor="middle" x="121" y="-154.75" font-family="Cascadia Code NF" font-size="10.00" fill="grey">+kEFieldOffset</text>
<text text-anchor="middle" x="121" y="-142" font-family="Cascadia Code NF" font-size="10.00" fill="grey">+kEFieldOffsetEnd</text>
<text text-anchor="middle" x="121" y="-129.25" font-family="Cascadia Code NF" font-size="10.00" fill="grey">+kEndOfStrongFieldsOffset</text>
<text text-anchor="middle" x="121" y="-116.5" font-family="Cascadia Code NF" font-size="10.00" fill="grey">+kEndOfWeakFieldsOffset</text>
<text text-anchor="middle" x="121" y="-103.75" font-family="Cascadia Code NF" font-size="10.00" fill="grey">+kHeaderSize</text>
<text text-anchor="middle" x="121" y="-91" font-family="Cascadia Code NF" font-size="10.00" fill="grey">+kSize</text>
<text text-anchor="middle" x="121" y="-78.25" font-family="Cascadia Code NF" font-size="10.00" fill="grey">...</text>
</g>
</g>
</svg>
</svg>

<style type='text/css'>
<![CDATA[
[data-mouse-over-selected='false'] { opacity: 0.7; }
[data-mouse-over-selected='true']  { opacity: 1.0; }
]]>
</style>
<script type="application/ecmascript"><![CDATA[
document.addEventListener('DOMContentLoaded', (event) => {
  highlightEdges();
  highlightAdjacentNodes();
});
]]></script>
</svg>
