<?xml version="1.0" encoding="UTF-8" standalone="no"?>
<!DOCTYPE svg PUBLIC "-//W3C//DTD SVG 1.1//EN"
 "http://www.w3.org/Graphics/SVG/1.1/DTD/svg11.dtd">
<!-- Generated by graphviz version 11.0.0 (20240428.1522)
 -->
<!-- Title: v8::internal::debug_helper_internal::TqCell Pages: 1 -->
<svg width="482pt" height="169pt"
 viewBox="0.00 0.00 482.00 169.00" xmlns="http://www.w3.org/2000/svg" xmlns:xlink="http://www.w3.org/1999/xlink">
<g id="graph0" class="graph" transform="scale(1 1) rotate(0) translate(4 165)">
<title>v8::internal::debug_helper_internal::TqCell</title>
<!-- Node1 -->
<g id="Node000001" class="node">
<title>Node1</title>
<g id="a_Node000001"><a xlink:title=" ">
<polygon fill="#999999" stroke="none" points="474,-161 320,-161 320,0 474,0 474,-161"/>
<text text-anchor="start" x="325" y="-147.5" font-family="Cascadia Code NF" font-size="10.00">v8::internal::debug</text>
<text text-anchor="start" x="325" y="-134.75" font-family="Cascadia Code NF" font-size="10.00">_helper_internal::TqCell</text>
<text text-anchor="start" x="394" y="-118.5" font-family="Cascadia Code NF" font-size="10.00"> </text>
<text text-anchor="start" x="332.5" y="-102.5" font-family="Cascadia Code NF" font-size="10.00">+</text>
<text text-anchor="start" x="351" y="-102.5" font-family="Cascadia Code NF" font-size="10.00">TqCell()</text>
<text text-anchor="start" x="332.5" y="-86.5" font-family="Cascadia Code NF" font-size="10.00">+</text>
<text text-anchor="start" x="351" y="-86.5" font-family="Cascadia Code NF" font-size="10.00">GetProperties()</text>
<text text-anchor="start" x="332.5" y="-70.5" font-family="Cascadia Code NF" font-size="10.00">+</text>
<text text-anchor="start" x="351" y="-70.5" font-family="Cascadia Code NF" font-size="10.00">GetName()</text>
<text text-anchor="start" x="332.5" y="-54.5" font-family="Cascadia Code NF" font-size="10.00">+</text>
<text text-anchor="start" x="351" y="-54.5" font-family="Cascadia Code NF" font-size="10.00">Visit()</text>
<text text-anchor="start" x="332.5" y="-38.5" font-family="Cascadia Code NF" font-size="10.00">+</text>
<text text-anchor="start" x="351" y="-38.5" font-family="Cascadia Code NF" font-size="10.00">IsSuperclassOf()</text>
<text text-anchor="start" x="332.5" y="-22.5" font-family="Cascadia Code NF" font-size="10.00">+</text>
<text text-anchor="start" x="351" y="-22.5" font-family="Cascadia Code NF" font-size="10.00">GetValueAddress()</text>
<text text-anchor="start" x="332.5" y="-6.5" font-family="Cascadia Code NF" font-size="10.00">+</text>
<text text-anchor="start" x="351" y="-6.5" font-family="Cascadia Code NF" font-size="10.00">GetValueValue()</text>
<polygon fill="#666666" stroke="#666666" points="320,-130 320,-130 474,-130 474,-130 320,-130"/>
<polygon fill="#666666" stroke="#666666" points="320,-114 320,-114 474,-114 474,-114 320,-114"/>
<polygon fill="none" stroke="#666666" points="320,0 320,-161 474,-161 474,0 320,0"/>
</a>
</g>
</g>
<!-- Node2 -->
<g id="Node000002" class="node">
<title>Node2</title>
<g id="a_Node000002"><a xlink:href="../../db/deb/classv8_1_1internal_1_1debug__helper__internal_1_1TqHeapObject.html" target="_top" xlink:title=" ">
<polygon fill="white" stroke="none" points="284,-161 94,-161 94,0 284,0 284,-161"/>
<text text-anchor="start" x="99" y="-147.5" font-family="Cascadia Code NF" font-size="10.00">v8::internal::debug</text>
<text text-anchor="start" x="99" y="-134.75" font-family="Cascadia Code NF" font-size="10.00">_helper_internal::TqHeapObject</text>
<text text-anchor="start" x="186" y="-118.5" font-family="Cascadia Code NF" font-size="10.00"> </text>
<text text-anchor="start" x="117" y="-102.5" font-family="Cascadia Code NF" font-size="10.00">+</text>
<text text-anchor="start" x="146" y="-102.5" font-family="Cascadia Code NF" font-size="10.00">TqHeapObject()</text>
<text text-anchor="start" x="117" y="-86.5" font-family="Cascadia Code NF" font-size="10.00">+</text>
<text text-anchor="start" x="146" y="-86.5" font-family="Cascadia Code NF" font-size="10.00">GetProperties()</text>
<text text-anchor="start" x="117" y="-70.5" font-family="Cascadia Code NF" font-size="10.00">+</text>
<text text-anchor="start" x="146" y="-70.5" font-family="Cascadia Code NF" font-size="10.00">GetName()</text>
<text text-anchor="start" x="117" y="-54.5" font-family="Cascadia Code NF" font-size="10.00">+</text>
<text text-anchor="start" x="146" y="-54.5" font-family="Cascadia Code NF" font-size="10.00">Visit()</text>
<text text-anchor="start" x="117" y="-38.5" font-family="Cascadia Code NF" font-size="10.00">+</text>
<text text-anchor="start" x="146" y="-38.5" font-family="Cascadia Code NF" font-size="10.00">IsSuperclassOf()</text>
<text text-anchor="start" x="117" y="-22.5" font-family="Cascadia Code NF" font-size="10.00">+</text>
<text text-anchor="start" x="146" y="-22.5" font-family="Cascadia Code NF" font-size="10.00">GetMapAddress()</text>
<text text-anchor="start" x="117" y="-6.5" font-family="Cascadia Code NF" font-size="10.00">+</text>
<text text-anchor="start" x="146" y="-6.5" font-family="Cascadia Code NF" font-size="10.00">GetMapValue()</text>
<polygon fill="#bfbfbf" stroke="#bfbfbf" points="94,-130 94,-130 284,-130 284,-130 94,-130"/>
<polygon fill="#bfbfbf" stroke="#bfbfbf" points="94,-114 94,-114 284,-114 284,-114 94,-114"/>
<polygon fill="none" stroke="#bfbfbf" points="94,0 94,-161 284,-161 284,0 94,0"/>
</a>
</g>
</g>
<!-- Node2&#45;&gt;Node1 -->
<g id="edge1_Node000001_Node000002" class="edge">
<title>Node2&#45;&gt;Node1</title>
<g id="a_edge1_Node000001_Node000002"><a xlink:title=" ">
<path fill="none" stroke="#63b8ff" d="M295.33,-80.5C303.67,-80.5 311.99,-80.5 320.08,-80.5"/>
<polygon fill="none" stroke="#63b8ff" points="295.47,-77 285.47,-80.5 295.47,-84 295.47,-77"/>
</a>
</g>
</g>
<!-- Node3 -->
<g id="Node000003" class="node">
<title>Node3</title>
<g id="a_Node000003"><a xlink:href="../../dd/d42/classTqObject.html" target="_top" xlink:title=" ">
<polygon fill="white" stroke="none" points="58,-106.5 0,-106.5 0,-54.5 58,-54.5 58,-106.5"/>
<text text-anchor="start" x="5" y="-93" font-family="Cascadia Code NF" font-size="10.00">TqObject</text>
<text text-anchor="start" x="26" y="-77" font-family="Cascadia Code NF" font-size="10.00"> </text>
<text text-anchor="start" x="26" y="-61" font-family="Cascadia Code NF" font-size="10.00"> </text>
<polygon fill="#bfbfbf" stroke="#bfbfbf" points="0,-88.5 0,-88.5 58,-88.5 58,-88.5 0,-88.5"/>
<polygon fill="#bfbfbf" stroke="#bfbfbf" points="0,-72.5 0,-72.5 58,-72.5 58,-72.5 0,-72.5"/>
<polygon fill="none" stroke="#bfbfbf" points="0,-54.5 0,-106.5 58,-106.5 58,-54.5 0,-54.5"/>
</a>
</g>
</g>
<!-- Node3&#45;&gt;Node2 -->
<g id="edge2_Node000002_Node000003" class="edge">
<title>Node3&#45;&gt;Node2</title>
<g id="a_edge2_Node000002_Node000003"><a xlink:title=" ">
<path fill="none" stroke="#63b8ff" d="M69.34,-80.5C77.03,-80.5 85.39,-80.5 94,-80.5"/>
<polygon fill="none" stroke="#63b8ff" points="69.4,-77 59.4,-80.5 69.4,-84 69.4,-77"/>
</a>
</g>
</g>
</g>
</svg>
