<?xml version="1.0" encoding="UTF-8" standalone="no"?>
<!DOCTYPE svg PUBLIC "-//W3C//DTD SVG 1.1//EN"
 "http://www.w3.org/Graphics/SVG/1.1/DTD/svg11.dtd">
<!-- Generated by graphviz version 11.0.0 (20240428.1522)
 -->
<!-- Title: v8::internal::maglev::CallWithSpread Pages: 1 -->
<!--zoomable 614 -->

<svg id="main" version="1.1" xmlns="http://www.w3.org/2000/svg" xmlns:xlink="http://www.w3.org/1999/xlink" xml:space="preserve" onload="init(evt)">
<style type="text/css"><![CDATA[
.node, .edge {opacity: 0.7;}
.node.selected, .edge.selected {opacity: 1;}
.edge:hover path { stroke: red; }
.edge:hover polygon { stroke: red; fill: red; }
svg#main { background-color: #111; }
]]></style>

<defs>
  <circle id="rim" cx="0" cy="0" r="7"/>
  <circle id="rim2" cx="0" cy="0" r="3.5"/>
  <g id="zoomPlus">
    <use xlink:href="#rim" fill="#404040"><set attributeName="fill" to="#808080" begin="zoomplus.mouseover" end="zoomplus.mouseout"/></use>
    <path d="M-4,0h8M0,-4v8" fill="none" stroke="white" stroke-width="1.5" pointer-events="none"/>
  </g>
  <g id="zoomMin">
    <use xlink:href="#rim" fill="#404040"><set attributeName="fill" to="#808080" begin="zoomminus.mouseover" end="zoomminus.mouseout"/></use>
    <path d="M-4,0h8" fill="none" stroke="white" stroke-width="1.5" pointer-events="none"/>
  </g>
  <g id="arrowUp" transform="translate(30 24)">
    <use xlink:href="#rim"/>
    <path pointer-events="none" fill="none" stroke="white" stroke-width="1.5" d="M0,-3.0v7 M-2.5,-0.5L0,-3.0L2.5,-0.5"/>
  </g>
  <g id="arrowRight" transform="rotate(90) translate(36 -43)">
    <use xlink:href="#rim"/>
    <path pointer-events="none" fill="none" stroke="white" stroke-width="1.5" d="M0,-3.0v7 M-2.5,-0.5L0,-3.0L2.5,-0.5"/>
  </g>
  <g id="arrowDown" transform="rotate(180) translate(-30 -48)">
    <use xlink:href="#rim"/>
    <path pointer-events="none" fill="none" stroke="white" stroke-width="1.5" d="M0,-3.0v7 M-2.5,-0.5L0,-3.0L2.5,-0.5"/>
  </g>
  <g id="arrowLeft" transform="rotate(270) translate(-36 17)">
    <use xlink:href="#rim"/>
    <path pointer-events="none" fill="none" stroke="white" stroke-width="1.5" d="M0,-3.0v7 M-2.5,-0.5L0,-3.0L2.5,-0.5"/>
  </g>
  <g id="resetDef">
    <use xlink:href="#rim2" fill="#404040"><set attributeName="fill" to="#808080" begin="reset.mouseover" end="reset.mouseout"/></use>
  </g>
</defs>
<script type="application/ecmascript">
var viewWidth = 580;
var viewHeight = 614;
var sectionId = 'dynsection-1';
</script>
<script type="application/ecmascript" xlink:href="../../svg.min.js"/>
<svg id="graph" class="graph">
<g id="viewport">
<title>v8::internal::maglev::CallWithSpread</title>
<!-- Node1 -->
<g id="Node000001" class="node">
<title>Node1</title>
<g id="a_Node000001"><a xlink:title=" ">
<polygon fill="#999999" stroke="none" points="572,-558 434,-558 434,-333 572,-333 572,-558"/>
<text text-anchor="start" x="443" y="-544.5" font-family="Cascadia Code NF" font-size="10.00">v8::internal::maglev</text>
<text text-anchor="start" x="455" y="-531.75" font-family="Cascadia Code NF" font-size="10.00">::CallWithSpread</text>
<text text-anchor="start" x="500" y="-515.5" font-family="Cascadia Code NF" font-size="10.00"> </text>
<text text-anchor="start" x="438" y="-499.5" font-family="Cascadia Code NF" font-size="10.00">+</text>
<text text-anchor="start" x="448" y="-499.5" font-family="Cascadia Code NF" font-size="10.00">CallWithSpread()</text>
<text text-anchor="start" x="438" y="-483.5" font-family="Cascadia Code NF" font-size="10.00">+</text>
<text text-anchor="start" x="448" y="-483.5" font-family="Cascadia Code NF" font-size="10.00">function()</text>
<text text-anchor="start" x="438" y="-467.5" font-family="Cascadia Code NF" font-size="10.00">+</text>
<text text-anchor="start" x="448" y="-467.5" font-family="Cascadia Code NF" font-size="10.00">function()</text>
<text text-anchor="start" x="438" y="-451.5" font-family="Cascadia Code NF" font-size="10.00">+</text>
<text text-anchor="start" x="448" y="-451.5" font-family="Cascadia Code NF" font-size="10.00">context()</text>
<text text-anchor="start" x="438" y="-435.5" font-family="Cascadia Code NF" font-size="10.00">+</text>
<text text-anchor="start" x="448" y="-435.5" font-family="Cascadia Code NF" font-size="10.00">context()</text>
<text text-anchor="start" x="438" y="-419.5" font-family="Cascadia Code NF" font-size="10.00">+</text>
<text text-anchor="start" x="448" y="-419.5" font-family="Cascadia Code NF" font-size="10.00">num_args()</text>
<text text-anchor="start" x="438" y="-403.5" font-family="Cascadia Code NF" font-size="10.00">+</text>
<text text-anchor="start" x="448" y="-403.5" font-family="Cascadia Code NF" font-size="10.00">num_args_no_spread()</text>
<text text-anchor="start" x="438" y="-387.5" font-family="Cascadia Code NF" font-size="10.00">+</text>
<text text-anchor="start" x="448" y="-387.5" font-family="Cascadia Code NF" font-size="10.00">arg()</text>
<text text-anchor="start" x="438" y="-371.5" font-family="Cascadia Code NF" font-size="10.00">+</text>
<text text-anchor="start" x="448" y="-371.5" font-family="Cascadia Code NF" font-size="10.00">set_arg()</text>
<text text-anchor="start" x="438" y="-355.5" font-family="Cascadia Code NF" font-size="10.00">+</text>
<text text-anchor="start" x="448" y="-355.5" font-family="Cascadia Code NF" font-size="10.00">args_no_spread()</text>
<text text-anchor="start" x="448" y="-339.5" font-family="Cascadia Code NF" font-size="10.00">and 7 more...</text>
<polygon fill="#666666" stroke="#666666" points="434,-527 434,-527 572,-527 572,-527 434,-527"/>
<polygon fill="#666666" stroke="#666666" points="434,-511 434,-511 572,-511 572,-511 434,-511"/>
<polygon fill="none" stroke="#666666" points="434,-333 434,-558 572,-558 572,-333 434,-333"/>
</a>
</g>
</g>
<!-- Node2 -->
<g id="Node000002" class="node">
<title>Node2</title>
<g id="a_Node000002"><a xlink:href="../../dc/d85/classv8_1_1internal_1_1maglev_1_1NodeTMixin.html" target="_top" xlink:title=" ">
<polygon fill="white" stroke="none" points="296,-605.5 118,-605.5 118,-489.5 296,-489.5 296,-605.5"/>
<text text-anchor="start" x="123" y="-592" font-family="Cascadia Code NF" font-size="10.00">ValueNodeT&lt; CallWithSpread &gt;</text>
<text text-anchor="start" x="204" y="-576" font-family="Cascadia Code NF" font-size="10.00"> </text>
<text text-anchor="start" x="144" y="-560" font-family="Cascadia Code NF" font-size="10.00">+</text>
<text text-anchor="start" x="176" y="-560" font-family="Cascadia Code NF" font-size="10.00">opcode()</text>
<text text-anchor="start" x="144" y="-544" font-family="Cascadia Code NF" font-size="10.00">+</text>
<text text-anchor="start" x="176" y="-544" font-family="Cascadia Code NF" font-size="10.00">properties()</text>
<text text-anchor="start" x="144" y="-528" font-family="Cascadia Code NF" font-size="10.00">+</text>
<text text-anchor="start" x="176" y="-528" font-family="Cascadia Code NF" font-size="10.00">New()</text>
<text text-anchor="start" x="144" y="-512" font-family="Cascadia Code NF" font-size="10.00">+</text>
<text text-anchor="start" x="176" y="-512" font-family="Cascadia Code NF" font-size="10.00">New()</text>
<text text-anchor="start" x="144" y="-496" font-family="Cascadia Code NF" font-size="10.00">#</text>
<text text-anchor="start" x="176" y="-496" font-family="Cascadia Code NF" font-size="10.00">NodeTMixin()</text>
<polygon fill="#bfbfbf" stroke="#bfbfbf" points="118,-587.5 118,-587.5 296,-587.5 296,-587.5 118,-587.5"/>
<polygon fill="#bfbfbf" stroke="#bfbfbf" points="118,-571.5 118,-571.5 296,-571.5 296,-571.5 118,-571.5"/>
<polygon fill="none" stroke="#bfbfbf" points="118,-489.5 118,-605.5 296,-605.5 296,-489.5 118,-489.5"/>
</a>
</g>
</g>
<!-- Node2&#45;&gt;Node1 -->
<g id="edge1_Node000001_Node000002" class="edge">
<title>Node2&#45;&gt;Node1</title>
<g id="a_edge1_Node000001_Node000002"><a xlink:title=" ">
<path fill="none" stroke="#63b8ff" d="M306.6,-522.83C341.58,-513.09 380.96,-500.99 416,-487.5 422.05,-485.17 428.25,-482.58 434.42,-479.85"/>
<polygon fill="none" stroke="#63b8ff" points="306.06,-519.35 297.35,-525.38 307.92,-526.1 306.06,-519.35"/>
</a>
</g>
</g>
<!-- Node3 -->
<g id="Node000003" class="node">
<title>Node3</title>
<g id="a_Node000003"><a xlink:title=" ">
<polygon fill="white" stroke="none" points="37,-573.5 3,-573.5 3,-521.5 37,-521.5 37,-573.5"/>
<text text-anchor="start" x="8" y="-560" font-family="Cascadia Code NF" font-size="10.00">Base</text>
<text text-anchor="start" x="17" y="-544" font-family="Cascadia Code NF" font-size="10.00"> </text>
<text text-anchor="start" x="17" y="-528" font-family="Cascadia Code NF" font-size="10.00"> </text>
<polygon fill="#bfbfbf" stroke="#bfbfbf" points="3,-555.5 3,-555.5 37,-555.5 37,-555.5 3,-555.5"/>
<polygon fill="#bfbfbf" stroke="#bfbfbf" points="3,-539.5 3,-539.5 37,-539.5 37,-539.5 3,-539.5"/>
<polygon fill="none" stroke="#bfbfbf" points="3,-521.5 3,-573.5 37,-573.5 37,-521.5 3,-521.5"/>
</a>
</g>
</g>
<!-- Node3&#45;&gt;Node2 -->
<g id="edge2_Node000002_Node000003" class="edge">
<title>Node3&#45;&gt;Node2</title>
<g id="a_edge2_Node000002_Node000003"><a xlink:title=" ">
<path fill="none" stroke="#63b8ff" d="M48.21,-547.5C66.93,-547.5 92.93,-547.5 118.42,-547.5"/>
<polygon fill="none" stroke="#63b8ff" points="48.29,-544 38.29,-547.5 48.29,-551 48.29,-544"/>
</a>
</g>
</g>
<!-- Node4 -->
<g id="Node000004" class="node">
<title>Node4</title>
<g id="a_Node000004"><a xlink:href="../../d1/da0/classint.html" target="_top" xlink:title=" ">
<polygon fill="white" stroke="none" points="221,-471.5 193,-471.5 193,-419.5 221,-419.5 221,-471.5"/>
<text text-anchor="start" x="198" y="-458" font-family="Cascadia Code NF" font-size="10.00">int</text>
<text text-anchor="start" x="204" y="-442" font-family="Cascadia Code NF" font-size="10.00"> </text>
<text text-anchor="start" x="204" y="-426" font-family="Cascadia Code NF" font-size="10.00"> </text>
<polygon fill="#bfbfbf" stroke="#bfbfbf" points="193,-453.5 193,-453.5 221,-453.5 221,-453.5 193,-453.5"/>
<polygon fill="#bfbfbf" stroke="#bfbfbf" points="193,-437.5 193,-437.5 221,-437.5 221,-437.5 193,-437.5"/>
<polygon fill="none" stroke="#bfbfbf" points="193,-419.5 193,-471.5 221,-471.5 221,-419.5 193,-419.5"/>
</a>
</g>
</g>
<!-- Node4&#45;&gt;Node1 -->
<g id="edge3_Node000001_Node000004" class="edge">
<title>Node4&#45;&gt;Node1</title>
<g id="a_edge3_Node000001_Node000004"><a xlink:title=" ">
<path fill="none" stroke="#63b8ff" d="M220.63,-445.5C254.73,-445.5 350.78,-445.5 421.21,-445.5"/>
<polygon fill="none" stroke="#63b8ff" points="421.14,-445.5 427.14,-441.5 433.14,-445.5 427.14,-449.5 421.14,-445.5"/>
</a>
</g>
<text text-anchor="middle" x="365" y="-474.25" font-family="Cascadia Code NF" font-size="10.00" fill="grey"> +kContextIndex</text>
<text text-anchor="middle" x="365" y="-461.5" font-family="Cascadia Code NF" font-size="10.00" fill="grey">+kFixedInputCount</text>
<text text-anchor="middle" x="365" y="-448.75" font-family="Cascadia Code NF" font-size="10.00" fill="grey">+kFunctionIndex</text>
</g>
<!-- Node5 -->
<g id="Node000005" class="node">
<title>Node5</title>
<g id="a_Node000005"><a xlink:href="../../df/db9/classv8_1_1internal_1_1maglev_1_1OpProperties.html" target="_top" xlink:title=" ">
<polygon fill="white" stroke="none" points="279,-401 135,-401 135,0 279,0 279,-401"/>
<text text-anchor="start" x="147" y="-387.5" font-family="Cascadia Code NF" font-size="10.00">v8::internal::maglev</text>
<text text-anchor="start" x="165" y="-374.75" font-family="Cascadia Code NF" font-size="10.00">::OpProperties</text>
<text text-anchor="start" x="204" y="-358.5" font-family="Cascadia Code NF" font-size="10.00"> </text>
<text text-anchor="start" x="139" y="-342.5" font-family="Cascadia Code NF" font-size="10.00">+</text>
<text text-anchor="start" x="149" y="-342.5" font-family="Cascadia Code NF" font-size="10.00">is_call()</text>
<text text-anchor="start" x="139" y="-326.5" font-family="Cascadia Code NF" font-size="10.00">+</text>
<text text-anchor="start" x="149" y="-326.5" font-family="Cascadia Code NF" font-size="10.00">is_any_call()</text>
<text text-anchor="start" x="139" y="-310.5" font-family="Cascadia Code NF" font-size="10.00">+</text>
<text text-anchor="start" x="149" y="-310.5" font-family="Cascadia Code NF" font-size="10.00">can_eager_deopt()</text>
<text text-anchor="start" x="139" y="-294.5" font-family="Cascadia Code NF" font-size="10.00">+</text>
<text text-anchor="start" x="149" y="-294.5" font-family="Cascadia Code NF" font-size="10.00">can_lazy_deopt()</text>
<text text-anchor="start" x="139" y="-278.5" font-family="Cascadia Code NF" font-size="10.00">+</text>
<text text-anchor="start" x="149" y="-278.5" font-family="Cascadia Code NF" font-size="10.00">is_deopt_checkpoint()</text>
<text text-anchor="start" x="139" y="-262.5" font-family="Cascadia Code NF" font-size="10.00">+</text>
<text text-anchor="start" x="149" y="-262.5" font-family="Cascadia Code NF" font-size="10.00">can_deopt()</text>
<text text-anchor="start" x="139" y="-246.5" font-family="Cascadia Code NF" font-size="10.00">+</text>
<text text-anchor="start" x="149" y="-246.5" font-family="Cascadia Code NF" font-size="10.00">can_throw()</text>
<text text-anchor="start" x="139" y="-230.5" font-family="Cascadia Code NF" font-size="10.00">+</text>
<text text-anchor="start" x="149" y="-230.5" font-family="Cascadia Code NF" font-size="10.00">can_read()</text>
<text text-anchor="start" x="139" y="-214.5" font-family="Cascadia Code NF" font-size="10.00">+</text>
<text text-anchor="start" x="149" y="-214.5" font-family="Cascadia Code NF" font-size="10.00">can_write()</text>
<text text-anchor="start" x="139" y="-198.5" font-family="Cascadia Code NF" font-size="10.00">+</text>
<text text-anchor="start" x="149" y="-198.5" font-family="Cascadia Code NF" font-size="10.00">can_allocate()</text>
<text text-anchor="start" x="149" y="-182.5" font-family="Cascadia Code NF" font-size="10.00">and 14 more...</text>
<text text-anchor="start" x="139" y="-166.5" font-family="Cascadia Code NF" font-size="10.00">+</text>
<text text-anchor="start" x="149" y="-166.5" font-family="Cascadia Code NF" font-size="10.00">Pure()</text>
<text text-anchor="start" x="139" y="-150.5" font-family="Cascadia Code NF" font-size="10.00">+</text>
<text text-anchor="start" x="149" y="-150.5" font-family="Cascadia Code NF" font-size="10.00">Call()</text>
<text text-anchor="start" x="139" y="-134.5" font-family="Cascadia Code NF" font-size="10.00">+</text>
<text text-anchor="start" x="149" y="-134.5" font-family="Cascadia Code NF" font-size="10.00">EagerDeopt()</text>
<text text-anchor="start" x="139" y="-118.5" font-family="Cascadia Code NF" font-size="10.00">+</text>
<text text-anchor="start" x="149" y="-118.5" font-family="Cascadia Code NF" font-size="10.00">LazyDeopt()</text>
<text text-anchor="start" x="139" y="-102.5" font-family="Cascadia Code NF" font-size="10.00">+</text>
<text text-anchor="start" x="149" y="-102.5" font-family="Cascadia Code NF" font-size="10.00">DeoptCheckpoint()</text>
<text text-anchor="start" x="139" y="-86.5" font-family="Cascadia Code NF" font-size="10.00">+</text>
<text text-anchor="start" x="149" y="-86.5" font-family="Cascadia Code NF" font-size="10.00">CanThrow()</text>
<text text-anchor="start" x="139" y="-70.5" font-family="Cascadia Code NF" font-size="10.00">+</text>
<text text-anchor="start" x="149" y="-70.5" font-family="Cascadia Code NF" font-size="10.00">CanRead()</text>
<text text-anchor="start" x="139" y="-54.5" font-family="Cascadia Code NF" font-size="10.00">+</text>
<text text-anchor="start" x="149" y="-54.5" font-family="Cascadia Code NF" font-size="10.00">CanWrite()</text>
<text text-anchor="start" x="139" y="-38.5" font-family="Cascadia Code NF" font-size="10.00">+</text>
<text text-anchor="start" x="149" y="-38.5" font-family="Cascadia Code NF" font-size="10.00">CanAllocate()</text>
<text text-anchor="start" x="139" y="-22.5" font-family="Cascadia Code NF" font-size="10.00">+</text>
<text text-anchor="start" x="149" y="-22.5" font-family="Cascadia Code NF" font-size="10.00">NotIdempotent()</text>
<text text-anchor="start" x="149" y="-6.5" font-family="Cascadia Code NF" font-size="10.00">and 13 more...</text>
<polygon fill="#bfbfbf" stroke="#bfbfbf" points="135,-370 135,-370 279,-370 279,-370 135,-370"/>
<polygon fill="#bfbfbf" stroke="#bfbfbf" points="135,-354 135,-354 279,-354 279,-354 135,-354"/>
<polygon fill="none" stroke="#bfbfbf" points="135,0 135,-401 279,-401 279,0 135,0"/>
</a>
</g>
</g>
<!-- Node5&#45;&gt;Node1 -->
<g id="edge4_Node000001_Node000005" class="edge">
<title>Node5&#45;&gt;Node1</title>
<g id="a_edge4_Node000001_Node000005"><a xlink:title=" ">
<path fill="none" stroke="#63b8ff" d="M278.79,-259.5C322.72,-296.1 379.2,-343.16 424.35,-380.79"/>
<polygon fill="none" stroke="#63b8ff" points="424.18,-380.65 431.35,-381.42 433.4,-388.34 426.23,-387.57 424.18,-380.65"/>
</a>
</g>
<text text-anchor="middle" x="365" y="-375.75" font-family="Cascadia Code NF" font-size="10.00" fill="grey"> +kProperties</text>
</g>
<!-- Node6 -->
<g id="Node000006" class="node">
<title>Node6</title>
<g id="a_Node000006"><a xlink:title=" ">
<polygon fill="white" stroke="none" points="40,-226.5 0,-226.5 0,-174.5 40,-174.5 40,-226.5"/>
<text text-anchor="start" x="5" y="-213" font-family="Cascadia Code NF" font-size="10.00">const</text>
<text text-anchor="start" x="17" y="-197" font-family="Cascadia Code NF" font-size="10.00"> </text>
<text text-anchor="start" x="17" y="-181" font-family="Cascadia Code NF" font-size="10.00"> </text>
<polygon fill="#bfbfbf" stroke="#bfbfbf" points="0,-208.5 0,-208.5 40,-208.5 40,-208.5 0,-208.5"/>
<polygon fill="#bfbfbf" stroke="#bfbfbf" points="0,-192.5 0,-192.5 40,-192.5 40,-192.5 0,-192.5"/>
<polygon fill="none" stroke="#bfbfbf" points="0,-174.5 0,-226.5 40,-226.5 40,-174.5 0,-174.5"/>
</a>
</g>
</g>
<!-- Node6&#45;&gt;Node5 -->
<g id="edge5_Node000005_Node000006" class="edge">
<title>Node6&#45;&gt;Node5</title>
<g id="a_edge5_Node000005_Node000006"><a xlink:title=" ">
<path fill="none" stroke="#63b8ff" d="M39.76,-200.5C59.29,-200.5 91.27,-200.5 121.99,-200.5"/>
<polygon fill="none" stroke="#63b8ff" points="122.14,-200.5 128.14,-196.5 134.14,-200.5 128.14,-204.5 122.14,-200.5"/>
</a>
</g>
<text text-anchor="middle" x="79" y="-203.75" font-family="Cascadia Code NF" font-size="10.00" fill="grey"> +kSize</text>
</g>
</g>
</svg>

<g id="navigator" transform="translate(0 0)" fill="#404254">
  <rect fill="#f2f5e9" fill-opacity="0.5" stroke="#606060" stroke-width=".5" x="0" y="0" width="60" height="60"/>
  <use id="zoomplus" xlink:href="#zoomPlus" x="17" y="9" onmousedown="handleZoom(evt,'in')"/>
  <use id="zoomminus" xlink:href="#zoomMin" x="42" y="9" onmousedown="handleZoom(evt,'out')"/>
  <use id="reset" xlink:href="#resetDef" x="30" y="36" onmousedown="handleReset()"/>
   <use id="arrowup" xlink:href="#arrowUp" x="0" y="0" onmousedown="handlePan(0,-1)"/>
  <use id="arrowright" xlink:href="#arrowRight" x="0" y="0" onmousedown="handlePan(1,0)"/>
  <use id="arrowdown" xlink:href="#arrowDown" x="0" y="0" onmousedown="handlePan(0,1)"/>
  <use id="arrowleft" xlink:href="#arrowLeft" x="0" y="0" onmousedown="handlePan(-1,0)"/>
</g>
<svg viewBox="0 0 15 15" width="100%" height="30px" preserveAspectRatio="xMaxYMin meet">
 <g id="arrow_out" transform="scale(0.3 0.3)">
  <a xlink:href="classv8_1_1internal_1_1maglev_1_1CallWithSpread__coll__graph_org.svg" target="_base">
   <rect id="button" ry="5" rx="5" y="6" x="6" height="38" width="38"
        fill="#f2f5e9" fill-opacity="0.5" stroke="#606060" stroke-width="1.0"/>
   <path id="arrow"
     d="M 11.500037,31.436501 C 11.940474,20.09759 22.043105,11.32322 32.158766,21.979434 L 37.068811,17.246167 C 37.068811,17.246167 37.088388,32 37.088388,32 L 22.160133,31.978069 C 22.160133,31.978069 26.997745,27.140456 26.997745,27.140456 C 18.528582,18.264221 13.291696,25.230495 11.500037,31.436501 z"
     style="fill:#404040;"/>
  </a>
 </g>
</svg>

<style type='text/css'>
<![CDATA[
[data-mouse-over-selected='false'] { opacity: 0.7; }
[data-mouse-over-selected='true']  { opacity: 1.0; }
]]>
</style>
<script type="application/ecmascript"><![CDATA[
document.addEventListener('DOMContentLoaded', (event) => {
  highlightEdges();
  highlightAdjacentNodes();
});
]]></script>
</svg>
