<?xml version="1.0" encoding="UTF-8" standalone="no"?>
<!DOCTYPE svg PUBLIC "-//W3C//DTD SVG 1.1//EN"
 "http://www.w3.org/Graphics/SVG/1.1/DTD/svg11.dtd">
<!-- Generated by graphviz version 11.0.0 (20240428.1522)
 -->
<!-- Title: v8::internal::LowDwVfpRegister Pages: 1 -->
<svg width="632pt" height="185pt"
 viewBox="0.00 0.00 632.00 185.00" xmlns="http://www.w3.org/2000/svg" xmlns:xlink="http://www.w3.org/1999/xlink">
<g id="graph0" class="graph" transform="scale(1 1) rotate(0) translate(4 181)">
<title>v8::internal::LowDwVfpRegister</title>
<!-- Node1 -->
<g id="Node000001" class="node">
<title>Node1</title>
<g id="a_Node000001"><a xlink:title=" ">
<polygon fill="#999999" stroke="none" points="624,-138.5 434,-138.5 434,-38.5 624,-38.5 624,-138.5"/>
<text text-anchor="start" x="439" y="-125" font-family="Cascadia Code NF" font-size="10.00">v8::internal::LowDwVfpRegister</text>
<text text-anchor="start" x="526" y="-109" font-family="Cascadia Code NF" font-size="10.00"> </text>
<text text-anchor="start" x="445" y="-93" font-family="Cascadia Code NF" font-size="10.00">+</text>
<text text-anchor="start" x="462" y="-93" font-family="Cascadia Code NF" font-size="10.00">operator DwVfpRegister()</text>
<text text-anchor="start" x="445" y="-77" font-family="Cascadia Code NF" font-size="10.00">+</text>
<text text-anchor="start" x="462" y="-77" font-family="Cascadia Code NF" font-size="10.00">low()</text>
<text text-anchor="start" x="445" y="-61" font-family="Cascadia Code NF" font-size="10.00">+</text>
<text text-anchor="start" x="462" y="-61" font-family="Cascadia Code NF" font-size="10.00">high()</text>
<text text-anchor="start" x="445" y="-45" font-family="Cascadia Code NF" font-size="10.00">+</text>
<text text-anchor="start" x="462" y="-45" font-family="Cascadia Code NF" font-size="10.00">ToVfpRegList()</text>
<polygon fill="#666666" stroke="#666666" points="434,-120.5 434,-120.5 624,-120.5 624,-120.5 434,-120.5"/>
<polygon fill="#666666" stroke="#666666" points="434,-104.5 434,-104.5 624,-104.5 624,-104.5 434,-104.5"/>
<polygon fill="none" stroke="#666666" points="434,-38.5 434,-138.5 624,-138.5 624,-38.5 434,-38.5"/>
</a>
</g>
</g>
<!-- Node2 -->
<g id="Node000002" class="node">
<title>Node2</title>
<g id="a_Node000002"><a xlink:href="../../da/d96/classv8_1_1internal_1_1RegisterBase.html" target="_top" xlink:title=" ">
<polygon fill="white" stroke="none" points="398,-177 166,-177 166,0 398,0 398,-177"/>
<text text-anchor="start" x="171" y="-163.5" font-family="Cascadia Code NF" font-size="10.00">v8::internal::RegisterBase</text>
<text text-anchor="start" x="171" y="-150.75" font-family="Cascadia Code NF" font-size="10.00">&lt; LowDwVfpRegister, kDoubleCode_d16 &gt;</text>
<text text-anchor="start" x="279" y="-134.5" font-family="Cascadia Code NF" font-size="10.00"> </text>
<text text-anchor="start" x="187.5" y="-118.5" font-family="Cascadia Code NF" font-size="10.00">+</text>
<text text-anchor="start" x="215" y="-118.5" font-family="Cascadia Code NF" font-size="10.00">is_valid()</text>
<text text-anchor="start" x="187.5" y="-102.5" font-family="Cascadia Code NF" font-size="10.00">+</text>
<text text-anchor="start" x="215" y="-102.5" font-family="Cascadia Code NF" font-size="10.00">code()</text>
<text text-anchor="start" x="187.5" y="-86.5" font-family="Cascadia Code NF" font-size="10.00">+</text>
<text text-anchor="start" x="215" y="-86.5" font-family="Cascadia Code NF" font-size="10.00">operator==()</text>
<text text-anchor="start" x="187.5" y="-70.5" font-family="Cascadia Code NF" font-size="10.00">+</text>
<text text-anchor="start" x="215" y="-70.5" font-family="Cascadia Code NF" font-size="10.00">operator!=()</text>
<text text-anchor="start" x="187.5" y="-54.5" font-family="Cascadia Code NF" font-size="10.00">+</text>
<text text-anchor="start" x="215" y="-54.5" font-family="Cascadia Code NF" font-size="10.00">no_reg()</text>
<text text-anchor="start" x="187.5" y="-38.5" font-family="Cascadia Code NF" font-size="10.00">+</text>
<text text-anchor="start" x="215" y="-38.5" font-family="Cascadia Code NF" font-size="10.00">from_code()</text>
<text text-anchor="start" x="187.5" y="-22.5" font-family="Cascadia Code NF" font-size="10.00">+</text>
<text text-anchor="start" x="215" y="-22.5" font-family="Cascadia Code NF" font-size="10.00">GetSpecialRegisterName()</text>
<text text-anchor="start" x="187.5" y="-6.5" font-family="Cascadia Code NF" font-size="10.00">#</text>
<text text-anchor="start" x="215" y="-6.5" font-family="Cascadia Code NF" font-size="10.00">RegisterBase()</text>
<polygon fill="#bfbfbf" stroke="#bfbfbf" points="166,-146 166,-146 398,-146 398,-146 166,-146"/>
<polygon fill="#bfbfbf" stroke="#bfbfbf" points="166,-130 166,-130 398,-130 398,-130 166,-130"/>
<polygon fill="none" stroke="#bfbfbf" points="166,0 166,-177 398,-177 398,0 166,0"/>
</a>
</g>
</g>
<!-- Node2&#45;&gt;Node1 -->
<g id="edge1_Node000001_Node000002" class="edge">
<title>Node2&#45;&gt;Node1</title>
<g id="a_edge1_Node000001_Node000002"><a xlink:title=" ">
<path fill="none" stroke="#63b8ff" d="M409.4,-88.5C417.79,-88.5 426.15,-88.5 434.33,-88.5"/>
<polygon fill="none" stroke="#63b8ff" points="409.48,-85 399.48,-88.5 409.48,-92 409.48,-85"/>
</a>
</g>
</g>
<!-- Node3 -->
<g id="Node000003" class="node">
<title>Node3</title>
<g id="a_Node000003"><a xlink:href="../../d9/df1/classint8__t.html" target="_top" xlink:title=" ">
<polygon fill="white" stroke="none" points="46,-114.5 0,-114.5 0,-62.5 46,-62.5 46,-114.5"/>
<text text-anchor="start" x="5" y="-101" font-family="Cascadia Code NF" font-size="10.00">int8_t</text>
<text text-anchor="start" x="20" y="-85" font-family="Cascadia Code NF" font-size="10.00"> </text>
<text text-anchor="start" x="20" y="-69" font-family="Cascadia Code NF" font-size="10.00"> </text>
<polygon fill="#bfbfbf" stroke="#bfbfbf" points="0,-96.5 0,-96.5 46,-96.5 46,-96.5 0,-96.5"/>
<polygon fill="#bfbfbf" stroke="#bfbfbf" points="0,-80.5 0,-80.5 46,-80.5 46,-80.5 0,-80.5"/>
<polygon fill="none" stroke="#bfbfbf" points="0,-62.5 0,-114.5 46,-114.5 46,-62.5 0,-62.5"/>
</a>
</g>
</g>
<!-- Node3&#45;&gt;Node2 -->
<g id="edge2_Node000002_Node000003" class="edge">
<title>Node3&#45;&gt;Node2</title>
<g id="a_edge2_Node000002_Node000003"><a xlink:title=" ">
<path fill="none" stroke="#63b8ff" d="M45.91,-88.5C70.33,-88.5 111.86,-88.5 153.28,-88.5"/>
<polygon fill="none" stroke="#63b8ff" points="153.21,-88.5 159.21,-84.5 165.21,-88.5 159.21,-92.5 153.21,-88.5"/>
</a>
</g>
<text text-anchor="middle" x="106" y="-104.5" font-family="Cascadia Code NF" font-size="10.00" fill="grey"> +kCode_no_reg</text>
<text text-anchor="middle" x="106" y="-91.75" font-family="Cascadia Code NF" font-size="10.00" fill="grey">+kNumRegisters</text>
</g>
</g>
</svg>
