<?xml version="1.0" encoding="UTF-8" standalone="no"?>
<!DOCTYPE svg PUBLIC "-//W3C//DTD SVG 1.1//EN"
 "http://www.w3.org/Graphics/SVG/1.1/DTD/svg11.dtd">
<!-- Generated by graphviz version 11.0.0 (20240428.1522)
 -->
<!-- Title: v8::internal::torque::CSAGenerator Pages: 1 -->
<!--zoomable 809 -->

<svg id="main" version="1.1" xmlns="http://www.w3.org/2000/svg" xmlns:xlink="http://www.w3.org/1999/xlink" xml:space="preserve" onload="init(evt)">
<style type="text/css"><![CDATA[
.node, .edge {opacity: 0.7;}
.node.selected, .edge.selected {opacity: 1;}
.edge:hover path { stroke: red; }
.edge:hover polygon { stroke: red; fill: red; }
svg#main { background-color: #111; }
]]></style>

<defs>
  <circle id="rim" cx="0" cy="0" r="7"/>
  <circle id="rim2" cx="0" cy="0" r="3.5"/>
  <g id="zoomPlus">
    <use xlink:href="#rim" fill="#404040"><set attributeName="fill" to="#808080" begin="zoomplus.mouseover" end="zoomplus.mouseout"/></use>
    <path d="M-4,0h8M0,-4v8" fill="none" stroke="white" stroke-width="1.5" pointer-events="none"/>
  </g>
  <g id="zoomMin">
    <use xlink:href="#rim" fill="#404040"><set attributeName="fill" to="#808080" begin="zoomminus.mouseover" end="zoomminus.mouseout"/></use>
    <path d="M-4,0h8" fill="none" stroke="white" stroke-width="1.5" pointer-events="none"/>
  </g>
  <g id="arrowUp" transform="translate(30 24)">
    <use xlink:href="#rim"/>
    <path pointer-events="none" fill="none" stroke="white" stroke-width="1.5" d="M0,-3.0v7 M-2.5,-0.5L0,-3.0L2.5,-0.5"/>
  </g>
  <g id="arrowRight" transform="rotate(90) translate(36 -43)">
    <use xlink:href="#rim"/>
    <path pointer-events="none" fill="none" stroke="white" stroke-width="1.5" d="M0,-3.0v7 M-2.5,-0.5L0,-3.0L2.5,-0.5"/>
  </g>
  <g id="arrowDown" transform="rotate(180) translate(-30 -48)">
    <use xlink:href="#rim"/>
    <path pointer-events="none" fill="none" stroke="white" stroke-width="1.5" d="M0,-3.0v7 M-2.5,-0.5L0,-3.0L2.5,-0.5"/>
  </g>
  <g id="arrowLeft" transform="rotate(270) translate(-36 17)">
    <use xlink:href="#rim"/>
    <path pointer-events="none" fill="none" stroke="white" stroke-width="1.5" d="M0,-3.0v7 M-2.5,-0.5L0,-3.0L2.5,-0.5"/>
  </g>
  <g id="resetDef">
    <use xlink:href="#rim2" fill="#404040"><set attributeName="fill" to="#808080" begin="reset.mouseover" end="reset.mouseout"/></use>
  </g>
</defs>
<script type="application/ecmascript">
var viewWidth = 1303;
var viewHeight = 809;
var sectionId = 'dynsection-1';
</script>
<script type="application/ecmascript" xlink:href="../../svg.min.js"/>
<svg id="graph" class="graph">
<g id="viewport">
<title>v8::internal::torque::CSAGenerator</title>
<!-- Node1 -->
<g id="Node000001" class="node">
<title>Node1</title>
<g id="a_Node000001"><a xlink:title=" ">
<polygon fill="#999999" stroke="none" points="1295,-742 1165,-742 1165,-645 1295,-645 1295,-742"/>
<text text-anchor="start" x="1170" y="-728.5" font-family="Cascadia Code NF" font-size="10.00">v8::internal::torque</text>
<text text-anchor="start" x="1188" y="-715.75" font-family="Cascadia Code NF" font-size="10.00">::CSAGenerator</text>
<text text-anchor="start" x="1227" y="-699.5" font-family="Cascadia Code NF" font-size="10.00"> </text>
<text text-anchor="start" x="1176" y="-683.5" font-family="Cascadia Code NF" font-size="10.00">+</text>
<text text-anchor="start" x="1193" y="-683.5" font-family="Cascadia Code NF" font-size="10.00">CSAGenerator()</text>
<text text-anchor="start" x="1176" y="-667.5" font-family="Cascadia Code NF" font-size="10.00">+</text>
<text text-anchor="start" x="1193" y="-667.5" font-family="Cascadia Code NF" font-size="10.00">EmitGraph()</text>
<text text-anchor="start" x="1176" y="-651.5" font-family="Cascadia Code NF" font-size="10.00">+</text>
<text text-anchor="start" x="1193" y="-651.5" font-family="Cascadia Code NF" font-size="10.00">EmitCSAValue()</text>
<polygon fill="#666666" stroke="#666666" points="1165,-711 1165,-711 1295,-711 1295,-711 1165,-711"/>
<polygon fill="#666666" stroke="#666666" points="1165,-695 1165,-695 1295,-695 1295,-695 1165,-695"/>
<polygon fill="none" stroke="#666666" points="1165,-645 1165,-742 1295,-742 1295,-645 1165,-645"/>
</a>
</g>
</g>
<!-- Node2 -->
<g id="Node000002" class="node">
<title>Node2</title>
<g id="a_Node000002"><a xlink:href="../../df/dc4/classv8_1_1internal_1_1torque_1_1TorqueCodeGenerator.html" target="_top" xlink:title=" ">
<polygon fill="white" stroke="none" points="1128,-740 972,-740 972,-483 1128,-483 1128,-740"/>
<text text-anchor="start" x="987" y="-726.5" font-family="Cascadia Code NF" font-size="10.00">v8::internal::torque</text>
<text text-anchor="start" x="987" y="-713.75" font-family="Cascadia Code NF" font-size="10.00">::TorqueCodeGenerator</text>
<text text-anchor="start" x="1047" y="-697.5" font-family="Cascadia Code NF" font-size="10.00"> </text>
<text text-anchor="start" x="976" y="-681.5" font-family="Cascadia Code NF" font-size="10.00">+</text>
<text text-anchor="start" x="986" y="-681.5" font-family="Cascadia Code NF" font-size="10.00">TorqueCodeGenerator()</text>
<text text-anchor="start" x="976" y="-665.5" font-family="Cascadia Code NF" font-size="10.00">#</text>
<text text-anchor="start" x="986" y="-665.5" font-family="Cascadia Code NF" font-size="10.00">DefinitionToVariable()</text>
<text text-anchor="start" x="976" y="-649.5" font-family="Cascadia Code NF" font-size="10.00">#</text>
<text text-anchor="start" x="986" y="-649.5" font-family="Cascadia Code NF" font-size="10.00">SetDefinitionVariable()</text>
<text text-anchor="start" x="976" y="-633.5" font-family="Cascadia Code NF" font-size="10.00">#</text>
<text text-anchor="start" x="986" y="-633.5" font-family="Cascadia Code NF" font-size="10.00">out()</text>
<text text-anchor="start" x="976" y="-617.5" font-family="Cascadia Code NF" font-size="10.00">#</text>
<text text-anchor="start" x="986" y="-617.5" font-family="Cascadia Code NF" font-size="10.00">decls()</text>
<text text-anchor="start" x="976" y="-601.5" font-family="Cascadia Code NF" font-size="10.00">#</text>
<text text-anchor="start" x="986" y="-601.5" font-family="Cascadia Code NF" font-size="10.00">EmitSourcePosition()</text>
<text text-anchor="start" x="976" y="-585.5" font-family="Cascadia Code NF" font-size="10.00">#</text>
<text text-anchor="start" x="986" y="-585.5" font-family="Cascadia Code NF" font-size="10.00">FreshNodeName()</text>
<text text-anchor="start" x="976" y="-569.5" font-family="Cascadia Code NF" font-size="10.00">#</text>
<text text-anchor="start" x="986" y="-569.5" font-family="Cascadia Code NF" font-size="10.00">FreshCatchName()</text>
<text text-anchor="start" x="976" y="-553.5" font-family="Cascadia Code NF" font-size="10.00">#</text>
<text text-anchor="start" x="986" y="-553.5" font-family="Cascadia Code NF" font-size="10.00">FreshLabelName()</text>
<text text-anchor="start" x="976" y="-537.5" font-family="Cascadia Code NF" font-size="10.00">#</text>
<text text-anchor="start" x="986" y="-537.5" font-family="Cascadia Code NF" font-size="10.00">BlockName()</text>
<text text-anchor="start" x="976" y="-521.5" font-family="Cascadia Code NF" font-size="10.00">#</text>
<text text-anchor="start" x="986" y="-521.5" font-family="Cascadia Code NF" font-size="10.00">EmitInstruction()</text>
<text text-anchor="start" x="976" y="-505.5" font-family="Cascadia Code NF" font-size="10.00">#</text>
<text text-anchor="start" x="986" y="-505.5" font-family="Cascadia Code NF" font-size="10.00">EmitIRAnnotation()</text>
<text text-anchor="start" x="976" y="-489.5" font-family="Cascadia Code NF" font-size="10.00">#</text>
<text text-anchor="start" x="986" y="-489.5" font-family="Cascadia Code NF" font-size="10.00">IsEmptyInstruction()</text>
<polygon fill="#bfbfbf" stroke="#bfbfbf" points="972,-709 972,-709 1128,-709 1128,-709 972,-709"/>
<polygon fill="#bfbfbf" stroke="#bfbfbf" points="972,-693 972,-693 1128,-693 1128,-693 972,-693"/>
<polygon fill="none" stroke="#bfbfbf" points="972,-483 972,-740 1128,-740 1128,-483 972,-483"/>
</a>
</g>
</g>
<!-- Node2&#45;&gt;Node1 -->
<g id="edge1_Node000001_Node000002" class="edge">
<title>Node2&#45;&gt;Node1</title>
<g id="a_edge1_Node000001_Node000002"><a xlink:title=" ">
<path fill="none" stroke="#63b8ff" d="M1138.02,-651.59C1147.12,-655.78 1156.25,-659.98 1165.02,-664.03"/>
<polygon fill="none" stroke="#63b8ff" points="1139.7,-648.51 1129.15,-647.5 1136.77,-654.87 1139.7,-648.51"/>
</a>
</g>
</g>
<!-- Node3 -->
<g id="Node000003" class="node">
<title>Node3</title>
<g id="a_Node000003"><a xlink:title=" ">
<polygon fill="white" stroke="none" points="744,-799.5 704,-799.5 704,-747.5 744,-747.5 744,-799.5"/>
<text text-anchor="start" x="709" y="-786" font-family="Cascadia Code NF" font-size="10.00">const</text>
<text text-anchor="start" x="721" y="-770" font-family="Cascadia Code NF" font-size="10.00"> </text>
<text text-anchor="start" x="721" y="-754" font-family="Cascadia Code NF" font-size="10.00"> </text>
<polygon fill="#bfbfbf" stroke="#bfbfbf" points="704,-781.5 704,-781.5 744,-781.5 744,-781.5 704,-781.5"/>
<polygon fill="#bfbfbf" stroke="#bfbfbf" points="704,-765.5 704,-765.5 744,-765.5 744,-765.5 704,-765.5"/>
<polygon fill="none" stroke="#bfbfbf" points="704,-747.5 704,-799.5 744,-799.5 744,-747.5 704,-747.5"/>
</a>
</g>
</g>
<!-- Node3&#45;&gt;Node1 -->
<g id="edge16_Node000001_Node000003" class="edge">
<title>Node3&#45;&gt;Node1</title>
<g id="a_edge16_Node000001_Node000003"><a xlink:title=" ">
<path fill="none" stroke="#63b8ff" d="M744,-775.35C802.65,-780.45 985.51,-791.64 1128,-749.5 1136.49,-746.99 1145.06,-743.67 1153.43,-739.91"/>
<polygon fill="none" stroke="#63b8ff" points="1153.46,-739.9 1157.15,-733.7 1164.28,-734.72 1160.6,-740.92 1153.46,-739.9"/>
</a>
</g>
<text text-anchor="start" x="990" y="-791.5" font-family="Cascadia Code NF" font-size="10.00" fill="grey"> +ARGUMENTS_VARIABLE</text>
<text text-anchor="middle" x="1050" y="-778.75" font-family="Cascadia Code NF" font-size="10.00" fill="grey">_STRING</text>
</g>
<!-- Node3&#45;&gt;Node2 -->
<g id="edge2_Node000002_Node000003" class="edge">
<title>Node3&#45;&gt;Node2</title>
<g id="a_edge2_Node000002_Node000003"><a xlink:title=" ">
<path fill="none" stroke="#63b8ff" d="M743.88,-769.87C784.49,-761.49 882.22,-738.28 954,-696.5 956.49,-695.05 958.97,-693.53 961.43,-691.95"/>
<polygon fill="none" stroke="#63b8ff" points="961.47,-691.92 964.18,-685.24 971.4,-685.17 968.69,-691.85 961.47,-691.92"/>
</a>
</g>
<text text-anchor="middle" x="894" y="-747.75" font-family="Cascadia Code NF" font-size="10.00" fill="grey"> #cfg_</text>
</g>
<!-- Node4 -->
<g id="Node000004" class="node">
<title>Node4</title>
<g id="a_Node000004"><a xlink:title=" ">
<polygon fill="white" stroke="none" points="765,-723.5 683,-723.5 683,-671.5 765,-671.5 765,-723.5"/>
<text text-anchor="start" x="688" y="-710" font-family="Cascadia Code NF" font-size="10.00">std::ostream</text>
<text text-anchor="start" x="721" y="-694" font-family="Cascadia Code NF" font-size="10.00"> </text>
<text text-anchor="start" x="721" y="-678" font-family="Cascadia Code NF" font-size="10.00"> </text>
<polygon fill="#666666" stroke="#666666" points="683,-705.5 683,-705.5 765,-705.5 765,-705.5 683,-705.5"/>
<polygon fill="#666666" stroke="#666666" points="683,-689.5 683,-689.5 765,-689.5 765,-689.5 683,-689.5"/>
<polygon fill="none" stroke="#666666" points="683,-671.5 683,-723.5 765,-723.5 765,-671.5 683,-671.5"/>
</a>
</g>
</g>
<!-- Node4&#45;&gt;Node2 -->
<g id="edge3_Node000002_Node000004" class="edge">
<title>Node4&#45;&gt;Node2</title>
<g id="a_edge3_Node000002_Node000004"><a xlink:title=" ">
<path fill="none" stroke="#63b8ff" d="M764.73,-686.95C812.97,-674.15 895.79,-652.17 959.63,-635.22"/>
<polygon fill="none" stroke="#63b8ff" points="959.66,-635.21 964.43,-629.81 971.26,-632.14 966.48,-637.54 959.66,-635.21"/>
</a>
</g>
<text text-anchor="middle" x="894" y="-682.5" font-family="Cascadia Code NF" font-size="10.00" fill="grey"> #out_</text>
<text text-anchor="middle" x="894" y="-669.75" font-family="Cascadia Code NF" font-size="10.00" fill="grey">#out_decls_</text>
</g>
<!-- Node5 -->
<g id="Node000005" class="node">
<title>Node5</title>
<g id="a_Node000005"><a xlink:title=" ">
<polygon fill="white" stroke="none" points="523,-759 405,-759 405,-694 523,-694 523,-759"/>
<text text-anchor="start" x="410" y="-745.5" font-family="Cascadia Code NF" font-size="10.00">std::basic_ostream</text>
<text text-anchor="start" x="440" y="-732.75" font-family="Cascadia Code NF" font-size="10.00">&lt; Char &gt;</text>
<text text-anchor="start" x="461" y="-716.5" font-family="Cascadia Code NF" font-size="10.00"> </text>
<text text-anchor="start" x="461" y="-700.5" font-family="Cascadia Code NF" font-size="10.00"> </text>
<polygon fill="#666666" stroke="#666666" points="405,-728 405,-728 523,-728 523,-728 405,-728"/>
<polygon fill="#666666" stroke="#666666" points="405,-712 405,-712 523,-712 523,-712 405,-712"/>
<polygon fill="none" stroke="#666666" points="405,-694 405,-759 523,-759 523,-694 405,-694"/>
</a>
</g>
</g>
<!-- Node5&#45;&gt;Node4 -->
<g id="edge4_Node000004_Node000005" class="edge">
<title>Node5&#45;&gt;Node4</title>
<g id="a_edge4_Node000004_Node000005"><a xlink:title=" ">
<path fill="none" stroke="#63b8ff" d="M534.09,-718.73C581.83,-713.37 643.64,-706.42 683.32,-701.96"/>
<polygon fill="none" stroke="#63b8ff" points="533.95,-715.23 524.4,-719.82 534.73,-722.18 533.95,-715.23"/>
</a>
</g>
</g>
<!-- Node6 -->
<g id="Node000006" class="node">
<title>Node6</title>
<g id="a_Node000006"><a xlink:title=" ">
<polygon fill="white" stroke="none" points="266,-752.5 124,-752.5 124,-700.5 266,-700.5 266,-752.5"/>
<text text-anchor="start" x="129" y="-739" font-family="Cascadia Code NF" font-size="10.00">std::basic_ios&lt; Char &gt;</text>
<text text-anchor="start" x="192" y="-723" font-family="Cascadia Code NF" font-size="10.00"> </text>
<text text-anchor="start" x="192" y="-707" font-family="Cascadia Code NF" font-size="10.00"> </text>
<polygon fill="#666666" stroke="#666666" points="124,-734.5 124,-734.5 266,-734.5 266,-734.5 124,-734.5"/>
<polygon fill="#666666" stroke="#666666" points="124,-718.5 124,-718.5 266,-718.5 266,-718.5 124,-718.5"/>
<polygon fill="none" stroke="#666666" points="124,-700.5 124,-752.5 266,-752.5 266,-700.5 124,-700.5"/>
</a>
</g>
</g>
<!-- Node6&#45;&gt;Node5 -->
<g id="edge5_Node000005_Node000006" class="edge">
<title>Node6&#45;&gt;Node5</title>
<g id="a_edge5_Node000005_Node000006"><a xlink:title=" ">
<path fill="none" stroke="#63b8ff" d="M277.24,-726.5C318.6,-726.5 367.9,-726.5 405.31,-726.5"/>
<polygon fill="none" stroke="#63b8ff" points="277.32,-723 267.32,-726.5 277.32,-730 277.32,-723"/>
</a>
</g>
</g>
<!-- Node7 -->
<g id="Node000007" class="node">
<title>Node7</title>
<g id="a_Node000007"><a xlink:title=" ">
<polygon fill="white" stroke="none" points="88,-752.5 0,-752.5 0,-700.5 88,-700.5 88,-752.5"/>
<text text-anchor="start" x="5" y="-739" font-family="Cascadia Code NF" font-size="10.00">std::ios_base</text>
<text text-anchor="start" x="41" y="-723" font-family="Cascadia Code NF" font-size="10.00"> </text>
<text text-anchor="start" x="41" y="-707" font-family="Cascadia Code NF" font-size="10.00"> </text>
<polygon fill="#666666" stroke="#666666" points="0,-734.5 0,-734.5 88,-734.5 88,-734.5 0,-734.5"/>
<polygon fill="#666666" stroke="#666666" points="0,-718.5 0,-718.5 88,-718.5 88,-718.5 0,-718.5"/>
<polygon fill="none" stroke="#666666" points="0,-700.5 0,-752.5 88,-752.5 88,-700.5 0,-700.5"/>
</a>
</g>
</g>
<!-- Node7&#45;&gt;Node6 -->
<g id="edge6_Node000006_Node000007" class="edge">
<title>Node7&#45;&gt;Node6</title>
<g id="a_edge6_Node000006_Node000007"><a xlink:title=" ">
<path fill="none" stroke="#63b8ff" d="M98.93,-726.5C107.08,-726.5 115.58,-726.5 124.01,-726.5"/>
<polygon fill="none" stroke="#63b8ff" points="99.21,-723 89.21,-726.5 99.21,-730 99.21,-723"/>
</a>
</g>
</g>
<!-- Node8 -->
<g id="Node000008" class="node">
<title>Node8</title>
<g id="a_Node000008"><a xlink:title=" ">
<polygon fill="white" stroke="none" points="747,-641.5 701,-641.5 701,-589.5 747,-589.5 747,-641.5"/>
<text text-anchor="start" x="706" y="-628" font-family="Cascadia Code NF" font-size="10.00">size_t</text>
<text text-anchor="start" x="721" y="-612" font-family="Cascadia Code NF" font-size="10.00"> </text>
<text text-anchor="start" x="721" y="-596" font-family="Cascadia Code NF" font-size="10.00"> </text>
<polygon fill="#bfbfbf" stroke="#bfbfbf" points="701,-623.5 701,-623.5 747,-623.5 747,-623.5 701,-623.5"/>
<polygon fill="#bfbfbf" stroke="#bfbfbf" points="701,-607.5 701,-607.5 747,-607.5 747,-607.5 701,-607.5"/>
<polygon fill="none" stroke="#bfbfbf" points="701,-589.5 701,-641.5 747,-641.5 747,-589.5 701,-589.5"/>
</a>
</g>
</g>
<!-- Node8&#45;&gt;Node2 -->
<g id="edge7_Node000002_Node000008" class="edge">
<title>Node8&#45;&gt;Node2</title>
<g id="a_edge7_Node000002_Node000008"><a xlink:title=" ">
<path fill="none" stroke="#63b8ff" d="M746.76,-615.23C789.53,-614.7 886.68,-613.5 959.37,-612.61"/>
<polygon fill="none" stroke="#63b8ff" points="959.28,-612.61 965.23,-608.53 971.28,-612.46 965.33,-616.53 959.28,-612.61"/>
</a>
</g>
<text text-anchor="middle" x="894" y="-616.75" font-family="Cascadia Code NF" font-size="10.00" fill="grey"> #fresh_id_</text>
</g>
<!-- Node9 -->
<g id="Node000009" class="node">
<title>Node9</title>
<g id="a_Node000009"><a xlink:href="../../d6/d85/structv8_1_1internal_1_1torque_1_1SourcePosition.html" target="_top" xlink:title=" ">
<polygon fill="white" stroke="none" points="811,-571 637,-571 637,-442 811,-442 811,-571"/>
<text text-anchor="start" x="664" y="-557.5" font-family="Cascadia Code NF" font-size="10.00">v8::internal::torque</text>
<text text-anchor="start" x="676" y="-544.75" font-family="Cascadia Code NF" font-size="10.00">::SourcePosition</text>
<text text-anchor="start" x="721" y="-528.5" font-family="Cascadia Code NF" font-size="10.00"> </text>
<text text-anchor="start" x="641" y="-512.5" font-family="Cascadia Code NF" font-size="10.00">+</text>
<text text-anchor="start" x="651" y="-512.5" font-family="Cascadia Code NF" font-size="10.00">CompareStartIgnoreColumn()</text>
<text text-anchor="start" x="641" y="-496.5" font-family="Cascadia Code NF" font-size="10.00">+</text>
<text text-anchor="start" x="651" y="-496.5" font-family="Cascadia Code NF" font-size="10.00">Contains()</text>
<text text-anchor="start" x="641" y="-480.5" font-family="Cascadia Code NF" font-size="10.00">+</text>
<text text-anchor="start" x="651" y="-480.5" font-family="Cascadia Code NF" font-size="10.00">operator==()</text>
<text text-anchor="start" x="641" y="-464.5" font-family="Cascadia Code NF" font-size="10.00">+</text>
<text text-anchor="start" x="651" y="-464.5" font-family="Cascadia Code NF" font-size="10.00">operator!=()</text>
<text text-anchor="start" x="641" y="-448.5" font-family="Cascadia Code NF" font-size="10.00">+</text>
<text text-anchor="start" x="651" y="-448.5" font-family="Cascadia Code NF" font-size="10.00">Invalid()</text>
<polygon fill="#bfbfbf" stroke="#bfbfbf" points="637,-540 637,-540 811,-540 811,-540 637,-540"/>
<polygon fill="#bfbfbf" stroke="#bfbfbf" points="637,-524 637,-524 811,-524 811,-524 637,-524"/>
<polygon fill="none" stroke="#bfbfbf" points="637,-442 637,-571 811,-571 811,-442 637,-442"/>
</a>
</g>
</g>
<!-- Node9&#45;&gt;Node2 -->
<g id="edge8_Node000002_Node000009" class="edge">
<title>Node9&#45;&gt;Node2</title>
<g id="a_edge8_Node000002_Node000009"><a xlink:title=" ">
<path fill="none" stroke="#63b8ff" d="M810.98,-534.36C856.92,-549.25 913.43,-567.56 959.85,-582.61"/>
<polygon fill="none" stroke="#63b8ff" points="959.77,-582.58 966.71,-580.63 971.18,-586.28 964.24,-588.24 959.77,-582.58"/>
</a>
</g>
<text text-anchor="middle" x="894" y="-582.75" font-family="Cascadia Code NF" font-size="10.00" fill="grey"> #previous_position_</text>
</g>
<!-- Node10 -->
<g id="Node000010" class="node">
<title>Node10</title>
<g id="a_Node000010"><a xlink:href="../../d7/d9f/classv8_1_1internal_1_1torque_1_1SourceId.html" target="_top" xlink:title=" ">
<polygon fill="white" stroke="none" points="529,-676 399,-676 399,-563 529,-563 529,-676"/>
<text text-anchor="start" x="404" y="-662.5" font-family="Cascadia Code NF" font-size="10.00">v8::internal::torque</text>
<text text-anchor="start" x="434" y="-649.75" font-family="Cascadia Code NF" font-size="10.00">::SourceId</text>
<text text-anchor="start" x="461" y="-633.5" font-family="Cascadia Code NF" font-size="10.00"> </text>
<text text-anchor="start" x="413" y="-617.5" font-family="Cascadia Code NF" font-size="10.00">+</text>
<text text-anchor="start" x="433" y="-617.5" font-family="Cascadia Code NF" font-size="10.00">IsValid()</text>
<text text-anchor="start" x="413" y="-601.5" font-family="Cascadia Code NF" font-size="10.00">+</text>
<text text-anchor="start" x="433" y="-601.5" font-family="Cascadia Code NF" font-size="10.00">operator==()</text>
<text text-anchor="start" x="413" y="-585.5" font-family="Cascadia Code NF" font-size="10.00">+</text>
<text text-anchor="start" x="433" y="-585.5" font-family="Cascadia Code NF" font-size="10.00">operator&lt;()</text>
<text text-anchor="start" x="413" y="-569.5" font-family="Cascadia Code NF" font-size="10.00">+</text>
<text text-anchor="start" x="433" y="-569.5" font-family="Cascadia Code NF" font-size="10.00">Invalid()</text>
<polygon fill="#bfbfbf" stroke="#bfbfbf" points="399,-645 399,-645 529,-645 529,-645 399,-645"/>
<polygon fill="#bfbfbf" stroke="#bfbfbf" points="399,-629 399,-629 529,-629 529,-629 399,-629"/>
<polygon fill="none" stroke="#bfbfbf" points="399,-563 399,-676 529,-676 529,-563 399,-563"/>
</a>
</g>
</g>
<!-- Node10&#45;&gt;Node9 -->
<g id="edge9_Node000009_Node000010" class="edge">
<title>Node10&#45;&gt;Node9</title>
<g id="a_edge9_Node000009_Node000010"><a xlink:title=" ">
<path fill="none" stroke="#63b8ff" d="M528.78,-591.57C557.88,-578.82 593,-563.44 625.32,-549.28"/>
<polygon fill="none" stroke="#63b8ff" points="625.27,-549.3 629.16,-543.23 636.26,-544.49 632.37,-550.56 625.27,-549.3"/>
</a>
</g>
<text text-anchor="middle" x="584" y="-582.75" font-family="Cascadia Code NF" font-size="10.00" fill="grey"> +source</text>
</g>
<!-- Node11 -->
<g id="Node000011" class="node">
<title>Node11</title>
<g id="a_Node000011"><a xlink:href="../../db/dd4/structv8_1_1internal_1_1torque_1_1LineAndColumn.html" target="_top" xlink:title=" ">
<polygon fill="white" stroke="none" points="530,-545 398,-545 398,-432 530,-432 530,-545"/>
<text text-anchor="start" x="404" y="-531.5" font-family="Cascadia Code NF" font-size="10.00">v8::internal::torque</text>
<text text-anchor="start" x="419" y="-518.75" font-family="Cascadia Code NF" font-size="10.00">::LineAndColumn</text>
<text text-anchor="start" x="461" y="-502.5" font-family="Cascadia Code NF" font-size="10.00"> </text>
<text text-anchor="start" x="402" y="-486.5" font-family="Cascadia Code NF" font-size="10.00">+</text>
<text text-anchor="start" x="412" y="-486.5" font-family="Cascadia Code NF" font-size="10.00">operator==()</text>
<text text-anchor="start" x="402" y="-470.5" font-family="Cascadia Code NF" font-size="10.00">+</text>
<text text-anchor="start" x="412" y="-470.5" font-family="Cascadia Code NF" font-size="10.00">operator!=()</text>
<text text-anchor="start" x="402" y="-454.5" font-family="Cascadia Code NF" font-size="10.00">+</text>
<text text-anchor="start" x="412" y="-454.5" font-family="Cascadia Code NF" font-size="10.00">Invalid()</text>
<text text-anchor="start" x="402" y="-438.5" font-family="Cascadia Code NF" font-size="10.00">+</text>
<text text-anchor="start" x="412" y="-438.5" font-family="Cascadia Code NF" font-size="10.00">WithUnknownOffset()</text>
<polygon fill="#bfbfbf" stroke="#bfbfbf" points="398,-514 398,-514 530,-514 530,-514 398,-514"/>
<polygon fill="#bfbfbf" stroke="#bfbfbf" points="398,-498 398,-498 530,-498 530,-498 398,-498"/>
<polygon fill="none" stroke="#bfbfbf" points="398,-432 398,-545 530,-545 530,-432 398,-432"/>
</a>
</g>
</g>
<!-- Node11&#45;&gt;Node9 -->
<g id="edge10_Node000009_Node000011" class="edge">
<title>Node11&#45;&gt;Node9</title>
<g id="a_edge10_Node000009_Node000011"><a xlink:title=" ">
<path fill="none" stroke="#63b8ff" d="M529.77,-493.02C558.37,-495.01 592.63,-497.4 624.3,-499.61"/>
<polygon fill="none" stroke="#63b8ff" points="624.35,-499.62 630.61,-496.04 636.32,-500.45 630.06,-504.03 624.35,-499.62"/>
</a>
</g>
<text text-anchor="middle" x="584" y="-514.5" font-family="Cascadia Code NF" font-size="10.00" fill="grey"> +end</text>
<text text-anchor="middle" x="584" y="-501.75" font-family="Cascadia Code NF" font-size="10.00" fill="grey">+start</text>
</g>
<!-- Node12 -->
<g id="Node000012" class="node">
<title>Node12</title>
<g id="a_Node000012"><a xlink:href="../../d1/da0/classint.html" target="_top" xlink:title=" ">
<polygon fill="white" stroke="none" points="209,-514.5 181,-514.5 181,-462.5 209,-462.5 209,-514.5"/>
<text text-anchor="start" x="186" y="-501" font-family="Cascadia Code NF" font-size="10.00">int</text>
<text text-anchor="start" x="192" y="-485" font-family="Cascadia Code NF" font-size="10.00"> </text>
<text text-anchor="start" x="192" y="-469" font-family="Cascadia Code NF" font-size="10.00"> </text>
<polygon fill="#bfbfbf" stroke="#bfbfbf" points="181,-496.5 181,-496.5 209,-496.5 209,-496.5 181,-496.5"/>
<polygon fill="#bfbfbf" stroke="#bfbfbf" points="181,-480.5 181,-480.5 209,-480.5 209,-480.5 181,-480.5"/>
<polygon fill="none" stroke="#bfbfbf" points="181,-462.5 181,-514.5 209,-514.5 209,-462.5 181,-462.5"/>
</a>
</g>
</g>
<!-- Node12&#45;&gt;Node11 -->
<g id="edge11_Node000011_Node000012" class="edge">
<title>Node12&#45;&gt;Node11</title>
<g id="a_edge11_Node000011_Node000012"><a xlink:title=" ">
<path fill="none" stroke="#63b8ff" d="M208.88,-488.5C240.24,-488.5 322.6,-488.5 385.12,-488.5"/>
<polygon fill="none" stroke="#63b8ff" points="385.24,-488.5 391.24,-484.5 397.24,-488.5 391.24,-492.5 385.24,-488.5"/>
</a>
</g>
<text text-anchor="middle" x="329" y="-530" font-family="Cascadia Code NF" font-size="10.00" fill="grey"> +column</text>
<text text-anchor="middle" x="329" y="-517.25" font-family="Cascadia Code NF" font-size="10.00" fill="grey">+kUnknownOffset</text>
<text text-anchor="middle" x="329" y="-504.5" font-family="Cascadia Code NF" font-size="10.00" fill="grey">+line</text>
<text text-anchor="middle" x="329" y="-491.75" font-family="Cascadia Code NF" font-size="10.00" fill="grey">+offset</text>
</g>
<!-- Node13 -->
<g id="Node000013" class="node">
<title>Node13</title>
<g id="a_Node000013"><a xlink:title=" ">
<polygon fill="white" stroke="none" points="816,-284.5 632,-284.5 632,-206.5 816,-206.5 816,-284.5"/>
<text text-anchor="start" x="637" y="-271" font-family="Cascadia Code NF" font-size="10.00">std::map&lt; v8::internal</text>
<text text-anchor="start" x="637" y="-258.25" font-family="Cascadia Code NF" font-size="10.00">::torque::DefinitionLocation,</text>
<text text-anchor="start" x="682" y="-245.5" font-family="Cascadia Code NF" font-size="10.00"> std::string &gt;</text>
<text text-anchor="start" x="721" y="-229" font-family="Cascadia Code NF" font-size="10.00"> </text>
<text text-anchor="start" x="721" y="-213" font-family="Cascadia Code NF" font-size="10.00"> </text>
<polygon fill="#666666" stroke="#666666" points="632,-240.5 632,-240.5 816,-240.5 816,-240.5 632,-240.5"/>
<polygon fill="#666666" stroke="#666666" points="632,-224.5 632,-224.5 816,-224.5 816,-224.5 632,-224.5"/>
<polygon fill="none" stroke="#666666" points="632,-206.5 632,-284.5 816,-284.5 816,-206.5 632,-206.5"/>
</a>
</g>
</g>
<!-- Node13&#45;&gt;Node2 -->
<g id="edge12_Node000002_Node000013" class="edge">
<title>Node13&#45;&gt;Node2</title>
<g id="a_edge12_Node000002_Node000013"><a xlink:title=" ">
<path fill="none" stroke="#63b8ff" d="M759.37,-284.32C807.63,-338.84 897.04,-439.84 963.81,-515.27"/>
<polygon fill="none" stroke="#63b8ff" points="963.69,-515.14 970.67,-516.98 971.65,-524.12 964.68,-522.28 963.69,-515.14"/>
</a>
</g>
<text text-anchor="middle" x="894" y="-505.75" font-family="Cascadia Code NF" font-size="10.00" fill="grey"> #location_map_</text>
</g>
<!-- Node14 -->
<g id="Node000014" class="node">
<title>Node14</title>
<g id="a_Node000014"><a xlink:href="../../dc/d6c/classv8_1_1internal_1_1torque_1_1DefinitionLocation.html" target="_top" xlink:title=" ">
<polygon fill="white" stroke="none" points="536,-414 392,-414 392,-77 536,-77 536,-414"/>
<text text-anchor="start" x="404" y="-400.5" font-family="Cascadia Code NF" font-size="10.00">v8::internal::torque</text>
<text text-anchor="start" x="404" y="-387.75" font-family="Cascadia Code NF" font-size="10.00">::DefinitionLocation</text>
<text text-anchor="start" x="461" y="-371.5" font-family="Cascadia Code NF" font-size="10.00"> </text>
<text text-anchor="start" x="396" y="-355.5" font-family="Cascadia Code NF" font-size="10.00">+</text>
<text text-anchor="start" x="406" y="-355.5" font-family="Cascadia Code NF" font-size="10.00">DefinitionLocation()</text>
<text text-anchor="start" x="396" y="-339.5" font-family="Cascadia Code NF" font-size="10.00">+</text>
<text text-anchor="start" x="406" y="-339.5" font-family="Cascadia Code NF" font-size="10.00">GetKind()</text>
<text text-anchor="start" x="396" y="-323.5" font-family="Cascadia Code NF" font-size="10.00">+</text>
<text text-anchor="start" x="406" y="-323.5" font-family="Cascadia Code NF" font-size="10.00">IsValid()</text>
<text text-anchor="start" x="396" y="-307.5" font-family="Cascadia Code NF" font-size="10.00">+</text>
<text text-anchor="start" x="406" y="-307.5" font-family="Cascadia Code NF" font-size="10.00">IsParameter()</text>
<text text-anchor="start" x="396" y="-291.5" font-family="Cascadia Code NF" font-size="10.00">+</text>
<text text-anchor="start" x="406" y="-291.5" font-family="Cascadia Code NF" font-size="10.00">IsPhi()</text>
<text text-anchor="start" x="396" y="-275.5" font-family="Cascadia Code NF" font-size="10.00">+</text>
<text text-anchor="start" x="406" y="-275.5" font-family="Cascadia Code NF" font-size="10.00">IsInstruction()</text>
<text text-anchor="start" x="396" y="-259.5" font-family="Cascadia Code NF" font-size="10.00">+</text>
<text text-anchor="start" x="406" y="-259.5" font-family="Cascadia Code NF" font-size="10.00">GetParameterIndex()</text>
<text text-anchor="start" x="396" y="-243.5" font-family="Cascadia Code NF" font-size="10.00">+</text>
<text text-anchor="start" x="406" y="-243.5" font-family="Cascadia Code NF" font-size="10.00">GetPhiBlock()</text>
<text text-anchor="start" x="396" y="-227.5" font-family="Cascadia Code NF" font-size="10.00">+</text>
<text text-anchor="start" x="406" y="-227.5" font-family="Cascadia Code NF" font-size="10.00">IsPhiFromBlock()</text>
<text text-anchor="start" x="396" y="-211.5" font-family="Cascadia Code NF" font-size="10.00">+</text>
<text text-anchor="start" x="406" y="-211.5" font-family="Cascadia Code NF" font-size="10.00">GetPhiIndex()</text>
<text text-anchor="start" x="396" y="-195.5" font-family="Cascadia Code NF" font-size="10.00">+</text>
<text text-anchor="start" x="406" y="-195.5" font-family="Cascadia Code NF" font-size="10.00">GetInstruction()</text>
<text text-anchor="start" x="396" y="-179.5" font-family="Cascadia Code NF" font-size="10.00">+</text>
<text text-anchor="start" x="406" y="-179.5" font-family="Cascadia Code NF" font-size="10.00">GetInstructionIndex()</text>
<text text-anchor="start" x="396" y="-163.5" font-family="Cascadia Code NF" font-size="10.00">+</text>
<text text-anchor="start" x="406" y="-163.5" font-family="Cascadia Code NF" font-size="10.00">operator==()</text>
<text text-anchor="start" x="396" y="-147.5" font-family="Cascadia Code NF" font-size="10.00">+</text>
<text text-anchor="start" x="406" y="-147.5" font-family="Cascadia Code NF" font-size="10.00">operator!=()</text>
<text text-anchor="start" x="396" y="-131.5" font-family="Cascadia Code NF" font-size="10.00">+</text>
<text text-anchor="start" x="406" y="-131.5" font-family="Cascadia Code NF" font-size="10.00">operator&lt;()</text>
<text text-anchor="start" x="396" y="-115.5" font-family="Cascadia Code NF" font-size="10.00">+</text>
<text text-anchor="start" x="406" y="-115.5" font-family="Cascadia Code NF" font-size="10.00">Parameter()</text>
<text text-anchor="start" x="396" y="-99.5" font-family="Cascadia Code NF" font-size="10.00">+</text>
<text text-anchor="start" x="406" y="-99.5" font-family="Cascadia Code NF" font-size="10.00">Phi()</text>
<text text-anchor="start" x="396" y="-83.5" font-family="Cascadia Code NF" font-size="10.00">+</text>
<text text-anchor="start" x="406" y="-83.5" font-family="Cascadia Code NF" font-size="10.00">Instruction()</text>
<polygon fill="#bfbfbf" stroke="#bfbfbf" points="392,-383 392,-383 536,-383 536,-383 392,-383"/>
<polygon fill="#bfbfbf" stroke="#bfbfbf" points="392,-367 392,-367 536,-367 536,-367 392,-367"/>
<polygon fill="none" stroke="#bfbfbf" points="392,-77 392,-414 536,-414 536,-77 392,-77"/>
</a>
</g>
</g>
<!-- Node14&#45;&gt;Node13 -->
<g id="edge13_Node000013_Node000014" class="edge">
<title>Node14&#45;&gt;Node13</title>
<g id="a_edge13_Node000013_Node000014"><a xlink:title=" ">
<path fill="none" stroke="#63b8ff" d="M535.84,-245.5C561.71,-245.5 591.53,-245.5 619.66,-245.5"/>
<polygon fill="none" stroke="#63b8ff" points="619.54,-245.5 625.54,-241.5 631.54,-245.5 625.54,-249.5 619.54,-245.5"/>
</a>
</g>
<text text-anchor="middle" x="584" y="-248.75" font-family="Cascadia Code NF" font-size="10.00" fill="grey"> +keys</text>
</g>
<!-- Node15 -->
<g id="Node000015" class="node">
<title>Node15</title>
<g id="a_Node000015"><a xlink:title=" ">
<polygon fill="white" stroke="none" points="502,-58.5 426,-58.5 426,-6.5 502,-6.5 502,-58.5"/>
<text text-anchor="start" x="431" y="-45" font-family="Cascadia Code NF" font-size="10.00">std::string</text>
<text text-anchor="start" x="461" y="-29" font-family="Cascadia Code NF" font-size="10.00"> </text>
<text text-anchor="start" x="461" y="-13" font-family="Cascadia Code NF" font-size="10.00"> </text>
<polygon fill="#666666" stroke="#666666" points="426,-40.5 426,-40.5 502,-40.5 502,-40.5 426,-40.5"/>
<polygon fill="#666666" stroke="#666666" points="426,-24.5 426,-24.5 502,-24.5 502,-24.5 426,-24.5"/>
<polygon fill="none" stroke="#666666" points="426,-6.5 426,-58.5 502,-58.5 502,-6.5 426,-6.5"/>
</a>
</g>
</g>
<!-- Node15&#45;&gt;Node13 -->
<g id="edge14_Node000013_Node000015" class="edge">
<title>Node15&#45;&gt;Node13</title>
<g id="a_edge14_Node000013_Node000015"><a xlink:title=" ">
<path fill="none" stroke="#63b8ff" d="M501.92,-48.7C513.25,-54.32 525.49,-61.1 536,-68.5 589.74,-106.35 643.44,-159.11 679.41,-197.17"/>
<polygon fill="none" stroke="#63b8ff" points="679.35,-197.1 686.37,-198.74 687.55,-205.85 680.53,-204.21 679.35,-197.1"/>
</a>
</g>
<text text-anchor="middle" x="584" y="-133.75" font-family="Cascadia Code NF" font-size="10.00" fill="grey"> +elements</text>
</g>
<!-- Node16 -->
<g id="Node000016" class="node">
<title>Node16</title>
<g id="a_Node000016"><a xlink:title=" ">
<polygon fill="white" stroke="none" points="254,-65 136,-65 136,0 254,0 254,-65"/>
<text text-anchor="start" x="141" y="-51.5" font-family="Cascadia Code NF" font-size="10.00">std::basic_string&lt;</text>
<text text-anchor="start" x="174" y="-38.75" font-family="Cascadia Code NF" font-size="10.00"> Char &gt;</text>
<text text-anchor="start" x="192" y="-22.5" font-family="Cascadia Code NF" font-size="10.00"> </text>
<text text-anchor="start" x="192" y="-6.5" font-family="Cascadia Code NF" font-size="10.00"> </text>
<polygon fill="#666666" stroke="#666666" points="136,-34 136,-34 254,-34 254,-34 136,-34"/>
<polygon fill="#666666" stroke="#666666" points="136,-18 136,-18 254,-18 254,-18 136,-18"/>
<polygon fill="none" stroke="#666666" points="136,0 136,-65 254,-65 254,0 136,0"/>
</a>
</g>
</g>
<!-- Node16&#45;&gt;Node15 -->
<g id="edge15_Node000015_Node000016" class="edge">
<title>Node16&#45;&gt;Node15</title>
<g id="a_edge15_Node000015_Node000016"><a xlink:title=" ">
<path fill="none" stroke="#63b8ff" d="M265.29,-32.5C316.68,-32.5 384.74,-32.5 426.12,-32.5"/>
<polygon fill="none" stroke="#63b8ff" points="265.45,-29 255.45,-32.5 265.45,-36 265.45,-29"/>
</a>
</g>
</g>
</g>
</svg>

<g id="navigator" transform="translate(0 0)" fill="#404254">
  <rect fill="#f2f5e9" fill-opacity="0.5" stroke="#606060" stroke-width=".5" x="0" y="0" width="60" height="60"/>
  <use id="zoomplus" xlink:href="#zoomPlus" x="17" y="9" onmousedown="handleZoom(evt,'in')"/>
  <use id="zoomminus" xlink:href="#zoomMin" x="42" y="9" onmousedown="handleZoom(evt,'out')"/>
  <use id="reset" xlink:href="#resetDef" x="30" y="36" onmousedown="handleReset()"/>
   <use id="arrowup" xlink:href="#arrowUp" x="0" y="0" onmousedown="handlePan(0,-1)"/>
  <use id="arrowright" xlink:href="#arrowRight" x="0" y="0" onmousedown="handlePan(1,0)"/>
  <use id="arrowdown" xlink:href="#arrowDown" x="0" y="0" onmousedown="handlePan(0,1)"/>
  <use id="arrowleft" xlink:href="#arrowLeft" x="0" y="0" onmousedown="handlePan(-1,0)"/>
</g>
<svg viewBox="0 0 15 15" width="100%" height="30px" preserveAspectRatio="xMaxYMin meet">
 <g id="arrow_out" transform="scale(0.3 0.3)">
  <a xlink:href="classv8_1_1internal_1_1torque_1_1CSAGenerator__coll__graph_org.svg" target="_base">
   <rect id="button" ry="5" rx="5" y="6" x="6" height="38" width="38"
        fill="#f2f5e9" fill-opacity="0.5" stroke="#606060" stroke-width="1.0"/>
   <path id="arrow"
     d="M 11.500037,31.436501 C 11.940474,20.09759 22.043105,11.32322 32.158766,21.979434 L 37.068811,17.246167 C 37.068811,17.246167 37.088388,32 37.088388,32 L 22.160133,31.978069 C 22.160133,31.978069 26.997745,27.140456 26.997745,27.140456 C 18.528582,18.264221 13.291696,25.230495 11.500037,31.436501 z"
     style="fill:#404040;"/>
  </a>
 </g>
</svg>

<style type='text/css'>
<![CDATA[
[data-mouse-over-selected='false'] { opacity: 0.7; }
[data-mouse-over-selected='true']  { opacity: 1.0; }
]]>
</style>
<script type="application/ecmascript"><![CDATA[
document.addEventListener('DOMContentLoaded', (event) => {
  highlightEdges();
  highlightAdjacentNodes();
});
]]></script>
</svg>
