<?xml version="1.0" encoding="UTF-8" standalone="no"?>
<!DOCTYPE svg PUBLIC "-//W3C//DTD SVG 1.1//EN"
 "http://www.w3.org/Graphics/SVG/1.1/DTD/svg11.dtd">
<!-- Generated by graphviz version 11.0.0 (20240428.1522)
 -->
<!-- Title: v8::internal::BigInt Pages: 1 -->
<svg width="746pt" height="348pt"
 viewBox="0.00 0.00 746.00 348.00" xmlns="http://www.w3.org/2000/svg" xmlns:xlink="http://www.w3.org/1999/xlink">
<g id="graph0" class="graph" transform="scale(1 1) rotate(0) translate(4 344)">
<title>v8::internal::BigInt</title>
<!-- Node1 -->
<g id="Node000001" class="node">
<title>Node1</title>
<g id="a_Node000001"><a xlink:title=" ">
<polygon fill="#999999" stroke="none" points="738,-340 608,-340 608,0 738,0 738,-340"/>
<text text-anchor="start" x="613" y="-326.5" font-family="Cascadia Code NF" font-size="10.00">v8::internal::BigInt</text>
<text text-anchor="start" x="670" y="-310.5" font-family="Cascadia Code NF" font-size="10.00"> </text>
<text text-anchor="start" x="613" y="-294.5" font-family="Cascadia Code NF" font-size="10.00">+</text>
<text text-anchor="start" x="624" y="-294.5" font-family="Cascadia Code NF" font-size="10.00">ToBoolean()</text>
<text text-anchor="start" x="613" y="-278.5" font-family="Cascadia Code NF" font-size="10.00">+</text>
<text text-anchor="start" x="624" y="-278.5" font-family="Cascadia Code NF" font-size="10.00">Hash()</text>
<text text-anchor="start" x="613" y="-262.5" font-family="Cascadia Code NF" font-size="10.00">+</text>
<text text-anchor="start" x="624" y="-262.5" font-family="Cascadia Code NF" font-size="10.00">IsNegative()</text>
<text text-anchor="start" x="613" y="-246.5" font-family="Cascadia Code NF" font-size="10.00">+</text>
<text text-anchor="start" x="624" y="-246.5" font-family="Cascadia Code NF" font-size="10.00">AsInt64()</text>
<text text-anchor="start" x="613" y="-230.5" font-family="Cascadia Code NF" font-size="10.00">+</text>
<text text-anchor="start" x="624" y="-230.5" font-family="Cascadia Code NF" font-size="10.00">AsUint64()</text>
<text text-anchor="start" x="613" y="-214.5" font-family="Cascadia Code NF" font-size="10.00">+</text>
<text text-anchor="start" x="624" y="-214.5" font-family="Cascadia Code NF" font-size="10.00">Words64Count()</text>
<text text-anchor="start" x="613" y="-198.5" font-family="Cascadia Code NF" font-size="10.00">+</text>
<text text-anchor="start" x="624" y="-198.5" font-family="Cascadia Code NF" font-size="10.00">ToWordsArray64()</text>
<text text-anchor="start" x="613" y="-182.5" font-family="Cascadia Code NF" font-size="10.00">+</text>
<text text-anchor="start" x="624" y="-182.5" font-family="Cascadia Code NF" font-size="10.00">BigIntShortPrint()</text>
<text text-anchor="start" x="613" y="-166.5" font-family="Cascadia Code NF" font-size="10.00">+</text>
<text text-anchor="start" x="624" y="-166.5" font-family="Cascadia Code NF" font-size="10.00">UnaryMinus()</text>
<text text-anchor="start" x="613" y="-150.5" font-family="Cascadia Code NF" font-size="10.00">+</text>
<text text-anchor="start" x="624" y="-150.5" font-family="Cascadia Code NF" font-size="10.00">BitwiseNot()</text>
<text text-anchor="start" x="613" y="-134.5" font-family="Cascadia Code NF" font-size="10.00">+</text>
<text text-anchor="start" x="624" y="-134.5" font-family="Cascadia Code NF" font-size="10.00">Exponentiate()</text>
<text text-anchor="start" x="613" y="-118.5" font-family="Cascadia Code NF" font-size="10.00">+</text>
<text text-anchor="start" x="624" y="-118.5" font-family="Cascadia Code NF" font-size="10.00">Multiply()</text>
<text text-anchor="start" x="613" y="-102.5" font-family="Cascadia Code NF" font-size="10.00">+</text>
<text text-anchor="start" x="624" y="-102.5" font-family="Cascadia Code NF" font-size="10.00">Divide()</text>
<text text-anchor="start" x="613" y="-86.5" font-family="Cascadia Code NF" font-size="10.00">+</text>
<text text-anchor="start" x="624" y="-86.5" font-family="Cascadia Code NF" font-size="10.00">Remainder()</text>
<text text-anchor="start" x="613" y="-70.5" font-family="Cascadia Code NF" font-size="10.00">+</text>
<text text-anchor="start" x="624" y="-70.5" font-family="Cascadia Code NF" font-size="10.00">Add()</text>
<text text-anchor="start" x="613" y="-54.5" font-family="Cascadia Code NF" font-size="10.00">+</text>
<text text-anchor="start" x="624" y="-54.5" font-family="Cascadia Code NF" font-size="10.00">Subtract()</text>
<text text-anchor="start" x="613" y="-38.5" font-family="Cascadia Code NF" font-size="10.00">+</text>
<text text-anchor="start" x="624" y="-38.5" font-family="Cascadia Code NF" font-size="10.00">LeftShift()</text>
<text text-anchor="start" x="613" y="-22.5" font-family="Cascadia Code NF" font-size="10.00">+</text>
<text text-anchor="start" x="624" y="-22.5" font-family="Cascadia Code NF" font-size="10.00">SignedRightShift()</text>
<text text-anchor="start" x="624" y="-6.5" font-family="Cascadia Code NF" font-size="10.00">and 24 more...</text>
<polygon fill="#666666" stroke="#666666" points="608,-322 608,-322 738,-322 738,-322 608,-322"/>
<polygon fill="#666666" stroke="#666666" points="608,-306 608,-306 738,-306 738,-306 608,-306"/>
<polygon fill="none" stroke="#666666" points="608,0 608,-340 738,-340 738,0 608,0"/>
</a>
</g>
</g>
<!-- Node2 -->
<g id="Node000002" class="node">
<title>Node2</title>
<g id="a_Node000002"><a xlink:href="../../d6/d44/classv8_1_1internal_1_1BigIntBase.html" target="_top" xlink:title=" ">
<polygon fill="white" stroke="none" points="572,-228 418,-228 418,-112 572,-112 572,-228"/>
<text text-anchor="start" x="423" y="-214.5" font-family="Cascadia Code NF" font-size="10.00">v8::internal::BigIntBase</text>
<text text-anchor="start" x="432" y="-198.5" font-family="Cascadia Code NF" font-size="10.00">+</text>
<text text-anchor="start" x="452" y="-198.5" font-family="Cascadia Code NF" font-size="10.00">kMaxLengthBits</text>
<text text-anchor="start" x="432" y="-182.5" font-family="Cascadia Code NF" font-size="10.00">+</text>
<text text-anchor="start" x="452" y="-182.5" font-family="Cascadia Code NF" font-size="10.00">kMaxLength</text>
<text text-anchor="start" x="432" y="-166.5" font-family="Cascadia Code NF" font-size="10.00">+</text>
<text text-anchor="start" x="452" y="-166.5" font-family="Cascadia Code NF" font-size="10.00">kLengthFieldBits</text>
<text text-anchor="start" x="432" y="-150.5" font-family="Cascadia Code NF" font-size="10.00">+</text>
<text text-anchor="start" x="452" y="-150.5" font-family="Cascadia Code NF" font-size="10.00">length()</text>
<text text-anchor="start" x="432" y="-134.5" font-family="Cascadia Code NF" font-size="10.00">+</text>
<text text-anchor="start" x="452" y="-134.5" font-family="Cascadia Code NF" font-size="10.00">length()</text>
<text text-anchor="start" x="432" y="-118.5" font-family="Cascadia Code NF" font-size="10.00">+</text>
<text text-anchor="start" x="452" y="-118.5" font-family="Cascadia Code NF" font-size="10.00">digits()</text>
<polygon fill="#bfbfbf" stroke="#bfbfbf" points="418,-210 418,-210 572,-210 572,-210 418,-210"/>
<polygon fill="#bfbfbf" stroke="#bfbfbf" points="418,-162 418,-162 450,-162 450,-162 418,-162"/>
<polygon fill="#bfbfbf" stroke="#bfbfbf" points="450,-162 450,-162 572,-162 572,-162 450,-162"/>
<polygon fill="none" stroke="#bfbfbf" points="418,-112 418,-228 572,-228 572,-112 418,-112"/>
</a>
</g>
</g>
<!-- Node2&#45;&gt;Node1 -->
<g id="edge1_Node000001_Node000002" class="edge">
<title>Node2&#45;&gt;Node1</title>
<g id="a_edge1_Node000001_Node000002"><a xlink:title=" ">
<path fill="none" stroke="#63b8ff" d="M583.32,-170C591.7,-170 600.1,-170 608.19,-170"/>
<polygon fill="none" stroke="#63b8ff" points="583.43,-166.5 573.43,-170 583.43,-173.5 583.43,-166.5"/>
</a>
</g>
</g>
<!-- Node3 -->
<g id="Node000003" class="node">
<title>Node3</title>
<g id="a_Node000003"><a xlink:href="../../d6/d18/classv8_1_1internal_1_1PrimitiveHeapObject.html" target="_top" xlink:title=" ">
<polygon fill="white" stroke="none" points="382,-202.5 210,-202.5 210,-137.5 382,-137.5 382,-202.5"/>
<text text-anchor="start" x="215" y="-189" font-family="Cascadia Code NF" font-size="10.00">v8::internal::PrimitiveHeap</text>
<text text-anchor="start" x="278" y="-176.25" font-family="Cascadia Code NF" font-size="10.00">Object</text>
<text text-anchor="start" x="293" y="-160" font-family="Cascadia Code NF" font-size="10.00"> </text>
<text text-anchor="start" x="293" y="-144" font-family="Cascadia Code NF" font-size="10.00"> </text>
<polygon fill="#bfbfbf" stroke="#bfbfbf" points="210,-171.5 210,-171.5 382,-171.5 382,-171.5 210,-171.5"/>
<polygon fill="#bfbfbf" stroke="#bfbfbf" points="210,-155.5 210,-155.5 382,-155.5 382,-155.5 210,-155.5"/>
<polygon fill="none" stroke="#bfbfbf" points="210,-137.5 210,-202.5 382,-202.5 382,-137.5 210,-137.5"/>
</a>
</g>
</g>
<!-- Node3&#45;&gt;Node2 -->
<g id="edge2_Node000002_Node000003" class="edge">
<title>Node3&#45;&gt;Node2</title>
<g id="a_edge2_Node000002_Node000003"><a xlink:title=" ">
<path fill="none" stroke="#63b8ff" d="M393.36,-170C401.73,-170 410.13,-170 418.3,-170"/>
<polygon fill="none" stroke="#63b8ff" points="393.49,-166.5 383.49,-170 393.49,-173.5 393.49,-166.5"/>
</a>
</g>
</g>
<!-- Node4 -->
<g id="Node000004" class="node">
<title>Node4</title>
<g id="a_Node000004"><a xlink:href="../../d0/dec/classv8_1_1internal_1_1HeapObjectLayout.html" target="_top" xlink:title=" ">
<polygon fill="white" stroke="none" points="174,-289 0,-289 0,-51 174,-51 174,-289"/>
<text text-anchor="start" x="15" y="-275.5" font-family="Cascadia Code NF" font-size="10.00">v8::internal::HeapObject</text>
<text text-anchor="start" x="69" y="-262.75" font-family="Cascadia Code NF" font-size="10.00">Layout</text>
<text text-anchor="start" x="84" y="-246.5" font-family="Cascadia Code NF" font-size="10.00"> </text>
<text text-anchor="start" x="4" y="-230.5" font-family="Cascadia Code NF" font-size="10.00">+</text>
<text text-anchor="start" x="14" y="-230.5" font-family="Cascadia Code NF" font-size="10.00">HeapObjectLayout()</text>
<text text-anchor="start" x="4" y="-214.5" font-family="Cascadia Code NF" font-size="10.00">+</text>
<text text-anchor="start" x="14" y="-214.5" font-family="Cascadia Code NF" font-size="10.00">map()</text>
<text text-anchor="start" x="4" y="-198.5" font-family="Cascadia Code NF" font-size="10.00">+</text>
<text text-anchor="start" x="14" y="-198.5" font-family="Cascadia Code NF" font-size="10.00">map()</text>
<text text-anchor="start" x="4" y="-182.5" font-family="Cascadia Code NF" font-size="10.00">+</text>
<text text-anchor="start" x="14" y="-182.5" font-family="Cascadia Code NF" font-size="10.00">set_map()</text>
<text text-anchor="start" x="4" y="-166.5" font-family="Cascadia Code NF" font-size="10.00">+</text>
<text text-anchor="start" x="14" y="-166.5" font-family="Cascadia Code NF" font-size="10.00">set_map()</text>
<text text-anchor="start" x="4" y="-150.5" font-family="Cascadia Code NF" font-size="10.00">+</text>
<text text-anchor="start" x="14" y="-150.5" font-family="Cascadia Code NF" font-size="10.00">set_map_safe_transition()</text>
<text text-anchor="start" x="4" y="-134.5" font-family="Cascadia Code NF" font-size="10.00">+</text>
<text text-anchor="start" x="14" y="-134.5" font-family="Cascadia Code NF" font-size="10.00">set_map_safe_transition</text>
<text text-anchor="start" x="14" y="-121.75" font-family="Cascadia Code NF" font-size="10.00">_no_write_barrier()</text>
<text text-anchor="start" x="4" y="-105.5" font-family="Cascadia Code NF" font-size="10.00">+</text>
<text text-anchor="start" x="14" y="-105.5" font-family="Cascadia Code NF" font-size="10.00">set_map_after_allocation()</text>
<text text-anchor="start" x="4" y="-89.5" font-family="Cascadia Code NF" font-size="10.00">+</text>
<text text-anchor="start" x="14" y="-89.5" font-family="Cascadia Code NF" font-size="10.00">set_map_no_write_barrier()</text>
<text text-anchor="start" x="4" y="-73.5" font-family="Cascadia Code NF" font-size="10.00">+</text>
<text text-anchor="start" x="14" y="-73.5" font-family="Cascadia Code NF" font-size="10.00">set_map_word_forwarded()</text>
<text text-anchor="start" x="14" y="-57.5" font-family="Cascadia Code NF" font-size="10.00">and 7 more...</text>
<polygon fill="#bfbfbf" stroke="#bfbfbf" points="0,-258 0,-258 174,-258 174,-258 0,-258"/>
<polygon fill="#bfbfbf" stroke="#bfbfbf" points="0,-242 0,-242 174,-242 174,-242 0,-242"/>
<polygon fill="none" stroke="#bfbfbf" points="0,-51 0,-289 174,-289 174,-51 0,-51"/>
</a>
</g>
</g>
<!-- Node4&#45;&gt;Node3 -->
<g id="edge3_Node000003_Node000004" class="edge">
<title>Node4&#45;&gt;Node3</title>
<g id="a_edge3_Node000003_Node000004"><a xlink:title=" ">
<path fill="none" stroke="#63b8ff" d="M185.31,-170C193.65,-170 202.05,-170 210.28,-170"/>
<polygon fill="none" stroke="#63b8ff" points="185.5,-166.5 175.5,-170 185.5,-173.5 185.5,-166.5"/>
</a>
</g>
</g>
</g>
</svg>
