<?xml version="1.0" encoding="UTF-8" standalone="no"?>
<!DOCTYPE svg PUBLIC "-//W3C//DTD SVG 1.1//EN"
 "http://www.w3.org/Graphics/SVG/1.1/DTD/svg11.dtd">
<!-- Generated by graphviz version 11.0.0 (20240428.1522)
 -->
<!-- Title: v8::internal::FastConstructFrameConstants Pages: 1 -->
<svg width="1071pt" height="292pt"
 viewBox="0.00 0.00 1071.00 292.00" xmlns="http://www.w3.org/2000/svg" xmlns:xlink="http://www.w3.org/1999/xlink">
<g id="graph0" class="graph" transform="scale(1 1) rotate(0) translate(4 288)">
<title>v8::internal::FastConstructFrameConstants</title>
<!-- Node1 -->
<g id="Node000001" class="node">
<title>Node1</title>
<g id="a_Node000001"><a xlink:title=" ">
<polygon fill="#999999" stroke="none" points="1063,-78 891,-78 891,0 1063,0 1063,-78"/>
<text text-anchor="start" x="896" y="-64.5" font-family="Cascadia Code NF" font-size="10.00">v8::internal::FastConstruct</text>
<text text-anchor="start" x="935" y="-51.75" font-family="Cascadia Code NF" font-size="10.00">FrameConstants</text>
<text text-anchor="start" x="974" y="-35.5" font-family="Cascadia Code NF" font-size="10.00"> </text>
<text text-anchor="start" x="906.5" y="-19.5" font-family="Cascadia Code NF" font-size="10.00">+</text>
<text text-anchor="start" x="928" y="-19.5" font-family="Cascadia Code NF" font-size="10.00">DEFINE_TYPED_FRAME</text>
<text text-anchor="start" x="928" y="-6.75" font-family="Cascadia Code NF" font-size="10.00">_SIZES()</text>
<polygon fill="#666666" stroke="#666666" points="891,-47 891,-47 1063,-47 1063,-47 891,-47"/>
<polygon fill="#666666" stroke="#666666" points="891,-31 891,-31 1063,-31 1063,-31 891,-31"/>
<polygon fill="none" stroke="#666666" points="891,0 891,-78 1063,-78 1063,0 891,0"/>
</a>
</g>
</g>
<!-- Node2 -->
<g id="Node000002" class="node">
<title>Node2</title>
<g id="a_Node000002"><a xlink:href="$d1/dfd/classv8_1_1internal_1_1TypedFrameConstants.html" xlink:title=" ">
<polygon fill="white" stroke="none" points="854,-109.5 700,-109.5 700,-44.5 854,-44.5 854,-109.5"/>
<text text-anchor="start" x="705" y="-96" font-family="Cascadia Code NF" font-size="10.00">v8::internal::TypedFrame</text>
<text text-anchor="start" x="750" y="-83.25" font-family="Cascadia Code NF" font-size="10.00">Constants</text>
<text text-anchor="start" x="774" y="-67" font-family="Cascadia Code NF" font-size="10.00"> </text>
<text text-anchor="start" x="774" y="-51" font-family="Cascadia Code NF" font-size="10.00"> </text>
<polygon fill="#bfbfbf" stroke="#bfbfbf" points="700,-78.5 700,-78.5 854,-78.5 854,-78.5 700,-78.5"/>
<polygon fill="#bfbfbf" stroke="#bfbfbf" points="700,-62.5 700,-62.5 854,-62.5 854,-62.5 700,-62.5"/>
<polygon fill="none" stroke="#bfbfbf" points="700,-44.5 700,-109.5 854,-109.5 854,-44.5 700,-44.5"/>
</a>
</g>
</g>
<!-- Node2&#45;&gt;Node1 -->
<g id="edge1_Node000001_Node000002" class="edge">
<title>Node2&#45;&gt;Node1</title>
<g id="a_edge1_Node000001_Node000002"><a xlink:title=" ">
<path fill="none" stroke="#63b8ff" d="M865.27,-60.25C873.92,-58.59 882.69,-56.91 891.31,-55.25"/>
<polygon fill="none" stroke="#63b8ff" points="864.63,-56.81 855.47,-62.13 865.95,-63.68 864.63,-56.81"/>
</a>
</g>
</g>
<!-- Node3 -->
<g id="Node000003" class="node">
<title>Node3</title>
<g id="a_Node000003"><a xlink:href="$dd/db5/classv8_1_1internal_1_1CommonFrameConstants.html" xlink:title=" ">
<polygon fill="white" stroke="none" points="510,-234.5 350,-234.5 350,-169.5 510,-169.5 510,-234.5"/>
<text text-anchor="start" x="355" y="-221" font-family="Cascadia Code NF" font-size="10.00">v8::internal::CommonFrame</text>
<text text-anchor="start" x="403" y="-208.25" font-family="Cascadia Code NF" font-size="10.00">Constants</text>
<text text-anchor="start" x="427" y="-192" font-family="Cascadia Code NF" font-size="10.00"> </text>
<text text-anchor="start" x="427" y="-176" font-family="Cascadia Code NF" font-size="10.00"> </text>
<polygon fill="#bfbfbf" stroke="#bfbfbf" points="350,-203.5 350,-203.5 510,-203.5 510,-203.5 350,-203.5"/>
<polygon fill="#bfbfbf" stroke="#bfbfbf" points="350,-187.5 350,-187.5 510,-187.5 510,-187.5 350,-187.5"/>
<polygon fill="none" stroke="#bfbfbf" points="350,-169.5 350,-234.5 510,-234.5 510,-169.5 350,-169.5"/>
</a>
</g>
</g>
<!-- Node3&#45;&gt;Node2 -->
<g id="edge2_Node000002_Node000003" class="edge">
<title>Node3&#45;&gt;Node2</title>
<g id="a_edge2_Node000002_Node000003"><a xlink:title=" ">
<path fill="none" stroke="#63b8ff" d="M520.31,-169.64C576.13,-149.42 647.24,-123.65 700.29,-104.43"/>
<polygon fill="none" stroke="#63b8ff" points="519.35,-166.27 511.14,-172.96 521.73,-172.85 519.35,-166.27"/>
</a>
</g>
</g>
<!-- Node4 -->
<g id="Node000004" class="node">
<title>Node4</title>
<g id="a_Node000004"><a xlink:href="$dd/da7/classv8_1_1internal_1_1AllStatic.html" xlink:title=" ">
<polygon fill="white" stroke="none" points="148,-284 0,-284 0,-232 148,-232 148,-284"/>
<text text-anchor="start" x="5" y="-270.5" font-family="Cascadia Code NF" font-size="10.00">v8::internal::AllStatic</text>
<text text-anchor="start" x="71" y="-254.5" font-family="Cascadia Code NF" font-size="10.00"> </text>
<text text-anchor="start" x="71" y="-238.5" font-family="Cascadia Code NF" font-size="10.00"> </text>
<polygon fill="#bfbfbf" stroke="#bfbfbf" points="0,-266 0,-266 148,-266 148,-266 0,-266"/>
<polygon fill="#bfbfbf" stroke="#bfbfbf" points="0,-250 0,-250 148,-250 148,-250 0,-250"/>
<polygon fill="none" stroke="#bfbfbf" points="0,-232 0,-284 148,-284 148,-232 0,-232"/>
</a>
</g>
</g>
<!-- Node4&#45;&gt;Node3 -->
<g id="edge3_Node000003_Node000004" class="edge">
<title>Node4&#45;&gt;Node3</title>
<g id="a_edge3_Node000003_Node000004"><a xlink:title=" ">
<path fill="none" stroke="#63b8ff" d="M159.04,-255.08C207.13,-252.27 268.37,-246.77 322,-236 331.17,-234.16 340.67,-231.81 350.04,-229.21"/>
<polygon fill="none" stroke="#63b8ff" points="159.04,-251.57 149.25,-255.62 159.43,-258.56 159.04,-251.57"/>
</a>
</g>
</g>
<!-- Node5 -->
<g id="Node000005" class="node">
<title>Node5</title>
<g id="a_Node000005"><a xlink:href="$d1/da0/classint.html" xlink:title=" ">
<polygon fill="white" stroke="none" points="88,-88 60,-88 60,-36 88,-36 88,-88"/>
<text text-anchor="start" x="65" y="-74.5" font-family="Cascadia Code NF" font-size="10.00">int</text>
<text text-anchor="start" x="71" y="-58.5" font-family="Cascadia Code NF" font-size="10.00"> </text>
<text text-anchor="start" x="71" y="-42.5" font-family="Cascadia Code NF" font-size="10.00"> </text>
<polygon fill="#bfbfbf" stroke="#bfbfbf" points="60,-70 60,-70 88,-70 88,-70 60,-70"/>
<polygon fill="#bfbfbf" stroke="#bfbfbf" points="60,-54 60,-54 88,-54 88,-54 60,-54"/>
<polygon fill="none" stroke="#bfbfbf" points="60,-36 60,-88 88,-88 88,-36 60,-36"/>
</a>
</g>
</g>
<!-- Node5&#45;&gt;Node1 -->
<g id="edge6_Node000001_Node000005" class="edge">
<title>Node5&#45;&gt;Node1</title>
<g id="a_edge6_Node000001_Node000005"><a xlink:title=" ">
<path fill="none" stroke="#63b8ff" d="M87.75,-61.24C152.74,-57.39 453.51,-40.18 700,-36 768.43,-34.84 785.56,-35.16 854,-36 861.86,-36.1 869.99,-36.23 878.17,-36.38"/>
<polygon fill="none" stroke="#63b8ff" points="878.11,-36.38 884.19,-32.5 890.11,-36.62 884.03,-40.5 878.11,-36.38"/>
</a>
</g>
<text text-anchor="middle" x="610" y="-56" font-family="Cascadia Code NF" font-size="10.00" fill="grey"> +kContextOffset</text>
<text text-anchor="middle" x="610" y="-43.25" font-family="Cascadia Code NF" font-size="10.00" fill="grey">+kImplicitReceiverOffset</text>
</g>
<!-- Node5&#45;&gt;Node2 -->
<g id="edge5_Node000002_Node000005" class="edge">
<title>Node5&#45;&gt;Node2</title>
<g id="a_edge5_Node000002_Node000005"><a xlink:title=" ">
<path fill="none" stroke="#63b8ff" d="M87.77,-62.27C159.79,-63.81 518.13,-71.48 687.3,-75.1"/>
<polygon fill="none" stroke="#63b8ff" points="687.23,-75.1 693.31,-71.23 699.23,-75.36 693.14,-79.23 687.23,-75.1"/>
</a>
</g>
<text text-anchor="middle" x="430" y="-150.75" font-family="Cascadia Code NF" font-size="10.00" fill="grey"> +kFirstPushedFrameValueOffset</text>
<text text-anchor="middle" x="430" y="-138" font-family="Cascadia Code NF" font-size="10.00" fill="grey">+kFixedFrameSize</text>
<text text-anchor="middle" x="430" y="-125.25" font-family="Cascadia Code NF" font-size="10.00" fill="grey">+kFixedFrameSizeFromFp</text>
<text text-anchor="middle" x="430" y="-112.5" font-family="Cascadia Code NF" font-size="10.00" fill="grey">+kFixedSlotCount</text>
<text text-anchor="middle" x="430" y="-99.75" font-family="Cascadia Code NF" font-size="10.00" fill="grey">+kFixedSlotCountFromFp</text>
<text text-anchor="middle" x="430" y="-87" font-family="Cascadia Code NF" font-size="10.00" fill="grey">+kFrameTypeOffset</text>
<text text-anchor="middle" x="430" y="-74.25" font-family="Cascadia Code NF" font-size="10.00" fill="grey">+kFrameTypeSize</text>
</g>
<!-- Node5&#45;&gt;Node3 -->
<g id="edge4_Node000003_Node000005" class="edge">
<title>Node5&#45;&gt;Node3</title>
<g id="a_edge4_Node000003_Node000005"><a xlink:title=" ">
<path fill="none" stroke="#63b8ff" d="M87.96,-63.57C105.61,-65.71 138.19,-69.65 166,-73 200.67,-77.18 295.44,-69.08 322,-91.75 344.23,-110.73 321.6,-132.29 340,-155 341.79,-157.21 343.71,-159.32 345.73,-161.35"/>
<polygon fill="none" stroke="#63b8ff" points="345.54,-161.18 352.69,-162.12 354.56,-169.09 347.41,-168.14 345.54,-161.18"/>
</a>
</g>
<text text-anchor="middle" x="244" y="-221.75" font-family="Cascadia Code NF" font-size="10.00" fill="grey"> +kCPSlotCount</text>
<text text-anchor="middle" x="244" y="-209" font-family="Cascadia Code NF" font-size="10.00" fill="grey">+kCPSlotSize</text>
<text text-anchor="middle" x="244" y="-196.25" font-family="Cascadia Code NF" font-size="10.00" fill="grey">+kCallerFPOffset</text>
<text text-anchor="middle" x="244" y="-183.5" font-family="Cascadia Code NF" font-size="10.00" fill="grey">+kCallerPCOffset</text>
<text text-anchor="middle" x="244" y="-170.75" font-family="Cascadia Code NF" font-size="10.00" fill="grey">+kCallerSPOffset</text>
<text text-anchor="middle" x="244" y="-158" font-family="Cascadia Code NF" font-size="10.00" fill="grey">+kConstantPoolOffset</text>
<text text-anchor="middle" x="244" y="-145.25" font-family="Cascadia Code NF" font-size="10.00" fill="grey">+kContextOrFrameTypeOffset</text>
<text text-anchor="middle" x="244" y="-132.5" font-family="Cascadia Code NF" font-size="10.00" fill="grey">+kContextOrFrameTypeSize</text>
<text text-anchor="middle" x="244" y="-119.75" font-family="Cascadia Code NF" font-size="10.00" fill="grey">+kFixedFrameSizeAboveFp</text>
<text text-anchor="middle" x="244" y="-107" font-family="Cascadia Code NF" font-size="10.00" fill="grey">+kFixedSlotCountAboveFp</text>
<text text-anchor="middle" x="244" y="-94.25" font-family="Cascadia Code NF" font-size="10.00" fill="grey">...</text>
</g>
</g>
</svg>
