<?xml version="1.0" encoding="UTF-8" standalone="no"?>
<!DOCTYPE svg PUBLIC "-//W3C//DTD SVG 1.1//EN"
 "http://www.w3.org/Graphics/SVG/1.1/DTD/svg11.dtd">
<!-- Generated by graphviz version 11.0.0 (20240428.1522)
 -->
<!-- Title: TorqueGeneratedFreeSpace&lt; D, P &gt; Pages: 1 -->
<svg width="402pt" height="249pt"
 viewBox="0.00 0.00 402.00 249.00" xmlns="http://www.w3.org/2000/svg" xmlns:xlink="http://www.w3.org/1999/xlink">

<svg id="main" version="1.1" xmlns="http://www.w3.org/2000/svg" xmlns:xlink="http://www.w3.org/1999/xlink" xml:space="preserve" onload="init(evt)">
<style type="text/css"><![CDATA[
.node, .edge {opacity: 0.7;}
.node.selected, .edge.selected {opacity: 1;}
.edge:hover path { stroke: red; }
.edge:hover polygon { stroke: red; fill: red; }
svg#main { background-color: #111; }
]]></style>
<script type="application/ecmascript" xlink:href="../../svg.min.js"/>
<svg id="graph" class="graph">
<g id="graph0" class="graph" transform="scale(1 1) rotate(0) translate(4 245)">
<title>TorqueGeneratedFreeSpace&lt; D, P &gt;</title>
<!-- Node1 -->
<g id="Node000001" class="node">
<title>Node1</title>
<g id="a_Node000001"><a xlink:title=" ">
<polygon fill="#999999" stroke="none" points="394,-241 220,-241 220,0 394,0 394,-241"/>
<text text-anchor="start" x="235" y="-227.5" font-family="Cascadia Code NF" font-size="10.00">TorqueGeneratedFreeSpace</text>
<text text-anchor="start" x="283" y="-214.75" font-family="Cascadia Code NF" font-size="10.00">&lt; D, P &gt;</text>
<text text-anchor="start" x="304" y="-198.5" font-family="Cascadia Code NF" font-size="10.00"> </text>
<text text-anchor="start" x="224" y="-182.5" font-family="Cascadia Code NF" font-size="10.00">+</text>
<text text-anchor="start" x="234" y="-182.5" font-family="Cascadia Code NF" font-size="10.00">size()</text>
<text text-anchor="start" x="224" y="-166.5" font-family="Cascadia Code NF" font-size="10.00">+</text>
<text text-anchor="start" x="234" y="-166.5" font-family="Cascadia Code NF" font-size="10.00">set_size()</text>
<text text-anchor="start" x="224" y="-150.5" font-family="Cascadia Code NF" font-size="10.00">+</text>
<text text-anchor="start" x="234" y="-150.5" font-family="Cascadia Code NF" font-size="10.00">next()</text>
<text text-anchor="start" x="224" y="-134.5" font-family="Cascadia Code NF" font-size="10.00">+</text>
<text text-anchor="start" x="234" y="-134.5" font-family="Cascadia Code NF" font-size="10.00">next()</text>
<text text-anchor="start" x="224" y="-118.5" font-family="Cascadia Code NF" font-size="10.00">+</text>
<text text-anchor="start" x="234" y="-118.5" font-family="Cascadia Code NF" font-size="10.00">set_next()</text>
<text text-anchor="start" x="224" y="-102.5" font-family="Cascadia Code NF" font-size="10.00">+</text>
<text text-anchor="start" x="234" y="-102.5" font-family="Cascadia Code NF" font-size="10.00">AllocatedSize()</text>
<text text-anchor="start" x="224" y="-86.5" font-family="Cascadia Code NF" font-size="10.00">+</text>
<text text-anchor="start" x="234" y="-86.5" font-family="Cascadia Code NF" font-size="10.00">TorqueGeneratedFreeSpace()</text>
<text text-anchor="start" x="224" y="-70.5" font-family="Cascadia Code NF" font-size="10.00">+</text>
<text text-anchor="start" x="234" y="-70.5" font-family="Cascadia Code NF" font-size="10.00">cast()</text>
<text text-anchor="start" x="224" y="-54.5" font-family="Cascadia Code NF" font-size="10.00">+</text>
<text text-anchor="start" x="234" y="-54.5" font-family="Cascadia Code NF" font-size="10.00">unchecked_cast()</text>
<text text-anchor="start" x="224" y="-38.5" font-family="Cascadia Code NF" font-size="10.00">+</text>
<text text-anchor="start" x="234" y="-38.5" font-family="Cascadia Code NF" font-size="10.00">SizeFor()</text>
<text text-anchor="start" x="224" y="-22.5" font-family="Cascadia Code NF" font-size="10.00">#</text>
<text text-anchor="start" x="234" y="-22.5" font-family="Cascadia Code NF" font-size="10.00">TorqueGeneratedFreeSpace()</text>
<text text-anchor="start" x="224" y="-6.5" font-family="Cascadia Code NF" font-size="10.00">#</text>
<text text-anchor="start" x="234" y="-6.5" font-family="Cascadia Code NF" font-size="10.00">TorqueGeneratedFreeSpace()</text>
<polygon fill="#666666" stroke="#666666" points="220,-210 220,-210 394,-210 394,-210 220,-210"/>
<polygon fill="#666666" stroke="#666666" points="220,-194 220,-194 394,-194 394,-194 220,-194"/>
<polygon fill="none" stroke="#666666" points="220,0 220,-241 394,-241 394,0 220,0"/>
</a>
</g>
</g>
<!-- Node2 -->
<g id="Node000002" class="node">
<title>Node2</title>
<g id="a_Node000002"><a xlink:href="../../db/d72/classP.html" target="_top" xlink:title=" ">
<polygon fill="white" stroke="none" points="22,-234.5 6,-234.5 6,-182.5 22,-182.5 22,-234.5"/>
<text text-anchor="start" x="11" y="-221" font-family="Cascadia Code NF" font-size="10.00">P</text>
<text text-anchor="start" x="11" y="-205" font-family="Cascadia Code NF" font-size="10.00"> </text>
<text text-anchor="start" x="11" y="-189" font-family="Cascadia Code NF" font-size="10.00"> </text>
<polygon fill="#bfbfbf" stroke="#bfbfbf" points="6,-216.5 6,-216.5 22,-216.5 22,-216.5 6,-216.5"/>
<polygon fill="#bfbfbf" stroke="#bfbfbf" points="6,-200.5 6,-200.5 22,-200.5 22,-200.5 6,-200.5"/>
<polygon fill="none" stroke="#bfbfbf" points="6,-182.5 6,-234.5 22,-234.5 22,-182.5 6,-182.5"/>
</a>
</g>
</g>
<!-- Node2&#45;&gt;Node1 -->
<g id="edge1_Node000001_Node000002" class="edge">
<title>Node2&#45;&gt;Node1</title>
<g id="a_edge1_Node000001_Node000002"><a xlink:title=" ">
<path fill="none" stroke="#63b8ff" d="M32.89,-209C66.88,-209.39 142.72,-207.56 202,-186.5 208.05,-184.35 214.1,-181.8 220.08,-178.97"/>
<polygon fill="none" stroke="#63b8ff" points="33.28,-205.51 23.21,-208.8 33.14,-212.5 33.28,-205.51"/>
</a>
</g>
</g>
<!-- Node3 -->
<g id="Node000003" class="node">
<title>Node3</title>
<g id="a_Node000003"><a xlink:href="../../d1/da0/classint.html" target="_top" xlink:title=" ">
<polygon fill="white" stroke="none" points="28,-58.5 0,-58.5 0,-6.5 28,-6.5 28,-58.5"/>
<text text-anchor="start" x="5" y="-45" font-family="Cascadia Code NF" font-size="10.00">int</text>
<text text-anchor="start" x="11" y="-29" font-family="Cascadia Code NF" font-size="10.00"> </text>
<text text-anchor="start" x="11" y="-13" font-family="Cascadia Code NF" font-size="10.00"> </text>
<polygon fill="#bfbfbf" stroke="#bfbfbf" points="0,-40.5 0,-40.5 28,-40.5 28,-40.5 0,-40.5"/>
<polygon fill="#bfbfbf" stroke="#bfbfbf" points="0,-24.5 0,-24.5 28,-24.5 28,-24.5 0,-24.5"/>
<polygon fill="none" stroke="#bfbfbf" points="0,-6.5 0,-58.5 28,-58.5 28,-6.5 0,-6.5"/>
</a>
</g>
</g>
<!-- Node3&#45;&gt;Node1 -->
<g id="edge2_Node000001_Node000003" class="edge">
<title>Node3&#45;&gt;Node1</title>
<g id="a_edge2_Node000001_Node000003"><a xlink:title=" ">
<path fill="none" stroke="#63b8ff" d="M27.79,-29.19C58.87,-21.79 140.3,-6.32 202,-29.5 204.22,-30.33 206.42,-31.24 208.61,-32.21"/>
<polygon fill="none" stroke="#63b8ff" points="208.57,-32.19 215.73,-31.3 219.3,-37.57 212.14,-38.45 208.57,-32.19"/>
</a>
</g>
<text text-anchor="middle" x="124" y="-173" font-family="Cascadia Code NF" font-size="10.00" fill="grey"> +kEndOfStrongFieldsOffset</text>
<text text-anchor="middle" x="124" y="-160.25" font-family="Cascadia Code NF" font-size="10.00" fill="grey">+kEndOfWeakFieldsOffset</text>
<text text-anchor="middle" x="124" y="-147.5" font-family="Cascadia Code NF" font-size="10.00" fill="grey">+kHeaderSize</text>
<text text-anchor="middle" x="124" y="-134.75" font-family="Cascadia Code NF" font-size="10.00" fill="grey">+kNextOffset</text>
<text text-anchor="middle" x="124" y="-122" font-family="Cascadia Code NF" font-size="10.00" fill="grey">+kNextOffsetEnd</text>
<text text-anchor="middle" x="124" y="-109.25" font-family="Cascadia Code NF" font-size="10.00" fill="grey">+kSize</text>
<text text-anchor="middle" x="124" y="-96.5" font-family="Cascadia Code NF" font-size="10.00" fill="grey">+kSizeOffset</text>
<text text-anchor="middle" x="124" y="-83.75" font-family="Cascadia Code NF" font-size="10.00" fill="grey">+kSizeOffsetEnd</text>
<text text-anchor="start" x="46" y="-71" font-family="Cascadia Code NF" font-size="10.00" fill="grey">+kStartOfStrongFields</text>
<text text-anchor="middle" x="124" y="-58.25" font-family="Cascadia Code NF" font-size="10.00" fill="grey">Offset</text>
<text text-anchor="middle" x="124" y="-45.5" font-family="Cascadia Code NF" font-size="10.00" fill="grey">+kStartOfWeakFieldsOffset</text>
<text text-anchor="middle" x="124" y="-32.75" font-family="Cascadia Code NF" font-size="10.00" fill="grey">...</text>
</g>
</g>
</svg>
</svg>

<style type='text/css'>
<![CDATA[
[data-mouse-over-selected='false'] { opacity: 0.7; }
[data-mouse-over-selected='true']  { opacity: 1.0; }
]]>
</style>
<script type="application/ecmascript"><![CDATA[
document.addEventListener('DOMContentLoaded', (event) => {
  highlightEdges();
  highlightAdjacentNodes();
});
]]></script>
</svg>
