<?xml version="1.0" encoding="UTF-8" standalone="no"?>
<!DOCTYPE svg PUBLIC "-//W3C//DTD SVG 1.1//EN"
 "http://www.w3.org/Graphics/SVG/1.1/DTD/svg11.dtd">
<!-- Generated by graphviz version 11.0.0 (20240428.1522)
 -->
<!-- Title: v8::internal::JSArrayBufferView Pages: 1 -->
<svg width="650pt" height="525pt"
 viewBox="0.00 0.00 650.00 525.00" xmlns="http://www.w3.org/2000/svg" xmlns:xlink="http://www.w3.org/1999/xlink">
<g id="graph0" class="graph" transform="scale(1 1) rotate(0) translate(4 521)">
<title>v8::internal::JSArrayBufferView</title>
<!-- Node1 -->
<g id="Node000001" class="node">
<title>Node1</title>
<g id="a_Node000001"><a xlink:title=" ">
<polygon fill="#999999" stroke="none" points="642,-292.5 446,-292.5 446,-224.5 642,-224.5 642,-292.5"/>
<text text-anchor="start" x="451" y="-279" font-family="Cascadia Code NF" font-size="10.00">v8::internal::JSArrayBufferView</text>
<text text-anchor="start" x="541" y="-263" font-family="Cascadia Code NF" font-size="10.00"> </text>
<text text-anchor="start" x="467.5" y="-247" font-family="Cascadia Code NF" font-size="10.00">+</text>
<text text-anchor="start" x="495" y="-247" font-family="Cascadia Code NF" font-size="10.00">WasDetached()</text>
<text text-anchor="start" x="467.5" y="-231" font-family="Cascadia Code NF" font-size="10.00">+</text>
<text text-anchor="start" x="495" y="-231" font-family="Cascadia Code NF" font-size="10.00">IsVariableLength()</text>
<polygon fill="#666666" stroke="#666666" points="446,-274.5 446,-274.5 642,-274.5 642,-274.5 446,-274.5"/>
<polygon fill="#666666" stroke="#666666" points="446,-258.5 446,-258.5 642,-258.5 642,-258.5 446,-258.5"/>
<polygon fill="none" stroke="#666666" points="446,-224.5 446,-292.5 642,-292.5 642,-224.5 446,-224.5"/>
</a>
</g>
</g>
<!-- Node2 -->
<g id="Node000002" class="node">
<title>Node2</title>
<g id="a_Node000002"><a xlink:href="$df/d3a/classTorqueGeneratedJSArrayBufferView.html" xlink:title=" ">
<polygon fill="white" stroke="none" points="410,-517 214,-517 214,0 410,0 410,-517"/>
<text text-anchor="start" x="219" y="-503.5" font-family="Cascadia Code NF" font-size="10.00">TorqueGeneratedJSArrayBuffer</text>
<text text-anchor="start" x="219" y="-490.75" font-family="Cascadia Code NF" font-size="10.00">View&lt; JSArrayBufferView,</text>
<text text-anchor="start" x="219" y="-478" font-family="Cascadia Code NF" font-size="10.00"> JSAPIObjectWithEmbedderSlots &gt;</text>
<text text-anchor="start" x="220.5" y="-461.5" font-family="Cascadia Code NF" font-size="10.00">+</text>
<text text-anchor="start" x="233" y="-461.5" font-family="Cascadia Code NF" font-size="10.00">kStartOfStrongFieldsOffset</text>
<text text-anchor="start" x="220.5" y="-445.5" font-family="Cascadia Code NF" font-size="10.00">+</text>
<text text-anchor="start" x="233" y="-445.5" font-family="Cascadia Code NF" font-size="10.00">kBufferOffset</text>
<text text-anchor="start" x="220.5" y="-429.5" font-family="Cascadia Code NF" font-size="10.00">+</text>
<text text-anchor="start" x="233" y="-429.5" font-family="Cascadia Code NF" font-size="10.00">kBufferOffsetEnd</text>
<text text-anchor="start" x="220.5" y="-413.5" font-family="Cascadia Code NF" font-size="10.00">+</text>
<text text-anchor="start" x="233" y="-413.5" font-family="Cascadia Code NF" font-size="10.00">kEndOfStrongFieldsOffset</text>
<text text-anchor="start" x="220.5" y="-397.5" font-family="Cascadia Code NF" font-size="10.00">+</text>
<text text-anchor="start" x="233" y="-397.5" font-family="Cascadia Code NF" font-size="10.00">kBitFieldOffset</text>
<text text-anchor="start" x="220.5" y="-381.5" font-family="Cascadia Code NF" font-size="10.00">+</text>
<text text-anchor="start" x="233" y="-381.5" font-family="Cascadia Code NF" font-size="10.00">kBitFieldOffsetEnd</text>
<text text-anchor="start" x="220.5" y="-365.5" font-family="Cascadia Code NF" font-size="10.00">+</text>
<text text-anchor="start" x="233" y="-365.5" font-family="Cascadia Code NF" font-size="10.00">kRawByteOffsetOffset</text>
<text text-anchor="start" x="220.5" y="-349.5" font-family="Cascadia Code NF" font-size="10.00">+</text>
<text text-anchor="start" x="233" y="-349.5" font-family="Cascadia Code NF" font-size="10.00">kRawByteOffsetOffsetEnd</text>
<text text-anchor="start" x="220.5" y="-333.5" font-family="Cascadia Code NF" font-size="10.00">+</text>
<text text-anchor="start" x="233" y="-333.5" font-family="Cascadia Code NF" font-size="10.00">kRawByteLengthOffset</text>
<text text-anchor="start" x="220.5" y="-317.5" font-family="Cascadia Code NF" font-size="10.00">+</text>
<text text-anchor="start" x="233" y="-317.5" font-family="Cascadia Code NF" font-size="10.00">kRawByteLengthOffsetEnd</text>
<text text-anchor="start" x="220.5" y="-301.5" font-family="Cascadia Code NF" font-size="10.00">+</text>
<text text-anchor="start" x="233" y="-301.5" font-family="Cascadia Code NF" font-size="10.00">kStartOfWeakFieldsOffset</text>
<text text-anchor="start" x="220.5" y="-285.5" font-family="Cascadia Code NF" font-size="10.00">+</text>
<text text-anchor="start" x="233" y="-285.5" font-family="Cascadia Code NF" font-size="10.00">kEndOfWeakFieldsOffset</text>
<text text-anchor="start" x="220.5" y="-269.5" font-family="Cascadia Code NF" font-size="10.00">+</text>
<text text-anchor="start" x="233" y="-269.5" font-family="Cascadia Code NF" font-size="10.00">kHeaderSize</text>
<text text-anchor="start" x="220.5" y="-253.5" font-family="Cascadia Code NF" font-size="10.00">+</text>
<text text-anchor="start" x="233" y="-253.5" font-family="Cascadia Code NF" font-size="10.00">buffer()</text>
<text text-anchor="start" x="220.5" y="-237.5" font-family="Cascadia Code NF" font-size="10.00">+</text>
<text text-anchor="start" x="233" y="-237.5" font-family="Cascadia Code NF" font-size="10.00">buffer()</text>
<text text-anchor="start" x="220.5" y="-221.5" font-family="Cascadia Code NF" font-size="10.00">+</text>
<text text-anchor="start" x="233" y="-221.5" font-family="Cascadia Code NF" font-size="10.00">set_buffer()</text>
<text text-anchor="start" x="220.5" y="-205.5" font-family="Cascadia Code NF" font-size="10.00">+</text>
<text text-anchor="start" x="233" y="-205.5" font-family="Cascadia Code NF" font-size="10.00">bit_field()</text>
<text text-anchor="start" x="220.5" y="-189.5" font-family="Cascadia Code NF" font-size="10.00">+</text>
<text text-anchor="start" x="233" y="-189.5" font-family="Cascadia Code NF" font-size="10.00">set_bit_field()</text>
<text text-anchor="start" x="220.5" y="-173.5" font-family="Cascadia Code NF" font-size="10.00">+</text>
<text text-anchor="start" x="233" y="-173.5" font-family="Cascadia Code NF" font-size="10.00">raw_byte_offset()</text>
<text text-anchor="start" x="220.5" y="-157.5" font-family="Cascadia Code NF" font-size="10.00">+</text>
<text text-anchor="start" x="233" y="-157.5" font-family="Cascadia Code NF" font-size="10.00">set_raw_byte_offset()</text>
<text text-anchor="start" x="220.5" y="-141.5" font-family="Cascadia Code NF" font-size="10.00">+</text>
<text text-anchor="start" x="233" y="-141.5" font-family="Cascadia Code NF" font-size="10.00">raw_byte_length()</text>
<text text-anchor="start" x="220.5" y="-125.5" font-family="Cascadia Code NF" font-size="10.00">+</text>
<text text-anchor="start" x="233" y="-125.5" font-family="Cascadia Code NF" font-size="10.00">set_raw_byte_length()</text>
<text text-anchor="start" x="220.5" y="-109.5" font-family="Cascadia Code NF" font-size="10.00">+</text>
<text text-anchor="start" x="233" y="-109.5" font-family="Cascadia Code NF" font-size="10.00">TorqueGeneratedJSArrayBuffer</text>
<text text-anchor="start" x="233" y="-96.75" font-family="Cascadia Code NF" font-size="10.00">View()</text>
<text text-anchor="start" x="220.5" y="-80.5" font-family="Cascadia Code NF" font-size="10.00">+</text>
<text text-anchor="start" x="233" y="-80.5" font-family="Cascadia Code NF" font-size="10.00">cast()</text>
<text text-anchor="start" x="220.5" y="-64.5" font-family="Cascadia Code NF" font-size="10.00">+</text>
<text text-anchor="start" x="233" y="-64.5" font-family="Cascadia Code NF" font-size="10.00">unchecked_cast()</text>
<text text-anchor="start" x="220.5" y="-48.5" font-family="Cascadia Code NF" font-size="10.00">#</text>
<text text-anchor="start" x="233" y="-48.5" font-family="Cascadia Code NF" font-size="10.00">TorqueGeneratedJSArrayBuffer</text>
<text text-anchor="start" x="233" y="-35.75" font-family="Cascadia Code NF" font-size="10.00">View()</text>
<text text-anchor="start" x="220.5" y="-19.5" font-family="Cascadia Code NF" font-size="10.00">#</text>
<text text-anchor="start" x="233" y="-19.5" font-family="Cascadia Code NF" font-size="10.00">TorqueGeneratedJSArrayBuffer</text>
<text text-anchor="start" x="233" y="-6.75" font-family="Cascadia Code NF" font-size="10.00">View()</text>
<polygon fill="#bfbfbf" stroke="#bfbfbf" points="214,-473 214,-473 410,-473 410,-473 214,-473"/>
<polygon fill="#bfbfbf" stroke="#bfbfbf" points="214,-265 214,-265 231,-265 231,-265 214,-265"/>
<polygon fill="#bfbfbf" stroke="#bfbfbf" points="231,-265 231,-265 410,-265 410,-265 231,-265"/>
<polygon fill="none" stroke="#bfbfbf" points="214,0 214,-517 410,-517 410,0 214,0"/>
</a>
</g>
</g>
<!-- Node2&#45;&gt;Node1 -->
<g id="edge1_Node000001_Node000002" class="edge">
<title>Node2&#45;&gt;Node1</title>
<g id="a_edge1_Node000001_Node000002"><a xlink:title=" ">
<path fill="none" stroke="#63b8ff" d="M421.22,-258.5C429.57,-258.5 437.97,-258.5 446.24,-258.5"/>
<polygon fill="none" stroke="#63b8ff" points="421.39,-255 411.39,-258.5 421.39,-262 421.39,-255"/>
</a>
</g>
</g>
<!-- Node3 -->
<g id="Node000003" class="node">
<title>Node3</title>
<g id="a_Node000003"><a xlink:title=" ">
<polygon fill="white" stroke="none" points="178,-284.5 0,-284.5 0,-232.5 178,-232.5 178,-284.5"/>
<text text-anchor="start" x="5" y="-271" font-family="Cascadia Code NF" font-size="10.00">JSAPIObjectWithEmbedderSlots</text>
<text text-anchor="start" x="86" y="-255" font-family="Cascadia Code NF" font-size="10.00"> </text>
<text text-anchor="start" x="86" y="-239" font-family="Cascadia Code NF" font-size="10.00"> </text>
<polygon fill="#bfbfbf" stroke="#bfbfbf" points="0,-266.5 0,-266.5 178,-266.5 178,-266.5 0,-266.5"/>
<polygon fill="#bfbfbf" stroke="#bfbfbf" points="0,-250.5 0,-250.5 178,-250.5 178,-250.5 0,-250.5"/>
<polygon fill="none" stroke="#bfbfbf" points="0,-232.5 0,-284.5 178,-284.5 178,-232.5 0,-232.5"/>
</a>
</g>
</g>
<!-- Node3&#45;&gt;Node2 -->
<g id="edge2_Node000002_Node000003" class="edge">
<title>Node3&#45;&gt;Node2</title>
<g id="a_edge2_Node000002_Node000003"><a xlink:title=" ">
<path fill="none" stroke="#63b8ff" d="M189.24,-258.5C197.55,-258.5 205.95,-258.5 214.24,-258.5"/>
<polygon fill="none" stroke="#63b8ff" points="189.49,-255 179.49,-258.5 189.49,-262 189.49,-255"/>
</a>
</g>
</g>
</g>
</svg>
