<?xml version="1.0" encoding="UTF-8" standalone="no"?>
<!DOCTYPE svg PUBLIC "-//W3C//DTD SVG 1.1//EN"
 "http://www.w3.org/Graphics/SVG/1.1/DTD/svg11.dtd">
<!-- Generated by graphviz version 11.0.0 (20240428.1522)
 -->
<!-- Title: v8::internal::Cluster Pages: 1 -->
<svg width="146pt" height="92pt"
 viewBox="0.00 0.00 146.00 92.00" xmlns="http://www.w3.org/2000/svg" xmlns:xlink="http://www.w3.org/1999/xlink">
<g id="graph0" class="graph" transform="scale(1 1) rotate(0) translate(4 88)">
<title>v8::internal::Cluster</title>
<!-- Node1 -->
<g id="Node000001" class="node">
<title>Node1</title>
<g id="a_Node000001"><a xlink:title=" ">
<polygon fill="#999999" stroke="none" points="138,-84 0,-84 0,0 138,0 138,-84"/>
<text text-anchor="start" x="6" y="-70.5" font-family="Cascadia Code NF" font-size="10.00">v8::internal::Cluster</text>
<text text-anchor="start" x="66" y="-54.5" font-family="Cascadia Code NF" font-size="10.00"> </text>
<text text-anchor="start" x="4" y="-38.5" font-family="Cascadia Code NF" font-size="10.00">+</text>
<text text-anchor="start" x="14" y="-38.5" font-family="Cascadia Code NF" font-size="10.00">Cluster()</text>
<text text-anchor="start" x="4" y="-22.5" font-family="Cascadia Code NF" font-size="10.00">+</text>
<text text-anchor="start" x="14" y="-22.5" font-family="Cascadia Code NF" font-size="10.00">Merge()</text>
<text text-anchor="start" x="4" y="-6.5" font-family="Cascadia Code NF" font-size="10.00">+</text>
<text text-anchor="start" x="14" y="-6.5" font-family="Cascadia Code NF" font-size="10.00">time_approximation()</text>
<polygon fill="#666666" stroke="#666666" points="0,-66 0,-66 138,-66 138,-66 0,-66"/>
<polygon fill="#666666" stroke="#666666" points="0,-50 0,-50 138,-50 138,-50 0,-50"/>
<polygon fill="none" stroke="#666666" points="0,0 0,-84 138,-84 138,0 0,0"/>
</a>
</g>
</g>
</g>
</svg>
