<?xml version="1.0" encoding="UTF-8" standalone="no"?>
<!DOCTYPE svg PUBLIC "-//W3C//DTD SVG 1.1//EN"
 "http://www.w3.org/Graphics/SVG/1.1/DTD/svg11.dtd">
<!-- Generated by graphviz version 11.0.0 (20240428.1522)
 -->
<!-- Title: v8::internal::HASH_VTAB Pages: 1 -->
<svg width="292pt" height="200pt"
 viewBox="0.00 0.00 292.00 200.00" xmlns="http://www.w3.org/2000/svg" xmlns:xlink="http://www.w3.org/1999/xlink">
<g id="graph0" class="graph" transform="scale(1 1) rotate(0) translate(4 196)">
<title>v8::internal::HASH_VTAB</title>
<!-- Node1 -->
<g id="Node000001" class="node">
<title>Node1</title>
<g id="a_Node000001"><a xlink:title=" ">
<polygon fill="#999999" stroke="none" points="284,-122 136,-122 136,-70 284,-70 284,-122"/>
<text text-anchor="start" x="141" y="-108.5" font-family="Cascadia Code NF" font-size="10.00">v8::internal::HASH_VTAB</text>
<text text-anchor="start" x="207" y="-92.5" font-family="Cascadia Code NF" font-size="10.00"> </text>
<text text-anchor="start" x="207" y="-76.5" font-family="Cascadia Code NF" font-size="10.00"> </text>
<polygon fill="#666666" stroke="#666666" points="136,-104 136,-104 284,-104 284,-104 136,-104"/>
<polygon fill="#666666" stroke="#666666" points="136,-88 136,-88 284,-88 284,-88 136,-88"/>
<polygon fill="none" stroke="#666666" points="136,-70 136,-122 284,-122 284,-70 136,-70"/>
</a>
</g>
</g>
<!-- Node2 -->
<g id="Node000002" class="node">
<title>Node2</title>
<g id="a_Node000002"><a xlink:title=" ">
<polygon fill="white" stroke="none" points="46,-192 12,-192 12,-140 46,-140 46,-192"/>
<text text-anchor="start" x="17" y="-178.5" font-family="Cascadia Code NF" font-size="10.00">void</text>
<text text-anchor="start" x="26" y="-162.5" font-family="Cascadia Code NF" font-size="10.00"> </text>
<text text-anchor="start" x="26" y="-146.5" font-family="Cascadia Code NF" font-size="10.00"> </text>
<polygon fill="#bfbfbf" stroke="#bfbfbf" points="12,-174 12,-174 46,-174 46,-174 12,-174"/>
<polygon fill="#bfbfbf" stroke="#bfbfbf" points="12,-158 12,-158 46,-158 46,-158 12,-158"/>
<polygon fill="none" stroke="#bfbfbf" points="12,-140 12,-192 46,-192 46,-140 12,-140"/>
</a>
</g>
</g>
<!-- Node2&#45;&gt;Node1 -->
<g id="edge1_Node000001_Node000002" class="edge">
<title>Node2&#45;&gt;Node1</title>
<g id="a_edge1_Node000001_Node000002"><a xlink:title=" ">
<path fill="none" stroke="#63b8ff" d="M45.89,-159.79C65.08,-152.28 98.77,-139.11 130.57,-126.67"/>
<polygon fill="none" stroke="#63b8ff" points="130.61,-126.65 134.74,-120.74 141.79,-122.28 137.66,-128.19 130.61,-126.65"/>
</a>
</g>
<text text-anchor="middle" x="97" y="-163" font-family="Cascadia Code NF" font-size="10.00" fill="grey"> +init</text>
<text text-anchor="middle" x="97" y="-150.25" font-family="Cascadia Code NF" font-size="10.00" fill="grey">+update</text>
</g>
<!-- Node3 -->
<g id="Node000003" class="node">
<title>Node3</title>
<g id="a_Node000003"><a xlink:title=" ">
<polygon fill="white" stroke="none" points="49,-122 9,-122 9,-70 49,-70 49,-122"/>
<text text-anchor="start" x="14" y="-108.5" font-family="Cascadia Code NF" font-size="10.00">const</text>
<text text-anchor="start" x="26" y="-92.5" font-family="Cascadia Code NF" font-size="10.00"> </text>
<text text-anchor="start" x="26" y="-76.5" font-family="Cascadia Code NF" font-size="10.00"> </text>
<polygon fill="#bfbfbf" stroke="#bfbfbf" points="9,-104 9,-104 49,-104 49,-104 9,-104"/>
<polygon fill="#bfbfbf" stroke="#bfbfbf" points="9,-88 9,-88 49,-88 49,-88 9,-88"/>
<polygon fill="none" stroke="#bfbfbf" points="9,-70 9,-122 49,-122 49,-70 9,-70"/>
</a>
</g>
</g>
<!-- Node3&#45;&gt;Node1 -->
<g id="edge2_Node000001_Node000003" class="edge">
<title>Node3&#45;&gt;Node1</title>
<g id="a_edge2_Node000001_Node000003"><a xlink:title=" ">
<path fill="none" stroke="#63b8ff" d="M48.82,-96C66.88,-96 95.48,-96 123.54,-96"/>
<polygon fill="none" stroke="#63b8ff" points="123.46,-96 129.46,-92 135.46,-96 129.46,-100 123.46,-96"/>
</a>
</g>
<text text-anchor="middle" x="97" y="-112" font-family="Cascadia Code NF" font-size="10.00" fill="grey"> +final</text>
<text text-anchor="middle" x="97" y="-99.25" font-family="Cascadia Code NF" font-size="10.00" fill="grey">+hash</text>
</g>
<!-- Node4 -->
<g id="Node000004" class="node">
<title>Node4</title>
<g id="a_Node000004"><a xlink:title=" ">
<polygon fill="white" stroke="none" points="58,-52 0,-52 0,0 58,0 58,-52"/>
<text text-anchor="start" x="5" y="-38.5" font-family="Cascadia Code NF" font-size="10.00">unsigned</text>
<text text-anchor="start" x="26" y="-22.5" font-family="Cascadia Code NF" font-size="10.00"> </text>
<text text-anchor="start" x="26" y="-6.5" font-family="Cascadia Code NF" font-size="10.00"> </text>
<polygon fill="#bfbfbf" stroke="#bfbfbf" points="0,-34 0,-34 58,-34 58,-34 0,-34"/>
<polygon fill="#bfbfbf" stroke="#bfbfbf" points="0,-18 0,-18 58,-18 58,-18 0,-18"/>
<polygon fill="none" stroke="#bfbfbf" points="0,0 0,-52 58,-52 58,0 0,0"/>
</a>
</g>
</g>
<!-- Node4&#45;&gt;Node1 -->
<g id="edge3_Node000001_Node000004" class="edge">
<title>Node4&#45;&gt;Node1</title>
<g id="a_edge3_Node000001_Node000004"><a xlink:title=" ">
<path fill="none" stroke="#63b8ff" d="M57.97,-36.94C77.58,-44.61 104.83,-55.26 130.8,-65.42"/>
<polygon fill="none" stroke="#63b8ff" points="130.59,-65.34 137.63,-63.8 141.76,-69.71 134.72,-71.25 130.59,-65.34"/>
</a>
</g>
<text text-anchor="middle" x="97" y="-61.25" font-family="Cascadia Code NF" font-size="10.00" fill="grey"> +size</text>
</g>
</g>
</svg>
