<?xml version="1.0" encoding="UTF-8" standalone="no"?>
<!DOCTYPE svg PUBLIC "-//W3C//DTD SVG 1.1//EN"
 "http://www.w3.org/Graphics/SVG/1.1/DTD/svg11.dtd">
<!-- Generated by graphviz version 11.0.0 (20240428.1522)
 -->
<!-- Title: v8::internal::PromiseRejectReactionJobTask Pages: 1 -->
<!--zoomable 221 -->

<svg id="main" version="1.1" xmlns="http://www.w3.org/2000/svg" xmlns:xlink="http://www.w3.org/1999/xlink" xml:space="preserve" onload="init(evt)">
<style type="text/css"><![CDATA[
.node, .edge {opacity: 0.7;}
.node.selected, .edge.selected {opacity: 1;}
.edge:hover path { stroke: red; }
.edge:hover polygon { stroke: red; fill: red; }
svg#main { background-color: #111; }
]]></style>

<defs>
  <circle id="rim" cx="0" cy="0" r="7"/>
  <circle id="rim2" cx="0" cy="0" r="3.5"/>
  <g id="zoomPlus">
    <use xlink:href="#rim" fill="#404040"><set attributeName="fill" to="#808080" begin="zoomplus.mouseover" end="zoomplus.mouseout"/></use>
    <path d="M-4,0h8M0,-4v8" fill="none" stroke="white" stroke-width="1.5" pointer-events="none"/>
  </g>
  <g id="zoomMin">
    <use xlink:href="#rim" fill="#404040"><set attributeName="fill" to="#808080" begin="zoomminus.mouseover" end="zoomminus.mouseout"/></use>
    <path d="M-4,0h8" fill="none" stroke="white" stroke-width="1.5" pointer-events="none"/>
  </g>
  <g id="arrowUp" transform="translate(30 24)">
    <use xlink:href="#rim"/>
    <path pointer-events="none" fill="none" stroke="white" stroke-width="1.5" d="M0,-3.0v7 M-2.5,-0.5L0,-3.0L2.5,-0.5"/>
  </g>
  <g id="arrowRight" transform="rotate(90) translate(36 -43)">
    <use xlink:href="#rim"/>
    <path pointer-events="none" fill="none" stroke="white" stroke-width="1.5" d="M0,-3.0v7 M-2.5,-0.5L0,-3.0L2.5,-0.5"/>
  </g>
  <g id="arrowDown" transform="rotate(180) translate(-30 -48)">
    <use xlink:href="#rim"/>
    <path pointer-events="none" fill="none" stroke="white" stroke-width="1.5" d="M0,-3.0v7 M-2.5,-0.5L0,-3.0L2.5,-0.5"/>
  </g>
  <g id="arrowLeft" transform="rotate(270) translate(-36 17)">
    <use xlink:href="#rim"/>
    <path pointer-events="none" fill="none" stroke="white" stroke-width="1.5" d="M0,-3.0v7 M-2.5,-0.5L0,-3.0L2.5,-0.5"/>
  </g>
  <g id="resetDef">
    <use xlink:href="#rim2" fill="#404040"><set attributeName="fill" to="#808080" begin="reset.mouseover" end="reset.mouseout"/></use>
  </g>
</defs>
<script type="application/ecmascript">
var viewWidth = 788;
var viewHeight = 221;
var sectionId = 'dynsection-1';
</script>
<script type="application/ecmascript" xlink:href="../../svg.min.js"/>
<svg id="graph" class="graph">
<g id="viewport">
<title>v8::internal::PromiseRejectReactionJobTask</title>
<!-- Node1 -->
<g id="Node000001" class="node">
<title>Node1</title>
<g id="a_Node000001"><a xlink:title=" ">
<polygon fill="#999999" stroke="none" points="780,-139 608,-139 608,-74 780,-74 780,-139"/>
<text text-anchor="start" x="613" y="-125.5" font-family="Cascadia Code NF" font-size="10.00">v8::internal::PromiseReject</text>
<text text-anchor="start" x="649" y="-112.75" font-family="Cascadia Code NF" font-size="10.00">ReactionJobTask</text>
<text text-anchor="start" x="691" y="-96.5" font-family="Cascadia Code NF" font-size="10.00"> </text>
<text text-anchor="start" x="691" y="-80.5" font-family="Cascadia Code NF" font-size="10.00"> </text>
<polygon fill="#666666" stroke="#666666" points="608,-108 608,-108 780,-108 780,-108 608,-108"/>
<polygon fill="#666666" stroke="#666666" points="608,-92 608,-92 780,-92 780,-92 608,-92"/>
<polygon fill="none" stroke="#666666" points="608,-74 608,-139 780,-139 780,-74 608,-74"/>
</a>
</g>
</g>
<!-- Node2 -->
<g id="Node000002" class="node">
<title>Node2</title>
<g id="a_Node000002"><a xlink:href="../../de/de0/classTorqueGeneratedPromiseRejectReactionJobTask.html" target="_top" xlink:title=" ">
<polygon fill="white" stroke="none" points="572,-213 334,-213 334,0 572,0 572,-213"/>
<text text-anchor="start" x="339" y="-199.5" font-family="Cascadia Code NF" font-size="10.00">TorqueGeneratedPromiseReject</text>
<text text-anchor="start" x="339" y="-186.75" font-family="Cascadia Code NF" font-size="10.00">ReactionJobTask&lt; PromiseRejectReaction</text>
<text text-anchor="start" x="354" y="-174" font-family="Cascadia Code NF" font-size="10.00">JobTask, PromiseReactionJobTask &gt;</text>
<text text-anchor="start" x="450" y="-157.5" font-family="Cascadia Code NF" font-size="10.00"> </text>
<text text-anchor="start" x="351" y="-141.5" font-family="Cascadia Code NF" font-size="10.00">+</text>
<text text-anchor="start" x="374" y="-141.5" font-family="Cascadia Code NF" font-size="10.00">AllocatedSize()</text>
<text text-anchor="start" x="351" y="-125.5" font-family="Cascadia Code NF" font-size="10.00">+</text>
<text text-anchor="start" x="374" y="-125.5" font-family="Cascadia Code NF" font-size="10.00">TorqueGeneratedPromiseReject</text>
<text text-anchor="start" x="374" y="-112.75" font-family="Cascadia Code NF" font-size="10.00">ReactionJobTask()</text>
<text text-anchor="start" x="351" y="-96.5" font-family="Cascadia Code NF" font-size="10.00">+</text>
<text text-anchor="start" x="374" y="-96.5" font-family="Cascadia Code NF" font-size="10.00">cast()</text>
<text text-anchor="start" x="351" y="-80.5" font-family="Cascadia Code NF" font-size="10.00">+</text>
<text text-anchor="start" x="374" y="-80.5" font-family="Cascadia Code NF" font-size="10.00">unchecked_cast()</text>
<text text-anchor="start" x="351" y="-64.5" font-family="Cascadia Code NF" font-size="10.00">+</text>
<text text-anchor="start" x="374" y="-64.5" font-family="Cascadia Code NF" font-size="10.00">SizeFor()</text>
<text text-anchor="start" x="351" y="-48.5" font-family="Cascadia Code NF" font-size="10.00">#</text>
<text text-anchor="start" x="374" y="-48.5" font-family="Cascadia Code NF" font-size="10.00">TorqueGeneratedPromiseReject</text>
<text text-anchor="start" x="374" y="-35.75" font-family="Cascadia Code NF" font-size="10.00">ReactionJobTask()</text>
<text text-anchor="start" x="351" y="-19.5" font-family="Cascadia Code NF" font-size="10.00">#</text>
<text text-anchor="start" x="374" y="-19.5" font-family="Cascadia Code NF" font-size="10.00">TorqueGeneratedPromiseReject</text>
<text text-anchor="start" x="374" y="-6.75" font-family="Cascadia Code NF" font-size="10.00">ReactionJobTask()</text>
<polygon fill="#bfbfbf" stroke="#bfbfbf" points="334,-169 334,-169 572,-169 572,-169 334,-169"/>
<polygon fill="#bfbfbf" stroke="#bfbfbf" points="334,-153 334,-153 572,-153 572,-153 334,-153"/>
<polygon fill="none" stroke="#bfbfbf" points="334,0 334,-213 572,-213 572,0 334,0"/>
</a>
</g>
</g>
<!-- Node2&#45;&gt;Node1 -->
<g id="edge1_Node000001_Node000002" class="edge">
<title>Node2&#45;&gt;Node1</title>
<g id="a_edge1_Node000001_Node000002"><a xlink:title=" ">
<path fill="none" stroke="#63b8ff" d="M583.23,-106.5C591.63,-106.5 599.97,-106.5 608.07,-106.5"/>
<polygon fill="none" stroke="#63b8ff" points="583.26,-103 573.26,-106.5 583.26,-110 583.26,-103"/>
</a>
</g>
</g>
<!-- Node3 -->
<g id="Node000003" class="node">
<title>Node3</title>
<g id="a_Node000003"><a xlink:title=" ">
<polygon fill="white" stroke="none" points="142,-188.5 0,-188.5 0,-136.5 142,-136.5 142,-188.5"/>
<text text-anchor="start" x="5" y="-175" font-family="Cascadia Code NF" font-size="10.00">PromiseReactionJobTask</text>
<text text-anchor="start" x="68" y="-159" font-family="Cascadia Code NF" font-size="10.00"> </text>
<text text-anchor="start" x="68" y="-143" font-family="Cascadia Code NF" font-size="10.00"> </text>
<polygon fill="#bfbfbf" stroke="#bfbfbf" points="0,-170.5 0,-170.5 142,-170.5 142,-170.5 0,-170.5"/>
<polygon fill="#bfbfbf" stroke="#bfbfbf" points="0,-154.5 0,-154.5 142,-154.5 142,-154.5 0,-154.5"/>
<polygon fill="none" stroke="#bfbfbf" points="0,-136.5 0,-188.5 142,-188.5 142,-136.5 0,-136.5"/>
</a>
</g>
</g>
<!-- Node3&#45;&gt;Node2 -->
<g id="edge2_Node000002_Node000003" class="edge">
<title>Node3&#45;&gt;Node2</title>
<g id="a_edge2_Node000002_Node000003"><a xlink:title=" ">
<path fill="none" stroke="#63b8ff" d="M152.98,-158.36C200.67,-155.13 262.03,-149.62 316,-140.5 322,-139.49 328.12,-138.35 334.29,-137.11"/>
<polygon fill="none" stroke="#63b8ff" points="153.04,-154.85 143.29,-158.99 153.5,-161.83 153.04,-154.85"/>
</a>
</g>
</g>
<!-- Node4 -->
<g id="Node000004" class="node">
<title>Node4</title>
<g id="a_Node000004"><a xlink:href="../../d1/da0/classint.html" target="_top" xlink:title=" ">
<polygon fill="white" stroke="none" points="85,-76.5 57,-76.5 57,-24.5 85,-24.5 85,-76.5"/>
<text text-anchor="start" x="62" y="-63" font-family="Cascadia Code NF" font-size="10.00">int</text>
<text text-anchor="start" x="68" y="-47" font-family="Cascadia Code NF" font-size="10.00"> </text>
<text text-anchor="start" x="68" y="-31" font-family="Cascadia Code NF" font-size="10.00"> </text>
<polygon fill="#bfbfbf" stroke="#bfbfbf" points="57,-58.5 57,-58.5 85,-58.5 85,-58.5 57,-58.5"/>
<polygon fill="#bfbfbf" stroke="#bfbfbf" points="57,-42.5 57,-42.5 85,-42.5 85,-42.5 57,-42.5"/>
<polygon fill="none" stroke="#bfbfbf" points="57,-24.5 57,-76.5 85,-76.5 85,-24.5 57,-24.5"/>
</a>
</g>
</g>
<!-- Node4&#45;&gt;Node2 -->
<g id="edge3_Node000002_Node000004" class="edge">
<title>Node4&#45;&gt;Node2</title>
<g id="a_edge3_Node000002_Node000004"><a xlink:title=" ">
<path fill="none" stroke="#63b8ff" d="M84.89,-48.39C121.54,-42.78 229.32,-29.19 316,-47.25 317.89,-47.64 319.79,-48.07 321.69,-48.51"/>
<polygon fill="none" stroke="#63b8ff" points="321.79,-48.54 328.61,-46.2 333.4,-51.59 326.58,-53.94 321.79,-48.54"/>
</a>
</g>
<text text-anchor="middle" x="238" y="-127.25" font-family="Cascadia Code NF" font-size="10.00" fill="grey"> +kEndOfStrongFieldsOffset</text>
<text text-anchor="middle" x="238" y="-114.5" font-family="Cascadia Code NF" font-size="10.00" fill="grey">+kEndOfWeakFieldsOffset</text>
<text text-anchor="middle" x="238" y="-101.75" font-family="Cascadia Code NF" font-size="10.00" fill="grey">+kHeaderSize</text>
<text text-anchor="middle" x="238" y="-89" font-family="Cascadia Code NF" font-size="10.00" fill="grey">+kSize</text>
<text text-anchor="start" x="160" y="-76.25" font-family="Cascadia Code NF" font-size="10.00" fill="grey">+kStartOfStrongFields</text>
<text text-anchor="middle" x="238" y="-63.5" font-family="Cascadia Code NF" font-size="10.00" fill="grey">Offset</text>
<text text-anchor="middle" x="238" y="-50.75" font-family="Cascadia Code NF" font-size="10.00" fill="grey">+kStartOfWeakFieldsOffset</text>
</g>
</g>
</svg>

<g id="navigator" transform="translate(0 0)" fill="#404254">
  <rect fill="#f2f5e9" fill-opacity="0.5" stroke="#606060" stroke-width=".5" x="0" y="0" width="60" height="60"/>
  <use id="zoomplus" xlink:href="#zoomPlus" x="17" y="9" onmousedown="handleZoom(evt,'in')"/>
  <use id="zoomminus" xlink:href="#zoomMin" x="42" y="9" onmousedown="handleZoom(evt,'out')"/>
  <use id="reset" xlink:href="#resetDef" x="30" y="36" onmousedown="handleReset()"/>
   <use id="arrowup" xlink:href="#arrowUp" x="0" y="0" onmousedown="handlePan(0,-1)"/>
  <use id="arrowright" xlink:href="#arrowRight" x="0" y="0" onmousedown="handlePan(1,0)"/>
  <use id="arrowdown" xlink:href="#arrowDown" x="0" y="0" onmousedown="handlePan(0,1)"/>
  <use id="arrowleft" xlink:href="#arrowLeft" x="0" y="0" onmousedown="handlePan(-1,0)"/>
</g>
<svg viewBox="0 0 15 15" width="100%" height="30px" preserveAspectRatio="xMaxYMin meet">
 <g id="arrow_out" transform="scale(0.3 0.3)">
  <a xlink:href="classv8_1_1internal_1_1PromiseRejectReactionJobTask__coll__graph_org.svg" target="_base">
   <rect id="button" ry="5" rx="5" y="6" x="6" height="38" width="38"
        fill="#f2f5e9" fill-opacity="0.5" stroke="#606060" stroke-width="1.0"/>
   <path id="arrow"
     d="M 11.500037,31.436501 C 11.940474,20.09759 22.043105,11.32322 32.158766,21.979434 L 37.068811,17.246167 C 37.068811,17.246167 37.088388,32 37.088388,32 L 22.160133,31.978069 C 22.160133,31.978069 26.997745,27.140456 26.997745,27.140456 C 18.528582,18.264221 13.291696,25.230495 11.500037,31.436501 z"
     style="fill:#404040;"/>
  </a>
 </g>
</svg>

<style type='text/css'>
<![CDATA[
[data-mouse-over-selected='false'] { opacity: 0.7; }
[data-mouse-over-selected='true']  { opacity: 1.0; }
]]>
</style>
<script type="application/ecmascript"><![CDATA[
document.addEventListener('DOMContentLoaded', (event) => {
  highlightEdges();
  highlightAdjacentNodes();
});
]]></script>
</svg>
