<?xml version="1.0" encoding="UTF-8" standalone="no"?>
<!DOCTYPE svg PUBLIC "-//W3C//DTD SVG 1.1//EN"
 "http://www.w3.org/Graphics/SVG/1.1/DTD/svg11.dtd">
<!-- Generated by graphviz version 11.0.0 (20240428.1522)
 -->
<!-- Title: v8::base::internal::BigEnoughPromotion&lt; Lhs, Rhs, true, false &gt; Pages: 1 -->
<svg width="328pt" height="86pt"
 viewBox="0.00 0.00 328.00 86.00" xmlns="http://www.w3.org/2000/svg" xmlns:xlink="http://www.w3.org/1999/xlink">
<g id="graph0" class="graph" transform="scale(1 1) rotate(0) translate(4 82)">
<title>v8::base::internal::BigEnoughPromotion&lt; Lhs, Rhs, true, false &gt;</title>
<!-- Node1 -->
<g id="Node000001" class="node">
<title>Node1</title>
<g id="a_Node000001"><a xlink:title=" ">
<polygon fill="#999999" stroke="none" points="320,-78 160,-78 160,0 320,0 320,-78"/>
<text text-anchor="start" x="165" y="-64.5" font-family="Cascadia Code NF" font-size="10.00">v8::base::internal</text>
<text text-anchor="start" x="165" y="-51.75" font-family="Cascadia Code NF" font-size="10.00">::BigEnoughPromotion</text>
<text text-anchor="start" x="165" y="-39" font-family="Cascadia Code NF" font-size="10.00">&lt; Lhs, Rhs, true, false &gt;</text>
<text text-anchor="start" x="237" y="-22.5" font-family="Cascadia Code NF" font-size="10.00"> </text>
<text text-anchor="start" x="237" y="-6.5" font-family="Cascadia Code NF" font-size="10.00"> </text>
<polygon fill="#666666" stroke="#666666" points="160,-34 160,-34 320,-34 320,-34 160,-34"/>
<polygon fill="#666666" stroke="#666666" points="160,-18 160,-18 320,-18 320,-18 160,-18"/>
<polygon fill="none" stroke="#666666" points="160,0 160,-78 320,-78 320,0 160,0"/>
</a>
</g>
</g>
<!-- Node2 -->
<g id="Node000002" class="node">
<title>Node2</title>
<g id="a_Node000002"><a xlink:title=" ">
<polygon fill="white" stroke="none" points="40,-65 0,-65 0,-13 40,-13 40,-65"/>
<text text-anchor="start" x="5" y="-51.5" font-family="Cascadia Code NF" font-size="10.00">const</text>
<text text-anchor="start" x="17" y="-35.5" font-family="Cascadia Code NF" font-size="10.00"> </text>
<text text-anchor="start" x="17" y="-19.5" font-family="Cascadia Code NF" font-size="10.00"> </text>
<polygon fill="#bfbfbf" stroke="#bfbfbf" points="0,-47 0,-47 40,-47 40,-47 0,-47"/>
<polygon fill="#bfbfbf" stroke="#bfbfbf" points="0,-31 0,-31 40,-31 40,-31 0,-31"/>
<polygon fill="none" stroke="#bfbfbf" points="0,-13 0,-65 40,-65 40,-13 0,-13"/>
</a>
</g>
</g>
<!-- Node2&#45;&gt;Node1 -->
<g id="edge1_Node000001_Node000002" class="edge">
<title>Node2&#45;&gt;Node1</title>
<g id="a_edge1_Node000001_Node000002"><a xlink:title=" ">
<path fill="none" stroke="#63b8ff" d="M39.96,-39C64.03,-39 107.25,-39 147.27,-39"/>
<polygon fill="none" stroke="#63b8ff" points="147.23,-39 153.23,-35 159.23,-39 153.23,-43 147.23,-39"/>
</a>
</g>
<text text-anchor="middle" x="100" y="-42.25" font-family="Cascadia Code NF" font-size="10.00" fill="grey"> +is_contained</text>
</g>
</g>
</svg>
