<?xml version="1.0" encoding="UTF-8" standalone="no"?>
<!DOCTYPE svg PUBLIC "-//W3C//DTD SVG 1.1//EN"
 "http://www.w3.org/Graphics/SVG/1.1/DTD/svg11.dtd">
<!-- Generated by graphviz version 11.0.0 (20240428.1522)
 -->
<!-- Title: v8::internal::JSSegmentDataObject Pages: 1 -->
<!--zoomable 493 -->

<svg id="main" version="1.1" xmlns="http://www.w3.org/2000/svg" xmlns:xlink="http://www.w3.org/1999/xlink" xml:space="preserve" onload="init(evt)">
<style type="text/css"><![CDATA[
.node, .edge {opacity: 0.7;}
.node.selected, .edge.selected {opacity: 1;}
.edge:hover path { stroke: red; }
.edge:hover polygon { stroke: red; fill: red; }
svg#main { background-color: #111; }
]]></style>

<defs>
  <circle id="rim" cx="0" cy="0" r="7"/>
  <circle id="rim2" cx="0" cy="0" r="3.5"/>
  <g id="zoomPlus">
    <use xlink:href="#rim" fill="#404040"><set attributeName="fill" to="#808080" begin="zoomplus.mouseover" end="zoomplus.mouseout"/></use>
    <path d="M-4,0h8M0,-4v8" fill="none" stroke="white" stroke-width="1.5" pointer-events="none"/>
  </g>
  <g id="zoomMin">
    <use xlink:href="#rim" fill="#404040"><set attributeName="fill" to="#808080" begin="zoomminus.mouseover" end="zoomminus.mouseout"/></use>
    <path d="M-4,0h8" fill="none" stroke="white" stroke-width="1.5" pointer-events="none"/>
  </g>
  <g id="arrowUp" transform="translate(30 24)">
    <use xlink:href="#rim"/>
    <path pointer-events="none" fill="none" stroke="white" stroke-width="1.5" d="M0,-3.0v7 M-2.5,-0.5L0,-3.0L2.5,-0.5"/>
  </g>
  <g id="arrowRight" transform="rotate(90) translate(36 -43)">
    <use xlink:href="#rim"/>
    <path pointer-events="none" fill="none" stroke="white" stroke-width="1.5" d="M0,-3.0v7 M-2.5,-0.5L0,-3.0L2.5,-0.5"/>
  </g>
  <g id="arrowDown" transform="rotate(180) translate(-30 -48)">
    <use xlink:href="#rim"/>
    <path pointer-events="none" fill="none" stroke="white" stroke-width="1.5" d="M0,-3.0v7 M-2.5,-0.5L0,-3.0L2.5,-0.5"/>
  </g>
  <g id="arrowLeft" transform="rotate(270) translate(-36 17)">
    <use xlink:href="#rim"/>
    <path pointer-events="none" fill="none" stroke="white" stroke-width="1.5" d="M0,-3.0v7 M-2.5,-0.5L0,-3.0L2.5,-0.5"/>
  </g>
  <g id="resetDef">
    <use xlink:href="#rim2" fill="#404040"><set attributeName="fill" to="#808080" begin="reset.mouseover" end="reset.mouseout"/></use>
  </g>
</defs>
<script type="application/ecmascript">
var viewWidth = 512;
var viewHeight = 493;
var sectionId = 'dynsection-0';
</script>
<script type="application/ecmascript" xlink:href="../../svg.min.js"/>
<svg id="graph" class="graph">
<g id="viewport">
<title>v8::internal::JSSegmentDataObject</title>
<!-- Node1 -->
<g id="Node000001" class="node">
<title>Node1</title>
<g id="a_Node000001"><a xlink:title=" ">
<polygon fill="#999999" stroke="none" points="504,-275 332,-275 332,-210 504,-210 504,-275"/>
<text text-anchor="start" x="337" y="-261.5" font-family="Cascadia Code NF" font-size="10.00">v8::internal::JSSegmentData</text>
<text text-anchor="start" x="400" y="-248.75" font-family="Cascadia Code NF" font-size="10.00">Object</text>
<text text-anchor="start" x="415" y="-232.5" font-family="Cascadia Code NF" font-size="10.00"> </text>
<text text-anchor="start" x="415" y="-216.5" font-family="Cascadia Code NF" font-size="10.00"> </text>
<polygon fill="#666666" stroke="#666666" points="332,-244 332,-244 504,-244 504,-244 332,-244"/>
<polygon fill="#666666" stroke="#666666" points="332,-228 332,-228 504,-228 504,-228 332,-228"/>
<polygon fill="none" stroke="#666666" points="332,-210 332,-275 504,-275 504,-210 332,-210"/>
</a>
</g>
</g>
<!-- Node2 -->
<g id="Node000002" class="node">
<title>Node2</title>
<g id="a_Node000002"><a xlink:href="../../d1/d1a/classTorqueGeneratedJSSegmentDataObject.html" target="_top" xlink:title=" ">
<polygon fill="white" stroke="none" points="296,-485 94,-485 94,0 296,0 296,-485"/>
<text text-anchor="start" x="99" y="-471.5" font-family="Cascadia Code NF" font-size="10.00">TorqueGeneratedJSSegment</text>
<text text-anchor="start" x="99" y="-458.75" font-family="Cascadia Code NF" font-size="10.00">DataObject&lt; JSSegmentDataObject,</text>
<text text-anchor="start" x="162" y="-446" font-family="Cascadia Code NF" font-size="10.00"> JSObject &gt;</text>
<text text-anchor="start" x="105" y="-429.5" font-family="Cascadia Code NF" font-size="10.00">+</text>
<text text-anchor="start" x="122" y="-429.5" font-family="Cascadia Code NF" font-size="10.00">kStartOfStrongFieldsOffset</text>
<text text-anchor="start" x="105" y="-413.5" font-family="Cascadia Code NF" font-size="10.00">+</text>
<text text-anchor="start" x="122" y="-413.5" font-family="Cascadia Code NF" font-size="10.00">kSegmentOffset</text>
<text text-anchor="start" x="105" y="-397.5" font-family="Cascadia Code NF" font-size="10.00">+</text>
<text text-anchor="start" x="122" y="-397.5" font-family="Cascadia Code NF" font-size="10.00">kSegmentOffsetEnd</text>
<text text-anchor="start" x="105" y="-381.5" font-family="Cascadia Code NF" font-size="10.00">+</text>
<text text-anchor="start" x="122" y="-381.5" font-family="Cascadia Code NF" font-size="10.00">kIndexOffset</text>
<text text-anchor="start" x="105" y="-365.5" font-family="Cascadia Code NF" font-size="10.00">+</text>
<text text-anchor="start" x="122" y="-365.5" font-family="Cascadia Code NF" font-size="10.00">kIndexOffsetEnd</text>
<text text-anchor="start" x="105" y="-349.5" font-family="Cascadia Code NF" font-size="10.00">+</text>
<text text-anchor="start" x="122" y="-349.5" font-family="Cascadia Code NF" font-size="10.00">kInputOffset</text>
<text text-anchor="start" x="105" y="-333.5" font-family="Cascadia Code NF" font-size="10.00">+</text>
<text text-anchor="start" x="122" y="-333.5" font-family="Cascadia Code NF" font-size="10.00">kInputOffsetEnd</text>
<text text-anchor="start" x="105" y="-317.5" font-family="Cascadia Code NF" font-size="10.00">+</text>
<text text-anchor="start" x="122" y="-317.5" font-family="Cascadia Code NF" font-size="10.00">kEndOfStrongFieldsOffset</text>
<text text-anchor="start" x="105" y="-301.5" font-family="Cascadia Code NF" font-size="10.00">+</text>
<text text-anchor="start" x="122" y="-301.5" font-family="Cascadia Code NF" font-size="10.00">kStartOfWeakFieldsOffset</text>
<text text-anchor="start" x="105" y="-285.5" font-family="Cascadia Code NF" font-size="10.00">+</text>
<text text-anchor="start" x="122" y="-285.5" font-family="Cascadia Code NF" font-size="10.00">kEndOfWeakFieldsOffset</text>
<text text-anchor="start" x="105" y="-269.5" font-family="Cascadia Code NF" font-size="10.00">+</text>
<text text-anchor="start" x="122" y="-269.5" font-family="Cascadia Code NF" font-size="10.00">kHeaderSize</text>
<text text-anchor="start" x="105" y="-253.5" font-family="Cascadia Code NF" font-size="10.00">+</text>
<text text-anchor="start" x="122" y="-253.5" font-family="Cascadia Code NF" font-size="10.00">segment()</text>
<text text-anchor="start" x="105" y="-237.5" font-family="Cascadia Code NF" font-size="10.00">+</text>
<text text-anchor="start" x="122" y="-237.5" font-family="Cascadia Code NF" font-size="10.00">segment()</text>
<text text-anchor="start" x="105" y="-221.5" font-family="Cascadia Code NF" font-size="10.00">+</text>
<text text-anchor="start" x="122" y="-221.5" font-family="Cascadia Code NF" font-size="10.00">set_segment()</text>
<text text-anchor="start" x="105" y="-205.5" font-family="Cascadia Code NF" font-size="10.00">+</text>
<text text-anchor="start" x="122" y="-205.5" font-family="Cascadia Code NF" font-size="10.00">index()</text>
<text text-anchor="start" x="105" y="-189.5" font-family="Cascadia Code NF" font-size="10.00">+</text>
<text text-anchor="start" x="122" y="-189.5" font-family="Cascadia Code NF" font-size="10.00">index()</text>
<text text-anchor="start" x="105" y="-173.5" font-family="Cascadia Code NF" font-size="10.00">+</text>
<text text-anchor="start" x="122" y="-173.5" font-family="Cascadia Code NF" font-size="10.00">set_index()</text>
<text text-anchor="start" x="105" y="-157.5" font-family="Cascadia Code NF" font-size="10.00">+</text>
<text text-anchor="start" x="122" y="-157.5" font-family="Cascadia Code NF" font-size="10.00">input()</text>
<text text-anchor="start" x="105" y="-141.5" font-family="Cascadia Code NF" font-size="10.00">+</text>
<text text-anchor="start" x="122" y="-141.5" font-family="Cascadia Code NF" font-size="10.00">input()</text>
<text text-anchor="start" x="105" y="-125.5" font-family="Cascadia Code NF" font-size="10.00">+</text>
<text text-anchor="start" x="122" y="-125.5" font-family="Cascadia Code NF" font-size="10.00">set_input()</text>
<text text-anchor="start" x="105" y="-109.5" font-family="Cascadia Code NF" font-size="10.00">+</text>
<text text-anchor="start" x="122" y="-109.5" font-family="Cascadia Code NF" font-size="10.00">TorqueGeneratedJSSegment</text>
<text text-anchor="start" x="122" y="-96.75" font-family="Cascadia Code NF" font-size="10.00">DataObject()</text>
<text text-anchor="start" x="105" y="-80.5" font-family="Cascadia Code NF" font-size="10.00">+</text>
<text text-anchor="start" x="122" y="-80.5" font-family="Cascadia Code NF" font-size="10.00">cast()</text>
<text text-anchor="start" x="105" y="-64.5" font-family="Cascadia Code NF" font-size="10.00">+</text>
<text text-anchor="start" x="122" y="-64.5" font-family="Cascadia Code NF" font-size="10.00">unchecked_cast()</text>
<text text-anchor="start" x="105" y="-48.5" font-family="Cascadia Code NF" font-size="10.00">#</text>
<text text-anchor="start" x="122" y="-48.5" font-family="Cascadia Code NF" font-size="10.00">TorqueGeneratedJSSegment</text>
<text text-anchor="start" x="122" y="-35.75" font-family="Cascadia Code NF" font-size="10.00">DataObject()</text>
<text text-anchor="start" x="105" y="-19.5" font-family="Cascadia Code NF" font-size="10.00">#</text>
<text text-anchor="start" x="122" y="-19.5" font-family="Cascadia Code NF" font-size="10.00">TorqueGeneratedJSSegment</text>
<text text-anchor="start" x="122" y="-6.75" font-family="Cascadia Code NF" font-size="10.00">DataObject()</text>
<polygon fill="#bfbfbf" stroke="#bfbfbf" points="94,-441 94,-441 296,-441 296,-441 94,-441"/>
<polygon fill="#bfbfbf" stroke="#bfbfbf" points="94,-265 94,-265 120,-265 120,-265 94,-265"/>
<polygon fill="#bfbfbf" stroke="#bfbfbf" points="120,-265 120,-265 296,-265 296,-265 120,-265"/>
<polygon fill="none" stroke="#bfbfbf" points="94,0 94,-485 296,-485 296,0 94,0"/>
</a>
</g>
</g>
<!-- Node2&#45;&gt;Node1 -->
<g id="edge1_Node000001_Node000002" class="edge">
<title>Node2&#45;&gt;Node1</title>
<g id="a_edge1_Node000001_Node000002"><a xlink:title=" ">
<path fill="none" stroke="#63b8ff" d="M307.23,-242.5C315.6,-242.5 323.97,-242.5 332.13,-242.5"/>
<polygon fill="none" stroke="#63b8ff" points="307.35,-239 297.35,-242.5 307.35,-246 307.35,-239"/>
</a>
</g>
</g>
<!-- Node3 -->
<g id="Node000003" class="node">
<title>Node3</title>
<g id="a_Node000003"><a xlink:title=" ">
<polygon fill="white" stroke="none" points="58,-268.5 0,-268.5 0,-216.5 58,-216.5 58,-268.5"/>
<text text-anchor="start" x="5" y="-255" font-family="Cascadia Code NF" font-size="10.00">JSObject</text>
<text text-anchor="start" x="26" y="-239" font-family="Cascadia Code NF" font-size="10.00"> </text>
<text text-anchor="start" x="26" y="-223" font-family="Cascadia Code NF" font-size="10.00"> </text>
<polygon fill="#bfbfbf" stroke="#bfbfbf" points="0,-250.5 0,-250.5 58,-250.5 58,-250.5 0,-250.5"/>
<polygon fill="#bfbfbf" stroke="#bfbfbf" points="0,-234.5 0,-234.5 58,-234.5 58,-234.5 0,-234.5"/>
<polygon fill="none" stroke="#bfbfbf" points="0,-216.5 0,-268.5 58,-268.5 58,-216.5 0,-216.5"/>
</a>
</g>
</g>
<!-- Node3&#45;&gt;Node2 -->
<g id="edge2_Node000002_Node000003" class="edge">
<title>Node3&#45;&gt;Node2</title>
<g id="a_edge2_Node000002_Node000003"><a xlink:title=" ">
<path fill="none" stroke="#63b8ff" d="M69.08,-242.5C76.91,-242.5 85.46,-242.5 94.3,-242.5"/>
<polygon fill="none" stroke="#63b8ff" points="69.33,-239 59.33,-242.5 69.33,-246 69.33,-239"/>
</a>
</g>
</g>
</g>
</svg>

<g id="navigator" transform="translate(0 0)" fill="#404254">
  <rect fill="#f2f5e9" fill-opacity="0.5" stroke="#606060" stroke-width=".5" x="0" y="0" width="60" height="60"/>
  <use id="zoomplus" xlink:href="#zoomPlus" x="17" y="9" onmousedown="handleZoom(evt,'in')"/>
  <use id="zoomminus" xlink:href="#zoomMin" x="42" y="9" onmousedown="handleZoom(evt,'out')"/>
  <use id="reset" xlink:href="#resetDef" x="30" y="36" onmousedown="handleReset()"/>
   <use id="arrowup" xlink:href="#arrowUp" x="0" y="0" onmousedown="handlePan(0,-1)"/>
  <use id="arrowright" xlink:href="#arrowRight" x="0" y="0" onmousedown="handlePan(1,0)"/>
  <use id="arrowdown" xlink:href="#arrowDown" x="0" y="0" onmousedown="handlePan(0,1)"/>
  <use id="arrowleft" xlink:href="#arrowLeft" x="0" y="0" onmousedown="handlePan(-1,0)"/>
</g>
<svg viewBox="0 0 15 15" width="100%" height="30px" preserveAspectRatio="xMaxYMin meet">
 <g id="arrow_out" transform="scale(0.3 0.3)">
  <a xlink:href="classv8_1_1internal_1_1JSSegmentDataObject__inherit__graph_org.svg" target="_base">
   <rect id="button" ry="5" rx="5" y="6" x="6" height="38" width="38"
        fill="#f2f5e9" fill-opacity="0.5" stroke="#606060" stroke-width="1.0"/>
   <path id="arrow"
     d="M 11.500037,31.436501 C 11.940474,20.09759 22.043105,11.32322 32.158766,21.979434 L 37.068811,17.246167 C 37.068811,17.246167 37.088388,32 37.088388,32 L 22.160133,31.978069 C 22.160133,31.978069 26.997745,27.140456 26.997745,27.140456 C 18.528582,18.264221 13.291696,25.230495 11.500037,31.436501 z"
     style="fill:#404040;"/>
  </a>
 </g>
</svg>

<style type='text/css'>
<![CDATA[
[data-mouse-over-selected='false'] { opacity: 0.7; }
[data-mouse-over-selected='true']  { opacity: 1.0; }
]]>
</style>
<script type="application/ecmascript"><![CDATA[
document.addEventListener('DOMContentLoaded', (event) => {
  highlightEdges();
  highlightAdjacentNodes();
});
]]></script>
</svg>
