<?xml version="1.0" encoding="UTF-8" standalone="no"?>
<!DOCTYPE svg PUBLIC "-//W3C//DTD SVG 1.1//EN"
 "http://www.w3.org/Graphics/SVG/1.1/DTD/svg11.dtd">
<!-- Generated by graphviz version 11.0.0 (20240428.1522)
 -->
<!-- Title: v8::internal::JSSegmentDataObject Pages: 1 -->
<svg width="512pt" height="493pt"
 viewBox="0.00 0.00 512.00 493.00" xmlns="http://www.w3.org/2000/svg" xmlns:xlink="http://www.w3.org/1999/xlink">
<g id="graph0" class="graph" transform="scale(1 1) rotate(0) translate(4 489)">
<title>v8::internal::JSSegmentDataObject</title>
<!-- Node1 -->
<g id="Node000001" class="node">
<title>Node1</title>
<g id="a_Node000001"><a xlink:title=" ">
<polygon fill="#999999" stroke="none" points="504,-275 332,-275 332,-210 504,-210 504,-275"/>
<text text-anchor="start" x="337" y="-261.5" font-family="Cascadia Code NF" font-size="10.00">v8::internal::JSSegmentData</text>
<text text-anchor="start" x="400" y="-248.75" font-family="Cascadia Code NF" font-size="10.00">Object</text>
<text text-anchor="start" x="415" y="-232.5" font-family="Cascadia Code NF" font-size="10.00"> </text>
<text text-anchor="start" x="415" y="-216.5" font-family="Cascadia Code NF" font-size="10.00"> </text>
<polygon fill="#666666" stroke="#666666" points="332,-244 332,-244 504,-244 504,-244 332,-244"/>
<polygon fill="#666666" stroke="#666666" points="332,-228 332,-228 504,-228 504,-228 332,-228"/>
<polygon fill="none" stroke="#666666" points="332,-210 332,-275 504,-275 504,-210 332,-210"/>
</a>
</g>
</g>
<!-- Node2 -->
<g id="Node000002" class="node">
<title>Node2</title>
<g id="a_Node000002"><a xlink:href="../../d1/d1a/classTorqueGeneratedJSSegmentDataObject.html" target="_top" xlink:title=" ">
<polygon fill="white" stroke="none" points="296,-485 94,-485 94,0 296,0 296,-485"/>
<text text-anchor="start" x="99" y="-471.5" font-family="Cascadia Code NF" font-size="10.00">TorqueGeneratedJSSegment</text>
<text text-anchor="start" x="99" y="-458.75" font-family="Cascadia Code NF" font-size="10.00">DataObject&lt; JSSegmentDataObject,</text>
<text text-anchor="start" x="162" y="-446" font-family="Cascadia Code NF" font-size="10.00"> JSObject &gt;</text>
<text text-anchor="start" x="105" y="-429.5" font-family="Cascadia Code NF" font-size="10.00">+</text>
<text text-anchor="start" x="122" y="-429.5" font-family="Cascadia Code NF" font-size="10.00">kStartOfStrongFieldsOffset</text>
<text text-anchor="start" x="105" y="-413.5" font-family="Cascadia Code NF" font-size="10.00">+</text>
<text text-anchor="start" x="122" y="-413.5" font-family="Cascadia Code NF" font-size="10.00">kSegmentOffset</text>
<text text-anchor="start" x="105" y="-397.5" font-family="Cascadia Code NF" font-size="10.00">+</text>
<text text-anchor="start" x="122" y="-397.5" font-family="Cascadia Code NF" font-size="10.00">kSegmentOffsetEnd</text>
<text text-anchor="start" x="105" y="-381.5" font-family="Cascadia Code NF" font-size="10.00">+</text>
<text text-anchor="start" x="122" y="-381.5" font-family="Cascadia Code NF" font-size="10.00">kIndexOffset</text>
<text text-anchor="start" x="105" y="-365.5" font-family="Cascadia Code NF" font-size="10.00">+</text>
<text text-anchor="start" x="122" y="-365.5" font-family="Cascadia Code NF" font-size="10.00">kIndexOffsetEnd</text>
<text text-anchor="start" x="105" y="-349.5" font-family="Cascadia Code NF" font-size="10.00">+</text>
<text text-anchor="start" x="122" y="-349.5" font-family="Cascadia Code NF" font-size="10.00">kInputOffset</text>
<text text-anchor="start" x="105" y="-333.5" font-family="Cascadia Code NF" font-size="10.00">+</text>
<text text-anchor="start" x="122" y="-333.5" font-family="Cascadia Code NF" font-size="10.00">kInputOffsetEnd</text>
<text text-anchor="start" x="105" y="-317.5" font-family="Cascadia Code NF" font-size="10.00">+</text>
<text text-anchor="start" x="122" y="-317.5" font-family="Cascadia Code NF" font-size="10.00">kEndOfStrongFieldsOffset</text>
<text text-anchor="start" x="105" y="-301.5" font-family="Cascadia Code NF" font-size="10.00">+</text>
<text text-anchor="start" x="122" y="-301.5" font-family="Cascadia Code NF" font-size="10.00">kStartOfWeakFieldsOffset</text>
<text text-anchor="start" x="105" y="-285.5" font-family="Cascadia Code NF" font-size="10.00">+</text>
<text text-anchor="start" x="122" y="-285.5" font-family="Cascadia Code NF" font-size="10.00">kEndOfWeakFieldsOffset</text>
<text text-anchor="start" x="105" y="-269.5" font-family="Cascadia Code NF" font-size="10.00">+</text>
<text text-anchor="start" x="122" y="-269.5" font-family="Cascadia Code NF" font-size="10.00">kHeaderSize</text>
<text text-anchor="start" x="105" y="-253.5" font-family="Cascadia Code NF" font-size="10.00">+</text>
<text text-anchor="start" x="122" y="-253.5" font-family="Cascadia Code NF" font-size="10.00">segment()</text>
<text text-anchor="start" x="105" y="-237.5" font-family="Cascadia Code NF" font-size="10.00">+</text>
<text text-anchor="start" x="122" y="-237.5" font-family="Cascadia Code NF" font-size="10.00">segment()</text>
<text text-anchor="start" x="105" y="-221.5" font-family="Cascadia Code NF" font-size="10.00">+</text>
<text text-anchor="start" x="122" y="-221.5" font-family="Cascadia Code NF" font-size="10.00">set_segment()</text>
<text text-anchor="start" x="105" y="-205.5" font-family="Cascadia Code NF" font-size="10.00">+</text>
<text text-anchor="start" x="122" y="-205.5" font-family="Cascadia Code NF" font-size="10.00">index()</text>
<text text-anchor="start" x="105" y="-189.5" font-family="Cascadia Code NF" font-size="10.00">+</text>
<text text-anchor="start" x="122" y="-189.5" font-family="Cascadia Code NF" font-size="10.00">index()</text>
<text text-anchor="start" x="105" y="-173.5" font-family="Cascadia Code NF" font-size="10.00">+</text>
<text text-anchor="start" x="122" y="-173.5" font-family="Cascadia Code NF" font-size="10.00">set_index()</text>
<text text-anchor="start" x="105" y="-157.5" font-family="Cascadia Code NF" font-size="10.00">+</text>
<text text-anchor="start" x="122" y="-157.5" font-family="Cascadia Code NF" font-size="10.00">input()</text>
<text text-anchor="start" x="105" y="-141.5" font-family="Cascadia Code NF" font-size="10.00">+</text>
<text text-anchor="start" x="122" y="-141.5" font-family="Cascadia Code NF" font-size="10.00">input()</text>
<text text-anchor="start" x="105" y="-125.5" font-family="Cascadia Code NF" font-size="10.00">+</text>
<text text-anchor="start" x="122" y="-125.5" font-family="Cascadia Code NF" font-size="10.00">set_input()</text>
<text text-anchor="start" x="105" y="-109.5" font-family="Cascadia Code NF" font-size="10.00">+</text>
<text text-anchor="start" x="122" y="-109.5" font-family="Cascadia Code NF" font-size="10.00">TorqueGeneratedJSSegment</text>
<text text-anchor="start" x="122" y="-96.75" font-family="Cascadia Code NF" font-size="10.00">DataObject()</text>
<text text-anchor="start" x="105" y="-80.5" font-family="Cascadia Code NF" font-size="10.00">+</text>
<text text-anchor="start" x="122" y="-80.5" font-family="Cascadia Code NF" font-size="10.00">cast()</text>
<text text-anchor="start" x="105" y="-64.5" font-family="Cascadia Code NF" font-size="10.00">+</text>
<text text-anchor="start" x="122" y="-64.5" font-family="Cascadia Code NF" font-size="10.00">unchecked_cast()</text>
<text text-anchor="start" x="105" y="-48.5" font-family="Cascadia Code NF" font-size="10.00">#</text>
<text text-anchor="start" x="122" y="-48.5" font-family="Cascadia Code NF" font-size="10.00">TorqueGeneratedJSSegment</text>
<text text-anchor="start" x="122" y="-35.75" font-family="Cascadia Code NF" font-size="10.00">DataObject()</text>
<text text-anchor="start" x="105" y="-19.5" font-family="Cascadia Code NF" font-size="10.00">#</text>
<text text-anchor="start" x="122" y="-19.5" font-family="Cascadia Code NF" font-size="10.00">TorqueGeneratedJSSegment</text>
<text text-anchor="start" x="122" y="-6.75" font-family="Cascadia Code NF" font-size="10.00">DataObject()</text>
<polygon fill="#bfbfbf" stroke="#bfbfbf" points="94,-441 94,-441 296,-441 296,-441 94,-441"/>
<polygon fill="#bfbfbf" stroke="#bfbfbf" points="94,-265 94,-265 120,-265 120,-265 94,-265"/>
<polygon fill="#bfbfbf" stroke="#bfbfbf" points="120,-265 120,-265 296,-265 296,-265 120,-265"/>
<polygon fill="none" stroke="#bfbfbf" points="94,0 94,-485 296,-485 296,0 94,0"/>
</a>
</g>
</g>
<!-- Node2&#45;&gt;Node1 -->
<g id="edge1_Node000001_Node000002" class="edge">
<title>Node2&#45;&gt;Node1</title>
<g id="a_edge1_Node000001_Node000002"><a xlink:title=" ">
<path fill="none" stroke="#63b8ff" d="M307.23,-242.5C315.6,-242.5 323.97,-242.5 332.13,-242.5"/>
<polygon fill="none" stroke="#63b8ff" points="307.35,-239 297.35,-242.5 307.35,-246 307.35,-239"/>
</a>
</g>
</g>
<!-- Node3 -->
<g id="Node000003" class="node">
<title>Node3</title>
<g id="a_Node000003"><a xlink:title=" ">
<polygon fill="white" stroke="none" points="58,-268.5 0,-268.5 0,-216.5 58,-216.5 58,-268.5"/>
<text text-anchor="start" x="5" y="-255" font-family="Cascadia Code NF" font-size="10.00">JSObject</text>
<text text-anchor="start" x="26" y="-239" font-family="Cascadia Code NF" font-size="10.00"> </text>
<text text-anchor="start" x="26" y="-223" font-family="Cascadia Code NF" font-size="10.00"> </text>
<polygon fill="#bfbfbf" stroke="#bfbfbf" points="0,-250.5 0,-250.5 58,-250.5 58,-250.5 0,-250.5"/>
<polygon fill="#bfbfbf" stroke="#bfbfbf" points="0,-234.5 0,-234.5 58,-234.5 58,-234.5 0,-234.5"/>
<polygon fill="none" stroke="#bfbfbf" points="0,-216.5 0,-268.5 58,-268.5 58,-216.5 0,-216.5"/>
</a>
</g>
</g>
<!-- Node3&#45;&gt;Node2 -->
<g id="edge2_Node000002_Node000003" class="edge">
<title>Node3&#45;&gt;Node2</title>
<g id="a_edge2_Node000002_Node000003"><a xlink:title=" ">
<path fill="none" stroke="#63b8ff" d="M69.08,-242.5C76.91,-242.5 85.46,-242.5 94.3,-242.5"/>
<polygon fill="none" stroke="#63b8ff" points="69.33,-239 59.33,-242.5 69.33,-246 69.33,-239"/>
</a>
</g>
</g>
</g>
</svg>
