<?xml version="1.0" encoding="UTF-8" standalone="no"?>
<!DOCTYPE svg PUBLIC "-//W3C//DTD SVG 1.1//EN"
 "http://www.w3.org/Graphics/SVG/1.1/DTD/svg11.dtd">
<!-- Generated by graphviz version 11.0.0 (20240428.1522)
 -->
<!-- Title: v8::internal::debug_helper_internal::TqConstTrackingLetCell Pages: 1 -->
<svg width="536pt" height="182pt"
 viewBox="0.00 0.00 536.00 182.00" xmlns="http://www.w3.org/2000/svg" xmlns:xlink="http://www.w3.org/1999/xlink">
<g id="graph0" class="graph" transform="scale(1 1) rotate(0) translate(4 178)">
<title>v8::internal::debug_helper_internal::TqConstTrackingLetCell</title>
<!-- Node1 -->
<g id="Node000001" class="node">
<title>Node1</title>
<g id="a_Node000001"><a xlink:title=" ">
<polygon fill="#999999" stroke="none" points="528,-174 320,-174 320,0 528,0 528,-174"/>
<text text-anchor="start" x="325" y="-160.5" font-family="Cascadia Code NF" font-size="10.00">v8::internal::debug</text>
<text text-anchor="start" x="325" y="-147.75" font-family="Cascadia Code NF" font-size="10.00">_helper_internal::TqConstTracking</text>
<text text-anchor="start" x="403" y="-135" font-family="Cascadia Code NF" font-size="10.00">LetCell</text>
<text text-anchor="start" x="421" y="-118.5" font-family="Cascadia Code NF" font-size="10.00"> </text>
<text text-anchor="start" x="334" y="-102.5" font-family="Cascadia Code NF" font-size="10.00">+</text>
<text text-anchor="start" x="354" y="-102.5" font-family="Cascadia Code NF" font-size="10.00">TqConstTrackingLetCell()</text>
<text text-anchor="start" x="334" y="-86.5" font-family="Cascadia Code NF" font-size="10.00">+</text>
<text text-anchor="start" x="354" y="-86.5" font-family="Cascadia Code NF" font-size="10.00">GetProperties()</text>
<text text-anchor="start" x="334" y="-70.5" font-family="Cascadia Code NF" font-size="10.00">+</text>
<text text-anchor="start" x="354" y="-70.5" font-family="Cascadia Code NF" font-size="10.00">GetName()</text>
<text text-anchor="start" x="334" y="-54.5" font-family="Cascadia Code NF" font-size="10.00">+</text>
<text text-anchor="start" x="354" y="-54.5" font-family="Cascadia Code NF" font-size="10.00">Visit()</text>
<text text-anchor="start" x="334" y="-38.5" font-family="Cascadia Code NF" font-size="10.00">+</text>
<text text-anchor="start" x="354" y="-38.5" font-family="Cascadia Code NF" font-size="10.00">IsSuperclassOf()</text>
<text text-anchor="start" x="334" y="-22.5" font-family="Cascadia Code NF" font-size="10.00">+</text>
<text text-anchor="start" x="354" y="-22.5" font-family="Cascadia Code NF" font-size="10.00">GetDependentCodeAddress()</text>
<text text-anchor="start" x="334" y="-6.5" font-family="Cascadia Code NF" font-size="10.00">+</text>
<text text-anchor="start" x="354" y="-6.5" font-family="Cascadia Code NF" font-size="10.00">GetDependentCodeValue()</text>
<polygon fill="#666666" stroke="#666666" points="320,-130 320,-130 528,-130 528,-130 320,-130"/>
<polygon fill="#666666" stroke="#666666" points="320,-114 320,-114 528,-114 528,-114 320,-114"/>
<polygon fill="none" stroke="#666666" points="320,0 320,-174 528,-174 528,0 320,0"/>
</a>
</g>
</g>
<!-- Node2 -->
<g id="Node000002" class="node">
<title>Node2</title>
<g id="a_Node000002"><a xlink:href="../../db/deb/classv8_1_1internal_1_1debug__helper__internal_1_1TqHeapObject.html" target="_top" xlink:title=" ">
<polygon fill="white" stroke="none" points="284,-167.5 94,-167.5 94,-6.5 284,-6.5 284,-167.5"/>
<text text-anchor="start" x="99" y="-154" font-family="Cascadia Code NF" font-size="10.00">v8::internal::debug</text>
<text text-anchor="start" x="99" y="-141.25" font-family="Cascadia Code NF" font-size="10.00">_helper_internal::TqHeapObject</text>
<text text-anchor="start" x="186" y="-125" font-family="Cascadia Code NF" font-size="10.00"> </text>
<text text-anchor="start" x="117" y="-109" font-family="Cascadia Code NF" font-size="10.00">+</text>
<text text-anchor="start" x="146" y="-109" font-family="Cascadia Code NF" font-size="10.00">TqHeapObject()</text>
<text text-anchor="start" x="117" y="-93" font-family="Cascadia Code NF" font-size="10.00">+</text>
<text text-anchor="start" x="146" y="-93" font-family="Cascadia Code NF" font-size="10.00">GetProperties()</text>
<text text-anchor="start" x="117" y="-77" font-family="Cascadia Code NF" font-size="10.00">+</text>
<text text-anchor="start" x="146" y="-77" font-family="Cascadia Code NF" font-size="10.00">GetName()</text>
<text text-anchor="start" x="117" y="-61" font-family="Cascadia Code NF" font-size="10.00">+</text>
<text text-anchor="start" x="146" y="-61" font-family="Cascadia Code NF" font-size="10.00">Visit()</text>
<text text-anchor="start" x="117" y="-45" font-family="Cascadia Code NF" font-size="10.00">+</text>
<text text-anchor="start" x="146" y="-45" font-family="Cascadia Code NF" font-size="10.00">IsSuperclassOf()</text>
<text text-anchor="start" x="117" y="-29" font-family="Cascadia Code NF" font-size="10.00">+</text>
<text text-anchor="start" x="146" y="-29" font-family="Cascadia Code NF" font-size="10.00">GetMapAddress()</text>
<text text-anchor="start" x="117" y="-13" font-family="Cascadia Code NF" font-size="10.00">+</text>
<text text-anchor="start" x="146" y="-13" font-family="Cascadia Code NF" font-size="10.00">GetMapValue()</text>
<polygon fill="#bfbfbf" stroke="#bfbfbf" points="94,-136.5 94,-136.5 284,-136.5 284,-136.5 94,-136.5"/>
<polygon fill="#bfbfbf" stroke="#bfbfbf" points="94,-120.5 94,-120.5 284,-120.5 284,-120.5 94,-120.5"/>
<polygon fill="none" stroke="#bfbfbf" points="94,-6.5 94,-167.5 284,-167.5 284,-6.5 94,-6.5"/>
</a>
</g>
</g>
<!-- Node2&#45;&gt;Node1 -->
<g id="edge1_Node000001_Node000002" class="edge">
<title>Node2&#45;&gt;Node1</title>
<g id="a_edge1_Node000001_Node000002"><a xlink:title=" ">
<path fill="none" stroke="#63b8ff" d="M295.11,-87C303.47,-87 311.92,-87 320.27,-87"/>
<polygon fill="none" stroke="#63b8ff" points="295.28,-83.5 285.28,-87 295.28,-90.5 295.28,-83.5"/>
</a>
</g>
</g>
<!-- Node3 -->
<g id="Node000003" class="node">
<title>Node3</title>
<g id="a_Node000003"><a xlink:href="../../dd/d42/classTqObject.html" target="_top" xlink:title=" ">
<polygon fill="white" stroke="none" points="58,-113 0,-113 0,-61 58,-61 58,-113"/>
<text text-anchor="start" x="5" y="-99.5" font-family="Cascadia Code NF" font-size="10.00">TqObject</text>
<text text-anchor="start" x="26" y="-83.5" font-family="Cascadia Code NF" font-size="10.00"> </text>
<text text-anchor="start" x="26" y="-67.5" font-family="Cascadia Code NF" font-size="10.00"> </text>
<polygon fill="#bfbfbf" stroke="#bfbfbf" points="0,-95 0,-95 58,-95 58,-95 0,-95"/>
<polygon fill="#bfbfbf" stroke="#bfbfbf" points="0,-79 0,-79 58,-79 58,-79 0,-79"/>
<polygon fill="none" stroke="#bfbfbf" points="0,-61 0,-113 58,-113 58,-61 0,-61"/>
</a>
</g>
</g>
<!-- Node3&#45;&gt;Node2 -->
<g id="edge2_Node000002_Node000003" class="edge">
<title>Node3&#45;&gt;Node2</title>
<g id="a_edge2_Node000002_Node000003"><a xlink:title=" ">
<path fill="none" stroke="#63b8ff" d="M69.34,-87C77.03,-87 85.39,-87 94,-87"/>
<polygon fill="none" stroke="#63b8ff" points="69.4,-83.5 59.4,-87 69.4,-90.5 69.4,-83.5"/>
</a>
</g>
</g>
</g>
</svg>
