<?xml version="1.0" encoding="UTF-8" standalone="no"?>
<!DOCTYPE svg PUBLIC "-//W3C//DTD SVG 1.1//EN"
 "http://www.w3.org/Graphics/SVG/1.1/DTD/svg11.dtd">
<!-- Generated by graphviz version 11.0.0 (20240428.1522)
 -->
<!-- Title: v8::internal::compiler::turboshaft::LoadStoreSimplificationConfiguration Pages: 1 -->
<svg width="508pt" height="134pt"
 viewBox="0.00 0.00 508.00 134.00" xmlns="http://www.w3.org/2000/svg" xmlns:xlink="http://www.w3.org/1999/xlink">
<g id="graph0" class="graph" transform="scale(1 1) rotate(0) translate(4 130)">
<title>v8::internal::compiler::turboshaft::LoadStoreSimplificationConfiguration</title>
<!-- Node1 -->
<g id="Node000001" class="node">
<title>Node1</title>
<g id="a_Node000001"><a xlink:title=" ">
<polygon fill="#999999" stroke="none" points="232,-126 0,-126 0,0 232,0 232,-126"/>
<text text-anchor="start" x="5" y="-112.5" font-family="Cascadia Code NF" font-size="10.00">v8::internal::compiler</text>
<text text-anchor="start" x="5" y="-99.75" font-family="Cascadia Code NF" font-size="10.00">::turboshaft::LoadStoreSimplification</text>
<text text-anchor="start" x="77" y="-87" font-family="Cascadia Code NF" font-size="10.00">Configuration</text>
<text text-anchor="start" x="29" y="-70.5" font-family="Cascadia Code NF" font-size="10.00">+</text>
<text text-anchor="start" x="64" y="-70.5" font-family="Cascadia Code NF" font-size="10.00">kNeedsUntaggedBase</text>
<text text-anchor="start" x="29" y="-54.5" font-family="Cascadia Code NF" font-size="10.00">+</text>
<text text-anchor="start" x="64" y="-54.5" font-family="Cascadia Code NF" font-size="10.00">kMinOffset</text>
<text text-anchor="start" x="29" y="-38.5" font-family="Cascadia Code NF" font-size="10.00">+</text>
<text text-anchor="start" x="64" y="-38.5" font-family="Cascadia Code NF" font-size="10.00">kMaxOffset</text>
<text text-anchor="start" x="29" y="-22.5" font-family="Cascadia Code NF" font-size="10.00">+</text>
<text text-anchor="start" x="64" y="-22.5" font-family="Cascadia Code NF" font-size="10.00">kMaxElementSizeLog2</text>
<text text-anchor="start" x="113" y="-6.5" font-family="Cascadia Code NF" font-size="10.00"> </text>
<polygon fill="#666666" stroke="#666666" points="0,-82 0,-82 232,-82 232,-82 0,-82"/>
<polygon fill="#666666" stroke="#666666" points="0,-18 0,-18 62,-18 62,-18 0,-18"/>
<polygon fill="#666666" stroke="#666666" points="62,-18 62,-18 232,-18 232,-18 62,-18"/>
<polygon fill="none" stroke="#666666" points="0,0 0,-126 232,-126 232,0 0,0"/>
</a>
</g>
</g>
<!-- Node2 -->
<g id="Node000002" class="node">
<title>Node2</title>
<g id="a_Node000002"><a xlink:href="../../d6/d7b/classv8_1_1internal_1_1compiler_1_1turboshaft_1_1LoadStoreSimplificationReducer.html" target="_top" xlink:title=" ">
<polygon fill="white" stroke="none" points="500,-118 268,-118 268,-8 500,-8 500,-118"/>
<text text-anchor="start" x="273" y="-104.5" font-family="Cascadia Code NF" font-size="10.00">v8::internal::compiler</text>
<text text-anchor="start" x="273" y="-91.75" font-family="Cascadia Code NF" font-size="10.00">::turboshaft::LoadStoreSimplification</text>
<text text-anchor="start" x="339" y="-79" font-family="Cascadia Code NF" font-size="10.00">Reducer&lt; Next &gt;</text>
<text text-anchor="start" x="381" y="-62.5" font-family="Cascadia Code NF" font-size="10.00"> </text>
<text text-anchor="start" x="298.5" y="-46.5" font-family="Cascadia Code NF" font-size="10.00">+</text>
<text text-anchor="start" x="335" y="-46.5" font-family="Cascadia Code NF" font-size="10.00">Load()</text>
<text text-anchor="start" x="298.5" y="-30.5" font-family="Cascadia Code NF" font-size="10.00">+</text>
<text text-anchor="start" x="335" y="-30.5" font-family="Cascadia Code NF" font-size="10.00">Store()</text>
<text text-anchor="start" x="298.5" y="-14.5" font-family="Cascadia Code NF" font-size="10.00">+</text>
<text text-anchor="start" x="335" y="-14.5" font-family="Cascadia Code NF" font-size="10.00">AtomicWord32Pair()</text>
<polygon fill="#bfbfbf" stroke="#bfbfbf" points="268,-74 268,-74 500,-74 500,-74 268,-74"/>
<polygon fill="#bfbfbf" stroke="#bfbfbf" points="268,-58 268,-58 500,-58 500,-58 268,-58"/>
<polygon fill="none" stroke="#bfbfbf" points="268,-8 268,-118 500,-118 500,-8 268,-8"/>
</a>
</g>
</g>
<!-- Node1&#45;&gt;Node2 -->
<g id="edge1_Node000001_Node000002" class="edge">
<title>Node1&#45;&gt;Node2</title>
<g id="a_edge1_Node000001_Node000002"><a xlink:title=" ">
<path fill="none" stroke="#8b1a1a" d="M243.12,-63C251.5,-63 259.91,-63 268.22,-63"/>
<polygon fill="none" stroke="#8b1a1a" points="243.25,-59.5 233.25,-63 243.25,-66.5 243.25,-59.5"/>
</a>
</g>
</g>
</g>
</svg>
