<?xml version="1.0" encoding="UTF-8" standalone="no"?>
<!DOCTYPE svg PUBLIC "-//W3C//DTD SVG 1.1//EN"
 "http://www.w3.org/Graphics/SVG/1.1/DTD/svg11.dtd">
<!-- Generated by graphviz version 11.0.0 (20240428.1522)
 -->
<!-- Title: v8::internal::JSFunctionOrBoundFunctionOrWrappedFunction Pages: 1 -->
<svg width="926pt" height="272pt"
 viewBox="0.00 0.00 926.00 272.00" xmlns="http://www.w3.org/2000/svg" xmlns:xlink="http://www.w3.org/1999/xlink">
<g id="graph0" class="graph" transform="scale(1 1) rotate(0) translate(4 268)">
<title>v8::internal::JSFunctionOrBoundFunctionOrWrappedFunction</title>
<!-- Node1 -->
<g id="Node000001" class="node">
<title>Node1</title>
<g id="a_Node000001"><a xlink:title=" ">
<polygon fill="#999999" stroke="none" points="918,-82.5 716,-82.5 716,-17.5 918,-17.5 918,-82.5"/>
<text text-anchor="start" x="721" y="-69" font-family="Cascadia Code NF" font-size="10.00">v8::internal::JSFunction</text>
<text text-anchor="start" x="721" y="-56.25" font-family="Cascadia Code NF" font-size="10.00">OrBoundFunctionOrWrappedFunction</text>
<text text-anchor="start" x="814" y="-40" font-family="Cascadia Code NF" font-size="10.00"> </text>
<text text-anchor="start" x="737.5" y="-24" font-family="Cascadia Code NF" font-size="10.00">+</text>
<text text-anchor="start" x="765" y="-24" font-family="Cascadia Code NF" font-size="10.00">CopyNameAndLength()</text>
<polygon fill="#666666" stroke="#666666" points="716,-51.5 716,-51.5 918,-51.5 918,-51.5 716,-51.5"/>
<polygon fill="#666666" stroke="#666666" points="716,-35.5 716,-35.5 918,-35.5 918,-35.5 716,-35.5"/>
<polygon fill="none" stroke="#666666" points="716,-17.5 716,-82.5 918,-82.5 918,-17.5 716,-17.5"/>
</a>
</g>
</g>
<!-- Node2 -->
<g id="Node000002" class="node">
<title>Node2</title>
<g id="a_Node000002"><a xlink:href="../../dc/d5b/classTorqueGeneratedJSFunctionOrBoundFunctionOrWrappedFunction.html" target="_top" xlink:title=" ">
<polygon fill="white" stroke="none" points="536,-264 256,-264 256,-70 536,-70 536,-264"/>
<text text-anchor="start" x="261" y="-250.5" font-family="Cascadia Code NF" font-size="10.00">TorqueGeneratedJSFunction</text>
<text text-anchor="start" x="261" y="-237.75" font-family="Cascadia Code NF" font-size="10.00">OrBoundFunctionOrWrappedFunction</text>
<text text-anchor="start" x="261" y="-225" font-family="Cascadia Code NF" font-size="10.00">&lt; JSFunctionOrBoundFunctionOrWrappedFunction,</text>
<text text-anchor="start" x="363" y="-212.25" font-family="Cascadia Code NF" font-size="10.00"> JSObject &gt;</text>
<text text-anchor="start" x="393" y="-195.5" font-family="Cascadia Code NF" font-size="10.00"> </text>
<text text-anchor="start" x="274.5" y="-179.5" font-family="Cascadia Code NF" font-size="10.00">+</text>
<text text-anchor="start" x="299" y="-179.5" font-family="Cascadia Code NF" font-size="10.00">TorqueGeneratedJSFunction</text>
<text text-anchor="start" x="299" y="-166.75" font-family="Cascadia Code NF" font-size="10.00">OrBoundFunctionOrWrappedFunction()</text>
<text text-anchor="start" x="274.5" y="-150.5" font-family="Cascadia Code NF" font-size="10.00">+</text>
<text text-anchor="start" x="299" y="-150.5" font-family="Cascadia Code NF" font-size="10.00">cast()</text>
<text text-anchor="start" x="274.5" y="-134.5" font-family="Cascadia Code NF" font-size="10.00">+</text>
<text text-anchor="start" x="299" y="-134.5" font-family="Cascadia Code NF" font-size="10.00">unchecked_cast()</text>
<text text-anchor="start" x="274.5" y="-118.5" font-family="Cascadia Code NF" font-size="10.00">#</text>
<text text-anchor="start" x="299" y="-118.5" font-family="Cascadia Code NF" font-size="10.00">TorqueGeneratedJSFunction</text>
<text text-anchor="start" x="299" y="-105.75" font-family="Cascadia Code NF" font-size="10.00">OrBoundFunctionOrWrappedFunction()</text>
<text text-anchor="start" x="274.5" y="-89.5" font-family="Cascadia Code NF" font-size="10.00">#</text>
<text text-anchor="start" x="299" y="-89.5" font-family="Cascadia Code NF" font-size="10.00">TorqueGeneratedJSFunction</text>
<text text-anchor="start" x="299" y="-76.75" font-family="Cascadia Code NF" font-size="10.00">OrBoundFunctionOrWrappedFunction()</text>
<polygon fill="#bfbfbf" stroke="#bfbfbf" points="256,-207 256,-207 536,-207 536,-207 256,-207"/>
<polygon fill="#bfbfbf" stroke="#bfbfbf" points="256,-191 256,-191 536,-191 536,-191 256,-191"/>
<polygon fill="none" stroke="#bfbfbf" points="256,-70 256,-264 536,-264 536,-70 256,-70"/>
</a>
</g>
</g>
<!-- Node2&#45;&gt;Node1 -->
<g id="edge1_Node000001_Node000002" class="edge">
<title>Node2&#45;&gt;Node1</title>
<g id="a_edge1_Node000001_Node000002"><a xlink:title=" ">
<path fill="none" stroke="#63b8ff" d="M546.74,-125.19C603.01,-109.47 665.56,-92.01 716.2,-77.87"/>
<polygon fill="none" stroke="#63b8ff" points="546.09,-121.74 537.4,-127.8 547.97,-128.48 546.09,-121.74"/>
</a>
</g>
</g>
<!-- Node3 -->
<g id="Node000003" class="node">
<title>Node3</title>
<g id="a_Node000003"><a xlink:title=" ">
<polygon fill="white" stroke="none" points="58,-236 0,-236 0,-184 58,-184 58,-236"/>
<text text-anchor="start" x="5" y="-222.5" font-family="Cascadia Code NF" font-size="10.00">JSObject</text>
<text text-anchor="start" x="26" y="-206.5" font-family="Cascadia Code NF" font-size="10.00"> </text>
<text text-anchor="start" x="26" y="-190.5" font-family="Cascadia Code NF" font-size="10.00"> </text>
<polygon fill="#bfbfbf" stroke="#bfbfbf" points="0,-218 0,-218 58,-218 58,-218 0,-218"/>
<polygon fill="#bfbfbf" stroke="#bfbfbf" points="0,-202 0,-202 58,-202 58,-202 0,-202"/>
<polygon fill="none" stroke="#bfbfbf" points="0,-184 0,-236 58,-236 58,-184 0,-184"/>
</a>
</g>
</g>
<!-- Node3&#45;&gt;Node2 -->
<g id="edge2_Node000002_Node000003" class="edge">
<title>Node3&#45;&gt;Node2</title>
<g id="a_edge2_Node000002_Node000003"><a xlink:title=" ">
<path fill="none" stroke="#63b8ff" d="M69.28,-206.17C111.13,-202.02 179.3,-195.03 238,-188 244.01,-187.28 250.14,-186.53 256.34,-185.76"/>
<polygon fill="none" stroke="#63b8ff" points="69.07,-202.68 59.46,-207.14 69.75,-209.64 69.07,-202.68"/>
</a>
</g>
</g>
<!-- Node4 -->
<g id="Node000004" class="node">
<title>Node4</title>
<g id="a_Node000004"><a xlink:href="../../d1/da0/classint.html" target="_top" xlink:title=" ">
<polygon fill="white" stroke="none" points="43,-149 15,-149 15,-97 43,-97 43,-149"/>
<text text-anchor="start" x="20" y="-135.5" font-family="Cascadia Code NF" font-size="10.00">int</text>
<text text-anchor="start" x="26" y="-119.5" font-family="Cascadia Code NF" font-size="10.00"> </text>
<text text-anchor="start" x="26" y="-103.5" font-family="Cascadia Code NF" font-size="10.00"> </text>
<polygon fill="#bfbfbf" stroke="#bfbfbf" points="15,-131 15,-131 43,-131 43,-131 15,-131"/>
<polygon fill="#bfbfbf" stroke="#bfbfbf" points="15,-115 15,-115 43,-115 43,-115 15,-115"/>
<polygon fill="none" stroke="#bfbfbf" points="15,-97 15,-149 43,-149 43,-97 15,-97"/>
</a>
</g>
</g>
<!-- Node4&#45;&gt;Node2 -->
<g id="edge3_Node000002_Node000004" class="edge">
<title>Node4&#45;&gt;Node2</title>
<g id="a_edge3_Node000002_Node000004"><a xlink:title=" ">
<path fill="none" stroke="#63b8ff" d="M42.88,-122.02C52.1,-121.38 64.8,-120.58 76,-120.25 147.97,-118.1 166.75,-109.87 238,-120.25 239.89,-120.53 241.79,-120.82 243.7,-121.13"/>
<polygon fill="none" stroke="#63b8ff" points="243.67,-121.12 250.28,-118.25 255.48,-123.24 248.87,-126.12 243.67,-121.12"/>
</a>
</g>
<text text-anchor="middle" x="157" y="-174.25" font-family="Cascadia Code NF" font-size="10.00" fill="grey"> +kEndOfStrongFieldsOffset</text>
<text text-anchor="middle" x="157" y="-161.5" font-family="Cascadia Code NF" font-size="10.00" fill="grey">+kEndOfWeakFieldsOffset</text>
<text text-anchor="middle" x="157" y="-148.75" font-family="Cascadia Code NF" font-size="10.00" fill="grey">+kHeaderSize</text>
<text text-anchor="middle" x="157" y="-136" font-family="Cascadia Code NF" font-size="10.00" fill="grey">+kStartOfStrongFieldsOffset</text>
<text text-anchor="middle" x="157" y="-123.25" font-family="Cascadia Code NF" font-size="10.00" fill="grey">+kStartOfWeakFieldsOffset</text>
</g>
<!-- Node5 -->
<g id="Node000005" class="node">
<title>Node5</title>
<g id="a_Node000005"><a xlink:title=" ">
<polygon fill="white" stroke="none" points="416,-52 376,-52 376,0 416,0 416,-52"/>
<text text-anchor="start" x="381" y="-38.5" font-family="Cascadia Code NF" font-size="10.00">const</text>
<text text-anchor="start" x="393" y="-22.5" font-family="Cascadia Code NF" font-size="10.00"> </text>
<text text-anchor="start" x="393" y="-6.5" font-family="Cascadia Code NF" font-size="10.00"> </text>
<polygon fill="#bfbfbf" stroke="#bfbfbf" points="376,-34 376,-34 416,-34 416,-34 376,-34"/>
<polygon fill="#bfbfbf" stroke="#bfbfbf" points="376,-18 376,-18 416,-18 416,-18 376,-18"/>
<polygon fill="none" stroke="#bfbfbf" points="376,0 376,-52 416,-52 416,0 376,0"/>
</a>
</g>
</g>
<!-- Node5&#45;&gt;Node1 -->
<g id="edge4_Node000001_Node000005" class="edge">
<title>Node5&#45;&gt;Node1</title>
<g id="a_edge4_Node000001_Node000005"><a xlink:title=" ">
<path fill="none" stroke="#63b8ff" d="M415.82,-27.08C465.47,-29.92 603.09,-37.8 703.1,-43.53"/>
<polygon fill="none" stroke="#63b8ff" points="703.14,-43.54 709.36,-39.89 715.12,-44.22 708.9,-47.87 703.14,-43.54"/>
</a>
</g>
<text text-anchor="middle" x="626" y="-58" font-family="Cascadia Code NF" font-size="10.00" fill="grey"> +kLengthDescriptorIndex</text>
<text text-anchor="middle" x="626" y="-45.25" font-family="Cascadia Code NF" font-size="10.00" fill="grey">+kNameDescriptorIndex</text>
</g>
</g>
</svg>
