<?xml version="1.0" encoding="UTF-8" standalone="no"?>
<!DOCTYPE svg PUBLIC "-//W3C//DTD SVG 1.1//EN"
 "http://www.w3.org/Graphics/SVG/1.1/DTD/svg11.dtd">
<!-- Generated by graphviz version 11.0.0 (20240428.1522)
 -->
<!-- Title: v8::platform::tracing::TraceBufferRingBuffer Pages: 1 -->
<!--zoomable 153 -->

<svg id="main" version="1.1" xmlns="http://www.w3.org/2000/svg" xmlns:xlink="http://www.w3.org/1999/xlink" xml:space="preserve" onload="init(evt)">
<style type="text/css"><![CDATA[
.node, .edge {opacity: 0.7;}
.node.selected, .edge.selected {opacity: 1;}
.edge:hover path { stroke: red; }
.edge:hover polygon { stroke: red; fill: red; }
svg#main { background-color: #111; }
]]></style>

<defs>
  <circle id="rim" cx="0" cy="0" r="7"/>
  <circle id="rim2" cx="0" cy="0" r="3.5"/>
  <g id="zoomPlus">
    <use xlink:href="#rim" fill="#404040"><set attributeName="fill" to="#808080" begin="zoomplus.mouseover" end="zoomplus.mouseout"/></use>
    <path d="M-4,0h8M0,-4v8" fill="none" stroke="white" stroke-width="1.5" pointer-events="none"/>
  </g>
  <g id="zoomMin">
    <use xlink:href="#rim" fill="#404040"><set attributeName="fill" to="#808080" begin="zoomminus.mouseover" end="zoomminus.mouseout"/></use>
    <path d="M-4,0h8" fill="none" stroke="white" stroke-width="1.5" pointer-events="none"/>
  </g>
  <g id="arrowUp" transform="translate(30 24)">
    <use xlink:href="#rim"/>
    <path pointer-events="none" fill="none" stroke="white" stroke-width="1.5" d="M0,-3.0v7 M-2.5,-0.5L0,-3.0L2.5,-0.5"/>
  </g>
  <g id="arrowRight" transform="rotate(90) translate(36 -43)">
    <use xlink:href="#rim"/>
    <path pointer-events="none" fill="none" stroke="white" stroke-width="1.5" d="M0,-3.0v7 M-2.5,-0.5L0,-3.0L2.5,-0.5"/>
  </g>
  <g id="arrowDown" transform="rotate(180) translate(-30 -48)">
    <use xlink:href="#rim"/>
    <path pointer-events="none" fill="none" stroke="white" stroke-width="1.5" d="M0,-3.0v7 M-2.5,-0.5L0,-3.0L2.5,-0.5"/>
  </g>
  <g id="arrowLeft" transform="rotate(270) translate(-36 17)">
    <use xlink:href="#rim"/>
    <path pointer-events="none" fill="none" stroke="white" stroke-width="1.5" d="M0,-3.0v7 M-2.5,-0.5L0,-3.0L2.5,-0.5"/>
  </g>
  <g id="resetDef">
    <use xlink:href="#rim2" fill="#404040"><set attributeName="fill" to="#808080" begin="reset.mouseover" end="reset.mouseout"/></use>
  </g>
</defs>
<script type="application/ecmascript">
var viewWidth = 588;
var viewHeight = 153;
var sectionId = 'dynsection-1';
</script>
<script type="application/ecmascript" xlink:href="../../svg.min.js"/>
<svg id="graph" class="graph">
<g id="viewport">
<title>v8::platform::tracing::TraceBufferRingBuffer</title>
<!-- Node1 -->
<g id="Node000001" class="node">
<title>Node1</title>
<g id="a_Node000001"><a xlink:title=" ">
<polygon fill="#999999" stroke="none" points="580,-137 418,-137 418,-8 580,-8 580,-137"/>
<text text-anchor="start" x="430" y="-123.5" font-family="Cascadia Code NF" font-size="10.00">v8::platform::tracing</text>
<text text-anchor="start" x="430" y="-110.75" font-family="Cascadia Code NF" font-size="10.00">::TraceBufferRingBuffer</text>
<text text-anchor="start" x="496" y="-94.5" font-family="Cascadia Code NF" font-size="10.00"> </text>
<text text-anchor="start" x="422" y="-78.5" font-family="Cascadia Code NF" font-size="10.00">+</text>
<text text-anchor="start" x="432" y="-78.5" font-family="Cascadia Code NF" font-size="10.00">TraceBufferRingBuffer()</text>
<text text-anchor="start" x="422" y="-62.5" font-family="Cascadia Code NF" font-size="10.00">+</text>
<text text-anchor="start" x="432" y="-62.5" font-family="Cascadia Code NF" font-size="10.00">~TraceBufferRingBuffer()</text>
<text text-anchor="start" x="422" y="-46.5" font-family="Cascadia Code NF" font-size="10.00">+</text>
<text text-anchor="start" x="432" y="-46.5" font-family="Cascadia Code NF" font-size="10.00">AddTraceEvent()</text>
<text text-anchor="start" x="422" y="-30.5" font-family="Cascadia Code NF" font-size="10.00">+</text>
<text text-anchor="start" x="432" y="-30.5" font-family="Cascadia Code NF" font-size="10.00">GetEventByHandle()</text>
<text text-anchor="start" x="422" y="-14.5" font-family="Cascadia Code NF" font-size="10.00">+</text>
<text text-anchor="start" x="432" y="-14.5" font-family="Cascadia Code NF" font-size="10.00">Flush()</text>
<polygon fill="#666666" stroke="#666666" points="418,-106 418,-106 580,-106 580,-106 418,-106"/>
<polygon fill="#666666" stroke="#666666" points="418,-90 418,-90 580,-90 580,-90 418,-90"/>
<polygon fill="none" stroke="#666666" points="418,-8 418,-137 580,-137 580,-8 418,-8"/>
</a>
</g>
</g>
<!-- Node2 -->
<g id="Node000002" class="node">
<title>Node2</title>
<g id="a_Node000002"><a xlink:href="../../d6/dcc/classv8_1_1platform_1_1tracing_1_1TraceBuffer.html" target="_top" xlink:title=" ">
<polygon fill="white" stroke="none" points="382,-145 190,-145 190,0 382,0 382,-145"/>
<text text-anchor="start" x="223" y="-131.5" font-family="Cascadia Code NF" font-size="10.00">v8::platform::tracing</text>
<text text-anchor="start" x="247" y="-118.75" font-family="Cascadia Code NF" font-size="10.00">::TraceBuffer</text>
<text text-anchor="start" x="283" y="-102.5" font-family="Cascadia Code NF" font-size="10.00"> </text>
<text text-anchor="start" x="194" y="-86.5" font-family="Cascadia Code NF" font-size="10.00">+</text>
<text text-anchor="start" x="204" y="-86.5" font-family="Cascadia Code NF" font-size="10.00">TraceBuffer()</text>
<text text-anchor="start" x="194" y="-70.5" font-family="Cascadia Code NF" font-size="10.00">+</text>
<text text-anchor="start" x="204" y="-70.5" font-family="Cascadia Code NF" font-size="10.00">~TraceBuffer()</text>
<text text-anchor="start" x="194" y="-54.5" font-family="Cascadia Code NF" font-size="10.00">+</text>
<text text-anchor="start" x="204" y="-54.5" font-family="Cascadia Code NF" font-size="10.00">AddTraceEvent()</text>
<text text-anchor="start" x="194" y="-38.5" font-family="Cascadia Code NF" font-size="10.00">+</text>
<text text-anchor="start" x="204" y="-38.5" font-family="Cascadia Code NF" font-size="10.00">GetEventByHandle()</text>
<text text-anchor="start" x="194" y="-22.5" font-family="Cascadia Code NF" font-size="10.00">+</text>
<text text-anchor="start" x="204" y="-22.5" font-family="Cascadia Code NF" font-size="10.00">Flush()</text>
<text text-anchor="start" x="194" y="-6.5" font-family="Cascadia Code NF" font-size="10.00">+</text>
<text text-anchor="start" x="204" y="-6.5" font-family="Cascadia Code NF" font-size="10.00">CreateTraceBufferRingBuffer()</text>
<polygon fill="#bfbfbf" stroke="#bfbfbf" points="190,-114 190,-114 382,-114 382,-114 190,-114"/>
<polygon fill="#bfbfbf" stroke="#bfbfbf" points="190,-98 190,-98 382,-98 382,-98 190,-98"/>
<polygon fill="none" stroke="#bfbfbf" points="190,0 190,-145 382,-145 382,0 190,0"/>
</a>
</g>
</g>
<!-- Node2&#45;&gt;Node1 -->
<g id="edge1_Node000001_Node000002" class="edge">
<title>Node2&#45;&gt;Node1</title>
<g id="a_edge1_Node000001_Node000002"><a xlink:title=" ">
<path fill="none" stroke="#63b8ff" d="M393.14,-72.5C401.54,-72.5 409.93,-72.5 418.11,-72.5"/>
<polygon fill="none" stroke="#63b8ff" points="393.21,-69 383.21,-72.5 393.21,-76 393.21,-69"/>
</a>
</g>
</g>
<!-- Node3 -->
<g id="Node000003" class="node">
<title>Node3</title>
<g id="a_Node000003"><a xlink:title=" ">
<polygon fill="white" stroke="none" points="40,-98.5 0,-98.5 0,-46.5 40,-46.5 40,-98.5"/>
<text text-anchor="start" x="5" y="-85" font-family="Cascadia Code NF" font-size="10.00">const</text>
<text text-anchor="start" x="17" y="-69" font-family="Cascadia Code NF" font-size="10.00"> </text>
<text text-anchor="start" x="17" y="-53" font-family="Cascadia Code NF" font-size="10.00"> </text>
<polygon fill="#bfbfbf" stroke="#bfbfbf" points="0,-80.5 0,-80.5 40,-80.5 40,-80.5 0,-80.5"/>
<polygon fill="#bfbfbf" stroke="#bfbfbf" points="0,-64.5 0,-64.5 40,-64.5 40,-64.5 0,-64.5"/>
<polygon fill="none" stroke="#bfbfbf" points="0,-46.5 0,-98.5 40,-98.5 40,-46.5 0,-46.5"/>
</a>
</g>
</g>
<!-- Node3&#45;&gt;Node2 -->
<g id="edge2_Node000002_Node000003" class="edge">
<title>Node3&#45;&gt;Node2</title>
<g id="a_edge2_Node000002_Node000003"><a xlink:title=" ">
<path fill="none" stroke="#63b8ff" d="M39.99,-72.5C68.76,-72.5 125.54,-72.5 177.2,-72.5"/>
<polygon fill="none" stroke="#63b8ff" points="177.3,-72.5 183.3,-68.5 189.3,-72.5 183.3,-76.5 177.3,-72.5"/>
</a>
</g>
<text text-anchor="middle" x="115" y="-75.75" font-family="Cascadia Code NF" font-size="10.00" fill="grey"> +kRingBufferChunks</text>
</g>
</g>
</svg>

<g id="navigator" transform="translate(0 0)" fill="#404254">
  <rect fill="#f2f5e9" fill-opacity="0.5" stroke="#606060" stroke-width=".5" x="0" y="0" width="60" height="60"/>
  <use id="zoomplus" xlink:href="#zoomPlus" x="17" y="9" onmousedown="handleZoom(evt,'in')"/>
  <use id="zoomminus" xlink:href="#zoomMin" x="42" y="9" onmousedown="handleZoom(evt,'out')"/>
  <use id="reset" xlink:href="#resetDef" x="30" y="36" onmousedown="handleReset()"/>
   <use id="arrowup" xlink:href="#arrowUp" x="0" y="0" onmousedown="handlePan(0,-1)"/>
  <use id="arrowright" xlink:href="#arrowRight" x="0" y="0" onmousedown="handlePan(1,0)"/>
  <use id="arrowdown" xlink:href="#arrowDown" x="0" y="0" onmousedown="handlePan(0,1)"/>
  <use id="arrowleft" xlink:href="#arrowLeft" x="0" y="0" onmousedown="handlePan(-1,0)"/>
</g>
<svg viewBox="0 0 15 15" width="100%" height="30px" preserveAspectRatio="xMaxYMin meet">
 <g id="arrow_out" transform="scale(0.3 0.3)">
  <a xlink:href="classv8_1_1platform_1_1tracing_1_1TraceBufferRingBuffer__coll__graph_org.svg" target="_base">
   <rect id="button" ry="5" rx="5" y="6" x="6" height="38" width="38"
        fill="#f2f5e9" fill-opacity="0.5" stroke="#606060" stroke-width="1.0"/>
   <path id="arrow"
     d="M 11.500037,31.436501 C 11.940474,20.09759 22.043105,11.32322 32.158766,21.979434 L 37.068811,17.246167 C 37.068811,17.246167 37.088388,32 37.088388,32 L 22.160133,31.978069 C 22.160133,31.978069 26.997745,27.140456 26.997745,27.140456 C 18.528582,18.264221 13.291696,25.230495 11.500037,31.436501 z"
     style="fill:#404040;"/>
  </a>
 </g>
</svg>

<style type='text/css'>
<![CDATA[
[data-mouse-over-selected='false'] { opacity: 0.7; }
[data-mouse-over-selected='true']  { opacity: 1.0; }
]]>
</style>
<script type="application/ecmascript"><![CDATA[
document.addEventListener('DOMContentLoaded', (event) => {
  highlightEdges();
  highlightAdjacentNodes();
});
]]></script>
</svg>
