<?xml version="1.0" encoding="UTF-8" standalone="no"?>
<!DOCTYPE svg PUBLIC "-//W3C//DTD SVG 1.1//EN"
 "http://www.w3.org/Graphics/SVG/1.1/DTD/svg11.dtd">
<!-- Generated by graphviz version 11.0.0 (20240428.1522)
 -->
<!-- Title: v8::internal::ScriptStreamingData Pages: 1 -->
<svg width="754pt" height="348pt"
 viewBox="0.00 0.00 754.00 348.00" xmlns="http://www.w3.org/2000/svg" xmlns:xlink="http://www.w3.org/1999/xlink">
<g id="graph0" class="graph" transform="scale(1 1) rotate(0) translate(4 344)">
<title>v8::internal::ScriptStreamingData</title>
<!-- Node1 -->
<g id="Node000001" class="node">
<title>Node1</title>
<g id="a_Node000001"><a xlink:title=" ">
<polygon fill="#999999" stroke="none" points="746,-269.5 538,-269.5 538,-153.5 746,-153.5 746,-269.5"/>
<text text-anchor="start" x="543" y="-256" font-family="Cascadia Code NF" font-size="10.00">v8::internal::ScriptStreamingData</text>
<text text-anchor="start" x="639" y="-240" font-family="Cascadia Code NF" font-size="10.00"> </text>
<text text-anchor="start" x="556.5" y="-224" font-family="Cascadia Code NF" font-size="10.00">+</text>
<text text-anchor="start" x="581" y="-224" font-family="Cascadia Code NF" font-size="10.00">ScriptStreamingData()</text>
<text text-anchor="start" x="556.5" y="-208" font-family="Cascadia Code NF" font-size="10.00">+</text>
<text text-anchor="start" x="581" y="-208" font-family="Cascadia Code NF" font-size="10.00">ScriptStreamingData()</text>
<text text-anchor="start" x="556.5" y="-192" font-family="Cascadia Code NF" font-size="10.00">+</text>
<text text-anchor="start" x="581" y="-192" font-family="Cascadia Code NF" font-size="10.00">operator=()</text>
<text text-anchor="start" x="556.5" y="-176" font-family="Cascadia Code NF" font-size="10.00">+</text>
<text text-anchor="start" x="581" y="-176" font-family="Cascadia Code NF" font-size="10.00">~ScriptStreamingData()</text>
<text text-anchor="start" x="556.5" y="-160" font-family="Cascadia Code NF" font-size="10.00">+</text>
<text text-anchor="start" x="581" y="-160" font-family="Cascadia Code NF" font-size="10.00">Release()</text>
<polygon fill="#666666" stroke="#666666" points="538,-251.5 538,-251.5 746,-251.5 746,-251.5 538,-251.5"/>
<polygon fill="#666666" stroke="#666666" points="538,-235.5 538,-235.5 746,-235.5 746,-235.5 538,-235.5"/>
<polygon fill="none" stroke="#666666" points="538,-153.5 538,-269.5 746,-269.5 746,-153.5 538,-153.5"/>
</a>
</g>
</g>
<!-- Node2 -->
<g id="Node000002" class="node">
<title>Node2</title>
<g id="a_Node000002"><a xlink:title=" ">
<polygon fill="white" stroke="none" points="403,-336.5 237,-336.5 237,-258.5 403,-258.5 403,-336.5"/>
<text text-anchor="start" x="242" y="-323" font-family="Cascadia Code NF" font-size="10.00">std::unique_ptr&lt; v8</text>
<text text-anchor="start" x="242" y="-310.25" font-family="Cascadia Code NF" font-size="10.00">::ScriptCompiler::External</text>
<text text-anchor="start" x="278" y="-297.5" font-family="Cascadia Code NF" font-size="10.00">SourceStream &gt;</text>
<text text-anchor="start" x="317" y="-281" font-family="Cascadia Code NF" font-size="10.00"> </text>
<text text-anchor="start" x="260" y="-265" font-family="Cascadia Code NF" font-size="10.00">+</text>
<text text-anchor="start" x="289" y="-265" font-family="Cascadia Code NF" font-size="10.00">operator&#45;&gt;()</text>
<polygon fill="#666666" stroke="#666666" points="237,-292.5 237,-292.5 403,-292.5 403,-292.5 237,-292.5"/>
<polygon fill="#666666" stroke="#666666" points="237,-276.5 237,-276.5 403,-276.5 403,-276.5 237,-276.5"/>
<polygon fill="none" stroke="#666666" points="237,-258.5 237,-336.5 403,-336.5 403,-258.5 237,-258.5"/>
</a>
</g>
</g>
<!-- Node2&#45;&gt;Node1 -->
<g id="edge1_Node000001_Node000002" class="edge">
<title>Node2&#45;&gt;Node1</title>
<g id="a_edge1_Node000001_Node000002"><a xlink:title=" ">
<path fill="none" stroke="#63b8ff" d="M402.99,-275.46C440.33,-265.43 485.18,-253.38 525.82,-242.45"/>
<polygon fill="none" stroke="#63b8ff" points="525.83,-242.45 530.59,-237.03 537.42,-239.34 532.66,-244.76 525.83,-242.45"/>
</a>
</g>
<text text-anchor="middle" x="475" y="-269.75" font-family="Cascadia Code NF" font-size="10.00" fill="grey"> +source_stream</text>
</g>
<!-- Node3 -->
<g id="Node000003" class="node">
<title>Node3</title>
<g id="a_Node000003"><a xlink:href="../../d4/dcb/classv8_1_1ScriptCompiler_1_1ExternalSourceStream.html" target="_top" xlink:title=" ">
<polygon fill="white" stroke="none" points="159,-340 3,-340 3,-259 159,-259 159,-340"/>
<text text-anchor="start" x="15" y="-326.5" font-family="Cascadia Code NF" font-size="10.00">v8::ScriptCompiler</text>
<text text-anchor="start" x="15" y="-313.75" font-family="Cascadia Code NF" font-size="10.00">::ExternalSourceStream</text>
<text text-anchor="start" x="78" y="-297.5" font-family="Cascadia Code NF" font-size="10.00"> </text>
<text text-anchor="start" x="7" y="-281.5" font-family="Cascadia Code NF" font-size="10.00">+</text>
<text text-anchor="start" x="17" y="-281.5" font-family="Cascadia Code NF" font-size="10.00">~ExternalSourceStream()</text>
<text text-anchor="start" x="7" y="-265.5" font-family="Cascadia Code NF" font-size="10.00">+</text>
<text text-anchor="start" x="17" y="-265.5" font-family="Cascadia Code NF" font-size="10.00">GetMoreData()</text>
<polygon fill="#666666" stroke="#666666" points="3,-309 3,-309 159,-309 159,-309 3,-309"/>
<polygon fill="#666666" stroke="#666666" points="3,-293 3,-293 159,-293 159,-293 3,-293"/>
<polygon fill="none" stroke="#666666" points="3,-259 3,-340 159,-340 159,-259 3,-259"/>
</a>
</g>
</g>
<!-- Node3&#45;&gt;Node2 -->
<g id="edge2_Node000002_Node000003" class="edge">
<title>Node3&#45;&gt;Node2</title>
<g id="a_edge2_Node000002_Node000003"><a xlink:title=" ">
<path fill="none" stroke="#63b8ff" d="M158.95,-298.85C179.75,-298.68 202.51,-298.48 224.17,-298.3"/>
<polygon fill="none" stroke="#63b8ff" points="224.23,-298.3 230.2,-294.25 236.23,-298.2 230.27,-302.25 224.23,-298.3"/>
</a>
</g>
<text text-anchor="middle" x="195" y="-301.75" font-family="Cascadia Code NF" font-size="10.00" fill="grey"> +ptr</text>
</g>
<!-- Node4 -->
<g id="Node000004" class="node">
<title>Node4</title>
<g id="a_Node000004"><a xlink:title=" ">
<polygon fill="white" stroke="none" points="349,-237.5 291,-237.5 291,-185.5 349,-185.5 349,-237.5"/>
<text text-anchor="start" x="296" y="-224" font-family="Cascadia Code NF" font-size="10.00">Encoding</text>
<text text-anchor="start" x="317" y="-208" font-family="Cascadia Code NF" font-size="10.00"> </text>
<text text-anchor="start" x="317" y="-192" font-family="Cascadia Code NF" font-size="10.00"> </text>
<polygon fill="#bfbfbf" stroke="#bfbfbf" points="291,-219.5 291,-219.5 349,-219.5 349,-219.5 291,-219.5"/>
<polygon fill="#bfbfbf" stroke="#bfbfbf" points="291,-203.5 291,-203.5 349,-203.5 349,-203.5 291,-203.5"/>
<polygon fill="none" stroke="#bfbfbf" points="291,-185.5 291,-237.5 349,-237.5 349,-185.5 291,-185.5"/>
</a>
</g>
</g>
<!-- Node4&#45;&gt;Node1 -->
<g id="edge3_Node000001_Node000004" class="edge">
<title>Node4&#45;&gt;Node1</title>
<g id="a_edge3_Node000001_Node000004"><a xlink:title=" ">
<path fill="none" stroke="#63b8ff" d="M348.84,-211.5C387.96,-211.5 461.53,-211.5 525.06,-211.5"/>
<polygon fill="none" stroke="#63b8ff" points="525.13,-211.5 531.13,-207.5 537.13,-211.5 531.13,-215.5 525.13,-211.5"/>
</a>
</g>
<text text-anchor="middle" x="475" y="-214.75" font-family="Cascadia Code NF" font-size="10.00" fill="grey"> +encoding</text>
</g>
<!-- Node5 -->
<g id="Node000005" class="node">
<title>Node5</title>
<g id="a_Node000005"><a xlink:title=" ">
<polygon fill="white" stroke="none" points="412,-161.5 228,-161.5 228,-83.5 412,-83.5 412,-161.5"/>
<text text-anchor="start" x="233" y="-148" font-family="Cascadia Code NF" font-size="10.00">std::unique_ptr&lt; v8</text>
<text text-anchor="start" x="233" y="-135.25" font-family="Cascadia Code NF" font-size="10.00">::internal::BackgroundCompile</text>
<text text-anchor="start" x="302" y="-122.5" font-family="Cascadia Code NF" font-size="10.00">Task &gt;</text>
<text text-anchor="start" x="317" y="-106" font-family="Cascadia Code NF" font-size="10.00"> </text>
<text text-anchor="start" x="255.5" y="-90" font-family="Cascadia Code NF" font-size="10.00">+</text>
<text text-anchor="start" x="289" y="-90" font-family="Cascadia Code NF" font-size="10.00">operator&#45;&gt;()</text>
<polygon fill="#666666" stroke="#666666" points="228,-117.5 228,-117.5 412,-117.5 412,-117.5 228,-117.5"/>
<polygon fill="#666666" stroke="#666666" points="228,-101.5 228,-101.5 412,-101.5 412,-101.5 228,-101.5"/>
<polygon fill="none" stroke="#666666" points="228,-83.5 228,-161.5 412,-161.5 412,-83.5 228,-83.5"/>
</a>
</g>
</g>
<!-- Node5&#45;&gt;Node1 -->
<g id="edge4_Node000001_Node000005" class="edge">
<title>Node5&#45;&gt;Node1</title>
<g id="a_edge4_Node000001_Node000005"><a xlink:title=" ">
<path fill="none" stroke="#63b8ff" d="M411.84,-147.77C447.2,-157.6 488.14,-168.99 525.55,-179.39"/>
<polygon fill="none" stroke="#63b8ff" points="525.66,-179.42 532.51,-177.18 537.22,-182.64 530.37,-184.88 525.66,-179.42"/>
</a>
</g>
<text text-anchor="middle" x="475" y="-180.75" font-family="Cascadia Code NF" font-size="10.00" fill="grey"> +task</text>
</g>
<!-- Node6 -->
<g id="Node000006" class="node">
<title>Node6</title>
<g id="a_Node000006"><a xlink:href="../../d6/d14/classv8_1_1internal_1_1BackgroundCompileTask.html" target="_top" xlink:title=" ">
<polygon fill="white" stroke="none" points="162,-241 0,-241 0,0 162,0 162,-241"/>
<text text-anchor="start" x="9" y="-227.5" font-family="Cascadia Code NF" font-size="10.00">v8::internal::Background</text>
<text text-anchor="start" x="48" y="-214.75" font-family="Cascadia Code NF" font-size="10.00">CompileTask</text>
<text text-anchor="start" x="78" y="-198.5" font-family="Cascadia Code NF" font-size="10.00"> </text>
<text text-anchor="start" x="4" y="-182.5" font-family="Cascadia Code NF" font-size="10.00">+</text>
<text text-anchor="start" x="14" y="-182.5" font-family="Cascadia Code NF" font-size="10.00">BackgroundCompileTask()</text>
<text text-anchor="start" x="4" y="-166.5" font-family="Cascadia Code NF" font-size="10.00">+</text>
<text text-anchor="start" x="14" y="-166.5" font-family="Cascadia Code NF" font-size="10.00">BackgroundCompileTask()</text>
<text text-anchor="start" x="4" y="-150.5" font-family="Cascadia Code NF" font-size="10.00">+</text>
<text text-anchor="start" x="14" y="-150.5" font-family="Cascadia Code NF" font-size="10.00">operator=()</text>
<text text-anchor="start" x="4" y="-134.5" font-family="Cascadia Code NF" font-size="10.00">+</text>
<text text-anchor="start" x="14" y="-134.5" font-family="Cascadia Code NF" font-size="10.00">~BackgroundCompileTask()</text>
<text text-anchor="start" x="4" y="-118.5" font-family="Cascadia Code NF" font-size="10.00">+</text>
<text text-anchor="start" x="14" y="-118.5" font-family="Cascadia Code NF" font-size="10.00">BackgroundCompileTask()</text>
<text text-anchor="start" x="4" y="-102.5" font-family="Cascadia Code NF" font-size="10.00">+</text>
<text text-anchor="start" x="14" y="-102.5" font-family="Cascadia Code NF" font-size="10.00">Run()</text>
<text text-anchor="start" x="4" y="-86.5" font-family="Cascadia Code NF" font-size="10.00">+</text>
<text text-anchor="start" x="14" y="-86.5" font-family="Cascadia Code NF" font-size="10.00">RunOnMainThread()</text>
<text text-anchor="start" x="4" y="-70.5" font-family="Cascadia Code NF" font-size="10.00">+</text>
<text text-anchor="start" x="14" y="-70.5" font-family="Cascadia Code NF" font-size="10.00">Run()</text>
<text text-anchor="start" x="4" y="-54.5" font-family="Cascadia Code NF" font-size="10.00">+</text>
<text text-anchor="start" x="14" y="-54.5" font-family="Cascadia Code NF" font-size="10.00">FinalizeScript()</text>
<text text-anchor="start" x="4" y="-38.5" font-family="Cascadia Code NF" font-size="10.00">+</text>
<text text-anchor="start" x="14" y="-38.5" font-family="Cascadia Code NF" font-size="10.00">FinalizeFunction()</text>
<text text-anchor="start" x="4" y="-22.5" font-family="Cascadia Code NF" font-size="10.00">+</text>
<text text-anchor="start" x="14" y="-22.5" font-family="Cascadia Code NF" font-size="10.00">AbortFunction()</text>
<text text-anchor="start" x="4" y="-6.5" font-family="Cascadia Code NF" font-size="10.00">+</text>
<text text-anchor="start" x="14" y="-6.5" font-family="Cascadia Code NF" font-size="10.00">flags()</text>
<polygon fill="#bfbfbf" stroke="#bfbfbf" points="0,-210 0,-210 162,-210 162,-210 0,-210"/>
<polygon fill="#bfbfbf" stroke="#bfbfbf" points="0,-194 0,-194 162,-194 162,-194 0,-194"/>
<polygon fill="none" stroke="#bfbfbf" points="0,0 0,-241 162,-241 162,0 0,0"/>
</a>
</g>
</g>
<!-- Node6&#45;&gt;Node5 -->
<g id="edge5_Node000005_Node000006" class="edge">
<title>Node6&#45;&gt;Node5</title>
<g id="a_edge5_Node000005_Node000006"><a xlink:title=" ">
<path fill="none" stroke="#63b8ff" d="M161.91,-121.17C178.99,-121.32 197.28,-121.47 215.12,-121.62"/>
<polygon fill="none" stroke="#63b8ff" points="215.1,-121.62 221.14,-117.67 227.1,-121.72 221.07,-125.67 215.1,-121.62"/>
</a>
</g>
<text text-anchor="middle" x="195" y="-124.75" font-family="Cascadia Code NF" font-size="10.00" fill="grey"> +ptr</text>
</g>
</g>
</svg>
