<?xml version="1.0" encoding="UTF-8" standalone="no"?>
<!DOCTYPE svg PUBLIC "-//W3C//DTD SVG 1.1//EN"
 "http://www.w3.org/Graphics/SVG/1.1/DTD/svg11.dtd">
<!-- Generated by graphviz version 11.0.0 (20240428.1522)
 -->
<!-- Title: v8::internal::wasm::ConstantExpression Pages: 1 -->
<svg width="146pt" height="233pt"
 viewBox="0.00 0.00 146.00 233.00" xmlns="http://www.w3.org/2000/svg" xmlns:xlink="http://www.w3.org/1999/xlink">
<g id="graph0" class="graph" transform="scale(1 1) rotate(0) translate(4 229)">
<title>v8::internal::wasm::ConstantExpression</title>
<!-- Node1 -->
<g id="Node000001" class="node">
<title>Node1</title>
<g id="a_Node000001"><a xlink:title=" ">
<polygon fill="#999999" stroke="none" points="138,-225 0,-225 0,0 138,0 138,-225"/>
<text text-anchor="start" x="9" y="-211.5" font-family="Cascadia Code NF" font-size="10.00">v8::internal::wasm</text>
<text text-anchor="start" x="9" y="-198.75" font-family="Cascadia Code NF" font-size="10.00">::ConstantExpression</text>
<text text-anchor="start" x="66" y="-182.5" font-family="Cascadia Code NF" font-size="10.00"> </text>
<text text-anchor="start" x="4" y="-166.5" font-family="Cascadia Code NF" font-size="10.00">+</text>
<text text-anchor="start" x="14" y="-166.5" font-family="Cascadia Code NF" font-size="10.00">ConstantExpression()</text>
<text text-anchor="start" x="4" y="-150.5" font-family="Cascadia Code NF" font-size="10.00">+</text>
<text text-anchor="start" x="14" y="-150.5" font-family="Cascadia Code NF" font-size="10.00">kind()</text>
<text text-anchor="start" x="4" y="-134.5" font-family="Cascadia Code NF" font-size="10.00">+</text>
<text text-anchor="start" x="14" y="-134.5" font-family="Cascadia Code NF" font-size="10.00">is_set()</text>
<text text-anchor="start" x="4" y="-118.5" font-family="Cascadia Code NF" font-size="10.00">+</text>
<text text-anchor="start" x="14" y="-118.5" font-family="Cascadia Code NF" font-size="10.00">index()</text>
<text text-anchor="start" x="4" y="-102.5" font-family="Cascadia Code NF" font-size="10.00">+</text>
<text text-anchor="start" x="14" y="-102.5" font-family="Cascadia Code NF" font-size="10.00">repr()</text>
<text text-anchor="start" x="4" y="-86.5" font-family="Cascadia Code NF" font-size="10.00">+</text>
<text text-anchor="start" x="14" y="-86.5" font-family="Cascadia Code NF" font-size="10.00">i32_value()</text>
<text text-anchor="start" x="4" y="-70.5" font-family="Cascadia Code NF" font-size="10.00">+</text>
<text text-anchor="start" x="14" y="-70.5" font-family="Cascadia Code NF" font-size="10.00">wire_bytes_ref()</text>
<text text-anchor="start" x="4" y="-54.5" font-family="Cascadia Code NF" font-size="10.00">+</text>
<text text-anchor="start" x="14" y="-54.5" font-family="Cascadia Code NF" font-size="10.00">I32Const()</text>
<text text-anchor="start" x="4" y="-38.5" font-family="Cascadia Code NF" font-size="10.00">+</text>
<text text-anchor="start" x="14" y="-38.5" font-family="Cascadia Code NF" font-size="10.00">RefFunc()</text>
<text text-anchor="start" x="4" y="-22.5" font-family="Cascadia Code NF" font-size="10.00">+</text>
<text text-anchor="start" x="14" y="-22.5" font-family="Cascadia Code NF" font-size="10.00">RefNull()</text>
<text text-anchor="start" x="4" y="-6.5" font-family="Cascadia Code NF" font-size="10.00">+</text>
<text text-anchor="start" x="14" y="-6.5" font-family="Cascadia Code NF" font-size="10.00">WireBytes()</text>
<polygon fill="#666666" stroke="#666666" points="0,-194 0,-194 138,-194 138,-194 0,-194"/>
<polygon fill="#666666" stroke="#666666" points="0,-178 0,-178 138,-178 138,-178 0,-178"/>
<polygon fill="none" stroke="#666666" points="0,0 0,-225 138,-225 138,0 0,0"/>
</a>
</g>
</g>
</g>
</svg>
