<?xml version="1.0" encoding="UTF-8" standalone="no"?>
<!DOCTYPE svg PUBLIC "-//W3C//DTD SVG 1.1//EN"
 "http://www.w3.org/Graphics/SVG/1.1/DTD/svg11.dtd">
<!-- Generated by graphviz version 11.0.0 (20240428.1522)
 -->
<!-- Title: v8::internal::ArrayList Pages: 1 -->
<!--zoomable 592 -->

<svg id="main" version="1.1" xmlns="http://www.w3.org/2000/svg" xmlns:xlink="http://www.w3.org/1999/xlink" xml:space="preserve" onload="init(evt)">
<style type="text/css"><![CDATA[
.node, .edge {opacity: 0.7;}
.node.selected, .edge.selected {opacity: 1;}
.edge:hover path { stroke: red; }
.edge:hover polygon { stroke: red; fill: red; }
svg#main { background-color: #111; }
]]></style>

<defs>
  <circle id="rim" cx="0" cy="0" r="7"/>
  <circle id="rim2" cx="0" cy="0" r="3.5"/>
  <g id="zoomPlus">
    <use xlink:href="#rim" fill="#404040"><set attributeName="fill" to="#808080" begin="zoomplus.mouseover" end="zoomplus.mouseout"/></use>
    <path d="M-4,0h8M0,-4v8" fill="none" stroke="white" stroke-width="1.5" pointer-events="none"/>
  </g>
  <g id="zoomMin">
    <use xlink:href="#rim" fill="#404040"><set attributeName="fill" to="#808080" begin="zoomminus.mouseover" end="zoomminus.mouseout"/></use>
    <path d="M-4,0h8" fill="none" stroke="white" stroke-width="1.5" pointer-events="none"/>
  </g>
  <g id="arrowUp" transform="translate(30 24)">
    <use xlink:href="#rim"/>
    <path pointer-events="none" fill="none" stroke="white" stroke-width="1.5" d="M0,-3.0v7 M-2.5,-0.5L0,-3.0L2.5,-0.5"/>
  </g>
  <g id="arrowRight" transform="rotate(90) translate(36 -43)">
    <use xlink:href="#rim"/>
    <path pointer-events="none" fill="none" stroke="white" stroke-width="1.5" d="M0,-3.0v7 M-2.5,-0.5L0,-3.0L2.5,-0.5"/>
  </g>
  <g id="arrowDown" transform="rotate(180) translate(-30 -48)">
    <use xlink:href="#rim"/>
    <path pointer-events="none" fill="none" stroke="white" stroke-width="1.5" d="M0,-3.0v7 M-2.5,-0.5L0,-3.0L2.5,-0.5"/>
  </g>
  <g id="arrowLeft" transform="rotate(270) translate(-36 17)">
    <use xlink:href="#rim"/>
    <path pointer-events="none" fill="none" stroke="white" stroke-width="1.5" d="M0,-3.0v7 M-2.5,-0.5L0,-3.0L2.5,-0.5"/>
  </g>
  <g id="resetDef">
    <use xlink:href="#rim2" fill="#404040"><set attributeName="fill" to="#808080" begin="reset.mouseover" end="reset.mouseout"/></use>
  </g>
</defs>
<script type="application/ecmascript">
var viewWidth = 1195;
var viewHeight = 592;
var sectionId = 'dynsection-1';
</script>
<script type="application/ecmascript" xlink:href="../../svg.min.js"/>
<svg id="graph" class="graph">
<g id="viewport">
<title>v8::internal::ArrayList</title>
<!-- Node1 -->
<g id="Node000001" class="node">
<title>Node1</title>
<g id="a_Node000001"><a xlink:title=" ">
<polygon fill="#999999" stroke="none" points="1187,-508.5 1039,-508.5 1039,-344.5 1187,-344.5 1187,-508.5"/>
<text text-anchor="start" x="1044" y="-495" font-family="Cascadia Code NF" font-size="10.00">v8::internal::ArrayList</text>
<text text-anchor="start" x="1110" y="-479" font-family="Cascadia Code NF" font-size="10.00"> </text>
<text text-anchor="start" x="1054.5" y="-463" font-family="Cascadia Code NF" font-size="10.00">+</text>
<text text-anchor="start" x="1076" y="-463" font-family="Cascadia Code NF" font-size="10.00">length()</text>
<text text-anchor="start" x="1054.5" y="-447" font-family="Cascadia Code NF" font-size="10.00">+</text>
<text text-anchor="start" x="1076" y="-447" font-family="Cascadia Code NF" font-size="10.00">set_length()</text>
<text text-anchor="start" x="1054.5" y="-431" font-family="Cascadia Code NF" font-size="10.00">+</text>
<text text-anchor="start" x="1076" y="-431" font-family="Cascadia Code NF" font-size="10.00">RightTrim()</text>
<text text-anchor="start" x="1054.5" y="-415" font-family="Cascadia Code NF" font-size="10.00">+</text>
<text text-anchor="start" x="1076" y="-415" font-family="Cascadia Code NF" font-size="10.00">New()</text>
<text text-anchor="start" x="1054.5" y="-399" font-family="Cascadia Code NF" font-size="10.00">+</text>
<text text-anchor="start" x="1076" y="-399" font-family="Cascadia Code NF" font-size="10.00">Add()</text>
<text text-anchor="start" x="1054.5" y="-383" font-family="Cascadia Code NF" font-size="10.00">+</text>
<text text-anchor="start" x="1076" y="-383" font-family="Cascadia Code NF" font-size="10.00">Add()</text>
<text text-anchor="start" x="1054.5" y="-367" font-family="Cascadia Code NF" font-size="10.00">+</text>
<text text-anchor="start" x="1076" y="-367" font-family="Cascadia Code NF" font-size="10.00">Add()</text>
<text text-anchor="start" x="1054.5" y="-351" font-family="Cascadia Code NF" font-size="10.00">+</text>
<text text-anchor="start" x="1076" y="-351" font-family="Cascadia Code NF" font-size="10.00">ToFixedArray()</text>
<polygon fill="#666666" stroke="#666666" points="1039,-490.5 1039,-490.5 1187,-490.5 1187,-490.5 1039,-490.5"/>
<polygon fill="#666666" stroke="#666666" points="1039,-474.5 1039,-474.5 1187,-474.5 1187,-474.5 1039,-474.5"/>
<polygon fill="none" stroke="#666666" points="1039,-344.5 1039,-508.5 1187,-508.5 1187,-344.5 1039,-344.5"/>
</a>
</g>
</g>
<!-- Node2 -->
<g id="Node000002" class="node">
<title>Node2</title>
<g id="a_Node000002"><a xlink:href="../../d6/dac/classv8_1_1internal_1_1TaggedArrayBase.html" target="_top" xlink:title=" ">
<polygon fill="white" stroke="none" points="1002,-369 794,-369 794,0 1002,0 1002,-369"/>
<text text-anchor="start" x="799" y="-355.5" font-family="Cascadia Code NF" font-size="10.00">v8::internal::TaggedArray</text>
<text text-anchor="start" x="799" y="-342.75" font-family="Cascadia Code NF" font-size="10.00">Base&lt; ArrayList, ArrayListShape &gt;</text>
<text text-anchor="start" x="895" y="-326.5" font-family="Cascadia Code NF" font-size="10.00"> </text>
<text text-anchor="start" x="808" y="-310.5" font-family="Cascadia Code NF" font-size="10.00">+</text>
<text text-anchor="start" x="828" y="-310.5" font-family="Cascadia Code NF" font-size="10.00">capacity()</text>
<text text-anchor="start" x="808" y="-294.5" font-family="Cascadia Code NF" font-size="10.00">+</text>
<text text-anchor="start" x="828" y="-294.5" font-family="Cascadia Code NF" font-size="10.00">capacity()</text>
<text text-anchor="start" x="808" y="-278.5" font-family="Cascadia Code NF" font-size="10.00">+</text>
<text text-anchor="start" x="828" y="-278.5" font-family="Cascadia Code NF" font-size="10.00">set_capacity()</text>
<text text-anchor="start" x="808" y="-262.5" font-family="Cascadia Code NF" font-size="10.00">+</text>
<text text-anchor="start" x="828" y="-262.5" font-family="Cascadia Code NF" font-size="10.00">set_capacity()</text>
<text text-anchor="start" x="808" y="-246.5" font-family="Cascadia Code NF" font-size="10.00">+</text>
<text text-anchor="start" x="828" y="-246.5" font-family="Cascadia Code NF" font-size="10.00">length()</text>
<text text-anchor="start" x="808" y="-230.5" font-family="Cascadia Code NF" font-size="10.00">+</text>
<text text-anchor="start" x="828" y="-230.5" font-family="Cascadia Code NF" font-size="10.00">length()</text>
<text text-anchor="start" x="808" y="-214.5" font-family="Cascadia Code NF" font-size="10.00">+</text>
<text text-anchor="start" x="828" y="-214.5" font-family="Cascadia Code NF" font-size="10.00">set_length()</text>
<text text-anchor="start" x="808" y="-198.5" font-family="Cascadia Code NF" font-size="10.00">+</text>
<text text-anchor="start" x="828" y="-198.5" font-family="Cascadia Code NF" font-size="10.00">set_length()</text>
<text text-anchor="start" x="808" y="-182.5" font-family="Cascadia Code NF" font-size="10.00">+</text>
<text text-anchor="start" x="828" y="-182.5" font-family="Cascadia Code NF" font-size="10.00">get()</text>
<text text-anchor="start" x="808" y="-166.5" font-family="Cascadia Code NF" font-size="10.00">+</text>
<text text-anchor="start" x="828" y="-166.5" font-family="Cascadia Code NF" font-size="10.00">get()</text>
<text text-anchor="start" x="828" y="-150.5" font-family="Cascadia Code NF" font-size="10.00">and 17 more...</text>
<text text-anchor="start" x="808" y="-134.5" font-family="Cascadia Code NF" font-size="10.00">+</text>
<text text-anchor="start" x="828" y="-134.5" font-family="Cascadia Code NF" font-size="10.00">MoveElements()</text>
<text text-anchor="start" x="808" y="-118.5" font-family="Cascadia Code NF" font-size="10.00">+</text>
<text text-anchor="start" x="828" y="-118.5" font-family="Cascadia Code NF" font-size="10.00">CopyElements()</text>
<text text-anchor="start" x="808" y="-102.5" font-family="Cascadia Code NF" font-size="10.00">+</text>
<text text-anchor="start" x="828" y="-102.5" font-family="Cascadia Code NF" font-size="10.00">SizeFor()</text>
<text text-anchor="start" x="808" y="-86.5" font-family="Cascadia Code NF" font-size="10.00">+</text>
<text text-anchor="start" x="828" y="-86.5" font-family="Cascadia Code NF" font-size="10.00">OffsetOfElementAt()</text>
<text text-anchor="start" x="808" y="-70.5" font-family="Cascadia Code NF" font-size="10.00">#</text>
<text text-anchor="start" x="828" y="-70.5" font-family="Cascadia Code NF" font-size="10.00">ConditionalWriteBarrier()</text>
<text text-anchor="start" x="808" y="-54.5" font-family="Cascadia Code NF" font-size="10.00">#</text>
<text text-anchor="start" x="828" y="-54.5" font-family="Cascadia Code NF" font-size="10.00">IsInBounds()</text>
<text text-anchor="start" x="808" y="-38.5" font-family="Cascadia Code NF" font-size="10.00">#</text>
<text text-anchor="start" x="828" y="-38.5" font-family="Cascadia Code NF" font-size="10.00">IsCowArray()</text>
<text text-anchor="start" x="808" y="-22.5" font-family="Cascadia Code NF" font-size="10.00">#</text>
<text text-anchor="start" x="828" y="-22.5" font-family="Cascadia Code NF" font-size="10.00">Allocate()</text>
<text text-anchor="start" x="808" y="-6.5" font-family="Cascadia Code NF" font-size="10.00">#</text>
<text text-anchor="start" x="828" y="-6.5" font-family="Cascadia Code NF" font-size="10.00">NewCapacityForIndex()</text>
<polygon fill="#bfbfbf" stroke="#bfbfbf" points="794,-338 794,-338 1002,-338 1002,-338 794,-338"/>
<polygon fill="#bfbfbf" stroke="#bfbfbf" points="794,-322 794,-322 1002,-322 1002,-322 794,-322"/>
<polygon fill="none" stroke="#bfbfbf" points="794,0 794,-369 1002,-369 1002,0 794,0"/>
</a>
</g>
</g>
<!-- Node2&#45;&gt;Node1 -->
<g id="edge1_Node000001_Node000002" class="edge">
<title>Node2&#45;&gt;Node1</title>
<g id="a_edge1_Node000001_Node000002"><a xlink:title=" ">
<path fill="none" stroke="#63b8ff" d="M1009.3,-309.82C1019.66,-321.59 1029.97,-333.3 1039.84,-344.51"/>
<polygon fill="none" stroke="#63b8ff" points="1011.99,-307.58 1002.76,-302.38 1006.74,-312.2 1011.99,-307.58"/>
</a>
</g>
</g>
<!-- Node3 -->
<g id="Node000003" class="node">
<title>Node3</title>
<g id="a_Node000003"><a xlink:href="../../d0/d31/classv8_1_1internal_1_1HeapObject.html" target="_top" xlink:title=" ">
<polygon fill="white" stroke="none" points="608,-557.5 422,-557.5 422,-143.5 608,-143.5 608,-557.5"/>
<text text-anchor="start" x="443" y="-544" font-family="Cascadia Code NF" font-size="10.00">v8::internal::HeapObject</text>
<text text-anchor="start" x="512" y="-528" font-family="Cascadia Code NF" font-size="10.00"> </text>
<text text-anchor="start" x="426" y="-512" font-family="Cascadia Code NF" font-size="10.00">+</text>
<text text-anchor="start" x="436" y="-512" font-family="Cascadia Code NF" font-size="10.00">HeapObject()</text>
<text text-anchor="start" x="426" y="-496" font-family="Cascadia Code NF" font-size="10.00">+</text>
<text text-anchor="start" x="436" y="-496" font-family="Cascadia Code NF" font-size="10.00">set_map()</text>
<text text-anchor="start" x="426" y="-480" font-family="Cascadia Code NF" font-size="10.00">+</text>
<text text-anchor="start" x="436" y="-480" font-family="Cascadia Code NF" font-size="10.00">set_map_safe_transition()</text>
<text text-anchor="start" x="426" y="-464" font-family="Cascadia Code NF" font-size="10.00">+</text>
<text text-anchor="start" x="436" y="-464" font-family="Cascadia Code NF" font-size="10.00">map_slot()</text>
<text text-anchor="start" x="426" y="-448" font-family="Cascadia Code NF" font-size="10.00">+</text>
<text text-anchor="start" x="436" y="-448" font-family="Cascadia Code NF" font-size="10.00">set_map_no_write_barrier()</text>
<text text-anchor="start" x="426" y="-432" font-family="Cascadia Code NF" font-size="10.00">+</text>
<text text-anchor="start" x="436" y="-432" font-family="Cascadia Code NF" font-size="10.00">set_map_no_write_barrier()</text>
<text text-anchor="start" x="426" y="-416" font-family="Cascadia Code NF" font-size="10.00">+</text>
<text text-anchor="start" x="436" y="-416" font-family="Cascadia Code NF" font-size="10.00">set_map_safe_transition</text>
<text text-anchor="start" x="436" y="-403.25" font-family="Cascadia Code NF" font-size="10.00">_no_write_barrier()</text>
<text text-anchor="start" x="426" y="-387" font-family="Cascadia Code NF" font-size="10.00">+</text>
<text text-anchor="start" x="436" y="-387" font-family="Cascadia Code NF" font-size="10.00">set_map_safe_transition</text>
<text text-anchor="start" x="436" y="-374.25" font-family="Cascadia Code NF" font-size="10.00">_no_write_barrier()</text>
<text text-anchor="start" x="426" y="-358" font-family="Cascadia Code NF" font-size="10.00">+</text>
<text text-anchor="start" x="436" y="-358" font-family="Cascadia Code NF" font-size="10.00">set_map()</text>
<text text-anchor="start" x="426" y="-342" font-family="Cascadia Code NF" font-size="10.00">+</text>
<text text-anchor="start" x="436" y="-342" font-family="Cascadia Code NF" font-size="10.00">set_map_safe_transition()</text>
<text text-anchor="start" x="436" y="-326" font-family="Cascadia Code NF" font-size="10.00">and 69 more...</text>
<text text-anchor="start" x="426" y="-310" font-family="Cascadia Code NF" font-size="10.00">+</text>
<text text-anchor="start" x="436" y="-310" font-family="Cascadia Code NF" font-size="10.00">SetFillerMap()</text>
<text text-anchor="start" x="426" y="-294" font-family="Cascadia Code NF" font-size="10.00">+</text>
<text text-anchor="start" x="436" y="-294" font-family="Cascadia Code NF" font-size="10.00">FromAddress()</text>
<text text-anchor="start" x="426" y="-278" font-family="Cascadia Code NF" font-size="10.00">+</text>
<text text-anchor="start" x="436" y="-278" font-family="Cascadia Code NF" font-size="10.00">SeqCst_CompareAndSwapField()</text>
<text text-anchor="start" x="426" y="-262" font-family="Cascadia Code NF" font-size="10.00">+</text>
<text text-anchor="start" x="436" y="-262" font-family="Cascadia Code NF" font-size="10.00">Print()</text>
<text text-anchor="start" x="426" y="-246" font-family="Cascadia Code NF" font-size="10.00">+</text>
<text text-anchor="start" x="436" y="-246" font-family="Cascadia Code NF" font-size="10.00">Print()</text>
<text text-anchor="start" x="426" y="-230" font-family="Cascadia Code NF" font-size="10.00">+</text>
<text text-anchor="start" x="436" y="-230" font-family="Cascadia Code NF" font-size="10.00">RequiredAlignment()</text>
<text text-anchor="start" x="426" y="-214" font-family="Cascadia Code NF" font-size="10.00">#</text>
<text text-anchor="start" x="436" y="-214" font-family="Cascadia Code NF" font-size="10.00">HeapObject()</text>
<text text-anchor="start" x="426" y="-198" font-family="Cascadia Code NF" font-size="10.00">#</text>
<text text-anchor="start" x="436" y="-198" font-family="Cascadia Code NF" font-size="10.00">HeapObject()</text>
<text text-anchor="start" x="426" y="-182" font-family="Cascadia Code NF" font-size="10.00">#</text>
<text text-anchor="start" x="436" y="-182" font-family="Cascadia Code NF" font-size="10.00">field_address()</text>
<text text-anchor="start" x="426" y="-166" font-family="Cascadia Code NF" font-size="10.00">#</text>
<text text-anchor="start" x="436" y="-166" font-family="Cascadia Code NF" font-size="10.00">IsSmi()</text>
<text text-anchor="start" x="426" y="-150" font-family="Cascadia Code NF" font-size="10.00">#</text>
<text text-anchor="start" x="436" y="-150" font-family="Cascadia Code NF" font-size="10.00">IsHeapObject()</text>
<polygon fill="#bfbfbf" stroke="#bfbfbf" points="422,-539.5 422,-539.5 608,-539.5 608,-539.5 422,-539.5"/>
<polygon fill="#bfbfbf" stroke="#bfbfbf" points="422,-523.5 422,-523.5 608,-523.5 608,-523.5 422,-523.5"/>
<polygon fill="none" stroke="#bfbfbf" points="422,-143.5 422,-557.5 608,-557.5 608,-143.5 422,-143.5"/>
</a>
</g>
</g>
<!-- Node3&#45;&gt;Node2 -->
<g id="edge2_Node000002_Node000003" class="edge">
<title>Node3&#45;&gt;Node2</title>
<g id="a_edge2_Node000002_Node000003"><a xlink:title=" ">
<path fill="none" stroke="#63b8ff" d="M618.13,-306C672.69,-282.23 739.67,-253.05 794.31,-229.24"/>
<polygon fill="none" stroke="#63b8ff" points="616.9,-302.72 609.13,-309.92 619.7,-309.14 616.9,-302.72"/>
</a>
</g>
</g>
<!-- Node4 -->
<g id="Node000004" class="node">
<title>Node4</title>
<g id="a_Node000004"><a xlink:href="../../df/d94/classv8_1_1internal_1_1TaggedImpl.html" target="_top" xlink:title=" ">
<polygon fill="white" stroke="none" points="308,-485.5 148,-485.5 148,-215.5 308,-215.5 308,-485.5"/>
<text text-anchor="start" x="153" y="-472" font-family="Cascadia Code NF" font-size="10.00">v8::internal::TaggedImpl</text>
<text text-anchor="start" x="153" y="-459.25" font-family="Cascadia Code NF" font-size="10.00">&lt; HeapObjectReferenceType</text>
<text text-anchor="start" x="171" y="-446.5" font-family="Cascadia Code NF" font-size="10.00">::STRONG, Address &gt;</text>
<text text-anchor="start" x="225" y="-430" font-family="Cascadia Code NF" font-size="10.00"> </text>
<text text-anchor="start" x="165" y="-414" font-family="Cascadia Code NF" font-size="10.00">+</text>
<text text-anchor="start" x="188" y="-414" font-family="Cascadia Code NF" font-size="10.00">TaggedImpl()</text>
<text text-anchor="start" x="165" y="-398" font-family="Cascadia Code NF" font-size="10.00">+</text>
<text text-anchor="start" x="188" y="-398" font-family="Cascadia Code NF" font-size="10.00">TaggedImpl()</text>
<text text-anchor="start" x="165" y="-382" font-family="Cascadia Code NF" font-size="10.00">+</text>
<text text-anchor="start" x="188" y="-382" font-family="Cascadia Code NF" font-size="10.00">operator bool()</text>
<text text-anchor="start" x="165" y="-366" font-family="Cascadia Code NF" font-size="10.00">+</text>
<text text-anchor="start" x="188" y="-366" font-family="Cascadia Code NF" font-size="10.00">operator==()</text>
<text text-anchor="start" x="165" y="-350" font-family="Cascadia Code NF" font-size="10.00">+</text>
<text text-anchor="start" x="188" y="-350" font-family="Cascadia Code NF" font-size="10.00">operator!=()</text>
<text text-anchor="start" x="165" y="-334" font-family="Cascadia Code NF" font-size="10.00">+</text>
<text text-anchor="start" x="188" y="-334" font-family="Cascadia Code NF" font-size="10.00">SafeEquals()</text>
<text text-anchor="start" x="165" y="-318" font-family="Cascadia Code NF" font-size="10.00">+</text>
<text text-anchor="start" x="188" y="-318" font-family="Cascadia Code NF" font-size="10.00">operator&lt;()</text>
<text text-anchor="start" x="165" y="-302" font-family="Cascadia Code NF" font-size="10.00">+</text>
<text text-anchor="start" x="188" y="-302" font-family="Cascadia Code NF" font-size="10.00">ptr()</text>
<text text-anchor="start" x="165" y="-286" font-family="Cascadia Code NF" font-size="10.00">+</text>
<text text-anchor="start" x="188" y="-286" font-family="Cascadia Code NF" font-size="10.00">IsObject()</text>
<text text-anchor="start" x="165" y="-270" font-family="Cascadia Code NF" font-size="10.00">+</text>
<text text-anchor="start" x="188" y="-270" font-family="Cascadia Code NF" font-size="10.00">IsSmi()</text>
<text text-anchor="start" x="188" y="-254" font-family="Cascadia Code NF" font-size="10.00">and 25 more...</text>
<text text-anchor="start" x="165" y="-238" font-family="Cascadia Code NF" font-size="10.00">#</text>
<text text-anchor="start" x="188" y="-238" font-family="Cascadia Code NF" font-size="10.00">ptr_location()</text>
<text text-anchor="start" x="165" y="-222" font-family="Cascadia Code NF" font-size="10.00">#</text>
<text text-anchor="start" x="188" y="-222" font-family="Cascadia Code NF" font-size="10.00">ptr_location()</text>
<polygon fill="#bfbfbf" stroke="#bfbfbf" points="148,-441.5 148,-441.5 308,-441.5 308,-441.5 148,-441.5"/>
<polygon fill="#bfbfbf" stroke="#bfbfbf" points="148,-425.5 148,-425.5 308,-425.5 308,-425.5 148,-425.5"/>
<polygon fill="none" stroke="#bfbfbf" points="148,-215.5 148,-485.5 308,-485.5 308,-215.5 148,-215.5"/>
</a>
</g>
</g>
<!-- Node4&#45;&gt;Node3 -->
<g id="edge3_Node000003_Node000004" class="edge">
<title>Node4&#45;&gt;Node3</title>
<g id="a_edge3_Node000003_Node000004"><a xlink:title=" ">
<path fill="none" stroke="#63b8ff" d="M319.07,-350.5C351.98,-350.5 389.21,-350.5 422.26,-350.5"/>
<polygon fill="none" stroke="#63b8ff" points="319.15,-347 309.15,-350.5 319.15,-354 319.15,-347"/>
</a>
</g>
</g>
<!-- Node5 -->
<g id="Node000005" class="node">
<title>Node5</title>
<g id="a_Node000005"><a xlink:title=" ">
<polygon fill="white" stroke="none" points="40,-376.5 0,-376.5 0,-324.5 40,-324.5 40,-376.5"/>
<text text-anchor="start" x="5" y="-363" font-family="Cascadia Code NF" font-size="10.00">const</text>
<text text-anchor="start" x="17" y="-347" font-family="Cascadia Code NF" font-size="10.00"> </text>
<text text-anchor="start" x="17" y="-331" font-family="Cascadia Code NF" font-size="10.00"> </text>
<polygon fill="#bfbfbf" stroke="#bfbfbf" points="0,-358.5 0,-358.5 40,-358.5 40,-358.5 0,-358.5"/>
<polygon fill="#bfbfbf" stroke="#bfbfbf" points="0,-342.5 0,-342.5 40,-342.5 40,-342.5 0,-342.5"/>
<polygon fill="none" stroke="#bfbfbf" points="0,-324.5 0,-376.5 40,-376.5 40,-324.5 0,-324.5"/>
</a>
</g>
</g>
<!-- Node5&#45;&gt;Node4 -->
<g id="edge4_Node000004_Node000005" class="edge">
<title>Node5&#45;&gt;Node4</title>
<g id="a_edge4_Node000004_Node000005"><a xlink:title=" ">
<path fill="none" stroke="#63b8ff" d="M39.64,-350.5C61.53,-350.5 99.41,-350.5 135.42,-350.5"/>
<polygon fill="none" stroke="#63b8ff" points="135.14,-350.5 141.14,-346.5 147.14,-350.5 141.14,-354.5 135.14,-350.5"/>
</a>
</g>
<text text-anchor="middle" x="94" y="-366.5" font-family="Cascadia Code NF" font-size="10.00" fill="grey"> +kCanBeWeak</text>
<text text-anchor="middle" x="94" y="-353.75" font-family="Cascadia Code NF" font-size="10.00" fill="grey">+kIsFull</text>
</g>
<!-- Node6 -->
<g id="Node000006" class="node">
<title>Node6</title>
<g id="a_Node000006"><a xlink:href="../../d1/da0/classint.html" target="_top" xlink:title=" ">
<polygon fill="white" stroke="none" points="242,-583.5 214,-583.5 214,-531.5 242,-531.5 242,-583.5"/>
<text text-anchor="start" x="219" y="-570" font-family="Cascadia Code NF" font-size="10.00">int</text>
<text text-anchor="start" x="225" y="-554" font-family="Cascadia Code NF" font-size="10.00"> </text>
<text text-anchor="start" x="225" y="-538" font-family="Cascadia Code NF" font-size="10.00"> </text>
<polygon fill="#bfbfbf" stroke="#bfbfbf" points="214,-565.5 214,-565.5 242,-565.5 242,-565.5 214,-565.5"/>
<polygon fill="#bfbfbf" stroke="#bfbfbf" points="214,-549.5 214,-549.5 242,-549.5 242,-549.5 214,-549.5"/>
<polygon fill="none" stroke="#bfbfbf" points="214,-531.5 214,-583.5 242,-583.5 242,-531.5 214,-531.5"/>
</a>
</g>
</g>
<!-- Node6&#45;&gt;Node1 -->
<g id="edge8_Node000001_Node000006" class="edge">
<title>Node6&#45;&gt;Node1</title>
<g id="a_edge8_Node000001_Node000006"><a xlink:title=" ">
<path fill="none" stroke="#63b8ff" d="M241.64,-558.29C272.45,-560.18 353.93,-564.91 422,-566.5 504.64,-568.43 526.09,-577.66 608,-566.5 758.73,-545.95 928,-492.35 1027.01,-457.75"/>
<polygon fill="none" stroke="#63b8ff" points="1026.85,-457.81 1031.18,-452.04 1038.17,-453.82 1033.84,-459.59 1026.85,-457.81"/>
</a>
</g>
<text text-anchor="middle" x="701" y="-566.75" font-family="Cascadia Code NF" font-size="10.00" fill="grey"> +kLengthOffset</text>
</g>
<!-- Node6&#45;&gt;Node3 -->
<g id="edge5_Node000003_Node000006" class="edge">
<title>Node6&#45;&gt;Node3</title>
<g id="a_edge5_Node000003_Node000006"><a xlink:title=" ">
<path fill="none" stroke="#63b8ff" d="M241.99,-548.07C271.86,-526.37 347.81,-471.21 411.88,-424.67"/>
<polygon fill="none" stroke="#63b8ff" points="411.62,-424.86 414.12,-418.1 421.33,-417.81 418.82,-424.57 411.62,-424.86"/>
</a>
</g>
<text text-anchor="middle" x="365" y="-500.5" font-family="Cascadia Code NF" font-size="10.00" fill="grey"> +kHeaderSize</text>
<text text-anchor="middle" x="365" y="-487.75" font-family="Cascadia Code NF" font-size="10.00" fill="grey">+kMapOffset</text>
</g>
<!-- Node7 -->
<g id="Node000007" class="node">
<title>Node7</title>
<g id="a_Node000007"><a xlink:title=" ">
<polygon fill="white" stroke="none" points="583,-55.5 447,-55.5 447,-3.5 583,-3.5 583,-55.5"/>
<text text-anchor="start" x="452" y="-42" font-family="Cascadia Code NF" font-size="10.00">static constexpr bool</text>
<text text-anchor="start" x="512" y="-26" font-family="Cascadia Code NF" font-size="10.00"> </text>
<text text-anchor="start" x="512" y="-10" font-family="Cascadia Code NF" font-size="10.00"> </text>
<polygon fill="#bfbfbf" stroke="#bfbfbf" points="447,-37.5 447,-37.5 583,-37.5 583,-37.5 447,-37.5"/>
<polygon fill="#bfbfbf" stroke="#bfbfbf" points="447,-21.5 447,-21.5 583,-21.5 583,-21.5 447,-21.5"/>
<polygon fill="none" stroke="#bfbfbf" points="447,-3.5 447,-55.5 583,-55.5 583,-3.5 447,-3.5"/>
</a>
</g>
</g>
<!-- Node7&#45;&gt;Node2 -->
<g id="edge6_Node000002_Node000007" class="edge">
<title>Node7&#45;&gt;Node2</title>
<g id="a_edge6_Node000002_Node000007"><a xlink:title=" ">
<path fill="none" stroke="#63b8ff" d="M582.99,-44.31C636.6,-57.41 712.98,-78.94 776,-107.75 778.15,-108.74 780.32,-109.75 782.48,-110.8"/>
<polygon fill="none" stroke="#63b8ff" points="782.56,-110.84 789.72,-109.97 793.27,-116.25 786.11,-117.11 782.56,-110.84"/>
</a>
</g>
<text text-anchor="middle" x="701" y="-110.75" font-family="Cascadia Code NF" font-size="10.00" fill="grey"> +kElementsAreMaybeObject</text>
</g>
<!-- Node8 -->
<g id="Node000008" class="node">
<title>Node8</title>
<g id="a_Node000008"><a xlink:href="../../d4/d34/classstatic_01constexpr_01int.html" target="_top" xlink:title=" ">
<polygon fill="white" stroke="none" points="580,-125.5 450,-125.5 450,-73.5 580,-73.5 580,-125.5"/>
<text text-anchor="start" x="455" y="-112" font-family="Cascadia Code NF" font-size="10.00">static constexpr int</text>
<text text-anchor="start" x="512" y="-96" font-family="Cascadia Code NF" font-size="10.00"> </text>
<text text-anchor="start" x="512" y="-80" font-family="Cascadia Code NF" font-size="10.00"> </text>
<polygon fill="#bfbfbf" stroke="#bfbfbf" points="450,-107.5 450,-107.5 580,-107.5 580,-107.5 450,-107.5"/>
<polygon fill="#bfbfbf" stroke="#bfbfbf" points="450,-91.5 450,-91.5 580,-91.5 580,-91.5 450,-91.5"/>
<polygon fill="none" stroke="#bfbfbf" points="450,-73.5 450,-125.5 580,-125.5 580,-73.5 450,-73.5"/>
</a>
</g>
</g>
<!-- Node8&#45;&gt;Node2 -->
<g id="edge7_Node000002_Node000008" class="edge">
<title>Node8&#45;&gt;Node2</title>
<g id="a_edge7_Node000002_Node000008"><a xlink:title=" ">
<path fill="none" stroke="#63b8ff" d="M579.77,-113.73C634.7,-125.98 715.35,-143.97 781.59,-158.75"/>
<polygon fill="none" stroke="#63b8ff" points="781.61,-158.76 788.34,-156.16 793.32,-161.37 786.6,-163.97 781.61,-158.76"/>
</a>
</g>
<text text-anchor="middle" x="701" y="-210.75" font-family="Cascadia Code NF" font-size="10.00" fill="grey"> +kCapacityOffset</text>
<text text-anchor="middle" x="701" y="-198" font-family="Cascadia Code NF" font-size="10.00" fill="grey">+kHeaderSize</text>
<text text-anchor="middle" x="701" y="-185.25" font-family="Cascadia Code NF" font-size="10.00" fill="grey">+kMaxCapacity</text>
<text text-anchor="middle" x="701" y="-172.5" font-family="Cascadia Code NF" font-size="10.00" fill="grey">+kMaxRegularCapacity</text>
<text text-anchor="middle" x="701" y="-159.75" font-family="Cascadia Code NF" font-size="10.00" fill="grey">+kObjectsOffset</text>
</g>
</g>
</svg>

<g id="navigator" transform="translate(0 0)" fill="#404254">
  <rect fill="#f2f5e9" fill-opacity="0.5" stroke="#606060" stroke-width=".5" x="0" y="0" width="60" height="60"/>
  <use id="zoomplus" xlink:href="#zoomPlus" x="17" y="9" onmousedown="handleZoom(evt,'in')"/>
  <use id="zoomminus" xlink:href="#zoomMin" x="42" y="9" onmousedown="handleZoom(evt,'out')"/>
  <use id="reset" xlink:href="#resetDef" x="30" y="36" onmousedown="handleReset()"/>
   <use id="arrowup" xlink:href="#arrowUp" x="0" y="0" onmousedown="handlePan(0,-1)"/>
  <use id="arrowright" xlink:href="#arrowRight" x="0" y="0" onmousedown="handlePan(1,0)"/>
  <use id="arrowdown" xlink:href="#arrowDown" x="0" y="0" onmousedown="handlePan(0,1)"/>
  <use id="arrowleft" xlink:href="#arrowLeft" x="0" y="0" onmousedown="handlePan(-1,0)"/>
</g>
<svg viewBox="0 0 15 15" width="100%" height="30px" preserveAspectRatio="xMaxYMin meet">
 <g id="arrow_out" transform="scale(0.3 0.3)">
  <a xlink:href="classv8_1_1internal_1_1ArrayList__coll__graph_org.svg" target="_base">
   <rect id="button" ry="5" rx="5" y="6" x="6" height="38" width="38"
        fill="#f2f5e9" fill-opacity="0.5" stroke="#606060" stroke-width="1.0"/>
   <path id="arrow"
     d="M 11.500037,31.436501 C 11.940474,20.09759 22.043105,11.32322 32.158766,21.979434 L 37.068811,17.246167 C 37.068811,17.246167 37.088388,32 37.088388,32 L 22.160133,31.978069 C 22.160133,31.978069 26.997745,27.140456 26.997745,27.140456 C 18.528582,18.264221 13.291696,25.230495 11.500037,31.436501 z"
     style="fill:#404040;"/>
  </a>
 </g>
</svg>

<style type='text/css'>
<![CDATA[
[data-mouse-over-selected='false'] { opacity: 0.7; }
[data-mouse-over-selected='true']  { opacity: 1.0; }
]]>
</style>
<script type="application/ecmascript"><![CDATA[
document.addEventListener('DOMContentLoaded', (event) => {
  highlightEdges();
  highlightAdjacentNodes();
});
]]></script>
</svg>
