<?xml version="1.0" encoding="UTF-8" standalone="no"?>
<!DOCTYPE svg PUBLIC "-//W3C//DTD SVG 1.1//EN"
 "http://www.w3.org/Graphics/SVG/1.1/DTD/svg11.dtd">
<!-- Generated by graphviz version 11.0.0 (20240428.1522)
 -->
<!-- Title: v8::internal::JSCollection Pages: 1 -->
<svg width="832pt" height="256pt"
 viewBox="0.00 0.00 832.00 255.50" xmlns="http://www.w3.org/2000/svg" xmlns:xlink="http://www.w3.org/1999/xlink">
<g id="graph0" class="graph" transform="scale(1 1) rotate(0) translate(4 251.5)">
<title>v8::internal::JSCollection</title>
<!-- Node1 -->
<g id="Node000001" class="node">
<title>Node1</title>
<g id="a_Node000001"><a xlink:title=" ">
<polygon fill="#999999" stroke="none" points="824,-70 658,-70 658,-18 824,-18 824,-70"/>
<text text-anchor="start" x="663" y="-56.5" font-family="Cascadia Code NF" font-size="10.00">v8::internal::JSCollection</text>
<text text-anchor="start" x="738" y="-40.5" font-family="Cascadia Code NF" font-size="10.00"> </text>
<text text-anchor="start" x="738" y="-24.5" font-family="Cascadia Code NF" font-size="10.00"> </text>
<polygon fill="#666666" stroke="#666666" points="658,-52 658,-52 824,-52 824,-52 658,-52"/>
<polygon fill="#666666" stroke="#666666" points="658,-36 658,-36 824,-36 824,-36 658,-36"/>
<polygon fill="none" stroke="#666666" points="658,-18 658,-70 824,-70 824,-18 658,-18"/>
</a>
</g>
</g>
<!-- Node2 -->
<g id="Node000002" class="node">
<title>Node2</title>
<g id="a_Node000002"><a xlink:href="../../d8/dff/classTorqueGeneratedJSCollection.html" target="_top" xlink:title=" ">
<polygon fill="white" stroke="none" points="448,-247.5 256,-247.5 256,-70.5 448,-70.5 448,-247.5"/>
<text text-anchor="start" x="271" y="-234" font-family="Cascadia Code NF" font-size="10.00">TorqueGeneratedJSCollection</text>
<text text-anchor="start" x="274" y="-221.25" font-family="Cascadia Code NF" font-size="10.00">&lt; JSCollection, JSObject &gt;</text>
<text text-anchor="start" x="349" y="-205" font-family="Cascadia Code NF" font-size="10.00"> </text>
<text text-anchor="start" x="260" y="-189" font-family="Cascadia Code NF" font-size="10.00">+</text>
<text text-anchor="start" x="270" y="-189" font-family="Cascadia Code NF" font-size="10.00">table()</text>
<text text-anchor="start" x="260" y="-173" font-family="Cascadia Code NF" font-size="10.00">+</text>
<text text-anchor="start" x="270" y="-173" font-family="Cascadia Code NF" font-size="10.00">table()</text>
<text text-anchor="start" x="260" y="-157" font-family="Cascadia Code NF" font-size="10.00">+</text>
<text text-anchor="start" x="270" y="-157" font-family="Cascadia Code NF" font-size="10.00">set_table()</text>
<text text-anchor="start" x="260" y="-141" font-family="Cascadia Code NF" font-size="10.00">+</text>
<text text-anchor="start" x="270" y="-141" font-family="Cascadia Code NF" font-size="10.00">TorqueGeneratedJSCollection()</text>
<text text-anchor="start" x="260" y="-125" font-family="Cascadia Code NF" font-size="10.00">+</text>
<text text-anchor="start" x="270" y="-125" font-family="Cascadia Code NF" font-size="10.00">cast()</text>
<text text-anchor="start" x="260" y="-109" font-family="Cascadia Code NF" font-size="10.00">+</text>
<text text-anchor="start" x="270" y="-109" font-family="Cascadia Code NF" font-size="10.00">unchecked_cast()</text>
<text text-anchor="start" x="260" y="-93" font-family="Cascadia Code NF" font-size="10.00">#</text>
<text text-anchor="start" x="270" y="-93" font-family="Cascadia Code NF" font-size="10.00">TorqueGeneratedJSCollection()</text>
<text text-anchor="start" x="260" y="-77" font-family="Cascadia Code NF" font-size="10.00">#</text>
<text text-anchor="start" x="270" y="-77" font-family="Cascadia Code NF" font-size="10.00">TorqueGeneratedJSCollection()</text>
<polygon fill="#bfbfbf" stroke="#bfbfbf" points="256,-216.5 256,-216.5 448,-216.5 448,-216.5 256,-216.5"/>
<polygon fill="#bfbfbf" stroke="#bfbfbf" points="256,-200.5 256,-200.5 448,-200.5 448,-200.5 256,-200.5"/>
<polygon fill="none" stroke="#bfbfbf" points="256,-70.5 256,-247.5 448,-247.5 448,-70.5 256,-70.5"/>
</a>
</g>
</g>
<!-- Node2&#45;&gt;Node1 -->
<g id="edge1_Node000001_Node000002" class="edge">
<title>Node2&#45;&gt;Node1</title>
<g id="a_edge1_Node000001_Node000002"><a xlink:title=" ">
<path fill="none" stroke="#63b8ff" d="M458.42,-127.67C521.28,-108.99 599.92,-85.63 658.1,-68.34"/>
<polygon fill="none" stroke="#63b8ff" points="457.71,-124.23 449.12,-130.44 459.7,-130.94 457.71,-124.23"/>
</a>
</g>
</g>
<!-- Node3 -->
<g id="Node000003" class="node">
<title>Node3</title>
<g id="a_Node000003"><a xlink:title=" ">
<polygon fill="white" stroke="none" points="58,-241 0,-241 0,-189 58,-189 58,-241"/>
<text text-anchor="start" x="5" y="-227.5" font-family="Cascadia Code NF" font-size="10.00">JSObject</text>
<text text-anchor="start" x="26" y="-211.5" font-family="Cascadia Code NF" font-size="10.00"> </text>
<text text-anchor="start" x="26" y="-195.5" font-family="Cascadia Code NF" font-size="10.00"> </text>
<polygon fill="#bfbfbf" stroke="#bfbfbf" points="0,-223 0,-223 58,-223 58,-223 0,-223"/>
<polygon fill="#bfbfbf" stroke="#bfbfbf" points="0,-207 0,-207 58,-207 58,-207 0,-207"/>
<polygon fill="none" stroke="#bfbfbf" points="0,-189 0,-241 58,-241 58,-189 0,-189"/>
</a>
</g>
</g>
<!-- Node3&#45;&gt;Node2 -->
<g id="edge2_Node000002_Node000003" class="edge">
<title>Node3&#45;&gt;Node2</title>
<g id="a_edge2_Node000002_Node000003"><a xlink:title=" ">
<path fill="none" stroke="#63b8ff" d="M69.23,-213.04C111.29,-210.43 179.88,-204.71 238,-193 243.92,-191.81 249.98,-190.44 256.07,-188.95"/>
<polygon fill="none" stroke="#63b8ff" points="69.13,-209.54 59.35,-213.62 69.54,-216.53 69.13,-209.54"/>
</a>
</g>
</g>
<!-- Node4 -->
<g id="Node000004" class="node">
<title>Node4</title>
<g id="a_Node000004"><a xlink:href="../../d1/da0/classint.html" target="_top" xlink:title=" ">
<polygon fill="white" stroke="none" points="43,-129 15,-129 15,-77 43,-77 43,-129"/>
<text text-anchor="start" x="20" y="-115.5" font-family="Cascadia Code NF" font-size="10.00">int</text>
<text text-anchor="start" x="26" y="-99.5" font-family="Cascadia Code NF" font-size="10.00"> </text>
<text text-anchor="start" x="26" y="-83.5" font-family="Cascadia Code NF" font-size="10.00"> </text>
<polygon fill="#bfbfbf" stroke="#bfbfbf" points="15,-111 15,-111 43,-111 43,-111 15,-111"/>
<polygon fill="#bfbfbf" stroke="#bfbfbf" points="15,-95 15,-95 43,-95 43,-95 15,-95"/>
<polygon fill="none" stroke="#bfbfbf" points="15,-77 15,-129 43,-129 43,-77 15,-77"/>
</a>
</g>
</g>
<!-- Node4&#45;&gt;Node2 -->
<g id="edge3_Node000002_Node000004" class="edge">
<title>Node4&#45;&gt;Node2</title>
<g id="a_edge3_Node000002_Node000004"><a xlink:title=" ">
<path fill="none" stroke="#63b8ff" d="M42.92,-100.56C75.98,-94.78 166.11,-82.05 238,-99.75 239.98,-100.24 241.96,-100.76 243.94,-101.33"/>
<polygon fill="none" stroke="#63b8ff" points="243.81,-101.29 250.75,-99.33 255.23,-104.97 248.29,-106.94 243.81,-101.29"/>
</a>
</g>
<text text-anchor="middle" x="157" y="-178.75" font-family="Cascadia Code NF" font-size="10.00" fill="grey"> +kEndOfStrongFieldsOffset</text>
<text text-anchor="middle" x="157" y="-166" font-family="Cascadia Code NF" font-size="10.00" fill="grey">+kEndOfWeakFieldsOffset</text>
<text text-anchor="middle" x="157" y="-153.25" font-family="Cascadia Code NF" font-size="10.00" fill="grey">+kHeaderSize</text>
<text text-anchor="middle" x="157" y="-140.5" font-family="Cascadia Code NF" font-size="10.00" fill="grey">+kStartOfStrongFieldsOffset</text>
<text text-anchor="middle" x="157" y="-127.75" font-family="Cascadia Code NF" font-size="10.00" fill="grey">+kStartOfWeakFieldsOffset</text>
<text text-anchor="middle" x="157" y="-115" font-family="Cascadia Code NF" font-size="10.00" fill="grey">+kTableOffset</text>
<text text-anchor="middle" x="157" y="-102.25" font-family="Cascadia Code NF" font-size="10.00" fill="grey">+kTableOffsetEnd</text>
</g>
<!-- Node5 -->
<g id="Node000005" class="node">
<title>Node5</title>
<g id="a_Node000005"><a xlink:title=" ">
<polygon fill="white" stroke="none" points="372,-52 332,-52 332,0 372,0 372,-52"/>
<text text-anchor="start" x="337" y="-38.5" font-family="Cascadia Code NF" font-size="10.00">const</text>
<text text-anchor="start" x="349" y="-22.5" font-family="Cascadia Code NF" font-size="10.00"> </text>
<text text-anchor="start" x="349" y="-6.5" font-family="Cascadia Code NF" font-size="10.00"> </text>
<polygon fill="#bfbfbf" stroke="#bfbfbf" points="332,-34 332,-34 372,-34 372,-34 332,-34"/>
<polygon fill="#bfbfbf" stroke="#bfbfbf" points="332,-18 332,-18 372,-18 372,-18 332,-18"/>
<polygon fill="none" stroke="#bfbfbf" points="332,0 332,-52 372,-52 372,0 332,0"/>
</a>
</g>
</g>
<!-- Node5&#45;&gt;Node1 -->
<g id="edge4_Node000001_Node000005" class="edge">
<title>Node5&#45;&gt;Node1</title>
<g id="a_edge4_Node000001_Node000005"><a xlink:title=" ">
<path fill="none" stroke="#63b8ff" d="M371.93,-26.88C420.72,-29.15 553.39,-35.32 645.34,-39.6"/>
<polygon fill="none" stroke="#63b8ff" points="645.43,-39.6 651.61,-35.88 657.42,-40.16 651.24,-43.88 645.43,-39.6"/>
</a>
</g>
<text text-anchor="middle" x="553" y="-42.25" font-family="Cascadia Code NF" font-size="10.00" fill="grey"> +kAddFunctionDescriptorIndex</text>
</g>
</g>
</svg>
