<?xml version="1.0" encoding="UTF-8" standalone="no"?>
<!DOCTYPE svg PUBLIC "-//W3C//DTD SVG 1.1//EN"
 "http://www.w3.org/Graphics/SVG/1.1/DTD/svg11.dtd">
<!-- Generated by graphviz version 11.0.0 (20240428.1522)
 -->
<!-- Title: v8::internal::WritableRelocIterator Pages: 1 -->
<!--zoomable 542 -->

<svg id="main" version="1.1" xmlns="http://www.w3.org/2000/svg" xmlns:xlink="http://www.w3.org/1999/xlink" xml:space="preserve" onload="init(evt)">
<style type="text/css"><![CDATA[
.node, .edge {opacity: 0.7;}
.node.selected, .edge.selected {opacity: 1;}
.edge:hover path { stroke: red; }
.edge:hover polygon { stroke: red; fill: red; }
svg#main { background-color: #111; }
]]></style>

<defs>
  <circle id="rim" cx="0" cy="0" r="7"/>
  <circle id="rim2" cx="0" cy="0" r="3.5"/>
  <g id="zoomPlus">
    <use xlink:href="#rim" fill="#404040"><set attributeName="fill" to="#808080" begin="zoomplus.mouseover" end="zoomplus.mouseout"/></use>
    <path d="M-4,0h8M0,-4v8" fill="none" stroke="white" stroke-width="1.5" pointer-events="none"/>
  </g>
  <g id="zoomMin">
    <use xlink:href="#rim" fill="#404040"><set attributeName="fill" to="#808080" begin="zoomminus.mouseover" end="zoomminus.mouseout"/></use>
    <path d="M-4,0h8" fill="none" stroke="white" stroke-width="1.5" pointer-events="none"/>
  </g>
  <g id="arrowUp" transform="translate(30 24)">
    <use xlink:href="#rim"/>
    <path pointer-events="none" fill="none" stroke="white" stroke-width="1.5" d="M0,-3.0v7 M-2.5,-0.5L0,-3.0L2.5,-0.5"/>
  </g>
  <g id="arrowRight" transform="rotate(90) translate(36 -43)">
    <use xlink:href="#rim"/>
    <path pointer-events="none" fill="none" stroke="white" stroke-width="1.5" d="M0,-3.0v7 M-2.5,-0.5L0,-3.0L2.5,-0.5"/>
  </g>
  <g id="arrowDown" transform="rotate(180) translate(-30 -48)">
    <use xlink:href="#rim"/>
    <path pointer-events="none" fill="none" stroke="white" stroke-width="1.5" d="M0,-3.0v7 M-2.5,-0.5L0,-3.0L2.5,-0.5"/>
  </g>
  <g id="arrowLeft" transform="rotate(270) translate(-36 17)">
    <use xlink:href="#rim"/>
    <path pointer-events="none" fill="none" stroke="white" stroke-width="1.5" d="M0,-3.0v7 M-2.5,-0.5L0,-3.0L2.5,-0.5"/>
  </g>
  <g id="resetDef">
    <use xlink:href="#rim2" fill="#404040"><set attributeName="fill" to="#808080" begin="reset.mouseover" end="reset.mouseout"/></use>
  </g>
</defs>
<script type="application/ecmascript">
var viewWidth = 1206;
var viewHeight = 542;
var sectionId = 'dynsection-1';
</script>
<script type="application/ecmascript" xlink:href="../../svg.min.js"/>
<svg id="graph" class="graph">
<g id="viewport">
<title>v8::internal::WritableRelocIterator</title>
<!-- Node1 -->
<g id="Node000001" class="node">
<title>Node1</title>
<g id="a_Node000001"><a xlink:title=" ">
<polygon fill="#999999" stroke="none" points="1198,-421.5 1026,-421.5 1026,-340.5 1198,-340.5 1198,-421.5"/>
<text text-anchor="start" x="1031" y="-408" font-family="Cascadia Code NF" font-size="10.00">v8::internal::WritableReloc</text>
<text text-anchor="start" x="1088" y="-395.25" font-family="Cascadia Code NF" font-size="10.00">Iterator</text>
<text text-anchor="start" x="1109" y="-379" font-family="Cascadia Code NF" font-size="10.00"> </text>
<text text-anchor="start" x="1034" y="-363" font-family="Cascadia Code NF" font-size="10.00">+</text>
<text text-anchor="start" x="1048" y="-363" font-family="Cascadia Code NF" font-size="10.00">WritableRelocIterator()</text>
<text text-anchor="start" x="1034" y="-347" font-family="Cascadia Code NF" font-size="10.00">+</text>
<text text-anchor="start" x="1048" y="-347" font-family="Cascadia Code NF" font-size="10.00">WritableRelocIterator()</text>
<polygon fill="#666666" stroke="#666666" points="1026,-390.5 1026,-390.5 1198,-390.5 1198,-390.5 1026,-390.5"/>
<polygon fill="#666666" stroke="#666666" points="1026,-374.5 1026,-374.5 1198,-374.5 1198,-374.5 1026,-374.5"/>
<polygon fill="none" stroke="#666666" points="1026,-340.5 1026,-421.5 1198,-421.5 1198,-340.5 1026,-340.5"/>
</a>
</g>
</g>
<!-- Node2 -->
<g id="Node000002" class="node">
<title>Node2</title>
<g id="a_Node000002"><a xlink:href="../../dd/dce/classv8_1_1internal_1_1RelocIteratorBase.html" target="_top" xlink:title=" ">
<polygon fill="white" stroke="none" points="990,-533.5 818,-533.5 818,-228.5 990,-228.5 990,-533.5"/>
<text text-anchor="start" x="823" y="-520" font-family="Cascadia Code NF" font-size="10.00">v8::internal::RelocIterator</text>
<text text-anchor="start" x="829" y="-507.25" font-family="Cascadia Code NF" font-size="10.00">Base&lt; WritableRelocInfo &gt;</text>
<text text-anchor="start" x="901" y="-491" font-family="Cascadia Code NF" font-size="10.00"> </text>
<text text-anchor="start" x="826" y="-475" font-family="Cascadia Code NF" font-size="10.00">+</text>
<text text-anchor="start" x="840" y="-475" font-family="Cascadia Code NF" font-size="10.00">RelocIteratorBase()</text>
<text text-anchor="start" x="826" y="-459" font-family="Cascadia Code NF" font-size="10.00">+</text>
<text text-anchor="start" x="840" y="-459" font-family="Cascadia Code NF" font-size="10.00">RelocIteratorBase()</text>
<text text-anchor="start" x="826" y="-443" font-family="Cascadia Code NF" font-size="10.00">+</text>
<text text-anchor="start" x="840" y="-443" font-family="Cascadia Code NF" font-size="10.00">operator=()</text>
<text text-anchor="start" x="826" y="-427" font-family="Cascadia Code NF" font-size="10.00">+</text>
<text text-anchor="start" x="840" y="-427" font-family="Cascadia Code NF" font-size="10.00">done()</text>
<text text-anchor="start" x="826" y="-411" font-family="Cascadia Code NF" font-size="10.00">+</text>
<text text-anchor="start" x="840" y="-411" font-family="Cascadia Code NF" font-size="10.00">next()</text>
<text text-anchor="start" x="826" y="-395" font-family="Cascadia Code NF" font-size="10.00">+</text>
<text text-anchor="start" x="840" y="-395" font-family="Cascadia Code NF" font-size="10.00">rinfo()</text>
<text text-anchor="start" x="826" y="-379" font-family="Cascadia Code NF" font-size="10.00">#</text>
<text text-anchor="start" x="840" y="-379" font-family="Cascadia Code NF" font-size="10.00">RelocIteratorBase()</text>
<text text-anchor="start" x="826" y="-363" font-family="Cascadia Code NF" font-size="10.00">#</text>
<text text-anchor="start" x="840" y="-363" font-family="Cascadia Code NF" font-size="10.00">SetMode()</text>
<text text-anchor="start" x="826" y="-347" font-family="Cascadia Code NF" font-size="10.00">#</text>
<text text-anchor="start" x="840" y="-347" font-family="Cascadia Code NF" font-size="10.00">GetMode()</text>
<text text-anchor="start" x="826" y="-331" font-family="Cascadia Code NF" font-size="10.00">#</text>
<text text-anchor="start" x="840" y="-331" font-family="Cascadia Code NF" font-size="10.00">Advance()</text>
<text text-anchor="start" x="826" y="-315" font-family="Cascadia Code NF" font-size="10.00">#</text>
<text text-anchor="start" x="840" y="-315" font-family="Cascadia Code NF" font-size="10.00">AdvanceGetTag()</text>
<text text-anchor="start" x="826" y="-299" font-family="Cascadia Code NF" font-size="10.00">#</text>
<text text-anchor="start" x="840" y="-299" font-family="Cascadia Code NF" font-size="10.00">AdvanceReadLongPCJump()</text>
<text text-anchor="start" x="826" y="-283" font-family="Cascadia Code NF" font-size="10.00">#</text>
<text text-anchor="start" x="840" y="-283" font-family="Cascadia Code NF" font-size="10.00">AdvanceReadPC()</text>
<text text-anchor="start" x="826" y="-267" font-family="Cascadia Code NF" font-size="10.00">#</text>
<text text-anchor="start" x="840" y="-267" font-family="Cascadia Code NF" font-size="10.00">AdvanceReadInt()</text>
<text text-anchor="start" x="826" y="-251" font-family="Cascadia Code NF" font-size="10.00">#</text>
<text text-anchor="start" x="840" y="-251" font-family="Cascadia Code NF" font-size="10.00">ReadShortTaggedPC()</text>
<text text-anchor="start" x="826" y="-235" font-family="Cascadia Code NF" font-size="10.00">#</text>
<text text-anchor="start" x="840" y="-235" font-family="Cascadia Code NF" font-size="10.00">ReadShortData()</text>
<polygon fill="#bfbfbf" stroke="#bfbfbf" points="818,-502.5 818,-502.5 990,-502.5 990,-502.5 818,-502.5"/>
<polygon fill="#bfbfbf" stroke="#bfbfbf" points="818,-486.5 818,-486.5 990,-486.5 990,-486.5 818,-486.5"/>
<polygon fill="none" stroke="#bfbfbf" points="818,-228.5 818,-533.5 990,-533.5 990,-228.5 818,-228.5"/>
</a>
</g>
</g>
<!-- Node2&#45;&gt;Node1 -->
<g id="edge1_Node000001_Node000002" class="edge">
<title>Node2&#45;&gt;Node1</title>
<g id="a_edge1_Node000001_Node000002"><a xlink:title=" ">
<path fill="none" stroke="#63b8ff" d="M1001.28,-381C1009.6,-381 1017.99,-381 1026.22,-381"/>
<polygon fill="none" stroke="#63b8ff" points="1001.49,-377.5 991.49,-381 1001.49,-384.5 1001.49,-377.5"/>
</a>
</g>
</g>
<!-- Node3 -->
<g id="Node000003" class="node">
<title>Node3</title>
<g id="a_Node000003"><a xlink:href="../../d1/da0/classint.html" target="_top" xlink:title=" ">
<polygon fill="white" stroke="none" points="46,-520 18,-520 18,-468 46,-468 46,-520"/>
<text text-anchor="start" x="23" y="-506.5" font-family="Cascadia Code NF" font-size="10.00">int</text>
<text text-anchor="start" x="29" y="-490.5" font-family="Cascadia Code NF" font-size="10.00"> </text>
<text text-anchor="start" x="29" y="-474.5" font-family="Cascadia Code NF" font-size="10.00"> </text>
<polygon fill="#bfbfbf" stroke="#bfbfbf" points="18,-502 18,-502 46,-502 46,-502 18,-502"/>
<polygon fill="#bfbfbf" stroke="#bfbfbf" points="18,-486 18,-486 46,-486 46,-486 18,-486"/>
<polygon fill="none" stroke="#bfbfbf" points="18,-468 18,-520 46,-520 46,-468 18,-468"/>
</a>
</g>
</g>
<!-- Node3&#45;&gt;Node2 -->
<g id="edge2_Node000002_Node000003" class="edge">
<title>Node3&#45;&gt;Node2</title>
<g id="a_edge2_Node000002_Node000003"><a xlink:title=" ">
<path fill="none" stroke="#63b8ff" d="M45.76,-494C74.68,-493.9 147.42,-493.12 208,-488 472.56,-465.65 539.55,-459.54 800,-408 801.75,-407.65 803.51,-407.3 805.29,-406.93"/>
<polygon fill="none" stroke="#63b8ff" points="805.43,-406.89 810.44,-401.71 817.15,-404.33 812.15,-409.52 805.43,-406.89"/>
</a>
</g>
<text text-anchor="middle" x="475" y="-470.25" font-family="Cascadia Code NF" font-size="10.00" fill="grey"> +kAllModesMask</text>
</g>
<!-- Node6 -->
<g id="Node000006" class="node">
<title>Node6</title>
<g id="a_Node000006"><a xlink:href="../../d0/df0/classv8_1_1internal_1_1RelocInfo.html" target="_top" xlink:title=" ">
<polygon fill="white" stroke="none" points="412,-388 226,-388 226,0 412,0 412,-388"/>
<text text-anchor="start" x="250" y="-374.5" font-family="Cascadia Code NF" font-size="10.00">v8::internal::RelocInfo</text>
<text text-anchor="start" x="316" y="-358.5" font-family="Cascadia Code NF" font-size="10.00"> </text>
<text text-anchor="start" x="230" y="-342.5" font-family="Cascadia Code NF" font-size="10.00">+</text>
<text text-anchor="start" x="240" y="-342.5" font-family="Cascadia Code NF" font-size="10.00">RelocInfo()</text>
<text text-anchor="start" x="230" y="-326.5" font-family="Cascadia Code NF" font-size="10.00">+</text>
<text text-anchor="start" x="240" y="-326.5" font-family="Cascadia Code NF" font-size="10.00">RelocInfo()</text>
<text text-anchor="start" x="230" y="-310.5" font-family="Cascadia Code NF" font-size="10.00">+</text>
<text text-anchor="start" x="240" y="-310.5" font-family="Cascadia Code NF" font-size="10.00">RelocInfo()</text>
<text text-anchor="start" x="230" y="-294.5" font-family="Cascadia Code NF" font-size="10.00">+</text>
<text text-anchor="start" x="240" y="-294.5" font-family="Cascadia Code NF" font-size="10.00">pc()</text>
<text text-anchor="start" x="230" y="-278.5" font-family="Cascadia Code NF" font-size="10.00">+</text>
<text text-anchor="start" x="240" y="-278.5" font-family="Cascadia Code NF" font-size="10.00">rmode()</text>
<text text-anchor="start" x="230" y="-262.5" font-family="Cascadia Code NF" font-size="10.00">+</text>
<text text-anchor="start" x="240" y="-262.5" font-family="Cascadia Code NF" font-size="10.00">data()</text>
<text text-anchor="start" x="230" y="-246.5" font-family="Cascadia Code NF" font-size="10.00">+</text>
<text text-anchor="start" x="240" y="-246.5" font-family="Cascadia Code NF" font-size="10.00">IsCodedSpecially()</text>
<text text-anchor="start" x="230" y="-230.5" font-family="Cascadia Code NF" font-size="10.00">+</text>
<text text-anchor="start" x="240" y="-230.5" font-family="Cascadia Code NF" font-size="10.00">IsInConstantPool()</text>
<text text-anchor="start" x="230" y="-214.5" font-family="Cascadia Code NF" font-size="10.00">+</text>
<text text-anchor="start" x="240" y="-214.5" font-family="Cascadia Code NF" font-size="10.00">wasm_call_address()</text>
<text text-anchor="start" x="230" y="-198.5" font-family="Cascadia Code NF" font-size="10.00">+</text>
<text text-anchor="start" x="240" y="-198.5" font-family="Cascadia Code NF" font-size="10.00">wasm_stub_call_address()</text>
<text text-anchor="start" x="240" y="-182.5" font-family="Cascadia Code NF" font-size="10.00">and 15 more...</text>
<text text-anchor="start" x="230" y="-166.5" font-family="Cascadia Code NF" font-size="10.00">+</text>
<text text-anchor="start" x="240" y="-166.5" font-family="Cascadia Code NF" font-size="10.00">IsRealRelocMode()</text>
<text text-anchor="start" x="230" y="-150.5" font-family="Cascadia Code NF" font-size="10.00">+</text>
<text text-anchor="start" x="240" y="-150.5" font-family="Cascadia Code NF" font-size="10.00">IsGCRelocMode()</text>
<text text-anchor="start" x="230" y="-134.5" font-family="Cascadia Code NF" font-size="10.00">+</text>
<text text-anchor="start" x="240" y="-134.5" font-family="Cascadia Code NF" font-size="10.00">IsShareableRelocMode()</text>
<text text-anchor="start" x="230" y="-118.5" font-family="Cascadia Code NF" font-size="10.00">+</text>
<text text-anchor="start" x="240" y="-118.5" font-family="Cascadia Code NF" font-size="10.00">IsCodeTarget()</text>
<text text-anchor="start" x="230" y="-102.5" font-family="Cascadia Code NF" font-size="10.00">+</text>
<text text-anchor="start" x="240" y="-102.5" font-family="Cascadia Code NF" font-size="10.00">IsCodeTargetMode()</text>
<text text-anchor="start" x="230" y="-86.5" font-family="Cascadia Code NF" font-size="10.00">+</text>
<text text-anchor="start" x="240" y="-86.5" font-family="Cascadia Code NF" font-size="10.00">IsRelativeCodeTarget()</text>
<text text-anchor="start" x="230" y="-70.5" font-family="Cascadia Code NF" font-size="10.00">+</text>
<text text-anchor="start" x="240" y="-70.5" font-family="Cascadia Code NF" font-size="10.00">IsFullEmbeddedObject()</text>
<text text-anchor="start" x="230" y="-54.5" font-family="Cascadia Code NF" font-size="10.00">+</text>
<text text-anchor="start" x="240" y="-54.5" font-family="Cascadia Code NF" font-size="10.00">IsCompressedEmbeddedObject()</text>
<text text-anchor="start" x="230" y="-38.5" font-family="Cascadia Code NF" font-size="10.00">+</text>
<text text-anchor="start" x="240" y="-38.5" font-family="Cascadia Code NF" font-size="10.00">IsEmbeddedObjectMode()</text>
<text text-anchor="start" x="230" y="-22.5" font-family="Cascadia Code NF" font-size="10.00">+</text>
<text text-anchor="start" x="240" y="-22.5" font-family="Cascadia Code NF" font-size="10.00">IsWasmCall()</text>
<text text-anchor="start" x="240" y="-6.5" font-family="Cascadia Code NF" font-size="10.00">and 23 more...</text>
<polygon fill="#bfbfbf" stroke="#bfbfbf" points="226,-370 226,-370 412,-370 412,-370 226,-370"/>
<polygon fill="#bfbfbf" stroke="#bfbfbf" points="226,-354 226,-354 412,-354 412,-354 226,-354"/>
<polygon fill="none" stroke="#bfbfbf" points="226,0 226,-388 412,-388 412,0 226,0"/>
</a>
</g>
</g>
<!-- Node3&#45;&gt;Node6 -->
<g id="edge6_Node000006_Node000003" class="edge">
<title>Node3&#45;&gt;Node6</title>
<g id="a_edge6_Node000006_Node000003"><a xlink:title=" ">
<path fill="none" stroke="#63b8ff" d="M45.73,-481.28C55.3,-472.03 68.95,-459.48 82,-449.75 134.56,-410.55 161.54,-419.27 208,-373 211.2,-369.81 214.34,-366.52 217.44,-363.13"/>
<polygon fill="none" stroke="#63b8ff" points="217.5,-363.06 218.44,-355.91 225.41,-354.03 224.46,-361.18 217.5,-363.06"/>
</a>
</g>
<text text-anchor="middle" x="145" y="-477.75" font-family="Cascadia Code NF" font-size="10.00" fill="grey"> +kMaxCallSize</text>
<text text-anchor="middle" x="145" y="-465" font-family="Cascadia Code NF" font-size="10.00" fill="grey">+kMaxSmallPCDelta</text>
<text text-anchor="middle" x="145" y="-452.25" font-family="Cascadia Code NF" font-size="10.00" fill="grey">+kMinRelocCommentSize</text>
</g>
<!-- Node4 -->
<g id="Node000004" class="node">
<title>Node4</title>
<g id="a_Node000004"><a xlink:title=" ">
<polygon fill="white" stroke="none" points="52,-410 12,-410 12,-358 52,-358 52,-410"/>
<text text-anchor="start" x="17" y="-396.5" font-family="Cascadia Code NF" font-size="10.00">const</text>
<text text-anchor="start" x="29" y="-380.5" font-family="Cascadia Code NF" font-size="10.00"> </text>
<text text-anchor="start" x="29" y="-364.5" font-family="Cascadia Code NF" font-size="10.00"> </text>
<polygon fill="#bfbfbf" stroke="#bfbfbf" points="12,-392 12,-392 52,-392 52,-392 12,-392"/>
<polygon fill="#bfbfbf" stroke="#bfbfbf" points="12,-376 12,-376 52,-376 52,-376 12,-376"/>
<polygon fill="none" stroke="#bfbfbf" points="12,-358 12,-410 52,-410 52,-358 12,-358"/>
</a>
</g>
</g>
<!-- Node4&#45;&gt;Node2 -->
<g id="edge3_Node000002_Node000004" class="edge">
<title>Node4&#45;&gt;Node2</title>
<g id="a_edge3_Node000002_Node000004"><a xlink:title=" ">
<path fill="none" stroke="#63b8ff" d="M51.88,-385.7C86.41,-388.7 162.06,-394.85 226,-397 451.65,-404.59 508.47,-407.65 734,-397 757.1,-395.91 781.92,-393.98 805.23,-391.84"/>
<polygon fill="none" stroke="#63b8ff" points="805.16,-391.84 810.76,-387.3 817.11,-390.71 811.51,-395.26 805.16,-391.84"/>
</a>
</g>
<text text-anchor="middle" x="475" y="-431.75" font-family="Cascadia Code NF" font-size="10.00" fill="grey"> #end_</text>
<text text-anchor="middle" x="475" y="-419" font-family="Cascadia Code NF" font-size="10.00" fill="grey">#mode_mask_</text>
<text text-anchor="middle" x="475" y="-406.25" font-family="Cascadia Code NF" font-size="10.00" fill="grey">#pos_</text>
</g>
<!-- Node4&#45;&gt;Node6 -->
<g id="edge7_Node000006_Node000004" class="edge">
<title>Node4&#45;&gt;Node6</title>
<g id="a_edge7_Node000006_Node000004"><a xlink:title=" ">
<path fill="none" stroke="#63b8ff" d="M51.91,-373.99C84.57,-356.45 153.32,-318.45 208,-281 210.54,-279.26 213.1,-277.48 215.67,-275.66"/>
<polygon fill="none" stroke="#63b8ff" points="215.79,-275.58 218.33,-268.83 225.54,-268.57 223,-275.32 215.79,-275.58"/>
</a>
</g>
<text text-anchor="middle" x="145" y="-359.25" font-family="Cascadia Code NF" font-size="10.00" fill="grey"> +kApplyMask</text>
</g>
<!-- Node5 -->
<g id="Node000005" class="node">
<title>Node5</title>
<g id="a_Node000005"><a xlink:href="../../d3/dab/classv8_1_1internal_1_1WritableRelocInfo.html" target="_top" xlink:title=" ">
<polygon fill="white" stroke="none" points="734,-388 538,-388 538,-166 734,-166 734,-388"/>
<text text-anchor="start" x="543" y="-374.5" font-family="Cascadia Code NF" font-size="10.00">v8::internal::WritableRelocInfo</text>
<text text-anchor="start" x="633" y="-358.5" font-family="Cascadia Code NF" font-size="10.00"> </text>
<text text-anchor="start" x="552" y="-342.5" font-family="Cascadia Code NF" font-size="10.00">+</text>
<text text-anchor="start" x="572" y="-342.5" font-family="Cascadia Code NF" font-size="10.00">WritableRelocInfo()</text>
<text text-anchor="start" x="552" y="-326.5" font-family="Cascadia Code NF" font-size="10.00">+</text>
<text text-anchor="start" x="572" y="-326.5" font-family="Cascadia Code NF" font-size="10.00">WritableRelocInfo()</text>
<text text-anchor="start" x="552" y="-310.5" font-family="Cascadia Code NF" font-size="10.00">+</text>
<text text-anchor="start" x="572" y="-310.5" font-family="Cascadia Code NF" font-size="10.00">apply()</text>
<text text-anchor="start" x="552" y="-294.5" font-family="Cascadia Code NF" font-size="10.00">+</text>
<text text-anchor="start" x="572" y="-294.5" font-family="Cascadia Code NF" font-size="10.00">set_wasm_call_address()</text>
<text text-anchor="start" x="552" y="-278.5" font-family="Cascadia Code NF" font-size="10.00">+</text>
<text text-anchor="start" x="572" y="-278.5" font-family="Cascadia Code NF" font-size="10.00">set_wasm_stub_call</text>
<text text-anchor="start" x="572" y="-265.75" font-family="Cascadia Code NF" font-size="10.00">_address()</text>
<text text-anchor="start" x="552" y="-249.5" font-family="Cascadia Code NF" font-size="10.00">+</text>
<text text-anchor="start" x="572" y="-249.5" font-family="Cascadia Code NF" font-size="10.00">set_target_address()</text>
<text text-anchor="start" x="552" y="-233.5" font-family="Cascadia Code NF" font-size="10.00">+</text>
<text text-anchor="start" x="572" y="-233.5" font-family="Cascadia Code NF" font-size="10.00">set_target_address()</text>
<text text-anchor="start" x="552" y="-217.5" font-family="Cascadia Code NF" font-size="10.00">+</text>
<text text-anchor="start" x="572" y="-217.5" font-family="Cascadia Code NF" font-size="10.00">set_target_object()</text>
<text text-anchor="start" x="552" y="-201.5" font-family="Cascadia Code NF" font-size="10.00">+</text>
<text text-anchor="start" x="572" y="-201.5" font-family="Cascadia Code NF" font-size="10.00">set_target_object()</text>
<text text-anchor="start" x="552" y="-185.5" font-family="Cascadia Code NF" font-size="10.00">+</text>
<text text-anchor="start" x="572" y="-185.5" font-family="Cascadia Code NF" font-size="10.00">set_target_external</text>
<text text-anchor="start" x="572" y="-172.75" font-family="Cascadia Code NF" font-size="10.00">_reference()</text>
<polygon fill="#bfbfbf" stroke="#bfbfbf" points="538,-370 538,-370 734,-370 734,-370 538,-370"/>
<polygon fill="#bfbfbf" stroke="#bfbfbf" points="538,-354 538,-354 734,-354 734,-354 538,-354"/>
<polygon fill="none" stroke="#bfbfbf" points="538,-166 538,-388 734,-388 734,-166 538,-166"/>
</a>
</g>
</g>
<!-- Node5&#45;&gt;Node2 -->
<g id="edge4_Node000002_Node000005" class="edge">
<title>Node5&#45;&gt;Node2</title>
<g id="a_edge4_Node000002_Node000005"><a xlink:title=" ">
<path fill="none" stroke="#63b8ff" d="M733.78,-314.84C757.31,-324.04 782.48,-333.88 806.02,-343.08"/>
<polygon fill="none" stroke="#63b8ff" points="806.14,-343.13 813.19,-341.59 817.32,-347.5 810.27,-349.04 806.14,-343.13"/>
</a>
</g>
<text text-anchor="middle" x="776" y="-341.25" font-family="Cascadia Code NF" font-size="10.00" fill="grey"> #rinfo_</text>
</g>
<!-- Node6&#45;&gt;Node5 -->
<g id="edge5_Node000005_Node000006" class="edge">
<title>Node6&#45;&gt;Node5</title>
<g id="a_edge5_Node000005_Node000006"><a xlink:title=" ">
<path fill="none" stroke="#63b8ff" d="M422.81,-221.09C459.93,-230.87 501.68,-241.87 538.27,-251.51"/>
<polygon fill="none" stroke="#63b8ff" points="423.98,-217.78 413.42,-218.62 422.2,-224.55 423.98,-217.78"/>
</a>
</g>
</g>
<!-- Node7 -->
<g id="Node000007" class="node">
<title>Node7</title>
<g id="a_Node000007"><a xlink:href="../../d0/d60/classuintptr__t.html" target="_top" xlink:title=" ">
<polygon fill="white" stroke="none" points="64,-290 0,-290 0,-238 64,-238 64,-290"/>
<text text-anchor="start" x="5" y="-276.5" font-family="Cascadia Code NF" font-size="10.00">uintptr_t</text>
<text text-anchor="start" x="29" y="-260.5" font-family="Cascadia Code NF" font-size="10.00"> </text>
<text text-anchor="start" x="29" y="-244.5" font-family="Cascadia Code NF" font-size="10.00"> </text>
<polygon fill="#bfbfbf" stroke="#bfbfbf" points="0,-272 0,-272 64,-272 64,-272 0,-272"/>
<polygon fill="#bfbfbf" stroke="#bfbfbf" points="0,-256 0,-256 64,-256 64,-256 0,-256"/>
<polygon fill="none" stroke="#bfbfbf" points="0,-238 0,-290 64,-290 64,-238 0,-238"/>
</a>
</g>
</g>
<!-- Node7&#45;&gt;Node6 -->
<g id="edge8_Node000006_Node000007" class="edge">
<title>Node7&#45;&gt;Node6</title>
<g id="a_edge8_Node000006_Node000007"><a xlink:title=" ">
<path fill="none" stroke="#63b8ff" d="M63.77,-256.44C99.48,-247.67 160.28,-232.74 213.47,-219.67"/>
<polygon fill="none" stroke="#63b8ff" points="213.57,-219.65 218.44,-214.33 225.22,-216.79 220.35,-222.1 213.57,-219.65"/>
</a>
</g>
<text text-anchor="middle" x="145" y="-267" font-family="Cascadia Code NF" font-size="10.00" fill="grey"> #constant_pool_</text>
<text text-anchor="middle" x="145" y="-254.25" font-family="Cascadia Code NF" font-size="10.00" fill="grey">#pc_</text>
</g>
<!-- Node8 -->
<g id="Node000008" class="node">
<title>Node8</title>
<g id="a_Node000008"><a xlink:title=" ">
<polygon fill="white" stroke="none" points="49,-220 15,-220 15,-168 49,-168 49,-220"/>
<text text-anchor="start" x="20" y="-206.5" font-family="Cascadia Code NF" font-size="10.00">Mode</text>
<text text-anchor="start" x="29" y="-190.5" font-family="Cascadia Code NF" font-size="10.00"> </text>
<text text-anchor="start" x="29" y="-174.5" font-family="Cascadia Code NF" font-size="10.00"> </text>
<polygon fill="#bfbfbf" stroke="#bfbfbf" points="15,-202 15,-202 49,-202 49,-202 15,-202"/>
<polygon fill="#bfbfbf" stroke="#bfbfbf" points="15,-186 15,-186 49,-186 49,-186 15,-186"/>
<polygon fill="none" stroke="#bfbfbf" points="15,-168 15,-220 49,-220 49,-168 15,-168"/>
</a>
</g>
</g>
<!-- Node8&#45;&gt;Node6 -->
<g id="edge9_Node000006_Node000008" class="edge">
<title>Node8&#45;&gt;Node6</title>
<g id="a_edge9_Node000006_Node000008"><a xlink:title=" ">
<path fill="none" stroke="#63b8ff" d="M48.73,-194C79.83,-194 151.53,-194 213.12,-194"/>
<polygon fill="none" stroke="#63b8ff" points="213.19,-194 219.19,-190 225.19,-194 219.19,-198 213.19,-194"/>
</a>
</g>
<text text-anchor="middle" x="145" y="-197.25" font-family="Cascadia Code NF" font-size="10.00" fill="grey"> #rmode_</text>
</g>
<!-- Node9 -->
<g id="Node000009" class="node">
<title>Node9</title>
<g id="a_Node000009"><a xlink:title=" ">
<polygon fill="white" stroke="none" points="61,-150 3,-150 3,-98 61,-98 61,-150"/>
<text text-anchor="start" x="8" y="-136.5" font-family="Cascadia Code NF" font-size="10.00">intptr_t</text>
<text text-anchor="start" x="29" y="-120.5" font-family="Cascadia Code NF" font-size="10.00"> </text>
<text text-anchor="start" x="29" y="-104.5" font-family="Cascadia Code NF" font-size="10.00"> </text>
<polygon fill="#bfbfbf" stroke="#bfbfbf" points="3,-132 3,-132 61,-132 61,-132 3,-132"/>
<polygon fill="#bfbfbf" stroke="#bfbfbf" points="3,-116 3,-116 61,-116 61,-116 3,-116"/>
<polygon fill="none" stroke="#bfbfbf" points="3,-98 3,-150 61,-150 61,-98 3,-98"/>
</a>
</g>
</g>
<!-- Node9&#45;&gt;Node6 -->
<g id="edge10_Node000006_Node000009" class="edge">
<title>Node9&#45;&gt;Node6</title>
<g id="a_edge10_Node000006_Node000009"><a xlink:title=" ">
<path fill="none" stroke="#63b8ff" d="M60.85,-130.84C96.13,-139.5 158.93,-154.93 213.64,-168.37"/>
<polygon fill="none" stroke="#63b8ff" points="213.73,-168.39 220.51,-165.94 225.38,-171.25 218.6,-173.71 213.73,-168.39"/>
</a>
</g>
<text text-anchor="middle" x="145" y="-169.25" font-family="Cascadia Code NF" font-size="10.00" fill="grey"> #data_</text>
</g>
<!-- Node10 -->
<g id="Node000010" class="node">
<title>Node10</title>
<g id="a_Node000010"><a xlink:title=" ">
<polygon fill="white" stroke="none" points="653,-148 619,-148 619,-96 653,-96 653,-148"/>
<text text-anchor="start" x="624" y="-134.5" font-family="Cascadia Code NF" font-size="10.00">bool</text>
<text text-anchor="start" x="633" y="-118.5" font-family="Cascadia Code NF" font-size="10.00"> </text>
<text text-anchor="start" x="633" y="-102.5" font-family="Cascadia Code NF" font-size="10.00"> </text>
<polygon fill="#bfbfbf" stroke="#bfbfbf" points="619,-130 619,-130 653,-130 653,-130 619,-130"/>
<polygon fill="#bfbfbf" stroke="#bfbfbf" points="619,-114 619,-114 653,-114 653,-114 619,-114"/>
<polygon fill="none" stroke="#bfbfbf" points="619,-96 619,-148 653,-148 653,-96 619,-96"/>
</a>
</g>
</g>
<!-- Node10&#45;&gt;Node2 -->
<g id="edge11_Node000002_Node000010" class="edge">
<title>Node10&#45;&gt;Node2</title>
<g id="a_edge11_Node000002_Node000010"><a xlink:title=" ">
<path fill="none" stroke="#63b8ff" d="M652.76,-124.78C673.13,-128.99 708.93,-138.51 734,-157 762.11,-177.73 787.73,-204.41 810.05,-232.1"/>
<polygon fill="none" stroke="#63b8ff" points="810.13,-232.2 816.99,-234.44 817.57,-241.62 810.71,-239.39 810.13,-232.2"/>
</a>
</g>
<text text-anchor="middle" x="776" y="-218.25" font-family="Cascadia Code NF" font-size="10.00" fill="grey"> #done_</text>
</g>
</g>
</svg>

<g id="navigator" transform="translate(0 0)" fill="#404254">
  <rect fill="#f2f5e9" fill-opacity="0.5" stroke="#606060" stroke-width=".5" x="0" y="0" width="60" height="60"/>
  <use id="zoomplus" xlink:href="#zoomPlus" x="17" y="9" onmousedown="handleZoom(evt,'in')"/>
  <use id="zoomminus" xlink:href="#zoomMin" x="42" y="9" onmousedown="handleZoom(evt,'out')"/>
  <use id="reset" xlink:href="#resetDef" x="30" y="36" onmousedown="handleReset()"/>
   <use id="arrowup" xlink:href="#arrowUp" x="0" y="0" onmousedown="handlePan(0,-1)"/>
  <use id="arrowright" xlink:href="#arrowRight" x="0" y="0" onmousedown="handlePan(1,0)"/>
  <use id="arrowdown" xlink:href="#arrowDown" x="0" y="0" onmousedown="handlePan(0,1)"/>
  <use id="arrowleft" xlink:href="#arrowLeft" x="0" y="0" onmousedown="handlePan(-1,0)"/>
</g>
<svg viewBox="0 0 15 15" width="100%" height="30px" preserveAspectRatio="xMaxYMin meet">
 <g id="arrow_out" transform="scale(0.3 0.3)">
  <a xlink:href="classv8_1_1internal_1_1WritableRelocIterator__coll__graph_org.svg" target="_base">
   <rect id="button" ry="5" rx="5" y="6" x="6" height="38" width="38"
        fill="#f2f5e9" fill-opacity="0.5" stroke="#606060" stroke-width="1.0"/>
   <path id="arrow"
     d="M 11.500037,31.436501 C 11.940474,20.09759 22.043105,11.32322 32.158766,21.979434 L 37.068811,17.246167 C 37.068811,17.246167 37.088388,32 37.088388,32 L 22.160133,31.978069 C 22.160133,31.978069 26.997745,27.140456 26.997745,27.140456 C 18.528582,18.264221 13.291696,25.230495 11.500037,31.436501 z"
     style="fill:#404040;"/>
  </a>
 </g>
</svg>

<style type='text/css'>
<![CDATA[
[data-mouse-over-selected='false'] { opacity: 0.7; }
[data-mouse-over-selected='true']  { opacity: 1.0; }
]]>
</style>
<script type="application/ecmascript"><![CDATA[
document.addEventListener('DOMContentLoaded', (event) => {
  highlightEdges();
  highlightAdjacentNodes();
});
]]></script>
</svg>
