<?xml version="1.0" encoding="UTF-8" standalone="no"?>
<!DOCTYPE svg PUBLIC "-//W3C//DTD SVG 1.1//EN"
 "http://www.w3.org/Graphics/SVG/1.1/DTD/svg11.dtd">
<!-- Generated by graphviz version 11.0.0 (20240428.1522)
 -->
<!-- Title: v8::internal::wasm::LiftoffAssembler::ParallelRegisterMoveTuple Pages: 1 -->
<svg width="398pt" height="384pt"
 viewBox="0.00 0.00 398.00 383.50" xmlns="http://www.w3.org/2000/svg" xmlns:xlink="http://www.w3.org/1999/xlink">

<svg id="main" version="1.1" xmlns="http://www.w3.org/2000/svg" xmlns:xlink="http://www.w3.org/1999/xlink" xml:space="preserve" onload="init(evt)">
<style type="text/css"><![CDATA[
.node, .edge {opacity: 0.7;}
.node.selected, .edge.selected {opacity: 1;}
.edge:hover path { stroke: red; }
.edge:hover polygon { stroke: red; fill: red; }
svg#main { background-color: #111; }
]]></style>
<script type="application/ecmascript" xlink:href="../../svg.min.js"/>
<svg id="graph" class="graph">
<g id="graph0" class="graph" transform="scale(1 1) rotate(0) translate(4 379.5)">
<title>v8::internal::wasm::LiftoffAssembler::ParallelRegisterMoveTuple</title>
<!-- Node1 -->
<g id="Node000001" class="node">
<title>Node1</title>
<g id="a_Node000001"><a xlink:title=" ">
<polygon fill="#999999" stroke="none" points="390,-163 210,-163 210,-85 390,-85 390,-163"/>
<text text-anchor="start" x="225" y="-149.5" font-family="Cascadia Code NF" font-size="10.00">v8::internal::wasm</text>
<text text-anchor="start" x="225" y="-136.75" font-family="Cascadia Code NF" font-size="10.00">::LiftoffAssembler::</text>
<text text-anchor="start" x="225" y="-124" font-family="Cascadia Code NF" font-size="10.00">ParallelRegisterMoveTuple</text>
<text text-anchor="start" x="297" y="-107.5" font-family="Cascadia Code NF" font-size="10.00"> </text>
<text text-anchor="start" x="214" y="-91.5" font-family="Cascadia Code NF" font-size="10.00">+</text>
<text text-anchor="start" x="224" y="-91.5" font-family="Cascadia Code NF" font-size="10.00">ParallelRegisterMoveTuple()</text>
<polygon fill="#666666" stroke="#666666" points="210,-119 210,-119 390,-119 390,-119 210,-119"/>
<polygon fill="#666666" stroke="#666666" points="210,-103 210,-103 390,-103 390,-103 210,-103"/>
<polygon fill="none" stroke="#666666" points="210,-85 210,-163 390,-163 390,-85 210,-85"/>
</a>
</g>
</g>
<!-- Node2 -->
<g id="Node000002" class="node">
<title>Node2</title>
<g id="a_Node000002"><a xlink:href="../../d4/dcd/classv8_1_1internal_1_1wasm_1_1LiftoffRegister.html" target="_top" xlink:title=" ">
<polygon fill="white" stroke="none" points="138,-375.5 0,-375.5 0,-70.5 138,-70.5 138,-375.5"/>
<text text-anchor="start" x="15" y="-362" font-family="Cascadia Code NF" font-size="10.00">v8::internal::wasm</text>
<text text-anchor="start" x="18" y="-349.25" font-family="Cascadia Code NF" font-size="10.00">::LiftoffRegister</text>
<text text-anchor="start" x="66" y="-333" font-family="Cascadia Code NF" font-size="10.00"> </text>
<text text-anchor="start" x="4" y="-317" font-family="Cascadia Code NF" font-size="10.00">+</text>
<text text-anchor="start" x="14" y="-317" font-family="Cascadia Code NF" font-size="10.00">LiftoffRegister()</text>
<text text-anchor="start" x="4" y="-301" font-family="Cascadia Code NF" font-size="10.00">+</text>
<text text-anchor="start" x="14" y="-301" font-family="Cascadia Code NF" font-size="10.00">LiftoffRegister()</text>
<text text-anchor="start" x="4" y="-285" font-family="Cascadia Code NF" font-size="10.00">+</text>
<text text-anchor="start" x="14" y="-285" font-family="Cascadia Code NF" font-size="10.00">is_pair()</text>
<text text-anchor="start" x="4" y="-269" font-family="Cascadia Code NF" font-size="10.00">+</text>
<text text-anchor="start" x="14" y="-269" font-family="Cascadia Code NF" font-size="10.00">is_gp_pair()</text>
<text text-anchor="start" x="4" y="-253" font-family="Cascadia Code NF" font-size="10.00">+</text>
<text text-anchor="start" x="14" y="-253" font-family="Cascadia Code NF" font-size="10.00">is_fp_pair()</text>
<text text-anchor="start" x="4" y="-237" font-family="Cascadia Code NF" font-size="10.00">+</text>
<text text-anchor="start" x="14" y="-237" font-family="Cascadia Code NF" font-size="10.00">is_gp()</text>
<text text-anchor="start" x="4" y="-221" font-family="Cascadia Code NF" font-size="10.00">+</text>
<text text-anchor="start" x="14" y="-221" font-family="Cascadia Code NF" font-size="10.00">is_fp()</text>
<text text-anchor="start" x="4" y="-205" font-family="Cascadia Code NF" font-size="10.00">+</text>
<text text-anchor="start" x="14" y="-205" font-family="Cascadia Code NF" font-size="10.00">low()</text>
<text text-anchor="start" x="4" y="-189" font-family="Cascadia Code NF" font-size="10.00">+</text>
<text text-anchor="start" x="14" y="-189" font-family="Cascadia Code NF" font-size="10.00">high()</text>
<text text-anchor="start" x="4" y="-173" font-family="Cascadia Code NF" font-size="10.00">+</text>
<text text-anchor="start" x="14" y="-173" font-family="Cascadia Code NF" font-size="10.00">low_gp()</text>
<text text-anchor="start" x="14" y="-157" font-family="Cascadia Code NF" font-size="10.00">and 10 more...</text>
<text text-anchor="start" x="4" y="-141" font-family="Cascadia Code NF" font-size="10.00">+</text>
<text text-anchor="start" x="14" y="-141" font-family="Cascadia Code NF" font-size="10.00">from_liftoff_code()</text>
<text text-anchor="start" x="4" y="-125" font-family="Cascadia Code NF" font-size="10.00">+</text>
<text text-anchor="start" x="14" y="-125" font-family="Cascadia Code NF" font-size="10.00">from_code()</text>
<text text-anchor="start" x="4" y="-109" font-family="Cascadia Code NF" font-size="10.00">+</text>
<text text-anchor="start" x="14" y="-109" font-family="Cascadia Code NF" font-size="10.00">from_external_code()</text>
<text text-anchor="start" x="4" y="-93" font-family="Cascadia Code NF" font-size="10.00">+</text>
<text text-anchor="start" x="14" y="-93" font-family="Cascadia Code NF" font-size="10.00">ForPair()</text>
<text text-anchor="start" x="4" y="-77" font-family="Cascadia Code NF" font-size="10.00">+</text>
<text text-anchor="start" x="14" y="-77" font-family="Cascadia Code NF" font-size="10.00">ForFpPair()</text>
<polygon fill="#bfbfbf" stroke="#bfbfbf" points="0,-344.5 0,-344.5 138,-344.5 138,-344.5 0,-344.5"/>
<polygon fill="#bfbfbf" stroke="#bfbfbf" points="0,-328.5 0,-328.5 138,-328.5 138,-328.5 0,-328.5"/>
<polygon fill="none" stroke="#bfbfbf" points="0,-70.5 0,-375.5 138,-375.5 138,-70.5 0,-70.5"/>
</a>
</g>
</g>
<!-- Node2&#45;&gt;Node1 -->
<g id="edge1_Node000001_Node000002" class="edge">
<title>Node2&#45;&gt;Node1</title>
<g id="a_edge1_Node000001_Node000002"><a xlink:title=" ">
<path fill="none" stroke="#63b8ff" d="M137.78,-193.7C156.74,-185.5 177.77,-176.41 198.2,-167.58"/>
<polygon fill="none" stroke="#63b8ff" points="198.31,-167.53 202.23,-161.48 209.32,-162.77 205.4,-168.82 198.31,-167.53"/>
</a>
</g>
<text text-anchor="middle" x="174" y="-201" font-family="Cascadia Code NF" font-size="10.00" fill="grey"> +dst</text>
<text text-anchor="middle" x="174" y="-188.25" font-family="Cascadia Code NF" font-size="10.00" fill="grey">+src</text>
</g>
<!-- Node3 -->
<g id="Node000003" class="node">
<title>Node3</title>
<g id="a_Node000003"><a xlink:title=" ">
<polygon fill="white" stroke="none" points="101,-52 37,-52 37,0 101,0 101,-52"/>
<text text-anchor="start" x="42" y="-38.5" font-family="Cascadia Code NF" font-size="10.00">ValueKind</text>
<text text-anchor="start" x="66" y="-22.5" font-family="Cascadia Code NF" font-size="10.00"> </text>
<text text-anchor="start" x="66" y="-6.5" font-family="Cascadia Code NF" font-size="10.00"> </text>
<polygon fill="#bfbfbf" stroke="#bfbfbf" points="37,-34 37,-34 101,-34 101,-34 37,-34"/>
<polygon fill="#bfbfbf" stroke="#bfbfbf" points="37,-18 37,-18 101,-18 101,-18 37,-18"/>
<polygon fill="none" stroke="#bfbfbf" points="37,0 37,-52 101,-52 101,0 37,0"/>
</a>
</g>
</g>
<!-- Node3&#45;&gt;Node1 -->
<g id="edge2_Node000001_Node000003" class="edge">
<title>Node3&#45;&gt;Node1</title>
<g id="a_edge2_Node000001_Node000003"><a xlink:title=" ">
<path fill="none" stroke="#63b8ff" d="M100.88,-39.22C126.06,-49.99 163.09,-65.84 198.34,-80.92"/>
<polygon fill="none" stroke="#63b8ff" points="198.34,-80.92 205.43,-79.61 209.38,-85.65 202.29,-86.96 198.34,-80.92"/>
</a>
</g>
<text text-anchor="middle" x="174" y="-80.25" font-family="Cascadia Code NF" font-size="10.00" fill="grey"> +kind</text>
</g>
</g>
</svg>
</svg>

<style type='text/css'>
<![CDATA[
[data-mouse-over-selected='false'] { opacity: 0.7; }
[data-mouse-over-selected='true']  { opacity: 1.0; }
]]>
</style>
<script type="application/ecmascript"><![CDATA[
document.addEventListener('DOMContentLoaded', (event) => {
  highlightEdges();
  highlightAdjacentNodes();
});
]]></script>
</svg>
