<?xml version="1.0" encoding="UTF-8" standalone="no"?>
<!DOCTYPE svg PUBLIC "-//W3C//DTD SVG 1.1//EN"
 "http://www.w3.org/Graphics/SVG/1.1/DTD/svg11.dtd">
<!-- Generated by graphviz version 11.0.0 (20240428.1522)
 -->
<!-- Title: v8::internal::compiler::RangeType::Limits Pages: 1 -->
<svg width="262pt" height="153pt"
 viewBox="0.00 0.00 262.00 153.00" xmlns="http://www.w3.org/2000/svg" xmlns:xlink="http://www.w3.org/1999/xlink">
<g id="graph0" class="graph" transform="scale(1 1) rotate(0) translate(4 149)">
<title>v8::internal::compiler::RangeType::Limits</title>
<!-- Node1 -->
<g id="Node000001" class="node">
<title>Node1</title>
<g id="a_Node000001"><a xlink:title=" ">
<polygon fill="#999999" stroke="none" points="254,-145 112,-145 112,0 254,0 254,-145"/>
<text text-anchor="start" x="117" y="-131.5" font-family="Cascadia Code NF" font-size="10.00">v8::internal::compiler</text>
<text text-anchor="start" x="126" y="-118.75" font-family="Cascadia Code NF" font-size="10.00">::RangeType::Limits</text>
<text text-anchor="start" x="180" y="-102.5" font-family="Cascadia Code NF" font-size="10.00"> </text>
<text text-anchor="start" x="130.5" y="-86.5" font-family="Cascadia Code NF" font-size="10.00">+</text>
<text text-anchor="start" x="155" y="-86.5" font-family="Cascadia Code NF" font-size="10.00">Limits()</text>
<text text-anchor="start" x="130.5" y="-70.5" font-family="Cascadia Code NF" font-size="10.00">+</text>
<text text-anchor="start" x="155" y="-70.5" font-family="Cascadia Code NF" font-size="10.00">Limits()</text>
<text text-anchor="start" x="130.5" y="-54.5" font-family="Cascadia Code NF" font-size="10.00">+</text>
<text text-anchor="start" x="155" y="-54.5" font-family="Cascadia Code NF" font-size="10.00">IsEmpty()</text>
<text text-anchor="start" x="130.5" y="-38.5" font-family="Cascadia Code NF" font-size="10.00">+</text>
<text text-anchor="start" x="155" y="-38.5" font-family="Cascadia Code NF" font-size="10.00">Empty()</text>
<text text-anchor="start" x="130.5" y="-22.5" font-family="Cascadia Code NF" font-size="10.00">+</text>
<text text-anchor="start" x="155" y="-22.5" font-family="Cascadia Code NF" font-size="10.00">Intersect()</text>
<text text-anchor="start" x="130.5" y="-6.5" font-family="Cascadia Code NF" font-size="10.00">+</text>
<text text-anchor="start" x="155" y="-6.5" font-family="Cascadia Code NF" font-size="10.00">Union()</text>
<polygon fill="#666666" stroke="#666666" points="112,-114 112,-114 254,-114 254,-114 112,-114"/>
<polygon fill="#666666" stroke="#666666" points="112,-98 112,-98 254,-98 254,-98 112,-98"/>
<polygon fill="none" stroke="#666666" points="112,0 112,-145 254,-145 254,0 112,0"/>
</a>
</g>
</g>
<!-- Node2 -->
<g id="Node000002" class="node">
<title>Node2</title>
<g id="a_Node000002"><a xlink:title=" ">
<polygon fill="white" stroke="none" points="46,-98.5 0,-98.5 0,-46.5 46,-46.5 46,-98.5"/>
<text text-anchor="start" x="5" y="-85" font-family="Cascadia Code NF" font-size="10.00">double</text>
<text text-anchor="start" x="20" y="-69" font-family="Cascadia Code NF" font-size="10.00"> </text>
<text text-anchor="start" x="20" y="-53" font-family="Cascadia Code NF" font-size="10.00"> </text>
<polygon fill="#bfbfbf" stroke="#bfbfbf" points="0,-80.5 0,-80.5 46,-80.5 46,-80.5 0,-80.5"/>
<polygon fill="#bfbfbf" stroke="#bfbfbf" points="0,-64.5 0,-64.5 46,-64.5 46,-64.5 0,-64.5"/>
<polygon fill="none" stroke="#bfbfbf" points="0,-46.5 0,-98.5 46,-98.5 46,-46.5 0,-46.5"/>
</a>
</g>
</g>
<!-- Node2&#45;&gt;Node1 -->
<g id="edge1_Node000001_Node000002" class="edge">
<title>Node2&#45;&gt;Node1</title>
<g id="a_edge1_Node000001_Node000002"><a xlink:title=" ">
<path fill="none" stroke="#63b8ff" d="M45.97,-72.5C60.16,-72.5 79.6,-72.5 99.35,-72.5"/>
<polygon fill="none" stroke="#63b8ff" points="99.42,-72.5 105.42,-68.5 111.42,-72.5 105.42,-76.5 99.42,-72.5"/>
</a>
</g>
<text text-anchor="middle" x="79" y="-88.5" font-family="Cascadia Code NF" font-size="10.00" fill="grey"> +max</text>
<text text-anchor="middle" x="79" y="-75.75" font-family="Cascadia Code NF" font-size="10.00" fill="grey">+min</text>
</g>
</g>
</svg>
