<?xml version="1.0" encoding="UTF-8" standalone="no"?>
<!DOCTYPE svg PUBLIC "-//W3C//DTD SVG 1.1//EN"
 "http://www.w3.org/Graphics/SVG/1.1/DTD/svg11.dtd">
<!-- Generated by graphviz version 11.0.0 (20240428.1522)
 -->
<!-- Title: v8::internal::compiler::turboshaft::AssertTypesReducer&lt; Next &gt; Pages: 1 -->
<!--zoomable 118 -->

<svg id="main" version="1.1" xmlns="http://www.w3.org/2000/svg" xmlns:xlink="http://www.w3.org/1999/xlink" xml:space="preserve" onload="init(evt)">
<style type="text/css"><![CDATA[
.node, .edge {opacity: 0.7;}
.node.selected, .edge.selected {opacity: 1;}
.edge:hover path { stroke: red; }
.edge:hover polygon { stroke: red; fill: red; }
svg#main { background-color: #111; }
]]></style>

<defs>
  <circle id="rim" cx="0" cy="0" r="7"/>
  <circle id="rim2" cx="0" cy="0" r="3.5"/>
  <g id="zoomPlus">
    <use xlink:href="#rim" fill="#404040"><set attributeName="fill" to="#808080" begin="zoomplus.mouseover" end="zoomplus.mouseout"/></use>
    <path d="M-4,0h8M0,-4v8" fill="none" stroke="white" stroke-width="1.5" pointer-events="none"/>
  </g>
  <g id="zoomMin">
    <use xlink:href="#rim" fill="#404040"><set attributeName="fill" to="#808080" begin="zoomminus.mouseover" end="zoomminus.mouseout"/></use>
    <path d="M-4,0h8" fill="none" stroke="white" stroke-width="1.5" pointer-events="none"/>
  </g>
  <g id="arrowUp" transform="translate(30 24)">
    <use xlink:href="#rim"/>
    <path pointer-events="none" fill="none" stroke="white" stroke-width="1.5" d="M0,-3.0v7 M-2.5,-0.5L0,-3.0L2.5,-0.5"/>
  </g>
  <g id="arrowRight" transform="rotate(90) translate(36 -43)">
    <use xlink:href="#rim"/>
    <path pointer-events="none" fill="none" stroke="white" stroke-width="1.5" d="M0,-3.0v7 M-2.5,-0.5L0,-3.0L2.5,-0.5"/>
  </g>
  <g id="arrowDown" transform="rotate(180) translate(-30 -48)">
    <use xlink:href="#rim"/>
    <path pointer-events="none" fill="none" stroke="white" stroke-width="1.5" d="M0,-3.0v7 M-2.5,-0.5L0,-3.0L2.5,-0.5"/>
  </g>
  <g id="arrowLeft" transform="rotate(270) translate(-36 17)">
    <use xlink:href="#rim"/>
    <path pointer-events="none" fill="none" stroke="white" stroke-width="1.5" d="M0,-3.0v7 M-2.5,-0.5L0,-3.0L2.5,-0.5"/>
  </g>
  <g id="resetDef">
    <use xlink:href="#rim2" fill="#404040"><set attributeName="fill" to="#808080" begin="reset.mouseover" end="reset.mouseout"/></use>
  </g>
</defs>
<script type="application/ecmascript">
var viewWidth = 536;
var viewHeight = 118;
var sectionId = 'dynsection-0';
</script>
<script type="application/ecmascript" xlink:href="../../svg.min.js"/>
<svg id="graph" class="graph">
<g id="viewport">
<title>v8::internal::compiler::turboshaft::AssertTypesReducer&lt; Next &gt;</title>
<!-- Node1 -->
<g id="Node000001" class="node">
<title>Node1</title>
<g id="a_Node000001"><a xlink:title=" ">
<polygon fill="#999999" stroke="none" points="528,-110 326,-110 326,0 528,0 528,-110"/>
<text text-anchor="start" x="331" y="-96.5" font-family="Cascadia Code NF" font-size="10.00">v8::internal::compiler</text>
<text text-anchor="start" x="331" y="-83.75" font-family="Cascadia Code NF" font-size="10.00">::turboshaft::AssertTypesReducer</text>
<text text-anchor="start" x="403" y="-71" font-family="Cascadia Code NF" font-size="10.00">&lt; Next &gt;</text>
<text text-anchor="start" x="424" y="-54.5" font-family="Cascadia Code NF" font-size="10.00"> </text>
<text text-anchor="start" x="335.5" y="-38.5" font-family="Cascadia Code NF" font-size="10.00">+</text>
<text text-anchor="start" x="351" y="-38.5" font-family="Cascadia Code NF" font-size="10.00">NoContextConstant()</text>
<text text-anchor="start" x="335.5" y="-22.5" font-family="Cascadia Code NF" font-size="10.00">+</text>
<text text-anchor="start" x="351" y="-22.5" font-family="Cascadia Code NF" font-size="10.00">ReduceInputGraphOperation()</text>
<text text-anchor="start" x="335.5" y="-6.5" font-family="Cascadia Code NF" font-size="10.00">+</text>
<text text-anchor="start" x="351" y="-6.5" font-family="Cascadia Code NF" font-size="10.00">InsertTypeAssert()</text>
<polygon fill="#666666" stroke="#666666" points="326,-66 326,-66 528,-66 528,-66 326,-66"/>
<polygon fill="#666666" stroke="#666666" points="326,-50 326,-50 528,-50 528,-50 326,-50"/>
<polygon fill="none" stroke="#666666" points="326,0 326,-110 528,-110 528,0 326,0"/>
</a>
</g>
</g>
<!-- Node2 -->
<g id="Node000002" class="node">
<title>Node2</title>
<g id="a_Node000002"><a xlink:href="../../db/d89/classv8_1_1internal_1_1compiler_1_1turboshaft_1_1UniformReducerAdapter.html" target="_top" xlink:title=" ">
<polygon fill="white" stroke="none" points="290,-102 70,-102 70,-8 290,-8 290,-102"/>
<text text-anchor="start" x="75" y="-88.5" font-family="Cascadia Code NF" font-size="10.00">v8::internal::compiler</text>
<text text-anchor="start" x="75" y="-75.75" font-family="Cascadia Code NF" font-size="10.00">::turboshaft::UniformReducer</text>
<text text-anchor="start" x="75" y="-63" font-family="Cascadia Code NF" font-size="10.00">Adapter&lt; AssertTypesReducer, Next &gt;</text>
<text text-anchor="start" x="177" y="-46.5" font-family="Cascadia Code NF" font-size="10.00"> </text>
<text text-anchor="start" x="84" y="-30.5" font-family="Cascadia Code NF" font-size="10.00">+</text>
<text text-anchor="start" x="104" y="-30.5" font-family="Cascadia Code NF" font-size="10.00">ReduceOperation()</text>
<text text-anchor="start" x="84" y="-14.5" font-family="Cascadia Code NF" font-size="10.00">+</text>
<text text-anchor="start" x="104" y="-14.5" font-family="Cascadia Code NF" font-size="10.00">ReduceInputGraphOperation()</text>
<polygon fill="#bfbfbf" stroke="#bfbfbf" points="70,-58 70,-58 290,-58 290,-58 70,-58"/>
<polygon fill="#bfbfbf" stroke="#bfbfbf" points="70,-42 70,-42 290,-42 290,-42 70,-42"/>
<polygon fill="none" stroke="#bfbfbf" points="70,-8 70,-102 290,-102 290,-8 70,-8"/>
</a>
</g>
</g>
<!-- Node2&#45;&gt;Node1 -->
<g id="edge1_Node000001_Node000002" class="edge">
<title>Node2&#45;&gt;Node1</title>
<g id="a_edge1_Node000001_Node000002"><a xlink:title=" ">
<path fill="none" stroke="#63b8ff" d="M301.31,-55C309.7,-55 318.11,-55 326.37,-55"/>
<polygon fill="none" stroke="#63b8ff" points="301.4,-51.5 291.4,-55 301.4,-58.5 301.4,-51.5"/>
</a>
</g>
</g>
<!-- Node3 -->
<g id="Node000003" class="node">
<title>Node3</title>
<g id="a_Node000003"><a xlink:title=" ">
<polygon fill="white" stroke="none" points="34,-81 0,-81 0,-29 34,-29 34,-81"/>
<text text-anchor="start" x="5" y="-67.5" font-family="Cascadia Code NF" font-size="10.00">Next</text>
<text text-anchor="start" x="14" y="-51.5" font-family="Cascadia Code NF" font-size="10.00"> </text>
<text text-anchor="start" x="14" y="-35.5" font-family="Cascadia Code NF" font-size="10.00"> </text>
<polygon fill="#bfbfbf" stroke="#bfbfbf" points="0,-63 0,-63 34,-63 34,-63 0,-63"/>
<polygon fill="#bfbfbf" stroke="#bfbfbf" points="0,-47 0,-47 34,-47 34,-47 0,-47"/>
<polygon fill="none" stroke="#bfbfbf" points="0,-29 0,-81 34,-81 34,-29 0,-29"/>
</a>
</g>
</g>
<!-- Node3&#45;&gt;Node2 -->
<g id="edge2_Node000002_Node000003" class="edge">
<title>Node3&#45;&gt;Node2</title>
<g id="a_edge2_Node000002_Node000003"><a xlink:title=" ">
<path fill="none" stroke="#63b8ff" d="M45.13,-55C52.58,-55 61.15,-55 70.27,-55"/>
<polygon fill="none" stroke="#63b8ff" points="45.24,-51.5 35.24,-55 45.24,-58.5 45.24,-51.5"/>
</a>
</g>
</g>
</g>
</svg>

<g id="navigator" transform="translate(0 0)" fill="#404254">
  <rect fill="#f2f5e9" fill-opacity="0.5" stroke="#606060" stroke-width=".5" x="0" y="0" width="60" height="60"/>
  <use id="zoomplus" xlink:href="#zoomPlus" x="17" y="9" onmousedown="handleZoom(evt,'in')"/>
  <use id="zoomminus" xlink:href="#zoomMin" x="42" y="9" onmousedown="handleZoom(evt,'out')"/>
  <use id="reset" xlink:href="#resetDef" x="30" y="36" onmousedown="handleReset()"/>
   <use id="arrowup" xlink:href="#arrowUp" x="0" y="0" onmousedown="handlePan(0,-1)"/>
  <use id="arrowright" xlink:href="#arrowRight" x="0" y="0" onmousedown="handlePan(1,0)"/>
  <use id="arrowdown" xlink:href="#arrowDown" x="0" y="0" onmousedown="handlePan(0,1)"/>
  <use id="arrowleft" xlink:href="#arrowLeft" x="0" y="0" onmousedown="handlePan(-1,0)"/>
</g>
<svg viewBox="0 0 15 15" width="100%" height="30px" preserveAspectRatio="xMaxYMin meet">
 <g id="arrow_out" transform="scale(0.3 0.3)">
  <a xlink:href="classv8_1_1internal_1_1compiler_1_1turboshaft_1_1AssertTypesReducer__inherit__graph_org.svg" target="_base">
   <rect id="button" ry="5" rx="5" y="6" x="6" height="38" width="38"
        fill="#f2f5e9" fill-opacity="0.5" stroke="#606060" stroke-width="1.0"/>
   <path id="arrow"
     d="M 11.500037,31.436501 C 11.940474,20.09759 22.043105,11.32322 32.158766,21.979434 L 37.068811,17.246167 C 37.068811,17.246167 37.088388,32 37.088388,32 L 22.160133,31.978069 C 22.160133,31.978069 26.997745,27.140456 26.997745,27.140456 C 18.528582,18.264221 13.291696,25.230495 11.500037,31.436501 z"
     style="fill:#404040;"/>
  </a>
 </g>
</svg>

<style type='text/css'>
<![CDATA[
[data-mouse-over-selected='false'] { opacity: 0.7; }
[data-mouse-over-selected='true']  { opacity: 1.0; }
]]>
</style>
<script type="application/ecmascript"><![CDATA[
document.addEventListener('DOMContentLoaded', (event) => {
  highlightEdges();
  highlightAdjacentNodes();
});
]]></script>
</svg>
