<?xml version="1.0" encoding="UTF-8" standalone="no"?>
<!DOCTYPE svg PUBLIC "-//W3C//DTD SVG 1.1//EN"
 "http://www.w3.org/Graphics/SVG/1.1/DTD/svg11.dtd">
<!-- Generated by graphviz version 11.0.0 (20240428.1522)
 -->
<!-- Title: v8::internal::CustomArgumentsBase Pages: 1 -->
<svg width="944pt" height="673pt"
 viewBox="0.00 0.00 944.00 672.50" xmlns="http://www.w3.org/2000/svg" xmlns:xlink="http://www.w3.org/1999/xlink">
<g id="graph0" class="graph" transform="scale(1 1) rotate(0) translate(4 668.5)">
<title>v8::internal::CustomArgumentsBase</title>
<!-- Node1 -->
<g id="Node000001" class="node">
<title>Node1</title>
<g id="a_Node000001"><a xlink:title=" ">
<polygon fill="#999999" stroke="none" points="460,-297 252,-297 252,-245 460,-245 460,-297"/>
<text text-anchor="start" x="257" y="-283.5" font-family="Cascadia Code NF" font-size="10.00">v8::internal::CustomArgumentsBase</text>
<text text-anchor="start" x="353" y="-267.5" font-family="Cascadia Code NF" font-size="10.00"> </text>
<text text-anchor="start" x="272" y="-251.5" font-family="Cascadia Code NF" font-size="10.00">#</text>
<text text-anchor="start" x="298" y="-251.5" font-family="Cascadia Code NF" font-size="10.00">CustomArgumentsBase()</text>
<polygon fill="#666666" stroke="#666666" points="252,-279 252,-279 460,-279 460,-279 252,-279"/>
<polygon fill="#666666" stroke="#666666" points="252,-263 252,-263 460,-263 460,-263 252,-263"/>
<polygon fill="none" stroke="#666666" points="252,-245 252,-297 460,-297 460,-245 252,-245"/>
</a>
</g>
</g>
<!-- Node3 -->
<g id="Node000003" class="node">
<title>Node3</title>
<g id="a_Node000003"><a xlink:href="../../dc/d9a/classv8_1_1internal_1_1CustomArguments.html" target="_top" xlink:title=" ">
<polygon fill="white" stroke="none" points="707,-606.5 499,-606.5 499,-429.5 707,-429.5 707,-606.5"/>
<text text-anchor="start" x="504" y="-593" font-family="Cascadia Code NF" font-size="10.00">v8::internal::CustomArguments</text>
<text text-anchor="start" x="504" y="-580.25" font-family="Cascadia Code NF" font-size="10.00">&lt; FunctionCallbackInfo&lt; Value &gt; &gt;</text>
<text text-anchor="start" x="510" y="-564" font-family="Cascadia Code NF" font-size="10.00">+</text>
<text text-anchor="start" x="527" y="-564" font-family="Cascadia Code NF" font-size="10.00">kReturnValueIndex</text>
<text text-anchor="start" x="510" y="-548" font-family="Cascadia Code NF" font-size="10.00">#</text>
<text text-anchor="start" x="527" y="-548" font-family="Cascadia Code NF" font-size="10.00">values_</text>
<text text-anchor="start" x="510" y="-532" font-family="Cascadia Code NF" font-size="10.00">+</text>
<text text-anchor="start" x="527" y="-532" font-family="Cascadia Code NF" font-size="10.00">~CustomArguments()</text>
<text text-anchor="start" x="510" y="-516" font-family="Cascadia Code NF" font-size="10.00">+</text>
<text text-anchor="start" x="527" y="-516" font-family="Cascadia Code NF" font-size="10.00">IterateInstance()</text>
<text text-anchor="start" x="510" y="-500" font-family="Cascadia Code NF" font-size="10.00">#</text>
<text text-anchor="start" x="527" y="-500" font-family="Cascadia Code NF" font-size="10.00">CustomArguments()</text>
<text text-anchor="start" x="510" y="-484" font-family="Cascadia Code NF" font-size="10.00">#</text>
<text text-anchor="start" x="527" y="-484" font-family="Cascadia Code NF" font-size="10.00">GetReturnValue()</text>
<text text-anchor="start" x="510" y="-468" font-family="Cascadia Code NF" font-size="10.00">#</text>
<text text-anchor="start" x="527" y="-468" font-family="Cascadia Code NF" font-size="10.00">GetReturnValueNoHoleCheck()</text>
<text text-anchor="start" x="510" y="-452" font-family="Cascadia Code NF" font-size="10.00">#</text>
<text text-anchor="start" x="527" y="-452" font-family="Cascadia Code NF" font-size="10.00">isolate()</text>
<text text-anchor="start" x="510" y="-436" font-family="Cascadia Code NF" font-size="10.00">#</text>
<text text-anchor="start" x="527" y="-436" font-family="Cascadia Code NF" font-size="10.00">slot_at()</text>
<polygon fill="#bfbfbf" stroke="#bfbfbf" points="499,-575.5 499,-575.5 707,-575.5 707,-575.5 499,-575.5"/>
<polygon fill="#bfbfbf" stroke="#bfbfbf" points="499,-543.5 499,-543.5 525,-543.5 525,-543.5 499,-543.5"/>
<polygon fill="#bfbfbf" stroke="#bfbfbf" points="525,-543.5 525,-543.5 707,-543.5 707,-543.5 525,-543.5"/>
<polygon fill="none" stroke="#bfbfbf" points="499,-429.5 499,-606.5 707,-606.5 707,-429.5 499,-429.5"/>
</a>
</g>
</g>
<!-- Node1&#45;&gt;Node3 -->
<g id="edge2_Node000001_Node000003" class="edge">
<title>Node1&#45;&gt;Node3</title>
<g id="a_edge2_Node000001_Node000003"><a xlink:title=" ">
<path fill="none" stroke="#63b8ff" d="M390.85,-305.13C422.63,-337.17 471.56,-386.49 514.31,-429.6"/>
<polygon fill="none" stroke="#63b8ff" points="393.35,-302.68 383.82,-298.04 388.38,-307.61 393.35,-302.68"/>
</a>
</g>
</g>
<!-- Node5 -->
<g id="Node000005" class="node">
<title>Node5</title>
<g id="a_Node000005"><a xlink:href="../../dc/d9a/classv8_1_1internal_1_1CustomArguments.html" target="_top" xlink:title=" ">
<polygon fill="white" stroke="none" points="707,-359.5 499,-359.5 499,-182.5 707,-182.5 707,-359.5"/>
<text text-anchor="start" x="504" y="-346" font-family="Cascadia Code NF" font-size="10.00">v8::internal::CustomArguments</text>
<text text-anchor="start" x="504" y="-333.25" font-family="Cascadia Code NF" font-size="10.00">&lt; PropertyCallbackInfo&lt; Value &gt; &gt;</text>
<text text-anchor="start" x="510" y="-317" font-family="Cascadia Code NF" font-size="10.00">+</text>
<text text-anchor="start" x="527" y="-317" font-family="Cascadia Code NF" font-size="10.00">kReturnValueIndex</text>
<text text-anchor="start" x="510" y="-301" font-family="Cascadia Code NF" font-size="10.00">#</text>
<text text-anchor="start" x="527" y="-301" font-family="Cascadia Code NF" font-size="10.00">values_</text>
<text text-anchor="start" x="510" y="-285" font-family="Cascadia Code NF" font-size="10.00">+</text>
<text text-anchor="start" x="527" y="-285" font-family="Cascadia Code NF" font-size="10.00">~CustomArguments()</text>
<text text-anchor="start" x="510" y="-269" font-family="Cascadia Code NF" font-size="10.00">+</text>
<text text-anchor="start" x="527" y="-269" font-family="Cascadia Code NF" font-size="10.00">IterateInstance()</text>
<text text-anchor="start" x="510" y="-253" font-family="Cascadia Code NF" font-size="10.00">#</text>
<text text-anchor="start" x="527" y="-253" font-family="Cascadia Code NF" font-size="10.00">CustomArguments()</text>
<text text-anchor="start" x="510" y="-237" font-family="Cascadia Code NF" font-size="10.00">#</text>
<text text-anchor="start" x="527" y="-237" font-family="Cascadia Code NF" font-size="10.00">GetReturnValue()</text>
<text text-anchor="start" x="510" y="-221" font-family="Cascadia Code NF" font-size="10.00">#</text>
<text text-anchor="start" x="527" y="-221" font-family="Cascadia Code NF" font-size="10.00">GetReturnValueNoHoleCheck()</text>
<text text-anchor="start" x="510" y="-205" font-family="Cascadia Code NF" font-size="10.00">#</text>
<text text-anchor="start" x="527" y="-205" font-family="Cascadia Code NF" font-size="10.00">isolate()</text>
<text text-anchor="start" x="510" y="-189" font-family="Cascadia Code NF" font-size="10.00">#</text>
<text text-anchor="start" x="527" y="-189" font-family="Cascadia Code NF" font-size="10.00">slot_at()</text>
<polygon fill="#bfbfbf" stroke="#bfbfbf" points="499,-328.5 499,-328.5 707,-328.5 707,-328.5 499,-328.5"/>
<polygon fill="#bfbfbf" stroke="#bfbfbf" points="499,-296.5 499,-296.5 525,-296.5 525,-296.5 499,-296.5"/>
<polygon fill="#bfbfbf" stroke="#bfbfbf" points="525,-296.5 525,-296.5 707,-296.5 707,-296.5 525,-296.5"/>
<polygon fill="none" stroke="#bfbfbf" points="499,-182.5 499,-359.5 707,-359.5 707,-182.5 499,-182.5"/>
</a>
</g>
</g>
<!-- Node1&#45;&gt;Node5 -->
<g id="edge4_Node000001_Node000005" class="edge">
<title>Node1&#45;&gt;Node5</title>
<g id="a_edge4_Node000001_Node000005"><a xlink:title=" ">
<path fill="none" stroke="#63b8ff" d="M471.14,-271C480.45,-271 489.82,-271 499.03,-271"/>
<polygon fill="none" stroke="#63b8ff" points="471.35,-267.5 461.35,-271 471.35,-274.5 471.35,-267.5"/>
</a>
</g>
</g>
<!-- Node7 -->
<g id="Node000007" class="node">
<title>Node7</title>
<g id="a_Node000007"><a xlink:href="../../dc/d9a/classv8_1_1internal_1_1CustomArguments.html" target="_top" xlink:title=" ">
<polygon fill="white" stroke="none" points="710,-164 496,-164 496,0 710,0 710,-164"/>
<text text-anchor="start" x="501" y="-150.5" font-family="Cascadia Code NF" font-size="10.00">v8::internal::CustomArguments&lt; T &gt;</text>
<text text-anchor="start" x="508.5" y="-134.5" font-family="Cascadia Code NF" font-size="10.00">+</text>
<text text-anchor="start" x="527" y="-134.5" font-family="Cascadia Code NF" font-size="10.00">kReturnValueIndex</text>
<text text-anchor="start" x="508.5" y="-118.5" font-family="Cascadia Code NF" font-size="10.00">#</text>
<text text-anchor="start" x="527" y="-118.5" font-family="Cascadia Code NF" font-size="10.00">values_</text>
<text text-anchor="start" x="508.5" y="-102.5" font-family="Cascadia Code NF" font-size="10.00">+</text>
<text text-anchor="start" x="527" y="-102.5" font-family="Cascadia Code NF" font-size="10.00">~CustomArguments()</text>
<text text-anchor="start" x="508.5" y="-86.5" font-family="Cascadia Code NF" font-size="10.00">+</text>
<text text-anchor="start" x="527" y="-86.5" font-family="Cascadia Code NF" font-size="10.00">IterateInstance()</text>
<text text-anchor="start" x="508.5" y="-70.5" font-family="Cascadia Code NF" font-size="10.00">#</text>
<text text-anchor="start" x="527" y="-70.5" font-family="Cascadia Code NF" font-size="10.00">CustomArguments()</text>
<text text-anchor="start" x="508.5" y="-54.5" font-family="Cascadia Code NF" font-size="10.00">#</text>
<text text-anchor="start" x="527" y="-54.5" font-family="Cascadia Code NF" font-size="10.00">GetReturnValue()</text>
<text text-anchor="start" x="508.5" y="-38.5" font-family="Cascadia Code NF" font-size="10.00">#</text>
<text text-anchor="start" x="527" y="-38.5" font-family="Cascadia Code NF" font-size="10.00">GetReturnValueNoHoleCheck()</text>
<text text-anchor="start" x="508.5" y="-22.5" font-family="Cascadia Code NF" font-size="10.00">#</text>
<text text-anchor="start" x="527" y="-22.5" font-family="Cascadia Code NF" font-size="10.00">isolate()</text>
<text text-anchor="start" x="508.5" y="-6.5" font-family="Cascadia Code NF" font-size="10.00">#</text>
<text text-anchor="start" x="527" y="-6.5" font-family="Cascadia Code NF" font-size="10.00">slot_at()</text>
<polygon fill="#bfbfbf" stroke="#bfbfbf" points="496,-146 496,-146 710,-146 710,-146 496,-146"/>
<polygon fill="#bfbfbf" stroke="#bfbfbf" points="496,-114 496,-114 525,-114 525,-114 496,-114"/>
<polygon fill="#bfbfbf" stroke="#bfbfbf" points="525,-114 525,-114 710,-114 710,-114 525,-114"/>
<polygon fill="none" stroke="#bfbfbf" points="496,0 496,-164 710,-164 710,0 496,0"/>
</a>
</g>
</g>
<!-- Node1&#45;&gt;Node7 -->
<g id="edge6_Node000001_Node000007" class="edge">
<title>Node1&#45;&gt;Node7</title>
<g id="a_edge6_Node000001_Node000007"><a xlink:title=" ">
<path fill="none" stroke="#63b8ff" d="M399.63,-238.11C426.41,-217.45 462.22,-189.83 496.27,-163.57"/>
<polygon fill="none" stroke="#63b8ff" points="397.53,-235.31 391.75,-244.19 401.81,-240.86 397.53,-235.31"/>
</a>
</g>
</g>
<!-- Node2 -->
<g id="Node000002" class="node">
<title>Node2</title>
<g id="a_Node000002"><a xlink:href="../../da/d4f/classv8_1_1internal_1_1Relocatable.html" target="_top" xlink:title=" ">
<polygon fill="white" stroke="none" points="216,-377 0,-377 0,-165 216,-165 216,-377"/>
<text text-anchor="start" x="33" y="-363.5" font-family="Cascadia Code NF" font-size="10.00">v8::internal::Relocatable</text>
<text text-anchor="start" x="105" y="-347.5" font-family="Cascadia Code NF" font-size="10.00"> </text>
<text text-anchor="start" x="4" y="-331.5" font-family="Cascadia Code NF" font-size="10.00">+</text>
<text text-anchor="start" x="14" y="-331.5" font-family="Cascadia Code NF" font-size="10.00">Relocatable()</text>
<text text-anchor="start" x="4" y="-315.5" font-family="Cascadia Code NF" font-size="10.00">+</text>
<text text-anchor="start" x="14" y="-315.5" font-family="Cascadia Code NF" font-size="10.00">~Relocatable()</text>
<text text-anchor="start" x="4" y="-299.5" font-family="Cascadia Code NF" font-size="10.00">+</text>
<text text-anchor="start" x="14" y="-299.5" font-family="Cascadia Code NF" font-size="10.00">IterateInstance()</text>
<text text-anchor="start" x="4" y="-283.5" font-family="Cascadia Code NF" font-size="10.00">+</text>
<text text-anchor="start" x="14" y="-283.5" font-family="Cascadia Code NF" font-size="10.00">PostGarbageCollection()</text>
<text text-anchor="start" x="4" y="-267.5" font-family="Cascadia Code NF" font-size="10.00">+</text>
<text text-anchor="start" x="14" y="-267.5" font-family="Cascadia Code NF" font-size="10.00">PostGarbageCollectionProcessing()</text>
<text text-anchor="start" x="4" y="-251.5" font-family="Cascadia Code NF" font-size="10.00">+</text>
<text text-anchor="start" x="14" y="-251.5" font-family="Cascadia Code NF" font-size="10.00">ArchiveSpacePerThread()</text>
<text text-anchor="start" x="4" y="-235.5" font-family="Cascadia Code NF" font-size="10.00">+</text>
<text text-anchor="start" x="14" y="-235.5" font-family="Cascadia Code NF" font-size="10.00">ArchiveState()</text>
<text text-anchor="start" x="4" y="-219.5" font-family="Cascadia Code NF" font-size="10.00">+</text>
<text text-anchor="start" x="14" y="-219.5" font-family="Cascadia Code NF" font-size="10.00">RestoreState()</text>
<text text-anchor="start" x="4" y="-203.5" font-family="Cascadia Code NF" font-size="10.00">+</text>
<text text-anchor="start" x="14" y="-203.5" font-family="Cascadia Code NF" font-size="10.00">Iterate()</text>
<text text-anchor="start" x="4" y="-187.5" font-family="Cascadia Code NF" font-size="10.00">+</text>
<text text-anchor="start" x="14" y="-187.5" font-family="Cascadia Code NF" font-size="10.00">Iterate()</text>
<text text-anchor="start" x="4" y="-171.5" font-family="Cascadia Code NF" font-size="10.00">+</text>
<text text-anchor="start" x="14" y="-171.5" font-family="Cascadia Code NF" font-size="10.00">Iterate()</text>
<polygon fill="#bfbfbf" stroke="#bfbfbf" points="0,-359 0,-359 216,-359 216,-359 0,-359"/>
<polygon fill="#bfbfbf" stroke="#bfbfbf" points="0,-343 0,-343 216,-343 216,-343 0,-343"/>
<polygon fill="none" stroke="#bfbfbf" points="0,-165 0,-377 216,-377 216,-165 0,-165"/>
</a>
</g>
</g>
<!-- Node2&#45;&gt;Node1 -->
<g id="edge1_Node000001_Node000002" class="edge">
<title>Node2&#45;&gt;Node1</title>
<g id="a_edge1_Node000001_Node000002"><a xlink:title=" ">
<path fill="none" stroke="#63b8ff" d="M227.18,-271C235.53,-271 243.91,-271 252.16,-271"/>
<polygon fill="none" stroke="#63b8ff" points="227.34,-267.5 217.34,-271 227.34,-274.5 227.34,-267.5"/>
</a>
</g>
</g>
<!-- Node4 -->
<g id="Node000004" class="node">
<title>Node4</title>
<g id="a_Node000004"><a xlink:href="../../d3/d4f/classv8_1_1internal_1_1FunctionCallbackArguments.html" target="_top" xlink:title=" ">
<polygon fill="white" stroke="none" points="936,-664.5 746,-664.5 746,-423.5 936,-423.5 936,-664.5"/>
<text text-anchor="start" x="751" y="-651" font-family="Cascadia Code NF" font-size="10.00">v8::internal::FunctionCallback</text>
<text text-anchor="start" x="814" y="-638.25" font-family="Cascadia Code NF" font-size="10.00">Arguments</text>
<text text-anchor="start" x="752.5" y="-622" font-family="Cascadia Code NF" font-size="10.00">+</text>
<text text-anchor="start" x="765" y="-622" font-family="Cascadia Code NF" font-size="10.00">kArgsLength</text>
<text text-anchor="start" x="752.5" y="-606" font-family="Cascadia Code NF" font-size="10.00">+</text>
<text text-anchor="start" x="765" y="-606" font-family="Cascadia Code NF" font-size="10.00">kArgsLengthWithReceiver</text>
<text text-anchor="start" x="752.5" y="-590" font-family="Cascadia Code NF" font-size="10.00">+</text>
<text text-anchor="start" x="765" y="-590" font-family="Cascadia Code NF" font-size="10.00">kHolderIndex</text>
<text text-anchor="start" x="752.5" y="-574" font-family="Cascadia Code NF" font-size="10.00">+</text>
<text text-anchor="start" x="765" y="-574" font-family="Cascadia Code NF" font-size="10.00">kIsolateIndex</text>
<text text-anchor="start" x="752.5" y="-558" font-family="Cascadia Code NF" font-size="10.00">+</text>
<text text-anchor="start" x="765" y="-558" font-family="Cascadia Code NF" font-size="10.00">kUnusedIndex</text>
<text text-anchor="start" x="752.5" y="-542" font-family="Cascadia Code NF" font-size="10.00">+</text>
<text text-anchor="start" x="765" y="-542" font-family="Cascadia Code NF" font-size="10.00">kDataIndex</text>
<text text-anchor="start" x="752.5" y="-526" font-family="Cascadia Code NF" font-size="10.00">+</text>
<text text-anchor="start" x="765" y="-526" font-family="Cascadia Code NF" font-size="10.00">kNewTargetIndex</text>
<text text-anchor="start" x="752.5" y="-510" font-family="Cascadia Code NF" font-size="10.00">+</text>
<text text-anchor="start" x="765" y="-510" font-family="Cascadia Code NF" font-size="10.00">kSize</text>
<text text-anchor="start" x="752.5" y="-494" font-family="Cascadia Code NF" font-size="10.00">+</text>
<text text-anchor="start" x="765" y="-494" font-family="Cascadia Code NF" font-size="10.00">kImplicitArgsOffset</text>
<text text-anchor="start" x="752.5" y="-478" font-family="Cascadia Code NF" font-size="10.00">+</text>
<text text-anchor="start" x="765" y="-478" font-family="Cascadia Code NF" font-size="10.00">kValuesOffset</text>
<text text-anchor="start" x="752.5" y="-462" font-family="Cascadia Code NF" font-size="10.00">+</text>
<text text-anchor="start" x="765" y="-462" font-family="Cascadia Code NF" font-size="10.00">kLengthOffset</text>
<text text-anchor="start" x="752.5" y="-446" font-family="Cascadia Code NF" font-size="10.00">+</text>
<text text-anchor="start" x="765" y="-446" font-family="Cascadia Code NF" font-size="10.00">FunctionCallbackArguments()</text>
<text text-anchor="start" x="752.5" y="-430" font-family="Cascadia Code NF" font-size="10.00">+</text>
<text text-anchor="start" x="765" y="-430" font-family="Cascadia Code NF" font-size="10.00">Call()</text>
<polygon fill="#bfbfbf" stroke="#bfbfbf" points="746,-633.5 746,-633.5 936,-633.5 936,-633.5 746,-633.5"/>
<polygon fill="#bfbfbf" stroke="#bfbfbf" points="746,-457.5 746,-457.5 763,-457.5 763,-457.5 746,-457.5"/>
<polygon fill="#bfbfbf" stroke="#bfbfbf" points="763,-457.5 763,-457.5 936,-457.5 936,-457.5 763,-457.5"/>
<polygon fill="none" stroke="#bfbfbf" points="746,-423.5 746,-664.5 936,-664.5 936,-423.5 746,-423.5"/>
</a>
</g>
</g>
<!-- Node3&#45;&gt;Node4 -->
<g id="edge3_Node000003_Node000004" class="edge">
<title>Node3&#45;&gt;Node4</title>
<g id="a_edge3_Node000003_Node000004"><a xlink:title=" ">
<path fill="none" stroke="#63b8ff" d="M718.18,-530.58C727.52,-531.61 736.89,-532.64 746.06,-533.65"/>
<polygon fill="none" stroke="#63b8ff" points="718.65,-527.11 708.33,-529.49 717.89,-534.07 718.65,-527.11"/>
</a>
</g>
</g>
<!-- Node6 -->
<g id="Node000006" class="node">
<title>Node6</title>
<g id="a_Node000006"><a xlink:href="../../d0/dea/classv8_1_1internal_1_1PropertyCallbackArguments.html" target="_top" xlink:title=" ">
<polygon fill="white" stroke="none" points="936,-405.5 746,-405.5 746,-84.5 936,-84.5 936,-405.5"/>
<text text-anchor="start" x="751" y="-392" font-family="Cascadia Code NF" font-size="10.00">v8::internal::PropertyCallback</text>
<text text-anchor="start" x="814" y="-379.25" font-family="Cascadia Code NF" font-size="10.00">Arguments</text>
<text text-anchor="start" x="751" y="-363" font-family="Cascadia Code NF" font-size="10.00">+</text>
<text text-anchor="start" x="762" y="-363" font-family="Cascadia Code NF" font-size="10.00">kArgsLength</text>
<text text-anchor="start" x="751" y="-347" font-family="Cascadia Code NF" font-size="10.00">+</text>
<text text-anchor="start" x="762" y="-347" font-family="Cascadia Code NF" font-size="10.00">kThisIndex</text>
<text text-anchor="start" x="751" y="-331" font-family="Cascadia Code NF" font-size="10.00">+</text>
<text text-anchor="start" x="762" y="-331" font-family="Cascadia Code NF" font-size="10.00">kDataIndex</text>
<text text-anchor="start" x="751" y="-315" font-family="Cascadia Code NF" font-size="10.00">+</text>
<text text-anchor="start" x="762" y="-315" font-family="Cascadia Code NF" font-size="10.00">kUnusedIndex</text>
<text text-anchor="start" x="751" y="-299" font-family="Cascadia Code NF" font-size="10.00">+</text>
<text text-anchor="start" x="762" y="-299" font-family="Cascadia Code NF" font-size="10.00">kHolderIndex</text>
<text text-anchor="start" x="751" y="-283" font-family="Cascadia Code NF" font-size="10.00">+</text>
<text text-anchor="start" x="762" y="-283" font-family="Cascadia Code NF" font-size="10.00">kIsolateIndex</text>
<text text-anchor="start" x="751" y="-267" font-family="Cascadia Code NF" font-size="10.00">+</text>
<text text-anchor="start" x="762" y="-267" font-family="Cascadia Code NF" font-size="10.00">kShouldThrowOnErrorIndex</text>
<text text-anchor="start" x="751" y="-251" font-family="Cascadia Code NF" font-size="10.00">+</text>
<text text-anchor="start" x="762" y="-251" font-family="Cascadia Code NF" font-size="10.00">PropertyCallbackArguments()</text>
<text text-anchor="start" x="751" y="-235" font-family="Cascadia Code NF" font-size="10.00">+</text>
<text text-anchor="start" x="762" y="-235" font-family="Cascadia Code NF" font-size="10.00">~PropertyCallbackArguments()</text>
<text text-anchor="start" x="751" y="-219" font-family="Cascadia Code NF" font-size="10.00">+</text>
<text text-anchor="start" x="762" y="-219" font-family="Cascadia Code NF" font-size="10.00">PropertyCallbackArguments()</text>
<text text-anchor="start" x="751" y="-203" font-family="Cascadia Code NF" font-size="10.00">+</text>
<text text-anchor="start" x="762" y="-203" font-family="Cascadia Code NF" font-size="10.00">operator=()</text>
<text text-anchor="start" x="751" y="-187" font-family="Cascadia Code NF" font-size="10.00">+</text>
<text text-anchor="start" x="762" y="-187" font-family="Cascadia Code NF" font-size="10.00">CallAccessorSetter()</text>
<text text-anchor="start" x="751" y="-171" font-family="Cascadia Code NF" font-size="10.00">+</text>
<text text-anchor="start" x="762" y="-171" font-family="Cascadia Code NF" font-size="10.00">CallAccessorGetter()</text>
<text text-anchor="start" x="751" y="-155" font-family="Cascadia Code NF" font-size="10.00">+</text>
<text text-anchor="start" x="762" y="-155" font-family="Cascadia Code NF" font-size="10.00">CallNamedQuery()</text>
<text text-anchor="start" x="751" y="-139" font-family="Cascadia Code NF" font-size="10.00">+</text>
<text text-anchor="start" x="762" y="-139" font-family="Cascadia Code NF" font-size="10.00">CallNamedGetter()</text>
<text text-anchor="start" x="751" y="-123" font-family="Cascadia Code NF" font-size="10.00">+</text>
<text text-anchor="start" x="762" y="-123" font-family="Cascadia Code NF" font-size="10.00">CallNamedSetter()</text>
<text text-anchor="start" x="751" y="-107" font-family="Cascadia Code NF" font-size="10.00">+</text>
<text text-anchor="start" x="762" y="-107" font-family="Cascadia Code NF" font-size="10.00">CallNamedDefiner()</text>
<text text-anchor="start" x="762" y="-91" font-family="Cascadia Code NF" font-size="10.00">and 11 more...</text>
<polygon fill="#bfbfbf" stroke="#bfbfbf" points="746,-374.5 746,-374.5 936,-374.5 936,-374.5 746,-374.5"/>
<polygon fill="#bfbfbf" stroke="#bfbfbf" points="746,-262.5 746,-262.5 760,-262.5 760,-262.5 746,-262.5"/>
<polygon fill="#bfbfbf" stroke="#bfbfbf" points="760,-262.5 760,-262.5 936,-262.5 936,-262.5 760,-262.5"/>
<polygon fill="none" stroke="#bfbfbf" points="746,-84.5 746,-405.5 936,-405.5 936,-84.5 746,-84.5"/>
</a>
</g>
</g>
<!-- Node5&#45;&gt;Node6 -->
<g id="edge5_Node000005_Node000006" class="edge">
<title>Node5&#45;&gt;Node6</title>
<g id="a_edge5_Node000005_Node000006"><a xlink:title=" ">
<path fill="none" stroke="#63b8ff" d="M718.18,-258.42C727.52,-257.39 736.89,-256.36 746.06,-255.35"/>
<polygon fill="none" stroke="#63b8ff" points="717.89,-254.93 708.33,-259.51 718.65,-261.89 717.89,-254.93"/>
</a>
</g>
</g>
</g>
</svg>
