<?xml version="1.0" encoding="UTF-8" standalone="no"?>
<!DOCTYPE svg PUBLIC "-//W3C//DTD SVG 1.1//EN"
 "http://www.w3.org/Graphics/SVG/1.1/DTD/svg11.dtd">
<!-- Generated by graphviz version 11.0.0 (20240428.1522)
 -->
<!-- Title: v8::internal::JSArrayBufferView Pages: 1 -->
<!--zoomable 365 -->

<svg id="main" version="1.1" xmlns="http://www.w3.org/2000/svg" xmlns:xlink="http://www.w3.org/1999/xlink" xml:space="preserve" onload="init(evt)">
<style type="text/css"><![CDATA[
.node, .edge {opacity: 0.7;}
.node.selected, .edge.selected {opacity: 1;}
.edge:hover path { stroke: red; }
.edge:hover polygon { stroke: red; fill: red; }
svg#main { background-color: #111; }
]]></style>

<defs>
  <circle id="rim" cx="0" cy="0" r="7"/>
  <circle id="rim2" cx="0" cy="0" r="3.5"/>
  <g id="zoomPlus">
    <use xlink:href="#rim" fill="#404040"><set attributeName="fill" to="#808080" begin="zoomplus.mouseover" end="zoomplus.mouseout"/></use>
    <path d="M-4,0h8M0,-4v8" fill="none" stroke="white" stroke-width="1.5" pointer-events="none"/>
  </g>
  <g id="zoomMin">
    <use xlink:href="#rim" fill="#404040"><set attributeName="fill" to="#808080" begin="zoomminus.mouseover" end="zoomminus.mouseout"/></use>
    <path d="M-4,0h8" fill="none" stroke="white" stroke-width="1.5" pointer-events="none"/>
  </g>
  <g id="arrowUp" transform="translate(30 24)">
    <use xlink:href="#rim"/>
    <path pointer-events="none" fill="none" stroke="white" stroke-width="1.5" d="M0,-3.0v7 M-2.5,-0.5L0,-3.0L2.5,-0.5"/>
  </g>
  <g id="arrowRight" transform="rotate(90) translate(36 -43)">
    <use xlink:href="#rim"/>
    <path pointer-events="none" fill="none" stroke="white" stroke-width="1.5" d="M0,-3.0v7 M-2.5,-0.5L0,-3.0L2.5,-0.5"/>
  </g>
  <g id="arrowDown" transform="rotate(180) translate(-30 -48)">
    <use xlink:href="#rim"/>
    <path pointer-events="none" fill="none" stroke="white" stroke-width="1.5" d="M0,-3.0v7 M-2.5,-0.5L0,-3.0L2.5,-0.5"/>
  </g>
  <g id="arrowLeft" transform="rotate(270) translate(-36 17)">
    <use xlink:href="#rim"/>
    <path pointer-events="none" fill="none" stroke="white" stroke-width="1.5" d="M0,-3.0v7 M-2.5,-0.5L0,-3.0L2.5,-0.5"/>
  </g>
  <g id="resetDef">
    <use xlink:href="#rim2" fill="#404040"><set attributeName="fill" to="#808080" begin="reset.mouseover" end="reset.mouseout"/></use>
  </g>
</defs>
<script type="application/ecmascript">
var viewWidth = 800;
var viewHeight = 365;
var sectionId = 'dynsection-1';
</script>
<script type="application/ecmascript" xlink:href="../../svg.min.js"/>
<svg id="graph" class="graph">
<g id="viewport">
<title>v8::internal::JSArrayBufferView</title>
<!-- Node1 -->
<g id="Node000001" class="node">
<title>Node1</title>
<g id="a_Node000001"><a xlink:title=" ">
<polygon fill="#999999" stroke="none" points="792,-212.5 596,-212.5 596,-144.5 792,-144.5 792,-212.5"/>
<text text-anchor="start" x="601" y="-199" font-family="Cascadia Code NF" font-size="10.00">v8::internal::JSArrayBufferView</text>
<text text-anchor="start" x="691" y="-183" font-family="Cascadia Code NF" font-size="10.00"> </text>
<text text-anchor="start" x="617.5" y="-167" font-family="Cascadia Code NF" font-size="10.00">+</text>
<text text-anchor="start" x="645" y="-167" font-family="Cascadia Code NF" font-size="10.00">WasDetached()</text>
<text text-anchor="start" x="617.5" y="-151" font-family="Cascadia Code NF" font-size="10.00">+</text>
<text text-anchor="start" x="645" y="-151" font-family="Cascadia Code NF" font-size="10.00">IsVariableLength()</text>
<polygon fill="#666666" stroke="#666666" points="596,-194.5 596,-194.5 792,-194.5 792,-194.5 596,-194.5"/>
<polygon fill="#666666" stroke="#666666" points="596,-178.5 596,-178.5 792,-178.5 792,-178.5 596,-178.5"/>
<polygon fill="none" stroke="#666666" points="596,-144.5 596,-212.5 792,-212.5 792,-144.5 596,-144.5"/>
</a>
</g>
</g>
<!-- Node2 -->
<g id="Node000002" class="node">
<title>Node2</title>
<g id="a_Node000002"><a xlink:href="../../df/d3a/classTorqueGeneratedJSArrayBufferView.html" target="_top" xlink:title=" ">
<polygon fill="white" stroke="none" points="560,-357 364,-357 364,0 560,0 560,-357"/>
<text text-anchor="start" x="369" y="-343.5" font-family="Cascadia Code NF" font-size="10.00">TorqueGeneratedJSArrayBuffer</text>
<text text-anchor="start" x="369" y="-330.75" font-family="Cascadia Code NF" font-size="10.00">View&lt; JSArrayBufferView,</text>
<text text-anchor="start" x="369" y="-318" font-family="Cascadia Code NF" font-size="10.00"> JSAPIObjectWithEmbedderSlots &gt;</text>
<text text-anchor="start" x="370.5" y="-301.5" font-family="Cascadia Code NF" font-size="10.00">+</text>
<text text-anchor="start" x="383" y="-301.5" font-family="Cascadia Code NF" font-size="10.00">kStartOfStrongFieldsOffset</text>
<text text-anchor="start" x="370.5" y="-285.5" font-family="Cascadia Code NF" font-size="10.00">+</text>
<text text-anchor="start" x="383" y="-285.5" font-family="Cascadia Code NF" font-size="10.00">kRawByteOffsetOffsetEnd</text>
<text text-anchor="start" x="370.5" y="-269.5" font-family="Cascadia Code NF" font-size="10.00">+</text>
<text text-anchor="start" x="383" y="-269.5" font-family="Cascadia Code NF" font-size="10.00">kStartOfWeakFieldsOffset</text>
<text text-anchor="start" x="370.5" y="-253.5" font-family="Cascadia Code NF" font-size="10.00">+</text>
<text text-anchor="start" x="383" y="-253.5" font-family="Cascadia Code NF" font-size="10.00">buffer()</text>
<text text-anchor="start" x="370.5" y="-237.5" font-family="Cascadia Code NF" font-size="10.00">+</text>
<text text-anchor="start" x="383" y="-237.5" font-family="Cascadia Code NF" font-size="10.00">buffer()</text>
<text text-anchor="start" x="370.5" y="-221.5" font-family="Cascadia Code NF" font-size="10.00">+</text>
<text text-anchor="start" x="383" y="-221.5" font-family="Cascadia Code NF" font-size="10.00">set_buffer()</text>
<text text-anchor="start" x="370.5" y="-205.5" font-family="Cascadia Code NF" font-size="10.00">+</text>
<text text-anchor="start" x="383" y="-205.5" font-family="Cascadia Code NF" font-size="10.00">bit_field()</text>
<text text-anchor="start" x="370.5" y="-189.5" font-family="Cascadia Code NF" font-size="10.00">+</text>
<text text-anchor="start" x="383" y="-189.5" font-family="Cascadia Code NF" font-size="10.00">set_bit_field()</text>
<text text-anchor="start" x="370.5" y="-173.5" font-family="Cascadia Code NF" font-size="10.00">+</text>
<text text-anchor="start" x="383" y="-173.5" font-family="Cascadia Code NF" font-size="10.00">raw_byte_offset()</text>
<text text-anchor="start" x="370.5" y="-157.5" font-family="Cascadia Code NF" font-size="10.00">+</text>
<text text-anchor="start" x="383" y="-157.5" font-family="Cascadia Code NF" font-size="10.00">set_raw_byte_offset()</text>
<text text-anchor="start" x="370.5" y="-141.5" font-family="Cascadia Code NF" font-size="10.00">+</text>
<text text-anchor="start" x="383" y="-141.5" font-family="Cascadia Code NF" font-size="10.00">raw_byte_length()</text>
<text text-anchor="start" x="370.5" y="-125.5" font-family="Cascadia Code NF" font-size="10.00">+</text>
<text text-anchor="start" x="383" y="-125.5" font-family="Cascadia Code NF" font-size="10.00">set_raw_byte_length()</text>
<text text-anchor="start" x="370.5" y="-109.5" font-family="Cascadia Code NF" font-size="10.00">+</text>
<text text-anchor="start" x="383" y="-109.5" font-family="Cascadia Code NF" font-size="10.00">TorqueGeneratedJSArrayBuffer</text>
<text text-anchor="start" x="383" y="-96.75" font-family="Cascadia Code NF" font-size="10.00">View()</text>
<text text-anchor="start" x="370.5" y="-80.5" font-family="Cascadia Code NF" font-size="10.00">+</text>
<text text-anchor="start" x="383" y="-80.5" font-family="Cascadia Code NF" font-size="10.00">cast()</text>
<text text-anchor="start" x="370.5" y="-64.5" font-family="Cascadia Code NF" font-size="10.00">+</text>
<text text-anchor="start" x="383" y="-64.5" font-family="Cascadia Code NF" font-size="10.00">unchecked_cast()</text>
<text text-anchor="start" x="370.5" y="-48.5" font-family="Cascadia Code NF" font-size="10.00">#</text>
<text text-anchor="start" x="383" y="-48.5" font-family="Cascadia Code NF" font-size="10.00">TorqueGeneratedJSArrayBuffer</text>
<text text-anchor="start" x="383" y="-35.75" font-family="Cascadia Code NF" font-size="10.00">View()</text>
<text text-anchor="start" x="370.5" y="-19.5" font-family="Cascadia Code NF" font-size="10.00">#</text>
<text text-anchor="start" x="383" y="-19.5" font-family="Cascadia Code NF" font-size="10.00">TorqueGeneratedJSArrayBuffer</text>
<text text-anchor="start" x="383" y="-6.75" font-family="Cascadia Code NF" font-size="10.00">View()</text>
<polygon fill="#bfbfbf" stroke="#bfbfbf" points="364,-313 364,-313 560,-313 560,-313 364,-313"/>
<polygon fill="#bfbfbf" stroke="#bfbfbf" points="364,-265 364,-265 381,-265 381,-265 364,-265"/>
<polygon fill="#bfbfbf" stroke="#bfbfbf" points="381,-265 381,-265 560,-265 560,-265 381,-265"/>
<polygon fill="none" stroke="#bfbfbf" points="364,0 364,-357 560,-357 560,0 364,0"/>
</a>
</g>
</g>
<!-- Node2&#45;&gt;Node1 -->
<g id="edge1_Node000001_Node000002" class="edge">
<title>Node2&#45;&gt;Node1</title>
<g id="a_edge1_Node000001_Node000002"><a xlink:title=" ">
<path fill="none" stroke="#63b8ff" d="M571.22,-178.5C579.57,-178.5 587.97,-178.5 596.24,-178.5"/>
<polygon fill="none" stroke="#63b8ff" points="571.39,-175 561.39,-178.5 571.39,-182 571.39,-175"/>
</a>
</g>
</g>
<!-- Node3 -->
<g id="Node000003" class="node">
<title>Node3</title>
<g id="a_Node000003"><a xlink:title=" ">
<polygon fill="white" stroke="none" points="178,-286.5 0,-286.5 0,-234.5 178,-234.5 178,-286.5"/>
<text text-anchor="start" x="5" y="-273" font-family="Cascadia Code NF" font-size="10.00">JSAPIObjectWithEmbedderSlots</text>
<text text-anchor="start" x="86" y="-257" font-family="Cascadia Code NF" font-size="10.00"> </text>
<text text-anchor="start" x="86" y="-241" font-family="Cascadia Code NF" font-size="10.00"> </text>
<polygon fill="#bfbfbf" stroke="#bfbfbf" points="0,-268.5 0,-268.5 178,-268.5 178,-268.5 0,-268.5"/>
<polygon fill="#bfbfbf" stroke="#bfbfbf" points="0,-252.5 0,-252.5 178,-252.5 178,-252.5 0,-252.5"/>
<polygon fill="none" stroke="#bfbfbf" points="0,-234.5 0,-286.5 178,-286.5 178,-234.5 0,-234.5"/>
</a>
</g>
</g>
<!-- Node3&#45;&gt;Node2 -->
<g id="edge2_Node000002_Node000003" class="edge">
<title>Node3&#45;&gt;Node2</title>
<g id="a_edge2_Node000002_Node000003"><a xlink:title=" ">
<path fill="none" stroke="#63b8ff" d="M189.15,-261.03C237.31,-259.02 295.54,-253.19 346,-238.5 352.05,-236.74 358.16,-234.64 364.23,-232.31"/>
<polygon fill="none" stroke="#63b8ff" points="189.15,-257.53 179.28,-261.39 189.4,-264.52 189.15,-257.53"/>
</a>
</g>
</g>
<!-- Node4 -->
<g id="Node000004" class="node">
<title>Node4</title>
<g id="a_Node000004"><a xlink:href="../../d1/da0/classint.html" target="_top" xlink:title=" ">
<polygon fill="white" stroke="none" points="103,-123.5 75,-123.5 75,-71.5 103,-71.5 103,-123.5"/>
<text text-anchor="start" x="80" y="-110" font-family="Cascadia Code NF" font-size="10.00">int</text>
<text text-anchor="start" x="86" y="-94" font-family="Cascadia Code NF" font-size="10.00"> </text>
<text text-anchor="start" x="86" y="-78" font-family="Cascadia Code NF" font-size="10.00"> </text>
<polygon fill="#bfbfbf" stroke="#bfbfbf" points="75,-105.5 75,-105.5 103,-105.5 103,-105.5 75,-105.5"/>
<polygon fill="#bfbfbf" stroke="#bfbfbf" points="75,-89.5 75,-89.5 103,-89.5 103,-89.5 75,-89.5"/>
<polygon fill="none" stroke="#bfbfbf" points="75,-71.5 75,-123.5 103,-123.5 103,-71.5 75,-71.5"/>
</a>
</g>
</g>
<!-- Node4&#45;&gt;Node2 -->
<g id="edge3_Node000002_Node000004" class="edge">
<title>Node4&#45;&gt;Node2</title>
<g id="a_edge3_Node000002_Node000004"><a xlink:title=" ">
<path fill="none" stroke="#63b8ff" d="M102.93,-94.89C141.2,-87.72 256.79,-70.06 346,-98.25 348.11,-98.92 350.22,-99.64 352.33,-100.41"/>
<polygon fill="none" stroke="#63b8ff" points="352.35,-100.42 359.42,-99.01 363.44,-105 356.37,-106.41 352.35,-100.42"/>
</a>
</g>
<text text-anchor="middle" x="271" y="-228.25" font-family="Cascadia Code NF" font-size="10.00" fill="grey"> +kBitFieldOffset</text>
<text text-anchor="middle" x="271" y="-215.5" font-family="Cascadia Code NF" font-size="10.00" fill="grey">+kBitFieldOffsetEnd</text>
<text text-anchor="middle" x="271" y="-202.75" font-family="Cascadia Code NF" font-size="10.00" fill="grey">+kBufferOffset</text>
<text text-anchor="middle" x="271" y="-190" font-family="Cascadia Code NF" font-size="10.00" fill="grey">+kBufferOffsetEnd</text>
<text text-anchor="middle" x="271" y="-177.25" font-family="Cascadia Code NF" font-size="10.00" fill="grey">+kEndOfStrongFieldsOffset</text>
<text text-anchor="middle" x="271" y="-164.5" font-family="Cascadia Code NF" font-size="10.00" fill="grey">+kEndOfWeakFieldsOffset</text>
<text text-anchor="middle" x="271" y="-151.75" font-family="Cascadia Code NF" font-size="10.00" fill="grey">+kHeaderSize</text>
<text text-anchor="middle" x="271" y="-139" font-family="Cascadia Code NF" font-size="10.00" fill="grey">+kRawByteLengthOffset</text>
<text text-anchor="middle" x="271" y="-126.25" font-family="Cascadia Code NF" font-size="10.00" fill="grey">+kRawByteLengthOffsetEnd</text>
<text text-anchor="middle" x="271" y="-113.5" font-family="Cascadia Code NF" font-size="10.00" fill="grey">+kRawByteOffsetOffset</text>
<text text-anchor="middle" x="271" y="-100.75" font-family="Cascadia Code NF" font-size="10.00" fill="grey">...</text>
</g>
</g>
</svg>

<g id="navigator" transform="translate(0 0)" fill="#404254">
  <rect fill="#f2f5e9" fill-opacity="0.5" stroke="#606060" stroke-width=".5" x="0" y="0" width="60" height="60"/>
  <use id="zoomplus" xlink:href="#zoomPlus" x="17" y="9" onmousedown="handleZoom(evt,'in')"/>
  <use id="zoomminus" xlink:href="#zoomMin" x="42" y="9" onmousedown="handleZoom(evt,'out')"/>
  <use id="reset" xlink:href="#resetDef" x="30" y="36" onmousedown="handleReset()"/>
   <use id="arrowup" xlink:href="#arrowUp" x="0" y="0" onmousedown="handlePan(0,-1)"/>
  <use id="arrowright" xlink:href="#arrowRight" x="0" y="0" onmousedown="handlePan(1,0)"/>
  <use id="arrowdown" xlink:href="#arrowDown" x="0" y="0" onmousedown="handlePan(0,1)"/>
  <use id="arrowleft" xlink:href="#arrowLeft" x="0" y="0" onmousedown="handlePan(-1,0)"/>
</g>
<svg viewBox="0 0 15 15" width="100%" height="30px" preserveAspectRatio="xMaxYMin meet">
 <g id="arrow_out" transform="scale(0.3 0.3)">
  <a xlink:href="classv8_1_1internal_1_1JSArrayBufferView__coll__graph_org.svg" target="_base">
   <rect id="button" ry="5" rx="5" y="6" x="6" height="38" width="38"
        fill="#f2f5e9" fill-opacity="0.5" stroke="#606060" stroke-width="1.0"/>
   <path id="arrow"
     d="M 11.500037,31.436501 C 11.940474,20.09759 22.043105,11.32322 32.158766,21.979434 L 37.068811,17.246167 C 37.068811,17.246167 37.088388,32 37.088388,32 L 22.160133,31.978069 C 22.160133,31.978069 26.997745,27.140456 26.997745,27.140456 C 18.528582,18.264221 13.291696,25.230495 11.500037,31.436501 z"
     style="fill:#404040;"/>
  </a>
 </g>
</svg>

<style type='text/css'>
<![CDATA[
[data-mouse-over-selected='false'] { opacity: 0.7; }
[data-mouse-over-selected='true']  { opacity: 1.0; }
]]>
</style>
<script type="application/ecmascript"><![CDATA[
document.addEventListener('DOMContentLoaded', (event) => {
  highlightEdges();
  highlightAdjacentNodes();
});
]]></script>
</svg>
