<?xml version="1.0" encoding="UTF-8" standalone="no"?>
<!DOCTYPE svg PUBLIC "-//W3C//DTD SVG 1.1//EN"
 "http://www.w3.org/Graphics/SVG/1.1/DTD/svg11.dtd">
<!-- Generated by graphviz version 11.0.0 (20240428.1522)
 -->
<!-- Title: v8::internal::HeapVisitor&lt; ResultType, ConcreteVisitor &gt; Pages: 1 -->
<svg width="674pt" height="422pt"
 viewBox="0.00 0.00 674.00 422.00" xmlns="http://www.w3.org/2000/svg" xmlns:xlink="http://www.w3.org/1999/xlink">
<g id="graph0" class="graph" transform="scale(1 1) rotate(0) translate(4 418)">
<title>v8::internal::HeapVisitor&lt; ResultType, ConcreteVisitor &gt;</title>
<!-- Node1 -->
<g id="Node000001" class="node">
<title>Node1</title>
<g id="a_Node000001"><a xlink:title=" ">
<polygon fill="#999999" stroke="none" points="666,-414 462,-414 462,0 666,0 666,-414"/>
<text text-anchor="start" x="471" y="-400.5" font-family="Cascadia Code NF" font-size="10.00">v8::internal::HeapVisitor</text>
<text text-anchor="start" x="471" y="-387.75" font-family="Cascadia Code NF" font-size="10.00">&lt; ResultType, ConcreteVisitor &gt;</text>
<text text-anchor="start" x="561" y="-371.5" font-family="Cascadia Code NF" font-size="10.00"> </text>
<text text-anchor="start" x="466" y="-355.5" font-family="Cascadia Code NF" font-size="10.00">+</text>
<text text-anchor="start" x="476" y="-355.5" font-family="Cascadia Code NF" font-size="10.00">HeapVisitor()</text>
<text text-anchor="start" x="466" y="-339.5" font-family="Cascadia Code NF" font-size="10.00">+</text>
<text text-anchor="start" x="476" y="-339.5" font-family="Cascadia Code NF" font-size="10.00">HeapVisitor()</text>
<text text-anchor="start" x="466" y="-323.5" font-family="Cascadia Code NF" font-size="10.00">+</text>
<text text-anchor="start" x="476" y="-323.5" font-family="Cascadia Code NF" font-size="10.00">HeapVisitor()</text>
<text text-anchor="start" x="466" y="-307.5" font-family="Cascadia Code NF" font-size="10.00">+</text>
<text text-anchor="start" x="476" y="-307.5" font-family="Cascadia Code NF" font-size="10.00">Visit()</text>
<text text-anchor="start" x="466" y="-291.5" font-family="Cascadia Code NF" font-size="10.00">+</text>
<text text-anchor="start" x="476" y="-291.5" font-family="Cascadia Code NF" font-size="10.00">Visit()</text>
<text text-anchor="start" x="466" y="-275.5" font-family="Cascadia Code NF" font-size="10.00">+</text>
<text text-anchor="start" x="476" y="-275.5" font-family="Cascadia Code NF" font-size="10.00">Cast()</text>
<text text-anchor="start" x="466" y="-259.5" font-family="Cascadia Code NF" font-size="10.00">+</text>
<text text-anchor="start" x="476" y="-259.5" font-family="Cascadia Code NF" font-size="10.00">VisitMapPointerIfNeeded()</text>
<text text-anchor="start" x="466" y="-243.5" font-family="Cascadia Code NF" font-size="10.00">+</text>
<text text-anchor="start" x="476" y="-243.5" font-family="Cascadia Code NF" font-size="10.00">VisitJSObjectSubclass()</text>
<text text-anchor="start" x="466" y="-227.5" font-family="Cascadia Code NF" font-size="10.00">#</text>
<text text-anchor="start" x="476" y="-227.5" font-family="Cascadia Code NF" font-size="10.00">VisitMapPointerIfNeeded()</text>
<text text-anchor="start" x="466" y="-211.5" font-family="Cascadia Code NF" font-size="10.00">#</text>
<text text-anchor="start" x="476" y="-211.5" font-family="Cascadia Code NF" font-size="10.00">concrete_visitor()</text>
<text text-anchor="start" x="466" y="-195.5" font-family="Cascadia Code NF" font-size="10.00">#</text>
<text text-anchor="start" x="476" y="-195.5" font-family="Cascadia Code NF" font-size="10.00">concrete_visitor()</text>
<text text-anchor="start" x="466" y="-179.5" font-family="Cascadia Code NF" font-size="10.00">#</text>
<text text-anchor="start" x="476" y="-179.5" font-family="Cascadia Code NF" font-size="10.00">VisitShortcutCandidate()</text>
<text text-anchor="start" x="466" y="-163.5" font-family="Cascadia Code NF" font-size="10.00">#</text>
<text text-anchor="start" x="476" y="-163.5" font-family="Cascadia Code NF" font-size="10.00">VisitDataObject()</text>
<text text-anchor="start" x="466" y="-147.5" font-family="Cascadia Code NF" font-size="10.00">#</text>
<text text-anchor="start" x="476" y="-147.5" font-family="Cascadia Code NF" font-size="10.00">VisitJSObjectFast()</text>
<text text-anchor="start" x="466" y="-131.5" font-family="Cascadia Code NF" font-size="10.00">#</text>
<text text-anchor="start" x="476" y="-131.5" font-family="Cascadia Code NF" font-size="10.00">VisitJSApiObject()</text>
<text text-anchor="start" x="466" y="-115.5" font-family="Cascadia Code NF" font-size="10.00">#</text>
<text text-anchor="start" x="476" y="-115.5" font-family="Cascadia Code NF" font-size="10.00">VisitStruct()</text>
<text text-anchor="start" x="466" y="-99.5" font-family="Cascadia Code NF" font-size="10.00">#</text>
<text text-anchor="start" x="476" y="-99.5" font-family="Cascadia Code NF" font-size="10.00">VisitFreeSpace()</text>
<text text-anchor="start" x="466" y="-83.5" font-family="Cascadia Code NF" font-size="10.00">#</text>
<text text-anchor="start" x="476" y="-83.5" font-family="Cascadia Code NF" font-size="10.00">VisitJSObjectSubclass()</text>
<text text-anchor="start" x="466" y="-67.5" font-family="Cascadia Code NF" font-size="10.00">#</text>
<text text-anchor="start" x="476" y="-67.5" font-family="Cascadia Code NF" font-size="10.00">GetObjectFilterReadOnlyAnd</text>
<text text-anchor="start" x="476" y="-54.75" font-family="Cascadia Code NF" font-size="10.00">SmiFast()</text>
<text text-anchor="start" x="466" y="-38.5" font-family="Cascadia Code NF" font-size="10.00">#</text>
<text text-anchor="start" x="476" y="-38.5" font-family="Cascadia Code NF" font-size="10.00">ShouldVisitMapPointer()</text>
<text text-anchor="start" x="466" y="-22.5" font-family="Cascadia Code NF" font-size="10.00">#</text>
<text text-anchor="start" x="476" y="-22.5" font-family="Cascadia Code NF" font-size="10.00">ShouldVisitReadOnlyMapPointer()</text>
<text text-anchor="start" x="466" y="-6.5" font-family="Cascadia Code NF" font-size="10.00">#</text>
<text text-anchor="start" x="476" y="-6.5" font-family="Cascadia Code NF" font-size="10.00">Cast()</text>
<polygon fill="#666666" stroke="#666666" points="462,-383 462,-383 666,-383 666,-383 462,-383"/>
<polygon fill="#666666" stroke="#666666" points="462,-367 462,-367 666,-367 666,-367 462,-367"/>
<polygon fill="none" stroke="#666666" points="462,0 462,-414 666,-414 666,0 462,0"/>
</a>
</g>
</g>
<!-- Node2 -->
<g id="Node000002" class="node">
<title>Node2</title>
<g id="a_Node000002"><a xlink:href="../../d4/d71/classv8_1_1internal_1_1ObjectVisitorWithCageBases.html" target="_top" xlink:title=" ">
<polygon fill="white" stroke="none" points="426,-271.5 240,-271.5 240,-142.5 426,-142.5 426,-271.5"/>
<text text-anchor="start" x="252" y="-258" font-family="Cascadia Code NF" font-size="10.00">v8::internal::ObjectVisitor</text>
<text text-anchor="start" x="294" y="-245.25" font-family="Cascadia Code NF" font-size="10.00">WithCageBases</text>
<text text-anchor="start" x="330" y="-229" font-family="Cascadia Code NF" font-size="10.00"> </text>
<text text-anchor="start" x="244" y="-213" font-family="Cascadia Code NF" font-size="10.00">+</text>
<text text-anchor="start" x="254" y="-213" font-family="Cascadia Code NF" font-size="10.00">ObjectVisitorWithCageBases()</text>
<text text-anchor="start" x="244" y="-197" font-family="Cascadia Code NF" font-size="10.00">+</text>
<text text-anchor="start" x="254" y="-197" font-family="Cascadia Code NF" font-size="10.00">ObjectVisitorWithCageBases()</text>
<text text-anchor="start" x="244" y="-181" font-family="Cascadia Code NF" font-size="10.00">+</text>
<text text-anchor="start" x="254" y="-181" font-family="Cascadia Code NF" font-size="10.00">ObjectVisitorWithCageBases()</text>
<text text-anchor="start" x="244" y="-165" font-family="Cascadia Code NF" font-size="10.00">+</text>
<text text-anchor="start" x="254" y="-165" font-family="Cascadia Code NF" font-size="10.00">cage_base()</text>
<text text-anchor="start" x="244" y="-149" font-family="Cascadia Code NF" font-size="10.00">+</text>
<text text-anchor="start" x="254" y="-149" font-family="Cascadia Code NF" font-size="10.00">code_cage_base()</text>
<polygon fill="#bfbfbf" stroke="#bfbfbf" points="240,-240.5 240,-240.5 426,-240.5 426,-240.5 240,-240.5"/>
<polygon fill="#bfbfbf" stroke="#bfbfbf" points="240,-224.5 240,-224.5 426,-224.5 426,-224.5 240,-224.5"/>
<polygon fill="none" stroke="#bfbfbf" points="240,-142.5 240,-271.5 426,-271.5 426,-142.5 240,-142.5"/>
</a>
</g>
</g>
<!-- Node2&#45;&gt;Node1 -->
<g id="edge1_Node000001_Node000002" class="edge">
<title>Node2&#45;&gt;Node1</title>
<g id="a_edge1_Node000001_Node000002"><a xlink:title=" ">
<path fill="none" stroke="#63b8ff" d="M437.11,-207C445.43,-207 453.83,-207 462.14,-207"/>
<polygon fill="none" stroke="#63b8ff" points="437.34,-203.5 427.34,-207 437.34,-210.5 437.34,-203.5"/>
</a>
</g>
</g>
<!-- Node3 -->
<g id="Node000003" class="node">
<title>Node3</title>
<g id="a_Node000003"><a xlink:href="../../d5/db6/classv8_1_1internal_1_1ObjectVisitor.html" target="_top" xlink:title=" ">
<polygon fill="white" stroke="none" points="204,-313 0,-313 0,-101 204,-101 204,-313"/>
<text text-anchor="start" x="21" y="-299.5" font-family="Cascadia Code NF" font-size="10.00">v8::internal::ObjectVisitor</text>
<text text-anchor="start" x="99" y="-283.5" font-family="Cascadia Code NF" font-size="10.00"> </text>
<text text-anchor="start" x="4" y="-267.5" font-family="Cascadia Code NF" font-size="10.00">+</text>
<text text-anchor="start" x="14" y="-267.5" font-family="Cascadia Code NF" font-size="10.00">~ObjectVisitor()</text>
<text text-anchor="start" x="4" y="-251.5" font-family="Cascadia Code NF" font-size="10.00">+</text>
<text text-anchor="start" x="14" y="-251.5" font-family="Cascadia Code NF" font-size="10.00">VisitPointers()</text>
<text text-anchor="start" x="4" y="-235.5" font-family="Cascadia Code NF" font-size="10.00">+</text>
<text text-anchor="start" x="14" y="-235.5" font-family="Cascadia Code NF" font-size="10.00">VisitPointers()</text>
<text text-anchor="start" x="4" y="-219.5" font-family="Cascadia Code NF" font-size="10.00">+</text>
<text text-anchor="start" x="14" y="-219.5" font-family="Cascadia Code NF" font-size="10.00">VisitInstructionStreamPointer()</text>
<text text-anchor="start" x="4" y="-203.5" font-family="Cascadia Code NF" font-size="10.00">+</text>
<text text-anchor="start" x="14" y="-203.5" font-family="Cascadia Code NF" font-size="10.00">VisitCustomWeakPointers()</text>
<text text-anchor="start" x="4" y="-187.5" font-family="Cascadia Code NF" font-size="10.00">+</text>
<text text-anchor="start" x="14" y="-187.5" font-family="Cascadia Code NF" font-size="10.00">VisitPointer()</text>
<text text-anchor="start" x="4" y="-171.5" font-family="Cascadia Code NF" font-size="10.00">+</text>
<text text-anchor="start" x="14" y="-171.5" font-family="Cascadia Code NF" font-size="10.00">VisitPointer()</text>
<text text-anchor="start" x="4" y="-155.5" font-family="Cascadia Code NF" font-size="10.00">+</text>
<text text-anchor="start" x="14" y="-155.5" font-family="Cascadia Code NF" font-size="10.00">VisitCustomWeakPointer()</text>
<text text-anchor="start" x="4" y="-139.5" font-family="Cascadia Code NF" font-size="10.00">+</text>
<text text-anchor="start" x="14" y="-139.5" font-family="Cascadia Code NF" font-size="10.00">VisitEphemeron()</text>
<text text-anchor="start" x="4" y="-123.5" font-family="Cascadia Code NF" font-size="10.00">+</text>
<text text-anchor="start" x="14" y="-123.5" font-family="Cascadia Code NF" font-size="10.00">VisitRelocInfo()</text>
<text text-anchor="start" x="14" y="-107.5" font-family="Cascadia Code NF" font-size="10.00">and 11 more...</text>
<polygon fill="#bfbfbf" stroke="#bfbfbf" points="0,-295 0,-295 204,-295 204,-295 0,-295"/>
<polygon fill="#bfbfbf" stroke="#bfbfbf" points="0,-279 0,-279 204,-279 204,-279 0,-279"/>
<polygon fill="none" stroke="#bfbfbf" points="0,-101 0,-313 204,-313 204,-101 0,-101"/>
</a>
</g>
</g>
<!-- Node3&#45;&gt;Node2 -->
<g id="edge2_Node000002_Node000003" class="edge">
<title>Node3&#45;&gt;Node2</title>
<g id="a_edge2_Node000002_Node000003"><a xlink:title=" ">
<path fill="none" stroke="#63b8ff" d="M215.18,-207C223.57,-207 231.97,-207 240.21,-207"/>
<polygon fill="none" stroke="#63b8ff" points="215.29,-203.5 205.29,-207 215.29,-210.5 215.29,-203.5"/>
</a>
</g>
</g>
</g>
</svg>
