<?xml version="1.0" encoding="UTF-8" standalone="no"?>
<!DOCTYPE svg PUBLIC "-//W3C//DTD SVG 1.1//EN"
 "http://www.w3.org/Graphics/SVG/1.1/DTD/svg11.dtd">
<!-- Generated by graphviz version 11.0.0 (20240428.1522)
 -->
<!-- Title: v8::internal::interpreter::BlockBuilder Pages: 1 -->
<svg width="598pt" height="345pt"
 viewBox="0.00 0.00 598.00 345.00" xmlns="http://www.w3.org/2000/svg" xmlns:xlink="http://www.w3.org/1999/xlink">
<g id="graph0" class="graph" transform="scale(1 1) rotate(0) translate(4 341)">
<title>v8::internal::interpreter::BlockBuilder</title>
<!-- Node1 -->
<g id="Node000001" class="node">
<title>Node1</title>
<g id="a_Node000001"><a xlink:title=" ">
<polygon fill="#999999" stroke="none" points="590,-201 430,-201 430,-136 590,-136 590,-201"/>
<text text-anchor="start" x="435" y="-187.5" font-family="Cascadia Code NF" font-size="10.00">v8::internal::interpreter</text>
<text text-anchor="start" x="468" y="-174.75" font-family="Cascadia Code NF" font-size="10.00">::BlockBuilder</text>
<text text-anchor="start" x="507" y="-158.5" font-family="Cascadia Code NF" font-size="10.00"> </text>
<text text-anchor="start" x="448.5" y="-142.5" font-family="Cascadia Code NF" font-size="10.00">+</text>
<text text-anchor="start" x="473" y="-142.5" font-family="Cascadia Code NF" font-size="10.00">BlockBuilder()</text>
<polygon fill="#666666" stroke="#666666" points="430,-170 430,-170 590,-170 590,-170 430,-170"/>
<polygon fill="#666666" stroke="#666666" points="430,-154 430,-154 590,-154 590,-154 430,-154"/>
<polygon fill="none" stroke="#666666" points="430,-136 430,-201 590,-201 590,-136 430,-136"/>
</a>
</g>
</g>
<!-- Node2 -->
<g id="Node000002" class="node">
<title>Node2</title>
<g id="a_Node000002"><a xlink:href="../../d3/db5/classv8_1_1internal_1_1interpreter_1_1BreakableControlFlowBuilder.html" target="_top" xlink:title=" ">
<polygon fill="white" stroke="none" points="394,-337 196,-337 196,0 394,0 394,-337"/>
<text text-anchor="start" x="208" y="-323.5" font-family="Cascadia Code NF" font-size="10.00">v8::internal::interpreter</text>
<text text-anchor="start" x="208" y="-310.75" font-family="Cascadia Code NF" font-size="10.00">::BreakableControlFlowBuilder</text>
<text text-anchor="start" x="200" y="-294.5" font-family="Cascadia Code NF" font-size="10.00">#</text>
<text text-anchor="start" x="210" y="-294.5" font-family="Cascadia Code NF" font-size="10.00">break_labels_</text>
<text text-anchor="start" x="200" y="-278.5" font-family="Cascadia Code NF" font-size="10.00">#</text>
<text text-anchor="start" x="210" y="-278.5" font-family="Cascadia Code NF" font-size="10.00">node_</text>
<text text-anchor="start" x="200" y="-262.5" font-family="Cascadia Code NF" font-size="10.00">#</text>
<text text-anchor="start" x="210" y="-262.5" font-family="Cascadia Code NF" font-size="10.00">block_coverage_builder_</text>
<text text-anchor="start" x="200" y="-246.5" font-family="Cascadia Code NF" font-size="10.00">+</text>
<text text-anchor="start" x="210" y="-246.5" font-family="Cascadia Code NF" font-size="10.00">BreakableControlFlowBuilder()</text>
<text text-anchor="start" x="200" y="-230.5" font-family="Cascadia Code NF" font-size="10.00">+</text>
<text text-anchor="start" x="210" y="-230.5" font-family="Cascadia Code NF" font-size="10.00">~BreakableControlFlowBuilder()</text>
<text text-anchor="start" x="200" y="-214.5" font-family="Cascadia Code NF" font-size="10.00">+</text>
<text text-anchor="start" x="210" y="-214.5" font-family="Cascadia Code NF" font-size="10.00">Break()</text>
<text text-anchor="start" x="200" y="-198.5" font-family="Cascadia Code NF" font-size="10.00">+</text>
<text text-anchor="start" x="210" y="-198.5" font-family="Cascadia Code NF" font-size="10.00">BreakIfTrue()</text>
<text text-anchor="start" x="200" y="-182.5" font-family="Cascadia Code NF" font-size="10.00">+</text>
<text text-anchor="start" x="210" y="-182.5" font-family="Cascadia Code NF" font-size="10.00">BreakIfFalse()</text>
<text text-anchor="start" x="200" y="-166.5" font-family="Cascadia Code NF" font-size="10.00">+</text>
<text text-anchor="start" x="210" y="-166.5" font-family="Cascadia Code NF" font-size="10.00">BreakIfUndefined()</text>
<text text-anchor="start" x="200" y="-150.5" font-family="Cascadia Code NF" font-size="10.00">+</text>
<text text-anchor="start" x="210" y="-150.5" font-family="Cascadia Code NF" font-size="10.00">BreakIfNull()</text>
<text text-anchor="start" x="200" y="-134.5" font-family="Cascadia Code NF" font-size="10.00">+</text>
<text text-anchor="start" x="210" y="-134.5" font-family="Cascadia Code NF" font-size="10.00">BreakIfForInDone()</text>
<text text-anchor="start" x="200" y="-118.5" font-family="Cascadia Code NF" font-size="10.00">+</text>
<text text-anchor="start" x="210" y="-118.5" font-family="Cascadia Code NF" font-size="10.00">break_labels()</text>
<text text-anchor="start" x="200" y="-102.5" font-family="Cascadia Code NF" font-size="10.00">#</text>
<text text-anchor="start" x="210" y="-102.5" font-family="Cascadia Code NF" font-size="10.00">EmitJump()</text>
<text text-anchor="start" x="200" y="-86.5" font-family="Cascadia Code NF" font-size="10.00">#</text>
<text text-anchor="start" x="210" y="-86.5" font-family="Cascadia Code NF" font-size="10.00">EmitJumpIfTrue()</text>
<text text-anchor="start" x="200" y="-70.5" font-family="Cascadia Code NF" font-size="10.00">#</text>
<text text-anchor="start" x="210" y="-70.5" font-family="Cascadia Code NF" font-size="10.00">EmitJumpIfFalse()</text>
<text text-anchor="start" x="200" y="-54.5" font-family="Cascadia Code NF" font-size="10.00">#</text>
<text text-anchor="start" x="210" y="-54.5" font-family="Cascadia Code NF" font-size="10.00">EmitJumpIfUndefined()</text>
<text text-anchor="start" x="200" y="-38.5" font-family="Cascadia Code NF" font-size="10.00">#</text>
<text text-anchor="start" x="210" y="-38.5" font-family="Cascadia Code NF" font-size="10.00">EmitJumpIfNull()</text>
<text text-anchor="start" x="200" y="-22.5" font-family="Cascadia Code NF" font-size="10.00">#</text>
<text text-anchor="start" x="210" y="-22.5" font-family="Cascadia Code NF" font-size="10.00">EmitJumpIfForInDone()</text>
<text text-anchor="start" x="200" y="-6.5" font-family="Cascadia Code NF" font-size="10.00">#</text>
<text text-anchor="start" x="210" y="-6.5" font-family="Cascadia Code NF" font-size="10.00">BindBreakTarget()</text>
<polygon fill="#bfbfbf" stroke="#bfbfbf" points="196,-306 196,-306 394,-306 394,-306 196,-306"/>
<polygon fill="#bfbfbf" stroke="#bfbfbf" points="196,-258 196,-258 208,-258 208,-258 196,-258"/>
<polygon fill="#bfbfbf" stroke="#bfbfbf" points="208,-258 208,-258 394,-258 394,-258 208,-258"/>
<polygon fill="none" stroke="#bfbfbf" points="196,0 196,-337 394,-337 394,0 196,0"/>
</a>
</g>
</g>
<!-- Node2&#45;&gt;Node1 -->
<g id="edge1_Node000001_Node000002" class="edge">
<title>Node2&#45;&gt;Node1</title>
<g id="a_edge1_Node000001_Node000002"><a xlink:title=" ">
<path fill="none" stroke="#63b8ff" d="M405.18,-168.5C413.55,-168.5 421.89,-168.5 430.01,-168.5"/>
<polygon fill="none" stroke="#63b8ff" points="405.29,-165 395.29,-168.5 405.29,-172 405.29,-165"/>
</a>
</g>
</g>
<!-- Node3 -->
<g id="Node000003" class="node">
<title>Node3</title>
<g id="a_Node000003"><a xlink:href="../../d2/db4/classv8_1_1internal_1_1interpreter_1_1ControlFlowBuilder.html" target="_top" xlink:title=" ">
<polygon fill="white" stroke="none" points="160,-233 0,-233 0,-104 160,-104 160,-233"/>
<text text-anchor="start" x="5" y="-219.5" font-family="Cascadia Code NF" font-size="10.00">v8::internal::interpreter</text>
<text text-anchor="start" x="20" y="-206.75" font-family="Cascadia Code NF" font-size="10.00">::ControlFlowBuilder</text>
<text text-anchor="start" x="77" y="-190.5" font-family="Cascadia Code NF" font-size="10.00"> </text>
<text text-anchor="start" x="8" y="-174.5" font-family="Cascadia Code NF" font-size="10.00">+</text>
<text text-anchor="start" x="22" y="-174.5" font-family="Cascadia Code NF" font-size="10.00">ControlFlowBuilder()</text>
<text text-anchor="start" x="8" y="-158.5" font-family="Cascadia Code NF" font-size="10.00">+</text>
<text text-anchor="start" x="22" y="-158.5" font-family="Cascadia Code NF" font-size="10.00">ControlFlowBuilder()</text>
<text text-anchor="start" x="8" y="-142.5" font-family="Cascadia Code NF" font-size="10.00">+</text>
<text text-anchor="start" x="22" y="-142.5" font-family="Cascadia Code NF" font-size="10.00">operator=()</text>
<text text-anchor="start" x="8" y="-126.5" font-family="Cascadia Code NF" font-size="10.00">+</text>
<text text-anchor="start" x="22" y="-126.5" font-family="Cascadia Code NF" font-size="10.00">~ControlFlowBuilder()</text>
<text text-anchor="start" x="8" y="-110.5" font-family="Cascadia Code NF" font-size="10.00">#</text>
<text text-anchor="start" x="22" y="-110.5" font-family="Cascadia Code NF" font-size="10.00">builder()</text>
<polygon fill="#bfbfbf" stroke="#bfbfbf" points="0,-202 0,-202 160,-202 160,-202 0,-202"/>
<polygon fill="#bfbfbf" stroke="#bfbfbf" points="0,-186 0,-186 160,-186 160,-186 0,-186"/>
<polygon fill="none" stroke="#bfbfbf" points="0,-104 0,-233 160,-233 160,-104 0,-104"/>
</a>
</g>
</g>
<!-- Node3&#45;&gt;Node2 -->
<g id="edge2_Node000002_Node000003" class="edge">
<title>Node3&#45;&gt;Node2</title>
<g id="a_edge2_Node000002_Node000003"><a xlink:title=" ">
<path fill="none" stroke="#63b8ff" d="M170.94,-168.5C179.26,-168.5 187.71,-168.5 196.1,-168.5"/>
<polygon fill="none" stroke="#63b8ff" points="171.22,-165 161.22,-168.5 171.22,-172 171.22,-165"/>
</a>
</g>
</g>
</g>
</svg>
