<?xml version="1.0" encoding="UTF-8" standalone="no"?>
<!DOCTYPE svg PUBLIC "-//W3C//DTD SVG 1.1//EN"
 "http://www.w3.org/Graphics/SVG/1.1/DTD/svg11.dtd">
<!-- Generated by graphviz version 11.0.0 (20240428.1522)
 -->
<!-- Title: Graphical Class Hierarchy Pages: 1 -->
<svg width="454pt" height="94pt"
 viewBox="0.00 0.00 454.00 93.50" xmlns="http://www.w3.org/2000/svg" xmlns:xlink="http://www.w3.org/1999/xlink">
<g id="graph0" class="graph" transform="scale(1 1) rotate(0) translate(4 89.5)">
<title>Graphical Class Hierarchy</title>
<!-- Node0 -->
<g id="Node000000" class="node">
<title>Node0</title>
<g id="a_Node000000"><a xlink:href="db/d5e/structv8_1_1internal_1_1FormalParametersBase.html" target="_top" xlink:title=" ">
<polygon fill="white" stroke="#666666" points="220,-53.12 0,-53.12 0,-32.38 220,-32.38 220,-53.12"/>
<text text-anchor="middle" x="110" y="-39.62" font-family="Cascadia Code NF" font-size="10.00">v8::internal::FormalParametersBase</text>
</a>
</g>
</g>
<!-- Node1 -->
<g id="Node000001" class="node">
<title>Node1</title>
<g id="a_Node000001"><a xlink:href="da/dd1/structv8_1_1internal_1_1ParserFormalParameters.html" target="_top" xlink:title=" ">
<polygon fill="white" stroke="#666666" points="437,-85.5 265,-85.5 265,-52 437,-52 437,-85.5"/>
<text text-anchor="start" x="273" y="-72" font-family="Cascadia Code NF" font-size="10.00">v8::internal::ParserFormal</text>
<text text-anchor="middle" x="351" y="-59.25" font-family="Cascadia Code NF" font-size="10.00">Parameters</text>
</a>
</g>
</g>
<!-- Node0&#45;&gt;Node1 -->
<g id="edge3802_Node000000_Node000001" class="edge">
<title>Node0&#45;&gt;Node1</title>
<g id="a_edge3802_Node000000_Node000001"><a xlink:title=" ">
<path fill="none" stroke="#63b8ff" d="M222.04,-54.83C236.34,-56.38 250.79,-57.96 264.59,-59.46"/>
<polygon fill="#63b8ff" stroke="#63b8ff" points="222.45,-51.35 212.13,-53.75 221.69,-58.31 222.45,-51.35"/>
</a>
</g>
</g>
<!-- Node2 -->
<g id="Node000002" class="node">
<title>Node2</title>
<g id="a_Node000002"><a xlink:href="d8/dc0/classv8_1_1internal_1_1PreParserFormalParameters.html" target="_top" xlink:title=" ">
<polygon fill="white" stroke="#666666" points="446,-33.5 256,-33.5 256,0 446,0 446,-33.5"/>
<text text-anchor="start" x="264" y="-20" font-family="Cascadia Code NF" font-size="10.00">v8::internal::PreParserFormal</text>
<text text-anchor="middle" x="351" y="-7.25" font-family="Cascadia Code NF" font-size="10.00">Parameters</text>
</a>
</g>
</g>
<!-- Node0&#45;&gt;Node2 -->
<g id="edge3803_Node000000_Node000002" class="edge">
<title>Node0&#45;&gt;Node2</title>
<g id="a_edge3803_Node000000_Node000002"><a xlink:title=" ">
<path fill="none" stroke="#63b8ff" d="M221.83,-30.69C233.09,-29.47 244.45,-28.23 255.51,-27.03"/>
<polygon fill="#63b8ff" stroke="#63b8ff" points="221.69,-27.19 212.13,-31.75 222.45,-34.15 221.69,-27.19"/>
</a>
</g>
</g>
</g>
</svg>
