<?xml version="1.0" encoding="UTF-8" standalone="no"?>
<!DOCTYPE svg PUBLIC "-//W3C//DTD SVG 1.1//EN"
 "http://www.w3.org/Graphics/SVG/1.1/DTD/svg11.dtd">
<!-- Generated by graphviz version 11.0.0 (20240428.1522)
 -->
<!-- Title: Graphical Class Hierarchy Pages: 1 -->
<svg width="346pt" height="379pt"
 viewBox="0.00 0.00 346.00 378.50" xmlns="http://www.w3.org/2000/svg" xmlns:xlink="http://www.w3.org/1999/xlink">
<g id="graph0" class="graph" transform="scale(1 1) rotate(0) translate(4 374.5)">
<title>Graphical Class Hierarchy</title>
<!-- Node0 -->
<g id="Node000000" class="node">
<title>Node0</title>
<g id="a_Node000000"><a xlink:href="d9/d55/classv8_1_1Extension.html" target="_top" xlink:title=" ">
<polygon fill="white" stroke="#666666" points="94,-205.12 0,-205.12 0,-184.38 94,-184.38 94,-205.12"/>
<text text-anchor="middle" x="47" y="-191.62" font-family="Cascadia Code NF" font-size="10.00">v8::Extension</text>
</a>
</g>
</g>
<!-- Node1 -->
<g id="Node000001" class="node">
<title>Node1</title>
<g id="a_Node000001"><a xlink:href="d2/d6d/classv8_1_1internal_1_1CpuTraceMarkExtension.html" target="_top" xlink:title=" ">
<polygon fill="white" stroke="#666666" points="320,-370.5 148,-370.5 148,-337 320,-337 320,-370.5"/>
<text text-anchor="start" x="156" y="-357" font-family="Cascadia Code NF" font-size="10.00">v8::internal::CpuTraceMark</text>
<text text-anchor="middle" x="234" y="-344.25" font-family="Cascadia Code NF" font-size="10.00">Extension</text>
</a>
</g>
</g>
<!-- Node0&#45;&gt;Node1 -->
<g id="edge2530_Node000000_Node000001" class="edge">
<title>Node0&#45;&gt;Node1</title>
<g id="a_edge2530_Node000000_Node000001"><a xlink:title=" ">
<path fill="none" stroke="#63b8ff" d="M55.28,-216.11C66.52,-245.8 90.97,-299.13 130,-327.75 135.43,-331.73 141.4,-335.11 147.66,-337.97"/>
<polygon fill="#63b8ff" stroke="#63b8ff" points="58.58,-214.95 51.89,-206.73 51.99,-217.32 58.58,-214.95"/>
</a>
</g>
</g>
<!-- Node2 -->
<g id="Node000002" class="node">
<title>Node2</title>
<g id="a_Node000002"><a xlink:href="d1/df4/classv8_1_1internal_1_1ExternalizeStringExtension.html" target="_top" xlink:title=" ">
<polygon fill="white" stroke="#666666" points="317,-318.5 151,-318.5 151,-285 317,-285 317,-318.5"/>
<text text-anchor="start" x="159" y="-305" font-family="Cascadia Code NF" font-size="10.00">v8::internal::Externalize</text>
<text text-anchor="middle" x="234" y="-292.25" font-family="Cascadia Code NF" font-size="10.00">StringExtension</text>
</a>
</g>
</g>
<!-- Node0&#45;&gt;Node2 -->
<g id="edge2531_Node000000_Node000002" class="edge">
<title>Node0&#45;&gt;Node2</title>
<g id="a_edge2531_Node000000_Node000002"><a xlink:title=" ">
<path fill="none" stroke="#63b8ff" d="M62.84,-214.57C77.78,-233.13 102.52,-260.26 130,-275.75 136.51,-279.42 143.53,-282.58 150.75,-285.29"/>
<polygon fill="#63b8ff" stroke="#63b8ff" points="65.61,-212.43 56.7,-206.7 60.09,-216.74 65.61,-212.43"/>
</a>
</g>
</g>
<!-- Node3 -->
<g id="Node000003" class="node">
<title>Node3</title>
<g id="a_Node000003"><a xlink:href="d2/d38/classv8_1_1internal_1_1FuzzilliExtension.html" target="_top" xlink:title=" ">
<polygon fill="white" stroke="#666666" points="335,-267.12 133,-267.12 133,-246.38 335,-246.38 335,-267.12"/>
<text text-anchor="middle" x="234" y="-253.62" font-family="Cascadia Code NF" font-size="10.00">v8::internal::FuzzilliExtension</text>
</a>
</g>
</g>
<!-- Node0&#45;&gt;Node3 -->
<g id="edge2532_Node000000_Node000003" class="edge">
<title>Node0&#45;&gt;Node3</title>
<g id="a_edge2532_Node000000_Node000003"><a xlink:title=" ">
<path fill="none" stroke="#63b8ff" d="M75.55,-211.33C91.07,-220.04 111.08,-230.22 130,-236.75 140.5,-240.38 151.85,-243.41 163.04,-245.93"/>
<polygon fill="#63b8ff" stroke="#63b8ff" points="77.32,-208.31 66.9,-206.36 73.83,-214.38 77.32,-208.31"/>
</a>
</g>
</g>
<!-- Node4 -->
<g id="Node000004" class="node">
<title>Node4</title>
<g id="a_Node000004"><a xlink:href="dd/d79/classv8_1_1internal_1_1GCExtension.html" target="_top" xlink:title=" ">
<polygon fill="white" stroke="#666666" points="317,-228.12 151,-228.12 151,-207.38 317,-207.38 317,-228.12"/>
<text text-anchor="middle" x="234" y="-214.62" font-family="Cascadia Code NF" font-size="10.00">v8::internal::GCExtension</text>
</a>
</g>
</g>
<!-- Node0&#45;&gt;Node4 -->
<g id="edge2533_Node000000_Node000004" class="edge">
<title>Node0&#45;&gt;Node4</title>
<g id="a_edge2533_Node000000_Node000004"><a xlink:title=" ">
<path fill="none" stroke="#63b8ff" d="M105.39,-201.89C119.73,-203.67 135.39,-205.61 150.68,-207.52"/>
<polygon fill="#63b8ff" stroke="#63b8ff" points="106.06,-198.44 95.71,-200.68 105.2,-205.39 106.06,-198.44"/>
</a>
</g>
</g>
<!-- Node5 -->
<g id="Node000005" class="node">
<title>Node5</title>
<g id="a_Node000005"><a xlink:href="d5/d0e/classv8_1_1internal_1_1IgnitionStatisticsExtension.html" target="_top" xlink:title=" ">
<polygon fill="white" stroke="#666666" points="338,-189.5 130,-189.5 130,-156 338,-156 338,-189.5"/>
<text text-anchor="start" x="138" y="-176" font-family="Cascadia Code NF" font-size="10.00">v8::internal::IgnitionStatistics</text>
<text text-anchor="middle" x="234" y="-163.25" font-family="Cascadia Code NF" font-size="10.00">Extension</text>
</a>
</g>
</g>
<!-- Node0&#45;&gt;Node5 -->
<g id="edge2534_Node000000_Node000005" class="edge">
<title>Node0&#45;&gt;Node5</title>
<g id="a_edge2534_Node000000_Node000005"><a xlink:title=" ">
<path fill="none" stroke="#63b8ff" d="M105.57,-187.9C113.27,-186.99 121.34,-186.03 129.54,-185.05"/>
<polygon fill="#63b8ff" stroke="#63b8ff" points="105.23,-184.42 95.71,-189.08 106.05,-191.37 105.23,-184.42"/>
</a>
</g>
</g>
<!-- Node6 -->
<g id="Node000006" class="node">
<title>Node6</title>
<g id="a_Node000006"><a xlink:href="db/d83/classv8_1_1internal_1_1StatisticsExtension.html" target="_top" xlink:title=" ">
<polygon fill="white" stroke="#666666" points="314,-137.5 154,-137.5 154,-104 314,-104 314,-137.5"/>
<text text-anchor="start" x="162" y="-124" font-family="Cascadia Code NF" font-size="10.00">v8::internal::Statistics</text>
<text text-anchor="middle" x="234" y="-111.25" font-family="Cascadia Code NF" font-size="10.00">Extension</text>
</a>
</g>
</g>
<!-- Node0&#45;&gt;Node6 -->
<g id="edge2535_Node000000_Node000006" class="edge">
<title>Node0&#45;&gt;Node6</title>
<g id="a_edge2535_Node000000_Node000006"><a xlink:title=" ">
<path fill="none" stroke="#63b8ff" d="M72.87,-177.7C88.65,-167.51 109.84,-155 130,-146.75 137.94,-143.5 146.39,-140.58 154.91,-137.96"/>
<polygon fill="#63b8ff" stroke="#63b8ff" points="71.02,-174.72 64.6,-183.15 74.88,-180.56 71.02,-174.72"/>
</a>
</g>
</g>
<!-- Node7 -->
<g id="Node000007" class="node">
<title>Node7</title>
<g id="a_Node000007"><a xlink:href="df/d7b/classv8_1_1internal_1_1TriggerFailureExtension.html" target="_top" xlink:title=" ">
<polygon fill="white" stroke="#666666" points="326,-85.5 142,-85.5 142,-52 326,-52 326,-85.5"/>
<text text-anchor="start" x="150" y="-72" font-family="Cascadia Code NF" font-size="10.00">v8::internal::TriggerFailure</text>
<text text-anchor="middle" x="234" y="-59.25" font-family="Cascadia Code NF" font-size="10.00">Extension</text>
</a>
</g>
</g>
<!-- Node0&#45;&gt;Node7 -->
<g id="edge2536_Node000000_Node000007" class="edge">
<title>Node0&#45;&gt;Node7</title>
<g id="a_edge2536_Node000000_Node000007"><a xlink:title=" ">
<path fill="none" stroke="#63b8ff" d="M59.25,-174.38C72.95,-151.49 98.25,-114.9 130,-94.75 135.29,-91.39 141,-88.46 146.91,-85.91"/>
<polygon fill="#63b8ff" stroke="#63b8ff" points="56.36,-172.38 54.39,-182.79 62.42,-175.88 56.36,-172.38"/>
</a>
</g>
</g>
<!-- Node8 -->
<g id="Node000008" class="node">
<title>Node8</title>
<g id="a_Node000008"><a xlink:href="d8/d42/classv8_1_1internal_1_1VTuneDomainSupportExtension.html" target="_top" xlink:title=" ">
<polygon fill="white" stroke="#666666" points="317,-33.5 151,-33.5 151,0 317,0 317,-33.5"/>
<text text-anchor="start" x="159" y="-20" font-family="Cascadia Code NF" font-size="10.00">v8::internal::VTuneDomain</text>
<text text-anchor="middle" x="234" y="-7.25" font-family="Cascadia Code NF" font-size="10.00">SupportExtension</text>
</a>
</g>
</g>
<!-- Node0&#45;&gt;Node8 -->
<g id="edge2537_Node000000_Node000008" class="edge">
<title>Node0&#45;&gt;Node8</title>
<g id="a_edge2537_Node000000_Node000008"><a xlink:title=" ">
<path fill="none" stroke="#63b8ff" d="M53.57,-173.2C63.29,-139.97 86.6,-76.55 130,-42.75 136.26,-37.88 143.32,-33.91 150.74,-30.68"/>
<polygon fill="#63b8ff" stroke="#63b8ff" points="50.28,-171.93 50.99,-182.5 57.03,-173.8 50.28,-171.93"/>
</a>
</g>
</g>
</g>
</svg>
