<?xml version="1.0" encoding="UTF-8" standalone="no"?>
<!DOCTYPE svg PUBLIC "-//W3C//DTD SVG 1.1//EN"
 "http://www.w3.org/Graphics/SVG/1.1/DTD/svg11.dtd">
<!-- Generated by graphviz version 11.0.0 (20240428.1522)
 -->
<!-- Title: Graphical Class Hierarchy Pages: 1 -->
<svg width="472pt" height="210pt"
 viewBox="0.00 0.00 472.00 209.88" xmlns="http://www.w3.org/2000/svg" xmlns:xlink="http://www.w3.org/1999/xlink">
<g id="graph0" class="graph" transform="scale(1 1) rotate(0) translate(4 205.88)">
<title>Graphical Class Hierarchy</title>
<!-- Node0 -->
<g id="Node000000" class="node">
<title>Node0</title>
<g id="a_Node000000"><a xlink:href="da/d14/classv8_1_1internal_1_1wasm_1_1AsyncCompileJob_1_1CompileStep.html" target="_top" xlink:title=" ">
<polygon fill="white" stroke="#666666" points="196,-123.88 0,-123.88 0,-90.38 196,-90.38 196,-123.88"/>
<text text-anchor="start" x="8" y="-110.38" font-family="Cascadia Code NF" font-size="10.00">v8::internal::wasm</text>
<text text-anchor="middle" x="98" y="-97.62" font-family="Cascadia Code NF" font-size="10.00">::AsyncCompileJob::CompileStep</text>
</a>
</g>
</g>
<!-- Node1 -->
<g id="Node000001" class="node">
<title>Node1</title>
<g id="a_Node000001"><a xlink:href="dc/de6/classv8_1_1internal_1_1wasm_1_1AsyncCompileJob_1_1DecodeModule.html" target="_top" xlink:title=" ">
<polygon fill="white" stroke="#666666" points="449,-201.88 247,-201.88 247,-168.38 449,-168.38 449,-201.88"/>
<text text-anchor="start" x="255" y="-188.38" font-family="Cascadia Code NF" font-size="10.00">v8::internal::wasm</text>
<text text-anchor="middle" x="348" y="-175.62" font-family="Cascadia Code NF" font-size="10.00">::AsyncCompileJob::DecodeModule</text>
</a>
</g>
</g>
<!-- Node0&#45;&gt;Node1 -->
<g id="edge4910_Node000000_Node000001" class="edge">
<title>Node0&#45;&gt;Node1</title>
<g id="a_edge4910_Node000000_Node000001"><a xlink:title=" ">
<path fill="none" stroke="#63b8ff" d="M148.87,-128.68C173.57,-138.82 204.02,-150.55 232,-159.12 242.27,-162.28 253.17,-165.23 264,-167.93"/>
<polygon fill="#63b8ff" stroke="#63b8ff" points="150.29,-125.48 139.71,-124.88 147.61,-131.94 150.29,-125.48"/>
</a>
</g>
</g>
<!-- Node2 -->
<g id="Node000002" class="node">
<title>Node2</title>
<g id="a_Node000002"><a xlink:href="d8/d11/classv8_1_1internal_1_1wasm_1_1AsyncCompileJob_1_1Fail.html" target="_top" xlink:title=" ">
<polygon fill="white" stroke="#666666" points="425,-149.88 271,-149.88 271,-116.38 425,-116.38 425,-149.88"/>
<text text-anchor="start" x="279" y="-136.38" font-family="Cascadia Code NF" font-size="10.00">v8::internal::wasm</text>
<text text-anchor="middle" x="348" y="-123.62" font-family="Cascadia Code NF" font-size="10.00">::AsyncCompileJob::Fail</text>
</a>
</g>
</g>
<!-- Node0&#45;&gt;Node2 -->
<g id="edge4911_Node000000_Node000002" class="edge">
<title>Node0&#45;&gt;Node2</title>
<g id="a_edge4911_Node000000_Node000002"><a xlink:title=" ">
<path fill="none" stroke="#63b8ff" d="M207.68,-118.52C228.92,-120.75 250.76,-123.04 270.67,-125.12"/>
<polygon fill="#63b8ff" stroke="#63b8ff" points="208.12,-115.05 197.81,-117.48 207.39,-122.01 208.12,-115.05"/>
</a>
</g>
</g>
<!-- Node3 -->
<g id="Node000003" class="node">
<title>Node3</title>
<g id="a_Node000003"><a xlink:href="dc/d09/classv8_1_1internal_1_1wasm_1_1AsyncCompileJob_1_1FinishCompilation.html" target="_top" xlink:title=" ">
<polygon fill="white" stroke="#666666" points="464,-97.88 232,-97.88 232,-64.38 464,-64.38 464,-97.88"/>
<text text-anchor="start" x="240" y="-84.38" font-family="Cascadia Code NF" font-size="10.00">v8::internal::wasm</text>
<text text-anchor="middle" x="348" y="-71.62" font-family="Cascadia Code NF" font-size="10.00">::AsyncCompileJob::FinishCompilation</text>
</a>
</g>
</g>
<!-- Node0&#45;&gt;Node3 -->
<g id="edge4912_Node000000_Node000003" class="edge">
<title>Node0&#45;&gt;Node3</title>
<g id="a_edge4912_Node000000_Node000003"><a xlink:title=" ">
<path fill="none" stroke="#63b8ff" d="M207.61,-95.74C215.65,-94.9 223.79,-94.04 231.87,-93.2"/>
<polygon fill="#63b8ff" stroke="#63b8ff" points="207.39,-92.24 197.81,-96.77 208.12,-99.2 207.39,-92.24"/>
</a>
</g>
</g>
<!-- Node4 -->
<g id="Node000004" class="node">
<title>Node4</title>
<g id="a_Node000004"><a xlink:href="db/d7b/classv8_1_1internal_1_1wasm_1_1AsyncCompileJob_1_1PrepareAndStartCompile.html" target="_top" xlink:title=" ">
<polygon fill="white" stroke="#666666" points="434,-46.25 262,-46.25 262,0 434,0 434,-46.25"/>
<text text-anchor="start" x="270" y="-32.75" font-family="Cascadia Code NF" font-size="10.00">v8::internal::wasm</text>
<text text-anchor="start" x="270" y="-20" font-family="Cascadia Code NF" font-size="10.00">::AsyncCompileJob::Prepare</text>
<text text-anchor="middle" x="348" y="-7.25" font-family="Cascadia Code NF" font-size="10.00">AndStartCompile</text>
</a>
</g>
</g>
<!-- Node0&#45;&gt;Node4 -->
<g id="edge4913_Node000000_Node000004" class="edge">
<title>Node0&#45;&gt;Node4</title>
<g id="a_edge4913_Node000000_Node000004"><a xlink:title=" ">
<path fill="none" stroke="#63b8ff" d="M150.44,-85.61C174.93,-75.73 204.75,-64.22 232,-55.12 241.53,-51.94 251.58,-48.82 261.61,-45.84"/>
<polygon fill="#63b8ff" stroke="#63b8ff" points="149.29,-82.3 141.35,-89.31 151.93,-88.78 149.29,-82.3"/>
</a>
</g>
</g>
</g>
</svg>
