<?xml version="1.0" encoding="UTF-8" standalone="no"?>
<!DOCTYPE svg PUBLIC "-//W3C//DTD SVG 1.1//EN"
 "http://www.w3.org/Graphics/SVG/1.1/DTD/svg11.dtd">
<!-- Generated by graphviz version 11.0.0 (20240428.1522)
 -->
<!-- Title: Graphical Class Hierarchy Pages: 1 -->
<svg width="460pt" height="198pt"
 viewBox="0.00 0.00 460.00 197.50" xmlns="http://www.w3.org/2000/svg" xmlns:xlink="http://www.w3.org/1999/xlink">
<g id="graph0" class="graph" transform="scale(1 1) rotate(0) translate(4 193.5)">
<title>Graphical Class Hierarchy</title>
<!-- Node0 -->
<g id="Node000000" class="node">
<title>Node0</title>
<g id="a_Node000000"><a xlink:href="d2/dff/classv8_1_1internal_1_1BaseTimedHistogramScope.html" target="_top" xlink:title=" ">
<polygon fill="white" stroke="#666666" points="208,-111.5 0,-111.5 0,-78 208,-78 208,-111.5"/>
<text text-anchor="start" x="8" y="-98" font-family="Cascadia Code NF" font-size="10.00">v8::internal::BaseTimedHistogram</text>
<text text-anchor="middle" x="104" y="-85.25" font-family="Cascadia Code NF" font-size="10.00">Scope</text>
</a>
</g>
</g>
<!-- Node1 -->
<g id="Node000001" class="node">
<title>Node1</title>
<g id="a_Node000001"><a xlink:href="d0/d50/classv8_1_1internal_1_1LazyTimedHistogramScope.html" target="_top" xlink:title=" ">
<polygon fill="white" stroke="#666666" points="452,-189.5 244,-189.5 244,-156 452,-156 452,-189.5"/>
<text text-anchor="start" x="252" y="-176" font-family="Cascadia Code NF" font-size="10.00">v8::internal::LazyTimedHistogram</text>
<text text-anchor="middle" x="348" y="-163.25" font-family="Cascadia Code NF" font-size="10.00">Scope</text>
</a>
</g>
</g>
<!-- Node0&#45;&gt;Node1 -->
<g id="edge2738_Node000000_Node000001" class="edge">
<title>Node0&#45;&gt;Node1</title>
<g id="a_edge2738_Node000000_Node000001"><a xlink:title=" ">
<path fill="none" stroke="#63b8ff" d="M157.82,-116.08C183.58,-126.08 215.16,-137.75 244,-146.75 253.86,-149.83 264.33,-152.8 274.68,-155.57"/>
<polygon fill="#63b8ff" stroke="#63b8ff" points="159.16,-112.85 148.57,-112.46 156.61,-119.37 159.16,-112.85"/>
</a>
</g>
</g>
<!-- Node2 -->
<g id="Node000002" class="node">
<title>Node2</title>
<g id="a_Node000002"><a xlink:href="d8/d73/classv8_1_1internal_1_1NestedTimedHistogramScope.html" target="_top" xlink:title=" ">
<polygon fill="white" stroke="#666666" points="431,-137.5 265,-137.5 265,-104 431,-104 431,-137.5"/>
<text text-anchor="start" x="273" y="-124" font-family="Cascadia Code NF" font-size="10.00">v8::internal::NestedTimed</text>
<text text-anchor="middle" x="348" y="-111.25" font-family="Cascadia Code NF" font-size="10.00">HistogramScope</text>
</a>
</g>
</g>
<!-- Node0&#45;&gt;Node2 -->
<g id="edge2739_Node000000_Node000002" class="edge">
<title>Node0&#45;&gt;Node2</title>
<g id="a_edge2739_Node000000_Node000002"><a xlink:title=" ">
<path fill="none" stroke="#63b8ff" d="M219.45,-107.05C234.77,-108.69 250.24,-110.35 264.85,-111.92"/>
<polygon fill="#63b8ff" stroke="#63b8ff" points="220.15,-103.6 209.84,-106.01 219.41,-110.56 220.15,-103.6"/>
</a>
</g>
</g>
<!-- Node3 -->
<g id="Node000003" class="node">
<title>Node3</title>
<g id="a_Node000003"><a xlink:href="d4/dfb/classv8_1_1internal_1_1OptionalTimedHistogramScope.html" target="_top" xlink:title=" ">
<polygon fill="white" stroke="#666666" points="437,-85.5 259,-85.5 259,-52 437,-52 437,-85.5"/>
<text text-anchor="start" x="267" y="-72" font-family="Cascadia Code NF" font-size="10.00">v8::internal::OptionalTimed</text>
<text text-anchor="middle" x="348" y="-59.25" font-family="Cascadia Code NF" font-size="10.00">HistogramScope</text>
</a>
</g>
</g>
<!-- Node0&#45;&gt;Node3 -->
<g id="edge2740_Node000000_Node000003" class="edge">
<title>Node0&#45;&gt;Node3</title>
<g id="a_edge2740_Node000000_Node000003"><a xlink:title=" ">
<path fill="none" stroke="#63b8ff" d="M219.74,-82.42C232.76,-81.02 245.89,-79.61 258.5,-78.26"/>
<polygon fill="#63b8ff" stroke="#63b8ff" points="219.41,-78.94 209.84,-83.49 220.15,-85.9 219.41,-78.94"/>
</a>
</g>
</g>
<!-- Node4 -->
<g id="Node000004" class="node">
<title>Node4</title>
<g id="a_Node000004"><a xlink:href="d5/d6b/classv8_1_1internal_1_1TimedHistogramScope.html" target="_top" xlink:title=" ">
<polygon fill="white" stroke="#666666" points="440,-33.5 256,-33.5 256,0 440,0 440,-33.5"/>
<text text-anchor="start" x="264" y="-20" font-family="Cascadia Code NF" font-size="10.00">v8::internal::TimedHistogram</text>
<text text-anchor="middle" x="348" y="-7.25" font-family="Cascadia Code NF" font-size="10.00">Scope</text>
</a>
</g>
</g>
<!-- Node0&#45;&gt;Node4 -->
<g id="edge2741_Node000000_Node000004" class="edge">
<title>Node0&#45;&gt;Node4</title>
<g id="a_edge2741_Node000000_Node000004"><a xlink:title=" ">
<path fill="none" stroke="#63b8ff" d="M157.82,-73.42C183.58,-63.42 215.16,-51.75 244,-42.75 253.86,-39.67 264.33,-36.7 274.68,-33.93"/>
<polygon fill="#63b8ff" stroke="#63b8ff" points="156.61,-70.13 148.57,-77.04 159.16,-76.65 156.61,-70.13"/>
</a>
</g>
</g>
</g>
</svg>
