<?xml version="1.0" encoding="UTF-8" standalone="no"?>
<!DOCTYPE svg PUBLIC "-//W3C//DTD SVG 1.1//EN"
 "http://www.w3.org/Graphics/SVG/1.1/DTD/svg11.dtd">
<!-- Generated by graphviz version 11.0.0 (20240428.1522)
 -->
<!-- Title: Graphical Class Hierarchy Pages: 1 -->
<svg width="328pt" height="132pt"
 viewBox="0.00 0.00 328.00 132.12" xmlns="http://www.w3.org/2000/svg" xmlns:xlink="http://www.w3.org/1999/xlink">
<g id="graph0" class="graph" transform="scale(1 1) rotate(0) translate(4 128.12)">
<title>Graphical Class Hierarchy</title>
<!-- Node0 -->
<g id="Node000000" class="node">
<title>Node0</title>
<g id="a_Node000000"><a xlink:title=" ">
<polygon fill="#e0e0e0" stroke="#999999" points="112,-79.12 0,-79.12 0,-58.38 112,-58.38 112,-79.12"/>
<text text-anchor="middle" x="56" y="-65.62" font-family="Cascadia Code NF" font-size="10.00">std::vector&lt; T &gt;</text>
</a>
</g>
</g>
<!-- Node1 -->
<g id="Node000001" class="node">
<title>Node1</title>
<g id="a_Node000001"><a xlink:href="d0/d5d/classv8_1_1internal_1_1Coverage.html" target="_top" xlink:title=" ">
<polygon fill="white" stroke="#666666" points="308,-124.12 160,-124.12 160,-103.38 308,-103.38 308,-124.12"/>
<text text-anchor="middle" x="234" y="-110.62" font-family="Cascadia Code NF" font-size="10.00">v8::internal::Coverage</text>
</a>
</g>
</g>
<!-- Node0&#45;&gt;Node1 -->
<g id="edge1855_Node000000_Node000001" class="edge">
<title>Node0&#45;&gt;Node1</title>
<g id="a_edge1855_Node000000_Node000001"><a xlink:title=" ">
<path fill="none" stroke="#63b8ff" d="M104.11,-82.78C118.18,-86.81 133.68,-91.11 148,-94.75 158.99,-97.55 170.84,-100.33 182.09,-102.88"/>
<polygon fill="#63b8ff" stroke="#63b8ff" points="105.21,-79.45 94.63,-80.03 103.27,-86.18 105.21,-79.45"/>
</a>
</g>
</g>
<!-- Node2 -->
<g id="Node000002" class="node">
<title>Node2</title>
<g id="a_Node000002"><a xlink:href="d2/dd8/classv8_1_1internal_1_1DirectHandleVector.html" target="_top" xlink:title=" ">
<polygon fill="white" stroke="#666666" points="320,-85.5 148,-85.5 148,-52 320,-52 320,-85.5"/>
<text text-anchor="start" x="156" y="-72" font-family="Cascadia Code NF" font-size="10.00">v8::internal::DirectHandle</text>
<text text-anchor="middle" x="234" y="-59.25" font-family="Cascadia Code NF" font-size="10.00">Vector&lt; T &gt;</text>
</a>
</g>
</g>
<!-- Node0&#45;&gt;Node2 -->
<g id="edge1856_Node000000_Node000002" class="edge">
<title>Node0&#45;&gt;Node2</title>
<g id="a_edge1856_Node000000_Node000002"><a xlink:title=" ">
<path fill="none" stroke="#63b8ff" d="M123.56,-68.75C131.45,-68.75 139.59,-68.75 147.69,-68.75"/>
<polygon fill="#63b8ff" stroke="#63b8ff" points="123.72,-65.25 113.72,-68.75 123.72,-72.25 123.72,-65.25"/>
</a>
</g>
</g>
<!-- Node3 -->
<g id="Node000003" class="node">
<title>Node3</title>
<g id="a_Node000003"><a xlink:href="d8/da4/classv8_1_1internal_1_1torque_1_1VisitResultVector.html" target="_top" xlink:title=" ">
<polygon fill="white" stroke="#666666" points="302,-33.5 166,-33.5 166,0 302,0 302,-33.5"/>
<text text-anchor="start" x="174" y="-20" font-family="Cascadia Code NF" font-size="10.00">v8::internal::torque</text>
<text text-anchor="middle" x="234" y="-7.25" font-family="Cascadia Code NF" font-size="10.00">::VisitResultVector</text>
</a>
</g>
</g>
<!-- Node0&#45;&gt;Node3 -->
<g id="edge1857_Node000000_Node000003" class="edge">
<title>Node0&#45;&gt;Node3</title>
<g id="a_edge1857_Node000000_Node000003"><a xlink:title=" ">
<path fill="none" stroke="#63b8ff" d="M104.37,-54.75C126.04,-48.35 151.91,-40.71 174.76,-33.96"/>
<polygon fill="#63b8ff" stroke="#63b8ff" points="103.52,-51.36 94.92,-57.55 105.5,-58.07 103.52,-51.36"/>
</a>
</g>
</g>
</g>
</svg>
