<?xml version="1.0" encoding="UTF-8" standalone="no"?>
<!DOCTYPE svg PUBLIC "-//W3C//DTD SVG 1.1//EN"
 "http://www.w3.org/Graphics/SVG/1.1/DTD/svg11.dtd">
<!-- Generated by graphviz version 11.0.0 (20240428.1522)
 -->
<!-- Title: Graphical Class Hierarchy Pages: 1 -->
<svg width="644pt" height="381pt"
 viewBox="0.00 0.00 644.00 380.50" xmlns="http://www.w3.org/2000/svg" xmlns:xlink="http://www.w3.org/1999/xlink">
<g id="graph0" class="graph" transform="scale(1 1) rotate(0) translate(4 376.5)">
<title>Graphical Class Hierarchy</title>
<!-- Node0 -->
<g id="Node000000" class="node">
<title>Node0</title>
<g id="a_Node000000"><a xlink:href="d6/df6/classcppgc_1_1internal_1_1StatsCollector_1_1AllocationObserver.html" target="_top" xlink:title=" ">
<polygon fill="white" stroke="#666666" points="356,-262.5 154,-262.5 154,-229 356,-229 356,-262.5"/>
<text text-anchor="start" x="162" y="-249" font-family="Cascadia Code NF" font-size="10.00">cppgc::internal::StatsCollector</text>
<text text-anchor="middle" x="255" y="-236.25" font-family="Cascadia Code NF" font-size="10.00">::AllocationObserver</text>
</a>
</g>
</g>
<!-- Node1 -->
<g id="Node000001" class="node">
<title>Node1</title>
<g id="a_Node000001"><a xlink:href="d1/ded/classcppgc_1_1internal_1_1HeapGrowing_1_1HeapGrowingImpl.html" target="_top" xlink:title=" ">
<polygon fill="white" stroke="#666666" points="606,-372.5 422,-372.5 422,-339 606,-339 606,-372.5"/>
<text text-anchor="start" x="430" y="-359" font-family="Cascadia Code NF" font-size="10.00">cppgc::internal::HeapGrowing</text>
<text text-anchor="middle" x="514" y="-346.25" font-family="Cascadia Code NF" font-size="10.00">::HeapGrowingImpl</text>
</a>
</g>
</g>
<!-- Node0&#45;&gt;Node1 -->
<g id="edge312_Node000000_Node000001" class="edge">
<title>Node0&#45;&gt;Node1</title>
<g id="a_edge312_Node000000_Node000001"><a xlink:title=" ">
<path fill="none" stroke="#63b8ff" d="M287.45,-269.52C314,-288.49 353.71,-314.34 392,-329.75 401.47,-333.56 411.59,-336.85 421.79,-339.68"/>
<polygon fill="#63b8ff" stroke="#63b8ff" points="289.67,-266.8 279.52,-263.77 285.56,-272.47 289.67,-266.8"/>
</a>
</g>
</g>
<!-- Node2 -->
<g id="Node000002" class="node">
<title>Node2</title>
<g id="a_Node000002"><a xlink:href="d0/d22/classcppgc_1_1internal_1_1MarkerBase_1_1IncrementalMarkingAllocationObserver.html" target="_top" xlink:title=" ">
<polygon fill="white" stroke="#666666" points="636,-320.5 392,-320.5 392,-287 636,-287 636,-320.5"/>
<text text-anchor="start" x="400" y="-307" font-family="Cascadia Code NF" font-size="10.00">cppgc::internal::MarkerBase</text>
<text text-anchor="middle" x="514" y="-294.25" font-family="Cascadia Code NF" font-size="10.00">::IncrementalMarkingAllocationObserver</text>
</a>
</g>
</g>
<!-- Node0&#45;&gt;Node2 -->
<g id="edge313_Node000000_Node000002" class="edge">
<title>Node0&#45;&gt;Node2</title>
<g id="a_edge313_Node000000_Node000002"><a xlink:title=" ">
<path fill="none" stroke="#63b8ff" d="M338.74,-265.49C356.31,-269.6 374.75,-273.87 392,-277.75 404.89,-280.65 418.57,-283.66 431.92,-286.56"/>
<polygon fill="#63b8ff" stroke="#63b8ff" points="339.94,-262.18 329.41,-263.3 338.34,-268.99 339.94,-262.18"/>
</a>
</g>
</g>
<!-- Node3 -->
<g id="Node000003" class="node">
<title>Node3</title>
<g id="a_Node000003"><a xlink:href="d4/d1c/classcppgc_1_1internal_1_1ProcessHeapStatisticsUpdater_1_1AllocationObserverImpl.html" target="_top" xlink:title=" ">
<polygon fill="white" stroke="#666666" points="594,-268.88 434,-268.88 434,-222.62 594,-222.62 594,-268.88"/>
<text text-anchor="start" x="442" y="-255.38" font-family="Cascadia Code NF" font-size="10.00">cppgc::internal::Process</text>
<text text-anchor="start" x="442" y="-242.62" font-family="Cascadia Code NF" font-size="10.00">HeapStatisticsUpdater</text>
<text text-anchor="middle" x="514" y="-229.88" font-family="Cascadia Code NF" font-size="10.00">::AllocationObserverImpl</text>
</a>
</g>
</g>
<!-- Node0&#45;&gt;Node3 -->
<g id="edge314_Node000000_Node000003" class="edge">
<title>Node0&#45;&gt;Node3</title>
<g id="a_edge314_Node000000_Node000003"><a xlink:title=" ">
<path fill="none" stroke="#63b8ff" d="M367.97,-245.75C390.1,-245.75 412.9,-245.75 433.68,-245.75"/>
<polygon fill="#63b8ff" stroke="#63b8ff" points="367.98,-242.25 357.98,-245.75 367.98,-249.25 367.98,-242.25"/>
</a>
</g>
</g>
<!-- Node4 -->
<g id="Node000004" class="node">
<title>Node4</title>
<g id="a_Node000004"><a xlink:href="d8/d27/classv8_1_1internal_1_1CppHeap.html" target="_top" xlink:title=" ">
<polygon fill="white" stroke="#666666" points="585,-153.12 443,-153.12 443,-132.38 585,-132.38 585,-153.12"/>
<text text-anchor="middle" x="514" y="-139.62" font-family="Cascadia Code NF" font-size="10.00">v8::internal::CppHeap</text>
</a>
</g>
</g>
<!-- Node0&#45;&gt;Node4 -->
<g id="edge315_Node000000_Node000004" class="edge">
<title>Node0&#45;&gt;Node4</title>
<g id="a_edge315_Node000000_Node000004"><a xlink:title=" ">
<path fill="none" stroke="#63b8ff" d="M314.62,-224.11C328.78,-217.63 343.44,-209.79 356,-200.75 375.14,-186.97 371.19,-172.86 392,-161.75 407.38,-153.54 425.32,-148.63 442.61,-145.77"/>
<polygon fill="#63b8ff" stroke="#63b8ff" points="313.56,-220.76 305.81,-227.98 316.37,-227.16 313.56,-220.76"/>
</a>
</g>
</g>
<!-- Node13 -->
<g id="Node000013" class="node">
<title>Node13</title>
<g id="a_Node000013"><a xlink:href="d3/d16/classv8_1_1internal_1_1MinorGCHeapGrowing.html" target="_top" xlink:title=" ">
<polygon fill="white" stroke="#666666" points="597,-204.5 431,-204.5 431,-171 597,-171 597,-204.5"/>
<text text-anchor="start" x="439" y="-191" font-family="Cascadia Code NF" font-size="10.00">v8::internal::MinorGCHeap</text>
<text text-anchor="middle" x="514" y="-178.25" font-family="Cascadia Code NF" font-size="10.00">Growing</text>
</a>
</g>
</g>
<!-- Node0&#45;&gt;Node13 -->
<g id="edge316_Node000000_Node000013" class="edge">
<title>Node0&#45;&gt;Node13</title>
<g id="a_edge316_Node000000_Node000013"><a xlink:title=" ">
<path fill="none" stroke="#63b8ff" d="M338.74,-226.01C356.31,-221.9 374.75,-217.63 392,-213.75 404.89,-210.85 418.57,-207.84 431.92,-204.94"/>
<polygon fill="#63b8ff" stroke="#63b8ff" points="338.34,-222.51 329.41,-228.2 339.94,-229.32 338.34,-222.51"/>
</a>
</g>
</g>
<!-- Node5 -->
<g id="Node000005" class="node">
<title>Node5</title>
<g id="a_Node000005"><a xlink:href="da/d96/classv8_1_1CppHeap.html" target="_top" xlink:title=" ">
<polygon fill="white" stroke="#666666" points="296,-192.12 214,-192.12 214,-171.38 296,-171.38 296,-192.12"/>
<text text-anchor="middle" x="255" y="-178.62" font-family="Cascadia Code NF" font-size="10.00">v8::CppHeap</text>
</a>
</g>
</g>
<!-- Node5&#45;&gt;Node4 -->
<g id="edge317_Node000005_Node000004" class="edge">
<title>Node5&#45;&gt;Node4</title>
<g id="a_edge317_Node000005_Node000004"><a xlink:title=" ">
<path fill="none" stroke="#63b8ff" d="M307.46,-173.94C346.2,-168.06 399.77,-159.93 442.51,-153.45"/>
<polygon fill="#63b8ff" stroke="#63b8ff" points="307.3,-170.43 297.94,-175.39 308.35,-177.35 307.3,-170.43"/>
</a>
</g>
</g>
<!-- Node6 -->
<g id="Node000006" class="node">
<title>Node6</title>
<g id="a_Node000006"><a xlink:href="d4/d37/classcppgc_1_1internal_1_1GarbageCollector.html" target="_top" xlink:title=" ">
<polygon fill="white" stroke="#666666" points="335,-75.5 175,-75.5 175,-42 335,-42 335,-75.5"/>
<text text-anchor="start" x="183" y="-62" font-family="Cascadia Code NF" font-size="10.00">cppgc::internal::Garbage</text>
<text text-anchor="middle" x="255" y="-49.25" font-family="Cascadia Code NF" font-size="10.00">Collector</text>
</a>
</g>
</g>
<!-- Node6&#45;&gt;Node4 -->
<g id="edge321_Node000006_Node000004" class="edge">
<title>Node6&#45;&gt;Node4</title>
<g id="a_edge321_Node000006_Node000004"><a xlink:title=" ">
<path fill="none" stroke="#63b8ff" d="M346.02,-79.47C349.45,-81.1 352.79,-82.86 356,-84.75 376.03,-96.58 371.45,-111.84 392,-122.75 407.42,-130.94 425.38,-135.93 442.66,-138.94"/>
<polygon fill="#63b8ff" stroke="#63b8ff" points="347.43,-76.27 336.86,-75.55 344.67,-82.7 347.43,-76.27"/>
</a>
</g>
</g>
<!-- Node7 -->
<g id="Node000007" class="node">
<title>Node7</title>
<g id="a_Node000007"><a xlink:href="d3/d56/classcppgc_1_1internal_1_1GCInvoker.html" target="_top" xlink:title=" ">
<polygon fill="white" stroke="#666666" points="600,-72.12 428,-72.12 428,-51.38 600,-51.38 600,-72.12"/>
<text text-anchor="middle" x="514" y="-58.62" font-family="Cascadia Code NF" font-size="10.00">cppgc::internal::GCInvoker</text>
</a>
</g>
</g>
<!-- Node6&#45;&gt;Node7 -->
<g id="edge318_Node000006_Node000007" class="edge">
<title>Node6&#45;&gt;Node7</title>
<g id="a_edge318_Node000006_Node000007"><a xlink:title=" ">
<path fill="none" stroke="#63b8ff" d="M346.39,-59.81C372.85,-60.11 401.68,-60.45 427.81,-60.76"/>
<polygon fill="#63b8ff" stroke="#63b8ff" points="346.76,-56.31 336.72,-59.69 346.68,-63.31 346.76,-56.31"/>
</a>
</g>
</g>
<!-- Node8 -->
<g id="Node000008" class="node">
<title>Node8</title>
<g id="a_Node000008"><a xlink:href="d0/d01/classcppgc_1_1internal_1_1GCInvoker_1_1GCInvokerImpl.html" target="_top" xlink:title=" ">
<polygon fill="white" stroke="#666666" points="600,-33.5 428,-33.5 428,0 600,0 600,-33.5"/>
<text text-anchor="start" x="436" y="-20" font-family="Cascadia Code NF" font-size="10.00">cppgc::internal::GCInvoker</text>
<text text-anchor="middle" x="514" y="-7.25" font-family="Cascadia Code NF" font-size="10.00">::GCInvokerImpl</text>
</a>
</g>
</g>
<!-- Node6&#45;&gt;Node8 -->
<g id="edge319_Node000006_Node000008" class="edge">
<title>Node6&#45;&gt;Node8</title>
<g id="a_edge319_Node000006_Node000008"><a xlink:title=" ">
<path fill="none" stroke="#63b8ff" d="M346.39,-43.98C372.85,-39.65 401.68,-34.94 427.81,-30.67"/>
<polygon fill="#63b8ff" stroke="#63b8ff" points="346,-40.49 336.7,-45.56 347.13,-47.4 346,-40.49"/>
</a>
</g>
</g>
<!-- Node9 -->
<g id="Node000009" class="node">
<title>Node9</title>
<g id="a_Node000009"><a xlink:href="d3/de3/classcppgc_1_1internal_1_1Heap.html" target="_top" xlink:title=" ">
<polygon fill="white" stroke="#666666" points="585,-114.12 443,-114.12 443,-93.38 585,-93.38 585,-114.12"/>
<text text-anchor="middle" x="514" y="-100.62" font-family="Cascadia Code NF" font-size="10.00">cppgc::internal::Heap</text>
</a>
</g>
</g>
<!-- Node6&#45;&gt;Node9 -->
<g id="edge320_Node000006_Node000009" class="edge">
<title>Node6&#45;&gt;Node9</title>
<g id="a_edge320_Node000006_Node000009"><a xlink:title=" ">
<path fill="none" stroke="#63b8ff" d="M346.31,-74.56C381,-80.64 419.77,-87.43 451.19,-92.93"/>
<polygon fill="#63b8ff" stroke="#63b8ff" points="347.15,-71.16 336.7,-72.88 345.94,-78.05 347.15,-71.16"/>
</a>
</g>
</g>
<!-- Node10 -->
<g id="Node000010" class="node">
<title>Node10</title>
<g id="a_Node000010"><a xlink:href="d2/dcd/classcppgc_1_1Heap.html" target="_top" xlink:title=" ">
<polygon fill="white" stroke="#666666" points="296,-114.12 214,-114.12 214,-93.38 296,-93.38 296,-114.12"/>
<text text-anchor="middle" x="255" y="-100.62" font-family="Cascadia Code NF" font-size="10.00">cppgc::Heap</text>
</a>
</g>
</g>
<!-- Node10&#45;&gt;Node9 -->
<g id="edge322_Node000010_Node000009" class="edge">
<title>Node10&#45;&gt;Node9</title>
<g id="a_edge322_Node000010_Node000009"><a xlink:title=" ">
<path fill="none" stroke="#63b8ff" d="M307.46,-103.75C346.2,-103.75 399.77,-103.75 442.51,-103.75"/>
<polygon fill="#63b8ff" stroke="#63b8ff" points="307.95,-100.25 297.95,-103.75 307.95,-107.25 307.95,-100.25"/>
</a>
</g>
</g>
<!-- Node12 -->
<g id="Node000012" class="node">
<title>Node12</title>
<g id="a_Node000012"><a xlink:href="d9/d10/classcppgc_1_1HeapHandle.html" target="_top" xlink:title=" ">
<polygon fill="white" stroke="#666666" points="118,-153.12 0,-153.12 0,-132.38 118,-132.38 118,-153.12"/>
<text text-anchor="middle" x="59" y="-139.62" font-family="Cascadia Code NF" font-size="10.00">cppgc::HeapHandle</text>
</a>
</g>
</g>
<!-- Node11 -->
<g id="Node000011" class="node">
<title>Node11</title>
<g id="a_Node000011"><a xlink:href="de/d15/classcppgc_1_1internal_1_1HeapBase.html" target="_top" xlink:title=" ">
<polygon fill="white" stroke="#666666" points="338,-153.12 172,-153.12 172,-132.38 338,-132.38 338,-153.12"/>
<text text-anchor="middle" x="255" y="-139.62" font-family="Cascadia Code NF" font-size="10.00">cppgc::internal::HeapBase</text>
</a>
</g>
</g>
<!-- Node12&#45;&gt;Node11 -->
<g id="edge323_Node000012_Node000011" class="edge">
<title>Node12&#45;&gt;Node11</title>
<g id="a_edge323_Node000012_Node000011"><a xlink:title=" ">
<path fill="none" stroke="#63b8ff" d="M129.69,-142.75C143.29,-142.75 157.68,-142.75 171.65,-142.75"/>
<polygon fill="#63b8ff" stroke="#63b8ff" points="129.98,-139.25 119.98,-142.75 129.98,-146.25 129.98,-139.25"/>
</a>
</g>
</g>
<!-- Node11&#45;&gt;Node4 -->
<g id="edge325_Node000011_Node000004" class="edge">
<title>Node11&#45;&gt;Node4</title>
<g id="a_edge325_Node000011_Node000004"><a xlink:title=" ">
<path fill="none" stroke="#63b8ff" d="M349.57,-142.75C380.34,-142.75 414.01,-142.75 442.74,-142.75"/>
<polygon fill="#63b8ff" stroke="#63b8ff" points="349.89,-139.25 339.89,-142.75 349.89,-146.25 349.89,-139.25"/>
</a>
</g>
</g>
<!-- Node11&#45;&gt;Node9 -->
<g id="edge324_Node000011_Node000009" class="edge">
<title>Node11&#45;&gt;Node9</title>
<g id="a_edge324_Node000011_Node000009"><a xlink:title=" ">
<path fill="none" stroke="#63b8ff" d="M338.75,-130.19C372.27,-125.11 410.55,-119.3 442.68,-114.42"/>
<polygon fill="#63b8ff" stroke="#63b8ff" points="338.45,-126.7 329.09,-131.66 339.5,-133.62 338.45,-126.7"/>
</a>
</g>
</g>
</g>
</svg>
