<?xml version="1.0" encoding="UTF-8" standalone="no"?>
<!DOCTYPE svg PUBLIC "-//W3C//DTD SVG 1.1//EN"
 "http://www.w3.org/Graphics/SVG/1.1/DTD/svg11.dtd">
<!-- Generated by graphviz version 11.0.0 (20240428.1522)
 -->
<!-- Title: Graphical Class Hierarchy Pages: 1 -->
<svg width="340pt" height="544pt"
 viewBox="0.00 0.00 340.00 543.88" xmlns="http://www.w3.org/2000/svg" xmlns:xlink="http://www.w3.org/1999/xlink">
<g id="graph0" class="graph" transform="scale(1 1) rotate(0) translate(4 539.88)">
<title>Graphical Class Hierarchy</title>
<!-- Node0 -->
<g id="Node000000" class="node">
<title>Node0</title>
<g id="a_Node000000"><a xlink:title=" ">
<polygon fill="#e0e0e0" stroke="#999999" points="94,-247.12 0,-247.12 0,-226.38 94,-226.38 94,-247.12"/>
<text text-anchor="middle" x="47" y="-233.62" font-family="Cascadia Code NF" font-size="10.00">std::set&lt; K &gt;</text>
</a>
</g>
</g>
<!-- Node1 -->
<g id="Node000001" class="node">
<title>Node1</title>
<g id="a_Node000001"><a xlink:href="d0/d11/classv8_1_1internal_1_1ZoneSet.html" target="_top" xlink:title=" ">
<polygon fill="white" stroke="#666666" points="320,-535.88 142,-535.88 142,-489.62 320,-489.62 320,-535.88"/>
<text text-anchor="start" x="150" y="-522.38" font-family="Cascadia Code NF" font-size="10.00">v8::internal::ZoneSet</text>
<text text-anchor="start" x="150" y="-509.62" font-family="Cascadia Code NF" font-size="10.00">&lt; const AstModuleRequest</text>
<text text-anchor="middle" x="231" y="-496.88" font-family="Cascadia Code NF" font-size="10.00"> *, ModuleRequestComparer &gt;</text>
</a>
</g>
</g>
<!-- Node0&#45;&gt;Node1 -->
<g id="edge1762_Node000000_Node000001" class="edge">
<title>Node0&#45;&gt;Node1</title>
<g id="a_edge1762_Node000000_Node000001"><a xlink:title=" ">
<path fill="none" stroke="#63b8ff" d="M49,-258.86C52.34,-306.28 66.88,-418.54 130,-480.75 133.51,-484.2 137.38,-487.29 141.52,-490.04"/>
<polygon fill="#63b8ff" stroke="#63b8ff" points="52.5,-258.82 48.42,-249.04 45.52,-259.23 52.5,-258.82"/>
</a>
</g>
</g>
<!-- Node2 -->
<g id="Node000002" class="node">
<title>Node2</title>
<g id="a_Node000002"><a xlink:href="d0/d11/classv8_1_1internal_1_1ZoneSet.html" target="_top" xlink:title=" ">
<polygon fill="white" stroke="#666666" points="302,-471.88 160,-471.88 160,-425.62 302,-425.62 302,-471.88"/>
<text text-anchor="start" x="168" y="-458.38" font-family="Cascadia Code NF" font-size="10.00">v8::internal::ZoneSet</text>
<text text-anchor="start" x="168" y="-445.62" font-family="Cascadia Code NF" font-size="10.00">&lt; InstructionOperand,</text>
<text text-anchor="middle" x="231" y="-432.88" font-family="Cascadia Code NF" font-size="10.00"> OperandAsKeyLess &gt;</text>
</a>
</g>
</g>
<!-- Node0&#45;&gt;Node2 -->
<g id="edge1763_Node000000_Node000002" class="edge">
<title>Node0&#45;&gt;Node2</title>
<g id="a_edge1763_Node000000_Node000002"><a xlink:title=" ">
<path fill="none" stroke="#63b8ff" d="M51.98,-258.62C59.99,-296.34 81.57,-373.71 130,-416.75 138.52,-424.32 148.83,-430.1 159.57,-434.51"/>
<polygon fill="#63b8ff" stroke="#63b8ff" points="55.44,-258.07 50.06,-248.94 48.58,-259.43 55.44,-258.07"/>
</a>
</g>
</g>
<!-- Node3 -->
<g id="Node000003" class="node">
<title>Node3</title>
<g id="a_Node000003"><a xlink:href="d0/d11/classv8_1_1internal_1_1ZoneSet.html" target="_top" xlink:title=" ">
<polygon fill="white" stroke="#666666" points="332,-407.62 130,-407.62 130,-335.88 332,-335.88 332,-407.62"/>
<text text-anchor="start" x="138" y="-394.12" font-family="Cascadia Code NF" font-size="10.00">v8::internal::ZoneSet</text>
<text text-anchor="start" x="138" y="-381.38" font-family="Cascadia Code NF" font-size="10.00">&lt; v8::internal::compiler</text>
<text text-anchor="start" x="138" y="-368.62" font-family="Cascadia Code NF" font-size="10.00">::CodeAssemblerVariable</text>
<text text-anchor="start" x="138" y="-355.88" font-family="Cascadia Code NF" font-size="10.00">::Impl *, CodeAssemblerVariable</text>
<text text-anchor="middle" x="231" y="-343.12" font-family="Cascadia Code NF" font-size="10.00">::ImplComparator &gt;</text>
</a>
</g>
</g>
<!-- Node0&#45;&gt;Node3 -->
<g id="edge1764_Node000000_Node000003" class="edge">
<title>Node0&#45;&gt;Node3</title>
<g id="a_edge1764_Node000000_Node000003"><a xlink:title=" ">
<path fill="none" stroke="#63b8ff" d="M62.16,-256.54C77.17,-276.39 102.48,-306.79 130,-326.75 134.16,-329.77 138.56,-332.65 143.09,-335.39"/>
<polygon fill="#63b8ff" stroke="#63b8ff" points="65.13,-254.67 56.37,-248.71 59.5,-258.83 65.13,-254.67"/>
</a>
</g>
</g>
<!-- Node4 -->
<g id="Node000004" class="node">
<title>Node4</title>
<g id="a_Node000004"><a xlink:href="d0/d11/classv8_1_1internal_1_1ZoneSet.html" target="_top" xlink:title=" ">
<polygon fill="white" stroke="#666666" points="311,-317.88 151,-317.88 151,-271.62 311,-271.62 311,-317.88"/>
<text text-anchor="start" x="159" y="-304.38" font-family="Cascadia Code NF" font-size="10.00">v8::internal::ZoneSet</text>
<text text-anchor="start" x="159" y="-291.62" font-family="Cascadia Code NF" font-size="10.00">&lt; v8::internal::compiler</text>
<text text-anchor="middle" x="231" y="-278.88" font-family="Cascadia Code NF" font-size="10.00">::Node * &gt;</text>
</a>
</g>
</g>
<!-- Node0&#45;&gt;Node4 -->
<g id="edge1765_Node000000_Node000004" class="edge">
<title>Node0&#45;&gt;Node4</title>
<g id="a_edge1765_Node000000_Node000004"><a xlink:title=" ">
<path fill="none" stroke="#63b8ff" d="M92.58,-250.96C111.69,-257.05 134.51,-264.32 156.02,-271.18"/>
<polygon fill="#63b8ff" stroke="#63b8ff" points="93.84,-247.68 83.25,-247.98 91.71,-254.35 93.84,-247.68"/>
</a>
</g>
</g>
<!-- Node5 -->
<g id="Node000005" class="node">
<title>Node5</title>
<g id="a_Node000005"><a xlink:href="d0/d11/classv8_1_1internal_1_1ZoneSet.html" target="_top" xlink:title=" ">
<polygon fill="white" stroke="#666666" points="332,-253.5 130,-253.5 130,-220 332,-220 332,-253.5"/>
<text text-anchor="start" x="138" y="-240" font-family="Cascadia Code NF" font-size="10.00">v8::internal::ZoneSet</text>
<text text-anchor="middle" x="231" y="-227.25" font-family="Cascadia Code NF" font-size="10.00">&lt; Candidate, CandidateCompare &gt;</text>
</a>
</g>
</g>
<!-- Node0&#45;&gt;Node5 -->
<g id="edge1766_Node000000_Node000005" class="edge">
<title>Node0&#45;&gt;Node5</title>
<g id="a_edge1766_Node000000_Node000005"><a xlink:title=" ">
<path fill="none" stroke="#63b8ff" d="M105.79,-236.75C113.5,-236.75 121.59,-236.75 129.77,-236.75"/>
<polygon fill="#63b8ff" stroke="#63b8ff" points="105.91,-233.25 95.91,-236.75 105.91,-240.25 105.91,-233.25"/>
</a>
</g>
</g>
<!-- Node6 -->
<g id="Node000006" class="node">
<title>Node6</title>
<g id="a_Node000006"><a xlink:href="d0/d11/classv8_1_1internal_1_1ZoneSet.html" target="_top" xlink:title=" ">
<polygon fill="white" stroke="#666666" points="302,-201.5 160,-201.5 160,-168 302,-168 302,-201.5"/>
<text text-anchor="start" x="168" y="-188" font-family="Cascadia Code NF" font-size="10.00">v8::internal::ZoneSet</text>
<text text-anchor="middle" x="231" y="-175.25" font-family="Cascadia Code NF" font-size="10.00">&lt; uint32_t &gt;</text>
</a>
</g>
</g>
<!-- Node0&#45;&gt;Node6 -->
<g id="edge1767_Node000000_Node000006" class="edge">
<title>Node0&#45;&gt;Node6</title>
<g id="a_edge1767_Node000000_Node000006"><a xlink:title=" ">
<path fill="none" stroke="#63b8ff" d="M91.2,-222.58C103.68,-218.62 117.35,-214.4 130,-210.75 140.26,-207.79 151.15,-204.81 161.82,-201.96"/>
<polygon fill="#63b8ff" stroke="#63b8ff" points="90.5,-219.13 82.04,-225.52 92.63,-225.8 90.5,-219.13"/>
</a>
</g>
</g>
<!-- Node7 -->
<g id="Node000007" class="node">
<title>Node7</title>
<g id="a_Node000007"><a xlink:href="d0/d11/classv8_1_1internal_1_1ZoneSet.html" target="_top" xlink:title=" ">
<polygon fill="white" stroke="#666666" points="302,-149.5 160,-149.5 160,-116 302,-116 302,-149.5"/>
<text text-anchor="start" x="168" y="-136" font-family="Cascadia Code NF" font-size="10.00">v8::internal::ZoneSet</text>
<text text-anchor="middle" x="231" y="-123.25" font-family="Cascadia Code NF" font-size="10.00">&lt; int &gt;</text>
</a>
</g>
</g>
<!-- Node0&#45;&gt;Node7 -->
<g id="edge1768_Node000000_Node000007" class="edge">
<title>Node0&#45;&gt;Node7</title>
<g id="a_edge1768_Node000000_Node000007"><a xlink:title=" ">
<path fill="none" stroke="#63b8ff" d="M63.3,-217.4C78.4,-199.58 103.09,-173.71 130,-158.75 139.17,-153.65 149.37,-149.52 159.66,-146.19"/>
<polygon fill="#63b8ff" stroke="#63b8ff" points="60.93,-214.77 57.27,-224.71 66.33,-219.22 60.93,-214.77"/>
</a>
</g>
</g>
<!-- Node8 -->
<g id="Node000008" class="node">
<title>Node8</title>
<g id="a_Node000008"><a xlink:href="d0/d11/classv8_1_1internal_1_1ZoneSet.html" target="_top" xlink:title=" ">
<polygon fill="white" stroke="#666666" points="311,-97.88 151,-97.88 151,-51.62 311,-51.62 311,-97.88"/>
<text text-anchor="start" x="159" y="-84.38" font-family="Cascadia Code NF" font-size="10.00">v8::internal::ZoneSet</text>
<text text-anchor="start" x="159" y="-71.62" font-family="Cascadia Code NF" font-size="10.00">&lt; v8::internal::compiler</text>
<text text-anchor="middle" x="231" y="-58.88" font-family="Cascadia Code NF" font-size="10.00">::turboshaft::OpIndex &gt;</text>
</a>
</g>
</g>
<!-- Node0&#45;&gt;Node8 -->
<g id="edge1769_Node000000_Node000008" class="edge">
<title>Node0&#45;&gt;Node8</title>
<g id="a_edge1769_Node000000_Node000008"><a xlink:title=" ">
<path fill="none" stroke="#63b8ff" d="M55.83,-215.77C67.6,-187.05 92.54,-135.75 130,-106.75 136.27,-101.9 143.3,-97.77 150.64,-94.26"/>
<polygon fill="#63b8ff" stroke="#63b8ff" points="52.67,-214.25 52.27,-224.83 59.19,-216.81 52.67,-214.25"/>
</a>
</g>
</g>
<!-- Node9 -->
<g id="Node000009" class="node">
<title>Node9</title>
<g id="a_Node000009"><a xlink:href="d0/d11/classv8_1_1internal_1_1ZoneSet.html" target="_top" xlink:title=" ">
<polygon fill="white" stroke="#666666" points="302,-33.5 160,-33.5 160,0 302,0 302,-33.5"/>
<text text-anchor="start" x="168" y="-20" font-family="Cascadia Code NF" font-size="10.00">v8::internal::ZoneSet</text>
<text text-anchor="middle" x="231" y="-7.25" font-family="Cascadia Code NF" font-size="10.00">&lt; K, Compare &gt;</text>
</a>
</g>
</g>
<!-- Node0&#45;&gt;Node9 -->
<g id="edge1770_Node000000_Node000009" class="edge">
<title>Node0&#45;&gt;Node9</title>
<g id="a_edge1770_Node000000_Node000009"><a xlink:title=" ">
<path fill="none" stroke="#63b8ff" d="M50.88,-214.86C57.37,-174.57 76.96,-88.58 130,-42.75 138.48,-35.42 148.78,-30.12 159.51,-26.29"/>
<polygon fill="#63b8ff" stroke="#63b8ff" points="47.45,-214.12 49.46,-224.52 54.38,-215.14 47.45,-214.12"/>
</a>
</g>
</g>
</g>
</svg>
