<?xml version="1.0" encoding="UTF-8" standalone="no"?>
<!DOCTYPE svg PUBLIC "-//W3C//DTD SVG 1.1//EN"
 "http://www.w3.org/Graphics/SVG/1.1/DTD/svg11.dtd">
<!-- Generated by graphviz version 11.0.0 (20240428.1522)
 -->
<!-- Title: Graphical Class Hierarchy Pages: 1 -->
<svg width="388pt" height="146pt"
 viewBox="0.00 0.00 388.00 145.50" xmlns="http://www.w3.org/2000/svg" xmlns:xlink="http://www.w3.org/1999/xlink">
<g id="graph0" class="graph" transform="scale(1 1) rotate(0) translate(4 141.5)">
<title>Graphical Class Hierarchy</title>
<!-- Node0 -->
<g id="Node000000" class="node">
<title>Node0</title>
<g id="a_Node000000"><a xlink:href="df/d94/classv8_1_1internal_1_1TaggedImpl.html" target="_top" xlink:title=" ">
<polygon fill="white" stroke="#666666" points="166,-85.5 0,-85.5 0,-52 166,-52 166,-85.5"/>
<text text-anchor="start" x="8" y="-72" font-family="Cascadia Code NF" font-size="10.00">v8::internal::TaggedImpl</text>
<text text-anchor="middle" x="83" y="-59.25" font-family="Cascadia Code NF" font-size="10.00">&lt; kRefType, StorageType &gt;</text>
</a>
</g>
</g>
<!-- Node1 -->
<g id="Node000001" class="node">
<title>Node1</title>
<g id="a_Node000001"><a xlink:href="de/d68/classv8_1_1internal_1_1Tagged_3_01ClearedWeakValue_01_4.html" target="_top" xlink:title=" ">
<polygon fill="white" stroke="#666666" points="359,-137.5 223,-137.5 223,-104 359,-104 359,-137.5"/>
<text text-anchor="start" x="231" y="-124" font-family="Cascadia Code NF" font-size="10.00">v8::internal::Tagged</text>
<text text-anchor="middle" x="291" y="-111.25" font-family="Cascadia Code NF" font-size="10.00">&lt; ClearedWeakValue &gt;</text>
</a>
</g>
</g>
<!-- Node0&#45;&gt;Node1 -->
<g id="edge4705_Node000000_Node000001" class="edge">
<title>Node0&#45;&gt;Node1</title>
<g id="a_edge4705_Node000000_Node000001"><a xlink:title=" ">
<path fill="none" stroke="#63b8ff" d="M163.34,-88.78C182.9,-93.71 203.65,-98.95 222.58,-103.73"/>
<polygon fill="#63b8ff" stroke="#63b8ff" points="164.33,-85.42 153.78,-86.36 162.62,-92.2 164.33,-85.42"/>
</a>
</g>
</g>
<!-- Node2 -->
<g id="Node000002" class="node">
<title>Node2</title>
<g id="a_Node000002"><a xlink:href="de/d75/classv8_1_1internal_1_1Tagged_3_01MaybeWeak_3_01HeapObject_01_4_01_4.html" target="_top" xlink:title=" ">
<polygon fill="white" stroke="#666666" points="380,-85.5 202,-85.5 202,-52 380,-52 380,-85.5"/>
<text text-anchor="start" x="210" y="-72" font-family="Cascadia Code NF" font-size="10.00">v8::internal::Tagged</text>
<text text-anchor="middle" x="291" y="-59.25" font-family="Cascadia Code NF" font-size="10.00">&lt; MaybeWeak&lt; HeapObject &gt; &gt;</text>
</a>
</g>
</g>
<!-- Node0&#45;&gt;Node2 -->
<g id="edge4706_Node000000_Node000002" class="edge">
<title>Node0&#45;&gt;Node2</title>
<g id="a_edge4706_Node000000_Node000002"><a xlink:title=" ">
<path fill="none" stroke="#63b8ff" d="M177.6,-68.75C185.64,-68.75 193.75,-68.75 201.75,-68.75"/>
<polygon fill="#63b8ff" stroke="#63b8ff" points="177.82,-65.25 167.82,-68.75 177.82,-72.25 177.82,-65.25"/>
</a>
</g>
</g>
<!-- Node3 -->
<g id="Node000003" class="node">
<title>Node3</title>
<g id="a_Node000003"><a xlink:href="dd/d02/classv8_1_1internal_1_1Tagged_3_01MaybeWeak_3_01Object_01_4_01_4.html" target="_top" xlink:title=" ">
<polygon fill="white" stroke="#666666" points="368,-33.5 214,-33.5 214,0 368,0 368,-33.5"/>
<text text-anchor="start" x="222" y="-20" font-family="Cascadia Code NF" font-size="10.00">v8::internal::Tagged</text>
<text text-anchor="middle" x="291" y="-7.25" font-family="Cascadia Code NF" font-size="10.00">&lt; MaybeWeak&lt; Object &gt; &gt;</text>
</a>
</g>
</g>
<!-- Node0&#45;&gt;Node3 -->
<g id="edge4707_Node000000_Node000003" class="edge">
<title>Node0&#45;&gt;Node3</title>
<g id="a_edge4707_Node000000_Node000003"><a xlink:title=" ">
<path fill="none" stroke="#63b8ff" d="M163.23,-48.75C182.57,-43.87 203.1,-38.69 221.88,-33.95"/>
<polygon fill="#63b8ff" stroke="#63b8ff" points="162.62,-45.3 153.78,-51.14 164.33,-52.08 162.62,-45.3"/>
</a>
</g>
</g>
</g>
</svg>
