<?xml version="1.0" encoding="UTF-8" standalone="no"?>
<!DOCTYPE svg PUBLIC "-//W3C//DTD SVG 1.1//EN"
 "http://www.w3.org/Graphics/SVG/1.1/DTD/svg11.dtd">
<!-- Generated by graphviz version 11.0.0 (20240428.1522)
 -->
<!-- Title: Graphical Class Hierarchy Pages: 1 -->
<svg width="590pt" height="68pt"
 viewBox="0.00 0.00 590.00 67.75" xmlns="http://www.w3.org/2000/svg" xmlns:xlink="http://www.w3.org/1999/xlink">
<g id="graph0" class="graph" transform="scale(1 1) rotate(0) translate(4 63.75)">
<title>Graphical Class Hierarchy</title>
<!-- Node0 -->
<g id="Node000000" class="node">
<title>Node0</title>
<g id="a_Node000000"><a xlink:href="d7/d79/classcppgc_1_1internal_1_1BasePageHandle.html" target="_top" xlink:title=" ">
<polygon fill="white" stroke="#666666" points="166,-46.12 0,-46.12 0,-12.62 166,-12.62 166,-46.12"/>
<text text-anchor="start" x="8" y="-32.62" font-family="Cascadia Code NF" font-size="10.00">cppgc::internal::BasePage</text>
<text text-anchor="middle" x="83" y="-19.88" font-family="Cascadia Code NF" font-size="10.00">Handle</text>
</a>
</g>
</g>
<!-- Node1 -->
<g id="Node000001" class="node">
<title>Node1</title>
<g id="a_Node000001"><a xlink:href="d5/ded/classcppgc_1_1internal_1_1BasePage.html" target="_top" xlink:title=" ">
<polygon fill="white" stroke="#666666" points="368,-39.75 202,-39.75 202,-19 368,-19 368,-39.75"/>
<text text-anchor="middle" x="285" y="-26.25" font-family="Cascadia Code NF" font-size="10.00">cppgc::internal::BasePage</text>
</a>
</g>
</g>
<!-- Node0&#45;&gt;Node1 -->
<g id="edge275_Node000000_Node000001" class="edge">
<title>Node0&#45;&gt;Node1</title>
<g id="a_edge275_Node000000_Node000001"><a xlink:title=" ">
<path fill="none" stroke="#63b8ff" d="M177.58,-29.38C185.66,-29.38 193.8,-29.38 201.78,-29.38"/>
<polygon fill="#63b8ff" stroke="#63b8ff" points="177.73,-25.88 167.73,-29.38 177.73,-32.88 177.73,-25.88"/>
</a>
</g>
</g>
<!-- Node2 -->
<g id="Node000002" class="node">
<title>Node2</title>
<g id="a_Node000002"><a xlink:href="d9/d9c/classcppgc_1_1internal_1_1LargePage.html" target="_top" xlink:title=" ">
<polygon fill="white" stroke="#666666" points="579,-59.75 407,-59.75 407,-39 579,-39 579,-59.75"/>
<text text-anchor="middle" x="493" y="-46.25" font-family="Cascadia Code NF" font-size="10.00">cppgc::internal::LargePage</text>
</a>
</g>
</g>
<!-- Node1&#45;&gt;Node2 -->
<g id="edge276_Node000001_Node000002" class="edge">
<title>Node1&#45;&gt;Node2</title>
<g id="a_edge276_Node000001_Node000002"><a xlink:title=" ">
<path fill="none" stroke="#63b8ff" d="M379.68,-38.47C388.71,-39.35 397.85,-40.23 406.79,-41.1"/>
<polygon fill="#63b8ff" stroke="#63b8ff" points="380.1,-34.99 369.81,-37.51 379.43,-41.96 380.1,-34.99"/>
</a>
</g>
</g>
<!-- Node3 -->
<g id="Node000003" class="node">
<title>Node3</title>
<g id="a_Node000003"><a xlink:href="d4/d4d/classcppgc_1_1internal_1_1NormalPage.html" target="_top" xlink:title=" ">
<polygon fill="white" stroke="#666666" points="582,-20.75 404,-20.75 404,0 582,0 582,-20.75"/>
<text text-anchor="middle" x="493" y="-7.25" font-family="Cascadia Code NF" font-size="10.00">cppgc::internal::NormalPage</text>
</a>
</g>
</g>
<!-- Node1&#45;&gt;Node3 -->
<g id="edge277_Node000001_Node000003" class="edge">
<title>Node1&#45;&gt;Node3</title>
<g id="a_edge277_Node000001_Node000003"><a xlink:title=" ">
<path fill="none" stroke="#63b8ff" d="M379.6,-20.74C387.64,-20 395.75,-19.25 403.75,-18.51"/>
<polygon fill="#63b8ff" stroke="#63b8ff" points="379.45,-17.24 369.81,-21.64 380.09,-24.21 379.45,-17.24"/>
</a>
</g>
</g>
</g>
</svg>
