<?xml version="1.0" encoding="UTF-8" standalone="no"?>
<!DOCTYPE svg PUBLIC "-//W3C//DTD SVG 1.1//EN"
 "http://www.w3.org/Graphics/SVG/1.1/DTD/svg11.dtd">
<!-- Generated by graphviz version 11.0.0 (20240428.1522)
 -->
<!-- Title: Graphical Class Hierarchy Pages: 1 -->
<svg width="400pt" height="146pt"
 viewBox="0.00 0.00 400.00 145.50" xmlns="http://www.w3.org/2000/svg" xmlns:xlink="http://www.w3.org/1999/xlink">
<g id="graph0" class="graph" transform="scale(1 1) rotate(0) translate(4 141.5)">
<title>Graphical Class Hierarchy</title>
<!-- Node0 -->
<g id="Node000000" class="node">
<title>Node0</title>
<g id="a_Node000000"><a xlink:href="db/df5/classv8_1_1internal_1_1AllocationObserver.html" target="_top" xlink:title=" ">
<polygon fill="white" stroke="#666666" points="160,-85.5 0,-85.5 0,-52 160,-52 160,-85.5"/>
<text text-anchor="start" x="8" y="-72" font-family="Cascadia Code NF" font-size="10.00">v8::internal::Allocation</text>
<text text-anchor="middle" x="80" y="-59.25" font-family="Cascadia Code NF" font-size="10.00">Observer</text>
</a>
</g>
</g>
<!-- Node1 -->
<g id="Node000001" class="node">
<title>Node1</title>
<g id="a_Node000001"><a xlink:href="dd/d91/classv8_1_1internal_1_1ScheduleMinorGCTaskObserver.html" target="_top" xlink:title=" ">
<polygon fill="white" stroke="#666666" points="383,-137.5 205,-137.5 205,-104 383,-104 383,-137.5"/>
<text text-anchor="start" x="213" y="-124" font-family="Cascadia Code NF" font-size="10.00">v8::internal::ScheduleMinor</text>
<text text-anchor="middle" x="294" y="-111.25" font-family="Cascadia Code NF" font-size="10.00">GCTaskObserver</text>
</a>
</g>
</g>
<!-- Node0&#45;&gt;Node1 -->
<g id="edge2544_Node000000_Node000001" class="edge">
<title>Node0&#45;&gt;Node1</title>
<g id="a_edge2544_Node000000_Node000001"><a xlink:title=" ">
<path fill="none" stroke="#63b8ff" d="M162.26,-88.68C182.25,-93.58 203.48,-98.79 222.89,-103.55"/>
<polygon fill="#63b8ff" stroke="#63b8ff" points="163.31,-85.34 152.77,-86.35 161.65,-92.14 163.31,-85.34"/>
</a>
</g>
</g>
<!-- Node2 -->
<g id="Node000002" class="node">
<title>Node2</title>
<g id="a_Node000002"><a xlink:href="dd/d26/classv8_1_1internal_1_1StressConcurrentAllocationObserver.html" target="_top" xlink:title=" ">
<polygon fill="white" stroke="#666666" points="392,-85.5 196,-85.5 196,-52 392,-52 392,-85.5"/>
<text text-anchor="start" x="204" y="-72" font-family="Cascadia Code NF" font-size="10.00">v8::internal::StressConcurrent</text>
<text text-anchor="middle" x="294" y="-59.25" font-family="Cascadia Code NF" font-size="10.00">AllocationObserver</text>
</a>
</g>
</g>
<!-- Node0&#45;&gt;Node2 -->
<g id="edge2545_Node000000_Node000002" class="edge">
<title>Node0&#45;&gt;Node2</title>
<g id="a_edge2545_Node000000_Node000002"><a xlink:title=" ">
<path fill="none" stroke="#63b8ff" d="M171.71,-68.75C179.61,-68.75 187.63,-68.75 195.58,-68.75"/>
<polygon fill="#63b8ff" stroke="#63b8ff" points="171.76,-65.25 161.76,-68.75 171.76,-72.25 171.76,-65.25"/>
</a>
</g>
</g>
<!-- Node3 -->
<g id="Node000003" class="node">
<title>Node3</title>
<g id="a_Node000003"><a xlink:href="db/da0/classv8_1_1internal_1_1StressScavengeObserver.html" target="_top" xlink:title=" ">
<polygon fill="white" stroke="#666666" points="386,-33.5 202,-33.5 202,0 386,0 386,-33.5"/>
<text text-anchor="start" x="210" y="-20" font-family="Cascadia Code NF" font-size="10.00">v8::internal::StressScavenge</text>
<text text-anchor="middle" x="294" y="-7.25" font-family="Cascadia Code NF" font-size="10.00">Observer</text>
</a>
</g>
</g>
<!-- Node0&#45;&gt;Node3 -->
<g id="edge2546_Node000000_Node000003" class="edge">
<title>Node0&#45;&gt;Node3</title>
<g id="a_edge2546_Node000000_Node000003"><a xlink:title=" ">
<path fill="none" stroke="#63b8ff" d="M162.26,-48.82C182.25,-43.92 203.48,-38.71 222.89,-33.95"/>
<polygon fill="#63b8ff" stroke="#63b8ff" points="161.65,-45.36 152.77,-51.15 163.31,-52.16 161.65,-45.36"/>
</a>
</g>
</g>
</g>
</svg>
