<?xml version="1.0" encoding="UTF-8" standalone="no"?>
<!DOCTYPE svg PUBLIC "-//W3C//DTD SVG 1.1//EN"
 "http://www.w3.org/Graphics/SVG/1.1/DTD/svg11.dtd">
<!-- Generated by graphviz version 11.0.0 (20240428.1522)
 -->
<!-- Title: Graphical Class Hierarchy Pages: 1 -->
<svg width="674pt" height="118pt"
 viewBox="0.00 0.00 674.00 118.25" xmlns="http://www.w3.org/2000/svg" xmlns:xlink="http://www.w3.org/1999/xlink">
<g id="graph0" class="graph" transform="scale(1 1) rotate(0) translate(4 114.25)">
<title>Graphical Class Hierarchy</title>
<!-- Node0 -->
<g id="Node000000" class="node">
<title>Node0</title>
<g id="a_Node000000"><a xlink:title=" ">
<polygon fill="#e0e0e0" stroke="#999999" points="184,-65.5 0,-65.5 0,-44.75 184,-44.75 184,-65.5"/>
<text text-anchor="middle" x="92" y="-52" font-family="Cascadia Code NF" font-size="10.00">JSAPIObjectWithEmbedderSlots</text>
</a>
</g>
</g>
<!-- Node1 -->
<g id="Node000001" class="node">
<title>Node1</title>
<g id="a_Node000001"><a xlink:href="d6/d82/classTorqueGeneratedJSArrayBuffer.html" target="_top" xlink:title=" ">
<polygon fill="white" stroke="#666666" points="428,-110.25 220,-110.25 220,-64 428,-64 428,-110.25"/>
<text text-anchor="start" x="228" y="-96.75" font-family="Cascadia Code NF" font-size="10.00">TorqueGeneratedJSArrayBuffer</text>
<text text-anchor="start" x="228" y="-84" font-family="Cascadia Code NF" font-size="10.00">&lt; JSArrayBuffer, JSAPIObjectWith</text>
<text text-anchor="middle" x="324" y="-71.25" font-family="Cascadia Code NF" font-size="10.00">EmbedderSlots &gt;</text>
</a>
</g>
</g>
<!-- Node0&#45;&gt;Node1 -->
<g id="edge494_Node000000_Node000001" class="edge">
<title>Node0&#45;&gt;Node1</title>
<g id="a_edge494_Node000000_Node000001"><a xlink:title=" ">
<path fill="none" stroke="#63b8ff" d="M182.02,-67.51C194.3,-69.22 207,-70.99 219.52,-72.73"/>
<polygon fill="#63b8ff" stroke="#63b8ff" points="182.75,-64.08 172.37,-66.17 181.79,-71.01 182.75,-64.08"/>
</a>
</g>
</g>
<!-- Node3 -->
<g id="Node000003" class="node">
<title>Node3</title>
<g id="a_Node000003"><a xlink:href="df/d3a/classTorqueGeneratedJSArrayBufferView.html" target="_top" xlink:title=" ">
<polygon fill="white" stroke="#666666" points="425,-46.25 223,-46.25 223,0 425,0 425,-46.25"/>
<text text-anchor="start" x="231" y="-32.75" font-family="Cascadia Code NF" font-size="10.00">TorqueGeneratedJSArrayBuffer</text>
<text text-anchor="start" x="231" y="-20" font-family="Cascadia Code NF" font-size="10.00">View&lt; JSArrayBufferView,</text>
<text text-anchor="middle" x="324" y="-7.25" font-family="Cascadia Code NF" font-size="10.00"> JSAPIObjectWithEmbedderSlots &gt;</text>
</a>
</g>
</g>
<!-- Node0&#45;&gt;Node3 -->
<g id="edge496_Node000000_Node000003" class="edge">
<title>Node0&#45;&gt;Node3</title>
<g id="a_edge496_Node000000_Node000003"><a xlink:title=" ">
<path fill="none" stroke="#63b8ff" d="M181.97,-42.75C195.34,-40.89 209.2,-38.96 222.79,-37.07"/>
<polygon fill="#63b8ff" stroke="#63b8ff" points="181.79,-39.24 172.37,-44.08 182.75,-46.17 181.79,-39.24"/>
</a>
</g>
</g>
<!-- Node2 -->
<g id="Node000002" class="node">
<title>Node2</title>
<g id="a_Node000002"><a xlink:href="dc/d59/classv8_1_1internal_1_1JSArrayBuffer.html" target="_top" xlink:title=" ">
<polygon fill="white" stroke="#666666" points="654,-97.5 476,-97.5 476,-76.75 654,-76.75 654,-97.5"/>
<text text-anchor="middle" x="565" y="-84" font-family="Cascadia Code NF" font-size="10.00">v8::internal::JSArrayBuffer</text>
</a>
</g>
</g>
<!-- Node1&#45;&gt;Node2 -->
<g id="edge495_Node000001_Node000002" class="edge">
<title>Node1&#45;&gt;Node2</title>
<g id="a_edge495_Node000001_Node000002"><a xlink:title=" ">
<path fill="none" stroke="#63b8ff" d="M439.95,-87.12C451.99,-87.12 464.09,-87.12 475.76,-87.12"/>
<polygon fill="#63b8ff" stroke="#63b8ff" points="439.95,-83.63 429.95,-87.13 439.95,-90.63 439.95,-83.63"/>
</a>
</g>
</g>
<!-- Node4 -->
<g id="Node000004" class="node">
<title>Node4</title>
<g id="a_Node000004"><a xlink:href="d9/d6c/classv8_1_1internal_1_1JSArrayBufferView.html" target="_top" xlink:title=" ">
<polygon fill="white" stroke="#666666" points="666,-33.5 464,-33.5 464,-12.75 666,-12.75 666,-33.5"/>
<text text-anchor="middle" x="565" y="-20" font-family="Cascadia Code NF" font-size="10.00">v8::internal::JSArrayBufferView</text>
</a>
</g>
</g>
<!-- Node3&#45;&gt;Node4 -->
<g id="edge497_Node000003_Node000004" class="edge">
<title>Node3&#45;&gt;Node4</title>
<g id="a_edge497_Node000003_Node000004"><a xlink:title=" ">
<path fill="none" stroke="#63b8ff" d="M436.64,-23.12C445.62,-23.12 454.66,-23.12 463.55,-23.12"/>
<polygon fill="#63b8ff" stroke="#63b8ff" points="436.83,-19.63 426.83,-23.13 436.83,-26.63 436.83,-19.63"/>
</a>
</g>
</g>
</g>
</svg>
