<?xml version="1.0" encoding="UTF-8" standalone="no"?>
<!DOCTYPE svg PUBLIC "-//W3C//DTD SVG 1.1//EN"
 "http://www.w3.org/Graphics/SVG/1.1/DTD/svg11.dtd">
<!-- Generated by graphviz version 11.0.0 (20240428.1522)
 -->
<!-- Title: Graphical Class Hierarchy Pages: 1 -->
<svg width="644pt" height="94pt"
 viewBox="0.00 0.00 644.00 93.50" xmlns="http://www.w3.org/2000/svg" xmlns:xlink="http://www.w3.org/1999/xlink">
<g id="graph0" class="graph" transform="scale(1 1) rotate(0) translate(4 89.5)">
<title>Graphical Class Hierarchy</title>
<!-- Node0 -->
<g id="Node000000" class="node">
<title>Node0</title>
<g id="a_Node000000"><a xlink:href="dd/d6f/classv8_1_1internal_1_1DecoderVisitor.html" target="_top" xlink:title=" ">
<polygon fill="white" stroke="#666666" points="184,-53.12 0,-53.12 0,-32.38 184,-32.38 184,-53.12"/>
<text text-anchor="middle" x="92" y="-39.62" font-family="Cascadia Code NF" font-size="10.00">v8::internal::DecoderVisitor</text>
</a>
</g>
</g>
<!-- Node1 -->
<g id="Node000001" class="node">
<title>Node1</title>
<g id="a_Node000001"><a xlink:href="d7/dd5/classv8_1_1internal_1_1DisassemblingDecoder.html" target="_top" xlink:title=" ">
<polygon fill="white" stroke="#666666" points="398,-85.5 220,-85.5 220,-52 398,-52 398,-85.5"/>
<text text-anchor="start" x="228" y="-72" font-family="Cascadia Code NF" font-size="10.00">v8::internal::Disassembling</text>
<text text-anchor="middle" x="309" y="-59.25" font-family="Cascadia Code NF" font-size="10.00">Decoder</text>
</a>
</g>
</g>
<!-- Node0&#45;&gt;Node1 -->
<g id="edge3787_Node000000_Node000001" class="edge">
<title>Node0&#45;&gt;Node1</title>
<g id="a_edge3787_Node000000_Node000001"><a xlink:title=" ">
<path fill="none" stroke="#63b8ff" d="M193.86,-54.95C202.44,-55.98 211.08,-57.03 219.56,-58.05"/>
<polygon fill="#63b8ff" stroke="#63b8ff" points="194.47,-51.5 184.13,-53.77 193.63,-58.45 194.47,-51.5"/>
</a>
</g>
</g>
<!-- Node3 -->
<g id="Node000003" class="node">
<title>Node3</title>
<g id="a_Node000003"><a xlink:href="de/d99/classv8_1_1internal_1_1DispatchingDecoderVisitor.html" target="_top" xlink:title=" ">
<polygon fill="white" stroke="#666666" points="392,-33.5 226,-33.5 226,0 392,0 392,-33.5"/>
<text text-anchor="start" x="234" y="-20" font-family="Cascadia Code NF" font-size="10.00">v8::internal::Dispatching</text>
<text text-anchor="middle" x="309" y="-7.25" font-family="Cascadia Code NF" font-size="10.00">DecoderVisitor</text>
</a>
</g>
</g>
<!-- Node0&#45;&gt;Node3 -->
<g id="edge3789_Node000000_Node000003" class="edge">
<title>Node0&#45;&gt;Node3</title>
<g id="a_edge3789_Node000000_Node000003"><a xlink:title=" ">
<path fill="none" stroke="#63b8ff" d="M193.74,-30.57C204.46,-29.27 215.27,-27.96 225.74,-26.7"/>
<polygon fill="#63b8ff" stroke="#63b8ff" points="193.63,-27.05 184.13,-31.73 194.47,-34 193.63,-27.05"/>
</a>
</g>
</g>
<!-- Node2 -->
<g id="Node000002" class="node">
<title>Node2</title>
<g id="a_Node000002"><a xlink:href="d7/dca/classv8_1_1internal_1_1PrintDisassembler.html" target="_top" xlink:title=" ">
<polygon fill="white" stroke="#666666" points="636,-79.12 434,-79.12 434,-58.38 636,-58.38 636,-79.12"/>
<text text-anchor="middle" x="535" y="-65.62" font-family="Cascadia Code NF" font-size="10.00">v8::internal::PrintDisassembler</text>
</a>
</g>
</g>
<!-- Node1&#45;&gt;Node2 -->
<g id="edge3788_Node000001_Node000002" class="edge">
<title>Node1&#45;&gt;Node2</title>
<g id="a_edge3788_Node000001_Node000002"><a xlink:title=" ">
<path fill="none" stroke="#63b8ff" d="M409.48,-68.75C417.5,-68.75 425.61,-68.75 433.64,-68.75"/>
<polygon fill="#63b8ff" stroke="#63b8ff" points="409.72,-65.25 399.72,-68.75 409.72,-72.25 409.72,-65.25"/>
</a>
</g>
</g>
</g>
</svg>
