<?xml version="1.0" encoding="UTF-8" standalone="no"?>
<!DOCTYPE svg PUBLIC "-//W3C//DTD SVG 1.1//EN"
 "http://www.w3.org/Graphics/SVG/1.1/DTD/svg11.dtd">
<!-- Generated by graphviz version 11.0.0 (20240428.1522)
 -->
<!-- Title: Graphical Class Hierarchy Pages: 1 -->
<svg width="596pt" height="1314pt"
 viewBox="0.00 0.00 596.00 1313.50" xmlns="http://www.w3.org/2000/svg" xmlns:xlink="http://www.w3.org/1999/xlink">
<g id="graph0" class="graph" transform="scale(1 1) rotate(0) translate(4 1309.5)">
<title>Graphical Class Hierarchy</title>
<!-- Node0 -->
<g id="Node000000" class="node">
<title>Node0</title>
<g id="a_Node000000"><a xlink:href="de/d67/classv8_1_1internal_1_1torque_1_1ls_1_1BaseJsonAccessor.html" target="_top" xlink:title=" ">
<polygon fill="white" stroke="#666666" points="148,-903.5 0,-903.5 0,-870 148,-870 148,-903.5"/>
<text text-anchor="start" x="8" y="-890" font-family="Cascadia Code NF" font-size="10.00">v8::internal::torque</text>
<text text-anchor="middle" x="74" y="-877.25" font-family="Cascadia Code NF" font-size="10.00">::ls::BaseJsonAccessor</text>
</a>
</g>
</g>
<!-- Node1 -->
<g id="Node000001" class="node">
<title>Node1</title>
<g id="a_Node000001"><a xlink:href="de/d8f/classv8_1_1internal_1_1torque_1_1ls_1_1Message.html" target="_top" xlink:title=" ">
<polygon fill="white" stroke="#666666" points="332,-1227.5 196,-1227.5 196,-1194 332,-1194 332,-1227.5"/>
<text text-anchor="start" x="204" y="-1214" font-family="Cascadia Code NF" font-size="10.00">v8::internal::torque</text>
<text text-anchor="middle" x="264" y="-1201.25" font-family="Cascadia Code NF" font-size="10.00">::ls::Message</text>
</a>
</g>
</g>
<!-- Node0&#45;&gt;Node1 -->
<g id="edge4824_Node000000_Node000001" class="edge">
<title>Node0&#45;&gt;Node1</title>
<g id="a_edge4824_Node000000_Node000001"><a xlink:title=" ">
<path fill="none" stroke="#63b8ff" d="M90.54,-913.53C127.94,-977.99 222.15,-1140.34 253.03,-1193.56"/>
<polygon fill="#63b8ff" stroke="#63b8ff" points="93.65,-911.92 85.6,-905.02 87.59,-915.43 93.65,-911.92"/>
</a>
</g>
</g>
<!-- Node5 -->
<g id="Node000005" class="node">
<title>Node5</title>
<g id="a_Node000005"><a xlink:href="d0/dff/classv8_1_1internal_1_1torque_1_1ls_1_1NestedJsonAccessor.html" target="_top" xlink:title=" ">
<polygon fill="white" stroke="#666666" points="344,-605.5 184,-605.5 184,-572 344,-572 344,-605.5"/>
<text text-anchor="start" x="192" y="-592" font-family="Cascadia Code NF" font-size="10.00">v8::internal::torque</text>
<text text-anchor="middle" x="264" y="-579.25" font-family="Cascadia Code NF" font-size="10.00">::ls::NestedJsonAccessor</text>
</a>
</g>
</g>
<!-- Node0&#45;&gt;Node5 -->
<g id="edge4828_Node000000_Node000005" class="edge">
<title>Node0&#45;&gt;Node5</title>
<g id="a_edge4828_Node000000_Node000005"><a xlink:title=" ">
<path fill="none" stroke="#63b8ff" d="M91.65,-860.37C129.44,-800.46 220.88,-655.51 252.24,-605.81"/>
<polygon fill="#63b8ff" stroke="#63b8ff" points="88.83,-858.27 86.45,-868.59 94.75,-862 88.83,-858.27"/>
</a>
</g>
</g>
<!-- Node2 -->
<g id="Node000002" class="node">
<title>Node2</title>
<g id="a_Node000002"><a xlink:href="da/dad/classv8_1_1internal_1_1torque_1_1ls_1_1Request.html" target="_top" xlink:title=" ">
<polygon fill="white" stroke="#666666" points="552,-1305.5 416,-1305.5 416,-1272 552,-1272 552,-1305.5"/>
<text text-anchor="start" x="424" y="-1292" font-family="Cascadia Code NF" font-size="10.00">v8::internal::torque</text>
<text text-anchor="middle" x="484" y="-1279.25" font-family="Cascadia Code NF" font-size="10.00">::ls::Request&lt; T &gt;</text>
</a>
</g>
</g>
<!-- Node1&#45;&gt;Node2 -->
<g id="edge4825_Node000001_Node000002" class="edge">
<title>Node1&#45;&gt;Node2</title>
<g id="a_edge4825_Node000001_Node000002"><a xlink:title=" ">
<path fill="none" stroke="#63b8ff" d="M309.08,-1232.9C330.18,-1242.92 356.02,-1254.38 380,-1262.75 391.4,-1266.73 403.72,-1270.38 415.72,-1273.6"/>
<polygon fill="#63b8ff" stroke="#63b8ff" points="310.71,-1229.8 300.18,-1228.62 307.68,-1236.11 310.71,-1229.8"/>
</a>
</g>
</g>
<!-- Node3 -->
<g id="Node000003" class="node">
<title>Node3</title>
<g id="a_Node000003"><a xlink:href="d1/d80/classv8_1_1internal_1_1torque_1_1ls_1_1Response.html" target="_top" xlink:title=" ">
<polygon fill="white" stroke="#666666" points="552,-1253.5 416,-1253.5 416,-1220 552,-1220 552,-1253.5"/>
<text text-anchor="start" x="424" y="-1240" font-family="Cascadia Code NF" font-size="10.00">v8::internal::torque</text>
<text text-anchor="middle" x="484" y="-1227.25" font-family="Cascadia Code NF" font-size="10.00">::ls::Response&lt; T &gt;</text>
</a>
</g>
</g>
<!-- Node1&#45;&gt;Node3 -->
<g id="edge4826_Node000001_Node000003" class="edge">
<title>Node1&#45;&gt;Node3</title>
<g id="a_edge4826_Node000001_Node000003"><a xlink:title=" ">
<path fill="none" stroke="#63b8ff" d="M343.87,-1220.16C367.46,-1222.97 393.08,-1226.03 415.83,-1228.74"/>
<polygon fill="#63b8ff" stroke="#63b8ff" points="344.33,-1216.69 333.99,-1218.98 343.5,-1223.64 344.33,-1216.69"/>
</a>
</g>
</g>
<!-- Node4 -->
<g id="Node000004" class="node">
<title>Node4</title>
<g id="a_Node000004"><a xlink:href="d4/d42/classv8_1_1internal_1_1torque_1_1ls_1_1ResponseArrayResult.html" target="_top" xlink:title=" ">
<polygon fill="white" stroke="#666666" points="582,-1201.5 386,-1201.5 386,-1168 582,-1168 582,-1201.5"/>
<text text-anchor="start" x="394" y="-1188" font-family="Cascadia Code NF" font-size="10.00">v8::internal::torque</text>
<text text-anchor="middle" x="484" y="-1175.25" font-family="Cascadia Code NF" font-size="10.00">::ls::ResponseArrayResult&lt; T &gt;</text>
</a>
</g>
</g>
<!-- Node1&#45;&gt;Node4 -->
<g id="edge4827_Node000001_Node000004" class="edge">
<title>Node1&#45;&gt;Node4</title>
<g id="a_edge4827_Node000001_Node000004"><a xlink:title=" ">
<path fill="none" stroke="#63b8ff" d="M343.77,-1201.36C357.41,-1199.73 371.75,-1198.02 385.82,-1196.34"/>
<polygon fill="#63b8ff" stroke="#63b8ff" points="343.5,-1197.86 333.99,-1202.52 344.33,-1204.81 343.5,-1197.86"/>
</a>
</g>
</g>
<!-- Node6 -->
<g id="Node000006" class="node">
<title>Node6</title>
<g id="a_Node000006"><a xlink:href="df/d16/classv8_1_1internal_1_1torque_1_1ls_1_1Diagnostic.html" target="_top" xlink:title=" ">
<polygon fill="white" stroke="#666666" points="552,-1149.5 416,-1149.5 416,-1116 552,-1116 552,-1149.5"/>
<text text-anchor="start" x="424" y="-1136" font-family="Cascadia Code NF" font-size="10.00">v8::internal::torque</text>
<text text-anchor="middle" x="484" y="-1123.25" font-family="Cascadia Code NF" font-size="10.00">::ls::Diagnostic</text>
</a>
</g>
</g>
<!-- Node5&#45;&gt;Node6 -->
<g id="edge4829_Node000005_Node000006" class="edge">
<title>Node5&#45;&gt;Node6</title>
<g id="a_edge4829_Node000005_Node000006"><a xlink:title=" ">
<path fill="none" stroke="#63b8ff" d="M267.44,-617.17C276.38,-714.94 310.59,-1035.31 380,-1106.75 389.57,-1116.6 402.3,-1122.93 415.53,-1126.93"/>
<polygon fill="#63b8ff" stroke="#63b8ff" points="270.94,-617.04 266.56,-607.39 263.97,-617.66 270.94,-617.04"/>
</a>
</g>
</g>
<!-- Node7 -->
<g id="Node000007" class="node">
<title>Node7</title>
<g id="a_Node000007"><a xlink:href="de/d40/classv8_1_1internal_1_1torque_1_1ls_1_1DidChangeWatchedFilesParams.html" target="_top" xlink:title=" ">
<polygon fill="white" stroke="#666666" points="573,-1097.88 395,-1097.88 395,-1051.62 573,-1051.62 573,-1097.88"/>
<text text-anchor="start" x="403" y="-1084.38" font-family="Cascadia Code NF" font-size="10.00">v8::internal::torque</text>
<text text-anchor="start" x="403" y="-1071.62" font-family="Cascadia Code NF" font-size="10.00">::ls::DidChangeWatchedFiles</text>
<text text-anchor="middle" x="484" y="-1058.88" font-family="Cascadia Code NF" font-size="10.00">Params</text>
</a>
</g>
</g>
<!-- Node5&#45;&gt;Node7 -->
<g id="edge4830_Node000005_Node000007" class="edge">
<title>Node5&#45;&gt;Node7</title>
<g id="a_edge4830_Node000005_Node000007"><a xlink:title=" ">
<path fill="none" stroke="#63b8ff" d="M268.56,-617.28C280.29,-706.78 320.36,-979.85 380,-1042.75 384.38,-1047.37 389.41,-1051.33 394.85,-1054.72"/>
<polygon fill="#63b8ff" stroke="#63b8ff" points="272.04,-616.88 267.29,-607.41 265.1,-617.77 272.04,-616.88"/>
</a>
</g>
</g>
<!-- Node8 -->
<g id="Node000008" class="node">
<title>Node8</title>
<g id="a_Node000008"><a xlink:href="df/d31/classv8_1_1internal_1_1torque_1_1ls_1_1DidChangeWatchedFilesRegistrationOptions.html" target="_top" xlink:title=" ">
<polygon fill="white" stroke="#666666" points="573,-1033.88 395,-1033.88 395,-987.62 573,-987.62 573,-1033.88"/>
<text text-anchor="start" x="403" y="-1020.38" font-family="Cascadia Code NF" font-size="10.00">v8::internal::torque</text>
<text text-anchor="start" x="403" y="-1007.62" font-family="Cascadia Code NF" font-size="10.00">::ls::DidChangeWatchedFiles</text>
<text text-anchor="middle" x="484" y="-994.88" font-family="Cascadia Code NF" font-size="10.00">RegistrationOptions</text>
</a>
</g>
</g>
<!-- Node5&#45;&gt;Node8 -->
<g id="edge4831_Node000005_Node000008" class="edge">
<title>Node5&#45;&gt;Node8</title>
<g id="a_edge4831_Node000005_Node000008"><a xlink:title=" ">
<path fill="none" stroke="#63b8ff" d="M264.78,-617.1C265.82,-688.22 278.59,-875.86 380,-978.75 384.34,-983.15 389.27,-986.95 394.57,-990.23"/>
<polygon fill="#63b8ff" stroke="#63b8ff" points="268.29,-617.45 264.72,-607.48 261.29,-617.5 268.29,-617.45"/>
</a>
</g>
</g>
<!-- Node9 -->
<g id="Node000009" class="node">
<title>Node9</title>
<g id="a_Node000009"><a xlink:href="dd/da0/classv8_1_1internal_1_1torque_1_1ls_1_1DocumentSymbolParams.html" target="_top" xlink:title=" ">
<polygon fill="white" stroke="#666666" points="570,-969.5 398,-969.5 398,-936 570,-936 570,-969.5"/>
<text text-anchor="start" x="406" y="-956" font-family="Cascadia Code NF" font-size="10.00">v8::internal::torque</text>
<text text-anchor="middle" x="484" y="-943.25" font-family="Cascadia Code NF" font-size="10.00">::ls::DocumentSymbolParams</text>
</a>
</g>
</g>
<!-- Node5&#45;&gt;Node9 -->
<g id="edge4832_Node000005_Node000009" class="edge">
<title>Node5&#45;&gt;Node9</title>
<g id="a_edge4832_Node000005_Node000009"><a xlink:title=" ">
<path fill="none" stroke="#63b8ff" d="M265.96,-617.11C269.75,-682.02 288.4,-842.26 380,-926.75 385.29,-931.63 391.35,-935.62 397.84,-938.89"/>
<polygon fill="#63b8ff" stroke="#63b8ff" points="269.46,-617.12 265.47,-607.31 262.47,-617.47 269.46,-617.12"/>
</a>
</g>
</g>
<!-- Node10 -->
<g id="Node000010" class="node">
<title>Node10</title>
<g id="a_Node000010"><a xlink:href="d5/d10/classv8_1_1internal_1_1torque_1_1ls_1_1FileEvent.html" target="_top" xlink:title=" ">
<polygon fill="white" stroke="#666666" points="552,-917.5 416,-917.5 416,-884 552,-884 552,-917.5"/>
<text text-anchor="start" x="424" y="-904" font-family="Cascadia Code NF" font-size="10.00">v8::internal::torque</text>
<text text-anchor="middle" x="484" y="-891.25" font-family="Cascadia Code NF" font-size="10.00">::ls::FileEvent</text>
</a>
</g>
</g>
<!-- Node5&#45;&gt;Node10 -->
<g id="edge4833_Node000005_Node000010" class="edge">
<title>Node5&#45;&gt;Node10</title>
<g id="a_edge4833_Node000005_Node000010"><a xlink:title=" ">
<path fill="none" stroke="#63b8ff" d="M267.96,-617.1C275.54,-674.69 300.97,-805.73 380,-874.75 390.07,-883.55 402.7,-889.44 415.63,-893.38"/>
<polygon fill="#63b8ff" stroke="#63b8ff" points="271.48,-616.98 266.79,-607.48 264.53,-617.83 271.48,-616.98"/>
</a>
</g>
</g>
<!-- Node11 -->
<g id="Node000011" class="node">
<title>Node11</title>
<g id="a_Node000011"><a xlink:href="d4/d0e/classv8_1_1internal_1_1torque_1_1ls_1_1FileListParams.html" target="_top" xlink:title=" ">
<polygon fill="white" stroke="#666666" points="552,-865.5 416,-865.5 416,-832 552,-832 552,-865.5"/>
<text text-anchor="start" x="424" y="-852" font-family="Cascadia Code NF" font-size="10.00">v8::internal::torque</text>
<text text-anchor="middle" x="484" y="-839.25" font-family="Cascadia Code NF" font-size="10.00">::ls::FileListParams</text>
</a>
</g>
</g>
<!-- Node5&#45;&gt;Node11 -->
<g id="edge4834_Node000005_Node000011" class="edge">
<title>Node5&#45;&gt;Node11</title>
<g id="a_edge4834_Node000005_Node000011"><a xlink:title=" ">
<path fill="none" stroke="#63b8ff" d="M270.77,-617.08C282.39,-666.61 313.38,-768.8 380,-822.75 390.25,-831.05 402.81,-836.74 415.59,-840.63"/>
<polygon fill="#63b8ff" stroke="#63b8ff" points="274.22,-616.43 268.62,-607.44 267.38,-617.96 274.22,-616.43"/>
</a>
</g>
</g>
<!-- Node12 -->
<g id="Node000012" class="node">
<title>Node12</title>
<g id="a_Node000012"><a xlink:href="d2/d0c/classv8_1_1internal_1_1torque_1_1ls_1_1FileSystemWatcher.html" target="_top" xlink:title=" ">
<polygon fill="white" stroke="#666666" points="561,-813.5 407,-813.5 407,-780 561,-780 561,-813.5"/>
<text text-anchor="start" x="415" y="-800" font-family="Cascadia Code NF" font-size="10.00">v8::internal::torque</text>
<text text-anchor="middle" x="484" y="-787.25" font-family="Cascadia Code NF" font-size="10.00">::ls::FileSystemWatcher</text>
</a>
</g>
</g>
<!-- Node5&#45;&gt;Node12 -->
<g id="edge4835_Node000005_Node000012" class="edge">
<title>Node5&#45;&gt;Node12</title>
<g id="a_edge4835_Node000005_Node000012"><a xlink:title=" ">
<path fill="none" stroke="#63b8ff" d="M274.83,-616.51C290.57,-656.83 325.35,-731.13 380,-770.75 387.99,-776.54 397.14,-781.05 406.61,-784.55"/>
<polygon fill="#63b8ff" stroke="#63b8ff" points="278.15,-615.39 271.34,-607.27 271.6,-617.86 278.15,-615.39"/>
</a>
</g>
</g>
<!-- Node13 -->
<g id="Node000013" class="node">
<title>Node13</title>
<g id="a_Node000013"><a xlink:href="d5/d82/classv8_1_1internal_1_1torque_1_1ls_1_1InitializeParams.html" target="_top" xlink:title=" ">
<polygon fill="white" stroke="#666666" points="558,-761.5 410,-761.5 410,-728 558,-728 558,-761.5"/>
<text text-anchor="start" x="418" y="-748" font-family="Cascadia Code NF" font-size="10.00">v8::internal::torque</text>
<text text-anchor="middle" x="484" y="-735.25" font-family="Cascadia Code NF" font-size="10.00">::ls::InitializeParams</text>
</a>
</g>
</g>
<!-- Node5&#45;&gt;Node13 -->
<g id="edge4836_Node000005_Node000013" class="edge">
<title>Node5&#45;&gt;Node13</title>
<g id="a_edge4836_Node000005_Node000013"><a xlink:title=" ">
<path fill="none" stroke="#63b8ff" d="M281.09,-614.94C300.74,-644.66 336.76,-692.42 380,-718.75 389.06,-724.26 399.24,-728.61 409.59,-732.04"/>
<polygon fill="#63b8ff" stroke="#63b8ff" points="284.25,-613.38 275.89,-606.88 278.37,-617.18 284.25,-613.38"/>
</a>
</g>
</g>
<!-- Node14 -->
<g id="Node000014" class="node">
<title>Node14</title>
<g id="a_Node000014"><a xlink:href="d1/dcd/classv8_1_1internal_1_1torque_1_1ls_1_1InitializeResult.html" target="_top" xlink:title=" ">
<polygon fill="white" stroke="#666666" points="558,-709.5 410,-709.5 410,-676 558,-676 558,-709.5"/>
<text text-anchor="start" x="418" y="-696" font-family="Cascadia Code NF" font-size="10.00">v8::internal::torque</text>
<text text-anchor="middle" x="484" y="-683.25" font-family="Cascadia Code NF" font-size="10.00">::ls::InitializeResult</text>
</a>
</g>
</g>
<!-- Node5&#45;&gt;Node14 -->
<g id="edge4837_Node000005_Node000014" class="edge">
<title>Node5&#45;&gt;Node14</title>
<g id="a_edge4837_Node000005_Node000014"><a xlink:title=" ">
<path fill="none" stroke="#63b8ff" d="M294.22,-612.81C316.5,-630.07 348.61,-652.67 380,-666.75 389.34,-670.94 399.47,-674.53 409.61,-677.59"/>
<polygon fill="#63b8ff" stroke="#63b8ff" points="296.51,-610.16 286.49,-606.72 292.17,-615.66 296.51,-610.16"/>
</a>
</g>
</g>
<!-- Node15 -->
<g id="Node000015" class="node">
<title>Node15</title>
<g id="a_Node000015"><a xlink:href="de/d49/classv8_1_1internal_1_1torque_1_1ls_1_1JsonPosition.html" target="_top" xlink:title=" ">
<polygon fill="white" stroke="#666666" points="552,-657.5 416,-657.5 416,-624 552,-624 552,-657.5"/>
<text text-anchor="start" x="424" y="-644" font-family="Cascadia Code NF" font-size="10.00">v8::internal::torque</text>
<text text-anchor="middle" x="484" y="-631.25" font-family="Cascadia Code NF" font-size="10.00">::ls::JsonPosition</text>
</a>
</g>
</g>
<!-- Node5&#45;&gt;Node15 -->
<g id="edge4838_Node000005_Node000015" class="edge">
<title>Node5&#45;&gt;Node15</title>
<g id="a_edge4838_Node000005_Node000015"><a xlink:title=" ">
<path fill="none" stroke="#63b8ff" d="M348.42,-608.65C370.67,-613.96 394.43,-619.62 415.7,-624.7"/>
<polygon fill="#63b8ff" stroke="#63b8ff" points="349.3,-605.26 338.76,-606.34 347.68,-612.07 349.3,-605.26"/>
</a>
</g>
</g>
<!-- Node16 -->
<g id="Node000016" class="node">
<title>Node16</title>
<g id="a_Node000016"><a xlink:href="d7/d4d/classv8_1_1internal_1_1torque_1_1ls_1_1Location.html" target="_top" xlink:title=" ">
<polygon fill="white" stroke="#666666" points="552,-605.5 416,-605.5 416,-572 552,-572 552,-605.5"/>
<text text-anchor="start" x="424" y="-592" font-family="Cascadia Code NF" font-size="10.00">v8::internal::torque</text>
<text text-anchor="middle" x="484" y="-579.25" font-family="Cascadia Code NF" font-size="10.00">::ls::Location</text>
</a>
</g>
</g>
<!-- Node5&#45;&gt;Node16 -->
<g id="edge4839_Node000005_Node000016" class="edge">
<title>Node5&#45;&gt;Node16</title>
<g id="a_edge4839_Node000005_Node000016"><a xlink:title=" ">
<path fill="none" stroke="#63b8ff" d="M355.68,-588.75C375.74,-588.75 396.65,-588.75 415.59,-588.75"/>
<polygon fill="#63b8ff" stroke="#63b8ff" points="355.83,-585.25 345.83,-588.75 355.83,-592.25 355.83,-585.25"/>
</a>
</g>
</g>
<!-- Node17 -->
<g id="Node000017" class="node">
<title>Node17</title>
<g id="a_Node000017"><a xlink:href="d7/df4/classv8_1_1internal_1_1torque_1_1ls_1_1PublishDiagnosticsParams.html" target="_top" xlink:title=" ">
<polygon fill="white" stroke="#666666" points="582,-553.5 386,-553.5 386,-520 582,-520 582,-553.5"/>
<text text-anchor="start" x="394" y="-540" font-family="Cascadia Code NF" font-size="10.00">v8::internal::torque</text>
<text text-anchor="middle" x="484" y="-527.25" font-family="Cascadia Code NF" font-size="10.00">::ls::PublishDiagnosticsParams</text>
</a>
</g>
</g>
<!-- Node5&#45;&gt;Node17 -->
<g id="edge4840_Node000005_Node000017" class="edge">
<title>Node5&#45;&gt;Node17</title>
<g id="a_edge4840_Node000005_Node000017"><a xlink:title=" ">
<path fill="none" stroke="#63b8ff" d="M348.27,-568.89C368.91,-563.96 390.85,-558.73 410.91,-553.95"/>
<polygon fill="#63b8ff" stroke="#63b8ff" points="347.68,-565.43 338.76,-571.16 349.3,-572.24 347.68,-565.43"/>
</a>
</g>
</g>
<!-- Node18 -->
<g id="Node000018" class="node">
<title>Node18</title>
<g id="a_Node000018"><a xlink:href="df/da0/classv8_1_1internal_1_1torque_1_1ls_1_1Range.html" target="_top" xlink:title=" ">
<polygon fill="white" stroke="#666666" points="552,-501.5 416,-501.5 416,-468 552,-468 552,-501.5"/>
<text text-anchor="start" x="424" y="-488" font-family="Cascadia Code NF" font-size="10.00">v8::internal::torque</text>
<text text-anchor="middle" x="484" y="-475.25" font-family="Cascadia Code NF" font-size="10.00">::ls::Range</text>
</a>
</g>
</g>
<!-- Node5&#45;&gt;Node18 -->
<g id="edge4841_Node000005_Node000018" class="edge">
<title>Node5&#45;&gt;Node18</title>
<g id="a_edge4841_Node000005_Node000018"><a xlink:title=" ">
<path fill="none" stroke="#63b8ff" d="M294.22,-564.69C316.5,-547.43 348.61,-524.83 380,-510.75 391.19,-505.73 403.52,-501.56 415.64,-498.15"/>
<polygon fill="#63b8ff" stroke="#63b8ff" points="292.17,-561.84 286.49,-570.78 296.51,-567.34 292.17,-561.84"/>
</a>
</g>
</g>
<!-- Node19 -->
<g id="Node000019" class="node">
<title>Node19</title>
<g id="a_Node000019"><a xlink:href="d4/ddb/classv8_1_1internal_1_1torque_1_1ls_1_1Registration.html" target="_top" xlink:title=" ">
<polygon fill="white" stroke="#666666" points="552,-449.5 416,-449.5 416,-416 552,-416 552,-449.5"/>
<text text-anchor="start" x="424" y="-436" font-family="Cascadia Code NF" font-size="10.00">v8::internal::torque</text>
<text text-anchor="middle" x="484" y="-423.25" font-family="Cascadia Code NF" font-size="10.00">::ls::Registration</text>
</a>
</g>
</g>
<!-- Node5&#45;&gt;Node19 -->
<g id="edge4842_Node000005_Node000019" class="edge">
<title>Node5&#45;&gt;Node19</title>
<g id="a_edge4842_Node000005_Node000019"><a xlink:title=" ">
<path fill="none" stroke="#63b8ff" d="M281.09,-562.56C300.74,-532.84 336.76,-485.08 380,-458.75 390.79,-452.18 403.18,-447.26 415.54,-443.59"/>
<polygon fill="#63b8ff" stroke="#63b8ff" points="278.37,-560.32 275.89,-570.62 284.25,-564.12 278.37,-560.32"/>
</a>
</g>
</g>
<!-- Node20 -->
<g id="Node000020" class="node">
<title>Node20</title>
<g id="a_Node000020"><a xlink:href="dc/dea/classv8_1_1internal_1_1torque_1_1ls_1_1RegistrationParams.html" target="_top" xlink:title=" ">
<polygon fill="white" stroke="#666666" points="564,-397.5 404,-397.5 404,-364 564,-364 564,-397.5"/>
<text text-anchor="start" x="412" y="-384" font-family="Cascadia Code NF" font-size="10.00">v8::internal::torque</text>
<text text-anchor="middle" x="484" y="-371.25" font-family="Cascadia Code NF" font-size="10.00">::ls::RegistrationParams</text>
</a>
</g>
</g>
<!-- Node5&#45;&gt;Node20 -->
<g id="edge4843_Node000005_Node000020" class="edge">
<title>Node5&#45;&gt;Node20</title>
<g id="a_edge4843_Node000005_Node000020"><a xlink:title=" ">
<path fill="none" stroke="#63b8ff" d="M274.83,-560.99C290.57,-520.67 325.35,-446.37 380,-406.75 387.17,-401.55 395.27,-397.39 403.7,-394.06"/>
<polygon fill="#63b8ff" stroke="#63b8ff" points="271.6,-559.64 271.34,-570.23 278.15,-562.11 271.6,-559.64"/>
</a>
</g>
</g>
<!-- Node21 -->
<g id="Node000021" class="node">
<title>Node21</title>
<g id="a_Node000021"><a xlink:href="da/def/classv8_1_1internal_1_1torque_1_1ls_1_1ResponseError.html" target="_top" xlink:title=" ">
<polygon fill="white" stroke="#666666" points="552,-345.5 416,-345.5 416,-312 552,-312 552,-345.5"/>
<text text-anchor="start" x="424" y="-332" font-family="Cascadia Code NF" font-size="10.00">v8::internal::torque</text>
<text text-anchor="middle" x="484" y="-319.25" font-family="Cascadia Code NF" font-size="10.00">::ls::ResponseError</text>
</a>
</g>
</g>
<!-- Node5&#45;&gt;Node21 -->
<g id="edge4844_Node000005_Node000021" class="edge">
<title>Node5&#45;&gt;Node21</title>
<g id="a_edge4844_Node000005_Node000021"><a xlink:title=" ">
<path fill="none" stroke="#63b8ff" d="M270.77,-560.42C282.39,-510.89 313.38,-408.7 380,-354.75 390.25,-346.45 402.81,-340.76 415.59,-336.87"/>
<polygon fill="#63b8ff" stroke="#63b8ff" points="267.38,-559.54 268.62,-570.06 274.22,-561.07 267.38,-559.54"/>
</a>
</g>
</g>
<!-- Node22 -->
<g id="Node000022" class="node">
<title>Node22</title>
<g id="a_Node000022"><a xlink:href="d0/dce/classv8_1_1internal_1_1torque_1_1ls_1_1SaveOptions.html" target="_top" xlink:title=" ">
<polygon fill="white" stroke="#666666" points="552,-293.5 416,-293.5 416,-260 552,-260 552,-293.5"/>
<text text-anchor="start" x="424" y="-280" font-family="Cascadia Code NF" font-size="10.00">v8::internal::torque</text>
<text text-anchor="middle" x="484" y="-267.25" font-family="Cascadia Code NF" font-size="10.00">::ls::SaveOptions</text>
</a>
</g>
</g>
<!-- Node5&#45;&gt;Node22 -->
<g id="edge4845_Node000005_Node000022" class="edge">
<title>Node5&#45;&gt;Node22</title>
<g id="a_edge4845_Node000005_Node000022"><a xlink:title=" ">
<path fill="none" stroke="#63b8ff" d="M267.96,-560.4C275.54,-502.81 300.97,-371.77 380,-302.75 390.07,-293.95 402.7,-288.06 415.63,-284.12"/>
<polygon fill="#63b8ff" stroke="#63b8ff" points="264.53,-559.67 266.79,-570.02 271.48,-560.52 264.53,-559.67"/>
</a>
</g>
</g>
<!-- Node23 -->
<g id="Node000023" class="node">
<title>Node23</title>
<g id="a_Node000023"><a xlink:href="df/d4f/classv8_1_1internal_1_1torque_1_1ls_1_1ServerCapabilities.html" target="_top" xlink:title=" ">
<polygon fill="white" stroke="#666666" points="564,-241.5 404,-241.5 404,-208 564,-208 564,-241.5"/>
<text text-anchor="start" x="412" y="-228" font-family="Cascadia Code NF" font-size="10.00">v8::internal::torque</text>
<text text-anchor="middle" x="484" y="-215.25" font-family="Cascadia Code NF" font-size="10.00">::ls::ServerCapabilities</text>
</a>
</g>
</g>
<!-- Node5&#45;&gt;Node23 -->
<g id="edge4846_Node000005_Node000023" class="edge">
<title>Node5&#45;&gt;Node23</title>
<g id="a_edge4846_Node000005_Node000023"><a xlink:title=" ">
<path fill="none" stroke="#63b8ff" d="M265.96,-560.39C269.75,-495.48 288.4,-335.24 380,-250.75 386.85,-244.44 395,-239.6 403.68,-235.91"/>
<polygon fill="#63b8ff" stroke="#63b8ff" points="262.47,-560.03 265.47,-570.19 269.46,-560.38 262.47,-560.03"/>
</a>
</g>
</g>
<!-- Node24 -->
<g id="Node000024" class="node">
<title>Node24</title>
<g id="a_Node000024"><a xlink:href="da/d29/classv8_1_1internal_1_1torque_1_1ls_1_1SymbolInformation.html" target="_top" xlink:title=" ">
<polygon fill="white" stroke="#666666" points="561,-189.5 407,-189.5 407,-156 561,-156 561,-189.5"/>
<text text-anchor="start" x="415" y="-176" font-family="Cascadia Code NF" font-size="10.00">v8::internal::torque</text>
<text text-anchor="middle" x="484" y="-163.25" font-family="Cascadia Code NF" font-size="10.00">::ls::SymbolInformation</text>
</a>
</g>
</g>
<!-- Node5&#45;&gt;Node24 -->
<g id="edge4847_Node000005_Node000024" class="edge">
<title>Node5&#45;&gt;Node24</title>
<g id="a_edge4847_Node000005_Node000024"><a xlink:title=" ">
<path fill="none" stroke="#63b8ff" d="M264.45,-560.56C264.67,-489.04 275.61,-299.1 380,-198.75 387.51,-191.53 396.73,-186.23 406.52,-182.35"/>
<polygon fill="#63b8ff" stroke="#63b8ff" points="260.95,-560.25 264.5,-570.23 267.95,-560.21 260.95,-560.25"/>
</a>
</g>
</g>
<!-- Node25 -->
<g id="Node000025" class="node">
<title>Node25</title>
<g id="a_Node000025"><a xlink:href="d5/db4/classv8_1_1internal_1_1torque_1_1ls_1_1TextDocumentIdentifier.html" target="_top" xlink:title=" ">
<polygon fill="white" stroke="#666666" points="576,-137.5 392,-137.5 392,-104 576,-104 576,-137.5"/>
<text text-anchor="start" x="400" y="-124" font-family="Cascadia Code NF" font-size="10.00">v8::internal::torque</text>
<text text-anchor="middle" x="484" y="-111.25" font-family="Cascadia Code NF" font-size="10.00">::ls::TextDocumentIdentifier</text>
</a>
</g>
</g>
<!-- Node5&#45;&gt;Node25 -->
<g id="edge4848_Node000005_Node000025" class="edge">
<title>Node5&#45;&gt;Node25</title>
<g id="a_edge4848_Node000005_Node000025"><a xlink:title=" ">
<path fill="none" stroke="#63b8ff" d="M268.57,-560.54C280.26,-472.68 320.08,-206.24 380,-146.75 383.53,-143.24 387.47,-140.18 391.68,-137.52"/>
<polygon fill="#63b8ff" stroke="#63b8ff" points="265.14,-559.84 267.31,-570.21 272.08,-560.75 265.14,-559.84"/>
</a>
</g>
</g>
<!-- Node26 -->
<g id="Node000026" class="node">
<title>Node26</title>
<g id="a_Node000026"><a xlink:href="dd/de3/classv8_1_1internal_1_1torque_1_1ls_1_1TextDocumentPositionParams.html" target="_top" xlink:title=" ">
<polygon fill="white" stroke="#666666" points="588,-85.5 380,-85.5 380,-52 588,-52 588,-85.5"/>
<text text-anchor="start" x="388" y="-72" font-family="Cascadia Code NF" font-size="10.00">v8::internal::torque</text>
<text text-anchor="middle" x="484" y="-59.25" font-family="Cascadia Code NF" font-size="10.00">::ls::TextDocumentPositionParams</text>
</a>
</g>
</g>
<!-- Node5&#45;&gt;Node26 -->
<g id="edge4849_Node000005_Node000026" class="edge">
<title>Node5&#45;&gt;Node26</title>
<g id="a_edge4849_Node000005_Node000026"><a xlink:title=" ">
<path fill="none" stroke="#63b8ff" d="M267.76,-560.41C277.54,-465.7 313.59,-162.4 380,-94.75 383.36,-91.33 387.1,-88.33 391.11,-85.71"/>
<polygon fill="#63b8ff" stroke="#63b8ff" points="264.3,-559.81 266.78,-570.11 271.27,-560.52 264.3,-559.81"/>
</a>
</g>
</g>
<!-- Node27 -->
<g id="Node000027" class="node">
<title>Node27</title>
<g id="a_Node000027"><a xlink:href="dd/d42/classv8_1_1internal_1_1torque_1_1ls_1_1TextDocumentSyncOptions.html" target="_top" xlink:title=" ">
<polygon fill="white" stroke="#666666" points="579,-33.5 389,-33.5 389,0 579,0 579,-33.5"/>
<text text-anchor="start" x="397" y="-20" font-family="Cascadia Code NF" font-size="10.00">v8::internal::torque</text>
<text text-anchor="middle" x="484" y="-7.25" font-family="Cascadia Code NF" font-size="10.00">::ls::TextDocumentSyncOptions</text>
</a>
</g>
</g>
<!-- Node5&#45;&gt;Node27 -->
<g id="edge4850_Node000005_Node000027" class="edge">
<title>Node5&#45;&gt;Node27</title>
<g id="a_edge4850_Node000005_Node000027"><a xlink:title=" ">
<path fill="none" stroke="#63b8ff" d="M267.1,-560.14C275.12,-458.75 307.1,-118.6 380,-42.75 383.19,-39.43 386.75,-36.5 390.56,-33.93"/>
<polygon fill="#63b8ff" stroke="#63b8ff" points="263.62,-559.8 266.34,-570.03 270.6,-560.33 263.62,-559.8"/>
</a>
</g>
</g>
</g>
</svg>
