<?xml version="1.0" encoding="UTF-8" standalone="no"?>
<!DOCTYPE svg PUBLIC "-//W3C//DTD SVG 1.1//EN"
 "http://www.w3.org/Graphics/SVG/1.1/DTD/svg11.dtd">
<!-- Generated by graphviz version 11.0.0 (20240428.1522)
 -->
<!-- Title: Graphical Class Hierarchy Pages: 1 -->
<svg width="376pt" height="94pt"
 viewBox="0.00 0.00 376.00 93.50" xmlns="http://www.w3.org/2000/svg" xmlns:xlink="http://www.w3.org/1999/xlink">
<g id="graph0" class="graph" transform="scale(1 1) rotate(0) translate(4 89.5)">
<title>Graphical Class Hierarchy</title>
<!-- Node0 -->
<g id="Node000000" class="node">
<title>Node0</title>
<g id="a_Node000000"><a xlink:href="d8/d77/classv8_1_1internal_1_1StringToIntHelper.html" target="_top" xlink:title=" ">
<polygon fill="white" stroke="#666666" points="166,-59.5 0,-59.5 0,-26 166,-26 166,-59.5"/>
<text text-anchor="start" x="8" y="-46" font-family="Cascadia Code NF" font-size="10.00">v8::internal::StringToInt</text>
<text text-anchor="middle" x="83" y="-33.25" font-family="Cascadia Code NF" font-size="10.00">Helper</text>
</a>
</g>
</g>
<!-- Node1 -->
<g id="Node000001" class="node">
<title>Node1</title>
<g id="a_Node000001"><a xlink:href="d7/db8/classv8_1_1internal_1_1NumberParseIntHelper.html" target="_top" xlink:title=" ">
<polygon fill="white" stroke="#666666" points="368,-85.5 202,-85.5 202,-52 368,-52 368,-85.5"/>
<text text-anchor="start" x="210" y="-72" font-family="Cascadia Code NF" font-size="10.00">v8::internal::NumberParse</text>
<text text-anchor="middle" x="285" y="-59.25" font-family="Cascadia Code NF" font-size="10.00">IntHelper</text>
</a>
</g>
</g>
<!-- Node0&#45;&gt;Node1 -->
<g id="edge4592_Node000000_Node000001" class="edge">
<title>Node0&#45;&gt;Node1</title>
<g id="a_edge4592_Node000000_Node000001"><a xlink:title=" ">
<path fill="none" stroke="#63b8ff" d="M177.58,-54.92C185.66,-55.97 193.8,-57.02 201.78,-58.06"/>
<polygon fill="#63b8ff" stroke="#63b8ff" points="178.08,-51.45 167.71,-53.63 177.18,-58.39 178.08,-51.45"/>
</a>
</g>
</g>
<!-- Node2 -->
<g id="Node000002" class="node">
<title>Node2</title>
<g id="a_Node000002"><a xlink:href="d8/d3d/classv8_1_1internal_1_1StringToBigIntHelper.html" target="_top" xlink:title=" ">
<polygon fill="white" stroke="#666666" points="368,-33.5 202,-33.5 202,0 368,0 368,-33.5"/>
<text text-anchor="start" x="210" y="-20" font-family="Cascadia Code NF" font-size="10.00">v8::internal::StringToBig</text>
<text text-anchor="middle" x="285" y="-7.25" font-family="Cascadia Code NF" font-size="10.00">IntHelper&lt; IsolateT &gt;</text>
</a>
</g>
</g>
<!-- Node0&#45;&gt;Node2 -->
<g id="edge4593_Node000000_Node000002" class="edge">
<title>Node0&#45;&gt;Node2</title>
<g id="a_edge4593_Node000000_Node000002"><a xlink:title=" ">
<path fill="none" stroke="#63b8ff" d="M177.58,-30.58C185.66,-29.53 193.8,-28.48 201.78,-27.44"/>
<polygon fill="#63b8ff" stroke="#63b8ff" points="177.18,-27.11 167.71,-31.87 178.08,-34.05 177.18,-27.11"/>
</a>
</g>
</g>
</g>
</svg>
