<?xml version="1.0" encoding="UTF-8" standalone="no"?>
<!DOCTYPE svg PUBLIC "-//W3C//DTD SVG 1.1//EN"
 "http://www.w3.org/Graphics/SVG/1.1/DTD/svg11.dtd">
<!-- Generated by graphviz version 11.0.0 (20240428.1522)
 -->
<!-- Title: Graphical Class Hierarchy Pages: 1 -->
<svg width="364pt" height="80pt"
 viewBox="0.00 0.00 364.00 80.12" xmlns="http://www.w3.org/2000/svg" xmlns:xlink="http://www.w3.org/1999/xlink">
<g id="graph0" class="graph" transform="scale(1 1) rotate(0) translate(4 76.12)">
<title>Graphical Class Hierarchy</title>
<!-- Node0 -->
<g id="Node000000" class="node">
<title>Node0</title>
<g id="a_Node000000"><a xlink:href="dd/d31/classv8_1_1base_1_1Vector.html" target="_top" xlink:title=" ">
<polygon fill="white" stroke="#666666" points="142,-42.75 0,-42.75 0,-22 142,-22 142,-42.75"/>
<text text-anchor="middle" x="71" y="-29.25" font-family="Cascadia Code NF" font-size="10.00">v8::base::Vector&lt; T &gt;</text>
</a>
</g>
</g>
<!-- Node1 -->
<g id="Node000001" class="node">
<title>Node1</title>
<g id="a_Node000001"><a xlink:href="da/d2a/classv8_1_1base_1_1EmbeddedVector.html" target="_top" xlink:title=" ">
<polygon fill="white" stroke="#666666" points="347,-72.12 187,-72.12 187,-38.62 347,-38.62 347,-72.12"/>
<text text-anchor="start" x="195" y="-58.62" font-family="Cascadia Code NF" font-size="10.00">v8::base::EmbeddedVector</text>
<text text-anchor="middle" x="267" y="-45.88" font-family="Cascadia Code NF" font-size="10.00">&lt; T, kSize &gt;</text>
</a>
</g>
</g>
<!-- Node0&#45;&gt;Node1 -->
<g id="edge2446_Node000000_Node000001" class="edge">
<title>Node0&#45;&gt;Node1</title>
<g id="a_edge2446_Node000000_Node000001"><a xlink:title=" ">
<path fill="none" stroke="#63b8ff" d="M153.61,-42.05C164.57,-43.35 175.8,-44.68 186.72,-45.98"/>
<polygon fill="#63b8ff" stroke="#63b8ff" points="154.16,-38.59 143.82,-40.89 153.33,-45.54 154.16,-38.59"/>
</a>
</g>
</g>
<!-- Node2 -->
<g id="Node000002" class="node">
<title>Node2</title>
<g id="a_Node000002"><a xlink:href="d4/d2f/classv8_1_1base_1_1ScopedVector.html" target="_top" xlink:title=" ">
<polygon fill="white" stroke="#666666" points="356,-20.75 178,-20.75 178,0 356,0 356,-20.75"/>
<text text-anchor="middle" x="267" y="-7.25" font-family="Cascadia Code NF" font-size="10.00">v8::base::ScopedVector&lt; T &gt;</text>
</a>
</g>
</g>
<!-- Node0&#45;&gt;Node2 -->
<g id="edge2447_Node000000_Node000002" class="edge">
<title>Node0&#45;&gt;Node2</title>
<g id="a_edge2447_Node000000_Node000002"><a xlink:title=" ">
<path fill="none" stroke="#63b8ff" d="M153.5,-23.13C161.5,-22.23 169.64,-21.3 177.7,-20.39"/>
<polygon fill="#63b8ff" stroke="#63b8ff" points="153.36,-19.63 143.82,-24.23 154.15,-26.58 153.36,-19.63"/>
</a>
</g>
</g>
</g>
</svg>
