<?xml version="1.0" encoding="UTF-8" standalone="no"?>
<!DOCTYPE svg PUBLIC "-//W3C//DTD SVG 1.1//EN"
 "http://www.w3.org/Graphics/SVG/1.1/DTD/svg11.dtd">
<!-- Generated by graphviz version 11.0.0 (20240428.1522)
 -->
<!-- Title: Graphical Class Hierarchy Pages: 1 -->
<svg width="686pt" height="54pt"
 viewBox="0.00 0.00 686.00 54.25" xmlns="http://www.w3.org/2000/svg" xmlns:xlink="http://www.w3.org/1999/xlink">
<g id="graph0" class="graph" transform="scale(1 1) rotate(0) translate(4 50.25)">
<title>Graphical Class Hierarchy</title>
<!-- Node0 -->
<g id="Node000000" class="node">
<title>Node0</title>
<g id="a_Node000000"><a xlink:href="d2/dcd/classv8_1_1base_1_1TemplateHashMapImpl.html" target="_top" xlink:title=" ">
<polygon fill="white" stroke="#666666" points="238,-46.25 0,-46.25 0,0 238,0 238,-46.25"/>
<text text-anchor="start" x="8" y="-32.75" font-family="Cascadia Code NF" font-size="10.00">v8::base::TemplateHashMap</text>
<text text-anchor="start" x="8" y="-20" font-family="Cascadia Code NF" font-size="10.00">Impl&lt; void *, void *, KeyEquality</text>
<text text-anchor="middle" x="119" y="-7.25" font-family="Cascadia Code NF" font-size="10.00">Matcher&lt; void * &gt;, AllocationPolicy &gt;</text>
</a>
</g>
</g>
<!-- Node1 -->
<g id="Node000001" class="node">
<title>Node1</title>
<g id="a_Node000001"><a xlink:href="d4/d5a/classv8_1_1base_1_1PointerTemplateHashMapImpl.html" target="_top" xlink:title=" ">
<polygon fill="white" stroke="#666666" points="476,-39.88 274,-39.88 274,-6.38 476,-6.38 476,-39.88"/>
<text text-anchor="start" x="282" y="-26.38" font-family="Cascadia Code NF" font-size="10.00">v8::base::PointerTemplate</text>
<text text-anchor="middle" x="375" y="-13.62" font-family="Cascadia Code NF" font-size="10.00">HashMapImpl&lt; AllocationPolicy &gt;</text>
</a>
</g>
</g>
<!-- Node0&#45;&gt;Node1 -->
<g id="edge2418_Node000000_Node000001" class="edge">
<title>Node0&#45;&gt;Node1</title>
<g id="a_edge2418_Node000000_Node000001"><a xlink:title=" ">
<path fill="none" stroke="#63b8ff" d="M249.77,-23.12C257.79,-23.12 265.79,-23.12 273.64,-23.12"/>
<polygon fill="#63b8ff" stroke="#63b8ff" points="249.96,-19.63 239.96,-23.13 249.96,-26.63 249.96,-19.63"/>
</a>
</g>
</g>
<!-- Node2 -->
<g id="Node000002" class="node">
<title>Node2</title>
<g id="a_Node000002"><a xlink:href="d3/dc0/classv8_1_1internal_1_1VariableMap.html" target="_top" xlink:title=" ">
<polygon fill="white" stroke="#666666" points="678,-33.5 512,-33.5 512,-12.75 678,-12.75 678,-33.5"/>
<text text-anchor="middle" x="595" y="-20" font-family="Cascadia Code NF" font-size="10.00">v8::internal::VariableMap</text>
</a>
</g>
</g>
<!-- Node1&#45;&gt;Node2 -->
<g id="edge2419_Node000001_Node000002" class="edge">
<title>Node1&#45;&gt;Node2</title>
<g id="a_edge2419_Node000001_Node000002"><a xlink:title=" ">
<path fill="none" stroke="#63b8ff" d="M487.79,-23.12C495.86,-23.12 503.91,-23.12 511.77,-23.12"/>
<polygon fill="#63b8ff" stroke="#63b8ff" points="487.9,-19.63 477.9,-23.13 487.9,-26.63 487.9,-19.63"/>
</a>
</g>
</g>
</g>
</svg>
