<?xml version="1.0" encoding="UTF-8" standalone="no"?>
<!DOCTYPE svg PUBLIC "-//W3C//DTD SVG 1.1//EN"
 "http://www.w3.org/Graphics/SVG/1.1/DTD/svg11.dtd">
<!-- Generated by graphviz version 11.0.0 (20240428.1522)
 -->
<!-- Title: Graphical Class Hierarchy Pages: 1 -->
<svg width="436pt" height="198pt"
 viewBox="0.00 0.00 436.00 197.50" xmlns="http://www.w3.org/2000/svg" xmlns:xlink="http://www.w3.org/1999/xlink">
<g id="graph0" class="graph" transform="scale(1 1) rotate(0) translate(4 193.5)">
<title>Graphical Class Hierarchy</title>
<!-- Node0 -->
<g id="Node000000" class="node">
<title>Node0</title>
<g id="a_Node000000"><a xlink:href="d0/d0c/classv8_1_1internal_1_1PlatformEmbeddedFileWriterBase.html" target="_top" xlink:title=" ">
<polygon fill="white" stroke="#666666" points="196,-111.5 0,-111.5 0,-78 196,-78 196,-111.5"/>
<text text-anchor="start" x="8" y="-98" font-family="Cascadia Code NF" font-size="10.00">v8::internal::PlatformEmbedded</text>
<text text-anchor="middle" x="98" y="-85.25" font-family="Cascadia Code NF" font-size="10.00">FileWriterBase</text>
</a>
</g>
</g>
<!-- Node1 -->
<g id="Node000001" class="node">
<title>Node1</title>
<g id="a_Node000001"><a xlink:href="db/d8e/classv8_1_1internal_1_1PlatformEmbeddedFileWriterAIX.html" target="_top" xlink:title=" ">
<polygon fill="white" stroke="#666666" points="428,-189.5 232,-189.5 232,-156 428,-156 428,-189.5"/>
<text text-anchor="start" x="240" y="-176" font-family="Cascadia Code NF" font-size="10.00">v8::internal::PlatformEmbedded</text>
<text text-anchor="middle" x="330" y="-163.25" font-family="Cascadia Code NF" font-size="10.00">FileWriterAIX</text>
</a>
</g>
</g>
<!-- Node0&#45;&gt;Node1 -->
<g id="edge4103_Node000000_Node000001" class="edge">
<title>Node0&#45;&gt;Node1</title>
<g id="a_edge4103_Node000000_Node000001"><a xlink:title=" ">
<path fill="none" stroke="#63b8ff" d="M150.12,-116.27C174.66,-126.2 204.61,-137.75 232,-146.75 241.28,-149.8 251.14,-152.75 260.88,-155.52"/>
<polygon fill="#63b8ff" stroke="#63b8ff" points="151.6,-113.09 141.02,-112.55 148.95,-119.57 151.6,-113.09"/>
</a>
</g>
</g>
<!-- Node2 -->
<g id="Node000002" class="node">
<title>Node2</title>
<g id="a_Node000002"><a xlink:href="d9/d0a/classv8_1_1internal_1_1PlatformEmbeddedFileWriterGeneric.html" target="_top" xlink:title=" ">
<polygon fill="white" stroke="#666666" points="428,-137.5 232,-137.5 232,-104 428,-104 428,-137.5"/>
<text text-anchor="start" x="240" y="-124" font-family="Cascadia Code NF" font-size="10.00">v8::internal::PlatformEmbedded</text>
<text text-anchor="middle" x="330" y="-111.25" font-family="Cascadia Code NF" font-size="10.00">FileWriterGeneric</text>
</a>
</g>
</g>
<!-- Node0&#45;&gt;Node2 -->
<g id="edge4104_Node000000_Node000002" class="edge">
<title>Node0&#45;&gt;Node2</title>
<g id="a_edge4104_Node000000_Node000002"><a xlink:title=" ">
<path fill="none" stroke="#63b8ff" d="M207.58,-107.02C215.65,-107.94 223.77,-108.85 231.77,-109.76"/>
<polygon fill="#63b8ff" stroke="#63b8ff" points="208.04,-103.55 197.71,-105.91 207.25,-110.51 208.04,-103.55"/>
</a>
</g>
</g>
<!-- Node3 -->
<g id="Node000003" class="node">
<title>Node3</title>
<g id="a_Node000003"><a xlink:href="d7/dba/classv8_1_1internal_1_1PlatformEmbeddedFileWriterMac.html" target="_top" xlink:title=" ">
<polygon fill="white" stroke="#666666" points="428,-85.5 232,-85.5 232,-52 428,-52 428,-85.5"/>
<text text-anchor="start" x="240" y="-72" font-family="Cascadia Code NF" font-size="10.00">v8::internal::PlatformEmbedded</text>
<text text-anchor="middle" x="330" y="-59.25" font-family="Cascadia Code NF" font-size="10.00">FileWriterMac</text>
</a>
</g>
</g>
<!-- Node0&#45;&gt;Node3 -->
<g id="edge4105_Node000000_Node000003" class="edge">
<title>Node0&#45;&gt;Node3</title>
<g id="a_edge4105_Node000000_Node000003"><a xlink:title=" ">
<path fill="none" stroke="#63b8ff" d="M207.58,-82.48C215.65,-81.56 223.77,-80.65 231.77,-79.74"/>
<polygon fill="#63b8ff" stroke="#63b8ff" points="207.25,-78.99 197.71,-83.59 208.04,-85.95 207.25,-78.99"/>
</a>
</g>
</g>
<!-- Node4 -->
<g id="Node000004" class="node">
<title>Node4</title>
<g id="a_Node000004"><a xlink:href="d4/d16/classv8_1_1internal_1_1PlatformEmbeddedFileWriterWin.html" target="_top" xlink:title=" ">
<polygon fill="white" stroke="#666666" points="428,-33.5 232,-33.5 232,0 428,0 428,-33.5"/>
<text text-anchor="start" x="240" y="-20" font-family="Cascadia Code NF" font-size="10.00">v8::internal::PlatformEmbedded</text>
<text text-anchor="middle" x="330" y="-7.25" font-family="Cascadia Code NF" font-size="10.00">FileWriterWin</text>
</a>
</g>
</g>
<!-- Node0&#45;&gt;Node4 -->
<g id="edge4106_Node000000_Node000004" class="edge">
<title>Node0&#45;&gt;Node4</title>
<g id="a_edge4106_Node000000_Node000004"><a xlink:title=" ">
<path fill="none" stroke="#63b8ff" d="M150.12,-73.23C174.66,-63.3 204.61,-51.75 232,-42.75 241.28,-39.7 251.14,-36.75 260.88,-33.98"/>
<polygon fill="#63b8ff" stroke="#63b8ff" points="148.95,-69.93 141.02,-76.95 151.6,-76.41 148.95,-69.93"/>
</a>
</g>
</g>
</g>
</svg>
