<?xml version="1.0" encoding="UTF-8" standalone="no"?>
<!DOCTYPE svg PUBLIC "-//W3C//DTD SVG 1.1//EN"
 "http://www.w3.org/Graphics/SVG/1.1/DTD/svg11.dtd">
<!-- Generated by graphviz version 11.0.0 (20240428.1522)
 -->
<!-- Title: Graphical Class Hierarchy Pages: 1 -->
<svg width="394pt" height="80pt"
 viewBox="0.00 0.00 394.00 80.12" xmlns="http://www.w3.org/2000/svg" xmlns:xlink="http://www.w3.org/1999/xlink">
<g id="graph0" class="graph" transform="scale(1 1) rotate(0) translate(4 76.12)">
<title>Graphical Class Hierarchy</title>
<!-- Node0 -->
<g id="Node000000" class="node">
<title>Node0</title>
<g id="a_Node000000"><a xlink:href="d0/db6/classv8_1_1internal_1_1Arguments.html" target="_top" xlink:title=" ">
<polygon fill="white" stroke="#666666" points="154,-55.5 0,-55.5 0,-22 154,-22 154,-55.5"/>
<text text-anchor="start" x="8" y="-42" font-family="Cascadia Code NF" font-size="10.00">v8::internal::Arguments</text>
<text text-anchor="middle" x="77" y="-29.25" font-family="Cascadia Code NF" font-size="10.00">&lt; arguments_type &gt;</text>
</a>
</g>
</g>
<!-- Node1 -->
<g id="Node000001" class="node">
<title>Node1</title>
<g id="a_Node000001"><a xlink:href="d8/ded/classv8_1_1internal_1_1BuiltinArguments.html" target="_top" xlink:title=" ">
<polygon fill="white" stroke="#666666" points="386,-72.12 190,-72.12 190,-51.38 386,-51.38 386,-72.12"/>
<text text-anchor="middle" x="288" y="-58.62" font-family="Cascadia Code NF" font-size="10.00">v8::internal::BuiltinArguments</text>
</a>
</g>
</g>
<!-- Node0&#45;&gt;Node1 -->
<g id="edge2645_Node000000_Node000001" class="edge">
<title>Node0&#45;&gt;Node1</title>
<g id="a_edge2645_Node000000_Node000001"><a xlink:title=" ">
<path fill="none" stroke="#63b8ff" d="M165.57,-48.39C173.59,-49.27 181.74,-50.17 189.84,-51.06"/>
<polygon fill="#63b8ff" stroke="#63b8ff" points="166.17,-44.93 155.85,-47.32 165.4,-51.89 166.17,-44.93"/>
</a>
</g>
</g>
<!-- Node2 -->
<g id="Node000002" class="node">
<title>Node2</title>
<g id="a_Node000002"><a xlink:href="d8/d3a/classv8_1_1internal_1_1RuntimeArgumentsWithoutHandles.html" target="_top" xlink:title=" ">
<polygon fill="white" stroke="#666666" points="386,-33.5 190,-33.5 190,0 386,0 386,-33.5"/>
<text text-anchor="start" x="198" y="-20" font-family="Cascadia Code NF" font-size="10.00">v8::internal::RuntimeArguments</text>
<text text-anchor="middle" x="288" y="-7.25" font-family="Cascadia Code NF" font-size="10.00">WithoutHandles</text>
</a>
</g>
</g>
<!-- Node0&#45;&gt;Node2 -->
<g id="edge2646_Node000000_Node000002" class="edge">
<title>Node0&#45;&gt;Node2</title>
<g id="a_edge2646_Node000000_Node000002"><a xlink:title=" ">
<path fill="none" stroke="#63b8ff" d="M165.57,-29.53C173.59,-28.69 181.74,-27.83 189.84,-26.98"/>
<polygon fill="#63b8ff" stroke="#63b8ff" points="165.42,-26.03 155.85,-30.56 166.16,-32.99 165.42,-26.03"/>
</a>
</g>
</g>
</g>
</svg>
