<?xml version="1.0" encoding="UTF-8" standalone="no"?>
<!DOCTYPE svg PUBLIC "-//W3C//DTD SVG 1.1//EN"
 "http://www.w3.org/Graphics/SVG/1.1/DTD/svg11.dtd">
<!-- Generated by graphviz version 11.0.0 (20240428.1522)
 -->
<!-- Title: v8::internal::swiss_table::GroupSse2Polyfill Pages: 1 -->
<svg width="298pt" height="105pt"
 viewBox="0.00 0.00 298.00 105.00" xmlns="http://www.w3.org/2000/svg" xmlns:xlink="http://www.w3.org/1999/xlink">
<g id="graph0" class="graph" transform="scale(1 1) rotate(0) translate(4 101)">
<title>v8::internal::swiss_table::GroupSse2Polyfill</title>
<!-- Node1 -->
<g id="Node000001" class="node">
<title>Node1</title>
<g id="a_Node000001"><a xlink:title=" ">
<polygon fill="#999999" stroke="none" points="290,-97 130,-97 130,0 290,0 290,-97"/>
<text text-anchor="start" x="135" y="-83.5" font-family="Cascadia Code NF" font-size="10.00">v8::internal::swiss</text>
<text text-anchor="start" x="135" y="-70.75" font-family="Cascadia Code NF" font-size="10.00">_table::GroupSse2Polyfill</text>
<text text-anchor="start" x="207" y="-54.5" font-family="Cascadia Code NF" font-size="10.00"> </text>
<text text-anchor="start" x="141" y="-38.5" font-family="Cascadia Code NF" font-size="10.00">+</text>
<text text-anchor="start" x="158" y="-38.5" font-family="Cascadia Code NF" font-size="10.00">GroupSse2Polyfill()</text>
<text text-anchor="start" x="141" y="-22.5" font-family="Cascadia Code NF" font-size="10.00">+</text>
<text text-anchor="start" x="158" y="-22.5" font-family="Cascadia Code NF" font-size="10.00">Match()</text>
<text text-anchor="start" x="141" y="-6.5" font-family="Cascadia Code NF" font-size="10.00">+</text>
<text text-anchor="start" x="158" y="-6.5" font-family="Cascadia Code NF" font-size="10.00">MatchEmpty()</text>
<polygon fill="#666666" stroke="#666666" points="130,-66 130,-66 290,-66 290,-66 130,-66"/>
<polygon fill="#666666" stroke="#666666" points="130,-50 130,-50 290,-50 290,-50 130,-50"/>
<polygon fill="none" stroke="#666666" points="130,0 130,-97 290,-97 290,0 130,0"/>
</a>
</g>
</g>
<!-- Node2 -->
<g id="Node000002" class="node">
<title>Node2</title>
<g id="a_Node000002"><a xlink:title=" ">
<polygon fill="white" stroke="none" points="46,-74.5 0,-74.5 0,-22.5 46,-22.5 46,-74.5"/>
<text text-anchor="start" x="5" y="-61" font-family="Cascadia Code NF" font-size="10.00">size_t</text>
<text text-anchor="start" x="20" y="-45" font-family="Cascadia Code NF" font-size="10.00"> </text>
<text text-anchor="start" x="20" y="-29" font-family="Cascadia Code NF" font-size="10.00"> </text>
<polygon fill="#bfbfbf" stroke="#bfbfbf" points="0,-56.5 0,-56.5 46,-56.5 46,-56.5 0,-56.5"/>
<polygon fill="#bfbfbf" stroke="#bfbfbf" points="0,-40.5 0,-40.5 46,-40.5 46,-40.5 0,-40.5"/>
<polygon fill="none" stroke="#bfbfbf" points="0,-22.5 0,-74.5 46,-74.5 46,-22.5 0,-22.5"/>
</a>
</g>
</g>
<!-- Node2&#45;&gt;Node1 -->
<g id="edge1_Node000001_Node000002" class="edge">
<title>Node2&#45;&gt;Node1</title>
<g id="a_edge1_Node000001_Node000002"><a xlink:title=" ">
<path fill="none" stroke="#63b8ff" d="M45.95,-48.5C63.88,-48.5 90.52,-48.5 117.09,-48.5"/>
<polygon fill="none" stroke="#63b8ff" points="117.19,-48.5 123.19,-44.5 129.19,-48.5 123.19,-52.5 117.19,-48.5"/>
</a>
</g>
<text text-anchor="middle" x="88" y="-51.75" font-family="Cascadia Code NF" font-size="10.00" fill="grey"> +kWidth</text>
</g>
</g>
</svg>
