<?xml version="1.0" encoding="UTF-8" standalone="no"?>
<!DOCTYPE svg PUBLIC "-//W3C//DTD SVG 1.1//EN"
 "http://www.w3.org/Graphics/SVG/1.1/DTD/svg11.dtd">
<!-- Generated by graphviz version 11.0.0 (20240428.1522)
 -->
<!-- Title: v8::GlobalValueMap&lt; K, V, Traits &gt; Pages: 1 -->
<svg width="330pt" height="377pt"
 viewBox="0.00 0.00 330.00 377.00" xmlns="http://www.w3.org/2000/svg" xmlns:xlink="http://www.w3.org/1999/xlink">
<g id="graph0" class="graph" transform="scale(1 1) rotate(0) translate(4 373)">
<title>v8::GlobalValueMap&lt; K, V, Traits &gt;</title>
<!-- Node1 -->
<g id="Node000001" class="node">
<title>Node1</title>
<g id="a_Node000001"><a xlink:title=" ">
<polygon fill="#999999" stroke="none" points="322,-257 204,-257 204,-112 322,-112 322,-257"/>
<text text-anchor="start" x="209" y="-243.5" font-family="Cascadia Code NF" font-size="10.00">v8::GlobalValueMap</text>
<text text-anchor="start" x="215" y="-230.75" font-family="Cascadia Code NF" font-size="10.00">&lt; K, V, Traits &gt;</text>
<text text-anchor="start" x="260" y="-214.5" font-family="Cascadia Code NF" font-size="10.00"> </text>
<text text-anchor="start" x="209" y="-198.5" font-family="Cascadia Code NF" font-size="10.00">+</text>
<text text-anchor="start" x="220" y="-198.5" font-family="Cascadia Code NF" font-size="10.00">GlobalValueMap()</text>
<text text-anchor="start" x="209" y="-182.5" font-family="Cascadia Code NF" font-size="10.00">+</text>
<text text-anchor="start" x="220" y="-182.5" font-family="Cascadia Code NF" font-size="10.00">GlobalValueMap()</text>
<text text-anchor="start" x="209" y="-166.5" font-family="Cascadia Code NF" font-size="10.00">+</text>
<text text-anchor="start" x="220" y="-166.5" font-family="Cascadia Code NF" font-size="10.00">Set()</text>
<text text-anchor="start" x="209" y="-150.5" font-family="Cascadia Code NF" font-size="10.00">+</text>
<text text-anchor="start" x="220" y="-150.5" font-family="Cascadia Code NF" font-size="10.00">Set()</text>
<text text-anchor="start" x="209" y="-134.5" font-family="Cascadia Code NF" font-size="10.00">+</text>
<text text-anchor="start" x="220" y="-134.5" font-family="Cascadia Code NF" font-size="10.00">SetUnique()</text>
<text text-anchor="start" x="209" y="-118.5" font-family="Cascadia Code NF" font-size="10.00">+</text>
<text text-anchor="start" x="220" y="-118.5" font-family="Cascadia Code NF" font-size="10.00">Set()</text>
<polygon fill="#666666" stroke="#666666" points="204,-226 204,-226 322,-226 322,-226 204,-226"/>
<polygon fill="#666666" stroke="#666666" points="204,-210 204,-210 322,-210 322,-210 204,-210"/>
<polygon fill="none" stroke="#666666" points="204,-112 204,-257 322,-257 322,-112 204,-112"/>
</a>
</g>
</g>
<!-- Node2 -->
<g id="Node000002" class="node">
<title>Node2</title>
<g id="a_Node000002"><a xlink:href="$db/d38/classv8_1_1PersistentValueMapBase.html" xlink:title=" ">
<polygon fill="white" stroke="none" points="168,-369 0,-369 0,0 168,0 168,-369"/>
<text text-anchor="start" x="6" y="-355.5" font-family="Cascadia Code NF" font-size="10.00">v8::PersistentValueMapBase</text>
<text text-anchor="start" x="36" y="-342.75" font-family="Cascadia Code NF" font-size="10.00">&lt; K, V, Traits &gt;</text>
<text text-anchor="start" x="81" y="-326.5" font-family="Cascadia Code NF" font-size="10.00"> </text>
<text text-anchor="start" x="4" y="-310.5" font-family="Cascadia Code NF" font-size="10.00">+</text>
<text text-anchor="start" x="14" y="-310.5" font-family="Cascadia Code NF" font-size="10.00">GetIsolate()</text>
<text text-anchor="start" x="4" y="-294.5" font-family="Cascadia Code NF" font-size="10.00">+</text>
<text text-anchor="start" x="14" y="-294.5" font-family="Cascadia Code NF" font-size="10.00">Size()</text>
<text text-anchor="start" x="4" y="-278.5" font-family="Cascadia Code NF" font-size="10.00">+</text>
<text text-anchor="start" x="14" y="-278.5" font-family="Cascadia Code NF" font-size="10.00">IsWeak()</text>
<text text-anchor="start" x="4" y="-262.5" font-family="Cascadia Code NF" font-size="10.00">+</text>
<text text-anchor="start" x="14" y="-262.5" font-family="Cascadia Code NF" font-size="10.00">Get()</text>
<text text-anchor="start" x="4" y="-246.5" font-family="Cascadia Code NF" font-size="10.00">+</text>
<text text-anchor="start" x="14" y="-246.5" font-family="Cascadia Code NF" font-size="10.00">Contains()</text>
<text text-anchor="start" x="4" y="-230.5" font-family="Cascadia Code NF" font-size="10.00">+</text>
<text text-anchor="start" x="14" y="-230.5" font-family="Cascadia Code NF" font-size="10.00">SetReturnValue()</text>
<text text-anchor="start" x="4" y="-214.5" font-family="Cascadia Code NF" font-size="10.00">+</text>
<text text-anchor="start" x="14" y="-214.5" font-family="Cascadia Code NF" font-size="10.00">Remove()</text>
<text text-anchor="start" x="4" y="-198.5" font-family="Cascadia Code NF" font-size="10.00">+</text>
<text text-anchor="start" x="14" y="-198.5" font-family="Cascadia Code NF" font-size="10.00">Clear()</text>
<text text-anchor="start" x="4" y="-182.5" font-family="Cascadia Code NF" font-size="10.00">+</text>
<text text-anchor="start" x="14" y="-182.5" font-family="Cascadia Code NF" font-size="10.00">GetReference()</text>
<text text-anchor="start" x="4" y="-166.5" font-family="Cascadia Code NF" font-size="10.00">#</text>
<text text-anchor="start" x="14" y="-166.5" font-family="Cascadia Code NF" font-size="10.00">PersistentValueMapBase()</text>
<text text-anchor="start" x="4" y="-150.5" font-family="Cascadia Code NF" font-size="10.00">#</text>
<text text-anchor="start" x="14" y="-150.5" font-family="Cascadia Code NF" font-size="10.00">PersistentValueMapBase()</text>
<text text-anchor="start" x="4" y="-134.5" font-family="Cascadia Code NF" font-size="10.00">#</text>
<text text-anchor="start" x="14" y="-134.5" font-family="Cascadia Code NF" font-size="10.00">~PersistentValueMapBase()</text>
<text text-anchor="start" x="4" y="-118.5" font-family="Cascadia Code NF" font-size="10.00">#</text>
<text text-anchor="start" x="14" y="-118.5" font-family="Cascadia Code NF" font-size="10.00">isolate()</text>
<text text-anchor="start" x="4" y="-102.5" font-family="Cascadia Code NF" font-size="10.00">#</text>
<text text-anchor="start" x="14" y="-102.5" font-family="Cascadia Code NF" font-size="10.00">impl()</text>
<text text-anchor="start" x="4" y="-86.5" font-family="Cascadia Code NF" font-size="10.00">#</text>
<text text-anchor="start" x="14" y="-86.5" font-family="Cascadia Code NF" font-size="10.00">RemoveWeak()</text>
<text text-anchor="start" x="4" y="-70.5" font-family="Cascadia Code NF" font-size="10.00">#</text>
<text text-anchor="start" x="14" y="-70.5" font-family="Cascadia Code NF" font-size="10.00">AnnotateStrongRetainer()</text>
<text text-anchor="start" x="4" y="-54.5" font-family="Cascadia Code NF" font-size="10.00">#</text>
<text text-anchor="start" x="14" y="-54.5" font-family="Cascadia Code NF" font-size="10.00">FromVal()</text>
<text text-anchor="start" x="4" y="-38.5" font-family="Cascadia Code NF" font-size="10.00">#</text>
<text text-anchor="start" x="14" y="-38.5" font-family="Cascadia Code NF" font-size="10.00">ClearAndLeak()</text>
<text text-anchor="start" x="4" y="-22.5" font-family="Cascadia Code NF" font-size="10.00">#</text>
<text text-anchor="start" x="14" y="-22.5" font-family="Cascadia Code NF" font-size="10.00">Leak()</text>
<text text-anchor="start" x="4" y="-6.5" font-family="Cascadia Code NF" font-size="10.00">#</text>
<text text-anchor="start" x="14" y="-6.5" font-family="Cascadia Code NF" font-size="10.00">Release()</text>
<polygon fill="#666666" stroke="#666666" points="0,-338 0,-338 168,-338 168,-338 0,-338"/>
<polygon fill="#666666" stroke="#666666" points="0,-322 0,-322 168,-322 168,-322 0,-322"/>
<polygon fill="none" stroke="#666666" points="0,0 0,-369 168,-369 168,0 0,0"/>
</a>
</g>
</g>
<!-- Node2&#45;&gt;Node1 -->
<g id="edge1_Node000001_Node000002" class="edge">
<title>Node2&#45;&gt;Node1</title>
<g id="a_edge1_Node000001_Node000002"><a xlink:title=" ">
<path fill="none" stroke="#63b8ff" d="M179.29,-184.5C187.7,-184.5 196.04,-184.5 204.01,-184.5"/>
<polygon fill="none" stroke="#63b8ff" points="179.31,-181 169.31,-184.5 179.31,-188 179.31,-181"/>
</a>
</g>
</g>
</g>
</svg>
