<?xml version="1.0" encoding="UTF-8" standalone="no"?>
<!DOCTYPE svg PUBLIC "-//W3C//DTD SVG 1.1//EN"
 "http://www.w3.org/Graphics/SVG/1.1/DTD/svg11.dtd">
<!-- Generated by graphviz version 11.0.0 (20240428.1522)
 -->
<!-- Title: cppgc::internal::ConservativeTracingVisitor Pages: 1 -->
<!--zoomable 279 -->

<svg id="main" version="1.1" xmlns="http://www.w3.org/2000/svg" xmlns:xlink="http://www.w3.org/1999/xlink" xml:space="preserve" onload="init(evt)">
<style type="text/css"><![CDATA[
.node, .edge {opacity: 0.7;}
.node.selected, .edge.selected {opacity: 1;}
.edge:hover path { stroke: red; }
.edge:hover polygon { stroke: red; fill: red; }
svg#main { background-color: #111; }
]]></style>

<defs>
  <circle id="rim" cx="0" cy="0" r="7"/>
  <circle id="rim2" cx="0" cy="0" r="3.5"/>
  <g id="zoomPlus">
    <use xlink:href="#rim" fill="#404040"><set attributeName="fill" to="#808080" begin="zoomplus.mouseover" end="zoomplus.mouseout"/></use>
    <path d="M-4,0h8M0,-4v8" fill="none" stroke="white" stroke-width="1.5" pointer-events="none"/>
  </g>
  <g id="zoomMin">
    <use xlink:href="#rim" fill="#404040"><set attributeName="fill" to="#808080" begin="zoomminus.mouseover" end="zoomminus.mouseout"/></use>
    <path d="M-4,0h8" fill="none" stroke="white" stroke-width="1.5" pointer-events="none"/>
  </g>
  <g id="arrowUp" transform="translate(30 24)">
    <use xlink:href="#rim"/>
    <path pointer-events="none" fill="none" stroke="white" stroke-width="1.5" d="M0,-3.0v7 M-2.5,-0.5L0,-3.0L2.5,-0.5"/>
  </g>
  <g id="arrowRight" transform="rotate(90) translate(36 -43)">
    <use xlink:href="#rim"/>
    <path pointer-events="none" fill="none" stroke="white" stroke-width="1.5" d="M0,-3.0v7 M-2.5,-0.5L0,-3.0L2.5,-0.5"/>
  </g>
  <g id="arrowDown" transform="rotate(180) translate(-30 -48)">
    <use xlink:href="#rim"/>
    <path pointer-events="none" fill="none" stroke="white" stroke-width="1.5" d="M0,-3.0v7 M-2.5,-0.5L0,-3.0L2.5,-0.5"/>
  </g>
  <g id="arrowLeft" transform="rotate(270) translate(-36 17)">
    <use xlink:href="#rim"/>
    <path pointer-events="none" fill="none" stroke="white" stroke-width="1.5" d="M0,-3.0v7 M-2.5,-0.5L0,-3.0L2.5,-0.5"/>
  </g>
  <g id="resetDef">
    <use xlink:href="#rim2" fill="#404040"><set attributeName="fill" to="#808080" begin="reset.mouseover" end="reset.mouseout"/></use>
  </g>
</defs>
<script type="application/ecmascript">
var viewWidth = 704;
var viewHeight = 279;
var sectionId = 'dynsection-0';
</script>
<script type="application/ecmascript" xlink:href="../../svg.min.js"/>
<svg id="graph" class="graph">
<g id="viewport">
<title>cppgc::internal::ConservativeTracingVisitor</title>
<!-- Node1 -->
<g id="Node000001" class="node">
<title>Node1</title>
<g id="a_Node000001"><a xlink:title=" ">
<polygon fill="#999999" stroke="none" points="240,-271 0,-271 0,-30 240,-30 240,-271"/>
<text text-anchor="start" x="33" y="-257.5" font-family="Cascadia Code NF" font-size="10.00">cppgc::internal::Conservative</text>
<text text-anchor="start" x="78" y="-244.75" font-family="Cascadia Code NF" font-size="10.00">TracingVisitor</text>
<text text-anchor="start" x="4" y="-228.5" font-family="Cascadia Code NF" font-size="10.00">#</text>
<text text-anchor="start" x="14" y="-228.5" font-family="Cascadia Code NF" font-size="10.00">heap_</text>
<text text-anchor="start" x="4" y="-212.5" font-family="Cascadia Code NF" font-size="10.00">#</text>
<text text-anchor="start" x="14" y="-212.5" font-family="Cascadia Code NF" font-size="10.00">page_backend_</text>
<text text-anchor="start" x="4" y="-196.5" font-family="Cascadia Code NF" font-size="10.00">#</text>
<text text-anchor="start" x="14" y="-196.5" font-family="Cascadia Code NF" font-size="10.00">visitor_</text>
<text text-anchor="start" x="4" y="-180.5" font-family="Cascadia Code NF" font-size="10.00">+</text>
<text text-anchor="start" x="14" y="-180.5" font-family="Cascadia Code NF" font-size="10.00">ConservativeTracingVisitor()</text>
<text text-anchor="start" x="4" y="-164.5" font-family="Cascadia Code NF" font-size="10.00">+</text>
<text text-anchor="start" x="14" y="-164.5" font-family="Cascadia Code NF" font-size="10.00">~ConservativeTracingVisitor()</text>
<text text-anchor="start" x="4" y="-148.5" font-family="Cascadia Code NF" font-size="10.00">+</text>
<text text-anchor="start" x="14" y="-148.5" font-family="Cascadia Code NF" font-size="10.00">ConservativeTracingVisitor()</text>
<text text-anchor="start" x="4" y="-132.5" font-family="Cascadia Code NF" font-size="10.00">+</text>
<text text-anchor="start" x="14" y="-132.5" font-family="Cascadia Code NF" font-size="10.00">operator=()</text>
<text text-anchor="start" x="4" y="-116.5" font-family="Cascadia Code NF" font-size="10.00">+</text>
<text text-anchor="start" x="14" y="-116.5" font-family="Cascadia Code NF" font-size="10.00">TraceConservativelyIfNeeded()</text>
<text text-anchor="start" x="4" y="-100.5" font-family="Cascadia Code NF" font-size="10.00">+</text>
<text text-anchor="start" x="14" y="-100.5" font-family="Cascadia Code NF" font-size="10.00">TraceConservativelyIfNeeded()</text>
<text text-anchor="start" x="4" y="-84.5" font-family="Cascadia Code NF" font-size="10.00">+</text>
<text text-anchor="start" x="14" y="-84.5" font-family="Cascadia Code NF" font-size="10.00">TraceConservatively()</text>
<text text-anchor="start" x="4" y="-68.5" font-family="Cascadia Code NF" font-size="10.00">#</text>
<text text-anchor="start" x="14" y="-68.5" font-family="Cascadia Code NF" font-size="10.00">VisitFullyConstructedConservatively()</text>
<text text-anchor="start" x="4" y="-52.5" font-family="Cascadia Code NF" font-size="10.00">#</text>
<text text-anchor="start" x="14" y="-52.5" font-family="Cascadia Code NF" font-size="10.00">VisitInConstructionConservatively()</text>
<text text-anchor="start" x="4" y="-36.5" font-family="Cascadia Code NF" font-size="10.00">#</text>
<text text-anchor="start" x="14" y="-36.5" font-family="Cascadia Code NF" font-size="10.00">TryTracePointerConservatively()</text>
<polygon fill="#666666" stroke="#666666" points="0,-240 0,-240 240,-240 240,-240 0,-240"/>
<polygon fill="#666666" stroke="#666666" points="0,-192 0,-192 12,-192 12,-192 0,-192"/>
<polygon fill="#666666" stroke="#666666" points="12,-192 12,-192 240,-192 240,-192 12,-192"/>
<polygon fill="none" stroke="#666666" points="0,-30 0,-271 240,-271 240,-30 0,-30"/>
</a>
</g>
</g>
<!-- Node2 -->
<g id="Node000002" class="node">
<title>Node2</title>
<g id="a_Node000002"><a xlink:href="../../d7/d7f/classcppgc_1_1internal_1_1ConservativeMarkingVisitor.html" target="_top" xlink:title=" ">
<polygon fill="white" stroke="none" points="468,-253 276,-253 276,-172 468,-172 468,-253"/>
<text text-anchor="start" x="285" y="-239.5" font-family="Cascadia Code NF" font-size="10.00">cppgc::internal::Conservative</text>
<text text-anchor="start" x="330" y="-226.75" font-family="Cascadia Code NF" font-size="10.00">MarkingVisitor</text>
<text text-anchor="start" x="369" y="-210.5" font-family="Cascadia Code NF" font-size="10.00"> </text>
<text text-anchor="start" x="280" y="-194.5" font-family="Cascadia Code NF" font-size="10.00">+</text>
<text text-anchor="start" x="290" y="-194.5" font-family="Cascadia Code NF" font-size="10.00">ConservativeMarkingVisitor()</text>
<text text-anchor="start" x="280" y="-178.5" font-family="Cascadia Code NF" font-size="10.00">+</text>
<text text-anchor="start" x="290" y="-178.5" font-family="Cascadia Code NF" font-size="10.00">~ConservativeMarkingVisitor()</text>
<polygon fill="#bfbfbf" stroke="#bfbfbf" points="276,-222 276,-222 468,-222 468,-222 276,-222"/>
<polygon fill="#bfbfbf" stroke="#bfbfbf" points="276,-206 276,-206 468,-206 468,-206 276,-206"/>
<polygon fill="none" stroke="#bfbfbf" points="276,-172 276,-253 468,-253 468,-172 276,-172"/>
</a>
</g>
</g>
<!-- Node1&#45;&gt;Node2 -->
<g id="edge1_Node000001_Node000002" class="edge">
<title>Node1&#45;&gt;Node2</title>
<g id="a_edge1_Node000001_Node000002"><a xlink:title=" ">
<path fill="none" stroke="#63b8ff" d="M250.67,-182.66C259.27,-184.79 267.83,-186.91 276.21,-188.99"/>
<polygon fill="none" stroke="#63b8ff" points="251.79,-179.33 241.25,-180.32 250.11,-186.13 251.79,-179.33"/>
</a>
</g>
</g>
<!-- Node3 -->
<g id="Node000003" class="node">
<title>Node3</title>
<g id="a_Node000003"><a xlink:href="../../d4/dcb/classcppgc_1_1internal_1_1MarkingVerifierBase.html" target="_top" xlink:title=" ">
<polygon fill="white" stroke="none" points="449,-154 295,-154 295,-25 449,-25 449,-154"/>
<text text-anchor="start" x="300" y="-140.5" font-family="Cascadia Code NF" font-size="10.00">cppgc::internal::Marking</text>
<text text-anchor="start" x="336" y="-127.75" font-family="Cascadia Code NF" font-size="10.00">VerifierBase</text>
<text text-anchor="start" x="369" y="-111.5" font-family="Cascadia Code NF" font-size="10.00"> </text>
<text text-anchor="start" x="300" y="-95.5" font-family="Cascadia Code NF" font-size="10.00">+</text>
<text text-anchor="start" x="311" y="-95.5" font-family="Cascadia Code NF" font-size="10.00">~MarkingVerifierBase()</text>
<text text-anchor="start" x="300" y="-79.5" font-family="Cascadia Code NF" font-size="10.00">+</text>
<text text-anchor="start" x="311" y="-79.5" font-family="Cascadia Code NF" font-size="10.00">MarkingVerifierBase()</text>
<text text-anchor="start" x="300" y="-63.5" font-family="Cascadia Code NF" font-size="10.00">+</text>
<text text-anchor="start" x="311" y="-63.5" font-family="Cascadia Code NF" font-size="10.00">operator=()</text>
<text text-anchor="start" x="300" y="-47.5" font-family="Cascadia Code NF" font-size="10.00">+</text>
<text text-anchor="start" x="311" y="-47.5" font-family="Cascadia Code NF" font-size="10.00">Run()</text>
<text text-anchor="start" x="300" y="-31.5" font-family="Cascadia Code NF" font-size="10.00">#</text>
<text text-anchor="start" x="311" y="-31.5" font-family="Cascadia Code NF" font-size="10.00">MarkingVerifierBase()</text>
<polygon fill="#bfbfbf" stroke="#bfbfbf" points="295,-123 295,-123 449,-123 449,-123 295,-123"/>
<polygon fill="#bfbfbf" stroke="#bfbfbf" points="295,-107 295,-107 449,-107 449,-107 295,-107"/>
<polygon fill="none" stroke="#bfbfbf" points="295,-25 295,-154 449,-154 449,-25 295,-25"/>
</a>
</g>
</g>
<!-- Node1&#45;&gt;Node3 -->
<g id="edge2_Node000001_Node000003" class="edge">
<title>Node1&#45;&gt;Node3</title>
<g id="a_edge2_Node000001_Node000003"><a xlink:title=" ">
<path fill="none" stroke="#63b8ff" d="M250.86,-118.81C266.07,-115.1 281.19,-111.41 295.31,-107.97"/>
<polygon fill="none" stroke="#63b8ff" points="250.13,-115.39 241.25,-121.16 251.79,-122.19 250.13,-115.39"/>
</a>
</g>
</g>
<!-- Node4 -->
<g id="Node000004" class="node">
<title>Node4</title>
<g id="a_Node000004"><a xlink:href="../../d3/de0/classcppgc_1_1internal_1_1MarkingVerifier.html" target="_top" xlink:title=" ">
<polygon fill="white" stroke="none" points="677,-180 523,-180 523,-99 677,-99 677,-180"/>
<text text-anchor="start" x="528" y="-166.5" font-family="Cascadia Code NF" font-size="10.00">cppgc::internal::Marking</text>
<text text-anchor="start" x="576" y="-153.75" font-family="Cascadia Code NF" font-size="10.00">Verifier</text>
<text text-anchor="start" x="597" y="-137.5" font-family="Cascadia Code NF" font-size="10.00"> </text>
<text text-anchor="start" x="534" y="-121.5" font-family="Cascadia Code NF" font-size="10.00">+</text>
<text text-anchor="start" x="551" y="-121.5" font-family="Cascadia Code NF" font-size="10.00">MarkingVerifier()</text>
<text text-anchor="start" x="534" y="-105.5" font-family="Cascadia Code NF" font-size="10.00">+</text>
<text text-anchor="start" x="551" y="-105.5" font-family="Cascadia Code NF" font-size="10.00">~MarkingVerifier()</text>
<polygon fill="#bfbfbf" stroke="#bfbfbf" points="523,-149 523,-149 677,-149 677,-149 523,-149"/>
<polygon fill="#bfbfbf" stroke="#bfbfbf" points="523,-133 523,-133 677,-133 677,-133 523,-133"/>
<polygon fill="none" stroke="#bfbfbf" points="523,-99 523,-180 677,-180 677,-99 523,-99"/>
</a>
</g>
</g>
<!-- Node3&#45;&gt;Node4 -->
<g id="edge3_Node000003_Node000004" class="edge">
<title>Node3&#45;&gt;Node4</title>
<g id="a_edge3_Node000003_Node000004"><a xlink:title=" ">
<path fill="none" stroke="#63b8ff" d="M460,-108.75C480.88,-113.37 503,-118.26 523.32,-122.76"/>
<polygon fill="none" stroke="#63b8ff" points="460.88,-105.36 450.36,-106.62 459.37,-112.19 460.88,-105.36"/>
</a>
</g>
</g>
<!-- Node5 -->
<g id="Node000005" class="node">
<title>Node5</title>
<g id="a_Node000005"><a xlink:href="../../dd/d0d/classv8_1_1internal_1_1UnifiedHeapMarkingVerifier.html" target="_top" xlink:title=" ">
<polygon fill="white" stroke="none" points="696,-81 504,-81 504,0 696,0 696,-81"/>
<text text-anchor="start" x="525" y="-67.5" font-family="Cascadia Code NF" font-size="10.00">v8::internal::UnifiedHeap</text>
<text text-anchor="start" x="555" y="-54.75" font-family="Cascadia Code NF" font-size="10.00">MarkingVerifier</text>
<text text-anchor="start" x="597" y="-38.5" font-family="Cascadia Code NF" font-size="10.00"> </text>
<text text-anchor="start" x="508" y="-22.5" font-family="Cascadia Code NF" font-size="10.00">+</text>
<text text-anchor="start" x="518" y="-22.5" font-family="Cascadia Code NF" font-size="10.00">UnifiedHeapMarkingVerifier()</text>
<text text-anchor="start" x="508" y="-6.5" font-family="Cascadia Code NF" font-size="10.00">+</text>
<text text-anchor="start" x="518" y="-6.5" font-family="Cascadia Code NF" font-size="10.00">~UnifiedHeapMarkingVerifier()</text>
<polygon fill="#bfbfbf" stroke="#bfbfbf" points="504,-50 504,-50 696,-50 696,-50 504,-50"/>
<polygon fill="#bfbfbf" stroke="#bfbfbf" points="504,-34 504,-34 696,-34 696,-34 504,-34"/>
<polygon fill="none" stroke="#bfbfbf" points="504,0 504,-81 696,-81 696,0 504,0"/>
</a>
</g>
</g>
<!-- Node3&#45;&gt;Node5 -->
<g id="edge4_Node000003_Node000005" class="edge">
<title>Node3&#45;&gt;Node5</title>
<g id="a_edge4_Node000003_Node000005"><a xlink:title=" ">
<path fill="none" stroke="#63b8ff" d="M459.82,-70.68C474.3,-67.54 489.38,-64.27 504.05,-61.09"/>
<polygon fill="none" stroke="#63b8ff" points="459.39,-67.19 450.36,-72.73 460.88,-74.03 459.39,-67.19"/>
</a>
</g>
</g>
</g>
</svg>

<g id="navigator" transform="translate(0 0)" fill="#404254">
  <rect fill="#f2f5e9" fill-opacity="0.5" stroke="#606060" stroke-width=".5" x="0" y="0" width="60" height="60"/>
  <use id="zoomplus" xlink:href="#zoomPlus" x="17" y="9" onmousedown="handleZoom(evt,'in')"/>
  <use id="zoomminus" xlink:href="#zoomMin" x="42" y="9" onmousedown="handleZoom(evt,'out')"/>
  <use id="reset" xlink:href="#resetDef" x="30" y="36" onmousedown="handleReset()"/>
   <use id="arrowup" xlink:href="#arrowUp" x="0" y="0" onmousedown="handlePan(0,-1)"/>
  <use id="arrowright" xlink:href="#arrowRight" x="0" y="0" onmousedown="handlePan(1,0)"/>
  <use id="arrowdown" xlink:href="#arrowDown" x="0" y="0" onmousedown="handlePan(0,1)"/>
  <use id="arrowleft" xlink:href="#arrowLeft" x="0" y="0" onmousedown="handlePan(-1,0)"/>
</g>
<svg viewBox="0 0 15 15" width="100%" height="30px" preserveAspectRatio="xMaxYMin meet">
 <g id="arrow_out" transform="scale(0.3 0.3)">
  <a xlink:href="classcppgc_1_1internal_1_1ConservativeTracingVisitor__inherit__graph_org.svg" target="_base">
   <rect id="button" ry="5" rx="5" y="6" x="6" height="38" width="38"
        fill="#f2f5e9" fill-opacity="0.5" stroke="#606060" stroke-width="1.0"/>
   <path id="arrow"
     d="M 11.500037,31.436501 C 11.940474,20.09759 22.043105,11.32322 32.158766,21.979434 L 37.068811,17.246167 C 37.068811,17.246167 37.088388,32 37.088388,32 L 22.160133,31.978069 C 22.160133,31.978069 26.997745,27.140456 26.997745,27.140456 C 18.528582,18.264221 13.291696,25.230495 11.500037,31.436501 z"
     style="fill:#404040;"/>
  </a>
 </g>
</svg>

<style type='text/css'>
<![CDATA[
[data-mouse-over-selected='false'] { opacity: 0.7; }
[data-mouse-over-selected='true']  { opacity: 1.0; }
]]>
</style>
<script type="application/ecmascript"><![CDATA[
document.addEventListener('DOMContentLoaded', (event) => {
  highlightEdges();
  highlightAdjacentNodes();
});
]]></script>
</svg>
