<?xml version="1.0" encoding="UTF-8" standalone="no"?>
<!DOCTYPE svg PUBLIC "-//W3C//DTD SVG 1.1//EN"
 "http://www.w3.org/Graphics/SVG/1.1/DTD/svg11.dtd">
<!-- Generated by graphviz version 11.0.0 (20240428.1522)
 -->
<!-- Title: v8::base::AIXTimezoneCache Pages: 1 -->
<svg width="658pt" height="194pt"
 viewBox="0.00 0.00 658.00 194.00" xmlns="http://www.w3.org/2000/svg" xmlns:xlink="http://www.w3.org/1999/xlink">
<g id="graph0" class="graph" transform="scale(1 1) rotate(0) translate(4 190)">
<title>v8::base::AIXTimezoneCache</title>
<!-- Node1 -->
<g id="Node000001" class="node">
<title>Node1</title>
<g id="a_Node000001"><a xlink:title=" ">
<polygon fill="#999999" stroke="none" points="650,-103 484,-103 484,-51 650,-51 650,-103"/>
<text text-anchor="start" x="489" y="-89.5" font-family="Cascadia Code NF" font-size="10.00">v8::base::AIXTimezoneCache</text>
<text text-anchor="start" x="564" y="-73.5" font-family="Cascadia Code NF" font-size="10.00"> </text>
<text text-anchor="start" x="564" y="-57.5" font-family="Cascadia Code NF" font-size="10.00"> </text>
<polygon fill="#666666" stroke="#666666" points="484,-85 484,-85 650,-85 650,-85 484,-85"/>
<polygon fill="#666666" stroke="#666666" points="484,-69 484,-69 650,-69 650,-69 484,-69"/>
<polygon fill="none" stroke="#666666" points="484,-51 484,-103 650,-103 650,-51 484,-51"/>
</a>
</g>
</g>
<!-- Node2 -->
<g id="Node000002" class="node">
<title>Node2</title>
<g id="a_Node000002"><a xlink:href="../../d6/d7e/classv8_1_1base_1_1PosixTimezoneCache.html" target="_top" xlink:title=" ">
<polygon fill="white" stroke="none" points="448,-119 270,-119 270,-35 448,-35 448,-119"/>
<text text-anchor="start" x="275" y="-105.5" font-family="Cascadia Code NF" font-size="10.00">v8::base::PosixTimezoneCache</text>
<text text-anchor="start" x="356" y="-89.5" font-family="Cascadia Code NF" font-size="10.00"> </text>
<text text-anchor="start" x="279.5" y="-73.5" font-family="Cascadia Code NF" font-size="10.00">+</text>
<text text-anchor="start" x="295" y="-73.5" font-family="Cascadia Code NF" font-size="10.00">DaylightSavingsOffset()</text>
<text text-anchor="start" x="279.5" y="-57.5" font-family="Cascadia Code NF" font-size="10.00">+</text>
<text text-anchor="start" x="295" y="-57.5" font-family="Cascadia Code NF" font-size="10.00">Clear()</text>
<text text-anchor="start" x="279.5" y="-41.5" font-family="Cascadia Code NF" font-size="10.00">+</text>
<text text-anchor="start" x="295" y="-41.5" font-family="Cascadia Code NF" font-size="10.00">~PosixTimezoneCache()</text>
<polygon fill="#bfbfbf" stroke="#bfbfbf" points="270,-101 270,-101 448,-101 448,-101 270,-101"/>
<polygon fill="#bfbfbf" stroke="#bfbfbf" points="270,-85 270,-85 448,-85 448,-85 270,-85"/>
<polygon fill="none" stroke="#bfbfbf" points="270,-35 270,-119 448,-119 448,-35 270,-35"/>
</a>
</g>
</g>
<!-- Node2&#45;&gt;Node1 -->
<g id="edge1_Node000001_Node000002" class="edge">
<title>Node2&#45;&gt;Node1</title>
<g id="a_edge1_Node000001_Node000002"><a xlink:title=" ">
<path fill="none" stroke="#63b8ff" d="M459.3,-77C467.64,-77 476.02,-77 484.21,-77"/>
<polygon fill="none" stroke="#63b8ff" points="459.47,-73.5 449.47,-77 459.47,-80.5 459.47,-73.5"/>
</a>
</g>
</g>
<!-- Node3 -->
<g id="Node000003" class="node">
<title>Node3</title>
<g id="a_Node000003"><a xlink:href="../../dd/d87/classv8_1_1base_1_1TimezoneCache.html" target="_top" xlink:title=" ">
<polygon fill="white" stroke="none" points="156,-186 0,-186 0,-70 156,-70 156,-186"/>
<text text-anchor="start" x="9" y="-172.5" font-family="Cascadia Code NF" font-size="10.00">v8::base::TimezoneCache</text>
<text text-anchor="start" x="75" y="-156.5" font-family="Cascadia Code NF" font-size="10.00"> </text>
<text text-anchor="start" x="4" y="-140.5" font-family="Cascadia Code NF" font-size="10.00">+</text>
<text text-anchor="start" x="14" y="-140.5" font-family="Cascadia Code NF" font-size="10.00">LocalTimezone()</text>
<text text-anchor="start" x="4" y="-124.5" font-family="Cascadia Code NF" font-size="10.00">+</text>
<text text-anchor="start" x="14" y="-124.5" font-family="Cascadia Code NF" font-size="10.00">DaylightSavingsOffset()</text>
<text text-anchor="start" x="4" y="-108.5" font-family="Cascadia Code NF" font-size="10.00">+</text>
<text text-anchor="start" x="14" y="-108.5" font-family="Cascadia Code NF" font-size="10.00">LocalTimeOffset()</text>
<text text-anchor="start" x="4" y="-92.5" font-family="Cascadia Code NF" font-size="10.00">+</text>
<text text-anchor="start" x="14" y="-92.5" font-family="Cascadia Code NF" font-size="10.00">Clear()</text>
<text text-anchor="start" x="4" y="-76.5" font-family="Cascadia Code NF" font-size="10.00">+</text>
<text text-anchor="start" x="14" y="-76.5" font-family="Cascadia Code NF" font-size="10.00">~TimezoneCache()</text>
<polygon fill="#bfbfbf" stroke="#bfbfbf" points="0,-168 0,-168 156,-168 156,-168 0,-168"/>
<polygon fill="#bfbfbf" stroke="#bfbfbf" points="0,-152 0,-152 156,-152 156,-152 0,-152"/>
<polygon fill="none" stroke="#bfbfbf" points="0,-70 0,-186 156,-186 156,-70 0,-70"/>
</a>
</g>
</g>
<!-- Node3&#45;&gt;Node2 -->
<g id="edge2_Node000002_Node000003" class="edge">
<title>Node3&#45;&gt;Node2</title>
<g id="a_edge2_Node000002_Node000003"><a xlink:title=" ">
<path fill="none" stroke="#63b8ff" d="M166.96,-111.92C199.89,-105.9 237.28,-99.07 270.2,-93.05"/>
<polygon fill="none" stroke="#63b8ff" points="166.67,-108.42 157.47,-113.66 167.93,-115.3 166.67,-108.42"/>
</a>
</g>
</g>
<!-- Node4 -->
<g id="Node000004" class="node">
<title>Node4</title>
<g id="a_Node000004"><a xlink:title=" ">
<polygon fill="white" stroke="none" points="98,-52 58,-52 58,0 98,0 98,-52"/>
<text text-anchor="start" x="63" y="-38.5" font-family="Cascadia Code NF" font-size="10.00">const</text>
<text text-anchor="start" x="75" y="-22.5" font-family="Cascadia Code NF" font-size="10.00"> </text>
<text text-anchor="start" x="75" y="-6.5" font-family="Cascadia Code NF" font-size="10.00"> </text>
<polygon fill="#bfbfbf" stroke="#bfbfbf" points="58,-34 58,-34 98,-34 98,-34 58,-34"/>
<polygon fill="#bfbfbf" stroke="#bfbfbf" points="58,-18 58,-18 98,-18 98,-18 58,-18"/>
<polygon fill="none" stroke="#bfbfbf" points="58,0 58,-52 98,-52 98,0 58,0"/>
</a>
</g>
</g>
<!-- Node4&#45;&gt;Node2 -->
<g id="edge3_Node000002_Node000004" class="edge">
<title>Node4&#45;&gt;Node2</title>
<g id="a_edge3_Node000002_Node000004"><a xlink:title=" ">
<path fill="none" stroke="#63b8ff" d="M97.74,-29.43C130.12,-35.35 198.73,-47.89 257.37,-58.61"/>
<polygon fill="none" stroke="#63b8ff" points="257.41,-58.61 264.03,-55.76 269.21,-60.77 262.59,-63.63 257.41,-58.61"/>
</a>
</g>
<text text-anchor="middle" x="213" y="-60.25" font-family="Cascadia Code NF" font-size="10.00" fill="grey"> #msPerSecond</text>
</g>
</g>
</svg>
