<?xml version="1.0" encoding="UTF-8" standalone="no"?>
<!DOCTYPE svg PUBLIC "-//W3C//DTD SVG 1.1//EN"
 "http://www.w3.org/Graphics/SVG/1.1/DTD/svg11.dtd">
<!-- Generated by graphviz version 11.0.0 (20240428.1522)
 -->
<!-- Title: v8::internal::debug_helper_internal::TqExposedTrustedObject Pages: 1 -->
<svg width="1276pt" height="1304pt"
 viewBox="0.00 0.00 1276.00 1304.00" xmlns="http://www.w3.org/2000/svg" xmlns:xlink="http://www.w3.org/1999/xlink">
<g id="graph0" class="graph" transform="scale(1 1) rotate(0) translate(4 1300)">
<title>v8::internal::debug_helper_internal::TqExposedTrustedObject</title>
<!-- Node1 -->
<g id="Node000001" class="node">
<title>Node1</title>
<g id="a_Node000001"><a xlink:title=" ">
<polygon fill="#999999" stroke="none" points="732,-770 528,-770 528,-596 732,-596 732,-770"/>
<text text-anchor="start" x="549" y="-756.5" font-family="Cascadia Code NF" font-size="10.00">v8::internal::debug</text>
<text text-anchor="start" x="549" y="-743.75" font-family="Cascadia Code NF" font-size="10.00">_helper_internal::TqExposed</text>
<text text-anchor="start" x="591" y="-731" font-family="Cascadia Code NF" font-size="10.00">TrustedObject</text>
<text text-anchor="start" x="627" y="-714.5" font-family="Cascadia Code NF" font-size="10.00"> </text>
<text text-anchor="start" x="532" y="-698.5" font-family="Cascadia Code NF" font-size="10.00">+</text>
<text text-anchor="start" x="542" y="-698.5" font-family="Cascadia Code NF" font-size="10.00">TqExposedTrustedObject()</text>
<text text-anchor="start" x="532" y="-682.5" font-family="Cascadia Code NF" font-size="10.00">+</text>
<text text-anchor="start" x="542" y="-682.5" font-family="Cascadia Code NF" font-size="10.00">GetProperties()</text>
<text text-anchor="start" x="532" y="-666.5" font-family="Cascadia Code NF" font-size="10.00">+</text>
<text text-anchor="start" x="542" y="-666.5" font-family="Cascadia Code NF" font-size="10.00">GetName()</text>
<text text-anchor="start" x="532" y="-650.5" font-family="Cascadia Code NF" font-size="10.00">+</text>
<text text-anchor="start" x="542" y="-650.5" font-family="Cascadia Code NF" font-size="10.00">Visit()</text>
<text text-anchor="start" x="532" y="-634.5" font-family="Cascadia Code NF" font-size="10.00">+</text>
<text text-anchor="start" x="542" y="-634.5" font-family="Cascadia Code NF" font-size="10.00">IsSuperclassOf()</text>
<text text-anchor="start" x="532" y="-618.5" font-family="Cascadia Code NF" font-size="10.00">+</text>
<text text-anchor="start" x="542" y="-618.5" font-family="Cascadia Code NF" font-size="10.00">GetSelfIndirectPointerAddress()</text>
<text text-anchor="start" x="532" y="-602.5" font-family="Cascadia Code NF" font-size="10.00">+</text>
<text text-anchor="start" x="542" y="-602.5" font-family="Cascadia Code NF" font-size="10.00">GetSelfIndirectPointerValue()</text>
<polygon fill="#666666" stroke="#666666" points="528,-726 528,-726 732,-726 732,-726 528,-726"/>
<polygon fill="#666666" stroke="#666666" points="528,-710 528,-710 732,-710 732,-710 528,-710"/>
<polygon fill="none" stroke="#666666" points="528,-596 528,-770 732,-770 732,-596 528,-596"/>
</a>
</g>
</g>
<!-- Node5 -->
<g id="Node000005" class="node">
<title>Node5</title>
<g id="a_Node000005"><a xlink:href="$d2/d84/classv8_1_1internal_1_1debug__helper__internal_1_1TqBytecodeArray.html" xlink:title=" ">
<polygon fill="white" stroke="none" points="983,-1296 779,-1296 779,-1058 983,-1058 983,-1296"/>
<text text-anchor="start" x="797" y="-1282.5" font-family="Cascadia Code NF" font-size="10.00">v8::internal::debug</text>
<text text-anchor="start" x="797" y="-1269.75" font-family="Cascadia Code NF" font-size="10.00">_helper_internal::TqBytecode</text>
<text text-anchor="start" x="866" y="-1257" font-family="Cascadia Code NF" font-size="10.00">Array</text>
<text text-anchor="start" x="878" y="-1240.5" font-family="Cascadia Code NF" font-size="10.00"> </text>
<text text-anchor="start" x="783" y="-1224.5" font-family="Cascadia Code NF" font-size="10.00">+</text>
<text text-anchor="start" x="793" y="-1224.5" font-family="Cascadia Code NF" font-size="10.00">TqBytecodeArray()</text>
<text text-anchor="start" x="783" y="-1208.5" font-family="Cascadia Code NF" font-size="10.00">+</text>
<text text-anchor="start" x="793" y="-1208.5" font-family="Cascadia Code NF" font-size="10.00">GetProperties()</text>
<text text-anchor="start" x="783" y="-1192.5" font-family="Cascadia Code NF" font-size="10.00">+</text>
<text text-anchor="start" x="793" y="-1192.5" font-family="Cascadia Code NF" font-size="10.00">GetName()</text>
<text text-anchor="start" x="783" y="-1176.5" font-family="Cascadia Code NF" font-size="10.00">+</text>
<text text-anchor="start" x="793" y="-1176.5" font-family="Cascadia Code NF" font-size="10.00">Visit()</text>
<text text-anchor="start" x="783" y="-1160.5" font-family="Cascadia Code NF" font-size="10.00">+</text>
<text text-anchor="start" x="793" y="-1160.5" font-family="Cascadia Code NF" font-size="10.00">IsSuperclassOf()</text>
<text text-anchor="start" x="783" y="-1144.5" font-family="Cascadia Code NF" font-size="10.00">+</text>
<text text-anchor="start" x="793" y="-1144.5" font-family="Cascadia Code NF" font-size="10.00">GetLengthAddress()</text>
<text text-anchor="start" x="783" y="-1128.5" font-family="Cascadia Code NF" font-size="10.00">+</text>
<text text-anchor="start" x="793" y="-1128.5" font-family="Cascadia Code NF" font-size="10.00">GetLengthValue()</text>
<text text-anchor="start" x="783" y="-1112.5" font-family="Cascadia Code NF" font-size="10.00">+</text>
<text text-anchor="start" x="793" y="-1112.5" font-family="Cascadia Code NF" font-size="10.00">GetWrapperAddress()</text>
<text text-anchor="start" x="783" y="-1096.5" font-family="Cascadia Code NF" font-size="10.00">+</text>
<text text-anchor="start" x="793" y="-1096.5" font-family="Cascadia Code NF" font-size="10.00">GetWrapperValue()</text>
<text text-anchor="start" x="783" y="-1080.5" font-family="Cascadia Code NF" font-size="10.00">+</text>
<text text-anchor="start" x="793" y="-1080.5" font-family="Cascadia Code NF" font-size="10.00">GetSourcePositionTableAddress()</text>
<text text-anchor="start" x="793" y="-1064.5" font-family="Cascadia Code NF" font-size="10.00">and 13 more...</text>
<polygon fill="#bfbfbf" stroke="#bfbfbf" points="779,-1252 779,-1252 983,-1252 983,-1252 779,-1252"/>
<polygon fill="#bfbfbf" stroke="#bfbfbf" points="779,-1236 779,-1236 983,-1236 983,-1236 779,-1236"/>
<polygon fill="none" stroke="#bfbfbf" points="779,-1058 779,-1296 983,-1296 983,-1058 779,-1058"/>
</a>
</g>
</g>
<!-- Node1&#45;&gt;Node5 -->
<g id="edge4_Node000001_Node000005" class="edge">
<title>Node1&#45;&gt;Node5</title>
<g id="a_edge4_Node000001_Node000005"><a xlink:title=" ">
<path fill="none" stroke="#63b8ff" d="M657.09,-780.82C679.87,-857.13 717.26,-964.06 768,-1049 771.48,-1054.83 775.24,-1060.65 779.21,-1066.4"/>
<polygon fill="none" stroke="#63b8ff" points="660.45,-779.84 654.26,-771.24 653.73,-781.82 660.45,-779.84"/>
</a>
</g>
</g>
<!-- Node6 -->
<g id="Node000006" class="node">
<title>Node6</title>
<g id="a_Node000006"><a xlink:href="$d2/dc7/classv8_1_1internal_1_1debug__helper__internal_1_1TqInterpreterData.html" xlink:title=" ">
<polygon fill="white" stroke="none" points="991,-1039.5 771,-1039.5 771,-820.5 991,-820.5 991,-1039.5"/>
<text text-anchor="start" x="776" y="-1026" font-family="Cascadia Code NF" font-size="10.00">v8::internal::debug</text>
<text text-anchor="start" x="776" y="-1013.25" font-family="Cascadia Code NF" font-size="10.00">_helper_internal::TqInterpreterData</text>
<text text-anchor="start" x="878" y="-997" font-family="Cascadia Code NF" font-size="10.00"> </text>
<text text-anchor="start" x="788" y="-981" font-family="Cascadia Code NF" font-size="10.00">+</text>
<text text-anchor="start" x="811" y="-981" font-family="Cascadia Code NF" font-size="10.00">TqInterpreterData()</text>
<text text-anchor="start" x="788" y="-965" font-family="Cascadia Code NF" font-size="10.00">+</text>
<text text-anchor="start" x="811" y="-965" font-family="Cascadia Code NF" font-size="10.00">GetProperties()</text>
<text text-anchor="start" x="788" y="-949" font-family="Cascadia Code NF" font-size="10.00">+</text>
<text text-anchor="start" x="811" y="-949" font-family="Cascadia Code NF" font-size="10.00">GetName()</text>
<text text-anchor="start" x="788" y="-933" font-family="Cascadia Code NF" font-size="10.00">+</text>
<text text-anchor="start" x="811" y="-933" font-family="Cascadia Code NF" font-size="10.00">Visit()</text>
<text text-anchor="start" x="788" y="-917" font-family="Cascadia Code NF" font-size="10.00">+</text>
<text text-anchor="start" x="811" y="-917" font-family="Cascadia Code NF" font-size="10.00">IsSuperclassOf()</text>
<text text-anchor="start" x="788" y="-901" font-family="Cascadia Code NF" font-size="10.00">+</text>
<text text-anchor="start" x="811" y="-901" font-family="Cascadia Code NF" font-size="10.00">GetBytecodeArrayAddress()</text>
<text text-anchor="start" x="788" y="-885" font-family="Cascadia Code NF" font-size="10.00">+</text>
<text text-anchor="start" x="811" y="-885" font-family="Cascadia Code NF" font-size="10.00">GetBytecodeArrayValue()</text>
<text text-anchor="start" x="788" y="-869" font-family="Cascadia Code NF" font-size="10.00">+</text>
<text text-anchor="start" x="811" y="-869" font-family="Cascadia Code NF" font-size="10.00">GetInterpreterTrampoline</text>
<text text-anchor="start" x="811" y="-856.25" font-family="Cascadia Code NF" font-size="10.00">Address()</text>
<text text-anchor="start" x="788" y="-840" font-family="Cascadia Code NF" font-size="10.00">+</text>
<text text-anchor="start" x="811" y="-840" font-family="Cascadia Code NF" font-size="10.00">GetInterpreterTrampoline</text>
<text text-anchor="start" x="811" y="-827.25" font-family="Cascadia Code NF" font-size="10.00">Value()</text>
<polygon fill="#bfbfbf" stroke="#bfbfbf" points="771,-1008.5 771,-1008.5 991,-1008.5 991,-1008.5 771,-1008.5"/>
<polygon fill="#bfbfbf" stroke="#bfbfbf" points="771,-992.5 771,-992.5 991,-992.5 991,-992.5 771,-992.5"/>
<polygon fill="none" stroke="#bfbfbf" points="771,-820.5 771,-1039.5 991,-1039.5 991,-820.5 771,-820.5"/>
</a>
</g>
</g>
<!-- Node1&#45;&gt;Node6 -->
<g id="edge5_Node000001_Node000006" class="edge">
<title>Node1&#45;&gt;Node6</title>
<g id="a_edge5_Node000001_Node000006"><a xlink:title=" ">
<path fill="none" stroke="#63b8ff" d="M726.52,-777.75C741.19,-792.3 756.42,-807.41 771.34,-822.22"/>
<polygon fill="none" stroke="#63b8ff" points="729.08,-775.36 719.51,-770.8 724.15,-780.33 729.08,-775.36"/>
</a>
</g>
</g>
<!-- Node7 -->
<g id="Node000007" class="node">
<title>Node7</title>
<g id="a_Node000007"><a xlink:href="$d6/d7e/classv8_1_1internal_1_1debug__helper__internal_1_1TqWasmApiFunctionRef.html" xlink:title=" ">
<polygon fill="white" stroke="none" points="967,-802 795,-802 795,-564 967,-564 967,-802"/>
<text text-anchor="start" x="800" y="-788.5" font-family="Cascadia Code NF" font-size="10.00">v8::internal::debug</text>
<text text-anchor="start" x="800" y="-775.75" font-family="Cascadia Code NF" font-size="10.00">_helper_internal::TqWasmApi</text>
<text text-anchor="start" x="848" y="-763" font-family="Cascadia Code NF" font-size="10.00">FunctionRef</text>
<text text-anchor="start" x="878" y="-746.5" font-family="Cascadia Code NF" font-size="10.00"> </text>
<text text-anchor="start" x="800" y="-730.5" font-family="Cascadia Code NF" font-size="10.00">+</text>
<text text-anchor="start" x="811" y="-730.5" font-family="Cascadia Code NF" font-size="10.00">TqWasmApiFunctionRef()</text>
<text text-anchor="start" x="800" y="-714.5" font-family="Cascadia Code NF" font-size="10.00">+</text>
<text text-anchor="start" x="811" y="-714.5" font-family="Cascadia Code NF" font-size="10.00">GetProperties()</text>
<text text-anchor="start" x="800" y="-698.5" font-family="Cascadia Code NF" font-size="10.00">+</text>
<text text-anchor="start" x="811" y="-698.5" font-family="Cascadia Code NF" font-size="10.00">GetName()</text>
<text text-anchor="start" x="800" y="-682.5" font-family="Cascadia Code NF" font-size="10.00">+</text>
<text text-anchor="start" x="811" y="-682.5" font-family="Cascadia Code NF" font-size="10.00">Visit()</text>
<text text-anchor="start" x="800" y="-666.5" font-family="Cascadia Code NF" font-size="10.00">+</text>
<text text-anchor="start" x="811" y="-666.5" font-family="Cascadia Code NF" font-size="10.00">IsSuperclassOf()</text>
<text text-anchor="start" x="800" y="-650.5" font-family="Cascadia Code NF" font-size="10.00">+</text>
<text text-anchor="start" x="811" y="-650.5" font-family="Cascadia Code NF" font-size="10.00">GetNativeContextAddress()</text>
<text text-anchor="start" x="800" y="-634.5" font-family="Cascadia Code NF" font-size="10.00">+</text>
<text text-anchor="start" x="811" y="-634.5" font-family="Cascadia Code NF" font-size="10.00">GetNativeContextValue()</text>
<text text-anchor="start" x="800" y="-618.5" font-family="Cascadia Code NF" font-size="10.00">+</text>
<text text-anchor="start" x="811" y="-618.5" font-family="Cascadia Code NF" font-size="10.00">GetCallableAddress()</text>
<text text-anchor="start" x="800" y="-602.5" font-family="Cascadia Code NF" font-size="10.00">+</text>
<text text-anchor="start" x="811" y="-602.5" font-family="Cascadia Code NF" font-size="10.00">GetCallableValue()</text>
<text text-anchor="start" x="800" y="-586.5" font-family="Cascadia Code NF" font-size="10.00">+</text>
<text text-anchor="start" x="811" y="-586.5" font-family="Cascadia Code NF" font-size="10.00">GetInstanceAddress()</text>
<text text-anchor="start" x="811" y="-570.5" font-family="Cascadia Code NF" font-size="10.00">and 11 more...</text>
<polygon fill="#bfbfbf" stroke="#bfbfbf" points="795,-758 795,-758 967,-758 967,-758 795,-758"/>
<polygon fill="#bfbfbf" stroke="#bfbfbf" points="795,-742 795,-742 967,-742 967,-742 795,-742"/>
<polygon fill="none" stroke="#bfbfbf" points="795,-564 795,-802 967,-802 967,-564 795,-564"/>
</a>
</g>
</g>
<!-- Node1&#45;&gt;Node7 -->
<g id="edge6_Node000001_Node000007" class="edge">
<title>Node1&#45;&gt;Node7</title>
<g id="a_edge6_Node000001_Node000007"><a xlink:title=" ">
<path fill="none" stroke="#63b8ff" d="M743.33,-683C760.79,-683 778.57,-683 795.28,-683"/>
<polygon fill="none" stroke="#63b8ff" points="743.43,-679.5 733.43,-683 743.43,-686.5 743.43,-679.5"/>
</a>
</g>
</g>
<!-- Node8 -->
<g id="Node000008" class="node">
<title>Node8</title>
<g id="a_Node000008"><a xlink:href="$d7/dc8/classv8_1_1internal_1_1debug__helper__internal_1_1TqWasmFunctionData.html" xlink:title=" ">
<polygon fill="white" stroke="none" points="994,-545.5 768,-545.5 768,-288.5 994,-288.5 994,-545.5"/>
<text text-anchor="start" x="773" y="-532" font-family="Cascadia Code NF" font-size="10.00">v8::internal::debug</text>
<text text-anchor="start" x="773" y="-519.25" font-family="Cascadia Code NF" font-size="10.00">_helper_internal::TqWasmFunctionData</text>
<text text-anchor="start" x="878" y="-503" font-family="Cascadia Code NF" font-size="10.00"> </text>
<text text-anchor="start" x="780.5" y="-487" font-family="Cascadia Code NF" font-size="10.00">+</text>
<text text-anchor="start" x="799" y="-487" font-family="Cascadia Code NF" font-size="10.00">TqWasmFunctionData()</text>
<text text-anchor="start" x="780.5" y="-471" font-family="Cascadia Code NF" font-size="10.00">+</text>
<text text-anchor="start" x="799" y="-471" font-family="Cascadia Code NF" font-size="10.00">GetProperties()</text>
<text text-anchor="start" x="780.5" y="-455" font-family="Cascadia Code NF" font-size="10.00">+</text>
<text text-anchor="start" x="799" y="-455" font-family="Cascadia Code NF" font-size="10.00">GetName()</text>
<text text-anchor="start" x="780.5" y="-439" font-family="Cascadia Code NF" font-size="10.00">+</text>
<text text-anchor="start" x="799" y="-439" font-family="Cascadia Code NF" font-size="10.00">Visit()</text>
<text text-anchor="start" x="780.5" y="-423" font-family="Cascadia Code NF" font-size="10.00">+</text>
<text text-anchor="start" x="799" y="-423" font-family="Cascadia Code NF" font-size="10.00">IsSuperclassOf()</text>
<text text-anchor="start" x="780.5" y="-407" font-family="Cascadia Code NF" font-size="10.00">+</text>
<text text-anchor="start" x="799" y="-407" font-family="Cascadia Code NF" font-size="10.00">GetWrapperCodeAddress()</text>
<text text-anchor="start" x="780.5" y="-391" font-family="Cascadia Code NF" font-size="10.00">+</text>
<text text-anchor="start" x="799" y="-391" font-family="Cascadia Code NF" font-size="10.00">GetWrapperCodeValue()</text>
<text text-anchor="start" x="780.5" y="-375" font-family="Cascadia Code NF" font-size="10.00">+</text>
<text text-anchor="start" x="799" y="-375" font-family="Cascadia Code NF" font-size="10.00">GetFuncRefAddress()</text>
<text text-anchor="start" x="780.5" y="-359" font-family="Cascadia Code NF" font-size="10.00">+</text>
<text text-anchor="start" x="799" y="-359" font-family="Cascadia Code NF" font-size="10.00">GetFuncRefValue()</text>
<text text-anchor="start" x="780.5" y="-343" font-family="Cascadia Code NF" font-size="10.00">+</text>
<text text-anchor="start" x="799" y="-343" font-family="Cascadia Code NF" font-size="10.00">GetJsPromiseFlagsAddress()</text>
<text text-anchor="start" x="780.5" y="-327" font-family="Cascadia Code NF" font-size="10.00">+</text>
<text text-anchor="start" x="799" y="-327" font-family="Cascadia Code NF" font-size="10.00">GetJsPromiseFlagsValue()</text>
<text text-anchor="start" x="780.5" y="-311" font-family="Cascadia Code NF" font-size="10.00">+</text>
<text text-anchor="start" x="799" y="-311" font-family="Cascadia Code NF" font-size="10.00">GetProtectedInternalAddress()</text>
<text text-anchor="start" x="780.5" y="-295" font-family="Cascadia Code NF" font-size="10.00">+</text>
<text text-anchor="start" x="799" y="-295" font-family="Cascadia Code NF" font-size="10.00">GetProtectedInternalValue()</text>
<polygon fill="#bfbfbf" stroke="#bfbfbf" points="768,-514.5 768,-514.5 994,-514.5 994,-514.5 768,-514.5"/>
<polygon fill="#bfbfbf" stroke="#bfbfbf" points="768,-498.5 768,-498.5 994,-498.5 994,-498.5 768,-498.5"/>
<polygon fill="none" stroke="#bfbfbf" points="768,-288.5 768,-545.5 994,-545.5 994,-288.5 768,-288.5"/>
</a>
</g>
</g>
<!-- Node1&#45;&gt;Node8 -->
<g id="edge7_Node000001_Node000008" class="edge">
<title>Node1&#45;&gt;Node8</title>
<g id="a_edge7_Node000001_Node000008"><a xlink:title=" ">
<path fill="none" stroke="#63b8ff" d="M719.81,-588.13C735.47,-571.39 751.96,-553.78 768.17,-536.47"/>
<polygon fill="none" stroke="#63b8ff" points="717.5,-585.47 713.22,-595.16 722.61,-590.26 717.5,-585.47"/>
</a>
</g>
</g>
<!-- Node12 -->
<g id="Node000012" class="node">
<title>Node12</title>
<g id="a_Node000012"><a xlink:href="$d6/d45/classv8_1_1internal_1_1debug__helper__internal_1_1TqWasmInternalFunction.html" xlink:title=" ">
<polygon fill="white" stroke="none" points="982,-270 780,-270 780,0 982,0 982,-270"/>
<text text-anchor="start" x="785" y="-256.5" font-family="Cascadia Code NF" font-size="10.00">v8::internal::debug</text>
<text text-anchor="start" x="785" y="-243.75" font-family="Cascadia Code NF" font-size="10.00">_helper_internal::TqWasmInternal</text>
<text text-anchor="start" x="857" y="-231" font-family="Cascadia Code NF" font-size="10.00">Function</text>
<text text-anchor="start" x="878" y="-214.5" font-family="Cascadia Code NF" font-size="10.00"> </text>
<text text-anchor="start" x="792.5" y="-198.5" font-family="Cascadia Code NF" font-size="10.00">+</text>
<text text-anchor="start" x="811" y="-198.5" font-family="Cascadia Code NF" font-size="10.00">TqWasmInternalFunction()</text>
<text text-anchor="start" x="792.5" y="-182.5" font-family="Cascadia Code NF" font-size="10.00">+</text>
<text text-anchor="start" x="811" y="-182.5" font-family="Cascadia Code NF" font-size="10.00">GetProperties()</text>
<text text-anchor="start" x="792.5" y="-166.5" font-family="Cascadia Code NF" font-size="10.00">+</text>
<text text-anchor="start" x="811" y="-166.5" font-family="Cascadia Code NF" font-size="10.00">GetName()</text>
<text text-anchor="start" x="792.5" y="-150.5" font-family="Cascadia Code NF" font-size="10.00">+</text>
<text text-anchor="start" x="811" y="-150.5" font-family="Cascadia Code NF" font-size="10.00">Visit()</text>
<text text-anchor="start" x="792.5" y="-134.5" font-family="Cascadia Code NF" font-size="10.00">+</text>
<text text-anchor="start" x="811" y="-134.5" font-family="Cascadia Code NF" font-size="10.00">IsSuperclassOf()</text>
<text text-anchor="start" x="792.5" y="-118.5" font-family="Cascadia Code NF" font-size="10.00">+</text>
<text text-anchor="start" x="811" y="-118.5" font-family="Cascadia Code NF" font-size="10.00">GetProtectedRefAddress()</text>
<text text-anchor="start" x="792.5" y="-102.5" font-family="Cascadia Code NF" font-size="10.00">+</text>
<text text-anchor="start" x="811" y="-102.5" font-family="Cascadia Code NF" font-size="10.00">GetProtectedRefValue()</text>
<text text-anchor="start" x="792.5" y="-86.5" font-family="Cascadia Code NF" font-size="10.00">+</text>
<text text-anchor="start" x="811" y="-86.5" font-family="Cascadia Code NF" font-size="10.00">GetExternalAddress()</text>
<text text-anchor="start" x="792.5" y="-70.5" font-family="Cascadia Code NF" font-size="10.00">+</text>
<text text-anchor="start" x="811" y="-70.5" font-family="Cascadia Code NF" font-size="10.00">GetExternalValue()</text>
<text text-anchor="start" x="792.5" y="-54.5" font-family="Cascadia Code NF" font-size="10.00">+</text>
<text text-anchor="start" x="811" y="-54.5" font-family="Cascadia Code NF" font-size="10.00">GetFunctionIndexAddress()</text>
<text text-anchor="start" x="792.5" y="-38.5" font-family="Cascadia Code NF" font-size="10.00">+</text>
<text text-anchor="start" x="811" y="-38.5" font-family="Cascadia Code NF" font-size="10.00">GetFunctionIndexValue()</text>
<text text-anchor="start" x="792.5" y="-22.5" font-family="Cascadia Code NF" font-size="10.00">+</text>
<text text-anchor="start" x="811" y="-22.5" font-family="Cascadia Code NF" font-size="10.00">GetCallTargetAddress()</text>
<text text-anchor="start" x="792.5" y="-6.5" font-family="Cascadia Code NF" font-size="10.00">+</text>
<text text-anchor="start" x="811" y="-6.5" font-family="Cascadia Code NF" font-size="10.00">GetCallTargetValue()</text>
<polygon fill="#bfbfbf" stroke="#bfbfbf" points="780,-226 780,-226 982,-226 982,-226 780,-226"/>
<polygon fill="#bfbfbf" stroke="#bfbfbf" points="780,-210 780,-210 982,-210 982,-210 780,-210"/>
<polygon fill="none" stroke="#bfbfbf" points="780,0 780,-270 982,-270 982,0 780,0"/>
</a>
</g>
</g>
<!-- Node1&#45;&gt;Node12 -->
<g id="edge11_Node000001_Node000012" class="edge">
<title>Node1&#45;&gt;Node12</title>
<g id="a_edge11_Node000001_Node000012"><a xlink:title=" ">
<path fill="none" stroke="#63b8ff" d="M654.38,-584.91C676.73,-500.67 714.9,-377.6 768,-279 771.75,-272.03 775.84,-265.05 780.17,-258.12"/>
<polygon fill="none" stroke="#63b8ff" points="651,-583.99 651.85,-594.55 657.77,-585.76 651,-583.99"/>
</a>
</g>
</g>
<!-- Node2 -->
<g id="Node000002" class="node">
<title>Node2</title>
<g id="a_Node000002"><a xlink:href="$d4/d53/classv8_1_1internal_1_1debug__helper__internal_1_1TqTrustedObject.html" xlink:title=" ">
<polygon fill="white" stroke="none" points="492,-754 320,-754 320,-612 492,-612 492,-754"/>
<text text-anchor="start" x="325" y="-740.5" font-family="Cascadia Code NF" font-size="10.00">v8::internal::debug</text>
<text text-anchor="start" x="325" y="-727.75" font-family="Cascadia Code NF" font-size="10.00">_helper_internal::TqTrusted</text>
<text text-anchor="start" x="388" y="-715" font-family="Cascadia Code NF" font-size="10.00">Object</text>
<text text-anchor="start" x="403" y="-698.5" font-family="Cascadia Code NF" font-size="10.00"> </text>
<text text-anchor="start" x="337" y="-682.5" font-family="Cascadia Code NF" font-size="10.00">+</text>
<text text-anchor="start" x="360" y="-682.5" font-family="Cascadia Code NF" font-size="10.00">TqTrustedObject()</text>
<text text-anchor="start" x="337" y="-666.5" font-family="Cascadia Code NF" font-size="10.00">+</text>
<text text-anchor="start" x="360" y="-666.5" font-family="Cascadia Code NF" font-size="10.00">GetProperties()</text>
<text text-anchor="start" x="337" y="-650.5" font-family="Cascadia Code NF" font-size="10.00">+</text>
<text text-anchor="start" x="360" y="-650.5" font-family="Cascadia Code NF" font-size="10.00">GetName()</text>
<text text-anchor="start" x="337" y="-634.5" font-family="Cascadia Code NF" font-size="10.00">+</text>
<text text-anchor="start" x="360" y="-634.5" font-family="Cascadia Code NF" font-size="10.00">Visit()</text>
<text text-anchor="start" x="337" y="-618.5" font-family="Cascadia Code NF" font-size="10.00">+</text>
<text text-anchor="start" x="360" y="-618.5" font-family="Cascadia Code NF" font-size="10.00">IsSuperclassOf()</text>
<polygon fill="#bfbfbf" stroke="#bfbfbf" points="320,-710 320,-710 492,-710 492,-710 320,-710"/>
<polygon fill="#bfbfbf" stroke="#bfbfbf" points="320,-694 320,-694 492,-694 492,-694 320,-694"/>
<polygon fill="none" stroke="#bfbfbf" points="320,-612 320,-754 492,-754 492,-612 320,-612"/>
</a>
</g>
</g>
<!-- Node2&#45;&gt;Node1 -->
<g id="edge1_Node000001_Node000002" class="edge">
<title>Node2&#45;&gt;Node1</title>
<g id="a_edge1_Node000001_Node000002"><a xlink:title=" ">
<path fill="none" stroke="#63b8ff" d="M503.12,-683C511.42,-683 519.84,-683 528.18,-683"/>
<polygon fill="none" stroke="#63b8ff" points="503.39,-679.5 493.39,-683 503.39,-686.5 503.39,-679.5"/>
</a>
</g>
</g>
<!-- Node3 -->
<g id="Node000003" class="node">
<title>Node3</title>
<g id="a_Node000003"><a xlink:href="$db/deb/classv8_1_1internal_1_1debug__helper__internal_1_1TqHeapObject.html" xlink:title=" ">
<polygon fill="white" stroke="none" points="284,-763.5 94,-763.5 94,-602.5 284,-602.5 284,-763.5"/>
<text text-anchor="start" x="99" y="-750" font-family="Cascadia Code NF" font-size="10.00">v8::internal::debug</text>
<text text-anchor="start" x="99" y="-737.25" font-family="Cascadia Code NF" font-size="10.00">_helper_internal::TqHeapObject</text>
<text text-anchor="start" x="186" y="-721" font-family="Cascadia Code NF" font-size="10.00"> </text>
<text text-anchor="start" x="117" y="-705" font-family="Cascadia Code NF" font-size="10.00">+</text>
<text text-anchor="start" x="146" y="-705" font-family="Cascadia Code NF" font-size="10.00">TqHeapObject()</text>
<text text-anchor="start" x="117" y="-689" font-family="Cascadia Code NF" font-size="10.00">+</text>
<text text-anchor="start" x="146" y="-689" font-family="Cascadia Code NF" font-size="10.00">GetProperties()</text>
<text text-anchor="start" x="117" y="-673" font-family="Cascadia Code NF" font-size="10.00">+</text>
<text text-anchor="start" x="146" y="-673" font-family="Cascadia Code NF" font-size="10.00">GetName()</text>
<text text-anchor="start" x="117" y="-657" font-family="Cascadia Code NF" font-size="10.00">+</text>
<text text-anchor="start" x="146" y="-657" font-family="Cascadia Code NF" font-size="10.00">Visit()</text>
<text text-anchor="start" x="117" y="-641" font-family="Cascadia Code NF" font-size="10.00">+</text>
<text text-anchor="start" x="146" y="-641" font-family="Cascadia Code NF" font-size="10.00">IsSuperclassOf()</text>
<text text-anchor="start" x="117" y="-625" font-family="Cascadia Code NF" font-size="10.00">+</text>
<text text-anchor="start" x="146" y="-625" font-family="Cascadia Code NF" font-size="10.00">GetMapAddress()</text>
<text text-anchor="start" x="117" y="-609" font-family="Cascadia Code NF" font-size="10.00">+</text>
<text text-anchor="start" x="146" y="-609" font-family="Cascadia Code NF" font-size="10.00">GetMapValue()</text>
<polygon fill="#bfbfbf" stroke="#bfbfbf" points="94,-732.5 94,-732.5 284,-732.5 284,-732.5 94,-732.5"/>
<polygon fill="#bfbfbf" stroke="#bfbfbf" points="94,-716.5 94,-716.5 284,-716.5 284,-716.5 94,-716.5"/>
<polygon fill="none" stroke="#bfbfbf" points="94,-602.5 94,-763.5 284,-763.5 284,-602.5 94,-602.5"/>
</a>
</g>
</g>
<!-- Node3&#45;&gt;Node2 -->
<g id="edge2_Node000002_Node000003" class="edge">
<title>Node3&#45;&gt;Node2</title>
<g id="a_edge2_Node000002_Node000003"><a xlink:title=" ">
<path fill="none" stroke="#63b8ff" d="M295.37,-683C303.74,-683 312.13,-683 320.33,-683"/>
<polygon fill="none" stroke="#63b8ff" points="295.5,-679.5 285.5,-683 295.5,-686.5 295.5,-679.5"/>
</a>
</g>
</g>
<!-- Node4 -->
<g id="Node000004" class="node">
<title>Node4</title>
<g id="a_Node000004"><a xlink:href="$dd/d42/classTqObject.html" xlink:title=" ">
<polygon fill="white" stroke="none" points="58,-709 0,-709 0,-657 58,-657 58,-709"/>
<text text-anchor="start" x="5" y="-695.5" font-family="Cascadia Code NF" font-size="10.00">TqObject</text>
<text text-anchor="start" x="26" y="-679.5" font-family="Cascadia Code NF" font-size="10.00"> </text>
<text text-anchor="start" x="26" y="-663.5" font-family="Cascadia Code NF" font-size="10.00"> </text>
<polygon fill="#bfbfbf" stroke="#bfbfbf" points="0,-691 0,-691 58,-691 58,-691 0,-691"/>
<polygon fill="#bfbfbf" stroke="#bfbfbf" points="0,-675 0,-675 58,-675 58,-675 0,-675"/>
<polygon fill="none" stroke="#bfbfbf" points="0,-657 0,-709 58,-709 58,-657 0,-657"/>
</a>
</g>
</g>
<!-- Node4&#45;&gt;Node3 -->
<g id="edge3_Node000003_Node000004" class="edge">
<title>Node4&#45;&gt;Node3</title>
<g id="a_edge3_Node000003_Node000004"><a xlink:title=" ">
<path fill="none" stroke="#63b8ff" d="M69.34,-683C77.03,-683 85.39,-683 94,-683"/>
<polygon fill="none" stroke="#63b8ff" points="69.4,-679.5 59.4,-683 69.4,-686.5 69.4,-679.5"/>
</a>
</g>
</g>
<!-- Node9 -->
<g id="Node000009" class="node">
<title>Node9</title>
<g id="a_Node000009"><a xlink:href="$d0/d30/classv8_1_1internal_1_1debug__helper__internal_1_1TqWasmCapiFunctionData.html" xlink:title=" ">
<polygon fill="white" stroke="none" points="1251,-760 1047,-760 1047,-554 1251,-554 1251,-760"/>
<text text-anchor="start" x="1065" y="-746.5" font-family="Cascadia Code NF" font-size="10.00">v8::internal::debug</text>
<text text-anchor="start" x="1065" y="-733.75" font-family="Cascadia Code NF" font-size="10.00">_helper_internal::TqWasmCapi</text>
<text text-anchor="start" x="1113" y="-721" font-family="Cascadia Code NF" font-size="10.00">FunctionData</text>
<text text-anchor="start" x="1146" y="-704.5" font-family="Cascadia Code NF" font-size="10.00"> </text>
<text text-anchor="start" x="1051" y="-688.5" font-family="Cascadia Code NF" font-size="10.00">+</text>
<text text-anchor="start" x="1061" y="-688.5" font-family="Cascadia Code NF" font-size="10.00">TqWasmCapiFunctionData()</text>
<text text-anchor="start" x="1051" y="-672.5" font-family="Cascadia Code NF" font-size="10.00">+</text>
<text text-anchor="start" x="1061" y="-672.5" font-family="Cascadia Code NF" font-size="10.00">GetProperties()</text>
<text text-anchor="start" x="1051" y="-656.5" font-family="Cascadia Code NF" font-size="10.00">+</text>
<text text-anchor="start" x="1061" y="-656.5" font-family="Cascadia Code NF" font-size="10.00">GetName()</text>
<text text-anchor="start" x="1051" y="-640.5" font-family="Cascadia Code NF" font-size="10.00">+</text>
<text text-anchor="start" x="1061" y="-640.5" font-family="Cascadia Code NF" font-size="10.00">Visit()</text>
<text text-anchor="start" x="1051" y="-624.5" font-family="Cascadia Code NF" font-size="10.00">+</text>
<text text-anchor="start" x="1061" y="-624.5" font-family="Cascadia Code NF" font-size="10.00">IsSuperclassOf()</text>
<text text-anchor="start" x="1051" y="-608.5" font-family="Cascadia Code NF" font-size="10.00">+</text>
<text text-anchor="start" x="1061" y="-608.5" font-family="Cascadia Code NF" font-size="10.00">GetEmbedderDataAddress()</text>
<text text-anchor="start" x="1051" y="-592.5" font-family="Cascadia Code NF" font-size="10.00">+</text>
<text text-anchor="start" x="1061" y="-592.5" font-family="Cascadia Code NF" font-size="10.00">GetEmbedderDataValue()</text>
<text text-anchor="start" x="1051" y="-576.5" font-family="Cascadia Code NF" font-size="10.00">+</text>
<text text-anchor="start" x="1061" y="-576.5" font-family="Cascadia Code NF" font-size="10.00">GetSerializedSignatureAddress()</text>
<text text-anchor="start" x="1051" y="-560.5" font-family="Cascadia Code NF" font-size="10.00">+</text>
<text text-anchor="start" x="1061" y="-560.5" font-family="Cascadia Code NF" font-size="10.00">GetSerializedSignatureValue()</text>
<polygon fill="#bfbfbf" stroke="#bfbfbf" points="1047,-716 1047,-716 1251,-716 1251,-716 1047,-716"/>
<polygon fill="#bfbfbf" stroke="#bfbfbf" points="1047,-700 1047,-700 1251,-700 1251,-700 1047,-700"/>
<polygon fill="none" stroke="#bfbfbf" points="1047,-554 1047,-760 1251,-760 1251,-554 1047,-554"/>
</a>
</g>
</g>
<!-- Node8&#45;&gt;Node9 -->
<g id="edge8_Node000008_Node000009" class="edge">
<title>Node8&#45;&gt;Node9</title>
<g id="a_edge8_Node000008_Node000009"><a xlink:title=" ">
<path fill="none" stroke="#63b8ff" d="M1002.02,-525.28C1017.12,-538.91 1032.45,-552.75 1047.22,-566.07"/>
<polygon fill="none" stroke="#63b8ff" points="1004.54,-522.85 994.78,-518.75 999.86,-528.05 1004.54,-522.85"/>
</a>
</g>
</g>
<!-- Node10 -->
<g id="Node000010" class="node">
<title>Node10</title>
<g id="a_Node000010"><a xlink:href="$d8/dd7/classv8_1_1internal_1_1debug__helper__internal_1_1TqWasmExportedFunctionData.html" xlink:title=" ">
<polygon fill="white" stroke="none" points="1250,-536 1048,-536 1048,-298 1250,-298 1250,-536"/>
<text text-anchor="start" x="1053" y="-522.5" font-family="Cascadia Code NF" font-size="10.00">v8::internal::debug</text>
<text text-anchor="start" x="1053" y="-509.75" font-family="Cascadia Code NF" font-size="10.00">_helper_internal::TqWasmExported</text>
<text text-anchor="start" x="1113" y="-497" font-family="Cascadia Code NF" font-size="10.00">FunctionData</text>
<text text-anchor="start" x="1146" y="-480.5" font-family="Cascadia Code NF" font-size="10.00"> </text>
<text text-anchor="start" x="1056" y="-464.5" font-family="Cascadia Code NF" font-size="10.00">+</text>
<text text-anchor="start" x="1070" y="-464.5" font-family="Cascadia Code NF" font-size="10.00">TqWasmExportedFunctionData()</text>
<text text-anchor="start" x="1056" y="-448.5" font-family="Cascadia Code NF" font-size="10.00">+</text>
<text text-anchor="start" x="1070" y="-448.5" font-family="Cascadia Code NF" font-size="10.00">GetProperties()</text>
<text text-anchor="start" x="1056" y="-432.5" font-family="Cascadia Code NF" font-size="10.00">+</text>
<text text-anchor="start" x="1070" y="-432.5" font-family="Cascadia Code NF" font-size="10.00">GetName()</text>
<text text-anchor="start" x="1056" y="-416.5" font-family="Cascadia Code NF" font-size="10.00">+</text>
<text text-anchor="start" x="1070" y="-416.5" font-family="Cascadia Code NF" font-size="10.00">Visit()</text>
<text text-anchor="start" x="1056" y="-400.5" font-family="Cascadia Code NF" font-size="10.00">+</text>
<text text-anchor="start" x="1070" y="-400.5" font-family="Cascadia Code NF" font-size="10.00">IsSuperclassOf()</text>
<text text-anchor="start" x="1056" y="-384.5" font-family="Cascadia Code NF" font-size="10.00">+</text>
<text text-anchor="start" x="1070" y="-384.5" font-family="Cascadia Code NF" font-size="10.00">GetInstanceAddress()</text>
<text text-anchor="start" x="1056" y="-368.5" font-family="Cascadia Code NF" font-size="10.00">+</text>
<text text-anchor="start" x="1070" y="-368.5" font-family="Cascadia Code NF" font-size="10.00">GetInstanceValue()</text>
<text text-anchor="start" x="1056" y="-352.5" font-family="Cascadia Code NF" font-size="10.00">+</text>
<text text-anchor="start" x="1070" y="-352.5" font-family="Cascadia Code NF" font-size="10.00">GetFunctionIndexAddress()</text>
<text text-anchor="start" x="1056" y="-336.5" font-family="Cascadia Code NF" font-size="10.00">+</text>
<text text-anchor="start" x="1070" y="-336.5" font-family="Cascadia Code NF" font-size="10.00">GetFunctionIndexValue()</text>
<text text-anchor="start" x="1056" y="-320.5" font-family="Cascadia Code NF" font-size="10.00">+</text>
<text text-anchor="start" x="1070" y="-320.5" font-family="Cascadia Code NF" font-size="10.00">GetWrapperBudgetAddress()</text>
<text text-anchor="start" x="1070" y="-304.5" font-family="Cascadia Code NF" font-size="10.00">and 9 more...</text>
<polygon fill="#bfbfbf" stroke="#bfbfbf" points="1048,-492 1048,-492 1250,-492 1250,-492 1048,-492"/>
<polygon fill="#bfbfbf" stroke="#bfbfbf" points="1048,-476 1048,-476 1250,-476 1250,-476 1048,-476"/>
<polygon fill="none" stroke="#bfbfbf" points="1048,-298 1048,-536 1250,-536 1250,-298 1048,-298"/>
</a>
</g>
</g>
<!-- Node8&#45;&gt;Node10 -->
<g id="edge9_Node000008_Node000010" class="edge">
<title>Node8&#45;&gt;Node10</title>
<g id="a_edge9_Node000008_Node000010"><a xlink:title=" ">
<path fill="none" stroke="#63b8ff" d="M1005.14,-417C1019.52,-417 1034.05,-417 1048.06,-417"/>
<polygon fill="none" stroke="#63b8ff" points="1005.17,-413.5 995.17,-417 1005.17,-420.5 1005.17,-413.5"/>
</a>
</g>
</g>
<!-- Node11 -->
<g id="Node000011" class="node">
<title>Node11</title>
<g id="a_Node000011"><a xlink:href="$d3/d93/classv8_1_1internal_1_1debug__helper__internal_1_1TqWasmJSFunctionData.html" xlink:title=" ">
<polygon fill="white" stroke="none" points="1268,-279.5 1030,-279.5 1030,-118.5 1268,-118.5 1268,-279.5"/>
<text text-anchor="start" x="1035" y="-266" font-family="Cascadia Code NF" font-size="10.00">v8::internal::debug</text>
<text text-anchor="start" x="1035" y="-253.25" font-family="Cascadia Code NF" font-size="10.00">_helper_internal::TqWasmJSFunctionData</text>
<text text-anchor="start" x="1146" y="-237" font-family="Cascadia Code NF" font-size="10.00"> </text>
<text text-anchor="start" x="1042.5" y="-221" font-family="Cascadia Code NF" font-size="10.00">+</text>
<text text-anchor="start" x="1061" y="-221" font-family="Cascadia Code NF" font-size="10.00">TqWasmJSFunctionData()</text>
<text text-anchor="start" x="1042.5" y="-205" font-family="Cascadia Code NF" font-size="10.00">+</text>
<text text-anchor="start" x="1061" y="-205" font-family="Cascadia Code NF" font-size="10.00">GetProperties()</text>
<text text-anchor="start" x="1042.5" y="-189" font-family="Cascadia Code NF" font-size="10.00">+</text>
<text text-anchor="start" x="1061" y="-189" font-family="Cascadia Code NF" font-size="10.00">GetName()</text>
<text text-anchor="start" x="1042.5" y="-173" font-family="Cascadia Code NF" font-size="10.00">+</text>
<text text-anchor="start" x="1061" y="-173" font-family="Cascadia Code NF" font-size="10.00">Visit()</text>
<text text-anchor="start" x="1042.5" y="-157" font-family="Cascadia Code NF" font-size="10.00">+</text>
<text text-anchor="start" x="1061" y="-157" font-family="Cascadia Code NF" font-size="10.00">IsSuperclassOf()</text>
<text text-anchor="start" x="1042.5" y="-141" font-family="Cascadia Code NF" font-size="10.00">+</text>
<text text-anchor="start" x="1061" y="-141" font-family="Cascadia Code NF" font-size="10.00">GetSerializedSignatureAddress()</text>
<text text-anchor="start" x="1042.5" y="-125" font-family="Cascadia Code NF" font-size="10.00">+</text>
<text text-anchor="start" x="1061" y="-125" font-family="Cascadia Code NF" font-size="10.00">GetSerializedSignatureValue()</text>
<polygon fill="#bfbfbf" stroke="#bfbfbf" points="1030,-248.5 1030,-248.5 1268,-248.5 1268,-248.5 1030,-248.5"/>
<polygon fill="#bfbfbf" stroke="#bfbfbf" points="1030,-232.5 1030,-232.5 1268,-232.5 1268,-232.5 1030,-232.5"/>
<polygon fill="none" stroke="#bfbfbf" points="1030,-118.5 1030,-279.5 1268,-279.5 1268,-118.5 1030,-118.5"/>
</a>
</g>
</g>
<!-- Node8&#45;&gt;Node11 -->
<g id="edge10_Node000008_Node000011" class="edge">
<title>Node8&#45;&gt;Node11</title>
<g id="a_edge10_Node000008_Node000011"><a xlink:title=" ">
<path fill="none" stroke="#63b8ff" d="M1002.27,-311.91C1011.6,-304.09 1020.92,-296.38 1030,-289 1033.9,-285.83 1037.89,-282.62 1041.93,-279.4"/>
<polygon fill="none" stroke="#63b8ff" points="1000.26,-309.03 994.87,-318.15 1004.77,-314.38 1000.26,-309.03"/>
</a>
</g>
</g>
</g>
</svg>
