<?xml version="1.0" encoding="UTF-8" standalone="no"?>
<!DOCTYPE svg PUBLIC "-//W3C//DTD SVG 1.1//EN"
 "http://www.w3.org/Graphics/SVG/1.1/DTD/svg11.dtd">
<!-- Generated by graphviz version 11.0.0 (20240428.1522)
 -->
<!-- Title: v8::internal::FunctionTemplateRareData Pages: 1 -->
<!--zoomable 625 -->

<svg id="main" version="1.1" xmlns="http://www.w3.org/2000/svg" xmlns:xlink="http://www.w3.org/1999/xlink" xml:space="preserve" onload="init(evt)">
<style type="text/css"><![CDATA[
.node, .edge {opacity: 0.7;}
.node.selected, .edge.selected {opacity: 1;}
.edge:hover path { stroke: red; }
.edge:hover polygon { stroke: red; fill: red; }
svg#main { background-color: #111; }
]]></style>

<defs>
  <circle id="rim" cx="0" cy="0" r="7"/>
  <circle id="rim2" cx="0" cy="0" r="3.5"/>
  <g id="zoomPlus">
    <use xlink:href="#rim" fill="#404040"><set attributeName="fill" to="#808080" begin="zoomplus.mouseover" end="zoomplus.mouseout"/></use>
    <path d="M-4,0h8M0,-4v8" fill="none" stroke="white" stroke-width="1.5" pointer-events="none"/>
  </g>
  <g id="zoomMin">
    <use xlink:href="#rim" fill="#404040"><set attributeName="fill" to="#808080" begin="zoomminus.mouseover" end="zoomminus.mouseout"/></use>
    <path d="M-4,0h8" fill="none" stroke="white" stroke-width="1.5" pointer-events="none"/>
  </g>
  <g id="arrowUp" transform="translate(30 24)">
    <use xlink:href="#rim"/>
    <path pointer-events="none" fill="none" stroke="white" stroke-width="1.5" d="M0,-3.0v7 M-2.5,-0.5L0,-3.0L2.5,-0.5"/>
  </g>
  <g id="arrowRight" transform="rotate(90) translate(36 -43)">
    <use xlink:href="#rim"/>
    <path pointer-events="none" fill="none" stroke="white" stroke-width="1.5" d="M0,-3.0v7 M-2.5,-0.5L0,-3.0L2.5,-0.5"/>
  </g>
  <g id="arrowDown" transform="rotate(180) translate(-30 -48)">
    <use xlink:href="#rim"/>
    <path pointer-events="none" fill="none" stroke="white" stroke-width="1.5" d="M0,-3.0v7 M-2.5,-0.5L0,-3.0L2.5,-0.5"/>
  </g>
  <g id="arrowLeft" transform="rotate(270) translate(-36 17)">
    <use xlink:href="#rim"/>
    <path pointer-events="none" fill="none" stroke="white" stroke-width="1.5" d="M0,-3.0v7 M-2.5,-0.5L0,-3.0L2.5,-0.5"/>
  </g>
  <g id="resetDef">
    <use xlink:href="#rim2" fill="#404040"><set attributeName="fill" to="#808080" begin="reset.mouseover" end="reset.mouseout"/></use>
  </g>
</defs>
<script type="application/ecmascript">
var viewWidth = 734;
var viewHeight = 625;
var sectionId = 'dynsection-1';
</script>
<script type="application/ecmascript" xlink:href="../../svg.min.js"/>
<svg id="graph" class="graph">
<g id="viewport">
<title>v8::internal::FunctionTemplateRareData</title>
<!-- Node1 -->
<g id="Node000001" class="node">
<title>Node1</title>
<g id="a_Node000001"><a xlink:title=" ">
<polygon fill="#999999" stroke="none" points="726,-341 536,-341 536,-276 726,-276 726,-341"/>
<text text-anchor="start" x="541" y="-327.5" font-family="Cascadia Code NF" font-size="10.00">v8::internal::FunctionTemplate</text>
<text text-anchor="start" x="607" y="-314.75" font-family="Cascadia Code NF" font-size="10.00">RareData</text>
<text text-anchor="start" x="628" y="-298.5" font-family="Cascadia Code NF" font-size="10.00"> </text>
<text text-anchor="start" x="628" y="-282.5" font-family="Cascadia Code NF" font-size="10.00"> </text>
<polygon fill="#666666" stroke="#666666" points="536,-310 536,-310 726,-310 726,-310 536,-310"/>
<polygon fill="#666666" stroke="#666666" points="536,-294 536,-294 726,-294 726,-294 536,-294"/>
<polygon fill="none" stroke="#666666" points="536,-276 536,-341 726,-341 726,-276 536,-276"/>
</a>
</g>
</g>
<!-- Node2 -->
<g id="Node000002" class="node">
<title>Node2</title>
<g id="a_Node000002"><a xlink:href="../../d5/d18/classTorqueGeneratedFunctionTemplateRareData.html" target="_top" xlink:title=" ">
<polygon fill="white" stroke="none" points="500,-617 280,-617 280,0 500,0 500,-617"/>
<text text-anchor="start" x="285" y="-603.5" font-family="Cascadia Code NF" font-size="10.00">TorqueGeneratedFunctionTemplate</text>
<text text-anchor="start" x="285" y="-590.75" font-family="Cascadia Code NF" font-size="10.00">RareData&lt; FunctionTemplateRareData,</text>
<text text-anchor="start" x="363" y="-578" font-family="Cascadia Code NF" font-size="10.00"> Struct &gt;</text>
<text text-anchor="start" x="288" y="-561.5" font-family="Cascadia Code NF" font-size="10.00">+</text>
<text text-anchor="start" x="302" y="-561.5" font-family="Cascadia Code NF" font-size="10.00">kStartOfStrongFieldsOffset</text>
<text text-anchor="start" x="288" y="-545.5" font-family="Cascadia Code NF" font-size="10.00">+</text>
<text text-anchor="start" x="302" y="-545.5" font-family="Cascadia Code NF" font-size="10.00">kPrototypeTemplateOffset</text>
<text text-anchor="start" x="288" y="-529.5" font-family="Cascadia Code NF" font-size="10.00">+</text>
<text text-anchor="start" x="302" y="-529.5" font-family="Cascadia Code NF" font-size="10.00">kPrototypeTemplateOffsetEnd</text>
<text text-anchor="start" x="288" y="-513.5" font-family="Cascadia Code NF" font-size="10.00">+</text>
<text text-anchor="start" x="302" y="-513.5" font-family="Cascadia Code NF" font-size="10.00">kPrototypeProviderTemplate</text>
<text text-anchor="start" x="302" y="-500.75" font-family="Cascadia Code NF" font-size="10.00">Offset</text>
<text text-anchor="start" x="288" y="-484.5" font-family="Cascadia Code NF" font-size="10.00">+</text>
<text text-anchor="start" x="302" y="-484.5" font-family="Cascadia Code NF" font-size="10.00">kPrototypeProviderTemplate</text>
<text text-anchor="start" x="302" y="-471.75" font-family="Cascadia Code NF" font-size="10.00">OffsetEnd</text>
<text text-anchor="start" x="288" y="-455.5" font-family="Cascadia Code NF" font-size="10.00">+</text>
<text text-anchor="start" x="302" y="-455.5" font-family="Cascadia Code NF" font-size="10.00">kParentTemplateOffset</text>
<text text-anchor="start" x="288" y="-439.5" font-family="Cascadia Code NF" font-size="10.00">+</text>
<text text-anchor="start" x="302" y="-439.5" font-family="Cascadia Code NF" font-size="10.00">kParentTemplateOffsetEnd</text>
<text text-anchor="start" x="288" y="-423.5" font-family="Cascadia Code NF" font-size="10.00">+</text>
<text text-anchor="start" x="302" y="-423.5" font-family="Cascadia Code NF" font-size="10.00">kNamedPropertyHandlerOffset</text>
<text text-anchor="start" x="288" y="-407.5" font-family="Cascadia Code NF" font-size="10.00">+</text>
<text text-anchor="start" x="302" y="-407.5" font-family="Cascadia Code NF" font-size="10.00">kNamedPropertyHandlerOffsetEnd</text>
<text text-anchor="start" x="288" y="-391.5" font-family="Cascadia Code NF" font-size="10.00">+</text>
<text text-anchor="start" x="302" y="-391.5" font-family="Cascadia Code NF" font-size="10.00">kInstanceTemplateOffset</text>
<text text-anchor="start" x="288" y="-375.5" font-family="Cascadia Code NF" font-size="10.00">+</text>
<text text-anchor="start" x="302" y="-375.5" font-family="Cascadia Code NF" font-size="10.00">kInstanceTemplateOffsetEnd</text>
<text text-anchor="start" x="288" y="-359.5" font-family="Cascadia Code NF" font-size="10.00">+</text>
<text text-anchor="start" x="302" y="-359.5" font-family="Cascadia Code NF" font-size="10.00">kInstanceCallHandlerOffsetEnd</text>
<text text-anchor="start" x="288" y="-343.5" font-family="Cascadia Code NF" font-size="10.00">+</text>
<text text-anchor="start" x="302" y="-343.5" font-family="Cascadia Code NF" font-size="10.00">kStartOfWeakFieldsOffset</text>
<text text-anchor="start" x="288" y="-327.5" font-family="Cascadia Code NF" font-size="10.00">+</text>
<text text-anchor="start" x="302" y="-327.5" font-family="Cascadia Code NF" font-size="10.00">kSize</text>
<text text-anchor="start" x="288" y="-311.5" font-family="Cascadia Code NF" font-size="10.00">+</text>
<text text-anchor="start" x="302" y="-311.5" font-family="Cascadia Code NF" font-size="10.00">prototype_template()</text>
<text text-anchor="start" x="288" y="-295.5" font-family="Cascadia Code NF" font-size="10.00">+</text>
<text text-anchor="start" x="302" y="-295.5" font-family="Cascadia Code NF" font-size="10.00">prototype_template()</text>
<text text-anchor="start" x="288" y="-279.5" font-family="Cascadia Code NF" font-size="10.00">+</text>
<text text-anchor="start" x="302" y="-279.5" font-family="Cascadia Code NF" font-size="10.00">set_prototype_template()</text>
<text text-anchor="start" x="288" y="-263.5" font-family="Cascadia Code NF" font-size="10.00">+</text>
<text text-anchor="start" x="302" y="-263.5" font-family="Cascadia Code NF" font-size="10.00">prototype_provider</text>
<text text-anchor="start" x="302" y="-250.75" font-family="Cascadia Code NF" font-size="10.00">_template()</text>
<text text-anchor="start" x="288" y="-234.5" font-family="Cascadia Code NF" font-size="10.00">+</text>
<text text-anchor="start" x="302" y="-234.5" font-family="Cascadia Code NF" font-size="10.00">prototype_provider</text>
<text text-anchor="start" x="302" y="-221.75" font-family="Cascadia Code NF" font-size="10.00">_template()</text>
<text text-anchor="start" x="288" y="-205.5" font-family="Cascadia Code NF" font-size="10.00">+</text>
<text text-anchor="start" x="302" y="-205.5" font-family="Cascadia Code NF" font-size="10.00">set_prototype_provider</text>
<text text-anchor="start" x="302" y="-192.75" font-family="Cascadia Code NF" font-size="10.00">_template()</text>
<text text-anchor="start" x="288" y="-176.5" font-family="Cascadia Code NF" font-size="10.00">+</text>
<text text-anchor="start" x="302" y="-176.5" font-family="Cascadia Code NF" font-size="10.00">parent_template()</text>
<text text-anchor="start" x="288" y="-160.5" font-family="Cascadia Code NF" font-size="10.00">+</text>
<text text-anchor="start" x="302" y="-160.5" font-family="Cascadia Code NF" font-size="10.00">parent_template()</text>
<text text-anchor="start" x="288" y="-144.5" font-family="Cascadia Code NF" font-size="10.00">+</text>
<text text-anchor="start" x="302" y="-144.5" font-family="Cascadia Code NF" font-size="10.00">set_parent_template()</text>
<text text-anchor="start" x="288" y="-128.5" font-family="Cascadia Code NF" font-size="10.00">+</text>
<text text-anchor="start" x="302" y="-128.5" font-family="Cascadia Code NF" font-size="10.00">named_property_handler()</text>
<text text-anchor="start" x="302" y="-112.5" font-family="Cascadia Code NF" font-size="10.00">and 19 more...</text>
<text text-anchor="start" x="288" y="-96.5" font-family="Cascadia Code NF" font-size="10.00">+</text>
<text text-anchor="start" x="302" y="-96.5" font-family="Cascadia Code NF" font-size="10.00">cast()</text>
<text text-anchor="start" x="288" y="-80.5" font-family="Cascadia Code NF" font-size="10.00">+</text>
<text text-anchor="start" x="302" y="-80.5" font-family="Cascadia Code NF" font-size="10.00">unchecked_cast()</text>
<text text-anchor="start" x="288" y="-64.5" font-family="Cascadia Code NF" font-size="10.00">+</text>
<text text-anchor="start" x="302" y="-64.5" font-family="Cascadia Code NF" font-size="10.00">SizeFor()</text>
<text text-anchor="start" x="288" y="-48.5" font-family="Cascadia Code NF" font-size="10.00">#</text>
<text text-anchor="start" x="302" y="-48.5" font-family="Cascadia Code NF" font-size="10.00">TorqueGeneratedFunctionTemplate</text>
<text text-anchor="start" x="302" y="-35.75" font-family="Cascadia Code NF" font-size="10.00">RareData()</text>
<text text-anchor="start" x="288" y="-19.5" font-family="Cascadia Code NF" font-size="10.00">#</text>
<text text-anchor="start" x="302" y="-19.5" font-family="Cascadia Code NF" font-size="10.00">TorqueGeneratedFunctionTemplate</text>
<text text-anchor="start" x="302" y="-6.75" font-family="Cascadia Code NF" font-size="10.00">RareData()</text>
<polygon fill="#bfbfbf" stroke="#bfbfbf" points="280,-573 280,-573 500,-573 500,-573 280,-573"/>
<polygon fill="#bfbfbf" stroke="#bfbfbf" points="280,-323 280,-323 300,-323 300,-323 280,-323"/>
<polygon fill="#bfbfbf" stroke="#bfbfbf" points="300,-323 300,-323 500,-323 500,-323 300,-323"/>
<polygon fill="none" stroke="#bfbfbf" points="280,0 280,-617 500,-617 500,0 280,0"/>
</a>
</g>
</g>
<!-- Node2&#45;&gt;Node1 -->
<g id="edge1_Node000001_Node000002" class="edge">
<title>Node2&#45;&gt;Node1</title>
<g id="a_edge1_Node000001_Node000002"><a xlink:title=" ">
<path fill="none" stroke="#63b8ff" d="M511.13,-308.5C519.56,-308.5 527.98,-308.5 536.22,-308.5"/>
<polygon fill="none" stroke="#63b8ff" points="511.17,-305 501.17,-308.5 511.17,-312 511.17,-305"/>
</a>
</g>
</g>
<!-- Node3 -->
<g id="Node000003" class="node">
<title>Node3</title>
<g id="a_Node000003"><a xlink:title=" ">
<polygon fill="white" stroke="none" points="46,-416.5 0,-416.5 0,-364.5 46,-364.5 46,-416.5"/>
<text text-anchor="start" x="5" y="-403" font-family="Cascadia Code NF" font-size="10.00">Struct</text>
<text text-anchor="start" x="20" y="-387" font-family="Cascadia Code NF" font-size="10.00"> </text>
<text text-anchor="start" x="20" y="-371" font-family="Cascadia Code NF" font-size="10.00"> </text>
<polygon fill="#bfbfbf" stroke="#bfbfbf" points="0,-398.5 0,-398.5 46,-398.5 46,-398.5 0,-398.5"/>
<polygon fill="#bfbfbf" stroke="#bfbfbf" points="0,-382.5 0,-382.5 46,-382.5 46,-382.5 0,-382.5"/>
<polygon fill="none" stroke="#bfbfbf" points="0,-364.5 0,-416.5 46,-416.5 46,-364.5 0,-364.5"/>
</a>
</g>
</g>
<!-- Node3&#45;&gt;Node2 -->
<g id="edge2_Node000002_Node000003" class="edge">
<title>Node3&#45;&gt;Node2</title>
<g id="a_edge2_Node000002_Node000003"><a xlink:title=" ">
<path fill="none" stroke="#63b8ff" d="M57.27,-391.04C103.88,-390.99 190.9,-387.93 262,-368.5 268,-366.86 274.06,-364.95 280.12,-362.85"/>
<polygon fill="none" stroke="#63b8ff" points="57.31,-387.54 47.29,-391 57.28,-394.54 57.31,-387.54"/>
</a>
</g>
</g>
<!-- Node4 -->
<g id="Node000004" class="node">
<title>Node4</title>
<g id="a_Node000004"><a xlink:href="../../d1/da0/classint.html" target="_top" xlink:title=" ">
<polygon fill="white" stroke="none" points="37,-253.5 9,-253.5 9,-201.5 37,-201.5 37,-253.5"/>
<text text-anchor="start" x="14" y="-240" font-family="Cascadia Code NF" font-size="10.00">int</text>
<text text-anchor="start" x="20" y="-224" font-family="Cascadia Code NF" font-size="10.00"> </text>
<text text-anchor="start" x="20" y="-208" font-family="Cascadia Code NF" font-size="10.00"> </text>
<polygon fill="#bfbfbf" stroke="#bfbfbf" points="9,-235.5 9,-235.5 37,-235.5 37,-235.5 9,-235.5"/>
<polygon fill="#bfbfbf" stroke="#bfbfbf" points="9,-219.5 9,-219.5 37,-219.5 37,-219.5 9,-219.5"/>
<polygon fill="none" stroke="#bfbfbf" points="9,-201.5 9,-253.5 37,-253.5 37,-201.5 9,-201.5"/>
</a>
</g>
</g>
<!-- Node4&#45;&gt;Node2 -->
<g id="edge3_Node000002_Node000004" class="edge">
<title>Node4&#45;&gt;Node2</title>
<g id="a_edge3_Node000002_Node000004"><a xlink:title=" ">
<path fill="none" stroke="#63b8ff" d="M37,-225.08C73.43,-218.81 179.28,-204.16 262,-228.25 264.11,-228.86 266.22,-229.52 268.32,-230.23"/>
<polygon fill="none" stroke="#63b8ff" points="268.23,-230.19 275.25,-228.54 279.47,-234.38 272.45,-236.04 268.23,-230.19"/>
</a>
</g>
<text text-anchor="middle" x="163" y="-358.25" font-family="Cascadia Code NF" font-size="10.00" fill="grey"> +kAccessCheckInfoOffset</text>
<text text-anchor="middle" x="163" y="-345.5" font-family="Cascadia Code NF" font-size="10.00" fill="grey">+kAccessCheckInfoOffsetEnd</text>
<text text-anchor="middle" x="163" y="-332.75" font-family="Cascadia Code NF" font-size="10.00" fill="grey">+kCFunctionOverloadsOffset</text>
<text text-anchor="middle" x="163" y="-320" font-family="Cascadia Code NF" font-size="10.00" fill="grey">+kCFunctionOverloadsOffsetEnd</text>
<text text-anchor="middle" x="163" y="-307.25" font-family="Cascadia Code NF" font-size="10.00" fill="grey">+kEndOfStrongFieldsOffset</text>
<text text-anchor="middle" x="163" y="-294.5" font-family="Cascadia Code NF" font-size="10.00" fill="grey">+kEndOfWeakFieldsOffset</text>
<text text-anchor="middle" x="163" y="-281.75" font-family="Cascadia Code NF" font-size="10.00" fill="grey">+kHeaderSize</text>
<text text-anchor="middle" x="163" y="-269" font-family="Cascadia Code NF" font-size="10.00" fill="grey">+kIndexedPropertyHandlerOffset</text>
<text text-anchor="middle" x="163" y="-256.25" font-family="Cascadia Code NF" font-size="10.00" fill="grey">+kIndexedPropertyHandlerOffsetEnd</text>
<text text-anchor="middle" x="163" y="-243.5" font-family="Cascadia Code NF" font-size="10.00" fill="grey">+kInstanceCallHandlerOffset</text>
<text text-anchor="middle" x="163" y="-230.75" font-family="Cascadia Code NF" font-size="10.00" fill="grey">...</text>
</g>
</g>
</svg>

<g id="navigator" transform="translate(0 0)" fill="#404254">
  <rect fill="#f2f5e9" fill-opacity="0.5" stroke="#606060" stroke-width=".5" x="0" y="0" width="60" height="60"/>
  <use id="zoomplus" xlink:href="#zoomPlus" x="17" y="9" onmousedown="handleZoom(evt,'in')"/>
  <use id="zoomminus" xlink:href="#zoomMin" x="42" y="9" onmousedown="handleZoom(evt,'out')"/>
  <use id="reset" xlink:href="#resetDef" x="30" y="36" onmousedown="handleReset()"/>
   <use id="arrowup" xlink:href="#arrowUp" x="0" y="0" onmousedown="handlePan(0,-1)"/>
  <use id="arrowright" xlink:href="#arrowRight" x="0" y="0" onmousedown="handlePan(1,0)"/>
  <use id="arrowdown" xlink:href="#arrowDown" x="0" y="0" onmousedown="handlePan(0,1)"/>
  <use id="arrowleft" xlink:href="#arrowLeft" x="0" y="0" onmousedown="handlePan(-1,0)"/>
</g>
<svg viewBox="0 0 15 15" width="100%" height="30px" preserveAspectRatio="xMaxYMin meet">
 <g id="arrow_out" transform="scale(0.3 0.3)">
  <a xlink:href="classv8_1_1internal_1_1FunctionTemplateRareData__coll__graph_org.svg" target="_base">
   <rect id="button" ry="5" rx="5" y="6" x="6" height="38" width="38"
        fill="#f2f5e9" fill-opacity="0.5" stroke="#606060" stroke-width="1.0"/>
   <path id="arrow"
     d="M 11.500037,31.436501 C 11.940474,20.09759 22.043105,11.32322 32.158766,21.979434 L 37.068811,17.246167 C 37.068811,17.246167 37.088388,32 37.088388,32 L 22.160133,31.978069 C 22.160133,31.978069 26.997745,27.140456 26.997745,27.140456 C 18.528582,18.264221 13.291696,25.230495 11.500037,31.436501 z"
     style="fill:#404040;"/>
  </a>
 </g>
</svg>

<style type='text/css'>
<![CDATA[
[data-mouse-over-selected='false'] { opacity: 0.7; }
[data-mouse-over-selected='true']  { opacity: 1.0; }
]]>
</style>
<script type="application/ecmascript"><![CDATA[
document.addEventListener('DOMContentLoaded', (event) => {
  highlightEdges();
  highlightAdjacentNodes();
});
]]></script>
</svg>
