<?xml version="1.0" encoding="UTF-8" standalone="no"?>
<!DOCTYPE svg PUBLIC "-//W3C//DTD SVG 1.1//EN"
 "http://www.w3.org/Graphics/SVG/1.1/DTD/svg11.dtd">
<!-- Generated by graphviz version 11.0.0 (20240428.1522)
 -->
<!-- Title: v8::internal::TurboshaftWord32RangeType Pages: 1 -->
<svg width="572pt" height="429pt"
 viewBox="0.00 0.00 572.00 429.00" xmlns="http://www.w3.org/2000/svg" xmlns:xlink="http://www.w3.org/1999/xlink">
<g id="graph0" class="graph" transform="scale(1 1) rotate(0) translate(4 425)">
<title>v8::internal::TurboshaftWord32RangeType</title>
<!-- Node1 -->
<g id="Node000001" class="node">
<title>Node1</title>
<g id="a_Node000001"><a xlink:title=" ">
<polygon fill="#999999" stroke="none" points="564,-243 410,-243 410,-178 564,-178 564,-243"/>
<text text-anchor="start" x="415" y="-229.5" font-family="Cascadia Code NF" font-size="10.00">v8::internal::Turboshaft</text>
<text text-anchor="start" x="442" y="-216.75" font-family="Cascadia Code NF" font-size="10.00">Word32RangeType</text>
<text text-anchor="start" x="484" y="-200.5" font-family="Cascadia Code NF" font-size="10.00"> </text>
<text text-anchor="start" x="484" y="-184.5" font-family="Cascadia Code NF" font-size="10.00"> </text>
<polygon fill="#666666" stroke="#666666" points="410,-212 410,-212 564,-212 564,-212 410,-212"/>
<polygon fill="#666666" stroke="#666666" points="410,-196 410,-196 564,-196 564,-196 410,-196"/>
<polygon fill="none" stroke="#666666" points="410,-178 410,-243 564,-243 564,-178 410,-178"/>
</a>
</g>
</g>
<!-- Node2 -->
<g id="Node000002" class="node">
<title>Node2</title>
<g id="a_Node000002"><a xlink:href="$da/dfc/classTorqueGeneratedTurboshaftWord32RangeType.html" xlink:title=" ">
<polygon fill="white" stroke="none" points="374,-421 166,-421 166,0 374,0 374,-421"/>
<text text-anchor="start" x="171" y="-407.5" font-family="Cascadia Code NF" font-size="10.00">TorqueGeneratedTurboshaft</text>
<text text-anchor="start" x="171" y="-394.75" font-family="Cascadia Code NF" font-size="10.00">Word32RangeType&lt; TurboshaftWord32</text>
<text text-anchor="start" x="171" y="-382" font-family="Cascadia Code NF" font-size="10.00">RangeType, TurboshaftWord32Type &gt;</text>
<text text-anchor="start" x="178.5" y="-365.5" font-family="Cascadia Code NF" font-size="10.00">+</text>
<text text-anchor="start" x="197" y="-365.5" font-family="Cascadia Code NF" font-size="10.00">kFromOffset</text>
<text text-anchor="start" x="178.5" y="-349.5" font-family="Cascadia Code NF" font-size="10.00">+</text>
<text text-anchor="start" x="197" y="-349.5" font-family="Cascadia Code NF" font-size="10.00">kFromOffsetEnd</text>
<text text-anchor="start" x="178.5" y="-333.5" font-family="Cascadia Code NF" font-size="10.00">+</text>
<text text-anchor="start" x="197" y="-333.5" font-family="Cascadia Code NF" font-size="10.00">kToOffset</text>
<text text-anchor="start" x="178.5" y="-317.5" font-family="Cascadia Code NF" font-size="10.00">+</text>
<text text-anchor="start" x="197" y="-317.5" font-family="Cascadia Code NF" font-size="10.00">kToOffsetEnd</text>
<text text-anchor="start" x="178.5" y="-301.5" font-family="Cascadia Code NF" font-size="10.00">+</text>
<text text-anchor="start" x="197" y="-301.5" font-family="Cascadia Code NF" font-size="10.00">kStartOfWeakFieldsOffset</text>
<text text-anchor="start" x="178.5" y="-285.5" font-family="Cascadia Code NF" font-size="10.00">+</text>
<text text-anchor="start" x="197" y="-285.5" font-family="Cascadia Code NF" font-size="10.00">kEndOfWeakFieldsOffset</text>
<text text-anchor="start" x="178.5" y="-269.5" font-family="Cascadia Code NF" font-size="10.00">+</text>
<text text-anchor="start" x="197" y="-269.5" font-family="Cascadia Code NF" font-size="10.00">kStartOfStrongFieldsOffset</text>
<text text-anchor="start" x="178.5" y="-253.5" font-family="Cascadia Code NF" font-size="10.00">+</text>
<text text-anchor="start" x="197" y="-253.5" font-family="Cascadia Code NF" font-size="10.00">kEndOfStrongFieldsOffset</text>
<text text-anchor="start" x="178.5" y="-237.5" font-family="Cascadia Code NF" font-size="10.00">+</text>
<text text-anchor="start" x="197" y="-237.5" font-family="Cascadia Code NF" font-size="10.00">kHeaderSize</text>
<text text-anchor="start" x="178.5" y="-221.5" font-family="Cascadia Code NF" font-size="10.00">+</text>
<text text-anchor="start" x="197" y="-221.5" font-family="Cascadia Code NF" font-size="10.00">kSize</text>
<text text-anchor="start" x="178.5" y="-205.5" font-family="Cascadia Code NF" font-size="10.00">+</text>
<text text-anchor="start" x="197" y="-205.5" font-family="Cascadia Code NF" font-size="10.00">from()</text>
<text text-anchor="start" x="178.5" y="-189.5" font-family="Cascadia Code NF" font-size="10.00">+</text>
<text text-anchor="start" x="197" y="-189.5" font-family="Cascadia Code NF" font-size="10.00">set_from()</text>
<text text-anchor="start" x="178.5" y="-173.5" font-family="Cascadia Code NF" font-size="10.00">+</text>
<text text-anchor="start" x="197" y="-173.5" font-family="Cascadia Code NF" font-size="10.00">to()</text>
<text text-anchor="start" x="178.5" y="-157.5" font-family="Cascadia Code NF" font-size="10.00">+</text>
<text text-anchor="start" x="197" y="-157.5" font-family="Cascadia Code NF" font-size="10.00">set_to()</text>
<text text-anchor="start" x="178.5" y="-141.5" font-family="Cascadia Code NF" font-size="10.00">+</text>
<text text-anchor="start" x="197" y="-141.5" font-family="Cascadia Code NF" font-size="10.00">AllocatedSize()</text>
<text text-anchor="start" x="178.5" y="-125.5" font-family="Cascadia Code NF" font-size="10.00">+</text>
<text text-anchor="start" x="197" y="-125.5" font-family="Cascadia Code NF" font-size="10.00">TorqueGeneratedTurboshaft</text>
<text text-anchor="start" x="197" y="-112.75" font-family="Cascadia Code NF" font-size="10.00">Word32RangeType()</text>
<text text-anchor="start" x="178.5" y="-96.5" font-family="Cascadia Code NF" font-size="10.00">+</text>
<text text-anchor="start" x="197" y="-96.5" font-family="Cascadia Code NF" font-size="10.00">cast()</text>
<text text-anchor="start" x="178.5" y="-80.5" font-family="Cascadia Code NF" font-size="10.00">+</text>
<text text-anchor="start" x="197" y="-80.5" font-family="Cascadia Code NF" font-size="10.00">unchecked_cast()</text>
<text text-anchor="start" x="178.5" y="-64.5" font-family="Cascadia Code NF" font-size="10.00">+</text>
<text text-anchor="start" x="197" y="-64.5" font-family="Cascadia Code NF" font-size="10.00">SizeFor()</text>
<text text-anchor="start" x="178.5" y="-48.5" font-family="Cascadia Code NF" font-size="10.00">#</text>
<text text-anchor="start" x="197" y="-48.5" font-family="Cascadia Code NF" font-size="10.00">TorqueGeneratedTurboshaft</text>
<text text-anchor="start" x="197" y="-35.75" font-family="Cascadia Code NF" font-size="10.00">Word32RangeType()</text>
<text text-anchor="start" x="178.5" y="-19.5" font-family="Cascadia Code NF" font-size="10.00">#</text>
<text text-anchor="start" x="197" y="-19.5" font-family="Cascadia Code NF" font-size="10.00">TorqueGeneratedTurboshaft</text>
<text text-anchor="start" x="197" y="-6.75" font-family="Cascadia Code NF" font-size="10.00">Word32RangeType()</text>
<polygon fill="#bfbfbf" stroke="#bfbfbf" points="166,-377 166,-377 374,-377 374,-377 166,-377"/>
<polygon fill="#bfbfbf" stroke="#bfbfbf" points="166,-217 166,-217 195,-217 195,-217 166,-217"/>
<polygon fill="#bfbfbf" stroke="#bfbfbf" points="195,-217 195,-217 374,-217 374,-217 195,-217"/>
<polygon fill="none" stroke="#bfbfbf" points="166,0 166,-421 374,-421 374,0 166,0"/>
</a>
</g>
</g>
<!-- Node2&#45;&gt;Node1 -->
<g id="edge1_Node000001_Node000002" class="edge">
<title>Node2&#45;&gt;Node1</title>
<g id="a_edge1_Node000001_Node000002"><a xlink:title=" ">
<path fill="none" stroke="#63b8ff" d="M385.03,-210.5C393.58,-210.5 402.08,-210.5 410.3,-210.5"/>
<polygon fill="none" stroke="#63b8ff" points="385.29,-207 375.29,-210.5 385.29,-214 385.29,-207"/>
</a>
</g>
</g>
<!-- Node3 -->
<g id="Node000003" class="node">
<title>Node3</title>
<g id="a_Node000003"><a xlink:title=" ">
<polygon fill="white" stroke="none" points="130,-236.5 0,-236.5 0,-184.5 130,-184.5 130,-236.5"/>
<text text-anchor="start" x="5" y="-223" font-family="Cascadia Code NF" font-size="10.00">TurboshaftWord32Type</text>
<text text-anchor="start" x="62" y="-207" font-family="Cascadia Code NF" font-size="10.00"> </text>
<text text-anchor="start" x="62" y="-191" font-family="Cascadia Code NF" font-size="10.00"> </text>
<polygon fill="#bfbfbf" stroke="#bfbfbf" points="0,-218.5 0,-218.5 130,-218.5 130,-218.5 0,-218.5"/>
<polygon fill="#bfbfbf" stroke="#bfbfbf" points="0,-202.5 0,-202.5 130,-202.5 130,-202.5 0,-202.5"/>
<polygon fill="none" stroke="#bfbfbf" points="0,-184.5 0,-236.5 130,-236.5 130,-184.5 0,-184.5"/>
</a>
</g>
</g>
<!-- Node3&#45;&gt;Node2 -->
<g id="edge2_Node000002_Node000003" class="edge">
<title>Node3&#45;&gt;Node2</title>
<g id="a_edge2_Node000002_Node000003"><a xlink:title=" ">
<path fill="none" stroke="#63b8ff" d="M141.33,-210.5C149.51,-210.5 157.93,-210.5 166.37,-210.5"/>
<polygon fill="none" stroke="#63b8ff" points="141.47,-207 131.47,-210.5 141.47,-214 141.47,-207"/>
</a>
</g>
</g>
</g>
</svg>
