<?xml version="1.0" encoding="UTF-8" standalone="no"?>
<!DOCTYPE svg PUBLIC "-//W3C//DTD SVG 1.1//EN"
 "http://www.w3.org/Graphics/SVG/1.1/DTD/svg11.dtd">
<!-- Generated by graphviz version 11.0.0 (20240428.1522)
 -->
<!-- Title: v8::internal::compiler::PairLoadStoreReducer Pages: 1 -->
<svg width="354pt" height="105pt"
 viewBox="0.00 0.00 354.00 105.00" xmlns="http://www.w3.org/2000/svg" xmlns:xlink="http://www.w3.org/1999/xlink">
<g id="graph0" class="graph" transform="scale(1 1) rotate(0) translate(4 101)">
<title>v8::internal::compiler::PairLoadStoreReducer</title>
<!-- Node1 -->
<g id="Node000001" class="node">
<title>Node1</title>
<g id="a_Node000001"><a xlink:title=" ">
<polygon fill="#999999" stroke="none" points="346,-97 196,-97 196,0 346,0 346,-97"/>
<text text-anchor="start" x="205" y="-83.5" font-family="Cascadia Code NF" font-size="10.00">v8::internal::compiler</text>
<text text-anchor="start" x="205" y="-70.75" font-family="Cascadia Code NF" font-size="10.00">::PairLoadStoreReducer</text>
<text text-anchor="start" x="268" y="-54.5" font-family="Cascadia Code NF" font-size="10.00"> </text>
<text text-anchor="start" x="200" y="-38.5" font-family="Cascadia Code NF" font-size="10.00">+</text>
<text text-anchor="start" x="210" y="-38.5" font-family="Cascadia Code NF" font-size="10.00">PairLoadStoreReducer()</text>
<text text-anchor="start" x="200" y="-22.5" font-family="Cascadia Code NF" font-size="10.00">+</text>
<text text-anchor="start" x="210" y="-22.5" font-family="Cascadia Code NF" font-size="10.00">reducer_name()</text>
<text text-anchor="start" x="200" y="-6.5" font-family="Cascadia Code NF" font-size="10.00">+</text>
<text text-anchor="start" x="210" y="-6.5" font-family="Cascadia Code NF" font-size="10.00">Reduce()</text>
<polygon fill="#666666" stroke="#666666" points="196,-66 196,-66 346,-66 346,-66 196,-66"/>
<polygon fill="#666666" stroke="#666666" points="196,-50 196,-50 346,-50 346,-50 196,-50"/>
<polygon fill="none" stroke="#666666" points="196,0 196,-97 346,-97 346,0 196,0"/>
</a>
</g>
</g>
<!-- Node2 -->
<g id="Node000002" class="node">
<title>Node2</title>
<g id="a_Node000002"><a xlink:href="../../d1/dd7/classNON__EXPORTED__BASEAdvancedReducer.html" target="_top" xlink:title=" ">
<polygon fill="white" stroke="none" points="160,-81 0,-81 0,-16 160,-16 160,-81"/>
<text text-anchor="start" x="5" y="-67.5" font-family="Cascadia Code NF" font-size="10.00">NON_EXPORTED_BASEAdvanced</text>
<text text-anchor="start" x="59" y="-54.75" font-family="Cascadia Code NF" font-size="10.00">Reducer</text>
<text text-anchor="start" x="77" y="-38.5" font-family="Cascadia Code NF" font-size="10.00"> </text>
<text text-anchor="start" x="77" y="-22.5" font-family="Cascadia Code NF" font-size="10.00"> </text>
<polygon fill="#bfbfbf" stroke="#bfbfbf" points="0,-50 0,-50 160,-50 160,-50 0,-50"/>
<polygon fill="#bfbfbf" stroke="#bfbfbf" points="0,-34 0,-34 160,-34 160,-34 0,-34"/>
<polygon fill="none" stroke="#bfbfbf" points="0,-16 0,-81 160,-81 160,-16 0,-16"/>
</a>
</g>
</g>
<!-- Node2&#45;&gt;Node1 -->
<g id="edge1_Node000001_Node000002" class="edge">
<title>Node2&#45;&gt;Node1</title>
<g id="a_edge1_Node000001_Node000002"><a xlink:title=" ">
<path fill="none" stroke="#63b8ff" d="M171.16,-48.5C179.55,-48.5 187.97,-48.5 196.18,-48.5"/>
<polygon fill="none" stroke="#63b8ff" points="171.3,-45 161.3,-48.5 171.3,-52 171.3,-45"/>
</a>
</g>
</g>
</g>
</svg>
