<?xml version="1.0" encoding="UTF-8" standalone="no"?>
<!DOCTYPE svg PUBLIC "-//W3C//DTD SVG 1.1//EN"
 "http://www.w3.org/Graphics/SVG/1.1/DTD/svg11.dtd">
<!-- Generated by graphviz version 11.0.0 (20240428.1522)
 -->
<!-- Title: v8::internal::FeedbackVectorSpec Pages: 1 -->
<svg width="210pt" height="233pt"
 viewBox="0.00 0.00 210.00 233.00" xmlns="http://www.w3.org/2000/svg" xmlns:xlink="http://www.w3.org/1999/xlink">
<g id="graph0" class="graph" transform="scale(1 1) rotate(0) translate(4 229)">
<title>v8::internal::FeedbackVectorSpec</title>
<!-- Node1 -->
<g id="Node000001" class="node">
<title>Node1</title>
<g id="a_Node000001"><a xlink:title=" ">
<polygon fill="#999999" stroke="none" points="202,-225 0,-225 0,0 202,0 202,-225"/>
<text text-anchor="start" x="5" y="-211.5" font-family="Cascadia Code NF" font-size="10.00">v8::internal::FeedbackVectorSpec</text>
<text text-anchor="start" x="98" y="-195.5" font-family="Cascadia Code NF" font-size="10.00"> </text>
<text text-anchor="start" x="17" y="-179.5" font-family="Cascadia Code NF" font-size="10.00">+</text>
<text text-anchor="start" x="40" y="-179.5" font-family="Cascadia Code NF" font-size="10.00">FeedbackVectorSpec()</text>
<text text-anchor="start" x="17" y="-163.5" font-family="Cascadia Code NF" font-size="10.00">+</text>
<text text-anchor="start" x="40" y="-163.5" font-family="Cascadia Code NF" font-size="10.00">slot_count()</text>
<text text-anchor="start" x="17" y="-147.5" font-family="Cascadia Code NF" font-size="10.00">+</text>
<text text-anchor="start" x="40" y="-147.5" font-family="Cascadia Code NF" font-size="10.00">create_closure_slot</text>
<text text-anchor="start" x="40" y="-134.75" font-family="Cascadia Code NF" font-size="10.00">_count()</text>
<text text-anchor="start" x="17" y="-118.5" font-family="Cascadia Code NF" font-size="10.00">+</text>
<text text-anchor="start" x="40" y="-118.5" font-family="Cascadia Code NF" font-size="10.00">AddCreateClosureSlot()</text>
<text text-anchor="start" x="17" y="-102.5" font-family="Cascadia Code NF" font-size="10.00">+</text>
<text text-anchor="start" x="40" y="-102.5" font-family="Cascadia Code NF" font-size="10.00">GetKind()</text>
<text text-anchor="start" x="17" y="-86.5" font-family="Cascadia Code NF" font-size="10.00">+</text>
<text text-anchor="start" x="40" y="-86.5" font-family="Cascadia Code NF" font-size="10.00">AddCallICSlot()</text>
<text text-anchor="start" x="17" y="-70.5" font-family="Cascadia Code NF" font-size="10.00">+</text>
<text text-anchor="start" x="40" y="-70.5" font-family="Cascadia Code NF" font-size="10.00">AddLoadICSlot()</text>
<text text-anchor="start" x="17" y="-54.5" font-family="Cascadia Code NF" font-size="10.00">+</text>
<text text-anchor="start" x="40" y="-54.5" font-family="Cascadia Code NF" font-size="10.00">AddLoadGlobalICSlot()</text>
<text text-anchor="start" x="17" y="-38.5" font-family="Cascadia Code NF" font-size="10.00">+</text>
<text text-anchor="start" x="40" y="-38.5" font-family="Cascadia Code NF" font-size="10.00">AddKeyedLoadICSlot()</text>
<text text-anchor="start" x="17" y="-22.5" font-family="Cascadia Code NF" font-size="10.00">+</text>
<text text-anchor="start" x="40" y="-22.5" font-family="Cascadia Code NF" font-size="10.00">AddKeyedHasICSlot()</text>
<text text-anchor="start" x="40" y="-6.5" font-family="Cascadia Code NF" font-size="10.00">and 16 more...</text>
<polygon fill="#666666" stroke="#666666" points="0,-207 0,-207 202,-207 202,-207 0,-207"/>
<polygon fill="#666666" stroke="#666666" points="0,-191 0,-191 202,-191 202,-191 0,-191"/>
<polygon fill="none" stroke="#666666" points="0,0 0,-225 202,-225 202,0 0,0"/>
</a>
</g>
</g>
</g>
</svg>
