<?xml version="1.0" encoding="UTF-8" standalone="no"?>
<!DOCTYPE svg PUBLIC "-//W3C//DTD SVG 1.1//EN"
 "http://www.w3.org/Graphics/SVG/1.1/DTD/svg11.dtd">
<!-- Generated by graphviz version 11.0.0 (20240428.1522)
 -->
<!-- Title: v8::base::MemoryRegion Pages: 1 -->
<svg width="494pt" height="417pt"
 viewBox="0.00 0.00 494.00 416.50" xmlns="http://www.w3.org/2000/svg" xmlns:xlink="http://www.w3.org/1999/xlink">
<g id="graph0" class="graph" transform="scale(1 1) rotate(0) translate(4 412.5)">
<title>v8::base::MemoryRegion</title>
<!-- Node1 -->
<g id="Node000001" class="node">
<title>Node1</title>
<g id="a_Node000001"><a xlink:title=" ">
<polygon fill="#999999" stroke="none" points="486,-233.5 344,-233.5 344,-181.5 486,-181.5 486,-233.5"/>
<text text-anchor="start" x="349" y="-220" font-family="Cascadia Code NF" font-size="10.00">v8::base::MemoryRegion</text>
<text text-anchor="start" x="412" y="-204" font-family="Cascadia Code NF" font-size="10.00"> </text>
<text text-anchor="start" x="358" y="-188" font-family="Cascadia Code NF" font-size="10.00">+</text>
<text text-anchor="start" x="378" y="-188" font-family="Cascadia Code NF" font-size="10.00">FromMapsLine()</text>
<polygon fill="#666666" stroke="#666666" points="344,-215.5 344,-215.5 486,-215.5 486,-215.5 344,-215.5"/>
<polygon fill="#666666" stroke="#666666" points="344,-199.5 344,-199.5 486,-199.5 486,-199.5 344,-199.5"/>
<polygon fill="none" stroke="#666666" points="344,-181.5 344,-233.5 486,-233.5 486,-181.5 344,-181.5"/>
</a>
</g>
</g>
<!-- Node2 -->
<g id="Node000002" class="node">
<title>Node2</title>
<g id="a_Node000002"><a xlink:href="$d0/d60/classuintptr__t.html" xlink:title=" ">
<polygon fill="white" stroke="none" points="224,-408.5 160,-408.5 160,-356.5 224,-356.5 224,-408.5"/>
<text text-anchor="start" x="165" y="-395" font-family="Cascadia Code NF" font-size="10.00">uintptr_t</text>
<text text-anchor="start" x="189" y="-379" font-family="Cascadia Code NF" font-size="10.00"> </text>
<text text-anchor="start" x="189" y="-363" font-family="Cascadia Code NF" font-size="10.00"> </text>
<polygon fill="#bfbfbf" stroke="#bfbfbf" points="160,-390.5 160,-390.5 224,-390.5 224,-390.5 160,-390.5"/>
<polygon fill="#bfbfbf" stroke="#bfbfbf" points="160,-374.5 160,-374.5 224,-374.5 224,-374.5 160,-374.5"/>
<polygon fill="none" stroke="#bfbfbf" points="160,-356.5 160,-408.5 224,-408.5 224,-356.5 160,-356.5"/>
</a>
</g>
</g>
<!-- Node2&#45;&gt;Node1 -->
<g id="edge1_Node000001_Node000002" class="edge">
<title>Node2&#45;&gt;Node1</title>
<g id="a_edge1_Node000001_Node000002"><a xlink:title=" ">
<path fill="none" stroke="#63b8ff" d="M223.86,-366.82C251.86,-351.9 293.59,-327.85 326,-301.5 347.37,-284.13 368.55,-261.71 384.77,-243.12"/>
<polygon fill="none" stroke="#63b8ff" points="384.84,-243.04 385.72,-235.88 392.66,-233.93 391.79,-241.09 384.84,-243.04"/>
</a>
</g>
<text text-anchor="middle" x="287" y="-368.5" font-family="Cascadia Code NF" font-size="10.00" fill="grey"> +end</text>
<text text-anchor="middle" x="287" y="-355.75" font-family="Cascadia Code NF" font-size="10.00" fill="grey">+start</text>
</g>
<!-- Node3 -->
<g id="Node000003" class="node">
<title>Node3</title>
<g id="a_Node000003"><a xlink:href="$da/d7d/classchar.html" xlink:title=" ">
<polygon fill="white" stroke="none" points="209,-338.5 175,-338.5 175,-286.5 209,-286.5 209,-338.5"/>
<text text-anchor="start" x="180" y="-325" font-family="Cascadia Code NF" font-size="10.00">char</text>
<text text-anchor="start" x="189" y="-309" font-family="Cascadia Code NF" font-size="10.00"> </text>
<text text-anchor="start" x="189" y="-293" font-family="Cascadia Code NF" font-size="10.00"> </text>
<polygon fill="#bfbfbf" stroke="#bfbfbf" points="175,-320.5 175,-320.5 209,-320.5 209,-320.5 175,-320.5"/>
<polygon fill="#bfbfbf" stroke="#bfbfbf" points="175,-304.5 175,-304.5 209,-304.5 209,-304.5 175,-304.5"/>
<polygon fill="none" stroke="#bfbfbf" points="175,-286.5 175,-338.5 209,-338.5 209,-286.5 175,-286.5"/>
</a>
</g>
</g>
<!-- Node3&#45;&gt;Node1 -->
<g id="edge2_Node000001_Node000003" class="edge">
<title>Node3&#45;&gt;Node1</title>
<g id="a_edge2_Node000001_Node000003"><a xlink:title=" ">
<path fill="none" stroke="#63b8ff" d="M208.98,-304.95C233.95,-293.14 283.77,-269.58 326,-249.5 333.22,-246.07 340.78,-242.47 348.3,-238.88"/>
<polygon fill="none" stroke="#63b8ff" points="348.38,-238.84 352.08,-232.65 359.21,-233.68 355.52,-239.87 348.38,-238.84"/>
</a>
</g>
<text text-anchor="middle" x="287" y="-287.75" font-family="Cascadia Code NF" font-size="10.00" fill="grey"> +permissions</text>
</g>
<!-- Node4 -->
<g id="Node000004" class="node">
<title>Node4</title>
<g id="a_Node000004"><a xlink:title=" ">
<polygon fill="white" stroke="none" points="212,-268.5 172,-268.5 172,-216.5 212,-216.5 212,-268.5"/>
<text text-anchor="start" x="177" y="-255" font-family="Cascadia Code NF" font-size="10.00">off_t</text>
<text text-anchor="start" x="189" y="-239" font-family="Cascadia Code NF" font-size="10.00"> </text>
<text text-anchor="start" x="189" y="-223" font-family="Cascadia Code NF" font-size="10.00"> </text>
<polygon fill="#bfbfbf" stroke="#bfbfbf" points="172,-250.5 172,-250.5 212,-250.5 212,-250.5 172,-250.5"/>
<polygon fill="#bfbfbf" stroke="#bfbfbf" points="172,-234.5 172,-234.5 212,-234.5 212,-234.5 172,-234.5"/>
<polygon fill="none" stroke="#bfbfbf" points="172,-216.5 172,-268.5 212,-268.5 212,-216.5 172,-216.5"/>
</a>
</g>
</g>
<!-- Node4&#45;&gt;Node1 -->
<g id="edge3_Node000001_Node000004" class="edge">
<title>Node4&#45;&gt;Node1</title>
<g id="a_edge3_Node000001_Node000004"><a xlink:title=" ">
<path fill="none" stroke="#63b8ff" d="M211.84,-239.52C238.25,-235.33 287.93,-227.47 331.43,-220.58"/>
<polygon fill="none" stroke="#63b8ff" points="331.36,-220.59 336.66,-215.7 343.21,-218.71 337.91,-223.6 331.36,-220.59"/>
</a>
</g>
<text text-anchor="middle" x="287" y="-235.75" font-family="Cascadia Code NF" font-size="10.00" fill="grey"> +offset</text>
</g>
<!-- Node5 -->
<g id="Node000005" class="node">
<title>Node5</title>
<g id="a_Node000005"><a xlink:title=" ">
<polygon fill="white" stroke="none" points="212,-198.5 172,-198.5 172,-146.5 212,-146.5 212,-198.5"/>
<text text-anchor="start" x="177" y="-185" font-family="Cascadia Code NF" font-size="10.00">dev_t</text>
<text text-anchor="start" x="189" y="-169" font-family="Cascadia Code NF" font-size="10.00"> </text>
<text text-anchor="start" x="189" y="-153" font-family="Cascadia Code NF" font-size="10.00"> </text>
<polygon fill="#bfbfbf" stroke="#bfbfbf" points="172,-180.5 172,-180.5 212,-180.5 212,-180.5 172,-180.5"/>
<polygon fill="#bfbfbf" stroke="#bfbfbf" points="172,-164.5 172,-164.5 212,-164.5 212,-164.5 172,-164.5"/>
<polygon fill="none" stroke="#bfbfbf" points="172,-146.5 172,-198.5 212,-198.5 212,-146.5 172,-146.5"/>
</a>
</g>
</g>
<!-- Node5&#45;&gt;Node1 -->
<g id="edge4_Node000001_Node000005" class="edge">
<title>Node5&#45;&gt;Node1</title>
<g id="a_edge4_Node000001_Node000005"><a xlink:title=" ">
<path fill="none" stroke="#63b8ff" d="M211.84,-175.48C238.25,-179.67 287.93,-187.53 331.43,-194.42"/>
<polygon fill="none" stroke="#63b8ff" points="331.36,-194.41 337.91,-191.4 343.21,-196.29 336.66,-199.3 331.36,-194.41"/>
</a>
</g>
<text text-anchor="middle" x="287" y="-195.75" font-family="Cascadia Code NF" font-size="10.00" fill="grey"> +dev</text>
</g>
<!-- Node6 -->
<g id="Node000006" class="node">
<title>Node6</title>
<g id="a_Node000006"><a xlink:title=" ">
<polygon fill="white" stroke="none" points="212,-128.5 172,-128.5 172,-76.5 212,-76.5 212,-128.5"/>
<text text-anchor="start" x="177" y="-115" font-family="Cascadia Code NF" font-size="10.00">ino_t</text>
<text text-anchor="start" x="189" y="-99" font-family="Cascadia Code NF" font-size="10.00"> </text>
<text text-anchor="start" x="189" y="-83" font-family="Cascadia Code NF" font-size="10.00"> </text>
<polygon fill="#bfbfbf" stroke="#bfbfbf" points="172,-110.5 172,-110.5 212,-110.5 212,-110.5 172,-110.5"/>
<polygon fill="#bfbfbf" stroke="#bfbfbf" points="172,-94.5 172,-94.5 212,-94.5 212,-94.5 172,-94.5"/>
<polygon fill="none" stroke="#bfbfbf" points="172,-76.5 172,-128.5 212,-128.5 212,-76.5 172,-76.5"/>
</a>
</g>
</g>
<!-- Node6&#45;&gt;Node1 -->
<g id="edge5_Node000001_Node000006" class="edge">
<title>Node6&#45;&gt;Node1</title>
<g id="a_edge5_Node000001_Node000006"><a xlink:title=" ">
<path fill="none" stroke="#63b8ff" d="M211.98,-111.28C237.82,-123.26 285.5,-145.44 326,-164.75 333.62,-168.39 341.6,-172.22 349.52,-176.04"/>
<polygon fill="none" stroke="#63b8ff" points="349.4,-175.98 356.54,-175 360.2,-181.21 353.06,-182.2 349.4,-175.98"/>
</a>
</g>
<text text-anchor="middle" x="287" y="-167.75" font-family="Cascadia Code NF" font-size="10.00" fill="grey"> +inode</text>
</g>
<!-- Node7 -->
<g id="Node000007" class="node">
<title>Node7</title>
<g id="a_Node000007"><a xlink:title=" ">
<polygon fill="white" stroke="none" points="230,-58.5 154,-58.5 154,-6.5 230,-6.5 230,-58.5"/>
<text text-anchor="start" x="159" y="-45" font-family="Cascadia Code NF" font-size="10.00">std::string</text>
<text text-anchor="start" x="189" y="-29" font-family="Cascadia Code NF" font-size="10.00"> </text>
<text text-anchor="start" x="189" y="-13" font-family="Cascadia Code NF" font-size="10.00"> </text>
<polygon fill="#666666" stroke="#666666" points="154,-40.5 154,-40.5 230,-40.5 230,-40.5 154,-40.5"/>
<polygon fill="#666666" stroke="#666666" points="154,-24.5 154,-24.5 230,-24.5 230,-24.5 154,-24.5"/>
<polygon fill="none" stroke="#666666" points="154,-6.5 154,-58.5 230,-58.5 230,-6.5 154,-6.5"/>
</a>
</g>
</g>
<!-- Node7&#45;&gt;Node1 -->
<g id="edge6_Node000001_Node000007" class="edge">
<title>Node7&#45;&gt;Node1</title>
<g id="a_edge6_Node000001_Node000007"><a xlink:title=" ">
<path fill="none" stroke="#63b8ff" d="M229.85,-50.72C257.64,-65.31 295.96,-87.34 326,-111.75 347.83,-129.49 369.26,-152.65 385.5,-171.74"/>
<polygon fill="none" stroke="#63b8ff" points="385.46,-171.69 392.38,-173.73 393.15,-180.9 386.24,-178.86 385.46,-171.69"/>
</a>
</g>
<text text-anchor="middle" x="287" y="-114.75" font-family="Cascadia Code NF" font-size="10.00" fill="grey"> +pathname</text>
</g>
<!-- Node8 -->
<g id="Node000008" class="node">
<title>Node8</title>
<g id="a_Node000008"><a xlink:title=" ">
<polygon fill="white" stroke="none" points="118,-65 0,-65 0,0 118,0 118,-65"/>
<text text-anchor="start" x="5" y="-51.5" font-family="Cascadia Code NF" font-size="10.00">std::basic_string&lt;</text>
<text text-anchor="start" x="38" y="-38.75" font-family="Cascadia Code NF" font-size="10.00"> Char &gt;</text>
<text text-anchor="start" x="56" y="-22.5" font-family="Cascadia Code NF" font-size="10.00"> </text>
<text text-anchor="start" x="56" y="-6.5" font-family="Cascadia Code NF" font-size="10.00"> </text>
<polygon fill="#666666" stroke="#666666" points="0,-34 0,-34 118,-34 118,-34 0,-34"/>
<polygon fill="#666666" stroke="#666666" points="0,-18 0,-18 118,-18 118,-18 0,-18"/>
<polygon fill="none" stroke="#666666" points="0,0 0,-65 118,-65 118,0 0,0"/>
</a>
</g>
</g>
<!-- Node8&#45;&gt;Node7 -->
<g id="edge7_Node000007_Node000008" class="edge">
<title>Node8&#45;&gt;Node7</title>
<g id="a_edge7_Node000007_Node000008"><a xlink:title=" ">
<path fill="none" stroke="#63b8ff" d="M129.17,-32.5C137.79,-32.5 146.32,-32.5 154.17,-32.5"/>
<polygon fill="none" stroke="#63b8ff" points="129.35,-29 119.35,-32.5 129.35,-36 129.35,-29"/>
</a>
</g>
</g>
</g>
</svg>
