<?xml version="1.0" encoding="UTF-8" standalone="no"?>
<!DOCTYPE svg PUBLIC "-//W3C//DTD SVG 1.1//EN"
 "http://www.w3.org/Graphics/SVG/1.1/DTD/svg11.dtd">
<!-- Generated by graphviz version 11.0.0 (20240428.1522)
 -->
<!-- Title: v8::internal::BuiltinArguments Pages: 1 -->
<svg width="390pt" height="348pt"
 viewBox="0.00 0.00 390.00 348.00" xmlns="http://www.w3.org/2000/svg" xmlns:xlink="http://www.w3.org/1999/xlink">
<g id="graph0" class="graph" transform="scale(1 1) rotate(0) translate(4 344)">
<title>v8::internal::BuiltinArguments</title>
<!-- Node1 -->
<g id="Node000001" class="node">
<title>Node1</title>
<g id="a_Node000001"><a xlink:title=" ">
<polygon fill="#999999" stroke="none" points="382,-340 192,-340 192,0 382,0 382,-340"/>
<text text-anchor="start" x="197" y="-326.5" font-family="Cascadia Code NF" font-size="10.00">v8::internal::BuiltinArguments</text>
<text text-anchor="start" x="198.5" y="-310.5" font-family="Cascadia Code NF" font-size="10.00">+</text>
<text text-anchor="start" x="211" y="-310.5" font-family="Cascadia Code NF" font-size="10.00">kNewTargetOffset</text>
<text text-anchor="start" x="198.5" y="-294.5" font-family="Cascadia Code NF" font-size="10.00">+</text>
<text text-anchor="start" x="211" y="-294.5" font-family="Cascadia Code NF" font-size="10.00">kTargetOffset</text>
<text text-anchor="start" x="198.5" y="-278.5" font-family="Cascadia Code NF" font-size="10.00">+</text>
<text text-anchor="start" x="211" y="-278.5" font-family="Cascadia Code NF" font-size="10.00">kArgcOffset</text>
<text text-anchor="start" x="198.5" y="-262.5" font-family="Cascadia Code NF" font-size="10.00">+</text>
<text text-anchor="start" x="211" y="-262.5" font-family="Cascadia Code NF" font-size="10.00">kPaddingOffset</text>
<text text-anchor="start" x="198.5" y="-246.5" font-family="Cascadia Code NF" font-size="10.00">+</text>
<text text-anchor="start" x="211" y="-246.5" font-family="Cascadia Code NF" font-size="10.00">kReceiverOffset</text>
<text text-anchor="start" x="198.5" y="-230.5" font-family="Cascadia Code NF" font-size="10.00">+</text>
<text text-anchor="start" x="211" y="-230.5" font-family="Cascadia Code NF" font-size="10.00">kNumExtraArgs</text>
<text text-anchor="start" x="198.5" y="-214.5" font-family="Cascadia Code NF" font-size="10.00">+</text>
<text text-anchor="start" x="211" y="-214.5" font-family="Cascadia Code NF" font-size="10.00">kNumExtraArgsWithReceiver</text>
<text text-anchor="start" x="198.5" y="-198.5" font-family="Cascadia Code NF" font-size="10.00">+</text>
<text text-anchor="start" x="211" y="-198.5" font-family="Cascadia Code NF" font-size="10.00">kArgsOffset</text>
<text text-anchor="start" x="198.5" y="-182.5" font-family="Cascadia Code NF" font-size="10.00">+</text>
<text text-anchor="start" x="211" y="-182.5" font-family="Cascadia Code NF" font-size="10.00">kFirstArgsOffset</text>
<text text-anchor="start" x="198.5" y="-166.5" font-family="Cascadia Code NF" font-size="10.00">+</text>
<text text-anchor="start" x="211" y="-166.5" font-family="Cascadia Code NF" font-size="10.00">kReceiverArgsOffset</text>
<text text-anchor="start" x="198.5" y="-150.5" font-family="Cascadia Code NF" font-size="10.00">+</text>
<text text-anchor="start" x="211" y="-150.5" font-family="Cascadia Code NF" font-size="10.00">BuiltinArguments()</text>
<text text-anchor="start" x="198.5" y="-134.5" font-family="Cascadia Code NF" font-size="10.00">+</text>
<text text-anchor="start" x="211" y="-134.5" font-family="Cascadia Code NF" font-size="10.00">operator[]()</text>
<text text-anchor="start" x="198.5" y="-118.5" font-family="Cascadia Code NF" font-size="10.00">+</text>
<text text-anchor="start" x="211" y="-118.5" font-family="Cascadia Code NF" font-size="10.00">at()</text>
<text text-anchor="start" x="198.5" y="-102.5" font-family="Cascadia Code NF" font-size="10.00">+</text>
<text text-anchor="start" x="211" y="-102.5" font-family="Cascadia Code NF" font-size="10.00">set_at()</text>
<text text-anchor="start" x="198.5" y="-86.5" font-family="Cascadia Code NF" font-size="10.00">+</text>
<text text-anchor="start" x="211" y="-86.5" font-family="Cascadia Code NF" font-size="10.00">address_of_first_argument()</text>
<text text-anchor="start" x="198.5" y="-70.5" font-family="Cascadia Code NF" font-size="10.00">+</text>
<text text-anchor="start" x="211" y="-70.5" font-family="Cascadia Code NF" font-size="10.00">atOrUndefined()</text>
<text text-anchor="start" x="198.5" y="-54.5" font-family="Cascadia Code NF" font-size="10.00">+</text>
<text text-anchor="start" x="211" y="-54.5" font-family="Cascadia Code NF" font-size="10.00">receiver()</text>
<text text-anchor="start" x="198.5" y="-38.5" font-family="Cascadia Code NF" font-size="10.00">+</text>
<text text-anchor="start" x="211" y="-38.5" font-family="Cascadia Code NF" font-size="10.00">target()</text>
<text text-anchor="start" x="198.5" y="-22.5" font-family="Cascadia Code NF" font-size="10.00">+</text>
<text text-anchor="start" x="211" y="-22.5" font-family="Cascadia Code NF" font-size="10.00">new_target()</text>
<text text-anchor="start" x="198.5" y="-6.5" font-family="Cascadia Code NF" font-size="10.00">+</text>
<text text-anchor="start" x="211" y="-6.5" font-family="Cascadia Code NF" font-size="10.00">length()</text>
<polygon fill="#666666" stroke="#666666" points="192,-322 192,-322 382,-322 382,-322 192,-322"/>
<polygon fill="#666666" stroke="#666666" points="192,-162 192,-162 209,-162 209,-162 192,-162"/>
<polygon fill="#666666" stroke="#666666" points="209,-162 209,-162 382,-162 382,-162 209,-162"/>
<polygon fill="none" stroke="#666666" points="192,0 192,-340 382,-340 382,0 192,0"/>
</a>
</g>
</g>
<!-- Node2 -->
<g id="Node000002" class="node">
<title>Node2</title>
<g id="a_Node000002"><a xlink:href="../../d0/db6/classv8_1_1internal_1_1Arguments.html" target="_top" xlink:title=" ">
<polygon fill="white" stroke="none" points="156,-284 0,-284 0,-56 156,-56 156,-284"/>
<text text-anchor="start" x="21" y="-270.5" font-family="Cascadia Code NF" font-size="10.00">JavaScriptArguments</text>
<text text-anchor="start" x="75" y="-254.5" font-family="Cascadia Code NF" font-size="10.00"> </text>
<text text-anchor="start" x="4" y="-238.5" font-family="Cascadia Code NF" font-size="10.00">+</text>
<text text-anchor="start" x="14" y="-238.5" font-family="Cascadia Code NF" font-size="10.00">Arguments()</text>
<text text-anchor="start" x="4" y="-222.5" font-family="Cascadia Code NF" font-size="10.00">+</text>
<text text-anchor="start" x="14" y="-222.5" font-family="Cascadia Code NF" font-size="10.00">operator[]()</text>
<text text-anchor="start" x="4" y="-206.5" font-family="Cascadia Code NF" font-size="10.00">+</text>
<text text-anchor="start" x="14" y="-206.5" font-family="Cascadia Code NF" font-size="10.00">at()</text>
<text text-anchor="start" x="4" y="-190.5" font-family="Cascadia Code NF" font-size="10.00">+</text>
<text text-anchor="start" x="14" y="-190.5" font-family="Cascadia Code NF" font-size="10.00">slot_from_address_at()</text>
<text text-anchor="start" x="4" y="-174.5" font-family="Cascadia Code NF" font-size="10.00">+</text>
<text text-anchor="start" x="14" y="-174.5" font-family="Cascadia Code NF" font-size="10.00">smi_value_at()</text>
<text text-anchor="start" x="4" y="-158.5" font-family="Cascadia Code NF" font-size="10.00">+</text>
<text text-anchor="start" x="14" y="-158.5" font-family="Cascadia Code NF" font-size="10.00">positive_smi_value_at()</text>
<text text-anchor="start" x="4" y="-142.5" font-family="Cascadia Code NF" font-size="10.00">+</text>
<text text-anchor="start" x="14" y="-142.5" font-family="Cascadia Code NF" font-size="10.00">tagged_index_value_at()</text>
<text text-anchor="start" x="4" y="-126.5" font-family="Cascadia Code NF" font-size="10.00">+</text>
<text text-anchor="start" x="14" y="-126.5" font-family="Cascadia Code NF" font-size="10.00">number_value_at()</text>
<text text-anchor="start" x="4" y="-110.5" font-family="Cascadia Code NF" font-size="10.00">+</text>
<text text-anchor="start" x="14" y="-110.5" font-family="Cascadia Code NF" font-size="10.00">atOrUndefined()</text>
<text text-anchor="start" x="4" y="-94.5" font-family="Cascadia Code NF" font-size="10.00">+</text>
<text text-anchor="start" x="14" y="-94.5" font-family="Cascadia Code NF" font-size="10.00">address_of_arg_at()</text>
<text text-anchor="start" x="4" y="-78.5" font-family="Cascadia Code NF" font-size="10.00">+</text>
<text text-anchor="start" x="14" y="-78.5" font-family="Cascadia Code NF" font-size="10.00">length()</text>
<text text-anchor="start" x="4" y="-62.5" font-family="Cascadia Code NF" font-size="10.00">+</text>
<text text-anchor="start" x="14" y="-62.5" font-family="Cascadia Code NF" font-size="10.00">at()</text>
<polygon fill="#bfbfbf" stroke="#bfbfbf" points="0,-266 0,-266 156,-266 156,-266 0,-266"/>
<polygon fill="#bfbfbf" stroke="#bfbfbf" points="0,-250 0,-250 156,-250 156,-250 0,-250"/>
<polygon fill="none" stroke="#bfbfbf" points="0,-56 0,-284 156,-284 156,-56 0,-56"/>
</a>
</g>
</g>
<!-- Node2&#45;&gt;Node1 -->
<g id="edge1_Node000001_Node000002" class="edge">
<title>Node2&#45;&gt;Node1</title>
<g id="a_edge1_Node000001_Node000002"><a xlink:title=" ">
<path fill="none" stroke="#63b8ff" d="M167.02,-170C175.34,-170 183.79,-170 192.16,-170"/>
<polygon fill="none" stroke="#63b8ff" points="167.3,-166.5 157.3,-170 167.3,-173.5 167.3,-166.5"/>
</a>
</g>
</g>
</g>
</svg>
