<?xml version="1.0" encoding="UTF-8" standalone="no"?>
<!DOCTYPE svg PUBLIC "-//W3C//DTD SVG 1.1//EN"
 "http://www.w3.org/Graphics/SVG/1.1/DTD/svg11.dtd">
<!-- Generated by graphviz version 11.0.0 (20240428.1522)
 -->
<!-- Title: v8::internal::compiler::turboshaft::v_traits&lt; UnionT&lt; T1, T2 &gt;, std::enable_if_t&lt; is_taggable_v&lt; UnionT&lt; T1, T2 &gt; &gt; &gt; &gt;::implicitly_constructible_from&lt; UnionT&lt; U1, U2 &gt; &gt; Pages: 1 -->
<svg width="424pt" height="137pt"
 viewBox="0.00 0.00 424.00 137.00" xmlns="http://www.w3.org/2000/svg" xmlns:xlink="http://www.w3.org/1999/xlink">

<svg id="main" version="1.1" xmlns="http://www.w3.org/2000/svg" xmlns:xlink="http://www.w3.org/1999/xlink" xml:space="preserve" onload="init(evt)">
<style type="text/css"><![CDATA[
.node, .edge {opacity: 0.7;}
.node.selected, .edge.selected {opacity: 1;}
.edge:hover path { stroke: red; }
.edge:hover polygon { stroke: red; fill: red; }
svg#main { background-color: #111; }
]]></style>
<script type="application/ecmascript" xlink:href="../../svg.min.js"/>
<svg id="graph" class="graph">
<g id="graph0" class="graph" transform="scale(1 1) rotate(0) translate(4 133)">
<title>v8::internal::compiler::turboshaft::v_traits&lt; UnionT&lt; T1, T2 &gt;, std::enable_if_t&lt; is_taggable_v&lt; UnionT&lt; T1, T2 &gt; &gt; &gt; &gt;::implicitly_constructible_from&lt; UnionT&lt; U1, U2 &gt; &gt;</title>
<!-- Node1 -->
<g id="Node000001" class="node">
<title>Node1</title>
<g id="a_Node000001"><a xlink:title=" ">
<polygon fill="#999999" stroke="none" points="416,-129 250,-129 250,0 416,0 416,-129"/>
<text text-anchor="start" x="255" y="-115.5" font-family="Cascadia Code NF" font-size="10.00">v8::internal::compiler</text>
<text text-anchor="start" x="255" y="-102.75" font-family="Cascadia Code NF" font-size="10.00">::turboshaft::v_traits</text>
<text text-anchor="start" x="255" y="-90" font-family="Cascadia Code NF" font-size="10.00">&lt; UnionT&lt; T1, T2 &gt;, std</text>
<text text-anchor="start" x="255" y="-77.25" font-family="Cascadia Code NF" font-size="10.00">::enable_if_t&lt; is_taggable</text>
<text text-anchor="start" x="255" y="-64.5" font-family="Cascadia Code NF" font-size="10.00">_v&lt; UnionT&lt; T1, T2 &gt; &gt; &gt; &gt;</text>
<text text-anchor="start" x="255" y="-51.75" font-family="Cascadia Code NF" font-size="10.00">::implicitly_constructible</text>
<text text-anchor="start" x="258" y="-39" font-family="Cascadia Code NF" font-size="10.00">_from&lt; UnionT&lt; U1, U2 &gt; &gt;</text>
<text text-anchor="start" x="330" y="-22.5" font-family="Cascadia Code NF" font-size="10.00"> </text>
<text text-anchor="start" x="330" y="-6.5" font-family="Cascadia Code NF" font-size="10.00"> </text>
<polygon fill="#666666" stroke="#666666" points="250,-34 250,-34 416,-34 416,-34 250,-34"/>
<polygon fill="#666666" stroke="#666666" points="250,-18 250,-18 416,-18 416,-18 250,-18"/>
<polygon fill="none" stroke="#666666" points="250,0 250,-129 416,-129 416,0 250,0"/>
</a>
</g>
</g>
<!-- Node2 -->
<g id="Node000002" class="node">
<title>Node2</title>
<g id="a_Node000002"><a xlink:title=" ">
<polygon fill="white" stroke="none" points="214,-110 0,-110 0,-19 214,-19 214,-110"/>
<text text-anchor="start" x="5" y="-96.5" font-family="Cascadia Code NF" font-size="10.00">std::bool_constant</text>
<text text-anchor="start" x="5" y="-83.75" font-family="Cascadia Code NF" font-size="10.00">&lt;(implicitly_constructible</text>
<text text-anchor="start" x="5" y="-71" font-family="Cascadia Code NF" font-size="10.00">_from&lt; U1 &gt;::value &amp;&amp;implicitly</text>
<text text-anchor="start" x="5" y="-58.25" font-family="Cascadia Code NF" font-size="10.00">_constructible_from&lt; U2 &gt;::value)&gt;</text>
<text text-anchor="start" x="104" y="-41.5" font-family="Cascadia Code NF" font-size="10.00"> </text>
<text text-anchor="start" x="104" y="-25.5" font-family="Cascadia Code NF" font-size="10.00"> </text>
<polygon fill="#bfbfbf" stroke="#bfbfbf" points="0,-53 0,-53 214,-53 214,-53 0,-53"/>
<polygon fill="#bfbfbf" stroke="#bfbfbf" points="0,-37 0,-37 214,-37 214,-37 0,-37"/>
<polygon fill="none" stroke="#bfbfbf" points="0,-19 0,-110 214,-110 214,-19 0,-19"/>
</a>
</g>
</g>
<!-- Node2&#45;&gt;Node1 -->
<g id="edge1_Node000001_Node000002" class="edge">
<title>Node2&#45;&gt;Node1</title>
<g id="a_edge1_Node000001_Node000002"><a xlink:title=" ">
<path fill="none" stroke="#63b8ff" d="M225.25,-64.5C233.66,-64.5 242.04,-64.5 250.18,-64.5"/>
<polygon fill="none" stroke="#63b8ff" points="225.28,-61 215.28,-64.5 225.28,-68 225.28,-61"/>
</a>
</g>
</g>
</g>
</svg>
</svg>

<style type='text/css'>
<![CDATA[
[data-mouse-over-selected='false'] { opacity: 0.7; }
[data-mouse-over-selected='true']  { opacity: 1.0; }
]]>
</style>
<script type="application/ecmascript"><![CDATA[
document.addEventListener('DOMContentLoaded', (event) => {
  highlightEdges();
  highlightAdjacentNodes();
});
]]></script>
</svg>
