<?xml version="1.0" encoding="UTF-8" standalone="no"?>
<!DOCTYPE svg PUBLIC "-//W3C//DTD SVG 1.1//EN"
 "http://www.w3.org/Graphics/SVG/1.1/DTD/svg11.dtd">
<!-- Generated by graphviz version 11.0.0 (20240428.1522)
 -->
<!-- Title: v8::internal::ClassLiteralProperty Pages: 1 -->
<svg width="584pt" height="169pt"
 viewBox="0.00 0.00 584.00 169.00" xmlns="http://www.w3.org/2000/svg" xmlns:xlink="http://www.w3.org/1999/xlink">
<g id="graph0" class="graph" transform="scale(1 1) rotate(0) translate(4 165)">
<title>v8::internal::ClassLiteralProperty</title>
<!-- Node1 -->
<g id="Node000001" class="node">
<title>Node1</title>
<g id="a_Node000001"><a xlink:title=" ">
<polygon fill="#999999" stroke="none" points="576,-161 410,-161 410,0 576,0 576,-161"/>
<text text-anchor="start" x="415" y="-147.5" font-family="Cascadia Code NF" font-size="10.00">v8::internal::ClassLiteral</text>
<text text-anchor="start" x="469" y="-134.75" font-family="Cascadia Code NF" font-size="10.00">Property</text>
<text text-anchor="start" x="490" y="-118.5" font-family="Cascadia Code NF" font-size="10.00"> </text>
<text text-anchor="start" x="416.5" y="-102.5" font-family="Cascadia Code NF" font-size="10.00">+</text>
<text text-anchor="start" x="429" y="-102.5" font-family="Cascadia Code NF" font-size="10.00">kind()</text>
<text text-anchor="start" x="416.5" y="-86.5" font-family="Cascadia Code NF" font-size="10.00">+</text>
<text text-anchor="start" x="429" y="-86.5" font-family="Cascadia Code NF" font-size="10.00">is_static()</text>
<text text-anchor="start" x="416.5" y="-70.5" font-family="Cascadia Code NF" font-size="10.00">+</text>
<text text-anchor="start" x="429" y="-70.5" font-family="Cascadia Code NF" font-size="10.00">is_private()</text>
<text text-anchor="start" x="416.5" y="-54.5" font-family="Cascadia Code NF" font-size="10.00">+</text>
<text text-anchor="start" x="429" y="-54.5" font-family="Cascadia Code NF" font-size="10.00">set_computed_name_var()</text>
<text text-anchor="start" x="416.5" y="-38.5" font-family="Cascadia Code NF" font-size="10.00">+</text>
<text text-anchor="start" x="429" y="-38.5" font-family="Cascadia Code NF" font-size="10.00">computed_name_var()</text>
<text text-anchor="start" x="416.5" y="-22.5" font-family="Cascadia Code NF" font-size="10.00">+</text>
<text text-anchor="start" x="429" y="-22.5" font-family="Cascadia Code NF" font-size="10.00">set_private_name_var()</text>
<text text-anchor="start" x="416.5" y="-6.5" font-family="Cascadia Code NF" font-size="10.00">+</text>
<text text-anchor="start" x="429" y="-6.5" font-family="Cascadia Code NF" font-size="10.00">private_name_var()</text>
<polygon fill="#666666" stroke="#666666" points="410,-130 410,-130 576,-130 576,-130 410,-130"/>
<polygon fill="#666666" stroke="#666666" points="410,-114 410,-114 576,-114 576,-114 410,-114"/>
<polygon fill="none" stroke="#666666" points="410,0 410,-161 576,-161 576,0 410,0"/>
</a>
</g>
</g>
<!-- Node2 -->
<g id="Node000002" class="node">
<title>Node2</title>
<g id="a_Node000002"><a xlink:href="../../d9/d49/classv8_1_1internal_1_1LiteralProperty.html" target="_top" xlink:title=" ">
<polygon fill="white" stroke="none" points="374,-153 190,-153 190,-8 374,-8 374,-153"/>
<text text-anchor="start" x="195" y="-139.5" font-family="Cascadia Code NF" font-size="10.00">v8::internal::LiteralProperty</text>
<text text-anchor="start" x="202.5" y="-123.5" font-family="Cascadia Code NF" font-size="10.00">#</text>
<text text-anchor="start" x="221" y="-123.5" font-family="Cascadia Code NF" font-size="10.00">key_and_is_computed</text>
<text text-anchor="start" x="221" y="-110.75" font-family="Cascadia Code NF" font-size="10.00">_name_</text>
<text text-anchor="start" x="202.5" y="-94.5" font-family="Cascadia Code NF" font-size="10.00">#</text>
<text text-anchor="start" x="221" y="-94.5" font-family="Cascadia Code NF" font-size="10.00">value_</text>
<text text-anchor="start" x="202.5" y="-78.5" font-family="Cascadia Code NF" font-size="10.00">+</text>
<text text-anchor="start" x="221" y="-78.5" font-family="Cascadia Code NF" font-size="10.00">key()</text>
<text text-anchor="start" x="202.5" y="-62.5" font-family="Cascadia Code NF" font-size="10.00">+</text>
<text text-anchor="start" x="221" y="-62.5" font-family="Cascadia Code NF" font-size="10.00">value()</text>
<text text-anchor="start" x="202.5" y="-46.5" font-family="Cascadia Code NF" font-size="10.00">+</text>
<text text-anchor="start" x="221" y="-46.5" font-family="Cascadia Code NF" font-size="10.00">is_computed_name()</text>
<text text-anchor="start" x="202.5" y="-30.5" font-family="Cascadia Code NF" font-size="10.00">+</text>
<text text-anchor="start" x="221" y="-30.5" font-family="Cascadia Code NF" font-size="10.00">NeedsSetFunctionName()</text>
<text text-anchor="start" x="202.5" y="-14.5" font-family="Cascadia Code NF" font-size="10.00">#</text>
<text text-anchor="start" x="221" y="-14.5" font-family="Cascadia Code NF" font-size="10.00">LiteralProperty()</text>
<polygon fill="#bfbfbf" stroke="#bfbfbf" points="190,-135 190,-135 374,-135 374,-135 190,-135"/>
<polygon fill="#bfbfbf" stroke="#bfbfbf" points="190,-90 190,-90 219,-90 219,-90 190,-90"/>
<polygon fill="#bfbfbf" stroke="#bfbfbf" points="219,-90 219,-90 374,-90 374,-90 219,-90"/>
<polygon fill="none" stroke="#bfbfbf" points="190,-8 190,-153 374,-153 374,-8 190,-8"/>
</a>
</g>
</g>
<!-- Node2&#45;&gt;Node1 -->
<g id="edge1_Node000001_Node000002" class="edge">
<title>Node2&#45;&gt;Node1</title>
<g id="a_edge1_Node000001_Node000002"><a xlink:title=" ">
<path fill="none" stroke="#63b8ff" d="M385.17,-80.5C393.57,-80.5 401.98,-80.5 410.2,-80.5"/>
<polygon fill="none" stroke="#63b8ff" points="385.27,-77 375.27,-80.5 385.27,-84 385.27,-77"/>
</a>
</g>
</g>
<!-- Node3 -->
<g id="Node000003" class="node">
<title>Node3</title>
<g id="a_Node000003"><a xlink:href="../../dc/dca/classv8_1_1internal_1_1ZoneObject.html" target="_top" xlink:title=" ">
<polygon fill="white" stroke="none" points="154,-130.5 0,-130.5 0,-30.5 154,-30.5 154,-130.5"/>
<text text-anchor="start" x="5" y="-117" font-family="Cascadia Code NF" font-size="10.00">v8::internal::ZoneObject</text>
<text text-anchor="start" x="74" y="-101" font-family="Cascadia Code NF" font-size="10.00"> </text>
<text text-anchor="start" x="12.5" y="-85" font-family="Cascadia Code NF" font-size="10.00">+</text>
<text text-anchor="start" x="31" y="-85" font-family="Cascadia Code NF" font-size="10.00">operator new()</text>
<text text-anchor="start" x="12.5" y="-69" font-family="Cascadia Code NF" font-size="10.00">+</text>
<text text-anchor="start" x="31" y="-69" font-family="Cascadia Code NF" font-size="10.00">operator new()</text>
<text text-anchor="start" x="12.5" y="-53" font-family="Cascadia Code NF" font-size="10.00">+</text>
<text text-anchor="start" x="31" y="-53" font-family="Cascadia Code NF" font-size="10.00">operator delete()</text>
<text text-anchor="start" x="12.5" y="-37" font-family="Cascadia Code NF" font-size="10.00">+</text>
<text text-anchor="start" x="31" y="-37" font-family="Cascadia Code NF" font-size="10.00">operator delete()</text>
<polygon fill="#bfbfbf" stroke="#bfbfbf" points="0,-112.5 0,-112.5 154,-112.5 154,-112.5 0,-112.5"/>
<polygon fill="#bfbfbf" stroke="#bfbfbf" points="0,-96.5 0,-96.5 154,-96.5 154,-96.5 0,-96.5"/>
<polygon fill="none" stroke="#bfbfbf" points="0,-30.5 0,-130.5 154,-130.5 154,-30.5 0,-30.5"/>
</a>
</g>
</g>
<!-- Node3&#45;&gt;Node2 -->
<g id="edge2_Node000002_Node000003" class="edge">
<title>Node3&#45;&gt;Node2</title>
<g id="a_edge2_Node000002_Node000003"><a xlink:title=" ">
<path fill="none" stroke="#63b8ff" d="M165.37,-80.5C173.58,-80.5 181.91,-80.5 190.14,-80.5"/>
<polygon fill="none" stroke="#63b8ff" points="165.39,-77 155.39,-80.5 165.39,-84 165.39,-77"/>
</a>
</g>
</g>
</g>
</svg>
