<?xml version="1.0" encoding="UTF-8" standalone="no"?>
<!DOCTYPE svg PUBLIC "-//W3C//DTD SVG 1.1//EN"
 "http://www.w3.org/Graphics/SVG/1.1/DTD/svg11.dtd">
<!-- Generated by graphviz version 11.0.0 (20240428.1522)
 -->
<!-- Title: v8::internal::Null Pages: 1 -->
<!--zoomable 297 -->

<svg id="main" version="1.1" xmlns="http://www.w3.org/2000/svg" xmlns:xlink="http://www.w3.org/1999/xlink" xml:space="preserve" onload="init(evt)">
<style type="text/css"><![CDATA[
.node, .edge {opacity: 0.7;}
.node.selected, .edge.selected {opacity: 1;}
.edge:hover path { stroke: red; }
.edge:hover polygon { stroke: red; fill: red; }
svg#main { background-color: #111; }
]]></style>

<defs>
  <circle id="rim" cx="0" cy="0" r="7"/>
  <circle id="rim2" cx="0" cy="0" r="3.5"/>
  <g id="zoomPlus">
    <use xlink:href="#rim" fill="#404040"><set attributeName="fill" to="#808080" begin="zoomplus.mouseover" end="zoomplus.mouseout"/></use>
    <path d="M-4,0h8M0,-4v8" fill="none" stroke="white" stroke-width="1.5" pointer-events="none"/>
  </g>
  <g id="zoomMin">
    <use xlink:href="#rim" fill="#404040"><set attributeName="fill" to="#808080" begin="zoomminus.mouseover" end="zoomminus.mouseout"/></use>
    <path d="M-4,0h8" fill="none" stroke="white" stroke-width="1.5" pointer-events="none"/>
  </g>
  <g id="arrowUp" transform="translate(30 24)">
    <use xlink:href="#rim"/>
    <path pointer-events="none" fill="none" stroke="white" stroke-width="1.5" d="M0,-3.0v7 M-2.5,-0.5L0,-3.0L2.5,-0.5"/>
  </g>
  <g id="arrowRight" transform="rotate(90) translate(36 -43)">
    <use xlink:href="#rim"/>
    <path pointer-events="none" fill="none" stroke="white" stroke-width="1.5" d="M0,-3.0v7 M-2.5,-0.5L0,-3.0L2.5,-0.5"/>
  </g>
  <g id="arrowDown" transform="rotate(180) translate(-30 -48)">
    <use xlink:href="#rim"/>
    <path pointer-events="none" fill="none" stroke="white" stroke-width="1.5" d="M0,-3.0v7 M-2.5,-0.5L0,-3.0L2.5,-0.5"/>
  </g>
  <g id="arrowLeft" transform="rotate(270) translate(-36 17)">
    <use xlink:href="#rim"/>
    <path pointer-events="none" fill="none" stroke="white" stroke-width="1.5" d="M0,-3.0v7 M-2.5,-0.5L0,-3.0L2.5,-0.5"/>
  </g>
  <g id="resetDef">
    <use xlink:href="#rim2" fill="#404040"><set attributeName="fill" to="#808080" begin="reset.mouseover" end="reset.mouseout"/></use>
  </g>
</defs>
<script type="application/ecmascript">
var viewWidth = 718;
var viewHeight = 297;
var sectionId = 'dynsection-0';
</script>
<script type="application/ecmascript" xlink:href="../../svg.min.js"/>
<svg id="graph" class="graph">
<g id="viewport">
<title>v8::internal::Null</title>
<!-- Node1 -->
<g id="Node000001" class="node">
<title>Node1</title>
<g id="a_Node000001"><a xlink:title=" ">
<polygon fill="#999999" stroke="none" points="710,-170.5 592,-170.5 592,-118.5 710,-118.5 710,-170.5"/>
<text text-anchor="start" x="597" y="-157" font-family="Cascadia Code NF" font-size="10.00">v8::internal::Null</text>
<text text-anchor="start" x="648" y="-141" font-family="Cascadia Code NF" font-size="10.00"> </text>
<text text-anchor="start" x="612" y="-125" font-family="Cascadia Code NF" font-size="10.00">+</text>
<text text-anchor="start" x="638" y="-125" font-family="Cascadia Code NF" font-size="10.00">Null()</text>
<polygon fill="#666666" stroke="#666666" points="592,-152.5 592,-152.5 710,-152.5 710,-152.5 592,-152.5"/>
<polygon fill="#666666" stroke="#666666" points="592,-136.5 592,-136.5 710,-136.5 710,-136.5 592,-136.5"/>
<polygon fill="none" stroke="#666666" points="592,-118.5 592,-170.5 710,-170.5 710,-118.5 592,-118.5"/>
</a>
</g>
</g>
<!-- Node2 -->
<g id="Node000002" class="node">
<title>Node2</title>
<g id="a_Node000002"><a xlink:href="../../d4/d42/classv8_1_1internal_1_1Oddball.html" target="_top" xlink:title=" ">
<polygon fill="white" stroke="none" points="556,-289 418,-289 418,0 556,0 556,-289"/>
<text text-anchor="start" x="424" y="-275.5" font-family="Cascadia Code NF" font-size="10.00">v8::internal::Oddball</text>
<text text-anchor="start" x="422" y="-259.5" font-family="Cascadia Code NF" font-size="10.00">+</text>
<text text-anchor="start" x="432" y="-259.5" font-family="Cascadia Code NF" font-size="10.00">kFalse</text>
<text text-anchor="start" x="422" y="-243.5" font-family="Cascadia Code NF" font-size="10.00">+</text>
<text text-anchor="start" x="432" y="-243.5" font-family="Cascadia Code NF" font-size="10.00">kTrue</text>
<text text-anchor="start" x="422" y="-227.5" font-family="Cascadia Code NF" font-size="10.00">+</text>
<text text-anchor="start" x="432" y="-227.5" font-family="Cascadia Code NF" font-size="10.00">kNotBooleanMask</text>
<text text-anchor="start" x="422" y="-211.5" font-family="Cascadia Code NF" font-size="10.00">+</text>
<text text-anchor="start" x="432" y="-211.5" font-family="Cascadia Code NF" font-size="10.00">kNull</text>
<text text-anchor="start" x="422" y="-195.5" font-family="Cascadia Code NF" font-size="10.00">+</text>
<text text-anchor="start" x="432" y="-195.5" font-family="Cascadia Code NF" font-size="10.00">kUndefined</text>
<text text-anchor="start" x="422" y="-179.5" font-family="Cascadia Code NF" font-size="10.00">+</text>
<text text-anchor="start" x="432" y="-179.5" font-family="Cascadia Code NF" font-size="10.00">set_to_number_raw_as</text>
<text text-anchor="start" x="432" y="-166.75" font-family="Cascadia Code NF" font-size="10.00">_bits()</text>
<text text-anchor="start" x="422" y="-150.5" font-family="Cascadia Code NF" font-size="10.00">+</text>
<text text-anchor="start" x="432" y="-150.5" font-family="Cascadia Code NF" font-size="10.00">to_string()</text>
<text text-anchor="start" x="422" y="-134.5" font-family="Cascadia Code NF" font-size="10.00">+</text>
<text text-anchor="start" x="432" y="-134.5" font-family="Cascadia Code NF" font-size="10.00">set_to_string()</text>
<text text-anchor="start" x="422" y="-118.5" font-family="Cascadia Code NF" font-size="10.00">+</text>
<text text-anchor="start" x="432" y="-118.5" font-family="Cascadia Code NF" font-size="10.00">to_number()</text>
<text text-anchor="start" x="422" y="-102.5" font-family="Cascadia Code NF" font-size="10.00">+</text>
<text text-anchor="start" x="432" y="-102.5" font-family="Cascadia Code NF" font-size="10.00">set_to_number()</text>
<text text-anchor="start" x="422" y="-86.5" font-family="Cascadia Code NF" font-size="10.00">+</text>
<text text-anchor="start" x="432" y="-86.5" font-family="Cascadia Code NF" font-size="10.00">type_of()</text>
<text text-anchor="start" x="422" y="-70.5" font-family="Cascadia Code NF" font-size="10.00">+</text>
<text text-anchor="start" x="432" y="-70.5" font-family="Cascadia Code NF" font-size="10.00">set_type_of()</text>
<text text-anchor="start" x="422" y="-54.5" font-family="Cascadia Code NF" font-size="10.00">+</text>
<text text-anchor="start" x="432" y="-54.5" font-family="Cascadia Code NF" font-size="10.00">kind()</text>
<text text-anchor="start" x="422" y="-38.5" font-family="Cascadia Code NF" font-size="10.00">+</text>
<text text-anchor="start" x="432" y="-38.5" font-family="Cascadia Code NF" font-size="10.00">set_kind()</text>
<text text-anchor="start" x="422" y="-22.5" font-family="Cascadia Code NF" font-size="10.00">+</text>
<text text-anchor="start" x="432" y="-22.5" font-family="Cascadia Code NF" font-size="10.00">ToNumber()</text>
<text text-anchor="start" x="422" y="-6.5" font-family="Cascadia Code NF" font-size="10.00">+</text>
<text text-anchor="start" x="432" y="-6.5" font-family="Cascadia Code NF" font-size="10.00">Initialize()</text>
<polygon fill="#bfbfbf" stroke="#bfbfbf" points="418,-271 418,-271 556,-271 556,-271 418,-271"/>
<polygon fill="#bfbfbf" stroke="#bfbfbf" points="418,-191 418,-191 430,-191 430,-191 418,-191"/>
<polygon fill="#bfbfbf" stroke="#bfbfbf" points="430,-191 430,-191 556,-191 556,-191 430,-191"/>
<polygon fill="none" stroke="#bfbfbf" points="418,0 418,-289 556,-289 556,0 418,0"/>
</a>
</g>
</g>
<!-- Node2&#45;&gt;Node1 -->
<g id="edge1_Node000001_Node000002" class="edge">
<title>Node2&#45;&gt;Node1</title>
<g id="a_edge1_Node000001_Node000002"><a xlink:title=" ">
<path fill="none" stroke="#63b8ff" d="M567.15,-144.5C575.53,-144.5 583.94,-144.5 592.02,-144.5"/>
<polygon fill="none" stroke="#63b8ff" points="567.28,-141 557.28,-144.5 567.28,-148 567.28,-141"/>
</a>
</g>
</g>
<!-- Node3 -->
<g id="Node000003" class="node">
<title>Node3</title>
<g id="a_Node000003"><a xlink:href="../../d6/d18/classv8_1_1internal_1_1PrimitiveHeapObject.html" target="_top" xlink:title=" ">
<polygon fill="white" stroke="none" points="382,-177 210,-177 210,-112 382,-112 382,-177"/>
<text text-anchor="start" x="215" y="-163.5" font-family="Cascadia Code NF" font-size="10.00">v8::internal::PrimitiveHeap</text>
<text text-anchor="start" x="278" y="-150.75" font-family="Cascadia Code NF" font-size="10.00">Object</text>
<text text-anchor="start" x="293" y="-134.5" font-family="Cascadia Code NF" font-size="10.00"> </text>
<text text-anchor="start" x="293" y="-118.5" font-family="Cascadia Code NF" font-size="10.00"> </text>
<polygon fill="#bfbfbf" stroke="#bfbfbf" points="210,-146 210,-146 382,-146 382,-146 210,-146"/>
<polygon fill="#bfbfbf" stroke="#bfbfbf" points="210,-130 210,-130 382,-130 382,-130 210,-130"/>
<polygon fill="none" stroke="#bfbfbf" points="210,-112 210,-177 382,-177 382,-112 210,-112"/>
</a>
</g>
</g>
<!-- Node3&#45;&gt;Node2 -->
<g id="edge2_Node000002_Node000003" class="edge">
<title>Node3&#45;&gt;Node2</title>
<g id="a_edge2_Node000002_Node000003"><a xlink:title=" ">
<path fill="none" stroke="#63b8ff" d="M393.27,-144.5C401.68,-144.5 410.06,-144.5 418.16,-144.5"/>
<polygon fill="none" stroke="#63b8ff" points="393.34,-141 383.34,-144.5 393.34,-148 393.34,-141"/>
</a>
</g>
</g>
<!-- Node4 -->
<g id="Node000004" class="node">
<title>Node4</title>
<g id="a_Node000004"><a xlink:href="../../d0/dec/classv8_1_1internal_1_1HeapObjectLayout.html" target="_top" xlink:title=" ">
<polygon fill="white" stroke="none" points="174,-263.5 0,-263.5 0,-25.5 174,-25.5 174,-263.5"/>
<text text-anchor="start" x="15" y="-250" font-family="Cascadia Code NF" font-size="10.00">v8::internal::HeapObject</text>
<text text-anchor="start" x="69" y="-237.25" font-family="Cascadia Code NF" font-size="10.00">Layout</text>
<text text-anchor="start" x="84" y="-221" font-family="Cascadia Code NF" font-size="10.00"> </text>
<text text-anchor="start" x="4" y="-205" font-family="Cascadia Code NF" font-size="10.00">+</text>
<text text-anchor="start" x="14" y="-205" font-family="Cascadia Code NF" font-size="10.00">HeapObjectLayout()</text>
<text text-anchor="start" x="4" y="-189" font-family="Cascadia Code NF" font-size="10.00">+</text>
<text text-anchor="start" x="14" y="-189" font-family="Cascadia Code NF" font-size="10.00">map()</text>
<text text-anchor="start" x="4" y="-173" font-family="Cascadia Code NF" font-size="10.00">+</text>
<text text-anchor="start" x="14" y="-173" font-family="Cascadia Code NF" font-size="10.00">map()</text>
<text text-anchor="start" x="4" y="-157" font-family="Cascadia Code NF" font-size="10.00">+</text>
<text text-anchor="start" x="14" y="-157" font-family="Cascadia Code NF" font-size="10.00">set_map()</text>
<text text-anchor="start" x="4" y="-141" font-family="Cascadia Code NF" font-size="10.00">+</text>
<text text-anchor="start" x="14" y="-141" font-family="Cascadia Code NF" font-size="10.00">set_map()</text>
<text text-anchor="start" x="4" y="-125" font-family="Cascadia Code NF" font-size="10.00">+</text>
<text text-anchor="start" x="14" y="-125" font-family="Cascadia Code NF" font-size="10.00">set_map_safe_transition()</text>
<text text-anchor="start" x="4" y="-109" font-family="Cascadia Code NF" font-size="10.00">+</text>
<text text-anchor="start" x="14" y="-109" font-family="Cascadia Code NF" font-size="10.00">set_map_safe_transition</text>
<text text-anchor="start" x="14" y="-96.25" font-family="Cascadia Code NF" font-size="10.00">_no_write_barrier()</text>
<text text-anchor="start" x="4" y="-80" font-family="Cascadia Code NF" font-size="10.00">+</text>
<text text-anchor="start" x="14" y="-80" font-family="Cascadia Code NF" font-size="10.00">set_map_after_allocation()</text>
<text text-anchor="start" x="4" y="-64" font-family="Cascadia Code NF" font-size="10.00">+</text>
<text text-anchor="start" x="14" y="-64" font-family="Cascadia Code NF" font-size="10.00">set_map_no_write_barrier()</text>
<text text-anchor="start" x="4" y="-48" font-family="Cascadia Code NF" font-size="10.00">+</text>
<text text-anchor="start" x="14" y="-48" font-family="Cascadia Code NF" font-size="10.00">set_map_word_forwarded()</text>
<text text-anchor="start" x="14" y="-32" font-family="Cascadia Code NF" font-size="10.00">and 7 more...</text>
<polygon fill="#bfbfbf" stroke="#bfbfbf" points="0,-232.5 0,-232.5 174,-232.5 174,-232.5 0,-232.5"/>
<polygon fill="#bfbfbf" stroke="#bfbfbf" points="0,-216.5 0,-216.5 174,-216.5 174,-216.5 0,-216.5"/>
<polygon fill="none" stroke="#bfbfbf" points="0,-25.5 0,-263.5 174,-263.5 174,-25.5 0,-25.5"/>
</a>
</g>
</g>
<!-- Node4&#45;&gt;Node3 -->
<g id="edge3_Node000003_Node000004" class="edge">
<title>Node4&#45;&gt;Node3</title>
<g id="a_edge3_Node000003_Node000004"><a xlink:title=" ">
<path fill="none" stroke="#63b8ff" d="M185.31,-144.5C193.65,-144.5 202.05,-144.5 210.28,-144.5"/>
<polygon fill="none" stroke="#63b8ff" points="185.5,-141 175.5,-144.5 185.5,-148 185.5,-141"/>
</a>
</g>
</g>
</g>
</svg>

<g id="navigator" transform="translate(0 0)" fill="#404254">
  <rect fill="#f2f5e9" fill-opacity="0.5" stroke="#606060" stroke-width=".5" x="0" y="0" width="60" height="60"/>
  <use id="zoomplus" xlink:href="#zoomPlus" x="17" y="9" onmousedown="handleZoom(evt,'in')"/>
  <use id="zoomminus" xlink:href="#zoomMin" x="42" y="9" onmousedown="handleZoom(evt,'out')"/>
  <use id="reset" xlink:href="#resetDef" x="30" y="36" onmousedown="handleReset()"/>
   <use id="arrowup" xlink:href="#arrowUp" x="0" y="0" onmousedown="handlePan(0,-1)"/>
  <use id="arrowright" xlink:href="#arrowRight" x="0" y="0" onmousedown="handlePan(1,0)"/>
  <use id="arrowdown" xlink:href="#arrowDown" x="0" y="0" onmousedown="handlePan(0,1)"/>
  <use id="arrowleft" xlink:href="#arrowLeft" x="0" y="0" onmousedown="handlePan(-1,0)"/>
</g>
<svg viewBox="0 0 15 15" width="100%" height="30px" preserveAspectRatio="xMaxYMin meet">
 <g id="arrow_out" transform="scale(0.3 0.3)">
  <a xlink:href="classv8_1_1internal_1_1Null__inherit__graph_org.svg" target="_base">
   <rect id="button" ry="5" rx="5" y="6" x="6" height="38" width="38"
        fill="#f2f5e9" fill-opacity="0.5" stroke="#606060" stroke-width="1.0"/>
   <path id="arrow"
     d="M 11.500037,31.436501 C 11.940474,20.09759 22.043105,11.32322 32.158766,21.979434 L 37.068811,17.246167 C 37.068811,17.246167 37.088388,32 37.088388,32 L 22.160133,31.978069 C 22.160133,31.978069 26.997745,27.140456 26.997745,27.140456 C 18.528582,18.264221 13.291696,25.230495 11.500037,31.436501 z"
     style="fill:#404040;"/>
  </a>
 </g>
</svg>

<style type='text/css'>
<![CDATA[
[data-mouse-over-selected='false'] { opacity: 0.7; }
[data-mouse-over-selected='true']  { opacity: 1.0; }
]]>
</style>
<script type="application/ecmascript"><![CDATA[
document.addEventListener('DOMContentLoaded', (event) => {
  highlightEdges();
  highlightAdjacentNodes();
});
]]></script>
</svg>
