<?xml version="1.0" encoding="UTF-8" standalone="no"?>
<!DOCTYPE svg PUBLIC "-//W3C//DTD SVG 1.1//EN"
 "http://www.w3.org/Graphics/SVG/1.1/DTD/svg11.dtd">
<!-- Generated by graphviz version 11.0.0 (20240428.1522)
 -->
<!-- Title: v8::internal::PagedSpaceBase Pages: 1 -->
<svg width="1012pt" height="658pt"
 viewBox="0.00 0.00 1012.00 658.00" xmlns="http://www.w3.org/2000/svg" xmlns:xlink="http://www.w3.org/1999/xlink">
<g id="graph0" class="graph" transform="scale(1 1) rotate(0) translate(4 654)">
<title>v8::internal::PagedSpaceBase</title>
<!-- Node1 -->
<g id="Node000001" class="node">
<title>Node1</title>
<g id="a_Node000001"><a xlink:title=" ">
<polygon fill="#999999" stroke="none" points="362,-488 184,-488 184,0 362,0 362,-488"/>
<text text-anchor="start" x="189" y="-474.5" font-family="Cascadia Code NF" font-size="10.00">v8::internal::PagedSpaceBase</text>
<text text-anchor="start" x="189" y="-458.5" font-family="Cascadia Code NF" font-size="10.00">+</text>
<text text-anchor="start" x="200" y="-458.5" font-family="Cascadia Code NF" font-size="10.00">kCompactionMemoryWanted</text>
<text text-anchor="start" x="189" y="-442.5" font-family="Cascadia Code NF" font-size="10.00">#</text>
<text text-anchor="start" x="200" y="-442.5" font-family="Cascadia Code NF" font-size="10.00">executable_</text>
<text text-anchor="start" x="189" y="-426.5" font-family="Cascadia Code NF" font-size="10.00">#</text>
<text text-anchor="start" x="200" y="-426.5" font-family="Cascadia Code NF" font-size="10.00">compaction_space_kind_</text>
<text text-anchor="start" x="189" y="-410.5" font-family="Cascadia Code NF" font-size="10.00">#</text>
<text text-anchor="start" x="200" y="-410.5" font-family="Cascadia Code NF" font-size="10.00">area_size_</text>
<text text-anchor="start" x="189" y="-394.5" font-family="Cascadia Code NF" font-size="10.00">#</text>
<text text-anchor="start" x="200" y="-394.5" font-family="Cascadia Code NF" font-size="10.00">accounting_stats_</text>
<text text-anchor="start" x="189" y="-378.5" font-family="Cascadia Code NF" font-size="10.00">#</text>
<text text-anchor="start" x="200" y="-378.5" font-family="Cascadia Code NF" font-size="10.00">space_mutex_</text>
<text text-anchor="start" x="189" y="-362.5" font-family="Cascadia Code NF" font-size="10.00">#</text>
<text text-anchor="start" x="200" y="-362.5" font-family="Cascadia Code NF" font-size="10.00">committed_physical</text>
<text text-anchor="start" x="200" y="-349.75" font-family="Cascadia Code NF" font-size="10.00">_memory_</text>
<text text-anchor="start" x="189" y="-333.5" font-family="Cascadia Code NF" font-size="10.00">#</text>
<text text-anchor="start" x="200" y="-333.5" font-family="Cascadia Code NF" font-size="10.00">size_at_last_gc_</text>
<text text-anchor="start" x="189" y="-317.5" font-family="Cascadia Code NF" font-size="10.00">+</text>
<text text-anchor="start" x="200" y="-317.5" font-family="Cascadia Code NF" font-size="10.00">PagedSpaceBase()</text>
<text text-anchor="start" x="189" y="-301.5" font-family="Cascadia Code NF" font-size="10.00">+</text>
<text text-anchor="start" x="200" y="-301.5" font-family="Cascadia Code NF" font-size="10.00">~PagedSpaceBase()</text>
<text text-anchor="start" x="189" y="-285.5" font-family="Cascadia Code NF" font-size="10.00">+</text>
<text text-anchor="start" x="200" y="-285.5" font-family="Cascadia Code NF" font-size="10.00">Contains()</text>
<text text-anchor="start" x="189" y="-269.5" font-family="Cascadia Code NF" font-size="10.00">+</text>
<text text-anchor="start" x="200" y="-269.5" font-family="Cascadia Code NF" font-size="10.00">Contains()</text>
<text text-anchor="start" x="189" y="-253.5" font-family="Cascadia Code NF" font-size="10.00">+</text>
<text text-anchor="start" x="200" y="-253.5" font-family="Cascadia Code NF" font-size="10.00">ContainsSlow()</text>
<text text-anchor="start" x="189" y="-237.5" font-family="Cascadia Code NF" font-size="10.00">+</text>
<text text-anchor="start" x="200" y="-237.5" font-family="Cascadia Code NF" font-size="10.00">executable()</text>
<text text-anchor="start" x="189" y="-221.5" font-family="Cascadia Code NF" font-size="10.00">+</text>
<text text-anchor="start" x="200" y="-221.5" font-family="Cascadia Code NF" font-size="10.00">Capacity()</text>
<text text-anchor="start" x="189" y="-205.5" font-family="Cascadia Code NF" font-size="10.00">+</text>
<text text-anchor="start" x="200" y="-205.5" font-family="Cascadia Code NF" font-size="10.00">CommittedPhysicalMemory()</text>
<text text-anchor="start" x="189" y="-189.5" font-family="Cascadia Code NF" font-size="10.00">+</text>
<text text-anchor="start" x="200" y="-189.5" font-family="Cascadia Code NF" font-size="10.00">IncrementCommittedPhysical</text>
<text text-anchor="start" x="200" y="-176.75" font-family="Cascadia Code NF" font-size="10.00">Memory()</text>
<text text-anchor="start" x="189" y="-160.5" font-family="Cascadia Code NF" font-size="10.00">+</text>
<text text-anchor="start" x="200" y="-160.5" font-family="Cascadia Code NF" font-size="10.00">DecrementCommittedPhysical</text>
<text text-anchor="start" x="200" y="-147.75" font-family="Cascadia Code NF" font-size="10.00">Memory()</text>
<text text-anchor="start" x="200" y="-131.5" font-family="Cascadia Code NF" font-size="10.00">and 44 more...</text>
<text text-anchor="start" x="189" y="-115.5" font-family="Cascadia Code NF" font-size="10.00">#</text>
<text text-anchor="start" x="200" y="-115.5" font-family="Cascadia Code NF" font-size="10.00">snapshotable()</text>
<text text-anchor="start" x="189" y="-99.5" font-family="Cascadia Code NF" font-size="10.00">#</text>
<text text-anchor="start" x="200" y="-99.5" font-family="Cascadia Code NF" font-size="10.00">HasPages()</text>
<text text-anchor="start" x="189" y="-83.5" font-family="Cascadia Code NF" font-size="10.00">#</text>
<text text-anchor="start" x="200" y="-83.5" font-family="Cascadia Code NF" font-size="10.00">TearDown()</text>
<text text-anchor="start" x="189" y="-67.5" font-family="Cascadia Code NF" font-size="10.00">#</text>
<text text-anchor="start" x="200" y="-67.5" font-family="Cascadia Code NF" font-size="10.00">NotifyNewPage()</text>
<text text-anchor="start" x="189" y="-51.5" font-family="Cascadia Code NF" font-size="10.00">#</text>
<text text-anchor="start" x="200" y="-51.5" font-family="Cascadia Code NF" font-size="10.00">committed_physical</text>
<text text-anchor="start" x="200" y="-38.75" font-family="Cascadia Code NF" font-size="10.00">_memory()</text>
<text text-anchor="start" x="189" y="-22.5" font-family="Cascadia Code NF" font-size="10.00">#</text>
<text text-anchor="start" x="200" y="-22.5" font-family="Cascadia Code NF" font-size="10.00">ReleasePageImpl()</text>
<text text-anchor="start" x="189" y="-6.5" font-family="Cascadia Code NF" font-size="10.00">#</text>
<text text-anchor="start" x="200" y="-6.5" font-family="Cascadia Code NF" font-size="10.00">AddPageImpl()</text>
<polygon fill="#666666" stroke="#666666" points="184,-470 184,-470 362,-470 362,-470 184,-470"/>
<polygon fill="#666666" stroke="#666666" points="184,-329 184,-329 198,-329 198,-329 184,-329"/>
<polygon fill="#666666" stroke="#666666" points="198,-329 198,-329 362,-329 362,-329 198,-329"/>
<polygon fill="none" stroke="#666666" points="184,0 184,-488 362,-488 362,0 184,0"/>
</a>
</g>
</g>
<!-- Node3 -->
<g id="Node000003" class="node">
<title>Node3</title>
<g id="a_Node000003"><a xlink:href="$d7/d74/classv8_1_1internal_1_1PagedSpace.html" xlink:title=" ">
<polygon fill="white" stroke="none" points="566,-361 410,-361 410,-293 566,-293 566,-361"/>
<text text-anchor="start" x="416" y="-347.5" font-family="Cascadia Code NF" font-size="10.00">v8::internal::PagedSpace</text>
<text text-anchor="start" x="485" y="-331.5" font-family="Cascadia Code NF" font-size="10.00"> </text>
<text text-anchor="start" x="414" y="-315.5" font-family="Cascadia Code NF" font-size="10.00">+</text>
<text text-anchor="start" x="424" y="-315.5" font-family="Cascadia Code NF" font-size="10.00">PagedSpace()</text>
<text text-anchor="start" x="414" y="-299.5" font-family="Cascadia Code NF" font-size="10.00">+</text>
<text text-anchor="start" x="424" y="-299.5" font-family="Cascadia Code NF" font-size="10.00">CreateAllocatorPolicy()</text>
<polygon fill="#bfbfbf" stroke="#bfbfbf" points="410,-343 410,-343 566,-343 566,-343 410,-343"/>
<polygon fill="#bfbfbf" stroke="#bfbfbf" points="410,-327 410,-327 566,-327 566,-327 410,-327"/>
<polygon fill="none" stroke="#bfbfbf" points="410,-293 410,-361 566,-361 566,-293 410,-293"/>
</a>
</g>
</g>
<!-- Node1&#45;&gt;Node3 -->
<g id="edge2_Node000001_Node000003" class="edge">
<title>Node1&#45;&gt;Node3</title>
<g id="a_edge2_Node000001_Node000003"><a xlink:title=" ">
<path fill="none" stroke="#63b8ff" d="M372.46,-282.37C385.14,-287.31 397.97,-292.31 410.22,-297.08"/>
<polygon fill="none" stroke="#63b8ff" points="373.86,-279.16 363.28,-278.79 371.32,-285.68 373.86,-279.16"/>
</a>
</g>
</g>
<!-- Node11 -->
<g id="Node000011" class="node">
<title>Node11</title>
<g id="a_Node000011"><a xlink:href="$dc/d58/classv8_1_1internal_1_1PagedSpaceForNewSpace.html" xlink:title=" ">
<polygon fill="white" stroke="none" points="578,-274.5 398,-274.5 398,-49.5 578,-49.5 578,-274.5"/>
<text text-anchor="start" x="416" y="-261" font-family="Cascadia Code NF" font-size="10.00">v8::internal::PagedSpace</text>
<text text-anchor="start" x="455" y="-248.25" font-family="Cascadia Code NF" font-size="10.00">ForNewSpace</text>
<text text-anchor="start" x="485" y="-232" font-family="Cascadia Code NF" font-size="10.00"> </text>
<text text-anchor="start" x="402" y="-216" font-family="Cascadia Code NF" font-size="10.00">+</text>
<text text-anchor="start" x="412" y="-216" font-family="Cascadia Code NF" font-size="10.00">PagedSpaceForNewSpace()</text>
<text text-anchor="start" x="402" y="-200" font-family="Cascadia Code NF" font-size="10.00">+</text>
<text text-anchor="start" x="412" y="-200" font-family="Cascadia Code NF" font-size="10.00">TearDown()</text>
<text text-anchor="start" x="402" y="-184" font-family="Cascadia Code NF" font-size="10.00">+</text>
<text text-anchor="start" x="412" y="-184" font-family="Cascadia Code NF" font-size="10.00">Grow()</text>
<text text-anchor="start" x="402" y="-168" font-family="Cascadia Code NF" font-size="10.00">+</text>
<text text-anchor="start" x="412" y="-168" font-family="Cascadia Code NF" font-size="10.00">StartShrinking()</text>
<text text-anchor="start" x="402" y="-152" font-family="Cascadia Code NF" font-size="10.00">+</text>
<text text-anchor="start" x="412" y="-152" font-family="Cascadia Code NF" font-size="10.00">FinishShrinking()</text>
<text text-anchor="start" x="402" y="-136" font-family="Cascadia Code NF" font-size="10.00">+</text>
<text text-anchor="start" x="412" y="-136" font-family="Cascadia Code NF" font-size="10.00">AllocatedSinceLastGC()</text>
<text text-anchor="start" x="402" y="-120" font-family="Cascadia Code NF" font-size="10.00">+</text>
<text text-anchor="start" x="412" y="-120" font-family="Cascadia Code NF" font-size="10.00">MaximumCapacity()</text>
<text text-anchor="start" x="402" y="-104" font-family="Cascadia Code NF" font-size="10.00">+</text>
<text text-anchor="start" x="412" y="-104" font-family="Cascadia Code NF" font-size="10.00">TotalCapacity()</text>
<text text-anchor="start" x="402" y="-88" font-family="Cascadia Code NF" font-size="10.00">+</text>
<text text-anchor="start" x="412" y="-88" font-family="Cascadia Code NF" font-size="10.00">first_allocatable_address()</text>
<text text-anchor="start" x="402" y="-72" font-family="Cascadia Code NF" font-size="10.00">+</text>
<text text-anchor="start" x="412" y="-72" font-family="Cascadia Code NF" font-size="10.00">GarbageCollectionEpilogue()</text>
<text text-anchor="start" x="412" y="-56" font-family="Cascadia Code NF" font-size="10.00">and 13 more...</text>
<polygon fill="#bfbfbf" stroke="#bfbfbf" points="398,-243.5 398,-243.5 578,-243.5 578,-243.5 398,-243.5"/>
<polygon fill="#bfbfbf" stroke="#bfbfbf" points="398,-227.5 398,-227.5 578,-227.5 578,-227.5 398,-227.5"/>
<polygon fill="none" stroke="#bfbfbf" points="398,-49.5 398,-274.5 578,-274.5 578,-49.5 398,-49.5"/>
</a>
</g>
</g>
<!-- Node1&#45;&gt;Node11 -->
<g id="edge10_Node000001_Node000011" class="edge">
<title>Node1&#45;&gt;Node11</title>
<g id="a_edge10_Node000001_Node000011"><a xlink:title=" ">
<path fill="none" stroke="#63b8ff" d="M372.37,-206.13C381.02,-202.8 389.74,-199.44 398.31,-196.15"/>
<polygon fill="none" stroke="#63b8ff" points="371.35,-202.77 363.28,-209.63 373.87,-209.3 371.35,-202.77"/>
</a>
</g>
</g>
<!-- Node2 -->
<g id="Node000002" class="node">
<title>Node2</title>
<g id="a_Node000002"><a xlink:href="$d5/dff/classNON__EXPORTED__BASEpublic_01SpaceWithLinearArea.html" xlink:title=" ">
<polygon fill="white" stroke="none" points="148,-276.5 0,-276.5 0,-211.5 148,-211.5 148,-276.5"/>
<text text-anchor="start" x="5" y="-263" font-family="Cascadia Code NF" font-size="10.00">NON_EXPORTED_BASEpublic</text>
<text text-anchor="start" x="14" y="-250.25" font-family="Cascadia Code NF" font-size="10.00"> SpaceWithLinearArea</text>
<text text-anchor="start" x="71" y="-234" font-family="Cascadia Code NF" font-size="10.00"> </text>
<text text-anchor="start" x="71" y="-218" font-family="Cascadia Code NF" font-size="10.00"> </text>
<polygon fill="#bfbfbf" stroke="#bfbfbf" points="0,-245.5 0,-245.5 148,-245.5 148,-245.5 0,-245.5"/>
<polygon fill="#bfbfbf" stroke="#bfbfbf" points="0,-229.5 0,-229.5 148,-229.5 148,-229.5 0,-229.5"/>
<polygon fill="none" stroke="#bfbfbf" points="0,-211.5 0,-276.5 148,-276.5 148,-211.5 0,-211.5"/>
</a>
</g>
</g>
<!-- Node2&#45;&gt;Node1 -->
<g id="edge1_Node000001_Node000002" class="edge">
<title>Node2&#45;&gt;Node1</title>
<g id="a_edge1_Node000001_Node000002"><a xlink:title=" ">
<path fill="none" stroke="#8b1a1a" d="M159.03,-244C167.34,-244 175.8,-244 184.15,-244"/>
<polygon fill="none" stroke="#8b1a1a" points="159.31,-240.5 149.31,-244 159.31,-247.5 159.31,-240.5"/>
</a>
</g>
</g>
<!-- Node4 -->
<g id="Node000004" class="node">
<title>Node4</title>
<g id="a_Node000004"><a xlink:href="$de/dbb/classv8_1_1internal_1_1CodeSpace.html" xlink:title=" ">
<polygon fill="white" stroke="none" points="778,-650 630,-650 630,-598 778,-598 778,-650"/>
<text text-anchor="start" x="635" y="-636.5" font-family="Cascadia Code NF" font-size="10.00">v8::internal::CodeSpace</text>
<text text-anchor="start" x="701" y="-620.5" font-family="Cascadia Code NF" font-size="10.00"> </text>
<text text-anchor="start" x="650" y="-604.5" font-family="Cascadia Code NF" font-size="10.00">+</text>
<text text-anchor="start" x="676" y="-604.5" font-family="Cascadia Code NF" font-size="10.00">CodeSpace()</text>
<polygon fill="#bfbfbf" stroke="#bfbfbf" points="630,-632 630,-632 778,-632 778,-632 630,-632"/>
<polygon fill="#bfbfbf" stroke="#bfbfbf" points="630,-616 630,-616 778,-616 778,-616 630,-616"/>
<polygon fill="none" stroke="#bfbfbf" points="630,-598 630,-650 778,-650 778,-598 630,-598"/>
</a>
</g>
</g>
<!-- Node3&#45;&gt;Node4 -->
<g id="edge3_Node000003_Node000004" class="edge">
<title>Node3&#45;&gt;Node4</title>
<g id="a_edge3_Node000003_Node000004"><a xlink:title=" ">
<path fill="none" stroke="#63b8ff" d="M499.41,-371.65C515.01,-429.23 549.71,-529.09 614,-589 618.86,-593.53 624.37,-597.5 630.22,-600.97"/>
<polygon fill="none" stroke="#63b8ff" points="502.85,-370.97 496.93,-362.18 496.08,-372.74 502.85,-370.97"/>
</a>
</g>
</g>
<!-- Node5 -->
<g id="Node000005" class="node">
<title>Node5</title>
<g id="a_Node000005"><a xlink:href="$dd/dac/classv8_1_1internal_1_1CompactionSpace.html" xlink:title=" ">
<polygon fill="white" stroke="none" points="781,-579.5 627,-579.5 627,-450.5 781,-450.5 781,-579.5"/>
<text text-anchor="start" x="632" y="-566" font-family="Cascadia Code NF" font-size="10.00">v8::internal::Compaction</text>
<text text-anchor="start" x="689" y="-553.25" font-family="Cascadia Code NF" font-size="10.00">Space</text>
<text text-anchor="start" x="639.5" y="-537" font-family="Cascadia Code NF" font-size="10.00">#</text>
<text text-anchor="start" x="658" y="-537" font-family="Cascadia Code NF" font-size="10.00">new_pages_</text>
<text text-anchor="start" x="639.5" y="-521" font-family="Cascadia Code NF" font-size="10.00">+</text>
<text text-anchor="start" x="658" y="-521" font-family="Cascadia Code NF" font-size="10.00">CompactionSpace()</text>
<text text-anchor="start" x="639.5" y="-505" font-family="Cascadia Code NF" font-size="10.00">+</text>
<text text-anchor="start" x="658" y="-505" font-family="Cascadia Code NF" font-size="10.00">GetNewPages()</text>
<text text-anchor="start" x="639.5" y="-489" font-family="Cascadia Code NF" font-size="10.00">+</text>
<text text-anchor="start" x="658" y="-489" font-family="Cascadia Code NF" font-size="10.00">RefillFreeList()</text>
<text text-anchor="start" x="639.5" y="-473" font-family="Cascadia Code NF" font-size="10.00">#</text>
<text text-anchor="start" x="658" y="-473" font-family="Cascadia Code NF" font-size="10.00">NotifyNewPage()</text>
<text text-anchor="start" x="639.5" y="-457" font-family="Cascadia Code NF" font-size="10.00">#</text>
<text text-anchor="start" x="658" y="-457" font-family="Cascadia Code NF" font-size="10.00">snapshotable()</text>
<polygon fill="#bfbfbf" stroke="#bfbfbf" points="627,-548.5 627,-548.5 781,-548.5 781,-548.5 627,-548.5"/>
<polygon fill="#bfbfbf" stroke="#bfbfbf" points="627,-532.5 627,-532.5 656,-532.5 656,-532.5 627,-532.5"/>
<polygon fill="#bfbfbf" stroke="#bfbfbf" points="656,-532.5 656,-532.5 781,-532.5 781,-532.5 656,-532.5"/>
<polygon fill="none" stroke="#bfbfbf" points="627,-450.5 627,-579.5 781,-579.5 781,-450.5 627,-450.5"/>
</a>
</g>
</g>
<!-- Node3&#45;&gt;Node5 -->
<g id="edge4_Node000003_Node000005" class="edge">
<title>Node3&#45;&gt;Node5</title>
<g id="a_edge4_Node000003_Node000005"><a xlink:title=" ">
<path fill="none" stroke="#63b8ff" d="M533.67,-368.65C557.32,-390.47 586.98,-417.46 614,-441 618.24,-444.7 622.62,-448.47 627.06,-452.26"/>
<polygon fill="none" stroke="#63b8ff" points="536.08,-366.11 526.36,-361.89 531.33,-371.25 536.08,-366.11"/>
</a>
</g>
</g>
<!-- Node6 -->
<g id="Node000006" class="node">
<title>Node6</title>
<g id="a_Node000006"><a xlink:href="$d2/d43/classv8_1_1internal_1_1OldSpace.html" xlink:title=" ">
<polygon fill="white" stroke="none" points="794,-432 614,-432 614,-332 794,-332 794,-432"/>
<text text-anchor="start" x="638" y="-418.5" font-family="Cascadia Code NF" font-size="10.00">v8::internal::OldSpace</text>
<text text-anchor="start" x="701" y="-402.5" font-family="Cascadia Code NF" font-size="10.00"> </text>
<text text-anchor="start" x="618" y="-386.5" font-family="Cascadia Code NF" font-size="10.00">+</text>
<text text-anchor="start" x="628" y="-386.5" font-family="Cascadia Code NF" font-size="10.00">OldSpace()</text>
<text text-anchor="start" x="618" y="-370.5" font-family="Cascadia Code NF" font-size="10.00">+</text>
<text text-anchor="start" x="628" y="-370.5" font-family="Cascadia Code NF" font-size="10.00">AddPromotedPage()</text>
<text text-anchor="start" x="618" y="-354.5" font-family="Cascadia Code NF" font-size="10.00">+</text>
<text text-anchor="start" x="628" y="-354.5" font-family="Cascadia Code NF" font-size="10.00">ReleasePage()</text>
<text text-anchor="start" x="618" y="-338.5" font-family="Cascadia Code NF" font-size="10.00">+</text>
<text text-anchor="start" x="628" y="-338.5" font-family="Cascadia Code NF" font-size="10.00">ExternalBackingStoreBytes()</text>
<polygon fill="#bfbfbf" stroke="#bfbfbf" points="614,-414 614,-414 794,-414 794,-414 614,-414"/>
<polygon fill="#bfbfbf" stroke="#bfbfbf" points="614,-398 614,-398 794,-398 794,-398 614,-398"/>
<polygon fill="none" stroke="#bfbfbf" points="614,-332 614,-432 794,-432 794,-332 614,-332"/>
</a>
</g>
</g>
<!-- Node3&#45;&gt;Node6 -->
<g id="edge5_Node000003_Node000006" class="edge">
<title>Node3&#45;&gt;Node6</title>
<g id="a_edge5_Node000003_Node000006"><a xlink:title=" ">
<path fill="none" stroke="#63b8ff" d="M576.75,-349.55C589.16,-352.74 601.93,-356.02 614.36,-359.22"/>
<polygon fill="none" stroke="#63b8ff" points="577.98,-346.25 567.42,-347.16 576.24,-353.03 577.98,-346.25"/>
</a>
</g>
</g>
<!-- Node8 -->
<g id="Node000008" class="node">
<title>Node8</title>
<g id="a_Node000008"><a xlink:href="$d6/dd7/classv8_1_1internal_1_1SharedSpace.html" xlink:title=" ">
<polygon fill="white" stroke="none" points="794,-314 614,-314 614,-230 794,-230 794,-314"/>
<text text-anchor="start" x="629" y="-300.5" font-family="Cascadia Code NF" font-size="10.00">v8::internal::SharedSpace</text>
<text text-anchor="start" x="701" y="-284.5" font-family="Cascadia Code NF" font-size="10.00"> </text>
<text text-anchor="start" x="618" y="-268.5" font-family="Cascadia Code NF" font-size="10.00">+</text>
<text text-anchor="start" x="628" y="-268.5" font-family="Cascadia Code NF" font-size="10.00">SharedSpace()</text>
<text text-anchor="start" x="618" y="-252.5" font-family="Cascadia Code NF" font-size="10.00">+</text>
<text text-anchor="start" x="628" y="-252.5" font-family="Cascadia Code NF" font-size="10.00">ReleasePage()</text>
<text text-anchor="start" x="618" y="-236.5" font-family="Cascadia Code NF" font-size="10.00">+</text>
<text text-anchor="start" x="628" y="-236.5" font-family="Cascadia Code NF" font-size="10.00">ExternalBackingStoreBytes()</text>
<polygon fill="#bfbfbf" stroke="#bfbfbf" points="614,-296 614,-296 794,-296 794,-296 614,-296"/>
<polygon fill="#bfbfbf" stroke="#bfbfbf" points="614,-280 614,-280 794,-280 794,-280 614,-280"/>
<polygon fill="none" stroke="#bfbfbf" points="614,-230 614,-314 794,-314 794,-230 614,-230"/>
</a>
</g>
</g>
<!-- Node3&#45;&gt;Node8 -->
<g id="edge7_Node000003_Node000008" class="edge">
<title>Node3&#45;&gt;Node8</title>
<g id="a_edge7_Node000003_Node000008"><a xlink:title=" ">
<path fill="none" stroke="#63b8ff" d="M576.75,-304.45C589.16,-301.26 601.93,-297.98 614.36,-294.78"/>
<polygon fill="none" stroke="#63b8ff" points="576.24,-300.97 567.42,-306.84 577.98,-307.75 576.24,-300.97"/>
</a>
</g>
</g>
<!-- Node9 -->
<g id="Node000009" class="node">
<title>Node9</title>
<g id="a_Node000009"><a xlink:href="$d1/d5b/classv8_1_1internal_1_1SharedTrustedSpace.html" xlink:title=" ">
<polygon fill="white" stroke="none" points="794,-211.5 614,-211.5 614,-130.5 794,-130.5 794,-211.5"/>
<text text-anchor="start" x="623" y="-198" font-family="Cascadia Code NF" font-size="10.00">v8::internal::SharedTrusted</text>
<text text-anchor="start" x="689" y="-185.25" font-family="Cascadia Code NF" font-size="10.00">Space</text>
<text text-anchor="start" x="701" y="-169" font-family="Cascadia Code NF" font-size="10.00"> </text>
<text text-anchor="start" x="618" y="-153" font-family="Cascadia Code NF" font-size="10.00">+</text>
<text text-anchor="start" x="628" y="-153" font-family="Cascadia Code NF" font-size="10.00">SharedTrustedSpace()</text>
<text text-anchor="start" x="618" y="-137" font-family="Cascadia Code NF" font-size="10.00">+</text>
<text text-anchor="start" x="628" y="-137" font-family="Cascadia Code NF" font-size="10.00">ExternalBackingStoreBytes()</text>
<polygon fill="#bfbfbf" stroke="#bfbfbf" points="614,-180.5 614,-180.5 794,-180.5 794,-180.5 614,-180.5"/>
<polygon fill="#bfbfbf" stroke="#bfbfbf" points="614,-164.5 614,-164.5 794,-164.5 794,-164.5 614,-164.5"/>
<polygon fill="none" stroke="#bfbfbf" points="614,-130.5 614,-211.5 794,-211.5 794,-130.5 614,-130.5"/>
</a>
</g>
</g>
<!-- Node3&#45;&gt;Node9 -->
<g id="edge8_Node000003_Node000009" class="edge">
<title>Node3&#45;&gt;Node9</title>
<g id="a_edge8_Node000003_Node000009"><a xlink:title=" ">
<path fill="none" stroke="#63b8ff" d="M574.75,-286.91C575.86,-285.96 576.94,-284.99 578,-284 601.58,-262 591.11,-243.72 614,-221 617.4,-217.63 621.07,-214.41 624.91,-211.36"/>
<polygon fill="none" stroke="#63b8ff" points="572.76,-284.02 567.01,-292.92 577.06,-289.54 572.76,-284.02"/>
</a>
</g>
</g>
<!-- Node10 -->
<g id="Node000010" class="node">
<title>Node10</title>
<g id="a_Node000010"><a xlink:href="$d8/d1b/classv8_1_1internal_1_1TrustedSpace.html" xlink:title=" ">
<polygon fill="white" stroke="none" points="794,-112 614,-112 614,-44 794,-44 794,-112"/>
<text text-anchor="start" x="626" y="-98.5" font-family="Cascadia Code NF" font-size="10.00">v8::internal::TrustedSpace</text>
<text text-anchor="start" x="701" y="-82.5" font-family="Cascadia Code NF" font-size="10.00"> </text>
<text text-anchor="start" x="618" y="-66.5" font-family="Cascadia Code NF" font-size="10.00">+</text>
<text text-anchor="start" x="628" y="-66.5" font-family="Cascadia Code NF" font-size="10.00">TrustedSpace()</text>
<text text-anchor="start" x="618" y="-50.5" font-family="Cascadia Code NF" font-size="10.00">+</text>
<text text-anchor="start" x="628" y="-50.5" font-family="Cascadia Code NF" font-size="10.00">ExternalBackingStoreBytes()</text>
<polygon fill="#bfbfbf" stroke="#bfbfbf" points="614,-94 614,-94 794,-94 794,-94 614,-94"/>
<polygon fill="#bfbfbf" stroke="#bfbfbf" points="614,-78 614,-78 794,-78 794,-78 614,-78"/>
<polygon fill="none" stroke="#bfbfbf" points="614,-44 614,-112 794,-112 794,-44 614,-44"/>
</a>
</g>
</g>
<!-- Node3&#45;&gt;Node10 -->
<g id="edge9_Node000003_Node000010" class="edge">
<title>Node3&#45;&gt;Node10</title>
<g id="a_edge9_Node000003_Node000010"><a xlink:title=" ">
<path fill="none" stroke="#63b8ff" d="M574.18,-288.43C575.52,-287 576.79,-285.53 578,-284 624.02,-225.8 567.98,-179.2 614,-121 616.55,-117.77 619.41,-114.77 622.49,-111.98"/>
<polygon fill="none" stroke="#63b8ff" points="572.01,-285.67 567.06,-295.04 576.77,-290.8 572.01,-285.67"/>
</a>
</g>
</g>
<!-- Node7 -->
<g id="Node000007" class="node">
<title>Node7</title>
<g id="a_Node000007"><a xlink:href="$dd/d2a/classv8_1_1internal_1_1StickySpace.html" xlink:title=" ">
<polygon fill="white" stroke="none" points="1004,-456 830,-456 830,-308 1004,-308 1004,-456"/>
<text text-anchor="start" x="842" y="-442.5" font-family="Cascadia Code NF" font-size="10.00">v8::internal::StickySpace</text>
<text text-anchor="start" x="914" y="-426.5" font-family="Cascadia Code NF" font-size="10.00"> </text>
<text text-anchor="start" x="834" y="-410.5" font-family="Cascadia Code NF" font-size="10.00">+</text>
<text text-anchor="start" x="844" y="-410.5" font-family="Cascadia Code NF" font-size="10.00">young_objects_size()</text>
<text text-anchor="start" x="834" y="-394.5" font-family="Cascadia Code NF" font-size="10.00">+</text>
<text text-anchor="start" x="844" y="-394.5" font-family="Cascadia Code NF" font-size="10.00">old_objects_size()</text>
<text text-anchor="start" x="834" y="-378.5" font-family="Cascadia Code NF" font-size="10.00">+</text>
<text text-anchor="start" x="844" y="-378.5" font-family="Cascadia Code NF" font-size="10.00">set_old_objects_size()</text>
<text text-anchor="start" x="834" y="-362.5" font-family="Cascadia Code NF" font-size="10.00">+</text>
<text text-anchor="start" x="844" y="-362.5" font-family="Cascadia Code NF" font-size="10.00">NotifyBlackAreaCreated()</text>
<text text-anchor="start" x="834" y="-346.5" font-family="Cascadia Code NF" font-size="10.00">+</text>
<text text-anchor="start" x="844" y="-346.5" font-family="Cascadia Code NF" font-size="10.00">NotifyBlackAreaDestroyed()</text>
<text text-anchor="start" x="834" y="-330.5" font-family="Cascadia Code NF" font-size="10.00">+</text>
<text text-anchor="start" x="844" y="-330.5" font-family="Cascadia Code NF" font-size="10.00">OldSpace()</text>
<text text-anchor="start" x="834" y="-314.5" font-family="Cascadia Code NF" font-size="10.00">+</text>
<text text-anchor="start" x="844" y="-314.5" font-family="Cascadia Code NF" font-size="10.00">From()</text>
<polygon fill="#bfbfbf" stroke="#bfbfbf" points="830,-438 830,-438 1004,-438 1004,-438 830,-438"/>
<polygon fill="#bfbfbf" stroke="#bfbfbf" points="830,-422 830,-422 1004,-422 1004,-422 830,-422"/>
<polygon fill="none" stroke="#bfbfbf" points="830,-308 830,-456 1004,-456 1004,-308 830,-308"/>
</a>
</g>
</g>
<!-- Node6&#45;&gt;Node7 -->
<g id="edge6_Node000006_Node000007" class="edge">
<title>Node6&#45;&gt;Node7</title>
<g id="a_edge6_Node000006_Node000007"><a xlink:title=" ">
<path fill="none" stroke="#63b8ff" d="M805.24,-382C813.61,-382 822.02,-382 830.26,-382"/>
<polygon fill="none" stroke="#63b8ff" points="805.39,-378.5 795.39,-382 805.38,-385.5 805.39,-378.5"/>
</a>
</g>
</g>
</g>
</svg>
