<?xml version="1.0" encoding="UTF-8" standalone="no"?>
<!DOCTYPE svg PUBLIC "-//W3C//DTD SVG 1.1//EN"
 "http://www.w3.org/Graphics/SVG/1.1/DTD/svg11.dtd">
<!-- Generated by graphviz version 11.0.0 (20240428.1522)
 -->
<!-- Title: v8::internal::compiler::turboshaft::Label&lt; Ts &gt; Pages: 1 -->
<svg width="1490pt" height="591pt"
 viewBox="0.00 0.00 1490.00 591.24" xmlns="http://www.w3.org/2000/svg" xmlns:xlink="http://www.w3.org/1999/xlink">
<g id="graph0" class="graph" transform="scale(1 1) rotate(0) translate(4 587.24)">
<title>v8::internal::compiler::turboshaft::Label&lt; Ts &gt;</title>
<!-- Node1 -->
<g id="Node000001" class="node">
<title>Node1</title>
<g id="a_Node000001"><a xlink:title=" ">
<polygon fill="#999999" stroke="none" points="1482,-361 1322,-361 1322,-280 1482,-280 1482,-361"/>
<text text-anchor="start" x="1327" y="-347.5" font-family="Cascadia Code NF" font-size="10.00">v8::internal::compiler</text>
<text text-anchor="start" x="1327" y="-334.75" font-family="Cascadia Code NF" font-size="10.00">::turboshaft::Label&lt; Ts &gt;</text>
<text text-anchor="start" x="1399" y="-318.5" font-family="Cascadia Code NF" font-size="10.00"> </text>
<text text-anchor="start" x="1351" y="-302.5" font-family="Cascadia Code NF" font-size="10.00">+</text>
<text text-anchor="start" x="1386" y="-302.5" font-family="Cascadia Code NF" font-size="10.00">Label()</text>
<text text-anchor="start" x="1351" y="-286.5" font-family="Cascadia Code NF" font-size="10.00">+</text>
<text text-anchor="start" x="1386" y="-286.5" font-family="Cascadia Code NF" font-size="10.00">Label()</text>
<polygon fill="#666666" stroke="#666666" points="1322,-330 1322,-330 1482,-330 1482,-330 1322,-330"/>
<polygon fill="#666666" stroke="#666666" points="1322,-314 1322,-314 1482,-314 1482,-314 1322,-314"/>
<polygon fill="none" stroke="#666666" points="1322,-280 1322,-361 1482,-361 1482,-280 1322,-280"/>
</a>
</g>
</g>
<!-- Node2 -->
<g id="Node000002" class="node">
<title>Node2</title>
<g id="a_Node000002"><a xlink:href="$d8/dcb/classv8_1_1internal_1_1compiler_1_1turboshaft_1_1LabelBase.html" xlink:title=" ">
<polygon fill="white" stroke="none" points="1286,-463.5 1138,-463.5 1138,-177.5 1286,-177.5 1286,-463.5"/>
<text text-anchor="start" x="1143" y="-450" font-family="Cascadia Code NF" font-size="10.00">v8::internal::compiler</text>
<text text-anchor="start" x="1143" y="-437.25" font-family="Cascadia Code NF" font-size="10.00">::turboshaft::LabelBase</text>
<text text-anchor="start" x="1164" y="-424.5" font-family="Cascadia Code NF" font-size="10.00">&lt; false, Ts... &gt;</text>
<text text-anchor="start" x="1209" y="-408" font-family="Cascadia Code NF" font-size="10.00"> </text>
<text text-anchor="start" x="1143" y="-392" font-family="Cascadia Code NF" font-size="10.00">+</text>
<text text-anchor="start" x="1154" y="-392" font-family="Cascadia Code NF" font-size="10.00">block()</text>
<text text-anchor="start" x="1143" y="-376" font-family="Cascadia Code NF" font-size="10.00">+</text>
<text text-anchor="start" x="1154" y="-376" font-family="Cascadia Code NF" font-size="10.00">has_incoming_jump()</text>
<text text-anchor="start" x="1143" y="-360" font-family="Cascadia Code NF" font-size="10.00">+</text>
<text text-anchor="start" x="1154" y="-360" font-family="Cascadia Code NF" font-size="10.00">Goto()</text>
<text text-anchor="start" x="1143" y="-344" font-family="Cascadia Code NF" font-size="10.00">+</text>
<text text-anchor="start" x="1154" y="-344" font-family="Cascadia Code NF" font-size="10.00">GotoIf()</text>
<text text-anchor="start" x="1143" y="-328" font-family="Cascadia Code NF" font-size="10.00">+</text>
<text text-anchor="start" x="1154" y="-328" font-family="Cascadia Code NF" font-size="10.00">GotoIfNot()</text>
<text text-anchor="start" x="1143" y="-312" font-family="Cascadia Code NF" font-size="10.00">+</text>
<text text-anchor="start" x="1154" y="-312" font-family="Cascadia Code NF" font-size="10.00">Bind()</text>
<text text-anchor="start" x="1143" y="-296" font-family="Cascadia Code NF" font-size="10.00">#</text>
<text text-anchor="start" x="1154" y="-296" font-family="Cascadia Code NF" font-size="10.00">LabelBase()</text>
<text text-anchor="start" x="1143" y="-280" font-family="Cascadia Code NF" font-size="10.00">#</text>
<text text-anchor="start" x="1154" y="-280" font-family="Cascadia Code NF" font-size="10.00">LabelBase()</text>
<text text-anchor="start" x="1143" y="-264" font-family="Cascadia Code NF" font-size="10.00">#</text>
<text text-anchor="start" x="1154" y="-264" font-family="Cascadia Code NF" font-size="10.00">LabelBase()</text>
<text text-anchor="start" x="1143" y="-248" font-family="Cascadia Code NF" font-size="10.00">#</text>
<text text-anchor="start" x="1154" y="-248" font-family="Cascadia Code NF" font-size="10.00">operator=()</text>
<text text-anchor="start" x="1143" y="-232" font-family="Cascadia Code NF" font-size="10.00">#</text>
<text text-anchor="start" x="1154" y="-232" font-family="Cascadia Code NF" font-size="10.00">MaterializePhis()</text>
<text text-anchor="start" x="1143" y="-216" font-family="Cascadia Code NF" font-size="10.00">#</text>
<text text-anchor="start" x="1154" y="-216" font-family="Cascadia Code NF" font-size="10.00">RecordValues()</text>
<text text-anchor="start" x="1143" y="-200" font-family="Cascadia Code NF" font-size="10.00">#</text>
<text text-anchor="start" x="1154" y="-200" font-family="Cascadia Code NF" font-size="10.00">RecordValuesImpl()</text>
<text text-anchor="start" x="1143" y="-184" font-family="Cascadia Code NF" font-size="10.00">#</text>
<text text-anchor="start" x="1154" y="-184" font-family="Cascadia Code NF" font-size="10.00">MaterializePhisImpl()</text>
<polygon fill="#bfbfbf" stroke="#bfbfbf" points="1138,-419.5 1138,-419.5 1286,-419.5 1286,-419.5 1138,-419.5"/>
<polygon fill="#bfbfbf" stroke="#bfbfbf" points="1138,-403.5 1138,-403.5 1286,-403.5 1286,-403.5 1138,-403.5"/>
<polygon fill="none" stroke="#bfbfbf" points="1138,-177.5 1138,-463.5 1286,-463.5 1286,-177.5 1138,-177.5"/>
</a>
</g>
</g>
<!-- Node2&#45;&gt;Node1 -->
<g id="edge1_Node000001_Node000002" class="edge">
<title>Node2&#45;&gt;Node1</title>
<g id="a_edge1_Node000001_Node000002"><a xlink:title=" ">
<path fill="none" stroke="#63b8ff" d="M1297.2,-320.5C1305.5,-320.5 1313.92,-320.5 1322.17,-320.5"/>
<polygon fill="none" stroke="#63b8ff" points="1297.47,-317 1287.47,-320.5 1297.47,-324 1297.47,-317"/>
</a>
</g>
</g>
<!-- Node3 -->
<g id="Node000003" class="node">
<title>Node3</title>
<g id="a_Node000003"><a xlink:title=" ">
<polygon fill="white" stroke="none" points="347,-545.5 301,-545.5 301,-493.5 347,-493.5 347,-545.5"/>
<text text-anchor="start" x="306" y="-532" font-family="Cascadia Code NF" font-size="10.00">size_t</text>
<text text-anchor="start" x="321" y="-516" font-family="Cascadia Code NF" font-size="10.00"> </text>
<text text-anchor="start" x="321" y="-500" font-family="Cascadia Code NF" font-size="10.00"> </text>
<polygon fill="#bfbfbf" stroke="#bfbfbf" points="301,-527.5 301,-527.5 347,-527.5 347,-527.5 301,-527.5"/>
<polygon fill="#bfbfbf" stroke="#bfbfbf" points="301,-511.5 301,-511.5 347,-511.5 347,-511.5 301,-511.5"/>
<polygon fill="none" stroke="#bfbfbf" points="301,-493.5 301,-545.5 347,-545.5 347,-493.5 301,-493.5"/>
</a>
</g>
</g>
<!-- Node3&#45;&gt;Node2 -->
<g id="edge2_Node000002_Node000003" class="edge">
<title>Node3&#45;&gt;Node2</title>
<g id="a_edge2_Node000002_Node000003"><a xlink:title=" ">
<path fill="none" stroke="#63b8ff" d="M346.93,-528.28C405.29,-550.43 569.08,-604.71 702,-573.5 862.26,-535.87 1029.8,-439.85 1127.07,-377.52"/>
<polygon fill="none" stroke="#63b8ff" points="1127.16,-377.46 1130.04,-370.84 1137.25,-370.95 1134.37,-377.57 1127.16,-377.46"/>
</a>
</g>
<text text-anchor="middle" x="771" y="-570.75" font-family="Cascadia Code NF" font-size="10.00" fill="grey"> #size</text>
</g>
<!-- Node9 -->
<g id="Node000009" class="node">
<title>Node9</title>
<g id="a_Node000009"><a xlink:href="$df/de7/classv8_1_1base_1_1SmallVector.html" xlink:title=" ">
<polygon fill="white" stroke="none" points="702,-564.5 536,-564.5 536,-326.5 702,-326.5 702,-564.5"/>
<text text-anchor="start" x="541" y="-551" font-family="Cascadia Code NF" font-size="10.00">v8::base::SmallVector</text>
<text text-anchor="start" x="541" y="-538.25" font-family="Cascadia Code NF" font-size="10.00">&lt; v8::internal::compiler</text>
<text text-anchor="start" x="541" y="-525.5" font-family="Cascadia Code NF" font-size="10.00">::turboshaft::Block *, 4 &gt;</text>
<text text-anchor="start" x="616" y="-509" font-family="Cascadia Code NF" font-size="10.00"> </text>
<text text-anchor="start" x="556" y="-493" font-family="Cascadia Code NF" font-size="10.00">+</text>
<text text-anchor="start" x="582" y="-493" font-family="Cascadia Code NF" font-size="10.00">SmallVector()</text>
<text text-anchor="start" x="556" y="-477" font-family="Cascadia Code NF" font-size="10.00">+</text>
<text text-anchor="start" x="582" y="-477" font-family="Cascadia Code NF" font-size="10.00">SmallVector()</text>
<text text-anchor="start" x="556" y="-461" font-family="Cascadia Code NF" font-size="10.00">+</text>
<text text-anchor="start" x="582" y="-461" font-family="Cascadia Code NF" font-size="10.00">SmallVector()</text>
<text text-anchor="start" x="556" y="-445" font-family="Cascadia Code NF" font-size="10.00">+</text>
<text text-anchor="start" x="582" y="-445" font-family="Cascadia Code NF" font-size="10.00">SmallVector()</text>
<text text-anchor="start" x="556" y="-429" font-family="Cascadia Code NF" font-size="10.00">+</text>
<text text-anchor="start" x="582" y="-429" font-family="Cascadia Code NF" font-size="10.00">SmallVector()</text>
<text text-anchor="start" x="556" y="-413" font-family="Cascadia Code NF" font-size="10.00">+</text>
<text text-anchor="start" x="582" y="-413" font-family="Cascadia Code NF" font-size="10.00">SmallVector()</text>
<text text-anchor="start" x="556" y="-397" font-family="Cascadia Code NF" font-size="10.00">+</text>
<text text-anchor="start" x="582" y="-397" font-family="Cascadia Code NF" font-size="10.00">SmallVector()</text>
<text text-anchor="start" x="556" y="-381" font-family="Cascadia Code NF" font-size="10.00">+</text>
<text text-anchor="start" x="582" y="-381" font-family="Cascadia Code NF" font-size="10.00">SmallVector()</text>
<text text-anchor="start" x="556" y="-365" font-family="Cascadia Code NF" font-size="10.00">+</text>
<text text-anchor="start" x="582" y="-365" font-family="Cascadia Code NF" font-size="10.00">SmallVector()</text>
<text text-anchor="start" x="556" y="-349" font-family="Cascadia Code NF" font-size="10.00">+</text>
<text text-anchor="start" x="582" y="-349" font-family="Cascadia Code NF" font-size="10.00">~SmallVector()</text>
<text text-anchor="start" x="582" y="-333" font-family="Cascadia Code NF" font-size="10.00">and 34 more...</text>
<polygon fill="#bfbfbf" stroke="#bfbfbf" points="536,-520.5 536,-520.5 702,-520.5 702,-520.5 536,-520.5"/>
<polygon fill="#bfbfbf" stroke="#bfbfbf" points="536,-504.5 536,-504.5 702,-504.5 702,-504.5 536,-504.5"/>
<polygon fill="none" stroke="#bfbfbf" points="536,-326.5 536,-564.5 702,-564.5 702,-326.5 536,-326.5"/>
</a>
</g>
</g>
<!-- Node3&#45;&gt;Node9 -->
<g id="edge9_Node000009_Node000003" class="edge">
<title>Node3&#45;&gt;Node9</title>
<g id="a_edge9_Node000009_Node000003"><a xlink:title=" ">
<path fill="none" stroke="#63b8ff" d="M346.54,-514.06C383.47,-504.73 460.92,-485.17 523.68,-469.32"/>
<polygon fill="none" stroke="#63b8ff" points="523.51,-469.37 528.34,-464.02 535.14,-466.43 530.3,-471.77 523.51,-469.37"/>
</a>
</g>
<text text-anchor="middle" x="479" y="-491.75" font-family="Cascadia Code NF" font-size="10.00" fill="grey"> +kInlineSize</text>
</g>
<!-- Node4 -->
<g id="Node000004" class="node">
<title>Node4</title>
<g id="a_Node000004"><a xlink:title=" ">
<polygon fill="white" stroke="none" points="931,-263.5 897,-263.5 897,-211.5 931,-211.5 931,-263.5"/>
<text text-anchor="start" x="902" y="-250" font-family="Cascadia Code NF" font-size="10.00">bool</text>
<text text-anchor="start" x="911" y="-234" font-family="Cascadia Code NF" font-size="10.00"> </text>
<text text-anchor="start" x="911" y="-218" font-family="Cascadia Code NF" font-size="10.00"> </text>
<polygon fill="#bfbfbf" stroke="#bfbfbf" points="897,-245.5 897,-245.5 931,-245.5 931,-245.5 897,-245.5"/>
<polygon fill="#bfbfbf" stroke="#bfbfbf" points="897,-229.5 897,-229.5 931,-229.5 931,-229.5 897,-229.5"/>
<polygon fill="none" stroke="#bfbfbf" points="897,-211.5 897,-263.5 931,-263.5 931,-211.5 897,-211.5"/>
</a>
</g>
</g>
<!-- Node4&#45;&gt;Node2 -->
<g id="edge3_Node000002_Node000004" class="edge">
<title>Node4&#45;&gt;Node2</title>
<g id="a_edge3_Node000002_Node000004"><a xlink:title=" ">
<path fill="none" stroke="#63b8ff" d="M930.75,-239.33C965.56,-243.65 1051.35,-255.85 1120,-278.25 1121.96,-278.89 1123.93,-279.56 1125.9,-280.25"/>
<polygon fill="none" stroke="#63b8ff" points="1126.02,-280.3 1133.04,-278.66 1137.26,-284.51 1130.23,-286.15 1126.02,-280.3"/>
</a>
</g>
<text text-anchor="start" x="1006" y="-306.25" font-family="Cascadia Code NF" font-size="10.00" fill="grey"> #has_incoming_jump</text>
<text text-anchor="middle" x="1063" y="-293.5" font-family="Cascadia Code NF" font-size="10.00" fill="grey">_</text>
<text text-anchor="middle" x="1063" y="-280.75" font-family="Cascadia Code NF" font-size="10.00" fill="grey">+is_loop</text>
</g>
<!-- Node5 -->
<g id="Node000005" class="node">
<title>Node5</title>
<g id="a_Node000005"><a xlink:href="$d6/dac/structv8_1_1internal_1_1compiler_1_1turboshaft_1_1LabelBase_1_1BlockData.html" xlink:title=" ">
<polygon fill="white" stroke="none" points="988,-359.5 840,-359.5 840,-281.5 988,-281.5 988,-359.5"/>
<text text-anchor="start" x="845" y="-346" font-family="Cascadia Code NF" font-size="10.00">v8::internal::compiler</text>
<text text-anchor="start" x="845" y="-333.25" font-family="Cascadia Code NF" font-size="10.00">::turboshaft::LabelBase</text>
<text text-anchor="start" x="845" y="-320.5" font-family="Cascadia Code NF" font-size="10.00">&lt; loop, Ts &gt;::BlockData</text>
<text text-anchor="start" x="911" y="-304" font-family="Cascadia Code NF" font-size="10.00"> </text>
<text text-anchor="start" x="860" y="-288" font-family="Cascadia Code NF" font-size="10.00">+</text>
<text text-anchor="start" x="886" y="-288" font-family="Cascadia Code NF" font-size="10.00">BlockData()</text>
<polygon fill="#bfbfbf" stroke="#bfbfbf" points="840,-315.5 840,-315.5 988,-315.5 988,-315.5 840,-315.5"/>
<polygon fill="#bfbfbf" stroke="#bfbfbf" points="840,-299.5 840,-299.5 988,-299.5 988,-299.5 840,-299.5"/>
<polygon fill="none" stroke="#bfbfbf" points="840,-281.5 840,-359.5 988,-359.5 988,-281.5 840,-281.5"/>
</a>
</g>
</g>
<!-- Node5&#45;&gt;Node2 -->
<g id="edge4_Node000002_Node000005" class="edge">
<title>Node5&#45;&gt;Node2</title>
<g id="a_edge4_Node000002_Node000005"><a xlink:title=" ">
<path fill="none" stroke="#63b8ff" d="M987.79,-320.5C1029.38,-320.5 1081.75,-320.5 1125.32,-320.5"/>
<polygon fill="none" stroke="#63b8ff" points="1125.33,-320.5 1131.33,-316.5 1137.33,-320.5 1131.33,-324.5 1125.33,-320.5"/>
</a>
</g>
<text text-anchor="middle" x="1063" y="-323.75" font-family="Cascadia Code NF" font-size="10.00" fill="grey"> #data_</text>
</g>
<!-- Node6 -->
<g id="Node000006" class="node">
<title>Node6</title>
<g id="a_Node000006"><a xlink:href="$df/d4b/classv8_1_1internal_1_1compiler_1_1turboshaft_1_1Block.html" xlink:title=" ">
<polygon fill="white" stroke="none" points="690,-308 548,-308 548,-83 690,-83 690,-308"/>
<text text-anchor="start" x="553" y="-294.5" font-family="Cascadia Code NF" font-size="10.00">v8::internal::compiler</text>
<text text-anchor="start" x="562" y="-281.75" font-family="Cascadia Code NF" font-size="10.00">::turboshaft::Block</text>
<text text-anchor="start" x="616" y="-265.5" font-family="Cascadia Code NF" font-size="10.00"> </text>
<text text-anchor="start" x="559" y="-249.5" font-family="Cascadia Code NF" font-size="10.00">+</text>
<text text-anchor="start" x="576" y="-249.5" font-family="Cascadia Code NF" font-size="10.00">Block()</text>
<text text-anchor="start" x="559" y="-233.5" font-family="Cascadia Code NF" font-size="10.00">+</text>
<text text-anchor="start" x="576" y="-233.5" font-family="Cascadia Code NF" font-size="10.00">IsLoopOrMerge()</text>
<text text-anchor="start" x="559" y="-217.5" font-family="Cascadia Code NF" font-size="10.00">+</text>
<text text-anchor="start" x="576" y="-217.5" font-family="Cascadia Code NF" font-size="10.00">IsLoop()</text>
<text text-anchor="start" x="559" y="-201.5" font-family="Cascadia Code NF" font-size="10.00">+</text>
<text text-anchor="start" x="576" y="-201.5" font-family="Cascadia Code NF" font-size="10.00">IsMerge()</text>
<text text-anchor="start" x="559" y="-185.5" font-family="Cascadia Code NF" font-size="10.00">+</text>
<text text-anchor="start" x="576" y="-185.5" font-family="Cascadia Code NF" font-size="10.00">IsBranchTarget()</text>
<text text-anchor="start" x="559" y="-169.5" font-family="Cascadia Code NF" font-size="10.00">+</text>
<text text-anchor="start" x="576" y="-169.5" font-family="Cascadia Code NF" font-size="10.00">kind()</text>
<text text-anchor="start" x="559" y="-153.5" font-family="Cascadia Code NF" font-size="10.00">+</text>
<text text-anchor="start" x="576" y="-153.5" font-family="Cascadia Code NF" font-size="10.00">SetKind()</text>
<text text-anchor="start" x="559" y="-137.5" font-family="Cascadia Code NF" font-size="10.00">+</text>
<text text-anchor="start" x="576" y="-137.5" font-family="Cascadia Code NF" font-size="10.00">index()</text>
<text text-anchor="start" x="559" y="-121.5" font-family="Cascadia Code NF" font-size="10.00">+</text>
<text text-anchor="start" x="576" y="-121.5" font-family="Cascadia Code NF" font-size="10.00">Contains()</text>
<text text-anchor="start" x="559" y="-105.5" font-family="Cascadia Code NF" font-size="10.00">+</text>
<text text-anchor="start" x="576" y="-105.5" font-family="Cascadia Code NF" font-size="10.00">IsBound()</text>
<text text-anchor="start" x="576" y="-89.5" font-family="Cascadia Code NF" font-size="10.00">and 24 more...</text>
<polygon fill="#bfbfbf" stroke="#bfbfbf" points="548,-277 548,-277 690,-277 690,-277 548,-277"/>
<polygon fill="#bfbfbf" stroke="#bfbfbf" points="548,-261 548,-261 690,-261 690,-261 548,-261"/>
<polygon fill="none" stroke="#bfbfbf" points="548,-83 548,-308 690,-308 690,-83 548,-83"/>
</a>
</g>
</g>
<!-- Node6&#45;&gt;Node5 -->
<g id="edge5_Node000005_Node000006" class="edge">
<title>Node6&#45;&gt;Node5</title>
<g id="a_edge5_Node000005_Node000006"><a xlink:title=" ">
<path fill="none" stroke="#63b8ff" d="M689.81,-225.28C731.36,-243.01 784.38,-265.63 828.31,-284.37"/>
<polygon fill="none" stroke="#63b8ff" points="828.29,-284.36 835.37,-283.03 839.32,-289.07 832.23,-290.39 828.29,-284.36"/>
</a>
</g>
<text text-anchor="middle" x="771" y="-282.75" font-family="Cascadia Code NF" font-size="10.00" fill="grey"> +block</text>
</g>
<!-- Node7 -->
<g id="Node000007" class="node">
<title>Node7</title>
<g id="a_Node000007"><a xlink:href="$d9/df5/classv8_1_1internal_1_1compiler_1_1turboshaft_1_1RandomAccessStackDominatorNode.html" xlink:title=" ">
<polygon fill="white" stroke="none" points="422,-274.5 226,-274.5 226,-116.5 422,-116.5 422,-274.5"/>
<text text-anchor="start" x="231" y="-261" font-family="Cascadia Code NF" font-size="10.00">v8::internal::compiler</text>
<text text-anchor="start" x="231" y="-248.25" font-family="Cascadia Code NF" font-size="10.00">::turboshaft::RandomAccessStack</text>
<text text-anchor="start" x="258" y="-235.5" font-family="Cascadia Code NF" font-size="10.00">DominatorNode&lt; Block &gt;</text>
<text text-anchor="start" x="321" y="-219" font-family="Cascadia Code NF" font-size="10.00"> </text>
<text text-anchor="start" x="244.5" y="-203" font-family="Cascadia Code NF" font-size="10.00">+</text>
<text text-anchor="start" x="269" y="-203" font-family="Cascadia Code NF" font-size="10.00">SetDominator()</text>
<text text-anchor="start" x="244.5" y="-187" font-family="Cascadia Code NF" font-size="10.00">+</text>
<text text-anchor="start" x="269" y="-187" font-family="Cascadia Code NF" font-size="10.00">SetAsDominatorRoot()</text>
<text text-anchor="start" x="244.5" y="-171" font-family="Cascadia Code NF" font-size="10.00">+</text>
<text text-anchor="start" x="269" y="-171" font-family="Cascadia Code NF" font-size="10.00">GetDominator()</text>
<text text-anchor="start" x="244.5" y="-155" font-family="Cascadia Code NF" font-size="10.00">+</text>
<text text-anchor="start" x="269" y="-155" font-family="Cascadia Code NF" font-size="10.00">GetCommonDominator()</text>
<text text-anchor="start" x="244.5" y="-139" font-family="Cascadia Code NF" font-size="10.00">+</text>
<text text-anchor="start" x="269" y="-139" font-family="Cascadia Code NF" font-size="10.00">IsDominatedBy()</text>
<text text-anchor="start" x="244.5" y="-123" font-family="Cascadia Code NF" font-size="10.00">+</text>
<text text-anchor="start" x="269" y="-123" font-family="Cascadia Code NF" font-size="10.00">Depth()</text>
<polygon fill="#bfbfbf" stroke="#bfbfbf" points="226,-230.5 226,-230.5 422,-230.5 422,-230.5 226,-230.5"/>
<polygon fill="#bfbfbf" stroke="#bfbfbf" points="226,-214.5 226,-214.5 422,-214.5 422,-214.5 226,-214.5"/>
<polygon fill="none" stroke="#bfbfbf" points="226,-116.5 226,-274.5 422,-274.5 422,-116.5 226,-116.5"/>
</a>
</g>
</g>
<!-- Node7&#45;&gt;Node6 -->
<g id="edge6_Node000006_Node000007" class="edge">
<title>Node7&#45;&gt;Node6</title>
<g id="a_edge6_Node000006_Node000007"><a xlink:title=" ">
<path fill="none" stroke="#63b8ff" d="M433.03,-195.5C471.52,-195.5 513.82,-195.5 548.25,-195.5"/>
<polygon fill="none" stroke="#63b8ff" points="433.26,-192 423.26,-195.5 433.26,-199 433.26,-192"/>
</a>
</g>
</g>
<!-- Node8 -->
<g id="Node000008" class="node">
<title>Node8</title>
<g id="a_Node000008"><a xlink:href="$d8/d41/classv8_1_1internal_1_1compiler_1_1turboshaft_1_1DominatorForwardTreeNode.html" xlink:title=" ">
<polygon fill="white" stroke="none" points="190,-266.5 0,-266.5 0,-124.5 190,-124.5 190,-266.5"/>
<text text-anchor="start" x="5" y="-253" font-family="Cascadia Code NF" font-size="10.00">v8::internal::compiler</text>
<text text-anchor="start" x="5" y="-240.25" font-family="Cascadia Code NF" font-size="10.00">::turboshaft::DominatorForward</text>
<text text-anchor="start" x="44" y="-227.5" font-family="Cascadia Code NF" font-size="10.00">TreeNode&lt; Block &gt;</text>
<text text-anchor="start" x="92" y="-211" font-family="Cascadia Code NF" font-size="10.00"> </text>
<text text-anchor="start" x="20" y="-195" font-family="Cascadia Code NF" font-size="10.00">+</text>
<text text-anchor="start" x="46" y="-195" font-family="Cascadia Code NF" font-size="10.00">AddChild()</text>
<text text-anchor="start" x="20" y="-179" font-family="Cascadia Code NF" font-size="10.00">+</text>
<text text-anchor="start" x="46" y="-179" font-family="Cascadia Code NF" font-size="10.00">LastChild()</text>
<text text-anchor="start" x="20" y="-163" font-family="Cascadia Code NF" font-size="10.00">+</text>
<text text-anchor="start" x="46" y="-163" font-family="Cascadia Code NF" font-size="10.00">NeighboringChild()</text>
<text text-anchor="start" x="20" y="-147" font-family="Cascadia Code NF" font-size="10.00">+</text>
<text text-anchor="start" x="46" y="-147" font-family="Cascadia Code NF" font-size="10.00">HasChildren()</text>
<text text-anchor="start" x="20" y="-131" font-family="Cascadia Code NF" font-size="10.00">+</text>
<text text-anchor="start" x="46" y="-131" font-family="Cascadia Code NF" font-size="10.00">Children()</text>
<polygon fill="#bfbfbf" stroke="#bfbfbf" points="0,-222.5 0,-222.5 190,-222.5 190,-222.5 0,-222.5"/>
<polygon fill="#bfbfbf" stroke="#bfbfbf" points="0,-206.5 0,-206.5 190,-206.5 190,-206.5 0,-206.5"/>
<polygon fill="none" stroke="#bfbfbf" points="0,-124.5 0,-266.5 190,-266.5 190,-124.5 0,-124.5"/>
</a>
</g>
</g>
<!-- Node8&#45;&gt;Node7 -->
<g id="edge7_Node000007_Node000008" class="edge">
<title>Node8&#45;&gt;Node7</title>
<g id="a_edge7_Node000007_Node000008"><a xlink:title=" ">
<path fill="none" stroke="#63b8ff" d="M201.24,-195.5C209.55,-195.5 217.92,-195.5 226.17,-195.5"/>
<polygon fill="none" stroke="#63b8ff" points="201.48,-192 191.48,-195.5 201.48,-199 201.48,-192"/>
</a>
</g>
</g>
<!-- Node9&#45;&gt;Node5 -->
<g id="edge8_Node000005_Node000009" class="edge">
<title>Node9&#45;&gt;Node5</title>
<g id="a_edge8_Node000005_Node000009"><a xlink:title=" ">
<path fill="none" stroke="#63b8ff" d="M701.62,-410.68C741.14,-393.82 788.56,-373.59 828.46,-356.57"/>
<polygon fill="none" stroke="#63b8ff" points="828.44,-356.57 832.39,-350.54 839.48,-351.86 835.53,-357.9 828.44,-356.57"/>
</a>
</g>
<text text-anchor="middle" x="771" y="-404.75" font-family="Cascadia Code NF" font-size="10.00" fill="grey"> +predecessors</text>
</g>
<!-- Node10 -->
<g id="Node000010" class="node">
<title>Node10</title>
<g id="a_Node000010"><a xlink:title=" ">
<polygon fill="white" stroke="none" points="696,-65 542,-65 542,0 696,0 696,-65"/>
<text text-anchor="start" x="547" y="-51.5" font-family="Cascadia Code NF" font-size="10.00">tuple&lt; base::SmallVector</text>
<text text-anchor="start" x="562" y="-38.75" font-family="Cascadia Code NF" font-size="10.00">&lt; V&lt; Ts &gt;, 2 &gt;... &gt;</text>
<text text-anchor="start" x="616" y="-22.5" font-family="Cascadia Code NF" font-size="10.00"> </text>
<text text-anchor="start" x="616" y="-6.5" font-family="Cascadia Code NF" font-size="10.00"> </text>
<polygon fill="#bfbfbf" stroke="#bfbfbf" points="542,-34 542,-34 696,-34 696,-34 542,-34"/>
<polygon fill="#bfbfbf" stroke="#bfbfbf" points="542,-18 542,-18 696,-18 696,-18 542,-18"/>
<polygon fill="none" stroke="#bfbfbf" points="542,0 542,-65 696,-65 696,0 542,0"/>
</a>
</g>
</g>
<!-- Node10&#45;&gt;Node5 -->
<g id="edge10_Node000005_Node000010" class="edge">
<title>Node10&#45;&gt;Node5</title>
<g id="a_edge10_Node000005_Node000010"><a xlink:title=" ">
<path fill="none" stroke="#63b8ff" d="M690.2,-64.93C694.31,-67.64 698.28,-70.5 702,-73.5 768.26,-126.93 780.29,-148.56 822,-222.75 831.95,-240.44 827.28,-250.91 840.56,-271.24"/>
<polygon fill="none" stroke="#63b8ff" points="840.65,-271.36 847.44,-273.78 847.82,-280.98 841.03,-278.56 840.65,-271.36"/>
</a>
</g>
<text text-anchor="middle" x="771" y="-226.75" font-family="Cascadia Code NF" font-size="10.00" fill="grey"> +recorded_values</text>
</g>
</g>
</svg>
