<?xml version="1.0" encoding="UTF-8" standalone="no"?>
<!DOCTYPE svg PUBLIC "-//W3C//DTD SVG 1.1//EN"
 "http://www.w3.org/Graphics/SVG/1.1/DTD/svg11.dtd">
<!-- Generated by graphviz version 11.0.0 (20240428.1522)
 -->
<!-- Title: v8::internal::BuiltinFrame Pages: 1 -->
<svg width="1026pt" height="409pt"
 viewBox="0.00 0.00 1026.00 409.00" xmlns="http://www.w3.org/2000/svg" xmlns:xlink="http://www.w3.org/1999/xlink">
<g id="graph0" class="graph" transform="scale(1 1) rotate(0) translate(4 405)">
<title>v8::internal::BuiltinFrame</title>
<!-- Node1 -->
<g id="Node000001" class="node">
<title>Node1</title>
<g id="a_Node000001"><a xlink:title=" ">
<polygon fill="#999999" stroke="none" points="1018,-258.5 852,-258.5 852,-142.5 1018,-142.5 1018,-258.5"/>
<text text-anchor="start" x="857" y="-245" font-family="Cascadia Code NF" font-size="10.00">v8::internal::BuiltinFrame</text>
<text text-anchor="start" x="932" y="-229" font-family="Cascadia Code NF" font-size="10.00"> </text>
<text text-anchor="start" x="857" y="-213" font-family="Cascadia Code NF" font-size="10.00">+</text>
<text text-anchor="start" x="868" y="-213" font-family="Cascadia Code NF" font-size="10.00">type()</text>
<text text-anchor="start" x="857" y="-197" font-family="Cascadia Code NF" font-size="10.00">+</text>
<text text-anchor="start" x="868" y="-197" font-family="Cascadia Code NF" font-size="10.00">function()</text>
<text text-anchor="start" x="857" y="-181" font-family="Cascadia Code NF" font-size="10.00">+</text>
<text text-anchor="start" x="868" y="-181" font-family="Cascadia Code NF" font-size="10.00">ComputeParametersCount()</text>
<text text-anchor="start" x="857" y="-165" font-family="Cascadia Code NF" font-size="10.00">+</text>
<text text-anchor="start" x="868" y="-165" font-family="Cascadia Code NF" font-size="10.00">cast()</text>
<text text-anchor="start" x="857" y="-149" font-family="Cascadia Code NF" font-size="10.00">#</text>
<text text-anchor="start" x="868" y="-149" font-family="Cascadia Code NF" font-size="10.00">BuiltinFrame()</text>
<polygon fill="#666666" stroke="#666666" points="852,-240.5 852,-240.5 1018,-240.5 1018,-240.5 852,-240.5"/>
<polygon fill="#666666" stroke="#666666" points="852,-224.5 852,-224.5 1018,-224.5 1018,-224.5 852,-224.5"/>
<polygon fill="none" stroke="#666666" points="852,-142.5 852,-258.5 1018,-258.5 1018,-142.5 852,-142.5"/>
</a>
</g>
</g>
<!-- Node2 -->
<g id="Node000002" class="node">
<title>Node2</title>
<g id="a_Node000002"><a xlink:href="../../df/da6/classv8_1_1internal_1_1TypedFrameWithJSLinkage.html" target="_top" xlink:title=" ">
<polygon fill="white" stroke="none" points="816,-241 648,-241 648,-160 816,-160 816,-241"/>
<text text-anchor="start" x="660" y="-227.5" font-family="Cascadia Code NF" font-size="10.00">v8::internal::TypedFrame</text>
<text text-anchor="start" x="693" y="-214.75" font-family="Cascadia Code NF" font-size="10.00">WithJSLinkage</text>
<text text-anchor="start" x="729" y="-198.5" font-family="Cascadia Code NF" font-size="10.00"> </text>
<text text-anchor="start" x="652" y="-182.5" font-family="Cascadia Code NF" font-size="10.00">+</text>
<text text-anchor="start" x="662" y="-182.5" font-family="Cascadia Code NF" font-size="10.00">Iterate()</text>
<text text-anchor="start" x="652" y="-166.5" font-family="Cascadia Code NF" font-size="10.00">#</text>
<text text-anchor="start" x="662" y="-166.5" font-family="Cascadia Code NF" font-size="10.00">TypedFrameWithJSLinkage()</text>
<polygon fill="#bfbfbf" stroke="#bfbfbf" points="648,-210 648,-210 816,-210 816,-210 648,-210"/>
<polygon fill="#bfbfbf" stroke="#bfbfbf" points="648,-194 648,-194 816,-194 816,-194 648,-194"/>
<polygon fill="none" stroke="#bfbfbf" points="648,-160 648,-241 816,-241 816,-160 648,-160"/>
</a>
</g>
</g>
<!-- Node2&#45;&gt;Node1 -->
<g id="edge1_Node000001_Node000002" class="edge">
<title>Node2&#45;&gt;Node1</title>
<g id="a_edge1_Node000001_Node000002"><a xlink:title=" ">
<path fill="none" stroke="#63b8ff" d="M827.25,-200.5C835.6,-200.5 844.01,-200.5 852.25,-200.5"/>
<polygon fill="none" stroke="#63b8ff" points="827.43,-197 817.43,-200.5 827.43,-204 827.43,-197"/>
</a>
</g>
</g>
<!-- Node3 -->
<g id="Node000003" class="node">
<title>Node3</title>
<g id="a_Node000003"><a xlink:href="../../d0/d7c/classv8_1_1internal_1_1CommonFrameWithJSLinkage.html" target="_top" xlink:title=" ">
<polygon fill="white" stroke="none" points="612,-335.5 438,-335.5 438,-65.5 612,-65.5 612,-335.5"/>
<text text-anchor="start" x="450" y="-322" font-family="Cascadia Code NF" font-size="10.00">v8::internal::CommonFrame</text>
<text text-anchor="start" x="486" y="-309.25" font-family="Cascadia Code NF" font-size="10.00">WithJSLinkage</text>
<text text-anchor="start" x="522" y="-293" font-family="Cascadia Code NF" font-size="10.00"> </text>
<text text-anchor="start" x="442" y="-277" font-family="Cascadia Code NF" font-size="10.00">+</text>
<text text-anchor="start" x="452" y="-277" font-family="Cascadia Code NF" font-size="10.00">function()</text>
<text text-anchor="start" x="442" y="-261" font-family="Cascadia Code NF" font-size="10.00">+</text>
<text text-anchor="start" x="452" y="-261" font-family="Cascadia Code NF" font-size="10.00">receiver()</text>
<text text-anchor="start" x="442" y="-245" font-family="Cascadia Code NF" font-size="10.00">+</text>
<text text-anchor="start" x="452" y="-245" font-family="Cascadia Code NF" font-size="10.00">GetParameter()</text>
<text text-anchor="start" x="442" y="-229" font-family="Cascadia Code NF" font-size="10.00">+</text>
<text text-anchor="start" x="452" y="-229" font-family="Cascadia Code NF" font-size="10.00">ComputeParametersCount()</text>
<text text-anchor="start" x="442" y="-213" font-family="Cascadia Code NF" font-size="10.00">+</text>
<text text-anchor="start" x="452" y="-213" font-family="Cascadia Code NF" font-size="10.00">GetParameters()</text>
<text text-anchor="start" x="442" y="-197" font-family="Cascadia Code NF" font-size="10.00">+</text>
<text text-anchor="start" x="452" y="-197" font-family="Cascadia Code NF" font-size="10.00">GetActualArgumentCount()</text>
<text text-anchor="start" x="442" y="-181" font-family="Cascadia Code NF" font-size="10.00">+</text>
<text text-anchor="start" x="452" y="-181" font-family="Cascadia Code NF" font-size="10.00">unchecked_code()</text>
<text text-anchor="start" x="442" y="-165" font-family="Cascadia Code NF" font-size="10.00">+</text>
<text text-anchor="start" x="452" y="-165" font-family="Cascadia Code NF" font-size="10.00">LookupExceptionHandlerIn</text>
<text text-anchor="start" x="452" y="-152.25" font-family="Cascadia Code NF" font-size="10.00">Table()</text>
<text text-anchor="start" x="442" y="-136" font-family="Cascadia Code NF" font-size="10.00">+</text>
<text text-anchor="start" x="452" y="-136" font-family="Cascadia Code NF" font-size="10.00">IsConstructor()</text>
<text text-anchor="start" x="442" y="-120" font-family="Cascadia Code NF" font-size="10.00">+</text>
<text text-anchor="start" x="452" y="-120" font-family="Cascadia Code NF" font-size="10.00">Summarize()</text>
<text text-anchor="start" x="442" y="-104" font-family="Cascadia Code NF" font-size="10.00">#</text>
<text text-anchor="start" x="452" y="-104" font-family="Cascadia Code NF" font-size="10.00">CommonFrameWithJSLinkage()</text>
<text text-anchor="start" x="442" y="-88" font-family="Cascadia Code NF" font-size="10.00">#</text>
<text text-anchor="start" x="452" y="-88" font-family="Cascadia Code NF" font-size="10.00">GetParameterSlot()</text>
<text text-anchor="start" x="442" y="-72" font-family="Cascadia Code NF" font-size="10.00">#</text>
<text text-anchor="start" x="452" y="-72" font-family="Cascadia Code NF" font-size="10.00">IsConstructFrame()</text>
<polygon fill="#bfbfbf" stroke="#bfbfbf" points="438,-304.5 438,-304.5 612,-304.5 612,-304.5 438,-304.5"/>
<polygon fill="#bfbfbf" stroke="#bfbfbf" points="438,-288.5 438,-288.5 612,-288.5 612,-288.5 438,-288.5"/>
<polygon fill="none" stroke="#bfbfbf" points="438,-65.5 438,-335.5 612,-335.5 612,-65.5 438,-65.5"/>
</a>
</g>
</g>
<!-- Node3&#45;&gt;Node2 -->
<g id="edge2_Node000002_Node000003" class="edge">
<title>Node3&#45;&gt;Node2</title>
<g id="a_edge2_Node000002_Node000003"><a xlink:title=" ">
<path fill="none" stroke="#63b8ff" d="M623.14,-200.5C631.52,-200.5 639.96,-200.5 648.22,-200.5"/>
<polygon fill="none" stroke="#63b8ff" points="623.26,-197 613.26,-200.5 623.26,-204 623.26,-197"/>
</a>
</g>
</g>
<!-- Node4 -->
<g id="Node000004" class="node">
<title>Node4</title>
<g id="a_Node000004"><a xlink:href="../../d1/d1f/classv8_1_1internal_1_1CommonFrame.html" target="_top" xlink:title=" ">
<polygon fill="white" stroke="none" points="402,-353 234,-353 234,-48 402,-48 402,-353"/>
<text text-anchor="start" x="243" y="-339.5" font-family="Cascadia Code NF" font-size="10.00">v8::internal::CommonFrame</text>
<text text-anchor="start" x="315" y="-323.5" font-family="Cascadia Code NF" font-size="10.00"> </text>
<text text-anchor="start" x="238" y="-307.5" font-family="Cascadia Code NF" font-size="10.00">+</text>
<text text-anchor="start" x="248" y="-307.5" font-family="Cascadia Code NF" font-size="10.00">context()</text>
<text text-anchor="start" x="238" y="-291.5" font-family="Cascadia Code NF" font-size="10.00">+</text>
<text text-anchor="start" x="248" y="-291.5" font-family="Cascadia Code NF" font-size="10.00">position()</text>
<text text-anchor="start" x="238" y="-275.5" font-family="Cascadia Code NF" font-size="10.00">+</text>
<text text-anchor="start" x="248" y="-275.5" font-family="Cascadia Code NF" font-size="10.00">GetExpression()</text>
<text text-anchor="start" x="238" y="-259.5" font-family="Cascadia Code NF" font-size="10.00">+</text>
<text text-anchor="start" x="248" y="-259.5" font-family="Cascadia Code NF" font-size="10.00">SetExpression()</text>
<text text-anchor="start" x="238" y="-243.5" font-family="Cascadia Code NF" font-size="10.00">+</text>
<text text-anchor="start" x="248" y="-243.5" font-family="Cascadia Code NF" font-size="10.00">ComputeExpressionsCount()</text>
<text text-anchor="start" x="238" y="-227.5" font-family="Cascadia Code NF" font-size="10.00">+</text>
<text text-anchor="start" x="248" y="-227.5" font-family="Cascadia Code NF" font-size="10.00">GetCallerStackPointer()</text>
<text text-anchor="start" x="238" y="-211.5" font-family="Cascadia Code NF" font-size="10.00">+</text>
<text text-anchor="start" x="248" y="-211.5" font-family="Cascadia Code NF" font-size="10.00">Summarize()</text>
<text text-anchor="start" x="238" y="-195.5" font-family="Cascadia Code NF" font-size="10.00">+</text>
<text text-anchor="start" x="248" y="-195.5" font-family="Cascadia Code NF" font-size="10.00">cast()</text>
<text text-anchor="start" x="238" y="-179.5" font-family="Cascadia Code NF" font-size="10.00">#</text>
<text text-anchor="start" x="248" y="-179.5" font-family="Cascadia Code NF" font-size="10.00">CommonFrame()</text>
<text text-anchor="start" x="238" y="-163.5" font-family="Cascadia Code NF" font-size="10.00">#</text>
<text text-anchor="start" x="248" y="-163.5" font-family="Cascadia Code NF" font-size="10.00">HasTaggedOutgoingParams()</text>
<text text-anchor="start" x="238" y="-147.5" font-family="Cascadia Code NF" font-size="10.00">#</text>
<text text-anchor="start" x="248" y="-147.5" font-family="Cascadia Code NF" font-size="10.00">ComputeCallerState()</text>
<text text-anchor="start" x="238" y="-131.5" font-family="Cascadia Code NF" font-size="10.00">#</text>
<text text-anchor="start" x="248" y="-131.5" font-family="Cascadia Code NF" font-size="10.00">caller_fp()</text>
<text text-anchor="start" x="238" y="-115.5" font-family="Cascadia Code NF" font-size="10.00">#</text>
<text text-anchor="start" x="248" y="-115.5" font-family="Cascadia Code NF" font-size="10.00">caller_pc()</text>
<text text-anchor="start" x="238" y="-99.5" font-family="Cascadia Code NF" font-size="10.00">#</text>
<text text-anchor="start" x="248" y="-99.5" font-family="Cascadia Code NF" font-size="10.00">IterateExpressions()</text>
<text text-anchor="start" x="238" y="-83.5" font-family="Cascadia Code NF" font-size="10.00">#</text>
<text text-anchor="start" x="248" y="-83.5" font-family="Cascadia Code NF" font-size="10.00">IterateTurbofanOptimized</text>
<text text-anchor="start" x="248" y="-70.75" font-family="Cascadia Code NF" font-size="10.00">Frame()</text>
<text text-anchor="start" x="238" y="-54.5" font-family="Cascadia Code NF" font-size="10.00">#</text>
<text text-anchor="start" x="248" y="-54.5" font-family="Cascadia Code NF" font-size="10.00">GetExpressionAddress()</text>
<polygon fill="#bfbfbf" stroke="#bfbfbf" points="234,-335 234,-335 402,-335 402,-335 234,-335"/>
<polygon fill="#bfbfbf" stroke="#bfbfbf" points="234,-319 234,-319 402,-319 402,-319 234,-319"/>
<polygon fill="none" stroke="#bfbfbf" points="234,-48 234,-353 402,-353 402,-48 234,-48"/>
</a>
</g>
</g>
<!-- Node4&#45;&gt;Node3 -->
<g id="edge3_Node000003_Node000004" class="edge">
<title>Node4&#45;&gt;Node3</title>
<g id="a_edge3_Node000003_Node000004"><a xlink:title=" ">
<path fill="none" stroke="#63b8ff" d="M413.13,-200.5C421.5,-200.5 429.94,-200.5 438.23,-200.5"/>
<polygon fill="none" stroke="#63b8ff" points="413.3,-197 403.3,-200.5 413.3,-204 413.3,-197"/>
</a>
</g>
</g>
<!-- Node5 -->
<g id="Node000005" class="node">
<title>Node5</title>
<g id="a_Node000005"><a xlink:href="../../d0/d2d/classv8_1_1internal_1_1StackFrame.html" target="_top" xlink:title=" ">
<polygon fill="white" stroke="none" points="198,-401 0,-401 0,0 198,0 198,-401"/>
<text text-anchor="start" x="27" y="-387.5" font-family="Cascadia Code NF" font-size="10.00">v8::internal::StackFrame</text>
<text text-anchor="start" x="4" y="-371.5" font-family="Cascadia Code NF" font-size="10.00">#</text>
<text text-anchor="start" x="14" y="-371.5" font-family="Cascadia Code NF" font-size="10.00">iterator_</text>
<text text-anchor="start" x="4" y="-355.5" font-family="Cascadia Code NF" font-size="10.00">+</text>
<text text-anchor="start" x="14" y="-355.5" font-family="Cascadia Code NF" font-size="10.00">StackFrame()</text>
<text text-anchor="start" x="4" y="-339.5" font-family="Cascadia Code NF" font-size="10.00">+</text>
<text text-anchor="start" x="14" y="-339.5" font-family="Cascadia Code NF" font-size="10.00">is_entry()</text>
<text text-anchor="start" x="4" y="-323.5" font-family="Cascadia Code NF" font-size="10.00">+</text>
<text text-anchor="start" x="14" y="-323.5" font-family="Cascadia Code NF" font-size="10.00">is_construct_entry()</text>
<text text-anchor="start" x="4" y="-307.5" font-family="Cascadia Code NF" font-size="10.00">+</text>
<text text-anchor="start" x="14" y="-307.5" font-family="Cascadia Code NF" font-size="10.00">is_exit()</text>
<text text-anchor="start" x="4" y="-291.5" font-family="Cascadia Code NF" font-size="10.00">+</text>
<text text-anchor="start" x="14" y="-291.5" font-family="Cascadia Code NF" font-size="10.00">is_optimized()</text>
<text text-anchor="start" x="4" y="-275.5" font-family="Cascadia Code NF" font-size="10.00">+</text>
<text text-anchor="start" x="14" y="-275.5" font-family="Cascadia Code NF" font-size="10.00">is_unoptimized()</text>
<text text-anchor="start" x="4" y="-259.5" font-family="Cascadia Code NF" font-size="10.00">+</text>
<text text-anchor="start" x="14" y="-259.5" font-family="Cascadia Code NF" font-size="10.00">is_interpreted()</text>
<text text-anchor="start" x="4" y="-243.5" font-family="Cascadia Code NF" font-size="10.00">+</text>
<text text-anchor="start" x="14" y="-243.5" font-family="Cascadia Code NF" font-size="10.00">is_baseline()</text>
<text text-anchor="start" x="4" y="-227.5" font-family="Cascadia Code NF" font-size="10.00">+</text>
<text text-anchor="start" x="14" y="-227.5" font-family="Cascadia Code NF" font-size="10.00">is_maglev()</text>
<text text-anchor="start" x="4" y="-211.5" font-family="Cascadia Code NF" font-size="10.00">+</text>
<text text-anchor="start" x="14" y="-211.5" font-family="Cascadia Code NF" font-size="10.00">is_turbofan()</text>
<text text-anchor="start" x="14" y="-195.5" font-family="Cascadia Code NF" font-size="10.00">and 35 more...</text>
<text text-anchor="start" x="4" y="-179.5" font-family="Cascadia Code NF" font-size="10.00">+</text>
<text text-anchor="start" x="14" y="-179.5" font-family="Cascadia Code NF" font-size="10.00">TypeToMarker()</text>
<text text-anchor="start" x="4" y="-163.5" font-family="Cascadia Code NF" font-size="10.00">+</text>
<text text-anchor="start" x="14" y="-163.5" font-family="Cascadia Code NF" font-size="10.00">MarkerToType()</text>
<text text-anchor="start" x="4" y="-147.5" font-family="Cascadia Code NF" font-size="10.00">+</text>
<text text-anchor="start" x="14" y="-147.5" font-family="Cascadia Code NF" font-size="10.00">IsTypeMarker()</text>
<text text-anchor="start" x="4" y="-131.5" font-family="Cascadia Code NF" font-size="10.00">+</text>
<text text-anchor="start" x="14" y="-131.5" font-family="Cascadia Code NF" font-size="10.00">IsJavaScript()</text>
<text text-anchor="start" x="4" y="-115.5" font-family="Cascadia Code NF" font-size="10.00">+</text>
<text text-anchor="start" x="14" y="-115.5" font-family="Cascadia Code NF" font-size="10.00">unauthenticated_pc()</text>
<text text-anchor="start" x="4" y="-99.5" font-family="Cascadia Code NF" font-size="10.00">+</text>
<text text-anchor="start" x="14" y="-99.5" font-family="Cascadia Code NF" font-size="10.00">maybe_unauthenticated_pc()</text>
<text text-anchor="start" x="4" y="-83.5" font-family="Cascadia Code NF" font-size="10.00">+</text>
<text text-anchor="start" x="14" y="-83.5" font-family="Cascadia Code NF" font-size="10.00">SetReturnAddressLocation</text>
<text text-anchor="start" x="14" y="-70.75" font-family="Cascadia Code NF" font-size="10.00">Resolver()</text>
<text text-anchor="start" x="4" y="-54.5" font-family="Cascadia Code NF" font-size="10.00">+</text>
<text text-anchor="start" x="14" y="-54.5" font-family="Cascadia Code NF" font-size="10.00">ReadPC()</text>
<text text-anchor="start" x="4" y="-38.5" font-family="Cascadia Code NF" font-size="10.00">+</text>
<text text-anchor="start" x="14" y="-38.5" font-family="Cascadia Code NF" font-size="10.00">ResolveReturnAddressLocation()</text>
<text text-anchor="start" x="4" y="-22.5" font-family="Cascadia Code NF" font-size="10.00">#</text>
<text text-anchor="start" x="14" y="-22.5" font-family="Cascadia Code NF" font-size="10.00">StackFrame()</text>
<text text-anchor="start" x="4" y="-6.5" font-family="Cascadia Code NF" font-size="10.00">#</text>
<text text-anchor="start" x="14" y="-6.5" font-family="Cascadia Code NF" font-size="10.00">GetCallerStackPointer()</text>
<polygon fill="#bfbfbf" stroke="#bfbfbf" points="0,-383 0,-383 198,-383 198,-383 0,-383"/>
<polygon fill="#bfbfbf" stroke="#bfbfbf" points="0,-367 0,-367 12,-367 12,-367 0,-367"/>
<polygon fill="#bfbfbf" stroke="#bfbfbf" points="12,-367 12,-367 198,-367 198,-367 12,-367"/>
<polygon fill="none" stroke="#bfbfbf" points="0,0 0,-401 198,-401 198,0 0,0"/>
</a>
</g>
</g>
<!-- Node5&#45;&gt;Node4 -->
<g id="edge4_Node000004_Node000005" class="edge">
<title>Node5&#45;&gt;Node4</title>
<g id="a_edge4_Node000004_Node000005"><a xlink:title=" ">
<path fill="none" stroke="#63b8ff" d="M209.13,-200.5C217.52,-200.5 225.91,-200.5 234.09,-200.5"/>
<polygon fill="none" stroke="#63b8ff" points="209.22,-197 199.22,-200.5 209.22,-204 209.22,-197"/>
</a>
</g>
</g>
</g>
</svg>
