<?xml version="1.0" encoding="UTF-8" standalone="no"?>
<!DOCTYPE svg PUBLIC "-//W3C//DTD SVG 1.1//EN"
 "http://www.w3.org/Graphics/SVG/1.1/DTD/svg11.dtd">
<!-- Generated by graphviz version 11.0.0 (20240428.1522)
 -->
<!-- Title: TorqueGeneratedPromiseReactionJobTask&lt; D, P &gt; Pages: 1 -->
<svg width="432pt" height="400pt"
 viewBox="0.00 0.00 432.00 400.00" xmlns="http://www.w3.org/2000/svg" xmlns:xlink="http://www.w3.org/1999/xlink">
<g id="graph0" class="graph" transform="scale(1 1) rotate(0) translate(4 396)">
<title>TorqueGeneratedPromiseReactionJobTask&lt; D, P &gt;</title>
<!-- Node1 -->
<g id="Node000001" class="node">
<title>Node1</title>
<g id="a_Node000001"><a xlink:title=" ">
<polygon fill="#999999" stroke="none" points="424,-392 226,-392 226,0 424,0 424,-392"/>
<text text-anchor="start" x="235" y="-378.5" font-family="Cascadia Code NF" font-size="10.00">TorqueGeneratedPromiseReaction</text>
<text text-anchor="start" x="280" y="-365.75" font-family="Cascadia Code NF" font-size="10.00">JobTask&lt; D, P &gt;</text>
<text text-anchor="start" x="230" y="-349.5" font-family="Cascadia Code NF" font-size="10.00">+</text>
<text text-anchor="start" x="240" y="-349.5" font-family="Cascadia Code NF" font-size="10.00">kStartOfStrongFieldsOffset</text>
<text text-anchor="start" x="230" y="-333.5" font-family="Cascadia Code NF" font-size="10.00">+</text>
<text text-anchor="start" x="240" y="-333.5" font-family="Cascadia Code NF" font-size="10.00">kPromiseOrCapabilityOffsetEnd</text>
<text text-anchor="start" x="230" y="-317.5" font-family="Cascadia Code NF" font-size="10.00">+</text>
<text text-anchor="start" x="240" y="-317.5" font-family="Cascadia Code NF" font-size="10.00">kStartOfWeakFieldsOffset</text>
<text text-anchor="start" x="230" y="-301.5" font-family="Cascadia Code NF" font-size="10.00">+</text>
<text text-anchor="start" x="240" y="-301.5" font-family="Cascadia Code NF" font-size="10.00">argument()</text>
<text text-anchor="start" x="230" y="-285.5" font-family="Cascadia Code NF" font-size="10.00">+</text>
<text text-anchor="start" x="240" y="-285.5" font-family="Cascadia Code NF" font-size="10.00">argument()</text>
<text text-anchor="start" x="230" y="-269.5" font-family="Cascadia Code NF" font-size="10.00">+</text>
<text text-anchor="start" x="240" y="-269.5" font-family="Cascadia Code NF" font-size="10.00">set_argument()</text>
<text text-anchor="start" x="230" y="-253.5" font-family="Cascadia Code NF" font-size="10.00">+</text>
<text text-anchor="start" x="240" y="-253.5" font-family="Cascadia Code NF" font-size="10.00">context()</text>
<text text-anchor="start" x="230" y="-237.5" font-family="Cascadia Code NF" font-size="10.00">+</text>
<text text-anchor="start" x="240" y="-237.5" font-family="Cascadia Code NF" font-size="10.00">context()</text>
<text text-anchor="start" x="230" y="-221.5" font-family="Cascadia Code NF" font-size="10.00">+</text>
<text text-anchor="start" x="240" y="-221.5" font-family="Cascadia Code NF" font-size="10.00">set_context()</text>
<text text-anchor="start" x="230" y="-205.5" font-family="Cascadia Code NF" font-size="10.00">+</text>
<text text-anchor="start" x="240" y="-205.5" font-family="Cascadia Code NF" font-size="10.00">handler()</text>
<text text-anchor="start" x="230" y="-189.5" font-family="Cascadia Code NF" font-size="10.00">+</text>
<text text-anchor="start" x="240" y="-189.5" font-family="Cascadia Code NF" font-size="10.00">handler()</text>
<text text-anchor="start" x="230" y="-173.5" font-family="Cascadia Code NF" font-size="10.00">+</text>
<text text-anchor="start" x="240" y="-173.5" font-family="Cascadia Code NF" font-size="10.00">set_handler()</text>
<text text-anchor="start" x="230" y="-157.5" font-family="Cascadia Code NF" font-size="10.00">+</text>
<text text-anchor="start" x="240" y="-157.5" font-family="Cascadia Code NF" font-size="10.00">promise_or_capability()</text>
<text text-anchor="start" x="230" y="-141.5" font-family="Cascadia Code NF" font-size="10.00">+</text>
<text text-anchor="start" x="240" y="-141.5" font-family="Cascadia Code NF" font-size="10.00">promise_or_capability()</text>
<text text-anchor="start" x="230" y="-125.5" font-family="Cascadia Code NF" font-size="10.00">+</text>
<text text-anchor="start" x="240" y="-125.5" font-family="Cascadia Code NF" font-size="10.00">set_promise_or_capability()</text>
<text text-anchor="start" x="230" y="-109.5" font-family="Cascadia Code NF" font-size="10.00">+</text>
<text text-anchor="start" x="240" y="-109.5" font-family="Cascadia Code NF" font-size="10.00">TorqueGeneratedPromiseReaction</text>
<text text-anchor="start" x="240" y="-96.75" font-family="Cascadia Code NF" font-size="10.00">JobTask()</text>
<text text-anchor="start" x="230" y="-80.5" font-family="Cascadia Code NF" font-size="10.00">+</text>
<text text-anchor="start" x="240" y="-80.5" font-family="Cascadia Code NF" font-size="10.00">cast()</text>
<text text-anchor="start" x="230" y="-64.5" font-family="Cascadia Code NF" font-size="10.00">+</text>
<text text-anchor="start" x="240" y="-64.5" font-family="Cascadia Code NF" font-size="10.00">unchecked_cast()</text>
<text text-anchor="start" x="230" y="-48.5" font-family="Cascadia Code NF" font-size="10.00">#</text>
<text text-anchor="start" x="240" y="-48.5" font-family="Cascadia Code NF" font-size="10.00">TorqueGeneratedPromiseReaction</text>
<text text-anchor="start" x="240" y="-35.75" font-family="Cascadia Code NF" font-size="10.00">JobTask()</text>
<text text-anchor="start" x="230" y="-19.5" font-family="Cascadia Code NF" font-size="10.00">#</text>
<text text-anchor="start" x="240" y="-19.5" font-family="Cascadia Code NF" font-size="10.00">TorqueGeneratedPromiseReaction</text>
<text text-anchor="start" x="240" y="-6.75" font-family="Cascadia Code NF" font-size="10.00">JobTask()</text>
<polygon fill="#666666" stroke="#666666" points="226,-361 226,-361 424,-361 424,-361 226,-361"/>
<polygon fill="#666666" stroke="#666666" points="226,-313 226,-313 238,-313 238,-313 226,-313"/>
<polygon fill="#666666" stroke="#666666" points="238,-313 238,-313 424,-313 424,-313 238,-313"/>
<polygon fill="none" stroke="#666666" points="226,0 226,-392 424,-392 424,0 226,0"/>
</a>
</g>
</g>
<!-- Node2 -->
<g id="Node000002" class="node">
<title>Node2</title>
<g id="a_Node000002"><a xlink:href="../../db/d72/classP.html" target="_top" xlink:title=" ">
<polygon fill="white" stroke="none" points="22,-304 6,-304 6,-252 22,-252 22,-304"/>
<text text-anchor="start" x="11" y="-290.5" font-family="Cascadia Code NF" font-size="10.00">P</text>
<text text-anchor="start" x="11" y="-274.5" font-family="Cascadia Code NF" font-size="10.00"> </text>
<text text-anchor="start" x="11" y="-258.5" font-family="Cascadia Code NF" font-size="10.00"> </text>
<polygon fill="#bfbfbf" stroke="#bfbfbf" points="6,-286 6,-286 22,-286 22,-286 6,-286"/>
<polygon fill="#bfbfbf" stroke="#bfbfbf" points="6,-270 6,-270 22,-270 22,-270 6,-270"/>
<polygon fill="none" stroke="#bfbfbf" points="6,-252 6,-304 22,-304 22,-252 6,-252"/>
</a>
</g>
</g>
<!-- Node2&#45;&gt;Node1 -->
<g id="edge1_Node000001_Node000002" class="edge">
<title>Node2&#45;&gt;Node1</title>
<g id="a_edge1_Node000001_Node000002"><a xlink:title=" ">
<path fill="none" stroke="#63b8ff" d="M33.3,-278.1C68.1,-277.81 145.91,-274.9 208,-256 214.07,-254.15 220.21,-251.99 226.31,-249.61"/>
<polygon fill="none" stroke="#63b8ff" points="33.36,-274.6 23.36,-278.1 33.36,-281.6 33.36,-274.6"/>
</a>
</g>
</g>
<!-- Node3 -->
<g id="Node000003" class="node">
<title>Node3</title>
<g id="a_Node000003"><a xlink:href="../../d1/da0/classint.html" target="_top" xlink:title=" ">
<polygon fill="white" stroke="none" points="28,-141 0,-141 0,-89 28,-89 28,-141"/>
<text text-anchor="start" x="5" y="-127.5" font-family="Cascadia Code NF" font-size="10.00">int</text>
<text text-anchor="start" x="11" y="-111.5" font-family="Cascadia Code NF" font-size="10.00"> </text>
<text text-anchor="start" x="11" y="-95.5" font-family="Cascadia Code NF" font-size="10.00"> </text>
<polygon fill="#bfbfbf" stroke="#bfbfbf" points="0,-123 0,-123 28,-123 28,-123 0,-123"/>
<polygon fill="#bfbfbf" stroke="#bfbfbf" points="0,-107 0,-107 28,-107 28,-107 0,-107"/>
<polygon fill="none" stroke="#bfbfbf" points="0,-89 0,-141 28,-141 28,-89 0,-89"/>
</a>
</g>
</g>
<!-- Node3&#45;&gt;Node1 -->
<g id="edge2_Node000001_Node000003" class="edge">
<title>Node3&#45;&gt;Node1</title>
<g id="a_edge2_Node000001_Node000003"><a xlink:title=" ">
<path fill="none" stroke="#63b8ff" d="M27.58,-112.54C58.95,-106.95 142.79,-95.25 208,-115.75 210.09,-116.41 212.17,-117.11 214.25,-117.87"/>
<polygon fill="none" stroke="#63b8ff" points="214.11,-117.81 221.18,-116.38 225.22,-122.35 218.15,-123.78 214.11,-117.81"/>
</a>
</g>
<text text-anchor="middle" x="127" y="-245.75" font-family="Cascadia Code NF" font-size="10.00" fill="grey"> +kArgumentOffset</text>
<text text-anchor="middle" x="127" y="-233" font-family="Cascadia Code NF" font-size="10.00" fill="grey">+kArgumentOffsetEnd</text>
<text text-anchor="middle" x="127" y="-220.25" font-family="Cascadia Code NF" font-size="10.00" fill="grey">+kContextOffset</text>
<text text-anchor="middle" x="127" y="-207.5" font-family="Cascadia Code NF" font-size="10.00" fill="grey">+kContextOffsetEnd</text>
<text text-anchor="middle" x="127" y="-194.75" font-family="Cascadia Code NF" font-size="10.00" fill="grey">+kEndOfStrongFieldsOffset</text>
<text text-anchor="middle" x="127" y="-182" font-family="Cascadia Code NF" font-size="10.00" fill="grey">+kEndOfWeakFieldsOffset</text>
<text text-anchor="middle" x="127" y="-169.25" font-family="Cascadia Code NF" font-size="10.00" fill="grey">+kHandlerOffset</text>
<text text-anchor="middle" x="127" y="-156.5" font-family="Cascadia Code NF" font-size="10.00" fill="grey">+kHandlerOffsetEnd</text>
<text text-anchor="middle" x="127" y="-143.75" font-family="Cascadia Code NF" font-size="10.00" fill="grey">+kHeaderSize</text>
<text text-anchor="middle" x="127" y="-131" font-family="Cascadia Code NF" font-size="10.00" fill="grey">+kPromiseOrCapabilityOffset</text>
<text text-anchor="middle" x="127" y="-118.25" font-family="Cascadia Code NF" font-size="10.00" fill="grey">...</text>
</g>
</g>
</svg>
