<?xml version="1.0" encoding="UTF-8" standalone="no"?>
<!DOCTYPE svg PUBLIC "-//W3C//DTD SVG 1.1//EN"
 "http://www.w3.org/Graphics/SVG/1.1/DTD/svg11.dtd">
<!-- Generated by graphviz version 11.0.0 (20240428.1522)
 -->
<!-- Title: TorqueGeneratedJSDisplayNames&lt; D, P &gt; Pages: 1 -->
<svg width="396pt" height="256pt"
 viewBox="0.00 0.00 396.00 256.00" xmlns="http://www.w3.org/2000/svg" xmlns:xlink="http://www.w3.org/1999/xlink">

<svg id="main" version="1.1" xmlns="http://www.w3.org/2000/svg" xmlns:xlink="http://www.w3.org/1999/xlink" xml:space="preserve" onload="init(evt)">
<style type="text/css"><![CDATA[
.node, .edge {opacity: 0.7;}
.node.selected, .edge.selected {opacity: 1;}
.edge:hover path { stroke: red; }
.edge:hover polygon { stroke: red; fill: red; }
svg#main { background-color: #111; }
]]></style>
<script type="application/ecmascript" xlink:href="../../svg.min.js"/>
<svg id="graph" class="graph">
<g id="graph0" class="graph" transform="scale(1 1) rotate(0) translate(4 252)">
<title>TorqueGeneratedJSDisplayNames&lt; D, P &gt;</title>
<!-- Node1 -->
<g id="Node000001" class="node">
<title>Node1</title>
<g id="a_Node000001"><a xlink:title=" ">
<polygon fill="#999999" stroke="none" points="388,-248 226,-248 226,0 388,0 388,-248"/>
<text text-anchor="start" x="235" y="-234.5" font-family="Cascadia Code NF" font-size="10.00">TorqueGeneratedJSDisplay</text>
<text text-anchor="start" x="268" y="-221.75" font-family="Cascadia Code NF" font-size="10.00">Names&lt; D, P &gt;</text>
<text text-anchor="start" x="304" y="-205.5" font-family="Cascadia Code NF" font-size="10.00"> </text>
<text text-anchor="start" x="230" y="-189.5" font-family="Cascadia Code NF" font-size="10.00">+</text>
<text text-anchor="start" x="240" y="-189.5" font-family="Cascadia Code NF" font-size="10.00">internal()</text>
<text text-anchor="start" x="230" y="-173.5" font-family="Cascadia Code NF" font-size="10.00">+</text>
<text text-anchor="start" x="240" y="-173.5" font-family="Cascadia Code NF" font-size="10.00">internal()</text>
<text text-anchor="start" x="230" y="-157.5" font-family="Cascadia Code NF" font-size="10.00">+</text>
<text text-anchor="start" x="240" y="-157.5" font-family="Cascadia Code NF" font-size="10.00">set_internal()</text>
<text text-anchor="start" x="230" y="-141.5" font-family="Cascadia Code NF" font-size="10.00">+</text>
<text text-anchor="start" x="240" y="-141.5" font-family="Cascadia Code NF" font-size="10.00">flags()</text>
<text text-anchor="start" x="230" y="-125.5" font-family="Cascadia Code NF" font-size="10.00">+</text>
<text text-anchor="start" x="240" y="-125.5" font-family="Cascadia Code NF" font-size="10.00">set_flags()</text>
<text text-anchor="start" x="230" y="-109.5" font-family="Cascadia Code NF" font-size="10.00">+</text>
<text text-anchor="start" x="240" y="-109.5" font-family="Cascadia Code NF" font-size="10.00">TorqueGeneratedJSDisplay</text>
<text text-anchor="start" x="240" y="-96.75" font-family="Cascadia Code NF" font-size="10.00">Names()</text>
<text text-anchor="start" x="230" y="-80.5" font-family="Cascadia Code NF" font-size="10.00">+</text>
<text text-anchor="start" x="240" y="-80.5" font-family="Cascadia Code NF" font-size="10.00">cast()</text>
<text text-anchor="start" x="230" y="-64.5" font-family="Cascadia Code NF" font-size="10.00">+</text>
<text text-anchor="start" x="240" y="-64.5" font-family="Cascadia Code NF" font-size="10.00">unchecked_cast()</text>
<text text-anchor="start" x="230" y="-48.5" font-family="Cascadia Code NF" font-size="10.00">#</text>
<text text-anchor="start" x="240" y="-48.5" font-family="Cascadia Code NF" font-size="10.00">TorqueGeneratedJSDisplay</text>
<text text-anchor="start" x="240" y="-35.75" font-family="Cascadia Code NF" font-size="10.00">Names()</text>
<text text-anchor="start" x="230" y="-19.5" font-family="Cascadia Code NF" font-size="10.00">#</text>
<text text-anchor="start" x="240" y="-19.5" font-family="Cascadia Code NF" font-size="10.00">TorqueGeneratedJSDisplay</text>
<text text-anchor="start" x="240" y="-6.75" font-family="Cascadia Code NF" font-size="10.00">Names()</text>
<polygon fill="#666666" stroke="#666666" points="226,-217 226,-217 388,-217 388,-217 226,-217"/>
<polygon fill="#666666" stroke="#666666" points="226,-201 226,-201 388,-201 388,-201 226,-201"/>
<polygon fill="none" stroke="#666666" points="226,0 226,-248 388,-248 388,0 226,0"/>
</a>
</g>
</g>
<!-- Node2 -->
<g id="Node000002" class="node">
<title>Node2</title>
<g id="a_Node000002"><a xlink:href="../../db/d72/classP.html" target="_top" xlink:title=" ">
<polygon fill="white" stroke="none" points="22,-219 6,-219 6,-167 22,-167 22,-219"/>
<text text-anchor="start" x="11" y="-205.5" font-family="Cascadia Code NF" font-size="10.00">P</text>
<text text-anchor="start" x="11" y="-189.5" font-family="Cascadia Code NF" font-size="10.00"> </text>
<text text-anchor="start" x="11" y="-173.5" font-family="Cascadia Code NF" font-size="10.00"> </text>
<polygon fill="#bfbfbf" stroke="#bfbfbf" points="6,-201 6,-201 22,-201 22,-201 6,-201"/>
<polygon fill="#bfbfbf" stroke="#bfbfbf" points="6,-185 6,-185 22,-185 22,-185 6,-185"/>
<polygon fill="none" stroke="#bfbfbf" points="6,-167 6,-219 22,-219 22,-167 6,-167"/>
</a>
</g>
</g>
<!-- Node2&#45;&gt;Node1 -->
<g id="edge1_Node000001_Node000002" class="edge">
<title>Node2&#45;&gt;Node1</title>
<g id="a_edge1_Node000001_Node000002"><a xlink:title=" ">
<path fill="none" stroke="#63b8ff" d="M33.24,-192.93C67.96,-192.35 145.63,-188.96 208,-171 213.98,-169.28 220.05,-167.22 226.09,-164.94"/>
<polygon fill="none" stroke="#63b8ff" points="33.3,-189.42 23.34,-193.02 33.37,-196.42 33.3,-189.42"/>
</a>
</g>
</g>
<!-- Node3 -->
<g id="Node000003" class="node">
<title>Node3</title>
<g id="a_Node000003"><a xlink:href="../../d1/da0/classint.html" target="_top" xlink:title=" ">
<polygon fill="white" stroke="none" points="28,-81 0,-81 0,-29 28,-29 28,-81"/>
<text text-anchor="start" x="5" y="-67.5" font-family="Cascadia Code NF" font-size="10.00">int</text>
<text text-anchor="start" x="11" y="-51.5" font-family="Cascadia Code NF" font-size="10.00"> </text>
<text text-anchor="start" x="11" y="-35.5" font-family="Cascadia Code NF" font-size="10.00"> </text>
<polygon fill="#bfbfbf" stroke="#bfbfbf" points="0,-63 0,-63 28,-63 28,-63 0,-63"/>
<polygon fill="#bfbfbf" stroke="#bfbfbf" points="0,-47 0,-47 28,-47 28,-47 0,-47"/>
<polygon fill="none" stroke="#bfbfbf" points="0,-29 0,-81 28,-81 28,-29 0,-29"/>
</a>
</g>
</g>
<!-- Node3&#45;&gt;Node1 -->
<g id="edge2_Node000001_Node000003" class="edge">
<title>Node3&#45;&gt;Node1</title>
<g id="a_edge2_Node000001_Node000003"><a xlink:title=" ">
<path fill="none" stroke="#63b8ff" d="M27.61,-52.08C59.05,-45.37 143.02,-31.01 208,-52.25 210.1,-52.94 212.19,-53.69 214.28,-54.5"/>
<polygon fill="none" stroke="#63b8ff" points="214.27,-54.49 221.38,-53.26 225.25,-59.35 218.14,-60.58 214.27,-54.49"/>
</a>
</g>
<text text-anchor="middle" x="127" y="-158.25" font-family="Cascadia Code NF" font-size="10.00" fill="grey"> +kEndOfStrongFieldsOffset</text>
<text text-anchor="middle" x="127" y="-145.5" font-family="Cascadia Code NF" font-size="10.00" fill="grey">+kEndOfWeakFieldsOffset</text>
<text text-anchor="middle" x="127" y="-132.75" font-family="Cascadia Code NF" font-size="10.00" fill="grey">+kFlagsOffset</text>
<text text-anchor="middle" x="127" y="-120" font-family="Cascadia Code NF" font-size="10.00" fill="grey">+kFlagsOffsetEnd</text>
<text text-anchor="middle" x="127" y="-107.25" font-family="Cascadia Code NF" font-size="10.00" fill="grey">+kHeaderSize</text>
<text text-anchor="middle" x="127" y="-94.5" font-family="Cascadia Code NF" font-size="10.00" fill="grey">+kInternalOffset</text>
<text text-anchor="middle" x="127" y="-81.75" font-family="Cascadia Code NF" font-size="10.00" fill="grey">+kInternalOffsetEnd</text>
<text text-anchor="middle" x="127" y="-69" font-family="Cascadia Code NF" font-size="10.00" fill="grey">+kStartOfStrongFieldsOffset</text>
<text text-anchor="middle" x="127" y="-56.25" font-family="Cascadia Code NF" font-size="10.00" fill="grey">+kStartOfWeakFieldsOffset</text>
</g>
</g>
</svg>
</svg>

<style type='text/css'>
<![CDATA[
[data-mouse-over-selected='false'] { opacity: 0.7; }
[data-mouse-over-selected='true']  { opacity: 1.0; }
]]>
</style>
<script type="application/ecmascript"><![CDATA[
document.addEventListener('DOMContentLoaded', (event) => {
  highlightEdges();
  highlightAdjacentNodes();
});
]]></script>
</svg>
