<?xml version="1.0" encoding="UTF-8" standalone="no"?>
<!DOCTYPE svg PUBLIC "-//W3C//DTD SVG 1.1//EN"
 "http://www.w3.org/Graphics/SVG/1.1/DTD/svg11.dtd">
<!-- Generated by graphviz version 11.0.0 (20240428.1522)
 -->
<!-- Title: v8::internal::JSDate Pages: 1 -->
<!--zoomable 457 -->

<svg id="main" version="1.1" xmlns="http://www.w3.org/2000/svg" xmlns:xlink="http://www.w3.org/1999/xlink" xml:space="preserve" onload="init(evt)">
<style type="text/css"><![CDATA[
.node, .edge {opacity: 0.7;}
.node.selected, .edge.selected {opacity: 1;}
.edge:hover path { stroke: red; }
.edge:hover polygon { stroke: red; fill: red; }
svg#main { background-color: #111; }
]]></style>

<defs>
  <circle id="rim" cx="0" cy="0" r="7"/>
  <circle id="rim2" cx="0" cy="0" r="3.5"/>
  <g id="zoomPlus">
    <use xlink:href="#rim" fill="#404040"><set attributeName="fill" to="#808080" begin="zoomplus.mouseover" end="zoomplus.mouseout"/></use>
    <path d="M-4,0h8M0,-4v8" fill="none" stroke="white" stroke-width="1.5" pointer-events="none"/>
  </g>
  <g id="zoomMin">
    <use xlink:href="#rim" fill="#404040"><set attributeName="fill" to="#808080" begin="zoomminus.mouseover" end="zoomminus.mouseout"/></use>
    <path d="M-4,0h8" fill="none" stroke="white" stroke-width="1.5" pointer-events="none"/>
  </g>
  <g id="arrowUp" transform="translate(30 24)">
    <use xlink:href="#rim"/>
    <path pointer-events="none" fill="none" stroke="white" stroke-width="1.5" d="M0,-3.0v7 M-2.5,-0.5L0,-3.0L2.5,-0.5"/>
  </g>
  <g id="arrowRight" transform="rotate(90) translate(36 -43)">
    <use xlink:href="#rim"/>
    <path pointer-events="none" fill="none" stroke="white" stroke-width="1.5" d="M0,-3.0v7 M-2.5,-0.5L0,-3.0L2.5,-0.5"/>
  </g>
  <g id="arrowDown" transform="rotate(180) translate(-30 -48)">
    <use xlink:href="#rim"/>
    <path pointer-events="none" fill="none" stroke="white" stroke-width="1.5" d="M0,-3.0v7 M-2.5,-0.5L0,-3.0L2.5,-0.5"/>
  </g>
  <g id="arrowLeft" transform="rotate(270) translate(-36 17)">
    <use xlink:href="#rim"/>
    <path pointer-events="none" fill="none" stroke="white" stroke-width="1.5" d="M0,-3.0v7 M-2.5,-0.5L0,-3.0L2.5,-0.5"/>
  </g>
  <g id="resetDef">
    <use xlink:href="#rim2" fill="#404040"><set attributeName="fill" to="#808080" begin="reset.mouseover" end="reset.mouseout"/></use>
  </g>
</defs>
<script type="application/ecmascript">
var viewWidth = 442;
var viewHeight = 457;
var sectionId = 'dynsection-0';
</script>
<script type="application/ecmascript" xlink:href="../../svg.min.js"/>
<svg id="graph" class="graph">
<g id="viewport">
<title>v8::internal::JSDate</title>
<!-- Node1 -->
<g id="Node000001" class="node">
<title>Node1</title>
<g id="a_Node000001"><a xlink:title=" ">
<polygon fill="#999999" stroke="none" points="434,-282.5 304,-282.5 304,-166.5 434,-166.5 434,-282.5"/>
<text text-anchor="start" x="309" y="-269" font-family="Cascadia Code NF" font-size="10.00">v8::internal::JSDate</text>
<text text-anchor="start" x="366" y="-253" font-family="Cascadia Code NF" font-size="10.00"> </text>
<text text-anchor="start" x="309" y="-237" font-family="Cascadia Code NF" font-size="10.00">+</text>
<text text-anchor="start" x="320" y="-237" font-family="Cascadia Code NF" font-size="10.00">SetValue()</text>
<text text-anchor="start" x="309" y="-221" font-family="Cascadia Code NF" font-size="10.00">+</text>
<text text-anchor="start" x="320" y="-221" font-family="Cascadia Code NF" font-size="10.00">New()</text>
<text text-anchor="start" x="309" y="-205" font-family="Cascadia Code NF" font-size="10.00">+</text>
<text text-anchor="start" x="320" y="-205" font-family="Cascadia Code NF" font-size="10.00">CurrentTimeValue()</text>
<text text-anchor="start" x="309" y="-189" font-family="Cascadia Code NF" font-size="10.00">+</text>
<text text-anchor="start" x="320" y="-189" font-family="Cascadia Code NF" font-size="10.00">GetField()</text>
<text text-anchor="start" x="309" y="-173" font-family="Cascadia Code NF" font-size="10.00">+</text>
<text text-anchor="start" x="320" y="-173" font-family="Cascadia Code NF" font-size="10.00">SetValue()</text>
<polygon fill="#666666" stroke="#666666" points="304,-264.5 304,-264.5 434,-264.5 434,-264.5 304,-264.5"/>
<polygon fill="#666666" stroke="#666666" points="304,-248.5 304,-248.5 434,-248.5 434,-248.5 304,-248.5"/>
<polygon fill="none" stroke="#666666" points="304,-166.5 304,-282.5 434,-282.5 434,-166.5 304,-166.5"/>
</a>
</g>
</g>
<!-- Node2 -->
<g id="Node000002" class="node">
<title>Node2</title>
<g id="a_Node000002"><a xlink:href="../../da/d14/classTorqueGeneratedJSDate.html" target="_top" xlink:title=" ">
<polygon fill="white" stroke="none" points="268,-449 94,-449 94,0 268,0 268,-449"/>
<text text-anchor="start" x="118" y="-435.5" font-family="Cascadia Code NF" font-size="10.00">TorqueGeneratedJSDate</text>
<text text-anchor="start" x="121" y="-422.75" font-family="Cascadia Code NF" font-size="10.00">&lt; JSDate, JSObject &gt;</text>
<text text-anchor="start" x="98" y="-406.5" font-family="Cascadia Code NF" font-size="10.00">+</text>
<text text-anchor="start" x="108" y="-406.5" font-family="Cascadia Code NF" font-size="10.00">kStartOfStrongFieldsOffset</text>
<text text-anchor="start" x="98" y="-390.5" font-family="Cascadia Code NF" font-size="10.00">+</text>
<text text-anchor="start" x="108" y="-390.5" font-family="Cascadia Code NF" font-size="10.00">kValueOffset</text>
<text text-anchor="start" x="98" y="-374.5" font-family="Cascadia Code NF" font-size="10.00">+</text>
<text text-anchor="start" x="108" y="-374.5" font-family="Cascadia Code NF" font-size="10.00">kValueOffsetEnd</text>
<text text-anchor="start" x="98" y="-358.5" font-family="Cascadia Code NF" font-size="10.00">+</text>
<text text-anchor="start" x="108" y="-358.5" font-family="Cascadia Code NF" font-size="10.00">kYearOffset</text>
<text text-anchor="start" x="98" y="-342.5" font-family="Cascadia Code NF" font-size="10.00">+</text>
<text text-anchor="start" x="108" y="-342.5" font-family="Cascadia Code NF" font-size="10.00">kYearOffsetEnd</text>
<text text-anchor="start" x="98" y="-326.5" font-family="Cascadia Code NF" font-size="10.00">+</text>
<text text-anchor="start" x="108" y="-326.5" font-family="Cascadia Code NF" font-size="10.00">kMonthOffset</text>
<text text-anchor="start" x="98" y="-310.5" font-family="Cascadia Code NF" font-size="10.00">+</text>
<text text-anchor="start" x="108" y="-310.5" font-family="Cascadia Code NF" font-size="10.00">kMonthOffsetEnd</text>
<text text-anchor="start" x="98" y="-294.5" font-family="Cascadia Code NF" font-size="10.00">+</text>
<text text-anchor="start" x="108" y="-294.5" font-family="Cascadia Code NF" font-size="10.00">kDayOffset</text>
<text text-anchor="start" x="98" y="-278.5" font-family="Cascadia Code NF" font-size="10.00">+</text>
<text text-anchor="start" x="108" y="-278.5" font-family="Cascadia Code NF" font-size="10.00">kDayOffsetEnd</text>
<text text-anchor="start" x="98" y="-262.5" font-family="Cascadia Code NF" font-size="10.00">+</text>
<text text-anchor="start" x="108" y="-262.5" font-family="Cascadia Code NF" font-size="10.00">kWeekdayOffset</text>
<text text-anchor="start" x="108" y="-246.5" font-family="Cascadia Code NF" font-size="10.00">and 13 more...</text>
<text text-anchor="start" x="98" y="-230.5" font-family="Cascadia Code NF" font-size="10.00">+</text>
<text text-anchor="start" x="108" y="-230.5" font-family="Cascadia Code NF" font-size="10.00">value()</text>
<text text-anchor="start" x="98" y="-214.5" font-family="Cascadia Code NF" font-size="10.00">+</text>
<text text-anchor="start" x="108" y="-214.5" font-family="Cascadia Code NF" font-size="10.00">value()</text>
<text text-anchor="start" x="98" y="-198.5" font-family="Cascadia Code NF" font-size="10.00">+</text>
<text text-anchor="start" x="108" y="-198.5" font-family="Cascadia Code NF" font-size="10.00">set_value()</text>
<text text-anchor="start" x="98" y="-182.5" font-family="Cascadia Code NF" font-size="10.00">+</text>
<text text-anchor="start" x="108" y="-182.5" font-family="Cascadia Code NF" font-size="10.00">year()</text>
<text text-anchor="start" x="98" y="-166.5" font-family="Cascadia Code NF" font-size="10.00">+</text>
<text text-anchor="start" x="108" y="-166.5" font-family="Cascadia Code NF" font-size="10.00">year()</text>
<text text-anchor="start" x="98" y="-150.5" font-family="Cascadia Code NF" font-size="10.00">+</text>
<text text-anchor="start" x="108" y="-150.5" font-family="Cascadia Code NF" font-size="10.00">set_year()</text>
<text text-anchor="start" x="98" y="-134.5" font-family="Cascadia Code NF" font-size="10.00">+</text>
<text text-anchor="start" x="108" y="-134.5" font-family="Cascadia Code NF" font-size="10.00">month()</text>
<text text-anchor="start" x="98" y="-118.5" font-family="Cascadia Code NF" font-size="10.00">+</text>
<text text-anchor="start" x="108" y="-118.5" font-family="Cascadia Code NF" font-size="10.00">month()</text>
<text text-anchor="start" x="98" y="-102.5" font-family="Cascadia Code NF" font-size="10.00">+</text>
<text text-anchor="start" x="108" y="-102.5" font-family="Cascadia Code NF" font-size="10.00">set_month()</text>
<text text-anchor="start" x="98" y="-86.5" font-family="Cascadia Code NF" font-size="10.00">+</text>
<text text-anchor="start" x="108" y="-86.5" font-family="Cascadia Code NF" font-size="10.00">day()</text>
<text text-anchor="start" x="108" y="-70.5" font-family="Cascadia Code NF" font-size="10.00">and 18 more...</text>
<text text-anchor="start" x="98" y="-54.5" font-family="Cascadia Code NF" font-size="10.00">+</text>
<text text-anchor="start" x="108" y="-54.5" font-family="Cascadia Code NF" font-size="10.00">cast()</text>
<text text-anchor="start" x="98" y="-38.5" font-family="Cascadia Code NF" font-size="10.00">+</text>
<text text-anchor="start" x="108" y="-38.5" font-family="Cascadia Code NF" font-size="10.00">unchecked_cast()</text>
<text text-anchor="start" x="98" y="-22.5" font-family="Cascadia Code NF" font-size="10.00">#</text>
<text text-anchor="start" x="108" y="-22.5" font-family="Cascadia Code NF" font-size="10.00">TorqueGeneratedJSDate()</text>
<text text-anchor="start" x="98" y="-6.5" font-family="Cascadia Code NF" font-size="10.00">#</text>
<text text-anchor="start" x="108" y="-6.5" font-family="Cascadia Code NF" font-size="10.00">TorqueGeneratedJSDate()</text>
<polygon fill="#bfbfbf" stroke="#bfbfbf" points="94,-418 94,-418 268,-418 268,-418 94,-418"/>
<polygon fill="#bfbfbf" stroke="#bfbfbf" points="94,-242 94,-242 106,-242 106,-242 94,-242"/>
<polygon fill="#bfbfbf" stroke="#bfbfbf" points="106,-242 106,-242 268,-242 268,-242 106,-242"/>
<polygon fill="none" stroke="#bfbfbf" points="94,0 94,-449 268,-449 268,0 94,0"/>
</a>
</g>
</g>
<!-- Node2&#45;&gt;Node1 -->
<g id="edge1_Node000001_Node000002" class="edge">
<title>Node2&#45;&gt;Node1</title>
<g id="a_edge1_Node000001_Node000002"><a xlink:title=" ">
<path fill="none" stroke="#63b8ff" d="M279.37,-224.5C287.76,-224.5 296.1,-224.5 304.12,-224.5"/>
<polygon fill="none" stroke="#63b8ff" points="279.44,-221 269.44,-224.5 279.44,-228 279.44,-221"/>
</a>
</g>
</g>
<!-- Node3 -->
<g id="Node000003" class="node">
<title>Node3</title>
<g id="a_Node000003"><a xlink:title=" ">
<polygon fill="white" stroke="none" points="58,-250.5 0,-250.5 0,-198.5 58,-198.5 58,-250.5"/>
<text text-anchor="start" x="5" y="-237" font-family="Cascadia Code NF" font-size="10.00">JSObject</text>
<text text-anchor="start" x="26" y="-221" font-family="Cascadia Code NF" font-size="10.00"> </text>
<text text-anchor="start" x="26" y="-205" font-family="Cascadia Code NF" font-size="10.00"> </text>
<polygon fill="#bfbfbf" stroke="#bfbfbf" points="0,-232.5 0,-232.5 58,-232.5 58,-232.5 0,-232.5"/>
<polygon fill="#bfbfbf" stroke="#bfbfbf" points="0,-216.5 0,-216.5 58,-216.5 58,-216.5 0,-216.5"/>
<polygon fill="none" stroke="#bfbfbf" points="0,-198.5 0,-250.5 58,-250.5 58,-198.5 0,-198.5"/>
</a>
</g>
</g>
<!-- Node3&#45;&gt;Node2 -->
<g id="edge2_Node000002_Node000003" class="edge">
<title>Node3&#45;&gt;Node2</title>
<g id="a_edge2_Node000002_Node000003"><a xlink:title=" ">
<path fill="none" stroke="#63b8ff" d="M69.19,-224.5C77.04,-224.5 85.57,-224.5 94.3,-224.5"/>
<polygon fill="none" stroke="#63b8ff" points="69.38,-221 59.38,-224.5 69.38,-228 69.38,-221"/>
</a>
</g>
</g>
</g>
</svg>

<g id="navigator" transform="translate(0 0)" fill="#404254">
  <rect fill="#f2f5e9" fill-opacity="0.5" stroke="#606060" stroke-width=".5" x="0" y="0" width="60" height="60"/>
  <use id="zoomplus" xlink:href="#zoomPlus" x="17" y="9" onmousedown="handleZoom(evt,'in')"/>
  <use id="zoomminus" xlink:href="#zoomMin" x="42" y="9" onmousedown="handleZoom(evt,'out')"/>
  <use id="reset" xlink:href="#resetDef" x="30" y="36" onmousedown="handleReset()"/>
   <use id="arrowup" xlink:href="#arrowUp" x="0" y="0" onmousedown="handlePan(0,-1)"/>
  <use id="arrowright" xlink:href="#arrowRight" x="0" y="0" onmousedown="handlePan(1,0)"/>
  <use id="arrowdown" xlink:href="#arrowDown" x="0" y="0" onmousedown="handlePan(0,1)"/>
  <use id="arrowleft" xlink:href="#arrowLeft" x="0" y="0" onmousedown="handlePan(-1,0)"/>
</g>
<svg viewBox="0 0 15 15" width="100%" height="30px" preserveAspectRatio="xMaxYMin meet">
 <g id="arrow_out" transform="scale(0.3 0.3)">
  <a xlink:href="classv8_1_1internal_1_1JSDate__inherit__graph_org.svg" target="_base">
   <rect id="button" ry="5" rx="5" y="6" x="6" height="38" width="38"
        fill="#f2f5e9" fill-opacity="0.5" stroke="#606060" stroke-width="1.0"/>
   <path id="arrow"
     d="M 11.500037,31.436501 C 11.940474,20.09759 22.043105,11.32322 32.158766,21.979434 L 37.068811,17.246167 C 37.068811,17.246167 37.088388,32 37.088388,32 L 22.160133,31.978069 C 22.160133,31.978069 26.997745,27.140456 26.997745,27.140456 C 18.528582,18.264221 13.291696,25.230495 11.500037,31.436501 z"
     style="fill:#404040;"/>
  </a>
 </g>
</svg>

<style type='text/css'>
<![CDATA[
[data-mouse-over-selected='false'] { opacity: 0.7; }
[data-mouse-over-selected='true']  { opacity: 1.0; }
]]>
</style>
<script type="application/ecmascript"><![CDATA[
document.addEventListener('DOMContentLoaded', (event) => {
  highlightEdges();
  highlightAdjacentNodes();
});
]]></script>
</svg>
