<?xml version="1.0" encoding="UTF-8" standalone="no"?>
<!DOCTYPE svg PUBLIC "-//W3C//DTD SVG 1.1//EN"
 "http://www.w3.org/Graphics/SVG/1.1/DTD/svg11.dtd">
<!-- Generated by graphviz version 11.0.0 (20240428.1522)
 -->
<!-- Title: v8::internal::V8 Pages: 1 -->
<svg width="390pt" height="220pt"
 viewBox="0.00 0.00 390.00 220.00" xmlns="http://www.w3.org/2000/svg" xmlns:xlink="http://www.w3.org/1999/xlink">

<svg id="main" version="1.1" xmlns="http://www.w3.org/2000/svg" xmlns:xlink="http://www.w3.org/1999/xlink" xml:space="preserve" onload="init(evt)">
<style type="text/css"><![CDATA[
.node, .edge {opacity: 0.7;}
.node.selected, .edge.selected {opacity: 1;}
.edge:hover path { stroke: red; }
.edge:hover polygon { stroke: red; fill: red; }
svg#main { background-color: #111; }
]]></style>
<script type="application/ecmascript" xlink:href="../../svg.min.js"/>
<svg id="graph" class="graph">
<g id="graph0" class="graph" transform="scale(1 1) rotate(0) translate(4 216)">
<title>v8::internal::V8</title>
<!-- Node1 -->
<g id="Node000001" class="node">
<title>Node1</title>
<g id="a_Node000001"><a xlink:title=" ">
<polygon fill="#999999" stroke="none" points="382,-212 184,-212 184,0 382,0 382,-212"/>
<text text-anchor="start" x="235" y="-198.5" font-family="Cascadia Code NF" font-size="10.00">v8::internal::V8</text>
<text text-anchor="start" x="188" y="-182.5" font-family="Cascadia Code NF" font-size="10.00">+</text>
<text text-anchor="start" x="198" y="-182.5" font-family="Cascadia Code NF" font-size="10.00">kNoOOMDetails</text>
<text text-anchor="start" x="188" y="-166.5" font-family="Cascadia Code NF" font-size="10.00">+</text>
<text text-anchor="start" x="198" y="-166.5" font-family="Cascadia Code NF" font-size="10.00">kHeapOOM</text>
<text text-anchor="start" x="188" y="-150.5" font-family="Cascadia Code NF" font-size="10.00">+</text>
<text text-anchor="start" x="198" y="-150.5" font-family="Cascadia Code NF" font-size="10.00">Initialize()</text>
<text text-anchor="start" x="188" y="-134.5" font-family="Cascadia Code NF" font-size="10.00">+</text>
<text text-anchor="start" x="198" y="-134.5" font-family="Cascadia Code NF" font-size="10.00">Dispose()</text>
<text text-anchor="start" x="188" y="-118.5" font-family="Cascadia Code NF" font-size="10.00">+</text>
<text text-anchor="start" x="198" y="-118.5" font-family="Cascadia Code NF" font-size="10.00">FatalProcessOutOfMemory()</text>
<text text-anchor="start" x="188" y="-102.5" font-family="Cascadia Code NF" font-size="10.00">+</text>
<text text-anchor="start" x="198" y="-102.5" font-family="Cascadia Code NF" font-size="10.00">FatalProcessOutOfMemory()</text>
<text text-anchor="start" x="188" y="-86.5" font-family="Cascadia Code NF" font-size="10.00">+</text>
<text text-anchor="start" x="198" y="-86.5" font-family="Cascadia Code NF" font-size="10.00">InitializePlatform()</text>
<text text-anchor="start" x="188" y="-70.5" font-family="Cascadia Code NF" font-size="10.00">+</text>
<text text-anchor="start" x="198" y="-70.5" font-family="Cascadia Code NF" font-size="10.00">InitializePlatformForTesting()</text>
<text text-anchor="start" x="188" y="-54.5" font-family="Cascadia Code NF" font-size="10.00">+</text>
<text text-anchor="start" x="198" y="-54.5" font-family="Cascadia Code NF" font-size="10.00">DisposePlatform()</text>
<text text-anchor="start" x="188" y="-38.5" font-family="Cascadia Code NF" font-size="10.00">+</text>
<text text-anchor="start" x="198" y="-38.5" font-family="Cascadia Code NF" font-size="10.00">GetCurrentPlatform()</text>
<text text-anchor="start" x="188" y="-22.5" font-family="Cascadia Code NF" font-size="10.00">+</text>
<text text-anchor="start" x="198" y="-22.5" font-family="Cascadia Code NF" font-size="10.00">SetPlatformForTesting()</text>
<text text-anchor="start" x="188" y="-6.5" font-family="Cascadia Code NF" font-size="10.00">+</text>
<text text-anchor="start" x="198" y="-6.5" font-family="Cascadia Code NF" font-size="10.00">SetSnapshotBlob()</text>
<polygon fill="#666666" stroke="#666666" points="184,-194 184,-194 382,-194 382,-194 184,-194"/>
<polygon fill="#666666" stroke="#666666" points="184,-162 184,-162 196,-162 196,-162 184,-162"/>
<polygon fill="#666666" stroke="#666666" points="196,-162 196,-162 382,-162 382,-162 196,-162"/>
<polygon fill="none" stroke="#666666" points="184,0 184,-212 382,-212 382,0 184,0"/>
</a>
</g>
</g>
<!-- Node2 -->
<g id="Node000002" class="node">
<title>Node2</title>
<g id="a_Node000002"><a xlink:href="../../dd/da7/classv8_1_1internal_1_1AllStatic.html" target="_top" xlink:title=" ">
<polygon fill="white" stroke="none" points="148,-132 0,-132 0,-80 148,-80 148,-132"/>
<text text-anchor="start" x="5" y="-118.5" font-family="Cascadia Code NF" font-size="10.00">v8::internal::AllStatic</text>
<text text-anchor="start" x="71" y="-102.5" font-family="Cascadia Code NF" font-size="10.00"> </text>
<text text-anchor="start" x="71" y="-86.5" font-family="Cascadia Code NF" font-size="10.00"> </text>
<polygon fill="#bfbfbf" stroke="#bfbfbf" points="0,-114 0,-114 148,-114 148,-114 0,-114"/>
<polygon fill="#bfbfbf" stroke="#bfbfbf" points="0,-98 0,-98 148,-98 148,-98 0,-98"/>
<polygon fill="none" stroke="#bfbfbf" points="0,-80 0,-132 148,-132 148,-80 0,-80"/>
</a>
</g>
</g>
<!-- Node2&#45;&gt;Node1 -->
<g id="edge1_Node000001_Node000002" class="edge">
<title>Node2&#45;&gt;Node1</title>
<g id="a_edge1_Node000001_Node000002"><a xlink:title=" ">
<path fill="none" stroke="#63b8ff" d="M159.43,-106C167.63,-106 175.99,-106 184.3,-106"/>
<polygon fill="none" stroke="#63b8ff" points="159.49,-102.5 149.49,-106 159.49,-109.5 159.49,-102.5"/>
</a>
</g>
</g>
</g>
</svg>
</svg>

<style type='text/css'>
<![CDATA[
[data-mouse-over-selected='false'] { opacity: 0.7; }
[data-mouse-over-selected='true']  { opacity: 1.0; }
]]>
</style>
<script type="application/ecmascript"><![CDATA[
document.addEventListener('DOMContentLoaded', (event) => {
  highlightEdges();
  highlightAdjacentNodes();
});
]]></script>
</svg>
