<?xml version="1.0" encoding="UTF-8" standalone="no"?>
<!DOCTYPE svg PUBLIC "-//W3C//DTD SVG 1.1//EN"
 "http://www.w3.org/Graphics/SVG/1.1/DTD/svg11.dtd">
<!-- Generated by graphviz version 11.0.0 (20240428.1522)
 -->
<!-- Title: v8::internal::wasm::StructType Pages: 1 -->
<svg width="432pt" height="249pt"
 viewBox="0.00 0.00 432.00 249.00" xmlns="http://www.w3.org/2000/svg" xmlns:xlink="http://www.w3.org/1999/xlink">
<g id="graph0" class="graph" transform="scale(1 1) rotate(0) translate(4 245)">
<title>v8::internal::wasm::StructType</title>
<!-- Node1 -->
<g id="Node000001" class="node">
<title>Node1</title>
<g id="a_Node000001"><a xlink:title=" ">
<polygon fill="#999999" stroke="none" points="424,-241 292,-241 292,0 424,0 424,-241"/>
<text text-anchor="start" x="304" y="-227.5" font-family="Cascadia Code NF" font-size="10.00">v8::internal::wasm</text>
<text text-anchor="start" x="322" y="-214.75" font-family="Cascadia Code NF" font-size="10.00">::StructType</text>
<text text-anchor="start" x="355" y="-198.5" font-family="Cascadia Code NF" font-size="10.00"> </text>
<text text-anchor="start" x="296" y="-182.5" font-family="Cascadia Code NF" font-size="10.00">+</text>
<text text-anchor="start" x="306" y="-182.5" font-family="Cascadia Code NF" font-size="10.00">StructType()</text>
<text text-anchor="start" x="296" y="-166.5" font-family="Cascadia Code NF" font-size="10.00">+</text>
<text text-anchor="start" x="306" y="-166.5" font-family="Cascadia Code NF" font-size="10.00">field_count()</text>
<text text-anchor="start" x="296" y="-150.5" font-family="Cascadia Code NF" font-size="10.00">+</text>
<text text-anchor="start" x="306" y="-150.5" font-family="Cascadia Code NF" font-size="10.00">field()</text>
<text text-anchor="start" x="296" y="-134.5" font-family="Cascadia Code NF" font-size="10.00">+</text>
<text text-anchor="start" x="306" y="-134.5" font-family="Cascadia Code NF" font-size="10.00">mutability()</text>
<text text-anchor="start" x="296" y="-118.5" font-family="Cascadia Code NF" font-size="10.00">+</text>
<text text-anchor="start" x="306" y="-118.5" font-family="Cascadia Code NF" font-size="10.00">fields()</text>
<text text-anchor="start" x="296" y="-102.5" font-family="Cascadia Code NF" font-size="10.00">+</text>
<text text-anchor="start" x="306" y="-102.5" font-family="Cascadia Code NF" font-size="10.00">mutabilities()</text>
<text text-anchor="start" x="296" y="-86.5" font-family="Cascadia Code NF" font-size="10.00">+</text>
<text text-anchor="start" x="306" y="-86.5" font-family="Cascadia Code NF" font-size="10.00">operator==()</text>
<text text-anchor="start" x="296" y="-70.5" font-family="Cascadia Code NF" font-size="10.00">+</text>
<text text-anchor="start" x="306" y="-70.5" font-family="Cascadia Code NF" font-size="10.00">operator!=()</text>
<text text-anchor="start" x="296" y="-54.5" font-family="Cascadia Code NF" font-size="10.00">+</text>
<text text-anchor="start" x="306" y="-54.5" font-family="Cascadia Code NF" font-size="10.00">field_offset()</text>
<text text-anchor="start" x="296" y="-38.5" font-family="Cascadia Code NF" font-size="10.00">+</text>
<text text-anchor="start" x="306" y="-38.5" font-family="Cascadia Code NF" font-size="10.00">total_fields_size()</text>
<text text-anchor="start" x="296" y="-22.5" font-family="Cascadia Code NF" font-size="10.00">+</text>
<text text-anchor="start" x="306" y="-22.5" font-family="Cascadia Code NF" font-size="10.00">Align()</text>
<text text-anchor="start" x="296" y="-6.5" font-family="Cascadia Code NF" font-size="10.00">+</text>
<text text-anchor="start" x="306" y="-6.5" font-family="Cascadia Code NF" font-size="10.00">InitializeOffsets()</text>
<polygon fill="#666666" stroke="#666666" points="292,-210 292,-210 424,-210 424,-210 292,-210"/>
<polygon fill="#666666" stroke="#666666" points="292,-194 292,-194 424,-194 424,-194 292,-194"/>
<polygon fill="none" stroke="#666666" points="292,0 292,-241 424,-241 424,0 292,0"/>
</a>
</g>
</g>
<!-- Node2 -->
<g id="Node000002" class="node">
<title>Node2</title>
<g id="a_Node000002"><a xlink:href="../../dc/dca/classv8_1_1internal_1_1ZoneObject.html" target="_top" xlink:title=" ">
<polygon fill="white" stroke="none" points="154,-217.5 0,-217.5 0,-117.5 154,-117.5 154,-217.5"/>
<text text-anchor="start" x="5" y="-204" font-family="Cascadia Code NF" font-size="10.00">v8::internal::ZoneObject</text>
<text text-anchor="start" x="74" y="-188" font-family="Cascadia Code NF" font-size="10.00"> </text>
<text text-anchor="start" x="12.5" y="-172" font-family="Cascadia Code NF" font-size="10.00">+</text>
<text text-anchor="start" x="31" y="-172" font-family="Cascadia Code NF" font-size="10.00">operator new()</text>
<text text-anchor="start" x="12.5" y="-156" font-family="Cascadia Code NF" font-size="10.00">+</text>
<text text-anchor="start" x="31" y="-156" font-family="Cascadia Code NF" font-size="10.00">operator new()</text>
<text text-anchor="start" x="12.5" y="-140" font-family="Cascadia Code NF" font-size="10.00">+</text>
<text text-anchor="start" x="31" y="-140" font-family="Cascadia Code NF" font-size="10.00">operator delete()</text>
<text text-anchor="start" x="12.5" y="-124" font-family="Cascadia Code NF" font-size="10.00">+</text>
<text text-anchor="start" x="31" y="-124" font-family="Cascadia Code NF" font-size="10.00">operator delete()</text>
<polygon fill="#bfbfbf" stroke="#bfbfbf" points="0,-199.5 0,-199.5 154,-199.5 154,-199.5 0,-199.5"/>
<polygon fill="#bfbfbf" stroke="#bfbfbf" points="0,-183.5 0,-183.5 154,-183.5 154,-183.5 0,-183.5"/>
<polygon fill="none" stroke="#bfbfbf" points="0,-117.5 0,-217.5 154,-217.5 154,-117.5 0,-117.5"/>
</a>
</g>
</g>
<!-- Node2&#45;&gt;Node1 -->
<g id="edge1_Node000001_Node000002" class="edge">
<title>Node2&#45;&gt;Node1</title>
<g id="a_edge1_Node000001_Node000002"><a xlink:title=" ">
<path fill="none" stroke="#63b8ff" d="M164.97,-152.85C206.04,-145.93 254.21,-137.82 292.04,-131.44"/>
<polygon fill="none" stroke="#63b8ff" points="164.64,-149.36 155.36,-154.47 165.8,-156.26 164.64,-149.36"/>
</a>
</g>
</g>
<!-- Node3 -->
<g id="Node000003" class="node">
<title>Node3</title>
<g id="a_Node000003"><a xlink:title=" ">
<polygon fill="white" stroke="none" points="97,-99.5 57,-99.5 57,-47.5 97,-47.5 97,-99.5"/>
<text text-anchor="start" x="62" y="-86" font-family="Cascadia Code NF" font-size="10.00">const</text>
<text text-anchor="start" x="74" y="-70" font-family="Cascadia Code NF" font-size="10.00"> </text>
<text text-anchor="start" x="74" y="-54" font-family="Cascadia Code NF" font-size="10.00"> </text>
<polygon fill="#bfbfbf" stroke="#bfbfbf" points="57,-81.5 57,-81.5 97,-81.5 97,-81.5 57,-81.5"/>
<polygon fill="#bfbfbf" stroke="#bfbfbf" points="57,-65.5 57,-65.5 97,-65.5 97,-65.5 57,-65.5"/>
<polygon fill="none" stroke="#bfbfbf" points="57,-47.5 57,-99.5 97,-99.5 97,-47.5 57,-47.5"/>
</a>
</g>
</g>
<!-- Node3&#45;&gt;Node1 -->
<g id="edge2_Node000001_Node000003" class="edge">
<title>Node3&#45;&gt;Node1</title>
<g id="a_edge2_Node000001_Node000003"><a xlink:title=" ">
<path fill="none" stroke="#63b8ff" d="M96.74,-76.66C133.49,-82.85 216.88,-96.9 279.43,-107.43"/>
<polygon fill="none" stroke="#63b8ff" points="279.31,-107.41 285.89,-104.47 291.15,-109.41 284.57,-112.35 279.31,-107.41"/>
</a>
</g>
<text text-anchor="middle" x="223" y="-107.75" font-family="Cascadia Code NF" font-size="10.00" fill="grey"> +kMaxFieldOffset</text>
</g>
</g>
</svg>
