<?xml version="1.0" encoding="UTF-8" standalone="no"?>
<!DOCTYPE svg PUBLIC "-//W3C//DTD SVG 1.1//EN"
 "http://www.w3.org/Graphics/SVG/1.1/DTD/svg11.dtd">
<!-- Generated by graphviz version 11.0.0 (20240428.1522)
 -->
<!-- Title: v8::internal::ConstPageRange Pages: 1 -->
<svg width="186pt" height="108pt"
 viewBox="0.00 0.00 186.00 108.00" xmlns="http://www.w3.org/2000/svg" xmlns:xlink="http://www.w3.org/1999/xlink">
<g id="graph0" class="graph" transform="scale(1 1) rotate(0) translate(4 104)">
<title>v8::internal::ConstPageRange</title>
<!-- Node1 -->
<g id="Node000001" class="node">
<title>Node1</title>
<g id="a_Node000001"><a xlink:title=" ">
<polygon fill="#999999" stroke="none" points="178,-100 0,-100 0,0 178,0 178,-100"/>
<text text-anchor="start" x="5" y="-86.5" font-family="Cascadia Code NF" font-size="10.00">v8::internal::ConstPageRange</text>
<text text-anchor="start" x="86" y="-70.5" font-family="Cascadia Code NF" font-size="10.00"> </text>
<text text-anchor="start" x="20" y="-54.5" font-family="Cascadia Code NF" font-size="10.00">+</text>
<text text-anchor="start" x="46" y="-54.5" font-family="Cascadia Code NF" font-size="10.00">ConstPageRange()</text>
<text text-anchor="start" x="20" y="-38.5" font-family="Cascadia Code NF" font-size="10.00">+</text>
<text text-anchor="start" x="46" y="-38.5" font-family="Cascadia Code NF" font-size="10.00">ConstPageRange()</text>
<text text-anchor="start" x="20" y="-22.5" font-family="Cascadia Code NF" font-size="10.00">+</text>
<text text-anchor="start" x="46" y="-22.5" font-family="Cascadia Code NF" font-size="10.00">begin()</text>
<text text-anchor="start" x="20" y="-6.5" font-family="Cascadia Code NF" font-size="10.00">+</text>
<text text-anchor="start" x="46" y="-6.5" font-family="Cascadia Code NF" font-size="10.00">end()</text>
<polygon fill="#666666" stroke="#666666" points="0,-82 0,-82 178,-82 178,-82 0,-82"/>
<polygon fill="#666666" stroke="#666666" points="0,-66 0,-66 178,-66 178,-66 0,-66"/>
<polygon fill="none" stroke="#666666" points="0,0 0,-100 178,-100 178,0 0,0"/>
</a>
</g>
</g>
</g>
</svg>
