<?xml version="1.0" encoding="UTF-8" standalone="no"?>
<!DOCTYPE svg PUBLIC "-//W3C//DTD SVG 1.1//EN"
 "http://www.w3.org/Graphics/SVG/1.1/DTD/svg11.dtd">
<!-- Generated by graphviz version 11.0.0 (20240428.1522)
 -->
<!-- Title: v8::internal::MemOperand Pages: 1 -->
<!--zoomable 547 -->

<svg id="main" version="1.1" xmlns="http://www.w3.org/2000/svg" xmlns:xlink="http://www.w3.org/1999/xlink" xml:space="preserve" onload="init(evt)">
<style type="text/css"><![CDATA[
.node, .edge {opacity: 0.7;}
.node.selected, .edge.selected {opacity: 1;}
.edge:hover path { stroke: red; }
.edge:hover polygon { stroke: red; fill: red; }
svg#main { background-color: #111; }
]]></style>

<defs>
  <circle id="rim" cx="0" cy="0" r="7"/>
  <circle id="rim2" cx="0" cy="0" r="3.5"/>
  <g id="zoomPlus">
    <use xlink:href="#rim" fill="#404040"><set attributeName="fill" to="#808080" begin="zoomplus.mouseover" end="zoomplus.mouseout"/></use>
    <path d="M-4,0h8M0,-4v8" fill="none" stroke="white" stroke-width="1.5" pointer-events="none"/>
  </g>
  <g id="zoomMin">
    <use xlink:href="#rim" fill="#404040"><set attributeName="fill" to="#808080" begin="zoomminus.mouseover" end="zoomminus.mouseout"/></use>
    <path d="M-4,0h8" fill="none" stroke="white" stroke-width="1.5" pointer-events="none"/>
  </g>
  <g id="arrowUp" transform="translate(30 24)">
    <use xlink:href="#rim"/>
    <path pointer-events="none" fill="none" stroke="white" stroke-width="1.5" d="M0,-3.0v7 M-2.5,-0.5L0,-3.0L2.5,-0.5"/>
  </g>
  <g id="arrowRight" transform="rotate(90) translate(36 -43)">
    <use xlink:href="#rim"/>
    <path pointer-events="none" fill="none" stroke="white" stroke-width="1.5" d="M0,-3.0v7 M-2.5,-0.5L0,-3.0L2.5,-0.5"/>
  </g>
  <g id="arrowDown" transform="rotate(180) translate(-30 -48)">
    <use xlink:href="#rim"/>
    <path pointer-events="none" fill="none" stroke="white" stroke-width="1.5" d="M0,-3.0v7 M-2.5,-0.5L0,-3.0L2.5,-0.5"/>
  </g>
  <g id="arrowLeft" transform="rotate(270) translate(-36 17)">
    <use xlink:href="#rim"/>
    <path pointer-events="none" fill="none" stroke="white" stroke-width="1.5" d="M0,-3.0v7 M-2.5,-0.5L0,-3.0L2.5,-0.5"/>
  </g>
  <g id="resetDef">
    <use xlink:href="#rim2" fill="#404040"><set attributeName="fill" to="#808080" begin="reset.mouseover" end="reset.mouseout"/></use>
  </g>
</defs>
<script type="application/ecmascript">
var viewWidth = 898;
var viewHeight = 547;
var sectionId = 'dynsection-1';
</script>
<script type="application/ecmascript" xlink:href="../../svg.min.js"/>
<svg id="graph" class="graph">
<g id="viewport">
<title>v8::internal::MemOperand</title>
<!-- Node1 -->
<g id="Node000001" class="node">
<title>Node1</title>
<g id="a_Node000001"><a xlink:title=" ">
<polygon fill="#999999" stroke="none" points="890,-308 716,-308 716,-80 890,-80 890,-308"/>
<text text-anchor="start" x="731" y="-294.5" font-family="Cascadia Code NF" font-size="10.00">v8::internal::MemOperand</text>
<text text-anchor="start" x="800" y="-278.5" font-family="Cascadia Code NF" font-size="10.00"> </text>
<text text-anchor="start" x="720" y="-262.5" font-family="Cascadia Code NF" font-size="10.00">+</text>
<text text-anchor="start" x="730" y="-262.5" font-family="Cascadia Code NF" font-size="10.00">MemOperand()</text>
<text text-anchor="start" x="720" y="-246.5" font-family="Cascadia Code NF" font-size="10.00">+</text>
<text text-anchor="start" x="730" y="-246.5" font-family="Cascadia Code NF" font-size="10.00">MemOperand()</text>
<text text-anchor="start" x="720" y="-230.5" font-family="Cascadia Code NF" font-size="10.00">+</text>
<text text-anchor="start" x="730" y="-230.5" font-family="Cascadia Code NF" font-size="10.00">MemOperand()</text>
<text text-anchor="start" x="720" y="-214.5" font-family="Cascadia Code NF" font-size="10.00">+</text>
<text text-anchor="start" x="730" y="-214.5" font-family="Cascadia Code NF" font-size="10.00">IsImmediateOffset()</text>
<text text-anchor="start" x="720" y="-198.5" font-family="Cascadia Code NF" font-size="10.00">+</text>
<text text-anchor="start" x="730" y="-198.5" font-family="Cascadia Code NF" font-size="10.00">set_offset()</text>
<text text-anchor="start" x="720" y="-182.5" font-family="Cascadia Code NF" font-size="10.00">+</text>
<text text-anchor="start" x="730" y="-182.5" font-family="Cascadia Code NF" font-size="10.00">offset()</text>
<text text-anchor="start" x="720" y="-166.5" font-family="Cascadia Code NF" font-size="10.00">+</text>
<text text-anchor="start" x="730" y="-166.5" font-family="Cascadia Code NF" font-size="10.00">rn()</text>
<text text-anchor="start" x="720" y="-150.5" font-family="Cascadia Code NF" font-size="10.00">+</text>
<text text-anchor="start" x="730" y="-150.5" font-family="Cascadia Code NF" font-size="10.00">rm()</text>
<text text-anchor="start" x="720" y="-134.5" font-family="Cascadia Code NF" font-size="10.00">+</text>
<text text-anchor="start" x="730" y="-134.5" font-family="Cascadia Code NF" font-size="10.00">am()</text>
<text text-anchor="start" x="720" y="-118.5" font-family="Cascadia Code NF" font-size="10.00">+</text>
<text text-anchor="start" x="730" y="-118.5" font-family="Cascadia Code NF" font-size="10.00">OffsetIsUint12Encodable()</text>
<text text-anchor="start" x="730" y="-102.5" font-family="Cascadia Code NF" font-size="10.00">and 45 more...</text>
<text text-anchor="start" x="720" y="-86.5" font-family="Cascadia Code NF" font-size="10.00">+</text>
<text text-anchor="start" x="730" y="-86.5" font-family="Cascadia Code NF" font-size="10.00">PointerAddressFromSmiKey()</text>
<polygon fill="#666666" stroke="#666666" points="716,-290 716,-290 890,-290 890,-290 716,-290"/>
<polygon fill="#666666" stroke="#666666" points="716,-274 716,-274 890,-274 890,-274 716,-274"/>
<polygon fill="none" stroke="#666666" points="716,-80 716,-308 890,-308 890,-80 716,-80"/>
</a>
</g>
</g>
<!-- Node2 -->
<g id="Node000002" class="node">
<title>Node2</title>
<g id="a_Node000002"><a xlink:href="../../d2/d65/classv8_1_1internal_1_1Operand.html" target="_top" xlink:title=" ">
<polygon fill="white" stroke="none" points="680,-388 494,-388 494,0 680,0 680,-388"/>
<text text-anchor="start" x="524" y="-374.5" font-family="Cascadia Code NF" font-size="10.00">v8::internal::Operand</text>
<text text-anchor="start" x="584" y="-358.5" font-family="Cascadia Code NF" font-size="10.00"> </text>
<text text-anchor="start" x="498" y="-342.5" font-family="Cascadia Code NF" font-size="10.00">+</text>
<text text-anchor="start" x="508" y="-342.5" font-family="Cascadia Code NF" font-size="10.00">Operand()</text>
<text text-anchor="start" x="498" y="-326.5" font-family="Cascadia Code NF" font-size="10.00">+</text>
<text text-anchor="start" x="508" y="-326.5" font-family="Cascadia Code NF" font-size="10.00">Operand()</text>
<text text-anchor="start" x="498" y="-310.5" font-family="Cascadia Code NF" font-size="10.00">+</text>
<text text-anchor="start" x="508" y="-310.5" font-family="Cascadia Code NF" font-size="10.00">Operand()</text>
<text text-anchor="start" x="498" y="-294.5" font-family="Cascadia Code NF" font-size="10.00">+</text>
<text text-anchor="start" x="508" y="-294.5" font-family="Cascadia Code NF" font-size="10.00">Operand()</text>
<text text-anchor="start" x="498" y="-278.5" font-family="Cascadia Code NF" font-size="10.00">+</text>
<text text-anchor="start" x="508" y="-278.5" font-family="Cascadia Code NF" font-size="10.00">Operand()</text>
<text text-anchor="start" x="498" y="-262.5" font-family="Cascadia Code NF" font-size="10.00">+</text>
<text text-anchor="start" x="508" y="-262.5" font-family="Cascadia Code NF" font-size="10.00">Operand()</text>
<text text-anchor="start" x="498" y="-246.5" font-family="Cascadia Code NF" font-size="10.00">+</text>
<text text-anchor="start" x="508" y="-246.5" font-family="Cascadia Code NF" font-size="10.00">Operand()</text>
<text text-anchor="start" x="498" y="-230.5" font-family="Cascadia Code NF" font-size="10.00">+</text>
<text text-anchor="start" x="508" y="-230.5" font-family="Cascadia Code NF" font-size="10.00">IsRegister()</text>
<text text-anchor="start" x="498" y="-214.5" font-family="Cascadia Code NF" font-size="10.00">+</text>
<text text-anchor="start" x="508" y="-214.5" font-family="Cascadia Code NF" font-size="10.00">IsImmediateShiftedRegister()</text>
<text text-anchor="start" x="498" y="-198.5" font-family="Cascadia Code NF" font-size="10.00">+</text>
<text text-anchor="start" x="508" y="-198.5" font-family="Cascadia Code NF" font-size="10.00">IsRegisterShiftedRegister()</text>
<text text-anchor="start" x="508" y="-182.5" font-family="Cascadia Code NF" font-size="10.00">and 117 more...</text>
<text text-anchor="start" x="498" y="-166.5" font-family="Cascadia Code NF" font-size="10.00">+</text>
<text text-anchor="start" x="508" y="-166.5" font-family="Cascadia Code NF" font-size="10.00">Zero()</text>
<text text-anchor="start" x="498" y="-150.5" font-family="Cascadia Code NF" font-size="10.00">+</text>
<text text-anchor="start" x="508" y="-150.5" font-family="Cascadia Code NF" font-size="10.00">SmiUntag()</text>
<text text-anchor="start" x="498" y="-134.5" font-family="Cascadia Code NF" font-size="10.00">+</text>
<text text-anchor="start" x="508" y="-134.5" font-family="Cascadia Code NF" font-size="10.00">PointerOffsetFromSmiKey()</text>
<text text-anchor="start" x="498" y="-118.5" font-family="Cascadia Code NF" font-size="10.00">+</text>
<text text-anchor="start" x="508" y="-118.5" font-family="Cascadia Code NF" font-size="10.00">DoubleOffsetFromSmiKey()</text>
<text text-anchor="start" x="498" y="-102.5" font-family="Cascadia Code NF" font-size="10.00">+</text>
<text text-anchor="start" x="508" y="-102.5" font-family="Cascadia Code NF" font-size="10.00">EmbeddedNumber()</text>
<text text-anchor="start" x="498" y="-86.5" font-family="Cascadia Code NF" font-size="10.00">+</text>
<text text-anchor="start" x="508" y="-86.5" font-family="Cascadia Code NF" font-size="10.00">EmbeddedNumber()</text>
<text text-anchor="start" x="498" y="-70.5" font-family="Cascadia Code NF" font-size="10.00">+</text>
<text text-anchor="start" x="508" y="-70.5" font-family="Cascadia Code NF" font-size="10.00">EmbeddedHeapNumber()</text>
<text text-anchor="start" x="498" y="-54.5" font-family="Cascadia Code NF" font-size="10.00">+</text>
<text text-anchor="start" x="508" y="-54.5" font-family="Cascadia Code NF" font-size="10.00">JumpTable()</text>
<text text-anchor="start" x="498" y="-38.5" font-family="Cascadia Code NF" font-size="10.00">+</text>
<text text-anchor="start" x="508" y="-38.5" font-family="Cascadia Code NF" font-size="10.00">ForRegisterPlusImmediate()</text>
<text text-anchor="start" x="498" y="-22.5" font-family="Cascadia Code NF" font-size="10.00">+</text>
<text text-anchor="start" x="508" y="-22.5" font-family="Cascadia Code NF" font-size="10.00">EmbeddedNumber()</text>
<text text-anchor="start" x="508" y="-6.5" font-family="Cascadia Code NF" font-size="10.00">and 6 more...</text>
<polygon fill="#bfbfbf" stroke="#bfbfbf" points="494,-370 494,-370 680,-370 680,-370 494,-370"/>
<polygon fill="#bfbfbf" stroke="#bfbfbf" points="494,-354 494,-354 680,-354 680,-354 494,-354"/>
<polygon fill="none" stroke="#bfbfbf" points="494,0 494,-388 680,-388 680,0 494,0"/>
</a>
</g>
</g>
<!-- Node2&#45;&gt;Node1 -->
<g id="edge1_Node000001_Node000002" class="edge">
<title>Node2&#45;&gt;Node1</title>
<g id="a_edge1_Node000001_Node000002"><a xlink:title=" ">
<path fill="none" stroke="#63b8ff" d="M691.31,-194C699.64,-194 707.99,-194 716.17,-194"/>
<polygon fill="none" stroke="#63b8ff" points="691.51,-190.5 681.51,-194 691.51,-197.5 691.51,-190.5"/>
</a>
</g>
</g>
<!-- Node2&#45;&gt;Node1 -->
<g id="edge11_Node000001_Node000002" class="edge">
<title>Node2&#45;&gt;Node1</title>
<g id="a_edge11_Node000001_Node000002"><a xlink:title=" ">
<path fill="none" stroke="#63b8ff" d="M691.31,-194C699.64,-194 707.99,-194 716.17,-194"/>
<polygon fill="none" stroke="#63b8ff" points="691.51,-190.5 681.51,-194 691.51,-197.5 691.51,-190.5"/>
</a>
</g>
</g>
<!-- Node3 -->
<g id="Node000003" class="node">
<title>Node3</title>
<g id="a_Node000003"><a xlink:href="../../d5/df5/structv8_1_1internal_1_1Operand_1_1LabelOperand.html" target="_top" xlink:title=" ">
<polygon fill="white" stroke="none" points="404,-309.5 268,-309.5 268,-244.5 404,-244.5 404,-309.5"/>
<text text-anchor="start" x="273" y="-296" font-family="Cascadia Code NF" font-size="10.00">v8::internal::Operand</text>
<text text-anchor="start" x="294" y="-283.25" font-family="Cascadia Code NF" font-size="10.00">::LabelOperand</text>
<text text-anchor="start" x="333" y="-267" font-family="Cascadia Code NF" font-size="10.00"> </text>
<text text-anchor="start" x="333" y="-251" font-family="Cascadia Code NF" font-size="10.00"> </text>
<polygon fill="#bfbfbf" stroke="#bfbfbf" points="268,-278.5 268,-278.5 404,-278.5 404,-278.5 268,-278.5"/>
<polygon fill="#bfbfbf" stroke="#bfbfbf" points="268,-262.5 268,-262.5 404,-262.5 404,-262.5 268,-262.5"/>
<polygon fill="none" stroke="#bfbfbf" points="268,-244.5 268,-309.5 404,-309.5 404,-244.5 268,-244.5"/>
</a>
</g>
</g>
<!-- Node3&#45;&gt;Node2 -->
<g id="edge2_Node000002_Node000003" class="edge">
<title>Node3&#45;&gt;Node2</title>
<g id="a_edge2_Node000002_Node000003"><a xlink:title=" ">
<path fill="none" stroke="#63b8ff" d="M403.73,-254.76C427.84,-246.72 455.66,-237.45 482.2,-228.6"/>
<polygon fill="none" stroke="#63b8ff" points="482.04,-228.65 486.47,-222.96 493.42,-224.86 489,-230.55 482.04,-228.65"/>
</a>
</g>
<text text-anchor="middle" x="449" y="-250.25" font-family="Cascadia Code NF" font-size="10.00" fill="grey"> +label_</text>
</g>
<!-- Node4 -->
<g id="Node000004" class="node">
<title>Node4</title>
<g id="a_Node000004"><a xlink:title=" ">
<polygon fill="white" stroke="none" points="79,-137 45,-137 45,-85 79,-85 79,-137"/>
<text text-anchor="start" x="50" y="-123.5" font-family="Cascadia Code NF" font-size="10.00">bool</text>
<text text-anchor="start" x="59" y="-107.5" font-family="Cascadia Code NF" font-size="10.00"> </text>
<text text-anchor="start" x="59" y="-91.5" font-family="Cascadia Code NF" font-size="10.00"> </text>
<polygon fill="#bfbfbf" stroke="#bfbfbf" points="45,-119 45,-119 79,-119 79,-119 45,-119"/>
<polygon fill="#bfbfbf" stroke="#bfbfbf" points="45,-103 45,-103 79,-103 79,-103 45,-103"/>
<polygon fill="none" stroke="#bfbfbf" points="45,-85 45,-137 79,-137 79,-85 45,-85"/>
</a>
</g>
</g>
<!-- Node4&#45;&gt;Node3 -->
<g id="edge3_Node000003_Node000004" class="edge">
<title>Node4&#45;&gt;Node3</title>
<g id="a_edge3_Node000003_Node000004"><a xlink:title=" ">
<path fill="none" stroke="#63b8ff" d="M78.89,-119.92C91.25,-126.9 108.8,-136.92 124,-146 138.6,-154.72 215.31,-202.42 272.05,-237.77"/>
<polygon fill="none" stroke="#63b8ff" points="272.16,-237.83 279.37,-237.61 282.35,-244.18 275.14,-244.4 272.16,-237.83"/>
</a>
</g>
<text text-anchor="middle" x="196" y="-223.25" font-family="Cascadia Code NF" font-size="10.00" fill="grey"> +is_label_operand</text>
</g>
<!-- Node8 -->
<g id="Node000008" class="node">
<title>Node8</title>
<g id="a_Node000008"><a xlink:href="../../d2/d49/structv8_1_1internal_1_1Operand_1_1MemoryOperand.html" target="_top" xlink:title=" ">
<polygon fill="white" stroke="none" points="404,-185.5 268,-185.5 268,-120.5 404,-120.5 404,-185.5"/>
<text text-anchor="start" x="273" y="-172" font-family="Cascadia Code NF" font-size="10.00">v8::internal::Operand</text>
<text text-anchor="start" x="291" y="-159.25" font-family="Cascadia Code NF" font-size="10.00">::MemoryOperand</text>
<text text-anchor="start" x="333" y="-143" font-family="Cascadia Code NF" font-size="10.00"> </text>
<text text-anchor="start" x="333" y="-127" font-family="Cascadia Code NF" font-size="10.00"> </text>
<polygon fill="#bfbfbf" stroke="#bfbfbf" points="268,-154.5 268,-154.5 404,-154.5 404,-154.5 268,-154.5"/>
<polygon fill="#bfbfbf" stroke="#bfbfbf" points="268,-138.5 268,-138.5 404,-138.5 404,-138.5 268,-138.5"/>
<polygon fill="none" stroke="#bfbfbf" points="268,-120.5 268,-185.5 404,-185.5 404,-120.5 268,-120.5"/>
</a>
</g>
</g>
<!-- Node4&#45;&gt;Node8 -->
<g id="edge8_Node000008_Node000004" class="edge">
<title>Node4&#45;&gt;Node8</title>
<g id="a_edge8_Node000008_Node000004"><a xlink:title=" ">
<path fill="none" stroke="#63b8ff" d="M78.8,-113.44C112.53,-118.65 193.56,-131.16 255.54,-140.73"/>
<polygon fill="none" stroke="#63b8ff" points="255.31,-140.69 261.85,-137.66 267.16,-142.53 260.62,-145.56 255.31,-140.69"/>
</a>
</g>
<text text-anchor="middle" x="196" y="-143.25" font-family="Cascadia Code NF" font-size="10.00" fill="grey"> +is_label_operand</text>
</g>
<!-- Node5 -->
<g id="Node000005" class="node">
<title>Node5</title>
<g id="a_Node000005"><a xlink:title=" ">
<polygon fill="white" stroke="none" points="88,-469 36,-469 36,-417 88,-417 88,-469"/>
<text text-anchor="start" x="41" y="-455.5" font-family="Cascadia Code NF" font-size="10.00">uint8_t</text>
<text text-anchor="start" x="59" y="-439.5" font-family="Cascadia Code NF" font-size="10.00"> </text>
<text text-anchor="start" x="59" y="-423.5" font-family="Cascadia Code NF" font-size="10.00"> </text>
<polygon fill="#bfbfbf" stroke="#bfbfbf" points="36,-451 36,-451 88,-451 88,-451 36,-451"/>
<polygon fill="#bfbfbf" stroke="#bfbfbf" points="36,-435 36,-435 88,-435 88,-435 36,-435"/>
<polygon fill="none" stroke="#bfbfbf" points="36,-417 36,-469 88,-469 88,-417 36,-417"/>
</a>
</g>
</g>
<!-- Node5&#45;&gt;Node3 -->
<g id="edge4_Node000003_Node000005" class="edge">
<title>Node5&#45;&gt;Node3</title>
<g id="a_edge4_Node000003_Node000005"><a xlink:title=" ">
<path fill="none" stroke="#63b8ff" d="M87.87,-435.98C125.24,-424.68 197.15,-400.03 250,-364 268.49,-351.39 286.25,-334.31 300.7,-318.62"/>
<polygon fill="none" stroke="#63b8ff" points="300.64,-318.69 301.66,-311.55 308.65,-309.75 307.62,-316.89 300.64,-318.69"/>
</a>
</g>
<text text-anchor="middle" x="196" y="-420.25" font-family="Cascadia Code NF" font-size="10.00" fill="grey"> +rex</text>
</g>
<!-- Node5&#45;&gt;Node8 -->
<g id="edge9_Node000008_Node000005" class="edge">
<title>Node5&#45;&gt;Node8</title>
<g id="a_edge9_Node000008_Node000005"><a xlink:title=" ">
<path fill="none" stroke="#63b8ff" d="M87.97,-434.19C100.54,-428.55 114.97,-420 124,-408 144.22,-381.13 119.67,-359.65 142,-334.5 176.04,-296.17 214.81,-331.28 250,-294 268.53,-274.37 255.3,-259.81 268,-236 275.63,-221.69 285.89,-207.45 296.07,-194.92"/>
<polygon fill="none" stroke="#63b8ff" points="295.88,-195.15 296.68,-187.98 303.6,-185.95 302.8,-193.12 295.88,-195.15"/>
</a>
</g>
<text text-anchor="middle" x="196" y="-350" font-family="Cascadia Code NF" font-size="10.00" fill="grey"> +buf</text>
<text text-anchor="middle" x="196" y="-337.25" font-family="Cascadia Code NF" font-size="10.00" fill="grey">+rex</text>
</g>
<!-- Node6 -->
<g id="Node000006" class="node">
<title>Node6</title>
<g id="a_Node000006"><a xlink:href="../../d9/df1/classint8__t.html" target="_top" xlink:title=" ">
<polygon fill="white" stroke="none" points="85,-539 39,-539 39,-487 85,-487 85,-539"/>
<text text-anchor="start" x="44" y="-525.5" font-family="Cascadia Code NF" font-size="10.00">int8_t</text>
<text text-anchor="start" x="59" y="-509.5" font-family="Cascadia Code NF" font-size="10.00"> </text>
<text text-anchor="start" x="59" y="-493.5" font-family="Cascadia Code NF" font-size="10.00"> </text>
<polygon fill="#bfbfbf" stroke="#bfbfbf" points="39,-521 39,-521 85,-521 85,-521 39,-521"/>
<polygon fill="#bfbfbf" stroke="#bfbfbf" points="39,-505 39,-505 85,-505 85,-505 39,-505"/>
<polygon fill="none" stroke="#bfbfbf" points="39,-487 39,-539 85,-539 85,-487 39,-487"/>
</a>
</g>
</g>
<!-- Node6&#45;&gt;Node3 -->
<g id="edge5_Node000003_Node000006" class="edge">
<title>Node6&#45;&gt;Node3</title>
<g id="a_edge5_Node000003_Node000006"><a xlink:title=" ">
<path fill="none" stroke="#63b8ff" d="M84.89,-508.73C122.67,-500.38 200.81,-478.66 250,-434 283.72,-403.38 306.74,-356.18 320.23,-321.53"/>
<polygon fill="none" stroke="#63b8ff" points="320.25,-321.46 318.6,-314.44 324.45,-310.22 326.1,-317.24 320.25,-321.46"/>
</a>
</g>
<text text-anchor="middle" x="196" y="-494.25" font-family="Cascadia Code NF" font-size="10.00" fill="grey"> +addend</text>
</g>
<!-- Node7 -->
<g id="Node000007" class="node">
<title>Node7</title>
<g id="a_Node000007"><a xlink:href="../../d9/df3/classv8_1_1internal_1_1Label.html" target="_top" xlink:title=" ">
<polygon fill="white" stroke="none" points="124,-399 0,-399 0,-155 124,-155 124,-399"/>
<text text-anchor="start" x="5" y="-385.5" font-family="Cascadia Code NF" font-size="10.00">v8::internal::Label</text>
<text text-anchor="start" x="59" y="-369.5" font-family="Cascadia Code NF" font-size="10.00"> </text>
<text text-anchor="start" x="6.5" y="-353.5" font-family="Cascadia Code NF" font-size="10.00">+</text>
<text text-anchor="start" x="19" y="-353.5" font-family="Cascadia Code NF" font-size="10.00">Label()</text>
<text text-anchor="start" x="6.5" y="-337.5" font-family="Cascadia Code NF" font-size="10.00">+</text>
<text text-anchor="start" x="19" y="-337.5" font-family="Cascadia Code NF" font-size="10.00">Label()</text>
<text text-anchor="start" x="6.5" y="-321.5" font-family="Cascadia Code NF" font-size="10.00">+</text>
<text text-anchor="start" x="19" y="-321.5" font-family="Cascadia Code NF" font-size="10.00">operator=()</text>
<text text-anchor="start" x="6.5" y="-305.5" font-family="Cascadia Code NF" font-size="10.00">+</text>
<text text-anchor="start" x="19" y="-305.5" font-family="Cascadia Code NF" font-size="10.00">Label()</text>
<text text-anchor="start" x="6.5" y="-289.5" font-family="Cascadia Code NF" font-size="10.00">+</text>
<text text-anchor="start" x="19" y="-289.5" font-family="Cascadia Code NF" font-size="10.00">operator=()</text>
<text text-anchor="start" x="6.5" y="-273.5" font-family="Cascadia Code NF" font-size="10.00">+</text>
<text text-anchor="start" x="19" y="-273.5" font-family="Cascadia Code NF" font-size="10.00">Unuse()</text>
<text text-anchor="start" x="6.5" y="-257.5" font-family="Cascadia Code NF" font-size="10.00">+</text>
<text text-anchor="start" x="19" y="-257.5" font-family="Cascadia Code NF" font-size="10.00">UnuseNear()</text>
<text text-anchor="start" x="6.5" y="-241.5" font-family="Cascadia Code NF" font-size="10.00">+</text>
<text text-anchor="start" x="19" y="-241.5" font-family="Cascadia Code NF" font-size="10.00">is_bound()</text>
<text text-anchor="start" x="6.5" y="-225.5" font-family="Cascadia Code NF" font-size="10.00">+</text>
<text text-anchor="start" x="19" y="-225.5" font-family="Cascadia Code NF" font-size="10.00">is_unused()</text>
<text text-anchor="start" x="6.5" y="-209.5" font-family="Cascadia Code NF" font-size="10.00">+</text>
<text text-anchor="start" x="19" y="-209.5" font-family="Cascadia Code NF" font-size="10.00">is_linked()</text>
<text text-anchor="start" x="6.5" y="-193.5" font-family="Cascadia Code NF" font-size="10.00">+</text>
<text text-anchor="start" x="19" y="-193.5" font-family="Cascadia Code NF" font-size="10.00">is_near_linked()</text>
<text text-anchor="start" x="6.5" y="-177.5" font-family="Cascadia Code NF" font-size="10.00">+</text>
<text text-anchor="start" x="19" y="-177.5" font-family="Cascadia Code NF" font-size="10.00">pos()</text>
<text text-anchor="start" x="6.5" y="-161.5" font-family="Cascadia Code NF" font-size="10.00">+</text>
<text text-anchor="start" x="19" y="-161.5" font-family="Cascadia Code NF" font-size="10.00">near_link_pos()</text>
<polygon fill="#bfbfbf" stroke="#bfbfbf" points="0,-381 0,-381 124,-381 124,-381 0,-381"/>
<polygon fill="#bfbfbf" stroke="#bfbfbf" points="0,-365 0,-365 124,-365 124,-365 0,-365"/>
<polygon fill="none" stroke="#bfbfbf" points="0,-155 0,-399 124,-399 124,-155 0,-155"/>
</a>
</g>
</g>
<!-- Node7&#45;&gt;Node3 -->
<g id="edge6_Node000003_Node000007" class="edge">
<title>Node7&#45;&gt;Node3</title>
<g id="a_edge6_Node000003_Node000007"><a xlink:title=" ">
<path fill="none" stroke="#63b8ff" d="M123.7,-277C162.5,-277 213.23,-277 255.26,-277"/>
<polygon fill="none" stroke="#63b8ff" points="255.38,-277 261.38,-273 267.38,-277 261.38,-281 255.38,-277"/>
</a>
</g>
<text text-anchor="middle" x="196" y="-280.25" font-family="Cascadia Code NF" font-size="10.00" fill="grey"> +label</text>
</g>
<!-- Node8&#45;&gt;Node2 -->
<g id="edge7_Node000002_Node000008" class="edge">
<title>Node8&#45;&gt;Node2</title>
<g id="a_edge7_Node000002_Node000008"><a xlink:title=" ">
<path fill="none" stroke="#63b8ff" d="M403.73,-163.99C427.62,-167.92 455.16,-172.46 481.48,-176.79"/>
<polygon fill="none" stroke="#63b8ff" points="481.55,-176.8 488.12,-173.83 493.39,-178.75 486.82,-181.72 481.55,-176.8"/>
</a>
</g>
<text text-anchor="middle" x="449" y="-177.25" font-family="Cascadia Code NF" font-size="10.00" fill="grey"> +memory_</text>
</g>
<!-- Node9 -->
<g id="Node000009" class="node">
<title>Node9</title>
<g id="a_Node000009"><a xlink:title=" ">
<polygon fill="white" stroke="none" points="85,-67 39,-67 39,-15 85,-15 85,-67"/>
<text text-anchor="start" x="44" y="-53.5" font-family="Cascadia Code NF" font-size="10.00">size_t</text>
<text text-anchor="start" x="59" y="-37.5" font-family="Cascadia Code NF" font-size="10.00"> </text>
<text text-anchor="start" x="59" y="-21.5" font-family="Cascadia Code NF" font-size="10.00"> </text>
<polygon fill="#bfbfbf" stroke="#bfbfbf" points="39,-49 39,-49 85,-49 85,-49 39,-49"/>
<polygon fill="#bfbfbf" stroke="#bfbfbf" points="39,-33 39,-33 85,-33 85,-33 39,-33"/>
<polygon fill="none" stroke="#bfbfbf" points="39,-15 39,-67 85,-67 85,-15 39,-15"/>
</a>
</g>
</g>
<!-- Node9&#45;&gt;Node8 -->
<g id="edge10_Node000008_Node000009" class="edge">
<title>Node9&#45;&gt;Node8</title>
<g id="a_edge10_Node000008_Node000009"><a xlink:title=" ">
<path fill="none" stroke="#63b8ff" d="M84.73,-47.5C120.03,-58.33 191.74,-81.44 250,-107.25 255.23,-109.57 260.57,-112.08 265.9,-114.69"/>
<polygon fill="none" stroke="#63b8ff" points="266,-114.74 273.16,-113.86 276.72,-120.13 269.56,-121.01 266,-114.74"/>
</a>
</g>
<text text-anchor="middle" x="196" y="-111.25" font-family="Cascadia Code NF" font-size="10.00" fill="grey"> +len</text>
</g>
</g>
</svg>

<g id="navigator" transform="translate(0 0)" fill="#404254">
  <rect fill="#f2f5e9" fill-opacity="0.5" stroke="#606060" stroke-width=".5" x="0" y="0" width="60" height="60"/>
  <use id="zoomplus" xlink:href="#zoomPlus" x="17" y="9" onmousedown="handleZoom(evt,'in')"/>
  <use id="zoomminus" xlink:href="#zoomMin" x="42" y="9" onmousedown="handleZoom(evt,'out')"/>
  <use id="reset" xlink:href="#resetDef" x="30" y="36" onmousedown="handleReset()"/>
   <use id="arrowup" xlink:href="#arrowUp" x="0" y="0" onmousedown="handlePan(0,-1)"/>
  <use id="arrowright" xlink:href="#arrowRight" x="0" y="0" onmousedown="handlePan(1,0)"/>
  <use id="arrowdown" xlink:href="#arrowDown" x="0" y="0" onmousedown="handlePan(0,1)"/>
  <use id="arrowleft" xlink:href="#arrowLeft" x="0" y="0" onmousedown="handlePan(-1,0)"/>
</g>
<svg viewBox="0 0 15 15" width="100%" height="30px" preserveAspectRatio="xMaxYMin meet">
 <g id="arrow_out" transform="scale(0.3 0.3)">
  <a xlink:href="classv8_1_1internal_1_1MemOperand__coll__graph_org.svg" target="_base">
   <rect id="button" ry="5" rx="5" y="6" x="6" height="38" width="38"
        fill="#f2f5e9" fill-opacity="0.5" stroke="#606060" stroke-width="1.0"/>
   <path id="arrow"
     d="M 11.500037,31.436501 C 11.940474,20.09759 22.043105,11.32322 32.158766,21.979434 L 37.068811,17.246167 C 37.068811,17.246167 37.088388,32 37.088388,32 L 22.160133,31.978069 C 22.160133,31.978069 26.997745,27.140456 26.997745,27.140456 C 18.528582,18.264221 13.291696,25.230495 11.500037,31.436501 z"
     style="fill:#404040;"/>
  </a>
 </g>
</svg>

<style type='text/css'>
<![CDATA[
[data-mouse-over-selected='false'] { opacity: 0.7; }
[data-mouse-over-selected='true']  { opacity: 1.0; }
]]>
</style>
<script type="application/ecmascript"><![CDATA[
document.addEventListener('DOMContentLoaded', (event) => {
  highlightEdges();
  highlightAdjacentNodes();
});
]]></script>
</svg>
