<?xml version="1.0" encoding="UTF-8" standalone="no"?>
<!DOCTYPE svg PUBLIC "-//W3C//DTD SVG 1.1//EN"
 "http://www.w3.org/Graphics/SVG/1.1/DTD/svg11.dtd">
<!-- Generated by graphviz version 11.0.0 (20240428.1522)
 -->
<!-- Title: v8::internal::debug_helper_internal::TqPromiseReaction Pages: 1 -->
<svg width="734pt" height="336pt"
 viewBox="0.00 0.00 734.00 336.00" xmlns="http://www.w3.org/2000/svg" xmlns:xlink="http://www.w3.org/1999/xlink">
<g id="graph0" class="graph" transform="scale(1 1) rotate(0) translate(4 332)">
<title>v8::internal::debug_helper_internal::TqPromiseReaction</title>
<!-- Node1 -->
<g id="Node000001" class="node">
<title>Node1</title>
<g id="a_Node000001"><a xlink:title=" ">
<polygon fill="#999999" stroke="none" points="726,-328 522,-328 522,0 726,0 726,-328"/>
<text text-anchor="start" x="543" y="-314.5" font-family="Cascadia Code NF" font-size="10.00">v8::internal::debug</text>
<text text-anchor="start" x="543" y="-301.75" font-family="Cascadia Code NF" font-size="10.00">_helper_internal::TqPromise</text>
<text text-anchor="start" x="600" y="-289" font-family="Cascadia Code NF" font-size="10.00">Reaction</text>
<text text-anchor="start" x="621" y="-272.5" font-family="Cascadia Code NF" font-size="10.00"> </text>
<text text-anchor="start" x="526" y="-256.5" font-family="Cascadia Code NF" font-size="10.00">+</text>
<text text-anchor="start" x="536" y="-256.5" font-family="Cascadia Code NF" font-size="10.00">TqPromiseReaction()</text>
<text text-anchor="start" x="526" y="-240.5" font-family="Cascadia Code NF" font-size="10.00">+</text>
<text text-anchor="start" x="536" y="-240.5" font-family="Cascadia Code NF" font-size="10.00">GetProperties()</text>
<text text-anchor="start" x="526" y="-224.5" font-family="Cascadia Code NF" font-size="10.00">+</text>
<text text-anchor="start" x="536" y="-224.5" font-family="Cascadia Code NF" font-size="10.00">GetName()</text>
<text text-anchor="start" x="526" y="-208.5" font-family="Cascadia Code NF" font-size="10.00">+</text>
<text text-anchor="start" x="536" y="-208.5" font-family="Cascadia Code NF" font-size="10.00">Visit()</text>
<text text-anchor="start" x="526" y="-192.5" font-family="Cascadia Code NF" font-size="10.00">+</text>
<text text-anchor="start" x="536" y="-192.5" font-family="Cascadia Code NF" font-size="10.00">IsSuperclassOf()</text>
<text text-anchor="start" x="526" y="-176.5" font-family="Cascadia Code NF" font-size="10.00">+</text>
<text text-anchor="start" x="536" y="-176.5" font-family="Cascadia Code NF" font-size="10.00">GetContinuationPreserved</text>
<text text-anchor="start" x="536" y="-163.75" font-family="Cascadia Code NF" font-size="10.00">EmbedderDataAddress()</text>
<text text-anchor="start" x="526" y="-147.5" font-family="Cascadia Code NF" font-size="10.00">+</text>
<text text-anchor="start" x="536" y="-147.5" font-family="Cascadia Code NF" font-size="10.00">GetContinuationPreserved</text>
<text text-anchor="start" x="536" y="-134.75" font-family="Cascadia Code NF" font-size="10.00">EmbedderDataValue()</text>
<text text-anchor="start" x="526" y="-118.5" font-family="Cascadia Code NF" font-size="10.00">+</text>
<text text-anchor="start" x="536" y="-118.5" font-family="Cascadia Code NF" font-size="10.00">GetNextAddress()</text>
<text text-anchor="start" x="526" y="-102.5" font-family="Cascadia Code NF" font-size="10.00">+</text>
<text text-anchor="start" x="536" y="-102.5" font-family="Cascadia Code NF" font-size="10.00">GetNextValue()</text>
<text text-anchor="start" x="526" y="-86.5" font-family="Cascadia Code NF" font-size="10.00">+</text>
<text text-anchor="start" x="536" y="-86.5" font-family="Cascadia Code NF" font-size="10.00">GetRejectHandlerAddress()</text>
<text text-anchor="start" x="526" y="-70.5" font-family="Cascadia Code NF" font-size="10.00">+</text>
<text text-anchor="start" x="536" y="-70.5" font-family="Cascadia Code NF" font-size="10.00">GetRejectHandlerValue()</text>
<text text-anchor="start" x="526" y="-54.5" font-family="Cascadia Code NF" font-size="10.00">+</text>
<text text-anchor="start" x="536" y="-54.5" font-family="Cascadia Code NF" font-size="10.00">GetFulfillHandlerAddress()</text>
<text text-anchor="start" x="526" y="-38.5" font-family="Cascadia Code NF" font-size="10.00">+</text>
<text text-anchor="start" x="536" y="-38.5" font-family="Cascadia Code NF" font-size="10.00">GetFulfillHandlerValue()</text>
<text text-anchor="start" x="526" y="-22.5" font-family="Cascadia Code NF" font-size="10.00">+</text>
<text text-anchor="start" x="536" y="-22.5" font-family="Cascadia Code NF" font-size="10.00">GetPromiseOrCapabilityAddress()</text>
<text text-anchor="start" x="526" y="-6.5" font-family="Cascadia Code NF" font-size="10.00">+</text>
<text text-anchor="start" x="536" y="-6.5" font-family="Cascadia Code NF" font-size="10.00">GetPromiseOrCapabilityValue()</text>
<polygon fill="#666666" stroke="#666666" points="522,-284 522,-284 726,-284 726,-284 522,-284"/>
<polygon fill="#666666" stroke="#666666" points="522,-268 522,-268 726,-268 726,-268 522,-268"/>
<polygon fill="none" stroke="#666666" points="522,0 522,-328 726,-328 726,0 522,0"/>
</a>
</g>
</g>
<!-- Node2 -->
<g id="Node000002" class="node">
<title>Node2</title>
<g id="a_Node000002"><a xlink:href="../../d2/dfa/classv8_1_1internal_1_1debug__helper__internal_1_1TqStruct.html" target="_top" xlink:title=" ">
<polygon fill="white" stroke="none" points="486,-228.5 320,-228.5 320,-99.5 486,-99.5 486,-228.5"/>
<text text-anchor="start" x="325" y="-215" font-family="Cascadia Code NF" font-size="10.00">v8::internal::debug</text>
<text text-anchor="start" x="325" y="-202.25" font-family="Cascadia Code NF" font-size="10.00">_helper_internal::TqStruct</text>
<text text-anchor="start" x="400" y="-186" font-family="Cascadia Code NF" font-size="10.00"> </text>
<text text-anchor="start" x="337" y="-170" font-family="Cascadia Code NF" font-size="10.00">+</text>
<text text-anchor="start" x="360" y="-170" font-family="Cascadia Code NF" font-size="10.00">TqStruct()</text>
<text text-anchor="start" x="337" y="-154" font-family="Cascadia Code NF" font-size="10.00">+</text>
<text text-anchor="start" x="360" y="-154" font-family="Cascadia Code NF" font-size="10.00">GetProperties()</text>
<text text-anchor="start" x="337" y="-138" font-family="Cascadia Code NF" font-size="10.00">+</text>
<text text-anchor="start" x="360" y="-138" font-family="Cascadia Code NF" font-size="10.00">GetName()</text>
<text text-anchor="start" x="337" y="-122" font-family="Cascadia Code NF" font-size="10.00">+</text>
<text text-anchor="start" x="360" y="-122" font-family="Cascadia Code NF" font-size="10.00">Visit()</text>
<text text-anchor="start" x="337" y="-106" font-family="Cascadia Code NF" font-size="10.00">+</text>
<text text-anchor="start" x="360" y="-106" font-family="Cascadia Code NF" font-size="10.00">IsSuperclassOf()</text>
<polygon fill="#bfbfbf" stroke="#bfbfbf" points="320,-197.5 320,-197.5 486,-197.5 486,-197.5 320,-197.5"/>
<polygon fill="#bfbfbf" stroke="#bfbfbf" points="320,-181.5 320,-181.5 486,-181.5 486,-181.5 320,-181.5"/>
<polygon fill="none" stroke="#bfbfbf" points="320,-99.5 320,-228.5 486,-228.5 486,-99.5 320,-99.5"/>
</a>
</g>
</g>
<!-- Node2&#45;&gt;Node1 -->
<g id="edge1_Node000001_Node000002" class="edge">
<title>Node2&#45;&gt;Node1</title>
<g id="a_edge1_Node000001_Node000002"><a xlink:title=" ">
<path fill="none" stroke="#63b8ff" d="M497.14,-164C505.48,-164 513.96,-164 522.36,-164"/>
<polygon fill="none" stroke="#63b8ff" points="497.37,-160.5 487.37,-164 497.37,-167.5 497.37,-160.5"/>
</a>
</g>
</g>
<!-- Node3 -->
<g id="Node000003" class="node">
<title>Node3</title>
<g id="a_Node000003"><a xlink:href="../../db/deb/classv8_1_1internal_1_1debug__helper__internal_1_1TqHeapObject.html" target="_top" xlink:title=" ">
<polygon fill="white" stroke="none" points="284,-244.5 94,-244.5 94,-83.5 284,-83.5 284,-244.5"/>
<text text-anchor="start" x="99" y="-231" font-family="Cascadia Code NF" font-size="10.00">v8::internal::debug</text>
<text text-anchor="start" x="99" y="-218.25" font-family="Cascadia Code NF" font-size="10.00">_helper_internal::TqHeapObject</text>
<text text-anchor="start" x="186" y="-202" font-family="Cascadia Code NF" font-size="10.00"> </text>
<text text-anchor="start" x="117" y="-186" font-family="Cascadia Code NF" font-size="10.00">+</text>
<text text-anchor="start" x="146" y="-186" font-family="Cascadia Code NF" font-size="10.00">TqHeapObject()</text>
<text text-anchor="start" x="117" y="-170" font-family="Cascadia Code NF" font-size="10.00">+</text>
<text text-anchor="start" x="146" y="-170" font-family="Cascadia Code NF" font-size="10.00">GetProperties()</text>
<text text-anchor="start" x="117" y="-154" font-family="Cascadia Code NF" font-size="10.00">+</text>
<text text-anchor="start" x="146" y="-154" font-family="Cascadia Code NF" font-size="10.00">GetName()</text>
<text text-anchor="start" x="117" y="-138" font-family="Cascadia Code NF" font-size="10.00">+</text>
<text text-anchor="start" x="146" y="-138" font-family="Cascadia Code NF" font-size="10.00">Visit()</text>
<text text-anchor="start" x="117" y="-122" font-family="Cascadia Code NF" font-size="10.00">+</text>
<text text-anchor="start" x="146" y="-122" font-family="Cascadia Code NF" font-size="10.00">IsSuperclassOf()</text>
<text text-anchor="start" x="117" y="-106" font-family="Cascadia Code NF" font-size="10.00">+</text>
<text text-anchor="start" x="146" y="-106" font-family="Cascadia Code NF" font-size="10.00">GetMapAddress()</text>
<text text-anchor="start" x="117" y="-90" font-family="Cascadia Code NF" font-size="10.00">+</text>
<text text-anchor="start" x="146" y="-90" font-family="Cascadia Code NF" font-size="10.00">GetMapValue()</text>
<polygon fill="#bfbfbf" stroke="#bfbfbf" points="94,-213.5 94,-213.5 284,-213.5 284,-213.5 94,-213.5"/>
<polygon fill="#bfbfbf" stroke="#bfbfbf" points="94,-197.5 94,-197.5 284,-197.5 284,-197.5 94,-197.5"/>
<polygon fill="none" stroke="#bfbfbf" points="94,-83.5 94,-244.5 284,-244.5 284,-83.5 94,-83.5"/>
</a>
</g>
</g>
<!-- Node3&#45;&gt;Node2 -->
<g id="edge2_Node000002_Node000003" class="edge">
<title>Node3&#45;&gt;Node2</title>
<g id="a_edge2_Node000002_Node000003"><a xlink:title=" ">
<path fill="none" stroke="#63b8ff" d="M295.27,-164C303.62,-164 311.97,-164 320.13,-164"/>
<polygon fill="none" stroke="#63b8ff" points="295.43,-160.5 285.43,-164 295.43,-167.5 295.43,-160.5"/>
</a>
</g>
</g>
<!-- Node4 -->
<g id="Node000004" class="node">
<title>Node4</title>
<g id="a_Node000004"><a xlink:href="../../dd/d42/classTqObject.html" target="_top" xlink:title=" ">
<polygon fill="white" stroke="none" points="58,-190 0,-190 0,-138 58,-138 58,-190"/>
<text text-anchor="start" x="5" y="-176.5" font-family="Cascadia Code NF" font-size="10.00">TqObject</text>
<text text-anchor="start" x="26" y="-160.5" font-family="Cascadia Code NF" font-size="10.00"> </text>
<text text-anchor="start" x="26" y="-144.5" font-family="Cascadia Code NF" font-size="10.00"> </text>
<polygon fill="#bfbfbf" stroke="#bfbfbf" points="0,-172 0,-172 58,-172 58,-172 0,-172"/>
<polygon fill="#bfbfbf" stroke="#bfbfbf" points="0,-156 0,-156 58,-156 58,-156 0,-156"/>
<polygon fill="none" stroke="#bfbfbf" points="0,-138 0,-190 58,-190 58,-138 0,-138"/>
</a>
</g>
</g>
<!-- Node4&#45;&gt;Node3 -->
<g id="edge3_Node000003_Node000004" class="edge">
<title>Node4&#45;&gt;Node3</title>
<g id="a_edge3_Node000003_Node000004"><a xlink:title=" ">
<path fill="none" stroke="#63b8ff" d="M69.34,-164C77.03,-164 85.39,-164 94,-164"/>
<polygon fill="none" stroke="#63b8ff" points="69.4,-160.5 59.4,-164 69.4,-167.5 69.4,-160.5"/>
</a>
</g>
</g>
</g>
</svg>
