<?xml version="1.0" encoding="UTF-8" standalone="no"?>
<!DOCTYPE svg PUBLIC "-//W3C//DTD SVG 1.1//EN"
 "http://www.w3.org/Graphics/SVG/1.1/DTD/svg11.dtd">
<!-- Generated by graphviz version 11.0.0 (20240428.1522)
 -->
<!-- Title: v8::internal::Module::ResolveSet Pages: 1 -->
<svg width="292pt" height="89pt"
 viewBox="0.00 0.00 292.00 89.00" xmlns="http://www.w3.org/2000/svg" xmlns:xlink="http://www.w3.org/1999/xlink">
<g id="graph0" class="graph" transform="scale(1 1) rotate(0) translate(4 85)">
<title>v8::internal::Module::ResolveSet</title>
<!-- Node1 -->
<g id="Node000001" class="node">
<title>Node1</title>
<g id="a_Node000001"><a xlink:title=" ">
<polygon fill="#999999" stroke="none" points="284,-81 154,-81 154,0 284,0 284,-81"/>
<text text-anchor="start" x="159" y="-67.5" font-family="Cascadia Code NF" font-size="10.00">v8::internal::Module</text>
<text text-anchor="start" x="183" y="-54.75" font-family="Cascadia Code NF" font-size="10.00">::ResolveSet</text>
<text text-anchor="start" x="216" y="-38.5" font-family="Cascadia Code NF" font-size="10.00"> </text>
<text text-anchor="start" x="168" y="-22.5" font-family="Cascadia Code NF" font-size="10.00">+</text>
<text text-anchor="start" x="188" y="-22.5" font-family="Cascadia Code NF" font-size="10.00">ResolveSet()</text>
<text text-anchor="start" x="168" y="-6.5" font-family="Cascadia Code NF" font-size="10.00">+</text>
<text text-anchor="start" x="188" y="-6.5" font-family="Cascadia Code NF" font-size="10.00">zone()</text>
<polygon fill="#666666" stroke="#666666" points="154,-50 154,-50 284,-50 284,-50 154,-50"/>
<polygon fill="#666666" stroke="#666666" points="154,-34 154,-34 284,-34 284,-34 154,-34"/>
<polygon fill="none" stroke="#666666" points="154,0 154,-81 284,-81 284,0 154,0"/>
</a>
</g>
</g>
<!-- Node2 -->
<g id="Node000002" class="node">
<title>Node2</title>
<g id="a_Node000002"><a xlink:title=" ">
<polygon fill="white" stroke="none" points="118,-81 0,-81 0,0 118,0 118,-81"/>
<text text-anchor="start" x="5" y="-67.5" font-family="Cascadia Code NF" font-size="10.00">std::unordered_map</text>
<text text-anchor="start" x="35" y="-54.75" font-family="Cascadia Code NF" font-size="10.00">&lt; K, T &gt;</text>
<text text-anchor="start" x="17" y="-38.5" font-family="Cascadia Code NF" font-size="10.00">+</text>
<text text-anchor="start" x="40" y="-38.5" font-family="Cascadia Code NF" font-size="10.00">keys</text>
<text text-anchor="start" x="17" y="-22.5" font-family="Cascadia Code NF" font-size="10.00">+</text>
<text text-anchor="start" x="40" y="-22.5" font-family="Cascadia Code NF" font-size="10.00">elements</text>
<text text-anchor="start" x="56" y="-6.5" font-family="Cascadia Code NF" font-size="10.00"> </text>
<polygon fill="#666666" stroke="#666666" points="0,-50 0,-50 118,-50 118,-50 0,-50"/>
<polygon fill="#666666" stroke="#666666" points="0,-18 0,-18 38,-18 38,-18 0,-18"/>
<polygon fill="#666666" stroke="#666666" points="38,-18 38,-18 118,-18 118,-18 38,-18"/>
<polygon fill="none" stroke="#666666" points="0,0 0,-81 118,-81 118,0 0,0"/>
</a>
</g>
</g>
<!-- Node2&#45;&gt;Node1 -->
<g id="edge1_Node000001_Node000002" class="edge">
<title>Node2&#45;&gt;Node1</title>
<g id="a_edge1_Node000001_Node000002"><a xlink:title=" ">
<path fill="none" stroke="#63b8ff" d="M129.45,-40.5C137.68,-40.5 146.06,-40.5 154.21,-40.5"/>
<polygon fill="none" stroke="#63b8ff" points="129.45,-37 119.45,-40.5 129.45,-44 129.45,-37"/>
</a>
</g>
</g>
</g>
</svg>
