<?xml version="1.0" encoding="UTF-8" standalone="no"?>
<!DOCTYPE svg PUBLIC "-//W3C//DTD SVG 1.1//EN"
 "http://www.w3.org/Graphics/SVG/1.1/DTD/svg11.dtd">
<!-- Generated by graphviz version 11.0.0 (20240428.1522)
 -->
<!-- Title: v8::internal::CoverageScript Pages: 1 -->
<svg width="1518pt" height="654pt"
 viewBox="0.00 0.00 1518.00 654.00" xmlns="http://www.w3.org/2000/svg" xmlns:xlink="http://www.w3.org/1999/xlink">
<g id="graph0" class="graph" transform="scale(1 1) rotate(0) translate(4 650)">
<title>v8::internal::CoverageScript</title>
<!-- Node1 -->
<g id="Node000001" class="node">
<title>Node1</title>
<g id="a_Node000001"><a xlink:title=" ">
<polygon fill="#999999" stroke="none" points="1510,-362.5 1332,-362.5 1332,-310.5 1510,-310.5 1510,-362.5"/>
<text text-anchor="start" x="1337" y="-349" font-family="Cascadia Code NF" font-size="10.00">v8::internal::CoverageScript</text>
<text text-anchor="start" x="1418" y="-333" font-family="Cascadia Code NF" font-size="10.00"> </text>
<text text-anchor="start" x="1352" y="-317" font-family="Cascadia Code NF" font-size="10.00">+</text>
<text text-anchor="start" x="1378" y="-317" font-family="Cascadia Code NF" font-size="10.00">CoverageScript()</text>
<polygon fill="#666666" stroke="#666666" points="1332,-344.5 1332,-344.5 1510,-344.5 1510,-344.5 1332,-344.5"/>
<polygon fill="#666666" stroke="#666666" points="1332,-328.5 1332,-328.5 1510,-328.5 1510,-328.5 1332,-328.5"/>
<polygon fill="none" stroke="#666666" points="1332,-310.5 1332,-362.5 1510,-362.5 1510,-310.5 1332,-310.5"/>
</a>
</g>
</g>
<!-- Node2 -->
<g id="Node000002" class="node">
<title>Node2</title>
<g id="a_Node000002"><a xlink:href="../../d6/d22/classv8_1_1internal_1_1Handle.html" target="_top" xlink:title=" ">
<polygon fill="white" stroke="none" points="766,-257 612,-257 612,0 766,0 766,-257"/>
<text text-anchor="start" x="617" y="-243.5" font-family="Cascadia Code NF" font-size="10.00">v8::internal::Handle</text>
<text text-anchor="start" x="617" y="-230.75" font-family="Cascadia Code NF" font-size="10.00">&lt; v8::internal::Script &gt;</text>
<text text-anchor="start" x="686" y="-214.5" font-family="Cascadia Code NF" font-size="10.00"> </text>
<text text-anchor="start" x="632" y="-198.5" font-family="Cascadia Code NF" font-size="10.00">+</text>
<text text-anchor="start" x="658" y="-198.5" font-family="Cascadia Code NF" font-size="10.00">Handle()</text>
<text text-anchor="start" x="632" y="-182.5" font-family="Cascadia Code NF" font-size="10.00">+</text>
<text text-anchor="start" x="658" y="-182.5" font-family="Cascadia Code NF" font-size="10.00">Handle()</text>
<text text-anchor="start" x="632" y="-166.5" font-family="Cascadia Code NF" font-size="10.00">+</text>
<text text-anchor="start" x="658" y="-166.5" font-family="Cascadia Code NF" font-size="10.00">Handle()</text>
<text text-anchor="start" x="632" y="-150.5" font-family="Cascadia Code NF" font-size="10.00">+</text>
<text text-anchor="start" x="658" y="-150.5" font-family="Cascadia Code NF" font-size="10.00">Handle()</text>
<text text-anchor="start" x="632" y="-134.5" font-family="Cascadia Code NF" font-size="10.00">+</text>
<text text-anchor="start" x="658" y="-134.5" font-family="Cascadia Code NF" font-size="10.00">Handle()</text>
<text text-anchor="start" x="632" y="-118.5" font-family="Cascadia Code NF" font-size="10.00">+</text>
<text text-anchor="start" x="658" y="-118.5" font-family="Cascadia Code NF" font-size="10.00">Handle()</text>
<text text-anchor="start" x="632" y="-102.5" font-family="Cascadia Code NF" font-size="10.00">+</text>
<text text-anchor="start" x="658" y="-102.5" font-family="Cascadia Code NF" font-size="10.00">operator&#45;&gt;()</text>
<text text-anchor="start" x="632" y="-86.5" font-family="Cascadia Code NF" font-size="10.00">+</text>
<text text-anchor="start" x="658" y="-86.5" font-family="Cascadia Code NF" font-size="10.00">operator*()</text>
<text text-anchor="start" x="632" y="-70.5" font-family="Cascadia Code NF" font-size="10.00">+</text>
<text text-anchor="start" x="658" y="-70.5" font-family="Cascadia Code NF" font-size="10.00">equals()</text>
<text text-anchor="start" x="632" y="-54.5" font-family="Cascadia Code NF" font-size="10.00">+</text>
<text text-anchor="start" x="658" y="-54.5" font-family="Cascadia Code NF" font-size="10.00">PatchValue()</text>
<text text-anchor="start" x="632" y="-38.5" font-family="Cascadia Code NF" font-size="10.00">+</text>
<text text-anchor="start" x="658" y="-38.5" font-family="Cascadia Code NF" font-size="10.00">New()</text>
<text text-anchor="start" x="632" y="-22.5" font-family="Cascadia Code NF" font-size="10.00">+</text>
<text text-anchor="start" x="658" y="-22.5" font-family="Cascadia Code NF" font-size="10.00">cast()</text>
<text text-anchor="start" x="632" y="-6.5" font-family="Cascadia Code NF" font-size="10.00">+</text>
<text text-anchor="start" x="658" y="-6.5" font-family="Cascadia Code NF" font-size="10.00">null()</text>
<polygon fill="#bfbfbf" stroke="#bfbfbf" points="612,-226 612,-226 766,-226 766,-226 612,-226"/>
<polygon fill="#bfbfbf" stroke="#bfbfbf" points="612,-210 612,-210 766,-210 766,-210 612,-210"/>
<polygon fill="none" stroke="#bfbfbf" points="612,0 612,-257 766,-257 766,0 612,0"/>
</a>
</g>
</g>
<!-- Node2&#45;&gt;Node1 -->
<g id="edge1_Node000001_Node000002" class="edge">
<title>Node2&#45;&gt;Node1</title>
<g id="a_edge1_Node000001_Node000002"><a xlink:title=" ">
<path fill="none" stroke="#63b8ff" d="M765.71,-150.07C898.22,-187.83 1172.09,-265.86 1320.01,-308.01"/>
<polygon fill="none" stroke="#63b8ff" points="1319.77,-307.94 1326.64,-305.74 1331.31,-311.23 1324.44,-313.43 1319.77,-307.94"/>
</a>
</g>
<text text-anchor="middle" x="1022" y="-232.75" font-family="Cascadia Code NF" font-size="10.00" fill="grey"> +script</text>
</g>
<!-- Node3 -->
<g id="Node000003" class="node">
<title>Node3</title>
<g id="a_Node000003"><a xlink:href="../../d7/d65/classv8_1_1internal_1_1HandleBase.html" target="_top" xlink:title=" ">
<polygon fill="white" stroke="none" points="329,-227.5 175,-227.5 175,-47.5 329,-47.5 329,-227.5"/>
<text text-anchor="start" x="180" y="-214" font-family="Cascadia Code NF" font-size="10.00">v8::internal::HandleBase</text>
<text text-anchor="start" x="249" y="-198" font-family="Cascadia Code NF" font-size="10.00"> </text>
<text text-anchor="start" x="180" y="-182" font-family="Cascadia Code NF" font-size="10.00">+</text>
<text text-anchor="start" x="191" y="-182" font-family="Cascadia Code NF" font-size="10.00">is_identical_to()</text>
<text text-anchor="start" x="180" y="-166" font-family="Cascadia Code NF" font-size="10.00">+</text>
<text text-anchor="start" x="191" y="-166" font-family="Cascadia Code NF" font-size="10.00">is_null()</text>
<text text-anchor="start" x="180" y="-150" font-family="Cascadia Code NF" font-size="10.00">+</text>
<text text-anchor="start" x="191" y="-150" font-family="Cascadia Code NF" font-size="10.00">address()</text>
<text text-anchor="start" x="180" y="-134" font-family="Cascadia Code NF" font-size="10.00">+</text>
<text text-anchor="start" x="191" y="-134" font-family="Cascadia Code NF" font-size="10.00">location()</text>
<text text-anchor="start" x="180" y="-118" font-family="Cascadia Code NF" font-size="10.00">#</text>
<text text-anchor="start" x="191" y="-118" font-family="Cascadia Code NF" font-size="10.00">HandleBase()</text>
<text text-anchor="start" x="180" y="-102" font-family="Cascadia Code NF" font-size="10.00">#</text>
<text text-anchor="start" x="191" y="-102" font-family="Cascadia Code NF" font-size="10.00">HandleBase()</text>
<text text-anchor="start" x="180" y="-86" font-family="Cascadia Code NF" font-size="10.00">#</text>
<text text-anchor="start" x="191" y="-86" font-family="Cascadia Code NF" font-size="10.00">HandleBase()</text>
<text text-anchor="start" x="180" y="-70" font-family="Cascadia Code NF" font-size="10.00">#</text>
<text text-anchor="start" x="191" y="-70" font-family="Cascadia Code NF" font-size="10.00">HandleBase()</text>
<text text-anchor="start" x="180" y="-54" font-family="Cascadia Code NF" font-size="10.00">#</text>
<text text-anchor="start" x="191" y="-54" font-family="Cascadia Code NF" font-size="10.00">IsDereferenceAllowed()</text>
<polygon fill="#bfbfbf" stroke="#bfbfbf" points="175,-209.5 175,-209.5 329,-209.5 329,-209.5 175,-209.5"/>
<polygon fill="#bfbfbf" stroke="#bfbfbf" points="175,-193.5 175,-193.5 329,-193.5 329,-193.5 175,-193.5"/>
<polygon fill="none" stroke="#bfbfbf" points="175,-47.5 175,-227.5 329,-227.5 329,-47.5 175,-47.5"/>
</a>
</g>
</g>
<!-- Node3&#45;&gt;Node2 -->
<g id="edge2_Node000002_Node000003" class="edge">
<title>Node3&#45;&gt;Node2</title>
<g id="a_edge2_Node000002_Node000003"><a xlink:title=" ">
<path fill="none" stroke="#63b8ff" d="M340.1,-122.42C369.79,-117.97 403.25,-113.7 434,-111.5 504.93,-106.43 523.17,-105.15 594,-111.5 599.95,-112.03 606.08,-112.75 612.23,-113.6"/>
<polygon fill="none" stroke="#63b8ff" points="339.77,-118.93 330.41,-123.91 340.83,-125.85 339.77,-118.93"/>
</a>
</g>
</g>
<!-- Node9 -->
<g id="Node000009" class="node">
<title>Node9</title>
<g id="a_Node000009"><a xlink:href="../../d6/d22/classv8_1_1internal_1_1Handle.html" target="_top" xlink:title=" ">
<polygon fill="white" stroke="none" points="591,-378 437,-378 437,-121 591,-121 591,-378"/>
<text text-anchor="start" x="442" y="-364.5" font-family="Cascadia Code NF" font-size="10.00">v8::internal::Handle</text>
<text text-anchor="start" x="442" y="-351.75" font-family="Cascadia Code NF" font-size="10.00">&lt; v8::internal::String &gt;</text>
<text text-anchor="start" x="511" y="-335.5" font-family="Cascadia Code NF" font-size="10.00"> </text>
<text text-anchor="start" x="457" y="-319.5" font-family="Cascadia Code NF" font-size="10.00">+</text>
<text text-anchor="start" x="483" y="-319.5" font-family="Cascadia Code NF" font-size="10.00">Handle()</text>
<text text-anchor="start" x="457" y="-303.5" font-family="Cascadia Code NF" font-size="10.00">+</text>
<text text-anchor="start" x="483" y="-303.5" font-family="Cascadia Code NF" font-size="10.00">Handle()</text>
<text text-anchor="start" x="457" y="-287.5" font-family="Cascadia Code NF" font-size="10.00">+</text>
<text text-anchor="start" x="483" y="-287.5" font-family="Cascadia Code NF" font-size="10.00">Handle()</text>
<text text-anchor="start" x="457" y="-271.5" font-family="Cascadia Code NF" font-size="10.00">+</text>
<text text-anchor="start" x="483" y="-271.5" font-family="Cascadia Code NF" font-size="10.00">Handle()</text>
<text text-anchor="start" x="457" y="-255.5" font-family="Cascadia Code NF" font-size="10.00">+</text>
<text text-anchor="start" x="483" y="-255.5" font-family="Cascadia Code NF" font-size="10.00">Handle()</text>
<text text-anchor="start" x="457" y="-239.5" font-family="Cascadia Code NF" font-size="10.00">+</text>
<text text-anchor="start" x="483" y="-239.5" font-family="Cascadia Code NF" font-size="10.00">Handle()</text>
<text text-anchor="start" x="457" y="-223.5" font-family="Cascadia Code NF" font-size="10.00">+</text>
<text text-anchor="start" x="483" y="-223.5" font-family="Cascadia Code NF" font-size="10.00">operator&#45;&gt;()</text>
<text text-anchor="start" x="457" y="-207.5" font-family="Cascadia Code NF" font-size="10.00">+</text>
<text text-anchor="start" x="483" y="-207.5" font-family="Cascadia Code NF" font-size="10.00">operator*()</text>
<text text-anchor="start" x="457" y="-191.5" font-family="Cascadia Code NF" font-size="10.00">+</text>
<text text-anchor="start" x="483" y="-191.5" font-family="Cascadia Code NF" font-size="10.00">equals()</text>
<text text-anchor="start" x="457" y="-175.5" font-family="Cascadia Code NF" font-size="10.00">+</text>
<text text-anchor="start" x="483" y="-175.5" font-family="Cascadia Code NF" font-size="10.00">PatchValue()</text>
<text text-anchor="start" x="457" y="-159.5" font-family="Cascadia Code NF" font-size="10.00">+</text>
<text text-anchor="start" x="483" y="-159.5" font-family="Cascadia Code NF" font-size="10.00">New()</text>
<text text-anchor="start" x="457" y="-143.5" font-family="Cascadia Code NF" font-size="10.00">+</text>
<text text-anchor="start" x="483" y="-143.5" font-family="Cascadia Code NF" font-size="10.00">cast()</text>
<text text-anchor="start" x="457" y="-127.5" font-family="Cascadia Code NF" font-size="10.00">+</text>
<text text-anchor="start" x="483" y="-127.5" font-family="Cascadia Code NF" font-size="10.00">null()</text>
<polygon fill="#bfbfbf" stroke="#bfbfbf" points="437,-347 437,-347 591,-347 591,-347 437,-347"/>
<polygon fill="#bfbfbf" stroke="#bfbfbf" points="437,-331 437,-331 591,-331 591,-331 437,-331"/>
<polygon fill="none" stroke="#bfbfbf" points="437,-121 437,-378 591,-378 591,-121 437,-121"/>
</a>
</g>
</g>
<!-- Node3&#45;&gt;Node9 -->
<g id="edge9_Node000009_Node000003" class="edge">
<title>Node3&#45;&gt;Node9</title>
<g id="a_edge9_Node000009_Node000003"><a xlink:title=" ">
<path fill="none" stroke="#63b8ff" d="M339.44,-174.74C371,-188.33 406.43,-203.59 437,-216.76"/>
<polygon fill="none" stroke="#63b8ff" points="340.86,-171.54 330.29,-170.79 338.09,-177.97 340.86,-171.54"/>
</a>
</g>
</g>
<!-- Node4 -->
<g id="Node000004" class="node">
<title>Node4</title>
<g id="a_Node000004"><a xlink:href="../../d0/d60/classuintptr__t.html" target="_top" xlink:title=" ">
<polygon fill="white" stroke="none" points="64,-163.5 0,-163.5 0,-111.5 64,-111.5 64,-163.5"/>
<text text-anchor="start" x="5" y="-150" font-family="Cascadia Code NF" font-size="10.00">uintptr_t</text>
<text text-anchor="start" x="29" y="-134" font-family="Cascadia Code NF" font-size="10.00"> </text>
<text text-anchor="start" x="29" y="-118" font-family="Cascadia Code NF" font-size="10.00"> </text>
<polygon fill="#bfbfbf" stroke="#bfbfbf" points="0,-145.5 0,-145.5 64,-145.5 64,-145.5 0,-145.5"/>
<polygon fill="#bfbfbf" stroke="#bfbfbf" points="0,-129.5 0,-129.5 64,-129.5 64,-129.5 0,-129.5"/>
<polygon fill="none" stroke="#bfbfbf" points="0,-111.5 0,-163.5 64,-163.5 64,-111.5 0,-111.5"/>
</a>
</g>
</g>
<!-- Node4&#45;&gt;Node3 -->
<g id="edge3_Node000003_Node000004" class="edge">
<title>Node4&#45;&gt;Node3</title>
<g id="a_edge3_Node000003_Node000004"><a xlink:title=" ">
<path fill="none" stroke="#63b8ff" d="M63.77,-137.5C89.49,-137.5 127.48,-137.5 162.53,-137.5"/>
<polygon fill="none" stroke="#63b8ff" points="162.38,-137.5 168.38,-133.5 174.38,-137.5 168.38,-141.5 162.38,-137.5"/>
</a>
</g>
<text text-anchor="middle" x="115" y="-140.75" font-family="Cascadia Code NF" font-size="10.00" fill="grey"> #location_</text>
</g>
<!-- Node5 -->
<g id="Node000005" class="node">
<title>Node5</title>
<g id="a_Node000005"><a xlink:title=" ">
<polygon fill="white" stroke="none" points="1230,-418 1070,-418 1070,-353 1230,-353 1230,-418"/>
<text text-anchor="start" x="1075" y="-404.5" font-family="Cascadia Code NF" font-size="10.00">std::vector&lt; v8::internal</text>
<text text-anchor="start" x="1090" y="-391.75" font-family="Cascadia Code NF" font-size="10.00">::CoverageFunction &gt;</text>
<text text-anchor="start" x="1147" y="-375.5" font-family="Cascadia Code NF" font-size="10.00"> </text>
<text text-anchor="start" x="1147" y="-359.5" font-family="Cascadia Code NF" font-size="10.00"> </text>
<polygon fill="#666666" stroke="#666666" points="1070,-387 1070,-387 1230,-387 1230,-387 1070,-387"/>
<polygon fill="#666666" stroke="#666666" points="1070,-371 1070,-371 1230,-371 1230,-371 1070,-371"/>
<polygon fill="none" stroke="#666666" points="1070,-353 1070,-418 1230,-418 1230,-353 1070,-353"/>
</a>
</g>
</g>
<!-- Node5&#45;&gt;Node1 -->
<g id="edge4_Node000001_Node000005" class="edge">
<title>Node5&#45;&gt;Node1</title>
<g id="a_edge4_Node000001_Node000005"><a xlink:title=" ">
<path fill="none" stroke="#63b8ff" d="M1229.89,-371.13C1257.97,-366.01 1289.97,-360.18 1319.61,-354.79"/>
<polygon fill="none" stroke="#63b8ff" points="1319.46,-354.81 1324.64,-349.8 1331.26,-352.66 1326.08,-357.67 1319.46,-354.81"/>
</a>
</g>
<text text-anchor="middle" x="1281" y="-369.75" font-family="Cascadia Code NF" font-size="10.00" fill="grey"> +functions</text>
</g>
<!-- Node6 -->
<g id="Node000006" class="node">
<title>Node6</title>
<g id="a_Node000006"><a xlink:href="../../d1/ddc/structv8_1_1internal_1_1CoverageFunction.html" target="_top" xlink:title=" ">
<polygon fill="white" stroke="none" points="974,-491.5 784,-491.5 784,-407.5 974,-407.5 974,-491.5"/>
<text text-anchor="start" x="789" y="-478" font-family="Cascadia Code NF" font-size="10.00">v8::internal::CoverageFunction</text>
<text text-anchor="start" x="876" y="-462" font-family="Cascadia Code NF" font-size="10.00"> </text>
<text text-anchor="start" x="795" y="-446" font-family="Cascadia Code NF" font-size="10.00">+</text>
<text text-anchor="start" x="812" y="-446" font-family="Cascadia Code NF" font-size="10.00">CoverageFunction()</text>
<text text-anchor="start" x="795" y="-430" font-family="Cascadia Code NF" font-size="10.00">+</text>
<text text-anchor="start" x="812" y="-430" font-family="Cascadia Code NF" font-size="10.00">HasNonEmptySourceRange()</text>
<text text-anchor="start" x="795" y="-414" font-family="Cascadia Code NF" font-size="10.00">+</text>
<text text-anchor="start" x="812" y="-414" font-family="Cascadia Code NF" font-size="10.00">HasBlocks()</text>
<polygon fill="#bfbfbf" stroke="#bfbfbf" points="784,-473.5 784,-473.5 974,-473.5 974,-473.5 784,-473.5"/>
<polygon fill="#bfbfbf" stroke="#bfbfbf" points="784,-457.5 784,-457.5 974,-457.5 974,-457.5 784,-457.5"/>
<polygon fill="none" stroke="#bfbfbf" points="784,-407.5 784,-491.5 974,-491.5 974,-407.5 784,-407.5"/>
</a>
</g>
</g>
<!-- Node6&#45;&gt;Node5 -->
<g id="edge5_Node000005_Node000006" class="edge">
<title>Node6&#45;&gt;Node5</title>
<g id="a_edge5_Node000005_Node000006"><a xlink:title=" ">
<path fill="none" stroke="#63b8ff" d="M973.71,-427.21C1000.93,-420.73 1030.62,-413.66 1057.7,-407.22"/>
<polygon fill="none" stroke="#63b8ff" points="1057.8,-407.2 1062.71,-401.92 1069.47,-404.42 1064.56,-409.7 1057.8,-407.2"/>
</a>
</g>
<text text-anchor="middle" x="1022" y="-423.75" font-family="Cascadia Code NF" font-size="10.00" fill="grey"> +elements</text>
</g>
<!-- Node7 -->
<g id="Node000007" class="node">
<title>Node7</title>
<g id="a_Node000007"><a xlink:href="../../d1/da0/classint.html" target="_top" xlink:title=" ">
<polygon fill="white" stroke="none" points="46,-618.5 18,-618.5 18,-566.5 46,-566.5 46,-618.5"/>
<text text-anchor="start" x="23" y="-605" font-family="Cascadia Code NF" font-size="10.00">int</text>
<text text-anchor="start" x="29" y="-589" font-family="Cascadia Code NF" font-size="10.00"> </text>
<text text-anchor="start" x="29" y="-573" font-family="Cascadia Code NF" font-size="10.00"> </text>
<polygon fill="#bfbfbf" stroke="#bfbfbf" points="18,-600.5 18,-600.5 46,-600.5 46,-600.5 18,-600.5"/>
<polygon fill="#bfbfbf" stroke="#bfbfbf" points="18,-584.5 18,-584.5 46,-584.5 46,-584.5 18,-584.5"/>
<polygon fill="none" stroke="#bfbfbf" points="18,-566.5 18,-618.5 46,-618.5 46,-566.5 18,-566.5"/>
</a>
</g>
</g>
<!-- Node7&#45;&gt;Node6 -->
<g id="edge6_Node000006_Node000007" class="edge">
<title>Node7&#45;&gt;Node6</title>
<g id="a_edge6_Node000006_Node000007"><a xlink:title=" ">
<path fill="none" stroke="#63b8ff" d="M45.99,-594.97C120.8,-608.5 502.46,-668.58 766,-539.5 787.08,-529.18 807.79,-514.29 825.55,-499.58"/>
<polygon fill="none" stroke="#63b8ff" points="825.28,-499.82 827.26,-492.88 834.42,-492.04 832.44,-498.98 825.28,-499.82"/>
</a>
</g>
<text text-anchor="middle" x="386" y="-636.5" font-family="Cascadia Code NF" font-size="10.00" fill="grey"> +end</text>
<text text-anchor="middle" x="386" y="-623.75" font-family="Cascadia Code NF" font-size="10.00" fill="grey">+start</text>
</g>
<!-- Node11 -->
<g id="Node000011" class="node">
<title>Node11</title>
<g id="a_Node000011"><a xlink:href="../../d3/d09/structv8_1_1internal_1_1CoverageBlock.html" target="_top" xlink:title=" ">
<polygon fill="white" stroke="none" points="338,-572.5 166,-572.5 166,-504.5 338,-504.5 338,-572.5"/>
<text text-anchor="start" x="171" y="-559" font-family="Cascadia Code NF" font-size="10.00">v8::internal::CoverageBlock</text>
<text text-anchor="start" x="249" y="-543" font-family="Cascadia Code NF" font-size="10.00"> </text>
<text text-anchor="start" x="186" y="-527" font-family="Cascadia Code NF" font-size="10.00">+</text>
<text text-anchor="start" x="212" y="-527" font-family="Cascadia Code NF" font-size="10.00">CoverageBlock()</text>
<text text-anchor="start" x="186" y="-511" font-family="Cascadia Code NF" font-size="10.00">+</text>
<text text-anchor="start" x="212" y="-511" font-family="Cascadia Code NF" font-size="10.00">CoverageBlock()</text>
<polygon fill="#bfbfbf" stroke="#bfbfbf" points="166,-554.5 166,-554.5 338,-554.5 338,-554.5 166,-554.5"/>
<polygon fill="#bfbfbf" stroke="#bfbfbf" points="166,-538.5 166,-538.5 338,-538.5 338,-538.5 166,-538.5"/>
<polygon fill="none" stroke="#bfbfbf" points="166,-504.5 166,-572.5 338,-572.5 338,-504.5 166,-504.5"/>
</a>
</g>
</g>
<!-- Node7&#45;&gt;Node11 -->
<g id="edge12_Node000011_Node000007" class="edge">
<title>Node7&#45;&gt;Node11</title>
<g id="a_edge12_Node000011_Node000007"><a xlink:title=" ">
<path fill="none" stroke="#63b8ff" d="M45.88,-581.96C55.3,-574.84 68.71,-565.88 82,-561 104.49,-552.74 129.66,-547.46 153.56,-544.09"/>
<polygon fill="none" stroke="#63b8ff" points="153.5,-544.1 158.95,-539.37 165.41,-542.57 159.96,-547.3 153.5,-544.1"/>
</a>
</g>
<text text-anchor="middle" x="115" y="-576.5" font-family="Cascadia Code NF" font-size="10.00" fill="grey"> +end</text>
<text text-anchor="middle" x="115" y="-563.75" font-family="Cascadia Code NF" font-size="10.00" fill="grey">+start</text>
</g>
<!-- Node8 -->
<g id="Node000008" class="node">
<title>Node8</title>
<g id="a_Node000008"><a xlink:href="../../d3/d87/classuint32__t.html" target="_top" xlink:title=" ">
<polygon fill="white" stroke="none" points="61,-521.5 3,-521.5 3,-469.5 61,-469.5 61,-521.5"/>
<text text-anchor="start" x="8" y="-508" font-family="Cascadia Code NF" font-size="10.00">uint32_t</text>
<text text-anchor="start" x="29" y="-492" font-family="Cascadia Code NF" font-size="10.00"> </text>
<text text-anchor="start" x="29" y="-476" font-family="Cascadia Code NF" font-size="10.00"> </text>
<polygon fill="#bfbfbf" stroke="#bfbfbf" points="3,-503.5 3,-503.5 61,-503.5 61,-503.5 3,-503.5"/>
<polygon fill="#bfbfbf" stroke="#bfbfbf" points="3,-487.5 3,-487.5 61,-487.5 61,-487.5 3,-487.5"/>
<polygon fill="none" stroke="#bfbfbf" points="3,-469.5 3,-521.5 61,-521.5 61,-469.5 3,-469.5"/>
</a>
</g>
</g>
<!-- Node8&#45;&gt;Node6 -->
<g id="edge7_Node000006_Node000008" class="edge">
<title>Node8&#45;&gt;Node6</title>
<g id="a_edge7_Node000006_Node000008"><a xlink:title=" ">
<path fill="none" stroke="#63b8ff" d="M60.97,-494.25C158.32,-489.84 491.28,-474.43 766,-457.5 767.76,-457.39 769.54,-457.28 771.33,-457.17"/>
<polygon fill="none" stroke="#63b8ff" points="771.33,-457.17 777.06,-452.79 783.3,-456.39 777.58,-460.77 771.33,-457.17"/>
</a>
</g>
<text text-anchor="middle" x="386" y="-482.75" font-family="Cascadia Code NF" font-size="10.00" fill="grey"> +count</text>
</g>
<!-- Node8&#45;&gt;Node11 -->
<g id="edge13_Node000011_Node000008" class="edge">
<title>Node8&#45;&gt;Node11</title>
<g id="a_edge13_Node000011_Node000008"><a xlink:title=" ">
<path fill="none" stroke="#63b8ff" d="M60.61,-500.95C84.28,-505.62 119.86,-512.63 153.87,-519.34"/>
<polygon fill="none" stroke="#63b8ff" points="153.65,-519.3 160.31,-516.53 165.42,-521.62 158.76,-524.38 153.65,-519.3"/>
</a>
</g>
<text text-anchor="middle" x="115" y="-519.75" font-family="Cascadia Code NF" font-size="10.00" fill="grey"> +count</text>
</g>
<!-- Node9&#45;&gt;Node6 -->
<g id="edge8_Node000006_Node000009" class="edge">
<title>Node9&#45;&gt;Node6</title>
<g id="a_edge8_Node000006_Node000009"><a xlink:title=" ">
<path fill="none" stroke="#63b8ff" d="M590.65,-291.18C648.95,-323.3 729.63,-367.75 790.66,-401.38"/>
<polygon fill="none" stroke="#63b8ff" points="790.52,-401.3 797.7,-400.69 801.03,-407.09 793.84,-407.7 790.52,-401.3"/>
</a>
</g>
<text text-anchor="middle" x="689" y="-387.75" font-family="Cascadia Code NF" font-size="10.00" fill="grey"> +name</text>
</g>
<!-- Node10 -->
<g id="Node000010" class="node">
<title>Node10</title>
<g id="a_Node000010"><a xlink:title=" ">
<polygon fill="white" stroke="none" points="594,-571 434,-571 434,-506 594,-506 594,-571"/>
<text text-anchor="start" x="439" y="-557.5" font-family="Cascadia Code NF" font-size="10.00">std::vector&lt; v8::internal</text>
<text text-anchor="start" x="463" y="-544.75" font-family="Cascadia Code NF" font-size="10.00">::CoverageBlock &gt;</text>
<text text-anchor="start" x="511" y="-528.5" font-family="Cascadia Code NF" font-size="10.00"> </text>
<text text-anchor="start" x="511" y="-512.5" font-family="Cascadia Code NF" font-size="10.00"> </text>
<polygon fill="#666666" stroke="#666666" points="434,-540 434,-540 594,-540 594,-540 434,-540"/>
<polygon fill="#666666" stroke="#666666" points="434,-524 434,-524 594,-524 594,-524 434,-524"/>
<polygon fill="none" stroke="#666666" points="434,-506 434,-571 594,-571 594,-506 434,-506"/>
</a>
</g>
</g>
<!-- Node10&#45;&gt;Node6 -->
<g id="edge10_Node000006_Node000010" class="edge">
<title>Node10&#45;&gt;Node6</title>
<g id="a_edge10_Node000006_Node000010"><a xlink:title=" ">
<path fill="none" stroke="#63b8ff" d="M593.76,-526.8C643.6,-518.58 709.13,-506.24 766,-490.5 767.96,-489.96 769.94,-489.39 771.93,-488.82"/>
<polygon fill="none" stroke="#63b8ff" points="771.91,-488.82 776.49,-483.25 783.39,-485.33 778.81,-490.9 771.91,-488.82"/>
</a>
</g>
<text text-anchor="middle" x="689" y="-525.75" font-family="Cascadia Code NF" font-size="10.00" fill="grey"> +blocks</text>
</g>
<!-- Node11&#45;&gt;Node10 -->
<g id="edge11_Node000010_Node000011" class="edge">
<title>Node11&#45;&gt;Node10</title>
<g id="a_edge11_Node000010_Node000011"><a xlink:title=" ">
<path fill="none" stroke="#63b8ff" d="M337.77,-538.5C364.51,-538.5 394.16,-538.5 421.36,-538.5"/>
<polygon fill="none" stroke="#63b8ff" points="421.17,-538.5 427.17,-534.5 433.17,-538.5 427.17,-542.5 421.17,-538.5"/>
</a>
</g>
<text text-anchor="middle" x="386" y="-541.75" font-family="Cascadia Code NF" font-size="10.00" fill="grey"> +elements</text>
</g>
<!-- Node12 -->
<g id="Node000012" class="node">
<title>Node12</title>
<g id="a_Node000012"><a xlink:title=" ">
<polygon fill="white" stroke="none" points="531,-448.5 497,-448.5 497,-396.5 531,-396.5 531,-448.5"/>
<text text-anchor="start" x="502" y="-435" font-family="Cascadia Code NF" font-size="10.00">bool</text>
<text text-anchor="start" x="511" y="-419" font-family="Cascadia Code NF" font-size="10.00"> </text>
<text text-anchor="start" x="511" y="-403" font-family="Cascadia Code NF" font-size="10.00"> </text>
<polygon fill="#bfbfbf" stroke="#bfbfbf" points="497,-430.5 497,-430.5 531,-430.5 531,-430.5 497,-430.5"/>
<polygon fill="#bfbfbf" stroke="#bfbfbf" points="497,-414.5 497,-414.5 531,-414.5 531,-414.5 497,-414.5"/>
<polygon fill="none" stroke="#bfbfbf" points="497,-396.5 497,-448.5 531,-448.5 531,-396.5 497,-396.5"/>
</a>
</g>
</g>
<!-- Node12&#45;&gt;Node6 -->
<g id="edge14_Node000006_Node000012" class="edge">
<title>Node12&#45;&gt;Node6</title>
<g id="a_edge14_Node000006_Node000012"><a xlink:title=" ">
<path fill="none" stroke="#63b8ff" d="M530.6,-423.66C571.62,-426.71 685.31,-435.17 771.56,-441.58"/>
<polygon fill="none" stroke="#63b8ff" points="771.48,-441.58 777.76,-438.03 783.44,-442.47 777.16,-446.01 771.48,-441.58"/>
</a>
</g>
<text text-anchor="middle" x="689" y="-443.75" font-family="Cascadia Code NF" font-size="10.00" fill="grey"> +has_block_coverage</text>
</g>
</g>
</svg>
