<?xml version="1.0" encoding="UTF-8" standalone="no"?>
<!DOCTYPE svg PUBLIC "-//W3C//DTD SVG 1.1//EN"
 "http://www.w3.org/Graphics/SVG/1.1/DTD/svg11.dtd">
<!-- Generated by graphviz version 11.0.0 (20240428.1522)
 -->
<!-- Title: ExportedSubClass Pages: 1 -->
<svg width="834pt" height="493pt"
 viewBox="0.00 0.00 834.00 493.00" xmlns="http://www.w3.org/2000/svg" xmlns:xlink="http://www.w3.org/1999/xlink">
<g id="graph0" class="graph" transform="scale(1 1) rotate(0) translate(4 489)">
<title>ExportedSubClass</title>
<!-- Node1 -->
<g id="Node000001" class="node">
<title>Node1</title>
<g id="a_Node000001"><a xlink:title=" ">
<polygon fill="#999999" stroke="none" points="826,-268.5 720,-268.5 720,-216.5 826,-216.5 826,-268.5"/>
<text text-anchor="start" x="725" y="-255" font-family="Cascadia Code NF" font-size="10.00">ExportedSubClass</text>
<text text-anchor="start" x="770" y="-239" font-family="Cascadia Code NF" font-size="10.00"> </text>
<text text-anchor="start" x="770" y="-223" font-family="Cascadia Code NF" font-size="10.00"> </text>
<polygon fill="#666666" stroke="#666666" points="720,-250.5 720,-250.5 826,-250.5 826,-250.5 720,-250.5"/>
<polygon fill="#666666" stroke="#666666" points="720,-234.5 720,-234.5 826,-234.5 826,-234.5 720,-234.5"/>
<polygon fill="none" stroke="#666666" points="720,-216.5 720,-268.5 826,-268.5 826,-216.5 720,-216.5"/>
</a>
</g>
</g>
<!-- Node2 -->
<g id="Node000002" class="node">
<title>Node2</title>
<g id="a_Node000002"><a xlink:href="../../d4/d97/classTorqueGeneratedExportedSubClass.html" target="_top" xlink:title=" ">
<polygon fill="white" stroke="none" points="684,-485 510,-485 510,0 684,0 684,-485"/>
<text text-anchor="start" x="519" y="-471.5" font-family="Cascadia Code NF" font-size="10.00">TorqueGeneratedExportedSub</text>
<text text-anchor="start" x="519" y="-458.75" font-family="Cascadia Code NF" font-size="10.00">Class&lt; ExportedSubClass,</text>
<text text-anchor="start" x="528" y="-446" font-family="Cascadia Code NF" font-size="10.00"> ExportedSubClassBase &gt;</text>
<text text-anchor="start" x="514" y="-429.5" font-family="Cascadia Code NF" font-size="10.00">+</text>
<text text-anchor="start" x="524" y="-429.5" font-family="Cascadia Code NF" font-size="10.00">kCFieldOffset</text>
<text text-anchor="start" x="514" y="-413.5" font-family="Cascadia Code NF" font-size="10.00">+</text>
<text text-anchor="start" x="524" y="-413.5" font-family="Cascadia Code NF" font-size="10.00">kCFieldOffsetEnd</text>
<text text-anchor="start" x="514" y="-397.5" font-family="Cascadia Code NF" font-size="10.00">+</text>
<text text-anchor="start" x="524" y="-397.5" font-family="Cascadia Code NF" font-size="10.00">kDFieldOffset</text>
<text text-anchor="start" x="514" y="-381.5" font-family="Cascadia Code NF" font-size="10.00">+</text>
<text text-anchor="start" x="524" y="-381.5" font-family="Cascadia Code NF" font-size="10.00">kDFieldOffsetEnd</text>
<text text-anchor="start" x="514" y="-365.5" font-family="Cascadia Code NF" font-size="10.00">+</text>
<text text-anchor="start" x="524" y="-365.5" font-family="Cascadia Code NF" font-size="10.00">kStartOfStrongFieldsOffset</text>
<text text-anchor="start" x="514" y="-349.5" font-family="Cascadia Code NF" font-size="10.00">+</text>
<text text-anchor="start" x="524" y="-349.5" font-family="Cascadia Code NF" font-size="10.00">kEFieldOffset</text>
<text text-anchor="start" x="514" y="-333.5" font-family="Cascadia Code NF" font-size="10.00">+</text>
<text text-anchor="start" x="524" y="-333.5" font-family="Cascadia Code NF" font-size="10.00">kEFieldOffsetEnd</text>
<text text-anchor="start" x="514" y="-317.5" font-family="Cascadia Code NF" font-size="10.00">+</text>
<text text-anchor="start" x="524" y="-317.5" font-family="Cascadia Code NF" font-size="10.00">kEndOfStrongFieldsOffset</text>
<text text-anchor="start" x="514" y="-301.5" font-family="Cascadia Code NF" font-size="10.00">+</text>
<text text-anchor="start" x="524" y="-301.5" font-family="Cascadia Code NF" font-size="10.00">kStartOfWeakFieldsOffset</text>
<text text-anchor="start" x="514" y="-285.5" font-family="Cascadia Code NF" font-size="10.00">+</text>
<text text-anchor="start" x="524" y="-285.5" font-family="Cascadia Code NF" font-size="10.00">kEndOfWeakFieldsOffset</text>
<text text-anchor="start" x="514" y="-269.5" font-family="Cascadia Code NF" font-size="10.00">+</text>
<text text-anchor="start" x="524" y="-269.5" font-family="Cascadia Code NF" font-size="10.00">kHeaderSize</text>
<text text-anchor="start" x="514" y="-253.5" font-family="Cascadia Code NF" font-size="10.00">+</text>
<text text-anchor="start" x="524" y="-253.5" font-family="Cascadia Code NF" font-size="10.00">kSize</text>
<text text-anchor="start" x="514" y="-237.5" font-family="Cascadia Code NF" font-size="10.00">+</text>
<text text-anchor="start" x="524" y="-237.5" font-family="Cascadia Code NF" font-size="10.00">c_field()</text>
<text text-anchor="start" x="514" y="-221.5" font-family="Cascadia Code NF" font-size="10.00">+</text>
<text text-anchor="start" x="524" y="-221.5" font-family="Cascadia Code NF" font-size="10.00">set_c_field()</text>
<text text-anchor="start" x="514" y="-205.5" font-family="Cascadia Code NF" font-size="10.00">+</text>
<text text-anchor="start" x="524" y="-205.5" font-family="Cascadia Code NF" font-size="10.00">d_field()</text>
<text text-anchor="start" x="514" y="-189.5" font-family="Cascadia Code NF" font-size="10.00">+</text>
<text text-anchor="start" x="524" y="-189.5" font-family="Cascadia Code NF" font-size="10.00">set_d_field()</text>
<text text-anchor="start" x="514" y="-173.5" font-family="Cascadia Code NF" font-size="10.00">+</text>
<text text-anchor="start" x="524" y="-173.5" font-family="Cascadia Code NF" font-size="10.00">e_field()</text>
<text text-anchor="start" x="514" y="-157.5" font-family="Cascadia Code NF" font-size="10.00">+</text>
<text text-anchor="start" x="524" y="-157.5" font-family="Cascadia Code NF" font-size="10.00">set_e_field()</text>
<text text-anchor="start" x="514" y="-141.5" font-family="Cascadia Code NF" font-size="10.00">+</text>
<text text-anchor="start" x="524" y="-141.5" font-family="Cascadia Code NF" font-size="10.00">AllocatedSize()</text>
<text text-anchor="start" x="514" y="-125.5" font-family="Cascadia Code NF" font-size="10.00">+</text>
<text text-anchor="start" x="524" y="-125.5" font-family="Cascadia Code NF" font-size="10.00">TorqueGeneratedExportedSub</text>
<text text-anchor="start" x="524" y="-112.75" font-family="Cascadia Code NF" font-size="10.00">Class()</text>
<text text-anchor="start" x="514" y="-96.5" font-family="Cascadia Code NF" font-size="10.00">+</text>
<text text-anchor="start" x="524" y="-96.5" font-family="Cascadia Code NF" font-size="10.00">cast()</text>
<text text-anchor="start" x="514" y="-80.5" font-family="Cascadia Code NF" font-size="10.00">+</text>
<text text-anchor="start" x="524" y="-80.5" font-family="Cascadia Code NF" font-size="10.00">unchecked_cast()</text>
<text text-anchor="start" x="514" y="-64.5" font-family="Cascadia Code NF" font-size="10.00">+</text>
<text text-anchor="start" x="524" y="-64.5" font-family="Cascadia Code NF" font-size="10.00">SizeFor()</text>
<text text-anchor="start" x="514" y="-48.5" font-family="Cascadia Code NF" font-size="10.00">#</text>
<text text-anchor="start" x="524" y="-48.5" font-family="Cascadia Code NF" font-size="10.00">TorqueGeneratedExportedSub</text>
<text text-anchor="start" x="524" y="-35.75" font-family="Cascadia Code NF" font-size="10.00">Class()</text>
<text text-anchor="start" x="514" y="-19.5" font-family="Cascadia Code NF" font-size="10.00">#</text>
<text text-anchor="start" x="524" y="-19.5" font-family="Cascadia Code NF" font-size="10.00">TorqueGeneratedExportedSub</text>
<text text-anchor="start" x="524" y="-6.75" font-family="Cascadia Code NF" font-size="10.00">Class()</text>
<polygon fill="#bfbfbf" stroke="#bfbfbf" points="510,-441 510,-441 684,-441 684,-441 510,-441"/>
<polygon fill="#bfbfbf" stroke="#bfbfbf" points="510,-249 510,-249 522,-249 522,-249 510,-249"/>
<polygon fill="#bfbfbf" stroke="#bfbfbf" points="522,-249 522,-249 684,-249 684,-249 522,-249"/>
<polygon fill="none" stroke="#bfbfbf" points="510,0 510,-485 684,-485 684,0 510,0"/>
</a>
</g>
</g>
<!-- Node2&#45;&gt;Node1 -->
<g id="edge1_Node000001_Node000002" class="edge">
<title>Node2&#45;&gt;Node1</title>
<g id="a_edge1_Node000001_Node000002"><a xlink:title=" ">
<path fill="none" stroke="#63b8ff" d="M695.23,-242.5C703.75,-242.5 712.14,-242.5 720.06,-242.5"/>
<polygon fill="none" stroke="#63b8ff" points="695.49,-239 685.49,-242.5 695.49,-246 695.49,-239"/>
</a>
</g>
</g>
<!-- Node3 -->
<g id="Node000003" class="node">
<title>Node3</title>
<g id="a_Node000003"><a xlink:href="../../d3/d18/classExportedSubClassBase.html" target="_top" xlink:title=" ">
<polygon fill="white" stroke="none" points="474,-268.5 344,-268.5 344,-216.5 474,-216.5 474,-268.5"/>
<text text-anchor="start" x="349" y="-255" font-family="Cascadia Code NF" font-size="10.00">ExportedSubClassBase</text>
<text text-anchor="start" x="406" y="-239" font-family="Cascadia Code NF" font-size="10.00"> </text>
<text text-anchor="start" x="406" y="-223" font-family="Cascadia Code NF" font-size="10.00"> </text>
<polygon fill="#bfbfbf" stroke="#bfbfbf" points="344,-250.5 344,-250.5 474,-250.5 474,-250.5 344,-250.5"/>
<polygon fill="#bfbfbf" stroke="#bfbfbf" points="344,-234.5 344,-234.5 474,-234.5 474,-234.5 344,-234.5"/>
<polygon fill="none" stroke="#bfbfbf" points="344,-216.5 344,-268.5 474,-268.5 474,-216.5 344,-216.5"/>
</a>
</g>
</g>
<!-- Node3&#45;&gt;Node2 -->
<g id="edge2_Node000002_Node000003" class="edge">
<title>Node3&#45;&gt;Node2</title>
<g id="a_edge2_Node000002_Node000003"><a xlink:title=" ">
<path fill="none" stroke="#63b8ff" d="M485.25,-242.5C493.5,-242.5 501.94,-242.5 510.31,-242.5"/>
<polygon fill="none" stroke="#63b8ff" points="485.26,-239 475.26,-242.5 485.26,-246 485.26,-239"/>
</a>
</g>
</g>
<!-- Node4 -->
<g id="Node000004" class="node">
<title>Node4</title>
<g id="a_Node000004"><a xlink:href="../../d0/d4d/classTorqueGeneratedExportedSubClassBase.html" target="_top" xlink:title=" ">
<polygon fill="white" stroke="none" points="308,-469 106,-469 106,-16 308,-16 308,-469"/>
<text text-anchor="start" x="111" y="-455.5" font-family="Cascadia Code NF" font-size="10.00">TorqueGeneratedExportedSub</text>
<text text-anchor="start" x="111" y="-442.75" font-family="Cascadia Code NF" font-size="10.00">ClassBase&lt; ExportedSubClassBase,</text>
<text text-anchor="start" x="168" y="-430" font-family="Cascadia Code NF" font-size="10.00"> HeapObject &gt;</text>
<text text-anchor="start" x="117" y="-413.5" font-family="Cascadia Code NF" font-size="10.00">+</text>
<text text-anchor="start" x="134" y="-413.5" font-family="Cascadia Code NF" font-size="10.00">kStartOfStrongFieldsOffset</text>
<text text-anchor="start" x="117" y="-397.5" font-family="Cascadia Code NF" font-size="10.00">+</text>
<text text-anchor="start" x="134" y="-397.5" font-family="Cascadia Code NF" font-size="10.00">kAOffset</text>
<text text-anchor="start" x="117" y="-381.5" font-family="Cascadia Code NF" font-size="10.00">+</text>
<text text-anchor="start" x="134" y="-381.5" font-family="Cascadia Code NF" font-size="10.00">kAOffsetEnd</text>
<text text-anchor="start" x="117" y="-365.5" font-family="Cascadia Code NF" font-size="10.00">+</text>
<text text-anchor="start" x="134" y="-365.5" font-family="Cascadia Code NF" font-size="10.00">kBOffset</text>
<text text-anchor="start" x="117" y="-349.5" font-family="Cascadia Code NF" font-size="10.00">+</text>
<text text-anchor="start" x="134" y="-349.5" font-family="Cascadia Code NF" font-size="10.00">kBOffsetEnd</text>
<text text-anchor="start" x="117" y="-333.5" font-family="Cascadia Code NF" font-size="10.00">+</text>
<text text-anchor="start" x="134" y="-333.5" font-family="Cascadia Code NF" font-size="10.00">kEndOfStrongFieldsOffset</text>
<text text-anchor="start" x="117" y="-317.5" font-family="Cascadia Code NF" font-size="10.00">+</text>
<text text-anchor="start" x="134" y="-317.5" font-family="Cascadia Code NF" font-size="10.00">kStartOfWeakFieldsOffset</text>
<text text-anchor="start" x="117" y="-301.5" font-family="Cascadia Code NF" font-size="10.00">+</text>
<text text-anchor="start" x="134" y="-301.5" font-family="Cascadia Code NF" font-size="10.00">kEndOfWeakFieldsOffset</text>
<text text-anchor="start" x="117" y="-285.5" font-family="Cascadia Code NF" font-size="10.00">+</text>
<text text-anchor="start" x="134" y="-285.5" font-family="Cascadia Code NF" font-size="10.00">kHeaderSize</text>
<text text-anchor="start" x="117" y="-269.5" font-family="Cascadia Code NF" font-size="10.00">+</text>
<text text-anchor="start" x="134" y="-269.5" font-family="Cascadia Code NF" font-size="10.00">kSize</text>
<text text-anchor="start" x="117" y="-253.5" font-family="Cascadia Code NF" font-size="10.00">+</text>
<text text-anchor="start" x="134" y="-253.5" font-family="Cascadia Code NF" font-size="10.00">a()</text>
<text text-anchor="start" x="117" y="-237.5" font-family="Cascadia Code NF" font-size="10.00">+</text>
<text text-anchor="start" x="134" y="-237.5" font-family="Cascadia Code NF" font-size="10.00">a()</text>
<text text-anchor="start" x="117" y="-221.5" font-family="Cascadia Code NF" font-size="10.00">+</text>
<text text-anchor="start" x="134" y="-221.5" font-family="Cascadia Code NF" font-size="10.00">set_a()</text>
<text text-anchor="start" x="117" y="-205.5" font-family="Cascadia Code NF" font-size="10.00">+</text>
<text text-anchor="start" x="134" y="-205.5" font-family="Cascadia Code NF" font-size="10.00">b()</text>
<text text-anchor="start" x="117" y="-189.5" font-family="Cascadia Code NF" font-size="10.00">+</text>
<text text-anchor="start" x="134" y="-189.5" font-family="Cascadia Code NF" font-size="10.00">b()</text>
<text text-anchor="start" x="117" y="-173.5" font-family="Cascadia Code NF" font-size="10.00">+</text>
<text text-anchor="start" x="134" y="-173.5" font-family="Cascadia Code NF" font-size="10.00">set_b()</text>
<text text-anchor="start" x="117" y="-157.5" font-family="Cascadia Code NF" font-size="10.00">+</text>
<text text-anchor="start" x="134" y="-157.5" font-family="Cascadia Code NF" font-size="10.00">AllocatedSize()</text>
<text text-anchor="start" x="117" y="-141.5" font-family="Cascadia Code NF" font-size="10.00">+</text>
<text text-anchor="start" x="134" y="-141.5" font-family="Cascadia Code NF" font-size="10.00">TorqueGeneratedExportedSub</text>
<text text-anchor="start" x="134" y="-128.75" font-family="Cascadia Code NF" font-size="10.00">ClassBase()</text>
<text text-anchor="start" x="117" y="-112.5" font-family="Cascadia Code NF" font-size="10.00">+</text>
<text text-anchor="start" x="134" y="-112.5" font-family="Cascadia Code NF" font-size="10.00">cast()</text>
<text text-anchor="start" x="117" y="-96.5" font-family="Cascadia Code NF" font-size="10.00">+</text>
<text text-anchor="start" x="134" y="-96.5" font-family="Cascadia Code NF" font-size="10.00">unchecked_cast()</text>
<text text-anchor="start" x="117" y="-80.5" font-family="Cascadia Code NF" font-size="10.00">+</text>
<text text-anchor="start" x="134" y="-80.5" font-family="Cascadia Code NF" font-size="10.00">SizeFor()</text>
<text text-anchor="start" x="117" y="-64.5" font-family="Cascadia Code NF" font-size="10.00">#</text>
<text text-anchor="start" x="134" y="-64.5" font-family="Cascadia Code NF" font-size="10.00">TorqueGeneratedExportedSub</text>
<text text-anchor="start" x="134" y="-51.75" font-family="Cascadia Code NF" font-size="10.00">ClassBase()</text>
<text text-anchor="start" x="117" y="-35.5" font-family="Cascadia Code NF" font-size="10.00">#</text>
<text text-anchor="start" x="134" y="-35.5" font-family="Cascadia Code NF" font-size="10.00">TorqueGeneratedExportedSub</text>
<text text-anchor="start" x="134" y="-22.75" font-family="Cascadia Code NF" font-size="10.00">ClassBase()</text>
<polygon fill="#bfbfbf" stroke="#bfbfbf" points="106,-425 106,-425 308,-425 308,-425 106,-425"/>
<polygon fill="#bfbfbf" stroke="#bfbfbf" points="106,-265 106,-265 132,-265 132,-265 106,-265"/>
<polygon fill="#bfbfbf" stroke="#bfbfbf" points="132,-265 132,-265 308,-265 308,-265 132,-265"/>
<polygon fill="none" stroke="#bfbfbf" points="106,-16 106,-469 308,-469 308,-16 106,-16"/>
</a>
</g>
</g>
<!-- Node4&#45;&gt;Node3 -->
<g id="edge3_Node000003_Node000004" class="edge">
<title>Node4&#45;&gt;Node3</title>
<g id="a_edge3_Node000003_Node000004"><a xlink:title=" ">
<path fill="none" stroke="#63b8ff" d="M319.51,-242.5C327.92,-242.5 336.22,-242.5 344.17,-242.5"/>
<polygon fill="none" stroke="#63b8ff" points="319.51,-239 309.51,-242.5 319.51,-246 319.51,-239"/>
</a>
</g>
</g>
<!-- Node5 -->
<g id="Node000005" class="node">
<title>Node5</title>
<g id="a_Node000005"><a xlink:title=" ">
<polygon fill="white" stroke="none" points="70,-268.5 0,-268.5 0,-216.5 70,-216.5 70,-268.5"/>
<text text-anchor="start" x="5" y="-255" font-family="Cascadia Code NF" font-size="10.00">HeapObject</text>
<text text-anchor="start" x="32" y="-239" font-family="Cascadia Code NF" font-size="10.00"> </text>
<text text-anchor="start" x="32" y="-223" font-family="Cascadia Code NF" font-size="10.00"> </text>
<polygon fill="#bfbfbf" stroke="#bfbfbf" points="0,-250.5 0,-250.5 70,-250.5 70,-250.5 0,-250.5"/>
<polygon fill="#bfbfbf" stroke="#bfbfbf" points="0,-234.5 0,-234.5 70,-234.5 70,-234.5 0,-234.5"/>
<polygon fill="none" stroke="#bfbfbf" points="0,-216.5 0,-268.5 70,-268.5 70,-216.5 0,-216.5"/>
</a>
</g>
</g>
<!-- Node5&#45;&gt;Node4 -->
<g id="edge4_Node000004_Node000005" class="edge">
<title>Node5&#45;&gt;Node4</title>
<g id="a_edge4_Node000004_Node000005"><a xlink:title=" ">
<path fill="none" stroke="#63b8ff" d="M81.37,-242.5C89.19,-242.5 97.59,-242.5 106.19,-242.5"/>
<polygon fill="none" stroke="#63b8ff" points="81.51,-239 71.51,-242.5 81.51,-246 81.51,-239"/>
</a>
</g>
</g>
</g>
</svg>
