<?xml version="1.0" encoding="UTF-8" standalone="no"?>
<!DOCTYPE svg PUBLIC "-//W3C//DTD SVG 1.1//EN"
 "http://www.w3.org/Graphics/SVG/1.1/DTD/svg11.dtd">
<!-- Generated by graphviz version 11.0.0 (20240428.1522)
 -->
<!-- Title: v8::internal::JSSynchronizationPrimitive Pages: 1 -->
<svg width="938pt" height="347pt"
 viewBox="0.00 0.00 938.00 346.50" xmlns="http://www.w3.org/2000/svg" xmlns:xlink="http://www.w3.org/1999/xlink">
<g id="graph0" class="graph" transform="scale(1 1) rotate(0) translate(4 342.5)">
<title>v8::internal::JSSynchronizationPrimitive</title>
<!-- Node1 -->
<g id="Node000001" class="node">
<title>Node1</title>
<g id="a_Node000001"><a xlink:title=" ">
<polygon fill="#999999" stroke="none" points="930,-190 734,-190 734,0 930,0 930,-190"/>
<text text-anchor="start" x="739" y="-176.5" font-family="Cascadia Code NF" font-size="10.00">v8::internal::JSSynchronization</text>
<text text-anchor="start" x="805" y="-163.75" font-family="Cascadia Code NF" font-size="10.00">Primitive</text>
<text text-anchor="start" x="829" y="-147.5" font-family="Cascadia Code NF" font-size="10.00"> </text>
<text text-anchor="start" x="740.5" y="-131.5" font-family="Cascadia Code NF" font-size="10.00">+</text>
<text text-anchor="start" x="753" y="-131.5" font-family="Cascadia Code NF" font-size="10.00">NumWaitersForTesting()</text>
<text text-anchor="start" x="740.5" y="-115.5" font-family="Cascadia Code NF" font-size="10.00">+</text>
<text text-anchor="start" x="753" y="-115.5" font-family="Cascadia Code NF" font-size="10.00">SetNullWaiterQueueHead()</text>
<text text-anchor="start" x="740.5" y="-99.5" font-family="Cascadia Code NF" font-size="10.00">+</text>
<text text-anchor="start" x="753" y="-99.5" font-family="Cascadia Code NF" font-size="10.00">IsolateDeinit()</text>
<text text-anchor="start" x="740.5" y="-83.5" font-family="Cascadia Code NF" font-size="10.00">#</text>
<text text-anchor="start" x="753" y="-83.5" font-family="Cascadia Code NF" font-size="10.00">AtomicStatePtr()</text>
<text text-anchor="start" x="740.5" y="-67.5" font-family="Cascadia Code NF" font-size="10.00">#</text>
<text text-anchor="start" x="753" y="-67.5" font-family="Cascadia Code NF" font-size="10.00">DestructivelyGetWaiterQueue</text>
<text text-anchor="start" x="753" y="-54.75" font-family="Cascadia Code NF" font-size="10.00">Head()</text>
<text text-anchor="start" x="740.5" y="-38.5" font-family="Cascadia Code NF" font-size="10.00">#</text>
<text text-anchor="start" x="753" y="-38.5" font-family="Cascadia Code NF" font-size="10.00">SetWaiterQueueHead()</text>
<text text-anchor="start" x="740.5" y="-22.5" font-family="Cascadia Code NF" font-size="10.00">#</text>
<text text-anchor="start" x="753" y="-22.5" font-family="Cascadia Code NF" font-size="10.00">SetWaiterQueueStateOnly()</text>
<text text-anchor="start" x="740.5" y="-6.5" font-family="Cascadia Code NF" font-size="10.00">#</text>
<text text-anchor="start" x="753" y="-6.5" font-family="Cascadia Code NF" font-size="10.00">TryLockWaiterQueueExplicit()</text>
<polygon fill="#666666" stroke="#666666" points="734,-159 734,-159 930,-159 930,-159 734,-159"/>
<polygon fill="#666666" stroke="#666666" points="734,-143 734,-143 930,-143 930,-143 734,-143"/>
<polygon fill="none" stroke="#666666" points="734,0 734,-190 930,-190 930,0 734,0"/>
</a>
</g>
</g>
<!-- Node2 -->
<g id="Node000002" class="node">
<title>Node2</title>
<g id="a_Node000002"><a xlink:href="../../d3/d03/classTorqueGeneratedJSSynchronizationPrimitive.html" target="_top" xlink:title=" ">
<polygon fill="white" stroke="none" points="596,-338.5 358,-338.5 358,-125.5 596,-125.5 596,-338.5"/>
<text text-anchor="start" x="363" y="-325" font-family="Cascadia Code NF" font-size="10.00">TorqueGeneratedJSSynchronization</text>
<text text-anchor="start" x="363" y="-312.25" font-family="Cascadia Code NF" font-size="10.00">Primitive&lt; JSSynchronizationPrimitive,</text>
<text text-anchor="start" x="393" y="-299.5" font-family="Cascadia Code NF" font-size="10.00"> AlwaysSharedSpaceJSObject &gt;</text>
<text text-anchor="start" x="474" y="-283" font-family="Cascadia Code NF" font-size="10.00"> </text>
<text text-anchor="start" x="369" y="-267" font-family="Cascadia Code NF" font-size="10.00">+</text>
<text text-anchor="start" x="386" y="-267" font-family="Cascadia Code NF" font-size="10.00">state()</text>
<text text-anchor="start" x="369" y="-251" font-family="Cascadia Code NF" font-size="10.00">+</text>
<text text-anchor="start" x="386" y="-251" font-family="Cascadia Code NF" font-size="10.00">set_state()</text>
<text text-anchor="start" x="369" y="-235" font-family="Cascadia Code NF" font-size="10.00">+</text>
<text text-anchor="start" x="386" y="-235" font-family="Cascadia Code NF" font-size="10.00">TorqueGeneratedJSSynchronization</text>
<text text-anchor="start" x="386" y="-222.25" font-family="Cascadia Code NF" font-size="10.00">Primitive()</text>
<text text-anchor="start" x="369" y="-206" font-family="Cascadia Code NF" font-size="10.00">+</text>
<text text-anchor="start" x="386" y="-206" font-family="Cascadia Code NF" font-size="10.00">cast()</text>
<text text-anchor="start" x="369" y="-190" font-family="Cascadia Code NF" font-size="10.00">+</text>
<text text-anchor="start" x="386" y="-190" font-family="Cascadia Code NF" font-size="10.00">unchecked_cast()</text>
<text text-anchor="start" x="369" y="-174" font-family="Cascadia Code NF" font-size="10.00">#</text>
<text text-anchor="start" x="386" y="-174" font-family="Cascadia Code NF" font-size="10.00">TorqueGeneratedJSSynchronization</text>
<text text-anchor="start" x="386" y="-161.25" font-family="Cascadia Code NF" font-size="10.00">Primitive()</text>
<text text-anchor="start" x="369" y="-145" font-family="Cascadia Code NF" font-size="10.00">#</text>
<text text-anchor="start" x="386" y="-145" font-family="Cascadia Code NF" font-size="10.00">TorqueGeneratedJSSynchronization</text>
<text text-anchor="start" x="386" y="-132.25" font-family="Cascadia Code NF" font-size="10.00">Primitive()</text>
<polygon fill="#bfbfbf" stroke="#bfbfbf" points="358,-294.5 358,-294.5 596,-294.5 596,-294.5 358,-294.5"/>
<polygon fill="#bfbfbf" stroke="#bfbfbf" points="358,-278.5 358,-278.5 596,-278.5 596,-278.5 358,-278.5"/>
<polygon fill="none" stroke="#bfbfbf" points="358,-125.5 358,-338.5 596,-338.5 596,-125.5 358,-125.5"/>
</a>
</g>
</g>
<!-- Node2&#45;&gt;Node1 -->
<g id="edge1_Node000001_Node000002" class="edge">
<title>Node2&#45;&gt;Node1</title>
<g id="a_edge1_Node000001_Node000002"><a xlink:title=" ">
<path fill="none" stroke="#63b8ff" d="M606.2,-182.25C648.46,-165.84 694.73,-147.89 734.24,-132.55"/>
<polygon fill="none" stroke="#63b8ff" points="605.01,-178.95 596.95,-185.83 607.54,-185.48 605.01,-178.95"/>
</a>
</g>
</g>
<!-- Node3 -->
<g id="Node000003" class="node">
<title>Node3</title>
<g id="a_Node000003"><a xlink:title=" ">
<polygon fill="white" stroke="none" points="160,-292 0,-292 0,-240 160,-240 160,-292"/>
<text text-anchor="start" x="5" y="-278.5" font-family="Cascadia Code NF" font-size="10.00">AlwaysSharedSpaceJSObject</text>
<text text-anchor="start" x="77" y="-262.5" font-family="Cascadia Code NF" font-size="10.00"> </text>
<text text-anchor="start" x="77" y="-246.5" font-family="Cascadia Code NF" font-size="10.00"> </text>
<polygon fill="#bfbfbf" stroke="#bfbfbf" points="0,-274 0,-274 160,-274 160,-274 0,-274"/>
<polygon fill="#bfbfbf" stroke="#bfbfbf" points="0,-258 0,-258 160,-258 160,-258 0,-258"/>
<polygon fill="none" stroke="#bfbfbf" points="0,-240 0,-292 160,-292 160,-240 0,-240"/>
</a>
</g>
</g>
<!-- Node3&#45;&gt;Node2 -->
<g id="edge2_Node000002_Node000003" class="edge">
<title>Node3&#45;&gt;Node2</title>
<g id="a_edge2_Node000002_Node000003"><a xlink:title=" ">
<path fill="none" stroke="#63b8ff" d="M171.17,-258.41C220.96,-254.21 283.9,-248.86 340,-244 345.9,-243.49 351.95,-242.96 358.06,-242.43"/>
<polygon fill="none" stroke="#63b8ff" points="170.96,-254.92 161.29,-259.25 171.55,-261.89 170.96,-254.92"/>
</a>
</g>
</g>
<!-- Node4 -->
<g id="Node000004" class="node">
<title>Node4</title>
<g id="a_Node000004"><a xlink:href="../../d1/da0/classint.html" target="_top" xlink:title=" ">
<polygon fill="white" stroke="none" points="94,-138 66,-138 66,-86 94,-86 94,-138"/>
<text text-anchor="start" x="71" y="-124.5" font-family="Cascadia Code NF" font-size="10.00">int</text>
<text text-anchor="start" x="77" y="-108.5" font-family="Cascadia Code NF" font-size="10.00"> </text>
<text text-anchor="start" x="77" y="-92.5" font-family="Cascadia Code NF" font-size="10.00"> </text>
<polygon fill="#bfbfbf" stroke="#bfbfbf" points="66,-120 66,-120 94,-120 94,-120 66,-120"/>
<polygon fill="#bfbfbf" stroke="#bfbfbf" points="66,-104 66,-104 94,-104 94,-104 66,-104"/>
<polygon fill="none" stroke="#bfbfbf" points="66,-86 66,-138 94,-138 94,-86 66,-86"/>
</a>
</g>
</g>
<!-- Node4&#45;&gt;Node1 -->
<g id="edge4_Node000001_Node000004" class="edge">
<title>Node4&#45;&gt;Node1</title>
<g id="a_edge4_Node000001_Node000004"><a xlink:title=" ">
<path fill="none" stroke="#63b8ff" d="M93.87,-111.58C112.44,-110.99 147.85,-109.86 178,-109 258,-106.71 277.99,-106.09 358,-104.25 482.43,-101.39 625.28,-98.68 721.15,-96.94"/>
<polygon fill="none" stroke="#63b8ff" points="721.17,-96.94 727.09,-92.83 733.16,-96.72 727.24,-100.83 721.17,-96.94"/>
</a>
</g>
<text text-anchor="middle" x="477" y="-107.25" font-family="Cascadia Code NF" font-size="10.00" fill="grey"> +kEndOfTaggedFieldsOffset</text>
</g>
<!-- Node4&#45;&gt;Node2 -->
<g id="edge3_Node000002_Node000004" class="edge">
<title>Node4&#45;&gt;Node2</title>
<g id="a_edge3_Node000002_Node000004"><a xlink:title=" ">
<path fill="none" stroke="#63b8ff" d="M93.7,-111.64C139.25,-110.52 294.15,-108.08 340,-125.25 342.22,-126.08 344.44,-126.96 346.64,-127.89"/>
<polygon fill="none" stroke="#63b8ff" points="346.62,-127.89 353.75,-126.76 357.52,-132.91 350.4,-134.03 346.62,-127.89"/>
</a>
</g>
<text text-anchor="middle" x="259" y="-230.25" font-family="Cascadia Code NF" font-size="10.00" fill="grey"> +kEndOfStrongFieldsOffset</text>
<text text-anchor="middle" x="259" y="-217.5" font-family="Cascadia Code NF" font-size="10.00" fill="grey">+kEndOfWeakFieldsOffset</text>
<text text-anchor="middle" x="259" y="-204.75" font-family="Cascadia Code NF" font-size="10.00" fill="grey">+kHeaderSize</text>
<text text-anchor="middle" x="259" y="-192" font-family="Cascadia Code NF" font-size="10.00" fill="grey">+kStartOfStrongFieldsOffset</text>
<text text-anchor="middle" x="259" y="-179.25" font-family="Cascadia Code NF" font-size="10.00" fill="grey">+kStartOfWeakFieldsOffset</text>
<text text-anchor="middle" x="259" y="-166.5" font-family="Cascadia Code NF" font-size="10.00" fill="grey">+kStateOffset</text>
<text text-anchor="middle" x="259" y="-153.75" font-family="Cascadia Code NF" font-size="10.00" fill="grey">+kStateOffsetEnd</text>
<text text-anchor="middle" x="259" y="-141" font-family="Cascadia Code NF" font-size="10.00" fill="grey">+kWaiterQueueHeadOffset</text>
<text text-anchor="middle" x="259" y="-128.25" font-family="Cascadia Code NF" font-size="10.00" fill="grey">+kWaiterQueueHeadOffsetEnd</text>
</g>
<!-- Node5 -->
<g id="Node000005" class="node">
<title>Node5</title>
<g id="a_Node000005"><a xlink:href="../../d3/d87/classuint32__t.html" target="_top" xlink:title=" ">
<polygon fill="white" stroke="none" points="506,-59 448,-59 448,-7 506,-7 506,-59"/>
<text text-anchor="start" x="453" y="-45.5" font-family="Cascadia Code NF" font-size="10.00">uint32_t</text>
<text text-anchor="start" x="474" y="-29.5" font-family="Cascadia Code NF" font-size="10.00"> </text>
<text text-anchor="start" x="474" y="-13.5" font-family="Cascadia Code NF" font-size="10.00"> </text>
<polygon fill="#bfbfbf" stroke="#bfbfbf" points="448,-41 448,-41 506,-41 506,-41 448,-41"/>
<polygon fill="#bfbfbf" stroke="#bfbfbf" points="448,-25 448,-25 506,-25 506,-25 448,-25"/>
<polygon fill="none" stroke="#bfbfbf" points="448,-7 448,-59 506,-59 506,-7 448,-7"/>
</a>
</g>
</g>
<!-- Node5&#45;&gt;Node1 -->
<g id="edge5_Node000001_Node000005" class="edge">
<title>Node5&#45;&gt;Node1</title>
<g id="a_edge5_Node000001_Node000005"><a xlink:title=" ">
<path fill="none" stroke="#63b8ff" d="M505.81,-33.5C550.57,-34.79 641.15,-39.35 716,-55.5 717.87,-55.9 719.75,-56.33 721.64,-56.77"/>
<polygon fill="none" stroke="#63b8ff" points="721.7,-56.79 728.5,-54.38 733.33,-59.73 726.54,-62.14 721.7,-56.79"/>
</a>
</g>
<text text-anchor="middle" x="665" y="-71" font-family="Cascadia Code NF" font-size="10.00" fill="grey"> #kEmptyState</text>
<text text-anchor="middle" x="665" y="-58.25" font-family="Cascadia Code NF" font-size="10.00" fill="grey">#kWaiterQueueMask</text>
</g>
</g>
</svg>
