<?xml version="1.0" encoding="UTF-8" standalone="no"?>
<!DOCTYPE svg PUBLIC "-//W3C//DTD SVG 1.1//EN"
 "http://www.w3.org/Graphics/SVG/1.1/DTD/svg11.dtd">
<!-- Generated by graphviz version 11.0.0 (20240428.1522)
 -->
<!-- Title: v8::internal::WasmSuspendingObject Pages: 1 -->
<svg width="670pt" height="237pt"
 viewBox="0.00 0.00 670.00 237.00" xmlns="http://www.w3.org/2000/svg" xmlns:xlink="http://www.w3.org/1999/xlink">
<g id="graph0" class="graph" transform="scale(1 1) rotate(0) translate(4 233)">
<title>v8::internal::WasmSuspendingObject</title>
<!-- Node1 -->
<g id="Node000001" class="node">
<title>Node1</title>
<g id="a_Node000001"><a xlink:title=" ">
<polygon fill="#999999" stroke="none" points="662,-147 484,-147 484,-82 662,-82 662,-147"/>
<text text-anchor="start" x="489" y="-133.5" font-family="Cascadia Code NF" font-size="10.00">v8::internal::WasmSuspending</text>
<text text-anchor="start" x="555" y="-120.75" font-family="Cascadia Code NF" font-size="10.00">Object</text>
<text text-anchor="start" x="570" y="-104.5" font-family="Cascadia Code NF" font-size="10.00"> </text>
<text text-anchor="start" x="520.5" y="-88.5" font-family="Cascadia Code NF" font-size="10.00">+</text>
<text text-anchor="start" x="563" y="-88.5" font-family="Cascadia Code NF" font-size="10.00">New()</text>
<polygon fill="#666666" stroke="#666666" points="484,-116 484,-116 662,-116 662,-116 484,-116"/>
<polygon fill="#666666" stroke="#666666" points="484,-100 484,-100 662,-100 662,-100 484,-100"/>
<polygon fill="none" stroke="#666666" points="484,-82 484,-147 662,-147 662,-82 484,-82"/>
</a>
</g>
</g>
<!-- Node2 -->
<g id="Node000002" class="node">
<title>Node2</title>
<g id="a_Node000002"><a xlink:href="../../d6/db3/classTorqueGeneratedWasmSuspendingObject.html" target="_top" xlink:title=" ">
<polygon fill="white" stroke="none" points="448,-229 256,-229 256,0 448,0 448,-229"/>
<text text-anchor="start" x="265" y="-215.5" font-family="Cascadia Code NF" font-size="10.00">TorqueGeneratedWasmSuspending</text>
<text text-anchor="start" x="265" y="-202.75" font-family="Cascadia Code NF" font-size="10.00">Object&lt; WasmSuspendingObject,</text>
<text text-anchor="start" x="319" y="-190" font-family="Cascadia Code NF" font-size="10.00"> JSObject &gt;</text>
<text text-anchor="start" x="349" y="-173.5" font-family="Cascadia Code NF" font-size="10.00"> </text>
<text text-anchor="start" x="260" y="-157.5" font-family="Cascadia Code NF" font-size="10.00">+</text>
<text text-anchor="start" x="270" y="-157.5" font-family="Cascadia Code NF" font-size="10.00">callable()</text>
<text text-anchor="start" x="260" y="-141.5" font-family="Cascadia Code NF" font-size="10.00">+</text>
<text text-anchor="start" x="270" y="-141.5" font-family="Cascadia Code NF" font-size="10.00">callable()</text>
<text text-anchor="start" x="260" y="-125.5" font-family="Cascadia Code NF" font-size="10.00">+</text>
<text text-anchor="start" x="270" y="-125.5" font-family="Cascadia Code NF" font-size="10.00">set_callable()</text>
<text text-anchor="start" x="260" y="-109.5" font-family="Cascadia Code NF" font-size="10.00">+</text>
<text text-anchor="start" x="270" y="-109.5" font-family="Cascadia Code NF" font-size="10.00">TorqueGeneratedWasmSuspending</text>
<text text-anchor="start" x="270" y="-96.75" font-family="Cascadia Code NF" font-size="10.00">Object()</text>
<text text-anchor="start" x="260" y="-80.5" font-family="Cascadia Code NF" font-size="10.00">+</text>
<text text-anchor="start" x="270" y="-80.5" font-family="Cascadia Code NF" font-size="10.00">cast()</text>
<text text-anchor="start" x="260" y="-64.5" font-family="Cascadia Code NF" font-size="10.00">+</text>
<text text-anchor="start" x="270" y="-64.5" font-family="Cascadia Code NF" font-size="10.00">unchecked_cast()</text>
<text text-anchor="start" x="260" y="-48.5" font-family="Cascadia Code NF" font-size="10.00">#</text>
<text text-anchor="start" x="270" y="-48.5" font-family="Cascadia Code NF" font-size="10.00">TorqueGeneratedWasmSuspending</text>
<text text-anchor="start" x="270" y="-35.75" font-family="Cascadia Code NF" font-size="10.00">Object()</text>
<text text-anchor="start" x="260" y="-19.5" font-family="Cascadia Code NF" font-size="10.00">#</text>
<text text-anchor="start" x="270" y="-19.5" font-family="Cascadia Code NF" font-size="10.00">TorqueGeneratedWasmSuspending</text>
<text text-anchor="start" x="270" y="-6.75" font-family="Cascadia Code NF" font-size="10.00">Object()</text>
<polygon fill="#bfbfbf" stroke="#bfbfbf" points="256,-185 256,-185 448,-185 448,-185 256,-185"/>
<polygon fill="#bfbfbf" stroke="#bfbfbf" points="256,-169 256,-169 448,-169 448,-169 256,-169"/>
<polygon fill="none" stroke="#bfbfbf" points="256,0 256,-229 448,-229 448,0 256,0"/>
</a>
</g>
</g>
<!-- Node2&#45;&gt;Node1 -->
<g id="edge1_Node000001_Node000002" class="edge">
<title>Node2&#45;&gt;Node1</title>
<g id="a_edge1_Node000001_Node000002"><a xlink:title=" ">
<path fill="none" stroke="#63b8ff" d="M459.22,-114.5C467.63,-114.5 476.06,-114.5 484.32,-114.5"/>
<polygon fill="none" stroke="#63b8ff" points="459.3,-111 449.3,-114.5 459.3,-118 459.3,-111"/>
</a>
</g>
</g>
<!-- Node3 -->
<g id="Node000003" class="node">
<title>Node3</title>
<g id="a_Node000003"><a xlink:title=" ">
<polygon fill="white" stroke="none" points="58,-196.5 0,-196.5 0,-144.5 58,-144.5 58,-196.5"/>
<text text-anchor="start" x="5" y="-183" font-family="Cascadia Code NF" font-size="10.00">JSObject</text>
<text text-anchor="start" x="26" y="-167" font-family="Cascadia Code NF" font-size="10.00"> </text>
<text text-anchor="start" x="26" y="-151" font-family="Cascadia Code NF" font-size="10.00"> </text>
<polygon fill="#bfbfbf" stroke="#bfbfbf" points="0,-178.5 0,-178.5 58,-178.5 58,-178.5 0,-178.5"/>
<polygon fill="#bfbfbf" stroke="#bfbfbf" points="0,-162.5 0,-162.5 58,-162.5 58,-162.5 0,-162.5"/>
<polygon fill="none" stroke="#bfbfbf" points="0,-144.5 0,-196.5 58,-196.5 58,-144.5 0,-144.5"/>
</a>
</g>
</g>
<!-- Node3&#45;&gt;Node2 -->
<g id="edge2_Node000002_Node000003" class="edge">
<title>Node3&#45;&gt;Node2</title>
<g id="a_edge2_Node000002_Node000003"><a xlink:title=" ">
<path fill="none" stroke="#63b8ff" d="M69.23,-168.54C111.29,-165.93 179.88,-160.21 238,-148.5 243.92,-147.31 249.98,-145.94 256.07,-144.45"/>
<polygon fill="none" stroke="#63b8ff" points="69.13,-165.04 59.35,-169.12 69.54,-172.03 69.13,-165.04"/>
</a>
</g>
</g>
<!-- Node4 -->
<g id="Node000004" class="node">
<title>Node4</title>
<g id="a_Node000004"><a xlink:href="../../d1/da0/classint.html" target="_top" xlink:title=" ">
<polygon fill="white" stroke="none" points="43,-84.5 15,-84.5 15,-32.5 43,-32.5 43,-84.5"/>
<text text-anchor="start" x="20" y="-71" font-family="Cascadia Code NF" font-size="10.00">int</text>
<text text-anchor="start" x="26" y="-55" font-family="Cascadia Code NF" font-size="10.00"> </text>
<text text-anchor="start" x="26" y="-39" font-family="Cascadia Code NF" font-size="10.00"> </text>
<polygon fill="#bfbfbf" stroke="#bfbfbf" points="15,-66.5 15,-66.5 43,-66.5 43,-66.5 15,-66.5"/>
<polygon fill="#bfbfbf" stroke="#bfbfbf" points="15,-50.5 15,-50.5 43,-50.5 43,-50.5 15,-50.5"/>
<polygon fill="none" stroke="#bfbfbf" points="15,-32.5 15,-84.5 43,-84.5 43,-32.5 15,-32.5"/>
</a>
</g>
</g>
<!-- Node4&#45;&gt;Node2 -->
<g id="edge3_Node000002_Node000004" class="edge">
<title>Node4&#45;&gt;Node2</title>
<g id="a_edge3_Node000002_Node000004"><a xlink:title=" ">
<path fill="none" stroke="#63b8ff" d="M42.92,-56.06C75.98,-50.28 166.11,-37.55 238,-55.25 239.98,-55.74 241.96,-56.26 243.94,-56.83"/>
<polygon fill="none" stroke="#63b8ff" points="243.81,-56.79 250.75,-54.83 255.23,-60.47 248.29,-62.44 243.81,-56.79"/>
</a>
</g>
<text text-anchor="middle" x="157" y="-135.25" font-family="Cascadia Code NF" font-size="10.00" fill="grey"> +kCallableOffset</text>
<text text-anchor="middle" x="157" y="-122.5" font-family="Cascadia Code NF" font-size="10.00" fill="grey">+kCallableOffsetEnd</text>
<text text-anchor="middle" x="157" y="-109.75" font-family="Cascadia Code NF" font-size="10.00" fill="grey">+kEndOfStrongFieldsOffset</text>
<text text-anchor="middle" x="157" y="-97" font-family="Cascadia Code NF" font-size="10.00" fill="grey">+kEndOfWeakFieldsOffset</text>
<text text-anchor="middle" x="157" y="-84.25" font-family="Cascadia Code NF" font-size="10.00" fill="grey">+kHeaderSize</text>
<text text-anchor="middle" x="157" y="-71.5" font-family="Cascadia Code NF" font-size="10.00" fill="grey">+kStartOfStrongFieldsOffset</text>
<text text-anchor="middle" x="157" y="-58.75" font-family="Cascadia Code NF" font-size="10.00" fill="grey">+kStartOfWeakFieldsOffset</text>
</g>
</g>
</svg>
