<?xml version="1.0" encoding="UTF-8" standalone="no"?>
<!DOCTYPE svg PUBLIC "-//W3C//DTD SVG 1.1//EN"
 "http://www.w3.org/Graphics/SVG/1.1/DTD/svg11.dtd">
<!-- Generated by graphviz version 11.0.0 (20240428.1522)
 -->
<!-- Title: v8::internal::debug_helper_internal::TqTemplateInfo Pages: 1 -->
<svg width="744pt" height="470pt"
 viewBox="0.00 0.00 744.00 470.00" xmlns="http://www.w3.org/2000/svg" xmlns:xlink="http://www.w3.org/1999/xlink">
<g id="graph0" class="graph" transform="scale(1 1) rotate(0) translate(4 466)">
<title>v8::internal::debug_helper_internal::TqTemplateInfo</title>
<!-- Node1 -->
<g id="Node000001" class="node">
<title>Node1</title>
<g id="a_Node000001"><a xlink:title=" ">
<polygon fill="#999999" stroke="none" points="522,-351.5 320,-351.5 320,-94.5 522,-94.5 522,-351.5"/>
<text text-anchor="start" x="325" y="-338" font-family="Cascadia Code NF" font-size="10.00">v8::internal::debug</text>
<text text-anchor="start" x="325" y="-325.25" font-family="Cascadia Code NF" font-size="10.00">_helper_internal::TqTemplateInfo</text>
<text text-anchor="start" x="418" y="-309" font-family="Cascadia Code NF" font-size="10.00"> </text>
<text text-anchor="start" x="325" y="-293" font-family="Cascadia Code NF" font-size="10.00">+</text>
<text text-anchor="start" x="336" y="-293" font-family="Cascadia Code NF" font-size="10.00">TqTemplateInfo()</text>
<text text-anchor="start" x="325" y="-277" font-family="Cascadia Code NF" font-size="10.00">+</text>
<text text-anchor="start" x="336" y="-277" font-family="Cascadia Code NF" font-size="10.00">GetProperties()</text>
<text text-anchor="start" x="325" y="-261" font-family="Cascadia Code NF" font-size="10.00">+</text>
<text text-anchor="start" x="336" y="-261" font-family="Cascadia Code NF" font-size="10.00">GetName()</text>
<text text-anchor="start" x="325" y="-245" font-family="Cascadia Code NF" font-size="10.00">+</text>
<text text-anchor="start" x="336" y="-245" font-family="Cascadia Code NF" font-size="10.00">Visit()</text>
<text text-anchor="start" x="325" y="-229" font-family="Cascadia Code NF" font-size="10.00">+</text>
<text text-anchor="start" x="336" y="-229" font-family="Cascadia Code NF" font-size="10.00">IsSuperclassOf()</text>
<text text-anchor="start" x="325" y="-213" font-family="Cascadia Code NF" font-size="10.00">+</text>
<text text-anchor="start" x="336" y="-213" font-family="Cascadia Code NF" font-size="10.00">GetSerialNumberAddress()</text>
<text text-anchor="start" x="325" y="-197" font-family="Cascadia Code NF" font-size="10.00">+</text>
<text text-anchor="start" x="336" y="-197" font-family="Cascadia Code NF" font-size="10.00">GetSerialNumberValue()</text>
<text text-anchor="start" x="325" y="-181" font-family="Cascadia Code NF" font-size="10.00">+</text>
<text text-anchor="start" x="336" y="-181" font-family="Cascadia Code NF" font-size="10.00">GetNumberOfPropertiesAddress()</text>
<text text-anchor="start" x="325" y="-165" font-family="Cascadia Code NF" font-size="10.00">+</text>
<text text-anchor="start" x="336" y="-165" font-family="Cascadia Code NF" font-size="10.00">GetNumberOfPropertiesValue()</text>
<text text-anchor="start" x="325" y="-149" font-family="Cascadia Code NF" font-size="10.00">+</text>
<text text-anchor="start" x="336" y="-149" font-family="Cascadia Code NF" font-size="10.00">GetPropertyListAddress()</text>
<text text-anchor="start" x="325" y="-133" font-family="Cascadia Code NF" font-size="10.00">+</text>
<text text-anchor="start" x="336" y="-133" font-family="Cascadia Code NF" font-size="10.00">GetPropertyListValue()</text>
<text text-anchor="start" x="325" y="-117" font-family="Cascadia Code NF" font-size="10.00">+</text>
<text text-anchor="start" x="336" y="-117" font-family="Cascadia Code NF" font-size="10.00">GetPropertyAccessorsAddress()</text>
<text text-anchor="start" x="325" y="-101" font-family="Cascadia Code NF" font-size="10.00">+</text>
<text text-anchor="start" x="336" y="-101" font-family="Cascadia Code NF" font-size="10.00">GetPropertyAccessorsValue()</text>
<polygon fill="#666666" stroke="#666666" points="320,-320.5 320,-320.5 522,-320.5 522,-320.5 320,-320.5"/>
<polygon fill="#666666" stroke="#666666" points="320,-304.5 320,-304.5 522,-304.5 522,-304.5 320,-304.5"/>
<polygon fill="none" stroke="#666666" points="320,-94.5 320,-351.5 522,-351.5 522,-94.5 320,-94.5"/>
</a>
</g>
</g>
<!-- Node4 -->
<g id="Node000004" class="node">
<title>Node4</title>
<g id="a_Node000004"><a xlink:href="../../d8/d51/classv8_1_1internal_1_1debug__helper__internal_1_1TqFunctionTemplateInfo.html" target="_top" xlink:title=" ">
<polygon fill="white" stroke="none" points="736,-462 558,-462 558,-224 736,-224 736,-462"/>
<text text-anchor="start" x="563" y="-448.5" font-family="Cascadia Code NF" font-size="10.00">v8::internal::debug</text>
<text text-anchor="start" x="563" y="-435.75" font-family="Cascadia Code NF" font-size="10.00">_helper_internal::TqFunction</text>
<text text-anchor="start" x="611" y="-423" font-family="Cascadia Code NF" font-size="10.00">TemplateInfo</text>
<text text-anchor="start" x="644" y="-406.5" font-family="Cascadia Code NF" font-size="10.00"> </text>
<text text-anchor="start" x="566" y="-390.5" font-family="Cascadia Code NF" font-size="10.00">+</text>
<text text-anchor="start" x="580" y="-390.5" font-family="Cascadia Code NF" font-size="10.00">TqFunctionTemplateInfo()</text>
<text text-anchor="start" x="566" y="-374.5" font-family="Cascadia Code NF" font-size="10.00">+</text>
<text text-anchor="start" x="580" y="-374.5" font-family="Cascadia Code NF" font-size="10.00">GetProperties()</text>
<text text-anchor="start" x="566" y="-358.5" font-family="Cascadia Code NF" font-size="10.00">+</text>
<text text-anchor="start" x="580" y="-358.5" font-family="Cascadia Code NF" font-size="10.00">GetName()</text>
<text text-anchor="start" x="566" y="-342.5" font-family="Cascadia Code NF" font-size="10.00">+</text>
<text text-anchor="start" x="580" y="-342.5" font-family="Cascadia Code NF" font-size="10.00">Visit()</text>
<text text-anchor="start" x="566" y="-326.5" font-family="Cascadia Code NF" font-size="10.00">+</text>
<text text-anchor="start" x="580" y="-326.5" font-family="Cascadia Code NF" font-size="10.00">IsSuperclassOf()</text>
<text text-anchor="start" x="566" y="-310.5" font-family="Cascadia Code NF" font-size="10.00">+</text>
<text text-anchor="start" x="580" y="-310.5" font-family="Cascadia Code NF" font-size="10.00">GetClassNameAddress()</text>
<text text-anchor="start" x="566" y="-294.5" font-family="Cascadia Code NF" font-size="10.00">+</text>
<text text-anchor="start" x="580" y="-294.5" font-family="Cascadia Code NF" font-size="10.00">GetClassNameValue()</text>
<text text-anchor="start" x="566" y="-278.5" font-family="Cascadia Code NF" font-size="10.00">+</text>
<text text-anchor="start" x="580" y="-278.5" font-family="Cascadia Code NF" font-size="10.00">GetSignatureAddress()</text>
<text text-anchor="start" x="566" y="-262.5" font-family="Cascadia Code NF" font-size="10.00">+</text>
<text text-anchor="start" x="580" y="-262.5" font-family="Cascadia Code NF" font-size="10.00">GetSignatureValue()</text>
<text text-anchor="start" x="566" y="-246.5" font-family="Cascadia Code NF" font-size="10.00">+</text>
<text text-anchor="start" x="580" y="-246.5" font-family="Cascadia Code NF" font-size="10.00">GetRareDataAddress()</text>
<text text-anchor="start" x="580" y="-230.5" font-family="Cascadia Code NF" font-size="10.00">and 15 more...</text>
<polygon fill="#bfbfbf" stroke="#bfbfbf" points="558,-418 558,-418 736,-418 736,-418 558,-418"/>
<polygon fill="#bfbfbf" stroke="#bfbfbf" points="558,-402 558,-402 736,-402 736,-402 558,-402"/>
<polygon fill="none" stroke="#bfbfbf" points="558,-224 558,-462 736,-462 736,-224 558,-224"/>
</a>
</g>
</g>
<!-- Node1&#45;&gt;Node4 -->
<g id="edge3_Node000001_Node000004" class="edge">
<title>Node1&#45;&gt;Node4</title>
<g id="a_edge3_Node000001_Node000004"><a xlink:title=" ">
<path fill="none" stroke="#63b8ff" d="M531.86,-281.86C540.73,-286.6 549.6,-291.36 558.28,-296.01"/>
<polygon fill="none" stroke="#63b8ff" points="533.68,-278.86 523.21,-277.22 530.38,-285.03 533.68,-278.86"/>
</a>
</g>
</g>
<!-- Node5 -->
<g id="Node000005" class="node">
<title>Node5</title>
<g id="a_Node000005"><a xlink:href="../../de/d4d/classv8_1_1internal_1_1debug__helper__internal_1_1TqObjectTemplateInfo.html" target="_top" xlink:title=" ">
<polygon fill="white" stroke="none" points="730,-206 564,-206 564,0 730,0 730,-206"/>
<text text-anchor="start" x="569" y="-192.5" font-family="Cascadia Code NF" font-size="10.00">v8::internal::debug</text>
<text text-anchor="start" x="569" y="-179.75" font-family="Cascadia Code NF" font-size="10.00">_helper_internal::TqObject</text>
<text text-anchor="start" x="611" y="-167" font-family="Cascadia Code NF" font-size="10.00">TemplateInfo</text>
<text text-anchor="start" x="644" y="-150.5" font-family="Cascadia Code NF" font-size="10.00"> </text>
<text text-anchor="start" x="570.5" y="-134.5" font-family="Cascadia Code NF" font-size="10.00">+</text>
<text text-anchor="start" x="583" y="-134.5" font-family="Cascadia Code NF" font-size="10.00">TqObjectTemplateInfo()</text>
<text text-anchor="start" x="570.5" y="-118.5" font-family="Cascadia Code NF" font-size="10.00">+</text>
<text text-anchor="start" x="583" y="-118.5" font-family="Cascadia Code NF" font-size="10.00">GetProperties()</text>
<text text-anchor="start" x="570.5" y="-102.5" font-family="Cascadia Code NF" font-size="10.00">+</text>
<text text-anchor="start" x="583" y="-102.5" font-family="Cascadia Code NF" font-size="10.00">GetName()</text>
<text text-anchor="start" x="570.5" y="-86.5" font-family="Cascadia Code NF" font-size="10.00">+</text>
<text text-anchor="start" x="583" y="-86.5" font-family="Cascadia Code NF" font-size="10.00">Visit()</text>
<text text-anchor="start" x="570.5" y="-70.5" font-family="Cascadia Code NF" font-size="10.00">+</text>
<text text-anchor="start" x="583" y="-70.5" font-family="Cascadia Code NF" font-size="10.00">IsSuperclassOf()</text>
<text text-anchor="start" x="570.5" y="-54.5" font-family="Cascadia Code NF" font-size="10.00">+</text>
<text text-anchor="start" x="583" y="-54.5" font-family="Cascadia Code NF" font-size="10.00">GetConstructorAddress()</text>
<text text-anchor="start" x="570.5" y="-38.5" font-family="Cascadia Code NF" font-size="10.00">+</text>
<text text-anchor="start" x="583" y="-38.5" font-family="Cascadia Code NF" font-size="10.00">GetConstructorValue()</text>
<text text-anchor="start" x="570.5" y="-22.5" font-family="Cascadia Code NF" font-size="10.00">+</text>
<text text-anchor="start" x="583" y="-22.5" font-family="Cascadia Code NF" font-size="10.00">GetDataAddress()</text>
<text text-anchor="start" x="570.5" y="-6.5" font-family="Cascadia Code NF" font-size="10.00">+</text>
<text text-anchor="start" x="583" y="-6.5" font-family="Cascadia Code NF" font-size="10.00">GetDataValue()</text>
<polygon fill="#bfbfbf" stroke="#bfbfbf" points="564,-162 564,-162 730,-162 730,-162 564,-162"/>
<polygon fill="#bfbfbf" stroke="#bfbfbf" points="564,-146 564,-146 730,-146 730,-146 564,-146"/>
<polygon fill="none" stroke="#bfbfbf" points="564,0 564,-206 730,-206 730,0 564,0"/>
</a>
</g>
</g>
<!-- Node1&#45;&gt;Node5 -->
<g id="edge4_Node000001_Node000005" class="edge">
<title>Node1&#45;&gt;Node5</title>
<g id="a_edge4_Node000001_Node000005"><a xlink:title=" ">
<path fill="none" stroke="#63b8ff" d="M531.84,-164.16C542.7,-158.34 553.59,-152.51 564.1,-146.88"/>
<polygon fill="none" stroke="#63b8ff" points="530.38,-160.97 523.21,-168.78 533.68,-167.14 530.38,-160.97"/>
</a>
</g>
</g>
<!-- Node2 -->
<g id="Node000002" class="node">
<title>Node2</title>
<g id="a_Node000002"><a xlink:href="../../db/deb/classv8_1_1internal_1_1debug__helper__internal_1_1TqHeapObject.html" target="_top" xlink:title=" ">
<polygon fill="white" stroke="none" points="284,-303.5 94,-303.5 94,-142.5 284,-142.5 284,-303.5"/>
<text text-anchor="start" x="99" y="-290" font-family="Cascadia Code NF" font-size="10.00">v8::internal::debug</text>
<text text-anchor="start" x="99" y="-277.25" font-family="Cascadia Code NF" font-size="10.00">_helper_internal::TqHeapObject</text>
<text text-anchor="start" x="186" y="-261" font-family="Cascadia Code NF" font-size="10.00"> </text>
<text text-anchor="start" x="117" y="-245" font-family="Cascadia Code NF" font-size="10.00">+</text>
<text text-anchor="start" x="146" y="-245" font-family="Cascadia Code NF" font-size="10.00">TqHeapObject()</text>
<text text-anchor="start" x="117" y="-229" font-family="Cascadia Code NF" font-size="10.00">+</text>
<text text-anchor="start" x="146" y="-229" font-family="Cascadia Code NF" font-size="10.00">GetProperties()</text>
<text text-anchor="start" x="117" y="-213" font-family="Cascadia Code NF" font-size="10.00">+</text>
<text text-anchor="start" x="146" y="-213" font-family="Cascadia Code NF" font-size="10.00">GetName()</text>
<text text-anchor="start" x="117" y="-197" font-family="Cascadia Code NF" font-size="10.00">+</text>
<text text-anchor="start" x="146" y="-197" font-family="Cascadia Code NF" font-size="10.00">Visit()</text>
<text text-anchor="start" x="117" y="-181" font-family="Cascadia Code NF" font-size="10.00">+</text>
<text text-anchor="start" x="146" y="-181" font-family="Cascadia Code NF" font-size="10.00">IsSuperclassOf()</text>
<text text-anchor="start" x="117" y="-165" font-family="Cascadia Code NF" font-size="10.00">+</text>
<text text-anchor="start" x="146" y="-165" font-family="Cascadia Code NF" font-size="10.00">GetMapAddress()</text>
<text text-anchor="start" x="117" y="-149" font-family="Cascadia Code NF" font-size="10.00">+</text>
<text text-anchor="start" x="146" y="-149" font-family="Cascadia Code NF" font-size="10.00">GetMapValue()</text>
<polygon fill="#bfbfbf" stroke="#bfbfbf" points="94,-272.5 94,-272.5 284,-272.5 284,-272.5 94,-272.5"/>
<polygon fill="#bfbfbf" stroke="#bfbfbf" points="94,-256.5 94,-256.5 284,-256.5 284,-256.5 94,-256.5"/>
<polygon fill="none" stroke="#bfbfbf" points="94,-142.5 94,-303.5 284,-303.5 284,-142.5 94,-142.5"/>
</a>
</g>
</g>
<!-- Node2&#45;&gt;Node1 -->
<g id="edge1_Node000001_Node000002" class="edge">
<title>Node2&#45;&gt;Node1</title>
<g id="a_edge1_Node000001_Node000002"><a xlink:title=" ">
<path fill="none" stroke="#63b8ff" d="M295.14,-223C303.43,-223 311.8,-223 320.06,-223"/>
<polygon fill="none" stroke="#63b8ff" points="295.4,-219.5 285.4,-223 295.4,-226.5 295.4,-219.5"/>
</a>
</g>
</g>
<!-- Node3 -->
<g id="Node000003" class="node">
<title>Node3</title>
<g id="a_Node000003"><a xlink:href="../../dd/d42/classTqObject.html" target="_top" xlink:title=" ">
<polygon fill="white" stroke="none" points="58,-249 0,-249 0,-197 58,-197 58,-249"/>
<text text-anchor="start" x="5" y="-235.5" font-family="Cascadia Code NF" font-size="10.00">TqObject</text>
<text text-anchor="start" x="26" y="-219.5" font-family="Cascadia Code NF" font-size="10.00"> </text>
<text text-anchor="start" x="26" y="-203.5" font-family="Cascadia Code NF" font-size="10.00"> </text>
<polygon fill="#bfbfbf" stroke="#bfbfbf" points="0,-231 0,-231 58,-231 58,-231 0,-231"/>
<polygon fill="#bfbfbf" stroke="#bfbfbf" points="0,-215 0,-215 58,-215 58,-215 0,-215"/>
<polygon fill="none" stroke="#bfbfbf" points="0,-197 0,-249 58,-249 58,-197 0,-197"/>
</a>
</g>
</g>
<!-- Node3&#45;&gt;Node2 -->
<g id="edge2_Node000002_Node000003" class="edge">
<title>Node3&#45;&gt;Node2</title>
<g id="a_edge2_Node000002_Node000003"><a xlink:title=" ">
<path fill="none" stroke="#63b8ff" d="M69.34,-223C77.03,-223 85.39,-223 94,-223"/>
<polygon fill="none" stroke="#63b8ff" points="69.4,-219.5 59.4,-223 69.4,-226.5 69.4,-219.5"/>
</a>
</g>
</g>
</g>
</svg>
