<?xml version="1.0" encoding="UTF-8" standalone="no"?>
<!DOCTYPE svg PUBLIC "-//W3C//DTD SVG 1.1//EN"
 "http://www.w3.org/Graphics/SVG/1.1/DTD/svg11.dtd">
<!-- Generated by graphviz version 11.0.0 (20240428.1522)
 -->
<!-- Title: v8::internal::compiler::turboshaft::NewArgumentsElementsOp Pages: 1 -->
<!--zoomable 804 -->

<svg id="main" version="1.1" xmlns="http://www.w3.org/2000/svg" xmlns:xlink="http://www.w3.org/1999/xlink" xml:space="preserve" onload="init(evt)">
<style type="text/css"><![CDATA[
.node, .edge {opacity: 0.7;}
.node.selected, .edge.selected {opacity: 1;}
.edge:hover path { stroke: red; }
.edge:hover polygon { stroke: red; fill: red; }
svg#main { background-color: #111; }
]]></style>

<defs>
  <circle id="rim" cx="0" cy="0" r="7"/>
  <circle id="rim2" cx="0" cy="0" r="3.5"/>
  <g id="zoomPlus">
    <use xlink:href="#rim" fill="#404040"><set attributeName="fill" to="#808080" begin="zoomplus.mouseover" end="zoomplus.mouseout"/></use>
    <path d="M-4,0h8M0,-4v8" fill="none" stroke="white" stroke-width="1.5" pointer-events="none"/>
  </g>
  <g id="zoomMin">
    <use xlink:href="#rim" fill="#404040"><set attributeName="fill" to="#808080" begin="zoomminus.mouseover" end="zoomminus.mouseout"/></use>
    <path d="M-4,0h8" fill="none" stroke="white" stroke-width="1.5" pointer-events="none"/>
  </g>
  <g id="arrowUp" transform="translate(30 24)">
    <use xlink:href="#rim"/>
    <path pointer-events="none" fill="none" stroke="white" stroke-width="1.5" d="M0,-3.0v7 M-2.5,-0.5L0,-3.0L2.5,-0.5"/>
  </g>
  <g id="arrowRight" transform="rotate(90) translate(36 -43)">
    <use xlink:href="#rim"/>
    <path pointer-events="none" fill="none" stroke="white" stroke-width="1.5" d="M0,-3.0v7 M-2.5,-0.5L0,-3.0L2.5,-0.5"/>
  </g>
  <g id="arrowDown" transform="rotate(180) translate(-30 -48)">
    <use xlink:href="#rim"/>
    <path pointer-events="none" fill="none" stroke="white" stroke-width="1.5" d="M0,-3.0v7 M-2.5,-0.5L0,-3.0L2.5,-0.5"/>
  </g>
  <g id="arrowLeft" transform="rotate(270) translate(-36 17)">
    <use xlink:href="#rim"/>
    <path pointer-events="none" fill="none" stroke="white" stroke-width="1.5" d="M0,-3.0v7 M-2.5,-0.5L0,-3.0L2.5,-0.5"/>
  </g>
  <g id="resetDef">
    <use xlink:href="#rim2" fill="#404040"><set attributeName="fill" to="#808080" begin="reset.mouseover" end="reset.mouseout"/></use>
  </g>
</defs>
<script type="application/ecmascript">
var viewWidth = 1590;
var viewHeight = 804;
var sectionId = 'dynsection-1';
</script>
<script type="application/ecmascript" xlink:href="../../svg.min.js"/>
<svg id="graph" class="graph">
<g id="viewport">
<title>v8::internal::compiler::turboshaft::NewArgumentsElementsOp</title>
<!-- Node1 -->
<g id="Node000001" class="node">
<title>Node1</title>
<g id="a_Node000001"><a xlink:title=" ">
<polygon fill="#999999" stroke="none" points="1582,-393 1356,-393 1356,-248 1582,-248 1582,-393"/>
<text text-anchor="start" x="1361" y="-379.5" font-family="Cascadia Code NF" font-size="10.00">v8::internal::compiler</text>
<text text-anchor="start" x="1361" y="-366.75" font-family="Cascadia Code NF" font-size="10.00">::turboshaft::NewArgumentsElementsOp</text>
<text text-anchor="start" x="1466" y="-350.5" font-family="Cascadia Code NF" font-size="10.00"> </text>
<text text-anchor="start" x="1376" y="-334.5" font-family="Cascadia Code NF" font-size="10.00">+</text>
<text text-anchor="start" x="1402" y="-334.5" font-family="Cascadia Code NF" font-size="10.00">outputs_rep()</text>
<text text-anchor="start" x="1376" y="-318.5" font-family="Cascadia Code NF" font-size="10.00">+</text>
<text text-anchor="start" x="1402" y="-318.5" font-family="Cascadia Code NF" font-size="10.00">inputs_rep()</text>
<text text-anchor="start" x="1376" y="-302.5" font-family="Cascadia Code NF" font-size="10.00">+</text>
<text text-anchor="start" x="1402" y="-302.5" font-family="Cascadia Code NF" font-size="10.00">arguments_count()</text>
<text text-anchor="start" x="1376" y="-286.5" font-family="Cascadia Code NF" font-size="10.00">+</text>
<text text-anchor="start" x="1402" y="-286.5" font-family="Cascadia Code NF" font-size="10.00">NewArgumentsElementsOp()</text>
<text text-anchor="start" x="1376" y="-270.5" font-family="Cascadia Code NF" font-size="10.00">+</text>
<text text-anchor="start" x="1402" y="-270.5" font-family="Cascadia Code NF" font-size="10.00">Validate()</text>
<text text-anchor="start" x="1376" y="-254.5" font-family="Cascadia Code NF" font-size="10.00">+</text>
<text text-anchor="start" x="1402" y="-254.5" font-family="Cascadia Code NF" font-size="10.00">options()</text>
<polygon fill="#666666" stroke="#666666" points="1356,-362 1356,-362 1582,-362 1582,-362 1356,-362"/>
<polygon fill="#666666" stroke="#666666" points="1356,-346 1356,-346 1582,-346 1582,-346 1356,-346"/>
<polygon fill="none" stroke="#666666" points="1356,-248 1356,-393 1582,-393 1582,-248 1356,-248"/>
</a>
</g>
</g>
<!-- Node2 -->
<g id="Node000002" class="node">
<title>Node2</title>
<g id="a_Node000002"><a xlink:href="../../da/d8a/structv8_1_1internal_1_1compiler_1_1turboshaft_1_1FixedArityOperationT.html" target="_top" xlink:title=" ">
<polygon fill="white" stroke="none" points="1176,-525.5 968,-525.5 968,-399.5 1176,-399.5 1176,-525.5"/>
<text text-anchor="start" x="973" y="-512" font-family="Cascadia Code NF" font-size="10.00">v8::internal::compiler</text>
<text text-anchor="start" x="973" y="-499.25" font-family="Cascadia Code NF" font-size="10.00">::turboshaft::FixedArityOperation</text>
<text text-anchor="start" x="982" y="-486.5" font-family="Cascadia Code NF" font-size="10.00">T&lt; 1, NewArgumentsElementsOp &gt;</text>
<text text-anchor="start" x="1069" y="-470" font-family="Cascadia Code NF" font-size="10.00"> </text>
<text text-anchor="start" x="986.5" y="-454" font-family="Cascadia Code NF" font-size="10.00">+</text>
<text text-anchor="start" x="1011" y="-454" font-family="Cascadia Code NF" font-size="10.00">FixedArityOperationT()</text>
<text text-anchor="start" x="986.5" y="-438" font-family="Cascadia Code NF" font-size="10.00">+</text>
<text text-anchor="start" x="1011" y="-438" font-family="Cascadia Code NF" font-size="10.00">ExplodeImpl()</text>
<text text-anchor="start" x="986.5" y="-422" font-family="Cascadia Code NF" font-size="10.00">+</text>
<text text-anchor="start" x="1011" y="-422" font-family="Cascadia Code NF" font-size="10.00">Explode()</text>
<text text-anchor="start" x="986.5" y="-406" font-family="Cascadia Code NF" font-size="10.00">+</text>
<text text-anchor="start" x="1011" y="-406" font-family="Cascadia Code NF" font-size="10.00">New()</text>
<polygon fill="#bfbfbf" stroke="#bfbfbf" points="968,-481.5 968,-481.5 1176,-481.5 1176,-481.5 968,-481.5"/>
<polygon fill="#bfbfbf" stroke="#bfbfbf" points="968,-465.5 968,-465.5 1176,-465.5 1176,-465.5 968,-465.5"/>
<polygon fill="none" stroke="#bfbfbf" points="968,-399.5 968,-525.5 1176,-525.5 1176,-399.5 968,-399.5"/>
</a>
</g>
</g>
<!-- Node2&#45;&gt;Node1 -->
<g id="edge1_Node000001_Node000002" class="edge">
<title>Node2&#45;&gt;Node1</title>
<g id="a_edge1_Node000001_Node000002"><a xlink:title=" ">
<path fill="none" stroke="#63b8ff" d="M1186.27,-421.78C1239.56,-402.62 1302.93,-379.84 1356.05,-360.75"/>
<polygon fill="none" stroke="#63b8ff" points="1185.4,-418.37 1177.17,-425.05 1187.77,-424.96 1185.4,-418.37"/>
</a>
</g>
</g>
<!-- Node3 -->
<g id="Node000003" class="node">
<title>Node3</title>
<g id="a_Node000003"><a xlink:href="../../d5/d1a/structv8_1_1internal_1_1compiler_1_1turboshaft_1_1OperationT.html" target="_top" xlink:title=" ">
<polygon fill="white" stroke="none" points="842,-795.5 676,-795.5 676,-461.5 842,-461.5 842,-795.5"/>
<text text-anchor="start" x="681" y="-782" font-family="Cascadia Code NF" font-size="10.00">v8::internal::compiler</text>
<text text-anchor="start" x="681" y="-769.25" font-family="Cascadia Code NF" font-size="10.00">::turboshaft::OperationT</text>
<text text-anchor="start" x="681" y="-756.5" font-family="Cascadia Code NF" font-size="10.00">&lt; NewArgumentsElementsOp &gt;</text>
<text text-anchor="start" x="756" y="-740" font-family="Cascadia Code NF" font-size="10.00"> </text>
<text text-anchor="start" x="684" y="-724" font-family="Cascadia Code NF" font-size="10.00">+</text>
<text text-anchor="start" x="698" y="-724" font-family="Cascadia Code NF" font-size="10.00">IsRequiredWhenUnused()</text>
<text text-anchor="start" x="684" y="-708" font-family="Cascadia Code NF" font-size="10.00">+</text>
<text text-anchor="start" x="698" y="-708" font-family="Cascadia Code NF" font-size="10.00">derived_this()</text>
<text text-anchor="start" x="684" y="-692" font-family="Cascadia Code NF" font-size="10.00">+</text>
<text text-anchor="start" x="698" y="-692" font-family="Cascadia Code NF" font-size="10.00">derived_this()</text>
<text text-anchor="start" x="684" y="-676" font-family="Cascadia Code NF" font-size="10.00">+</text>
<text text-anchor="start" x="698" y="-676" font-family="Cascadia Code NF" font-size="10.00">inputs()</text>
<text text-anchor="start" x="684" y="-660" font-family="Cascadia Code NF" font-size="10.00">+</text>
<text text-anchor="start" x="698" y="-660" font-family="Cascadia Code NF" font-size="10.00">inputs()</text>
<text text-anchor="start" x="684" y="-644" font-family="Cascadia Code NF" font-size="10.00">+</text>
<text text-anchor="start" x="698" y="-644" font-family="Cascadia Code NF" font-size="10.00">input()</text>
<text text-anchor="start" x="684" y="-628" font-family="Cascadia Code NF" font-size="10.00">+</text>
<text text-anchor="start" x="698" y="-628" font-family="Cascadia Code NF" font-size="10.00">input()</text>
<text text-anchor="start" x="684" y="-612" font-family="Cascadia Code NF" font-size="10.00">+</text>
<text text-anchor="start" x="698" y="-612" font-family="Cascadia Code NF" font-size="10.00">input()</text>
<text text-anchor="start" x="684" y="-596" font-family="Cascadia Code NF" font-size="10.00">+</text>
<text text-anchor="start" x="698" y="-596" font-family="Cascadia Code NF" font-size="10.00">StorageSlotCount()</text>
<text text-anchor="start" x="684" y="-580" font-family="Cascadia Code NF" font-size="10.00">+</text>
<text text-anchor="start" x="698" y="-580" font-family="Cascadia Code NF" font-size="10.00">OperationT()</text>
<text text-anchor="start" x="698" y="-564" font-family="Cascadia Code NF" font-size="10.00">and 7 more...</text>
<text text-anchor="start" x="684" y="-548" font-family="Cascadia Code NF" font-size="10.00">+</text>
<text text-anchor="start" x="698" y="-548" font-family="Cascadia Code NF" font-size="10.00">Effects()</text>
<text text-anchor="start" x="684" y="-532" font-family="Cascadia Code NF" font-size="10.00">+</text>
<text text-anchor="start" x="698" y="-532" font-family="Cascadia Code NF" font-size="10.00">IsBlockTerminator()</text>
<text text-anchor="start" x="684" y="-516" font-family="Cascadia Code NF" font-size="10.00">+</text>
<text text-anchor="start" x="698" y="-516" font-family="Cascadia Code NF" font-size="10.00">EffectsIfStatic()</text>
<text text-anchor="start" x="684" y="-500" font-family="Cascadia Code NF" font-size="10.00">+</text>
<text text-anchor="start" x="698" y="-500" font-family="Cascadia Code NF" font-size="10.00">StorageSlotCount()</text>
<text text-anchor="start" x="684" y="-484" font-family="Cascadia Code NF" font-size="10.00">+</text>
<text text-anchor="start" x="698" y="-484" font-family="Cascadia Code NF" font-size="10.00">New()</text>
<text text-anchor="start" x="684" y="-468" font-family="Cascadia Code NF" font-size="10.00">+</text>
<text text-anchor="start" x="698" y="-468" font-family="Cascadia Code NF" font-size="10.00">New()</text>
<polygon fill="#bfbfbf" stroke="#bfbfbf" points="676,-751.5 676,-751.5 842,-751.5 842,-751.5 676,-751.5"/>
<polygon fill="#bfbfbf" stroke="#bfbfbf" points="676,-735.5 676,-735.5 842,-735.5 842,-735.5 676,-735.5"/>
<polygon fill="none" stroke="#bfbfbf" points="676,-461.5 676,-795.5 842,-795.5 842,-461.5 676,-461.5"/>
</a>
</g>
</g>
<!-- Node3&#45;&gt;Node2 -->
<g id="edge2_Node000002_Node000003" class="edge">
<title>Node3&#45;&gt;Node2</title>
<g id="a_edge2_Node000002_Node000003"><a xlink:title=" ">
<path fill="none" stroke="#63b8ff" d="M851.85,-579.47C888.38,-559.98 930.56,-537.46 968.11,-517.42"/>
<polygon fill="none" stroke="#63b8ff" points="850.22,-576.38 843.05,-584.17 853.52,-582.55 850.22,-576.38"/>
</a>
</g>
</g>
<!-- Node4 -->
<g id="Node000004" class="node">
<title>Node4</title>
<g id="a_Node000004"><a xlink:href="../../d6/da7/structv8_1_1internal_1_1compiler_1_1turboshaft_1_1Operation.html" target="_top" xlink:title=" ">
<polygon fill="white" stroke="none" points="490,-643 340,-643 340,-338 490,-338 490,-643"/>
<text text-anchor="start" x="346" y="-629.5" font-family="Cascadia Code NF" font-size="10.00">v8::internal::compiler</text>
<text text-anchor="start" x="346" y="-616.75" font-family="Cascadia Code NF" font-size="10.00">::turboshaft::Operation</text>
<text text-anchor="start" x="412" y="-600.5" font-family="Cascadia Code NF" font-size="10.00"> </text>
<text text-anchor="start" x="344" y="-584.5" font-family="Cascadia Code NF" font-size="10.00">+</text>
<text text-anchor="start" x="354" y="-584.5" font-family="Cascadia Code NF" font-size="10.00">inputs()</text>
<text text-anchor="start" x="344" y="-568.5" font-family="Cascadia Code NF" font-size="10.00">+</text>
<text text-anchor="start" x="354" y="-568.5" font-family="Cascadia Code NF" font-size="10.00">input()</text>
<text text-anchor="start" x="344" y="-552.5" font-family="Cascadia Code NF" font-size="10.00">+</text>
<text text-anchor="start" x="354" y="-552.5" font-family="Cascadia Code NF" font-size="10.00">StorageSlotCount()</text>
<text text-anchor="start" x="344" y="-536.5" font-family="Cascadia Code NF" font-size="10.00">+</text>
<text text-anchor="start" x="354" y="-536.5" font-family="Cascadia Code NF" font-size="10.00">outputs_rep()</text>
<text text-anchor="start" x="344" y="-520.5" font-family="Cascadia Code NF" font-size="10.00">+</text>
<text text-anchor="start" x="354" y="-520.5" font-family="Cascadia Code NF" font-size="10.00">inputs_rep()</text>
<text text-anchor="start" x="344" y="-504.5" font-family="Cascadia Code NF" font-size="10.00">+</text>
<text text-anchor="start" x="354" y="-504.5" font-family="Cascadia Code NF" font-size="10.00">Is()</text>
<text text-anchor="start" x="344" y="-488.5" font-family="Cascadia Code NF" font-size="10.00">+</text>
<text text-anchor="start" x="354" y="-488.5" font-family="Cascadia Code NF" font-size="10.00">Cast()</text>
<text text-anchor="start" x="344" y="-472.5" font-family="Cascadia Code NF" font-size="10.00">+</text>
<text text-anchor="start" x="354" y="-472.5" font-family="Cascadia Code NF" font-size="10.00">Cast()</text>
<text text-anchor="start" x="344" y="-456.5" font-family="Cascadia Code NF" font-size="10.00">+</text>
<text text-anchor="start" x="354" y="-456.5" font-family="Cascadia Code NF" font-size="10.00">TryCast()</text>
<text text-anchor="start" x="344" y="-440.5" font-family="Cascadia Code NF" font-size="10.00">+</text>
<text text-anchor="start" x="354" y="-440.5" font-family="Cascadia Code NF" font-size="10.00">TryCast()</text>
<text text-anchor="start" x="354" y="-424.5" font-family="Cascadia Code NF" font-size="10.00">and 7 more...</text>
<text text-anchor="start" x="344" y="-408.5" font-family="Cascadia Code NF" font-size="10.00">+</text>
<text text-anchor="start" x="354" y="-408.5" font-family="Cascadia Code NF" font-size="10.00">StorageSlotCount()</text>
<text text-anchor="start" x="344" y="-392.5" font-family="Cascadia Code NF" font-size="10.00">#</text>
<text text-anchor="start" x="354" y="-392.5" font-family="Cascadia Code NF" font-size="10.00">Operation()</text>
<text text-anchor="start" x="344" y="-376.5" font-family="Cascadia Code NF" font-size="10.00">#</text>
<text text-anchor="start" x="354" y="-376.5" font-family="Cascadia Code NF" font-size="10.00">V8_CLANG_NO_SANITIZE()</text>
<text text-anchor="start" x="344" y="-360.5" font-family="Cascadia Code NF" font-size="10.00">#</text>
<text text-anchor="start" x="354" y="-360.5" font-family="Cascadia Code NF" font-size="10.00">Operation()</text>
<text text-anchor="start" x="344" y="-344.5" font-family="Cascadia Code NF" font-size="10.00">#</text>
<text text-anchor="start" x="354" y="-344.5" font-family="Cascadia Code NF" font-size="10.00">operator=()</text>
<polygon fill="#bfbfbf" stroke="#bfbfbf" points="340,-612 340,-612 490,-612 490,-612 340,-612"/>
<polygon fill="#bfbfbf" stroke="#bfbfbf" points="340,-596 340,-596 490,-596 490,-596 340,-596"/>
<polygon fill="none" stroke="#bfbfbf" points="340,-338 340,-643 490,-643 490,-338 340,-338"/>
</a>
</g>
</g>
<!-- Node4&#45;&gt;Node3 -->
<g id="edge3_Node000003_Node000004" class="edge">
<title>Node4&#45;&gt;Node3</title>
<g id="a_edge3_Node000003_Node000004"><a xlink:title=" ">
<path fill="none" stroke="#63b8ff" d="M500.3,-524.52C553.96,-546.17 623.11,-574.07 676.26,-595.52"/>
<polygon fill="none" stroke="#63b8ff" points="501.77,-521.34 491.19,-520.84 499.16,-527.83 501.77,-521.34"/>
</a>
</g>
</g>
<!-- Node5 -->
<g id="Node000005" class="node">
<title>Node5</title>
<g id="a_Node000005"><a xlink:title=" ">
<polygon fill="white" stroke="none" points="109,-689.5 69,-689.5 69,-637.5 109,-637.5 109,-689.5"/>
<text text-anchor="start" x="74" y="-676" font-family="Cascadia Code NF" font-size="10.00">const</text>
<text text-anchor="start" x="86" y="-660" font-family="Cascadia Code NF" font-size="10.00"> </text>
<text text-anchor="start" x="86" y="-644" font-family="Cascadia Code NF" font-size="10.00"> </text>
<polygon fill="#bfbfbf" stroke="#bfbfbf" points="69,-671.5 69,-671.5 109,-671.5 109,-671.5 69,-671.5"/>
<polygon fill="#bfbfbf" stroke="#bfbfbf" points="69,-655.5 69,-655.5 109,-655.5 109,-655.5 69,-655.5"/>
<polygon fill="none" stroke="#bfbfbf" points="69,-637.5 69,-689.5 109,-689.5 109,-637.5 69,-637.5"/>
</a>
</g>
</g>
<!-- Node5&#45;&gt;Node3 -->
<g id="edge6_Node000003_Node000005" class="edge">
<title>Node5&#45;&gt;Node3</title>
<g id="a_edge6_Node000003_Node000005"><a xlink:title=" ">
<path fill="none" stroke="#63b8ff" d="M108.76,-663.4C165.98,-662.99 343.32,-661.08 490,-652.5 547.72,-649.13 612.26,-643.4 663.55,-638.39"/>
<polygon fill="none" stroke="#63b8ff" points="663.45,-638.4 669.03,-633.83 675.39,-637.23 669.81,-641.8 663.45,-638.4"/>
</a>
</g>
<text text-anchor="middle" x="415" y="-661.75" font-family="Cascadia Code NF" font-size="10.00" fill="grey"> +opcode</text>
</g>
<!-- Node5&#45;&gt;Node4 -->
<g id="edge4_Node000004_Node000005" class="edge">
<title>Node5&#45;&gt;Node4</title>
<g id="a_edge4_Node000004_Node000005"><a xlink:title=" ">
<path fill="none" stroke="#63b8ff" d="M108.82,-653.45C150.76,-631.06 254.1,-575.88 328.93,-535.92"/>
<polygon fill="none" stroke="#63b8ff" points="328.83,-535.97 332.24,-529.62 339.42,-530.32 336.01,-536.68 328.83,-535.97"/>
</a>
</g>
<text text-anchor="middle" x="259" y="-618.5" font-family="Cascadia Code NF" font-size="10.00" fill="grey"> +input_count</text>
<text text-anchor="middle" x="259" y="-605.75" font-family="Cascadia Code NF" font-size="10.00" fill="grey">+opcode</text>
</g>
<!-- Node6 -->
<g id="Node000006" class="node">
<title>Node6</title>
<g id="a_Node000006"><a xlink:href="../../dc/d00/classv8_1_1internal_1_1compiler_1_1turboshaft_1_1SaturatedUint8.html" target="_top" xlink:title=" ">
<polygon fill="white" stroke="none" points="178,-603 0,-603 0,-378 178,-378 178,-603"/>
<text text-anchor="start" x="5" y="-589.5" font-family="Cascadia Code NF" font-size="10.00">v8::internal::compiler</text>
<text text-anchor="start" x="5" y="-576.75" font-family="Cascadia Code NF" font-size="10.00">::turboshaft::SaturatedUint8</text>
<text text-anchor="start" x="86" y="-560.5" font-family="Cascadia Code NF" font-size="10.00"> </text>
<text text-anchor="start" x="20" y="-544.5" font-family="Cascadia Code NF" font-size="10.00">+</text>
<text text-anchor="start" x="46" y="-544.5" font-family="Cascadia Code NF" font-size="10.00">SaturatedUint8()</text>
<text text-anchor="start" x="20" y="-528.5" font-family="Cascadia Code NF" font-size="10.00">+</text>
<text text-anchor="start" x="46" y="-528.5" font-family="Cascadia Code NF" font-size="10.00">Incr()</text>
<text text-anchor="start" x="20" y="-512.5" font-family="Cascadia Code NF" font-size="10.00">+</text>
<text text-anchor="start" x="46" y="-512.5" font-family="Cascadia Code NF" font-size="10.00">Decr()</text>
<text text-anchor="start" x="20" y="-496.5" font-family="Cascadia Code NF" font-size="10.00">+</text>
<text text-anchor="start" x="46" y="-496.5" font-family="Cascadia Code NF" font-size="10.00">SetToZero()</text>
<text text-anchor="start" x="20" y="-480.5" font-family="Cascadia Code NF" font-size="10.00">+</text>
<text text-anchor="start" x="46" y="-480.5" font-family="Cascadia Code NF" font-size="10.00">SetToOne()</text>
<text text-anchor="start" x="20" y="-464.5" font-family="Cascadia Code NF" font-size="10.00">+</text>
<text text-anchor="start" x="46" y="-464.5" font-family="Cascadia Code NF" font-size="10.00">IsZero()</text>
<text text-anchor="start" x="20" y="-448.5" font-family="Cascadia Code NF" font-size="10.00">+</text>
<text text-anchor="start" x="46" y="-448.5" font-family="Cascadia Code NF" font-size="10.00">IsOne()</text>
<text text-anchor="start" x="20" y="-432.5" font-family="Cascadia Code NF" font-size="10.00">+</text>
<text text-anchor="start" x="46" y="-432.5" font-family="Cascadia Code NF" font-size="10.00">IsSaturated()</text>
<text text-anchor="start" x="20" y="-416.5" font-family="Cascadia Code NF" font-size="10.00">+</text>
<text text-anchor="start" x="46" y="-416.5" font-family="Cascadia Code NF" font-size="10.00">Get()</text>
<text text-anchor="start" x="20" y="-400.5" font-family="Cascadia Code NF" font-size="10.00">+</text>
<text text-anchor="start" x="46" y="-400.5" font-family="Cascadia Code NF" font-size="10.00">operator+=()</text>
<text text-anchor="start" x="20" y="-384.5" font-family="Cascadia Code NF" font-size="10.00">+</text>
<text text-anchor="start" x="46" y="-384.5" font-family="Cascadia Code NF" font-size="10.00">FromSize()</text>
<polygon fill="#bfbfbf" stroke="#bfbfbf" points="0,-572 0,-572 178,-572 178,-572 0,-572"/>
<polygon fill="#bfbfbf" stroke="#bfbfbf" points="0,-556 0,-556 178,-556 178,-556 0,-556"/>
<polygon fill="none" stroke="#bfbfbf" points="0,-378 0,-603 178,-603 178,-378 0,-378"/>
</a>
</g>
</g>
<!-- Node6&#45;&gt;Node4 -->
<g id="edge5_Node000004_Node000006" class="edge">
<title>Node6&#45;&gt;Node4</title>
<g id="a_edge5_Node000004_Node000006"><a xlink:title=" ">
<path fill="none" stroke="#63b8ff" d="M177.68,-490.5C224.19,-490.5 281.13,-490.5 327.47,-490.5"/>
<polygon fill="none" stroke="#63b8ff" points="327.34,-490.5 333.34,-486.5 339.34,-490.5 333.34,-494.5 327.34,-490.5"/>
</a>
</g>
<text text-anchor="middle" x="259" y="-493.75" font-family="Cascadia Code NF" font-size="10.00" fill="grey"> +saturated_use_count</text>
</g>
<!-- Node7 -->
<g id="Node000007" class="node">
<title>Node7</title>
<g id="a_Node000007"><a xlink:title=" ">
<polygon fill="white" stroke="none" points="788,-443.5 730,-443.5 730,-391.5 788,-391.5 788,-443.5"/>
<text text-anchor="start" x="735" y="-430" font-family="Cascadia Code NF" font-size="10.00">uint16_t</text>
<text text-anchor="start" x="756" y="-414" font-family="Cascadia Code NF" font-size="10.00"> </text>
<text text-anchor="start" x="756" y="-398" font-family="Cascadia Code NF" font-size="10.00"> </text>
<polygon fill="#bfbfbf" stroke="#bfbfbf" points="730,-425.5 730,-425.5 788,-425.5 788,-425.5 730,-425.5"/>
<polygon fill="#bfbfbf" stroke="#bfbfbf" points="730,-409.5 730,-409.5 788,-409.5 788,-409.5 730,-409.5"/>
<polygon fill="none" stroke="#bfbfbf" points="730,-391.5 730,-443.5 788,-443.5 788,-391.5 730,-391.5"/>
</a>
</g>
</g>
<!-- Node7&#45;&gt;Node2 -->
<g id="edge7_Node000002_Node000007" class="edge">
<title>Node7&#45;&gt;Node2</title>
<g id="a_edge7_Node000002_Node000007"><a xlink:title=" ">
<path fill="none" stroke="#63b8ff" d="M787.87,-421.53C825.45,-426.97 894.66,-436.98 955.24,-445.75"/>
<polygon fill="none" stroke="#63b8ff" points="955.25,-445.75 961.76,-442.65 967.12,-447.47 960.61,-450.57 955.25,-445.75"/>
</a>
</g>
<text text-anchor="middle" x="911" y="-446.75" font-family="Cascadia Code NF" font-size="10.00" fill="grey"> +input_count</text>
</g>
<!-- Node8 -->
<g id="Node000008" class="node">
<title>Node8</title>
<g id="a_Node000008"><a xlink:title=" ">
<polygon fill="white" stroke="none" points="1134,-381.5 1010,-381.5 1010,-329.5 1134,-329.5 1134,-381.5"/>
<text text-anchor="start" x="1015" y="-368" font-family="Cascadia Code NF" font-size="10.00">CreateArgumentsType</text>
<text text-anchor="start" x="1069" y="-352" font-family="Cascadia Code NF" font-size="10.00"> </text>
<text text-anchor="start" x="1069" y="-336" font-family="Cascadia Code NF" font-size="10.00"> </text>
<polygon fill="#bfbfbf" stroke="#bfbfbf" points="1010,-363.5 1010,-363.5 1134,-363.5 1134,-363.5 1010,-363.5"/>
<polygon fill="#bfbfbf" stroke="#bfbfbf" points="1010,-347.5 1010,-347.5 1134,-347.5 1134,-347.5 1010,-347.5"/>
<polygon fill="none" stroke="#bfbfbf" points="1010,-329.5 1010,-381.5 1134,-381.5 1134,-329.5 1010,-329.5"/>
</a>
</g>
</g>
<!-- Node8&#45;&gt;Node1 -->
<g id="edge8_Node000001_Node000008" class="edge">
<title>Node8&#45;&gt;Node1</title>
<g id="a_edge8_Node000001_Node000008"><a xlink:title=" ">
<path fill="none" stroke="#63b8ff" d="M1133.85,-350.11C1189.47,-345.18 1273.45,-337.74 1343.3,-331.55"/>
<polygon fill="none" stroke="#63b8ff" points="1343.31,-331.55 1348.94,-327.03 1355.27,-330.49 1349.64,-335 1343.31,-331.55"/>
</a>
</g>
<text text-anchor="middle" x="1266" y="-346.75" font-family="Cascadia Code NF" font-size="10.00" fill="grey"> +type</text>
</g>
<!-- Node9 -->
<g id="Node000009" class="node">
<title>Node9</title>
<g id="a_Node000009"><a xlink:href="../../d1/da0/classint.html" target="_top" xlink:title=" ">
<polygon fill="white" stroke="none" points="1086,-311.5 1058,-311.5 1058,-259.5 1086,-259.5 1086,-311.5"/>
<text text-anchor="start" x="1063" y="-298" font-family="Cascadia Code NF" font-size="10.00">int</text>
<text text-anchor="start" x="1069" y="-282" font-family="Cascadia Code NF" font-size="10.00"> </text>
<text text-anchor="start" x="1069" y="-266" font-family="Cascadia Code NF" font-size="10.00"> </text>
<polygon fill="#bfbfbf" stroke="#bfbfbf" points="1058,-293.5 1058,-293.5 1086,-293.5 1086,-293.5 1058,-293.5"/>
<polygon fill="#bfbfbf" stroke="#bfbfbf" points="1058,-277.5 1058,-277.5 1086,-277.5 1086,-277.5 1058,-277.5"/>
<polygon fill="none" stroke="#bfbfbf" points="1058,-259.5 1058,-311.5 1086,-311.5 1086,-259.5 1058,-259.5"/>
</a>
</g>
</g>
<!-- Node9&#45;&gt;Node1 -->
<g id="edge9_Node000001_Node000009" class="edge">
<title>Node9&#45;&gt;Node1</title>
<g id="a_edge9_Node000001_Node000009"><a xlink:title=" ">
<path fill="none" stroke="#63b8ff" d="M1085.69,-286.62C1124.94,-290.1 1247.41,-300.95 1343.28,-309.45"/>
<polygon fill="none" stroke="#63b8ff" points="1343.17,-309.44 1349.5,-305.98 1355.12,-310.5 1348.79,-313.95 1343.17,-309.44"/>
</a>
</g>
<text text-anchor="middle" x="1266" y="-310.75" font-family="Cascadia Code NF" font-size="10.00" fill="grey"> +formal_parameter_count</text>
</g>
<!-- Node10 -->
<g id="Node000010" class="node">
<title>Node10</title>
<g id="a_Node000010"><a xlink:href="../../d6/d36/structv8_1_1internal_1_1compiler_1_1turboshaft_1_1OpEffects.html" target="_top" xlink:title=" ">
<polygon fill="white" stroke="none" points="1165,-241 979,-241 979,0 1165,0 1165,-241"/>
<text text-anchor="start" x="1003" y="-227.5" font-family="Cascadia Code NF" font-size="10.00">v8::internal::compiler</text>
<text text-anchor="start" x="1003" y="-214.75" font-family="Cascadia Code NF" font-size="10.00">::turboshaft::OpEffects</text>
<text text-anchor="start" x="1069" y="-198.5" font-family="Cascadia Code NF" font-size="10.00"> </text>
<text text-anchor="start" x="983" y="-182.5" font-family="Cascadia Code NF" font-size="10.00">+</text>
<text text-anchor="start" x="993" y="-182.5" font-family="Cascadia Code NF" font-size="10.00">OpEffects()</text>
<text text-anchor="start" x="983" y="-166.5" font-family="Cascadia Code NF" font-size="10.00">+</text>
<text text-anchor="start" x="993" y="-166.5" font-family="Cascadia Code NF" font-size="10.00">bits()</text>
<text text-anchor="start" x="983" y="-150.5" font-family="Cascadia Code NF" font-size="10.00">+</text>
<text text-anchor="start" x="993" y="-150.5" font-family="Cascadia Code NF" font-size="10.00">operator==()</text>
<text text-anchor="start" x="983" y="-134.5" font-family="Cascadia Code NF" font-size="10.00">+</text>
<text text-anchor="start" x="993" y="-134.5" font-family="Cascadia Code NF" font-size="10.00">operator!=()</text>
<text text-anchor="start" x="983" y="-118.5" font-family="Cascadia Code NF" font-size="10.00">+</text>
<text text-anchor="start" x="993" y="-118.5" font-family="Cascadia Code NF" font-size="10.00">operator|()</text>
<text text-anchor="start" x="983" y="-102.5" font-family="Cascadia Code NF" font-size="10.00">+</text>
<text text-anchor="start" x="993" y="-102.5" font-family="Cascadia Code NF" font-size="10.00">operator&amp;()</text>
<text text-anchor="start" x="983" y="-86.5" font-family="Cascadia Code NF" font-size="10.00">+</text>
<text text-anchor="start" x="993" y="-86.5" font-family="Cascadia Code NF" font-size="10.00">IsSubsetOf()</text>
<text text-anchor="start" x="983" y="-70.5" font-family="Cascadia Code NF" font-size="10.00">+</text>
<text text-anchor="start" x="993" y="-70.5" font-family="Cascadia Code NF" font-size="10.00">AssumesConsistentHeap()</text>
<text text-anchor="start" x="983" y="-54.5" font-family="Cascadia Code NF" font-size="10.00">+</text>
<text text-anchor="start" x="993" y="-54.5" font-family="Cascadia Code NF" font-size="10.00">CanAllocateWithoutIdentity()</text>
<text text-anchor="start" x="983" y="-38.5" font-family="Cascadia Code NF" font-size="10.00">+</text>
<text text-anchor="start" x="993" y="-38.5" font-family="Cascadia Code NF" font-size="10.00">CanAllocate()</text>
<text text-anchor="start" x="993" y="-22.5" font-family="Cascadia Code NF" font-size="10.00">and 22 more...</text>
<text text-anchor="start" x="983" y="-6.5" font-family="Cascadia Code NF" font-size="10.00">+</text>
<text text-anchor="start" x="993" y="-6.5" font-family="Cascadia Code NF" font-size="10.00">FromBits()</text>
<polygon fill="#bfbfbf" stroke="#bfbfbf" points="979,-210 979,-210 1165,-210 1165,-210 979,-210"/>
<polygon fill="#bfbfbf" stroke="#bfbfbf" points="979,-194 979,-194 1165,-194 1165,-194 979,-194"/>
<polygon fill="none" stroke="#bfbfbf" points="979,0 979,-241 1165,-241 1165,0 979,0"/>
</a>
</g>
</g>
<!-- Node10&#45;&gt;Node1 -->
<g id="edge10_Node000001_Node000010" class="edge">
<title>Node10&#45;&gt;Node1</title>
<g id="a_edge10_Node000001_Node000010"><a xlink:title=" ">
<path fill="none" stroke="#63b8ff" d="M1164.61,-166.89C1218.14,-193.99 1286.39,-228.54 1344.6,-258.02"/>
<polygon fill="none" stroke="#63b8ff" points="1344.59,-258.01 1351.75,-257.15 1355.29,-263.43 1348.13,-264.29 1344.59,-258.01"/>
</a>
</g>
<text text-anchor="middle" x="1266" y="-252.75" font-family="Cascadia Code NF" font-size="10.00" fill="grey"> +effects</text>
</g>
<!-- Node11 -->
<g id="Node000011" class="node">
<title>Node11</title>
<g id="a_Node000011"><a xlink:href="../../d5/d34/structv8_1_1internal_1_1compiler_1_1turboshaft_1_1EffectDimensions.html" target="_top" xlink:title=" ">
<polygon fill="white" stroke="none" points="854,-185 664,-185 664,-56 854,-56 854,-185"/>
<text text-anchor="start" x="669" y="-171.5" font-family="Cascadia Code NF" font-size="10.00">v8::internal::compiler</text>
<text text-anchor="start" x="669" y="-158.75" font-family="Cascadia Code NF" font-size="10.00">::turboshaft::EffectDimensions</text>
<text text-anchor="start" x="756" y="-142.5" font-family="Cascadia Code NF" font-size="10.00"> </text>
<text text-anchor="start" x="684" y="-126.5" font-family="Cascadia Code NF" font-size="10.00">+</text>
<text text-anchor="start" x="710" y="-126.5" font-family="Cascadia Code NF" font-size="10.00">EffectDimensions()</text>
<text text-anchor="start" x="684" y="-110.5" font-family="Cascadia Code NF" font-size="10.00">+</text>
<text text-anchor="start" x="710" y="-110.5" font-family="Cascadia Code NF" font-size="10.00">bits()</text>
<text text-anchor="start" x="684" y="-94.5" font-family="Cascadia Code NF" font-size="10.00">+</text>
<text text-anchor="start" x="710" y="-94.5" font-family="Cascadia Code NF" font-size="10.00">operator==()</text>
<text text-anchor="start" x="684" y="-78.5" font-family="Cascadia Code NF" font-size="10.00">+</text>
<text text-anchor="start" x="710" y="-78.5" font-family="Cascadia Code NF" font-size="10.00">operator!=()</text>
<text text-anchor="start" x="684" y="-62.5" font-family="Cascadia Code NF" font-size="10.00">+</text>
<text text-anchor="start" x="710" y="-62.5" font-family="Cascadia Code NF" font-size="10.00">FromBits()</text>
<polygon fill="#bfbfbf" stroke="#bfbfbf" points="664,-154 664,-154 854,-154 854,-154 664,-154"/>
<polygon fill="#bfbfbf" stroke="#bfbfbf" points="664,-138 664,-138 854,-138 854,-138 664,-138"/>
<polygon fill="none" stroke="#bfbfbf" points="664,-56 664,-185 854,-185 854,-56 664,-56"/>
</a>
</g>
</g>
<!-- Node11&#45;&gt;Node10 -->
<g id="edge11_Node000010_Node000011" class="edge">
<title>Node11&#45;&gt;Node10</title>
<g id="a_edge11_Node000010_Node000011"><a xlink:title=" ">
<path fill="none" stroke="#63b8ff" d="M853.73,-120.5C889.25,-120.5 929.9,-120.5 966.36,-120.5"/>
<polygon fill="none" stroke="#63b8ff" points="966.16,-120.5 972.16,-116.5 978.16,-120.5 972.16,-124.5 966.16,-120.5"/>
</a>
</g>
<text text-anchor="middle" x="911" y="-136.5" font-family="Cascadia Code NF" font-size="10.00" fill="grey"> +consumes</text>
<text text-anchor="middle" x="911" y="-123.75" font-family="Cascadia Code NF" font-size="10.00" fill="grey">+produces</text>
</g>
<!-- Node12 -->
<g id="Node000012" class="node">
<title>Node12</title>
<g id="a_Node000012"><a xlink:title=" ">
<polygon fill="white" stroke="none" points="432,-171.5 398,-171.5 398,-119.5 432,-119.5 432,-171.5"/>
<text text-anchor="start" x="403" y="-158" font-family="Cascadia Code NF" font-size="10.00">bool</text>
<text text-anchor="start" x="412" y="-142" font-family="Cascadia Code NF" font-size="10.00"> </text>
<text text-anchor="start" x="412" y="-126" font-family="Cascadia Code NF" font-size="10.00"> </text>
<polygon fill="#bfbfbf" stroke="#bfbfbf" points="398,-153.5 398,-153.5 432,-153.5 432,-153.5 398,-153.5"/>
<polygon fill="#bfbfbf" stroke="#bfbfbf" points="398,-137.5 398,-137.5 432,-137.5 432,-137.5 398,-137.5"/>
<polygon fill="none" stroke="#bfbfbf" points="398,-119.5 398,-171.5 432,-171.5 432,-119.5 398,-119.5"/>
</a>
</g>
</g>
<!-- Node12&#45;&gt;Node10 -->
<g id="edge14_Node000010_Node000012" class="edge">
<title>Node12&#45;&gt;Node10</title>
<g id="a_edge14_Node000010_Node000012"><a xlink:title=" ">
<path fill="none" stroke="#63b8ff" d="M431.94,-161.23C449.07,-176.94 477.92,-200.07 508,-209.5 559.97,-225.8 852.93,-194.72 854,-194.5 891.6,-186.87 931.65,-174.49 966.97,-162.03"/>
<polygon fill="none" stroke="#63b8ff" points="967.11,-161.98 971.41,-156.19 978.41,-157.93 974.11,-163.72 967.11,-161.98"/>
</a>
</g>
<text text-anchor="middle" x="759" y="-238.25" font-family="Cascadia Code NF" font-size="10.00" fill="grey"> +can_allocate</text>
<text text-anchor="middle" x="759" y="-225.5" font-family="Cascadia Code NF" font-size="10.00" fill="grey">+can_create_identity</text>
<text text-anchor="middle" x="759" y="-212.75" font-family="Cascadia Code NF" font-size="10.00" fill="grey">+required_when_unused</text>
</g>
<!-- Node12&#45;&gt;Node11 -->
<g id="edge12_Node000011_Node000012" class="edge">
<title>Node12&#45;&gt;Node11</title>
<g id="a_edge12_Node000011_Node000012"><a xlink:title=" ">
<path fill="none" stroke="#63b8ff" d="M431.69,-139.81C449.79,-133.56 480.59,-123.94 508,-120.25 554.69,-113.96 606.72,-113.05 651.18,-114.09"/>
<polygon fill="none" stroke="#63b8ff" points="651.22,-114.09 657.33,-110.25 663.21,-114.42 657.1,-118.25 651.22,-114.09"/>
</a>
</g>
<text text-anchor="middle" x="577" y="-199.25" font-family="Cascadia Code NF" font-size="10.00" fill="grey"> +after_raw_heap_access</text>
<text text-anchor="middle" x="577" y="-186.5" font-family="Cascadia Code NF" font-size="10.00" fill="grey">+before_raw_heap_access</text>
<text text-anchor="middle" x="577" y="-173.75" font-family="Cascadia Code NF" font-size="10.00" fill="grey">+control_flow</text>
<text text-anchor="middle" x="577" y="-161" font-family="Cascadia Code NF" font-size="10.00" fill="grey">+load_heap_memory</text>
<text text-anchor="middle" x="577" y="-148.25" font-family="Cascadia Code NF" font-size="10.00" fill="grey">+load_off_heap_memory</text>
<text text-anchor="middle" x="577" y="-135.5" font-family="Cascadia Code NF" font-size="10.00" fill="grey">+store_heap_memory</text>
<text text-anchor="middle" x="577" y="-122.75" font-family="Cascadia Code NF" font-size="10.00" fill="grey">+store_off_heap_memory</text>
</g>
<!-- Node13 -->
<g id="Node000013" class="node">
<title>Node13</title>
<g id="a_Node000013"><a xlink:title=" ">
<polygon fill="white" stroke="none" points="441,-82.5 389,-82.5 389,-30.5 441,-30.5 441,-82.5"/>
<text text-anchor="start" x="394" y="-69" font-family="Cascadia Code NF" font-size="10.00">uint8_t</text>
<text text-anchor="start" x="412" y="-53" font-family="Cascadia Code NF" font-size="10.00"> </text>
<text text-anchor="start" x="412" y="-37" font-family="Cascadia Code NF" font-size="10.00"> </text>
<polygon fill="#bfbfbf" stroke="#bfbfbf" points="389,-64.5 389,-64.5 441,-64.5 441,-64.5 389,-64.5"/>
<polygon fill="#bfbfbf" stroke="#bfbfbf" points="389,-48.5 389,-48.5 441,-48.5 441,-48.5 389,-48.5"/>
<polygon fill="none" stroke="#bfbfbf" points="389,-30.5 389,-82.5 441,-82.5 441,-30.5 389,-30.5"/>
</a>
</g>
</g>
<!-- Node13&#45;&gt;Node10 -->
<g id="edge15_Node000010_Node000013" class="edge">
<title>Node13&#45;&gt;Node10</title>
<g id="a_edge15_Node000010_Node000013"><a xlink:title=" ">
<path fill="none" stroke="#63b8ff" d="M440.55,-49.65C507.62,-31.99 699.3,11.47 854,-22 892.6,-30.35 932.59,-46.17 967.56,-62.73"/>
<polygon fill="none" stroke="#63b8ff" points="967.6,-62.75 974.74,-61.76 978.4,-67.97 971.26,-68.96 967.6,-62.75"/>
</a>
</g>
<text text-anchor="middle" x="759" y="-37.5" font-family="Cascadia Code NF" font-size="10.00" fill="grey"> +unused_padding_1</text>
<text text-anchor="middle" x="759" y="-24.75" font-family="Cascadia Code NF" font-size="10.00" fill="grey">+unused_padding_2</text>
</g>
<!-- Node13&#45;&gt;Node11 -->
<g id="edge13_Node000011_Node000013" class="edge">
<title>Node13&#45;&gt;Node11</title>
<g id="a_edge13_Node000011_Node000013"><a xlink:title=" ">
<path fill="none" stroke="#63b8ff" d="M440.9,-60.56C483.16,-67.51 571.58,-82.35 646,-96.75 647.86,-97.11 649.74,-97.48 651.63,-97.85"/>
<polygon fill="none" stroke="#63b8ff" points="651.59,-97.84 658.26,-95.09 663.36,-100.19 656.7,-102.94 651.59,-97.84"/>
</a>
</g>
<text text-anchor="middle" x="577" y="-99.75" font-family="Cascadia Code NF" font-size="10.00" fill="grey"> +unused_padding</text>
</g>
</g>
</svg>

<g id="navigator" transform="translate(0 0)" fill="#404254">
  <rect fill="#f2f5e9" fill-opacity="0.5" stroke="#606060" stroke-width=".5" x="0" y="0" width="60" height="60"/>
  <use id="zoomplus" xlink:href="#zoomPlus" x="17" y="9" onmousedown="handleZoom(evt,'in')"/>
  <use id="zoomminus" xlink:href="#zoomMin" x="42" y="9" onmousedown="handleZoom(evt,'out')"/>
  <use id="reset" xlink:href="#resetDef" x="30" y="36" onmousedown="handleReset()"/>
   <use id="arrowup" xlink:href="#arrowUp" x="0" y="0" onmousedown="handlePan(0,-1)"/>
  <use id="arrowright" xlink:href="#arrowRight" x="0" y="0" onmousedown="handlePan(1,0)"/>
  <use id="arrowdown" xlink:href="#arrowDown" x="0" y="0" onmousedown="handlePan(0,1)"/>
  <use id="arrowleft" xlink:href="#arrowLeft" x="0" y="0" onmousedown="handlePan(-1,0)"/>
</g>
<svg viewBox="0 0 15 15" width="100%" height="30px" preserveAspectRatio="xMaxYMin meet">
 <g id="arrow_out" transform="scale(0.3 0.3)">
  <a xlink:href="structv8_1_1internal_1_1compiler_1_1turboshaft_1_1NewArgumentsElementsOp__coll__graph_org.svg" target="_base">
   <rect id="button" ry="5" rx="5" y="6" x="6" height="38" width="38"
        fill="#f2f5e9" fill-opacity="0.5" stroke="#606060" stroke-width="1.0"/>
   <path id="arrow"
     d="M 11.500037,31.436501 C 11.940474,20.09759 22.043105,11.32322 32.158766,21.979434 L 37.068811,17.246167 C 37.068811,17.246167 37.088388,32 37.088388,32 L 22.160133,31.978069 C 22.160133,31.978069 26.997745,27.140456 26.997745,27.140456 C 18.528582,18.264221 13.291696,25.230495 11.500037,31.436501 z"
     style="fill:#404040;"/>
  </a>
 </g>
</svg>

<style type='text/css'>
<![CDATA[
[data-mouse-over-selected='false'] { opacity: 0.7; }
[data-mouse-over-selected='true']  { opacity: 1.0; }
]]>
</style>
<script type="application/ecmascript"><![CDATA[
document.addEventListener('DOMContentLoaded', (event) => {
  highlightEdges();
  highlightAdjacentNodes();
});
]]></script>
</svg>
