<?xml version="1.0" encoding="UTF-8" standalone="no"?>
<!DOCTYPE svg PUBLIC "-//W3C//DTD SVG 1.1//EN"
 "http://www.w3.org/Graphics/SVG/1.1/DTD/svg11.dtd">
<!-- Generated by graphviz version 11.0.0 (20240428.1522)
 -->
<!-- Title: v8::internal::maglev::NodeTMixin&lt; Base, Derived &gt; Pages: 1 -->
<svg width="262pt" height="137pt"
 viewBox="0.00 0.00 262.00 137.00" xmlns="http://www.w3.org/2000/svg" xmlns:xlink="http://www.w3.org/1999/xlink">

<svg id="main" version="1.1" xmlns="http://www.w3.org/2000/svg" xmlns:xlink="http://www.w3.org/1999/xlink" xml:space="preserve" onload="init(evt)">
<style type="text/css"><![CDATA[
.node, .edge {opacity: 0.7;}
.node.selected, .edge.selected {opacity: 1;}
.edge:hover path { stroke: red; }
.edge:hover polygon { stroke: red; fill: red; }
svg#main { background-color: #111; }
]]></style>
<script type="application/ecmascript" xlink:href="../../svg.min.js"/>
<svg id="graph" class="graph">
<g id="graph0" class="graph" transform="scale(1 1) rotate(0) translate(4 133)">
<title>v8::internal::maglev::NodeTMixin&lt; Base, Derived &gt;</title>
<!-- Node1 -->
<g id="Node000001" class="node">
<title>Node1</title>
<g id="a_Node000001"><a xlink:title=" ">
<polygon fill="#999999" stroke="none" points="254,-129 70,-129 70,0 254,0 254,-129"/>
<text text-anchor="start" x="75" y="-115.5" font-family="Cascadia Code NF" font-size="10.00">v8::internal::maglev</text>
<text text-anchor="start" x="75" y="-102.75" font-family="Cascadia Code NF" font-size="10.00">::NodeTMixin&lt; Base, Derived &gt;</text>
<text text-anchor="start" x="159" y="-86.5" font-family="Cascadia Code NF" font-size="10.00"> </text>
<text text-anchor="start" x="97.5" y="-70.5" font-family="Cascadia Code NF" font-size="10.00">+</text>
<text text-anchor="start" x="131" y="-70.5" font-family="Cascadia Code NF" font-size="10.00">opcode()</text>
<text text-anchor="start" x="97.5" y="-54.5" font-family="Cascadia Code NF" font-size="10.00">+</text>
<text text-anchor="start" x="131" y="-54.5" font-family="Cascadia Code NF" font-size="10.00">properties()</text>
<text text-anchor="start" x="97.5" y="-38.5" font-family="Cascadia Code NF" font-size="10.00">+</text>
<text text-anchor="start" x="131" y="-38.5" font-family="Cascadia Code NF" font-size="10.00">New()</text>
<text text-anchor="start" x="97.5" y="-22.5" font-family="Cascadia Code NF" font-size="10.00">+</text>
<text text-anchor="start" x="131" y="-22.5" font-family="Cascadia Code NF" font-size="10.00">New()</text>
<text text-anchor="start" x="97.5" y="-6.5" font-family="Cascadia Code NF" font-size="10.00">#</text>
<text text-anchor="start" x="131" y="-6.5" font-family="Cascadia Code NF" font-size="10.00">NodeTMixin()</text>
<polygon fill="#666666" stroke="#666666" points="70,-98 70,-98 254,-98 254,-98 70,-98"/>
<polygon fill="#666666" stroke="#666666" points="70,-82 70,-82 254,-82 254,-82 70,-82"/>
<polygon fill="none" stroke="#666666" points="70,0 70,-129 254,-129 254,0 70,0"/>
</a>
</g>
</g>
<!-- Node2 -->
<g id="Node000002" class="node">
<title>Node2</title>
<g id="a_Node000002"><a xlink:title=" ">
<polygon fill="white" stroke="none" points="34,-90.5 0,-90.5 0,-38.5 34,-38.5 34,-90.5"/>
<text text-anchor="start" x="5" y="-77" font-family="Cascadia Code NF" font-size="10.00">Base</text>
<text text-anchor="start" x="14" y="-61" font-family="Cascadia Code NF" font-size="10.00"> </text>
<text text-anchor="start" x="14" y="-45" font-family="Cascadia Code NF" font-size="10.00"> </text>
<polygon fill="#bfbfbf" stroke="#bfbfbf" points="0,-72.5 0,-72.5 34,-72.5 34,-72.5 0,-72.5"/>
<polygon fill="#bfbfbf" stroke="#bfbfbf" points="0,-56.5 0,-56.5 34,-56.5 34,-56.5 0,-56.5"/>
<polygon fill="none" stroke="#bfbfbf" points="0,-38.5 0,-90.5 34,-90.5 34,-38.5 0,-38.5"/>
</a>
</g>
</g>
<!-- Node2&#45;&gt;Node1 -->
<g id="edge1_Node000001_Node000002" class="edge">
<title>Node2&#45;&gt;Node1</title>
<g id="a_edge1_Node000001_Node000002"><a xlink:title=" ">
<path fill="none" stroke="#63b8ff" d="M45.25,-64.5C52.68,-64.5 61.15,-64.5 70.07,-64.5"/>
<polygon fill="none" stroke="#63b8ff" points="45.36,-61 35.36,-64.5 45.36,-68 45.36,-61"/>
</a>
</g>
</g>
</g>
</svg>
</svg>

<style type='text/css'>
<![CDATA[
[data-mouse-over-selected='false'] { opacity: 0.7; }
[data-mouse-over-selected='true']  { opacity: 1.0; }
]]>
</style>
<script type="application/ecmascript"><![CDATA[
document.addEventListener('DOMContentLoaded', (event) => {
  highlightEdges();
  highlightAdjacentNodes();
});
]]></script>
</svg>
