<?xml version="1.0" encoding="UTF-8" standalone="no"?>
<!DOCTYPE svg PUBLIC "-//W3C//DTD SVG 1.1//EN"
 "http://www.w3.org/Graphics/SVG/1.1/DTD/svg11.dtd">
<!-- Generated by graphviz version 11.0.0 (20240428.1522)
 -->
<!-- Title: v8::internal::compiler::turboshaft::SelectOp Pages: 1 -->
<svg width="1500pt" height="1207pt"
 viewBox="0.00 0.00 1500.00 1206.50" xmlns="http://www.w3.org/2000/svg" xmlns:xlink="http://www.w3.org/1999/xlink">
<g id="graph0" class="graph" transform="scale(1 1) rotate(0) translate(4 1202.5)">
<title>v8::internal::compiler::turboshaft::SelectOp</title>
<!-- Node1 -->
<g id="Node000001" class="node">
<title>Node1</title>
<g id="a_Node000001"><a xlink:title=" ">
<polygon fill="#999999" stroke="none" points="1492,-444 1350,-444 1350,-267 1492,-267 1492,-444"/>
<text text-anchor="start" x="1355" y="-430.5" font-family="Cascadia Code NF" font-size="10.00">v8::internal::compiler</text>
<text text-anchor="start" x="1355" y="-417.75" font-family="Cascadia Code NF" font-size="10.00">::turboshaft::SelectOp</text>
<text text-anchor="start" x="1418" y="-401.5" font-family="Cascadia Code NF" font-size="10.00"> </text>
<text text-anchor="start" x="1365.5" y="-385.5" font-family="Cascadia Code NF" font-size="10.00">+</text>
<text text-anchor="start" x="1387" y="-385.5" font-family="Cascadia Code NF" font-size="10.00">outputs_rep()</text>
<text text-anchor="start" x="1365.5" y="-369.5" font-family="Cascadia Code NF" font-size="10.00">+</text>
<text text-anchor="start" x="1387" y="-369.5" font-family="Cascadia Code NF" font-size="10.00">inputs_rep()</text>
<text text-anchor="start" x="1365.5" y="-353.5" font-family="Cascadia Code NF" font-size="10.00">+</text>
<text text-anchor="start" x="1387" y="-353.5" font-family="Cascadia Code NF" font-size="10.00">SelectOp()</text>
<text text-anchor="start" x="1365.5" y="-337.5" font-family="Cascadia Code NF" font-size="10.00">+</text>
<text text-anchor="start" x="1387" y="-337.5" font-family="Cascadia Code NF" font-size="10.00">Validate()</text>
<text text-anchor="start" x="1365.5" y="-321.5" font-family="Cascadia Code NF" font-size="10.00">+</text>
<text text-anchor="start" x="1387" y="-321.5" font-family="Cascadia Code NF" font-size="10.00">cond()</text>
<text text-anchor="start" x="1365.5" y="-305.5" font-family="Cascadia Code NF" font-size="10.00">+</text>
<text text-anchor="start" x="1387" y="-305.5" font-family="Cascadia Code NF" font-size="10.00">vtrue()</text>
<text text-anchor="start" x="1365.5" y="-289.5" font-family="Cascadia Code NF" font-size="10.00">+</text>
<text text-anchor="start" x="1387" y="-289.5" font-family="Cascadia Code NF" font-size="10.00">vfalse()</text>
<text text-anchor="start" x="1365.5" y="-273.5" font-family="Cascadia Code NF" font-size="10.00">+</text>
<text text-anchor="start" x="1387" y="-273.5" font-family="Cascadia Code NF" font-size="10.00">options()</text>
<polygon fill="#666666" stroke="#666666" points="1350,-413 1350,-413 1492,-413 1492,-413 1350,-413"/>
<polygon fill="#666666" stroke="#666666" points="1350,-397 1350,-397 1492,-397 1492,-397 1350,-397"/>
<polygon fill="none" stroke="#666666" points="1350,-267 1350,-444 1492,-444 1492,-267 1350,-267"/>
</a>
</g>
</g>
<!-- Node2 -->
<g id="Node000002" class="node">
<title>Node2</title>
<g id="a_Node000002"><a xlink:href="$da/d8a/structv8_1_1internal_1_1compiler_1_1turboshaft_1_1FixedArityOperationT.html" xlink:title=" ">
<polygon fill="white" stroke="none" points="1251,-893.5 1043,-893.5 1043,-767.5 1251,-767.5 1251,-893.5"/>
<text text-anchor="start" x="1048" y="-880" font-family="Cascadia Code NF" font-size="10.00">v8::internal::compiler</text>
<text text-anchor="start" x="1048" y="-867.25" font-family="Cascadia Code NF" font-size="10.00">::turboshaft::FixedArityOperation</text>
<text text-anchor="start" x="1099" y="-854.5" font-family="Cascadia Code NF" font-size="10.00">T&lt; 3, SelectOp &gt;</text>
<text text-anchor="start" x="1144" y="-838" font-family="Cascadia Code NF" font-size="10.00"> </text>
<text text-anchor="start" x="1061.5" y="-822" font-family="Cascadia Code NF" font-size="10.00">+</text>
<text text-anchor="start" x="1086" y="-822" font-family="Cascadia Code NF" font-size="10.00">FixedArityOperationT()</text>
<text text-anchor="start" x="1061.5" y="-806" font-family="Cascadia Code NF" font-size="10.00">+</text>
<text text-anchor="start" x="1086" y="-806" font-family="Cascadia Code NF" font-size="10.00">ExplodeImpl()</text>
<text text-anchor="start" x="1061.5" y="-790" font-family="Cascadia Code NF" font-size="10.00">+</text>
<text text-anchor="start" x="1086" y="-790" font-family="Cascadia Code NF" font-size="10.00">Explode()</text>
<text text-anchor="start" x="1061.5" y="-774" font-family="Cascadia Code NF" font-size="10.00">+</text>
<text text-anchor="start" x="1086" y="-774" font-family="Cascadia Code NF" font-size="10.00">New()</text>
<polygon fill="#bfbfbf" stroke="#bfbfbf" points="1043,-849.5 1043,-849.5 1251,-849.5 1251,-849.5 1043,-849.5"/>
<polygon fill="#bfbfbf" stroke="#bfbfbf" points="1043,-833.5 1043,-833.5 1251,-833.5 1251,-833.5 1043,-833.5"/>
<polygon fill="none" stroke="#bfbfbf" points="1043,-767.5 1043,-893.5 1251,-893.5 1251,-767.5 1043,-767.5"/>
</a>
</g>
</g>
<!-- Node2&#45;&gt;Node1 -->
<g id="edge1_Node000001_Node000002" class="edge">
<title>Node2&#45;&gt;Node1</title>
<g id="a_edge1_Node000001_Node000002"><a xlink:title=" ">
<path fill="none" stroke="#63b8ff" d="M1258.37,-760.45C1258.92,-759.8 1259.46,-759.15 1260,-758.5 1336.55,-665.51 1379.91,-531.33 1401.67,-443.78"/>
<polygon fill="none" stroke="#63b8ff" points="1256.07,-757.77 1251.84,-767.49 1261.21,-762.53 1256.07,-757.77"/>
</a>
</g>
</g>
<!-- Node3 -->
<g id="Node000003" class="node">
<title>Node3</title>
<g id="a_Node000003"><a xlink:href="$d5/d1a/structv8_1_1internal_1_1compiler_1_1turboshaft_1_1OperationT.html" xlink:title=" ">
<polygon fill="white" stroke="none" points="869,-1198.5 715,-1198.5 715,-864.5 869,-864.5 869,-1198.5"/>
<text text-anchor="start" x="720" y="-1185" font-family="Cascadia Code NF" font-size="10.00">v8::internal::compiler</text>
<text text-anchor="start" x="720" y="-1172.25" font-family="Cascadia Code NF" font-size="10.00">::turboshaft::OperationT</text>
<text text-anchor="start" x="756" y="-1159.5" font-family="Cascadia Code NF" font-size="10.00">&lt; SelectOp &gt;</text>
<text text-anchor="start" x="789" y="-1143" font-family="Cascadia Code NF" font-size="10.00"> </text>
<text text-anchor="start" x="720" y="-1127" font-family="Cascadia Code NF" font-size="10.00">+</text>
<text text-anchor="start" x="731" y="-1127" font-family="Cascadia Code NF" font-size="10.00">IsRequiredWhenUnused()</text>
<text text-anchor="start" x="720" y="-1111" font-family="Cascadia Code NF" font-size="10.00">+</text>
<text text-anchor="start" x="731" y="-1111" font-family="Cascadia Code NF" font-size="10.00">derived_this()</text>
<text text-anchor="start" x="720" y="-1095" font-family="Cascadia Code NF" font-size="10.00">+</text>
<text text-anchor="start" x="731" y="-1095" font-family="Cascadia Code NF" font-size="10.00">derived_this()</text>
<text text-anchor="start" x="720" y="-1079" font-family="Cascadia Code NF" font-size="10.00">+</text>
<text text-anchor="start" x="731" y="-1079" font-family="Cascadia Code NF" font-size="10.00">inputs()</text>
<text text-anchor="start" x="720" y="-1063" font-family="Cascadia Code NF" font-size="10.00">+</text>
<text text-anchor="start" x="731" y="-1063" font-family="Cascadia Code NF" font-size="10.00">inputs()</text>
<text text-anchor="start" x="720" y="-1047" font-family="Cascadia Code NF" font-size="10.00">+</text>
<text text-anchor="start" x="731" y="-1047" font-family="Cascadia Code NF" font-size="10.00">input()</text>
<text text-anchor="start" x="720" y="-1031" font-family="Cascadia Code NF" font-size="10.00">+</text>
<text text-anchor="start" x="731" y="-1031" font-family="Cascadia Code NF" font-size="10.00">input()</text>
<text text-anchor="start" x="720" y="-1015" font-family="Cascadia Code NF" font-size="10.00">+</text>
<text text-anchor="start" x="731" y="-1015" font-family="Cascadia Code NF" font-size="10.00">input()</text>
<text text-anchor="start" x="720" y="-999" font-family="Cascadia Code NF" font-size="10.00">+</text>
<text text-anchor="start" x="731" y="-999" font-family="Cascadia Code NF" font-size="10.00">StorageSlotCount()</text>
<text text-anchor="start" x="720" y="-983" font-family="Cascadia Code NF" font-size="10.00">+</text>
<text text-anchor="start" x="731" y="-983" font-family="Cascadia Code NF" font-size="10.00">OperationT()</text>
<text text-anchor="start" x="731" y="-967" font-family="Cascadia Code NF" font-size="10.00">and 7 more...</text>
<text text-anchor="start" x="720" y="-951" font-family="Cascadia Code NF" font-size="10.00">+</text>
<text text-anchor="start" x="731" y="-951" font-family="Cascadia Code NF" font-size="10.00">Effects()</text>
<text text-anchor="start" x="720" y="-935" font-family="Cascadia Code NF" font-size="10.00">+</text>
<text text-anchor="start" x="731" y="-935" font-family="Cascadia Code NF" font-size="10.00">IsBlockTerminator()</text>
<text text-anchor="start" x="720" y="-919" font-family="Cascadia Code NF" font-size="10.00">+</text>
<text text-anchor="start" x="731" y="-919" font-family="Cascadia Code NF" font-size="10.00">EffectsIfStatic()</text>
<text text-anchor="start" x="720" y="-903" font-family="Cascadia Code NF" font-size="10.00">+</text>
<text text-anchor="start" x="731" y="-903" font-family="Cascadia Code NF" font-size="10.00">StorageSlotCount()</text>
<text text-anchor="start" x="720" y="-887" font-family="Cascadia Code NF" font-size="10.00">+</text>
<text text-anchor="start" x="731" y="-887" font-family="Cascadia Code NF" font-size="10.00">New()</text>
<text text-anchor="start" x="720" y="-871" font-family="Cascadia Code NF" font-size="10.00">+</text>
<text text-anchor="start" x="731" y="-871" font-family="Cascadia Code NF" font-size="10.00">New()</text>
<polygon fill="#bfbfbf" stroke="#bfbfbf" points="715,-1154.5 715,-1154.5 869,-1154.5 869,-1154.5 715,-1154.5"/>
<polygon fill="#bfbfbf" stroke="#bfbfbf" points="715,-1138.5 715,-1138.5 869,-1138.5 869,-1138.5 715,-1138.5"/>
<polygon fill="none" stroke="#bfbfbf" points="715,-864.5 715,-1198.5 869,-1198.5 869,-864.5 715,-864.5"/>
</a>
</g>
</g>
<!-- Node3&#45;&gt;Node2 -->
<g id="edge2_Node000002_Node000003" class="edge">
<title>Node3&#45;&gt;Node2</title>
<g id="a_edge2_Node000002_Node000003"><a xlink:title=" ">
<path fill="none" stroke="#63b8ff" d="M878.47,-982.83C928.11,-954.57 990.96,-918.78 1043.28,-888.99"/>
<polygon fill="none" stroke="#63b8ff" points="877,-979.64 870.04,-987.63 880.46,-985.72 877,-979.64"/>
</a>
</g>
</g>
<!-- Node4 -->
<g id="Node000004" class="node">
<title>Node4</title>
<g id="a_Node000004"><a xlink:href="$d6/da7/structv8_1_1internal_1_1compiler_1_1turboshaft_1_1Operation.html" xlink:title=" ">
<polygon fill="white" stroke="none" points="490,-1046 340,-1046 340,-741 490,-741 490,-1046"/>
<text text-anchor="start" x="346" y="-1032.5" font-family="Cascadia Code NF" font-size="10.00">v8::internal::compiler</text>
<text text-anchor="start" x="346" y="-1019.75" font-family="Cascadia Code NF" font-size="10.00">::turboshaft::Operation</text>
<text text-anchor="start" x="412" y="-1003.5" font-family="Cascadia Code NF" font-size="10.00"> </text>
<text text-anchor="start" x="344" y="-987.5" font-family="Cascadia Code NF" font-size="10.00">+</text>
<text text-anchor="start" x="354" y="-987.5" font-family="Cascadia Code NF" font-size="10.00">inputs()</text>
<text text-anchor="start" x="344" y="-971.5" font-family="Cascadia Code NF" font-size="10.00">+</text>
<text text-anchor="start" x="354" y="-971.5" font-family="Cascadia Code NF" font-size="10.00">input()</text>
<text text-anchor="start" x="344" y="-955.5" font-family="Cascadia Code NF" font-size="10.00">+</text>
<text text-anchor="start" x="354" y="-955.5" font-family="Cascadia Code NF" font-size="10.00">StorageSlotCount()</text>
<text text-anchor="start" x="344" y="-939.5" font-family="Cascadia Code NF" font-size="10.00">+</text>
<text text-anchor="start" x="354" y="-939.5" font-family="Cascadia Code NF" font-size="10.00">outputs_rep()</text>
<text text-anchor="start" x="344" y="-923.5" font-family="Cascadia Code NF" font-size="10.00">+</text>
<text text-anchor="start" x="354" y="-923.5" font-family="Cascadia Code NF" font-size="10.00">inputs_rep()</text>
<text text-anchor="start" x="344" y="-907.5" font-family="Cascadia Code NF" font-size="10.00">+</text>
<text text-anchor="start" x="354" y="-907.5" font-family="Cascadia Code NF" font-size="10.00">Is()</text>
<text text-anchor="start" x="344" y="-891.5" font-family="Cascadia Code NF" font-size="10.00">+</text>
<text text-anchor="start" x="354" y="-891.5" font-family="Cascadia Code NF" font-size="10.00">Cast()</text>
<text text-anchor="start" x="344" y="-875.5" font-family="Cascadia Code NF" font-size="10.00">+</text>
<text text-anchor="start" x="354" y="-875.5" font-family="Cascadia Code NF" font-size="10.00">Cast()</text>
<text text-anchor="start" x="344" y="-859.5" font-family="Cascadia Code NF" font-size="10.00">+</text>
<text text-anchor="start" x="354" y="-859.5" font-family="Cascadia Code NF" font-size="10.00">TryCast()</text>
<text text-anchor="start" x="344" y="-843.5" font-family="Cascadia Code NF" font-size="10.00">+</text>
<text text-anchor="start" x="354" y="-843.5" font-family="Cascadia Code NF" font-size="10.00">TryCast()</text>
<text text-anchor="start" x="354" y="-827.5" font-family="Cascadia Code NF" font-size="10.00">and 7 more...</text>
<text text-anchor="start" x="344" y="-811.5" font-family="Cascadia Code NF" font-size="10.00">+</text>
<text text-anchor="start" x="354" y="-811.5" font-family="Cascadia Code NF" font-size="10.00">StorageSlotCount()</text>
<text text-anchor="start" x="344" y="-795.5" font-family="Cascadia Code NF" font-size="10.00">#</text>
<text text-anchor="start" x="354" y="-795.5" font-family="Cascadia Code NF" font-size="10.00">Operation()</text>
<text text-anchor="start" x="344" y="-779.5" font-family="Cascadia Code NF" font-size="10.00">#</text>
<text text-anchor="start" x="354" y="-779.5" font-family="Cascadia Code NF" font-size="10.00">V8_CLANG_NO_SANITIZE()</text>
<text text-anchor="start" x="344" y="-763.5" font-family="Cascadia Code NF" font-size="10.00">#</text>
<text text-anchor="start" x="354" y="-763.5" font-family="Cascadia Code NF" font-size="10.00">Operation()</text>
<text text-anchor="start" x="344" y="-747.5" font-family="Cascadia Code NF" font-size="10.00">#</text>
<text text-anchor="start" x="354" y="-747.5" font-family="Cascadia Code NF" font-size="10.00">operator=()</text>
<polygon fill="#bfbfbf" stroke="#bfbfbf" points="340,-1015 340,-1015 490,-1015 490,-1015 340,-1015"/>
<polygon fill="#bfbfbf" stroke="#bfbfbf" points="340,-999 340,-999 490,-999 490,-999 340,-999"/>
<polygon fill="none" stroke="#bfbfbf" points="340,-741 340,-1046 490,-1046 490,-741 340,-741"/>
</a>
</g>
</g>
<!-- Node4&#45;&gt;Node3 -->
<g id="edge3_Node000003_Node000004" class="edge">
<title>Node4&#45;&gt;Node3</title>
<g id="a_edge3_Node000003_Node000004"><a xlink:title=" ">
<path fill="none" stroke="#63b8ff" d="M500.19,-924.48C564.71,-948.23 652.96,-980.7 715.28,-1003.63"/>
<polygon fill="none" stroke="#63b8ff" points="501.65,-921.29 491.06,-921.12 499.24,-927.86 501.65,-921.29"/>
</a>
</g>
</g>
<!-- Node5 -->
<g id="Node000005" class="node">
<title>Node5</title>
<g id="a_Node000005"><a xlink:title=" ">
<polygon fill="white" stroke="none" points="109,-1092.5 69,-1092.5 69,-1040.5 109,-1040.5 109,-1092.5"/>
<text text-anchor="start" x="74" y="-1079" font-family="Cascadia Code NF" font-size="10.00">const</text>
<text text-anchor="start" x="86" y="-1063" font-family="Cascadia Code NF" font-size="10.00"> </text>
<text text-anchor="start" x="86" y="-1047" font-family="Cascadia Code NF" font-size="10.00"> </text>
<polygon fill="#bfbfbf" stroke="#bfbfbf" points="69,-1074.5 69,-1074.5 109,-1074.5 109,-1074.5 69,-1074.5"/>
<polygon fill="#bfbfbf" stroke="#bfbfbf" points="69,-1058.5 69,-1058.5 109,-1058.5 109,-1058.5 69,-1058.5"/>
<polygon fill="none" stroke="#bfbfbf" points="69,-1040.5 69,-1092.5 109,-1092.5 109,-1040.5 69,-1040.5"/>
</a>
</g>
</g>
<!-- Node5&#45;&gt;Node3 -->
<g id="edge6_Node000003_Node000005" class="edge">
<title>Node5&#45;&gt;Node3</title>
<g id="a_edge6_Node000003_Node000005"><a xlink:title=" ">
<path fill="none" stroke="#63b8ff" d="M108.76,-1066.33C165.97,-1065.74 343.28,-1063.36 490,-1055.5 561.57,-1051.67 642.54,-1045.08 702.47,-1039.78"/>
<polygon fill="none" stroke="#63b8ff" points="702.45,-1039.78 708.07,-1035.26 714.41,-1038.71 708.79,-1043.23 702.45,-1039.78"/>
</a>
</g>
<text text-anchor="middle" x="415" y="-1064.75" font-family="Cascadia Code NF" font-size="10.00" fill="grey"> +opcode</text>
</g>
<!-- Node5&#45;&gt;Node4 -->
<g id="edge4_Node000004_Node000005" class="edge">
<title>Node5&#45;&gt;Node4</title>
<g id="a_edge4_Node000004_Node000005"><a xlink:title=" ">
<path fill="none" stroke="#63b8ff" d="M108.82,-1056.45C150.76,-1034.06 254.1,-978.88 328.93,-938.92"/>
<polygon fill="none" stroke="#63b8ff" points="328.83,-938.97 332.24,-932.62 339.42,-933.32 336.01,-939.68 328.83,-938.97"/>
</a>
</g>
<text text-anchor="middle" x="259" y="-1021.5" font-family="Cascadia Code NF" font-size="10.00" fill="grey"> +input_count</text>
<text text-anchor="middle" x="259" y="-1008.75" font-family="Cascadia Code NF" font-size="10.00" fill="grey">+opcode</text>
</g>
<!-- Node6 -->
<g id="Node000006" class="node">
<title>Node6</title>
<g id="a_Node000006"><a xlink:href="$dc/d00/classv8_1_1internal_1_1compiler_1_1turboshaft_1_1SaturatedUint8.html" xlink:title=" ">
<polygon fill="white" stroke="none" points="178,-1006 0,-1006 0,-781 178,-781 178,-1006"/>
<text text-anchor="start" x="5" y="-992.5" font-family="Cascadia Code NF" font-size="10.00">v8::internal::compiler</text>
<text text-anchor="start" x="5" y="-979.75" font-family="Cascadia Code NF" font-size="10.00">::turboshaft::SaturatedUint8</text>
<text text-anchor="start" x="86" y="-963.5" font-family="Cascadia Code NF" font-size="10.00"> </text>
<text text-anchor="start" x="20" y="-947.5" font-family="Cascadia Code NF" font-size="10.00">+</text>
<text text-anchor="start" x="46" y="-947.5" font-family="Cascadia Code NF" font-size="10.00">SaturatedUint8()</text>
<text text-anchor="start" x="20" y="-931.5" font-family="Cascadia Code NF" font-size="10.00">+</text>
<text text-anchor="start" x="46" y="-931.5" font-family="Cascadia Code NF" font-size="10.00">Incr()</text>
<text text-anchor="start" x="20" y="-915.5" font-family="Cascadia Code NF" font-size="10.00">+</text>
<text text-anchor="start" x="46" y="-915.5" font-family="Cascadia Code NF" font-size="10.00">Decr()</text>
<text text-anchor="start" x="20" y="-899.5" font-family="Cascadia Code NF" font-size="10.00">+</text>
<text text-anchor="start" x="46" y="-899.5" font-family="Cascadia Code NF" font-size="10.00">SetToZero()</text>
<text text-anchor="start" x="20" y="-883.5" font-family="Cascadia Code NF" font-size="10.00">+</text>
<text text-anchor="start" x="46" y="-883.5" font-family="Cascadia Code NF" font-size="10.00">SetToOne()</text>
<text text-anchor="start" x="20" y="-867.5" font-family="Cascadia Code NF" font-size="10.00">+</text>
<text text-anchor="start" x="46" y="-867.5" font-family="Cascadia Code NF" font-size="10.00">IsZero()</text>
<text text-anchor="start" x="20" y="-851.5" font-family="Cascadia Code NF" font-size="10.00">+</text>
<text text-anchor="start" x="46" y="-851.5" font-family="Cascadia Code NF" font-size="10.00">IsOne()</text>
<text text-anchor="start" x="20" y="-835.5" font-family="Cascadia Code NF" font-size="10.00">+</text>
<text text-anchor="start" x="46" y="-835.5" font-family="Cascadia Code NF" font-size="10.00">IsSaturated()</text>
<text text-anchor="start" x="20" y="-819.5" font-family="Cascadia Code NF" font-size="10.00">+</text>
<text text-anchor="start" x="46" y="-819.5" font-family="Cascadia Code NF" font-size="10.00">Get()</text>
<text text-anchor="start" x="20" y="-803.5" font-family="Cascadia Code NF" font-size="10.00">+</text>
<text text-anchor="start" x="46" y="-803.5" font-family="Cascadia Code NF" font-size="10.00">operator+=()</text>
<text text-anchor="start" x="20" y="-787.5" font-family="Cascadia Code NF" font-size="10.00">+</text>
<text text-anchor="start" x="46" y="-787.5" font-family="Cascadia Code NF" font-size="10.00">FromSize()</text>
<polygon fill="#bfbfbf" stroke="#bfbfbf" points="0,-975 0,-975 178,-975 178,-975 0,-975"/>
<polygon fill="#bfbfbf" stroke="#bfbfbf" points="0,-959 0,-959 178,-959 178,-959 0,-959"/>
<polygon fill="none" stroke="#bfbfbf" points="0,-781 0,-1006 178,-1006 178,-781 0,-781"/>
</a>
</g>
</g>
<!-- Node6&#45;&gt;Node4 -->
<g id="edge5_Node000004_Node000006" class="edge">
<title>Node6&#45;&gt;Node4</title>
<g id="a_edge5_Node000004_Node000006"><a xlink:title=" ">
<path fill="none" stroke="#63b8ff" d="M177.68,-893.5C224.19,-893.5 281.13,-893.5 327.47,-893.5"/>
<polygon fill="none" stroke="#63b8ff" points="327.34,-893.5 333.34,-889.5 339.34,-893.5 333.34,-897.5 327.34,-893.5"/>
</a>
</g>
<text text-anchor="middle" x="259" y="-896.75" font-family="Cascadia Code NF" font-size="10.00" fill="grey"> +saturated_use_count</text>
</g>
<!-- Node7 -->
<g id="Node000007" class="node">
<title>Node7</title>
<g id="a_Node000007"><a xlink:title=" ">
<polygon fill="white" stroke="none" points="821,-846.5 763,-846.5 763,-794.5 821,-794.5 821,-846.5"/>
<text text-anchor="start" x="768" y="-833" font-family="Cascadia Code NF" font-size="10.00">uint16_t</text>
<text text-anchor="start" x="789" y="-817" font-family="Cascadia Code NF" font-size="10.00"> </text>
<text text-anchor="start" x="789" y="-801" font-family="Cascadia Code NF" font-size="10.00"> </text>
<polygon fill="#bfbfbf" stroke="#bfbfbf" points="763,-828.5 763,-828.5 821,-828.5 821,-828.5 763,-828.5"/>
<polygon fill="#bfbfbf" stroke="#bfbfbf" points="763,-812.5 763,-812.5 821,-812.5 821,-812.5 763,-812.5"/>
<polygon fill="none" stroke="#bfbfbf" points="763,-794.5 763,-846.5 821,-846.5 821,-794.5 763,-794.5"/>
</a>
</g>
</g>
<!-- Node7&#45;&gt;Node2 -->
<g id="edge7_Node000002_Node000007" class="edge">
<title>Node7&#45;&gt;Node2</title>
<g id="a_edge7_Node000002_Node000007"><a xlink:title=" ">
<path fill="none" stroke="#63b8ff" d="M820.99,-821.29C865.85,-822.56 956.33,-825.13 1030.45,-827.23"/>
<polygon fill="none" stroke="#63b8ff" points="1030.24,-827.22 1036.35,-823.39 1042.24,-827.56 1036.13,-831.39 1030.24,-827.22"/>
</a>
</g>
<text text-anchor="middle" x="977" y="-829.75" font-family="Cascadia Code NF" font-size="10.00" fill="grey"> +input_count</text>
</g>
<!-- Node8 -->
<g id="Node000008" class="node">
<title>Node8</title>
<g id="a_Node000008"><a xlink:href="$dc/db6/classv8_1_1internal_1_1compiler_1_1turboshaft_1_1RegisterRepresentation.html" xlink:title=" ">
<polygon fill="white" stroke="none" points="1260,-749.5 1034,-749.5 1034,-399.5 1260,-399.5 1260,-749.5"/>
<text text-anchor="start" x="1039" y="-736" font-family="Cascadia Code NF" font-size="10.00">v8::internal::compiler</text>
<text text-anchor="start" x="1039" y="-723.25" font-family="Cascadia Code NF" font-size="10.00">::turboshaft::RegisterRepresentation</text>
<text text-anchor="start" x="1144" y="-707" font-family="Cascadia Code NF" font-size="10.00"> </text>
<text text-anchor="start" x="1049.5" y="-691" font-family="Cascadia Code NF" font-size="10.00">+</text>
<text text-anchor="start" x="1071" y="-691" font-family="Cascadia Code NF" font-size="10.00">RegisterRepresentation()</text>
<text text-anchor="start" x="1049.5" y="-675" font-family="Cascadia Code NF" font-size="10.00">+</text>
<text text-anchor="start" x="1071" y="-675" font-family="Cascadia Code NF" font-size="10.00">RegisterRepresentation()</text>
<text text-anchor="start" x="1049.5" y="-659" font-family="Cascadia Code NF" font-size="10.00">+</text>
<text text-anchor="start" x="1071" y="-659" font-family="Cascadia Code NF" font-size="10.00">RegisterRepresentation()</text>
<text text-anchor="start" x="1049.5" y="-643" font-family="Cascadia Code NF" font-size="10.00">+</text>
<text text-anchor="start" x="1071" y="-643" font-family="Cascadia Code NF" font-size="10.00">operator Enum()</text>
<text text-anchor="start" x="1049.5" y="-627" font-family="Cascadia Code NF" font-size="10.00">+</text>
<text text-anchor="start" x="1071" y="-627" font-family="Cascadia Code NF" font-size="10.00">value()</text>
<text text-anchor="start" x="1049.5" y="-611" font-family="Cascadia Code NF" font-size="10.00">+</text>
<text text-anchor="start" x="1071" y="-611" font-family="Cascadia Code NF" font-size="10.00">AllowImplicitRepresentation</text>
<text text-anchor="start" x="1071" y="-598.25" font-family="Cascadia Code NF" font-size="10.00">ChangeTo()</text>
<text text-anchor="start" x="1049.5" y="-582" font-family="Cascadia Code NF" font-size="10.00">+</text>
<text text-anchor="start" x="1071" y="-582" font-family="Cascadia Code NF" font-size="10.00">MapTaggedToWord()</text>
<text text-anchor="start" x="1049.5" y="-566" font-family="Cascadia Code NF" font-size="10.00">+</text>
<text text-anchor="start" x="1071" y="-566" font-family="Cascadia Code NF" font-size="10.00">Word32()</text>
<text text-anchor="start" x="1049.5" y="-550" font-family="Cascadia Code NF" font-size="10.00">+</text>
<text text-anchor="start" x="1071" y="-550" font-family="Cascadia Code NF" font-size="10.00">Word64()</text>
<text text-anchor="start" x="1049.5" y="-534" font-family="Cascadia Code NF" font-size="10.00">+</text>
<text text-anchor="start" x="1071" y="-534" font-family="Cascadia Code NF" font-size="10.00">WordPtr()</text>
<text text-anchor="start" x="1049.5" y="-518" font-family="Cascadia Code NF" font-size="10.00">+</text>
<text text-anchor="start" x="1071" y="-518" font-family="Cascadia Code NF" font-size="10.00">Float32()</text>
<text text-anchor="start" x="1049.5" y="-502" font-family="Cascadia Code NF" font-size="10.00">+</text>
<text text-anchor="start" x="1071" y="-502" font-family="Cascadia Code NF" font-size="10.00">Float64()</text>
<text text-anchor="start" x="1049.5" y="-486" font-family="Cascadia Code NF" font-size="10.00">+</text>
<text text-anchor="start" x="1071" y="-486" font-family="Cascadia Code NF" font-size="10.00">Tagged()</text>
<text text-anchor="start" x="1049.5" y="-470" font-family="Cascadia Code NF" font-size="10.00">+</text>
<text text-anchor="start" x="1071" y="-470" font-family="Cascadia Code NF" font-size="10.00">Compressed()</text>
<text text-anchor="start" x="1049.5" y="-454" font-family="Cascadia Code NF" font-size="10.00">+</text>
<text text-anchor="start" x="1071" y="-454" font-family="Cascadia Code NF" font-size="10.00">Simd128()</text>
<text text-anchor="start" x="1049.5" y="-438" font-family="Cascadia Code NF" font-size="10.00">+</text>
<text text-anchor="start" x="1071" y="-438" font-family="Cascadia Code NF" font-size="10.00">Simd256()</text>
<text text-anchor="start" x="1049.5" y="-422" font-family="Cascadia Code NF" font-size="10.00">+</text>
<text text-anchor="start" x="1071" y="-422" font-family="Cascadia Code NF" font-size="10.00">FromMachineRepresentation()</text>
<text text-anchor="start" x="1049.5" y="-406" font-family="Cascadia Code NF" font-size="10.00">+</text>
<text text-anchor="start" x="1071" y="-406" font-family="Cascadia Code NF" font-size="10.00">FromMachineType()</text>
<polygon fill="#bfbfbf" stroke="#bfbfbf" points="1034,-718.5 1034,-718.5 1260,-718.5 1260,-718.5 1034,-718.5"/>
<polygon fill="#bfbfbf" stroke="#bfbfbf" points="1034,-702.5 1034,-702.5 1260,-702.5 1260,-702.5 1034,-702.5"/>
<polygon fill="none" stroke="#bfbfbf" points="1034,-399.5 1034,-749.5 1260,-749.5 1260,-399.5 1034,-399.5"/>
</a>
</g>
</g>
<!-- Node8&#45;&gt;Node1 -->
<g id="edge8_Node000001_Node000008" class="edge">
<title>Node8&#45;&gt;Node1</title>
<g id="a_edge8_Node000001_Node000008"><a xlink:title=" ">
<path fill="none" stroke="#63b8ff" d="M1259.81,-484.48C1286.85,-462.71 1315.2,-439.88 1340.41,-419.58"/>
<polygon fill="none" stroke="#63b8ff" points="1340.22,-419.73 1342.39,-412.85 1349.57,-412.21 1347.4,-419.09 1340.22,-419.73"/>
</a>
</g>
<text text-anchor="middle" x="1305" y="-467.75" font-family="Cascadia Code NF" font-size="10.00" fill="grey"> +rep</text>
</g>
<!-- Node9 -->
<g id="Node000009" class="node">
<title>Node9</title>
<g id="a_Node000009"><a xlink:href="$dc/d22/classv8_1_1internal_1_1compiler_1_1turboshaft_1_1MaybeRegisterRepresentation.html" xlink:title=" ">
<polygon fill="white" stroke="none" points="920,-767 664,-767 664,-382 920,-382 920,-767"/>
<text text-anchor="start" x="669" y="-753.5" font-family="Cascadia Code NF" font-size="10.00">v8::internal::compiler</text>
<text text-anchor="start" x="669" y="-740.75" font-family="Cascadia Code NF" font-size="10.00">::turboshaft::MaybeRegisterRepresentation</text>
<text text-anchor="start" x="789" y="-724.5" font-family="Cascadia Code NF" font-size="10.00"> </text>
<text text-anchor="start" x="684" y="-708.5" font-family="Cascadia Code NF" font-size="10.00">+</text>
<text text-anchor="start" x="710" y="-708.5" font-family="Cascadia Code NF" font-size="10.00">MaybeRegisterRepresentation()</text>
<text text-anchor="start" x="684" y="-692.5" font-family="Cascadia Code NF" font-size="10.00">+</text>
<text text-anchor="start" x="710" y="-692.5" font-family="Cascadia Code NF" font-size="10.00">MaybeRegisterRepresentation()</text>
<text text-anchor="start" x="684" y="-676.5" font-family="Cascadia Code NF" font-size="10.00">+</text>
<text text-anchor="start" x="710" y="-676.5" font-family="Cascadia Code NF" font-size="10.00">is_valid()</text>
<text text-anchor="start" x="684" y="-660.5" font-family="Cascadia Code NF" font-size="10.00">+</text>
<text text-anchor="start" x="710" y="-660.5" font-family="Cascadia Code NF" font-size="10.00">value()</text>
<text text-anchor="start" x="684" y="-644.5" font-family="Cascadia Code NF" font-size="10.00">+</text>
<text text-anchor="start" x="710" y="-644.5" font-family="Cascadia Code NF" font-size="10.00">operator Enum()</text>
<text text-anchor="start" x="684" y="-628.5" font-family="Cascadia Code NF" font-size="10.00">+</text>
<text text-anchor="start" x="710" y="-628.5" font-family="Cascadia Code NF" font-size="10.00">IsWord()</text>
<text text-anchor="start" x="684" y="-612.5" font-family="Cascadia Code NF" font-size="10.00">+</text>
<text text-anchor="start" x="710" y="-612.5" font-family="Cascadia Code NF" font-size="10.00">IsFloat()</text>
<text text-anchor="start" x="684" y="-596.5" font-family="Cascadia Code NF" font-size="10.00">+</text>
<text text-anchor="start" x="710" y="-596.5" font-family="Cascadia Code NF" font-size="10.00">IsTaggedOrCompressed()</text>
<text text-anchor="start" x="684" y="-580.5" font-family="Cascadia Code NF" font-size="10.00">+</text>
<text text-anchor="start" x="710" y="-580.5" font-family="Cascadia Code NF" font-size="10.00">MaxUnsignedValue()</text>
<text text-anchor="start" x="684" y="-564.5" font-family="Cascadia Code NF" font-size="10.00">+</text>
<text text-anchor="start" x="710" y="-564.5" font-family="Cascadia Code NF" font-size="10.00">machine_representation()</text>
<text text-anchor="start" x="684" y="-548.5" font-family="Cascadia Code NF" font-size="10.00">+</text>
<text text-anchor="start" x="710" y="-548.5" font-family="Cascadia Code NF" font-size="10.00">bit_width()</text>
<text text-anchor="start" x="684" y="-532.5" font-family="Cascadia Code NF" font-size="10.00">+</text>
<text text-anchor="start" x="710" y="-532.5" font-family="Cascadia Code NF" font-size="10.00">Word32()</text>
<text text-anchor="start" x="684" y="-516.5" font-family="Cascadia Code NF" font-size="10.00">+</text>
<text text-anchor="start" x="710" y="-516.5" font-family="Cascadia Code NF" font-size="10.00">Word64()</text>
<text text-anchor="start" x="684" y="-500.5" font-family="Cascadia Code NF" font-size="10.00">+</text>
<text text-anchor="start" x="710" y="-500.5" font-family="Cascadia Code NF" font-size="10.00">WordPtr()</text>
<text text-anchor="start" x="684" y="-484.5" font-family="Cascadia Code NF" font-size="10.00">+</text>
<text text-anchor="start" x="710" y="-484.5" font-family="Cascadia Code NF" font-size="10.00">Float32()</text>
<text text-anchor="start" x="684" y="-468.5" font-family="Cascadia Code NF" font-size="10.00">+</text>
<text text-anchor="start" x="710" y="-468.5" font-family="Cascadia Code NF" font-size="10.00">Float64()</text>
<text text-anchor="start" x="684" y="-452.5" font-family="Cascadia Code NF" font-size="10.00">+</text>
<text text-anchor="start" x="710" y="-452.5" font-family="Cascadia Code NF" font-size="10.00">Tagged()</text>
<text text-anchor="start" x="684" y="-436.5" font-family="Cascadia Code NF" font-size="10.00">+</text>
<text text-anchor="start" x="710" y="-436.5" font-family="Cascadia Code NF" font-size="10.00">Compressed()</text>
<text text-anchor="start" x="684" y="-420.5" font-family="Cascadia Code NF" font-size="10.00">+</text>
<text text-anchor="start" x="710" y="-420.5" font-family="Cascadia Code NF" font-size="10.00">Simd128()</text>
<text text-anchor="start" x="684" y="-404.5" font-family="Cascadia Code NF" font-size="10.00">+</text>
<text text-anchor="start" x="710" y="-404.5" font-family="Cascadia Code NF" font-size="10.00">Simd256()</text>
<text text-anchor="start" x="684" y="-388.5" font-family="Cascadia Code NF" font-size="10.00">+</text>
<text text-anchor="start" x="710" y="-388.5" font-family="Cascadia Code NF" font-size="10.00">None()</text>
<polygon fill="#bfbfbf" stroke="#bfbfbf" points="664,-736 664,-736 920,-736 920,-736 664,-736"/>
<polygon fill="#bfbfbf" stroke="#bfbfbf" points="664,-720 664,-720 920,-720 920,-720 664,-720"/>
<polygon fill="none" stroke="#bfbfbf" points="664,-382 664,-767 920,-767 920,-382 664,-382"/>
</a>
</g>
</g>
<!-- Node9&#45;&gt;Node8 -->
<g id="edge9_Node000008_Node000009" class="edge">
<title>Node9&#45;&gt;Node8</title>
<g id="a_edge9_Node000008_Node000009"><a xlink:title=" ">
<path fill="none" stroke="#63b8ff" d="M931.42,-574.5C965.5,-574.5 1001.57,-574.5 1034.21,-574.5"/>
<polygon fill="none" stroke="#63b8ff" points="931.46,-571 921.46,-574.5 931.46,-578 931.46,-571"/>
</a>
</g>
</g>
<!-- Node10 -->
<g id="Node000010" class="node">
<title>Node10</title>
<g id="a_Node000010"><a xlink:title=" ">
<polygon fill="white" stroke="none" points="1182,-381.5 1112,-381.5 1112,-329.5 1182,-329.5 1182,-381.5"/>
<text text-anchor="start" x="1117" y="-368" font-family="Cascadia Code NF" font-size="10.00">BranchHint</text>
<text text-anchor="start" x="1144" y="-352" font-family="Cascadia Code NF" font-size="10.00"> </text>
<text text-anchor="start" x="1144" y="-336" font-family="Cascadia Code NF" font-size="10.00"> </text>
<polygon fill="#bfbfbf" stroke="#bfbfbf" points="1112,-363.5 1112,-363.5 1182,-363.5 1182,-363.5 1112,-363.5"/>
<polygon fill="#bfbfbf" stroke="#bfbfbf" points="1112,-347.5 1112,-347.5 1182,-347.5 1182,-347.5 1112,-347.5"/>
<polygon fill="none" stroke="#bfbfbf" points="1112,-329.5 1112,-381.5 1182,-381.5 1182,-329.5 1112,-329.5"/>
</a>
</g>
</g>
<!-- Node10&#45;&gt;Node1 -->
<g id="edge10_Node000001_Node000010" class="edge">
<title>Node10&#45;&gt;Node1</title>
<g id="a_edge10_Node000001_Node000010"><a xlink:title=" ">
<path fill="none" stroke="#63b8ff" d="M1181.9,-355.5C1220.5,-355.5 1284.95,-355.5 1337.07,-355.5"/>
<polygon fill="none" stroke="#63b8ff" points="1337.13,-355.5 1343.13,-351.5 1349.13,-355.5 1343.13,-359.5 1337.13,-355.5"/>
</a>
</g>
<text text-anchor="middle" x="1305" y="-358.75" font-family="Cascadia Code NF" font-size="10.00" fill="grey"> +hint</text>
</g>
<!-- Node11 -->
<g id="Node000011" class="node">
<title>Node11</title>
<g id="a_Node000011"><a xlink:title=" ">
<polygon fill="white" stroke="none" points="1194,-311.5 1100,-311.5 1100,-259.5 1194,-259.5 1194,-311.5"/>
<text text-anchor="start" x="1105" y="-298" font-family="Cascadia Code NF" font-size="10.00">Implementation</text>
<text text-anchor="start" x="1144" y="-282" font-family="Cascadia Code NF" font-size="10.00"> </text>
<text text-anchor="start" x="1144" y="-266" font-family="Cascadia Code NF" font-size="10.00"> </text>
<polygon fill="#bfbfbf" stroke="#bfbfbf" points="1100,-293.5 1100,-293.5 1194,-293.5 1194,-293.5 1100,-293.5"/>
<polygon fill="#bfbfbf" stroke="#bfbfbf" points="1100,-277.5 1100,-277.5 1194,-277.5 1194,-277.5 1100,-277.5"/>
<polygon fill="none" stroke="#bfbfbf" points="1100,-259.5 1100,-311.5 1194,-311.5 1194,-259.5 1100,-259.5"/>
</a>
</g>
</g>
<!-- Node11&#45;&gt;Node1 -->
<g id="edge11_Node000001_Node000011" class="edge">
<title>Node11&#45;&gt;Node1</title>
<g id="a_edge11_Node000001_Node000011"><a xlink:title=" ">
<path fill="none" stroke="#63b8ff" d="M1193.83,-297.3C1233.1,-307.4 1290.61,-322.2 1337.81,-334.35"/>
<polygon fill="none" stroke="#63b8ff" points="1337.7,-334.32 1344.51,-331.94 1349.32,-337.31 1342.51,-339.69 1337.7,-334.32"/>
</a>
</g>
<text text-anchor="middle" x="1305" y="-333.75" font-family="Cascadia Code NF" font-size="10.00" fill="grey"> +implem</text>
</g>
<!-- Node12 -->
<g id="Node000012" class="node">
<title>Node12</title>
<g id="a_Node000012"><a xlink:href="$d6/d36/structv8_1_1internal_1_1compiler_1_1turboshaft_1_1OpEffects.html" xlink:title=" ">
<polygon fill="white" stroke="none" points="1240,-241 1054,-241 1054,0 1240,0 1240,-241"/>
<text text-anchor="start" x="1078" y="-227.5" font-family="Cascadia Code NF" font-size="10.00">v8::internal::compiler</text>
<text text-anchor="start" x="1078" y="-214.75" font-family="Cascadia Code NF" font-size="10.00">::turboshaft::OpEffects</text>
<text text-anchor="start" x="1144" y="-198.5" font-family="Cascadia Code NF" font-size="10.00"> </text>
<text text-anchor="start" x="1058" y="-182.5" font-family="Cascadia Code NF" font-size="10.00">+</text>
<text text-anchor="start" x="1068" y="-182.5" font-family="Cascadia Code NF" font-size="10.00">OpEffects()</text>
<text text-anchor="start" x="1058" y="-166.5" font-family="Cascadia Code NF" font-size="10.00">+</text>
<text text-anchor="start" x="1068" y="-166.5" font-family="Cascadia Code NF" font-size="10.00">bits()</text>
<text text-anchor="start" x="1058" y="-150.5" font-family="Cascadia Code NF" font-size="10.00">+</text>
<text text-anchor="start" x="1068" y="-150.5" font-family="Cascadia Code NF" font-size="10.00">operator==()</text>
<text text-anchor="start" x="1058" y="-134.5" font-family="Cascadia Code NF" font-size="10.00">+</text>
<text text-anchor="start" x="1068" y="-134.5" font-family="Cascadia Code NF" font-size="10.00">operator!=()</text>
<text text-anchor="start" x="1058" y="-118.5" font-family="Cascadia Code NF" font-size="10.00">+</text>
<text text-anchor="start" x="1068" y="-118.5" font-family="Cascadia Code NF" font-size="10.00">operator|()</text>
<text text-anchor="start" x="1058" y="-102.5" font-family="Cascadia Code NF" font-size="10.00">+</text>
<text text-anchor="start" x="1068" y="-102.5" font-family="Cascadia Code NF" font-size="10.00">operator&amp;()</text>
<text text-anchor="start" x="1058" y="-86.5" font-family="Cascadia Code NF" font-size="10.00">+</text>
<text text-anchor="start" x="1068" y="-86.5" font-family="Cascadia Code NF" font-size="10.00">IsSubsetOf()</text>
<text text-anchor="start" x="1058" y="-70.5" font-family="Cascadia Code NF" font-size="10.00">+</text>
<text text-anchor="start" x="1068" y="-70.5" font-family="Cascadia Code NF" font-size="10.00">AssumesConsistentHeap()</text>
<text text-anchor="start" x="1058" y="-54.5" font-family="Cascadia Code NF" font-size="10.00">+</text>
<text text-anchor="start" x="1068" y="-54.5" font-family="Cascadia Code NF" font-size="10.00">CanAllocateWithoutIdentity()</text>
<text text-anchor="start" x="1058" y="-38.5" font-family="Cascadia Code NF" font-size="10.00">+</text>
<text text-anchor="start" x="1068" y="-38.5" font-family="Cascadia Code NF" font-size="10.00">CanAllocate()</text>
<text text-anchor="start" x="1068" y="-22.5" font-family="Cascadia Code NF" font-size="10.00">and 22 more...</text>
<text text-anchor="start" x="1058" y="-6.5" font-family="Cascadia Code NF" font-size="10.00">+</text>
<text text-anchor="start" x="1068" y="-6.5" font-family="Cascadia Code NF" font-size="10.00">FromBits()</text>
<polygon fill="#bfbfbf" stroke="#bfbfbf" points="1054,-210 1054,-210 1240,-210 1240,-210 1054,-210"/>
<polygon fill="#bfbfbf" stroke="#bfbfbf" points="1054,-194 1054,-194 1240,-194 1240,-194 1054,-194"/>
<polygon fill="none" stroke="#bfbfbf" points="1054,0 1054,-241 1240,-241 1240,0 1054,0"/>
</a>
</g>
</g>
<!-- Node12&#45;&gt;Node1 -->
<g id="edge12_Node000001_Node000012" class="edge">
<title>Node12&#45;&gt;Node1</title>
<g id="a_edge12_Node000001_Node000012"><a xlink:title=" ">
<path fill="none" stroke="#63b8ff" d="M1239.71,-199.73C1272.41,-227.99 1308.96,-259.56 1340.55,-286.85"/>
<polygon fill="none" stroke="#63b8ff" points="1340.42,-286.74 1347.57,-287.64 1349.5,-294.59 1342.34,-293.69 1340.42,-286.74"/>
</a>
</g>
<text text-anchor="middle" x="1305" y="-275.75" font-family="Cascadia Code NF" font-size="10.00" fill="grey"> +effects</text>
</g>
<!-- Node13 -->
<g id="Node000013" class="node">
<title>Node13</title>
<g id="a_Node000013"><a xlink:href="$d5/d34/structv8_1_1internal_1_1compiler_1_1turboshaft_1_1EffectDimensions.html" xlink:title=" ">
<polygon fill="white" stroke="none" points="887,-185 697,-185 697,-56 887,-56 887,-185"/>
<text text-anchor="start" x="702" y="-171.5" font-family="Cascadia Code NF" font-size="10.00">v8::internal::compiler</text>
<text text-anchor="start" x="702" y="-158.75" font-family="Cascadia Code NF" font-size="10.00">::turboshaft::EffectDimensions</text>
<text text-anchor="start" x="789" y="-142.5" font-family="Cascadia Code NF" font-size="10.00"> </text>
<text text-anchor="start" x="717" y="-126.5" font-family="Cascadia Code NF" font-size="10.00">+</text>
<text text-anchor="start" x="743" y="-126.5" font-family="Cascadia Code NF" font-size="10.00">EffectDimensions()</text>
<text text-anchor="start" x="717" y="-110.5" font-family="Cascadia Code NF" font-size="10.00">+</text>
<text text-anchor="start" x="743" y="-110.5" font-family="Cascadia Code NF" font-size="10.00">bits()</text>
<text text-anchor="start" x="717" y="-94.5" font-family="Cascadia Code NF" font-size="10.00">+</text>
<text text-anchor="start" x="743" y="-94.5" font-family="Cascadia Code NF" font-size="10.00">operator==()</text>
<text text-anchor="start" x="717" y="-78.5" font-family="Cascadia Code NF" font-size="10.00">+</text>
<text text-anchor="start" x="743" y="-78.5" font-family="Cascadia Code NF" font-size="10.00">operator!=()</text>
<text text-anchor="start" x="717" y="-62.5" font-family="Cascadia Code NF" font-size="10.00">+</text>
<text text-anchor="start" x="743" y="-62.5" font-family="Cascadia Code NF" font-size="10.00">FromBits()</text>
<polygon fill="#bfbfbf" stroke="#bfbfbf" points="697,-154 697,-154 887,-154 887,-154 697,-154"/>
<polygon fill="#bfbfbf" stroke="#bfbfbf" points="697,-138 697,-138 887,-138 887,-138 697,-138"/>
<polygon fill="none" stroke="#bfbfbf" points="697,-56 697,-185 887,-185 887,-56 697,-56"/>
</a>
</g>
</g>
<!-- Node13&#45;&gt;Node12 -->
<g id="edge13_Node000012_Node000013" class="edge">
<title>Node13&#45;&gt;Node12</title>
<g id="a_edge13_Node000012_Node000013"><a xlink:title=" ">
<path fill="none" stroke="#63b8ff" d="M886.67,-120.5C934.2,-120.5 992.1,-120.5 1041.12,-120.5"/>
<polygon fill="none" stroke="#63b8ff" points="1041.13,-120.5 1047.13,-116.5 1053.13,-120.5 1047.13,-124.5 1041.13,-120.5"/>
</a>
</g>
<text text-anchor="middle" x="977" y="-136.5" font-family="Cascadia Code NF" font-size="10.00" fill="grey"> +consumes</text>
<text text-anchor="middle" x="977" y="-123.75" font-family="Cascadia Code NF" font-size="10.00" fill="grey">+produces</text>
</g>
<!-- Node14 -->
<g id="Node000014" class="node">
<title>Node14</title>
<g id="a_Node000014"><a xlink:title=" ">
<polygon fill="white" stroke="none" points="432,-171.5 398,-171.5 398,-119.5 432,-119.5 432,-171.5"/>
<text text-anchor="start" x="403" y="-158" font-family="Cascadia Code NF" font-size="10.00">bool</text>
<text text-anchor="start" x="412" y="-142" font-family="Cascadia Code NF" font-size="10.00"> </text>
<text text-anchor="start" x="412" y="-126" font-family="Cascadia Code NF" font-size="10.00"> </text>
<polygon fill="#bfbfbf" stroke="#bfbfbf" points="398,-153.5 398,-153.5 432,-153.5 432,-153.5 398,-153.5"/>
<polygon fill="#bfbfbf" stroke="#bfbfbf" points="398,-137.5 398,-137.5 432,-137.5 432,-137.5 398,-137.5"/>
<polygon fill="none" stroke="#bfbfbf" points="398,-119.5 398,-171.5 432,-171.5 432,-119.5 398,-119.5"/>
</a>
</g>
</g>
<!-- Node14&#45;&gt;Node12 -->
<g id="edge16_Node000012_Node000014" class="edge">
<title>Node14&#45;&gt;Node12</title>
<g id="a_edge16_Node000012_Node000014"><a xlink:title=" ">
<path fill="none" stroke="#63b8ff" d="M431.94,-161.23C449.07,-176.94 477.92,-200.07 508,-209.5 565.66,-227.58 852.84,-207.11 920,-194.5 960.73,-186.85 1004.27,-173.83 1042.15,-160.81"/>
<polygon fill="none" stroke="#63b8ff" points="1042.06,-160.84 1046.41,-155.09 1053.39,-156.89 1049.04,-162.64 1042.06,-160.84"/>
</a>
</g>
<text text-anchor="middle" x="792" y="-243.25" font-family="Cascadia Code NF" font-size="10.00" fill="grey"> +can_allocate</text>
<text text-anchor="middle" x="792" y="-230.5" font-family="Cascadia Code NF" font-size="10.00" fill="grey">+can_create_identity</text>
<text text-anchor="middle" x="792" y="-217.75" font-family="Cascadia Code NF" font-size="10.00" fill="grey">+required_when_unused</text>
</g>
<!-- Node14&#45;&gt;Node13 -->
<g id="edge14_Node000013_Node000014" class="edge">
<title>Node14&#45;&gt;Node13</title>
<g id="a_edge14_Node000013_Node000014"><a xlink:title=" ">
<path fill="none" stroke="#63b8ff" d="M431.69,-139.81C449.79,-133.56 480.59,-123.94 508,-120.25 565.92,-112.45 631.11,-111.95 684.31,-113.65"/>
<polygon fill="none" stroke="#63b8ff" points="684.32,-113.65 690.46,-109.87 696.31,-114.08 690.17,-117.86 684.32,-113.65"/>
</a>
</g>
<text text-anchor="middle" x="577" y="-199.25" font-family="Cascadia Code NF" font-size="10.00" fill="grey"> +after_raw_heap_access</text>
<text text-anchor="middle" x="577" y="-186.5" font-family="Cascadia Code NF" font-size="10.00" fill="grey">+before_raw_heap_access</text>
<text text-anchor="middle" x="577" y="-173.75" font-family="Cascadia Code NF" font-size="10.00" fill="grey">+control_flow</text>
<text text-anchor="middle" x="577" y="-161" font-family="Cascadia Code NF" font-size="10.00" fill="grey">+load_heap_memory</text>
<text text-anchor="middle" x="577" y="-148.25" font-family="Cascadia Code NF" font-size="10.00" fill="grey">+load_off_heap_memory</text>
<text text-anchor="middle" x="577" y="-135.5" font-family="Cascadia Code NF" font-size="10.00" fill="grey">+store_heap_memory</text>
<text text-anchor="middle" x="577" y="-122.75" font-family="Cascadia Code NF" font-size="10.00" fill="grey">+store_off_heap_memory</text>
</g>
<!-- Node15 -->
<g id="Node000015" class="node">
<title>Node15</title>
<g id="a_Node000015"><a xlink:title=" ">
<polygon fill="white" stroke="none" points="441,-82.5 389,-82.5 389,-30.5 441,-30.5 441,-82.5"/>
<text text-anchor="start" x="394" y="-69" font-family="Cascadia Code NF" font-size="10.00">uint8_t</text>
<text text-anchor="start" x="412" y="-53" font-family="Cascadia Code NF" font-size="10.00"> </text>
<text text-anchor="start" x="412" y="-37" font-family="Cascadia Code NF" font-size="10.00"> </text>
<polygon fill="#bfbfbf" stroke="#bfbfbf" points="389,-64.5 389,-64.5 441,-64.5 441,-64.5 389,-64.5"/>
<polygon fill="#bfbfbf" stroke="#bfbfbf" points="389,-48.5 389,-48.5 441,-48.5 441,-48.5 389,-48.5"/>
<polygon fill="none" stroke="#bfbfbf" points="389,-30.5 389,-82.5 441,-82.5 441,-30.5 389,-30.5"/>
</a>
</g>
</g>
<!-- Node15&#45;&gt;Node12 -->
<g id="edge17_Node000012_Node000015" class="edge">
<title>Node15&#45;&gt;Node12</title>
<g id="a_edge17_Node000012_Node000015"><a xlink:title=" ">
<path fill="none" stroke="#63b8ff" d="M440.98,-50.05C514.99,-31.93 739.27,15.67 920,-22 961.67,-30.69 1005.08,-47.49 1042.58,-64.8"/>
<polygon fill="none" stroke="#63b8ff" points="1042.35,-64.69 1049.48,-63.62 1053.21,-69.79 1046.07,-70.86 1042.35,-64.69"/>
</a>
</g>
<text text-anchor="middle" x="792" y="-37.5" font-family="Cascadia Code NF" font-size="10.00" fill="grey"> +unused_padding_1</text>
<text text-anchor="middle" x="792" y="-24.75" font-family="Cascadia Code NF" font-size="10.00" fill="grey">+unused_padding_2</text>
</g>
<!-- Node15&#45;&gt;Node13 -->
<g id="edge15_Node000013_Node000015" class="edge">
<title>Node15&#45;&gt;Node13</title>
<g id="a_edge15_Node000013_Node000015"><a xlink:title=" ">
<path fill="none" stroke="#63b8ff" d="M440.9,-60.75C489.67,-69.07 600.39,-87.97 684.35,-102.3"/>
<polygon fill="none" stroke="#63b8ff" points="684.34,-102.3 690.93,-99.36 696.17,-104.32 689.58,-107.25 684.34,-102.3"/>
</a>
</g>
<text text-anchor="middle" x="577" y="-96.75" font-family="Cascadia Code NF" font-size="10.00" fill="grey"> +unused_padding</text>
</g>
</g>
</svg>
