<?xml version="1.0" encoding="UTF-8" standalone="no"?>
<!DOCTYPE svg PUBLIC "-//W3C//DTD SVG 1.1//EN"
 "http://www.w3.org/Graphics/SVG/1.1/DTD/svg11.dtd">
<!-- Generated by graphviz version 11.0.0 (20240428.1522)
 -->
<!-- Title: v8::internal::TaggedValue Pages: 1 -->
<!--zoomable 278 -->

<svg id="main" version="1.1" xmlns="http://www.w3.org/2000/svg" xmlns:xlink="http://www.w3.org/1999/xlink" xml:space="preserve" onload="init(evt)">
<style type="text/css"><![CDATA[
.node, .edge {opacity: 0.7;}
.node.selected, .edge.selected {opacity: 1;}
.edge:hover path { stroke: red; }
.edge:hover polygon { stroke: red; fill: red; }
svg#main { background-color: #111; }
]]></style>

<defs>
  <circle id="rim" cx="0" cy="0" r="7"/>
  <circle id="rim2" cx="0" cy="0" r="3.5"/>
  <g id="zoomPlus">
    <use xlink:href="#rim" fill="#404040"><set attributeName="fill" to="#808080" begin="zoomplus.mouseover" end="zoomplus.mouseout"/></use>
    <path d="M-4,0h8M0,-4v8" fill="none" stroke="white" stroke-width="1.5" pointer-events="none"/>
  </g>
  <g id="zoomMin">
    <use xlink:href="#rim" fill="#404040"><set attributeName="fill" to="#808080" begin="zoomminus.mouseover" end="zoomminus.mouseout"/></use>
    <path d="M-4,0h8" fill="none" stroke="white" stroke-width="1.5" pointer-events="none"/>
  </g>
  <g id="arrowUp" transform="translate(30 24)">
    <use xlink:href="#rim"/>
    <path pointer-events="none" fill="none" stroke="white" stroke-width="1.5" d="M0,-3.0v7 M-2.5,-0.5L0,-3.0L2.5,-0.5"/>
  </g>
  <g id="arrowRight" transform="rotate(90) translate(36 -43)">
    <use xlink:href="#rim"/>
    <path pointer-events="none" fill="none" stroke="white" stroke-width="1.5" d="M0,-3.0v7 M-2.5,-0.5L0,-3.0L2.5,-0.5"/>
  </g>
  <g id="arrowDown" transform="rotate(180) translate(-30 -48)">
    <use xlink:href="#rim"/>
    <path pointer-events="none" fill="none" stroke="white" stroke-width="1.5" d="M0,-3.0v7 M-2.5,-0.5L0,-3.0L2.5,-0.5"/>
  </g>
  <g id="arrowLeft" transform="rotate(270) translate(-36 17)">
    <use xlink:href="#rim"/>
    <path pointer-events="none" fill="none" stroke="white" stroke-width="1.5" d="M0,-3.0v7 M-2.5,-0.5L0,-3.0L2.5,-0.5"/>
  </g>
  <g id="resetDef">
    <use xlink:href="#rim2" fill="#404040"><set attributeName="fill" to="#808080" begin="reset.mouseover" end="reset.mouseout"/></use>
  </g>
</defs>
<script type="application/ecmascript">
var viewWidth = 512;
var viewHeight = 278;
var sectionId = 'dynsection-1';
</script>
<script type="application/ecmascript" xlink:href="../../svg.min.js"/>
<svg id="graph" class="graph">
<g id="viewport">
<title>v8::internal::TaggedValue</title>
<!-- Node1 -->
<g id="Node000001" class="node">
<title>Node1</title>
<g id="a_Node000001"><a xlink:title=" ">
<polygon fill="#999999" stroke="none" points="504,-185 344,-185 344,-85 504,-85 504,-185"/>
<text text-anchor="start" x="349" y="-171.5" font-family="Cascadia Code NF" font-size="10.00">v8::internal::TaggedValue</text>
<text text-anchor="start" x="421" y="-155.5" font-family="Cascadia Code NF" font-size="10.00"> </text>
<text text-anchor="start" x="361" y="-139.5" font-family="Cascadia Code NF" font-size="10.00">+</text>
<text text-anchor="start" x="384" y="-139.5" font-family="Cascadia Code NF" font-size="10.00">TaggedValue()</text>
<text text-anchor="start" x="361" y="-123.5" font-family="Cascadia Code NF" font-size="10.00">+</text>
<text text-anchor="start" x="384" y="-123.5" font-family="Cascadia Code NF" font-size="10.00">TaggedValue()</text>
<text text-anchor="start" x="361" y="-107.5" font-family="Cascadia Code NF" font-size="10.00">+</text>
<text text-anchor="start" x="384" y="-107.5" font-family="Cascadia Code NF" font-size="10.00">TaggedValue()</text>
<text text-anchor="start" x="361" y="-91.5" font-family="Cascadia Code NF" font-size="10.00">+</text>
<text text-anchor="start" x="384" y="-91.5" font-family="Cascadia Code NF" font-size="10.00">ToMaybeObject()</text>
<polygon fill="#666666" stroke="#666666" points="344,-167 344,-167 504,-167 504,-167 344,-167"/>
<polygon fill="#666666" stroke="#666666" points="344,-151 344,-151 504,-151 504,-151 344,-151"/>
<polygon fill="none" stroke="#666666" points="344,-85 344,-185 504,-185 504,-85 344,-85"/>
</a>
</g>
</g>
<!-- Node2 -->
<g id="Node000002" class="node">
<title>Node2</title>
<g id="a_Node000002"><a xlink:href="../../df/d94/classv8_1_1internal_1_1TaggedImpl.html" target="_top" xlink:title=" ">
<polygon fill="white" stroke="none" points="308,-270 148,-270 148,0 308,0 308,-270"/>
<text text-anchor="start" x="153" y="-256.5" font-family="Cascadia Code NF" font-size="10.00">v8::internal::TaggedImpl</text>
<text text-anchor="start" x="153" y="-243.75" font-family="Cascadia Code NF" font-size="10.00">&lt; HeapObjectReferenceType</text>
<text text-anchor="start" x="174" y="-231" font-family="Cascadia Code NF" font-size="10.00">::WEAK, Tagged_t &gt;</text>
<text text-anchor="start" x="225" y="-214.5" font-family="Cascadia Code NF" font-size="10.00"> </text>
<text text-anchor="start" x="165" y="-198.5" font-family="Cascadia Code NF" font-size="10.00">+</text>
<text text-anchor="start" x="188" y="-198.5" font-family="Cascadia Code NF" font-size="10.00">TaggedImpl()</text>
<text text-anchor="start" x="165" y="-182.5" font-family="Cascadia Code NF" font-size="10.00">+</text>
<text text-anchor="start" x="188" y="-182.5" font-family="Cascadia Code NF" font-size="10.00">TaggedImpl()</text>
<text text-anchor="start" x="165" y="-166.5" font-family="Cascadia Code NF" font-size="10.00">+</text>
<text text-anchor="start" x="188" y="-166.5" font-family="Cascadia Code NF" font-size="10.00">operator bool()</text>
<text text-anchor="start" x="165" y="-150.5" font-family="Cascadia Code NF" font-size="10.00">+</text>
<text text-anchor="start" x="188" y="-150.5" font-family="Cascadia Code NF" font-size="10.00">operator==()</text>
<text text-anchor="start" x="165" y="-134.5" font-family="Cascadia Code NF" font-size="10.00">+</text>
<text text-anchor="start" x="188" y="-134.5" font-family="Cascadia Code NF" font-size="10.00">operator!=()</text>
<text text-anchor="start" x="165" y="-118.5" font-family="Cascadia Code NF" font-size="10.00">+</text>
<text text-anchor="start" x="188" y="-118.5" font-family="Cascadia Code NF" font-size="10.00">SafeEquals()</text>
<text text-anchor="start" x="165" y="-102.5" font-family="Cascadia Code NF" font-size="10.00">+</text>
<text text-anchor="start" x="188" y="-102.5" font-family="Cascadia Code NF" font-size="10.00">operator&lt;()</text>
<text text-anchor="start" x="165" y="-86.5" font-family="Cascadia Code NF" font-size="10.00">+</text>
<text text-anchor="start" x="188" y="-86.5" font-family="Cascadia Code NF" font-size="10.00">ptr()</text>
<text text-anchor="start" x="165" y="-70.5" font-family="Cascadia Code NF" font-size="10.00">+</text>
<text text-anchor="start" x="188" y="-70.5" font-family="Cascadia Code NF" font-size="10.00">IsObject()</text>
<text text-anchor="start" x="165" y="-54.5" font-family="Cascadia Code NF" font-size="10.00">+</text>
<text text-anchor="start" x="188" y="-54.5" font-family="Cascadia Code NF" font-size="10.00">IsSmi()</text>
<text text-anchor="start" x="188" y="-38.5" font-family="Cascadia Code NF" font-size="10.00">and 25 more...</text>
<text text-anchor="start" x="165" y="-22.5" font-family="Cascadia Code NF" font-size="10.00">#</text>
<text text-anchor="start" x="188" y="-22.5" font-family="Cascadia Code NF" font-size="10.00">ptr_location()</text>
<text text-anchor="start" x="165" y="-6.5" font-family="Cascadia Code NF" font-size="10.00">#</text>
<text text-anchor="start" x="188" y="-6.5" font-family="Cascadia Code NF" font-size="10.00">ptr_location()</text>
<polygon fill="#bfbfbf" stroke="#bfbfbf" points="148,-226 148,-226 308,-226 308,-226 148,-226"/>
<polygon fill="#bfbfbf" stroke="#bfbfbf" points="148,-210 148,-210 308,-210 308,-210 148,-210"/>
<polygon fill="none" stroke="#bfbfbf" points="148,0 148,-270 308,-270 308,0 148,0"/>
</a>
</g>
</g>
<!-- Node2&#45;&gt;Node1 -->
<g id="edge1_Node000001_Node000002" class="edge">
<title>Node2&#45;&gt;Node1</title>
<g id="a_edge1_Node000001_Node000002"><a xlink:title=" ">
<path fill="none" stroke="#63b8ff" d="M319.21,-135C327.54,-135 335.94,-135 344.16,-135"/>
<polygon fill="none" stroke="#63b8ff" points="319.42,-131.5 309.42,-135 319.42,-138.5 319.42,-131.5"/>
</a>
</g>
</g>
<!-- Node3 -->
<g id="Node000003" class="node">
<title>Node3</title>
<g id="a_Node000003"><a xlink:title=" ">
<polygon fill="white" stroke="none" points="40,-161 0,-161 0,-109 40,-109 40,-161"/>
<text text-anchor="start" x="5" y="-147.5" font-family="Cascadia Code NF" font-size="10.00">const</text>
<text text-anchor="start" x="17" y="-131.5" font-family="Cascadia Code NF" font-size="10.00"> </text>
<text text-anchor="start" x="17" y="-115.5" font-family="Cascadia Code NF" font-size="10.00"> </text>
<polygon fill="#bfbfbf" stroke="#bfbfbf" points="0,-143 0,-143 40,-143 40,-143 0,-143"/>
<polygon fill="#bfbfbf" stroke="#bfbfbf" points="0,-127 0,-127 40,-127 40,-127 0,-127"/>
<polygon fill="none" stroke="#bfbfbf" points="0,-109 0,-161 40,-161 40,-109 0,-109"/>
</a>
</g>
</g>
<!-- Node3&#45;&gt;Node2 -->
<g id="edge2_Node000002_Node000003" class="edge">
<title>Node3&#45;&gt;Node2</title>
<g id="a_edge2_Node000002_Node000003"><a xlink:title=" ">
<path fill="none" stroke="#63b8ff" d="M39.64,-135C61.53,-135 99.41,-135 135.42,-135"/>
<polygon fill="none" stroke="#63b8ff" points="135.14,-135 141.14,-131 147.14,-135 141.14,-139 135.14,-135"/>
</a>
</g>
<text text-anchor="middle" x="94" y="-151" font-family="Cascadia Code NF" font-size="10.00" fill="grey"> +kCanBeWeak</text>
<text text-anchor="middle" x="94" y="-138.25" font-family="Cascadia Code NF" font-size="10.00" fill="grey">+kIsFull</text>
</g>
</g>
</svg>

<g id="navigator" transform="translate(0 0)" fill="#404254">
  <rect fill="#f2f5e9" fill-opacity="0.5" stroke="#606060" stroke-width=".5" x="0" y="0" width="60" height="60"/>
  <use id="zoomplus" xlink:href="#zoomPlus" x="17" y="9" onmousedown="handleZoom(evt,'in')"/>
  <use id="zoomminus" xlink:href="#zoomMin" x="42" y="9" onmousedown="handleZoom(evt,'out')"/>
  <use id="reset" xlink:href="#resetDef" x="30" y="36" onmousedown="handleReset()"/>
   <use id="arrowup" xlink:href="#arrowUp" x="0" y="0" onmousedown="handlePan(0,-1)"/>
  <use id="arrowright" xlink:href="#arrowRight" x="0" y="0" onmousedown="handlePan(1,0)"/>
  <use id="arrowdown" xlink:href="#arrowDown" x="0" y="0" onmousedown="handlePan(0,1)"/>
  <use id="arrowleft" xlink:href="#arrowLeft" x="0" y="0" onmousedown="handlePan(-1,0)"/>
</g>
<svg viewBox="0 0 15 15" width="100%" height="30px" preserveAspectRatio="xMaxYMin meet">
 <g id="arrow_out" transform="scale(0.3 0.3)">
  <a xlink:href="classv8_1_1internal_1_1TaggedValue__coll__graph_org.svg" target="_base">
   <rect id="button" ry="5" rx="5" y="6" x="6" height="38" width="38"
        fill="#f2f5e9" fill-opacity="0.5" stroke="#606060" stroke-width="1.0"/>
   <path id="arrow"
     d="M 11.500037,31.436501 C 11.940474,20.09759 22.043105,11.32322 32.158766,21.979434 L 37.068811,17.246167 C 37.068811,17.246167 37.088388,32 37.088388,32 L 22.160133,31.978069 C 22.160133,31.978069 26.997745,27.140456 26.997745,27.140456 C 18.528582,18.264221 13.291696,25.230495 11.500037,31.436501 z"
     style="fill:#404040;"/>
  </a>
 </g>
</svg>

<style type='text/css'>
<![CDATA[
[data-mouse-over-selected='false'] { opacity: 0.7; }
[data-mouse-over-selected='true']  { opacity: 1.0; }
]]>
</style>
<script type="application/ecmascript"><![CDATA[
document.addEventListener('DOMContentLoaded', (event) => {
  highlightEdges();
  highlightAdjacentNodes();
});
]]></script>
</svg>
