<?xml version="1.0" encoding="UTF-8" standalone="no"?>
<!DOCTYPE svg PUBLIC "-//W3C//DTD SVG 1.1//EN"
 "http://www.w3.org/Graphics/SVG/1.1/DTD/svg11.dtd">
<!-- Generated by graphviz version 11.0.0 (20240428.1522)
 -->
<!-- Title: v8::internal::JSIteratorMapHelper Pages: 1 -->
<svg width="536pt" height="413pt"
 viewBox="0.00 0.00 536.00 413.00" xmlns="http://www.w3.org/2000/svg" xmlns:xlink="http://www.w3.org/1999/xlink">
<g id="graph0" class="graph" transform="scale(1 1) rotate(0) translate(4 409)">
<title>v8::internal::JSIteratorMapHelper</title>
<!-- Node1 -->
<g id="Node000001" class="node">
<title>Node1</title>
<g id="a_Node000001"><a xlink:title=" ">
<polygon fill="#999999" stroke="none" points="528,-235 374,-235 374,-170 528,-170 528,-235"/>
<text text-anchor="start" x="379" y="-221.5" font-family="Cascadia Code NF" font-size="10.00">v8::internal::JSIterator</text>
<text text-anchor="start" x="424" y="-208.75" font-family="Cascadia Code NF" font-size="10.00">MapHelper</text>
<text text-anchor="start" x="448" y="-192.5" font-family="Cascadia Code NF" font-size="10.00"> </text>
<text text-anchor="start" x="448" y="-176.5" font-family="Cascadia Code NF" font-size="10.00"> </text>
<polygon fill="#666666" stroke="#666666" points="374,-204 374,-204 528,-204 528,-204 374,-204"/>
<polygon fill="#666666" stroke="#666666" points="374,-188 374,-188 528,-188 528,-188 374,-188"/>
<polygon fill="none" stroke="#666666" points="374,-170 374,-235 528,-235 528,-170 374,-170"/>
</a>
</g>
</g>
<!-- Node2 -->
<g id="Node000002" class="node">
<title>Node2</title>
<g id="a_Node000002"><a xlink:href="../../dd/dfb/classTorqueGeneratedJSIteratorMapHelper.html" target="_top" xlink:title=" ">
<polygon fill="white" stroke="none" points="338,-405 142,-405 142,0 338,0 338,-405"/>
<text text-anchor="start" x="147" y="-391.5" font-family="Cascadia Code NF" font-size="10.00">TorqueGeneratedJSIterator</text>
<text text-anchor="start" x="147" y="-378.75" font-family="Cascadia Code NF" font-size="10.00">MapHelper&lt; JSIteratorMapHelper,</text>
<text text-anchor="start" x="183" y="-366" font-family="Cascadia Code NF" font-size="10.00"> JSIteratorHelper &gt;</text>
<text text-anchor="start" x="151.5" y="-349.5" font-family="Cascadia Code NF" font-size="10.00">+</text>
<text text-anchor="start" x="167" y="-349.5" font-family="Cascadia Code NF" font-size="10.00">kStartOfStrongFieldsOffset</text>
<text text-anchor="start" x="151.5" y="-333.5" font-family="Cascadia Code NF" font-size="10.00">+</text>
<text text-anchor="start" x="167" y="-333.5" font-family="Cascadia Code NF" font-size="10.00">kMapperOffset</text>
<text text-anchor="start" x="151.5" y="-317.5" font-family="Cascadia Code NF" font-size="10.00">+</text>
<text text-anchor="start" x="167" y="-317.5" font-family="Cascadia Code NF" font-size="10.00">kMapperOffsetEnd</text>
<text text-anchor="start" x="151.5" y="-301.5" font-family="Cascadia Code NF" font-size="10.00">+</text>
<text text-anchor="start" x="167" y="-301.5" font-family="Cascadia Code NF" font-size="10.00">kCounterOffset</text>
<text text-anchor="start" x="151.5" y="-285.5" font-family="Cascadia Code NF" font-size="10.00">+</text>
<text text-anchor="start" x="167" y="-285.5" font-family="Cascadia Code NF" font-size="10.00">kCounterOffsetEnd</text>
<text text-anchor="start" x="151.5" y="-269.5" font-family="Cascadia Code NF" font-size="10.00">+</text>
<text text-anchor="start" x="167" y="-269.5" font-family="Cascadia Code NF" font-size="10.00">kEndOfStrongFieldsOffset</text>
<text text-anchor="start" x="151.5" y="-253.5" font-family="Cascadia Code NF" font-size="10.00">+</text>
<text text-anchor="start" x="167" y="-253.5" font-family="Cascadia Code NF" font-size="10.00">kStartOfWeakFieldsOffset</text>
<text text-anchor="start" x="151.5" y="-237.5" font-family="Cascadia Code NF" font-size="10.00">+</text>
<text text-anchor="start" x="167" y="-237.5" font-family="Cascadia Code NF" font-size="10.00">kEndOfWeakFieldsOffset</text>
<text text-anchor="start" x="151.5" y="-221.5" font-family="Cascadia Code NF" font-size="10.00">+</text>
<text text-anchor="start" x="167" y="-221.5" font-family="Cascadia Code NF" font-size="10.00">kHeaderSize</text>
<text text-anchor="start" x="151.5" y="-205.5" font-family="Cascadia Code NF" font-size="10.00">+</text>
<text text-anchor="start" x="167" y="-205.5" font-family="Cascadia Code NF" font-size="10.00">mapper()</text>
<text text-anchor="start" x="151.5" y="-189.5" font-family="Cascadia Code NF" font-size="10.00">+</text>
<text text-anchor="start" x="167" y="-189.5" font-family="Cascadia Code NF" font-size="10.00">mapper()</text>
<text text-anchor="start" x="151.5" y="-173.5" font-family="Cascadia Code NF" font-size="10.00">+</text>
<text text-anchor="start" x="167" y="-173.5" font-family="Cascadia Code NF" font-size="10.00">set_mapper()</text>
<text text-anchor="start" x="151.5" y="-157.5" font-family="Cascadia Code NF" font-size="10.00">+</text>
<text text-anchor="start" x="167" y="-157.5" font-family="Cascadia Code NF" font-size="10.00">counter()</text>
<text text-anchor="start" x="151.5" y="-141.5" font-family="Cascadia Code NF" font-size="10.00">+</text>
<text text-anchor="start" x="167" y="-141.5" font-family="Cascadia Code NF" font-size="10.00">counter()</text>
<text text-anchor="start" x="151.5" y="-125.5" font-family="Cascadia Code NF" font-size="10.00">+</text>
<text text-anchor="start" x="167" y="-125.5" font-family="Cascadia Code NF" font-size="10.00">set_counter()</text>
<text text-anchor="start" x="151.5" y="-109.5" font-family="Cascadia Code NF" font-size="10.00">+</text>
<text text-anchor="start" x="167" y="-109.5" font-family="Cascadia Code NF" font-size="10.00">TorqueGeneratedJSIterator</text>
<text text-anchor="start" x="167" y="-96.75" font-family="Cascadia Code NF" font-size="10.00">MapHelper()</text>
<text text-anchor="start" x="151.5" y="-80.5" font-family="Cascadia Code NF" font-size="10.00">+</text>
<text text-anchor="start" x="167" y="-80.5" font-family="Cascadia Code NF" font-size="10.00">cast()</text>
<text text-anchor="start" x="151.5" y="-64.5" font-family="Cascadia Code NF" font-size="10.00">+</text>
<text text-anchor="start" x="167" y="-64.5" font-family="Cascadia Code NF" font-size="10.00">unchecked_cast()</text>
<text text-anchor="start" x="151.5" y="-48.5" font-family="Cascadia Code NF" font-size="10.00">#</text>
<text text-anchor="start" x="167" y="-48.5" font-family="Cascadia Code NF" font-size="10.00">TorqueGeneratedJSIterator</text>
<text text-anchor="start" x="167" y="-35.75" font-family="Cascadia Code NF" font-size="10.00">MapHelper()</text>
<text text-anchor="start" x="151.5" y="-19.5" font-family="Cascadia Code NF" font-size="10.00">#</text>
<text text-anchor="start" x="167" y="-19.5" font-family="Cascadia Code NF" font-size="10.00">TorqueGeneratedJSIterator</text>
<text text-anchor="start" x="167" y="-6.75" font-family="Cascadia Code NF" font-size="10.00">MapHelper()</text>
<polygon fill="#bfbfbf" stroke="#bfbfbf" points="142,-361 142,-361 338,-361 338,-361 142,-361"/>
<polygon fill="#bfbfbf" stroke="#bfbfbf" points="142,-217 142,-217 165,-217 165,-217 142,-217"/>
<polygon fill="#bfbfbf" stroke="#bfbfbf" points="165,-217 165,-217 338,-217 338,-217 165,-217"/>
<polygon fill="none" stroke="#bfbfbf" points="142,0 142,-405 338,-405 338,0 142,0"/>
</a>
</g>
</g>
<!-- Node2&#45;&gt;Node1 -->
<g id="edge1_Node000001_Node000002" class="edge">
<title>Node2&#45;&gt;Node1</title>
<g id="a_edge1_Node000001_Node000002"><a xlink:title=" ">
<path fill="none" stroke="#63b8ff" d="M349.28,-202.5C357.67,-202.5 366.02,-202.5 374.12,-202.5"/>
<polygon fill="none" stroke="#63b8ff" points="349.37,-199 339.37,-202.5 349.37,-206 349.37,-199"/>
</a>
</g>
</g>
<!-- Node3 -->
<g id="Node000003" class="node">
<title>Node3</title>
<g id="a_Node000003"><a xlink:title=" ">
<polygon fill="white" stroke="none" points="106,-228.5 0,-228.5 0,-176.5 106,-176.5 106,-228.5"/>
<text text-anchor="start" x="5" y="-215" font-family="Cascadia Code NF" font-size="10.00">JSIteratorHelper</text>
<text text-anchor="start" x="50" y="-199" font-family="Cascadia Code NF" font-size="10.00"> </text>
<text text-anchor="start" x="50" y="-183" font-family="Cascadia Code NF" font-size="10.00"> </text>
<polygon fill="#bfbfbf" stroke="#bfbfbf" points="0,-210.5 0,-210.5 106,-210.5 106,-210.5 0,-210.5"/>
<polygon fill="#bfbfbf" stroke="#bfbfbf" points="0,-194.5 0,-194.5 106,-194.5 106,-194.5 0,-194.5"/>
<polygon fill="none" stroke="#bfbfbf" points="0,-176.5 0,-228.5 106,-228.5 106,-176.5 0,-176.5"/>
</a>
</g>
</g>
<!-- Node3&#45;&gt;Node2 -->
<g id="edge2_Node000002_Node000003" class="edge">
<title>Node3&#45;&gt;Node2</title>
<g id="a_edge2_Node000002_Node000003"><a xlink:title=" ">
<path fill="none" stroke="#63b8ff" d="M116.82,-202.5C124.98,-202.5 133.5,-202.5 142.06,-202.5"/>
<polygon fill="none" stroke="#63b8ff" points="117.05,-199 107.05,-202.5 117.05,-206 117.05,-199"/>
</a>
</g>
</g>
</g>
</svg>
