<?xml version="1.0" encoding="UTF-8" standalone="no"?>
<!DOCTYPE svg PUBLIC "-//W3C//DTD SVG 1.1//EN"
 "http://www.w3.org/Graphics/SVG/1.1/DTD/svg11.dtd">
<!-- Generated by graphviz version 11.0.0 (20240428.1522)
 -->
<!-- Title: v8::internal::TypeConversion_BaselineDescriptor Pages: 1 -->
<!--zoomable 406 -->

<svg id="main" version="1.1" xmlns="http://www.w3.org/2000/svg" xmlns:xlink="http://www.w3.org/1999/xlink" xml:space="preserve" onload="init(evt)">
<style type="text/css"><![CDATA[
.node, .edge {opacity: 0.7;}
.node.selected, .edge.selected {opacity: 1;}
.edge:hover path { stroke: red; }
.edge:hover polygon { stroke: red; fill: red; }
svg#main { background-color: #111; }
]]></style>

<defs>
  <circle id="rim" cx="0" cy="0" r="7"/>
  <circle id="rim2" cx="0" cy="0" r="3.5"/>
  <g id="zoomPlus">
    <use xlink:href="#rim" fill="#404040"><set attributeName="fill" to="#808080" begin="zoomplus.mouseover" end="zoomplus.mouseout"/></use>
    <path d="M-4,0h8M0,-4v8" fill="none" stroke="white" stroke-width="1.5" pointer-events="none"/>
  </g>
  <g id="zoomMin">
    <use xlink:href="#rim" fill="#404040"><set attributeName="fill" to="#808080" begin="zoomminus.mouseover" end="zoomminus.mouseout"/></use>
    <path d="M-4,0h8" fill="none" stroke="white" stroke-width="1.5" pointer-events="none"/>
  </g>
  <g id="arrowUp" transform="translate(30 24)">
    <use xlink:href="#rim"/>
    <path pointer-events="none" fill="none" stroke="white" stroke-width="1.5" d="M0,-3.0v7 M-2.5,-0.5L0,-3.0L2.5,-0.5"/>
  </g>
  <g id="arrowRight" transform="rotate(90) translate(36 -43)">
    <use xlink:href="#rim"/>
    <path pointer-events="none" fill="none" stroke="white" stroke-width="1.5" d="M0,-3.0v7 M-2.5,-0.5L0,-3.0L2.5,-0.5"/>
  </g>
  <g id="arrowDown" transform="rotate(180) translate(-30 -48)">
    <use xlink:href="#rim"/>
    <path pointer-events="none" fill="none" stroke="white" stroke-width="1.5" d="M0,-3.0v7 M-2.5,-0.5L0,-3.0L2.5,-0.5"/>
  </g>
  <g id="arrowLeft" transform="rotate(270) translate(-36 17)">
    <use xlink:href="#rim"/>
    <path pointer-events="none" fill="none" stroke="white" stroke-width="1.5" d="M0,-3.0v7 M-2.5,-0.5L0,-3.0L2.5,-0.5"/>
  </g>
  <g id="resetDef">
    <use xlink:href="#rim2" fill="#404040"><set attributeName="fill" to="#808080" begin="reset.mouseover" end="reset.mouseout"/></use>
  </g>
</defs>
<script type="application/ecmascript">
var viewWidth = 682;
var viewHeight = 406;
var sectionId = 'dynsection-0';
</script>
<script type="application/ecmascript" xlink:href="../../svg.min.js"/>
<svg id="graph" class="graph">
<g id="viewport">
<title>v8::internal::TypeConversion_BaselineDescriptor</title>
<!-- Node1 -->
<g id="Node000001" class="node">
<title>Node1</title>
<g id="a_Node000001"><a xlink:title=" ">
<polygon fill="#999999" stroke="none" points="674,-231.5 496,-231.5 496,-166.5 674,-166.5 674,-231.5"/>
<text text-anchor="start" x="501" y="-218" font-family="Cascadia Code NF" font-size="10.00">v8::internal::TypeConversion</text>
<text text-anchor="start" x="528" y="-205.25" font-family="Cascadia Code NF" font-size="10.00">_BaselineDescriptor</text>
<text text-anchor="start" x="582" y="-189" font-family="Cascadia Code NF" font-size="10.00"> </text>
<text text-anchor="start" x="582" y="-173" font-family="Cascadia Code NF" font-size="10.00"> </text>
<polygon fill="#666666" stroke="#666666" points="496,-200.5 496,-200.5 674,-200.5 674,-200.5 496,-200.5"/>
<polygon fill="#666666" stroke="#666666" points="496,-184.5 496,-184.5 674,-184.5 674,-184.5 496,-184.5"/>
<polygon fill="none" stroke="#666666" points="496,-166.5 496,-231.5 674,-231.5 674,-166.5 496,-166.5"/>
</a>
</g>
</g>
<!-- Node2 -->
<g id="Node000002" class="node">
<title>Node2</title>
<g id="a_Node000002"><a xlink:href="../../d8/d7b/classv8_1_1internal_1_1StaticCallInterfaceDescriptor.html" target="_top" xlink:title=" ">
<polygon fill="white" stroke="none" points="460,-398 240,-398 240,0 460,0 460,-398"/>
<text text-anchor="start" x="245" y="-384.5" font-family="Cascadia Code NF" font-size="10.00">v8::internal::StaticCall</text>
<text text-anchor="start" x="245" y="-371.75" font-family="Cascadia Code NF" font-size="10.00">InterfaceDescriptor&lt; TypeConversion</text>
<text text-anchor="start" x="287" y="-359" font-family="Cascadia Code NF" font-size="10.00">_BaselineDescriptor &gt;</text>
<text text-anchor="start" x="248" y="-342.5" font-family="Cascadia Code NF" font-size="10.00">+</text>
<text text-anchor="start" x="262" y="-342.5" font-family="Cascadia Code NF" font-size="10.00">kReturnCount</text>
<text text-anchor="start" x="248" y="-326.5" font-family="Cascadia Code NF" font-size="10.00">+</text>
<text text-anchor="start" x="262" y="-326.5" font-family="Cascadia Code NF" font-size="10.00">kParameterCount</text>
<text text-anchor="start" x="248" y="-310.5" font-family="Cascadia Code NF" font-size="10.00">+</text>
<text text-anchor="start" x="262" y="-310.5" font-family="Cascadia Code NF" font-size="10.00">kNoContext</text>
<text text-anchor="start" x="248" y="-294.5" font-family="Cascadia Code NF" font-size="10.00">+</text>
<text text-anchor="start" x="262" y="-294.5" font-family="Cascadia Code NF" font-size="10.00">kAllowVarArgs</text>
<text text-anchor="start" x="248" y="-278.5" font-family="Cascadia Code NF" font-size="10.00">+</text>
<text text-anchor="start" x="262" y="-278.5" font-family="Cascadia Code NF" font-size="10.00">kNoStackScan</text>
<text text-anchor="start" x="248" y="-262.5" font-family="Cascadia Code NF" font-size="10.00">+</text>
<text text-anchor="start" x="262" y="-262.5" font-family="Cascadia Code NF" font-size="10.00">kStackArgumentOrder</text>
<text text-anchor="start" x="248" y="-246.5" font-family="Cascadia Code NF" font-size="10.00">+</text>
<text text-anchor="start" x="262" y="-246.5" font-family="Cascadia Code NF" font-size="10.00">kMaxRegisterParams</text>
<text text-anchor="start" x="248" y="-230.5" font-family="Cascadia Code NF" font-size="10.00">+</text>
<text text-anchor="start" x="262" y="-230.5" font-family="Cascadia Code NF" font-size="10.00">kRestrictAllocatableRegisters</text>
<text text-anchor="start" x="248" y="-214.5" font-family="Cascadia Code NF" font-size="10.00">+</text>
<text text-anchor="start" x="262" y="-214.5" font-family="Cascadia Code NF" font-size="10.00">kCalleeSaveRegisters</text>
<text text-anchor="start" x="248" y="-198.5" font-family="Cascadia Code NF" font-size="10.00">+</text>
<text text-anchor="start" x="262" y="-198.5" font-family="Cascadia Code NF" font-size="10.00">kCustomMachineTypes</text>
<text text-anchor="start" x="248" y="-182.5" font-family="Cascadia Code NF" font-size="10.00">+</text>
<text text-anchor="start" x="262" y="-182.5" font-family="Cascadia Code NF" font-size="10.00">StaticCallInterfaceDescriptor()</text>
<text text-anchor="start" x="248" y="-166.5" font-family="Cascadia Code NF" font-size="10.00">+</text>
<text text-anchor="start" x="262" y="-166.5" font-family="Cascadia Code NF" font-size="10.00">registers()</text>
<text text-anchor="start" x="248" y="-150.5" font-family="Cascadia Code NF" font-size="10.00">+</text>
<text text-anchor="start" x="262" y="-150.5" font-family="Cascadia Code NF" font-size="10.00">double_registers()</text>
<text text-anchor="start" x="248" y="-134.5" font-family="Cascadia Code NF" font-size="10.00">+</text>
<text text-anchor="start" x="262" y="-134.5" font-family="Cascadia Code NF" font-size="10.00">return_registers()</text>
<text text-anchor="start" x="248" y="-118.5" font-family="Cascadia Code NF" font-size="10.00">+</text>
<text text-anchor="start" x="262" y="-118.5" font-family="Cascadia Code NF" font-size="10.00">return_double_registers()</text>
<text text-anchor="start" x="248" y="-102.5" font-family="Cascadia Code NF" font-size="10.00">+</text>
<text text-anchor="start" x="262" y="-102.5" font-family="Cascadia Code NF" font-size="10.00">flags()</text>
<text text-anchor="start" x="248" y="-86.5" font-family="Cascadia Code NF" font-size="10.00">+</text>
<text text-anchor="start" x="262" y="-86.5" font-family="Cascadia Code NF" font-size="10.00">AllowVarArgs()</text>
<text text-anchor="start" x="248" y="-70.5" font-family="Cascadia Code NF" font-size="10.00">+</text>
<text text-anchor="start" x="262" y="-70.5" font-family="Cascadia Code NF" font-size="10.00">HasContextParameter()</text>
<text text-anchor="start" x="248" y="-54.5" font-family="Cascadia Code NF" font-size="10.00">+</text>
<text text-anchor="start" x="262" y="-54.5" font-family="Cascadia Code NF" font-size="10.00">GetReturnCount()</text>
<text text-anchor="start" x="248" y="-38.5" font-family="Cascadia Code NF" font-size="10.00">+</text>
<text text-anchor="start" x="262" y="-38.5" font-family="Cascadia Code NF" font-size="10.00">GetParameterCount()</text>
<text text-anchor="start" x="248" y="-22.5" font-family="Cascadia Code NF" font-size="10.00">+</text>
<text text-anchor="start" x="262" y="-22.5" font-family="Cascadia Code NF" font-size="10.00">GetRegisterParameterCount()</text>
<text text-anchor="start" x="262" y="-6.5" font-family="Cascadia Code NF" font-size="10.00">and 6 more...</text>
<polygon fill="#bfbfbf" stroke="#bfbfbf" points="240,-354 240,-354 460,-354 460,-354 240,-354"/>
<polygon fill="#bfbfbf" stroke="#bfbfbf" points="240,-194 240,-194 260,-194 260,-194 240,-194"/>
<polygon fill="#bfbfbf" stroke="#bfbfbf" points="260,-194 260,-194 460,-194 460,-194 260,-194"/>
<polygon fill="none" stroke="#bfbfbf" points="240,0 240,-398 460,-398 460,0 240,0"/>
</a>
</g>
</g>
<!-- Node2&#45;&gt;Node1 -->
<g id="edge1_Node000001_Node000002" class="edge">
<title>Node2&#45;&gt;Node1</title>
<g id="a_edge1_Node000001_Node000002"><a xlink:title=" ">
<path fill="none" stroke="#63b8ff" d="M471.34,-199C479.65,-199 487.94,-199 496.04,-199"/>
<polygon fill="none" stroke="#63b8ff" points="471.51,-195.5 461.51,-199 471.51,-202.5 471.51,-195.5"/>
</a>
</g>
</g>
<!-- Node3 -->
<g id="Node000003" class="node">
<title>Node3</title>
<g id="a_Node000003"><a xlink:href="../../d5/d76/classv8_1_1internal_1_1CallInterfaceDescriptor.html" target="_top" xlink:title=" ">
<polygon fill="white" stroke="none" points="204,-390 0,-390 0,-8 204,-8 204,-390"/>
<text text-anchor="start" x="21" y="-376.5" font-family="Cascadia Code NF" font-size="10.00">v8::internal::CallInterface</text>
<text text-anchor="start" x="72" y="-363.75" font-family="Cascadia Code NF" font-size="10.00">Descriptor</text>
<text text-anchor="start" x="99" y="-347.5" font-family="Cascadia Code NF" font-size="10.00"> </text>
<text text-anchor="start" x="4" y="-331.5" font-family="Cascadia Code NF" font-size="10.00">+</text>
<text text-anchor="start" x="14" y="-331.5" font-family="Cascadia Code NF" font-size="10.00">CallInterfaceDescriptor()</text>
<text text-anchor="start" x="4" y="-315.5" font-family="Cascadia Code NF" font-size="10.00">+</text>
<text text-anchor="start" x="14" y="-315.5" font-family="Cascadia Code NF" font-size="10.00">~CallInterfaceDescriptor()</text>
<text text-anchor="start" x="4" y="-299.5" font-family="Cascadia Code NF" font-size="10.00">+</text>
<text text-anchor="start" x="14" y="-299.5" font-family="Cascadia Code NF" font-size="10.00">CallInterfaceDescriptor()</text>
<text text-anchor="start" x="4" y="-283.5" font-family="Cascadia Code NF" font-size="10.00">+</text>
<text text-anchor="start" x="14" y="-283.5" font-family="Cascadia Code NF" font-size="10.00">flags()</text>
<text text-anchor="start" x="4" y="-267.5" font-family="Cascadia Code NF" font-size="10.00">+</text>
<text text-anchor="start" x="14" y="-267.5" font-family="Cascadia Code NF" font-size="10.00">tag()</text>
<text text-anchor="start" x="4" y="-251.5" font-family="Cascadia Code NF" font-size="10.00">+</text>
<text text-anchor="start" x="14" y="-251.5" font-family="Cascadia Code NF" font-size="10.00">HasContextParameter()</text>
<text text-anchor="start" x="4" y="-235.5" font-family="Cascadia Code NF" font-size="10.00">+</text>
<text text-anchor="start" x="14" y="-235.5" font-family="Cascadia Code NF" font-size="10.00">AllowVarArgs()</text>
<text text-anchor="start" x="4" y="-219.5" font-family="Cascadia Code NF" font-size="10.00">+</text>
<text text-anchor="start" x="14" y="-219.5" font-family="Cascadia Code NF" font-size="10.00">CalleeSaveRegisters()</text>
<text text-anchor="start" x="4" y="-203.5" font-family="Cascadia Code NF" font-size="10.00">+</text>
<text text-anchor="start" x="14" y="-203.5" font-family="Cascadia Code NF" font-size="10.00">GetReturnCount()</text>
<text text-anchor="start" x="4" y="-187.5" font-family="Cascadia Code NF" font-size="10.00">+</text>
<text text-anchor="start" x="14" y="-187.5" font-family="Cascadia Code NF" font-size="10.00">GetReturnType()</text>
<text text-anchor="start" x="14" y="-171.5" font-family="Cascadia Code NF" font-size="10.00">and 12 more...</text>
<text text-anchor="start" x="4" y="-155.5" font-family="Cascadia Code NF" font-size="10.00">+</text>
<text text-anchor="start" x="14" y="-155.5" font-family="Cascadia Code NF" font-size="10.00">ContextRegister()</text>
<text text-anchor="start" x="4" y="-139.5" font-family="Cascadia Code NF" font-size="10.00">#</text>
<text text-anchor="start" x="14" y="-139.5" font-family="Cascadia Code NF" font-size="10.00">data()</text>
<text text-anchor="start" x="4" y="-123.5" font-family="Cascadia Code NF" font-size="10.00">#</text>
<text text-anchor="start" x="14" y="-123.5" font-family="Cascadia Code NF" font-size="10.00">CheckFloatingPointParameters()</text>
<text text-anchor="start" x="4" y="-107.5" font-family="Cascadia Code NF" font-size="10.00">#</text>
<text text-anchor="start" x="14" y="-107.5" font-family="Cascadia Code NF" font-size="10.00">IsValidFloatParameterRegister()</text>
<text text-anchor="start" x="4" y="-91.5" font-family="Cascadia Code NF" font-size="10.00">#</text>
<text text-anchor="start" x="14" y="-91.5" font-family="Cascadia Code NF" font-size="10.00">DefaultRegisterArray()</text>
<text text-anchor="start" x="4" y="-75.5" font-family="Cascadia Code NF" font-size="10.00">#</text>
<text text-anchor="start" x="14" y="-75.5" font-family="Cascadia Code NF" font-size="10.00">DefaultDoubleRegisterArray()</text>
<text text-anchor="start" x="4" y="-59.5" font-family="Cascadia Code NF" font-size="10.00">#</text>
<text text-anchor="start" x="14" y="-59.5" font-family="Cascadia Code NF" font-size="10.00">DefaultReturnRegisterArray()</text>
<text text-anchor="start" x="4" y="-43.5" font-family="Cascadia Code NF" font-size="10.00">#</text>
<text text-anchor="start" x="14" y="-43.5" font-family="Cascadia Code NF" font-size="10.00">DefaultReturnDoubleRegister</text>
<text text-anchor="start" x="14" y="-30.75" font-family="Cascadia Code NF" font-size="10.00">Array()</text>
<text text-anchor="start" x="4" y="-14.5" font-family="Cascadia Code NF" font-size="10.00">#</text>
<text text-anchor="start" x="14" y="-14.5" font-family="Cascadia Code NF" font-size="10.00">DefaultJSRegisterArray()</text>
<polygon fill="#bfbfbf" stroke="#bfbfbf" points="0,-359 0,-359 204,-359 204,-359 0,-359"/>
<polygon fill="#bfbfbf" stroke="#bfbfbf" points="0,-343 0,-343 204,-343 204,-343 0,-343"/>
<polygon fill="none" stroke="#bfbfbf" points="0,-8 0,-390 204,-390 204,-8 0,-8"/>
</a>
</g>
</g>
<!-- Node3&#45;&gt;Node2 -->
<g id="edge2_Node000002_Node000003" class="edge">
<title>Node3&#45;&gt;Node2</title>
<g id="a_edge2_Node000002_Node000003"><a xlink:title=" ">
<path fill="none" stroke="#63b8ff" d="M215.16,-199C223.55,-199 232.02,-199 240.39,-199"/>
<polygon fill="none" stroke="#63b8ff" points="215.28,-195.5 205.28,-199 215.28,-202.5 215.28,-195.5"/>
</a>
</g>
</g>
</g>
</svg>

<g id="navigator" transform="translate(0 0)" fill="#404254">
  <rect fill="#f2f5e9" fill-opacity="0.5" stroke="#606060" stroke-width=".5" x="0" y="0" width="60" height="60"/>
  <use id="zoomplus" xlink:href="#zoomPlus" x="17" y="9" onmousedown="handleZoom(evt,'in')"/>
  <use id="zoomminus" xlink:href="#zoomMin" x="42" y="9" onmousedown="handleZoom(evt,'out')"/>
  <use id="reset" xlink:href="#resetDef" x="30" y="36" onmousedown="handleReset()"/>
   <use id="arrowup" xlink:href="#arrowUp" x="0" y="0" onmousedown="handlePan(0,-1)"/>
  <use id="arrowright" xlink:href="#arrowRight" x="0" y="0" onmousedown="handlePan(1,0)"/>
  <use id="arrowdown" xlink:href="#arrowDown" x="0" y="0" onmousedown="handlePan(0,1)"/>
  <use id="arrowleft" xlink:href="#arrowLeft" x="0" y="0" onmousedown="handlePan(-1,0)"/>
</g>
<svg viewBox="0 0 15 15" width="100%" height="30px" preserveAspectRatio="xMaxYMin meet">
 <g id="arrow_out" transform="scale(0.3 0.3)">
  <a xlink:href="classv8_1_1internal_1_1TypeConversion__BaselineDescriptor__inherit__graph_org.svg" target="_base">
   <rect id="button" ry="5" rx="5" y="6" x="6" height="38" width="38"
        fill="#f2f5e9" fill-opacity="0.5" stroke="#606060" stroke-width="1.0"/>
   <path id="arrow"
     d="M 11.500037,31.436501 C 11.940474,20.09759 22.043105,11.32322 32.158766,21.979434 L 37.068811,17.246167 C 37.068811,17.246167 37.088388,32 37.088388,32 L 22.160133,31.978069 C 22.160133,31.978069 26.997745,27.140456 26.997745,27.140456 C 18.528582,18.264221 13.291696,25.230495 11.500037,31.436501 z"
     style="fill:#404040;"/>
  </a>
 </g>
</svg>

<style type='text/css'>
<![CDATA[
[data-mouse-over-selected='false'] { opacity: 0.7; }
[data-mouse-over-selected='true']  { opacity: 1.0; }
]]>
</style>
<script type="application/ecmascript"><![CDATA[
document.addEventListener('DOMContentLoaded', (event) => {
  highlightEdges();
  highlightAdjacentNodes();
});
]]></script>
</svg>
