<?xml version="1.0" encoding="UTF-8" standalone="no"?>
<!DOCTYPE svg PUBLIC "-//W3C//DTD SVG 1.1//EN"
 "http://www.w3.org/Graphics/SVG/1.1/DTD/svg11.dtd">
<!-- Generated by graphviz version 11.0.0 (20240428.1522)
 -->
<!-- Title: v8_crdtp::ProtocolTypeTraits&lt; v8_inspector::protocol::Binary &gt; Pages: 1 -->
<svg width="186pt" height="102pt"
 viewBox="0.00 0.00 186.00 102.00" xmlns="http://www.w3.org/2000/svg" xmlns:xlink="http://www.w3.org/1999/xlink">
<g id="graph0" class="graph" transform="scale(1 1) rotate(0) translate(4 98)">
<title>v8_crdtp::ProtocolTypeTraits&lt; v8_inspector::protocol::Binary &gt;</title>
<!-- Node1 -->
<g id="Node000001" class="node">
<title>Node1</title>
<g id="a_Node000001"><a xlink:title=" ">
<polygon fill="#999999" stroke="none" points="178,-94 0,-94 0,0 178,0 178,-94"/>
<text text-anchor="start" x="5" y="-80.5" font-family="Cascadia Code NF" font-size="10.00">v8_crdtp::ProtocolTypeTraits</text>
<text text-anchor="start" x="5" y="-67.75" font-family="Cascadia Code NF" font-size="10.00">&lt; v8_inspector::protocol</text>
<text text-anchor="start" x="59" y="-55" font-family="Cascadia Code NF" font-size="10.00">::Binary &gt;</text>
<text text-anchor="start" x="86" y="-38.5" font-family="Cascadia Code NF" font-size="10.00"> </text>
<text text-anchor="start" x="24.5" y="-22.5" font-family="Cascadia Code NF" font-size="10.00">+</text>
<text text-anchor="start" x="55" y="-22.5" font-family="Cascadia Code NF" font-size="10.00">Deserialize()</text>
<text text-anchor="start" x="24.5" y="-6.5" font-family="Cascadia Code NF" font-size="10.00">+</text>
<text text-anchor="start" x="55" y="-6.5" font-family="Cascadia Code NF" font-size="10.00">Serialize()</text>
<polygon fill="#666666" stroke="#666666" points="0,-50 0,-50 178,-50 178,-50 0,-50"/>
<polygon fill="#666666" stroke="#666666" points="0,-34 0,-34 178,-34 178,-34 0,-34"/>
<polygon fill="none" stroke="#666666" points="0,0 0,-94 178,-94 178,0 0,0"/>
</a>
</g>
</g>
</g>
</svg>
