<?xml version="1.0" encoding="UTF-8" standalone="no"?>
<!DOCTYPE svg PUBLIC "-//W3C//DTD SVG 1.1//EN"
 "http://www.w3.org/Graphics/SVG/1.1/DTD/svg11.dtd">
<!-- Generated by graphviz version 11.0.0 (20240428.1522)
 -->
<!-- Title: v8::internal::FourByteInstruction Pages: 1 -->
<svg width="1084pt" height="428pt"
 viewBox="0.00 0.00 1084.00 428.00" xmlns="http://www.w3.org/2000/svg" xmlns:xlink="http://www.w3.org/1999/xlink">
<g id="graph0" class="graph" transform="scale(1 1) rotate(0) translate(4 424)">
<title>v8::internal::FourByteInstruction</title>
<!-- Node1 -->
<g id="Node000001" class="node">
<title>Node1</title>
<g id="a_Node000001"><a xlink:title=" ">
<polygon fill="#999999" stroke="none" points="868,-236 660,-236 660,-184 868,-184 868,-236"/>
<text text-anchor="start" x="665" y="-222.5" font-family="Cascadia Code NF" font-size="10.00">v8::internal::FourByteInstruction</text>
<text text-anchor="start" x="761" y="-206.5" font-family="Cascadia Code NF" font-size="10.00"> </text>
<text text-anchor="start" x="702.5" y="-190.5" font-family="Cascadia Code NF" font-size="10.00">+</text>
<text text-anchor="start" x="751" y="-190.5" font-family="Cascadia Code NF" font-size="10.00">size()</text>
<polygon fill="#666666" stroke="#666666" points="660,-218 660,-218 868,-218 868,-218 660,-218"/>
<polygon fill="#666666" stroke="#666666" points="660,-202 660,-202 868,-202 868,-202 660,-202"/>
<polygon fill="none" stroke="#666666" points="660,-184 660,-236 868,-236 868,-184 660,-184"/>
</a>
</g>
</g>
<!-- Node5 -->
<g id="Node000005" class="node">
<title>Node5</title>
<g id="a_Node000005"><a xlink:href="../../dd/de3/classv8_1_1internal_1_1IEInstruction.html" target="_top" xlink:title=" ">
<polygon fill="white" stroke="none" points="1076,-271 904,-271 904,-219 1076,-219 1076,-271"/>
<text text-anchor="start" x="909" y="-257.5" font-family="Cascadia Code NF" font-size="10.00">v8::internal::IEInstruction</text>
<text text-anchor="start" x="987" y="-241.5" font-family="Cascadia Code NF" font-size="10.00"> </text>
<text text-anchor="start" x="987" y="-225.5" font-family="Cascadia Code NF" font-size="10.00"> </text>
<polygon fill="#bfbfbf" stroke="#bfbfbf" points="904,-253 904,-253 1076,-253 1076,-253 904,-253"/>
<polygon fill="#bfbfbf" stroke="#bfbfbf" points="904,-237 904,-237 1076,-237 1076,-237 904,-237"/>
<polygon fill="none" stroke="#bfbfbf" points="904,-219 904,-271 1076,-271 1076,-219 904,-219"/>
</a>
</g>
</g>
<!-- Node1&#45;&gt;Node5 -->
<g id="edge8_Node000001_Node000005" class="edge">
<title>Node1&#45;&gt;Node5</title>
<g id="a_edge8_Node000001_Node000005"><a xlink:title=" ">
<path fill="none" stroke="#63b8ff" d="M878.99,-227.81C887.49,-229.14 895.98,-230.46 904.25,-231.76"/>
<polygon fill="none" stroke="#63b8ff" points="879.74,-224.39 869.32,-226.3 878.66,-231.3 879.74,-224.39"/>
</a>
</g>
</g>
<!-- Node6 -->
<g id="Node000006" class="node">
<title>Node6</title>
<g id="a_Node000006"><a xlink:href="../../db/db3/classv8_1_1internal_1_1RIInstruction.html" target="_top" xlink:title=" ">
<polygon fill="white" stroke="none" points="1076,-201 904,-201 904,-149 1076,-149 1076,-201"/>
<text text-anchor="start" x="909" y="-187.5" font-family="Cascadia Code NF" font-size="10.00">v8::internal::RIInstruction</text>
<text text-anchor="start" x="987" y="-171.5" font-family="Cascadia Code NF" font-size="10.00"> </text>
<text text-anchor="start" x="987" y="-155.5" font-family="Cascadia Code NF" font-size="10.00"> </text>
<polygon fill="#bfbfbf" stroke="#bfbfbf" points="904,-183 904,-183 1076,-183 1076,-183 904,-183"/>
<polygon fill="#bfbfbf" stroke="#bfbfbf" points="904,-167 904,-167 1076,-167 1076,-167 904,-167"/>
<polygon fill="none" stroke="#bfbfbf" points="904,-149 904,-201 1076,-201 1076,-149 904,-149"/>
</a>
</g>
</g>
<!-- Node1&#45;&gt;Node6 -->
<g id="edge9_Node000001_Node000006" class="edge">
<title>Node1&#45;&gt;Node6</title>
<g id="a_edge9_Node000001_Node000006"><a xlink:title=" ">
<path fill="none" stroke="#63b8ff" d="M878.99,-192.19C887.49,-190.86 895.98,-189.54 904.25,-188.24"/>
<polygon fill="none" stroke="#63b8ff" points="878.66,-188.7 869.32,-193.7 879.74,-195.61 878.66,-188.7"/>
</a>
</g>
</g>
<!-- Node2 -->
<g id="Node000002" class="node">
<title>Node2</title>
<g id="a_Node000002"><a xlink:href="../../d6/da5/classv8_1_1internal_1_1Instruction.html" target="_top" xlink:title=" ">
<polygon fill="white" stroke="none" points="624,-420 462,-420 462,0 624,0 624,-420"/>
<text text-anchor="start" x="468" y="-406.5" font-family="Cascadia Code NF" font-size="10.00">v8::internal::Instruction</text>
<text text-anchor="start" x="466" y="-390.5" font-family="Cascadia Code NF" font-size="10.00">+</text>
<text text-anchor="start" x="476" y="-390.5" font-family="Cascadia Code NF" font-size="10.00">kPcLoadDelta</text>
<text text-anchor="start" x="466" y="-374.5" font-family="Cascadia Code NF" font-size="10.00">+</text>
<text text-anchor="start" x="476" y="-374.5" font-family="Cascadia Code NF" font-size="10.00">ImmPCRelRangeBitwidth</text>
<text text-anchor="start" x="466" y="-358.5" font-family="Cascadia Code NF" font-size="10.00">+</text>
<text text-anchor="start" x="476" y="-358.5" font-family="Cascadia Code NF" font-size="10.00">OpcodeFormatTable</text>
<text text-anchor="start" x="466" y="-342.5" font-family="Cascadia Code NF" font-size="10.00">+</text>
<text text-anchor="start" x="476" y="-342.5" font-family="Cascadia Code NF" font-size="10.00">InstructionBits()</text>
<text text-anchor="start" x="466" y="-326.5" font-family="Cascadia Code NF" font-size="10.00">+</text>
<text text-anchor="start" x="476" y="-326.5" font-family="Cascadia Code NF" font-size="10.00">SetInstructionBits()</text>
<text text-anchor="start" x="466" y="-310.5" font-family="Cascadia Code NF" font-size="10.00">+</text>
<text text-anchor="start" x="476" y="-310.5" font-family="Cascadia Code NF" font-size="10.00">Bit()</text>
<text text-anchor="start" x="466" y="-294.5" font-family="Cascadia Code NF" font-size="10.00">+</text>
<text text-anchor="start" x="476" y="-294.5" font-family="Cascadia Code NF" font-size="10.00">Bits()</text>
<text text-anchor="start" x="466" y="-278.5" font-family="Cascadia Code NF" font-size="10.00">+</text>
<text text-anchor="start" x="476" y="-278.5" font-family="Cascadia Code NF" font-size="10.00">BitField()</text>
<text text-anchor="start" x="466" y="-262.5" font-family="Cascadia Code NF" font-size="10.00">+</text>
<text text-anchor="start" x="476" y="-262.5" font-family="Cascadia Code NF" font-size="10.00">ConditionValue()</text>
<text text-anchor="start" x="466" y="-246.5" font-family="Cascadia Code NF" font-size="10.00">+</text>
<text text-anchor="start" x="476" y="-246.5" font-family="Cascadia Code NF" font-size="10.00">ConditionField()</text>
<text text-anchor="start" x="466" y="-230.5" font-family="Cascadia Code NF" font-size="10.00">+</text>
<text text-anchor="start" x="476" y="-230.5" font-family="Cascadia Code NF" font-size="10.00">TypeValue()</text>
<text text-anchor="start" x="466" y="-214.5" font-family="Cascadia Code NF" font-size="10.00">+</text>
<text text-anchor="start" x="476" y="-214.5" font-family="Cascadia Code NF" font-size="10.00">SpecialValue()</text>
<text text-anchor="start" x="466" y="-198.5" font-family="Cascadia Code NF" font-size="10.00">+</text>
<text text-anchor="start" x="476" y="-198.5" font-family="Cascadia Code NF" font-size="10.00">RnValue()</text>
<text text-anchor="start" x="476" y="-182.5" font-family="Cascadia Code NF" font-size="10.00">and 157 more...</text>
<text text-anchor="start" x="466" y="-166.5" font-family="Cascadia Code NF" font-size="10.00">+</text>
<text text-anchor="start" x="476" y="-166.5" font-family="Cascadia Code NF" font-size="10.00">At()</text>
<text text-anchor="start" x="466" y="-150.5" font-family="Cascadia Code NF" font-size="10.00">+</text>
<text text-anchor="start" x="476" y="-150.5" font-family="Cascadia Code NF" font-size="10.00">Imm8ToFP32()</text>
<text text-anchor="start" x="466" y="-134.5" font-family="Cascadia Code NF" font-size="10.00">+</text>
<text text-anchor="start" x="476" y="-134.5" font-family="Cascadia Code NF" font-size="10.00">Imm8ToFP64()</text>
<text text-anchor="start" x="466" y="-118.5" font-family="Cascadia Code NF" font-size="10.00">+</text>
<text text-anchor="start" x="476" y="-118.5" font-family="Cascadia Code NF" font-size="10.00">ImmBranchRangeBitwidth()</text>
<text text-anchor="start" x="466" y="-102.5" font-family="Cascadia Code NF" font-size="10.00">+</text>
<text text-anchor="start" x="476" y="-102.5" font-family="Cascadia Code NF" font-size="10.00">ImmBranchRange()</text>
<text text-anchor="start" x="466" y="-86.5" font-family="Cascadia Code NF" font-size="10.00">+</text>
<text text-anchor="start" x="476" y="-86.5" font-family="Cascadia Code NF" font-size="10.00">IsValidImmPCOffset()</text>
<text text-anchor="start" x="466" y="-70.5" font-family="Cascadia Code NF" font-size="10.00">+</text>
<text text-anchor="start" x="476" y="-70.5" font-family="Cascadia Code NF" font-size="10.00">Cast()</text>
<text text-anchor="start" x="466" y="-54.5" font-family="Cascadia Code NF" font-size="10.00">+</text>
<text text-anchor="start" x="476" y="-54.5" font-family="Cascadia Code NF" font-size="10.00">IsValidPCRelOffset()</text>
<text text-anchor="start" x="466" y="-38.5" font-family="Cascadia Code NF" font-size="10.00">+</text>
<text text-anchor="start" x="476" y="-38.5" font-family="Cascadia Code NF" font-size="10.00">At()</text>
<text text-anchor="start" x="466" y="-22.5" font-family="Cascadia Code NF" font-size="10.00">+</text>
<text text-anchor="start" x="476" y="-22.5" font-family="Cascadia Code NF" font-size="10.00">At()</text>
<text text-anchor="start" x="476" y="-6.5" font-family="Cascadia Code NF" font-size="10.00">and 15 more...</text>
<polygon fill="#bfbfbf" stroke="#bfbfbf" points="462,-402 462,-402 624,-402 624,-402 462,-402"/>
<polygon fill="#bfbfbf" stroke="#bfbfbf" points="462,-354 462,-354 474,-354 474,-354 462,-354"/>
<polygon fill="#bfbfbf" stroke="#bfbfbf" points="474,-354 474,-354 624,-354 624,-354 474,-354"/>
<polygon fill="none" stroke="#bfbfbf" points="462,0 462,-420 624,-420 624,0 462,0"/>
</a>
</g>
</g>
<!-- Node2&#45;&gt;Node1 -->
<g id="edge1_Node000001_Node000002" class="edge">
<title>Node2&#45;&gt;Node1</title>
<g id="a_edge1_Node000001_Node000002"><a xlink:title=" ">
<path fill="none" stroke="#63b8ff" d="M635.4,-210C643.54,-210 651.82,-210 660.05,-210"/>
<polygon fill="none" stroke="#63b8ff" points="635.51,-206.5 625.51,-210 635.51,-213.5 635.51,-206.5"/>
</a>
</g>
</g>
<!-- Node3 -->
<g id="Node000003" class="node">
<title>Node3</title>
<g id="a_Node000003"><a xlink:href="../../da/dad/classv8_1_1internal_1_1InstructionGetters.html" target="_top" xlink:title=" ">
<polygon fill="white" stroke="none" points="426,-330.5 234,-330.5 234,-89.5 426,-89.5 426,-330.5"/>
<text text-anchor="start" x="252" y="-317" font-family="Cascadia Code NF" font-size="10.00">v8::internal::Instruction</text>
<text text-anchor="start" x="252" y="-304.25" font-family="Cascadia Code NF" font-size="10.00">Getters&lt; InstructionBase &gt;</text>
<text text-anchor="start" x="327" y="-288" font-family="Cascadia Code NF" font-size="10.00"> </text>
<text text-anchor="start" x="238" y="-272" font-family="Cascadia Code NF" font-size="10.00">+</text>
<text text-anchor="start" x="248" y="-272" font-family="Cascadia Code NF" font-size="10.00">RjValue()</text>
<text text-anchor="start" x="238" y="-256" font-family="Cascadia Code NF" font-size="10.00">+</text>
<text text-anchor="start" x="248" y="-256" font-family="Cascadia Code NF" font-size="10.00">RkValue()</text>
<text text-anchor="start" x="238" y="-240" font-family="Cascadia Code NF" font-size="10.00">+</text>
<text text-anchor="start" x="248" y="-240" font-family="Cascadia Code NF" font-size="10.00">RdValue()</text>
<text text-anchor="start" x="238" y="-224" font-family="Cascadia Code NF" font-size="10.00">+</text>
<text text-anchor="start" x="248" y="-224" font-family="Cascadia Code NF" font-size="10.00">RdValue()</text>
<text text-anchor="start" x="238" y="-208" font-family="Cascadia Code NF" font-size="10.00">+</text>
<text text-anchor="start" x="248" y="-208" font-family="Cascadia Code NF" font-size="10.00">RdValue()</text>
<text text-anchor="start" x="238" y="-192" font-family="Cascadia Code NF" font-size="10.00">+</text>
<text text-anchor="start" x="248" y="-192" font-family="Cascadia Code NF" font-size="10.00">Sa2Value()</text>
<text text-anchor="start" x="238" y="-176" font-family="Cascadia Code NF" font-size="10.00">+</text>
<text text-anchor="start" x="248" y="-176" font-family="Cascadia Code NF" font-size="10.00">Sa3Value()</text>
<text text-anchor="start" x="238" y="-160" font-family="Cascadia Code NF" font-size="10.00">+</text>
<text text-anchor="start" x="248" y="-160" font-family="Cascadia Code NF" font-size="10.00">Ui5Value()</text>
<text text-anchor="start" x="238" y="-144" font-family="Cascadia Code NF" font-size="10.00">+</text>
<text text-anchor="start" x="248" y="-144" font-family="Cascadia Code NF" font-size="10.00">Ui6Value()</text>
<text text-anchor="start" x="238" y="-128" font-family="Cascadia Code NF" font-size="10.00">+</text>
<text text-anchor="start" x="248" y="-128" font-family="Cascadia Code NF" font-size="10.00">Ui12Value()</text>
<text text-anchor="start" x="248" y="-112" font-family="Cascadia Code NF" font-size="10.00">and 138 more...</text>
<text text-anchor="start" x="238" y="-96" font-family="Cascadia Code NF" font-size="10.00">+</text>
<text text-anchor="start" x="248" y="-96" font-family="Cascadia Code NF" font-size="10.00">IsForbiddenAfterBranchInstr()</text>
<polygon fill="#bfbfbf" stroke="#bfbfbf" points="234,-299.5 234,-299.5 426,-299.5 426,-299.5 234,-299.5"/>
<polygon fill="#bfbfbf" stroke="#bfbfbf" points="234,-283.5 234,-283.5 426,-283.5 426,-283.5 234,-283.5"/>
<polygon fill="none" stroke="#bfbfbf" points="234,-89.5 234,-330.5 426,-330.5 426,-89.5 234,-89.5"/>
</a>
</g>
</g>
<!-- Node3&#45;&gt;Node2 -->
<g id="edge2_Node000002_Node000003" class="edge">
<title>Node3&#45;&gt;Node2</title>
<g id="a_edge2_Node000002_Node000003"><a xlink:title=" ">
<path fill="none" stroke="#63b8ff" d="M437.14,-196.5C445.54,-196.51 453.93,-196.63 462.11,-196.86"/>
<polygon fill="none" stroke="#63b8ff" points="437.19,-193 427.21,-196.55 437.23,-200 437.19,-193"/>
</a>
</g>
</g>
<!-- Node3&#45;&gt;Node2 -->
<g id="edge6_Node000002_Node000003" class="edge">
<title>Node3&#45;&gt;Node2</title>
<g id="a_edge6_Node000002_Node000003"><a xlink:title=" ">
<path fill="none" stroke="#63b8ff" d="M437.14,-210C445.54,-210 453.93,-210 462.11,-210"/>
<polygon fill="none" stroke="#63b8ff" points="437.21,-206.5 427.21,-210 437.21,-213.5 437.21,-206.5"/>
</a>
</g>
</g>
<!-- Node3&#45;&gt;Node2 -->
<g id="edge7_Node000002_Node000003" class="edge">
<title>Node3&#45;&gt;Node2</title>
<g id="a_edge7_Node000002_Node000003"><a xlink:title=" ">
<path fill="none" stroke="#63b8ff" d="M437.14,-223.5C445.54,-223.49 453.93,-223.37 462.11,-223.14"/>
<polygon fill="none" stroke="#63b8ff" points="437.23,-220 427.21,-223.45 437.19,-227 437.23,-220"/>
</a>
</g>
</g>
<!-- Node4 -->
<g id="Node000004" class="node">
<title>Node4</title>
<g id="a_Node000004"><a xlink:href="../../df/dfe/classv8_1_1internal_1_1InstructionBase.html" target="_top" xlink:title=" ">
<polygon fill="white" stroke="none" points="198,-348 0,-348 0,-72 198,-72 198,-348"/>
<text text-anchor="start" x="12" y="-334.5" font-family="Cascadia Code NF" font-size="10.00">v8::internal::InstructionBase</text>
<text text-anchor="start" x="4" y="-318.5" font-family="Cascadia Code NF" font-size="10.00">+</text>
<text text-anchor="start" x="14" y="-318.5" font-family="Cascadia Code NF" font-size="10.00">kOpcodeImmediateTypeMask</text>
<text text-anchor="start" x="4" y="-302.5" font-family="Cascadia Code NF" font-size="10.00">+</text>
<text text-anchor="start" x="14" y="-302.5" font-family="Cascadia Code NF" font-size="10.00">kFunctionFieldRegisterTypeMask</text>
<text text-anchor="start" x="4" y="-286.5" font-family="Cascadia Code NF" font-size="10.00">+</text>
<text text-anchor="start" x="14" y="-286.5" font-family="Cascadia Code NF" font-size="10.00">InstructionBits()</text>
<text text-anchor="start" x="4" y="-270.5" font-family="Cascadia Code NF" font-size="10.00">+</text>
<text text-anchor="start" x="14" y="-270.5" font-family="Cascadia Code NF" font-size="10.00">SetInstructionBits()</text>
<text text-anchor="start" x="4" y="-254.5" font-family="Cascadia Code NF" font-size="10.00">+</text>
<text text-anchor="start" x="14" y="-254.5" font-family="Cascadia Code NF" font-size="10.00">Bit()</text>
<text text-anchor="start" x="4" y="-238.5" font-family="Cascadia Code NF" font-size="10.00">+</text>
<text text-anchor="start" x="14" y="-238.5" font-family="Cascadia Code NF" font-size="10.00">Bits()</text>
<text text-anchor="start" x="4" y="-222.5" font-family="Cascadia Code NF" font-size="10.00">+</text>
<text text-anchor="start" x="14" y="-222.5" font-family="Cascadia Code NF" font-size="10.00">RjFieldRawNoAssert()</text>
<text text-anchor="start" x="4" y="-206.5" font-family="Cascadia Code NF" font-size="10.00">+</text>
<text text-anchor="start" x="14" y="-206.5" font-family="Cascadia Code NF" font-size="10.00">InstructionType()</text>
<text text-anchor="start" x="4" y="-190.5" font-family="Cascadia Code NF" font-size="10.00">+</text>
<text text-anchor="start" x="14" y="-190.5" font-family="Cascadia Code NF" font-size="10.00">InstructionBits()</text>
<text text-anchor="start" x="4" y="-174.5" font-family="Cascadia Code NF" font-size="10.00">+</text>
<text text-anchor="start" x="14" y="-174.5" font-family="Cascadia Code NF" font-size="10.00">SetInstructionBits()</text>
<text text-anchor="start" x="4" y="-158.5" font-family="Cascadia Code NF" font-size="10.00">+</text>
<text text-anchor="start" x="14" y="-158.5" font-family="Cascadia Code NF" font-size="10.00">Bit()</text>
<text text-anchor="start" x="4" y="-142.5" font-family="Cascadia Code NF" font-size="10.00">+</text>
<text text-anchor="start" x="14" y="-142.5" font-family="Cascadia Code NF" font-size="10.00">Bits()</text>
<text text-anchor="start" x="14" y="-126.5" font-family="Cascadia Code NF" font-size="10.00">and 25 more...</text>
<text text-anchor="start" x="4" y="-110.5" font-family="Cascadia Code NF" font-size="10.00">#</text>
<text text-anchor="start" x="14" y="-110.5" font-family="Cascadia Code NF" font-size="10.00">InstructionBase()</text>
<text text-anchor="start" x="4" y="-94.5" font-family="Cascadia Code NF" font-size="10.00">#</text>
<text text-anchor="start" x="14" y="-94.5" font-family="Cascadia Code NF" font-size="10.00">InstructionBase()</text>
<text text-anchor="start" x="4" y="-78.5" font-family="Cascadia Code NF" font-size="10.00">#</text>
<text text-anchor="start" x="14" y="-78.5" font-family="Cascadia Code NF" font-size="10.00">InstructionBase()</text>
<polygon fill="#bfbfbf" stroke="#bfbfbf" points="0,-330 0,-330 198,-330 198,-330 0,-330"/>
<polygon fill="#bfbfbf" stroke="#bfbfbf" points="0,-298 0,-298 12,-298 12,-298 0,-298"/>
<polygon fill="#bfbfbf" stroke="#bfbfbf" points="12,-298 12,-298 198,-298 198,-298 12,-298"/>
<polygon fill="none" stroke="#bfbfbf" points="0,-72 0,-348 198,-348 198,-72 0,-72"/>
</a>
</g>
</g>
<!-- Node4&#45;&gt;Node3 -->
<g id="edge3_Node000003_Node000004" class="edge">
<title>Node4&#45;&gt;Node3</title>
<g id="a_edge3_Node000003_Node000004"><a xlink:title=" ">
<path fill="none" stroke="#63b8ff" d="M209.12,-196.51C217.47,-196.47 225.85,-196.53 234.09,-196.68"/>
<polygon fill="none" stroke="#63b8ff" points="209.26,-193.01 199.29,-196.61 209.33,-200.01 209.26,-193.01"/>
</a>
</g>
</g>
<!-- Node4&#45;&gt;Node3 -->
<g id="edge4_Node000003_Node000004" class="edge">
<title>Node4&#45;&gt;Node3</title>
<g id="a_edge4_Node000003_Node000004"><a xlink:title=" ">
<path fill="none" stroke="#63b8ff" d="M209.12,-210C217.47,-210 225.85,-210 234.09,-210"/>
<polygon fill="none" stroke="#63b8ff" points="209.29,-206.5 199.29,-210 209.29,-213.5 209.29,-206.5"/>
</a>
</g>
</g>
<!-- Node4&#45;&gt;Node3 -->
<g id="edge5_Node000003_Node000004" class="edge">
<title>Node4&#45;&gt;Node3</title>
<g id="a_edge5_Node000003_Node000004"><a xlink:title=" ">
<path fill="none" stroke="#63b8ff" d="M209.12,-223.49C217.47,-223.53 225.85,-223.47 234.09,-223.32"/>
<polygon fill="none" stroke="#63b8ff" points="209.33,-219.99 199.29,-223.39 209.26,-226.99 209.33,-219.99"/>
</a>
</g>
</g>
</g>
</svg>
