<?xml version="1.0" encoding="UTF-8" standalone="no"?>
<!DOCTYPE svg PUBLIC "-//W3C//DTD SVG 1.1//EN"
 "http://www.w3.org/Graphics/SVG/1.1/DTD/svg11.dtd">
<!-- Generated by graphviz version 11.0.0 (20240428.1522)
 -->
<!-- Title: v8::internal::Scope Pages: 1 -->
<svg width="810pt" height="806pt"
 viewBox="0.00 0.00 810.00 806.00" xmlns="http://www.w3.org/2000/svg" xmlns:xlink="http://www.w3.org/1999/xlink">
<g id="graph0" class="graph" transform="scale(1 1) rotate(0) translate(4 802)">
<title>v8::internal::Scope</title>
<!-- Node1 -->
<g id="Node000001" class="node">
<title>Node1</title>
<g id="a_Node000001"><a xlink:title=" ">
<polygon fill="#999999" stroke="none" points="364,-556.5 208,-556.5 208,-280.5 364,-280.5 364,-556.5"/>
<text text-anchor="start" x="229" y="-543" font-family="Cascadia Code NF" font-size="10.00">v8::internal::Scope</text>
<text text-anchor="start" x="283" y="-527" font-family="Cascadia Code NF" font-size="10.00"> </text>
<text text-anchor="start" x="212" y="-511" font-family="Cascadia Code NF" font-size="10.00">+</text>
<text text-anchor="start" x="222" y="-511" font-family="Cascadia Code NF" font-size="10.00">Scope()</text>
<text text-anchor="start" x="212" y="-495" font-family="Cascadia Code NF" font-size="10.00">+</text>
<text text-anchor="start" x="222" y="-495" font-family="Cascadia Code NF" font-size="10.00">AsDeclarationScope()</text>
<text text-anchor="start" x="212" y="-479" font-family="Cascadia Code NF" font-size="10.00">+</text>
<text text-anchor="start" x="222" y="-479" font-family="Cascadia Code NF" font-size="10.00">AsDeclarationScope()</text>
<text text-anchor="start" x="212" y="-463" font-family="Cascadia Code NF" font-size="10.00">+</text>
<text text-anchor="start" x="222" y="-463" font-family="Cascadia Code NF" font-size="10.00">AsModuleScope()</text>
<text text-anchor="start" x="212" y="-447" font-family="Cascadia Code NF" font-size="10.00">+</text>
<text text-anchor="start" x="222" y="-447" font-family="Cascadia Code NF" font-size="10.00">AsModuleScope()</text>
<text text-anchor="start" x="212" y="-431" font-family="Cascadia Code NF" font-size="10.00">+</text>
<text text-anchor="start" x="222" y="-431" font-family="Cascadia Code NF" font-size="10.00">AsClassScope()</text>
<text text-anchor="start" x="212" y="-415" font-family="Cascadia Code NF" font-size="10.00">+</text>
<text text-anchor="start" x="222" y="-415" font-family="Cascadia Code NF" font-size="10.00">AsClassScope()</text>
<text text-anchor="start" x="212" y="-399" font-family="Cascadia Code NF" font-size="10.00">+</text>
<text text-anchor="start" x="222" y="-399" font-family="Cascadia Code NF" font-size="10.00">FinalizeBlockScope()</text>
<text text-anchor="start" x="212" y="-383" font-family="Cascadia Code NF" font-size="10.00">+</text>
<text text-anchor="start" x="222" y="-383" font-family="Cascadia Code NF" font-size="10.00">ReplaceOuterScope()</text>
<text text-anchor="start" x="212" y="-367" font-family="Cascadia Code NF" font-size="10.00">+</text>
<text text-anchor="start" x="222" y="-367" font-family="Cascadia Code NF" font-size="10.00">zone()</text>
<text text-anchor="start" x="222" y="-351" font-family="Cascadia Code NF" font-size="10.00">and 92 more...</text>
<text text-anchor="start" x="212" y="-335" font-family="Cascadia Code NF" font-size="10.00">+</text>
<text text-anchor="start" x="222" y="-335" font-family="Cascadia Code NF" font-size="10.00">DeserializeScopeChain()</text>
<text text-anchor="start" x="212" y="-319" font-family="Cascadia Code NF" font-size="10.00">+</text>
<text text-anchor="start" x="222" y="-319" font-family="Cascadia Code NF" font-size="10.00">SetScriptScopeInfo()</text>
<text text-anchor="start" x="212" y="-303" font-family="Cascadia Code NF" font-size="10.00">#</text>
<text text-anchor="start" x="222" y="-303" font-family="Cascadia Code NF" font-size="10.00">Scope()</text>
<text text-anchor="start" x="212" y="-287" font-family="Cascadia Code NF" font-size="10.00">#</text>
<text text-anchor="start" x="222" y="-287" font-family="Cascadia Code NF" font-size="10.00">set_language_mode()</text>
<polygon fill="#666666" stroke="#666666" points="208,-538.5 208,-538.5 364,-538.5 364,-538.5 208,-538.5"/>
<polygon fill="#666666" stroke="#666666" points="208,-522.5 208,-522.5 364,-522.5 364,-522.5 208,-522.5"/>
<polygon fill="none" stroke="#666666" points="208,-280.5 208,-556.5 364,-556.5 364,-280.5 208,-280.5"/>
</a>
</g>
</g>
<!-- Node3 -->
<g id="Node000003" class="node">
<title>Node3</title>
<g id="a_Node000003"><a xlink:href="$d1/d44/classv8_1_1internal_1_1ClassScope.html" xlink:title=" ">
<polygon fill="white" stroke="none" points="598,-798 400,-798 400,-547 598,-547 598,-798"/>
<text text-anchor="start" x="427" y="-784.5" font-family="Cascadia Code NF" font-size="10.00">v8::internal::ClassScope</text>
<text text-anchor="start" x="496" y="-768.5" font-family="Cascadia Code NF" font-size="10.00"> </text>
<text text-anchor="start" x="404" y="-752.5" font-family="Cascadia Code NF" font-size="10.00">+</text>
<text text-anchor="start" x="414" y="-752.5" font-family="Cascadia Code NF" font-size="10.00">ClassScope()</text>
<text text-anchor="start" x="404" y="-736.5" font-family="Cascadia Code NF" font-size="10.00">+</text>
<text text-anchor="start" x="414" y="-736.5" font-family="Cascadia Code NF" font-size="10.00">ClassScope()</text>
<text text-anchor="start" x="404" y="-720.5" font-family="Cascadia Code NF" font-size="10.00">+</text>
<text text-anchor="start" x="414" y="-720.5" font-family="Cascadia Code NF" font-size="10.00">DeclarePrivateName()</text>
<text text-anchor="start" x="404" y="-704.5" font-family="Cascadia Code NF" font-size="10.00">+</text>
<text text-anchor="start" x="414" y="-704.5" font-family="Cascadia Code NF" font-size="10.00">ResolvePrivateNames()</text>
<text text-anchor="start" x="404" y="-688.5" font-family="Cascadia Code NF" font-size="10.00">+</text>
<text text-anchor="start" x="414" y="-688.5" font-family="Cascadia Code NF" font-size="10.00">ResolvePrivateNamesPartially()</text>
<text text-anchor="start" x="404" y="-672.5" font-family="Cascadia Code NF" font-size="10.00">+</text>
<text text-anchor="start" x="414" y="-672.5" font-family="Cascadia Code NF" font-size="10.00">GetUnresolvedPrivateName</text>
<text text-anchor="start" x="414" y="-659.75" font-family="Cascadia Code NF" font-size="10.00">Tail()</text>
<text text-anchor="start" x="404" y="-643.5" font-family="Cascadia Code NF" font-size="10.00">+</text>
<text text-anchor="start" x="414" y="-643.5" font-family="Cascadia Code NF" font-size="10.00">ResetUnresolvedPrivateName</text>
<text text-anchor="start" x="414" y="-630.75" font-family="Cascadia Code NF" font-size="10.00">Tail()</text>
<text text-anchor="start" x="404" y="-614.5" font-family="Cascadia Code NF" font-size="10.00">+</text>
<text text-anchor="start" x="414" y="-614.5" font-family="Cascadia Code NF" font-size="10.00">MigrateUnresolvedPrivate</text>
<text text-anchor="start" x="414" y="-601.75" font-family="Cascadia Code NF" font-size="10.00">NameTail()</text>
<text text-anchor="start" x="404" y="-585.5" font-family="Cascadia Code NF" font-size="10.00">+</text>
<text text-anchor="start" x="414" y="-585.5" font-family="Cascadia Code NF" font-size="10.00">DeclareBrandVariable()</text>
<text text-anchor="start" x="404" y="-569.5" font-family="Cascadia Code NF" font-size="10.00">+</text>
<text text-anchor="start" x="414" y="-569.5" font-family="Cascadia Code NF" font-size="10.00">DeclareClassVariable()</text>
<text text-anchor="start" x="414" y="-553.5" font-family="Cascadia Code NF" font-size="10.00">and 8 more...</text>
<polygon fill="#bfbfbf" stroke="#bfbfbf" points="400,-780 400,-780 598,-780 598,-780 400,-780"/>
<polygon fill="#bfbfbf" stroke="#bfbfbf" points="400,-764 400,-764 598,-764 598,-764 400,-764"/>
<polygon fill="none" stroke="#bfbfbf" points="400,-547 400,-798 598,-798 598,-547 400,-547"/>
</a>
</g>
</g>
<!-- Node1&#45;&gt;Node3 -->
<g id="edge2_Node000001_Node000003" class="edge">
<title>Node1&#45;&gt;Node3</title>
<g id="a_edge2_Node000001_Node000003"><a xlink:title=" ">
<path fill="none" stroke="#63b8ff" d="M371.01,-519.63C380.55,-531.11 390.33,-542.89 400.02,-554.56"/>
<polygon fill="none" stroke="#63b8ff" points="373.82,-517.54 364.74,-512.08 368.44,-522.01 373.82,-517.54"/>
</a>
</g>
</g>
<!-- Node4 -->
<g id="Node000004" class="node">
<title>Node4</title>
<g id="a_Node000004"><a xlink:href="$d3/d5b/classv8_1_1internal_1_1CombinationAssertScope_3_01Scope_01_4.html" xlink:title=" ">
<polygon fill="white" stroke="none" points="579,-529 419,-529 419,-432 579,-432 579,-529"/>
<text text-anchor="start" x="424" y="-515.5" font-family="Cascadia Code NF" font-size="10.00">v8::internal::Combination</text>
<text text-anchor="start" x="439" y="-502.75" font-family="Cascadia Code NF" font-size="10.00">AssertScope&lt; Scope &gt;</text>
<text text-anchor="start" x="496" y="-486.5" font-family="Cascadia Code NF" font-size="10.00"> </text>
<text text-anchor="start" x="442" y="-470.5" font-family="Cascadia Code NF" font-size="10.00">+</text>
<text text-anchor="start" x="471" y="-470.5" font-family="Cascadia Code NF" font-size="10.00">Scope()</text>
<text text-anchor="start" x="442" y="-454.5" font-family="Cascadia Code NF" font-size="10.00">+</text>
<text text-anchor="start" x="471" y="-454.5" font-family="Cascadia Code NF" font-size="10.00">Scope()</text>
<text text-anchor="start" x="442" y="-438.5" font-family="Cascadia Code NF" font-size="10.00">+</text>
<text text-anchor="start" x="471" y="-438.5" font-family="Cascadia Code NF" font-size="10.00">IsAllowed()</text>
<polygon fill="#bfbfbf" stroke="#bfbfbf" points="419,-498 419,-498 579,-498 579,-498 419,-498"/>
<polygon fill="#bfbfbf" stroke="#bfbfbf" points="419,-482 419,-482 579,-482 579,-482 419,-482"/>
<polygon fill="none" stroke="#bfbfbf" points="419,-432 419,-529 579,-529 579,-432 419,-432"/>
</a>
</g>
</g>
<!-- Node1&#45;&gt;Node4 -->
<g id="edge3_Node000001_Node000004" class="edge">
<title>Node1&#45;&gt;Node4</title>
<g id="a_edge3_Node000001_Node000004"><a xlink:title=" ">
<path fill="none" stroke="#63b8ff" d="M374.46,-444.2C389.27,-448.55 404.58,-453.05 419.16,-457.33"/>
<polygon fill="none" stroke="#63b8ff" points="375.81,-440.95 365.22,-441.49 373.83,-447.66 375.81,-440.95"/>
</a>
</g>
</g>
<!-- Node5 -->
<g id="Node000005" class="node">
<title>Node5</title>
<g id="a_Node000005"><a xlink:href="$d3/d02/classv8_1_1internal_1_1CombinationAssertScope_3_01Scope_00_01Scopes_8_8_8_01_4.html" xlink:title=" ">
<polygon fill="white" stroke="none" points="597,-414 401,-414 401,-301 597,-301 597,-414"/>
<text text-anchor="start" x="406" y="-400.5" font-family="Cascadia Code NF" font-size="10.00">v8::internal::Combination</text>
<text text-anchor="start" x="406" y="-387.75" font-family="Cascadia Code NF" font-size="10.00">AssertScope&lt; Scope, Scopes... &gt;</text>
<text text-anchor="start" x="496" y="-371.5" font-family="Cascadia Code NF" font-size="10.00"> </text>
<text text-anchor="start" x="413.5" y="-355.5" font-family="Cascadia Code NF" font-size="10.00">+</text>
<text text-anchor="start" x="432" y="-355.5" font-family="Cascadia Code NF" font-size="10.00">CombinationAssertScope()</text>
<text text-anchor="start" x="413.5" y="-339.5" font-family="Cascadia Code NF" font-size="10.00">+</text>
<text text-anchor="start" x="432" y="-339.5" font-family="Cascadia Code NF" font-size="10.00">CombinationAssertScope()</text>
<text text-anchor="start" x="413.5" y="-323.5" font-family="Cascadia Code NF" font-size="10.00">+</text>
<text text-anchor="start" x="432" y="-323.5" font-family="Cascadia Code NF" font-size="10.00">Release()</text>
<text text-anchor="start" x="413.5" y="-307.5" font-family="Cascadia Code NF" font-size="10.00">+</text>
<text text-anchor="start" x="432" y="-307.5" font-family="Cascadia Code NF" font-size="10.00">IsAllowed()</text>
<polygon fill="#bfbfbf" stroke="#bfbfbf" points="401,-383 401,-383 597,-383 597,-383 401,-383"/>
<polygon fill="#bfbfbf" stroke="#bfbfbf" points="401,-367 401,-367 597,-367 597,-367 401,-367"/>
<polygon fill="none" stroke="#bfbfbf" points="401,-301 401,-414 597,-414 597,-301 401,-301"/>
</a>
</g>
</g>
<!-- Node1&#45;&gt;Node5 -->
<g id="edge4_Node000001_Node000005" class="edge">
<title>Node1&#45;&gt;Node5</title>
<g id="a_edge4_Node000001_Node000005"><a xlink:title=" ">
<path fill="none" stroke="#63b8ff" d="M374.71,-393.14C383.43,-390.62 392.31,-388.05 401.12,-385.51"/>
<polygon fill="none" stroke="#63b8ff" points="373.86,-389.75 365.23,-395.88 375.81,-396.47 373.86,-389.75"/>
</a>
</g>
</g>
<!-- Node6 -->
<g id="Node000006" class="node">
<title>Node6</title>
<g id="a_Node000006"><a xlink:href="$d6/d38/classv8_1_1internal_1_1DeclarationScope.html" xlink:title=" ">
<polygon fill="white" stroke="none" points="586,-283 412,-283 412,0 586,0 586,-283"/>
<text text-anchor="start" x="424" y="-269.5" font-family="Cascadia Code NF" font-size="10.00">v8::internal::Declaration</text>
<text text-anchor="start" x="484" y="-256.75" font-family="Cascadia Code NF" font-size="10.00">Scope</text>
<text text-anchor="start" x="496" y="-240.5" font-family="Cascadia Code NF" font-size="10.00"> </text>
<text text-anchor="start" x="416" y="-224.5" font-family="Cascadia Code NF" font-size="10.00">+</text>
<text text-anchor="start" x="426" y="-224.5" font-family="Cascadia Code NF" font-size="10.00">DeclarationScope()</text>
<text text-anchor="start" x="416" y="-208.5" font-family="Cascadia Code NF" font-size="10.00">+</text>
<text text-anchor="start" x="426" y="-208.5" font-family="Cascadia Code NF" font-size="10.00">DeclarationScope()</text>
<text text-anchor="start" x="416" y="-192.5" font-family="Cascadia Code NF" font-size="10.00">+</text>
<text text-anchor="start" x="426" y="-192.5" font-family="Cascadia Code NF" font-size="10.00">DeclarationScope()</text>
<text text-anchor="start" x="416" y="-176.5" font-family="Cascadia Code NF" font-size="10.00">+</text>
<text text-anchor="start" x="426" y="-176.5" font-family="Cascadia Code NF" font-size="10.00">function_kind()</text>
<text text-anchor="start" x="416" y="-160.5" font-family="Cascadia Code NF" font-size="10.00">+</text>
<text text-anchor="start" x="426" y="-160.5" font-family="Cascadia Code NF" font-size="10.00">RecordSuperPropertyUsage()</text>
<text text-anchor="start" x="416" y="-144.5" font-family="Cascadia Code NF" font-size="10.00">+</text>
<text text-anchor="start" x="426" y="-144.5" font-family="Cascadia Code NF" font-size="10.00">uses_super_property()</text>
<text text-anchor="start" x="416" y="-128.5" font-family="Cascadia Code NF" font-size="10.00">+</text>
<text text-anchor="start" x="426" y="-128.5" font-family="Cascadia Code NF" font-size="10.00">is_arrow_scope()</text>
<text text-anchor="start" x="416" y="-112.5" font-family="Cascadia Code NF" font-size="10.00">+</text>
<text text-anchor="start" x="426" y="-112.5" font-family="Cascadia Code NF" font-size="10.00">RecordDeclarationScopeEval</text>
<text text-anchor="start" x="426" y="-99.75" font-family="Cascadia Code NF" font-size="10.00">Call()</text>
<text text-anchor="start" x="416" y="-83.5" font-family="Cascadia Code NF" font-size="10.00">+</text>
<text text-anchor="start" x="426" y="-83.5" font-family="Cascadia Code NF" font-size="10.00">sloppy_eval_can_extend</text>
<text text-anchor="start" x="426" y="-70.75" font-family="Cascadia Code NF" font-size="10.00">_vars()</text>
<text text-anchor="start" x="416" y="-54.5" font-family="Cascadia Code NF" font-size="10.00">+</text>
<text text-anchor="start" x="426" y="-54.5" font-family="Cascadia Code NF" font-size="10.00">was_lazily_parsed()</text>
<text text-anchor="start" x="426" y="-38.5" font-family="Cascadia Code NF" font-size="10.00">and 59 more...</text>
<text text-anchor="start" x="416" y="-22.5" font-family="Cascadia Code NF" font-size="10.00">+</text>
<text text-anchor="start" x="426" y="-22.5" font-family="Cascadia Code NF" font-size="10.00">Analyze()</text>
<text text-anchor="start" x="416" y="-6.5" font-family="Cascadia Code NF" font-size="10.00">+</text>
<text text-anchor="start" x="426" y="-6.5" font-family="Cascadia Code NF" font-size="10.00">AllocateScopeInfos()</text>
<polygon fill="#bfbfbf" stroke="#bfbfbf" points="412,-252 412,-252 586,-252 586,-252 412,-252"/>
<polygon fill="#bfbfbf" stroke="#bfbfbf" points="412,-236 412,-236 586,-236 586,-236 412,-236"/>
<polygon fill="none" stroke="#bfbfbf" points="412,0 412,-283 586,-283 586,0 412,0"/>
</a>
</g>
</g>
<!-- Node1&#45;&gt;Node6 -->
<g id="edge5_Node000001_Node000006" class="edge">
<title>Node1&#45;&gt;Node6</title>
<g id="a_edge5_Node000001_Node000006"><a xlink:title=" ">
<path fill="none" stroke="#63b8ff" d="M370.43,-308.97C384.1,-291.03 398.28,-272.42 412,-254.4"/>
<polygon fill="none" stroke="#63b8ff" points="367.97,-306.43 364.69,-316.51 373.53,-310.67 367.97,-306.43"/>
</a>
</g>
</g>
<!-- Node2 -->
<g id="Node000002" class="node">
<title>Node2</title>
<g id="a_Node000002"><a xlink:href="$d2/dca/classNON__EXPORTED__BASEZoneObject.html" xlink:title=" ">
<polygon fill="white" stroke="none" points="172,-444.5 0,-444.5 0,-392.5 172,-392.5 172,-444.5"/>
<text text-anchor="start" x="5" y="-431" font-family="Cascadia Code NF" font-size="10.00">NON_EXPORTED_BASEZoneObject</text>
<text text-anchor="start" x="83" y="-415" font-family="Cascadia Code NF" font-size="10.00"> </text>
<text text-anchor="start" x="83" y="-399" font-family="Cascadia Code NF" font-size="10.00"> </text>
<polygon fill="#bfbfbf" stroke="#bfbfbf" points="0,-426.5 0,-426.5 172,-426.5 172,-426.5 0,-426.5"/>
<polygon fill="#bfbfbf" stroke="#bfbfbf" points="0,-410.5 0,-410.5 172,-410.5 172,-410.5 0,-410.5"/>
<polygon fill="none" stroke="#bfbfbf" points="0,-392.5 0,-444.5 172,-444.5 172,-392.5 0,-392.5"/>
</a>
</g>
</g>
<!-- Node2&#45;&gt;Node1 -->
<g id="edge1_Node000001_Node000002" class="edge">
<title>Node2&#45;&gt;Node1</title>
<g id="a_edge1_Node000001_Node000002"><a xlink:title=" ">
<path fill="none" stroke="#63b8ff" d="M183.21,-418.5C191.58,-418.5 199.98,-418.5 208.17,-418.5"/>
<polygon fill="none" stroke="#63b8ff" points="183.35,-415 173.35,-418.5 183.34,-422 183.35,-415"/>
</a>
</g>
</g>
<!-- Node7 -->
<g id="Node000007" class="node">
<title>Node7</title>
<g id="a_Node000007"><a xlink:href="$d8/daa/classv8_1_1internal_1_1ModuleScope.html" xlink:title=" ">
<polygon fill="white" stroke="none" points="802,-191.5 634,-191.5 634,-91.5 802,-91.5 802,-191.5"/>
<text text-anchor="start" x="643" y="-178" font-family="Cascadia Code NF" font-size="10.00">v8::internal::ModuleScope</text>
<text text-anchor="start" x="715" y="-162" font-family="Cascadia Code NF" font-size="10.00"> </text>
<text text-anchor="start" x="638" y="-146" font-family="Cascadia Code NF" font-size="10.00">+</text>
<text text-anchor="start" x="648" y="-146" font-family="Cascadia Code NF" font-size="10.00">ModuleScope()</text>
<text text-anchor="start" x="638" y="-130" font-family="Cascadia Code NF" font-size="10.00">+</text>
<text text-anchor="start" x="648" y="-130" font-family="Cascadia Code NF" font-size="10.00">ModuleScope()</text>
<text text-anchor="start" x="638" y="-114" font-family="Cascadia Code NF" font-size="10.00">+</text>
<text text-anchor="start" x="648" y="-114" font-family="Cascadia Code NF" font-size="10.00">module()</text>
<text text-anchor="start" x="638" y="-98" font-family="Cascadia Code NF" font-size="10.00">+</text>
<text text-anchor="start" x="648" y="-98" font-family="Cascadia Code NF" font-size="10.00">AllocateModuleVariables()</text>
<polygon fill="#bfbfbf" stroke="#bfbfbf" points="634,-173.5 634,-173.5 802,-173.5 802,-173.5 634,-173.5"/>
<polygon fill="#bfbfbf" stroke="#bfbfbf" points="634,-157.5 634,-157.5 802,-157.5 802,-157.5 634,-157.5"/>
<polygon fill="none" stroke="#bfbfbf" points="634,-91.5 634,-191.5 802,-191.5 802,-91.5 634,-91.5"/>
</a>
</g>
</g>
<!-- Node6&#45;&gt;Node7 -->
<g id="edge6_Node000006_Node000007" class="edge">
<title>Node6&#45;&gt;Node7</title>
<g id="a_edge6_Node000006_Node000007"><a xlink:title=" ">
<path fill="none" stroke="#63b8ff" d="M597.1,-141.5C609.53,-141.5 622.17,-141.5 634.34,-141.5"/>
<polygon fill="none" stroke="#63b8ff" points="597.28,-138 587.28,-141.5 597.28,-145 597.28,-138"/>
</a>
</g>
</g>
</g>
</svg>
