<?xml version="1.0" encoding="UTF-8" standalone="no"?>
<!DOCTYPE svg PUBLIC "-//W3C//DTD SVG 1.1//EN"
 "http://www.w3.org/Graphics/SVG/1.1/DTD/svg11.dtd">
<!-- Generated by graphviz version 11.0.0 (20240428.1522)
 -->
<!-- Title: v8::internal::compiler::turboshaft::RuntimeAbortOp Pages: 1 -->
<!--zoomable 345 -->

<svg id="main" version="1.1" xmlns="http://www.w3.org/2000/svg" xmlns:xlink="http://www.w3.org/1999/xlink" xml:space="preserve" onload="init(evt)">
<style type="text/css"><![CDATA[
.node, .edge {opacity: 0.7;}
.node.selected, .edge.selected {opacity: 1;}
.edge:hover path { stroke: red; }
.edge:hover polygon { stroke: red; fill: red; }
svg#main { background-color: #111; }
]]></style>

<defs>
  <circle id="rim" cx="0" cy="0" r="7"/>
  <circle id="rim2" cx="0" cy="0" r="3.5"/>
  <g id="zoomPlus">
    <use xlink:href="#rim" fill="#404040"><set attributeName="fill" to="#808080" begin="zoomplus.mouseover" end="zoomplus.mouseout"/></use>
    <path d="M-4,0h8M0,-4v8" fill="none" stroke="white" stroke-width="1.5" pointer-events="none"/>
  </g>
  <g id="zoomMin">
    <use xlink:href="#rim" fill="#404040"><set attributeName="fill" to="#808080" begin="zoomminus.mouseover" end="zoomminus.mouseout"/></use>
    <path d="M-4,0h8" fill="none" stroke="white" stroke-width="1.5" pointer-events="none"/>
  </g>
  <g id="arrowUp" transform="translate(30 24)">
    <use xlink:href="#rim"/>
    <path pointer-events="none" fill="none" stroke="white" stroke-width="1.5" d="M0,-3.0v7 M-2.5,-0.5L0,-3.0L2.5,-0.5"/>
  </g>
  <g id="arrowRight" transform="rotate(90) translate(36 -43)">
    <use xlink:href="#rim"/>
    <path pointer-events="none" fill="none" stroke="white" stroke-width="1.5" d="M0,-3.0v7 M-2.5,-0.5L0,-3.0L2.5,-0.5"/>
  </g>
  <g id="arrowDown" transform="rotate(180) translate(-30 -48)">
    <use xlink:href="#rim"/>
    <path pointer-events="none" fill="none" stroke="white" stroke-width="1.5" d="M0,-3.0v7 M-2.5,-0.5L0,-3.0L2.5,-0.5"/>
  </g>
  <g id="arrowLeft" transform="rotate(270) translate(-36 17)">
    <use xlink:href="#rim"/>
    <path pointer-events="none" fill="none" stroke="white" stroke-width="1.5" d="M0,-3.0v7 M-2.5,-0.5L0,-3.0L2.5,-0.5"/>
  </g>
  <g id="resetDef">
    <use xlink:href="#rim2" fill="#404040"><set attributeName="fill" to="#808080" begin="reset.mouseover" end="reset.mouseout"/></use>
  </g>
</defs>
<script type="application/ecmascript">
var viewWidth = 806;
var viewHeight = 345;
var sectionId = 'dynsection-0';
</script>
<script type="application/ecmascript" xlink:href="../../svg.min.js"/>
<svg id="graph" class="graph">
<g id="viewport">
<title>v8::internal::compiler::turboshaft::RuntimeAbortOp</title>
<!-- Node1 -->
<g id="Node000001" class="node">
<title>Node1</title>
<g id="a_Node000001"><a xlink:title=" ">
<polygon fill="#999999" stroke="none" points="798,-241 620,-241 620,-96 798,-96 798,-241"/>
<text text-anchor="start" x="625" y="-227.5" font-family="Cascadia Code NF" font-size="10.00">v8::internal::compiler</text>
<text text-anchor="start" x="625" y="-214.75" font-family="Cascadia Code NF" font-size="10.00">::turboshaft::RuntimeAbortOp</text>
<text text-anchor="start" x="640" y="-198.5" font-family="Cascadia Code NF" font-size="10.00">+</text>
<text text-anchor="start" x="666" y="-198.5" font-family="Cascadia Code NF" font-size="10.00">reason</text>
<text text-anchor="start" x="640" y="-182.5" font-family="Cascadia Code NF" font-size="10.00">+</text>
<text text-anchor="start" x="666" y="-182.5" font-family="Cascadia Code NF" font-size="10.00">effects</text>
<text text-anchor="start" x="640" y="-166.5" font-family="Cascadia Code NF" font-size="10.00">+</text>
<text text-anchor="start" x="666" y="-166.5" font-family="Cascadia Code NF" font-size="10.00">outputs_rep()</text>
<text text-anchor="start" x="640" y="-150.5" font-family="Cascadia Code NF" font-size="10.00">+</text>
<text text-anchor="start" x="666" y="-150.5" font-family="Cascadia Code NF" font-size="10.00">inputs_rep()</text>
<text text-anchor="start" x="640" y="-134.5" font-family="Cascadia Code NF" font-size="10.00">+</text>
<text text-anchor="start" x="666" y="-134.5" font-family="Cascadia Code NF" font-size="10.00">RuntimeAbortOp()</text>
<text text-anchor="start" x="640" y="-118.5" font-family="Cascadia Code NF" font-size="10.00">+</text>
<text text-anchor="start" x="666" y="-118.5" font-family="Cascadia Code NF" font-size="10.00">Validate()</text>
<text text-anchor="start" x="640" y="-102.5" font-family="Cascadia Code NF" font-size="10.00">+</text>
<text text-anchor="start" x="666" y="-102.5" font-family="Cascadia Code NF" font-size="10.00">options()</text>
<polygon fill="#666666" stroke="#666666" points="620,-210 620,-210 798,-210 798,-210 620,-210"/>
<polygon fill="#666666" stroke="#666666" points="620,-178 620,-178 664,-178 664,-178 620,-178"/>
<polygon fill="#666666" stroke="#666666" points="664,-178 664,-178 798,-178 798,-178 664,-178"/>
<polygon fill="none" stroke="#666666" points="620,-96 620,-241 798,-241 798,-96 620,-96"/>
</a>
</g>
</g>
<!-- Node2 -->
<g id="Node000002" class="node">
<title>Node2</title>
<g id="a_Node000002"><a xlink:href="../../da/d8a/structv8_1_1internal_1_1compiler_1_1turboshaft_1_1FixedArityOperationT.html" target="_top" xlink:title=" ">
<polygon fill="white" stroke="none" points="584,-231.5 376,-231.5 376,-105.5 584,-105.5 584,-231.5"/>
<text text-anchor="start" x="381" y="-218" font-family="Cascadia Code NF" font-size="10.00">v8::internal::compiler</text>
<text text-anchor="start" x="381" y="-205.25" font-family="Cascadia Code NF" font-size="10.00">::turboshaft::FixedArityOperation</text>
<text text-anchor="start" x="414" y="-192.5" font-family="Cascadia Code NF" font-size="10.00">T&lt; 0, RuntimeAbortOp &gt;</text>
<text text-anchor="start" x="394.5" y="-176" font-family="Cascadia Code NF" font-size="10.00">+</text>
<text text-anchor="start" x="419" y="-176" font-family="Cascadia Code NF" font-size="10.00">input_count</text>
<text text-anchor="start" x="394.5" y="-160" font-family="Cascadia Code NF" font-size="10.00">+</text>
<text text-anchor="start" x="419" y="-160" font-family="Cascadia Code NF" font-size="10.00">FixedArityOperationT()</text>
<text text-anchor="start" x="394.5" y="-144" font-family="Cascadia Code NF" font-size="10.00">+</text>
<text text-anchor="start" x="419" y="-144" font-family="Cascadia Code NF" font-size="10.00">ExplodeImpl()</text>
<text text-anchor="start" x="394.5" y="-128" font-family="Cascadia Code NF" font-size="10.00">+</text>
<text text-anchor="start" x="419" y="-128" font-family="Cascadia Code NF" font-size="10.00">Explode()</text>
<text text-anchor="start" x="394.5" y="-112" font-family="Cascadia Code NF" font-size="10.00">+</text>
<text text-anchor="start" x="419" y="-112" font-family="Cascadia Code NF" font-size="10.00">New()</text>
<polygon fill="#bfbfbf" stroke="#bfbfbf" points="376,-187.5 376,-187.5 584,-187.5 584,-187.5 376,-187.5"/>
<polygon fill="#bfbfbf" stroke="#bfbfbf" points="376,-171.5 376,-171.5 417,-171.5 417,-171.5 376,-171.5"/>
<polygon fill="#bfbfbf" stroke="#bfbfbf" points="417,-171.5 417,-171.5 584,-171.5 584,-171.5 417,-171.5"/>
<polygon fill="none" stroke="#bfbfbf" points="376,-105.5 376,-231.5 584,-231.5 584,-105.5 376,-105.5"/>
</a>
</g>
</g>
<!-- Node2&#45;&gt;Node1 -->
<g id="edge1_Node000001_Node000002" class="edge">
<title>Node2&#45;&gt;Node1</title>
<g id="a_edge1_Node000001_Node000002"><a xlink:title=" ">
<path fill="none" stroke="#63b8ff" d="M595.23,-168.5C603.57,-168.5 611.9,-168.5 620.05,-168.5"/>
<polygon fill="none" stroke="#63b8ff" points="595.39,-165 585.39,-168.5 595.39,-172 595.39,-165"/>
</a>
</g>
</g>
<!-- Node3 -->
<g id="Node000003" class="node">
<title>Node3</title>
<g id="a_Node000003"><a xlink:href="../../d5/d1a/structv8_1_1internal_1_1compiler_1_1turboshaft_1_1OperationT.html" target="_top" xlink:title=" ">
<polygon fill="white" stroke="none" points="340,-335.5 186,-335.5 186,-1.5 340,-1.5 340,-335.5"/>
<text text-anchor="start" x="191" y="-322" font-family="Cascadia Code NF" font-size="10.00">v8::internal::compiler</text>
<text text-anchor="start" x="191" y="-309.25" font-family="Cascadia Code NF" font-size="10.00">::turboshaft::OperationT</text>
<text text-anchor="start" x="209" y="-296.5" font-family="Cascadia Code NF" font-size="10.00">&lt; RuntimeAbortOp &gt;</text>
<text text-anchor="start" x="191" y="-280" font-family="Cascadia Code NF" font-size="10.00">+</text>
<text text-anchor="start" x="202" y="-280" font-family="Cascadia Code NF" font-size="10.00">opcode</text>
<text text-anchor="start" x="191" y="-264" font-family="Cascadia Code NF" font-size="10.00">+</text>
<text text-anchor="start" x="202" y="-264" font-family="Cascadia Code NF" font-size="10.00">IsRequiredWhenUnused()</text>
<text text-anchor="start" x="191" y="-248" font-family="Cascadia Code NF" font-size="10.00">+</text>
<text text-anchor="start" x="202" y="-248" font-family="Cascadia Code NF" font-size="10.00">derived_this()</text>
<text text-anchor="start" x="191" y="-232" font-family="Cascadia Code NF" font-size="10.00">+</text>
<text text-anchor="start" x="202" y="-232" font-family="Cascadia Code NF" font-size="10.00">derived_this()</text>
<text text-anchor="start" x="191" y="-216" font-family="Cascadia Code NF" font-size="10.00">+</text>
<text text-anchor="start" x="202" y="-216" font-family="Cascadia Code NF" font-size="10.00">inputs()</text>
<text text-anchor="start" x="191" y="-200" font-family="Cascadia Code NF" font-size="10.00">+</text>
<text text-anchor="start" x="202" y="-200" font-family="Cascadia Code NF" font-size="10.00">inputs()</text>
<text text-anchor="start" x="191" y="-184" font-family="Cascadia Code NF" font-size="10.00">+</text>
<text text-anchor="start" x="202" y="-184" font-family="Cascadia Code NF" font-size="10.00">input()</text>
<text text-anchor="start" x="191" y="-168" font-family="Cascadia Code NF" font-size="10.00">+</text>
<text text-anchor="start" x="202" y="-168" font-family="Cascadia Code NF" font-size="10.00">input()</text>
<text text-anchor="start" x="191" y="-152" font-family="Cascadia Code NF" font-size="10.00">+</text>
<text text-anchor="start" x="202" y="-152" font-family="Cascadia Code NF" font-size="10.00">input()</text>
<text text-anchor="start" x="191" y="-136" font-family="Cascadia Code NF" font-size="10.00">+</text>
<text text-anchor="start" x="202" y="-136" font-family="Cascadia Code NF" font-size="10.00">StorageSlotCount()</text>
<text text-anchor="start" x="191" y="-120" font-family="Cascadia Code NF" font-size="10.00">+</text>
<text text-anchor="start" x="202" y="-120" font-family="Cascadia Code NF" font-size="10.00">OperationT()</text>
<text text-anchor="start" x="202" y="-104" font-family="Cascadia Code NF" font-size="10.00">and 7 more...</text>
<text text-anchor="start" x="191" y="-88" font-family="Cascadia Code NF" font-size="10.00">+</text>
<text text-anchor="start" x="202" y="-88" font-family="Cascadia Code NF" font-size="10.00">Effects()</text>
<text text-anchor="start" x="191" y="-72" font-family="Cascadia Code NF" font-size="10.00">+</text>
<text text-anchor="start" x="202" y="-72" font-family="Cascadia Code NF" font-size="10.00">IsBlockTerminator()</text>
<text text-anchor="start" x="191" y="-56" font-family="Cascadia Code NF" font-size="10.00">+</text>
<text text-anchor="start" x="202" y="-56" font-family="Cascadia Code NF" font-size="10.00">EffectsIfStatic()</text>
<text text-anchor="start" x="191" y="-40" font-family="Cascadia Code NF" font-size="10.00">+</text>
<text text-anchor="start" x="202" y="-40" font-family="Cascadia Code NF" font-size="10.00">StorageSlotCount()</text>
<text text-anchor="start" x="191" y="-24" font-family="Cascadia Code NF" font-size="10.00">+</text>
<text text-anchor="start" x="202" y="-24" font-family="Cascadia Code NF" font-size="10.00">New()</text>
<text text-anchor="start" x="191" y="-8" font-family="Cascadia Code NF" font-size="10.00">+</text>
<text text-anchor="start" x="202" y="-8" font-family="Cascadia Code NF" font-size="10.00">New()</text>
<polygon fill="#bfbfbf" stroke="#bfbfbf" points="186,-291.5 186,-291.5 340,-291.5 340,-291.5 186,-291.5"/>
<polygon fill="#bfbfbf" stroke="#bfbfbf" points="186,-275.5 186,-275.5 200,-275.5 200,-275.5 186,-275.5"/>
<polygon fill="#bfbfbf" stroke="#bfbfbf" points="200,-275.5 200,-275.5 340,-275.5 340,-275.5 200,-275.5"/>
<polygon fill="none" stroke="#bfbfbf" points="186,-1.5 186,-335.5 340,-335.5 340,-1.5 186,-1.5"/>
</a>
</g>
</g>
<!-- Node3&#45;&gt;Node2 -->
<g id="edge2_Node000002_Node000003" class="edge">
<title>Node3&#45;&gt;Node2</title>
<g id="a_edge2_Node000002_Node000003"><a xlink:title=" ">
<path fill="none" stroke="#63b8ff" d="M351.22,-168.5C359.39,-168.5 367.72,-168.5 376.01,-168.5"/>
<polygon fill="none" stroke="#63b8ff" points="351.31,-165 341.31,-168.5 351.31,-172 351.31,-165"/>
</a>
</g>
</g>
<!-- Node4 -->
<g id="Node000004" class="node">
<title>Node4</title>
<g id="a_Node000004"><a xlink:href="../../d6/da7/structv8_1_1internal_1_1compiler_1_1turboshaft_1_1Operation.html" target="_top" xlink:title=" ">
<polygon fill="white" stroke="none" points="150,-337 0,-337 0,0 150,0 150,-337"/>
<text text-anchor="start" x="6" y="-323.5" font-family="Cascadia Code NF" font-size="10.00">v8::internal::compiler</text>
<text text-anchor="start" x="6" y="-310.75" font-family="Cascadia Code NF" font-size="10.00">::turboshaft::Operation</text>
<text text-anchor="start" x="4" y="-294.5" font-family="Cascadia Code NF" font-size="10.00">+</text>
<text text-anchor="start" x="14" y="-294.5" font-family="Cascadia Code NF" font-size="10.00">opcode</text>
<text text-anchor="start" x="4" y="-278.5" font-family="Cascadia Code NF" font-size="10.00">+</text>
<text text-anchor="start" x="14" y="-278.5" font-family="Cascadia Code NF" font-size="10.00">saturated_use_count</text>
<text text-anchor="start" x="4" y="-262.5" font-family="Cascadia Code NF" font-size="10.00">+</text>
<text text-anchor="start" x="14" y="-262.5" font-family="Cascadia Code NF" font-size="10.00">input_count</text>
<text text-anchor="start" x="4" y="-246.5" font-family="Cascadia Code NF" font-size="10.00">+</text>
<text text-anchor="start" x="14" y="-246.5" font-family="Cascadia Code NF" font-size="10.00">inputs()</text>
<text text-anchor="start" x="4" y="-230.5" font-family="Cascadia Code NF" font-size="10.00">+</text>
<text text-anchor="start" x="14" y="-230.5" font-family="Cascadia Code NF" font-size="10.00">input()</text>
<text text-anchor="start" x="4" y="-214.5" font-family="Cascadia Code NF" font-size="10.00">+</text>
<text text-anchor="start" x="14" y="-214.5" font-family="Cascadia Code NF" font-size="10.00">StorageSlotCount()</text>
<text text-anchor="start" x="4" y="-198.5" font-family="Cascadia Code NF" font-size="10.00">+</text>
<text text-anchor="start" x="14" y="-198.5" font-family="Cascadia Code NF" font-size="10.00">outputs_rep()</text>
<text text-anchor="start" x="4" y="-182.5" font-family="Cascadia Code NF" font-size="10.00">+</text>
<text text-anchor="start" x="14" y="-182.5" font-family="Cascadia Code NF" font-size="10.00">inputs_rep()</text>
<text text-anchor="start" x="4" y="-166.5" font-family="Cascadia Code NF" font-size="10.00">+</text>
<text text-anchor="start" x="14" y="-166.5" font-family="Cascadia Code NF" font-size="10.00">Is()</text>
<text text-anchor="start" x="4" y="-150.5" font-family="Cascadia Code NF" font-size="10.00">+</text>
<text text-anchor="start" x="14" y="-150.5" font-family="Cascadia Code NF" font-size="10.00">Cast()</text>
<text text-anchor="start" x="4" y="-134.5" font-family="Cascadia Code NF" font-size="10.00">+</text>
<text text-anchor="start" x="14" y="-134.5" font-family="Cascadia Code NF" font-size="10.00">Cast()</text>
<text text-anchor="start" x="4" y="-118.5" font-family="Cascadia Code NF" font-size="10.00">+</text>
<text text-anchor="start" x="14" y="-118.5" font-family="Cascadia Code NF" font-size="10.00">TryCast()</text>
<text text-anchor="start" x="4" y="-102.5" font-family="Cascadia Code NF" font-size="10.00">+</text>
<text text-anchor="start" x="14" y="-102.5" font-family="Cascadia Code NF" font-size="10.00">TryCast()</text>
<text text-anchor="start" x="14" y="-86.5" font-family="Cascadia Code NF" font-size="10.00">and 7 more...</text>
<text text-anchor="start" x="4" y="-70.5" font-family="Cascadia Code NF" font-size="10.00">+</text>
<text text-anchor="start" x="14" y="-70.5" font-family="Cascadia Code NF" font-size="10.00">StorageSlotCount()</text>
<text text-anchor="start" x="4" y="-54.5" font-family="Cascadia Code NF" font-size="10.00">#</text>
<text text-anchor="start" x="14" y="-54.5" font-family="Cascadia Code NF" font-size="10.00">Operation()</text>
<text text-anchor="start" x="4" y="-38.5" font-family="Cascadia Code NF" font-size="10.00">#</text>
<text text-anchor="start" x="14" y="-38.5" font-family="Cascadia Code NF" font-size="10.00">V8_CLANG_NO_SANITIZE()</text>
<text text-anchor="start" x="4" y="-22.5" font-family="Cascadia Code NF" font-size="10.00">#</text>
<text text-anchor="start" x="14" y="-22.5" font-family="Cascadia Code NF" font-size="10.00">Operation()</text>
<text text-anchor="start" x="4" y="-6.5" font-family="Cascadia Code NF" font-size="10.00">#</text>
<text text-anchor="start" x="14" y="-6.5" font-family="Cascadia Code NF" font-size="10.00">operator=()</text>
<polygon fill="#bfbfbf" stroke="#bfbfbf" points="0,-306 0,-306 150,-306 150,-306 0,-306"/>
<polygon fill="#bfbfbf" stroke="#bfbfbf" points="0,-258 0,-258 12,-258 12,-258 0,-258"/>
<polygon fill="#bfbfbf" stroke="#bfbfbf" points="12,-258 12,-258 150,-258 150,-258 12,-258"/>
<polygon fill="none" stroke="#bfbfbf" points="0,0 0,-337 150,-337 150,0 0,0"/>
</a>
</g>
</g>
<!-- Node4&#45;&gt;Node3 -->
<g id="edge3_Node000003_Node000004" class="edge">
<title>Node4&#45;&gt;Node3</title>
<g id="a_edge3_Node000003_Node000004"><a xlink:title=" ">
<path fill="none" stroke="#63b8ff" d="M161.1,-168.5C169.47,-168.5 177.91,-168.5 186.18,-168.5"/>
<polygon fill="none" stroke="#63b8ff" points="161.29,-165 151.29,-168.5 161.29,-172 161.29,-165"/>
</a>
</g>
</g>
</g>
</svg>

<g id="navigator" transform="translate(0 0)" fill="#404254">
  <rect fill="#f2f5e9" fill-opacity="0.5" stroke="#606060" stroke-width=".5" x="0" y="0" width="60" height="60"/>
  <use id="zoomplus" xlink:href="#zoomPlus" x="17" y="9" onmousedown="handleZoom(evt,'in')"/>
  <use id="zoomminus" xlink:href="#zoomMin" x="42" y="9" onmousedown="handleZoom(evt,'out')"/>
  <use id="reset" xlink:href="#resetDef" x="30" y="36" onmousedown="handleReset()"/>
   <use id="arrowup" xlink:href="#arrowUp" x="0" y="0" onmousedown="handlePan(0,-1)"/>
  <use id="arrowright" xlink:href="#arrowRight" x="0" y="0" onmousedown="handlePan(1,0)"/>
  <use id="arrowdown" xlink:href="#arrowDown" x="0" y="0" onmousedown="handlePan(0,1)"/>
  <use id="arrowleft" xlink:href="#arrowLeft" x="0" y="0" onmousedown="handlePan(-1,0)"/>
</g>
<svg viewBox="0 0 15 15" width="100%" height="30px" preserveAspectRatio="xMaxYMin meet">
 <g id="arrow_out" transform="scale(0.3 0.3)">
  <a xlink:href="structv8_1_1internal_1_1compiler_1_1turboshaft_1_1RuntimeAbortOp__inherit__graph_org.svg" target="_base">
   <rect id="button" ry="5" rx="5" y="6" x="6" height="38" width="38"
        fill="#f2f5e9" fill-opacity="0.5" stroke="#606060" stroke-width="1.0"/>
   <path id="arrow"
     d="M 11.500037,31.436501 C 11.940474,20.09759 22.043105,11.32322 32.158766,21.979434 L 37.068811,17.246167 C 37.068811,17.246167 37.088388,32 37.088388,32 L 22.160133,31.978069 C 22.160133,31.978069 26.997745,27.140456 26.997745,27.140456 C 18.528582,18.264221 13.291696,25.230495 11.500037,31.436501 z"
     style="fill:#404040;"/>
  </a>
 </g>
</svg>

<style type='text/css'>
<![CDATA[
[data-mouse-over-selected='false'] { opacity: 0.7; }
[data-mouse-over-selected='true']  { opacity: 1.0; }
]]>
</style>
<script type="application/ecmascript"><![CDATA[
document.addEventListener('DOMContentLoaded', (event) => {
  highlightEdges();
  highlightAdjacentNodes();
});
]]></script>
</svg>
