<?xml version="1.0" encoding="UTF-8" standalone="no"?>
<!DOCTYPE svg PUBLIC "-//W3C//DTD SVG 1.1//EN"
 "http://www.w3.org/Graphics/SVG/1.1/DTD/svg11.dtd">
<!-- Generated by graphviz version 11.0.0 (20240428.1522)
 -->
<!-- Title: v8::internal::debug_helper_internal::TqTurbofanUnionType Pages: 1 -->
<svg width="744pt" height="214pt"
 viewBox="0.00 0.00 744.00 214.00" xmlns="http://www.w3.org/2000/svg" xmlns:xlink="http://www.w3.org/1999/xlink">
<g id="graph0" class="graph" transform="scale(1 1) rotate(0) translate(4 210)">
<title>v8::internal::debug_helper_internal::TqTurbofanUnionType</title>
<!-- Node1 -->
<g id="Node000001" class="node">
<title>Node1</title>
<g id="a_Node000001"><a xlink:title=" ">
<polygon fill="#999999" stroke="none" points="736,-206 558,-206 558,0 736,0 736,-206"/>
<text text-anchor="start" x="563" y="-192.5" font-family="Cascadia Code NF" font-size="10.00">v8::internal::debug</text>
<text text-anchor="start" x="563" y="-179.75" font-family="Cascadia Code NF" font-size="10.00">_helper_internal::TqTurbofan</text>
<text text-anchor="start" x="620" y="-167" font-family="Cascadia Code NF" font-size="10.00">UnionType</text>
<text text-anchor="start" x="644" y="-150.5" font-family="Cascadia Code NF" font-size="10.00"> </text>
<text text-anchor="start" x="570.5" y="-134.5" font-family="Cascadia Code NF" font-size="10.00">+</text>
<text text-anchor="start" x="589" y="-134.5" font-family="Cascadia Code NF" font-size="10.00">TqTurbofanUnionType()</text>
<text text-anchor="start" x="570.5" y="-118.5" font-family="Cascadia Code NF" font-size="10.00">+</text>
<text text-anchor="start" x="589" y="-118.5" font-family="Cascadia Code NF" font-size="10.00">GetProperties()</text>
<text text-anchor="start" x="570.5" y="-102.5" font-family="Cascadia Code NF" font-size="10.00">+</text>
<text text-anchor="start" x="589" y="-102.5" font-family="Cascadia Code NF" font-size="10.00">GetName()</text>
<text text-anchor="start" x="570.5" y="-86.5" font-family="Cascadia Code NF" font-size="10.00">+</text>
<text text-anchor="start" x="589" y="-86.5" font-family="Cascadia Code NF" font-size="10.00">Visit()</text>
<text text-anchor="start" x="570.5" y="-70.5" font-family="Cascadia Code NF" font-size="10.00">+</text>
<text text-anchor="start" x="589" y="-70.5" font-family="Cascadia Code NF" font-size="10.00">IsSuperclassOf()</text>
<text text-anchor="start" x="570.5" y="-54.5" font-family="Cascadia Code NF" font-size="10.00">+</text>
<text text-anchor="start" x="589" y="-54.5" font-family="Cascadia Code NF" font-size="10.00">GetType1Address()</text>
<text text-anchor="start" x="570.5" y="-38.5" font-family="Cascadia Code NF" font-size="10.00">+</text>
<text text-anchor="start" x="589" y="-38.5" font-family="Cascadia Code NF" font-size="10.00">GetType1Value()</text>
<text text-anchor="start" x="570.5" y="-22.5" font-family="Cascadia Code NF" font-size="10.00">+</text>
<text text-anchor="start" x="589" y="-22.5" font-family="Cascadia Code NF" font-size="10.00">GetType2Address()</text>
<text text-anchor="start" x="570.5" y="-6.5" font-family="Cascadia Code NF" font-size="10.00">+</text>
<text text-anchor="start" x="589" y="-6.5" font-family="Cascadia Code NF" font-size="10.00">GetType2Value()</text>
<polygon fill="#666666" stroke="#666666" points="558,-162 558,-162 736,-162 736,-162 558,-162"/>
<polygon fill="#666666" stroke="#666666" points="558,-146 558,-146 736,-146 736,-146 558,-146"/>
<polygon fill="none" stroke="#666666" points="558,0 558,-206 736,-206 736,0 558,0"/>
</a>
</g>
</g>
<!-- Node2 -->
<g id="Node000002" class="node">
<title>Node2</title>
<g id="a_Node000002"><a xlink:href="../../dc/d63/classv8_1_1internal_1_1debug__helper__internal_1_1TqTurbofanType.html" target="_top" xlink:title=" ">
<polygon fill="white" stroke="none" points="522,-167.5 320,-167.5 320,-38.5 522,-38.5 522,-167.5"/>
<text text-anchor="start" x="325" y="-154" font-family="Cascadia Code NF" font-size="10.00">v8::internal::debug</text>
<text text-anchor="start" x="325" y="-141.25" font-family="Cascadia Code NF" font-size="10.00">_helper_internal::TqTurbofanType</text>
<text text-anchor="start" x="418" y="-125" font-family="Cascadia Code NF" font-size="10.00"> </text>
<text text-anchor="start" x="346" y="-109" font-family="Cascadia Code NF" font-size="10.00">+</text>
<text text-anchor="start" x="378" y="-109" font-family="Cascadia Code NF" font-size="10.00">TqTurbofanType()</text>
<text text-anchor="start" x="346" y="-93" font-family="Cascadia Code NF" font-size="10.00">+</text>
<text text-anchor="start" x="378" y="-93" font-family="Cascadia Code NF" font-size="10.00">GetProperties()</text>
<text text-anchor="start" x="346" y="-77" font-family="Cascadia Code NF" font-size="10.00">+</text>
<text text-anchor="start" x="378" y="-77" font-family="Cascadia Code NF" font-size="10.00">GetName()</text>
<text text-anchor="start" x="346" y="-61" font-family="Cascadia Code NF" font-size="10.00">+</text>
<text text-anchor="start" x="378" y="-61" font-family="Cascadia Code NF" font-size="10.00">Visit()</text>
<text text-anchor="start" x="346" y="-45" font-family="Cascadia Code NF" font-size="10.00">+</text>
<text text-anchor="start" x="378" y="-45" font-family="Cascadia Code NF" font-size="10.00">IsSuperclassOf()</text>
<polygon fill="#bfbfbf" stroke="#bfbfbf" points="320,-136.5 320,-136.5 522,-136.5 522,-136.5 320,-136.5"/>
<polygon fill="#bfbfbf" stroke="#bfbfbf" points="320,-120.5 320,-120.5 522,-120.5 522,-120.5 320,-120.5"/>
<polygon fill="none" stroke="#bfbfbf" points="320,-38.5 320,-167.5 522,-167.5 522,-38.5 320,-38.5"/>
</a>
</g>
</g>
<!-- Node2&#45;&gt;Node1 -->
<g id="edge1_Node000001_Node000002" class="edge">
<title>Node2&#45;&gt;Node1</title>
<g id="a_edge1_Node000001_Node000002"><a xlink:title=" ">
<path fill="none" stroke="#63b8ff" d="M533.29,-103C541.68,-103 550.07,-103 558.28,-103"/>
<polygon fill="none" stroke="#63b8ff" points="533.39,-99.5 523.39,-103 533.39,-106.5 533.39,-99.5"/>
</a>
</g>
</g>
<!-- Node3 -->
<g id="Node000003" class="node">
<title>Node3</title>
<g id="a_Node000003"><a xlink:href="../../db/deb/classv8_1_1internal_1_1debug__helper__internal_1_1TqHeapObject.html" target="_top" xlink:title=" ">
<polygon fill="white" stroke="none" points="284,-183.5 94,-183.5 94,-22.5 284,-22.5 284,-183.5"/>
<text text-anchor="start" x="99" y="-170" font-family="Cascadia Code NF" font-size="10.00">v8::internal::debug</text>
<text text-anchor="start" x="99" y="-157.25" font-family="Cascadia Code NF" font-size="10.00">_helper_internal::TqHeapObject</text>
<text text-anchor="start" x="186" y="-141" font-family="Cascadia Code NF" font-size="10.00"> </text>
<text text-anchor="start" x="117" y="-125" font-family="Cascadia Code NF" font-size="10.00">+</text>
<text text-anchor="start" x="146" y="-125" font-family="Cascadia Code NF" font-size="10.00">TqHeapObject()</text>
<text text-anchor="start" x="117" y="-109" font-family="Cascadia Code NF" font-size="10.00">+</text>
<text text-anchor="start" x="146" y="-109" font-family="Cascadia Code NF" font-size="10.00">GetProperties()</text>
<text text-anchor="start" x="117" y="-93" font-family="Cascadia Code NF" font-size="10.00">+</text>
<text text-anchor="start" x="146" y="-93" font-family="Cascadia Code NF" font-size="10.00">GetName()</text>
<text text-anchor="start" x="117" y="-77" font-family="Cascadia Code NF" font-size="10.00">+</text>
<text text-anchor="start" x="146" y="-77" font-family="Cascadia Code NF" font-size="10.00">Visit()</text>
<text text-anchor="start" x="117" y="-61" font-family="Cascadia Code NF" font-size="10.00">+</text>
<text text-anchor="start" x="146" y="-61" font-family="Cascadia Code NF" font-size="10.00">IsSuperclassOf()</text>
<text text-anchor="start" x="117" y="-45" font-family="Cascadia Code NF" font-size="10.00">+</text>
<text text-anchor="start" x="146" y="-45" font-family="Cascadia Code NF" font-size="10.00">GetMapAddress()</text>
<text text-anchor="start" x="117" y="-29" font-family="Cascadia Code NF" font-size="10.00">+</text>
<text text-anchor="start" x="146" y="-29" font-family="Cascadia Code NF" font-size="10.00">GetMapValue()</text>
<polygon fill="#bfbfbf" stroke="#bfbfbf" points="94,-152.5 94,-152.5 284,-152.5 284,-152.5 94,-152.5"/>
<polygon fill="#bfbfbf" stroke="#bfbfbf" points="94,-136.5 94,-136.5 284,-136.5 284,-136.5 94,-136.5"/>
<polygon fill="none" stroke="#bfbfbf" points="94,-22.5 94,-183.5 284,-183.5 284,-22.5 94,-22.5"/>
</a>
</g>
</g>
<!-- Node3&#45;&gt;Node2 -->
<g id="edge2_Node000002_Node000003" class="edge">
<title>Node3&#45;&gt;Node2</title>
<g id="a_edge2_Node000002_Node000003"><a xlink:title=" ">
<path fill="none" stroke="#63b8ff" d="M295.14,-103C303.43,-103 311.8,-103 320.06,-103"/>
<polygon fill="none" stroke="#63b8ff" points="295.4,-99.5 285.4,-103 295.4,-106.5 295.4,-99.5"/>
</a>
</g>
</g>
<!-- Node4 -->
<g id="Node000004" class="node">
<title>Node4</title>
<g id="a_Node000004"><a xlink:href="../../dd/d42/classTqObject.html" target="_top" xlink:title=" ">
<polygon fill="white" stroke="none" points="58,-129 0,-129 0,-77 58,-77 58,-129"/>
<text text-anchor="start" x="5" y="-115.5" font-family="Cascadia Code NF" font-size="10.00">TqObject</text>
<text text-anchor="start" x="26" y="-99.5" font-family="Cascadia Code NF" font-size="10.00"> </text>
<text text-anchor="start" x="26" y="-83.5" font-family="Cascadia Code NF" font-size="10.00"> </text>
<polygon fill="#bfbfbf" stroke="#bfbfbf" points="0,-111 0,-111 58,-111 58,-111 0,-111"/>
<polygon fill="#bfbfbf" stroke="#bfbfbf" points="0,-95 0,-95 58,-95 58,-95 0,-95"/>
<polygon fill="none" stroke="#bfbfbf" points="0,-77 0,-129 58,-129 58,-77 0,-77"/>
</a>
</g>
</g>
<!-- Node4&#45;&gt;Node3 -->
<g id="edge3_Node000003_Node000004" class="edge">
<title>Node4&#45;&gt;Node3</title>
<g id="a_edge3_Node000003_Node000004"><a xlink:title=" ">
<path fill="none" stroke="#63b8ff" d="M69.34,-103C77.03,-103 85.39,-103 94,-103"/>
<polygon fill="none" stroke="#63b8ff" points="69.4,-99.5 59.4,-103 69.4,-106.5 69.4,-99.5"/>
</a>
</g>
</g>
</g>
</svg>
