<?xml version="1.0" encoding="UTF-8" standalone="no"?>
<!DOCTYPE svg PUBLIC "-//W3C//DTD SVG 1.1//EN"
 "http://www.w3.org/Graphics/SVG/1.1/DTD/svg11.dtd">
<!-- Generated by graphviz version 11.0.0 (20240428.1522)
 -->
<!-- Title: v8::TracedReferenceBase Pages: 1 -->
<svg width="358pt" height="217pt"
 viewBox="0.00 0.00 358.00 217.00" xmlns="http://www.w3.org/2000/svg" xmlns:xlink="http://www.w3.org/1999/xlink">
<g id="graph0" class="graph" transform="scale(1 1) rotate(0) translate(4 213)">
<title>v8::TracedReferenceBase</title>
<!-- Node1 -->
<g id="Node000001" class="node">
<title>Node1</title>
<g id="a_Node000001"><a xlink:title=" ">
<polygon fill="#999999" stroke="none" points="350,-178.5 202,-178.5 202,-30.5 350,-30.5 350,-178.5"/>
<text text-anchor="start" x="207" y="-165" font-family="Cascadia Code NF" font-size="10.00">v8::TracedReferenceBase</text>
<text text-anchor="start" x="273" y="-149" font-family="Cascadia Code NF" font-size="10.00"> </text>
<text text-anchor="start" x="207" y="-133" font-family="Cascadia Code NF" font-size="10.00">+</text>
<text text-anchor="start" x="218" y="-133" font-family="Cascadia Code NF" font-size="10.00">Reset()</text>
<text text-anchor="start" x="207" y="-117" font-family="Cascadia Code NF" font-size="10.00">+</text>
<text text-anchor="start" x="218" y="-117" font-family="Cascadia Code NF" font-size="10.00">Get()</text>
<text text-anchor="start" x="207" y="-101" font-family="Cascadia Code NF" font-size="10.00">+</text>
<text text-anchor="start" x="218" y="-101" font-family="Cascadia Code NF" font-size="10.00">IsEmptyThreadSafe()</text>
<text text-anchor="start" x="207" y="-85" font-family="Cascadia Code NF" font-size="10.00">#</text>
<text text-anchor="start" x="218" y="-85" font-family="Cascadia Code NF" font-size="10.00">TracedReferenceBase()</text>
<text text-anchor="start" x="207" y="-69" font-family="Cascadia Code NF" font-size="10.00">#</text>
<text text-anchor="start" x="218" y="-69" font-family="Cascadia Code NF" font-size="10.00">SetSlotThreadSafe()</text>
<text text-anchor="start" x="207" y="-53" font-family="Cascadia Code NF" font-size="10.00">#</text>
<text text-anchor="start" x="218" y="-53" font-family="Cascadia Code NF" font-size="10.00">GetSlotThreadSafe()</text>
<text text-anchor="start" x="207" y="-37" font-family="Cascadia Code NF" font-size="10.00">#</text>
<text text-anchor="start" x="218" y="-37" font-family="Cascadia Code NF" font-size="10.00">CheckValue()</text>
<polygon fill="#666666" stroke="#666666" points="202,-160.5 202,-160.5 350,-160.5 350,-160.5 202,-160.5"/>
<polygon fill="#666666" stroke="#666666" points="202,-144.5 202,-144.5 350,-144.5 350,-144.5 202,-144.5"/>
<polygon fill="none" stroke="#666666" points="202,-30.5 202,-178.5 350,-178.5 350,-30.5 202,-30.5"/>
</a>
</g>
</g>
<!-- Node2 -->
<g id="Node000002" class="node">
<title>Node2</title>
<g id="a_Node000002"><a xlink:href="$d4/d76/classv8_1_1api__internal_1_1IndirectHandleBase.html" xlink:title=" ">
<polygon fill="white" stroke="none" points="166,-209 0,-209 0,0 166,0 166,-209"/>
<text text-anchor="start" x="5" y="-195.5" font-family="Cascadia Code NF" font-size="10.00">v8::api_internal::Indirect</text>
<text text-anchor="start" x="53" y="-182.75" font-family="Cascadia Code NF" font-size="10.00">HandleBase</text>
<text text-anchor="start" x="80" y="-166.5" font-family="Cascadia Code NF" font-size="10.00"> </text>
<text text-anchor="start" x="11" y="-150.5" font-family="Cascadia Code NF" font-size="10.00">+</text>
<text text-anchor="start" x="28" y="-150.5" font-family="Cascadia Code NF" font-size="10.00">IsEmpty()</text>
<text text-anchor="start" x="11" y="-134.5" font-family="Cascadia Code NF" font-size="10.00">+</text>
<text text-anchor="start" x="28" y="-134.5" font-family="Cascadia Code NF" font-size="10.00">Clear()</text>
<text text-anchor="start" x="11" y="-118.5" font-family="Cascadia Code NF" font-size="10.00">#</text>
<text text-anchor="start" x="28" y="-118.5" font-family="Cascadia Code NF" font-size="10.00">IndirectHandleBase()</text>
<text text-anchor="start" x="11" y="-102.5" font-family="Cascadia Code NF" font-size="10.00">#</text>
<text text-anchor="start" x="28" y="-102.5" font-family="Cascadia Code NF" font-size="10.00">IndirectHandleBase()</text>
<text text-anchor="start" x="11" y="-86.5" font-family="Cascadia Code NF" font-size="10.00">#</text>
<text text-anchor="start" x="28" y="-86.5" font-family="Cascadia Code NF" font-size="10.00">operator=()</text>
<text text-anchor="start" x="11" y="-70.5" font-family="Cascadia Code NF" font-size="10.00">#</text>
<text text-anchor="start" x="28" y="-70.5" font-family="Cascadia Code NF" font-size="10.00">IndirectHandleBase()</text>
<text text-anchor="start" x="11" y="-54.5" font-family="Cascadia Code NF" font-size="10.00">#</text>
<text text-anchor="start" x="28" y="-54.5" font-family="Cascadia Code NF" font-size="10.00">ptr()</text>
<text text-anchor="start" x="11" y="-38.5" font-family="Cascadia Code NF" font-size="10.00">#</text>
<text text-anchor="start" x="28" y="-38.5" font-family="Cascadia Code NF" font-size="10.00">slot()</text>
<text text-anchor="start" x="11" y="-22.5" font-family="Cascadia Code NF" font-size="10.00">#</text>
<text text-anchor="start" x="28" y="-22.5" font-family="Cascadia Code NF" font-size="10.00">slot()</text>
<text text-anchor="start" x="11" y="-6.5" font-family="Cascadia Code NF" font-size="10.00">#</text>
<text text-anchor="start" x="28" y="-6.5" font-family="Cascadia Code NF" font-size="10.00">value()</text>
<polygon fill="#666666" stroke="#666666" points="0,-178 0,-178 166,-178 166,-178 0,-178"/>
<polygon fill="#666666" stroke="#666666" points="0,-162 0,-162 166,-162 166,-162 0,-162"/>
<polygon fill="none" stroke="#666666" points="0,0 0,-209 166,-209 166,0 0,0"/>
</a>
</g>
</g>
<!-- Node2&#45;&gt;Node1 -->
<g id="edge1_Node000001_Node000002" class="edge">
<title>Node2&#45;&gt;Node1</title>
<g id="a_edge1_Node000001_Node000002"><a xlink:title=" ">
<path fill="none" stroke="#63b8ff" d="M177.19,-104.5C185.55,-104.5 193.93,-104.5 202.08,-104.5"/>
<polygon fill="none" stroke="#63b8ff" points="177.35,-101 167.35,-104.5 177.35,-108 177.35,-101"/>
</a>
</g>
</g>
</g>
</svg>
