<?xml version="1.0" encoding="UTF-8" standalone="no"?>
<!DOCTYPE svg PUBLIC "-//W3C//DTD SVG 1.1//EN"
 "http://www.w3.org/Graphics/SVG/1.1/DTD/svg11.dtd">
<!-- Generated by graphviz version 11.0.0 (20240428.1522)
 -->
<!-- Title: v8::internal::detail::IsRegisterArray&lt; EmptyRegisterArray &gt; Pages: 1 -->
<svg width="340pt" height="86pt"
 viewBox="0.00 0.00 340.00 86.00" xmlns="http://www.w3.org/2000/svg" xmlns:xlink="http://www.w3.org/1999/xlink">

<svg id="main" version="1.1" xmlns="http://www.w3.org/2000/svg" xmlns:xlink="http://www.w3.org/1999/xlink" xml:space="preserve" onload="init(evt)">
<style type="text/css"><![CDATA[
.node, .edge {opacity: 0.7;}
.node.selected, .edge.selected {opacity: 1;}
.edge:hover path { stroke: red; }
.edge:hover polygon { stroke: red; fill: red; }
svg#main { background-color: #111; }
]]></style>
<script type="application/ecmascript" xlink:href="../../svg.min.js"/>
<svg id="graph" class="graph">
<g id="graph0" class="graph" transform="scale(1 1) rotate(0) translate(4 82)">
<title>v8::internal::detail::IsRegisterArray&lt; EmptyRegisterArray &gt;</title>
<!-- Node1 -->
<g id="Node000001" class="node">
<title>Node1</title>
<g id="a_Node000001"><a xlink:title=" ">
<polygon fill="#999999" stroke="none" points="332,-78 130,-78 130,0 332,0 332,-78"/>
<text text-anchor="start" x="135" y="-64.5" font-family="Cascadia Code NF" font-size="10.00">v8::internal::detail</text>
<text text-anchor="start" x="135" y="-51.75" font-family="Cascadia Code NF" font-size="10.00">::IsRegisterArray&lt; EmptyRegister</text>
<text text-anchor="start" x="210" y="-39" font-family="Cascadia Code NF" font-size="10.00">Array &gt;</text>
<text text-anchor="start" x="228" y="-22.5" font-family="Cascadia Code NF" font-size="10.00"> </text>
<text text-anchor="start" x="228" y="-6.5" font-family="Cascadia Code NF" font-size="10.00"> </text>
<polygon fill="#666666" stroke="#666666" points="130,-34 130,-34 332,-34 332,-34 130,-34"/>
<polygon fill="#666666" stroke="#666666" points="130,-18 130,-18 332,-18 332,-18 130,-18"/>
<polygon fill="none" stroke="#666666" points="130,0 130,-78 332,-78 332,0 130,0"/>
</a>
</g>
</g>
<!-- Node2 -->
<g id="Node000002" class="node">
<title>Node2</title>
<g id="a_Node000002"><a xlink:title=" ">
<polygon fill="white" stroke="none" points="94,-65 0,-65 0,-13 94,-13 94,-65"/>
<text text-anchor="start" x="5" y="-51.5" font-family="Cascadia Code NF" font-size="10.00">std::true_type</text>
<text text-anchor="start" x="44" y="-35.5" font-family="Cascadia Code NF" font-size="10.00"> </text>
<text text-anchor="start" x="44" y="-19.5" font-family="Cascadia Code NF" font-size="10.00"> </text>
<polygon fill="#bfbfbf" stroke="#bfbfbf" points="0,-47 0,-47 94,-47 94,-47 0,-47"/>
<polygon fill="#bfbfbf" stroke="#bfbfbf" points="0,-31 0,-31 94,-31 94,-31 0,-31"/>
<polygon fill="none" stroke="#bfbfbf" points="0,-13 0,-65 94,-65 94,-13 0,-13"/>
</a>
</g>
</g>
<!-- Node2&#45;&gt;Node1 -->
<g id="edge1_Node000001_Node000002" class="edge">
<title>Node2&#45;&gt;Node1</title>
<g id="a_edge1_Node000001_Node000002"><a xlink:title=" ">
<path fill="none" stroke="#63b8ff" d="M105.27,-39C113.23,-39 121.6,-39 130.07,-39"/>
<polygon fill="none" stroke="#63b8ff" points="105.44,-35.5 95.44,-39 105.44,-42.5 105.44,-35.5"/>
</a>
</g>
</g>
</g>
</svg>
</svg>

<style type='text/css'>
<![CDATA[
[data-mouse-over-selected='false'] { opacity: 0.7; }
[data-mouse-over-selected='true']  { opacity: 1.0; }
]]>
</style>
<script type="application/ecmascript"><![CDATA[
document.addEventListener('DOMContentLoaded', (event) => {
  highlightEdges();
  highlightAdjacentNodes();
});
]]></script>
</svg>
