<?xml version="1.0" encoding="UTF-8" standalone="no"?>
<!DOCTYPE svg PUBLIC "-//W3C//DTD SVG 1.1//EN"
 "http://www.w3.org/Graphics/SVG/1.1/DTD/svg11.dtd">
<!-- Generated by graphviz version 11.0.0 (20240428.1522)
 -->
<!-- Title: v8::internal::JavaScriptFrame Pages: 1 -->
<svg width="1262pt" height="686pt"
 viewBox="0.00 0.00 1262.00 685.50" xmlns="http://www.w3.org/2000/svg" xmlns:xlink="http://www.w3.org/1999/xlink">
<g id="graph0" class="graph" transform="scale(1 1) rotate(0) translate(4 681.5)">
<title>v8::internal::JavaScriptFrame</title>
<!-- Node1 -->
<g id="Node000001" class="node">
<title>Node1</title>
<g id="a_Node000001"><a xlink:title=" ">
<polygon fill="#999999" stroke="none" points="810,-571 648,-571 648,-128 810,-128 810,-571"/>
<text text-anchor="start" x="657" y="-557.5" font-family="Cascadia Code NF" font-size="10.00">v8::internal::JavaScript</text>
<text text-anchor="start" x="714" y="-544.75" font-family="Cascadia Code NF" font-size="10.00">Frame</text>
<text text-anchor="start" x="726" y="-528.5" font-family="Cascadia Code NF" font-size="10.00"> </text>
<text text-anchor="start" x="652" y="-512.5" font-family="Cascadia Code NF" font-size="10.00">+</text>
<text text-anchor="start" x="662" y="-512.5" font-family="Cascadia Code NF" font-size="10.00">type()</text>
<text text-anchor="start" x="652" y="-496.5" font-family="Cascadia Code NF" font-size="10.00">+</text>
<text text-anchor="start" x="662" y="-496.5" font-family="Cascadia Code NF" font-size="10.00">function()</text>
<text text-anchor="start" x="652" y="-480.5" font-family="Cascadia Code NF" font-size="10.00">+</text>
<text text-anchor="start" x="662" y="-480.5" font-family="Cascadia Code NF" font-size="10.00">unchecked_function()</text>
<text text-anchor="start" x="652" y="-464.5" font-family="Cascadia Code NF" font-size="10.00">+</text>
<text text-anchor="start" x="662" y="-464.5" font-family="Cascadia Code NF" font-size="10.00">script()</text>
<text text-anchor="start" x="652" y="-448.5" font-family="Cascadia Code NF" font-size="10.00">+</text>
<text text-anchor="start" x="662" y="-448.5" font-family="Cascadia Code NF" font-size="10.00">context()</text>
<text text-anchor="start" x="652" y="-432.5" font-family="Cascadia Code NF" font-size="10.00">+</text>
<text text-anchor="start" x="662" y="-432.5" font-family="Cascadia Code NF" font-size="10.00">GetActualArgumentCount()</text>
<text text-anchor="start" x="652" y="-416.5" font-family="Cascadia Code NF" font-size="10.00">+</text>
<text text-anchor="start" x="662" y="-416.5" font-family="Cascadia Code NF" font-size="10.00">set_receiver()</text>
<text text-anchor="start" x="652" y="-400.5" font-family="Cascadia Code NF" font-size="10.00">+</text>
<text text-anchor="start" x="662" y="-400.5" font-family="Cascadia Code NF" font-size="10.00">SetParameterValue()</text>
<text text-anchor="start" x="652" y="-384.5" font-family="Cascadia Code NF" font-size="10.00">+</text>
<text text-anchor="start" x="662" y="-384.5" font-family="Cascadia Code NF" font-size="10.00">IsConstructor()</text>
<text text-anchor="start" x="652" y="-368.5" font-family="Cascadia Code NF" font-size="10.00">+</text>
<text text-anchor="start" x="662" y="-368.5" font-family="Cascadia Code NF" font-size="10.00">Iterate()</text>
<text text-anchor="start" x="652" y="-352.5" font-family="Cascadia Code NF" font-size="10.00">+</text>
<text text-anchor="start" x="662" y="-352.5" font-family="Cascadia Code NF" font-size="10.00">Print()</text>
<text text-anchor="start" x="652" y="-336.5" font-family="Cascadia Code NF" font-size="10.00">+</text>
<text text-anchor="start" x="662" y="-336.5" font-family="Cascadia Code NF" font-size="10.00">GetFunctions()</text>
<text text-anchor="start" x="652" y="-320.5" font-family="Cascadia Code NF" font-size="10.00">+</text>
<text text-anchor="start" x="662" y="-320.5" font-family="Cascadia Code NF" font-size="10.00">GetFunctions()</text>
<text text-anchor="start" x="652" y="-304.5" font-family="Cascadia Code NF" font-size="10.00">+</text>
<text text-anchor="start" x="662" y="-304.5" font-family="Cascadia Code NF" font-size="10.00">fp_register()</text>
<text text-anchor="start" x="652" y="-288.5" font-family="Cascadia Code NF" font-size="10.00">+</text>
<text text-anchor="start" x="662" y="-288.5" font-family="Cascadia Code NF" font-size="10.00">context_register()</text>
<text text-anchor="start" x="652" y="-272.5" font-family="Cascadia Code NF" font-size="10.00">+</text>
<text text-anchor="start" x="662" y="-272.5" font-family="Cascadia Code NF" font-size="10.00">constant_pool_pointer</text>
<text text-anchor="start" x="662" y="-259.75" font-family="Cascadia Code NF" font-size="10.00">_register()</text>
<text text-anchor="start" x="652" y="-243.5" font-family="Cascadia Code NF" font-size="10.00">+</text>
<text text-anchor="start" x="662" y="-243.5" font-family="Cascadia Code NF" font-size="10.00">cast()</text>
<text text-anchor="start" x="652" y="-227.5" font-family="Cascadia Code NF" font-size="10.00">+</text>
<text text-anchor="start" x="662" y="-227.5" font-family="Cascadia Code NF" font-size="10.00">PrintFunctionAndOffset()</text>
<text text-anchor="start" x="652" y="-211.5" font-family="Cascadia Code NF" font-size="10.00">+</text>
<text text-anchor="start" x="662" y="-211.5" font-family="Cascadia Code NF" font-size="10.00">PrintTop()</text>
<text text-anchor="start" x="652" y="-195.5" font-family="Cascadia Code NF" font-size="10.00">+</text>
<text text-anchor="start" x="662" y="-195.5" font-family="Cascadia Code NF" font-size="10.00">CollectFunctionAndOffset</text>
<text text-anchor="start" x="662" y="-182.75" font-family="Cascadia Code NF" font-size="10.00">ForICStats()</text>
<text text-anchor="start" x="652" y="-166.5" font-family="Cascadia Code NF" font-size="10.00">#</text>
<text text-anchor="start" x="662" y="-166.5" font-family="Cascadia Code NF" font-size="10.00">JavaScriptFrame()</text>
<text text-anchor="start" x="652" y="-150.5" font-family="Cascadia Code NF" font-size="10.00">#</text>
<text text-anchor="start" x="662" y="-150.5" font-family="Cascadia Code NF" font-size="10.00">GetCallerStackPointer()</text>
<text text-anchor="start" x="652" y="-134.5" font-family="Cascadia Code NF" font-size="10.00">#</text>
<text text-anchor="start" x="662" y="-134.5" font-family="Cascadia Code NF" font-size="10.00">PrintFrameKind()</text>
<polygon fill="#666666" stroke="#666666" points="648,-540 648,-540 810,-540 810,-540 648,-540"/>
<polygon fill="#666666" stroke="#666666" points="648,-524 648,-524 810,-524 810,-524 648,-524"/>
<polygon fill="none" stroke="#666666" points="648,-128 648,-571 810,-571 810,-128 648,-128"/>
</a>
</g>
</g>
<!-- Node5 -->
<g id="Node000005" class="node">
<title>Node5</title>
<g id="a_Node000005"><a xlink:href="../../de/d9f/classv8_1_1internal_1_1OptimizedFrame.html" target="_top" xlink:title=" ">
<polygon fill="white" stroke="none" points="1038,-535 846,-535 846,-374 1038,-374 1038,-535"/>
<text text-anchor="start" x="858" y="-521.5" font-family="Cascadia Code NF" font-size="10.00">v8::internal::OptimizedFrame</text>
<text text-anchor="start" x="939" y="-505.5" font-family="Cascadia Code NF" font-size="10.00"> </text>
<text text-anchor="start" x="850" y="-489.5" font-family="Cascadia Code NF" font-size="10.00">+</text>
<text text-anchor="start" x="860" y="-489.5" font-family="Cascadia Code NF" font-size="10.00">GetFunctions()</text>
<text text-anchor="start" x="850" y="-473.5" font-family="Cascadia Code NF" font-size="10.00">+</text>
<text text-anchor="start" x="860" y="-473.5" font-family="Cascadia Code NF" font-size="10.00">Summarize()</text>
<text text-anchor="start" x="850" y="-457.5" font-family="Cascadia Code NF" font-size="10.00">+</text>
<text text-anchor="start" x="860" y="-457.5" font-family="Cascadia Code NF" font-size="10.00">GetDeoptimizationData()</text>
<text text-anchor="start" x="850" y="-441.5" font-family="Cascadia Code NF" font-size="10.00">+</text>
<text text-anchor="start" x="860" y="-441.5" font-family="Cascadia Code NF" font-size="10.00">LookupExceptionHandlerIn</text>
<text text-anchor="start" x="860" y="-428.75" font-family="Cascadia Code NF" font-size="10.00">Table()</text>
<text text-anchor="start" x="850" y="-412.5" font-family="Cascadia Code NF" font-size="10.00">+</text>
<text text-anchor="start" x="860" y="-412.5" font-family="Cascadia Code NF" font-size="10.00">FindReturnPCForTrampoline()</text>
<text text-anchor="start" x="850" y="-396.5" font-family="Cascadia Code NF" font-size="10.00">+</text>
<text text-anchor="start" x="860" y="-396.5" font-family="Cascadia Code NF" font-size="10.00">StackSlotOffsetRelativeToFp()</text>
<text text-anchor="start" x="850" y="-380.5" font-family="Cascadia Code NF" font-size="10.00">#</text>
<text text-anchor="start" x="860" y="-380.5" font-family="Cascadia Code NF" font-size="10.00">OptimizedFrame()</text>
<polygon fill="#bfbfbf" stroke="#bfbfbf" points="846,-517 846,-517 1038,-517 1038,-517 846,-517"/>
<polygon fill="#bfbfbf" stroke="#bfbfbf" points="846,-501 846,-501 1038,-501 1038,-501 846,-501"/>
<polygon fill="none" stroke="#bfbfbf" points="846,-374 846,-535 1038,-535 1038,-374 846,-374"/>
</a>
</g>
</g>
<!-- Node1&#45;&gt;Node5 -->
<g id="edge4_Node000001_Node000005" class="edge">
<title>Node1&#45;&gt;Node5</title>
<g id="a_edge4_Node000001_Node000005"><a xlink:title=" ">
<path fill="none" stroke="#63b8ff" d="M819.91,-394.24C828.62,-398.57 837.47,-402.98 846.22,-407.33"/>
<polygon fill="none" stroke="#63b8ff" points="821.64,-391.19 811.13,-389.87 818.52,-397.46 821.64,-391.19"/>
</a>
</g>
</g>
<!-- Node8 -->
<g id="Node000008" class="node">
<title>Node8</title>
<g id="a_Node000008"><a xlink:href="../../d9/d13/classv8_1_1internal_1_1UnoptimizedFrame.html" target="_top" xlink:title=" ">
<polygon fill="white" stroke="none" points="1026,-355.5 858,-355.5 858,-133.5 1026,-133.5 1026,-355.5"/>
<text text-anchor="start" x="867" y="-342" font-family="Cascadia Code NF" font-size="10.00">v8::internal::Unoptimized</text>
<text text-anchor="start" x="927" y="-329.25" font-family="Cascadia Code NF" font-size="10.00">Frame</text>
<text text-anchor="start" x="939" y="-313" font-family="Cascadia Code NF" font-size="10.00"> </text>
<text text-anchor="start" x="862" y="-297" font-family="Cascadia Code NF" font-size="10.00">+</text>
<text text-anchor="start" x="872" y="-297" font-family="Cascadia Code NF" font-size="10.00">position()</text>
<text text-anchor="start" x="862" y="-281" font-family="Cascadia Code NF" font-size="10.00">+</text>
<text text-anchor="start" x="872" y="-281" font-family="Cascadia Code NF" font-size="10.00">LookupExceptionHandlerIn</text>
<text text-anchor="start" x="872" y="-268.25" font-family="Cascadia Code NF" font-size="10.00">Table()</text>
<text text-anchor="start" x="862" y="-252" font-family="Cascadia Code NF" font-size="10.00">+</text>
<text text-anchor="start" x="872" y="-252" font-family="Cascadia Code NF" font-size="10.00">GetBytecodeOffset()</text>
<text text-anchor="start" x="862" y="-236" font-family="Cascadia Code NF" font-size="10.00">+</text>
<text text-anchor="start" x="872" y="-236" font-family="Cascadia Code NF" font-size="10.00">GetBytecodeArray()</text>
<text text-anchor="start" x="862" y="-220" font-family="Cascadia Code NF" font-size="10.00">+</text>
<text text-anchor="start" x="872" y="-220" font-family="Cascadia Code NF" font-size="10.00">ReadInterpreterRegister()</text>
<text text-anchor="start" x="862" y="-204" font-family="Cascadia Code NF" font-size="10.00">+</text>
<text text-anchor="start" x="872" y="-204" font-family="Cascadia Code NF" font-size="10.00">SetFeedbackVector()</text>
<text text-anchor="start" x="862" y="-188" font-family="Cascadia Code NF" font-size="10.00">+</text>
<text text-anchor="start" x="872" y="-188" font-family="Cascadia Code NF" font-size="10.00">Summarize()</text>
<text text-anchor="start" x="862" y="-172" font-family="Cascadia Code NF" font-size="10.00">+</text>
<text text-anchor="start" x="872" y="-172" font-family="Cascadia Code NF" font-size="10.00">cast()</text>
<text text-anchor="start" x="862" y="-156" font-family="Cascadia Code NF" font-size="10.00">#</text>
<text text-anchor="start" x="872" y="-156" font-family="Cascadia Code NF" font-size="10.00">UnoptimizedFrame()</text>
<text text-anchor="start" x="862" y="-140" font-family="Cascadia Code NF" font-size="10.00">#</text>
<text text-anchor="start" x="872" y="-140" font-family="Cascadia Code NF" font-size="10.00">GetExpressionAddress()</text>
<polygon fill="#bfbfbf" stroke="#bfbfbf" points="858,-324.5 858,-324.5 1026,-324.5 1026,-324.5 858,-324.5"/>
<polygon fill="#bfbfbf" stroke="#bfbfbf" points="858,-308.5 858,-308.5 1026,-308.5 1026,-308.5 858,-308.5"/>
<polygon fill="none" stroke="#bfbfbf" points="858,-133.5 858,-355.5 1026,-355.5 1026,-133.5 858,-133.5"/>
</a>
</g>
</g>
<!-- Node1&#45;&gt;Node8 -->
<g id="edge7_Node000001_Node000008" class="edge">
<title>Node1&#45;&gt;Node8</title>
<g id="a_edge7_Node000001_Node000008"><a xlink:title=" ">
<path fill="none" stroke="#63b8ff" d="M819.91,-304.76C832.65,-298.42 845.71,-291.92 858.31,-285.65"/>
<polygon fill="none" stroke="#63b8ff" points="818.52,-301.54 811.13,-309.13 821.64,-307.81 818.52,-301.54"/>
</a>
</g>
</g>
<!-- Node2 -->
<g id="Node000002" class="node">
<title>Node2</title>
<g id="a_Node000002"><a xlink:href="../../d0/d7c/classv8_1_1internal_1_1CommonFrameWithJSLinkage.html" target="_top" xlink:title=" ">
<polygon fill="white" stroke="none" points="612,-484.5 438,-484.5 438,-214.5 612,-214.5 612,-484.5"/>
<text text-anchor="start" x="450" y="-471" font-family="Cascadia Code NF" font-size="10.00">v8::internal::CommonFrame</text>
<text text-anchor="start" x="486" y="-458.25" font-family="Cascadia Code NF" font-size="10.00">WithJSLinkage</text>
<text text-anchor="start" x="522" y="-442" font-family="Cascadia Code NF" font-size="10.00"> </text>
<text text-anchor="start" x="442" y="-426" font-family="Cascadia Code NF" font-size="10.00">+</text>
<text text-anchor="start" x="452" y="-426" font-family="Cascadia Code NF" font-size="10.00">function()</text>
<text text-anchor="start" x="442" y="-410" font-family="Cascadia Code NF" font-size="10.00">+</text>
<text text-anchor="start" x="452" y="-410" font-family="Cascadia Code NF" font-size="10.00">receiver()</text>
<text text-anchor="start" x="442" y="-394" font-family="Cascadia Code NF" font-size="10.00">+</text>
<text text-anchor="start" x="452" y="-394" font-family="Cascadia Code NF" font-size="10.00">GetParameter()</text>
<text text-anchor="start" x="442" y="-378" font-family="Cascadia Code NF" font-size="10.00">+</text>
<text text-anchor="start" x="452" y="-378" font-family="Cascadia Code NF" font-size="10.00">ComputeParametersCount()</text>
<text text-anchor="start" x="442" y="-362" font-family="Cascadia Code NF" font-size="10.00">+</text>
<text text-anchor="start" x="452" y="-362" font-family="Cascadia Code NF" font-size="10.00">GetParameters()</text>
<text text-anchor="start" x="442" y="-346" font-family="Cascadia Code NF" font-size="10.00">+</text>
<text text-anchor="start" x="452" y="-346" font-family="Cascadia Code NF" font-size="10.00">GetActualArgumentCount()</text>
<text text-anchor="start" x="442" y="-330" font-family="Cascadia Code NF" font-size="10.00">+</text>
<text text-anchor="start" x="452" y="-330" font-family="Cascadia Code NF" font-size="10.00">unchecked_code()</text>
<text text-anchor="start" x="442" y="-314" font-family="Cascadia Code NF" font-size="10.00">+</text>
<text text-anchor="start" x="452" y="-314" font-family="Cascadia Code NF" font-size="10.00">LookupExceptionHandlerIn</text>
<text text-anchor="start" x="452" y="-301.25" font-family="Cascadia Code NF" font-size="10.00">Table()</text>
<text text-anchor="start" x="442" y="-285" font-family="Cascadia Code NF" font-size="10.00">+</text>
<text text-anchor="start" x="452" y="-285" font-family="Cascadia Code NF" font-size="10.00">IsConstructor()</text>
<text text-anchor="start" x="442" y="-269" font-family="Cascadia Code NF" font-size="10.00">+</text>
<text text-anchor="start" x="452" y="-269" font-family="Cascadia Code NF" font-size="10.00">Summarize()</text>
<text text-anchor="start" x="442" y="-253" font-family="Cascadia Code NF" font-size="10.00">#</text>
<text text-anchor="start" x="452" y="-253" font-family="Cascadia Code NF" font-size="10.00">CommonFrameWithJSLinkage()</text>
<text text-anchor="start" x="442" y="-237" font-family="Cascadia Code NF" font-size="10.00">#</text>
<text text-anchor="start" x="452" y="-237" font-family="Cascadia Code NF" font-size="10.00">GetParameterSlot()</text>
<text text-anchor="start" x="442" y="-221" font-family="Cascadia Code NF" font-size="10.00">#</text>
<text text-anchor="start" x="452" y="-221" font-family="Cascadia Code NF" font-size="10.00">IsConstructFrame()</text>
<polygon fill="#bfbfbf" stroke="#bfbfbf" points="438,-453.5 438,-453.5 612,-453.5 612,-453.5 438,-453.5"/>
<polygon fill="#bfbfbf" stroke="#bfbfbf" points="438,-437.5 438,-437.5 612,-437.5 612,-437.5 438,-437.5"/>
<polygon fill="none" stroke="#bfbfbf" points="438,-214.5 438,-484.5 612,-484.5 612,-214.5 438,-214.5"/>
</a>
</g>
</g>
<!-- Node2&#45;&gt;Node1 -->
<g id="edge1_Node000001_Node000002" class="edge">
<title>Node2&#45;&gt;Node1</title>
<g id="a_edge1_Node000001_Node000002"><a xlink:title=" ">
<path fill="none" stroke="#63b8ff" d="M623.3,-349.5C631.64,-349.5 640.02,-349.5 648.21,-349.5"/>
<polygon fill="none" stroke="#63b8ff" points="623.47,-346 613.47,-349.5 623.47,-353 623.47,-346"/>
</a>
</g>
</g>
<!-- Node3 -->
<g id="Node000003" class="node">
<title>Node3</title>
<g id="a_Node000003"><a xlink:href="../../d1/d1f/classv8_1_1internal_1_1CommonFrame.html" target="_top" xlink:title=" ">
<polygon fill="white" stroke="none" points="402,-502 234,-502 234,-197 402,-197 402,-502"/>
<text text-anchor="start" x="243" y="-488.5" font-family="Cascadia Code NF" font-size="10.00">v8::internal::CommonFrame</text>
<text text-anchor="start" x="315" y="-472.5" font-family="Cascadia Code NF" font-size="10.00"> </text>
<text text-anchor="start" x="238" y="-456.5" font-family="Cascadia Code NF" font-size="10.00">+</text>
<text text-anchor="start" x="248" y="-456.5" font-family="Cascadia Code NF" font-size="10.00">context()</text>
<text text-anchor="start" x="238" y="-440.5" font-family="Cascadia Code NF" font-size="10.00">+</text>
<text text-anchor="start" x="248" y="-440.5" font-family="Cascadia Code NF" font-size="10.00">position()</text>
<text text-anchor="start" x="238" y="-424.5" font-family="Cascadia Code NF" font-size="10.00">+</text>
<text text-anchor="start" x="248" y="-424.5" font-family="Cascadia Code NF" font-size="10.00">GetExpression()</text>
<text text-anchor="start" x="238" y="-408.5" font-family="Cascadia Code NF" font-size="10.00">+</text>
<text text-anchor="start" x="248" y="-408.5" font-family="Cascadia Code NF" font-size="10.00">SetExpression()</text>
<text text-anchor="start" x="238" y="-392.5" font-family="Cascadia Code NF" font-size="10.00">+</text>
<text text-anchor="start" x="248" y="-392.5" font-family="Cascadia Code NF" font-size="10.00">ComputeExpressionsCount()</text>
<text text-anchor="start" x="238" y="-376.5" font-family="Cascadia Code NF" font-size="10.00">+</text>
<text text-anchor="start" x="248" y="-376.5" font-family="Cascadia Code NF" font-size="10.00">GetCallerStackPointer()</text>
<text text-anchor="start" x="238" y="-360.5" font-family="Cascadia Code NF" font-size="10.00">+</text>
<text text-anchor="start" x="248" y="-360.5" font-family="Cascadia Code NF" font-size="10.00">Summarize()</text>
<text text-anchor="start" x="238" y="-344.5" font-family="Cascadia Code NF" font-size="10.00">+</text>
<text text-anchor="start" x="248" y="-344.5" font-family="Cascadia Code NF" font-size="10.00">cast()</text>
<text text-anchor="start" x="238" y="-328.5" font-family="Cascadia Code NF" font-size="10.00">#</text>
<text text-anchor="start" x="248" y="-328.5" font-family="Cascadia Code NF" font-size="10.00">CommonFrame()</text>
<text text-anchor="start" x="238" y="-312.5" font-family="Cascadia Code NF" font-size="10.00">#</text>
<text text-anchor="start" x="248" y="-312.5" font-family="Cascadia Code NF" font-size="10.00">HasTaggedOutgoingParams()</text>
<text text-anchor="start" x="238" y="-296.5" font-family="Cascadia Code NF" font-size="10.00">#</text>
<text text-anchor="start" x="248" y="-296.5" font-family="Cascadia Code NF" font-size="10.00">ComputeCallerState()</text>
<text text-anchor="start" x="238" y="-280.5" font-family="Cascadia Code NF" font-size="10.00">#</text>
<text text-anchor="start" x="248" y="-280.5" font-family="Cascadia Code NF" font-size="10.00">caller_fp()</text>
<text text-anchor="start" x="238" y="-264.5" font-family="Cascadia Code NF" font-size="10.00">#</text>
<text text-anchor="start" x="248" y="-264.5" font-family="Cascadia Code NF" font-size="10.00">caller_pc()</text>
<text text-anchor="start" x="238" y="-248.5" font-family="Cascadia Code NF" font-size="10.00">#</text>
<text text-anchor="start" x="248" y="-248.5" font-family="Cascadia Code NF" font-size="10.00">IterateExpressions()</text>
<text text-anchor="start" x="238" y="-232.5" font-family="Cascadia Code NF" font-size="10.00">#</text>
<text text-anchor="start" x="248" y="-232.5" font-family="Cascadia Code NF" font-size="10.00">IterateTurbofanOptimized</text>
<text text-anchor="start" x="248" y="-219.75" font-family="Cascadia Code NF" font-size="10.00">Frame()</text>
<text text-anchor="start" x="238" y="-203.5" font-family="Cascadia Code NF" font-size="10.00">#</text>
<text text-anchor="start" x="248" y="-203.5" font-family="Cascadia Code NF" font-size="10.00">GetExpressionAddress()</text>
<polygon fill="#bfbfbf" stroke="#bfbfbf" points="234,-484 234,-484 402,-484 402,-484 234,-484"/>
<polygon fill="#bfbfbf" stroke="#bfbfbf" points="234,-468 234,-468 402,-468 402,-468 234,-468"/>
<polygon fill="none" stroke="#bfbfbf" points="234,-197 234,-502 402,-502 402,-197 234,-197"/>
</a>
</g>
</g>
<!-- Node3&#45;&gt;Node2 -->
<g id="edge2_Node000002_Node000003" class="edge">
<title>Node3&#45;&gt;Node2</title>
<g id="a_edge2_Node000002_Node000003"><a xlink:title=" ">
<path fill="none" stroke="#63b8ff" d="M413.13,-349.5C421.5,-349.5 429.94,-349.5 438.23,-349.5"/>
<polygon fill="none" stroke="#63b8ff" points="413.3,-346 403.3,-349.5 413.3,-353 413.3,-346"/>
</a>
</g>
</g>
<!-- Node4 -->
<g id="Node000004" class="node">
<title>Node4</title>
<g id="a_Node000004"><a xlink:href="../../d0/d2d/classv8_1_1internal_1_1StackFrame.html" target="_top" xlink:title=" ">
<polygon fill="white" stroke="none" points="198,-550 0,-550 0,-149 198,-149 198,-550"/>
<text text-anchor="start" x="27" y="-536.5" font-family="Cascadia Code NF" font-size="10.00">v8::internal::StackFrame</text>
<text text-anchor="start" x="4" y="-520.5" font-family="Cascadia Code NF" font-size="10.00">#</text>
<text text-anchor="start" x="14" y="-520.5" font-family="Cascadia Code NF" font-size="10.00">iterator_</text>
<text text-anchor="start" x="4" y="-504.5" font-family="Cascadia Code NF" font-size="10.00">+</text>
<text text-anchor="start" x="14" y="-504.5" font-family="Cascadia Code NF" font-size="10.00">StackFrame()</text>
<text text-anchor="start" x="4" y="-488.5" font-family="Cascadia Code NF" font-size="10.00">+</text>
<text text-anchor="start" x="14" y="-488.5" font-family="Cascadia Code NF" font-size="10.00">is_entry()</text>
<text text-anchor="start" x="4" y="-472.5" font-family="Cascadia Code NF" font-size="10.00">+</text>
<text text-anchor="start" x="14" y="-472.5" font-family="Cascadia Code NF" font-size="10.00">is_construct_entry()</text>
<text text-anchor="start" x="4" y="-456.5" font-family="Cascadia Code NF" font-size="10.00">+</text>
<text text-anchor="start" x="14" y="-456.5" font-family="Cascadia Code NF" font-size="10.00">is_exit()</text>
<text text-anchor="start" x="4" y="-440.5" font-family="Cascadia Code NF" font-size="10.00">+</text>
<text text-anchor="start" x="14" y="-440.5" font-family="Cascadia Code NF" font-size="10.00">is_optimized()</text>
<text text-anchor="start" x="4" y="-424.5" font-family="Cascadia Code NF" font-size="10.00">+</text>
<text text-anchor="start" x="14" y="-424.5" font-family="Cascadia Code NF" font-size="10.00">is_unoptimized()</text>
<text text-anchor="start" x="4" y="-408.5" font-family="Cascadia Code NF" font-size="10.00">+</text>
<text text-anchor="start" x="14" y="-408.5" font-family="Cascadia Code NF" font-size="10.00">is_interpreted()</text>
<text text-anchor="start" x="4" y="-392.5" font-family="Cascadia Code NF" font-size="10.00">+</text>
<text text-anchor="start" x="14" y="-392.5" font-family="Cascadia Code NF" font-size="10.00">is_baseline()</text>
<text text-anchor="start" x="4" y="-376.5" font-family="Cascadia Code NF" font-size="10.00">+</text>
<text text-anchor="start" x="14" y="-376.5" font-family="Cascadia Code NF" font-size="10.00">is_maglev()</text>
<text text-anchor="start" x="4" y="-360.5" font-family="Cascadia Code NF" font-size="10.00">+</text>
<text text-anchor="start" x="14" y="-360.5" font-family="Cascadia Code NF" font-size="10.00">is_turbofan()</text>
<text text-anchor="start" x="14" y="-344.5" font-family="Cascadia Code NF" font-size="10.00">and 35 more...</text>
<text text-anchor="start" x="4" y="-328.5" font-family="Cascadia Code NF" font-size="10.00">+</text>
<text text-anchor="start" x="14" y="-328.5" font-family="Cascadia Code NF" font-size="10.00">TypeToMarker()</text>
<text text-anchor="start" x="4" y="-312.5" font-family="Cascadia Code NF" font-size="10.00">+</text>
<text text-anchor="start" x="14" y="-312.5" font-family="Cascadia Code NF" font-size="10.00">MarkerToType()</text>
<text text-anchor="start" x="4" y="-296.5" font-family="Cascadia Code NF" font-size="10.00">+</text>
<text text-anchor="start" x="14" y="-296.5" font-family="Cascadia Code NF" font-size="10.00">IsTypeMarker()</text>
<text text-anchor="start" x="4" y="-280.5" font-family="Cascadia Code NF" font-size="10.00">+</text>
<text text-anchor="start" x="14" y="-280.5" font-family="Cascadia Code NF" font-size="10.00">IsJavaScript()</text>
<text text-anchor="start" x="4" y="-264.5" font-family="Cascadia Code NF" font-size="10.00">+</text>
<text text-anchor="start" x="14" y="-264.5" font-family="Cascadia Code NF" font-size="10.00">unauthenticated_pc()</text>
<text text-anchor="start" x="4" y="-248.5" font-family="Cascadia Code NF" font-size="10.00">+</text>
<text text-anchor="start" x="14" y="-248.5" font-family="Cascadia Code NF" font-size="10.00">maybe_unauthenticated_pc()</text>
<text text-anchor="start" x="4" y="-232.5" font-family="Cascadia Code NF" font-size="10.00">+</text>
<text text-anchor="start" x="14" y="-232.5" font-family="Cascadia Code NF" font-size="10.00">SetReturnAddressLocation</text>
<text text-anchor="start" x="14" y="-219.75" font-family="Cascadia Code NF" font-size="10.00">Resolver()</text>
<text text-anchor="start" x="4" y="-203.5" font-family="Cascadia Code NF" font-size="10.00">+</text>
<text text-anchor="start" x="14" y="-203.5" font-family="Cascadia Code NF" font-size="10.00">ReadPC()</text>
<text text-anchor="start" x="4" y="-187.5" font-family="Cascadia Code NF" font-size="10.00">+</text>
<text text-anchor="start" x="14" y="-187.5" font-family="Cascadia Code NF" font-size="10.00">ResolveReturnAddressLocation()</text>
<text text-anchor="start" x="4" y="-171.5" font-family="Cascadia Code NF" font-size="10.00">#</text>
<text text-anchor="start" x="14" y="-171.5" font-family="Cascadia Code NF" font-size="10.00">StackFrame()</text>
<text text-anchor="start" x="4" y="-155.5" font-family="Cascadia Code NF" font-size="10.00">#</text>
<text text-anchor="start" x="14" y="-155.5" font-family="Cascadia Code NF" font-size="10.00">GetCallerStackPointer()</text>
<polygon fill="#bfbfbf" stroke="#bfbfbf" points="0,-532 0,-532 198,-532 198,-532 0,-532"/>
<polygon fill="#bfbfbf" stroke="#bfbfbf" points="0,-516 0,-516 12,-516 12,-516 0,-516"/>
<polygon fill="#bfbfbf" stroke="#bfbfbf" points="12,-516 12,-516 198,-516 198,-516 12,-516"/>
<polygon fill="none" stroke="#bfbfbf" points="0,-149 0,-550 198,-550 198,-149 0,-149"/>
</a>
</g>
</g>
<!-- Node4&#45;&gt;Node3 -->
<g id="edge3_Node000003_Node000004" class="edge">
<title>Node4&#45;&gt;Node3</title>
<g id="a_edge3_Node000003_Node000004"><a xlink:title=" ">
<path fill="none" stroke="#63b8ff" d="M209.13,-349.5C217.52,-349.5 225.91,-349.5 234.09,-349.5"/>
<polygon fill="none" stroke="#63b8ff" points="209.22,-346 199.22,-349.5 209.22,-353 209.22,-346"/>
</a>
</g>
</g>
<!-- Node6 -->
<g id="Node000006" class="node">
<title>Node6</title>
<g id="a_Node000006"><a xlink:href="../../d7/dc2/classv8_1_1internal_1_1MaglevFrame.html" target="_top" xlink:title=" ">
<polygon fill="white" stroke="none" points="1254,-677.5 1074,-677.5 1074,-513.5 1254,-513.5 1254,-677.5"/>
<text text-anchor="start" x="1089" y="-664" font-family="Cascadia Code NF" font-size="10.00">v8::internal::MaglevFrame</text>
<text text-anchor="start" x="1161" y="-648" font-family="Cascadia Code NF" font-size="10.00"> </text>
<text text-anchor="start" x="1078" y="-632" font-family="Cascadia Code NF" font-size="10.00">+</text>
<text text-anchor="start" x="1088" y="-632" font-family="Cascadia Code NF" font-size="10.00">type()</text>
<text text-anchor="start" x="1078" y="-616" font-family="Cascadia Code NF" font-size="10.00">+</text>
<text text-anchor="start" x="1088" y="-616" font-family="Cascadia Code NF" font-size="10.00">Iterate()</text>
<text text-anchor="start" x="1078" y="-600" font-family="Cascadia Code NF" font-size="10.00">+</text>
<text text-anchor="start" x="1088" y="-600" font-family="Cascadia Code NF" font-size="10.00">FindReturnPCForTrampoline()</text>
<text text-anchor="start" x="1078" y="-584" font-family="Cascadia Code NF" font-size="10.00">+</text>
<text text-anchor="start" x="1088" y="-584" font-family="Cascadia Code NF" font-size="10.00">GetInnermostFunction()</text>
<text text-anchor="start" x="1078" y="-568" font-family="Cascadia Code NF" font-size="10.00">+</text>
<text text-anchor="start" x="1088" y="-568" font-family="Cascadia Code NF" font-size="10.00">GetBytecodeOffsetForOSR()</text>
<text text-anchor="start" x="1078" y="-552" font-family="Cascadia Code NF" font-size="10.00">+</text>
<text text-anchor="start" x="1088" y="-552" font-family="Cascadia Code NF" font-size="10.00">cast()</text>
<text text-anchor="start" x="1078" y="-536" font-family="Cascadia Code NF" font-size="10.00">+</text>
<text text-anchor="start" x="1088" y="-536" font-family="Cascadia Code NF" font-size="10.00">StackGuardFrameSize()</text>
<text text-anchor="start" x="1078" y="-520" font-family="Cascadia Code NF" font-size="10.00">#</text>
<text text-anchor="start" x="1088" y="-520" font-family="Cascadia Code NF" font-size="10.00">MaglevFrame()</text>
<polygon fill="#bfbfbf" stroke="#bfbfbf" points="1074,-659.5 1074,-659.5 1254,-659.5 1254,-659.5 1074,-659.5"/>
<polygon fill="#bfbfbf" stroke="#bfbfbf" points="1074,-643.5 1074,-643.5 1254,-643.5 1254,-643.5 1074,-643.5"/>
<polygon fill="none" stroke="#bfbfbf" points="1074,-513.5 1074,-677.5 1254,-677.5 1254,-513.5 1074,-513.5"/>
</a>
</g>
</g>
<!-- Node5&#45;&gt;Node6 -->
<g id="edge5_Node000005_Node000006" class="edge">
<title>Node5&#45;&gt;Node6</title>
<g id="a_edge5_Node000005_Node000006"><a xlink:title=" ">
<path fill="none" stroke="#63b8ff" d="M1047.58,-521.52C1056.52,-527.26 1065.52,-533.02 1074.33,-538.67"/>
<polygon fill="none" stroke="#63b8ff" points="1049.48,-518.59 1039.17,-516.14 1045.7,-524.48 1049.48,-518.59"/>
</a>
</g>
</g>
<!-- Node7 -->
<g id="Node000007" class="node">
<title>Node7</title>
<g id="a_Node000007"><a xlink:href="../../d9/d38/classv8_1_1internal_1_1TurbofanFrame.html" target="_top" xlink:title=" ">
<polygon fill="white" stroke="none" points="1254,-495.5 1074,-495.5 1074,-379.5 1254,-379.5 1254,-495.5"/>
<text text-anchor="start" x="1083" y="-482" font-family="Cascadia Code NF" font-size="10.00">v8::internal::TurbofanFrame</text>
<text text-anchor="start" x="1161" y="-466" font-family="Cascadia Code NF" font-size="10.00"> </text>
<text text-anchor="start" x="1078" y="-450" font-family="Cascadia Code NF" font-size="10.00">+</text>
<text text-anchor="start" x="1088" y="-450" font-family="Cascadia Code NF" font-size="10.00">type()</text>
<text text-anchor="start" x="1078" y="-434" font-family="Cascadia Code NF" font-size="10.00">+</text>
<text text-anchor="start" x="1088" y="-434" font-family="Cascadia Code NF" font-size="10.00">ComputeParametersCount()</text>
<text text-anchor="start" x="1078" y="-418" font-family="Cascadia Code NF" font-size="10.00">+</text>
<text text-anchor="start" x="1088" y="-418" font-family="Cascadia Code NF" font-size="10.00">Iterate()</text>
<text text-anchor="start" x="1078" y="-402" font-family="Cascadia Code NF" font-size="10.00">+</text>
<text text-anchor="start" x="1088" y="-402" font-family="Cascadia Code NF" font-size="10.00">FindReturnPCForTrampoline()</text>
<text text-anchor="start" x="1078" y="-386" font-family="Cascadia Code NF" font-size="10.00">#</text>
<text text-anchor="start" x="1088" y="-386" font-family="Cascadia Code NF" font-size="10.00">TurbofanFrame()</text>
<polygon fill="#bfbfbf" stroke="#bfbfbf" points="1074,-477.5 1074,-477.5 1254,-477.5 1254,-477.5 1074,-477.5"/>
<polygon fill="#bfbfbf" stroke="#bfbfbf" points="1074,-461.5 1074,-461.5 1254,-461.5 1254,-461.5 1074,-461.5"/>
<polygon fill="none" stroke="#bfbfbf" points="1074,-379.5 1074,-495.5 1254,-495.5 1254,-379.5 1074,-379.5"/>
</a>
</g>
</g>
<!-- Node5&#45;&gt;Node7 -->
<g id="edge6_Node000005_Node000007" class="edge">
<title>Node5&#45;&gt;Node7</title>
<g id="a_edge6_Node000005_Node000007"><a xlink:title=" ">
<path fill="none" stroke="#63b8ff" d="M1049.29,-446.29C1057.67,-445.64 1066.08,-444.99 1074.33,-444.35"/>
<polygon fill="none" stroke="#63b8ff" points="1049.11,-442.79 1039.41,-447.05 1049.65,-449.77 1049.11,-442.79"/>
</a>
</g>
</g>
<!-- Node9 -->
<g id="Node000009" class="node">
<title>Node9</title>
<g id="a_Node000009"><a xlink:href="../../dc/d92/classv8_1_1internal_1_1BaselineFrame.html" target="_top" xlink:title=" ">
<polygon fill="white" stroke="none" points="1250,-327.5 1078,-327.5 1078,-195.5 1250,-195.5 1250,-327.5"/>
<text text-anchor="start" x="1083" y="-314" font-family="Cascadia Code NF" font-size="10.00">v8::internal::BaselineFrame</text>
<text text-anchor="start" x="1161" y="-298" font-family="Cascadia Code NF" font-size="10.00"> </text>
<text text-anchor="start" x="1084.5" y="-282" font-family="Cascadia Code NF" font-size="10.00">+</text>
<text text-anchor="start" x="1097" y="-282" font-family="Cascadia Code NF" font-size="10.00">type()</text>
<text text-anchor="start" x="1084.5" y="-266" font-family="Cascadia Code NF" font-size="10.00">+</text>
<text text-anchor="start" x="1097" y="-266" font-family="Cascadia Code NF" font-size="10.00">GetBytecodeOffset()</text>
<text text-anchor="start" x="1084.5" y="-250" font-family="Cascadia Code NF" font-size="10.00">+</text>
<text text-anchor="start" x="1097" y="-250" font-family="Cascadia Code NF" font-size="10.00">GetPCForBytecodeOffset()</text>
<text text-anchor="start" x="1084.5" y="-234" font-family="Cascadia Code NF" font-size="10.00">+</text>
<text text-anchor="start" x="1097" y="-234" font-family="Cascadia Code NF" font-size="10.00">PatchContext()</text>
<text text-anchor="start" x="1084.5" y="-218" font-family="Cascadia Code NF" font-size="10.00">+</text>
<text text-anchor="start" x="1097" y="-218" font-family="Cascadia Code NF" font-size="10.00">cast()</text>
<text text-anchor="start" x="1084.5" y="-202" font-family="Cascadia Code NF" font-size="10.00">#</text>
<text text-anchor="start" x="1097" y="-202" font-family="Cascadia Code NF" font-size="10.00">BaselineFrame()</text>
<polygon fill="#bfbfbf" stroke="#bfbfbf" points="1078,-309.5 1078,-309.5 1250,-309.5 1250,-309.5 1078,-309.5"/>
<polygon fill="#bfbfbf" stroke="#bfbfbf" points="1078,-293.5 1078,-293.5 1250,-293.5 1250,-293.5 1078,-293.5"/>
<polygon fill="none" stroke="#bfbfbf" points="1078,-195.5 1078,-327.5 1250,-327.5 1250,-195.5 1078,-195.5"/>
</a>
</g>
</g>
<!-- Node8&#45;&gt;Node9 -->
<g id="edge8_Node000008_Node000009" class="edge">
<title>Node8&#45;&gt;Node9</title>
<g id="a_edge8_Node000008_Node000009"><a xlink:title=" ">
<path fill="none" stroke="#63b8ff" d="M1037.16,-251.78C1050.74,-252.83 1064.64,-253.9 1078.02,-254.93"/>
<polygon fill="none" stroke="#63b8ff" points="1037.61,-248.3 1027.37,-251.02 1037.07,-255.28 1037.61,-248.3"/>
</a>
</g>
</g>
<!-- Node10 -->
<g id="Node000010" class="node">
<title>Node10</title>
<g id="a_Node000010"><a xlink:href="../../d0/d4c/classv8_1_1internal_1_1InterpretedFrame.html" target="_top" xlink:title=" ">
<polygon fill="white" stroke="none" points="1244,-177 1084,-177 1084,0 1244,0 1244,-177"/>
<text text-anchor="start" x="1089" y="-163.5" font-family="Cascadia Code NF" font-size="10.00">v8::internal::Interpreted</text>
<text text-anchor="start" x="1149" y="-150.75" font-family="Cascadia Code NF" font-size="10.00">Frame</text>
<text text-anchor="start" x="1161" y="-134.5" font-family="Cascadia Code NF" font-size="10.00"> </text>
<text text-anchor="start" x="1092" y="-118.5" font-family="Cascadia Code NF" font-size="10.00">+</text>
<text text-anchor="start" x="1106" y="-118.5" font-family="Cascadia Code NF" font-size="10.00">type()</text>
<text text-anchor="start" x="1092" y="-102.5" font-family="Cascadia Code NF" font-size="10.00">+</text>
<text text-anchor="start" x="1106" y="-102.5" font-family="Cascadia Code NF" font-size="10.00">GetBytecodeOffset()</text>
<text text-anchor="start" x="1092" y="-86.5" font-family="Cascadia Code NF" font-size="10.00">+</text>
<text text-anchor="start" x="1106" y="-86.5" font-family="Cascadia Code NF" font-size="10.00">PatchBytecodeOffset()</text>
<text text-anchor="start" x="1092" y="-70.5" font-family="Cascadia Code NF" font-size="10.00">+</text>
<text text-anchor="start" x="1106" y="-70.5" font-family="Cascadia Code NF" font-size="10.00">PatchBytecodeArray()</text>
<text text-anchor="start" x="1092" y="-54.5" font-family="Cascadia Code NF" font-size="10.00">+</text>
<text text-anchor="start" x="1106" y="-54.5" font-family="Cascadia Code NF" font-size="10.00">cast()</text>
<text text-anchor="start" x="1092" y="-38.5" font-family="Cascadia Code NF" font-size="10.00">+</text>
<text text-anchor="start" x="1106" y="-38.5" font-family="Cascadia Code NF" font-size="10.00">cast()</text>
<text text-anchor="start" x="1092" y="-22.5" font-family="Cascadia Code NF" font-size="10.00">+</text>
<text text-anchor="start" x="1106" y="-22.5" font-family="Cascadia Code NF" font-size="10.00">GetBytecodeOffset()</text>
<text text-anchor="start" x="1092" y="-6.5" font-family="Cascadia Code NF" font-size="10.00">#</text>
<text text-anchor="start" x="1106" y="-6.5" font-family="Cascadia Code NF" font-size="10.00">InterpretedFrame()</text>
<polygon fill="#bfbfbf" stroke="#bfbfbf" points="1084,-146 1084,-146 1244,-146 1244,-146 1084,-146"/>
<polygon fill="#bfbfbf" stroke="#bfbfbf" points="1084,-130 1084,-130 1244,-130 1244,-130 1084,-130"/>
<polygon fill="none" stroke="#bfbfbf" points="1084,0 1084,-177 1244,-177 1244,0 1084,0"/>
</a>
</g>
</g>
<!-- Node8&#45;&gt;Node10 -->
<g id="edge9_Node000008_Node000010" class="edge">
<title>Node8&#45;&gt;Node10</title>
<g id="a_edge9_Node000008_Node000010"><a xlink:title=" ">
<path fill="none" stroke="#63b8ff" d="M1034.9,-179.34C1051.29,-167.71 1068.23,-155.7 1084.22,-144.36"/>
<polygon fill="none" stroke="#63b8ff" points="1033.23,-176.23 1027.09,-184.87 1037.28,-181.94 1033.23,-176.23"/>
</a>
</g>
</g>
</g>
</svg>
