<?xml version="1.0" encoding="UTF-8" standalone="no"?>
<!DOCTYPE svg PUBLIC "-//W3C//DTD SVG 1.1//EN"
 "http://www.w3.org/Graphics/SVG/1.1/DTD/svg11.dtd">
<!-- Generated by graphviz version 11.0.0 (20240428.1522)
 -->
<!-- Title: v8::internal::IndirectPointerSlot Pages: 1 -->
<svg width="400pt" height="291pt"
 viewBox="0.00 0.00 400.00 291.00" xmlns="http://www.w3.org/2000/svg" xmlns:xlink="http://www.w3.org/1999/xlink">
<g id="graph0" class="graph" transform="scale(1 1) rotate(0) translate(4 287)">
<title>v8::internal::IndirectPointerSlot</title>
<!-- Node1 -->
<g id="Node000001" class="node">
<title>Node1</title>
<g id="a_Node000001"><a xlink:title=" ">
<polygon fill="#999999" stroke="none" points="392,-279.5 184,-279.5 184,-3.5 392,-3.5 392,-279.5"/>
<text text-anchor="start" x="189" y="-266" font-family="Cascadia Code NF" font-size="10.00">v8::internal::IndirectPointerSlot</text>
<text text-anchor="start" x="285" y="-250" font-family="Cascadia Code NF" font-size="10.00"> </text>
<text text-anchor="start" x="204" y="-234" font-family="Cascadia Code NF" font-size="10.00">+</text>
<text text-anchor="start" x="230" y="-234" font-family="Cascadia Code NF" font-size="10.00">IndirectPointerSlot()</text>
<text text-anchor="start" x="204" y="-218" font-family="Cascadia Code NF" font-size="10.00">+</text>
<text text-anchor="start" x="230" y="-218" font-family="Cascadia Code NF" font-size="10.00">IndirectPointerSlot()</text>
<text text-anchor="start" x="204" y="-202" font-family="Cascadia Code NF" font-size="10.00">+</text>
<text text-anchor="start" x="230" y="-202" font-family="Cascadia Code NF" font-size="10.00">load()</text>
<text text-anchor="start" x="204" y="-186" font-family="Cascadia Code NF" font-size="10.00">+</text>
<text text-anchor="start" x="230" y="-186" font-family="Cascadia Code NF" font-size="10.00">store()</text>
<text text-anchor="start" x="204" y="-170" font-family="Cascadia Code NF" font-size="10.00">+</text>
<text text-anchor="start" x="230" y="-170" font-family="Cascadia Code NF" font-size="10.00">Relaxed_Load()</text>
<text text-anchor="start" x="204" y="-154" font-family="Cascadia Code NF" font-size="10.00">+</text>
<text text-anchor="start" x="230" y="-154" font-family="Cascadia Code NF" font-size="10.00">Acquire_Load()</text>
<text text-anchor="start" x="204" y="-138" font-family="Cascadia Code NF" font-size="10.00">+</text>
<text text-anchor="start" x="230" y="-138" font-family="Cascadia Code NF" font-size="10.00">Relaxed_Store()</text>
<text text-anchor="start" x="204" y="-122" font-family="Cascadia Code NF" font-size="10.00">+</text>
<text text-anchor="start" x="230" y="-122" font-family="Cascadia Code NF" font-size="10.00">Release_Store()</text>
<text text-anchor="start" x="204" y="-106" font-family="Cascadia Code NF" font-size="10.00">+</text>
<text text-anchor="start" x="230" y="-106" font-family="Cascadia Code NF" font-size="10.00">Relaxed_LoadHandle()</text>
<text text-anchor="start" x="204" y="-90" font-family="Cascadia Code NF" font-size="10.00">+</text>
<text text-anchor="start" x="230" y="-90" font-family="Cascadia Code NF" font-size="10.00">Acquire_LoadHandle()</text>
<text text-anchor="start" x="204" y="-74" font-family="Cascadia Code NF" font-size="10.00">+</text>
<text text-anchor="start" x="230" y="-74" font-family="Cascadia Code NF" font-size="10.00">Relaxed_StoreHandle()</text>
<text text-anchor="start" x="204" y="-58" font-family="Cascadia Code NF" font-size="10.00">+</text>
<text text-anchor="start" x="230" y="-58" font-family="Cascadia Code NF" font-size="10.00">Release_StoreHandle()</text>
<text text-anchor="start" x="204" y="-42" font-family="Cascadia Code NF" font-size="10.00">+</text>
<text text-anchor="start" x="230" y="-42" font-family="Cascadia Code NF" font-size="10.00">tag()</text>
<text text-anchor="start" x="204" y="-26" font-family="Cascadia Code NF" font-size="10.00">+</text>
<text text-anchor="start" x="230" y="-26" font-family="Cascadia Code NF" font-size="10.00">IsEmpty()</text>
<text text-anchor="start" x="204" y="-10" font-family="Cascadia Code NF" font-size="10.00">+</text>
<text text-anchor="start" x="230" y="-10" font-family="Cascadia Code NF" font-size="10.00">ResolveHandle()</text>
<polygon fill="#666666" stroke="#666666" points="184,-261.5 184,-261.5 392,-261.5 392,-261.5 184,-261.5"/>
<polygon fill="#666666" stroke="#666666" points="184,-245.5 184,-245.5 392,-245.5 392,-245.5 184,-245.5"/>
<polygon fill="none" stroke="#666666" points="184,-3.5 184,-279.5 392,-279.5 392,-3.5 184,-3.5"/>
</a>
</g>
</g>
<!-- Node2 -->
<g id="Node000002" class="node">
<title>Node2</title>
<g id="a_Node000002"><a xlink:href="$db/d4f/classv8_1_1internal_1_1SlotBase.html" xlink:title=" ">
<polygon fill="white" stroke="none" points="148,-283 0,-283 0,0 148,0 148,-283"/>
<text text-anchor="start" x="5" y="-269.5" font-family="Cascadia Code NF" font-size="10.00">v8::internal::SlotBase</text>
<text text-anchor="start" x="5" y="-256.75" font-family="Cascadia Code NF" font-size="10.00">&lt; IndirectPointerSlot,</text>
<text text-anchor="start" x="5" y="-244" font-family="Cascadia Code NF" font-size="10.00"> IndirectPointerHandle,</text>
<text text-anchor="start" x="32" y="-231.25" font-family="Cascadia Code NF" font-size="10.00"> kTaggedSize &gt;</text>
<text text-anchor="start" x="9.5" y="-214.5" font-family="Cascadia Code NF" font-size="10.00">+</text>
<text text-anchor="start" x="25" y="-214.5" font-family="Cascadia Code NF" font-size="10.00">kSlotDataSize</text>
<text text-anchor="start" x="9.5" y="-198.5" font-family="Cascadia Code NF" font-size="10.00">+</text>
<text text-anchor="start" x="25" y="-198.5" font-family="Cascadia Code NF" font-size="10.00">kSlotDataAlignment</text>
<text text-anchor="start" x="9.5" y="-182.5" font-family="Cascadia Code NF" font-size="10.00">+</text>
<text text-anchor="start" x="25" y="-182.5" font-family="Cascadia Code NF" font-size="10.00">operator++()</text>
<text text-anchor="start" x="9.5" y="-166.5" font-family="Cascadia Code NF" font-size="10.00">+</text>
<text text-anchor="start" x="25" y="-166.5" font-family="Cascadia Code NF" font-size="10.00">operator++()</text>
<text text-anchor="start" x="9.5" y="-150.5" font-family="Cascadia Code NF" font-size="10.00">+</text>
<text text-anchor="start" x="25" y="-150.5" font-family="Cascadia Code NF" font-size="10.00">operator&#45;&#45;()</text>
<text text-anchor="start" x="9.5" y="-134.5" font-family="Cascadia Code NF" font-size="10.00">+</text>
<text text-anchor="start" x="25" y="-134.5" font-family="Cascadia Code NF" font-size="10.00">operator&#45;&#45;()</text>
<text text-anchor="start" x="9.5" y="-118.5" font-family="Cascadia Code NF" font-size="10.00">+</text>
<text text-anchor="start" x="25" y="-118.5" font-family="Cascadia Code NF" font-size="10.00">operator&lt;()</text>
<text text-anchor="start" x="9.5" y="-102.5" font-family="Cascadia Code NF" font-size="10.00">+</text>
<text text-anchor="start" x="25" y="-102.5" font-family="Cascadia Code NF" font-size="10.00">operator&lt;=()</text>
<text text-anchor="start" x="9.5" y="-86.5" font-family="Cascadia Code NF" font-size="10.00">+</text>
<text text-anchor="start" x="25" y="-86.5" font-family="Cascadia Code NF" font-size="10.00">operator&gt;()</text>
<text text-anchor="start" x="9.5" y="-70.5" font-family="Cascadia Code NF" font-size="10.00">+</text>
<text text-anchor="start" x="25" y="-70.5" font-family="Cascadia Code NF" font-size="10.00">operator&gt;=()</text>
<text text-anchor="start" x="9.5" y="-54.5" font-family="Cascadia Code NF" font-size="10.00">+</text>
<text text-anchor="start" x="25" y="-54.5" font-family="Cascadia Code NF" font-size="10.00">operator==()</text>
<text text-anchor="start" x="9.5" y="-38.5" font-family="Cascadia Code NF" font-size="10.00">+</text>
<text text-anchor="start" x="25" y="-38.5" font-family="Cascadia Code NF" font-size="10.00">operator!=()</text>
<text text-anchor="start" x="25" y="-22.5" font-family="Cascadia Code NF" font-size="10.00">and 9 more...</text>
<text text-anchor="start" x="9.5" y="-6.5" font-family="Cascadia Code NF" font-size="10.00">#</text>
<text text-anchor="start" x="25" y="-6.5" font-family="Cascadia Code NF" font-size="10.00">SlotBase()</text>
<polygon fill="#bfbfbf" stroke="#bfbfbf" points="0,-226 0,-226 148,-226 148,-226 0,-226"/>
<polygon fill="#bfbfbf" stroke="#bfbfbf" points="0,-194 0,-194 23,-194 23,-194 0,-194"/>
<polygon fill="#bfbfbf" stroke="#bfbfbf" points="23,-194 23,-194 148,-194 148,-194 23,-194"/>
<polygon fill="none" stroke="#bfbfbf" points="0,0 0,-283 148,-283 148,0 0,0"/>
</a>
</g>
</g>
<!-- Node2&#45;&gt;Node1 -->
<g id="edge1_Node000001_Node000002" class="edge">
<title>Node2&#45;&gt;Node1</title>
<g id="a_edge1_Node000001_Node000002"><a xlink:title=" ">
<path fill="none" stroke="#63b8ff" d="M159.4,-141.5C167.59,-141.5 175.97,-141.5 184.31,-141.5"/>
<polygon fill="none" stroke="#63b8ff" points="159.47,-138 149.47,-141.5 159.47,-145 159.47,-138"/>
</a>
</g>
</g>
</g>
</svg>
