<?xml version="1.0" encoding="UTF-8" standalone="no"?>
<!DOCTYPE svg PUBLIC "-//W3C//DTD SVG 1.1//EN"
 "http://www.w3.org/Graphics/SVG/1.1/DTD/svg11.dtd">
<!-- Generated by graphviz version 11.0.0 (20240428.1522)
 -->
<!-- Title: v8::internal::BackingStoreBase Pages: 1 -->
<svg width="426pt" height="480pt"
 viewBox="0.00 0.00 426.00 479.50" xmlns="http://www.w3.org/2000/svg" xmlns:xlink="http://www.w3.org/1999/xlink">
<g id="graph0" class="graph" transform="scale(1 1) rotate(0) translate(4 475.5)">
<title>v8::internal::BackingStoreBase</title>
<!-- Node1 -->
<g id="Node000001" class="node">
<title>Node1</title>
<g id="a_Node000001"><a xlink:title=" ">
<polygon fill="#999999" stroke="none" points="190,-292.5 0,-292.5 0,-240.5 190,-240.5 190,-292.5"/>
<text text-anchor="start" x="5" y="-279" font-family="Cascadia Code NF" font-size="10.00">v8::internal::BackingStoreBase</text>
<text text-anchor="start" x="92" y="-263" font-family="Cascadia Code NF" font-size="10.00"> </text>
<text text-anchor="start" x="92" y="-247" font-family="Cascadia Code NF" font-size="10.00"> </text>
<polygon fill="#666666" stroke="#666666" points="0,-274.5 0,-274.5 190,-274.5 190,-274.5 0,-274.5"/>
<polygon fill="#666666" stroke="#666666" points="0,-258.5 0,-258.5 190,-258.5 190,-258.5 0,-258.5"/>
<polygon fill="none" stroke="#666666" points="0,-240.5 0,-292.5 190,-292.5 190,-240.5 0,-240.5"/>
</a>
</g>
</g>
<!-- Node2 -->
<g id="Node000002" class="node">
<title>Node2</title>
<g id="a_Node000002"><a xlink:href="../../d6/d67/classv8_1_1BackingStore.html" target="_top" xlink:title=" ">
<polygon fill="white" stroke="none" points="418,-471.5 226,-471.5 226,-307.5 418,-307.5 418,-471.5"/>
<text text-anchor="start" x="274" y="-458" font-family="Cascadia Code NF" font-size="10.00">v8::BackingStore</text>
<text text-anchor="start" x="319" y="-442" font-family="Cascadia Code NF" font-size="10.00"> </text>
<text text-anchor="start" x="230" y="-426" font-family="Cascadia Code NF" font-size="10.00">+</text>
<text text-anchor="start" x="240" y="-426" font-family="Cascadia Code NF" font-size="10.00">~BackingStore()</text>
<text text-anchor="start" x="230" y="-410" font-family="Cascadia Code NF" font-size="10.00">+</text>
<text text-anchor="start" x="240" y="-410" font-family="Cascadia Code NF" font-size="10.00">Data()</text>
<text text-anchor="start" x="230" y="-394" font-family="Cascadia Code NF" font-size="10.00">+</text>
<text text-anchor="start" x="240" y="-394" font-family="Cascadia Code NF" font-size="10.00">ByteLength()</text>
<text text-anchor="start" x="230" y="-378" font-family="Cascadia Code NF" font-size="10.00">+</text>
<text text-anchor="start" x="240" y="-378" font-family="Cascadia Code NF" font-size="10.00">MaxByteLength()</text>
<text text-anchor="start" x="230" y="-362" font-family="Cascadia Code NF" font-size="10.00">+</text>
<text text-anchor="start" x="240" y="-362" font-family="Cascadia Code NF" font-size="10.00">IsShared()</text>
<text text-anchor="start" x="230" y="-346" font-family="Cascadia Code NF" font-size="10.00">+</text>
<text text-anchor="start" x="240" y="-346" font-family="Cascadia Code NF" font-size="10.00">IsResizableByUserJavaScript()</text>
<text text-anchor="start" x="230" y="-330" font-family="Cascadia Code NF" font-size="10.00">+</text>
<text text-anchor="start" x="240" y="-330" font-family="Cascadia Code NF" font-size="10.00">operator delete()</text>
<text text-anchor="start" x="230" y="-314" font-family="Cascadia Code NF" font-size="10.00">+</text>
<text text-anchor="start" x="240" y="-314" font-family="Cascadia Code NF" font-size="10.00">EmptyDeleter()</text>
<polygon fill="#666666" stroke="#666666" points="226,-453.5 226,-453.5 418,-453.5 418,-453.5 226,-453.5"/>
<polygon fill="#666666" stroke="#666666" points="226,-437.5 226,-437.5 418,-437.5 418,-437.5 226,-437.5"/>
<polygon fill="none" stroke="#666666" points="226,-307.5 226,-471.5 418,-471.5 418,-307.5 226,-307.5"/>
</a>
</g>
</g>
<!-- Node1&#45;&gt;Node2 -->
<g id="edge1_Node000001_Node000002" class="edge">
<title>Node1&#45;&gt;Node2</title>
<g id="a_edge1_Node000001_Node000002"><a xlink:title=" ">
<path fill="none" stroke="#63b8ff" d="M153.35,-297.85C175.54,-309.98 201.53,-324.19 226.34,-337.75"/>
<polygon fill="none" stroke="#63b8ff" points="155.22,-294.89 144.77,-293.16 151.87,-301.03 155.22,-294.89"/>
</a>
</g>
</g>
<!-- Node3 -->
<g id="Node000003" class="node">
<title>Node3</title>
<g id="a_Node000003"><a xlink:href="../../d0/d1e/classv8_1_1internal_1_1BackingStore.html" target="_top" xlink:title=" ">
<polygon fill="white" stroke="none" points="418,-289 226,-289 226,0 418,0 418,-289"/>
<text text-anchor="start" x="244" y="-275.5" font-family="Cascadia Code NF" font-size="10.00">v8::internal::BackingStore</text>
<text text-anchor="start" x="319" y="-259.5" font-family="Cascadia Code NF" font-size="10.00"> </text>
<text text-anchor="start" x="230" y="-243.5" font-family="Cascadia Code NF" font-size="10.00">+</text>
<text text-anchor="start" x="240" y="-243.5" font-family="Cascadia Code NF" font-size="10.00">~BackingStore()</text>
<text text-anchor="start" x="230" y="-227.5" font-family="Cascadia Code NF" font-size="10.00">+</text>
<text text-anchor="start" x="240" y="-227.5" font-family="Cascadia Code NF" font-size="10.00">buffer_start()</text>
<text text-anchor="start" x="230" y="-211.5" font-family="Cascadia Code NF" font-size="10.00">+</text>
<text text-anchor="start" x="240" y="-211.5" font-family="Cascadia Code NF" font-size="10.00">byte_length()</text>
<text text-anchor="start" x="230" y="-195.5" font-family="Cascadia Code NF" font-size="10.00">+</text>
<text text-anchor="start" x="240" y="-195.5" font-family="Cascadia Code NF" font-size="10.00">max_byte_length()</text>
<text text-anchor="start" x="230" y="-179.5" font-family="Cascadia Code NF" font-size="10.00">+</text>
<text text-anchor="start" x="240" y="-179.5" font-family="Cascadia Code NF" font-size="10.00">byte_capacity()</text>
<text text-anchor="start" x="230" y="-163.5" font-family="Cascadia Code NF" font-size="10.00">+</text>
<text text-anchor="start" x="240" y="-163.5" font-family="Cascadia Code NF" font-size="10.00">is_shared()</text>
<text text-anchor="start" x="230" y="-147.5" font-family="Cascadia Code NF" font-size="10.00">+</text>
<text text-anchor="start" x="240" y="-147.5" font-family="Cascadia Code NF" font-size="10.00">is_resizable_by_js()</text>
<text text-anchor="start" x="230" y="-131.5" font-family="Cascadia Code NF" font-size="10.00">+</text>
<text text-anchor="start" x="240" y="-131.5" font-family="Cascadia Code NF" font-size="10.00">is_wasm_memory()</text>
<text text-anchor="start" x="230" y="-115.5" font-family="Cascadia Code NF" font-size="10.00">+</text>
<text text-anchor="start" x="240" y="-115.5" font-family="Cascadia Code NF" font-size="10.00">has_guard_regions()</text>
<text text-anchor="start" x="230" y="-99.5" font-family="Cascadia Code NF" font-size="10.00">+</text>
<text text-anchor="start" x="240" y="-99.5" font-family="Cascadia Code NF" font-size="10.00">IsEmpty()</text>
<text text-anchor="start" x="240" y="-83.5" font-family="Cascadia Code NF" font-size="10.00">and 6 more...</text>
<text text-anchor="start" x="230" y="-67.5" font-family="Cascadia Code NF" font-size="10.00">+</text>
<text text-anchor="start" x="240" y="-67.5" font-family="Cascadia Code NF" font-size="10.00">Allocate()</text>
<text text-anchor="start" x="230" y="-51.5" font-family="Cascadia Code NF" font-size="10.00">+</text>
<text text-anchor="start" x="240" y="-51.5" font-family="Cascadia Code NF" font-size="10.00">TryAllocateAndPartiallyCommit</text>
<text text-anchor="start" x="240" y="-38.75" font-family="Cascadia Code NF" font-size="10.00">Memory()</text>
<text text-anchor="start" x="230" y="-22.5" font-family="Cascadia Code NF" font-size="10.00">+</text>
<text text-anchor="start" x="240" y="-22.5" font-family="Cascadia Code NF" font-size="10.00">WrapAllocation()</text>
<text text-anchor="start" x="230" y="-6.5" font-family="Cascadia Code NF" font-size="10.00">+</text>
<text text-anchor="start" x="240" y="-6.5" font-family="Cascadia Code NF" font-size="10.00">EmptyBackingStore()</text>
<polygon fill="#bfbfbf" stroke="#bfbfbf" points="226,-271 226,-271 418,-271 418,-271 226,-271"/>
<polygon fill="#bfbfbf" stroke="#bfbfbf" points="226,-255 226,-255 418,-255 418,-255 226,-255"/>
<polygon fill="none" stroke="#bfbfbf" points="226,0 226,-289 418,-289 418,0 226,0"/>
</a>
</g>
</g>
<!-- Node1&#45;&gt;Node3 -->
<g id="edge2_Node000001_Node000003" class="edge">
<title>Node1&#45;&gt;Node3</title>
<g id="a_edge2_Node000001_Node000003"><a xlink:title=" ">
<path fill="none" stroke="#63b8ff" d="M153.57,-235.28C175.64,-223.32 201.44,-209.33 226.09,-195.96"/>
<polygon fill="none" stroke="#63b8ff" points="152.17,-232.06 145.05,-239.91 155.51,-238.22 152.17,-232.06"/>
</a>
</g>
</g>
</g>
</svg>
