<?xml version="1.0" encoding="UTF-8" standalone="no"?>
<!DOCTYPE svg PUBLIC "-//W3C//DTD SVG 1.1//EN"
 "http://www.w3.org/Graphics/SVG/1.1/DTD/svg11.dtd">
<!-- Generated by graphviz version 11.0.0 (20240428.1522)
 -->
<!-- Title: v8::internal::SourcePositionTableIterator::IndexAndPositionState Pages: 1 -->
<svg width="776pt" height="289pt"
 viewBox="0.00 0.00 776.00 289.00" xmlns="http://www.w3.org/2000/svg" xmlns:xlink="http://www.w3.org/1999/xlink">
<g id="graph0" class="graph" transform="scale(1 1) rotate(0) translate(4 285)">
<title>v8::internal::SourcePositionTableIterator::IndexAndPositionState</title>
<!-- Node1 -->
<g id="Node000001" class="node">
<title>Node1</title>
<g id="a_Node000001"><a xlink:title=" ">
<polygon fill="#999999" stroke="none" points="768,-170.5 542,-170.5 542,-105.5 768,-105.5 768,-170.5"/>
<text text-anchor="start" x="547" y="-157" font-family="Cascadia Code NF" font-size="10.00">v8::internal::SourcePosition</text>
<text text-anchor="start" x="547" y="-144.25" font-family="Cascadia Code NF" font-size="10.00">TableIterator::IndexAndPositionState</text>
<text text-anchor="start" x="652" y="-128" font-family="Cascadia Code NF" font-size="10.00"> </text>
<text text-anchor="start" x="652" y="-112" font-family="Cascadia Code NF" font-size="10.00"> </text>
<polygon fill="#666666" stroke="#666666" points="542,-139.5 542,-139.5 768,-139.5 768,-139.5 542,-139.5"/>
<polygon fill="#666666" stroke="#666666" points="542,-123.5 542,-123.5 768,-123.5 768,-123.5 542,-123.5"/>
<polygon fill="none" stroke="#666666" points="542,-105.5 542,-170.5 768,-170.5 768,-105.5 542,-105.5"/>
</a>
</g>
</g>
<!-- Node2 -->
<g id="Node000002" class="node">
<title>Node2</title>
<g id="a_Node000002"><a xlink:href="$d1/da0/classint.html" xlink:title=" ">
<polygon fill="white" stroke="none" points="40,-281 12,-281 12,-229 40,-229 40,-281"/>
<text text-anchor="start" x="17" y="-267.5" font-family="Cascadia Code NF" font-size="10.00">int</text>
<text text-anchor="start" x="23" y="-251.5" font-family="Cascadia Code NF" font-size="10.00"> </text>
<text text-anchor="start" x="23" y="-235.5" font-family="Cascadia Code NF" font-size="10.00"> </text>
<polygon fill="#bfbfbf" stroke="#bfbfbf" points="12,-263 12,-263 40,-263 40,-263 12,-263"/>
<polygon fill="#bfbfbf" stroke="#bfbfbf" points="12,-247 12,-247 40,-247 40,-247 12,-247"/>
<polygon fill="none" stroke="#bfbfbf" points="12,-229 12,-281 40,-281 40,-229 12,-229"/>
</a>
</g>
</g>
<!-- Node2&#45;&gt;Node1 -->
<g id="edge1_Node000001_Node000002" class="edge">
<title>Node2&#45;&gt;Node1</title>
<g id="a_edge1_Node000001_Node000002"><a xlink:title=" ">
<path fill="none" stroke="#63b8ff" d="M39.9,-255.02C84.75,-254.9 237.96,-252.82 362,-231 435.71,-218.04 452.76,-207.96 524,-185 534.01,-181.77 544.41,-178.27 554.77,-174.69"/>
<polygon fill="none" stroke="#63b8ff" points="554.7,-174.71 559.04,-168.95 566.03,-170.75 561.69,-176.5 554.7,-174.71"/>
</a>
</g>
<text text-anchor="middle" x="276" y="-253.25" font-family="Cascadia Code NF" font-size="10.00" fill="grey"> +index_</text>
</g>
<!-- Node3 -->
<g id="Node000003" class="node">
<title>Node3</title>
<g id="a_Node000003"><a xlink:href="$d9/df5/structv8_1_1internal_1_1PositionTableEntry.html" xlink:title=" ">
<polygon fill="white" stroke="none" points="362,-221.5 190,-221.5 190,-140.5 362,-140.5 362,-221.5"/>
<text text-anchor="start" x="195" y="-208" font-family="Cascadia Code NF" font-size="10.00">v8::internal::PositionTable</text>
<text text-anchor="start" x="261" y="-195.25" font-family="Cascadia Code NF" font-size="10.00">Entry</text>
<text text-anchor="start" x="273" y="-179" font-family="Cascadia Code NF" font-size="10.00"> </text>
<text text-anchor="start" x="202.5" y="-163" font-family="Cascadia Code NF" font-size="10.00">+</text>
<text text-anchor="start" x="221" y="-163" font-family="Cascadia Code NF" font-size="10.00">PositionTableEntry()</text>
<text text-anchor="start" x="202.5" y="-147" font-family="Cascadia Code NF" font-size="10.00">+</text>
<text text-anchor="start" x="221" y="-147" font-family="Cascadia Code NF" font-size="10.00">PositionTableEntry()</text>
<polygon fill="#bfbfbf" stroke="#bfbfbf" points="190,-190.5 190,-190.5 362,-190.5 362,-190.5 190,-190.5"/>
<polygon fill="#bfbfbf" stroke="#bfbfbf" points="190,-174.5 190,-174.5 362,-174.5 362,-174.5 190,-174.5"/>
<polygon fill="none" stroke="#bfbfbf" points="190,-140.5 190,-221.5 362,-221.5 362,-140.5 190,-140.5"/>
</a>
</g>
</g>
<!-- Node2&#45;&gt;Node3 -->
<g id="edge4_Node000003_Node000002" class="edge">
<title>Node2&#45;&gt;Node3</title>
<g id="a_edge4_Node000003_Node000002"><a xlink:title=" ">
<path fill="none" stroke="#63b8ff" d="M39.74,-246.79C48.07,-241.72 59.36,-235.41 70,-231.25 104.2,-217.89 143.03,-207.29 177.63,-199.33"/>
<polygon fill="none" stroke="#63b8ff" points="177.58,-199.35 182.56,-194.13 189.29,-196.72 184.31,-201.94 177.58,-199.35"/>
</a>
</g>
<text text-anchor="middle" x="121" y="-234.25" font-family="Cascadia Code NF" font-size="10.00" fill="grey"> +code_offset</text>
</g>
<!-- Node3&#45;&gt;Node1 -->
<g id="edge2_Node000001_Node000003" class="edge">
<title>Node3&#45;&gt;Node1</title>
<g id="a_edge2_Node000001_Node000003"><a xlink:title=" ">
<path fill="none" stroke="#63b8ff" d="M361.61,-171.35C411.05,-165.71 474.37,-158.49 529.43,-152.21"/>
<polygon fill="none" stroke="#63b8ff" points="529.31,-152.22 534.82,-147.57 541.24,-150.86 535.73,-155.52 529.31,-152.22"/>
</a>
</g>
<text text-anchor="middle" x="452" y="-171.25" font-family="Cascadia Code NF" font-size="10.00" fill="grey"> +position_</text>
</g>
<!-- Node4 -->
<g id="Node000004" class="node">
<title>Node4</title>
<g id="a_Node000004"><a xlink:href="$d8/d3f/classint64__t.html" xlink:title=" ">
<polygon fill="white" stroke="none" points="52,-209 0,-209 0,-157 52,-157 52,-209"/>
<text text-anchor="start" x="5" y="-195.5" font-family="Cascadia Code NF" font-size="10.00">int64_t</text>
<text text-anchor="start" x="23" y="-179.5" font-family="Cascadia Code NF" font-size="10.00"> </text>
<text text-anchor="start" x="23" y="-163.5" font-family="Cascadia Code NF" font-size="10.00"> </text>
<polygon fill="#bfbfbf" stroke="#bfbfbf" points="0,-191 0,-191 52,-191 52,-191 0,-191"/>
<polygon fill="#bfbfbf" stroke="#bfbfbf" points="0,-175 0,-175 52,-175 52,-175 0,-175"/>
<polygon fill="none" stroke="#bfbfbf" points="0,-157 0,-209 52,-209 52,-157 0,-157"/>
</a>
</g>
</g>
<!-- Node4&#45;&gt;Node3 -->
<g id="edge3_Node000003_Node000004" class="edge">
<title>Node4&#45;&gt;Node3</title>
<g id="a_edge3_Node000003_Node000004"><a xlink:title=" ">
<path fill="none" stroke="#63b8ff" d="M51.69,-182.8C80.96,-182.56 131.56,-182.16 177.2,-181.79"/>
<polygon fill="none" stroke="#63b8ff" points="177.33,-181.79 183.29,-177.74 189.33,-181.69 183.36,-185.74 177.33,-181.79"/>
</a>
</g>
<text text-anchor="middle" x="121" y="-185.25" font-family="Cascadia Code NF" font-size="10.00" fill="grey"> +source_position</text>
</g>
<!-- Node5 -->
<g id="Node000005" class="node">
<title>Node5</title>
<g id="a_Node000005"><a xlink:title=" ">
<polygon fill="white" stroke="none" points="43,-139 9,-139 9,-87 43,-87 43,-139"/>
<text text-anchor="start" x="14" y="-125.5" font-family="Cascadia Code NF" font-size="10.00">bool</text>
<text text-anchor="start" x="23" y="-109.5" font-family="Cascadia Code NF" font-size="10.00"> </text>
<text text-anchor="start" x="23" y="-93.5" font-family="Cascadia Code NF" font-size="10.00"> </text>
<polygon fill="#bfbfbf" stroke="#bfbfbf" points="9,-121 9,-121 43,-121 43,-121 9,-121"/>
<polygon fill="#bfbfbf" stroke="#bfbfbf" points="9,-105 9,-105 43,-105 43,-105 9,-105"/>
<polygon fill="none" stroke="#bfbfbf" points="9,-87 9,-139 43,-139 43,-87 9,-87"/>
</a>
</g>
</g>
<!-- Node5&#45;&gt;Node3 -->
<g id="edge5_Node000003_Node000005" class="edge">
<title>Node5&#45;&gt;Node3</title>
<g id="a_edge5_Node000003_Node000005"><a xlink:title=" ">
<path fill="none" stroke="#63b8ff" d="M42.89,-117.36C69.95,-124.78 126.99,-140.42 177.75,-154.33"/>
<polygon fill="none" stroke="#63b8ff" points="177.71,-154.32 184.56,-152.05 189.28,-157.5 182.44,-159.77 177.71,-154.32"/>
</a>
</g>
<text text-anchor="middle" x="121" y="-154.25" font-family="Cascadia Code NF" font-size="10.00" fill="grey"> +is_statement</text>
</g>
<!-- Node6 -->
<g id="Node000006" class="node">
<title>Node6</title>
<g id="a_Node000006"><a xlink:title=" ">
<polygon fill="white" stroke="none" points="326,-122 226,-122 226,-70 326,-70 326,-122"/>
<text text-anchor="start" x="231" y="-108.5" font-family="Cascadia Code NF" font-size="10.00">IterationFilter</text>
<text text-anchor="start" x="273" y="-92.5" font-family="Cascadia Code NF" font-size="10.00"> </text>
<text text-anchor="start" x="273" y="-76.5" font-family="Cascadia Code NF" font-size="10.00"> </text>
<polygon fill="#bfbfbf" stroke="#bfbfbf" points="226,-104 226,-104 326,-104 326,-104 226,-104"/>
<polygon fill="#bfbfbf" stroke="#bfbfbf" points="226,-88 226,-88 326,-88 326,-88 226,-88"/>
<polygon fill="none" stroke="#bfbfbf" points="226,-70 226,-122 326,-122 326,-70 226,-70"/>
</a>
</g>
</g>
<!-- Node6&#45;&gt;Node1 -->
<g id="edge6_Node000001_Node000006" class="edge">
<title>Node6&#45;&gt;Node1</title>
<g id="a_edge6_Node000001_Node000006"><a xlink:title=" ">
<path fill="none" stroke="#63b8ff" d="M325.9,-101.45C377.2,-107.16 459.87,-116.37 529.4,-124.12"/>
<polygon fill="none" stroke="#63b8ff" points="529.39,-124.12 535.8,-120.81 541.32,-125.45 534.91,-128.76 529.39,-124.12"/>
</a>
</g>
<text text-anchor="middle" x="452" y="-126.25" font-family="Cascadia Code NF" font-size="10.00" fill="grey"> +iteration_filter_</text>
</g>
<!-- Node7 -->
<g id="Node000007" class="node">
<title>Node7</title>
<g id="a_Node000007"><a xlink:title=" ">
<polygon fill="white" stroke="none" points="338,-52 214,-52 214,0 338,0 338,-52"/>
<text text-anchor="start" x="219" y="-38.5" font-family="Cascadia Code NF" font-size="10.00">FunctionEntryFilter</text>
<text text-anchor="start" x="273" y="-22.5" font-family="Cascadia Code NF" font-size="10.00"> </text>
<text text-anchor="start" x="273" y="-6.5" font-family="Cascadia Code NF" font-size="10.00"> </text>
<polygon fill="#bfbfbf" stroke="#bfbfbf" points="214,-34 214,-34 338,-34 338,-34 214,-34"/>
<polygon fill="#bfbfbf" stroke="#bfbfbf" points="214,-18 214,-18 338,-18 338,-18 214,-18"/>
<polygon fill="none" stroke="#bfbfbf" points="214,0 214,-52 338,-52 338,0 214,0"/>
</a>
</g>
</g>
<!-- Node7&#45;&gt;Node1 -->
<g id="edge7_Node000001_Node000007" class="edge">
<title>Node7&#45;&gt;Node1</title>
<g id="a_edge7_Node000001_Node000007"><a xlink:title=" ">
<path fill="none" stroke="#63b8ff" d="M337.82,-40.5C388.07,-52.86 461.11,-71.68 524,-91.25 534.04,-94.38 544.46,-97.8 554.82,-101.33"/>
<polygon fill="none" stroke="#63b8ff" points="554.75,-101.31 561.72,-99.48 566.09,-105.22 559.11,-107.05 554.75,-101.31"/>
</a>
</g>
<text text-anchor="middle" x="452" y="-94.25" font-family="Cascadia Code NF" font-size="10.00" fill="grey"> +function_entry_filter_</text>
</g>
</g>
</svg>
