<?xml version="1.0" encoding="UTF-8" standalone="no"?>
<!DOCTYPE svg PUBLIC "-//W3C//DTD SVG 1.1//EN"
 "http://www.w3.org/Graphics/SVG/1.1/DTD/svg11.dtd">
<!-- Generated by graphviz version 11.0.0 (20240428.1522)
 -->
<!-- Title: v8::internal::JSPluralRules Pages: 1 -->
<!--zoomable 345 -->

<svg id="main" version="1.1" xmlns="http://www.w3.org/2000/svg" xmlns:xlink="http://www.w3.org/1999/xlink" xml:space="preserve" onload="init(evt)">
<style type="text/css"><![CDATA[
.node, .edge {opacity: 0.7;}
.node.selected, .edge.selected {opacity: 1;}
.edge:hover path { stroke: red; }
.edge:hover polygon { stroke: red; fill: red; }
svg#main { background-color: #111; }
]]></style>

<defs>
  <circle id="rim" cx="0" cy="0" r="7"/>
  <circle id="rim2" cx="0" cy="0" r="3.5"/>
  <g id="zoomPlus">
    <use xlink:href="#rim" fill="#404040"><set attributeName="fill" to="#808080" begin="zoomplus.mouseover" end="zoomplus.mouseout"/></use>
    <path d="M-4,0h8M0,-4v8" fill="none" stroke="white" stroke-width="1.5" pointer-events="none"/>
  </g>
  <g id="zoomMin">
    <use xlink:href="#rim" fill="#404040"><set attributeName="fill" to="#808080" begin="zoomminus.mouseover" end="zoomminus.mouseout"/></use>
    <path d="M-4,0h8" fill="none" stroke="white" stroke-width="1.5" pointer-events="none"/>
  </g>
  <g id="arrowUp" transform="translate(30 24)">
    <use xlink:href="#rim"/>
    <path pointer-events="none" fill="none" stroke="white" stroke-width="1.5" d="M0,-3.0v7 M-2.5,-0.5L0,-3.0L2.5,-0.5"/>
  </g>
  <g id="arrowRight" transform="rotate(90) translate(36 -43)">
    <use xlink:href="#rim"/>
    <path pointer-events="none" fill="none" stroke="white" stroke-width="1.5" d="M0,-3.0v7 M-2.5,-0.5L0,-3.0L2.5,-0.5"/>
  </g>
  <g id="arrowDown" transform="rotate(180) translate(-30 -48)">
    <use xlink:href="#rim"/>
    <path pointer-events="none" fill="none" stroke="white" stroke-width="1.5" d="M0,-3.0v7 M-2.5,-0.5L0,-3.0L2.5,-0.5"/>
  </g>
  <g id="arrowLeft" transform="rotate(270) translate(-36 17)">
    <use xlink:href="#rim"/>
    <path pointer-events="none" fill="none" stroke="white" stroke-width="1.5" d="M0,-3.0v7 M-2.5,-0.5L0,-3.0L2.5,-0.5"/>
  </g>
  <g id="resetDef">
    <use xlink:href="#rim2" fill="#404040"><set attributeName="fill" to="#808080" begin="reset.mouseover" end="reset.mouseout"/></use>
  </g>
</defs>
<script type="application/ecmascript">
var viewWidth = 682;
var viewHeight = 345;
var sectionId = 'dynsection-1';
</script>
<script type="application/ecmascript" xlink:href="../../svg.min.js"/>
<svg id="graph" class="graph">
<g id="viewport">
<title>v8::internal::JSPluralRules</title>
<!-- Node1 -->
<g id="Node000001" class="node">
<title>Node1</title>
<g id="a_Node000001"><a xlink:title=" ">
<polygon fill="#999999" stroke="none" points="674,-250.5 502,-250.5 502,-86.5 674,-86.5 674,-250.5"/>
<text text-anchor="start" x="507" y="-237" font-family="Cascadia Code NF" font-size="10.00">v8::internal::JSPluralRules</text>
<text text-anchor="start" x="585" y="-221" font-family="Cascadia Code NF" font-size="10.00"> </text>
<text text-anchor="start" x="513" y="-205" font-family="Cascadia Code NF" font-size="10.00">+</text>
<text text-anchor="start" x="530" y="-205" font-family="Cascadia Code NF" font-size="10.00">set_type()</text>
<text text-anchor="start" x="513" y="-189" font-family="Cascadia Code NF" font-size="10.00">+</text>
<text text-anchor="start" x="530" y="-189" font-family="Cascadia Code NF" font-size="10.00">type()</text>
<text text-anchor="start" x="513" y="-173" font-family="Cascadia Code NF" font-size="10.00">+</text>
<text text-anchor="start" x="530" y="-173" font-family="Cascadia Code NF" font-size="10.00">TypeAsString()</text>
<text text-anchor="start" x="513" y="-157" font-family="Cascadia Code NF" font-size="10.00">+</text>
<text text-anchor="start" x="530" y="-157" font-family="Cascadia Code NF" font-size="10.00">New()</text>
<text text-anchor="start" x="513" y="-141" font-family="Cascadia Code NF" font-size="10.00">+</text>
<text text-anchor="start" x="530" y="-141" font-family="Cascadia Code NF" font-size="10.00">ResolvedOptions()</text>
<text text-anchor="start" x="513" y="-125" font-family="Cascadia Code NF" font-size="10.00">+</text>
<text text-anchor="start" x="530" y="-125" font-family="Cascadia Code NF" font-size="10.00">ResolvePlural()</text>
<text text-anchor="start" x="513" y="-109" font-family="Cascadia Code NF" font-size="10.00">+</text>
<text text-anchor="start" x="530" y="-109" font-family="Cascadia Code NF" font-size="10.00">ResolvePluralRange()</text>
<text text-anchor="start" x="513" y="-93" font-family="Cascadia Code NF" font-size="10.00">+</text>
<text text-anchor="start" x="530" y="-93" font-family="Cascadia Code NF" font-size="10.00">GetAvailableLocales()</text>
<polygon fill="#666666" stroke="#666666" points="502,-232.5 502,-232.5 674,-232.5 674,-232.5 502,-232.5"/>
<polygon fill="#666666" stroke="#666666" points="502,-216.5 502,-216.5 674,-216.5 674,-216.5 502,-216.5"/>
<polygon fill="none" stroke="#666666" points="502,-86.5 502,-250.5 674,-250.5 674,-86.5 502,-86.5"/>
</a>
</g>
</g>
<!-- Node2 -->
<g id="Node000002" class="node">
<title>Node2</title>
<g id="a_Node000002"><a xlink:href="../../d4/d08/classTorqueGeneratedJSPluralRules.html" target="_top" xlink:title=" ">
<polygon fill="white" stroke="none" points="466,-337 268,-337 268,0 466,0 466,-337"/>
<text text-anchor="start" x="283" y="-323.5" font-family="Cascadia Code NF" font-size="10.00">TorqueGeneratedJSPluralRules</text>
<text text-anchor="start" x="286" y="-310.75" font-family="Cascadia Code NF" font-size="10.00">&lt; JSPluralRules, JSObject &gt;</text>
<text text-anchor="start" x="272" y="-294.5" font-family="Cascadia Code NF" font-size="10.00">+</text>
<text text-anchor="start" x="282" y="-294.5" font-family="Cascadia Code NF" font-size="10.00">kStartOfStrongFieldsOffset</text>
<text text-anchor="start" x="272" y="-278.5" font-family="Cascadia Code NF" font-size="10.00">+</text>
<text text-anchor="start" x="282" y="-278.5" font-family="Cascadia Code NF" font-size="10.00">kLocaleOffsetEnd</text>
<text text-anchor="start" x="272" y="-262.5" font-family="Cascadia Code NF" font-size="10.00">+</text>
<text text-anchor="start" x="282" y="-262.5" font-family="Cascadia Code NF" font-size="10.00">kStartOfWeakFieldsOffset</text>
<text text-anchor="start" x="272" y="-246.5" font-family="Cascadia Code NF" font-size="10.00">+</text>
<text text-anchor="start" x="282" y="-246.5" font-family="Cascadia Code NF" font-size="10.00">locale()</text>
<text text-anchor="start" x="272" y="-230.5" font-family="Cascadia Code NF" font-size="10.00">+</text>
<text text-anchor="start" x="282" y="-230.5" font-family="Cascadia Code NF" font-size="10.00">locale()</text>
<text text-anchor="start" x="272" y="-214.5" font-family="Cascadia Code NF" font-size="10.00">+</text>
<text text-anchor="start" x="282" y="-214.5" font-family="Cascadia Code NF" font-size="10.00">set_locale()</text>
<text text-anchor="start" x="272" y="-198.5" font-family="Cascadia Code NF" font-size="10.00">+</text>
<text text-anchor="start" x="282" y="-198.5" font-family="Cascadia Code NF" font-size="10.00">flags()</text>
<text text-anchor="start" x="272" y="-182.5" font-family="Cascadia Code NF" font-size="10.00">+</text>
<text text-anchor="start" x="282" y="-182.5" font-family="Cascadia Code NF" font-size="10.00">set_flags()</text>
<text text-anchor="start" x="272" y="-166.5" font-family="Cascadia Code NF" font-size="10.00">+</text>
<text text-anchor="start" x="282" y="-166.5" font-family="Cascadia Code NF" font-size="10.00">icu_plural_rules()</text>
<text text-anchor="start" x="272" y="-150.5" font-family="Cascadia Code NF" font-size="10.00">+</text>
<text text-anchor="start" x="282" y="-150.5" font-family="Cascadia Code NF" font-size="10.00">icu_plural_rules()</text>
<text text-anchor="start" x="272" y="-134.5" font-family="Cascadia Code NF" font-size="10.00">+</text>
<text text-anchor="start" x="282" y="-134.5" font-family="Cascadia Code NF" font-size="10.00">set_icu_plural_rules()</text>
<text text-anchor="start" x="272" y="-118.5" font-family="Cascadia Code NF" font-size="10.00">+</text>
<text text-anchor="start" x="282" y="-118.5" font-family="Cascadia Code NF" font-size="10.00">icu_number_formatter()</text>
<text text-anchor="start" x="272" y="-102.5" font-family="Cascadia Code NF" font-size="10.00">+</text>
<text text-anchor="start" x="282" y="-102.5" font-family="Cascadia Code NF" font-size="10.00">icu_number_formatter()</text>
<text text-anchor="start" x="272" y="-86.5" font-family="Cascadia Code NF" font-size="10.00">+</text>
<text text-anchor="start" x="282" y="-86.5" font-family="Cascadia Code NF" font-size="10.00">set_icu_number_formatter()</text>
<text text-anchor="start" x="272" y="-70.5" font-family="Cascadia Code NF" font-size="10.00">+</text>
<text text-anchor="start" x="282" y="-70.5" font-family="Cascadia Code NF" font-size="10.00">TorqueGeneratedJSPluralRules()</text>
<text text-anchor="start" x="272" y="-54.5" font-family="Cascadia Code NF" font-size="10.00">+</text>
<text text-anchor="start" x="282" y="-54.5" font-family="Cascadia Code NF" font-size="10.00">cast()</text>
<text text-anchor="start" x="272" y="-38.5" font-family="Cascadia Code NF" font-size="10.00">+</text>
<text text-anchor="start" x="282" y="-38.5" font-family="Cascadia Code NF" font-size="10.00">unchecked_cast()</text>
<text text-anchor="start" x="272" y="-22.5" font-family="Cascadia Code NF" font-size="10.00">#</text>
<text text-anchor="start" x="282" y="-22.5" font-family="Cascadia Code NF" font-size="10.00">TorqueGeneratedJSPluralRules()</text>
<text text-anchor="start" x="272" y="-6.5" font-family="Cascadia Code NF" font-size="10.00">#</text>
<text text-anchor="start" x="282" y="-6.5" font-family="Cascadia Code NF" font-size="10.00">TorqueGeneratedJSPluralRules()</text>
<polygon fill="#bfbfbf" stroke="#bfbfbf" points="268,-306 268,-306 466,-306 466,-306 268,-306"/>
<polygon fill="#bfbfbf" stroke="#bfbfbf" points="268,-258 268,-258 280,-258 280,-258 268,-258"/>
<polygon fill="#bfbfbf" stroke="#bfbfbf" points="280,-258 280,-258 466,-258 466,-258 280,-258"/>
<polygon fill="none" stroke="#bfbfbf" points="268,0 268,-337 466,-337 466,0 268,0"/>
</a>
</g>
</g>
<!-- Node2&#45;&gt;Node1 -->
<g id="edge1_Node000001_Node000002" class="edge">
<title>Node2&#45;&gt;Node1</title>
<g id="a_edge1_Node000001_Node000002"><a xlink:title=" ">
<path fill="none" stroke="#63b8ff" d="M477.32,-168.5C485.67,-168.5 494.01,-168.5 502.16,-168.5"/>
<polygon fill="none" stroke="#63b8ff" points="477.48,-165 467.48,-168.5 477.48,-172 477.48,-165"/>
</a>
</g>
</g>
<!-- Node3 -->
<g id="Node000003" class="node">
<title>Node3</title>
<g id="a_Node000003"><a xlink:title=" ">
<polygon fill="white" stroke="none" points="58,-276.5 0,-276.5 0,-224.5 58,-224.5 58,-276.5"/>
<text text-anchor="start" x="5" y="-263" font-family="Cascadia Code NF" font-size="10.00">JSObject</text>
<text text-anchor="start" x="26" y="-247" font-family="Cascadia Code NF" font-size="10.00"> </text>
<text text-anchor="start" x="26" y="-231" font-family="Cascadia Code NF" font-size="10.00"> </text>
<polygon fill="#bfbfbf" stroke="#bfbfbf" points="0,-258.5 0,-258.5 58,-258.5 58,-258.5 0,-258.5"/>
<polygon fill="#bfbfbf" stroke="#bfbfbf" points="0,-242.5 0,-242.5 58,-242.5 58,-242.5 0,-242.5"/>
<polygon fill="none" stroke="#bfbfbf" points="0,-224.5 0,-276.5 58,-276.5 58,-224.5 0,-224.5"/>
</a>
</g>
</g>
<!-- Node3&#45;&gt;Node2 -->
<g id="edge2_Node000002_Node000003" class="edge">
<title>Node3&#45;&gt;Node2</title>
<g id="a_edge2_Node000002_Node000003"><a xlink:title=" ">
<path fill="none" stroke="#63b8ff" d="M69.23,-250.98C113.9,-250.53 188.65,-246.71 250,-228.5 255.98,-226.73 262.01,-224.64 268.01,-222.33"/>
<polygon fill="none" stroke="#63b8ff" points="69.23,-247.48 59.25,-251.02 69.26,-254.48 69.23,-247.48"/>
</a>
</g>
</g>
<!-- Node4 -->
<g id="Node000004" class="node">
<title>Node4</title>
<g id="a_Node000004"><a xlink:href="../../d1/da0/classint.html" target="_top" xlink:title=" ">
<polygon fill="white" stroke="none" points="43,-113.5 15,-113.5 15,-61.5 43,-61.5 43,-113.5"/>
<text text-anchor="start" x="20" y="-100" font-family="Cascadia Code NF" font-size="10.00">int</text>
<text text-anchor="start" x="26" y="-84" font-family="Cascadia Code NF" font-size="10.00"> </text>
<text text-anchor="start" x="26" y="-68" font-family="Cascadia Code NF" font-size="10.00"> </text>
<polygon fill="#bfbfbf" stroke="#bfbfbf" points="15,-95.5 15,-95.5 43,-95.5 43,-95.5 15,-95.5"/>
<polygon fill="#bfbfbf" stroke="#bfbfbf" points="15,-79.5 15,-79.5 43,-79.5 43,-79.5 15,-79.5"/>
<polygon fill="none" stroke="#bfbfbf" points="15,-61.5 15,-113.5 43,-113.5 43,-61.5 15,-61.5"/>
</a>
</g>
</g>
<!-- Node4&#45;&gt;Node2 -->
<g id="edge3_Node000002_Node000004" class="edge">
<title>Node4&#45;&gt;Node2</title>
<g id="a_edge3_Node000002_Node000004"><a xlink:title=" ">
<path fill="none" stroke="#63b8ff" d="M42.8,-84.97C77.28,-78.69 174.57,-64.56 250,-88.25 252.09,-88.91 254.17,-89.61 256.25,-90.37"/>
<polygon fill="none" stroke="#63b8ff" points="256.11,-90.31 263.18,-88.87 267.22,-94.84 260.16,-96.28 256.11,-90.31"/>
</a>
</g>
<text text-anchor="middle" x="163" y="-218.25" font-family="Cascadia Code NF" font-size="10.00" fill="grey"> +kEndOfStrongFieldsOffset</text>
<text text-anchor="middle" x="163" y="-205.5" font-family="Cascadia Code NF" font-size="10.00" fill="grey">+kEndOfWeakFieldsOffset</text>
<text text-anchor="middle" x="163" y="-192.75" font-family="Cascadia Code NF" font-size="10.00" fill="grey">+kFlagsOffset</text>
<text text-anchor="middle" x="163" y="-180" font-family="Cascadia Code NF" font-size="10.00" fill="grey">+kFlagsOffsetEnd</text>
<text text-anchor="middle" x="163" y="-167.25" font-family="Cascadia Code NF" font-size="10.00" fill="grey">+kHeaderSize</text>
<text text-anchor="middle" x="163" y="-154.5" font-family="Cascadia Code NF" font-size="10.00" fill="grey">+kIcuNumberFormatterOffset</text>
<text text-anchor="middle" x="163" y="-141.75" font-family="Cascadia Code NF" font-size="10.00" fill="grey">+kIcuNumberFormatterOffsetEnd</text>
<text text-anchor="middle" x="163" y="-129" font-family="Cascadia Code NF" font-size="10.00" fill="grey">+kIcuPluralRulesOffset</text>
<text text-anchor="middle" x="163" y="-116.25" font-family="Cascadia Code NF" font-size="10.00" fill="grey">+kIcuPluralRulesOffsetEnd</text>
<text text-anchor="middle" x="163" y="-103.5" font-family="Cascadia Code NF" font-size="10.00" fill="grey">+kLocaleOffset</text>
<text text-anchor="middle" x="163" y="-90.75" font-family="Cascadia Code NF" font-size="10.00" fill="grey">...</text>
</g>
</g>
</svg>

<g id="navigator" transform="translate(0 0)" fill="#404254">
  <rect fill="#f2f5e9" fill-opacity="0.5" stroke="#606060" stroke-width=".5" x="0" y="0" width="60" height="60"/>
  <use id="zoomplus" xlink:href="#zoomPlus" x="17" y="9" onmousedown="handleZoom(evt,'in')"/>
  <use id="zoomminus" xlink:href="#zoomMin" x="42" y="9" onmousedown="handleZoom(evt,'out')"/>
  <use id="reset" xlink:href="#resetDef" x="30" y="36" onmousedown="handleReset()"/>
   <use id="arrowup" xlink:href="#arrowUp" x="0" y="0" onmousedown="handlePan(0,-1)"/>
  <use id="arrowright" xlink:href="#arrowRight" x="0" y="0" onmousedown="handlePan(1,0)"/>
  <use id="arrowdown" xlink:href="#arrowDown" x="0" y="0" onmousedown="handlePan(0,1)"/>
  <use id="arrowleft" xlink:href="#arrowLeft" x="0" y="0" onmousedown="handlePan(-1,0)"/>
</g>
<svg viewBox="0 0 15 15" width="100%" height="30px" preserveAspectRatio="xMaxYMin meet">
 <g id="arrow_out" transform="scale(0.3 0.3)">
  <a xlink:href="classv8_1_1internal_1_1JSPluralRules__coll__graph_org.svg" target="_base">
   <rect id="button" ry="5" rx="5" y="6" x="6" height="38" width="38"
        fill="#f2f5e9" fill-opacity="0.5" stroke="#606060" stroke-width="1.0"/>
   <path id="arrow"
     d="M 11.500037,31.436501 C 11.940474,20.09759 22.043105,11.32322 32.158766,21.979434 L 37.068811,17.246167 C 37.068811,17.246167 37.088388,32 37.088388,32 L 22.160133,31.978069 C 22.160133,31.978069 26.997745,27.140456 26.997745,27.140456 C 18.528582,18.264221 13.291696,25.230495 11.500037,31.436501 z"
     style="fill:#404040;"/>
  </a>
 </g>
</svg>

<style type='text/css'>
<![CDATA[
[data-mouse-over-selected='false'] { opacity: 0.7; }
[data-mouse-over-selected='true']  { opacity: 1.0; }
]]>
</style>
<script type="application/ecmascript"><![CDATA[
document.addEventListener('DOMContentLoaded', (event) => {
  highlightEdges();
  highlightAdjacentNodes();
});
]]></script>
</svg>
