<?xml version="1.0" encoding="UTF-8" standalone="no"?>
<!DOCTYPE svg PUBLIC "-//W3C//DTD SVG 1.1//EN"
 "http://www.w3.org/Graphics/SVG/1.1/DTD/svg11.dtd">
<!-- Generated by graphviz version 11.0.0 (20240428.1522)
 -->
<!-- Title: v8::internal::compiler::CheckpointElimination Pages: 1 -->
<svg width="366pt" height="121pt"
 viewBox="0.00 0.00 366.00 121.00" xmlns="http://www.w3.org/2000/svg" xmlns:xlink="http://www.w3.org/1999/xlink">
<g id="graph0" class="graph" transform="scale(1 1) rotate(0) translate(4 117)">
<title>v8::internal::compiler::CheckpointElimination</title>
<!-- Node1 -->
<g id="Node000001" class="node">
<title>Node1</title>
<g id="a_Node000001"><a xlink:title=" ">
<polygon fill="#999999" stroke="none" points="358,-113 196,-113 196,0 358,0 358,-113"/>
<text text-anchor="start" x="208" y="-99.5" font-family="Cascadia Code NF" font-size="10.00">v8::internal::compiler</text>
<text text-anchor="start" x="208" y="-86.75" font-family="Cascadia Code NF" font-size="10.00">::CheckpointElimination</text>
<text text-anchor="start" x="274" y="-70.5" font-family="Cascadia Code NF" font-size="10.00"> </text>
<text text-anchor="start" x="200" y="-54.5" font-family="Cascadia Code NF" font-size="10.00">+</text>
<text text-anchor="start" x="210" y="-54.5" font-family="Cascadia Code NF" font-size="10.00">CheckpointElimination()</text>
<text text-anchor="start" x="200" y="-38.5" font-family="Cascadia Code NF" font-size="10.00">+</text>
<text text-anchor="start" x="210" y="-38.5" font-family="Cascadia Code NF" font-size="10.00">~CheckpointElimination()</text>
<text text-anchor="start" x="200" y="-22.5" font-family="Cascadia Code NF" font-size="10.00">+</text>
<text text-anchor="start" x="210" y="-22.5" font-family="Cascadia Code NF" font-size="10.00">reducer_name()</text>
<text text-anchor="start" x="200" y="-6.5" font-family="Cascadia Code NF" font-size="10.00">+</text>
<text text-anchor="start" x="210" y="-6.5" font-family="Cascadia Code NF" font-size="10.00">Reduce()</text>
<polygon fill="#666666" stroke="#666666" points="196,-82 196,-82 358,-82 358,-82 196,-82"/>
<polygon fill="#666666" stroke="#666666" points="196,-66 196,-66 358,-66 358,-66 196,-66"/>
<polygon fill="none" stroke="#666666" points="196,0 196,-113 358,-113 358,0 196,0"/>
</a>
</g>
</g>
<!-- Node2 -->
<g id="Node000002" class="node">
<title>Node2</title>
<g id="a_Node000002"><a xlink:href="$d1/dd7/classNON__EXPORTED__BASEAdvancedReducer.html" xlink:title=" ">
<polygon fill="white" stroke="none" points="160,-89 0,-89 0,-24 160,-24 160,-89"/>
<text text-anchor="start" x="5" y="-75.5" font-family="Cascadia Code NF" font-size="10.00">NON_EXPORTED_BASEAdvanced</text>
<text text-anchor="start" x="59" y="-62.75" font-family="Cascadia Code NF" font-size="10.00">Reducer</text>
<text text-anchor="start" x="77" y="-46.5" font-family="Cascadia Code NF" font-size="10.00"> </text>
<text text-anchor="start" x="77" y="-30.5" font-family="Cascadia Code NF" font-size="10.00"> </text>
<polygon fill="#bfbfbf" stroke="#bfbfbf" points="0,-58 0,-58 160,-58 160,-58 0,-58"/>
<polygon fill="#bfbfbf" stroke="#bfbfbf" points="0,-42 0,-42 160,-42 160,-42 0,-42"/>
<polygon fill="none" stroke="#bfbfbf" points="0,-24 0,-89 160,-89 160,-24 0,-24"/>
</a>
</g>
</g>
<!-- Node2&#45;&gt;Node1 -->
<g id="edge1_Node000001_Node000002" class="edge">
<title>Node2&#45;&gt;Node1</title>
<g id="a_edge1_Node000001_Node000002"><a xlink:title=" ">
<path fill="none" stroke="#63b8ff" d="M171.04,-56.5C179.37,-56.5 187.77,-56.5 196,-56.5"/>
<polygon fill="none" stroke="#63b8ff" points="171.27,-53 161.27,-56.5 171.27,-60 171.27,-53"/>
</a>
</g>
</g>
</g>
</svg>
