<?xml version="1.0" encoding="UTF-8" standalone="no"?>
<!DOCTYPE svg PUBLIC "-//W3C//DTD SVG 1.1//EN"
 "http://www.w3.org/Graphics/SVG/1.1/DTD/svg11.dtd">
<!-- Generated by graphviz version 11.0.0 (20240428.1522)
 -->
<!-- Title: v8::internal::torque::PeekInstruction Pages: 1 -->
<svg width="372pt" height="201pt"
 viewBox="0.00 0.00 372.00 201.00" xmlns="http://www.w3.org/2000/svg" xmlns:xlink="http://www.w3.org/1999/xlink">
<g id="graph0" class="graph" transform="scale(1 1) rotate(0) translate(4 197)">
<title>v8::internal::torque::PeekInstruction</title>
<!-- Node1 -->
<g id="Node000001" class="node">
<title>Node1</title>
<g id="a_Node000001"><a xlink:title=" ">
<polygon fill="#999999" stroke="none" points="364,-137 234,-137 234,-56 364,-56 364,-137"/>
<text text-anchor="start" x="239" y="-123.5" font-family="Cascadia Code NF" font-size="10.00">v8::internal::torque</text>
<text text-anchor="start" x="248" y="-110.75" font-family="Cascadia Code NF" font-size="10.00">::PeekInstruction</text>
<text text-anchor="start" x="240.5" y="-94.5" font-family="Cascadia Code NF" font-size="10.00">+</text>
<text text-anchor="start" x="253" y="-94.5" font-family="Cascadia Code NF" font-size="10.00">slot</text>
<text text-anchor="start" x="240.5" y="-78.5" font-family="Cascadia Code NF" font-size="10.00">+</text>
<text text-anchor="start" x="253" y="-78.5" font-family="Cascadia Code NF" font-size="10.00">widened_type</text>
<text text-anchor="start" x="240.5" y="-62.5" font-family="Cascadia Code NF" font-size="10.00">+</text>
<text text-anchor="start" x="253" y="-62.5" font-family="Cascadia Code NF" font-size="10.00">PeekInstruction()</text>
<polygon fill="#666666" stroke="#666666" points="234,-106 234,-106 364,-106 364,-106 234,-106"/>
<polygon fill="#666666" stroke="#666666" points="234,-74 234,-74 251,-74 251,-74 234,-74"/>
<polygon fill="#666666" stroke="#666666" points="251,-74 251,-74 364,-74 364,-74 251,-74"/>
<polygon fill="none" stroke="#666666" points="234,-56 234,-137 364,-137 364,-56 234,-56"/>
</a>
</g>
</g>
<!-- Node2 -->
<g id="Node000002" class="node">
<title>Node2</title>
<g id="a_Node000002"><a xlink:href="../../da/d63/structv8_1_1internal_1_1torque_1_1InstructionBase.html" target="_top" xlink:title=" ">
<polygon fill="white" stroke="none" points="198,-193 0,-193 0,0 198,0 198,-193"/>
<text text-anchor="start" x="39" y="-179.5" font-family="Cascadia Code NF" font-size="10.00">v8::internal::torque</text>
<text text-anchor="start" x="48" y="-166.75" font-family="Cascadia Code NF" font-size="10.00">::InstructionBase</text>
<text text-anchor="start" x="4" y="-150.5" font-family="Cascadia Code NF" font-size="10.00">+</text>
<text text-anchor="start" x="14" y="-150.5" font-family="Cascadia Code NF" font-size="10.00">pos</text>
<text text-anchor="start" x="4" y="-134.5" font-family="Cascadia Code NF" font-size="10.00">+</text>
<text text-anchor="start" x="14" y="-134.5" font-family="Cascadia Code NF" font-size="10.00">InstructionBase()</text>
<text text-anchor="start" x="4" y="-118.5" font-family="Cascadia Code NF" font-size="10.00">+</text>
<text text-anchor="start" x="14" y="-118.5" font-family="Cascadia Code NF" font-size="10.00">Clone()</text>
<text text-anchor="start" x="4" y="-102.5" font-family="Cascadia Code NF" font-size="10.00">+</text>
<text text-anchor="start" x="14" y="-102.5" font-family="Cascadia Code NF" font-size="10.00">Assign()</text>
<text text-anchor="start" x="4" y="-86.5" font-family="Cascadia Code NF" font-size="10.00">+</text>
<text text-anchor="start" x="14" y="-86.5" font-family="Cascadia Code NF" font-size="10.00">~InstructionBase()</text>
<text text-anchor="start" x="4" y="-70.5" font-family="Cascadia Code NF" font-size="10.00">+</text>
<text text-anchor="start" x="14" y="-70.5" font-family="Cascadia Code NF" font-size="10.00">TypeInstruction()</text>
<text text-anchor="start" x="4" y="-54.5" font-family="Cascadia Code NF" font-size="10.00">+</text>
<text text-anchor="start" x="14" y="-54.5" font-family="Cascadia Code NF" font-size="10.00">RecomputeDefinitionLocations()</text>
<text text-anchor="start" x="4" y="-38.5" font-family="Cascadia Code NF" font-size="10.00">+</text>
<text text-anchor="start" x="14" y="-38.5" font-family="Cascadia Code NF" font-size="10.00">InvalidateTransientTypes()</text>
<text text-anchor="start" x="4" y="-22.5" font-family="Cascadia Code NF" font-size="10.00">+</text>
<text text-anchor="start" x="14" y="-22.5" font-family="Cascadia Code NF" font-size="10.00">IsBlockTerminator()</text>
<text text-anchor="start" x="4" y="-6.5" font-family="Cascadia Code NF" font-size="10.00">+</text>
<text text-anchor="start" x="14" y="-6.5" font-family="Cascadia Code NF" font-size="10.00">AppendSuccessorBlocks()</text>
<polygon fill="#bfbfbf" stroke="#bfbfbf" points="0,-162 0,-162 198,-162 198,-162 0,-162"/>
<polygon fill="#bfbfbf" stroke="#bfbfbf" points="0,-146 0,-146 12,-146 12,-146 0,-146"/>
<polygon fill="#bfbfbf" stroke="#bfbfbf" points="12,-146 12,-146 198,-146 198,-146 12,-146"/>
<polygon fill="none" stroke="#bfbfbf" points="0,0 0,-193 198,-193 198,0 0,0"/>
</a>
</g>
</g>
<!-- Node2&#45;&gt;Node1 -->
<g id="edge1_Node000001_Node000002" class="edge">
<title>Node2&#45;&gt;Node1</title>
<g id="a_edge1_Node000001_Node000002"><a xlink:title=" ">
<path fill="none" stroke="#63b8ff" d="M209.13,-96.5C217.7,-96.5 226.16,-96.5 234.26,-96.5"/>
<polygon fill="none" stroke="#63b8ff" points="209.35,-93 199.35,-96.5 209.35,-100 209.35,-93"/>
</a>
</g>
</g>
</g>
</svg>
