<?xml version="1.0" encoding="UTF-8" standalone="no"?>
<!DOCTYPE svg PUBLIC "-//W3C//DTD SVG 1.1//EN"
 "http://www.w3.org/Graphics/SVG/1.1/DTD/svg11.dtd">
<!-- Generated by graphviz version 11.0.0 (20240428.1522)
 -->
<!-- Title: v8::internal::compiler::turboshaft::GrowingBlockSidetable&lt; T &gt; Pages: 1 -->
<svg width="502pt" height="182pt"
 viewBox="0.00 0.00 502.00 182.00" xmlns="http://www.w3.org/2000/svg" xmlns:xlink="http://www.w3.org/1999/xlink">
<g id="graph0" class="graph" transform="scale(1 1) rotate(0) translate(4 178)">
<title>v8::internal::compiler::turboshaft::GrowingBlockSidetable&lt; T &gt;</title>
<!-- Node1 -->
<g id="Node000001" class="node">
<title>Node1</title>
<g id="a_Node000001"><a xlink:title=" ">
<polygon fill="#999999" stroke="none" points="494,-127.5 244,-127.5 244,-46.5 494,-46.5 494,-127.5"/>
<text text-anchor="start" x="249" y="-114" font-family="Cascadia Code NF" font-size="10.00">v8::internal::compiler</text>
<text text-anchor="start" x="249" y="-101.25" font-family="Cascadia Code NF" font-size="10.00">::turboshaft::GrowingBlockSidetable&lt; T &gt;</text>
<text text-anchor="start" x="366" y="-85" font-family="Cascadia Code NF" font-size="10.00"> </text>
<text text-anchor="start" x="271.5" y="-69" font-family="Cascadia Code NF" font-size="10.00">+</text>
<text text-anchor="start" x="305" y="-69" font-family="Cascadia Code NF" font-size="10.00">GrowingBlockSidetable()</text>
<text text-anchor="start" x="271.5" y="-53" font-family="Cascadia Code NF" font-size="10.00">+</text>
<text text-anchor="start" x="305" y="-53" font-family="Cascadia Code NF" font-size="10.00">GrowingBlockSidetable()</text>
<polygon fill="#666666" stroke="#666666" points="244,-96.5 244,-96.5 494,-96.5 494,-96.5 244,-96.5"/>
<polygon fill="#666666" stroke="#666666" points="244,-80.5 244,-80.5 494,-80.5 494,-80.5 244,-80.5"/>
<polygon fill="none" stroke="#666666" points="244,-46.5 244,-127.5 494,-127.5 494,-46.5 244,-46.5"/>
</a>
</g>
</g>
<!-- Node2 -->
<g id="Node000002" class="node">
<title>Node2</title>
<g id="a_Node000002"><a xlink:href="$d9/daf/classv8_1_1internal_1_1compiler_1_1turboshaft_1_1detail_1_1GrowingSidetable.html" xlink:title=" ">
<polygon fill="white" stroke="none" points="208,-174 0,-174 0,0 208,0 208,-174"/>
<text text-anchor="start" x="5" y="-160.5" font-family="Cascadia Code NF" font-size="10.00">v8::internal::compiler</text>
<text text-anchor="start" x="5" y="-147.75" font-family="Cascadia Code NF" font-size="10.00">::turboshaft::detail::</text>
<text text-anchor="start" x="5" y="-135" font-family="Cascadia Code NF" font-size="10.00">GrowingSidetable&lt; T, BlockIndex &gt;</text>
<text text-anchor="start" x="24.5" y="-118.5" font-family="Cascadia Code NF" font-size="10.00">#</text>
<text text-anchor="start" x="55" y="-118.5" font-family="Cascadia Code NF" font-size="10.00">table_</text>
<text text-anchor="start" x="24.5" y="-102.5" font-family="Cascadia Code NF" font-size="10.00">+</text>
<text text-anchor="start" x="55" y="-102.5" font-family="Cascadia Code NF" font-size="10.00">operator[]()</text>
<text text-anchor="start" x="24.5" y="-86.5" font-family="Cascadia Code NF" font-size="10.00">+</text>
<text text-anchor="start" x="55" y="-86.5" font-family="Cascadia Code NF" font-size="10.00">operator[]()</text>
<text text-anchor="start" x="24.5" y="-70.5" font-family="Cascadia Code NF" font-size="10.00">+</text>
<text text-anchor="start" x="55" y="-70.5" font-family="Cascadia Code NF" font-size="10.00">Reset()</text>
<text text-anchor="start" x="24.5" y="-54.5" font-family="Cascadia Code NF" font-size="10.00">+</text>
<text text-anchor="start" x="55" y="-54.5" font-family="Cascadia Code NF" font-size="10.00">empty()</text>
<text text-anchor="start" x="24.5" y="-38.5" font-family="Cascadia Code NF" font-size="10.00">#</text>
<text text-anchor="start" x="55" y="-38.5" font-family="Cascadia Code NF" font-size="10.00">GrowingSidetable()</text>
<text text-anchor="start" x="24.5" y="-22.5" font-family="Cascadia Code NF" font-size="10.00">#</text>
<text text-anchor="start" x="55" y="-22.5" font-family="Cascadia Code NF" font-size="10.00">GrowingSidetable()</text>
<text text-anchor="start" x="24.5" y="-6.5" font-family="Cascadia Code NF" font-size="10.00">#</text>
<text text-anchor="start" x="55" y="-6.5" font-family="Cascadia Code NF" font-size="10.00">NextSize()</text>
<polygon fill="#bfbfbf" stroke="#bfbfbf" points="0,-130 0,-130 208,-130 208,-130 0,-130"/>
<polygon fill="#bfbfbf" stroke="#bfbfbf" points="0,-114 0,-114 53,-114 53,-114 0,-114"/>
<polygon fill="#bfbfbf" stroke="#bfbfbf" points="53,-114 53,-114 208,-114 208,-114 53,-114"/>
<polygon fill="none" stroke="#bfbfbf" points="0,0 0,-174 208,-174 208,0 0,0"/>
</a>
</g>
</g>
<!-- Node2&#45;&gt;Node1 -->
<g id="edge1_Node000001_Node000002" class="edge">
<title>Node2&#45;&gt;Node1</title>
<g id="a_edge1_Node000001_Node000002"><a xlink:title=" ">
<path fill="none" stroke="#63b8ff" d="M219.11,-87C227.44,-87 235.87,-87 244.26,-87"/>
<polygon fill="none" stroke="#63b8ff" points="219.33,-83.5 209.33,-87 219.33,-90.5 219.33,-83.5"/>
</a>
</g>
</g>
</g>
</svg>
