<?xml version="1.0" encoding="UTF-8" standalone="no"?>
<!DOCTYPE svg PUBLIC "-//W3C//DTD SVG 1.1//EN"
 "http://www.w3.org/Graphics/SVG/1.1/DTD/svg11.dtd">
<!-- Generated by graphviz version 11.0.0 (20240428.1522)
 -->
<!-- Title: v8::internal::WasmSuspenderObject Pages: 1 -->
<svg width="646pt" height="464pt"
 viewBox="0.00 0.00 646.00 464.00" xmlns="http://www.w3.org/2000/svg" xmlns:xlink="http://www.w3.org/1999/xlink">
<g id="graph0" class="graph" transform="scale(1 1) rotate(0) translate(4 460)">
<title>v8::internal::WasmSuspenderObject</title>
<!-- Node1 -->
<g id="Node000001" class="node">
<title>Node1</title>
<g id="a_Node000001"><a xlink:title=" ">
<polygon fill="#999999" stroke="none" points="638,-260.5 466,-260.5 466,-195.5 638,-195.5 638,-260.5"/>
<text text-anchor="start" x="471" y="-247" font-family="Cascadia Code NF" font-size="10.00">v8::internal::WasmSuspender</text>
<text text-anchor="start" x="534" y="-234.25" font-family="Cascadia Code NF" font-size="10.00">Object</text>
<text text-anchor="start" x="549" y="-218" font-family="Cascadia Code NF" font-size="10.00"> </text>
<text text-anchor="start" x="501" y="-202" font-family="Cascadia Code NF" font-size="10.00">+</text>
<text text-anchor="start" x="542" y="-202" font-family="Cascadia Code NF" font-size="10.00">New()</text>
<polygon fill="#666666" stroke="#666666" points="466,-229.5 466,-229.5 638,-229.5 638,-229.5 466,-229.5"/>
<polygon fill="#666666" stroke="#666666" points="466,-213.5 466,-213.5 638,-213.5 638,-213.5 466,-213.5"/>
<polygon fill="none" stroke="#666666" points="466,-195.5 466,-260.5 638,-260.5 638,-195.5 466,-195.5"/>
</a>
</g>
</g>
<!-- Node2 -->
<g id="Node000002" class="node">
<title>Node2</title>
<g id="a_Node000002"><a xlink:href="../../d6/dc5/classTorqueGeneratedWasmSuspenderObject.html" target="_top" xlink:title=" ">
<polygon fill="white" stroke="none" points="430,-456 244,-456 244,0 430,0 430,-456"/>
<text text-anchor="start" x="253" y="-442.5" font-family="Cascadia Code NF" font-size="10.00">TorqueGeneratedWasmSuspender</text>
<text text-anchor="start" x="253" y="-429.75" font-family="Cascadia Code NF" font-size="10.00">Object&lt; WasmSuspenderObject,</text>
<text text-anchor="start" x="304" y="-417" font-family="Cascadia Code NF" font-size="10.00"> JSObject &gt;</text>
<text text-anchor="start" x="248" y="-400.5" font-family="Cascadia Code NF" font-size="10.00">+</text>
<text text-anchor="start" x="258" y="-400.5" font-family="Cascadia Code NF" font-size="10.00">kStartOfStrongFieldsOffset</text>
<text text-anchor="start" x="248" y="-384.5" font-family="Cascadia Code NF" font-size="10.00">+</text>
<text text-anchor="start" x="258" y="-384.5" font-family="Cascadia Code NF" font-size="10.00">kPromiseOffsetEnd</text>
<text text-anchor="start" x="248" y="-368.5" font-family="Cascadia Code NF" font-size="10.00">+</text>
<text text-anchor="start" x="258" y="-368.5" font-family="Cascadia Code NF" font-size="10.00">kResumeOffset</text>
<text text-anchor="start" x="248" y="-352.5" font-family="Cascadia Code NF" font-size="10.00">+</text>
<text text-anchor="start" x="258" y="-352.5" font-family="Cascadia Code NF" font-size="10.00">kResumeOffsetEnd</text>
<text text-anchor="start" x="248" y="-336.5" font-family="Cascadia Code NF" font-size="10.00">+</text>
<text text-anchor="start" x="258" y="-336.5" font-family="Cascadia Code NF" font-size="10.00">kRejectOffset</text>
<text text-anchor="start" x="248" y="-320.5" font-family="Cascadia Code NF" font-size="10.00">+</text>
<text text-anchor="start" x="258" y="-320.5" font-family="Cascadia Code NF" font-size="10.00">kRejectOffsetEnd</text>
<text text-anchor="start" x="248" y="-304.5" font-family="Cascadia Code NF" font-size="10.00">+</text>
<text text-anchor="start" x="258" y="-304.5" font-family="Cascadia Code NF" font-size="10.00">kStateOffset</text>
<text text-anchor="start" x="248" y="-288.5" font-family="Cascadia Code NF" font-size="10.00">+</text>
<text text-anchor="start" x="258" y="-288.5" font-family="Cascadia Code NF" font-size="10.00">kStateOffsetEnd</text>
<text text-anchor="start" x="248" y="-272.5" font-family="Cascadia Code NF" font-size="10.00">+</text>
<text text-anchor="start" x="258" y="-272.5" font-family="Cascadia Code NF" font-size="10.00">kStartOfWeakFieldsOffset</text>
<text text-anchor="start" x="248" y="-256.5" font-family="Cascadia Code NF" font-size="10.00">+</text>
<text text-anchor="start" x="258" y="-256.5" font-family="Cascadia Code NF" font-size="10.00">continuation()</text>
<text text-anchor="start" x="248" y="-240.5" font-family="Cascadia Code NF" font-size="10.00">+</text>
<text text-anchor="start" x="258" y="-240.5" font-family="Cascadia Code NF" font-size="10.00">continuation()</text>
<text text-anchor="start" x="248" y="-224.5" font-family="Cascadia Code NF" font-size="10.00">+</text>
<text text-anchor="start" x="258" y="-224.5" font-family="Cascadia Code NF" font-size="10.00">set_continuation()</text>
<text text-anchor="start" x="248" y="-208.5" font-family="Cascadia Code NF" font-size="10.00">+</text>
<text text-anchor="start" x="258" y="-208.5" font-family="Cascadia Code NF" font-size="10.00">parent()</text>
<text text-anchor="start" x="248" y="-192.5" font-family="Cascadia Code NF" font-size="10.00">+</text>
<text text-anchor="start" x="258" y="-192.5" font-family="Cascadia Code NF" font-size="10.00">parent()</text>
<text text-anchor="start" x="248" y="-176.5" font-family="Cascadia Code NF" font-size="10.00">+</text>
<text text-anchor="start" x="258" y="-176.5" font-family="Cascadia Code NF" font-size="10.00">set_parent()</text>
<text text-anchor="start" x="248" y="-160.5" font-family="Cascadia Code NF" font-size="10.00">+</text>
<text text-anchor="start" x="258" y="-160.5" font-family="Cascadia Code NF" font-size="10.00">promise()</text>
<text text-anchor="start" x="248" y="-144.5" font-family="Cascadia Code NF" font-size="10.00">+</text>
<text text-anchor="start" x="258" y="-144.5" font-family="Cascadia Code NF" font-size="10.00">promise()</text>
<text text-anchor="start" x="248" y="-128.5" font-family="Cascadia Code NF" font-size="10.00">+</text>
<text text-anchor="start" x="258" y="-128.5" font-family="Cascadia Code NF" font-size="10.00">set_promise()</text>
<text text-anchor="start" x="248" y="-112.5" font-family="Cascadia Code NF" font-size="10.00">+</text>
<text text-anchor="start" x="258" y="-112.5" font-family="Cascadia Code NF" font-size="10.00">resume()</text>
<text text-anchor="start" x="258" y="-96.5" font-family="Cascadia Code NF" font-size="10.00">and 10 more...</text>
<text text-anchor="start" x="248" y="-80.5" font-family="Cascadia Code NF" font-size="10.00">+</text>
<text text-anchor="start" x="258" y="-80.5" font-family="Cascadia Code NF" font-size="10.00">cast()</text>
<text text-anchor="start" x="248" y="-64.5" font-family="Cascadia Code NF" font-size="10.00">+</text>
<text text-anchor="start" x="258" y="-64.5" font-family="Cascadia Code NF" font-size="10.00">unchecked_cast()</text>
<text text-anchor="start" x="248" y="-48.5" font-family="Cascadia Code NF" font-size="10.00">#</text>
<text text-anchor="start" x="258" y="-48.5" font-family="Cascadia Code NF" font-size="10.00">TorqueGeneratedWasmSuspender</text>
<text text-anchor="start" x="258" y="-35.75" font-family="Cascadia Code NF" font-size="10.00">Object()</text>
<text text-anchor="start" x="248" y="-19.5" font-family="Cascadia Code NF" font-size="10.00">#</text>
<text text-anchor="start" x="258" y="-19.5" font-family="Cascadia Code NF" font-size="10.00">TorqueGeneratedWasmSuspender</text>
<text text-anchor="start" x="258" y="-6.75" font-family="Cascadia Code NF" font-size="10.00">Object()</text>
<polygon fill="#bfbfbf" stroke="#bfbfbf" points="244,-412 244,-412 430,-412 430,-412 244,-412"/>
<polygon fill="#bfbfbf" stroke="#bfbfbf" points="244,-268 244,-268 256,-268 256,-268 244,-268"/>
<polygon fill="#bfbfbf" stroke="#bfbfbf" points="256,-268 256,-268 430,-268 430,-268 256,-268"/>
<polygon fill="none" stroke="#bfbfbf" points="244,0 244,-456 430,-456 430,0 244,0"/>
</a>
</g>
</g>
<!-- Node2&#45;&gt;Node1 -->
<g id="edge1_Node000001_Node000002" class="edge">
<title>Node2&#45;&gt;Node1</title>
<g id="a_edge1_Node000001_Node000002"><a xlink:title=" ">
<path fill="none" stroke="#63b8ff" d="M441.23,-228C449.58,-228 457.95,-228 466.15,-228"/>
<polygon fill="none" stroke="#63b8ff" points="441.39,-224.5 431.39,-228 441.39,-231.5 441.39,-224.5"/>
</a>
</g>
</g>
<!-- Node3 -->
<g id="Node000003" class="node">
<title>Node3</title>
<g id="a_Node000003"><a xlink:title=" ">
<polygon fill="white" stroke="none" points="58,-336 0,-336 0,-284 58,-284 58,-336"/>
<text text-anchor="start" x="5" y="-322.5" font-family="Cascadia Code NF" font-size="10.00">JSObject</text>
<text text-anchor="start" x="26" y="-306.5" font-family="Cascadia Code NF" font-size="10.00"> </text>
<text text-anchor="start" x="26" y="-290.5" font-family="Cascadia Code NF" font-size="10.00"> </text>
<polygon fill="#bfbfbf" stroke="#bfbfbf" points="0,-318 0,-318 58,-318 58,-318 0,-318"/>
<polygon fill="#bfbfbf" stroke="#bfbfbf" points="0,-302 0,-302 58,-302 58,-302 0,-302"/>
<polygon fill="none" stroke="#bfbfbf" points="0,-284 0,-336 58,-336 58,-284 0,-284"/>
</a>
</g>
</g>
<!-- Node3&#45;&gt;Node2 -->
<g id="edge2_Node000002_Node000003" class="edge">
<title>Node3&#45;&gt;Node2</title>
<g id="a_edge2_Node000002_Node000003"><a xlink:title=" ">
<path fill="none" stroke="#63b8ff" d="M69.41,-310.01C109.65,-309 173.51,-304.56 226,-288 232.02,-286.1 238.08,-283.86 244.11,-281.39"/>
<polygon fill="none" stroke="#63b8ff" points="69.41,-306.51 59.48,-310.19 69.54,-313.5 69.41,-306.51"/>
</a>
</g>
</g>
<!-- Node4 -->
<g id="Node000004" class="node">
<title>Node4</title>
<g id="a_Node000004"><a xlink:href="../../d1/da0/classint.html" target="_top" xlink:title=" ">
<polygon fill="white" stroke="none" points="43,-173 15,-173 15,-121 43,-121 43,-173"/>
<text text-anchor="start" x="20" y="-159.5" font-family="Cascadia Code NF" font-size="10.00">int</text>
<text text-anchor="start" x="26" y="-143.5" font-family="Cascadia Code NF" font-size="10.00"> </text>
<text text-anchor="start" x="26" y="-127.5" font-family="Cascadia Code NF" font-size="10.00"> </text>
<polygon fill="#bfbfbf" stroke="#bfbfbf" points="15,-155 15,-155 43,-155 43,-155 15,-155"/>
<polygon fill="#bfbfbf" stroke="#bfbfbf" points="15,-139 15,-139 43,-139 43,-139 15,-139"/>
<polygon fill="none" stroke="#bfbfbf" points="15,-121 15,-173 43,-173 43,-121 15,-121"/>
</a>
</g>
</g>
<!-- Node4&#45;&gt;Node2 -->
<g id="edge3_Node000002_Node000004" class="edge">
<title>Node4&#45;&gt;Node2</title>
<g id="a_edge3_Node000002_Node000004"><a xlink:title=" ">
<path fill="none" stroke="#63b8ff" d="M42.81,-144.4C74.74,-138.48 160.04,-126.11 226,-147.75 228.12,-148.45 230.24,-149.2 232.35,-150.01"/>
<polygon fill="none" stroke="#63b8ff" points="232.46,-150.06 239.55,-148.76 243.47,-154.82 236.38,-156.11 232.46,-150.06"/>
</a>
</g>
<text text-anchor="middle" x="151" y="-277.75" font-family="Cascadia Code NF" font-size="10.00" fill="grey"> +kContinuationOffset</text>
<text text-anchor="middle" x="151" y="-265" font-family="Cascadia Code NF" font-size="10.00" fill="grey">+kContinuationOffsetEnd</text>
<text text-anchor="middle" x="151" y="-252.25" font-family="Cascadia Code NF" font-size="10.00" fill="grey">+kEndOfStrongFieldsOffset</text>
<text text-anchor="middle" x="151" y="-239.5" font-family="Cascadia Code NF" font-size="10.00" fill="grey">+kEndOfWeakFieldsOffset</text>
<text text-anchor="middle" x="151" y="-226.75" font-family="Cascadia Code NF" font-size="10.00" fill="grey">+kHasJsFramesOffset</text>
<text text-anchor="middle" x="151" y="-214" font-family="Cascadia Code NF" font-size="10.00" fill="grey">+kHasJsFramesOffsetEnd</text>
<text text-anchor="middle" x="151" y="-201.25" font-family="Cascadia Code NF" font-size="10.00" fill="grey">+kHeaderSize</text>
<text text-anchor="middle" x="151" y="-188.5" font-family="Cascadia Code NF" font-size="10.00" fill="grey">+kParentOffset</text>
<text text-anchor="middle" x="151" y="-175.75" font-family="Cascadia Code NF" font-size="10.00" fill="grey">+kParentOffsetEnd</text>
<text text-anchor="middle" x="151" y="-163" font-family="Cascadia Code NF" font-size="10.00" fill="grey">+kPromiseOffset</text>
<text text-anchor="middle" x="151" y="-150.25" font-family="Cascadia Code NF" font-size="10.00" fill="grey">...</text>
</g>
</g>
</svg>
