<?xml version="1.0" encoding="UTF-8" standalone="no"?>
<!DOCTYPE svg PUBLIC "-//W3C//DTD SVG 1.1//EN"
 "http://www.w3.org/Graphics/SVG/1.1/DTD/svg11.dtd">
<!-- Generated by graphviz version 11.0.0 (20240428.1522)
 -->
<!-- Title: v8::internal::compiler::BinopMatcher&lt; Left, Right, rep &gt; Pages: 1 -->
<!--zoomable 198 -->

<svg id="main" version="1.1" xmlns="http://www.w3.org/2000/svg" xmlns:xlink="http://www.w3.org/1999/xlink" xml:space="preserve" onload="init(evt)">
<style type="text/css"><![CDATA[
.node, .edge {opacity: 0.7;}
.node.selected, .edge.selected {opacity: 1;}
.edge:hover path { stroke: red; }
.edge:hover polygon { stroke: red; fill: red; }
svg#main { background-color: #111; }
]]></style>

<defs>
  <circle id="rim" cx="0" cy="0" r="7"/>
  <circle id="rim2" cx="0" cy="0" r="3.5"/>
  <g id="zoomPlus">
    <use xlink:href="#rim" fill="#404040"><set attributeName="fill" to="#808080" begin="zoomplus.mouseover" end="zoomplus.mouseout"/></use>
    <path d="M-4,0h8M0,-4v8" fill="none" stroke="white" stroke-width="1.5" pointer-events="none"/>
  </g>
  <g id="zoomMin">
    <use xlink:href="#rim" fill="#404040"><set attributeName="fill" to="#808080" begin="zoomminus.mouseover" end="zoomminus.mouseout"/></use>
    <path d="M-4,0h8" fill="none" stroke="white" stroke-width="1.5" pointer-events="none"/>
  </g>
  <g id="arrowUp" transform="translate(30 24)">
    <use xlink:href="#rim"/>
    <path pointer-events="none" fill="none" stroke="white" stroke-width="1.5" d="M0,-3.0v7 M-2.5,-0.5L0,-3.0L2.5,-0.5"/>
  </g>
  <g id="arrowRight" transform="rotate(90) translate(36 -43)">
    <use xlink:href="#rim"/>
    <path pointer-events="none" fill="none" stroke="white" stroke-width="1.5" d="M0,-3.0v7 M-2.5,-0.5L0,-3.0L2.5,-0.5"/>
  </g>
  <g id="arrowDown" transform="rotate(180) translate(-30 -48)">
    <use xlink:href="#rim"/>
    <path pointer-events="none" fill="none" stroke="white" stroke-width="1.5" d="M0,-3.0v7 M-2.5,-0.5L0,-3.0L2.5,-0.5"/>
  </g>
  <g id="arrowLeft" transform="rotate(270) translate(-36 17)">
    <use xlink:href="#rim"/>
    <path pointer-events="none" fill="none" stroke="white" stroke-width="1.5" d="M0,-3.0v7 M-2.5,-0.5L0,-3.0L2.5,-0.5"/>
  </g>
  <g id="resetDef">
    <use xlink:href="#rim2" fill="#404040"><set attributeName="fill" to="#808080" begin="reset.mouseover" end="reset.mouseout"/></use>
  </g>
</defs>
<script type="application/ecmascript">
var viewWidth = 578;
var viewHeight = 198;
var sectionId = 'dynsection-0';
</script>
<script type="application/ecmascript" xlink:href="../../svg.min.js"/>
<svg id="graph" class="graph">
<g id="viewport">
<title>v8::internal::compiler::BinopMatcher&lt; Left, Right, rep &gt;</title>
<!-- Node1 -->
<g id="Node000001" class="node">
<title>Node1</title>
<g id="a_Node000001"><a xlink:title=" ">
<polygon fill="#999999" stroke="none" points="320,-190 178,-190 178,0 320,0 320,-190"/>
<text text-anchor="start" x="183" y="-176.5" font-family="Cascadia Code NF" font-size="10.00">v8::internal::compiler</text>
<text text-anchor="start" x="183" y="-163.75" font-family="Cascadia Code NF" font-size="10.00">::BinopMatcher&lt; Left,</text>
<text text-anchor="start" x="210" y="-151" font-family="Cascadia Code NF" font-size="10.00"> Right, rep &gt;</text>
<text text-anchor="start" x="187.5" y="-134.5" font-family="Cascadia Code NF" font-size="10.00">+</text>
<text text-anchor="start" x="203" y="-134.5" font-family="Cascadia Code NF" font-size="10.00">representation</text>
<text text-anchor="start" x="187.5" y="-118.5" font-family="Cascadia Code NF" font-size="10.00">+</text>
<text text-anchor="start" x="203" y="-118.5" font-family="Cascadia Code NF" font-size="10.00">BinopMatcher()</text>
<text text-anchor="start" x="187.5" y="-102.5" font-family="Cascadia Code NF" font-size="10.00">+</text>
<text text-anchor="start" x="203" y="-102.5" font-family="Cascadia Code NF" font-size="10.00">BinopMatcher()</text>
<text text-anchor="start" x="187.5" y="-86.5" font-family="Cascadia Code NF" font-size="10.00">+</text>
<text text-anchor="start" x="203" y="-86.5" font-family="Cascadia Code NF" font-size="10.00">left()</text>
<text text-anchor="start" x="187.5" y="-70.5" font-family="Cascadia Code NF" font-size="10.00">+</text>
<text text-anchor="start" x="203" y="-70.5" font-family="Cascadia Code NF" font-size="10.00">right()</text>
<text text-anchor="start" x="187.5" y="-54.5" font-family="Cascadia Code NF" font-size="10.00">+</text>
<text text-anchor="start" x="203" y="-54.5" font-family="Cascadia Code NF" font-size="10.00">IsFoldable()</text>
<text text-anchor="start" x="187.5" y="-38.5" font-family="Cascadia Code NF" font-size="10.00">+</text>
<text text-anchor="start" x="203" y="-38.5" font-family="Cascadia Code NF" font-size="10.00">LeftEqualsRight()</text>
<text text-anchor="start" x="187.5" y="-22.5" font-family="Cascadia Code NF" font-size="10.00">+</text>
<text text-anchor="start" x="203" y="-22.5" font-family="Cascadia Code NF" font-size="10.00">OwnsInput()</text>
<text text-anchor="start" x="187.5" y="-6.5" font-family="Cascadia Code NF" font-size="10.00">#</text>
<text text-anchor="start" x="203" y="-6.5" font-family="Cascadia Code NF" font-size="10.00">SwapInputs()</text>
<polygon fill="#666666" stroke="#666666" points="178,-146 178,-146 320,-146 320,-146 178,-146"/>
<polygon fill="#666666" stroke="#666666" points="178,-130 178,-130 201,-130 201,-130 178,-130"/>
<polygon fill="#666666" stroke="#666666" points="201,-130 201,-130 320,-130 320,-130 201,-130"/>
<polygon fill="none" stroke="#666666" points="178,0 178,-190 320,-190 320,0 178,0"/>
</a>
</g>
</g>
<!-- Node3 -->
<g id="Node000003" class="node">
<title>Node3</title>
<g id="a_Node000003"><a xlink:href="../../d1/d83/structv8_1_1internal_1_1compiler_1_1AddMatcher.html" target="_top" xlink:title=" ">
<polygon fill="white" stroke="none" points="570,-188.5 356,-188.5 356,-1.5 570,-1.5 570,-188.5"/>
<text text-anchor="start" x="361" y="-175" font-family="Cascadia Code NF" font-size="10.00">v8::internal::compiler</text>
<text text-anchor="start" x="361" y="-162.25" font-family="Cascadia Code NF" font-size="10.00">::AddMatcher&lt; BinopMatcher,</text>
<text text-anchor="start" x="361" y="-149.5" font-family="Cascadia Code NF" font-size="10.00"> AddOpcode, SubOpcode, kMulOpcode,</text>
<text text-anchor="start" x="418" y="-136.75" font-family="Cascadia Code NF" font-size="10.00"> kShiftOpcode &gt;</text>
<text text-anchor="start" x="374.5" y="-120" font-family="Cascadia Code NF" font-size="10.00">+</text>
<text text-anchor="start" x="399" y="-120" font-family="Cascadia Code NF" font-size="10.00">kAddOpcode</text>
<text text-anchor="start" x="374.5" y="-104" font-family="Cascadia Code NF" font-size="10.00">+</text>
<text text-anchor="start" x="399" y="-104" font-family="Cascadia Code NF" font-size="10.00">kSubOpcode</text>
<text text-anchor="start" x="374.5" y="-88" font-family="Cascadia Code NF" font-size="10.00">+</text>
<text text-anchor="start" x="399" y="-88" font-family="Cascadia Code NF" font-size="10.00">AddMatcher()</text>
<text text-anchor="start" x="374.5" y="-72" font-family="Cascadia Code NF" font-size="10.00">+</text>
<text text-anchor="start" x="399" y="-72" font-family="Cascadia Code NF" font-size="10.00">AddMatcher()</text>
<text text-anchor="start" x="374.5" y="-56" font-family="Cascadia Code NF" font-size="10.00">+</text>
<text text-anchor="start" x="399" y="-56" font-family="Cascadia Code NF" font-size="10.00">HasIndexInput()</text>
<text text-anchor="start" x="374.5" y="-40" font-family="Cascadia Code NF" font-size="10.00">+</text>
<text text-anchor="start" x="399" y="-40" font-family="Cascadia Code NF" font-size="10.00">IndexInput()</text>
<text text-anchor="start" x="374.5" y="-24" font-family="Cascadia Code NF" font-size="10.00">+</text>
<text text-anchor="start" x="399" y="-24" font-family="Cascadia Code NF" font-size="10.00">scale()</text>
<text text-anchor="start" x="374.5" y="-8" font-family="Cascadia Code NF" font-size="10.00">+</text>
<text text-anchor="start" x="399" y="-8" font-family="Cascadia Code NF" font-size="10.00">power_of_two_plus_one()</text>
<polygon fill="#bfbfbf" stroke="#bfbfbf" points="356,-131.5 356,-131.5 570,-131.5 570,-131.5 356,-131.5"/>
<polygon fill="#bfbfbf" stroke="#bfbfbf" points="356,-99.5 356,-99.5 397,-99.5 397,-99.5 356,-99.5"/>
<polygon fill="#bfbfbf" stroke="#bfbfbf" points="397,-99.5 397,-99.5 570,-99.5 570,-99.5 397,-99.5"/>
<polygon fill="none" stroke="#bfbfbf" points="356,-1.5 356,-188.5 570,-188.5 570,-1.5 356,-1.5"/>
</a>
</g>
</g>
<!-- Node1&#45;&gt;Node3 -->
<g id="edge2_Node000001_Node000003" class="edge">
<title>Node1&#45;&gt;Node3</title>
<g id="a_edge2_Node000001_Node000003"><a xlink:title=" ">
<path fill="none" stroke="#63b8ff" d="M331.14,-95C339.35,-95 347.76,-95 356.17,-95"/>
<polygon fill="none" stroke="#63b8ff" points="331.22,-91.5 321.22,-95 331.22,-98.5 331.22,-91.5"/>
</a>
</g>
</g>
<!-- Node2 -->
<g id="Node000002" class="node">
<title>Node2</title>
<g id="a_Node000002"><a xlink:href="../../d0/d0b/structv8_1_1internal_1_1compiler_1_1NodeMatcher.html" target="_top" xlink:title=" ">
<polygon fill="white" stroke="none" points="142,-183.5 0,-183.5 0,-6.5 142,-6.5 142,-183.5"/>
<text text-anchor="start" x="5" y="-170" font-family="Cascadia Code NF" font-size="10.00">v8::internal::compiler</text>
<text text-anchor="start" x="32" y="-157.25" font-family="Cascadia Code NF" font-size="10.00">::NodeMatcher</text>
<text text-anchor="start" x="68" y="-141" font-family="Cascadia Code NF" font-size="10.00"> </text>
<text text-anchor="start" x="14" y="-125" font-family="Cascadia Code NF" font-size="10.00">+</text>
<text text-anchor="start" x="34" y="-125" font-family="Cascadia Code NF" font-size="10.00">NodeMatcher()</text>
<text text-anchor="start" x="14" y="-109" font-family="Cascadia Code NF" font-size="10.00">+</text>
<text text-anchor="start" x="34" y="-109" font-family="Cascadia Code NF" font-size="10.00">node()</text>
<text text-anchor="start" x="14" y="-93" font-family="Cascadia Code NF" font-size="10.00">+</text>
<text text-anchor="start" x="34" y="-93" font-family="Cascadia Code NF" font-size="10.00">op()</text>
<text text-anchor="start" x="14" y="-77" font-family="Cascadia Code NF" font-size="10.00">+</text>
<text text-anchor="start" x="34" y="-77" font-family="Cascadia Code NF" font-size="10.00">opcode()</text>
<text text-anchor="start" x="14" y="-61" font-family="Cascadia Code NF" font-size="10.00">+</text>
<text text-anchor="start" x="34" y="-61" font-family="Cascadia Code NF" font-size="10.00">HasProperty()</text>
<text text-anchor="start" x="14" y="-45" font-family="Cascadia Code NF" font-size="10.00">+</text>
<text text-anchor="start" x="34" y="-45" font-family="Cascadia Code NF" font-size="10.00">InputAt()</text>
<text text-anchor="start" x="14" y="-29" font-family="Cascadia Code NF" font-size="10.00">+</text>
<text text-anchor="start" x="34" y="-29" font-family="Cascadia Code NF" font-size="10.00">Equals()</text>
<text text-anchor="start" x="14" y="-13" font-family="Cascadia Code NF" font-size="10.00">+</text>
<text text-anchor="start" x="34" y="-13" font-family="Cascadia Code NF" font-size="10.00">IsComparison()</text>
<polygon fill="#bfbfbf" stroke="#bfbfbf" points="0,-152.5 0,-152.5 142,-152.5 142,-152.5 0,-152.5"/>
<polygon fill="#bfbfbf" stroke="#bfbfbf" points="0,-136.5 0,-136.5 142,-136.5 142,-136.5 0,-136.5"/>
<polygon fill="none" stroke="#bfbfbf" points="0,-6.5 0,-183.5 142,-183.5 142,-6.5 0,-6.5"/>
</a>
</g>
</g>
<!-- Node2&#45;&gt;Node1 -->
<g id="edge1_Node000001_Node000002" class="edge">
<title>Node2&#45;&gt;Node1</title>
<g id="a_edge1_Node000001_Node000002"><a xlink:title=" ">
<path fill="none" stroke="#63b8ff" d="M153.17,-95C161.56,-95 170.03,-95 178.27,-95"/>
<polygon fill="none" stroke="#63b8ff" points="153.33,-91.5 143.33,-95 153.33,-98.5 153.33,-91.5"/>
</a>
</g>
</g>
</g>
</svg>

<g id="navigator" transform="translate(0 0)" fill="#404254">
  <rect fill="#f2f5e9" fill-opacity="0.5" stroke="#606060" stroke-width=".5" x="0" y="0" width="60" height="60"/>
  <use id="zoomplus" xlink:href="#zoomPlus" x="17" y="9" onmousedown="handleZoom(evt,'in')"/>
  <use id="zoomminus" xlink:href="#zoomMin" x="42" y="9" onmousedown="handleZoom(evt,'out')"/>
  <use id="reset" xlink:href="#resetDef" x="30" y="36" onmousedown="handleReset()"/>
   <use id="arrowup" xlink:href="#arrowUp" x="0" y="0" onmousedown="handlePan(0,-1)"/>
  <use id="arrowright" xlink:href="#arrowRight" x="0" y="0" onmousedown="handlePan(1,0)"/>
  <use id="arrowdown" xlink:href="#arrowDown" x="0" y="0" onmousedown="handlePan(0,1)"/>
  <use id="arrowleft" xlink:href="#arrowLeft" x="0" y="0" onmousedown="handlePan(-1,0)"/>
</g>
<svg viewBox="0 0 15 15" width="100%" height="30px" preserveAspectRatio="xMaxYMin meet">
 <g id="arrow_out" transform="scale(0.3 0.3)">
  <a xlink:href="structv8_1_1internal_1_1compiler_1_1BinopMatcher__inherit__graph_org.svg" target="_base">
   <rect id="button" ry="5" rx="5" y="6" x="6" height="38" width="38"
        fill="#f2f5e9" fill-opacity="0.5" stroke="#606060" stroke-width="1.0"/>
   <path id="arrow"
     d="M 11.500037,31.436501 C 11.940474,20.09759 22.043105,11.32322 32.158766,21.979434 L 37.068811,17.246167 C 37.068811,17.246167 37.088388,32 37.088388,32 L 22.160133,31.978069 C 22.160133,31.978069 26.997745,27.140456 26.997745,27.140456 C 18.528582,18.264221 13.291696,25.230495 11.500037,31.436501 z"
     style="fill:#404040;"/>
  </a>
 </g>
</svg>

<style type='text/css'>
<![CDATA[
[data-mouse-over-selected='false'] { opacity: 0.7; }
[data-mouse-over-selected='true']  { opacity: 1.0; }
]]>
</style>
<script type="application/ecmascript"><![CDATA[
document.addEventListener('DOMContentLoaded', (event) => {
  highlightEdges();
  highlightAdjacentNodes();
});
]]></script>
</svg>
