<?xml version="1.0" encoding="UTF-8" standalone="no"?>
<!DOCTYPE svg PUBLIC "-//W3C//DTD SVG 1.1//EN"
 "http://www.w3.org/Graphics/SVG/1.1/DTD/svg11.dtd">
<!-- Generated by graphviz version 11.0.0 (20240428.1522)
 -->
<!-- Title: v8::internal::RegExpQuantifier Pages: 1 -->
<svg width="578pt" height="252pt"
 viewBox="0.00 0.00 578.00 252.00" xmlns="http://www.w3.org/2000/svg" xmlns:xlink="http://www.w3.org/1999/xlink">
<g id="graph0" class="graph" transform="scale(1 1) rotate(0) translate(4 248)">
<title>v8::internal::RegExpQuantifier</title>
<!-- Node1 -->
<g id="Node000001" class="node">
<title>Node1</title>
<g id="a_Node000001"><a xlink:title=" ">
<polygon fill="#999999" stroke="none" points="570,-244 380,-244 380,0 570,0 570,-244"/>
<text text-anchor="start" x="385" y="-230.5" font-family="Cascadia Code NF" font-size="10.00">v8::internal::RegExpQuantifier</text>
<text text-anchor="start" x="472" y="-214.5" font-family="Cascadia Code NF" font-size="10.00"> </text>
<text text-anchor="start" x="400" y="-198.5" font-family="Cascadia Code NF" font-size="10.00">+</text>
<text text-anchor="start" x="426" y="-198.5" font-family="Cascadia Code NF" font-size="10.00">RegExpQuantifier()</text>
<text text-anchor="start" x="400" y="-182.5" font-family="Cascadia Code NF" font-size="10.00">+</text>
<text text-anchor="start" x="426" y="-182.5" font-family="Cascadia Code NF" font-size="10.00">DECL_BOILERPLATE()</text>
<text text-anchor="start" x="400" y="-166.5" font-family="Cascadia Code NF" font-size="10.00">+</text>
<text text-anchor="start" x="426" y="-166.5" font-family="Cascadia Code NF" font-size="10.00">CaptureRegisters()</text>
<text text-anchor="start" x="400" y="-150.5" font-family="Cascadia Code NF" font-size="10.00">+</text>
<text text-anchor="start" x="426" y="-150.5" font-family="Cascadia Code NF" font-size="10.00">min_match()</text>
<text text-anchor="start" x="400" y="-134.5" font-family="Cascadia Code NF" font-size="10.00">+</text>
<text text-anchor="start" x="426" y="-134.5" font-family="Cascadia Code NF" font-size="10.00">max_match()</text>
<text text-anchor="start" x="400" y="-118.5" font-family="Cascadia Code NF" font-size="10.00">+</text>
<text text-anchor="start" x="426" y="-118.5" font-family="Cascadia Code NF" font-size="10.00">min()</text>
<text text-anchor="start" x="400" y="-102.5" font-family="Cascadia Code NF" font-size="10.00">+</text>
<text text-anchor="start" x="426" y="-102.5" font-family="Cascadia Code NF" font-size="10.00">max()</text>
<text text-anchor="start" x="400" y="-86.5" font-family="Cascadia Code NF" font-size="10.00">+</text>
<text text-anchor="start" x="426" y="-86.5" font-family="Cascadia Code NF" font-size="10.00">quantifier_type()</text>
<text text-anchor="start" x="400" y="-70.5" font-family="Cascadia Code NF" font-size="10.00">+</text>
<text text-anchor="start" x="426" y="-70.5" font-family="Cascadia Code NF" font-size="10.00">is_possessive()</text>
<text text-anchor="start" x="400" y="-54.5" font-family="Cascadia Code NF" font-size="10.00">+</text>
<text text-anchor="start" x="426" y="-54.5" font-family="Cascadia Code NF" font-size="10.00">is_non_greedy()</text>
<text text-anchor="start" x="400" y="-38.5" font-family="Cascadia Code NF" font-size="10.00">+</text>
<text text-anchor="start" x="426" y="-38.5" font-family="Cascadia Code NF" font-size="10.00">is_greedy()</text>
<text text-anchor="start" x="400" y="-22.5" font-family="Cascadia Code NF" font-size="10.00">+</text>
<text text-anchor="start" x="426" y="-22.5" font-family="Cascadia Code NF" font-size="10.00">body()</text>
<text text-anchor="start" x="400" y="-6.5" font-family="Cascadia Code NF" font-size="10.00">+</text>
<text text-anchor="start" x="426" y="-6.5" font-family="Cascadia Code NF" font-size="10.00">ToNode()</text>
<polygon fill="#666666" stroke="#666666" points="380,-226 380,-226 570,-226 570,-226 380,-226"/>
<polygon fill="#666666" stroke="#666666" points="380,-210 380,-210 570,-210 570,-210 380,-210"/>
<polygon fill="none" stroke="#666666" points="380,0 380,-244 570,-244 570,0 380,0"/>
</a>
</g>
</g>
<!-- Node2 -->
<g id="Node000002" class="node">
<title>Node2</title>
<g id="a_Node000002"><a xlink:href="../../d8/d20/classv8_1_1internal_1_1RegExpTree.html" target="_top" xlink:title=" ">
<polygon fill="white" stroke="none" points="344,-228 190,-228 190,-16 344,-16 344,-228"/>
<text text-anchor="start" x="195" y="-214.5" font-family="Cascadia Code NF" font-size="10.00">v8::internal::RegExpTree</text>
<text text-anchor="start" x="199.5" y="-198.5" font-family="Cascadia Code NF" font-size="10.00">+</text>
<text text-anchor="start" x="215" y="-198.5" font-family="Cascadia Code NF" font-size="10.00">kInfinity</text>
<text text-anchor="start" x="199.5" y="-182.5" font-family="Cascadia Code NF" font-size="10.00">+</text>
<text text-anchor="start" x="215" y="-182.5" font-family="Cascadia Code NF" font-size="10.00">~RegExpTree()</text>
<text text-anchor="start" x="199.5" y="-166.5" font-family="Cascadia Code NF" font-size="10.00">+</text>
<text text-anchor="start" x="215" y="-166.5" font-family="Cascadia Code NF" font-size="10.00">Accept()</text>
<text text-anchor="start" x="199.5" y="-150.5" font-family="Cascadia Code NF" font-size="10.00">+</text>
<text text-anchor="start" x="215" y="-150.5" font-family="Cascadia Code NF" font-size="10.00">ToNode()</text>
<text text-anchor="start" x="199.5" y="-134.5" font-family="Cascadia Code NF" font-size="10.00">+</text>
<text text-anchor="start" x="215" y="-134.5" font-family="Cascadia Code NF" font-size="10.00">IsTextElement()</text>
<text text-anchor="start" x="199.5" y="-118.5" font-family="Cascadia Code NF" font-size="10.00">+</text>
<text text-anchor="start" x="215" y="-118.5" font-family="Cascadia Code NF" font-size="10.00">IsAnchoredAtStart()</text>
<text text-anchor="start" x="199.5" y="-102.5" font-family="Cascadia Code NF" font-size="10.00">+</text>
<text text-anchor="start" x="215" y="-102.5" font-family="Cascadia Code NF" font-size="10.00">IsAnchoredAtEnd()</text>
<text text-anchor="start" x="199.5" y="-86.5" font-family="Cascadia Code NF" font-size="10.00">+</text>
<text text-anchor="start" x="215" y="-86.5" font-family="Cascadia Code NF" font-size="10.00">min_match()</text>
<text text-anchor="start" x="199.5" y="-70.5" font-family="Cascadia Code NF" font-size="10.00">+</text>
<text text-anchor="start" x="215" y="-70.5" font-family="Cascadia Code NF" font-size="10.00">max_match()</text>
<text text-anchor="start" x="199.5" y="-54.5" font-family="Cascadia Code NF" font-size="10.00">+</text>
<text text-anchor="start" x="215" y="-54.5" font-family="Cascadia Code NF" font-size="10.00">CaptureRegisters()</text>
<text text-anchor="start" x="199.5" y="-38.5" font-family="Cascadia Code NF" font-size="10.00">+</text>
<text text-anchor="start" x="215" y="-38.5" font-family="Cascadia Code NF" font-size="10.00">AppendToText()</text>
<text text-anchor="start" x="199.5" y="-22.5" font-family="Cascadia Code NF" font-size="10.00">+</text>
<text text-anchor="start" x="215" y="-22.5" font-family="Cascadia Code NF" font-size="10.00">Print()</text>
<polygon fill="#bfbfbf" stroke="#bfbfbf" points="190,-210 190,-210 344,-210 344,-210 190,-210"/>
<polygon fill="#bfbfbf" stroke="#bfbfbf" points="190,-194 190,-194 213,-194 213,-194 190,-194"/>
<polygon fill="#bfbfbf" stroke="#bfbfbf" points="213,-194 213,-194 344,-194 344,-194 213,-194"/>
<polygon fill="none" stroke="#bfbfbf" points="190,-16 190,-228 344,-228 344,-16 190,-16"/>
</a>
</g>
</g>
<!-- Node2&#45;&gt;Node1 -->
<g id="edge1_Node000001_Node000002" class="edge">
<title>Node2&#45;&gt;Node1</title>
<g id="a_edge1_Node000001_Node000002"><a xlink:title=" ">
<path fill="none" stroke="#63b8ff" d="M355.32,-122C363.53,-122 371.87,-122 380.13,-122"/>
<polygon fill="none" stroke="#63b8ff" points="355.34,-118.5 345.34,-122 355.34,-125.5 355.34,-118.5"/>
</a>
</g>
</g>
<!-- Node3 -->
<g id="Node000003" class="node">
<title>Node3</title>
<g id="a_Node000003"><a xlink:href="../../dc/dca/classv8_1_1internal_1_1ZoneObject.html" target="_top" xlink:title=" ">
<polygon fill="white" stroke="none" points="154,-172 0,-172 0,-72 154,-72 154,-172"/>
<text text-anchor="start" x="5" y="-158.5" font-family="Cascadia Code NF" font-size="10.00">v8::internal::ZoneObject</text>
<text text-anchor="start" x="74" y="-142.5" font-family="Cascadia Code NF" font-size="10.00"> </text>
<text text-anchor="start" x="12.5" y="-126.5" font-family="Cascadia Code NF" font-size="10.00">+</text>
<text text-anchor="start" x="31" y="-126.5" font-family="Cascadia Code NF" font-size="10.00">operator new()</text>
<text text-anchor="start" x="12.5" y="-110.5" font-family="Cascadia Code NF" font-size="10.00">+</text>
<text text-anchor="start" x="31" y="-110.5" font-family="Cascadia Code NF" font-size="10.00">operator new()</text>
<text text-anchor="start" x="12.5" y="-94.5" font-family="Cascadia Code NF" font-size="10.00">+</text>
<text text-anchor="start" x="31" y="-94.5" font-family="Cascadia Code NF" font-size="10.00">operator delete()</text>
<text text-anchor="start" x="12.5" y="-78.5" font-family="Cascadia Code NF" font-size="10.00">+</text>
<text text-anchor="start" x="31" y="-78.5" font-family="Cascadia Code NF" font-size="10.00">operator delete()</text>
<polygon fill="#bfbfbf" stroke="#bfbfbf" points="0,-154 0,-154 154,-154 154,-154 0,-154"/>
<polygon fill="#bfbfbf" stroke="#bfbfbf" points="0,-138 0,-138 154,-138 154,-138 0,-138"/>
<polygon fill="none" stroke="#bfbfbf" points="0,-72 0,-172 154,-172 154,-72 0,-72"/>
</a>
</g>
</g>
<!-- Node3&#45;&gt;Node2 -->
<g id="edge2_Node000002_Node000003" class="edge">
<title>Node3&#45;&gt;Node2</title>
<g id="a_edge2_Node000002_Node000003"><a xlink:title=" ">
<path fill="none" stroke="#63b8ff" d="M165.2,-122C173.51,-122 181.9,-122 190.1,-122"/>
<polygon fill="none" stroke="#63b8ff" points="165.44,-118.5 155.44,-122 165.44,-125.5 165.44,-118.5"/>
</a>
</g>
</g>
</g>
</svg>
