<?xml version="1.0" encoding="UTF-8" standalone="no"?>
<!DOCTYPE svg PUBLIC "-//W3C//DTD SVG 1.1//EN"
 "http://www.w3.org/Graphics/SVG/1.1/DTD/svg11.dtd">
<!-- Generated by graphviz version 11.0.0 (20240428.1522)
 -->
<!-- Title: v8::base::OS Pages: 1 -->
<svg width="456pt" height="240pt"
 viewBox="0.00 0.00 456.00 239.50" xmlns="http://www.w3.org/2000/svg" xmlns:xlink="http://www.w3.org/1999/xlink">
<g id="graph0" class="graph" transform="scale(1 1) rotate(0) translate(4 235.5)">
<title>v8::base::OS</title>
<!-- Node1 -->
<g id="Node000001" class="node">
<title>Node1</title>
<g id="a_Node000001"><a xlink:title=" ">
<polygon fill="#999999" stroke="none" points="448,-212 298,-212 298,0 448,0 448,-212"/>
<text text-anchor="start" x="337" y="-198.5" font-family="Cascadia Code NF" font-size="10.00">v8::base::OS</text>
<text text-anchor="start" x="370" y="-182.5" font-family="Cascadia Code NF" font-size="10.00"> </text>
<text text-anchor="start" x="302" y="-166.5" font-family="Cascadia Code NF" font-size="10.00">+</text>
<text text-anchor="start" x="312" y="-166.5" font-family="Cascadia Code NF" font-size="10.00">Initialize()</text>
<text text-anchor="start" x="302" y="-150.5" font-family="Cascadia Code NF" font-size="10.00">+</text>
<text text-anchor="start" x="312" y="-150.5" font-family="Cascadia Code NF" font-size="10.00">GetUserTime()</text>
<text text-anchor="start" x="302" y="-134.5" font-family="Cascadia Code NF" font-size="10.00">+</text>
<text text-anchor="start" x="312" y="-134.5" font-family="Cascadia Code NF" font-size="10.00">GetPeakMemoryUsageKb()</text>
<text text-anchor="start" x="302" y="-118.5" font-family="Cascadia Code NF" font-size="10.00">+</text>
<text text-anchor="start" x="312" y="-118.5" font-family="Cascadia Code NF" font-size="10.00">TimeCurrentMillis()</text>
<text text-anchor="start" x="302" y="-102.5" font-family="Cascadia Code NF" font-size="10.00">+</text>
<text text-anchor="start" x="312" y="-102.5" font-family="Cascadia Code NF" font-size="10.00">CreateTimezoneCache()</text>
<text text-anchor="start" x="302" y="-86.5" font-family="Cascadia Code NF" font-size="10.00">+</text>
<text text-anchor="start" x="312" y="-86.5" font-family="Cascadia Code NF" font-size="10.00">GetLastError()</text>
<text text-anchor="start" x="302" y="-70.5" font-family="Cascadia Code NF" font-size="10.00">+</text>
<text text-anchor="start" x="312" y="-70.5" font-family="Cascadia Code NF" font-size="10.00">FOpen()</text>
<text text-anchor="start" x="302" y="-54.5" font-family="Cascadia Code NF" font-size="10.00">+</text>
<text text-anchor="start" x="312" y="-54.5" font-family="Cascadia Code NF" font-size="10.00">Remove()</text>
<text text-anchor="start" x="302" y="-38.5" font-family="Cascadia Code NF" font-size="10.00">+</text>
<text text-anchor="start" x="312" y="-38.5" font-family="Cascadia Code NF" font-size="10.00">DirectorySeparator()</text>
<text text-anchor="start" x="302" y="-22.5" font-family="Cascadia Code NF" font-size="10.00">+</text>
<text text-anchor="start" x="312" y="-22.5" font-family="Cascadia Code NF" font-size="10.00">isDirectorySeparator()</text>
<text text-anchor="start" x="312" y="-6.5" font-family="Cascadia Code NF" font-size="10.00">and 28 more...</text>
<polygon fill="#666666" stroke="#666666" points="298,-194 298,-194 448,-194 448,-194 298,-194"/>
<polygon fill="#666666" stroke="#666666" points="298,-178 298,-178 448,-178 448,-178 298,-178"/>
<polygon fill="none" stroke="#666666" points="298,0 298,-212 448,-212 448,0 298,0"/>
</a>
</g>
</g>
<!-- Node2 -->
<g id="Node000002" class="node">
<title>Node2</title>
<g id="a_Node000002"><a xlink:title=" ">
<polygon fill="white" stroke="none" points="88,-202 48,-202 48,-150 88,-150 88,-202"/>
<text text-anchor="start" x="53" y="-188.5" font-family="Cascadia Code NF" font-size="10.00">const</text>
<text text-anchor="start" x="65" y="-172.5" font-family="Cascadia Code NF" font-size="10.00"> </text>
<text text-anchor="start" x="65" y="-156.5" font-family="Cascadia Code NF" font-size="10.00"> </text>
<polygon fill="#bfbfbf" stroke="#bfbfbf" points="48,-184 48,-184 88,-184 88,-184 48,-184"/>
<polygon fill="#bfbfbf" stroke="#bfbfbf" points="48,-168 48,-168 88,-168 88,-168 48,-168"/>
<polygon fill="none" stroke="#bfbfbf" points="48,-150 48,-202 88,-202 88,-150 48,-150"/>
</a>
</g>
</g>
<!-- Node2&#45;&gt;Node1 -->
<g id="edge1_Node000001_Node000002" class="edge">
<title>Node2&#45;&gt;Node1</title>
<g id="a_edge1_Node000001_Node000002"><a xlink:title=" ">
<path fill="none" stroke="#63b8ff" d="M87.95,-171.62C126.74,-162.66 217.28,-141.74 285.79,-125.92"/>
<polygon fill="none" stroke="#63b8ff" points="285.74,-125.93 290.68,-120.68 297.43,-123.23 292.48,-128.48 285.74,-125.93"/>
</a>
</g>
<text text-anchor="middle" x="217" y="-222" font-family="Cascadia Code NF" font-size="10.00" fill="grey"> +LogFileOpenMode</text>
<text text-anchor="middle" x="217" y="-209.25" font-family="Cascadia Code NF" font-size="10.00" fill="grey">+args</text>
<text text-anchor="middle" x="217" y="-196.5" font-family="Cascadia Code NF" font-size="10.00" fill="grey">+format</text>
<text text-anchor="middle" x="217" y="-183.75" font-family="Cascadia Code NF" font-size="10.00" fill="grey">+kStackWalkError</text>
<text text-anchor="middle" x="217" y="-171" font-family="Cascadia Code NF" font-size="10.00" fill="grey">+kStackWalkMaxNameLen</text>
<text text-anchor="middle" x="217" y="-158.25" font-family="Cascadia Code NF" font-size="10.00" fill="grey">+kStackWalkMaxTextLen</text>
</g>
<!-- Node3 -->
<g id="Node000003" class="node">
<title>Node3</title>
<g id="a_Node000003"><a xlink:title=" ">
<polygon fill="white" stroke="none" points="136,-132 0,-132 0,-80 136,-80 136,-132"/>
<text text-anchor="start" x="5" y="-118.5" font-family="Cascadia Code NF" font-size="10.00">static static va_list</text>
<text text-anchor="start" x="65" y="-102.5" font-family="Cascadia Code NF" font-size="10.00"> </text>
<text text-anchor="start" x="65" y="-86.5" font-family="Cascadia Code NF" font-size="10.00"> </text>
<polygon fill="#bfbfbf" stroke="#bfbfbf" points="0,-114 0,-114 136,-114 136,-114 0,-114"/>
<polygon fill="#bfbfbf" stroke="#bfbfbf" points="0,-98 0,-98 136,-98 136,-98 0,-98"/>
<polygon fill="none" stroke="#bfbfbf" points="0,-80 0,-132 136,-132 136,-80 0,-80"/>
</a>
</g>
</g>
<!-- Node3&#45;&gt;Node1 -->
<g id="edge2_Node000001_Node000003" class="edge">
<title>Node3&#45;&gt;Node1</title>
<g id="a_edge2_Node000001_Node000003"><a xlink:title=" ">
<path fill="none" stroke="#63b8ff" d="M135.87,-106C179.85,-106 237.84,-106 285.35,-106"/>
<polygon fill="none" stroke="#63b8ff" points="285.23,-106 291.23,-102 297.23,-106 291.23,-110 285.23,-106"/>
</a>
</g>
<text text-anchor="middle" x="217" y="-109.25" font-family="Cascadia Code NF" font-size="10.00" fill="grey"> +args</text>
</g>
<!-- Node4 -->
<g id="Node000004" class="node">
<title>Node4</title>
<g id="a_Node000004"><a xlink:href="$d1/da0/classint.html" xlink:title=" ">
<polygon fill="white" stroke="none" points="82,-62 54,-62 54,-10 82,-10 82,-62"/>
<text text-anchor="start" x="59" y="-48.5" font-family="Cascadia Code NF" font-size="10.00">int</text>
<text text-anchor="start" x="65" y="-32.5" font-family="Cascadia Code NF" font-size="10.00"> </text>
<text text-anchor="start" x="65" y="-16.5" font-family="Cascadia Code NF" font-size="10.00"> </text>
<polygon fill="#bfbfbf" stroke="#bfbfbf" points="54,-44 54,-44 82,-44 82,-44 54,-44"/>
<polygon fill="#bfbfbf" stroke="#bfbfbf" points="54,-28 54,-28 82,-28 82,-28 54,-28"/>
<polygon fill="none" stroke="#bfbfbf" points="54,-10 54,-62 82,-62 82,-10 54,-10"/>
</a>
</g>
</g>
<!-- Node4&#45;&gt;Node1 -->
<g id="edge3_Node000001_Node000004" class="edge">
<title>Node4&#45;&gt;Node1</title>
<g id="a_edge3_Node000001_Node000004"><a xlink:title=" ">
<path fill="none" stroke="#63b8ff" d="M81.63,-36.35C114.8,-37.55 206.87,-42.67 280,-63.75 281.97,-64.32 283.95,-64.92 285.93,-65.55"/>
<polygon fill="none" stroke="#63b8ff" points="285.98,-65.57 292.96,-63.76 297.31,-69.51 290.33,-71.32 285.98,-65.57"/>
</a>
</g>
<text text-anchor="middle" x="217" y="-91.75" font-family="Cascadia Code NF" font-size="10.00" fill="grey"> +args</text>
<text text-anchor="middle" x="217" y="-79" font-family="Cascadia Code NF" font-size="10.00" fill="grey">+format</text>
<text text-anchor="middle" x="217" y="-66.25" font-family="Cascadia Code NF" font-size="10.00" fill="grey">+length</text>
</g>
</g>
</svg>
