<?xml version="1.0" encoding="UTF-8" standalone="no"?>
<!DOCTYPE svg PUBLIC "-//W3C//DTD SVG 1.1//EN"
 "http://www.w3.org/Graphics/SVG/1.1/DTD/svg11.dtd">
<!-- Generated by graphviz version 11.0.0 (20240428.1522)
 -->
<!-- Title: v8::internal::torque::StructExpression Pages: 1 -->
<svg width="534pt" height="105pt"
 viewBox="0.00 0.00 534.00 105.00" xmlns="http://www.w3.org/2000/svg" xmlns:xlink="http://www.w3.org/1999/xlink">
<g id="graph0" class="graph" transform="scale(1 1) rotate(0) translate(4 101)">
<title>v8::internal::torque::StructExpression</title>
<!-- Node1 -->
<g id="Node000001" class="node">
<title>Node1</title>
<g id="a_Node000001"><a xlink:title=" ">
<polygon fill="#999999" stroke="none" points="526,-97 364,-97 364,0 526,0 526,-97"/>
<text text-anchor="start" x="385" y="-83.5" font-family="Cascadia Code NF" font-size="10.00">v8::internal::torque</text>
<text text-anchor="start" x="391" y="-70.75" font-family="Cascadia Code NF" font-size="10.00">::StructExpression</text>
<text text-anchor="start" x="368" y="-54.5" font-family="Cascadia Code NF" font-size="10.00">+</text>
<text text-anchor="start" x="378" y="-54.5" font-family="Cascadia Code NF" font-size="10.00">type</text>
<text text-anchor="start" x="368" y="-38.5" font-family="Cascadia Code NF" font-size="10.00">+</text>
<text text-anchor="start" x="378" y="-38.5" font-family="Cascadia Code NF" font-size="10.00">initializers</text>
<text text-anchor="start" x="368" y="-22.5" font-family="Cascadia Code NF" font-size="10.00">+</text>
<text text-anchor="start" x="378" y="-22.5" font-family="Cascadia Code NF" font-size="10.00">StructExpression()</text>
<text text-anchor="start" x="368" y="-6.5" font-family="Cascadia Code NF" font-size="10.00">+</text>
<text text-anchor="start" x="378" y="-6.5" font-family="Cascadia Code NF" font-size="10.00">VisitAllSubExpressions()</text>
<polygon fill="#666666" stroke="#666666" points="364,-66 364,-66 526,-66 526,-66 364,-66"/>
<polygon fill="#666666" stroke="#666666" points="364,-34 364,-34 376,-34 376,-34 364,-34"/>
<polygon fill="#666666" stroke="#666666" points="376,-34 376,-34 526,-34 526,-34 376,-34"/>
<polygon fill="none" stroke="#666666" points="364,0 364,-97 526,-97 526,0 364,0"/>
</a>
</g>
</g>
<!-- Node2 -->
<g id="Node000002" class="node">
<title>Node2</title>
<g id="a_Node000002"><a xlink:href="../../d1/dff/structv8_1_1internal_1_1torque_1_1Expression.html" target="_top" xlink:title=" ">
<polygon fill="white" stroke="none" points="328,-89 166,-89 166,-8 328,-8 328,-89"/>
<text text-anchor="start" x="187" y="-75.5" font-family="Cascadia Code NF" font-size="10.00">v8::internal::torque</text>
<text text-anchor="start" x="211" y="-62.75" font-family="Cascadia Code NF" font-size="10.00">::Expression</text>
<text text-anchor="start" x="244" y="-46.5" font-family="Cascadia Code NF" font-size="10.00"> </text>
<text text-anchor="start" x="170" y="-30.5" font-family="Cascadia Code NF" font-size="10.00">+</text>
<text text-anchor="start" x="180" y="-30.5" font-family="Cascadia Code NF" font-size="10.00">Expression()</text>
<text text-anchor="start" x="170" y="-14.5" font-family="Cascadia Code NF" font-size="10.00">+</text>
<text text-anchor="start" x="180" y="-14.5" font-family="Cascadia Code NF" font-size="10.00">VisitAllSubExpressions()</text>
<polygon fill="#bfbfbf" stroke="#bfbfbf" points="166,-58 166,-58 328,-58 328,-58 166,-58"/>
<polygon fill="#bfbfbf" stroke="#bfbfbf" points="166,-42 166,-42 328,-42 328,-42 166,-42"/>
<polygon fill="none" stroke="#bfbfbf" points="166,-8 166,-89 328,-89 328,-8 166,-8"/>
</a>
</g>
</g>
<!-- Node2&#45;&gt;Node1 -->
<g id="edge1_Node000001_Node000002" class="edge">
<title>Node2&#45;&gt;Node1</title>
<g id="a_edge1_Node000001_Node000002"><a xlink:title=" ">
<path fill="none" stroke="#63b8ff" d="M339.04,-48.5C347.38,-48.5 355.79,-48.5 364.03,-48.5"/>
<polygon fill="none" stroke="#63b8ff" points="339.23,-45 329.23,-48.5 339.23,-52 339.23,-45"/>
</a>
</g>
</g>
<!-- Node3 -->
<g id="Node000003" class="node">
<title>Node3</title>
<g id="a_Node000003"><a xlink:href="../../df/de2/structv8_1_1internal_1_1torque_1_1AstNode.html" target="_top" xlink:title=" ">
<polygon fill="white" stroke="none" points="130,-97 0,-97 0,0 130,0 130,-97"/>
<text text-anchor="start" x="5" y="-83.5" font-family="Cascadia Code NF" font-size="10.00">v8::internal::torque</text>
<text text-anchor="start" x="38" y="-70.75" font-family="Cascadia Code NF" font-size="10.00">::AstNode</text>
<text text-anchor="start" x="17" y="-54.5" font-family="Cascadia Code NF" font-size="10.00">+</text>
<text text-anchor="start" x="40" y="-54.5" font-family="Cascadia Code NF" font-size="10.00">kind</text>
<text text-anchor="start" x="17" y="-38.5" font-family="Cascadia Code NF" font-size="10.00">+</text>
<text text-anchor="start" x="40" y="-38.5" font-family="Cascadia Code NF" font-size="10.00">pos</text>
<text text-anchor="start" x="17" y="-22.5" font-family="Cascadia Code NF" font-size="10.00">+</text>
<text text-anchor="start" x="40" y="-22.5" font-family="Cascadia Code NF" font-size="10.00">AstNode()</text>
<text text-anchor="start" x="17" y="-6.5" font-family="Cascadia Code NF" font-size="10.00">+</text>
<text text-anchor="start" x="40" y="-6.5" font-family="Cascadia Code NF" font-size="10.00">~AstNode()</text>
<polygon fill="#bfbfbf" stroke="#bfbfbf" points="0,-66 0,-66 130,-66 130,-66 0,-66"/>
<polygon fill="#bfbfbf" stroke="#bfbfbf" points="0,-34 0,-34 38,-34 38,-34 0,-34"/>
<polygon fill="#bfbfbf" stroke="#bfbfbf" points="38,-34 38,-34 130,-34 130,-34 38,-34"/>
<polygon fill="none" stroke="#bfbfbf" points="0,0 0,-97 130,-97 130,0 0,0"/>
</a>
</g>
</g>
<!-- Node3&#45;&gt;Node2 -->
<g id="edge2_Node000002_Node000003" class="edge">
<title>Node3&#45;&gt;Node2</title>
<g id="a_edge2_Node000002_Node000003"><a xlink:title=" ">
<path fill="none" stroke="#63b8ff" d="M141.4,-48.5C149.59,-48.5 157.94,-48.5 166.17,-48.5"/>
<polygon fill="none" stroke="#63b8ff" points="141.48,-45 131.48,-48.5 141.48,-52 141.48,-45"/>
</a>
</g>
</g>
</g>
</svg>
