<?xml version="1.0" encoding="UTF-8" standalone="no"?>
<!DOCTYPE svg PUBLIC "-//W3C//DTD SVG 1.1//EN"
 "http://www.w3.org/Graphics/SVG/1.1/DTD/svg11.dtd">
<!-- Generated by graphviz version 11.0.0 (20240428.1522)
 -->
<!-- Title: TorqueGeneratedJSProxy&lt; D, P &gt; Pages: 1 -->
<svg width="390pt" height="265pt"
 viewBox="0.00 0.00 390.00 265.00" xmlns="http://www.w3.org/2000/svg" xmlns:xlink="http://www.w3.org/1999/xlink">
<g id="graph0" class="graph" transform="scale(1 1) rotate(0) translate(4 261)">
<title>TorqueGeneratedJSProxy&lt; D, P &gt;</title>
<!-- Node1 -->
<g id="Node000001" class="node">
<title>Node1</title>
<g id="a_Node000001"><a xlink:title=" ">
<polygon fill="#999999" stroke="none" points="382,-257 220,-257 220,0 382,0 382,-257"/>
<text text-anchor="start" x="235" y="-243.5" font-family="Cascadia Code NF" font-size="10.00">TorqueGeneratedJSProxy</text>
<text text-anchor="start" x="277" y="-230.75" font-family="Cascadia Code NF" font-size="10.00">&lt; D, P &gt;</text>
<text text-anchor="start" x="298" y="-214.5" font-family="Cascadia Code NF" font-size="10.00"> </text>
<text text-anchor="start" x="224" y="-198.5" font-family="Cascadia Code NF" font-size="10.00">+</text>
<text text-anchor="start" x="234" y="-198.5" font-family="Cascadia Code NF" font-size="10.00">target()</text>
<text text-anchor="start" x="224" y="-182.5" font-family="Cascadia Code NF" font-size="10.00">+</text>
<text text-anchor="start" x="234" y="-182.5" font-family="Cascadia Code NF" font-size="10.00">target()</text>
<text text-anchor="start" x="224" y="-166.5" font-family="Cascadia Code NF" font-size="10.00">+</text>
<text text-anchor="start" x="234" y="-166.5" font-family="Cascadia Code NF" font-size="10.00">set_target()</text>
<text text-anchor="start" x="224" y="-150.5" font-family="Cascadia Code NF" font-size="10.00">+</text>
<text text-anchor="start" x="234" y="-150.5" font-family="Cascadia Code NF" font-size="10.00">handler()</text>
<text text-anchor="start" x="224" y="-134.5" font-family="Cascadia Code NF" font-size="10.00">+</text>
<text text-anchor="start" x="234" y="-134.5" font-family="Cascadia Code NF" font-size="10.00">handler()</text>
<text text-anchor="start" x="224" y="-118.5" font-family="Cascadia Code NF" font-size="10.00">+</text>
<text text-anchor="start" x="234" y="-118.5" font-family="Cascadia Code NF" font-size="10.00">set_handler()</text>
<text text-anchor="start" x="224" y="-102.5" font-family="Cascadia Code NF" font-size="10.00">+</text>
<text text-anchor="start" x="234" y="-102.5" font-family="Cascadia Code NF" font-size="10.00">AllocatedSize()</text>
<text text-anchor="start" x="224" y="-86.5" font-family="Cascadia Code NF" font-size="10.00">+</text>
<text text-anchor="start" x="234" y="-86.5" font-family="Cascadia Code NF" font-size="10.00">TorqueGeneratedJSProxy()</text>
<text text-anchor="start" x="224" y="-70.5" font-family="Cascadia Code NF" font-size="10.00">+</text>
<text text-anchor="start" x="234" y="-70.5" font-family="Cascadia Code NF" font-size="10.00">cast()</text>
<text text-anchor="start" x="224" y="-54.5" font-family="Cascadia Code NF" font-size="10.00">+</text>
<text text-anchor="start" x="234" y="-54.5" font-family="Cascadia Code NF" font-size="10.00">unchecked_cast()</text>
<text text-anchor="start" x="224" y="-38.5" font-family="Cascadia Code NF" font-size="10.00">+</text>
<text text-anchor="start" x="234" y="-38.5" font-family="Cascadia Code NF" font-size="10.00">SizeFor()</text>
<text text-anchor="start" x="224" y="-22.5" font-family="Cascadia Code NF" font-size="10.00">#</text>
<text text-anchor="start" x="234" y="-22.5" font-family="Cascadia Code NF" font-size="10.00">TorqueGeneratedJSProxy()</text>
<text text-anchor="start" x="224" y="-6.5" font-family="Cascadia Code NF" font-size="10.00">#</text>
<text text-anchor="start" x="234" y="-6.5" font-family="Cascadia Code NF" font-size="10.00">TorqueGeneratedJSProxy()</text>
<polygon fill="#666666" stroke="#666666" points="220,-226 220,-226 382,-226 382,-226 220,-226"/>
<polygon fill="#666666" stroke="#666666" points="220,-210 220,-210 382,-210 382,-210 220,-210"/>
<polygon fill="none" stroke="#666666" points="220,0 220,-257 382,-257 382,0 220,0"/>
</a>
</g>
</g>
<!-- Node2 -->
<g id="Node000002" class="node">
<title>Node2</title>
<g id="a_Node000002"><a xlink:href="$db/d72/classP.html" xlink:title=" ">
<polygon fill="white" stroke="none" points="22,-242.5 6,-242.5 6,-190.5 22,-190.5 22,-242.5"/>
<text text-anchor="start" x="11" y="-229" font-family="Cascadia Code NF" font-size="10.00">P</text>
<text text-anchor="start" x="11" y="-213" font-family="Cascadia Code NF" font-size="10.00"> </text>
<text text-anchor="start" x="11" y="-197" font-family="Cascadia Code NF" font-size="10.00"> </text>
<polygon fill="#bfbfbf" stroke="#bfbfbf" points="6,-224.5 6,-224.5 22,-224.5 22,-224.5 6,-224.5"/>
<polygon fill="#bfbfbf" stroke="#bfbfbf" points="6,-208.5 6,-208.5 22,-208.5 22,-208.5 6,-208.5"/>
<polygon fill="none" stroke="#bfbfbf" points="6,-190.5 6,-242.5 22,-242.5 22,-190.5 6,-190.5"/>
</a>
</g>
</g>
<!-- Node2&#45;&gt;Node1 -->
<g id="edge1_Node000001_Node000002" class="edge">
<title>Node2&#45;&gt;Node1</title>
<g id="a_edge1_Node000001_Node000002"><a xlink:title=" ">
<path fill="none" stroke="#63b8ff" d="M32.94,-217.15C67.03,-217.79 143.01,-216.36 202,-194.5 208.06,-192.25 214.11,-189.56 220.06,-186.57"/>
<polygon fill="none" stroke="#63b8ff" points="33.33,-213.66 23.23,-216.87 33.13,-220.65 33.33,-213.66"/>
</a>
</g>
</g>
<!-- Node3 -->
<g id="Node000003" class="node">
<title>Node3</title>
<g id="a_Node000003"><a xlink:href="$d1/da0/classint.html" xlink:title=" ">
<polygon fill="white" stroke="none" points="28,-66.5 0,-66.5 0,-14.5 28,-14.5 28,-66.5"/>
<text text-anchor="start" x="5" y="-53" font-family="Cascadia Code NF" font-size="10.00">int</text>
<text text-anchor="start" x="11" y="-37" font-family="Cascadia Code NF" font-size="10.00"> </text>
<text text-anchor="start" x="11" y="-21" font-family="Cascadia Code NF" font-size="10.00"> </text>
<polygon fill="#bfbfbf" stroke="#bfbfbf" points="0,-48.5 0,-48.5 28,-48.5 28,-48.5 0,-48.5"/>
<polygon fill="#bfbfbf" stroke="#bfbfbf" points="0,-32.5 0,-32.5 28,-32.5 28,-32.5 0,-32.5"/>
<polygon fill="none" stroke="#bfbfbf" points="0,-14.5 0,-66.5 28,-66.5 28,-14.5 0,-14.5"/>
</a>
</g>
</g>
<!-- Node3&#45;&gt;Node1 -->
<g id="edge2_Node000001_Node000003" class="edge">
<title>Node3&#45;&gt;Node1</title>
<g id="a_edge2_Node000001_Node000003"><a xlink:title=" ">
<path fill="none" stroke="#63b8ff" d="M27.84,-37.07C59.01,-29.41 140.65,-13.41 202,-37.5 204.35,-38.42 206.68,-39.43 208.98,-40.52"/>
<polygon fill="none" stroke="#63b8ff" points="208.89,-40.47 216.07,-39.77 219.48,-46.12 212.3,-46.82 208.89,-40.47"/>
</a>
</g>
<text text-anchor="middle" x="124" y="-181" font-family="Cascadia Code NF" font-size="10.00" fill="grey"> +kEndOfStrongFieldsOffset</text>
<text text-anchor="middle" x="124" y="-168.25" font-family="Cascadia Code NF" font-size="10.00" fill="grey">+kEndOfWeakFieldsOffset</text>
<text text-anchor="middle" x="124" y="-155.5" font-family="Cascadia Code NF" font-size="10.00" fill="grey">+kHandlerOffset</text>
<text text-anchor="middle" x="124" y="-142.75" font-family="Cascadia Code NF" font-size="10.00" fill="grey">+kHandlerOffsetEnd</text>
<text text-anchor="middle" x="124" y="-130" font-family="Cascadia Code NF" font-size="10.00" fill="grey">+kHeaderSize</text>
<text text-anchor="middle" x="124" y="-117.25" font-family="Cascadia Code NF" font-size="10.00" fill="grey">+kSize</text>
<text text-anchor="start" x="46" y="-104.5" font-family="Cascadia Code NF" font-size="10.00" fill="grey">+kStartOfStrongFields</text>
<text text-anchor="middle" x="124" y="-91.75" font-family="Cascadia Code NF" font-size="10.00" fill="grey">Offset</text>
<text text-anchor="middle" x="124" y="-79" font-family="Cascadia Code NF" font-size="10.00" fill="grey">+kStartOfWeakFieldsOffset</text>
<text text-anchor="middle" x="124" y="-66.25" font-family="Cascadia Code NF" font-size="10.00" fill="grey">+kTargetOffset</text>
<text text-anchor="middle" x="124" y="-53.5" font-family="Cascadia Code NF" font-size="10.00" fill="grey">+kTargetOffsetEnd</text>
<text text-anchor="middle" x="124" y="-40.75" font-family="Cascadia Code NF" font-size="10.00" fill="grey">...</text>
</g>
</g>
</svg>
