<?xml version="1.0" encoding="UTF-8" standalone="no"?>
<!DOCTYPE svg PUBLIC "-//W3C//DTD SVG 1.1//EN"
 "http://www.w3.org/Graphics/SVG/1.1/DTD/svg11.dtd">
<!-- Generated by graphviz version 11.0.0 (20240428.1522)
 -->
<!-- Title: v8::internal::maglev::HandleNoHeapWritesInterrupt Pages: 1 -->
<svg width="716pt" height="137pt"
 viewBox="0.00 0.00 716.00 137.00" xmlns="http://www.w3.org/2000/svg" xmlns:xlink="http://www.w3.org/1999/xlink">
<g id="graph0" class="graph" transform="scale(1 1) rotate(0) translate(4 133)">
<title>v8::internal::maglev::HandleNoHeapWritesInterrupt</title>
<!-- Node1 -->
<g id="Node000001" class="node">
<title>Node1</title>
<g id="a_Node000001"><a xlink:title=" ">
<polygon fill="#999999" stroke="none" points="708,-129 516,-129 516,0 708,0 708,-129"/>
<text text-anchor="start" x="525" y="-115.5" font-family="Cascadia Code NF" font-size="10.00">v8::internal::maglev</text>
<text text-anchor="start" x="525" y="-102.75" font-family="Cascadia Code NF" font-size="10.00">::HandleNoHeapWritesInterrupt</text>
<text text-anchor="start" x="520" y="-86.5" font-family="Cascadia Code NF" font-size="10.00">+</text>
<text text-anchor="start" x="530" y="-86.5" font-family="Cascadia Code NF" font-size="10.00">kProperties</text>
<text text-anchor="start" x="520" y="-70.5" font-family="Cascadia Code NF" font-size="10.00">+</text>
<text text-anchor="start" x="530" y="-70.5" font-family="Cascadia Code NF" font-size="10.00">HandleNoHeapWritesInterrupt()</text>
<text text-anchor="start" x="520" y="-54.5" font-family="Cascadia Code NF" font-size="10.00">+</text>
<text text-anchor="start" x="530" y="-54.5" font-family="Cascadia Code NF" font-size="10.00">SetValueLocationConstraints()</text>
<text text-anchor="start" x="520" y="-38.5" font-family="Cascadia Code NF" font-size="10.00">+</text>
<text text-anchor="start" x="530" y="-38.5" font-family="Cascadia Code NF" font-size="10.00">GenerateCode()</text>
<text text-anchor="start" x="520" y="-22.5" font-family="Cascadia Code NF" font-size="10.00">+</text>
<text text-anchor="start" x="530" y="-22.5" font-family="Cascadia Code NF" font-size="10.00">PrintParams()</text>
<text text-anchor="start" x="520" y="-6.5" font-family="Cascadia Code NF" font-size="10.00">+</text>
<text text-anchor="start" x="530" y="-6.5" font-family="Cascadia Code NF" font-size="10.00">MaxCallStackArgs()</text>
<polygon fill="#666666" stroke="#666666" points="516,-98 516,-98 708,-98 708,-98 516,-98"/>
<polygon fill="#666666" stroke="#666666" points="516,-82 516,-82 528,-82 528,-82 516,-82"/>
<polygon fill="#666666" stroke="#666666" points="528,-82 528,-82 708,-82 708,-82 528,-82"/>
<polygon fill="none" stroke="#666666" points="516,0 516,-129 708,-129 708,0 516,0"/>
</a>
</g>
</g>
<!-- Node2 -->
<g id="Node000002" class="node">
<title>Node2</title>
<g id="a_Node000002"><a xlink:href="../../df/d36/classv8_1_1internal_1_1maglev_1_1FixedInputNodeTMixin.html" target="_top" xlink:title=" ">
<polygon fill="white" stroke="none" points="480,-129 290,-129 290,0 480,0 480,-129"/>
<text text-anchor="start" x="295" y="-115.5" font-family="Cascadia Code NF" font-size="10.00">FixedInputNodeT&lt; 0,</text>
<text text-anchor="start" x="295" y="-102.75" font-family="Cascadia Code NF" font-size="10.00"> HandleNoHeapWritesInterrupt &gt;</text>
<text text-anchor="start" x="304" y="-86.5" font-family="Cascadia Code NF" font-size="10.00">#</text>
<text text-anchor="start" x="324" y="-86.5" font-family="Cascadia Code NF" font-size="10.00">kInputTypes</text>
<text text-anchor="start" x="304" y="-70.5" font-family="Cascadia Code NF" font-size="10.00">+</text>
<text text-anchor="start" x="324" y="-70.5" font-family="Cascadia Code NF" font-size="10.00">has_inputs()</text>
<text text-anchor="start" x="304" y="-54.5" font-family="Cascadia Code NF" font-size="10.00">+</text>
<text text-anchor="start" x="324" y="-54.5" font-family="Cascadia Code NF" font-size="10.00">input_count()</text>
<text text-anchor="start" x="304" y="-38.5" font-family="Cascadia Code NF" font-size="10.00">+</text>
<text text-anchor="start" x="324" y="-38.5" font-family="Cascadia Code NF" font-size="10.00">end()</text>
<text text-anchor="start" x="304" y="-22.5" font-family="Cascadia Code NF" font-size="10.00">+</text>
<text text-anchor="start" x="324" y="-22.5" font-family="Cascadia Code NF" font-size="10.00">VerifyInputs()</text>
<text text-anchor="start" x="304" y="-6.5" font-family="Cascadia Code NF" font-size="10.00">#</text>
<text text-anchor="start" x="324" y="-6.5" font-family="Cascadia Code NF" font-size="10.00">FixedInputNodeTMixin()</text>
<polygon fill="#bfbfbf" stroke="#bfbfbf" points="290,-98 290,-98 480,-98 480,-98 290,-98"/>
<polygon fill="#bfbfbf" stroke="#bfbfbf" points="290,-82 290,-82 322,-82 322,-82 290,-82"/>
<polygon fill="#bfbfbf" stroke="#bfbfbf" points="322,-82 322,-82 480,-82 480,-82 322,-82"/>
<polygon fill="none" stroke="#bfbfbf" points="290,0 290,-129 480,-129 480,0 290,0"/>
</a>
</g>
</g>
<!-- Node2&#45;&gt;Node1 -->
<g id="edge1_Node000001_Node000002" class="edge">
<title>Node2&#45;&gt;Node1</title>
<g id="a_edge1_Node000001_Node000002"><a xlink:title=" ">
<path fill="none" stroke="#63b8ff" d="M491.16,-64.5C499.54,-64.5 507.98,-64.5 516.28,-64.5"/>
<polygon fill="none" stroke="#63b8ff" points="491.3,-61 481.3,-64.5 491.3,-68 491.3,-61"/>
</a>
</g>
</g>
<!-- Node3 -->
<g id="Node000003" class="node">
<title>Node3</title>
<g id="a_Node000003"><a xlink:href="../../dc/d85/classv8_1_1internal_1_1maglev_1_1NodeTMixin.html" target="_top" xlink:title=" ">
<polygon fill="white" stroke="none" points="254,-129 70,-129 70,0 254,0 254,-129"/>
<text text-anchor="start" x="75" y="-115.5" font-family="Cascadia Code NF" font-size="10.00">v8::internal::maglev</text>
<text text-anchor="start" x="75" y="-102.75" font-family="Cascadia Code NF" font-size="10.00">::NodeTMixin&lt; Base, Derived &gt;</text>
<text text-anchor="start" x="159" y="-86.5" font-family="Cascadia Code NF" font-size="10.00"> </text>
<text text-anchor="start" x="97.5" y="-70.5" font-family="Cascadia Code NF" font-size="10.00">+</text>
<text text-anchor="start" x="131" y="-70.5" font-family="Cascadia Code NF" font-size="10.00">opcode()</text>
<text text-anchor="start" x="97.5" y="-54.5" font-family="Cascadia Code NF" font-size="10.00">+</text>
<text text-anchor="start" x="131" y="-54.5" font-family="Cascadia Code NF" font-size="10.00">properties()</text>
<text text-anchor="start" x="97.5" y="-38.5" font-family="Cascadia Code NF" font-size="10.00">+</text>
<text text-anchor="start" x="131" y="-38.5" font-family="Cascadia Code NF" font-size="10.00">New()</text>
<text text-anchor="start" x="97.5" y="-22.5" font-family="Cascadia Code NF" font-size="10.00">+</text>
<text text-anchor="start" x="131" y="-22.5" font-family="Cascadia Code NF" font-size="10.00">New()</text>
<text text-anchor="start" x="97.5" y="-6.5" font-family="Cascadia Code NF" font-size="10.00">#</text>
<text text-anchor="start" x="131" y="-6.5" font-family="Cascadia Code NF" font-size="10.00">NodeTMixin()</text>
<polygon fill="#bfbfbf" stroke="#bfbfbf" points="70,-98 70,-98 254,-98 254,-98 70,-98"/>
<polygon fill="#bfbfbf" stroke="#bfbfbf" points="70,-82 70,-82 254,-82 254,-82 70,-82"/>
<polygon fill="none" stroke="#bfbfbf" points="70,0 70,-129 254,-129 254,0 70,0"/>
</a>
</g>
</g>
<!-- Node3&#45;&gt;Node2 -->
<g id="edge2_Node000002_Node000003" class="edge">
<title>Node3&#45;&gt;Node2</title>
<g id="a_edge2_Node000002_Node000003"><a xlink:title=" ">
<path fill="none" stroke="#63b8ff" d="M265.19,-64.5C273.56,-64.5 281.99,-64.5 290.29,-64.5"/>
<polygon fill="none" stroke="#63b8ff" points="265.36,-61 255.36,-64.5 265.36,-68 265.36,-61"/>
</a>
</g>
</g>
<!-- Node4 -->
<g id="Node000004" class="node">
<title>Node4</title>
<g id="a_Node000004"><a xlink:title=" ">
<polygon fill="white" stroke="none" points="34,-90.5 0,-90.5 0,-38.5 34,-38.5 34,-90.5"/>
<text text-anchor="start" x="5" y="-77" font-family="Cascadia Code NF" font-size="10.00">Base</text>
<text text-anchor="start" x="14" y="-61" font-family="Cascadia Code NF" font-size="10.00"> </text>
<text text-anchor="start" x="14" y="-45" font-family="Cascadia Code NF" font-size="10.00"> </text>
<polygon fill="#bfbfbf" stroke="#bfbfbf" points="0,-72.5 0,-72.5 34,-72.5 34,-72.5 0,-72.5"/>
<polygon fill="#bfbfbf" stroke="#bfbfbf" points="0,-56.5 0,-56.5 34,-56.5 34,-56.5 0,-56.5"/>
<polygon fill="none" stroke="#bfbfbf" points="0,-38.5 0,-90.5 34,-90.5 34,-38.5 0,-38.5"/>
</a>
</g>
</g>
<!-- Node4&#45;&gt;Node3 -->
<g id="edge3_Node000003_Node000004" class="edge">
<title>Node4&#45;&gt;Node3</title>
<g id="a_edge3_Node000003_Node000004"><a xlink:title=" ">
<path fill="none" stroke="#63b8ff" d="M45.25,-64.5C52.68,-64.5 61.15,-64.5 70.07,-64.5"/>
<polygon fill="none" stroke="#63b8ff" points="45.36,-61 35.36,-64.5 45.36,-68 45.36,-61"/>
</a>
</g>
</g>
</g>
</svg>
