<?xml version="1.0" encoding="UTF-8" standalone="no"?>
<!DOCTYPE svg PUBLIC "-//W3C//DTD SVG 1.1//EN"
 "http://www.w3.org/Graphics/SVG/1.1/DTD/svg11.dtd">
<!-- Generated by graphviz version 11.0.0 (20240428.1522)
 -->
<!-- Title: v8::internal::JSFinalizationRegistry Pages: 1 -->
<!--zoomable 464 -->

<svg id="main" version="1.1" xmlns="http://www.w3.org/2000/svg" xmlns:xlink="http://www.w3.org/1999/xlink" xml:space="preserve" onload="init(evt)">
<style type="text/css"><![CDATA[
.node, .edge {opacity: 0.7;}
.node.selected, .edge.selected {opacity: 1;}
.edge:hover path { stroke: red; }
.edge:hover polygon { stroke: red; fill: red; }
svg#main { background-color: #111; }
]]></style>

<defs>
  <circle id="rim" cx="0" cy="0" r="7"/>
  <circle id="rim2" cx="0" cy="0" r="3.5"/>
  <g id="zoomPlus">
    <use xlink:href="#rim" fill="#404040"><set attributeName="fill" to="#808080" begin="zoomplus.mouseover" end="zoomplus.mouseout"/></use>
    <path d="M-4,0h8M0,-4v8" fill="none" stroke="white" stroke-width="1.5" pointer-events="none"/>
  </g>
  <g id="zoomMin">
    <use xlink:href="#rim" fill="#404040"><set attributeName="fill" to="#808080" begin="zoomminus.mouseover" end="zoomminus.mouseout"/></use>
    <path d="M-4,0h8" fill="none" stroke="white" stroke-width="1.5" pointer-events="none"/>
  </g>
  <g id="arrowUp" transform="translate(30 24)">
    <use xlink:href="#rim"/>
    <path pointer-events="none" fill="none" stroke="white" stroke-width="1.5" d="M0,-3.0v7 M-2.5,-0.5L0,-3.0L2.5,-0.5"/>
  </g>
  <g id="arrowRight" transform="rotate(90) translate(36 -43)">
    <use xlink:href="#rim"/>
    <path pointer-events="none" fill="none" stroke="white" stroke-width="1.5" d="M0,-3.0v7 M-2.5,-0.5L0,-3.0L2.5,-0.5"/>
  </g>
  <g id="arrowDown" transform="rotate(180) translate(-30 -48)">
    <use xlink:href="#rim"/>
    <path pointer-events="none" fill="none" stroke="white" stroke-width="1.5" d="M0,-3.0v7 M-2.5,-0.5L0,-3.0L2.5,-0.5"/>
  </g>
  <g id="arrowLeft" transform="rotate(270) translate(-36 17)">
    <use xlink:href="#rim"/>
    <path pointer-events="none" fill="none" stroke="white" stroke-width="1.5" d="M0,-3.0v7 M-2.5,-0.5L0,-3.0L2.5,-0.5"/>
  </g>
  <g id="resetDef">
    <use xlink:href="#rim2" fill="#404040"><set attributeName="fill" to="#808080" begin="reset.mouseover" end="reset.mouseout"/></use>
  </g>
</defs>
<script type="application/ecmascript">
var viewWidth = 694;
var viewHeight = 464;
var sectionId = 'dynsection-1';
</script>
<script type="application/ecmascript" xlink:href="../../svg.min.js"/>
<svg id="graph" class="graph">
<g id="viewport">
<title>v8::internal::JSFinalizationRegistry</title>
<!-- Node1 -->
<g id="Node000001" class="node">
<title>Node1</title>
<g id="a_Node000001"><a xlink:title=" ">
<polygon fill="#999999" stroke="none" points="686,-305.5 488,-305.5 488,-150.5 686,-150.5 686,-305.5"/>
<text text-anchor="start" x="503" y="-292" font-family="Cascadia Code NF" font-size="10.00">v8::internal::JSFinalization</text>
<text text-anchor="start" x="563" y="-279.25" font-family="Cascadia Code NF" font-size="10.00">Registry</text>
<text text-anchor="start" x="584" y="-263" font-family="Cascadia Code NF" font-size="10.00"> </text>
<text text-anchor="start" x="492" y="-247" font-family="Cascadia Code NF" font-size="10.00">+</text>
<text text-anchor="start" x="502" y="-247" font-family="Cascadia Code NF" font-size="10.00">RemoveUnregisterToken()</text>
<text text-anchor="start" x="492" y="-231" font-family="Cascadia Code NF" font-size="10.00">+</text>
<text text-anchor="start" x="502" y="-231" font-family="Cascadia Code NF" font-size="10.00">NeedsCleanup()</text>
<text text-anchor="start" x="492" y="-215" font-family="Cascadia Code NF" font-size="10.00">+</text>
<text text-anchor="start" x="502" y="-215" font-family="Cascadia Code NF" font-size="10.00">RegisterWeakCellWithUnregister</text>
<text text-anchor="start" x="502" y="-202.25" font-family="Cascadia Code NF" font-size="10.00">Token()</text>
<text text-anchor="start" x="492" y="-186" font-family="Cascadia Code NF" font-size="10.00">+</text>
<text text-anchor="start" x="502" y="-186" font-family="Cascadia Code NF" font-size="10.00">Unregister()</text>
<text text-anchor="start" x="492" y="-170" font-family="Cascadia Code NF" font-size="10.00">+</text>
<text text-anchor="start" x="502" y="-170" font-family="Cascadia Code NF" font-size="10.00">RemoveCellFromUnregister</text>
<text text-anchor="start" x="502" y="-157.25" font-family="Cascadia Code NF" font-size="10.00">TokenMap()</text>
<polygon fill="#666666" stroke="#666666" points="488,-274.5 488,-274.5 686,-274.5 686,-274.5 488,-274.5"/>
<polygon fill="#666666" stroke="#666666" points="488,-258.5 488,-258.5 686,-258.5 686,-258.5 488,-258.5"/>
<polygon fill="none" stroke="#666666" points="488,-150.5 488,-305.5 686,-305.5 686,-150.5 488,-150.5"/>
</a>
</g>
</g>
<!-- Node2 -->
<g id="Node000002" class="node">
<title>Node2</title>
<g id="a_Node000002"><a xlink:href="../../d3/d73/classTorqueGeneratedJSFinalizationRegistry.html" target="_top" xlink:title=" ">
<polygon fill="white" stroke="none" points="452,-456 244,-456 244,0 452,0 452,-456"/>
<text text-anchor="start" x="249" y="-442.5" font-family="Cascadia Code NF" font-size="10.00">TorqueGeneratedJSFinalization</text>
<text text-anchor="start" x="249" y="-429.75" font-family="Cascadia Code NF" font-size="10.00">Registry&lt; JSFinalizationRegistry,</text>
<text text-anchor="start" x="315" y="-417" font-family="Cascadia Code NF" font-size="10.00"> JSObject &gt;</text>
<text text-anchor="start" x="252" y="-400.5" font-family="Cascadia Code NF" font-size="10.00">+</text>
<text text-anchor="start" x="266" y="-400.5" font-family="Cascadia Code NF" font-size="10.00">kStartOfStrongFieldsOffset</text>
<text text-anchor="start" x="252" y="-384.5" font-family="Cascadia Code NF" font-size="10.00">+</text>
<text text-anchor="start" x="266" y="-384.5" font-family="Cascadia Code NF" font-size="10.00">kNativeContextOffset</text>
<text text-anchor="start" x="252" y="-368.5" font-family="Cascadia Code NF" font-size="10.00">+</text>
<text text-anchor="start" x="266" y="-368.5" font-family="Cascadia Code NF" font-size="10.00">kNativeContextOffsetEnd</text>
<text text-anchor="start" x="252" y="-352.5" font-family="Cascadia Code NF" font-size="10.00">+</text>
<text text-anchor="start" x="266" y="-352.5" font-family="Cascadia Code NF" font-size="10.00">kKeyMapOffset</text>
<text text-anchor="start" x="252" y="-336.5" font-family="Cascadia Code NF" font-size="10.00">+</text>
<text text-anchor="start" x="266" y="-336.5" font-family="Cascadia Code NF" font-size="10.00">kKeyMapOffsetEnd</text>
<text text-anchor="start" x="252" y="-320.5" font-family="Cascadia Code NF" font-size="10.00">+</text>
<text text-anchor="start" x="266" y="-320.5" font-family="Cascadia Code NF" font-size="10.00">kNextDirtyOffset</text>
<text text-anchor="start" x="252" y="-304.5" font-family="Cascadia Code NF" font-size="10.00">+</text>
<text text-anchor="start" x="266" y="-304.5" font-family="Cascadia Code NF" font-size="10.00">kNextDirtyOffsetEnd</text>
<text text-anchor="start" x="252" y="-288.5" font-family="Cascadia Code NF" font-size="10.00">+</text>
<text text-anchor="start" x="266" y="-288.5" font-family="Cascadia Code NF" font-size="10.00">kStartOfWeakFieldsOffset</text>
<text text-anchor="start" x="252" y="-272.5" font-family="Cascadia Code NF" font-size="10.00">+</text>
<text text-anchor="start" x="266" y="-272.5" font-family="Cascadia Code NF" font-size="10.00">kHeaderSize</text>
<text text-anchor="start" x="252" y="-256.5" font-family="Cascadia Code NF" font-size="10.00">+</text>
<text text-anchor="start" x="266" y="-256.5" font-family="Cascadia Code NF" font-size="10.00">native_context()</text>
<text text-anchor="start" x="252" y="-240.5" font-family="Cascadia Code NF" font-size="10.00">+</text>
<text text-anchor="start" x="266" y="-240.5" font-family="Cascadia Code NF" font-size="10.00">native_context()</text>
<text text-anchor="start" x="252" y="-224.5" font-family="Cascadia Code NF" font-size="10.00">+</text>
<text text-anchor="start" x="266" y="-224.5" font-family="Cascadia Code NF" font-size="10.00">set_native_context()</text>
<text text-anchor="start" x="252" y="-208.5" font-family="Cascadia Code NF" font-size="10.00">+</text>
<text text-anchor="start" x="266" y="-208.5" font-family="Cascadia Code NF" font-size="10.00">cleanup()</text>
<text text-anchor="start" x="252" y="-192.5" font-family="Cascadia Code NF" font-size="10.00">+</text>
<text text-anchor="start" x="266" y="-192.5" font-family="Cascadia Code NF" font-size="10.00">cleanup()</text>
<text text-anchor="start" x="252" y="-176.5" font-family="Cascadia Code NF" font-size="10.00">+</text>
<text text-anchor="start" x="266" y="-176.5" font-family="Cascadia Code NF" font-size="10.00">set_cleanup()</text>
<text text-anchor="start" x="252" y="-160.5" font-family="Cascadia Code NF" font-size="10.00">+</text>
<text text-anchor="start" x="266" y="-160.5" font-family="Cascadia Code NF" font-size="10.00">active_cells()</text>
<text text-anchor="start" x="252" y="-144.5" font-family="Cascadia Code NF" font-size="10.00">+</text>
<text text-anchor="start" x="266" y="-144.5" font-family="Cascadia Code NF" font-size="10.00">active_cells()</text>
<text text-anchor="start" x="252" y="-128.5" font-family="Cascadia Code NF" font-size="10.00">+</text>
<text text-anchor="start" x="266" y="-128.5" font-family="Cascadia Code NF" font-size="10.00">set_active_cells()</text>
<text text-anchor="start" x="252" y="-112.5" font-family="Cascadia Code NF" font-size="10.00">+</text>
<text text-anchor="start" x="266" y="-112.5" font-family="Cascadia Code NF" font-size="10.00">cleared_cells()</text>
<text text-anchor="start" x="266" y="-96.5" font-family="Cascadia Code NF" font-size="10.00">and 11 more...</text>
<text text-anchor="start" x="252" y="-80.5" font-family="Cascadia Code NF" font-size="10.00">+</text>
<text text-anchor="start" x="266" y="-80.5" font-family="Cascadia Code NF" font-size="10.00">cast()</text>
<text text-anchor="start" x="252" y="-64.5" font-family="Cascadia Code NF" font-size="10.00">+</text>
<text text-anchor="start" x="266" y="-64.5" font-family="Cascadia Code NF" font-size="10.00">unchecked_cast()</text>
<text text-anchor="start" x="252" y="-48.5" font-family="Cascadia Code NF" font-size="10.00">#</text>
<text text-anchor="start" x="266" y="-48.5" font-family="Cascadia Code NF" font-size="10.00">TorqueGeneratedJSFinalization</text>
<text text-anchor="start" x="266" y="-35.75" font-family="Cascadia Code NF" font-size="10.00">Registry()</text>
<text text-anchor="start" x="252" y="-19.5" font-family="Cascadia Code NF" font-size="10.00">#</text>
<text text-anchor="start" x="266" y="-19.5" font-family="Cascadia Code NF" font-size="10.00">TorqueGeneratedJSFinalization</text>
<text text-anchor="start" x="266" y="-6.75" font-family="Cascadia Code NF" font-size="10.00">Registry()</text>
<polygon fill="#bfbfbf" stroke="#bfbfbf" points="244,-412 244,-412 452,-412 452,-412 244,-412"/>
<polygon fill="#bfbfbf" stroke="#bfbfbf" points="244,-268 244,-268 264,-268 264,-268 244,-268"/>
<polygon fill="#bfbfbf" stroke="#bfbfbf" points="264,-268 264,-268 452,-268 452,-268 264,-268"/>
<polygon fill="none" stroke="#bfbfbf" points="244,0 244,-456 452,-456 452,0 244,0"/>
</a>
</g>
</g>
<!-- Node2&#45;&gt;Node1 -->
<g id="edge1_Node000001_Node000002" class="edge">
<title>Node2&#45;&gt;Node1</title>
<g id="a_edge1_Node000001_Node000002"><a xlink:title=" ">
<path fill="none" stroke="#63b8ff" d="M463.21,-228C471.51,-228 479.85,-228 488.04,-228"/>
<polygon fill="none" stroke="#63b8ff" points="463.43,-224.5 453.43,-228 463.43,-231.5 463.43,-224.5"/>
</a>
</g>
</g>
<!-- Node3 -->
<g id="Node000003" class="node">
<title>Node3</title>
<g id="a_Node000003"><a xlink:title=" ">
<polygon fill="white" stroke="none" points="58,-336 0,-336 0,-284 58,-284 58,-336"/>
<text text-anchor="start" x="5" y="-322.5" font-family="Cascadia Code NF" font-size="10.00">JSObject</text>
<text text-anchor="start" x="26" y="-306.5" font-family="Cascadia Code NF" font-size="10.00"> </text>
<text text-anchor="start" x="26" y="-290.5" font-family="Cascadia Code NF" font-size="10.00"> </text>
<polygon fill="#bfbfbf" stroke="#bfbfbf" points="0,-318 0,-318 58,-318 58,-318 0,-318"/>
<polygon fill="#bfbfbf" stroke="#bfbfbf" points="0,-302 0,-302 58,-302 58,-302 0,-302"/>
<polygon fill="none" stroke="#bfbfbf" points="0,-284 0,-336 58,-336 58,-284 0,-284"/>
</a>
</g>
</g>
<!-- Node3&#45;&gt;Node2 -->
<g id="edge2_Node000002_Node000003" class="edge">
<title>Node3&#45;&gt;Node2</title>
<g id="a_edge2_Node000002_Node000003"><a xlink:title=" ">
<path fill="none" stroke="#63b8ff" d="M69.28,-309.58C109.42,-308.23 173.19,-303.53 226,-288 232.07,-286.21 238.21,-284.14 244.33,-281.85"/>
<polygon fill="none" stroke="#63b8ff" points="69.28,-306.08 59.38,-309.85 69.47,-313.08 69.28,-306.08"/>
</a>
</g>
</g>
<!-- Node4 -->
<g id="Node000004" class="node">
<title>Node4</title>
<g id="a_Node000004"><a xlink:href="../../d1/da0/classint.html" target="_top" xlink:title=" ">
<polygon fill="white" stroke="none" points="43,-173 15,-173 15,-121 43,-121 43,-173"/>
<text text-anchor="start" x="20" y="-159.5" font-family="Cascadia Code NF" font-size="10.00">int</text>
<text text-anchor="start" x="26" y="-143.5" font-family="Cascadia Code NF" font-size="10.00"> </text>
<text text-anchor="start" x="26" y="-127.5" font-family="Cascadia Code NF" font-size="10.00"> </text>
<polygon fill="#bfbfbf" stroke="#bfbfbf" points="15,-155 15,-155 43,-155 43,-155 15,-155"/>
<polygon fill="#bfbfbf" stroke="#bfbfbf" points="15,-139 15,-139 43,-139 43,-139 15,-139"/>
<polygon fill="none" stroke="#bfbfbf" points="15,-121 15,-173 43,-173 43,-121 15,-121"/>
</a>
</g>
</g>
<!-- Node4&#45;&gt;Node2 -->
<g id="edge3_Node000002_Node000004" class="edge">
<title>Node4&#45;&gt;Node2</title>
<g id="a_edge3_Node000002_Node000004"><a xlink:title=" ">
<path fill="none" stroke="#63b8ff" d="M42.75,-144.58C74.55,-139.08 159.58,-127.59 226,-147.75 228.11,-148.39 230.23,-149.08 232.33,-149.82"/>
<polygon fill="none" stroke="#63b8ff" points="232.31,-149.81 239.36,-148.28 243.48,-154.19 236.44,-155.73 232.31,-149.81"/>
</a>
</g>
<text text-anchor="middle" x="151" y="-277.75" font-family="Cascadia Code NF" font-size="10.00" fill="grey"> +kActiveCellsOffset</text>
<text text-anchor="middle" x="151" y="-265" font-family="Cascadia Code NF" font-size="10.00" fill="grey">+kActiveCellsOffsetEnd</text>
<text text-anchor="middle" x="151" y="-252.25" font-family="Cascadia Code NF" font-size="10.00" fill="grey">+kCleanupOffset</text>
<text text-anchor="middle" x="151" y="-239.5" font-family="Cascadia Code NF" font-size="10.00" fill="grey">+kCleanupOffsetEnd</text>
<text text-anchor="middle" x="151" y="-226.75" font-family="Cascadia Code NF" font-size="10.00" fill="grey">+kClearedCellsOffset</text>
<text text-anchor="middle" x="151" y="-214" font-family="Cascadia Code NF" font-size="10.00" fill="grey">+kClearedCellsOffsetEnd</text>
<text text-anchor="middle" x="151" y="-201.25" font-family="Cascadia Code NF" font-size="10.00" fill="grey">+kEndOfStrongFieldsOffset</text>
<text text-anchor="middle" x="151" y="-188.5" font-family="Cascadia Code NF" font-size="10.00" fill="grey">+kEndOfWeakFieldsOffset</text>
<text text-anchor="middle" x="151" y="-175.75" font-family="Cascadia Code NF" font-size="10.00" fill="grey">+kFlagsOffset</text>
<text text-anchor="middle" x="151" y="-163" font-family="Cascadia Code NF" font-size="10.00" fill="grey">+kFlagsOffsetEnd</text>
<text text-anchor="middle" x="151" y="-150.25" font-family="Cascadia Code NF" font-size="10.00" fill="grey">...</text>
</g>
</g>
</svg>

<g id="navigator" transform="translate(0 0)" fill="#404254">
  <rect fill="#f2f5e9" fill-opacity="0.5" stroke="#606060" stroke-width=".5" x="0" y="0" width="60" height="60"/>
  <use id="zoomplus" xlink:href="#zoomPlus" x="17" y="9" onmousedown="handleZoom(evt,'in')"/>
  <use id="zoomminus" xlink:href="#zoomMin" x="42" y="9" onmousedown="handleZoom(evt,'out')"/>
  <use id="reset" xlink:href="#resetDef" x="30" y="36" onmousedown="handleReset()"/>
   <use id="arrowup" xlink:href="#arrowUp" x="0" y="0" onmousedown="handlePan(0,-1)"/>
  <use id="arrowright" xlink:href="#arrowRight" x="0" y="0" onmousedown="handlePan(1,0)"/>
  <use id="arrowdown" xlink:href="#arrowDown" x="0" y="0" onmousedown="handlePan(0,1)"/>
  <use id="arrowleft" xlink:href="#arrowLeft" x="0" y="0" onmousedown="handlePan(-1,0)"/>
</g>
<svg viewBox="0 0 15 15" width="100%" height="30px" preserveAspectRatio="xMaxYMin meet">
 <g id="arrow_out" transform="scale(0.3 0.3)">
  <a xlink:href="classv8_1_1internal_1_1JSFinalizationRegistry__coll__graph_org.svg" target="_base">
   <rect id="button" ry="5" rx="5" y="6" x="6" height="38" width="38"
        fill="#f2f5e9" fill-opacity="0.5" stroke="#606060" stroke-width="1.0"/>
   <path id="arrow"
     d="M 11.500037,31.436501 C 11.940474,20.09759 22.043105,11.32322 32.158766,21.979434 L 37.068811,17.246167 C 37.068811,17.246167 37.088388,32 37.088388,32 L 22.160133,31.978069 C 22.160133,31.978069 26.997745,27.140456 26.997745,27.140456 C 18.528582,18.264221 13.291696,25.230495 11.500037,31.436501 z"
     style="fill:#404040;"/>
  </a>
 </g>
</svg>

<style type='text/css'>
<![CDATA[
[data-mouse-over-selected='false'] { opacity: 0.7; }
[data-mouse-over-selected='true']  { opacity: 1.0; }
]]>
</style>
<script type="application/ecmascript"><![CDATA[
document.addEventListener('DOMContentLoaded', (event) => {
  highlightEdges();
  highlightAdjacentNodes();
});
]]></script>
</svg>
