<?xml version="1.0" encoding="UTF-8" standalone="no"?>
<!DOCTYPE svg PUBLIC "-//W3C//DTD SVG 1.1//EN"
 "http://www.w3.org/Graphics/SVG/1.1/DTD/svg11.dtd">
<!-- Generated by graphviz version 11.0.0 (20240428.1522)
 -->
<!-- Title: v8::internal::SmallOrderedHashTable&lt; Derived &gt; Pages: 1 -->
<!--zoomable 665 -->

<svg id="main" version="1.1" xmlns="http://www.w3.org/2000/svg" xmlns:xlink="http://www.w3.org/1999/xlink" xml:space="preserve" onload="init(evt)">
<style type="text/css"><![CDATA[
.node, .edge {opacity: 0.7;}
.node.selected, .edge.selected {opacity: 1;}
.edge:hover path { stroke: red; }
.edge:hover polygon { stroke: red; fill: red; }
svg#main { background-color: #111; }
]]></style>

<defs>
  <circle id="rim" cx="0" cy="0" r="7"/>
  <circle id="rim2" cx="0" cy="0" r="3.5"/>
  <g id="zoomPlus">
    <use xlink:href="#rim" fill="#404040"><set attributeName="fill" to="#808080" begin="zoomplus.mouseover" end="zoomplus.mouseout"/></use>
    <path d="M-4,0h8M0,-4v8" fill="none" stroke="white" stroke-width="1.5" pointer-events="none"/>
  </g>
  <g id="zoomMin">
    <use xlink:href="#rim" fill="#404040"><set attributeName="fill" to="#808080" begin="zoomminus.mouseover" end="zoomminus.mouseout"/></use>
    <path d="M-4,0h8" fill="none" stroke="white" stroke-width="1.5" pointer-events="none"/>
  </g>
  <g id="arrowUp" transform="translate(30 24)">
    <use xlink:href="#rim"/>
    <path pointer-events="none" fill="none" stroke="white" stroke-width="1.5" d="M0,-3.0v7 M-2.5,-0.5L0,-3.0L2.5,-0.5"/>
  </g>
  <g id="arrowRight" transform="rotate(90) translate(36 -43)">
    <use xlink:href="#rim"/>
    <path pointer-events="none" fill="none" stroke="white" stroke-width="1.5" d="M0,-3.0v7 M-2.5,-0.5L0,-3.0L2.5,-0.5"/>
  </g>
  <g id="arrowDown" transform="rotate(180) translate(-30 -48)">
    <use xlink:href="#rim"/>
    <path pointer-events="none" fill="none" stroke="white" stroke-width="1.5" d="M0,-3.0v7 M-2.5,-0.5L0,-3.0L2.5,-0.5"/>
  </g>
  <g id="arrowLeft" transform="rotate(270) translate(-36 17)">
    <use xlink:href="#rim"/>
    <path pointer-events="none" fill="none" stroke="white" stroke-width="1.5" d="M0,-3.0v7 M-2.5,-0.5L0,-3.0L2.5,-0.5"/>
  </g>
  <g id="resetDef">
    <use xlink:href="#rim2" fill="#404040"><set attributeName="fill" to="#808080" begin="reset.mouseover" end="reset.mouseout"/></use>
  </g>
</defs>
<script type="application/ecmascript">
var viewWidth = 857;
var viewHeight = 665;
var sectionId = 'dynsection-1';
</script>
<script type="application/ecmascript" xlink:href="../../svg.min.js"/>
<svg id="graph" class="graph">
<g id="viewport">
<title>v8::internal::SmallOrderedHashTable&lt; Derived &gt;</title>
<!-- Node1 -->
<g id="Node000001" class="node">
<title>Node1</title>
<g id="a_Node000001"><a xlink:title=" ">
<polygon fill="#999999" stroke="none" points="849,-657 645,-657 645,0 849,0 849,-657"/>
<text text-anchor="start" x="669" y="-643.5" font-family="Cascadia Code NF" font-size="10.00">v8::internal::SmallOrdered</text>
<text text-anchor="start" x="687" y="-630.75" font-family="Cascadia Code NF" font-size="10.00">HashTable&lt; Derived &gt;</text>
<text text-anchor="start" x="744" y="-614.5" font-family="Cascadia Code NF" font-size="10.00"> </text>
<text text-anchor="start" x="649" y="-598.5" font-family="Cascadia Code NF" font-size="10.00">+</text>
<text text-anchor="start" x="659" y="-598.5" font-family="Cascadia Code NF" font-size="10.00">Initialize()</text>
<text text-anchor="start" x="649" y="-582.5" font-family="Cascadia Code NF" font-size="10.00">+</text>
<text text-anchor="start" x="659" y="-582.5" font-family="Cascadia Code NF" font-size="10.00">HasKey()</text>
<text text-anchor="start" x="649" y="-566.5" font-family="Cascadia Code NF" font-size="10.00">+</text>
<text text-anchor="start" x="659" y="-566.5" font-family="Cascadia Code NF" font-size="10.00">FindEntry()</text>
<text text-anchor="start" x="649" y="-550.5" font-family="Cascadia Code NF" font-size="10.00">+</text>
<text text-anchor="start" x="659" y="-550.5" font-family="Cascadia Code NF" font-size="10.00">Capacity()</text>
<text text-anchor="start" x="649" y="-534.5" font-family="Cascadia Code NF" font-size="10.00">+</text>
<text text-anchor="start" x="659" y="-534.5" font-family="Cascadia Code NF" font-size="10.00">NumberOfElements()</text>
<text text-anchor="start" x="649" y="-518.5" font-family="Cascadia Code NF" font-size="10.00">+</text>
<text text-anchor="start" x="659" y="-518.5" font-family="Cascadia Code NF" font-size="10.00">NumberOfDeletedElements()</text>
<text text-anchor="start" x="649" y="-502.5" font-family="Cascadia Code NF" font-size="10.00">+</text>
<text text-anchor="start" x="659" y="-502.5" font-family="Cascadia Code NF" font-size="10.00">NumberOfBuckets()</text>
<text text-anchor="start" x="649" y="-486.5" font-family="Cascadia Code NF" font-size="10.00">+</text>
<text text-anchor="start" x="659" y="-486.5" font-family="Cascadia Code NF" font-size="10.00">KeyAt()</text>
<text text-anchor="start" x="649" y="-470.5" font-family="Cascadia Code NF" font-size="10.00">+</text>
<text text-anchor="start" x="659" y="-470.5" font-family="Cascadia Code NF" font-size="10.00">IterateEntries()</text>
<text text-anchor="start" x="649" y="-454.5" font-family="Cascadia Code NF" font-size="10.00">+</text>
<text text-anchor="start" x="659" y="-454.5" font-family="Cascadia Code NF" font-size="10.00">Allocate()</text>
<text text-anchor="start" x="649" y="-438.5" font-family="Cascadia Code NF" font-size="10.00">+</text>
<text text-anchor="start" x="659" y="-438.5" font-family="Cascadia Code NF" font-size="10.00">Allocate()</text>
<text text-anchor="start" x="649" y="-422.5" font-family="Cascadia Code NF" font-size="10.00">+</text>
<text text-anchor="start" x="659" y="-422.5" font-family="Cascadia Code NF" font-size="10.00">Allocate()</text>
<text text-anchor="start" x="649" y="-406.5" font-family="Cascadia Code NF" font-size="10.00">+</text>
<text text-anchor="start" x="659" y="-406.5" font-family="Cascadia Code NF" font-size="10.00">FindEntry()</text>
<text text-anchor="start" x="649" y="-390.5" font-family="Cascadia Code NF" font-size="10.00">+</text>
<text text-anchor="start" x="659" y="-390.5" font-family="Cascadia Code NF" font-size="10.00">Allocate()</text>
<text text-anchor="start" x="649" y="-374.5" font-family="Cascadia Code NF" font-size="10.00">+</text>
<text text-anchor="start" x="659" y="-374.5" font-family="Cascadia Code NF" font-size="10.00">Delete()</text>
<text text-anchor="start" x="649" y="-358.5" font-family="Cascadia Code NF" font-size="10.00">+</text>
<text text-anchor="start" x="659" y="-358.5" font-family="Cascadia Code NF" font-size="10.00">Grow()</text>
<text text-anchor="start" x="649" y="-342.5" font-family="Cascadia Code NF" font-size="10.00">+</text>
<text text-anchor="start" x="659" y="-342.5" font-family="Cascadia Code NF" font-size="10.00">Shrink()</text>
<text text-anchor="start" x="649" y="-326.5" font-family="Cascadia Code NF" font-size="10.00">+</text>
<text text-anchor="start" x="659" y="-326.5" font-family="Cascadia Code NF" font-size="10.00">SizeFor()</text>
<text text-anchor="start" x="649" y="-310.5" font-family="Cascadia Code NF" font-size="10.00">#</text>
<text text-anchor="start" x="659" y="-310.5" font-family="Cascadia Code NF" font-size="10.00">SetDataEntry()</text>
<text text-anchor="start" x="649" y="-294.5" font-family="Cascadia Code NF" font-size="10.00">#</text>
<text text-anchor="start" x="659" y="-294.5" font-family="Cascadia Code NF" font-size="10.00">GetBucketsStartOffset()</text>
<text text-anchor="start" x="649" y="-278.5" font-family="Cascadia Code NF" font-size="10.00">#</text>
<text text-anchor="start" x="659" y="-278.5" font-family="Cascadia Code NF" font-size="10.00">GetHashTableStartAddress()</text>
<text text-anchor="start" x="649" y="-262.5" font-family="Cascadia Code NF" font-size="10.00">#</text>
<text text-anchor="start" x="659" y="-262.5" font-family="Cascadia Code NF" font-size="10.00">SetFirstEntry()</text>
<text text-anchor="start" x="649" y="-246.5" font-family="Cascadia Code NF" font-size="10.00">#</text>
<text text-anchor="start" x="659" y="-246.5" font-family="Cascadia Code NF" font-size="10.00">GetFirstEntry()</text>
<text text-anchor="start" x="649" y="-230.5" font-family="Cascadia Code NF" font-size="10.00">#</text>
<text text-anchor="start" x="659" y="-230.5" font-family="Cascadia Code NF" font-size="10.00">GetChainTableOffset()</text>
<text text-anchor="start" x="649" y="-214.5" font-family="Cascadia Code NF" font-size="10.00">#</text>
<text text-anchor="start" x="659" y="-214.5" font-family="Cascadia Code NF" font-size="10.00">SetNextEntry()</text>
<text text-anchor="start" x="649" y="-198.5" font-family="Cascadia Code NF" font-size="10.00">#</text>
<text text-anchor="start" x="659" y="-198.5" font-family="Cascadia Code NF" font-size="10.00">GetNextEntry()</text>
<text text-anchor="start" x="649" y="-182.5" font-family="Cascadia Code NF" font-size="10.00">#</text>
<text text-anchor="start" x="659" y="-182.5" font-family="Cascadia Code NF" font-size="10.00">GetDataEntry()</text>
<text text-anchor="start" x="649" y="-166.5" font-family="Cascadia Code NF" font-size="10.00">#</text>
<text text-anchor="start" x="659" y="-166.5" font-family="Cascadia Code NF" font-size="10.00">HashToBucket()</text>
<text text-anchor="start" x="659" y="-150.5" font-family="Cascadia Code NF" font-size="10.00">and 8 more...</text>
<text text-anchor="start" x="649" y="-134.5" font-family="Cascadia Code NF" font-size="10.00">#</text>
<text text-anchor="start" x="659" y="-134.5" font-family="Cascadia Code NF" font-size="10.00">Rehash()</text>
<text text-anchor="start" x="649" y="-118.5" font-family="Cascadia Code NF" font-size="10.00">#</text>
<text text-anchor="start" x="659" y="-118.5" font-family="Cascadia Code NF" font-size="10.00">PrefixOffset()</text>
<text text-anchor="start" x="649" y="-102.5" font-family="Cascadia Code NF" font-size="10.00">#</text>
<text text-anchor="start" x="659" y="-102.5" font-family="Cascadia Code NF" font-size="10.00">NumberOfElementsOffset()</text>
<text text-anchor="start" x="649" y="-86.5" font-family="Cascadia Code NF" font-size="10.00">#</text>
<text text-anchor="start" x="659" y="-86.5" font-family="Cascadia Code NF" font-size="10.00">NumberOfDeletedElementsOffset()</text>
<text text-anchor="start" x="649" y="-70.5" font-family="Cascadia Code NF" font-size="10.00">#</text>
<text text-anchor="start" x="659" y="-70.5" font-family="Cascadia Code NF" font-size="10.00">NumberOfBucketsOffset()</text>
<text text-anchor="start" x="649" y="-54.5" font-family="Cascadia Code NF" font-size="10.00">#</text>
<text text-anchor="start" x="659" y="-54.5" font-family="Cascadia Code NF" font-size="10.00">PaddingOffset()</text>
<text text-anchor="start" x="649" y="-38.5" font-family="Cascadia Code NF" font-size="10.00">#</text>
<text text-anchor="start" x="659" y="-38.5" font-family="Cascadia Code NF" font-size="10.00">PaddingSize()</text>
<text text-anchor="start" x="649" y="-22.5" font-family="Cascadia Code NF" font-size="10.00">#</text>
<text text-anchor="start" x="659" y="-22.5" font-family="Cascadia Code NF" font-size="10.00">DataTableStartOffset()</text>
<text text-anchor="start" x="649" y="-6.5" font-family="Cascadia Code NF" font-size="10.00">#</text>
<text text-anchor="start" x="659" y="-6.5" font-family="Cascadia Code NF" font-size="10.00">DataTableSizeFor()</text>
<polygon fill="#666666" stroke="#666666" points="645,-626 645,-626 849,-626 849,-626 645,-626"/>
<polygon fill="#666666" stroke="#666666" points="645,-610 645,-610 849,-610 849,-610 645,-610"/>
<polygon fill="none" stroke="#666666" points="645,0 645,-657 849,-657 849,0 645,0"/>
</a>
</g>
</g>
<!-- Node2 -->
<g id="Node000002" class="node">
<title>Node2</title>
<g id="a_Node000002"><a xlink:href="../../d0/d31/classv8_1_1internal_1_1HeapObject.html" target="_top" xlink:title=" ">
<polygon fill="white" stroke="none" points="608,-418.5 422,-418.5 422,-4.5 608,-4.5 608,-418.5"/>
<text text-anchor="start" x="443" y="-405" font-family="Cascadia Code NF" font-size="10.00">v8::internal::HeapObject</text>
<text text-anchor="start" x="512" y="-389" font-family="Cascadia Code NF" font-size="10.00"> </text>
<text text-anchor="start" x="426" y="-373" font-family="Cascadia Code NF" font-size="10.00">+</text>
<text text-anchor="start" x="436" y="-373" font-family="Cascadia Code NF" font-size="10.00">HeapObject()</text>
<text text-anchor="start" x="426" y="-357" font-family="Cascadia Code NF" font-size="10.00">+</text>
<text text-anchor="start" x="436" y="-357" font-family="Cascadia Code NF" font-size="10.00">set_map()</text>
<text text-anchor="start" x="426" y="-341" font-family="Cascadia Code NF" font-size="10.00">+</text>
<text text-anchor="start" x="436" y="-341" font-family="Cascadia Code NF" font-size="10.00">set_map_safe_transition()</text>
<text text-anchor="start" x="426" y="-325" font-family="Cascadia Code NF" font-size="10.00">+</text>
<text text-anchor="start" x="436" y="-325" font-family="Cascadia Code NF" font-size="10.00">map_slot()</text>
<text text-anchor="start" x="426" y="-309" font-family="Cascadia Code NF" font-size="10.00">+</text>
<text text-anchor="start" x="436" y="-309" font-family="Cascadia Code NF" font-size="10.00">set_map_no_write_barrier()</text>
<text text-anchor="start" x="426" y="-293" font-family="Cascadia Code NF" font-size="10.00">+</text>
<text text-anchor="start" x="436" y="-293" font-family="Cascadia Code NF" font-size="10.00">set_map_no_write_barrier()</text>
<text text-anchor="start" x="426" y="-277" font-family="Cascadia Code NF" font-size="10.00">+</text>
<text text-anchor="start" x="436" y="-277" font-family="Cascadia Code NF" font-size="10.00">set_map_safe_transition</text>
<text text-anchor="start" x="436" y="-264.25" font-family="Cascadia Code NF" font-size="10.00">_no_write_barrier()</text>
<text text-anchor="start" x="426" y="-248" font-family="Cascadia Code NF" font-size="10.00">+</text>
<text text-anchor="start" x="436" y="-248" font-family="Cascadia Code NF" font-size="10.00">set_map_safe_transition</text>
<text text-anchor="start" x="436" y="-235.25" font-family="Cascadia Code NF" font-size="10.00">_no_write_barrier()</text>
<text text-anchor="start" x="426" y="-219" font-family="Cascadia Code NF" font-size="10.00">+</text>
<text text-anchor="start" x="436" y="-219" font-family="Cascadia Code NF" font-size="10.00">set_map()</text>
<text text-anchor="start" x="426" y="-203" font-family="Cascadia Code NF" font-size="10.00">+</text>
<text text-anchor="start" x="436" y="-203" font-family="Cascadia Code NF" font-size="10.00">set_map_safe_transition()</text>
<text text-anchor="start" x="436" y="-187" font-family="Cascadia Code NF" font-size="10.00">and 69 more...</text>
<text text-anchor="start" x="426" y="-171" font-family="Cascadia Code NF" font-size="10.00">+</text>
<text text-anchor="start" x="436" y="-171" font-family="Cascadia Code NF" font-size="10.00">SetFillerMap()</text>
<text text-anchor="start" x="426" y="-155" font-family="Cascadia Code NF" font-size="10.00">+</text>
<text text-anchor="start" x="436" y="-155" font-family="Cascadia Code NF" font-size="10.00">FromAddress()</text>
<text text-anchor="start" x="426" y="-139" font-family="Cascadia Code NF" font-size="10.00">+</text>
<text text-anchor="start" x="436" y="-139" font-family="Cascadia Code NF" font-size="10.00">SeqCst_CompareAndSwapField()</text>
<text text-anchor="start" x="426" y="-123" font-family="Cascadia Code NF" font-size="10.00">+</text>
<text text-anchor="start" x="436" y="-123" font-family="Cascadia Code NF" font-size="10.00">Print()</text>
<text text-anchor="start" x="426" y="-107" font-family="Cascadia Code NF" font-size="10.00">+</text>
<text text-anchor="start" x="436" y="-107" font-family="Cascadia Code NF" font-size="10.00">Print()</text>
<text text-anchor="start" x="426" y="-91" font-family="Cascadia Code NF" font-size="10.00">+</text>
<text text-anchor="start" x="436" y="-91" font-family="Cascadia Code NF" font-size="10.00">RequiredAlignment()</text>
<text text-anchor="start" x="426" y="-75" font-family="Cascadia Code NF" font-size="10.00">#</text>
<text text-anchor="start" x="436" y="-75" font-family="Cascadia Code NF" font-size="10.00">HeapObject()</text>
<text text-anchor="start" x="426" y="-59" font-family="Cascadia Code NF" font-size="10.00">#</text>
<text text-anchor="start" x="436" y="-59" font-family="Cascadia Code NF" font-size="10.00">HeapObject()</text>
<text text-anchor="start" x="426" y="-43" font-family="Cascadia Code NF" font-size="10.00">#</text>
<text text-anchor="start" x="436" y="-43" font-family="Cascadia Code NF" font-size="10.00">field_address()</text>
<text text-anchor="start" x="426" y="-27" font-family="Cascadia Code NF" font-size="10.00">#</text>
<text text-anchor="start" x="436" y="-27" font-family="Cascadia Code NF" font-size="10.00">IsSmi()</text>
<text text-anchor="start" x="426" y="-11" font-family="Cascadia Code NF" font-size="10.00">#</text>
<text text-anchor="start" x="436" y="-11" font-family="Cascadia Code NF" font-size="10.00">IsHeapObject()</text>
<polygon fill="#bfbfbf" stroke="#bfbfbf" points="422,-400.5 422,-400.5 608,-400.5 608,-400.5 422,-400.5"/>
<polygon fill="#bfbfbf" stroke="#bfbfbf" points="422,-384.5 422,-384.5 608,-384.5 608,-384.5 422,-384.5"/>
<polygon fill="none" stroke="#bfbfbf" points="422,-4.5 422,-418.5 608,-418.5 608,-4.5 422,-4.5"/>
</a>
</g>
</g>
<!-- Node2&#45;&gt;Node1 -->
<g id="edge1_Node000001_Node000002" class="edge">
<title>Node2&#45;&gt;Node1</title>
<g id="a_edge1_Node000001_Node000002"><a xlink:title=" ">
<path fill="none" stroke="#63b8ff" d="M618.02,-263.4C627.05,-267.99 636.18,-272.63 645.19,-277.22"/>
<polygon fill="none" stroke="#63b8ff" points="619.74,-260.35 609.24,-258.93 616.57,-266.59 619.74,-260.35"/>
</a>
</g>
</g>
<!-- Node3 -->
<g id="Node000003" class="node">
<title>Node3</title>
<g id="a_Node000003"><a xlink:href="../../df/d94/classv8_1_1internal_1_1TaggedImpl.html" target="_top" xlink:title=" ">
<polygon fill="white" stroke="none" points="308,-418.5 148,-418.5 148,-148.5 308,-148.5 308,-418.5"/>
<text text-anchor="start" x="153" y="-405" font-family="Cascadia Code NF" font-size="10.00">v8::internal::TaggedImpl</text>
<text text-anchor="start" x="153" y="-392.25" font-family="Cascadia Code NF" font-size="10.00">&lt; HeapObjectReferenceType</text>
<text text-anchor="start" x="171" y="-379.5" font-family="Cascadia Code NF" font-size="10.00">::STRONG, Address &gt;</text>
<text text-anchor="start" x="225" y="-363" font-family="Cascadia Code NF" font-size="10.00"> </text>
<text text-anchor="start" x="165" y="-347" font-family="Cascadia Code NF" font-size="10.00">+</text>
<text text-anchor="start" x="188" y="-347" font-family="Cascadia Code NF" font-size="10.00">TaggedImpl()</text>
<text text-anchor="start" x="165" y="-331" font-family="Cascadia Code NF" font-size="10.00">+</text>
<text text-anchor="start" x="188" y="-331" font-family="Cascadia Code NF" font-size="10.00">TaggedImpl()</text>
<text text-anchor="start" x="165" y="-315" font-family="Cascadia Code NF" font-size="10.00">+</text>
<text text-anchor="start" x="188" y="-315" font-family="Cascadia Code NF" font-size="10.00">operator bool()</text>
<text text-anchor="start" x="165" y="-299" font-family="Cascadia Code NF" font-size="10.00">+</text>
<text text-anchor="start" x="188" y="-299" font-family="Cascadia Code NF" font-size="10.00">operator==()</text>
<text text-anchor="start" x="165" y="-283" font-family="Cascadia Code NF" font-size="10.00">+</text>
<text text-anchor="start" x="188" y="-283" font-family="Cascadia Code NF" font-size="10.00">operator!=()</text>
<text text-anchor="start" x="165" y="-267" font-family="Cascadia Code NF" font-size="10.00">+</text>
<text text-anchor="start" x="188" y="-267" font-family="Cascadia Code NF" font-size="10.00">SafeEquals()</text>
<text text-anchor="start" x="165" y="-251" font-family="Cascadia Code NF" font-size="10.00">+</text>
<text text-anchor="start" x="188" y="-251" font-family="Cascadia Code NF" font-size="10.00">operator&lt;()</text>
<text text-anchor="start" x="165" y="-235" font-family="Cascadia Code NF" font-size="10.00">+</text>
<text text-anchor="start" x="188" y="-235" font-family="Cascadia Code NF" font-size="10.00">ptr()</text>
<text text-anchor="start" x="165" y="-219" font-family="Cascadia Code NF" font-size="10.00">+</text>
<text text-anchor="start" x="188" y="-219" font-family="Cascadia Code NF" font-size="10.00">IsObject()</text>
<text text-anchor="start" x="165" y="-203" font-family="Cascadia Code NF" font-size="10.00">+</text>
<text text-anchor="start" x="188" y="-203" font-family="Cascadia Code NF" font-size="10.00">IsSmi()</text>
<text text-anchor="start" x="188" y="-187" font-family="Cascadia Code NF" font-size="10.00">and 25 more...</text>
<text text-anchor="start" x="165" y="-171" font-family="Cascadia Code NF" font-size="10.00">#</text>
<text text-anchor="start" x="188" y="-171" font-family="Cascadia Code NF" font-size="10.00">ptr_location()</text>
<text text-anchor="start" x="165" y="-155" font-family="Cascadia Code NF" font-size="10.00">#</text>
<text text-anchor="start" x="188" y="-155" font-family="Cascadia Code NF" font-size="10.00">ptr_location()</text>
<polygon fill="#bfbfbf" stroke="#bfbfbf" points="148,-374.5 148,-374.5 308,-374.5 308,-374.5 148,-374.5"/>
<polygon fill="#bfbfbf" stroke="#bfbfbf" points="148,-358.5 148,-358.5 308,-358.5 308,-358.5 148,-358.5"/>
<polygon fill="none" stroke="#bfbfbf" points="148,-148.5 148,-418.5 308,-418.5 308,-148.5 148,-148.5"/>
</a>
</g>
</g>
<!-- Node3&#45;&gt;Node2 -->
<g id="edge2_Node000002_Node000003" class="edge">
<title>Node3&#45;&gt;Node2</title>
<g id="a_edge2_Node000002_Node000003"><a xlink:title=" ">
<path fill="none" stroke="#63b8ff" d="M318.64,-260.85C351.65,-252.51 389.07,-243.06 422.26,-234.68"/>
<polygon fill="none" stroke="#63b8ff" points="317.94,-257.42 309.1,-263.26 319.65,-264.21 317.94,-257.42"/>
</a>
</g>
</g>
<!-- Node4 -->
<g id="Node000004" class="node">
<title>Node4</title>
<g id="a_Node000004"><a xlink:title=" ">
<polygon fill="white" stroke="none" points="40,-390.5 0,-390.5 0,-338.5 40,-338.5 40,-390.5"/>
<text text-anchor="start" x="5" y="-377" font-family="Cascadia Code NF" font-size="10.00">const</text>
<text text-anchor="start" x="17" y="-361" font-family="Cascadia Code NF" font-size="10.00"> </text>
<text text-anchor="start" x="17" y="-345" font-family="Cascadia Code NF" font-size="10.00"> </text>
<polygon fill="#bfbfbf" stroke="#bfbfbf" points="0,-372.5 0,-372.5 40,-372.5 40,-372.5 0,-372.5"/>
<polygon fill="#bfbfbf" stroke="#bfbfbf" points="0,-356.5 0,-356.5 40,-356.5 40,-356.5 0,-356.5"/>
<polygon fill="none" stroke="#bfbfbf" points="0,-338.5 0,-390.5 40,-390.5 40,-338.5 0,-338.5"/>
</a>
</g>
</g>
<!-- Node4&#45;&gt;Node1 -->
<g id="edge5_Node000001_Node000004" class="edge">
<title>Node4&#45;&gt;Node1</title>
<g id="a_edge5_Node000001_Node000004"><a xlink:title=" ">
<path fill="none" stroke="#63b8ff" d="M39.73,-377.28C63.62,-392.72 106.78,-417.84 148,-427.5 347.05,-474.16 413.37,-490.09 608,-427.5 616.68,-424.71 625.28,-421.14 633.7,-417.04"/>
<polygon fill="none" stroke="#63b8ff" points="633.6,-417.09 637.07,-410.77 644.24,-411.54 640.77,-417.86 633.6,-417.09"/>
</a>
</g>
<text text-anchor="middle" x="365" y="-522.75" font-family="Cascadia Code NF" font-size="10.00" fill="grey"> +kGrowthHack</text>
<text text-anchor="middle" x="365" y="-510" font-family="Cascadia Code NF" font-size="10.00" fill="grey">+kLoadFactor</text>
<text text-anchor="middle" x="365" y="-497.25" font-family="Cascadia Code NF" font-size="10.00" fill="grey">+kMaxCapacity</text>
<text text-anchor="middle" x="365" y="-484.5" font-family="Cascadia Code NF" font-size="10.00" fill="grey">+kMinCapacity</text>
<text text-anchor="middle" x="365" y="-471.75" font-family="Cascadia Code NF" font-size="10.00" fill="grey">+kNotFound</text>
</g>
<!-- Node4&#45;&gt;Node3 -->
<g id="edge3_Node000003_Node000004" class="edge">
<title>Node4&#45;&gt;Node3</title>
<g id="a_edge3_Node000003_Node000004"><a xlink:title=" ">
<path fill="none" stroke="#63b8ff" d="M39.64,-357.17C61.72,-348.49 100.08,-333.41 136.36,-319.14"/>
<polygon fill="none" stroke="#63b8ff" points="136.04,-319.27 140.16,-313.35 147.21,-314.88 143.09,-320.79 136.04,-319.27"/>
</a>
</g>
<text text-anchor="middle" x="94" y="-364.5" font-family="Cascadia Code NF" font-size="10.00" fill="grey"> +kCanBeWeak</text>
<text text-anchor="middle" x="94" y="-351.75" font-family="Cascadia Code NF" font-size="10.00" fill="grey">+kIsFull</text>
</g>
<!-- Node5 -->
<g id="Node000005" class="node">
<title>Node5</title>
<g id="a_Node000005"><a xlink:href="../../d1/da0/classint.html" target="_top" xlink:title=" ">
<polygon fill="white" stroke="none" points="242,-130.5 214,-130.5 214,-78.5 242,-78.5 242,-130.5"/>
<text text-anchor="start" x="219" y="-117" font-family="Cascadia Code NF" font-size="10.00">int</text>
<text text-anchor="start" x="225" y="-101" font-family="Cascadia Code NF" font-size="10.00"> </text>
<text text-anchor="start" x="225" y="-85" font-family="Cascadia Code NF" font-size="10.00"> </text>
<polygon fill="#bfbfbf" stroke="#bfbfbf" points="214,-112.5 214,-112.5 242,-112.5 242,-112.5 214,-112.5"/>
<polygon fill="#bfbfbf" stroke="#bfbfbf" points="214,-96.5 214,-96.5 242,-96.5 242,-96.5 214,-96.5"/>
<polygon fill="none" stroke="#bfbfbf" points="214,-78.5 214,-130.5 242,-130.5 242,-78.5 214,-78.5"/>
</a>
</g>
</g>
<!-- Node5&#45;&gt;Node2 -->
<g id="edge4_Node000002_Node000005" class="edge">
<title>Node5&#45;&gt;Node2</title>
<g id="a_edge4_Node000002_Node000005"><a xlink:title=" ">
<path fill="none" stroke="#63b8ff" d="M241.99,-109.38C271.55,-120.48 346.25,-148.52 409.9,-172.42"/>
<polygon fill="none" stroke="#63b8ff" points="409.98,-172.45 417,-170.81 421.21,-176.66 414.19,-178.3 409.98,-172.45"/>
</a>
</g>
<text text-anchor="middle" x="365" y="-183.5" font-family="Cascadia Code NF" font-size="10.00" fill="grey"> +kHeaderSize</text>
<text text-anchor="middle" x="365" y="-170.75" font-family="Cascadia Code NF" font-size="10.00" fill="grey">+kMapOffset</text>
</g>
</g>
</svg>

<g id="navigator" transform="translate(0 0)" fill="#404254">
  <rect fill="#f2f5e9" fill-opacity="0.5" stroke="#606060" stroke-width=".5" x="0" y="0" width="60" height="60"/>
  <use id="zoomplus" xlink:href="#zoomPlus" x="17" y="9" onmousedown="handleZoom(evt,'in')"/>
  <use id="zoomminus" xlink:href="#zoomMin" x="42" y="9" onmousedown="handleZoom(evt,'out')"/>
  <use id="reset" xlink:href="#resetDef" x="30" y="36" onmousedown="handleReset()"/>
   <use id="arrowup" xlink:href="#arrowUp" x="0" y="0" onmousedown="handlePan(0,-1)"/>
  <use id="arrowright" xlink:href="#arrowRight" x="0" y="0" onmousedown="handlePan(1,0)"/>
  <use id="arrowdown" xlink:href="#arrowDown" x="0" y="0" onmousedown="handlePan(0,1)"/>
  <use id="arrowleft" xlink:href="#arrowLeft" x="0" y="0" onmousedown="handlePan(-1,0)"/>
</g>
<svg viewBox="0 0 15 15" width="100%" height="30px" preserveAspectRatio="xMaxYMin meet">
 <g id="arrow_out" transform="scale(0.3 0.3)">
  <a xlink:href="classv8_1_1internal_1_1SmallOrderedHashTable__coll__graph_org.svg" target="_base">
   <rect id="button" ry="5" rx="5" y="6" x="6" height="38" width="38"
        fill="#f2f5e9" fill-opacity="0.5" stroke="#606060" stroke-width="1.0"/>
   <path id="arrow"
     d="M 11.500037,31.436501 C 11.940474,20.09759 22.043105,11.32322 32.158766,21.979434 L 37.068811,17.246167 C 37.068811,17.246167 37.088388,32 37.088388,32 L 22.160133,31.978069 C 22.160133,31.978069 26.997745,27.140456 26.997745,27.140456 C 18.528582,18.264221 13.291696,25.230495 11.500037,31.436501 z"
     style="fill:#404040;"/>
  </a>
 </g>
</svg>

<style type='text/css'>
<![CDATA[
[data-mouse-over-selected='false'] { opacity: 0.7; }
[data-mouse-over-selected='true']  { opacity: 1.0; }
]]>
</style>
<script type="application/ecmascript"><![CDATA[
document.addEventListener('DOMContentLoaded', (event) => {
  highlightEdges();
  highlightAdjacentNodes();
});
]]></script>
</svg>
