<?xml version="1.0" encoding="UTF-8" standalone="no"?>
<!DOCTYPE svg PUBLIC "-//W3C//DTD SVG 1.1//EN"
 "http://www.w3.org/Graphics/SVG/1.1/DTD/svg11.dtd">
<!-- Generated by graphviz version 11.0.0 (20240428.1522)
 -->
<!-- Title: v8::internal::DebugEvaluate Pages: 1 -->
<svg width="378pt" height="140pt"
 viewBox="0.00 0.00 378.00 140.00" xmlns="http://www.w3.org/2000/svg" xmlns:xlink="http://www.w3.org/1999/xlink">

<svg id="main" version="1.1" xmlns="http://www.w3.org/2000/svg" xmlns:xlink="http://www.w3.org/1999/xlink" xml:space="preserve" onload="init(evt)">
<style type="text/css"><![CDATA[
.node, .edge {opacity: 0.7;}
.node.selected, .edge.selected {opacity: 1;}
.edge:hover path { stroke: red; }
.edge:hover polygon { stroke: red; fill: red; }
svg#main { background-color: #111; }
]]></style>
<script type="application/ecmascript" xlink:href="../../svg.min.js"/>
<svg id="graph" class="graph">
<g id="graph0" class="graph" transform="scale(1 1) rotate(0) translate(4 136)">
<title>v8::internal::DebugEvaluate</title>
<!-- Node1 -->
<g id="Node000001" class="node">
<title>Node1</title>
<g id="a_Node000001"><a xlink:title=" ">
<polygon fill="#999999" stroke="none" points="370,-132 184,-132 184,0 370,0 370,-132"/>
<text text-anchor="start" x="196" y="-118.5" font-family="Cascadia Code NF" font-size="10.00">v8::internal::DebugEvaluate</text>
<text text-anchor="start" x="274" y="-102.5" font-family="Cascadia Code NF" font-size="10.00"> </text>
<text text-anchor="start" x="188" y="-86.5" font-family="Cascadia Code NF" font-size="10.00">+</text>
<text text-anchor="start" x="198" y="-86.5" font-family="Cascadia Code NF" font-size="10.00">Global()</text>
<text text-anchor="start" x="188" y="-70.5" font-family="Cascadia Code NF" font-size="10.00">+</text>
<text text-anchor="start" x="198" y="-70.5" font-family="Cascadia Code NF" font-size="10.00">Local()</text>
<text text-anchor="start" x="188" y="-54.5" font-family="Cascadia Code NF" font-size="10.00">+</text>
<text text-anchor="start" x="198" y="-54.5" font-family="Cascadia Code NF" font-size="10.00">WithTopmostArguments()</text>
<text text-anchor="start" x="188" y="-38.5" font-family="Cascadia Code NF" font-size="10.00">+</text>
<text text-anchor="start" x="198" y="-38.5" font-family="Cascadia Code NF" font-size="10.00">FunctionGetSideEffectState()</text>
<text text-anchor="start" x="188" y="-22.5" font-family="Cascadia Code NF" font-size="10.00">+</text>
<text text-anchor="start" x="198" y="-22.5" font-family="Cascadia Code NF" font-size="10.00">ApplySideEffectChecks()</text>
<text text-anchor="start" x="188" y="-6.5" font-family="Cascadia Code NF" font-size="10.00">+</text>
<text text-anchor="start" x="198" y="-6.5" font-family="Cascadia Code NF" font-size="10.00">IsSideEffectFreeIntrinsic()</text>
<polygon fill="#666666" stroke="#666666" points="184,-114 184,-114 370,-114 370,-114 184,-114"/>
<polygon fill="#666666" stroke="#666666" points="184,-98 184,-98 370,-98 370,-98 184,-98"/>
<polygon fill="none" stroke="#666666" points="184,0 184,-132 370,-132 370,0 184,0"/>
</a>
</g>
</g>
<!-- Node2 -->
<g id="Node000002" class="node">
<title>Node2</title>
<g id="a_Node000002"><a xlink:href="../../dd/da7/classv8_1_1internal_1_1AllStatic.html" target="_top" xlink:title=" ">
<polygon fill="white" stroke="none" points="148,-92 0,-92 0,-40 148,-40 148,-92"/>
<text text-anchor="start" x="5" y="-78.5" font-family="Cascadia Code NF" font-size="10.00">v8::internal::AllStatic</text>
<text text-anchor="start" x="71" y="-62.5" font-family="Cascadia Code NF" font-size="10.00"> </text>
<text text-anchor="start" x="71" y="-46.5" font-family="Cascadia Code NF" font-size="10.00"> </text>
<polygon fill="#bfbfbf" stroke="#bfbfbf" points="0,-74 0,-74 148,-74 148,-74 0,-74"/>
<polygon fill="#bfbfbf" stroke="#bfbfbf" points="0,-58 0,-58 148,-58 148,-58 0,-58"/>
<polygon fill="none" stroke="#bfbfbf" points="0,-40 0,-92 148,-92 148,-40 0,-40"/>
</a>
</g>
</g>
<!-- Node2&#45;&gt;Node1 -->
<g id="edge1_Node000001_Node000002" class="edge">
<title>Node2&#45;&gt;Node1</title>
<g id="a_edge1_Node000001_Node000002"><a xlink:title=" ">
<path fill="none" stroke="#63b8ff" d="M159.33,-66C167.54,-66 175.89,-66 184.17,-66"/>
<polygon fill="none" stroke="#63b8ff" points="159.36,-62.5 149.36,-66 159.36,-69.5 159.36,-62.5"/>
</a>
</g>
</g>
</g>
</svg>
</svg>

<style type='text/css'>
<![CDATA[
[data-mouse-over-selected='false'] { opacity: 0.7; }
[data-mouse-over-selected='true']  { opacity: 1.0; }
]]>
</style>
<script type="application/ecmascript"><![CDATA[
document.addEventListener('DOMContentLoaded', (event) => {
  highlightEdges();
  highlightAdjacentNodes();
});
]]></script>
</svg>
