<?xml version="1.0" encoding="UTF-8" standalone="no"?>
<!DOCTYPE svg PUBLIC "-//W3C//DTD SVG 1.1//EN"
 "http://www.w3.org/Graphics/SVG/1.1/DTD/svg11.dtd">
<!-- Generated by graphviz version 11.0.0 (20240428.1522)
 -->
<!-- Title: v8::base::TemplateHashMap&lt; Key, Value, MatchFun, AllocationPolicy &gt; Pages: 1 -->
<svg width="644pt" height="275pt"
 viewBox="0.00 0.00 644.00 275.00" xmlns="http://www.w3.org/2000/svg" xmlns:xlink="http://www.w3.org/1999/xlink">
<g id="graph0" class="graph" transform="scale(1 1) rotate(0) translate(4 271)">
<title>v8::base::TemplateHashMap&lt; Key, Value, MatchFun, AllocationPolicy &gt;</title>
<!-- Node1 -->
<g id="Node000001" class="node">
<title>Node1</title>
<g id="a_Node000001"><a xlink:title=" ">
<polygon fill="#999999" stroke="none" points="636,-196.5 476,-196.5 476,-70.5 636,-70.5 636,-196.5"/>
<text text-anchor="start" x="481" y="-183" font-family="Cascadia Code NF" font-size="10.00">v8::base::TemplateHashMap</text>
<text text-anchor="start" x="481" y="-170.25" font-family="Cascadia Code NF" font-size="10.00">&lt; Key, Value, MatchFun,</text>
<text text-anchor="start" x="499" y="-157.5" font-family="Cascadia Code NF" font-size="10.00"> AllocationPolicy &gt;</text>
<text text-anchor="start" x="553" y="-141" font-family="Cascadia Code NF" font-size="10.00"> </text>
<text text-anchor="start" x="490" y="-125" font-family="Cascadia Code NF" font-size="10.00">+</text>
<text text-anchor="start" x="510" y="-125" font-family="Cascadia Code NF" font-size="10.00">TemplateHashMap()</text>
<text text-anchor="start" x="490" y="-109" font-family="Cascadia Code NF" font-size="10.00">+</text>
<text text-anchor="start" x="510" y="-109" font-family="Cascadia Code NF" font-size="10.00">begin()</text>
<text text-anchor="start" x="490" y="-93" font-family="Cascadia Code NF" font-size="10.00">+</text>
<text text-anchor="start" x="510" y="-93" font-family="Cascadia Code NF" font-size="10.00">end()</text>
<text text-anchor="start" x="490" y="-77" font-family="Cascadia Code NF" font-size="10.00">+</text>
<text text-anchor="start" x="510" y="-77" font-family="Cascadia Code NF" font-size="10.00">find()</text>
<polygon fill="#666666" stroke="#666666" points="476,-152.5 476,-152.5 636,-152.5 636,-152.5 476,-152.5"/>
<polygon fill="#666666" stroke="#666666" points="476,-136.5 476,-136.5 636,-136.5 636,-136.5 476,-136.5"/>
<polygon fill="none" stroke="#666666" points="476,-70.5 476,-196.5 636,-196.5 636,-70.5 476,-70.5"/>
</a>
</g>
</g>
<!-- Node2 -->
<g id="Node000002" class="node">
<title>Node2</title>
<g id="a_Node000002"><a xlink:href="$d2/dcd/classv8_1_1base_1_1TemplateHashMapImpl.html" xlink:title=" ">
<polygon fill="white" stroke="none" points="440,-267 226,-267 226,0 440,0 440,-267"/>
<text text-anchor="start" x="231" y="-253.5" font-family="Cascadia Code NF" font-size="10.00">v8::base::TemplateHashMap</text>
<text text-anchor="start" x="231" y="-240.75" font-family="Cascadia Code NF" font-size="10.00">Impl&lt; void *, void *, HashEquality</text>
<text text-anchor="start" x="231" y="-228" font-family="Cascadia Code NF" font-size="10.00">ThenKeyMatcher&lt; void *, MatchFun</text>
<text text-anchor="start" x="267" y="-215.25" font-family="Cascadia Code NF" font-size="10.00"> &gt;, AllocationPolicy &gt;</text>
<text text-anchor="start" x="330" y="-198.5" font-family="Cascadia Code NF" font-size="10.00"> </text>
<text text-anchor="start" x="246" y="-182.5" font-family="Cascadia Code NF" font-size="10.00">+</text>
<text text-anchor="start" x="272" y="-182.5" font-family="Cascadia Code NF" font-size="10.00">TemplateHashMapImpl()</text>
<text text-anchor="start" x="246" y="-166.5" font-family="Cascadia Code NF" font-size="10.00">+</text>
<text text-anchor="start" x="272" y="-166.5" font-family="Cascadia Code NF" font-size="10.00">TemplateHashMapImpl()</text>
<text text-anchor="start" x="246" y="-150.5" font-family="Cascadia Code NF" font-size="10.00">+</text>
<text text-anchor="start" x="272" y="-150.5" font-family="Cascadia Code NF" font-size="10.00">TemplateHashMapImpl()</text>
<text text-anchor="start" x="246" y="-134.5" font-family="Cascadia Code NF" font-size="10.00">+</text>
<text text-anchor="start" x="272" y="-134.5" font-family="Cascadia Code NF" font-size="10.00">TemplateHashMapImpl()</text>
<text text-anchor="start" x="246" y="-118.5" font-family="Cascadia Code NF" font-size="10.00">+</text>
<text text-anchor="start" x="272" y="-118.5" font-family="Cascadia Code NF" font-size="10.00">operator=()</text>
<text text-anchor="start" x="246" y="-102.5" font-family="Cascadia Code NF" font-size="10.00">+</text>
<text text-anchor="start" x="272" y="-102.5" font-family="Cascadia Code NF" font-size="10.00">operator=()</text>
<text text-anchor="start" x="246" y="-86.5" font-family="Cascadia Code NF" font-size="10.00">+</text>
<text text-anchor="start" x="272" y="-86.5" font-family="Cascadia Code NF" font-size="10.00">~TemplateHashMapImpl()</text>
<text text-anchor="start" x="246" y="-70.5" font-family="Cascadia Code NF" font-size="10.00">+</text>
<text text-anchor="start" x="272" y="-70.5" font-family="Cascadia Code NF" font-size="10.00">Lookup()</text>
<text text-anchor="start" x="246" y="-54.5" font-family="Cascadia Code NF" font-size="10.00">+</text>
<text text-anchor="start" x="272" y="-54.5" font-family="Cascadia Code NF" font-size="10.00">LookupOrInsert()</text>
<text text-anchor="start" x="246" y="-38.5" font-family="Cascadia Code NF" font-size="10.00">+</text>
<text text-anchor="start" x="272" y="-38.5" font-family="Cascadia Code NF" font-size="10.00">LookupOrInsert()</text>
<text text-anchor="start" x="272" y="-22.5" font-family="Cascadia Code NF" font-size="10.00">and 10 more...</text>
<text text-anchor="start" x="246" y="-6.5" font-family="Cascadia Code NF" font-size="10.00">#</text>
<text text-anchor="start" x="272" y="-6.5" font-family="Cascadia Code NF" font-size="10.00">Initialize()</text>
<polygon fill="#bfbfbf" stroke="#bfbfbf" points="226,-210 226,-210 440,-210 440,-210 226,-210"/>
<polygon fill="#bfbfbf" stroke="#bfbfbf" points="226,-194 226,-194 440,-194 440,-194 226,-194"/>
<polygon fill="none" stroke="#bfbfbf" points="226,0 226,-267 440,-267 440,0 226,0"/>
</a>
</g>
</g>
<!-- Node2&#45;&gt;Node1 -->
<g id="edge1_Node000001_Node000002" class="edge">
<title>Node2&#45;&gt;Node1</title>
<g id="a_edge1_Node000001_Node000002"><a xlink:title=" ">
<path fill="none" stroke="#8b1a1a" d="M451.4,-133.5C459.77,-133.5 468.08,-133.5 476.15,-133.5"/>
<polygon fill="none" stroke="#8b1a1a" points="451.48,-130 441.48,-133.5 451.48,-137 451.48,-130"/>
</a>
</g>
</g>
<!-- Node3 -->
<g id="Node000003" class="node">
<title>Node3</title>
<g id="a_Node000003"><a xlink:title=" ">
<polygon fill="white" stroke="none" points="40,-159.5 0,-159.5 0,-107.5 40,-107.5 40,-159.5"/>
<text text-anchor="start" x="5" y="-146" font-family="Cascadia Code NF" font-size="10.00">const</text>
<text text-anchor="start" x="17" y="-130" font-family="Cascadia Code NF" font-size="10.00"> </text>
<text text-anchor="start" x="17" y="-114" font-family="Cascadia Code NF" font-size="10.00"> </text>
<polygon fill="#bfbfbf" stroke="#bfbfbf" points="0,-141.5 0,-141.5 40,-141.5 40,-141.5 0,-141.5"/>
<polygon fill="#bfbfbf" stroke="#bfbfbf" points="0,-125.5 0,-125.5 40,-125.5 40,-125.5 0,-125.5"/>
<polygon fill="none" stroke="#bfbfbf" points="0,-107.5 0,-159.5 40,-159.5 40,-107.5 0,-107.5"/>
</a>
</g>
</g>
<!-- Node3&#45;&gt;Node2 -->
<g id="edge2_Node000002_Node000003" class="edge">
<title>Node3&#45;&gt;Node2</title>
<g id="a_edge2_Node000002_Node000003"><a xlink:title=" ">
<path fill="none" stroke="#63b8ff" d="M39.99,-133.5C74.11,-133.5 148.32,-133.5 213.39,-133.5"/>
<polygon fill="none" stroke="#63b8ff" points="213.37,-133.5 219.37,-129.5 225.37,-133.5 219.37,-137.5 213.37,-133.5"/>
</a>
</g>
<text text-anchor="middle" x="133" y="-136.75" font-family="Cascadia Code NF" font-size="10.00" fill="grey"> +kDefaultHashMapCapacity</text>
</g>
</g>
</svg>
