<?xml version="1.0" encoding="UTF-8" standalone="no"?>
<!DOCTYPE svg PUBLIC "-//W3C//DTD SVG 1.1//EN"
 "http://www.w3.org/Graphics/SVG/1.1/DTD/svg11.dtd">
<!-- Generated by graphviz version 11.0.0 (20240428.1522)
 -->
<!-- Title: v8::base::hash&lt; i::LargePageMetadata * &gt; Pages: 1 -->
<svg width="328pt" height="73pt"
 viewBox="0.00 0.00 328.00 73.00" xmlns="http://www.w3.org/2000/svg" xmlns:xlink="http://www.w3.org/1999/xlink">
<g id="graph0" class="graph" transform="scale(1 1) rotate(0) translate(4 69)">
<title>v8::base::hash&lt; i::LargePageMetadata * &gt;</title>
<!-- Node1 -->
<g id="Node000001" class="node">
<title>Node1</title>
<g id="a_Node000001"><a xlink:title=" ">
<polygon fill="#999999" stroke="none" points="320,-65 184,-65 184,0 320,0 320,-65"/>
<text text-anchor="start" x="189" y="-51.5" font-family="Cascadia Code NF" font-size="10.00">v8::base::hash&lt; i::</text>
<text text-anchor="start" x="189" y="-38.75" font-family="Cascadia Code NF" font-size="10.00">LargePageMetadata * &gt;</text>
<text text-anchor="start" x="249" y="-22.5" font-family="Cascadia Code NF" font-size="10.00"> </text>
<text text-anchor="start" x="249" y="-6.5" font-family="Cascadia Code NF" font-size="10.00"> </text>
<polygon fill="#666666" stroke="#666666" points="184,-34 184,-34 320,-34 320,-34 184,-34"/>
<polygon fill="#666666" stroke="#666666" points="184,-18 184,-18 320,-18 320,-18 184,-18"/>
<polygon fill="none" stroke="#666666" points="184,0 184,-65 320,-65 320,0 184,0"/>
</a>
</g>
</g>
<!-- Node2 -->
<g id="Node000002" class="node">
<title>Node2</title>
<g id="a_Node000002"><a xlink:href="$df/d99/structv8_1_1base_1_1hash_3_01i_1_1MemoryChunkMetadata_01_5_01_4.html" xlink:title=" ">
<polygon fill="white" stroke="none" points="148,-65 0,-65 0,0 148,0 148,-65"/>
<text text-anchor="start" x="5" y="-51.5" font-family="Cascadia Code NF" font-size="10.00">v8::base::hash&lt; i::</text>
<text text-anchor="start" x="5" y="-38.75" font-family="Cascadia Code NF" font-size="10.00">MemoryChunkMetadata * &gt;</text>
<text text-anchor="start" x="71" y="-22.5" font-family="Cascadia Code NF" font-size="10.00"> </text>
<text text-anchor="start" x="18.5" y="-6.5" font-family="Cascadia Code NF" font-size="10.00">+</text>
<text text-anchor="start" x="43" y="-6.5" font-family="Cascadia Code NF" font-size="10.00">operator()()</text>
<polygon fill="#bfbfbf" stroke="#bfbfbf" points="0,-34 0,-34 148,-34 148,-34 0,-34"/>
<polygon fill="#bfbfbf" stroke="#bfbfbf" points="0,-18 0,-18 148,-18 148,-18 0,-18"/>
<polygon fill="none" stroke="#bfbfbf" points="0,0 0,-65 148,-65 148,0 0,0"/>
</a>
</g>
</g>
<!-- Node2&#45;&gt;Node1 -->
<g id="edge1_Node000001_Node000002" class="edge">
<title>Node2&#45;&gt;Node1</title>
<g id="a_edge1_Node000001_Node000002"><a xlink:title=" ">
<path fill="none" stroke="#63b8ff" d="M159.2,-32.5C167.56,-32.5 175.97,-32.5 184.12,-32.5"/>
<polygon fill="none" stroke="#63b8ff" points="159.37,-29 149.37,-32.5 159.37,-36 159.37,-29"/>
</a>
</g>
</g>
</g>
</svg>
