<?xml version="1.0" encoding="UTF-8" standalone="no"?>
<!DOCTYPE svg PUBLIC "-//W3C//DTD SVG 1.1//EN"
 "http://www.w3.org/Graphics/SVG/1.1/DTD/svg11.dtd">
<!-- Generated by graphviz version 11.0.0 (20240428.1522)
 -->
<!-- Title: v8::internal::BackingStore::TypeSpecificData::DeleterInfo Pages: 1 -->
<svg width="334pt" height="73pt"
 viewBox="0.00 0.00 334.00 73.00" xmlns="http://www.w3.org/2000/svg" xmlns:xlink="http://www.w3.org/1999/xlink">

<svg id="main" version="1.1" xmlns="http://www.w3.org/2000/svg" xmlns:xlink="http://www.w3.org/1999/xlink" xml:space="preserve" onload="init(evt)">
<style type="text/css"><![CDATA[
.node, .edge {opacity: 0.7;}
.node.selected, .edge.selected {opacity: 1;}
.edge:hover path { stroke: red; }
.edge:hover polygon { stroke: red; fill: red; }
svg#main { background-color: #111; }
]]></style>
<script type="application/ecmascript" xlink:href="../../svg.min.js"/>
<svg id="graph" class="graph">
<g id="graph0" class="graph" transform="scale(1 1) rotate(0) translate(4 69)">
<title>v8::internal::BackingStore::TypeSpecificData::DeleterInfo</title>
<!-- Node1 -->
<g id="Node000001" class="node">
<title>Node1</title>
<g id="a_Node000001"><a xlink:title=" ">
<polygon fill="#999999" stroke="none" points="326,-65 130,-65 130,0 326,0 326,-65"/>
<text text-anchor="start" x="135" y="-51.5" font-family="Cascadia Code NF" font-size="10.00">v8::internal::BackingStore</text>
<text text-anchor="start" x="135" y="-38.75" font-family="Cascadia Code NF" font-size="10.00">::TypeSpecificData::DeleterInfo</text>
<text text-anchor="start" x="225" y="-22.5" font-family="Cascadia Code NF" font-size="10.00"> </text>
<text text-anchor="start" x="225" y="-6.5" font-family="Cascadia Code NF" font-size="10.00"> </text>
<polygon fill="#666666" stroke="#666666" points="130,-34 130,-34 326,-34 326,-34 130,-34"/>
<polygon fill="#666666" stroke="#666666" points="130,-18 130,-18 326,-18 326,-18 130,-18"/>
<polygon fill="none" stroke="#666666" points="130,0 130,-65 326,-65 326,0 130,0"/>
</a>
</g>
</g>
<!-- Node2 -->
<g id="Node000002" class="node">
<title>Node2</title>
<g id="a_Node000002"><a xlink:title=" ">
<polygon fill="white" stroke="none" points="34,-58.5 0,-58.5 0,-6.5 34,-6.5 34,-58.5"/>
<text text-anchor="start" x="5" y="-45" font-family="Cascadia Code NF" font-size="10.00">void</text>
<text text-anchor="start" x="14" y="-29" font-family="Cascadia Code NF" font-size="10.00"> </text>
<text text-anchor="start" x="14" y="-13" font-family="Cascadia Code NF" font-size="10.00"> </text>
<polygon fill="#bfbfbf" stroke="#bfbfbf" points="0,-40.5 0,-40.5 34,-40.5 34,-40.5 0,-40.5"/>
<polygon fill="#bfbfbf" stroke="#bfbfbf" points="0,-24.5 0,-24.5 34,-24.5 34,-24.5 0,-24.5"/>
<polygon fill="none" stroke="#bfbfbf" points="0,-6.5 0,-58.5 34,-58.5 34,-6.5 0,-6.5"/>
</a>
</g>
</g>
<!-- Node2&#45;&gt;Node1 -->
<g id="edge1_Node000001_Node000002" class="edge">
<title>Node2&#45;&gt;Node1</title>
<g id="a_edge1_Node000001_Node000002"><a xlink:title=" ">
<path fill="none" stroke="#63b8ff" d="M33.71,-32.5C52.19,-32.5 84.55,-32.5 117.57,-32.5"/>
<polygon fill="none" stroke="#63b8ff" points="117.33,-32.5 123.33,-28.5 129.33,-32.5 123.33,-36.5 117.33,-32.5"/>
</a>
</g>
<text text-anchor="middle" x="82" y="-48.5" font-family="Cascadia Code NF" font-size="10.00" fill="grey"> +callback</text>
<text text-anchor="middle" x="82" y="-35.75" font-family="Cascadia Code NF" font-size="10.00" fill="grey">+data</text>
</g>
</g>
</svg>
</svg>

<style type='text/css'>
<![CDATA[
[data-mouse-over-selected='false'] { opacity: 0.7; }
[data-mouse-over-selected='true']  { opacity: 1.0; }
]]>
</style>
<script type="application/ecmascript"><![CDATA[
document.addEventListener('DOMContentLoaded', (event) => {
  highlightEdges();
  highlightAdjacentNodes();
});
]]></script>
</svg>
