<?xml version="1.0" encoding="UTF-8" standalone="no"?>
<!DOCTYPE svg PUBLIC "-//W3C//DTD SVG 1.1//EN"
 "http://www.w3.org/Graphics/SVG/1.1/DTD/svg11.dtd">
<!-- Generated by graphviz version 11.0.0 (20240428.1522)
 -->
<!-- Title: cppgc::internal::Sweeper::SweepingOnMutatorThreadObserver Pages: 1 -->
<svg width="224pt" height="134pt"
 viewBox="0.00 0.00 224.00 134.00" xmlns="http://www.w3.org/2000/svg" xmlns:xlink="http://www.w3.org/1999/xlink">
<g id="graph0" class="graph" transform="scale(1 1) rotate(0) translate(4 130)">
<title>cppgc::internal::Sweeper::SweepingOnMutatorThreadObserver</title>
<!-- Node1 -->
<g id="Node000001" class="node">
<title>Node1</title>
<g id="a_Node000001"><a xlink:title=" ">
<polygon fill="#999999" stroke="none" points="216,-126 0,-126 0,0 216,0 216,-126"/>
<text text-anchor="start" x="9" y="-112.5" font-family="Cascadia Code NF" font-size="10.00">cppgc::internal::Sweeper</text>
<text text-anchor="start" x="9" y="-99.75" font-family="Cascadia Code NF" font-size="10.00">::SweepingOnMutatorThreadObserver</text>
<text text-anchor="start" x="105" y="-83.5" font-family="Cascadia Code NF" font-size="10.00"> </text>
<text text-anchor="start" x="4" y="-67.5" font-family="Cascadia Code NF" font-size="10.00">+</text>
<text text-anchor="start" x="14" y="-67.5" font-family="Cascadia Code NF" font-size="10.00">SweepingOnMutatorThreadObserver()</text>
<text text-anchor="start" x="4" y="-51.5" font-family="Cascadia Code NF" font-size="10.00">+</text>
<text text-anchor="start" x="14" y="-51.5" font-family="Cascadia Code NF" font-size="10.00">~SweepingOnMutatorThread</text>
<text text-anchor="start" x="14" y="-38.75" font-family="Cascadia Code NF" font-size="10.00">Observer()</text>
<text text-anchor="start" x="4" y="-22.5" font-family="Cascadia Code NF" font-size="10.00">+</text>
<text text-anchor="start" x="14" y="-22.5" font-family="Cascadia Code NF" font-size="10.00">Start()</text>
<text text-anchor="start" x="4" y="-6.5" font-family="Cascadia Code NF" font-size="10.00">+</text>
<text text-anchor="start" x="14" y="-6.5" font-family="Cascadia Code NF" font-size="10.00">End()</text>
<polygon fill="#666666" stroke="#666666" points="0,-95 0,-95 216,-95 216,-95 0,-95"/>
<polygon fill="#666666" stroke="#666666" points="0,-79 0,-79 216,-79 216,-79 0,-79"/>
<polygon fill="none" stroke="#666666" points="0,0 0,-126 216,-126 216,0 0,0"/>
</a>
</g>
</g>
</g>
</svg>
