<?xml version="1.0" encoding="UTF-8" standalone="no"?>
<!DOCTYPE svg PUBLIC "-//W3C//DTD SVG 1.1//EN"
 "http://www.w3.org/Graphics/SVG/1.1/DTD/svg11.dtd">
<!-- Generated by graphviz version 11.0.0 (20240428.1522)
 -->
<!-- Title: v8::internal::AtomicSlot Pages: 1 -->
<svg width="554pt" height="249pt"
 viewBox="0.00 0.00 554.00 249.00" xmlns="http://www.w3.org/2000/svg" xmlns:xlink="http://www.w3.org/1999/xlink">
<g id="graph0" class="graph" transform="scale(1 1) rotate(0) translate(4 245)">
<title>v8::internal::AtomicSlot</title>
<!-- Node1 -->
<g id="Node000001" class="node">
<title>Node1</title>
<g id="a_Node000001"><a xlink:title=" ">
<polygon fill="#999999" stroke="none" points="546,-186.5 392,-186.5 392,-54.5 546,-54.5 546,-186.5"/>
<text text-anchor="start" x="397" y="-173" font-family="Cascadia Code NF" font-size="10.00">v8::internal::AtomicSlot</text>
<text text-anchor="start" x="466" y="-157" font-family="Cascadia Code NF" font-size="10.00"> </text>
<text text-anchor="start" x="412" y="-141" font-family="Cascadia Code NF" font-size="10.00">+</text>
<text text-anchor="start" x="438" y="-141" font-family="Cascadia Code NF" font-size="10.00">AtomicSlot()</text>
<text text-anchor="start" x="412" y="-125" font-family="Cascadia Code NF" font-size="10.00">+</text>
<text text-anchor="start" x="438" y="-125" font-family="Cascadia Code NF" font-size="10.00">AtomicSlot()</text>
<text text-anchor="start" x="412" y="-109" font-family="Cascadia Code NF" font-size="10.00">+</text>
<text text-anchor="start" x="438" y="-109" font-family="Cascadia Code NF" font-size="10.00">AtomicSlot()</text>
<text text-anchor="start" x="412" y="-93" font-family="Cascadia Code NF" font-size="10.00">+</text>
<text text-anchor="start" x="438" y="-93" font-family="Cascadia Code NF" font-size="10.00">AtomicSlot()</text>
<text text-anchor="start" x="412" y="-77" font-family="Cascadia Code NF" font-size="10.00">+</text>
<text text-anchor="start" x="438" y="-77" font-family="Cascadia Code NF" font-size="10.00">operator*()</text>
<text text-anchor="start" x="412" y="-61" font-family="Cascadia Code NF" font-size="10.00">+</text>
<text text-anchor="start" x="438" y="-61" font-family="Cascadia Code NF" font-size="10.00">operator[]()</text>
<polygon fill="#666666" stroke="#666666" points="392,-168.5 392,-168.5 546,-168.5 546,-168.5 392,-168.5"/>
<polygon fill="#666666" stroke="#666666" points="392,-152.5 392,-152.5 546,-152.5 546,-152.5 392,-152.5"/>
<polygon fill="none" stroke="#666666" points="392,-54.5 392,-186.5 546,-186.5 546,-54.5 392,-54.5"/>
</a>
</g>
</g>
<!-- Node2 -->
<g id="Node000002" class="node">
<title>Node2</title>
<g id="a_Node000002"><a xlink:href="$db/d4f/classv8_1_1internal_1_1SlotBase.html" xlink:title=" ">
<polygon fill="white" stroke="none" points="356,-241 202,-241 202,0 356,0 356,-241"/>
<text text-anchor="start" x="207" y="-227.5" font-family="Cascadia Code NF" font-size="10.00">v8::internal::SlotBase</text>
<text text-anchor="start" x="207" y="-214.75" font-family="Cascadia Code NF" font-size="10.00">&lt; AtomicSlot, Tagged_t &gt;</text>
<text text-anchor="start" x="276" y="-198.5" font-family="Cascadia Code NF" font-size="10.00"> </text>
<text text-anchor="start" x="220.5" y="-182.5" font-family="Cascadia Code NF" font-size="10.00">+</text>
<text text-anchor="start" x="245" y="-182.5" font-family="Cascadia Code NF" font-size="10.00">operator++()</text>
<text text-anchor="start" x="220.5" y="-166.5" font-family="Cascadia Code NF" font-size="10.00">+</text>
<text text-anchor="start" x="245" y="-166.5" font-family="Cascadia Code NF" font-size="10.00">operator++()</text>
<text text-anchor="start" x="220.5" y="-150.5" font-family="Cascadia Code NF" font-size="10.00">+</text>
<text text-anchor="start" x="245" y="-150.5" font-family="Cascadia Code NF" font-size="10.00">operator&#45;&#45;()</text>
<text text-anchor="start" x="220.5" y="-134.5" font-family="Cascadia Code NF" font-size="10.00">+</text>
<text text-anchor="start" x="245" y="-134.5" font-family="Cascadia Code NF" font-size="10.00">operator&#45;&#45;()</text>
<text text-anchor="start" x="220.5" y="-118.5" font-family="Cascadia Code NF" font-size="10.00">+</text>
<text text-anchor="start" x="245" y="-118.5" font-family="Cascadia Code NF" font-size="10.00">operator&lt;()</text>
<text text-anchor="start" x="220.5" y="-102.5" font-family="Cascadia Code NF" font-size="10.00">+</text>
<text text-anchor="start" x="245" y="-102.5" font-family="Cascadia Code NF" font-size="10.00">operator&lt;=()</text>
<text text-anchor="start" x="220.5" y="-86.5" font-family="Cascadia Code NF" font-size="10.00">+</text>
<text text-anchor="start" x="245" y="-86.5" font-family="Cascadia Code NF" font-size="10.00">operator&gt;()</text>
<text text-anchor="start" x="220.5" y="-70.5" font-family="Cascadia Code NF" font-size="10.00">+</text>
<text text-anchor="start" x="245" y="-70.5" font-family="Cascadia Code NF" font-size="10.00">operator&gt;=()</text>
<text text-anchor="start" x="220.5" y="-54.5" font-family="Cascadia Code NF" font-size="10.00">+</text>
<text text-anchor="start" x="245" y="-54.5" font-family="Cascadia Code NF" font-size="10.00">operator==()</text>
<text text-anchor="start" x="220.5" y="-38.5" font-family="Cascadia Code NF" font-size="10.00">+</text>
<text text-anchor="start" x="245" y="-38.5" font-family="Cascadia Code NF" font-size="10.00">operator!=()</text>
<text text-anchor="start" x="245" y="-22.5" font-family="Cascadia Code NF" font-size="10.00">and 9 more...</text>
<text text-anchor="start" x="220.5" y="-6.5" font-family="Cascadia Code NF" font-size="10.00">#</text>
<text text-anchor="start" x="245" y="-6.5" font-family="Cascadia Code NF" font-size="10.00">SlotBase()</text>
<polygon fill="#bfbfbf" stroke="#bfbfbf" points="202,-210 202,-210 356,-210 356,-210 202,-210"/>
<polygon fill="#bfbfbf" stroke="#bfbfbf" points="202,-194 202,-194 356,-194 356,-194 202,-194"/>
<polygon fill="none" stroke="#bfbfbf" points="202,0 202,-241 356,-241 356,0 202,0"/>
</a>
</g>
</g>
<!-- Node2&#45;&gt;Node1 -->
<g id="edge1_Node000001_Node000002" class="edge">
<title>Node2&#45;&gt;Node1</title>
<g id="a_edge1_Node000001_Node000002"><a xlink:title=" ">
<path fill="none" stroke="#63b8ff" d="M367.2,-120.5C375.51,-120.5 383.9,-120.5 392.1,-120.5"/>
<polygon fill="none" stroke="#63b8ff" points="367.44,-117 357.44,-120.5 367.44,-124 367.44,-117"/>
</a>
</g>
</g>
<!-- Node3 -->
<g id="Node000003" class="node">
<title>Node3</title>
<g id="a_Node000003"><a xlink:title=" ">
<polygon fill="white" stroke="none" points="46,-146.5 0,-146.5 0,-94.5 46,-94.5 46,-146.5"/>
<text text-anchor="start" x="5" y="-133" font-family="Cascadia Code NF" font-size="10.00">size_t</text>
<text text-anchor="start" x="20" y="-117" font-family="Cascadia Code NF" font-size="10.00"> </text>
<text text-anchor="start" x="20" y="-101" font-family="Cascadia Code NF" font-size="10.00"> </text>
<polygon fill="#bfbfbf" stroke="#bfbfbf" points="0,-128.5 0,-128.5 46,-128.5 46,-128.5 0,-128.5"/>
<polygon fill="#bfbfbf" stroke="#bfbfbf" points="0,-112.5 0,-112.5 46,-112.5 46,-112.5 0,-112.5"/>
<polygon fill="none" stroke="#bfbfbf" points="0,-94.5 0,-146.5 46,-146.5 46,-94.5 0,-94.5"/>
</a>
</g>
</g>
<!-- Node3&#45;&gt;Node2 -->
<g id="edge2_Node000002_Node000003" class="edge">
<title>Node3&#45;&gt;Node2</title>
<g id="a_edge2_Node000002_Node000003"><a xlink:title=" ">
<path fill="none" stroke="#63b8ff" d="M45.66,-120.5C77.29,-120.5 137.95,-120.5 189.36,-120.5"/>
<polygon fill="none" stroke="#63b8ff" points="189.31,-120.5 195.31,-116.5 201.31,-120.5 195.31,-124.5 189.31,-120.5"/>
</a>
</g>
<text text-anchor="middle" x="124" y="-136.5" font-family="Cascadia Code NF" font-size="10.00" fill="grey"> +kSlotDataAlignment</text>
<text text-anchor="middle" x="124" y="-123.75" font-family="Cascadia Code NF" font-size="10.00" fill="grey">+kSlotDataSize</text>
</g>
</g>
</svg>
