<?xml version="1.0" encoding="UTF-8" standalone="no"?>
<!DOCTYPE svg PUBLIC "-//W3C//DTD SVG 1.1//EN"
 "http://www.w3.org/Graphics/SVG/1.1/DTD/svg11.dtd">
<!-- Generated by graphviz version 11.0.0 (20240428.1522)
 -->
<!-- Title: TorqueGeneratedHashMapEntryOffsets Pages: 1 -->
<svg width="322pt" height="79pt"
 viewBox="0.00 0.00 322.00 78.75" xmlns="http://www.w3.org/2000/svg" xmlns:xlink="http://www.w3.org/1999/xlink">
<g id="graph0" class="graph" transform="scale(1 1) rotate(0) translate(4 74.75)">
<title>TorqueGeneratedHashMapEntryOffsets</title>
<!-- Node1 -->
<g id="Node000001" class="node">
<title>Node1</title>
<g id="a_Node000001"><a xlink:title=" ">
<polygon fill="#999999" stroke="none" points="314,-65 142,-65 142,0 314,0 314,-65"/>
<text text-anchor="start" x="147" y="-51.5" font-family="Cascadia Code NF" font-size="10.00">TorqueGeneratedHashMapEntry</text>
<text text-anchor="start" x="207" y="-38.75" font-family="Cascadia Code NF" font-size="10.00">Offsets</text>
<text text-anchor="start" x="225" y="-22.5" font-family="Cascadia Code NF" font-size="10.00"> </text>
<text text-anchor="start" x="225" y="-6.5" font-family="Cascadia Code NF" font-size="10.00"> </text>
<polygon fill="#666666" stroke="#666666" points="142,-34 142,-34 314,-34 314,-34 142,-34"/>
<polygon fill="#666666" stroke="#666666" points="142,-18 142,-18 314,-18 314,-18 142,-18"/>
<polygon fill="none" stroke="#666666" points="142,0 142,-65 314,-65 314,0 142,0"/>
</a>
</g>
</g>
<!-- Node2 -->
<g id="Node000002" class="node">
<title>Node2</title>
<g id="a_Node000002"><a xlink:href="../../d1/da0/classint.html" target="_top" xlink:title=" ">
<polygon fill="white" stroke="none" points="28,-58.5 0,-58.5 0,-6.5 28,-6.5 28,-58.5"/>
<text text-anchor="start" x="5" y="-45" font-family="Cascadia Code NF" font-size="10.00">int</text>
<text text-anchor="start" x="11" y="-29" font-family="Cascadia Code NF" font-size="10.00"> </text>
<text text-anchor="start" x="11" y="-13" font-family="Cascadia Code NF" font-size="10.00"> </text>
<polygon fill="#bfbfbf" stroke="#bfbfbf" points="0,-40.5 0,-40.5 28,-40.5 28,-40.5 0,-40.5"/>
<polygon fill="#bfbfbf" stroke="#bfbfbf" points="0,-24.5 0,-24.5 28,-24.5 28,-24.5 0,-24.5"/>
<polygon fill="none" stroke="#bfbfbf" points="0,-6.5 0,-58.5 28,-58.5 28,-6.5 0,-6.5"/>
</a>
</g>
</g>
<!-- Node2&#45;&gt;Node1 -->
<g id="edge1_Node000001_Node000002" class="edge">
<title>Node2&#45;&gt;Node1</title>
<g id="a_edge1_Node000001_Node000002"><a xlink:title=" ">
<path fill="none" stroke="#63b8ff" d="M27.94,-32.5C48.3,-32.5 89.6,-32.5 129.33,-32.5"/>
<polygon fill="none" stroke="#63b8ff" points="129.25,-32.5 135.25,-28.5 141.25,-32.5 135.25,-36.5 129.25,-32.5"/>
</a>
</g>
<text text-anchor="middle" x="85" y="-61.25" font-family="Cascadia Code NF" font-size="10.00" fill="grey"> +kKeyOffset</text>
<text text-anchor="middle" x="85" y="-48.5" font-family="Cascadia Code NF" font-size="10.00" fill="grey">+kSize</text>
<text text-anchor="middle" x="85" y="-35.75" font-family="Cascadia Code NF" font-size="10.00" fill="grey">+kValueOffset</text>
</g>
</g>
</svg>
