<?xml version="1.0" encoding="UTF-8" standalone="no"?>
<!DOCTYPE svg PUBLIC "-//W3C//DTD SVG 1.1//EN"
 "http://www.w3.org/Graphics/SVG/1.1/DTD/svg11.dtd">
<!-- Generated by graphviz version 11.0.0 (20240428.1522)
 -->
<!-- Title: v8::internal::torque::CallableDeclaration Pages: 1 -->
<!--zoomable 620 -->

<svg id="main" version="1.1" xmlns="http://www.w3.org/2000/svg" xmlns:xlink="http://www.w3.org/1999/xlink" xml:space="preserve" onload="init(evt)">
<style type="text/css"><![CDATA[
.node, .edge {opacity: 0.7;}
.node.selected, .edge.selected {opacity: 1;}
.edge:hover path { stroke: red; }
.edge:hover polygon { stroke: red; fill: red; }
svg#main { background-color: #111; }
]]></style>

<defs>
  <circle id="rim" cx="0" cy="0" r="7"/>
  <circle id="rim2" cx="0" cy="0" r="3.5"/>
  <g id="zoomPlus">
    <use xlink:href="#rim" fill="#404040"><set attributeName="fill" to="#808080" begin="zoomplus.mouseover" end="zoomplus.mouseout"/></use>
    <path d="M-4,0h8M0,-4v8" fill="none" stroke="white" stroke-width="1.5" pointer-events="none"/>
  </g>
  <g id="zoomMin">
    <use xlink:href="#rim" fill="#404040"><set attributeName="fill" to="#808080" begin="zoomminus.mouseover" end="zoomminus.mouseout"/></use>
    <path d="M-4,0h8" fill="none" stroke="white" stroke-width="1.5" pointer-events="none"/>
  </g>
  <g id="arrowUp" transform="translate(30 24)">
    <use xlink:href="#rim"/>
    <path pointer-events="none" fill="none" stroke="white" stroke-width="1.5" d="M0,-3.0v7 M-2.5,-0.5L0,-3.0L2.5,-0.5"/>
  </g>
  <g id="arrowRight" transform="rotate(90) translate(36 -43)">
    <use xlink:href="#rim"/>
    <path pointer-events="none" fill="none" stroke="white" stroke-width="1.5" d="M0,-3.0v7 M-2.5,-0.5L0,-3.0L2.5,-0.5"/>
  </g>
  <g id="arrowDown" transform="rotate(180) translate(-30 -48)">
    <use xlink:href="#rim"/>
    <path pointer-events="none" fill="none" stroke="white" stroke-width="1.5" d="M0,-3.0v7 M-2.5,-0.5L0,-3.0L2.5,-0.5"/>
  </g>
  <g id="arrowLeft" transform="rotate(270) translate(-36 17)">
    <use xlink:href="#rim"/>
    <path pointer-events="none" fill="none" stroke="white" stroke-width="1.5" d="M0,-3.0v7 M-2.5,-0.5L0,-3.0L2.5,-0.5"/>
  </g>
  <g id="resetDef">
    <use xlink:href="#rim2" fill="#404040"><set attributeName="fill" to="#808080" begin="reset.mouseover" end="reset.mouseout"/></use>
  </g>
</defs>
<script type="application/ecmascript">
var viewWidth = 2143;
var viewHeight = 620;
var sectionId = 'dynsection-1';
</script>
<script type="application/ecmascript" xlink:href="../../svg.min.js"/>
<svg id="graph" class="graph">
<g id="viewport">
<title>v8::internal::torque::CallableDeclaration</title>
<!-- Node1 -->
<g id="Node000001" class="node">
<title>Node1</title>
<g id="a_Node000001"><a xlink:title=" ">
<polygon fill="#999999" stroke="none" points="2135,-451 1991,-451 1991,-386 2135,-386 2135,-451"/>
<text text-anchor="start" x="2000" y="-437.5" font-family="Cascadia Code NF" font-size="10.00">v8::internal::torque</text>
<text text-anchor="start" x="2000" y="-424.75" font-family="Cascadia Code NF" font-size="10.00">::CallableDeclaration</text>
<text text-anchor="start" x="2060" y="-408.5" font-family="Cascadia Code NF" font-size="10.00"> </text>
<text text-anchor="start" x="1995" y="-392.5" font-family="Cascadia Code NF" font-size="10.00">+</text>
<text text-anchor="start" x="2005" y="-392.5" font-family="Cascadia Code NF" font-size="10.00">CallableDeclaration()</text>
<polygon fill="#666666" stroke="#666666" points="1991,-420 1991,-420 2135,-420 2135,-420 1991,-420"/>
<polygon fill="#666666" stroke="#666666" points="1991,-404 1991,-404 2135,-404 2135,-404 1991,-404"/>
<polygon fill="none" stroke="#666666" points="1991,-386 1991,-451 2135,-451 2135,-386 1991,-386"/>
</a>
</g>
</g>
<!-- Node2 -->
<g id="Node000002" class="node">
<title>Node2</title>
<g id="a_Node000002"><a xlink:href="../../d8/df9/structv8_1_1internal_1_1torque_1_1Declaration.html" target="_top" xlink:title=" ">
<polygon fill="white" stroke="none" points="1061,-612 931,-612 931,-547 1061,-547 1061,-612"/>
<text text-anchor="start" x="936" y="-598.5" font-family="Cascadia Code NF" font-size="10.00">v8::internal::torque</text>
<text text-anchor="start" x="957" y="-585.75" font-family="Cascadia Code NF" font-size="10.00">::Declaration</text>
<text text-anchor="start" x="993" y="-569.5" font-family="Cascadia Code NF" font-size="10.00"> </text>
<text text-anchor="start" x="943.5" y="-553.5" font-family="Cascadia Code NF" font-size="10.00">+</text>
<text text-anchor="start" x="962" y="-553.5" font-family="Cascadia Code NF" font-size="10.00">Declaration()</text>
<polygon fill="#bfbfbf" stroke="#bfbfbf" points="931,-581 931,-581 1061,-581 1061,-581 931,-581"/>
<polygon fill="#bfbfbf" stroke="#bfbfbf" points="931,-565 931,-565 1061,-565 1061,-565 931,-565"/>
<polygon fill="none" stroke="#bfbfbf" points="931,-547 931,-612 1061,-612 1061,-547 931,-547"/>
</a>
</g>
</g>
<!-- Node2&#45;&gt;Node1 -->
<g id="edge1_Node000001_Node000002" class="edge">
<title>Node2&#45;&gt;Node1</title>
<g id="a_edge1_Node000001_Node000002"><a xlink:title=" ">
<path fill="none" stroke="#63b8ff" d="M1072.47,-579.85C1140.77,-580.14 1244.13,-580.5 1334,-580.5 1334,-580.5 1334,-580.5 1795,-580.5 1875.63,-580.5 1905.42,-589.47 1973,-545.5 2008.32,-522.52 2033.72,-480.17 2048.12,-450.73"/>
<polygon fill="none" stroke="#63b8ff" points="1072.51,-576.35 1062.49,-579.81 1072.48,-583.35 1072.51,-576.35"/>
</a>
</g>
</g>
<!-- Node3 -->
<g id="Node000003" class="node">
<title>Node3</title>
<g id="a_Node000003"><a xlink:href="../../df/de2/structv8_1_1internal_1_1torque_1_1AstNode.html" target="_top" xlink:title=" ">
<polygon fill="white" stroke="none" points="746,-404 616,-404 616,-323 746,-323 746,-404"/>
<text text-anchor="start" x="621" y="-390.5" font-family="Cascadia Code NF" font-size="10.00">v8::internal::torque</text>
<text text-anchor="start" x="654" y="-377.75" font-family="Cascadia Code NF" font-size="10.00">::AstNode</text>
<text text-anchor="start" x="678" y="-361.5" font-family="Cascadia Code NF" font-size="10.00"> </text>
<text text-anchor="start" x="633" y="-345.5" font-family="Cascadia Code NF" font-size="10.00">+</text>
<text text-anchor="start" x="656" y="-345.5" font-family="Cascadia Code NF" font-size="10.00">AstNode()</text>
<text text-anchor="start" x="633" y="-329.5" font-family="Cascadia Code NF" font-size="10.00">+</text>
<text text-anchor="start" x="656" y="-329.5" font-family="Cascadia Code NF" font-size="10.00">~AstNode()</text>
<polygon fill="#bfbfbf" stroke="#bfbfbf" points="616,-373 616,-373 746,-373 746,-373 616,-373"/>
<polygon fill="#bfbfbf" stroke="#bfbfbf" points="616,-357 616,-357 746,-357 746,-357 616,-357"/>
<polygon fill="none" stroke="#bfbfbf" points="616,-323 616,-404 746,-404 746,-323 616,-323"/>
</a>
</g>
</g>
<!-- Node3&#45;&gt;Node2 -->
<g id="edge2_Node000002_Node000003" class="edge">
<title>Node3&#45;&gt;Node2</title>
<g id="a_edge2_Node000002_Node000003"><a xlink:title=" ">
<path fill="none" stroke="#63b8ff" d="M743.2,-410.73C792.79,-448.27 865.01,-501.28 931,-543.5 932.83,-544.67 934.69,-545.84 936.58,-547.01"/>
<polygon fill="none" stroke="#63b8ff" points="745.5,-408.08 735.42,-404.83 741.27,-413.66 745.5,-408.08"/>
</a>
</g>
</g>
<!-- Node10 -->
<g id="Node000010" class="node">
<title>Node10</title>
<g id="a_Node000010"><a xlink:href="../../dc/d9c/structv8_1_1internal_1_1torque_1_1Identifier.html" target="_top" xlink:title=" ">
<polygon fill="white" stroke="none" points="1233,-181 1103,-181 1103,-116 1233,-116 1233,-181"/>
<text text-anchor="start" x="1108" y="-167.5" font-family="Cascadia Code NF" font-size="10.00">v8::internal::torque</text>
<text text-anchor="start" x="1132" y="-154.75" font-family="Cascadia Code NF" font-size="10.00">::Identifier</text>
<text text-anchor="start" x="1165" y="-138.5" font-family="Cascadia Code NF" font-size="10.00"> </text>
<text text-anchor="start" x="1117" y="-122.5" font-family="Cascadia Code NF" font-size="10.00">+</text>
<text text-anchor="start" x="1137" y="-122.5" font-family="Cascadia Code NF" font-size="10.00">Identifier()</text>
<polygon fill="#bfbfbf" stroke="#bfbfbf" points="1103,-150 1103,-150 1233,-150 1233,-150 1103,-150"/>
<polygon fill="#bfbfbf" stroke="#bfbfbf" points="1103,-134 1103,-134 1233,-134 1233,-134 1103,-134"/>
<polygon fill="none" stroke="#bfbfbf" points="1103,-116 1103,-181 1233,-181 1233,-116 1103,-116"/>
</a>
</g>
</g>
<!-- Node3&#45;&gt;Node10 -->
<g id="edge10_Node000010_Node000003" class="edge">
<title>Node3&#45;&gt;Node10</title>
<g id="a_edge10_Node000010_Node000003"><a xlink:title=" ">
<path fill="none" stroke="#63b8ff" d="M736.83,-316.18C784.86,-277.25 858.19,-223.75 931,-193.5 986.56,-170.42 1054.44,-159.06 1103.11,-153.54"/>
<polygon fill="none" stroke="#63b8ff" points="734.85,-313.27 729.33,-322.31 739.29,-318.69 734.85,-313.27"/>
</a>
</g>
</g>
<!-- Node16 -->
<g id="Node000016" class="node">
<title>Node16</title>
<g id="a_Node000016"><a xlink:href="../../d1/d3c/structv8_1_1internal_1_1torque_1_1TypeExpression.html" target="_top" xlink:title=" ">
<polygon fill="white" stroke="none" points="913,-423 783,-423 783,-358 913,-358 913,-423"/>
<text text-anchor="start" x="788" y="-409.5" font-family="Cascadia Code NF" font-size="10.00">v8::internal::torque</text>
<text text-anchor="start" x="800" y="-396.75" font-family="Cascadia Code NF" font-size="10.00">::TypeExpression</text>
<text text-anchor="start" x="845" y="-380.5" font-family="Cascadia Code NF" font-size="10.00"> </text>
<text text-anchor="start" x="791" y="-364.5" font-family="Cascadia Code NF" font-size="10.00">+</text>
<text text-anchor="start" x="805" y="-364.5" font-family="Cascadia Code NF" font-size="10.00">TypeExpression()</text>
<polygon fill="#bfbfbf" stroke="#bfbfbf" points="783,-392 783,-392 913,-392 913,-392 783,-392"/>
<polygon fill="#bfbfbf" stroke="#bfbfbf" points="783,-376 783,-376 913,-376 913,-376 783,-376"/>
<polygon fill="none" stroke="#bfbfbf" points="783,-358 783,-423 913,-423 913,-358 783,-358"/>
</a>
</g>
</g>
<!-- Node3&#45;&gt;Node16 -->
<g id="edge18_Node000016_Node000003" class="edge">
<title>Node3&#45;&gt;Node16</title>
<g id="a_edge18_Node000016_Node000003"><a xlink:title=" ">
<path fill="none" stroke="#63b8ff" d="M757.11,-375.79C765.8,-377.21 774.59,-378.65 783.1,-380.04"/>
<polygon fill="none" stroke="#63b8ff" points="757.72,-372.34 747.29,-374.18 756.59,-379.25 757.72,-372.34"/>
</a>
</g>
</g>
<!-- Node4 -->
<g id="Node000004" class="node">
<title>Node4</title>
<g id="a_Node000004"><a xlink:title=" ">
<polygon fill="white" stroke="none" points="477,-389.5 437,-389.5 437,-337.5 477,-337.5 477,-389.5"/>
<text text-anchor="start" x="442" y="-376" font-family="Cascadia Code NF" font-size="10.00">const</text>
<text text-anchor="start" x="454" y="-360" font-family="Cascadia Code NF" font-size="10.00"> </text>
<text text-anchor="start" x="454" y="-344" font-family="Cascadia Code NF" font-size="10.00"> </text>
<polygon fill="#bfbfbf" stroke="#bfbfbf" points="437,-371.5 437,-371.5 477,-371.5 477,-371.5 437,-371.5"/>
<polygon fill="#bfbfbf" stroke="#bfbfbf" points="437,-355.5 437,-355.5 477,-355.5 477,-355.5 437,-355.5"/>
<polygon fill="none" stroke="#bfbfbf" points="437,-337.5 437,-389.5 477,-389.5 477,-337.5 437,-337.5"/>
</a>
</g>
</g>
<!-- Node4&#45;&gt;Node3 -->
<g id="edge3_Node000003_Node000004" class="edge">
<title>Node4&#45;&gt;Node3</title>
<g id="a_edge3_Node000003_Node000004"><a xlink:title=" ">
<path fill="none" stroke="#63b8ff" d="M476.93,-363.5C504.76,-363.5 558.31,-363.5 603.43,-363.5"/>
<polygon fill="none" stroke="#63b8ff" points="603.31,-363.5 609.31,-359.5 615.31,-363.5 609.31,-367.5 603.31,-363.5"/>
</a>
</g>
<text text-anchor="middle" x="580" y="-366.75" font-family="Cascadia Code NF" font-size="10.00" fill="grey"> +kind</text>
</g>
<!-- Node5 -->
<g id="Node000005" class="node">
<title>Node5</title>
<g id="a_Node000005"><a xlink:href="../../d6/d85/structv8_1_1internal_1_1torque_1_1SourcePosition.html" target="_top" xlink:title=" ">
<polygon fill="white" stroke="none" points="544,-282 370,-282 370,-153 544,-153 544,-282"/>
<text text-anchor="start" x="397" y="-268.5" font-family="Cascadia Code NF" font-size="10.00">v8::internal::torque</text>
<text text-anchor="start" x="409" y="-255.75" font-family="Cascadia Code NF" font-size="10.00">::SourcePosition</text>
<text text-anchor="start" x="454" y="-239.5" font-family="Cascadia Code NF" font-size="10.00"> </text>
<text text-anchor="start" x="374" y="-223.5" font-family="Cascadia Code NF" font-size="10.00">+</text>
<text text-anchor="start" x="384" y="-223.5" font-family="Cascadia Code NF" font-size="10.00">CompareStartIgnoreColumn()</text>
<text text-anchor="start" x="374" y="-207.5" font-family="Cascadia Code NF" font-size="10.00">+</text>
<text text-anchor="start" x="384" y="-207.5" font-family="Cascadia Code NF" font-size="10.00">Contains()</text>
<text text-anchor="start" x="374" y="-191.5" font-family="Cascadia Code NF" font-size="10.00">+</text>
<text text-anchor="start" x="384" y="-191.5" font-family="Cascadia Code NF" font-size="10.00">operator==()</text>
<text text-anchor="start" x="374" y="-175.5" font-family="Cascadia Code NF" font-size="10.00">+</text>
<text text-anchor="start" x="384" y="-175.5" font-family="Cascadia Code NF" font-size="10.00">operator!=()</text>
<text text-anchor="start" x="374" y="-159.5" font-family="Cascadia Code NF" font-size="10.00">+</text>
<text text-anchor="start" x="384" y="-159.5" font-family="Cascadia Code NF" font-size="10.00">Invalid()</text>
<polygon fill="#bfbfbf" stroke="#bfbfbf" points="370,-251 370,-251 544,-251 544,-251 370,-251"/>
<polygon fill="#bfbfbf" stroke="#bfbfbf" points="370,-235 370,-235 544,-235 544,-235 370,-235"/>
<polygon fill="none" stroke="#bfbfbf" points="370,-153 370,-282 544,-282 544,-153 370,-153"/>
</a>
</g>
</g>
<!-- Node5&#45;&gt;Node3 -->
<g id="edge4_Node000003_Node000005" class="edge">
<title>Node5&#45;&gt;Node3</title>
<g id="a_edge4_Node000003_Node000005"><a xlink:title=" ">
<path fill="none" stroke="#63b8ff" d="M543.83,-273.95C564.93,-287.82 587.31,-302.54 607.7,-315.95"/>
<polygon fill="none" stroke="#63b8ff" points="607.7,-315.95 614.91,-315.91 617.73,-322.54 610.51,-322.59 607.7,-315.95"/>
</a>
</g>
<text text-anchor="middle" x="580" y="-310.75" font-family="Cascadia Code NF" font-size="10.00" fill="grey"> +pos</text>
</g>
<!-- Node13 -->
<g id="Node000013" class="node">
<title>Node13</title>
<g id="a_Node000013"><a xlink:href="../../d6/d91/structv8_1_1internal_1_1torque_1_1ParameterList.html" target="_top" xlink:title=" ">
<polygon fill="white" stroke="none" points="1859,-288 1729,-288 1729,-191 1859,-191 1859,-288"/>
<text text-anchor="start" x="1734" y="-274.5" font-family="Cascadia Code NF" font-size="10.00">v8::internal::torque</text>
<text text-anchor="start" x="1749" y="-261.75" font-family="Cascadia Code NF" font-size="10.00">::ParameterList</text>
<text text-anchor="start" x="1791" y="-245.5" font-family="Cascadia Code NF" font-size="10.00"> </text>
<text text-anchor="start" x="1734" y="-229.5" font-family="Cascadia Code NF" font-size="10.00">+</text>
<text text-anchor="start" x="1745" y="-229.5" font-family="Cascadia Code NF" font-size="10.00">GetImplicitTypes()</text>
<text text-anchor="start" x="1734" y="-213.5" font-family="Cascadia Code NF" font-size="10.00">+</text>
<text text-anchor="start" x="1745" y="-213.5" font-family="Cascadia Code NF" font-size="10.00">GetExplicitTypes()</text>
<text text-anchor="start" x="1734" y="-197.5" font-family="Cascadia Code NF" font-size="10.00">+</text>
<text text-anchor="start" x="1745" y="-197.5" font-family="Cascadia Code NF" font-size="10.00">Empty()</text>
<polygon fill="#bfbfbf" stroke="#bfbfbf" points="1729,-257 1729,-257 1859,-257 1859,-257 1729,-257"/>
<polygon fill="#bfbfbf" stroke="#bfbfbf" points="1729,-241 1729,-241 1859,-241 1859,-241 1729,-241"/>
<polygon fill="none" stroke="#bfbfbf" points="1729,-191 1729,-288 1859,-288 1859,-191 1729,-191"/>
</a>
</g>
</g>
<!-- Node5&#45;&gt;Node13 -->
<g id="edge20_Node000013_Node000005" class="edge">
<title>Node5&#45;&gt;Node13</title>
<g id="a_edge20_Node000013_Node000005"><a xlink:title=" ">
<path fill="none" stroke="#63b8ff" d="M543.91,-214.66C585.08,-213.54 635.09,-212.5 680,-212.5 680,-212.5 680,-212.5 1494,-212.5 1569.87,-212.5 1656.14,-221.23 1716.44,-228.76"/>
<polygon fill="none" stroke="#63b8ff" points="1716.48,-228.77 1722.94,-225.56 1728.39,-230.28 1721.93,-233.49 1716.48,-228.77"/>
</a>
</g>
<text text-anchor="middle" x="996" y="-215.75" font-family="Cascadia Code NF" font-size="10.00" fill="grey"> +implicit_kind_pos</text>
</g>
<!-- Node6 -->
<g id="Node000006" class="node">
<title>Node6</title>
<g id="a_Node000006"><a xlink:href="../../d7/d9f/classv8_1_1internal_1_1torque_1_1SourceId.html" target="_top" xlink:title=" ">
<polygon fill="white" stroke="none" points="285,-340 155,-340 155,-227 285,-227 285,-340"/>
<text text-anchor="start" x="160" y="-326.5" font-family="Cascadia Code NF" font-size="10.00">v8::internal::torque</text>
<text text-anchor="start" x="190" y="-313.75" font-family="Cascadia Code NF" font-size="10.00">::SourceId</text>
<text text-anchor="start" x="217" y="-297.5" font-family="Cascadia Code NF" font-size="10.00"> </text>
<text text-anchor="start" x="169" y="-281.5" font-family="Cascadia Code NF" font-size="10.00">+</text>
<text text-anchor="start" x="189" y="-281.5" font-family="Cascadia Code NF" font-size="10.00">IsValid()</text>
<text text-anchor="start" x="169" y="-265.5" font-family="Cascadia Code NF" font-size="10.00">+</text>
<text text-anchor="start" x="189" y="-265.5" font-family="Cascadia Code NF" font-size="10.00">operator==()</text>
<text text-anchor="start" x="169" y="-249.5" font-family="Cascadia Code NF" font-size="10.00">+</text>
<text text-anchor="start" x="189" y="-249.5" font-family="Cascadia Code NF" font-size="10.00">operator&lt;()</text>
<text text-anchor="start" x="169" y="-233.5" font-family="Cascadia Code NF" font-size="10.00">+</text>
<text text-anchor="start" x="189" y="-233.5" font-family="Cascadia Code NF" font-size="10.00">Invalid()</text>
<polygon fill="#bfbfbf" stroke="#bfbfbf" points="155,-309 155,-309 285,-309 285,-309 155,-309"/>
<polygon fill="#bfbfbf" stroke="#bfbfbf" points="155,-293 155,-293 285,-293 285,-293 155,-293"/>
<polygon fill="none" stroke="#bfbfbf" points="155,-227 155,-340 285,-340 285,-227 155,-227"/>
</a>
</g>
</g>
<!-- Node6&#45;&gt;Node5 -->
<g id="edge5_Node000005_Node000006" class="edge">
<title>Node6&#45;&gt;Node5</title>
<g id="a_edge5_Node000005_Node000006"><a xlink:title=" ">
<path fill="none" stroke="#63b8ff" d="M284.9,-265.55C307.34,-259.25 333.1,-252.02 357.71,-245.11"/>
<polygon fill="none" stroke="#63b8ff" points="357.64,-245.13 362.33,-239.65 369.19,-241.88 364.5,-247.35 357.64,-245.13"/>
</a>
</g>
<text text-anchor="middle" x="328" y="-260.75" font-family="Cascadia Code NF" font-size="10.00" fill="grey"> +source</text>
</g>
<!-- Node7 -->
<g id="Node000007" class="node">
<title>Node7</title>
<g id="a_Node000007"><a xlink:href="../../db/dd4/structv8_1_1internal_1_1torque_1_1LineAndColumn.html" target="_top" xlink:title=" ">
<polygon fill="white" stroke="none" points="286,-209 154,-209 154,-96 286,-96 286,-209"/>
<text text-anchor="start" x="160" y="-195.5" font-family="Cascadia Code NF" font-size="10.00">v8::internal::torque</text>
<text text-anchor="start" x="175" y="-182.75" font-family="Cascadia Code NF" font-size="10.00">::LineAndColumn</text>
<text text-anchor="start" x="217" y="-166.5" font-family="Cascadia Code NF" font-size="10.00"> </text>
<text text-anchor="start" x="158" y="-150.5" font-family="Cascadia Code NF" font-size="10.00">+</text>
<text text-anchor="start" x="168" y="-150.5" font-family="Cascadia Code NF" font-size="10.00">operator==()</text>
<text text-anchor="start" x="158" y="-134.5" font-family="Cascadia Code NF" font-size="10.00">+</text>
<text text-anchor="start" x="168" y="-134.5" font-family="Cascadia Code NF" font-size="10.00">operator!=()</text>
<text text-anchor="start" x="158" y="-118.5" font-family="Cascadia Code NF" font-size="10.00">+</text>
<text text-anchor="start" x="168" y="-118.5" font-family="Cascadia Code NF" font-size="10.00">Invalid()</text>
<text text-anchor="start" x="158" y="-102.5" font-family="Cascadia Code NF" font-size="10.00">+</text>
<text text-anchor="start" x="168" y="-102.5" font-family="Cascadia Code NF" font-size="10.00">WithUnknownOffset()</text>
<polygon fill="#bfbfbf" stroke="#bfbfbf" points="154,-178 154,-178 286,-178 286,-178 154,-178"/>
<polygon fill="#bfbfbf" stroke="#bfbfbf" points="154,-162 154,-162 286,-162 286,-162 154,-162"/>
<polygon fill="none" stroke="#bfbfbf" points="154,-96 154,-209 286,-209 286,-96 154,-96"/>
</a>
</g>
</g>
<!-- Node7&#45;&gt;Node5 -->
<g id="edge6_Node000005_Node000007" class="edge">
<title>Node7&#45;&gt;Node5</title>
<g id="a_edge6_Node000005_Node000007"><a xlink:title=" ">
<path fill="none" stroke="#63b8ff" d="M285.84,-170.43C308.05,-176.58 333.43,-183.6 357.69,-190.31"/>
<polygon fill="none" stroke="#63b8ff" points="357.81,-190.34 364.66,-188.09 369.38,-193.54 362.53,-195.8 357.81,-190.34"/>
</a>
</g>
<text text-anchor="middle" x="328" y="-203.5" font-family="Cascadia Code NF" font-size="10.00" fill="grey"> +end</text>
<text text-anchor="middle" x="328" y="-190.75" font-family="Cascadia Code NF" font-size="10.00" fill="grey">+start</text>
</g>
<!-- Node8 -->
<g id="Node000008" class="node">
<title>Node8</title>
<g id="a_Node000008"><a xlink:href="../../d1/da0/classint.html" target="_top" xlink:title=" ">
<polygon fill="white" stroke="none" points="28,-178.5 0,-178.5 0,-126.5 28,-126.5 28,-178.5"/>
<text text-anchor="start" x="5" y="-165" font-family="Cascadia Code NF" font-size="10.00">int</text>
<text text-anchor="start" x="11" y="-149" font-family="Cascadia Code NF" font-size="10.00"> </text>
<text text-anchor="start" x="11" y="-133" font-family="Cascadia Code NF" font-size="10.00"> </text>
<polygon fill="#bfbfbf" stroke="#bfbfbf" points="0,-160.5 0,-160.5 28,-160.5 28,-160.5 0,-160.5"/>
<polygon fill="#bfbfbf" stroke="#bfbfbf" points="0,-144.5 0,-144.5 28,-144.5 28,-144.5 0,-144.5"/>
<polygon fill="none" stroke="#bfbfbf" points="0,-126.5 0,-178.5 28,-178.5 28,-126.5 0,-126.5"/>
</a>
</g>
</g>
<!-- Node8&#45;&gt;Node7 -->
<g id="edge7_Node000007_Node000008" class="edge">
<title>Node8&#45;&gt;Node7</title>
<g id="a_edge7_Node000007_Node000008"><a xlink:title=" ">
<path fill="none" stroke="#63b8ff" d="M27.76,-152.5C50.29,-152.5 98.76,-152.5 141.26,-152.5"/>
<polygon fill="none" stroke="#63b8ff" points="141.32,-152.5 147.32,-148.5 153.32,-152.5 147.32,-156.5 141.32,-152.5"/>
</a>
</g>
<text text-anchor="middle" x="91" y="-194" font-family="Cascadia Code NF" font-size="10.00" fill="grey"> +column</text>
<text text-anchor="middle" x="91" y="-181.25" font-family="Cascadia Code NF" font-size="10.00" fill="grey">+kUnknownOffset</text>
<text text-anchor="middle" x="91" y="-168.5" font-family="Cascadia Code NF" font-size="10.00" fill="grey">+line</text>
<text text-anchor="middle" x="91" y="-155.75" font-family="Cascadia Code NF" font-size="10.00" fill="grey">+offset</text>
</g>
<!-- Node9 -->
<g id="Node000009" class="node">
<title>Node9</title>
<g id="a_Node000009"><a xlink:title=" ">
<polygon fill="white" stroke="none" points="1510,-411.5 1476,-411.5 1476,-359.5 1510,-359.5 1510,-411.5"/>
<text text-anchor="start" x="1481" y="-398" font-family="Cascadia Code NF" font-size="10.00">bool</text>
<text text-anchor="start" x="1490" y="-382" font-family="Cascadia Code NF" font-size="10.00"> </text>
<text text-anchor="start" x="1490" y="-366" font-family="Cascadia Code NF" font-size="10.00"> </text>
<polygon fill="#bfbfbf" stroke="#bfbfbf" points="1476,-393.5 1476,-393.5 1510,-393.5 1510,-393.5 1476,-393.5"/>
<polygon fill="#bfbfbf" stroke="#bfbfbf" points="1476,-377.5 1476,-377.5 1510,-377.5 1510,-377.5 1476,-377.5"/>
<polygon fill="none" stroke="#bfbfbf" points="1476,-359.5 1476,-411.5 1510,-411.5 1510,-359.5 1476,-359.5"/>
</a>
</g>
</g>
<!-- Node9&#45;&gt;Node1 -->
<g id="edge8_Node000001_Node000009" class="edge">
<title>Node9&#45;&gt;Node1</title>
<g id="a_edge8_Node000001_Node000009"><a xlink:title=" ">
<path fill="none" stroke="#63b8ff" d="M1509.94,-386.22C1562.96,-388.64 1738.22,-396.83 1883,-405.75 1914.02,-407.66 1948.03,-410.02 1978.01,-412.18"/>
<polygon fill="none" stroke="#63b8ff" points="1978.16,-412.2 1984.43,-408.64 1990.13,-413.07 1983.85,-416.62 1978.16,-412.2"/>
</a>
</g>
<text text-anchor="middle" x="1794" y="-408.75" font-family="Cascadia Code NF" font-size="10.00" fill="grey"> +transitioning</text>
</g>
<!-- Node9&#45;&gt;Node13 -->
<g id="edge22_Node000013_Node000009" class="edge">
<title>Node9&#45;&gt;Node13</title>
<g id="a_edge22_Node000013_Node000009"><a xlink:title=" ">
<path fill="none" stroke="#63b8ff" d="M1509.84,-382.49C1553.13,-374.18 1671.26,-351 1687,-342.5 1708.24,-331.03 1728.19,-314.08 1744.92,-297.23"/>
<polygon fill="none" stroke="#63b8ff" points="1744.93,-297.21 1746.21,-290.11 1753.25,-288.56 1751.97,-295.66 1744.93,-297.21"/>
</a>
</g>
<text text-anchor="middle" x="1639" y="-368.75" font-family="Cascadia Code NF" font-size="10.00" fill="grey"> +has_varargs</text>
</g>
<!-- Node10&#45;&gt;Node1 -->
<g id="edge9_Node000001_Node000010" class="edge">
<title>Node10&#45;&gt;Node1</title>
<g id="a_edge9_Node000001_Node000010"><a xlink:title=" ">
<path fill="none" stroke="#63b8ff" d="M1223.42,-116.17C1271.42,-89.64 1344.26,-54.16 1413,-39.5 1482.55,-24.67 1503.36,-25.1 1573,-39.5 1624.23,-50.09 1863.79,-165.87 1883,-181.5 1951.05,-236.86 2007.71,-323.31 2038.06,-375.08"/>
<polygon fill="none" stroke="#63b8ff" points="2038.03,-375.03 2044.5,-378.23 2044.04,-385.42 2037.57,-382.23 2038.03,-375.03"/>
</a>
</g>
<text text-anchor="middle" x="1639" y="-87.75" font-family="Cascadia Code NF" font-size="10.00" fill="grey"> +name</text>
</g>
<!-- Node14 -->
<g id="Node000014" class="node">
<title>Node14</title>
<g id="a_Node000014"><a xlink:title=" ">
<polygon fill="white" stroke="none" points="1573,-184 1413,-184 1413,-119 1573,-119 1573,-184"/>
<text text-anchor="start" x="1418" y="-170.5" font-family="Cascadia Code NF" font-size="10.00">std::vector&lt; v8::internal</text>
<text text-anchor="start" x="1421" y="-157.75" font-family="Cascadia Code NF" font-size="10.00">::torque::Identifier * &gt;</text>
<text text-anchor="start" x="1490" y="-141.5" font-family="Cascadia Code NF" font-size="10.00"> </text>
<text text-anchor="start" x="1490" y="-125.5" font-family="Cascadia Code NF" font-size="10.00"> </text>
<polygon fill="#666666" stroke="#666666" points="1413,-153 1413,-153 1573,-153 1573,-153 1413,-153"/>
<polygon fill="#666666" stroke="#666666" points="1413,-137 1413,-137 1573,-137 1573,-137 1413,-137"/>
<polygon fill="none" stroke="#666666" points="1413,-119 1413,-184 1573,-184 1573,-119 1413,-119"/>
</a>
</g>
</g>
<!-- Node10&#45;&gt;Node14 -->
<g id="edge15_Node000014_Node000010" class="edge">
<title>Node10&#45;&gt;Node14</title>
<g id="a_edge15_Node000014_Node000010"><a xlink:title=" ">
<path fill="none" stroke="#63b8ff" d="M1232.81,-148.64C1278.08,-148.79 1340.27,-149.1 1395,-149.75 1396.75,-149.77 1398.52,-149.79 1400.3,-149.82"/>
<polygon fill="none" stroke="#63b8ff" points="1400.22,-149.81 1406.28,-145.9 1412.22,-149.98 1406.17,-153.9 1400.22,-149.81"/>
</a>
</g>
<text text-anchor="middle" x="1335" y="-153.75" font-family="Cascadia Code NF" font-size="10.00" fill="grey"> +elements</text>
</g>
<!-- Node20 -->
<g id="Node000020" class="node">
<title>Node20</title>
<g id="a_Node000020"><a xlink:href="../../d0/d41/structv8_1_1internal_1_1torque_1_1LabelAndTypes.html" target="_top" xlink:title=" ">
<polygon fill="white" stroke="none" points="1558,-495 1428,-495 1428,-430 1558,-430 1558,-495"/>
<text text-anchor="start" x="1433" y="-481.5" font-family="Cascadia Code NF" font-size="10.00">v8::internal::torque</text>
<text text-anchor="start" x="1448" y="-468.75" font-family="Cascadia Code NF" font-size="10.00">::LabelAndTypes</text>
<text text-anchor="start" x="1490" y="-452.5" font-family="Cascadia Code NF" font-size="10.00"> </text>
<text text-anchor="start" x="1490" y="-436.5" font-family="Cascadia Code NF" font-size="10.00"> </text>
<polygon fill="#bfbfbf" stroke="#bfbfbf" points="1428,-464 1428,-464 1558,-464 1558,-464 1428,-464"/>
<polygon fill="#bfbfbf" stroke="#bfbfbf" points="1428,-448 1428,-448 1558,-448 1558,-448 1428,-448"/>
<polygon fill="none" stroke="#bfbfbf" points="1428,-430 1428,-495 1558,-495 1558,-430 1428,-430"/>
</a>
</g>
</g>
<!-- Node10&#45;&gt;Node20 -->
<g id="edge27_Node000020_Node000010" class="edge">
<title>Node10&#45;&gt;Node20</title>
<g id="a_edge27_Node000020_Node000010"><a xlink:title=" ">
<path fill="none" stroke="#63b8ff" d="M1199.07,-180.89C1242.81,-228.21 1326.27,-319.26 1395,-398.75 1403.21,-408.24 1403.28,-412.57 1413,-420.5 1414.47,-421.7 1415.97,-422.87 1417.51,-424.03"/>
<polygon fill="none" stroke="#63b8ff" points="1417.48,-424.01 1424.68,-424.15 1427.32,-430.86 1420.11,-430.72 1417.48,-424.01"/>
</a>
</g>
<text text-anchor="middle" x="1335" y="-401.75" font-family="Cascadia Code NF" font-size="10.00" fill="grey"> +name</text>
</g>
<!-- Node11 -->
<g id="Node000011" class="node">
<title>Node11</title>
<g id="a_Node000011"><a xlink:title=" ">
<polygon fill="white" stroke="none" points="886,-58.5 810,-58.5 810,-6.5 886,-6.5 886,-58.5"/>
<text text-anchor="start" x="815" y="-45" font-family="Cascadia Code NF" font-size="10.00">std::string</text>
<text text-anchor="start" x="845" y="-29" font-family="Cascadia Code NF" font-size="10.00"> </text>
<text text-anchor="start" x="845" y="-13" font-family="Cascadia Code NF" font-size="10.00"> </text>
<polygon fill="#666666" stroke="#666666" points="810,-40.5 810,-40.5 886,-40.5 886,-40.5 810,-40.5"/>
<polygon fill="#666666" stroke="#666666" points="810,-24.5 810,-24.5 886,-24.5 886,-24.5 810,-24.5"/>
<polygon fill="none" stroke="#666666" points="810,-6.5 810,-58.5 886,-58.5 886,-6.5 810,-6.5"/>
</a>
</g>
</g>
<!-- Node11&#45;&gt;Node10 -->
<g id="edge11_Node000010_Node000011" class="edge">
<title>Node11&#45;&gt;Node10</title>
<g id="a_edge11_Node000010_Node000011"><a xlink:title=" ">
<path fill="none" stroke="#63b8ff" d="M885.79,-45.92C935.71,-64.13 1026.09,-97.1 1090.93,-120.75"/>
<polygon fill="none" stroke="#63b8ff" points="1091.01,-120.78 1098.02,-119.08 1102.28,-124.89 1095.27,-126.59 1091.01,-120.78"/>
</a>
</g>
<text text-anchor="middle" x="996" y="-111.75" font-family="Cascadia Code NF" font-size="10.00" fill="grey"> +value</text>
</g>
<!-- Node11&#45;&gt;Node13 -->
<g id="edge23_Node000013_Node000011" class="edge">
<title>Node11&#45;&gt;Node13</title>
<g id="a_edge23_Node000013_Node000011"><a xlink:title=" ">
<path fill="none" stroke="#63b8ff" d="M885.98,-26.67C993.99,-10.96 1317.49,26.8 1573,-39.5 1628.83,-53.99 1643.15,-64.04 1687,-101.5 1713.45,-124.09 1737.55,-154.28 1756.06,-180.66"/>
<polygon fill="none" stroke="#63b8ff" points="1756.08,-180.68 1762.77,-183.36 1762.87,-190.57 1756.18,-187.89 1756.08,-180.68"/>
</a>
</g>
<text text-anchor="middle" x="1335" y="-12.75" font-family="Cascadia Code NF" font-size="10.00" fill="grey"> +arguments_variable</text>
</g>
<!-- Node12 -->
<g id="Node000012" class="node">
<title>Node12</title>
<g id="a_Node000012"><a xlink:title=" ">
<polygon fill="white" stroke="none" points="740,-65 622,-65 622,0 740,0 740,-65"/>
<text text-anchor="start" x="627" y="-51.5" font-family="Cascadia Code NF" font-size="10.00">std::basic_string&lt;</text>
<text text-anchor="start" x="660" y="-38.75" font-family="Cascadia Code NF" font-size="10.00"> Char &gt;</text>
<text text-anchor="start" x="678" y="-22.5" font-family="Cascadia Code NF" font-size="10.00"> </text>
<text text-anchor="start" x="678" y="-6.5" font-family="Cascadia Code NF" font-size="10.00"> </text>
<polygon fill="#666666" stroke="#666666" points="622,-34 622,-34 740,-34 740,-34 622,-34"/>
<polygon fill="#666666" stroke="#666666" points="622,-18 622,-18 740,-18 740,-18 622,-18"/>
<polygon fill="none" stroke="#666666" points="622,0 622,-65 740,-65 740,0 622,0"/>
</a>
</g>
</g>
<!-- Node12&#45;&gt;Node11 -->
<g id="edge12_Node000011_Node000012" class="edge">
<title>Node12&#45;&gt;Node11</title>
<g id="a_edge12_Node000011_Node000012"><a xlink:title=" ">
<path fill="none" stroke="#63b8ff" d="M751.15,-32.5C771.43,-32.5 792.8,-32.5 810.21,-32.5"/>
<polygon fill="none" stroke="#63b8ff" points="751.22,-29 741.22,-32.5 751.22,-36 751.22,-29"/>
</a>
</g>
</g>
<!-- Node13&#45;&gt;Node1 -->
<g id="edge13_Node000001_Node000013" class="edge">
<title>Node13&#45;&gt;Node1</title>
<g id="a_edge13_Node000001_Node000013"><a xlink:title=" ">
<path fill="none" stroke="#63b8ff" d="M1858.95,-282.37C1902.67,-311.68 1960.18,-350.24 2002.83,-378.83"/>
<polygon fill="none" stroke="#63b8ff" points="2002.9,-378.88 2010.11,-378.9 2012.87,-385.56 2005.65,-385.54 2002.9,-378.88"/>
</a>
</g>
<text text-anchor="middle" x="1937" y="-357.75" font-family="Cascadia Code NF" font-size="10.00" fill="grey"> +parameters</text>
</g>
<!-- Node14&#45;&gt;Node13 -->
<g id="edge14_Node000013_Node000014" class="edge">
<title>Node14&#45;&gt;Node13</title>
<g id="a_edge14_Node000013_Node000014"><a xlink:title=" ">
<path fill="none" stroke="#63b8ff" d="M1572.77,-160.14C1608.28,-165.39 1650.37,-173.51 1687,-185.75 1697.13,-189.13 1707.49,-193.35 1717.58,-197.91"/>
<polygon fill="none" stroke="#63b8ff" points="1717.6,-197.92 1724.73,-196.85 1728.46,-203.03 1721.33,-204.09 1717.6,-197.92"/>
</a>
</g>
<text text-anchor="middle" x="1639" y="-189.75" font-family="Cascadia Code NF" font-size="10.00" fill="grey"> +names</text>
</g>
<!-- Node15 -->
<g id="Node000015" class="node">
<title>Node15</title>
<g id="a_Node000015"><a xlink:title=" ">
<polygon fill="white" stroke="none" points="1257,-423 1079,-423 1079,-358 1257,-358 1257,-423"/>
<text text-anchor="start" x="1084" y="-409.5" font-family="Cascadia Code NF" font-size="10.00">std::vector&lt; v8::internal</text>
<text text-anchor="start" x="1084" y="-396.75" font-family="Cascadia Code NF" font-size="10.00">::torque::TypeExpression * &gt;</text>
<text text-anchor="start" x="1165" y="-380.5" font-family="Cascadia Code NF" font-size="10.00"> </text>
<text text-anchor="start" x="1165" y="-364.5" font-family="Cascadia Code NF" font-size="10.00"> </text>
<polygon fill="#666666" stroke="#666666" points="1079,-392 1079,-392 1257,-392 1257,-392 1079,-392"/>
<polygon fill="#666666" stroke="#666666" points="1079,-376 1079,-376 1257,-376 1257,-376 1079,-376"/>
<polygon fill="none" stroke="#666666" points="1079,-358 1079,-423 1257,-423 1257,-358 1079,-358"/>
</a>
</g>
</g>
<!-- Node15&#45;&gt;Node13 -->
<g id="edge16_Node000013_Node000015" class="edge">
<title>Node15&#45;&gt;Node13</title>
<g id="a_edge16_Node000013_Node000015"><a xlink:title=" ">
<path fill="none" stroke="#63b8ff" d="M1256.61,-371.83C1338.54,-354.23 1464.23,-326.83 1573,-301.5 1623.81,-289.66 1636.8,-287.7 1687,-273.5 1696.61,-270.78 1706.66,-267.78 1716.58,-264.71"/>
<polygon fill="none" stroke="#63b8ff" points="1716.72,-264.66 1721.25,-259.05 1728.18,-261.08 1723.65,-266.69 1716.72,-264.66"/>
</a>
</g>
<text text-anchor="middle" x="1493" y="-338.75" font-family="Cascadia Code NF" font-size="10.00" fill="grey"> +types</text>
</g>
<!-- Node15&#45;&gt;Node20 -->
<g id="edge28_Node000020_Node000015" class="edge">
<title>Node15&#45;&gt;Node20</title>
<g id="a_edge28_Node000020_Node000015"><a xlink:title=" ">
<path fill="none" stroke="#63b8ff" d="M1256.83,-410.08C1306.37,-421.12 1367.68,-434.79 1415.28,-445.4"/>
<polygon fill="none" stroke="#63b8ff" points="1415.41,-445.43 1422.14,-442.83 1427.13,-448.04 1420.4,-450.64 1415.41,-445.43"/>
</a>
</g>
<text text-anchor="middle" x="1335" y="-441.75" font-family="Cascadia Code NF" font-size="10.00" fill="grey"> +types</text>
</g>
<!-- Node16&#45;&gt;Node1 -->
<g id="edge24_Node000001_Node000016" class="edge">
<title>Node16&#45;&gt;Node1</title>
<g id="a_edge24_Node000001_Node000016"><a xlink:title=" ">
<path fill="none" stroke="#63b8ff" d="M906.54,-422.85C982.74,-464.48 1113.7,-531.5 1167,-531.5 1167,-531.5 1167,-531.5 1795,-531.5 1872.61,-531.5 1953.59,-490.51 2005.72,-457.9"/>
<polygon fill="none" stroke="#63b8ff" points="2005.85,-457.82 2008.75,-451.22 2015.96,-451.37 2013.06,-457.97 2005.85,-457.82"/>
</a>
</g>
<text text-anchor="middle" x="1493" y="-534.75" font-family="Cascadia Code NF" font-size="10.00" fill="grey"> +return_type</text>
</g>
<!-- Node16&#45;&gt;Node15 -->
<g id="edge17_Node000015_Node000016" class="edge">
<title>Node16&#45;&gt;Node15</title>
<g id="a_edge17_Node000015_Node000016"><a xlink:title=" ">
<path fill="none" stroke="#63b8ff" d="M912.97,-390.5C956.85,-390.5 1015.98,-390.5 1066.16,-390.5"/>
<polygon fill="none" stroke="#63b8ff" points="1066.14,-390.5 1072.14,-386.5 1078.14,-390.5 1072.14,-394.5 1066.14,-390.5"/>
</a>
</g>
<text text-anchor="middle" x="996" y="-393.75" font-family="Cascadia Code NF" font-size="10.00" fill="grey"> +elements</text>
</g>
<!-- Node17 -->
<g id="Node000017" class="node">
<title>Node17</title>
<g id="a_Node000017"><a xlink:title=" ">
<polygon fill="white" stroke="none" points="1534,-100.5 1452,-100.5 1452,-48.5 1534,-48.5 1534,-100.5"/>
<text text-anchor="start" x="1457" y="-87" font-family="Cascadia Code NF" font-size="10.00">ImplicitKind</text>
<text text-anchor="start" x="1490" y="-71" font-family="Cascadia Code NF" font-size="10.00"> </text>
<text text-anchor="start" x="1490" y="-55" font-family="Cascadia Code NF" font-size="10.00"> </text>
<polygon fill="#bfbfbf" stroke="#bfbfbf" points="1452,-82.5 1452,-82.5 1534,-82.5 1534,-82.5 1452,-82.5"/>
<polygon fill="#bfbfbf" stroke="#bfbfbf" points="1452,-66.5 1452,-66.5 1534,-66.5 1534,-66.5 1452,-66.5"/>
<polygon fill="none" stroke="#bfbfbf" points="1452,-48.5 1452,-100.5 1534,-100.5 1534,-48.5 1452,-48.5"/>
</a>
</g>
</g>
<!-- Node17&#45;&gt;Node13 -->
<g id="edge19_Node000013_Node000017" class="edge">
<title>Node17&#45;&gt;Node13</title>
<g id="a_edge19_Node000013_Node000017"><a xlink:title=" ">
<path fill="none" stroke="#63b8ff" d="M1533.96,-84.87C1574.36,-96.38 1637.7,-117.3 1687,-146.75 1703.88,-156.83 1720.61,-169.73 1735.62,-182.68"/>
<polygon fill="none" stroke="#63b8ff" points="1735.55,-182.62 1742.7,-183.6 1744.54,-190.57 1737.4,-189.59 1735.55,-182.62"/>
</a>
</g>
<text text-anchor="middle" x="1639" y="-150.75" font-family="Cascadia Code NF" font-size="10.00" fill="grey"> +implicit_kind</text>
</g>
<!-- Node18 -->
<g id="Node000018" class="node">
<title>Node18</title>
<g id="a_Node000018"><a xlink:title=" ">
<polygon fill="white" stroke="none" points="1516,-292.5 1470,-292.5 1470,-240.5 1516,-240.5 1516,-292.5"/>
<text text-anchor="start" x="1475" y="-279" font-family="Cascadia Code NF" font-size="10.00">size_t</text>
<text text-anchor="start" x="1490" y="-263" font-family="Cascadia Code NF" font-size="10.00"> </text>
<text text-anchor="start" x="1490" y="-247" font-family="Cascadia Code NF" font-size="10.00"> </text>
<polygon fill="#bfbfbf" stroke="#bfbfbf" points="1470,-274.5 1470,-274.5 1516,-274.5 1516,-274.5 1470,-274.5"/>
<polygon fill="#bfbfbf" stroke="#bfbfbf" points="1470,-258.5 1470,-258.5 1516,-258.5 1516,-258.5 1470,-258.5"/>
<polygon fill="none" stroke="#bfbfbf" points="1470,-240.5 1470,-292.5 1516,-292.5 1516,-240.5 1470,-240.5"/>
</a>
</g>
</g>
<!-- Node18&#45;&gt;Node13 -->
<g id="edge21_Node000013_Node000018" class="edge">
<title>Node18&#45;&gt;Node13</title>
<g id="a_edge21_Node000013_Node000018"><a xlink:title=" ">
<path fill="none" stroke="#63b8ff" d="M1515.99,-264.51C1557.58,-260.76 1649.59,-252.45 1716.18,-246.44"/>
<polygon fill="none" stroke="#63b8ff" points="1716.29,-246.43 1721.9,-241.9 1728.24,-245.35 1722.62,-249.87 1716.29,-246.43"/>
</a>
</g>
<text text-anchor="middle" x="1639" y="-259.75" font-family="Cascadia Code NF" font-size="10.00" fill="grey"> +implicit_count</text>
</g>
<!-- Node19 -->
<g id="Node000019" class="node">
<title>Node19</title>
<g id="a_Node000019"><a xlink:title=" ">
<polygon fill="white" stroke="none" points="1883,-479.5 1705,-479.5 1705,-427.5 1883,-427.5 1883,-479.5"/>
<text text-anchor="start" x="1710" y="-466" font-family="Cascadia Code NF" font-size="10.00">std::vector&lt; LabelAndTypes &gt;</text>
<text text-anchor="start" x="1791" y="-450" font-family="Cascadia Code NF" font-size="10.00"> </text>
<text text-anchor="start" x="1791" y="-434" font-family="Cascadia Code NF" font-size="10.00"> </text>
<polygon fill="#666666" stroke="#666666" points="1705,-461.5 1705,-461.5 1883,-461.5 1883,-461.5 1705,-461.5"/>
<polygon fill="#666666" stroke="#666666" points="1705,-445.5 1705,-445.5 1883,-445.5 1883,-445.5 1705,-445.5"/>
<polygon fill="none" stroke="#666666" points="1705,-427.5 1705,-479.5 1883,-479.5 1883,-427.5 1705,-427.5"/>
</a>
</g>
</g>
<!-- Node19&#45;&gt;Node1 -->
<g id="edge25_Node000001_Node000019" class="edge">
<title>Node19&#45;&gt;Node1</title>
<g id="a_edge25_Node000001_Node000019"><a xlink:title=" ">
<path fill="none" stroke="#63b8ff" d="M1882.8,-441.99C1913.52,-437.96 1947.91,-433.46 1978.29,-429.47"/>
<polygon fill="none" stroke="#63b8ff" points="1978.25,-429.48 1983.68,-424.73 1990.15,-427.92 1984.72,-432.66 1978.25,-429.48"/>
</a>
</g>
<text text-anchor="middle" x="1937" y="-441.75" font-family="Cascadia Code NF" font-size="10.00" fill="grey"> +labels</text>
</g>
<!-- Node20&#45;&gt;Node19 -->
<g id="edge26_Node000019_Node000020" class="edge">
<title>Node20&#45;&gt;Node19</title>
<g id="a_edge26_Node000019_Node000020"><a xlink:title=" ">
<path fill="none" stroke="#63b8ff" d="M1557.78,-460.58C1596.88,-459.4 1647.8,-457.87 1692.26,-456.53"/>
<polygon fill="none" stroke="#63b8ff" points="1692.32,-456.53 1698.2,-452.35 1704.32,-456.17 1698.44,-460.35 1692.32,-456.53"/>
</a>
</g>
<text text-anchor="middle" x="1639" y="-461.75" font-family="Cascadia Code NF" font-size="10.00" fill="grey"> +elements</text>
</g>
</g>
</svg>

<g id="navigator" transform="translate(0 0)" fill="#404254">
  <rect fill="#f2f5e9" fill-opacity="0.5" stroke="#606060" stroke-width=".5" x="0" y="0" width="60" height="60"/>
  <use id="zoomplus" xlink:href="#zoomPlus" x="17" y="9" onmousedown="handleZoom(evt,'in')"/>
  <use id="zoomminus" xlink:href="#zoomMin" x="42" y="9" onmousedown="handleZoom(evt,'out')"/>
  <use id="reset" xlink:href="#resetDef" x="30" y="36" onmousedown="handleReset()"/>
   <use id="arrowup" xlink:href="#arrowUp" x="0" y="0" onmousedown="handlePan(0,-1)"/>
  <use id="arrowright" xlink:href="#arrowRight" x="0" y="0" onmousedown="handlePan(1,0)"/>
  <use id="arrowdown" xlink:href="#arrowDown" x="0" y="0" onmousedown="handlePan(0,1)"/>
  <use id="arrowleft" xlink:href="#arrowLeft" x="0" y="0" onmousedown="handlePan(-1,0)"/>
</g>
<svg viewBox="0 0 15 15" width="100%" height="30px" preserveAspectRatio="xMaxYMin meet">
 <g id="arrow_out" transform="scale(0.3 0.3)">
  <a xlink:href="structv8_1_1internal_1_1torque_1_1CallableDeclaration__coll__graph_org.svg" target="_base">
   <rect id="button" ry="5" rx="5" y="6" x="6" height="38" width="38"
        fill="#f2f5e9" fill-opacity="0.5" stroke="#606060" stroke-width="1.0"/>
   <path id="arrow"
     d="M 11.500037,31.436501 C 11.940474,20.09759 22.043105,11.32322 32.158766,21.979434 L 37.068811,17.246167 C 37.068811,17.246167 37.088388,32 37.088388,32 L 22.160133,31.978069 C 22.160133,31.978069 26.997745,27.140456 26.997745,27.140456 C 18.528582,18.264221 13.291696,25.230495 11.500037,31.436501 z"
     style="fill:#404040;"/>
  </a>
 </g>
</svg>

<style type='text/css'>
<![CDATA[
[data-mouse-over-selected='false'] { opacity: 0.7; }
[data-mouse-over-selected='true']  { opacity: 1.0; }
]]>
</style>
<script type="application/ecmascript"><![CDATA[
document.addEventListener('DOMContentLoaded', (event) => {
  highlightEdges();
  highlightAdjacentNodes();
});
]]></script>
</svg>
