<?xml version="1.0" encoding="UTF-8" standalone="no"?>
<!DOCTYPE svg PUBLIC "-//W3C//DTD SVG 1.1//EN"
 "http://www.w3.org/Graphics/SVG/1.1/DTD/svg11.dtd">
<!-- Generated by graphviz version 11.0.0 (20240428.1522)
 -->
<!-- Title: wasm::EngineImpl Pages: 1 -->
<svg width="592pt" height="310pt"
 viewBox="0.00 0.00 592.00 310.00" xmlns="http://www.w3.org/2000/svg" xmlns:xlink="http://www.w3.org/1999/xlink">
<g id="graph0" class="graph" transform="scale(1 1) rotate(0) translate(4 306)">
<title>wasm::EngineImpl</title>
<!-- Node1 -->
<g id="Node000001" class="node">
<title>Node1</title>
<g id="a_Node000001"><a xlink:title=" ">
<polygon fill="#999999" stroke="none" points="584,-224 478,-224 478,-156 584,-156 584,-224"/>
<text text-anchor="start" x="483" y="-210.5" font-family="Cascadia Code NF" font-size="10.00">wasm::EngineImpl</text>
<text text-anchor="start" x="528" y="-194.5" font-family="Cascadia Code NF" font-size="10.00"> </text>
<text text-anchor="start" x="484.5" y="-178.5" font-family="Cascadia Code NF" font-size="10.00">+</text>
<text text-anchor="start" x="497" y="-178.5" font-family="Cascadia Code NF" font-size="10.00">EngineImpl()</text>
<text text-anchor="start" x="484.5" y="-162.5" font-family="Cascadia Code NF" font-size="10.00">+</text>
<text text-anchor="start" x="497" y="-162.5" font-family="Cascadia Code NF" font-size="10.00">~EngineImpl()</text>
<polygon fill="#666666" stroke="#666666" points="478,-206 478,-206 584,-206 584,-206 478,-206"/>
<polygon fill="#666666" stroke="#666666" points="478,-190 478,-190 584,-190 584,-190 478,-190"/>
<polygon fill="none" stroke="#666666" points="478,-156 478,-224 584,-224 584,-156 478,-156"/>
</a>
</g>
</g>
<!-- Node2 -->
<g id="Node000002" class="node">
<title>Node2</title>
<g id="a_Node000002"><a xlink:title=" ">
<polygon fill="white" stroke="none" points="337,-254 303,-254 303,-202 337,-202 337,-254"/>
<text text-anchor="start" x="308" y="-240.5" font-family="Cascadia Code NF" font-size="10.00">bool</text>
<text text-anchor="start" x="317" y="-224.5" font-family="Cascadia Code NF" font-size="10.00"> </text>
<text text-anchor="start" x="317" y="-208.5" font-family="Cascadia Code NF" font-size="10.00"> </text>
<polygon fill="#bfbfbf" stroke="#bfbfbf" points="303,-236 303,-236 337,-236 337,-236 303,-236"/>
<polygon fill="#bfbfbf" stroke="#bfbfbf" points="303,-220 303,-220 337,-220 337,-220 303,-220"/>
<polygon fill="none" stroke="#bfbfbf" points="303,-202 303,-254 337,-254 337,-202 303,-202"/>
</a>
</g>
</g>
<!-- Node2&#45;&gt;Node1 -->
<g id="edge1_Node000001_Node000002" class="edge">
<title>Node2&#45;&gt;Node1</title>
<g id="a_edge1_Node000001_Node000002"><a xlink:title=" ">
<path fill="none" stroke="#63b8ff" d="M336.71,-225.14C363.72,-220.23 420.42,-209.92 465.46,-201.73"/>
<polygon fill="none" stroke="#63b8ff" points="465.43,-201.74 470.61,-196.73 477.23,-199.59 472.04,-204.6 465.43,-201.74"/>
</a>
</g>
<text text-anchor="middle" x="430" y="-216.25" font-family="Cascadia Code NF" font-size="10.00" fill="grey"> +created</text>
</g>
<!-- Node3 -->
<g id="Node000003" class="node">
<title>Node3</title>
<g id="a_Node000003"><a xlink:title=" ">
<polygon fill="white" stroke="none" points="382,-183.5 258,-183.5 258,-118.5 382,-118.5 382,-183.5"/>
<text text-anchor="start" x="263" y="-170" font-family="Cascadia Code NF" font-size="10.00">std::unique_ptr&lt; v8</text>
<text text-anchor="start" x="284" y="-157.25" font-family="Cascadia Code NF" font-size="10.00">::Platform &gt;</text>
<text text-anchor="start" x="317" y="-141" font-family="Cascadia Code NF" font-size="10.00"> </text>
<text text-anchor="start" x="270.5" y="-125" font-family="Cascadia Code NF" font-size="10.00">+</text>
<text text-anchor="start" x="289" y="-125" font-family="Cascadia Code NF" font-size="10.00">operator&#45;&gt;()</text>
<polygon fill="#666666" stroke="#666666" points="258,-152.5 258,-152.5 382,-152.5 382,-152.5 258,-152.5"/>
<polygon fill="#666666" stroke="#666666" points="258,-136.5 258,-136.5 382,-136.5 382,-136.5 258,-136.5"/>
<polygon fill="none" stroke="#666666" points="258,-118.5 258,-183.5 382,-183.5 382,-118.5 258,-118.5"/>
</a>
</g>
</g>
<!-- Node3&#45;&gt;Node1 -->
<g id="edge2_Node000001_Node000003" class="edge">
<title>Node3&#45;&gt;Node1</title>
<g id="a_edge2_Node000001_Node000003"><a xlink:title=" ">
<path fill="none" stroke="#63b8ff" d="M381.73,-162.33C408.04,-167.24 438.87,-172.99 465.57,-177.98"/>
<polygon fill="none" stroke="#63b8ff" points="465.63,-177.99 472.27,-175.16 477.43,-180.19 470.8,-183.02 465.63,-177.99"/>
</a>
</g>
<text text-anchor="middle" x="430" y="-179.25" font-family="Cascadia Code NF" font-size="10.00" fill="grey"> +platform</text>
</g>
<!-- Node4 -->
<g id="Node000004" class="node">
<title>Node4</title>
<g id="a_Node000004"><a xlink:href="../../dc/d23/classv8_1_1Platform.html" target="_top" xlink:title=" ">
<polygon fill="white" stroke="none" points="192,-302 0,-302 0,0 192,0 192,-302"/>
<text text-anchor="start" x="60" y="-288.5" font-family="Cascadia Code NF" font-size="10.00">v8::Platform</text>
<text text-anchor="start" x="93" y="-272.5" font-family="Cascadia Code NF" font-size="10.00"> </text>
<text text-anchor="start" x="4" y="-256.5" font-family="Cascadia Code NF" font-size="10.00">+</text>
<text text-anchor="start" x="14" y="-256.5" font-family="Cascadia Code NF" font-size="10.00">~Platform()</text>
<text text-anchor="start" x="4" y="-240.5" font-family="Cascadia Code NF" font-size="10.00">+</text>
<text text-anchor="start" x="14" y="-240.5" font-family="Cascadia Code NF" font-size="10.00">GetPageAllocator()</text>
<text text-anchor="start" x="4" y="-224.5" font-family="Cascadia Code NF" font-size="10.00">+</text>
<text text-anchor="start" x="14" y="-224.5" font-family="Cascadia Code NF" font-size="10.00">GetThreadIsolatedAllocator()</text>
<text text-anchor="start" x="4" y="-208.5" font-family="Cascadia Code NF" font-size="10.00">+</text>
<text text-anchor="start" x="14" y="-208.5" font-family="Cascadia Code NF" font-size="10.00">GetZoneBackingAllocator()</text>
<text text-anchor="start" x="4" y="-192.5" font-family="Cascadia Code NF" font-size="10.00">+</text>
<text text-anchor="start" x="14" y="-192.5" font-family="Cascadia Code NF" font-size="10.00">OnCriticalMemoryPressure()</text>
<text text-anchor="start" x="4" y="-176.5" font-family="Cascadia Code NF" font-size="10.00">+</text>
<text text-anchor="start" x="14" y="-176.5" font-family="Cascadia Code NF" font-size="10.00">NumberOfWorkerThreads()</text>
<text text-anchor="start" x="4" y="-160.5" font-family="Cascadia Code NF" font-size="10.00">+</text>
<text text-anchor="start" x="14" y="-160.5" font-family="Cascadia Code NF" font-size="10.00">GetForegroundTaskRunner()</text>
<text text-anchor="start" x="4" y="-144.5" font-family="Cascadia Code NF" font-size="10.00">+</text>
<text text-anchor="start" x="14" y="-144.5" font-family="Cascadia Code NF" font-size="10.00">GetForegroundTaskRunner()</text>
<text text-anchor="start" x="4" y="-128.5" font-family="Cascadia Code NF" font-size="10.00">+</text>
<text text-anchor="start" x="14" y="-128.5" font-family="Cascadia Code NF" font-size="10.00">CallOnWorkerThread()</text>
<text text-anchor="start" x="4" y="-112.5" font-family="Cascadia Code NF" font-size="10.00">+</text>
<text text-anchor="start" x="14" y="-112.5" font-family="Cascadia Code NF" font-size="10.00">CallBlockingTaskOnWorker</text>
<text text-anchor="start" x="14" y="-99.75" font-family="Cascadia Code NF" font-size="10.00">Thread()</text>
<text text-anchor="start" x="14" y="-83.5" font-family="Cascadia Code NF" font-size="10.00">and 14 more...</text>
<text text-anchor="start" x="4" y="-67.5" font-family="Cascadia Code NF" font-size="10.00">#</text>
<text text-anchor="start" x="14" y="-67.5" font-family="Cascadia Code NF" font-size="10.00">CreateJobImpl()</text>
<text text-anchor="start" x="4" y="-51.5" font-family="Cascadia Code NF" font-size="10.00">#</text>
<text text-anchor="start" x="14" y="-51.5" font-family="Cascadia Code NF" font-size="10.00">PostTaskOnWorkerThreadImpl()</text>
<text text-anchor="start" x="4" y="-35.5" font-family="Cascadia Code NF" font-size="10.00">#</text>
<text text-anchor="start" x="14" y="-35.5" font-family="Cascadia Code NF" font-size="10.00">PostDelayedTaskOnWorkerThread</text>
<text text-anchor="start" x="14" y="-22.75" font-family="Cascadia Code NF" font-size="10.00">Impl()</text>
<text text-anchor="start" x="4" y="-6.5" font-family="Cascadia Code NF" font-size="10.00">#</text>
<text text-anchor="start" x="14" y="-6.5" font-family="Cascadia Code NF" font-size="10.00">SystemClockTimeMillis()</text>
<polygon fill="#666666" stroke="#666666" points="0,-284 0,-284 192,-284 192,-284 0,-284"/>
<polygon fill="#666666" stroke="#666666" points="0,-268 0,-268 192,-268 192,-268 0,-268"/>
<polygon fill="none" stroke="#666666" points="0,0 0,-302 192,-302 192,0 0,0"/>
</a>
</g>
</g>
<!-- Node4&#45;&gt;Node3 -->
<g id="edge3_Node000003_Node000004" class="edge">
<title>Node4&#45;&gt;Node3</title>
<g id="a_edge3_Node000003_Node000004"><a xlink:title=" ">
<path fill="none" stroke="#63b8ff" d="M191.79,-151C209.73,-151 228.24,-151 245.41,-151"/>
<polygon fill="none" stroke="#63b8ff" points="245.33,-151 251.33,-147 257.33,-151 251.33,-155 245.33,-151"/>
</a>
</g>
<text text-anchor="middle" x="225" y="-154.25" font-family="Cascadia Code NF" font-size="10.00" fill="grey"> +ptr</text>
</g>
</g>
</svg>
