<?xml version="1.0" encoding="UTF-8" standalone="no"?>
<!DOCTYPE svg PUBLIC "-//W3C//DTD SVG 1.1//EN"
 "http://www.w3.org/Graphics/SVG/1.1/DTD/svg11.dtd">
<!-- Generated by graphviz version 11.0.0 (20240428.1522)
 -->
<!-- Title: v8::internal::wasm::WasmMemory Pages: 1 -->
<svg width="438pt" height="291pt"
 viewBox="0.00 0.00 438.00 291.25" xmlns="http://www.w3.org/2000/svg" xmlns:xlink="http://www.w3.org/1999/xlink">
<g id="graph0" class="graph" transform="scale(1 1) rotate(0) translate(4 287.25)">
<title>v8::internal::wasm::WasmMemory</title>
<!-- Node1 -->
<g id="Node000001" class="node">
<title>Node1</title>
<g id="a_Node000001"><a xlink:title=" ">
<polygon fill="#999999" stroke="none" points="430,-174.5 268,-174.5 268,-77.5 430,-77.5 430,-174.5"/>
<text text-anchor="start" x="295" y="-161" font-family="Cascadia Code NF" font-size="10.00">v8::internal::wasm</text>
<text text-anchor="start" x="313" y="-148.25" font-family="Cascadia Code NF" font-size="10.00">::WasmMemory</text>
<text text-anchor="start" x="346" y="-132" font-family="Cascadia Code NF" font-size="10.00"> </text>
<text text-anchor="start" x="272" y="-116" font-family="Cascadia Code NF" font-size="10.00">+</text>
<text text-anchor="start" x="282" y="-116" font-family="Cascadia Code NF" font-size="10.00">GetMemory64GuardsShift()</text>
<text text-anchor="start" x="272" y="-100" font-family="Cascadia Code NF" font-size="10.00">+</text>
<text text-anchor="start" x="282" y="-100" font-family="Cascadia Code NF" font-size="10.00">GetMemory64GuardsSize()</text>
<text text-anchor="start" x="272" y="-84" font-family="Cascadia Code NF" font-size="10.00">+</text>
<text text-anchor="start" x="282" y="-84" font-family="Cascadia Code NF" font-size="10.00">GetMemory64GuardsShift()</text>
<polygon fill="#666666" stroke="#666666" points="268,-143.5 268,-143.5 430,-143.5 430,-143.5 268,-143.5"/>
<polygon fill="#666666" stroke="#666666" points="268,-127.5 268,-127.5 430,-127.5 430,-127.5 268,-127.5"/>
<polygon fill="none" stroke="#666666" points="268,-77.5 268,-174.5 430,-174.5 430,-77.5 268,-77.5"/>
</a>
</g>
</g>
<!-- Node2 -->
<g id="Node000002" class="node">
<title>Node2</title>
<g id="a_Node000002"><a xlink:href="$d3/d87/classuint32__t.html" xlink:title=" ">
<polygon fill="white" stroke="none" points="91,-270 33,-270 33,-218 91,-218 91,-270"/>
<text text-anchor="start" x="38" y="-256.5" font-family="Cascadia Code NF" font-size="10.00">uint32_t</text>
<text text-anchor="start" x="59" y="-240.5" font-family="Cascadia Code NF" font-size="10.00"> </text>
<text text-anchor="start" x="59" y="-224.5" font-family="Cascadia Code NF" font-size="10.00"> </text>
<polygon fill="#bfbfbf" stroke="#bfbfbf" points="33,-252 33,-252 91,-252 91,-252 33,-252"/>
<polygon fill="#bfbfbf" stroke="#bfbfbf" points="33,-236 33,-236 91,-236 91,-236 33,-236"/>
<polygon fill="none" stroke="#bfbfbf" points="33,-218 33,-270 91,-270 91,-218 33,-218"/>
</a>
</g>
</g>
<!-- Node2&#45;&gt;Node1 -->
<g id="edge1_Node000001_Node000002" class="edge">
<title>Node2&#45;&gt;Node1</title>
<g id="a_edge1_Node000001_Node000002"><a xlink:title=" ">
<path fill="none" stroke="#63b8ff" d="M90.84,-246.15C128.78,-247.92 197.95,-246.89 250,-222 269.13,-212.85 286.8,-198.46 301.72,-183.57"/>
<polygon fill="none" stroke="#63b8ff" points="301.71,-183.59 302.98,-176.49 310.02,-174.93 308.75,-182.03 301.71,-183.59"/>
</a>
</g>
<text text-anchor="middle" x="196" y="-273.75" font-family="Cascadia Code NF" font-size="10.00" fill="grey"> +index</text>
<text text-anchor="middle" x="196" y="-261" font-family="Cascadia Code NF" font-size="10.00" fill="grey">+initial_pages</text>
<text text-anchor="middle" x="196" y="-248.25" font-family="Cascadia Code NF" font-size="10.00" fill="grey">+maximum_pages</text>
</g>
<!-- Node3 -->
<g id="Node000003" class="node">
<title>Node3</title>
<g id="a_Node000003"><a xlink:title=" ">
<polygon fill="white" stroke="none" points="79,-192 45,-192 45,-140 79,-140 79,-192"/>
<text text-anchor="start" x="50" y="-178.5" font-family="Cascadia Code NF" font-size="10.00">bool</text>
<text text-anchor="start" x="59" y="-162.5" font-family="Cascadia Code NF" font-size="10.00"> </text>
<text text-anchor="start" x="59" y="-146.5" font-family="Cascadia Code NF" font-size="10.00"> </text>
<polygon fill="#bfbfbf" stroke="#bfbfbf" points="45,-174 45,-174 79,-174 79,-174 45,-174"/>
<polygon fill="#bfbfbf" stroke="#bfbfbf" points="45,-158 45,-158 79,-158 79,-158 45,-158"/>
<polygon fill="none" stroke="#bfbfbf" points="45,-140 45,-192 79,-192 79,-140 45,-140"/>
</a>
</g>
</g>
<!-- Node3&#45;&gt;Node1 -->
<g id="edge2_Node000001_Node000003" class="edge">
<title>Node3&#45;&gt;Node1</title>
<g id="a_edge2_Node000001_Node000003"><a xlink:title=" ">
<path fill="none" stroke="#63b8ff" d="M78.73,-163.79C111.93,-159.13 191.39,-147.98 255.44,-138.99"/>
<polygon fill="none" stroke="#63b8ff" points="255.25,-139.02 260.64,-134.22 267.13,-137.35 261.75,-142.14 255.25,-139.02"/>
</a>
</g>
<text text-anchor="middle" x="196" y="-208.25" font-family="Cascadia Code NF" font-size="10.00" fill="grey"> +exported</text>
<text text-anchor="middle" x="196" y="-195.5" font-family="Cascadia Code NF" font-size="10.00" fill="grey">+has_maximum_pages</text>
<text text-anchor="middle" x="196" y="-182.75" font-family="Cascadia Code NF" font-size="10.00" fill="grey">+imported</text>
<text text-anchor="middle" x="196" y="-170" font-family="Cascadia Code NF" font-size="10.00" fill="grey">+is_memory64</text>
<text text-anchor="middle" x="196" y="-157.25" font-family="Cascadia Code NF" font-size="10.00" fill="grey">+is_shared</text>
</g>
<!-- Node4 -->
<g id="Node000004" class="node">
<title>Node4</title>
<g id="a_Node000004"><a xlink:href="$d0/d60/classuintptr__t.html" xlink:title=" ">
<polygon fill="white" stroke="none" points="94,-122 30,-122 30,-70 94,-70 94,-122"/>
<text text-anchor="start" x="35" y="-108.5" font-family="Cascadia Code NF" font-size="10.00">uintptr_t</text>
<text text-anchor="start" x="59" y="-92.5" font-family="Cascadia Code NF" font-size="10.00"> </text>
<text text-anchor="start" x="59" y="-76.5" font-family="Cascadia Code NF" font-size="10.00"> </text>
<polygon fill="#bfbfbf" stroke="#bfbfbf" points="30,-104 30,-104 94,-104 94,-104 30,-104"/>
<polygon fill="#bfbfbf" stroke="#bfbfbf" points="30,-88 30,-88 94,-88 94,-88 30,-88"/>
<polygon fill="none" stroke="#bfbfbf" points="30,-70 30,-122 94,-122 94,-70 30,-70"/>
</a>
</g>
</g>
<!-- Node4&#45;&gt;Node1 -->
<g id="edge3_Node000001_Node000004" class="edge">
<title>Node4&#45;&gt;Node1</title>
<g id="a_edge3_Node000001_Node000004"><a xlink:title=" ">
<path fill="none" stroke="#63b8ff" d="M93.86,-97.33C131,-99.14 195.22,-102.93 250,-109.5 251.75,-109.71 253.53,-109.93 255.31,-110.16"/>
<polygon fill="none" stroke="#63b8ff" points="255.35,-110.16 261.84,-107.01 267.24,-111.79 260.75,-114.94 255.35,-110.16"/>
</a>
</g>
<text text-anchor="middle" x="196" y="-125" font-family="Cascadia Code NF" font-size="10.00" fill="grey"> +max_memory_size</text>
<text text-anchor="middle" x="196" y="-112.25" font-family="Cascadia Code NF" font-size="10.00" fill="grey">+min_memory_size</text>
</g>
<!-- Node5 -->
<g id="Node000005" class="node">
<title>Node5</title>
<g id="a_Node000005"><a xlink:title=" ">
<polygon fill="white" stroke="none" points="124,-52 0,-52 0,0 124,0 124,-52"/>
<text text-anchor="start" x="5" y="-38.5" font-family="Cascadia Code NF" font-size="10.00">BoundsCheckStrategy</text>
<text text-anchor="start" x="59" y="-22.5" font-family="Cascadia Code NF" font-size="10.00"> </text>
<text text-anchor="start" x="59" y="-6.5" font-family="Cascadia Code NF" font-size="10.00"> </text>
<polygon fill="#bfbfbf" stroke="#bfbfbf" points="0,-34 0,-34 124,-34 124,-34 0,-34"/>
<polygon fill="#bfbfbf" stroke="#bfbfbf" points="0,-18 0,-18 124,-18 124,-18 0,-18"/>
<polygon fill="none" stroke="#bfbfbf" points="0,0 0,-52 124,-52 124,0 0,0"/>
</a>
</g>
</g>
<!-- Node5&#45;&gt;Node1 -->
<g id="edge4_Node000001_Node000005" class="edge">
<title>Node5&#45;&gt;Node1</title>
<g id="a_edge4_Node000001_Node000005"><a xlink:title=" ">
<path fill="none" stroke="#63b8ff" d="M123.8,-42.71C160.66,-53.3 208.44,-67.88 250,-83.25 252.03,-84 254.09,-84.78 256.15,-85.57"/>
<polygon fill="none" stroke="#63b8ff" points="256.07,-85.53 263.12,-84 267.24,-89.92 260.19,-91.45 256.07,-85.53"/>
</a>
</g>
<text text-anchor="middle" x="196" y="-86.25" font-family="Cascadia Code NF" font-size="10.00" fill="grey"> +bounds_checks</text>
</g>
</g>
</svg>
