<?xml version="1.0" encoding="UTF-8" standalone="no"?>
<!DOCTYPE svg PUBLIC "-//W3C//DTD SVG 1.1//EN"
 "http://www.w3.org/Graphics/SVG/1.1/DTD/svg11.dtd">
<!-- Generated by graphviz version 11.0.0 (20240428.1522)
 -->
<!-- Title: v8::UnboundScript Pages: 1 -->
<svg width="410pt" height="226pt"
 viewBox="0.00 0.00 410.00 226.00" xmlns="http://www.w3.org/2000/svg" xmlns:xlink="http://www.w3.org/1999/xlink">

<svg id="main" version="1.1" xmlns="http://www.w3.org/2000/svg" xmlns:xlink="http://www.w3.org/1999/xlink" xml:space="preserve" onload="init(evt)">
<style type="text/css"><![CDATA[
.node, .edge {opacity: 0.7;}
.node.selected, .edge.selected {opacity: 1;}
.edge:hover path { stroke: red; }
.edge:hover polygon { stroke: red; fill: red; }
svg#main { background-color: #111; }
]]></style>
<script type="application/ecmascript" xlink:href="../../svg.min.js"/>
<svg id="graph" class="graph">
<g id="graph0" class="graph" transform="scale(1 1) rotate(0) translate(4 222)">
<title>v8::UnboundScript</title>
<!-- Node1 -->
<g id="Node000001" class="node">
<title>Node1</title>
<g id="a_Node000001"><a xlink:title=" ">
<polygon fill="#999999" stroke="none" points="402,-159 252,-159 252,-11 402,-11 402,-159"/>
<text text-anchor="start" x="276" y="-145.5" font-family="Cascadia Code NF" font-size="10.00">v8::UnboundScript</text>
<text text-anchor="start" x="324" y="-129.5" font-family="Cascadia Code NF" font-size="10.00"> </text>
<text text-anchor="start" x="256" y="-113.5" font-family="Cascadia Code NF" font-size="10.00">+</text>
<text text-anchor="start" x="266" y="-113.5" font-family="Cascadia Code NF" font-size="10.00">BindToCurrentContext()</text>
<text text-anchor="start" x="256" y="-97.5" font-family="Cascadia Code NF" font-size="10.00">+</text>
<text text-anchor="start" x="266" y="-97.5" font-family="Cascadia Code NF" font-size="10.00">GetId()</text>
<text text-anchor="start" x="256" y="-81.5" font-family="Cascadia Code NF" font-size="10.00">+</text>
<text text-anchor="start" x="266" y="-81.5" font-family="Cascadia Code NF" font-size="10.00">GetScriptName()</text>
<text text-anchor="start" x="256" y="-65.5" font-family="Cascadia Code NF" font-size="10.00">+</text>
<text text-anchor="start" x="266" y="-65.5" font-family="Cascadia Code NF" font-size="10.00">GetSourceURL()</text>
<text text-anchor="start" x="256" y="-49.5" font-family="Cascadia Code NF" font-size="10.00">+</text>
<text text-anchor="start" x="266" y="-49.5" font-family="Cascadia Code NF" font-size="10.00">GetSourceMappingURL()</text>
<text text-anchor="start" x="256" y="-33.5" font-family="Cascadia Code NF" font-size="10.00">+</text>
<text text-anchor="start" x="266" y="-33.5" font-family="Cascadia Code NF" font-size="10.00">GetLineNumber()</text>
<text text-anchor="start" x="256" y="-17.5" font-family="Cascadia Code NF" font-size="10.00">+</text>
<text text-anchor="start" x="266" y="-17.5" font-family="Cascadia Code NF" font-size="10.00">GetColumnNumber()</text>
<polygon fill="#666666" stroke="#666666" points="252,-141 252,-141 402,-141 402,-141 252,-141"/>
<polygon fill="#666666" stroke="#666666" points="252,-125 252,-125 402,-125 402,-125 252,-125"/>
<polygon fill="none" stroke="#666666" points="252,-11 252,-159 402,-159 402,-11 252,-11"/>
</a>
</g>
</g>
<!-- Node2 -->
<g id="Node000002" class="node">
<title>Node2</title>
<g id="a_Node000002"><a xlink:href="../../d0/d46/classv8_1_1Data.html" target="_top" xlink:title=" ">
<polygon fill="white" stroke="none" points="138,-218 0,-218 0,-70 138,-70 138,-218"/>
<text text-anchor="start" x="45" y="-204.5" font-family="Cascadia Code NF" font-size="10.00">v8::Data</text>
<text text-anchor="start" x="66" y="-188.5" font-family="Cascadia Code NF" font-size="10.00"> </text>
<text text-anchor="start" x="4" y="-172.5" font-family="Cascadia Code NF" font-size="10.00">+</text>
<text text-anchor="start" x="14" y="-172.5" font-family="Cascadia Code NF" font-size="10.00">IsValue()</text>
<text text-anchor="start" x="4" y="-156.5" font-family="Cascadia Code NF" font-size="10.00">+</text>
<text text-anchor="start" x="14" y="-156.5" font-family="Cascadia Code NF" font-size="10.00">IsModule()</text>
<text text-anchor="start" x="4" y="-140.5" font-family="Cascadia Code NF" font-size="10.00">+</text>
<text text-anchor="start" x="14" y="-140.5" font-family="Cascadia Code NF" font-size="10.00">IsFixedArray()</text>
<text text-anchor="start" x="4" y="-124.5" font-family="Cascadia Code NF" font-size="10.00">+</text>
<text text-anchor="start" x="14" y="-124.5" font-family="Cascadia Code NF" font-size="10.00">IsPrivate()</text>
<text text-anchor="start" x="4" y="-108.5" font-family="Cascadia Code NF" font-size="10.00">+</text>
<text text-anchor="start" x="14" y="-108.5" font-family="Cascadia Code NF" font-size="10.00">IsObjectTemplate()</text>
<text text-anchor="start" x="4" y="-92.5" font-family="Cascadia Code NF" font-size="10.00">+</text>
<text text-anchor="start" x="14" y="-92.5" font-family="Cascadia Code NF" font-size="10.00">IsFunctionTemplate()</text>
<text text-anchor="start" x="4" y="-76.5" font-family="Cascadia Code NF" font-size="10.00">+</text>
<text text-anchor="start" x="14" y="-76.5" font-family="Cascadia Code NF" font-size="10.00">IsContext()</text>
<polygon fill="#666666" stroke="#666666" points="0,-200 0,-200 138,-200 138,-200 0,-200"/>
<polygon fill="#666666" stroke="#666666" points="0,-184 0,-184 138,-184 138,-184 0,-184"/>
<polygon fill="none" stroke="#666666" points="0,-70 0,-218 138,-218 138,-70 0,-70"/>
</a>
</g>
</g>
<!-- Node2&#45;&gt;Node1 -->
<g id="edge1_Node000001_Node000002" class="edge">
<title>Node2&#45;&gt;Node1</title>
<g id="a_edge1_Node000001_Node000002"><a xlink:title=" ">
<path fill="none" stroke="#63b8ff" d="M148.9,-125.82C181.87,-118.22 219.96,-109.44 252.35,-101.97"/>
<polygon fill="none" stroke="#63b8ff" points="148.36,-122.35 139.41,-128 149.94,-129.17 148.36,-122.35"/>
</a>
</g>
</g>
<!-- Node3 -->
<g id="Node000003" class="node">
<title>Node3</title>
<g id="a_Node000003"><a xlink:title=" ">
<polygon fill="white" stroke="none" points="89,-52 49,-52 49,0 89,0 89,-52"/>
<text text-anchor="start" x="54" y="-38.5" font-family="Cascadia Code NF" font-size="10.00">const</text>
<text text-anchor="start" x="66" y="-22.5" font-family="Cascadia Code NF" font-size="10.00"> </text>
<text text-anchor="start" x="66" y="-6.5" font-family="Cascadia Code NF" font-size="10.00"> </text>
<polygon fill="#bfbfbf" stroke="#bfbfbf" points="49,-34 49,-34 89,-34 89,-34 49,-34"/>
<polygon fill="#bfbfbf" stroke="#bfbfbf" points="49,-18 49,-18 89,-18 89,-18 49,-18"/>
<polygon fill="none" stroke="#bfbfbf" points="49,0 49,-52 89,-52 89,0 49,0"/>
</a>
</g>
</g>
<!-- Node3&#45;&gt;Node1 -->
<g id="edge2_Node000001_Node000003" class="edge">
<title>Node3&#45;&gt;Node1</title>
<g id="a_edge2_Node000001_Node000003"><a xlink:title=" ">
<path fill="none" stroke="#63b8ff" d="M88.82,-30.34C120.32,-37.6 185.57,-52.63 239.67,-65.1"/>
<polygon fill="none" stroke="#63b8ff" points="239.51,-65.07 246.26,-62.52 251.21,-67.76 244.46,-70.31 239.51,-65.07"/>
</a>
</g>
<text text-anchor="middle" x="195" y="-65.25" font-family="Cascadia Code NF" font-size="10.00" fill="grey"> +kNoScriptId</text>
</g>
</g>
</svg>
</svg>

<style type='text/css'>
<![CDATA[
[data-mouse-over-selected='false'] { opacity: 0.7; }
[data-mouse-over-selected='true']  { opacity: 1.0; }
]]>
</style>
<script type="application/ecmascript"><![CDATA[
document.addEventListener('DOMContentLoaded', (event) => {
  highlightEdges();
  highlightAdjacentNodes();
});
]]></script>
</svg>
