<?xml version="1.0" encoding="UTF-8" standalone="no"?>
<!DOCTYPE svg PUBLIC "-//W3C//DTD SVG 1.1//EN"
 "http://www.w3.org/Graphics/SVG/1.1/DTD/svg11.dtd">
<!-- Generated by graphviz version 11.0.0 (20240428.1522)
 -->
<!-- Title: v8::internal::maglev::ValueLocation Pages: 1 -->
<!--zoomable 265 -->

<svg id="main" version="1.1" xmlns="http://www.w3.org/2000/svg" xmlns:xlink="http://www.w3.org/1999/xlink" xml:space="preserve" onload="init(evt)">
<style type="text/css"><![CDATA[
.node, .edge {opacity: 0.7;}
.node.selected, .edge.selected {opacity: 1;}
.edge:hover path { stroke: red; }
.edge:hover polygon { stroke: red; fill: red; }
svg#main { background-color: #111; }
]]></style>

<defs>
  <circle id="rim" cx="0" cy="0" r="7"/>
  <circle id="rim2" cx="0" cy="0" r="3.5"/>
  <g id="zoomPlus">
    <use xlink:href="#rim" fill="#404040"><set attributeName="fill" to="#808080" begin="zoomplus.mouseover" end="zoomplus.mouseout"/></use>
    <path d="M-4,0h8M0,-4v8" fill="none" stroke="white" stroke-width="1.5" pointer-events="none"/>
  </g>
  <g id="zoomMin">
    <use xlink:href="#rim" fill="#404040"><set attributeName="fill" to="#808080" begin="zoomminus.mouseover" end="zoomminus.mouseout"/></use>
    <path d="M-4,0h8" fill="none" stroke="white" stroke-width="1.5" pointer-events="none"/>
  </g>
  <g id="arrowUp" transform="translate(30 24)">
    <use xlink:href="#rim"/>
    <path pointer-events="none" fill="none" stroke="white" stroke-width="1.5" d="M0,-3.0v7 M-2.5,-0.5L0,-3.0L2.5,-0.5"/>
  </g>
  <g id="arrowRight" transform="rotate(90) translate(36 -43)">
    <use xlink:href="#rim"/>
    <path pointer-events="none" fill="none" stroke="white" stroke-width="1.5" d="M0,-3.0v7 M-2.5,-0.5L0,-3.0L2.5,-0.5"/>
  </g>
  <g id="arrowDown" transform="rotate(180) translate(-30 -48)">
    <use xlink:href="#rim"/>
    <path pointer-events="none" fill="none" stroke="white" stroke-width="1.5" d="M0,-3.0v7 M-2.5,-0.5L0,-3.0L2.5,-0.5"/>
  </g>
  <g id="arrowLeft" transform="rotate(270) translate(-36 17)">
    <use xlink:href="#rim"/>
    <path pointer-events="none" fill="none" stroke="white" stroke-width="1.5" d="M0,-3.0v7 M-2.5,-0.5L0,-3.0L2.5,-0.5"/>
  </g>
  <g id="resetDef">
    <use xlink:href="#rim2" fill="#404040"><set attributeName="fill" to="#808080" begin="reset.mouseover" end="reset.mouseout"/></use>
  </g>
</defs>
<script type="application/ecmascript">
var viewWidth = 546;
var viewHeight = 265;
var sectionId = 'dynsection-0';
</script>
<script type="application/ecmascript" xlink:href="../../svg.min.js"/>
<svg id="graph" class="graph">
<g id="viewport">
<title>v8::internal::maglev::ValueLocation</title>
<!-- Node1 -->
<g id="Node000001" class="node">
<title>Node1</title>
<g id="a_Node000001"><a xlink:title=" ">
<polygon fill="#999999" stroke="none" points="168,-257 0,-257 0,0 168,0 168,-257"/>
<text text-anchor="start" x="24" y="-243.5" font-family="Cascadia Code NF" font-size="10.00">v8::internal::maglev</text>
<text text-anchor="start" x="39" y="-230.75" font-family="Cascadia Code NF" font-size="10.00">::ValueLocation</text>
<text text-anchor="start" x="81" y="-214.5" font-family="Cascadia Code NF" font-size="10.00"> </text>
<text text-anchor="start" x="4" y="-198.5" font-family="Cascadia Code NF" font-size="10.00">+</text>
<text text-anchor="start" x="14" y="-198.5" font-family="Cascadia Code NF" font-size="10.00">ValueLocation()</text>
<text text-anchor="start" x="4" y="-182.5" font-family="Cascadia Code NF" font-size="10.00">+</text>
<text text-anchor="start" x="14" y="-182.5" font-family="Cascadia Code NF" font-size="10.00">SetUnallocated()</text>
<text text-anchor="start" x="4" y="-166.5" font-family="Cascadia Code NF" font-size="10.00">+</text>
<text text-anchor="start" x="14" y="-166.5" font-family="Cascadia Code NF" font-size="10.00">SetAllocated()</text>
<text text-anchor="start" x="4" y="-150.5" font-family="Cascadia Code NF" font-size="10.00">+</text>
<text text-anchor="start" x="14" y="-150.5" font-family="Cascadia Code NF" font-size="10.00">InjectLocation()</text>
<text text-anchor="start" x="4" y="-134.5" font-family="Cascadia Code NF" font-size="10.00">+</text>
<text text-anchor="start" x="14" y="-134.5" font-family="Cascadia Code NF" font-size="10.00">Cloberred()</text>
<text text-anchor="start" x="4" y="-118.5" font-family="Cascadia Code NF" font-size="10.00">+</text>
<text text-anchor="start" x="14" y="-118.5" font-family="Cascadia Code NF" font-size="10.00">SetConstant()</text>
<text text-anchor="start" x="4" y="-102.5" font-family="Cascadia Code NF" font-size="10.00">+</text>
<text text-anchor="start" x="14" y="-102.5" font-family="Cascadia Code NF" font-size="10.00">AssignedGeneralRegister()</text>
<text text-anchor="start" x="4" y="-86.5" font-family="Cascadia Code NF" font-size="10.00">+</text>
<text text-anchor="start" x="14" y="-86.5" font-family="Cascadia Code NF" font-size="10.00">AssignedDoubleRegister()</text>
<text text-anchor="start" x="4" y="-70.5" font-family="Cascadia Code NF" font-size="10.00">+</text>
<text text-anchor="start" x="14" y="-70.5" font-family="Cascadia Code NF" font-size="10.00">IsAnyRegister()</text>
<text text-anchor="start" x="4" y="-54.5" font-family="Cascadia Code NF" font-size="10.00">+</text>
<text text-anchor="start" x="14" y="-54.5" font-family="Cascadia Code NF" font-size="10.00">IsGeneralRegister()</text>
<text text-anchor="start" x="4" y="-38.5" font-family="Cascadia Code NF" font-size="10.00">+</text>
<text text-anchor="start" x="14" y="-38.5" font-family="Cascadia Code NF" font-size="10.00">IsDoubleRegister()</text>
<text text-anchor="start" x="4" y="-22.5" font-family="Cascadia Code NF" font-size="10.00">+</text>
<text text-anchor="start" x="14" y="-22.5" font-family="Cascadia Code NF" font-size="10.00">operand()</text>
<text text-anchor="start" x="4" y="-6.5" font-family="Cascadia Code NF" font-size="10.00">+</text>
<text text-anchor="start" x="14" y="-6.5" font-family="Cascadia Code NF" font-size="10.00">operand()</text>
<polygon fill="#666666" stroke="#666666" points="0,-226 0,-226 168,-226 168,-226 0,-226"/>
<polygon fill="#666666" stroke="#666666" points="0,-210 0,-210 168,-210 168,-210 0,-210"/>
<polygon fill="none" stroke="#666666" points="0,0 0,-257 168,-257 168,0 0,0"/>
</a>
</g>
</g>
<!-- Node2 -->
<g id="Node000002" class="node">
<title>Node2</title>
<g id="a_Node000002"><a xlink:href="../../dd/d39/classv8_1_1internal_1_1maglev_1_1InputLocation.html" target="_top" xlink:title=" ">
<polygon fill="white" stroke="none" points="372,-169 204,-169 204,-88 372,-88 372,-169"/>
<text text-anchor="start" x="228" y="-155.5" font-family="Cascadia Code NF" font-size="10.00">v8::internal::maglev</text>
<text text-anchor="start" x="243" y="-142.75" font-family="Cascadia Code NF" font-size="10.00">::InputLocation</text>
<text text-anchor="start" x="285" y="-126.5" font-family="Cascadia Code NF" font-size="10.00"> </text>
<text text-anchor="start" x="208" y="-110.5" font-family="Cascadia Code NF" font-size="10.00">+</text>
<text text-anchor="start" x="218" y="-110.5" font-family="Cascadia Code NF" font-size="10.00">next_use_id()</text>
<text text-anchor="start" x="208" y="-94.5" font-family="Cascadia Code NF" font-size="10.00">+</text>
<text text-anchor="start" x="218" y="-94.5" font-family="Cascadia Code NF" font-size="10.00">get_next_use_id_address()</text>
<polygon fill="#bfbfbf" stroke="#bfbfbf" points="204,-138 204,-138 372,-138 372,-138 204,-138"/>
<polygon fill="#bfbfbf" stroke="#bfbfbf" points="204,-122 204,-122 372,-122 372,-122 204,-122"/>
<polygon fill="none" stroke="#bfbfbf" points="204,-88 204,-169 372,-169 372,-88 204,-88"/>
</a>
</g>
</g>
<!-- Node1&#45;&gt;Node2 -->
<g id="edge1_Node000001_Node000002" class="edge">
<title>Node1&#45;&gt;Node2</title>
<g id="a_edge1_Node000001_Node000002"><a xlink:title=" ">
<path fill="none" stroke="#63b8ff" d="M179.06,-128.5C187.41,-128.5 195.82,-128.5 204.06,-128.5"/>
<polygon fill="none" stroke="#63b8ff" points="179.26,-125 169.26,-128.5 179.26,-132 179.26,-125"/>
</a>
</g>
</g>
<!-- Node3 -->
<g id="Node000003" class="node">
<title>Node3</title>
<g id="a_Node000003"><a xlink:href="../../d6/dce/classv8_1_1internal_1_1maglev_1_1Input.html" target="_top" xlink:title=" ">
<polygon fill="white" stroke="none" points="538,-169 408,-169 408,-88 538,-88 538,-169"/>
<text text-anchor="start" x="413" y="-155.5" font-family="Cascadia Code NF" font-size="10.00">v8::internal::maglev</text>
<text text-anchor="start" x="452" y="-142.75" font-family="Cascadia Code NF" font-size="10.00">::Input</text>
<text text-anchor="start" x="470" y="-126.5" font-family="Cascadia Code NF" font-size="10.00"> </text>
<text text-anchor="start" x="429.5" y="-110.5" font-family="Cascadia Code NF" font-size="10.00">+</text>
<text text-anchor="start" x="457" y="-110.5" font-family="Cascadia Code NF" font-size="10.00">Input()</text>
<text text-anchor="start" x="429.5" y="-94.5" font-family="Cascadia Code NF" font-size="10.00">+</text>
<text text-anchor="start" x="457" y="-94.5" font-family="Cascadia Code NF" font-size="10.00">node()</text>
<polygon fill="#bfbfbf" stroke="#bfbfbf" points="408,-138 408,-138 538,-138 538,-138 408,-138"/>
<polygon fill="#bfbfbf" stroke="#bfbfbf" points="408,-122 408,-122 538,-122 538,-122 408,-122"/>
<polygon fill="none" stroke="#bfbfbf" points="408,-88 408,-169 538,-169 538,-88 408,-88"/>
</a>
</g>
</g>
<!-- Node2&#45;&gt;Node3 -->
<g id="edge2_Node000002_Node000003" class="edge">
<title>Node2&#45;&gt;Node3</title>
<g id="a_edge2_Node000002_Node000003"><a xlink:title=" ">
<path fill="none" stroke="#63b8ff" d="M383.4,-128.5C391.82,-128.5 400.2,-128.5 408.27,-128.5"/>
<polygon fill="none" stroke="#63b8ff" points="383.45,-125 373.45,-128.5 383.45,-132 383.45,-125"/>
</a>
</g>
</g>
</g>
</svg>

<g id="navigator" transform="translate(0 0)" fill="#404254">
  <rect fill="#f2f5e9" fill-opacity="0.5" stroke="#606060" stroke-width=".5" x="0" y="0" width="60" height="60"/>
  <use id="zoomplus" xlink:href="#zoomPlus" x="17" y="9" onmousedown="handleZoom(evt,'in')"/>
  <use id="zoomminus" xlink:href="#zoomMin" x="42" y="9" onmousedown="handleZoom(evt,'out')"/>
  <use id="reset" xlink:href="#resetDef" x="30" y="36" onmousedown="handleReset()"/>
   <use id="arrowup" xlink:href="#arrowUp" x="0" y="0" onmousedown="handlePan(0,-1)"/>
  <use id="arrowright" xlink:href="#arrowRight" x="0" y="0" onmousedown="handlePan(1,0)"/>
  <use id="arrowdown" xlink:href="#arrowDown" x="0" y="0" onmousedown="handlePan(0,1)"/>
  <use id="arrowleft" xlink:href="#arrowLeft" x="0" y="0" onmousedown="handlePan(-1,0)"/>
</g>
<svg viewBox="0 0 15 15" width="100%" height="30px" preserveAspectRatio="xMaxYMin meet">
 <g id="arrow_out" transform="scale(0.3 0.3)">
  <a xlink:href="classv8_1_1internal_1_1maglev_1_1ValueLocation__inherit__graph_org.svg" target="_base">
   <rect id="button" ry="5" rx="5" y="6" x="6" height="38" width="38"
        fill="#f2f5e9" fill-opacity="0.5" stroke="#606060" stroke-width="1.0"/>
   <path id="arrow"
     d="M 11.500037,31.436501 C 11.940474,20.09759 22.043105,11.32322 32.158766,21.979434 L 37.068811,17.246167 C 37.068811,17.246167 37.088388,32 37.088388,32 L 22.160133,31.978069 C 22.160133,31.978069 26.997745,27.140456 26.997745,27.140456 C 18.528582,18.264221 13.291696,25.230495 11.500037,31.436501 z"
     style="fill:#404040;"/>
  </a>
 </g>
</svg>

<style type='text/css'>
<![CDATA[
[data-mouse-over-selected='false'] { opacity: 0.7; }
[data-mouse-over-selected='true']  { opacity: 1.0; }
]]>
</style>
<script type="application/ecmascript"><![CDATA[
document.addEventListener('DOMContentLoaded', (event) => {
  highlightEdges();
  highlightAdjacentNodes();
});
]]></script>
</svg>
