<?xml version="1.0" encoding="UTF-8" standalone="no"?>
<!DOCTYPE svg PUBLIC "-//W3C//DTD SVG 1.1//EN"
 "http://www.w3.org/Graphics/SVG/1.1/DTD/svg11.dtd">
<!-- Generated by graphviz version 11.0.0 (20240428.1522)
 -->
<!-- Title: v8::internal::EmbeddedData::LayoutDescription Pages: 1 -->
<svg width="388pt" height="79pt"
 viewBox="0.00 0.00 388.00 78.75" xmlns="http://www.w3.org/2000/svg" xmlns:xlink="http://www.w3.org/1999/xlink">
<g id="graph0" class="graph" transform="scale(1 1) rotate(0) translate(4 74.75)">
<title>v8::internal::EmbeddedData::LayoutDescription</title>
<!-- Node1 -->
<g id="Node000001" class="node">
<title>Node1</title>
<g id="a_Node000001"><a xlink:title=" ">
<polygon fill="#999999" stroke="none" points="380,-65 214,-65 214,0 380,0 380,-65"/>
<text text-anchor="start" x="219" y="-51.5" font-family="Cascadia Code NF" font-size="10.00">v8::internal::EmbeddedData</text>
<text text-anchor="start" x="240" y="-38.75" font-family="Cascadia Code NF" font-size="10.00">::LayoutDescription</text>
<text text-anchor="start" x="294" y="-22.5" font-family="Cascadia Code NF" font-size="10.00"> </text>
<text text-anchor="start" x="294" y="-6.5" font-family="Cascadia Code NF" font-size="10.00"> </text>
<polygon fill="#666666" stroke="#666666" points="214,-34 214,-34 380,-34 380,-34 214,-34"/>
<polygon fill="#666666" stroke="#666666" points="214,-18 214,-18 380,-18 380,-18 214,-18"/>
<polygon fill="none" stroke="#666666" points="214,0 214,-65 380,-65 380,0 214,0"/>
</a>
</g>
</g>
<!-- Node2 -->
<g id="Node000002" class="node">
<title>Node2</title>
<g id="a_Node000002"><a xlink:href="../../d3/d87/classuint32__t.html" target="_top" xlink:title=" ">
<polygon fill="white" stroke="none" points="58,-58.5 0,-58.5 0,-6.5 58,-6.5 58,-58.5"/>
<text text-anchor="start" x="5" y="-45" font-family="Cascadia Code NF" font-size="10.00">uint32_t</text>
<text text-anchor="start" x="26" y="-29" font-family="Cascadia Code NF" font-size="10.00"> </text>
<text text-anchor="start" x="26" y="-13" font-family="Cascadia Code NF" font-size="10.00"> </text>
<polygon fill="#bfbfbf" stroke="#bfbfbf" points="0,-40.5 0,-40.5 58,-40.5 58,-40.5 0,-40.5"/>
<polygon fill="#bfbfbf" stroke="#bfbfbf" points="0,-24.5 0,-24.5 58,-24.5 58,-24.5 0,-24.5"/>
<polygon fill="none" stroke="#bfbfbf" points="0,-6.5 0,-58.5 58,-58.5 58,-6.5 0,-6.5"/>
</a>
</g>
</g>
<!-- Node2&#45;&gt;Node1 -->
<g id="edge1_Node000001_Node000002" class="edge">
<title>Node2&#45;&gt;Node1</title>
<g id="a_edge1_Node000001_Node000002"><a xlink:title=" ">
<path fill="none" stroke="#63b8ff" d="M57.96,-32.5C91.77,-32.5 150.43,-32.5 201.06,-32.5"/>
<polygon fill="none" stroke="#63b8ff" points="201.18,-32.5 207.18,-28.5 213.18,-32.5 207.18,-36.5 201.18,-32.5"/>
</a>
</g>
<text text-anchor="middle" x="136" y="-61.25" font-family="Cascadia Code NF" font-size="10.00" fill="grey"> +instruction_length</text>
<text text-anchor="middle" x="136" y="-48.5" font-family="Cascadia Code NF" font-size="10.00" fill="grey">+instruction_offset</text>
<text text-anchor="middle" x="136" y="-35.75" font-family="Cascadia Code NF" font-size="10.00" fill="grey">+metadata_offset</text>
</g>
</g>
</svg>
