<?xml version="1.0" encoding="UTF-8" standalone="no"?>
<!DOCTYPE svg PUBLIC "-//W3C//DTD SVG 1.1//EN"
 "http://www.w3.org/Graphics/SVG/1.1/DTD/svg11.dtd">
<!-- Generated by graphviz version 11.0.0 (20240428.1522)
 -->
<!-- Title: NON_EXPORTED_BASEpublic SpaceWithLinearArea Pages: 1 -->
<svg width="1014pt" height="945pt"
 viewBox="0.00 0.00 1014.00 945.00" xmlns="http://www.w3.org/2000/svg" xmlns:xlink="http://www.w3.org/1999/xlink">
<g id="graph0" class="graph" transform="scale(1 1) rotate(0) translate(4 941)">
<title>NON_EXPORTED_BASEpublic SpaceWithLinearArea</title>
<!-- Node1 -->
<g id="Node000001" class="node">
<title>Node1</title>
<g id="a_Node000001"><a xlink:title=" ">
<polygon fill="#999999" stroke="none" points="148,-474.5 0,-474.5 0,-409.5 148,-409.5 148,-474.5"/>
<text text-anchor="start" x="5" y="-461" font-family="Cascadia Code NF" font-size="10.00">NON_EXPORTED_BASEpublic</text>
<text text-anchor="start" x="14" y="-448.25" font-family="Cascadia Code NF" font-size="10.00"> SpaceWithLinearArea</text>
<text text-anchor="start" x="71" y="-432" font-family="Cascadia Code NF" font-size="10.00"> </text>
<text text-anchor="start" x="71" y="-416" font-family="Cascadia Code NF" font-size="10.00"> </text>
<polygon fill="#666666" stroke="#666666" points="0,-443.5 0,-443.5 148,-443.5 148,-443.5 0,-443.5"/>
<polygon fill="#666666" stroke="#666666" points="0,-427.5 0,-427.5 148,-427.5 148,-427.5 0,-427.5"/>
<polygon fill="none" stroke="#666666" points="0,-409.5 0,-474.5 148,-474.5 148,-409.5 0,-409.5"/>
</a>
</g>
</g>
<!-- Node2 -->
<g id="Node000002" class="node">
<title>Node2</title>
<g id="a_Node000002"><a xlink:href="../../d3/d24/classv8_1_1internal_1_1NewSpace.html" target="_top" xlink:title=" ">
<polygon fill="white" stroke="none" points="364,-776 184,-776 184,-506 364,-506 364,-776"/>
<text text-anchor="start" x="208" y="-762.5" font-family="Cascadia Code NF" font-size="10.00">v8::internal::NewSpace</text>
<text text-anchor="start" x="188" y="-746.5" font-family="Cascadia Code NF" font-size="10.00">#</text>
<text text-anchor="start" x="198" y="-746.5" font-family="Cascadia Code NF" font-size="10.00">mutex_</text>
<text text-anchor="start" x="188" y="-730.5" font-family="Cascadia Code NF" font-size="10.00">#</text>
<text text-anchor="start" x="198" y="-730.5" font-family="Cascadia Code NF" font-size="10.00">kAllocationBufferParking</text>
<text text-anchor="start" x="198" y="-717.75" font-family="Cascadia Code NF" font-size="10.00">Threshold</text>
<text text-anchor="start" x="188" y="-701.5" font-family="Cascadia Code NF" font-size="10.00">+</text>
<text text-anchor="start" x="198" y="-701.5" font-family="Cascadia Code NF" font-size="10.00">NewSpace()</text>
<text text-anchor="start" x="188" y="-685.5" font-family="Cascadia Code NF" font-size="10.00">+</text>
<text text-anchor="start" x="198" y="-685.5" font-family="Cascadia Code NF" font-size="10.00">mutex()</text>
<text text-anchor="start" x="188" y="-669.5" font-family="Cascadia Code NF" font-size="10.00">+</text>
<text text-anchor="start" x="198" y="-669.5" font-family="Cascadia Code NF" font-size="10.00">Contains()</text>
<text text-anchor="start" x="188" y="-653.5" font-family="Cascadia Code NF" font-size="10.00">+</text>
<text text-anchor="start" x="198" y="-653.5" font-family="Cascadia Code NF" font-size="10.00">Contains()</text>
<text text-anchor="start" x="188" y="-637.5" font-family="Cascadia Code NF" font-size="10.00">+</text>
<text text-anchor="start" x="198" y="-637.5" font-family="Cascadia Code NF" font-size="10.00">ContainsSlow()</text>
<text text-anchor="start" x="188" y="-621.5" font-family="Cascadia Code NF" font-size="10.00">+</text>
<text text-anchor="start" x="198" y="-621.5" font-family="Cascadia Code NF" font-size="10.00">ExternalBackingStoreOverall</text>
<text text-anchor="start" x="198" y="-608.75" font-family="Cascadia Code NF" font-size="10.00">Bytes()</text>
<text text-anchor="start" x="188" y="-592.5" font-family="Cascadia Code NF" font-size="10.00">+</text>
<text text-anchor="start" x="198" y="-592.5" font-family="Cascadia Code NF" font-size="10.00">PromotePageToOldSpace()</text>
<text text-anchor="start" x="188" y="-576.5" font-family="Cascadia Code NF" font-size="10.00">+</text>
<text text-anchor="start" x="198" y="-576.5" font-family="Cascadia Code NF" font-size="10.00">Capacity()</text>
<text text-anchor="start" x="188" y="-560.5" font-family="Cascadia Code NF" font-size="10.00">+</text>
<text text-anchor="start" x="198" y="-560.5" font-family="Cascadia Code NF" font-size="10.00">TotalCapacity()</text>
<text text-anchor="start" x="188" y="-544.5" font-family="Cascadia Code NF" font-size="10.00">+</text>
<text text-anchor="start" x="198" y="-544.5" font-family="Cascadia Code NF" font-size="10.00">MaximumCapacity()</text>
<text text-anchor="start" x="198" y="-528.5" font-family="Cascadia Code NF" font-size="10.00">and 12 more...</text>
<text text-anchor="start" x="188" y="-512.5" font-family="Cascadia Code NF" font-size="10.00">#</text>
<text text-anchor="start" x="198" y="-512.5" font-family="Cascadia Code NF" font-size="10.00">RemovePage()</text>
<polygon fill="#bfbfbf" stroke="#bfbfbf" points="184,-758 184,-758 364,-758 364,-758 184,-758"/>
<polygon fill="#bfbfbf" stroke="#bfbfbf" points="184,-713 184,-713 196,-713 196,-713 184,-713"/>
<polygon fill="#bfbfbf" stroke="#bfbfbf" points="196,-713 196,-713 364,-713 364,-713 196,-713"/>
<polygon fill="none" stroke="#bfbfbf" points="184,-506 184,-776 364,-776 364,-506 184,-506"/>
</a>
</g>
</g>
<!-- Node1&#45;&gt;Node2 -->
<g id="edge1_Node000001_Node000002" class="edge">
<title>Node1&#45;&gt;Node2</title>
<g id="a_edge1_Node000001_Node000002"><a xlink:title=" ">
<path fill="none" stroke="#8b1a1a" d="M115.21,-482.42C135.2,-502.5 160.19,-527.62 184.35,-551.9"/>
<polygon fill="none" stroke="#8b1a1a" points="117.85,-480.11 108.32,-475.49 112.89,-485.05 117.85,-480.11"/>
</a>
</g>
</g>
<!-- Node5 -->
<g id="Node000005" class="node">
<title>Node5</title>
<g id="a_Node000005"><a xlink:href="../../d1/d36/classv8_1_1internal_1_1PagedSpaceBase.html" target="_top" xlink:title=" ">
<polygon fill="white" stroke="none" points="363,-488 185,-488 185,0 363,0 363,-488"/>
<text text-anchor="start" x="190" y="-474.5" font-family="Cascadia Code NF" font-size="10.00">v8::internal::PagedSpaceBase</text>
<text text-anchor="start" x="190" y="-458.5" font-family="Cascadia Code NF" font-size="10.00">+</text>
<text text-anchor="start" x="201" y="-458.5" font-family="Cascadia Code NF" font-size="10.00">kCompactionMemoryWanted</text>
<text text-anchor="start" x="190" y="-442.5" font-family="Cascadia Code NF" font-size="10.00">#</text>
<text text-anchor="start" x="201" y="-442.5" font-family="Cascadia Code NF" font-size="10.00">executable_</text>
<text text-anchor="start" x="190" y="-426.5" font-family="Cascadia Code NF" font-size="10.00">#</text>
<text text-anchor="start" x="201" y="-426.5" font-family="Cascadia Code NF" font-size="10.00">compaction_space_kind_</text>
<text text-anchor="start" x="190" y="-410.5" font-family="Cascadia Code NF" font-size="10.00">#</text>
<text text-anchor="start" x="201" y="-410.5" font-family="Cascadia Code NF" font-size="10.00">area_size_</text>
<text text-anchor="start" x="190" y="-394.5" font-family="Cascadia Code NF" font-size="10.00">#</text>
<text text-anchor="start" x="201" y="-394.5" font-family="Cascadia Code NF" font-size="10.00">accounting_stats_</text>
<text text-anchor="start" x="190" y="-378.5" font-family="Cascadia Code NF" font-size="10.00">#</text>
<text text-anchor="start" x="201" y="-378.5" font-family="Cascadia Code NF" font-size="10.00">space_mutex_</text>
<text text-anchor="start" x="190" y="-362.5" font-family="Cascadia Code NF" font-size="10.00">#</text>
<text text-anchor="start" x="201" y="-362.5" font-family="Cascadia Code NF" font-size="10.00">committed_physical</text>
<text text-anchor="start" x="201" y="-349.75" font-family="Cascadia Code NF" font-size="10.00">_memory_</text>
<text text-anchor="start" x="190" y="-333.5" font-family="Cascadia Code NF" font-size="10.00">#</text>
<text text-anchor="start" x="201" y="-333.5" font-family="Cascadia Code NF" font-size="10.00">size_at_last_gc_</text>
<text text-anchor="start" x="190" y="-317.5" font-family="Cascadia Code NF" font-size="10.00">+</text>
<text text-anchor="start" x="201" y="-317.5" font-family="Cascadia Code NF" font-size="10.00">PagedSpaceBase()</text>
<text text-anchor="start" x="190" y="-301.5" font-family="Cascadia Code NF" font-size="10.00">+</text>
<text text-anchor="start" x="201" y="-301.5" font-family="Cascadia Code NF" font-size="10.00">~PagedSpaceBase()</text>
<text text-anchor="start" x="190" y="-285.5" font-family="Cascadia Code NF" font-size="10.00">+</text>
<text text-anchor="start" x="201" y="-285.5" font-family="Cascadia Code NF" font-size="10.00">Contains()</text>
<text text-anchor="start" x="190" y="-269.5" font-family="Cascadia Code NF" font-size="10.00">+</text>
<text text-anchor="start" x="201" y="-269.5" font-family="Cascadia Code NF" font-size="10.00">Contains()</text>
<text text-anchor="start" x="190" y="-253.5" font-family="Cascadia Code NF" font-size="10.00">+</text>
<text text-anchor="start" x="201" y="-253.5" font-family="Cascadia Code NF" font-size="10.00">ContainsSlow()</text>
<text text-anchor="start" x="190" y="-237.5" font-family="Cascadia Code NF" font-size="10.00">+</text>
<text text-anchor="start" x="201" y="-237.5" font-family="Cascadia Code NF" font-size="10.00">executable()</text>
<text text-anchor="start" x="190" y="-221.5" font-family="Cascadia Code NF" font-size="10.00">+</text>
<text text-anchor="start" x="201" y="-221.5" font-family="Cascadia Code NF" font-size="10.00">Capacity()</text>
<text text-anchor="start" x="190" y="-205.5" font-family="Cascadia Code NF" font-size="10.00">+</text>
<text text-anchor="start" x="201" y="-205.5" font-family="Cascadia Code NF" font-size="10.00">CommittedPhysicalMemory()</text>
<text text-anchor="start" x="190" y="-189.5" font-family="Cascadia Code NF" font-size="10.00">+</text>
<text text-anchor="start" x="201" y="-189.5" font-family="Cascadia Code NF" font-size="10.00">IncrementCommittedPhysical</text>
<text text-anchor="start" x="201" y="-176.75" font-family="Cascadia Code NF" font-size="10.00">Memory()</text>
<text text-anchor="start" x="190" y="-160.5" font-family="Cascadia Code NF" font-size="10.00">+</text>
<text text-anchor="start" x="201" y="-160.5" font-family="Cascadia Code NF" font-size="10.00">DecrementCommittedPhysical</text>
<text text-anchor="start" x="201" y="-147.75" font-family="Cascadia Code NF" font-size="10.00">Memory()</text>
<text text-anchor="start" x="201" y="-131.5" font-family="Cascadia Code NF" font-size="10.00">and 44 more...</text>
<text text-anchor="start" x="190" y="-115.5" font-family="Cascadia Code NF" font-size="10.00">#</text>
<text text-anchor="start" x="201" y="-115.5" font-family="Cascadia Code NF" font-size="10.00">snapshotable()</text>
<text text-anchor="start" x="190" y="-99.5" font-family="Cascadia Code NF" font-size="10.00">#</text>
<text text-anchor="start" x="201" y="-99.5" font-family="Cascadia Code NF" font-size="10.00">HasPages()</text>
<text text-anchor="start" x="190" y="-83.5" font-family="Cascadia Code NF" font-size="10.00">#</text>
<text text-anchor="start" x="201" y="-83.5" font-family="Cascadia Code NF" font-size="10.00">TearDown()</text>
<text text-anchor="start" x="190" y="-67.5" font-family="Cascadia Code NF" font-size="10.00">#</text>
<text text-anchor="start" x="201" y="-67.5" font-family="Cascadia Code NF" font-size="10.00">NotifyNewPage()</text>
<text text-anchor="start" x="190" y="-51.5" font-family="Cascadia Code NF" font-size="10.00">#</text>
<text text-anchor="start" x="201" y="-51.5" font-family="Cascadia Code NF" font-size="10.00">committed_physical</text>
<text text-anchor="start" x="201" y="-38.75" font-family="Cascadia Code NF" font-size="10.00">_memory()</text>
<text text-anchor="start" x="190" y="-22.5" font-family="Cascadia Code NF" font-size="10.00">#</text>
<text text-anchor="start" x="201" y="-22.5" font-family="Cascadia Code NF" font-size="10.00">ReleasePageImpl()</text>
<text text-anchor="start" x="190" y="-6.5" font-family="Cascadia Code NF" font-size="10.00">#</text>
<text text-anchor="start" x="201" y="-6.5" font-family="Cascadia Code NF" font-size="10.00">AddPageImpl()</text>
<polygon fill="#bfbfbf" stroke="#bfbfbf" points="185,-470 185,-470 363,-470 363,-470 185,-470"/>
<polygon fill="#bfbfbf" stroke="#bfbfbf" points="185,-329 185,-329 199,-329 199,-329 185,-329"/>
<polygon fill="#bfbfbf" stroke="#bfbfbf" points="199,-329 199,-329 363,-329 363,-329 199,-329"/>
<polygon fill="none" stroke="#bfbfbf" points="185,0 185,-488 363,-488 363,0 185,0"/>
</a>
</g>
</g>
<!-- Node1&#45;&gt;Node5 -->
<g id="edge4_Node000001_Node000005" class="edge">
<title>Node1&#45;&gt;Node5</title>
<g id="a_edge4_Node000001_Node000005"><a xlink:title=" ">
<path fill="none" stroke="#8b1a1a" d="M115.3,-401.7C135.5,-381.5 160.82,-356.18 185.21,-331.79"/>
<polygon fill="none" stroke="#8b1a1a" points="112.92,-399.13 108.32,-408.68 117.87,-404.08 112.92,-399.13"/>
</a>
</g>
</g>
<!-- Node3 -->
<g id="Node000003" class="node">
<title>Node3</title>
<g id="a_Node000003"><a xlink:href="../../d4/d89/classv8_1_1internal_1_1PagedNewSpace.html" target="_top" xlink:title=" ">
<polygon fill="white" stroke="none" points="576,-937 404,-937 404,-709 576,-709 576,-937"/>
<text text-anchor="start" x="409" y="-923.5" font-family="Cascadia Code NF" font-size="10.00">v8::internal::PagedNewSpace</text>
<text text-anchor="start" x="487" y="-907.5" font-family="Cascadia Code NF" font-size="10.00"> </text>
<text text-anchor="start" x="421" y="-891.5" font-family="Cascadia Code NF" font-size="10.00">+</text>
<text text-anchor="start" x="444" y="-891.5" font-family="Cascadia Code NF" font-size="10.00">PagedNewSpace()</text>
<text text-anchor="start" x="421" y="-875.5" font-family="Cascadia Code NF" font-size="10.00">+</text>
<text text-anchor="start" x="444" y="-875.5" font-family="Cascadia Code NF" font-size="10.00">~PagedNewSpace()</text>
<text text-anchor="start" x="421" y="-859.5" font-family="Cascadia Code NF" font-size="10.00">+</text>
<text text-anchor="start" x="444" y="-859.5" font-family="Cascadia Code NF" font-size="10.00">ContainsSlow()</text>
<text text-anchor="start" x="421" y="-843.5" font-family="Cascadia Code NF" font-size="10.00">+</text>
<text text-anchor="start" x="444" y="-843.5" font-family="Cascadia Code NF" font-size="10.00">Grow()</text>
<text text-anchor="start" x="421" y="-827.5" font-family="Cascadia Code NF" font-size="10.00">+</text>
<text text-anchor="start" x="444" y="-827.5" font-family="Cascadia Code NF" font-size="10.00">StartShrinking()</text>
<text text-anchor="start" x="421" y="-811.5" font-family="Cascadia Code NF" font-size="10.00">+</text>
<text text-anchor="start" x="444" y="-811.5" font-family="Cascadia Code NF" font-size="10.00">FinishShrinking()</text>
<text text-anchor="start" x="421" y="-795.5" font-family="Cascadia Code NF" font-size="10.00">+</text>
<text text-anchor="start" x="444" y="-795.5" font-family="Cascadia Code NF" font-size="10.00">Size()</text>
<text text-anchor="start" x="421" y="-779.5" font-family="Cascadia Code NF" font-size="10.00">+</text>
<text text-anchor="start" x="444" y="-779.5" font-family="Cascadia Code NF" font-size="10.00">SizeOfObjects()</text>
<text text-anchor="start" x="421" y="-763.5" font-family="Cascadia Code NF" font-size="10.00">+</text>
<text text-anchor="start" x="444" y="-763.5" font-family="Cascadia Code NF" font-size="10.00">Capacity()</text>
<text text-anchor="start" x="421" y="-747.5" font-family="Cascadia Code NF" font-size="10.00">+</text>
<text text-anchor="start" x="444" y="-747.5" font-family="Cascadia Code NF" font-size="10.00">TotalCapacity()</text>
<text text-anchor="start" x="444" y="-731.5" font-family="Cascadia Code NF" font-size="10.00">and 27 more...</text>
<text text-anchor="start" x="421" y="-715.5" font-family="Cascadia Code NF" font-size="10.00">+</text>
<text text-anchor="start" x="444" y="-715.5" font-family="Cascadia Code NF" font-size="10.00">From()</text>
<polygon fill="#bfbfbf" stroke="#bfbfbf" points="404,-919 404,-919 576,-919 576,-919 404,-919"/>
<polygon fill="#bfbfbf" stroke="#bfbfbf" points="404,-903 404,-903 576,-903 576,-903 404,-903"/>
<polygon fill="none" stroke="#bfbfbf" points="404,-709 404,-937 576,-937 576,-709 404,-709"/>
</a>
</g>
</g>
<!-- Node2&#45;&gt;Node3 -->
<g id="edge2_Node000002_Node000003" class="edge">
<title>Node2&#45;&gt;Node3</title>
<g id="a_edge2_Node000002_Node000003"><a xlink:title=" ">
<path fill="none" stroke="#63b8ff" d="M372.37,-723.81C382.98,-732.83 393.72,-741.96 404.16,-750.84"/>
<polygon fill="none" stroke="#63b8ff" points="374.93,-721.4 365.05,-717.58 370.4,-726.73 374.93,-721.4"/>
</a>
</g>
</g>
<!-- Node4 -->
<g id="Node000004" class="node">
<title>Node4</title>
<g id="a_Node000004"><a xlink:href="../../df/d6a/classv8_1_1internal_1_1SemiSpaceNewSpace.html" target="_top" xlink:title=" ">
<polygon fill="white" stroke="none" points="573,-690.5 407,-690.5 407,-449.5 573,-449.5 573,-690.5"/>
<text text-anchor="start" x="412" y="-677" font-family="Cascadia Code NF" font-size="10.00">v8::internal::SemiSpaceNew</text>
<text text-anchor="start" x="475" y="-664.25" font-family="Cascadia Code NF" font-size="10.00">Space</text>
<text text-anchor="start" x="487" y="-648" font-family="Cascadia Code NF" font-size="10.00"> </text>
<text text-anchor="start" x="418" y="-632" font-family="Cascadia Code NF" font-size="10.00">+</text>
<text text-anchor="start" x="435" y="-632" font-family="Cascadia Code NF" font-size="10.00">SemiSpaceNewSpace()</text>
<text text-anchor="start" x="418" y="-616" font-family="Cascadia Code NF" font-size="10.00">+</text>
<text text-anchor="start" x="435" y="-616" font-family="Cascadia Code NF" font-size="10.00">~SemiSpaceNewSpace()</text>
<text text-anchor="start" x="418" y="-600" font-family="Cascadia Code NF" font-size="10.00">+</text>
<text text-anchor="start" x="435" y="-600" font-family="Cascadia Code NF" font-size="10.00">ContainsSlow()</text>
<text text-anchor="start" x="418" y="-584" font-family="Cascadia Code NF" font-size="10.00">+</text>
<text text-anchor="start" x="435" y="-584" font-family="Cascadia Code NF" font-size="10.00">Grow()</text>
<text text-anchor="start" x="418" y="-568" font-family="Cascadia Code NF" font-size="10.00">+</text>
<text text-anchor="start" x="435" y="-568" font-family="Cascadia Code NF" font-size="10.00">Shrink()</text>
<text text-anchor="start" x="418" y="-552" font-family="Cascadia Code NF" font-size="10.00">+</text>
<text text-anchor="start" x="435" y="-552" font-family="Cascadia Code NF" font-size="10.00">Size()</text>
<text text-anchor="start" x="418" y="-536" font-family="Cascadia Code NF" font-size="10.00">+</text>
<text text-anchor="start" x="435" y="-536" font-family="Cascadia Code NF" font-size="10.00">SizeOfObjects()</text>
<text text-anchor="start" x="418" y="-520" font-family="Cascadia Code NF" font-size="10.00">+</text>
<text text-anchor="start" x="435" y="-520" font-family="Cascadia Code NF" font-size="10.00">Capacity()</text>
<text text-anchor="start" x="418" y="-504" font-family="Cascadia Code NF" font-size="10.00">+</text>
<text text-anchor="start" x="435" y="-504" font-family="Cascadia Code NF" font-size="10.00">TotalCapacity()</text>
<text text-anchor="start" x="418" y="-488" font-family="Cascadia Code NF" font-size="10.00">+</text>
<text text-anchor="start" x="435" y="-488" font-family="Cascadia Code NF" font-size="10.00">CommittedMemory()</text>
<text text-anchor="start" x="435" y="-472" font-family="Cascadia Code NF" font-size="10.00">and 39 more...</text>
<text text-anchor="start" x="418" y="-456" font-family="Cascadia Code NF" font-size="10.00">+</text>
<text text-anchor="start" x="435" y="-456" font-family="Cascadia Code NF" font-size="10.00">From()</text>
<polygon fill="#bfbfbf" stroke="#bfbfbf" points="407,-659.5 407,-659.5 573,-659.5 573,-659.5 407,-659.5"/>
<polygon fill="#bfbfbf" stroke="#bfbfbf" points="407,-643.5 407,-643.5 573,-643.5 573,-643.5 407,-643.5"/>
<polygon fill="none" stroke="#bfbfbf" points="407,-449.5 407,-690.5 573,-690.5 573,-449.5 407,-449.5"/>
</a>
</g>
</g>
<!-- Node2&#45;&gt;Node4 -->
<g id="edge3_Node000002_Node000004" class="edge">
<title>Node2&#45;&gt;Node4</title>
<g id="a_edge3_Node000002_Node000004"><a xlink:title=" ">
<path fill="none" stroke="#63b8ff" d="M374.73,-607.91C385.61,-604.3 396.6,-600.66 407.23,-597.13"/>
<polygon fill="none" stroke="#63b8ff" points="373.72,-604.56 365.33,-611.03 375.93,-611.2 373.72,-604.56"/>
</a>
</g>
</g>
<!-- Node6 -->
<g id="Node000006" class="node">
<title>Node6</title>
<g id="a_Node000006"><a xlink:href="../../d7/d74/classv8_1_1internal_1_1PagedSpace.html" target="_top" xlink:title=" ">
<polygon fill="white" stroke="none" points="568,-361 412,-361 412,-293 568,-293 568,-361"/>
<text text-anchor="start" x="418" y="-347.5" font-family="Cascadia Code NF" font-size="10.00">v8::internal::PagedSpace</text>
<text text-anchor="start" x="487" y="-331.5" font-family="Cascadia Code NF" font-size="10.00"> </text>
<text text-anchor="start" x="416" y="-315.5" font-family="Cascadia Code NF" font-size="10.00">+</text>
<text text-anchor="start" x="426" y="-315.5" font-family="Cascadia Code NF" font-size="10.00">PagedSpace()</text>
<text text-anchor="start" x="416" y="-299.5" font-family="Cascadia Code NF" font-size="10.00">+</text>
<text text-anchor="start" x="426" y="-299.5" font-family="Cascadia Code NF" font-size="10.00">CreateAllocatorPolicy()</text>
<polygon fill="#bfbfbf" stroke="#bfbfbf" points="412,-343 412,-343 568,-343 568,-343 412,-343"/>
<polygon fill="#bfbfbf" stroke="#bfbfbf" points="412,-327 412,-327 568,-327 568,-327 412,-327"/>
<polygon fill="none" stroke="#bfbfbf" points="412,-293 412,-361 568,-361 568,-293 412,-293"/>
</a>
</g>
</g>
<!-- Node5&#45;&gt;Node6 -->
<g id="edge5_Node000005_Node000006" class="edge">
<title>Node5&#45;&gt;Node6</title>
<g id="a_edge5_Node000005_Node000006"><a xlink:title=" ">
<path fill="none" stroke="#63b8ff" d="M373.39,-282.16C386.46,-287.23 399.7,-292.36 412.32,-297.26"/>
<polygon fill="none" stroke="#63b8ff" points="374.97,-279.02 364.38,-278.67 372.44,-285.55 374.97,-279.02"/>
</a>
</g>
</g>
<!-- Node14 -->
<g id="Node000014" class="node">
<title>Node14</title>
<g id="a_Node000014"><a xlink:href="../../dc/d58/classv8_1_1internal_1_1PagedSpaceForNewSpace.html" target="_top" xlink:title=" ">
<polygon fill="white" stroke="none" points="580,-274.5 400,-274.5 400,-49.5 580,-49.5 580,-274.5"/>
<text text-anchor="start" x="418" y="-261" font-family="Cascadia Code NF" font-size="10.00">v8::internal::PagedSpace</text>
<text text-anchor="start" x="457" y="-248.25" font-family="Cascadia Code NF" font-size="10.00">ForNewSpace</text>
<text text-anchor="start" x="487" y="-232" font-family="Cascadia Code NF" font-size="10.00"> </text>
<text text-anchor="start" x="404" y="-216" font-family="Cascadia Code NF" font-size="10.00">+</text>
<text text-anchor="start" x="414" y="-216" font-family="Cascadia Code NF" font-size="10.00">PagedSpaceForNewSpace()</text>
<text text-anchor="start" x="404" y="-200" font-family="Cascadia Code NF" font-size="10.00">+</text>
<text text-anchor="start" x="414" y="-200" font-family="Cascadia Code NF" font-size="10.00">TearDown()</text>
<text text-anchor="start" x="404" y="-184" font-family="Cascadia Code NF" font-size="10.00">+</text>
<text text-anchor="start" x="414" y="-184" font-family="Cascadia Code NF" font-size="10.00">Grow()</text>
<text text-anchor="start" x="404" y="-168" font-family="Cascadia Code NF" font-size="10.00">+</text>
<text text-anchor="start" x="414" y="-168" font-family="Cascadia Code NF" font-size="10.00">StartShrinking()</text>
<text text-anchor="start" x="404" y="-152" font-family="Cascadia Code NF" font-size="10.00">+</text>
<text text-anchor="start" x="414" y="-152" font-family="Cascadia Code NF" font-size="10.00">FinishShrinking()</text>
<text text-anchor="start" x="404" y="-136" font-family="Cascadia Code NF" font-size="10.00">+</text>
<text text-anchor="start" x="414" y="-136" font-family="Cascadia Code NF" font-size="10.00">AllocatedSinceLastGC()</text>
<text text-anchor="start" x="404" y="-120" font-family="Cascadia Code NF" font-size="10.00">+</text>
<text text-anchor="start" x="414" y="-120" font-family="Cascadia Code NF" font-size="10.00">MaximumCapacity()</text>
<text text-anchor="start" x="404" y="-104" font-family="Cascadia Code NF" font-size="10.00">+</text>
<text text-anchor="start" x="414" y="-104" font-family="Cascadia Code NF" font-size="10.00">TotalCapacity()</text>
<text text-anchor="start" x="404" y="-88" font-family="Cascadia Code NF" font-size="10.00">+</text>
<text text-anchor="start" x="414" y="-88" font-family="Cascadia Code NF" font-size="10.00">first_allocatable_address()</text>
<text text-anchor="start" x="404" y="-72" font-family="Cascadia Code NF" font-size="10.00">+</text>
<text text-anchor="start" x="414" y="-72" font-family="Cascadia Code NF" font-size="10.00">GarbageCollectionEpilogue()</text>
<text text-anchor="start" x="414" y="-56" font-family="Cascadia Code NF" font-size="10.00">and 13 more...</text>
<polygon fill="#bfbfbf" stroke="#bfbfbf" points="400,-243.5 400,-243.5 580,-243.5 580,-243.5 400,-243.5"/>
<polygon fill="#bfbfbf" stroke="#bfbfbf" points="400,-227.5 400,-227.5 580,-227.5 580,-227.5 400,-227.5"/>
<polygon fill="none" stroke="#bfbfbf" points="400,-49.5 400,-274.5 580,-274.5 580,-49.5 400,-49.5"/>
</a>
</g>
</g>
<!-- Node5&#45;&gt;Node14 -->
<g id="edge13_Node000005_Node000014" class="edge">
<title>Node5&#45;&gt;Node14</title>
<g id="a_edge13_Node000005_Node000014"><a xlink:title=" ">
<path fill="none" stroke="#63b8ff" d="M373.44,-206.28C382.41,-202.84 391.46,-199.38 400.34,-195.97"/>
<polygon fill="none" stroke="#63b8ff" points="372.47,-202.9 364.38,-209.75 374.97,-209.44 372.47,-202.9"/>
</a>
</g>
</g>
<!-- Node7 -->
<g id="Node000007" class="node">
<title>Node7</title>
<g id="a_Node000007"><a xlink:href="../../de/dbb/classv8_1_1internal_1_1CodeSpace.html" target="_top" xlink:title=" ">
<polygon fill="white" stroke="none" points="780,-650 632,-650 632,-598 780,-598 780,-650"/>
<text text-anchor="start" x="637" y="-636.5" font-family="Cascadia Code NF" font-size="10.00">v8::internal::CodeSpace</text>
<text text-anchor="start" x="703" y="-620.5" font-family="Cascadia Code NF" font-size="10.00"> </text>
<text text-anchor="start" x="652" y="-604.5" font-family="Cascadia Code NF" font-size="10.00">+</text>
<text text-anchor="start" x="678" y="-604.5" font-family="Cascadia Code NF" font-size="10.00">CodeSpace()</text>
<polygon fill="#bfbfbf" stroke="#bfbfbf" points="632,-632 632,-632 780,-632 780,-632 632,-632"/>
<polygon fill="#bfbfbf" stroke="#bfbfbf" points="632,-616 632,-616 780,-616 780,-616 632,-616"/>
<polygon fill="none" stroke="#bfbfbf" points="632,-598 632,-650 780,-650 780,-598 632,-598"/>
</a>
</g>
</g>
<!-- Node6&#45;&gt;Node7 -->
<g id="edge6_Node000006_Node000007" class="edge">
<title>Node6&#45;&gt;Node7</title>
<g id="a_edge6_Node000006_Node000007"><a xlink:title=" ">
<path fill="none" stroke="#63b8ff" d="M531.21,-369.47C548.48,-389.76 567.52,-415.21 580,-441 609.49,-501.93 571.5,-537.99 616,-589 620.58,-594.25 626.06,-598.73 632.01,-602.53"/>
<polygon fill="none" stroke="#63b8ff" points="533.88,-367.21 524.68,-361.96 528.6,-371.8 533.88,-367.21"/>
</a>
</g>
</g>
<!-- Node8 -->
<g id="Node000008" class="node">
<title>Node8</title>
<g id="a_Node000008"><a xlink:href="../../dd/dac/classv8_1_1internal_1_1CompactionSpace.html" target="_top" xlink:title=" ">
<polygon fill="white" stroke="none" points="783,-579.5 629,-579.5 629,-450.5 783,-450.5 783,-579.5"/>
<text text-anchor="start" x="634" y="-566" font-family="Cascadia Code NF" font-size="10.00">v8::internal::Compaction</text>
<text text-anchor="start" x="691" y="-553.25" font-family="Cascadia Code NF" font-size="10.00">Space</text>
<text text-anchor="start" x="641.5" y="-537" font-family="Cascadia Code NF" font-size="10.00">#</text>
<text text-anchor="start" x="660" y="-537" font-family="Cascadia Code NF" font-size="10.00">new_pages_</text>
<text text-anchor="start" x="641.5" y="-521" font-family="Cascadia Code NF" font-size="10.00">+</text>
<text text-anchor="start" x="660" y="-521" font-family="Cascadia Code NF" font-size="10.00">CompactionSpace()</text>
<text text-anchor="start" x="641.5" y="-505" font-family="Cascadia Code NF" font-size="10.00">+</text>
<text text-anchor="start" x="660" y="-505" font-family="Cascadia Code NF" font-size="10.00">GetNewPages()</text>
<text text-anchor="start" x="641.5" y="-489" font-family="Cascadia Code NF" font-size="10.00">+</text>
<text text-anchor="start" x="660" y="-489" font-family="Cascadia Code NF" font-size="10.00">RefillFreeList()</text>
<text text-anchor="start" x="641.5" y="-473" font-family="Cascadia Code NF" font-size="10.00">#</text>
<text text-anchor="start" x="660" y="-473" font-family="Cascadia Code NF" font-size="10.00">NotifyNewPage()</text>
<text text-anchor="start" x="641.5" y="-457" font-family="Cascadia Code NF" font-size="10.00">#</text>
<text text-anchor="start" x="660" y="-457" font-family="Cascadia Code NF" font-size="10.00">snapshotable()</text>
<polygon fill="#bfbfbf" stroke="#bfbfbf" points="629,-548.5 629,-548.5 783,-548.5 783,-548.5 629,-548.5"/>
<polygon fill="#bfbfbf" stroke="#bfbfbf" points="629,-532.5 629,-532.5 658,-532.5 658,-532.5 629,-532.5"/>
<polygon fill="#bfbfbf" stroke="#bfbfbf" points="658,-532.5 658,-532.5 783,-532.5 783,-532.5 658,-532.5"/>
<polygon fill="none" stroke="#bfbfbf" points="629,-450.5 629,-579.5 783,-579.5 783,-450.5 629,-450.5"/>
</a>
</g>
</g>
<!-- Node6&#45;&gt;Node8 -->
<g id="edge7_Node000006_Node000008" class="edge">
<title>Node6&#45;&gt;Node8</title>
<g id="a_edge7_Node000006_Node000008"><a xlink:title=" ">
<path fill="none" stroke="#63b8ff" d="M535.67,-368.65C559.32,-390.47 588.98,-417.46 616,-441 620.24,-444.7 624.62,-448.47 629.06,-452.26"/>
<polygon fill="none" stroke="#63b8ff" points="538.08,-366.11 528.36,-361.89 533.33,-371.25 538.08,-366.11"/>
</a>
</g>
</g>
<!-- Node9 -->
<g id="Node000009" class="node">
<title>Node9</title>
<g id="a_Node000009"><a xlink:href="../../d2/d43/classv8_1_1internal_1_1OldSpace.html" target="_top" xlink:title=" ">
<polygon fill="white" stroke="none" points="796,-432 616,-432 616,-332 796,-332 796,-432"/>
<text text-anchor="start" x="640" y="-418.5" font-family="Cascadia Code NF" font-size="10.00">v8::internal::OldSpace</text>
<text text-anchor="start" x="703" y="-402.5" font-family="Cascadia Code NF" font-size="10.00"> </text>
<text text-anchor="start" x="620" y="-386.5" font-family="Cascadia Code NF" font-size="10.00">+</text>
<text text-anchor="start" x="630" y="-386.5" font-family="Cascadia Code NF" font-size="10.00">OldSpace()</text>
<text text-anchor="start" x="620" y="-370.5" font-family="Cascadia Code NF" font-size="10.00">+</text>
<text text-anchor="start" x="630" y="-370.5" font-family="Cascadia Code NF" font-size="10.00">AddPromotedPage()</text>
<text text-anchor="start" x="620" y="-354.5" font-family="Cascadia Code NF" font-size="10.00">+</text>
<text text-anchor="start" x="630" y="-354.5" font-family="Cascadia Code NF" font-size="10.00">ReleasePage()</text>
<text text-anchor="start" x="620" y="-338.5" font-family="Cascadia Code NF" font-size="10.00">+</text>
<text text-anchor="start" x="630" y="-338.5" font-family="Cascadia Code NF" font-size="10.00">ExternalBackingStoreBytes()</text>
<polygon fill="#bfbfbf" stroke="#bfbfbf" points="616,-414 616,-414 796,-414 796,-414 616,-414"/>
<polygon fill="#bfbfbf" stroke="#bfbfbf" points="616,-398 616,-398 796,-398 796,-398 616,-398"/>
<polygon fill="none" stroke="#bfbfbf" points="616,-332 616,-432 796,-432 796,-332 616,-332"/>
</a>
</g>
</g>
<!-- Node6&#45;&gt;Node9 -->
<g id="edge8_Node000006_Node000009" class="edge">
<title>Node6&#45;&gt;Node9</title>
<g id="a_edge8_Node000006_Node000009"><a xlink:title=" ">
<path fill="none" stroke="#63b8ff" d="M578.75,-349.55C591.16,-352.74 603.93,-356.02 616.36,-359.22"/>
<polygon fill="none" stroke="#63b8ff" points="579.98,-346.25 569.42,-347.16 578.24,-353.03 579.98,-346.25"/>
</a>
</g>
</g>
<!-- Node11 -->
<g id="Node000011" class="node">
<title>Node11</title>
<g id="a_Node000011"><a xlink:href="../../d6/dd7/classv8_1_1internal_1_1SharedSpace.html" target="_top" xlink:title=" ">
<polygon fill="white" stroke="none" points="796,-314 616,-314 616,-230 796,-230 796,-314"/>
<text text-anchor="start" x="631" y="-300.5" font-family="Cascadia Code NF" font-size="10.00">v8::internal::SharedSpace</text>
<text text-anchor="start" x="703" y="-284.5" font-family="Cascadia Code NF" font-size="10.00"> </text>
<text text-anchor="start" x="620" y="-268.5" font-family="Cascadia Code NF" font-size="10.00">+</text>
<text text-anchor="start" x="630" y="-268.5" font-family="Cascadia Code NF" font-size="10.00">SharedSpace()</text>
<text text-anchor="start" x="620" y="-252.5" font-family="Cascadia Code NF" font-size="10.00">+</text>
<text text-anchor="start" x="630" y="-252.5" font-family="Cascadia Code NF" font-size="10.00">ReleasePage()</text>
<text text-anchor="start" x="620" y="-236.5" font-family="Cascadia Code NF" font-size="10.00">+</text>
<text text-anchor="start" x="630" y="-236.5" font-family="Cascadia Code NF" font-size="10.00">ExternalBackingStoreBytes()</text>
<polygon fill="#bfbfbf" stroke="#bfbfbf" points="616,-296 616,-296 796,-296 796,-296 616,-296"/>
<polygon fill="#bfbfbf" stroke="#bfbfbf" points="616,-280 616,-280 796,-280 796,-280 616,-280"/>
<polygon fill="none" stroke="#bfbfbf" points="616,-230 616,-314 796,-314 796,-230 616,-230"/>
</a>
</g>
</g>
<!-- Node6&#45;&gt;Node11 -->
<g id="edge10_Node000006_Node000011" class="edge">
<title>Node6&#45;&gt;Node11</title>
<g id="a_edge10_Node000006_Node000011"><a xlink:title=" ">
<path fill="none" stroke="#63b8ff" d="M578.75,-304.45C591.16,-301.26 603.93,-297.98 616.36,-294.78"/>
<polygon fill="none" stroke="#63b8ff" points="578.24,-300.97 569.42,-306.84 579.98,-307.75 578.24,-300.97"/>
</a>
</g>
</g>
<!-- Node12 -->
<g id="Node000012" class="node">
<title>Node12</title>
<g id="a_Node000012"><a xlink:href="../../d1/d5b/classv8_1_1internal_1_1SharedTrustedSpace.html" target="_top" xlink:title=" ">
<polygon fill="white" stroke="none" points="796,-211.5 616,-211.5 616,-130.5 796,-130.5 796,-211.5"/>
<text text-anchor="start" x="625" y="-198" font-family="Cascadia Code NF" font-size="10.00">v8::internal::SharedTrusted</text>
<text text-anchor="start" x="691" y="-185.25" font-family="Cascadia Code NF" font-size="10.00">Space</text>
<text text-anchor="start" x="703" y="-169" font-family="Cascadia Code NF" font-size="10.00"> </text>
<text text-anchor="start" x="620" y="-153" font-family="Cascadia Code NF" font-size="10.00">+</text>
<text text-anchor="start" x="630" y="-153" font-family="Cascadia Code NF" font-size="10.00">SharedTrustedSpace()</text>
<text text-anchor="start" x="620" y="-137" font-family="Cascadia Code NF" font-size="10.00">+</text>
<text text-anchor="start" x="630" y="-137" font-family="Cascadia Code NF" font-size="10.00">ExternalBackingStoreBytes()</text>
<polygon fill="#bfbfbf" stroke="#bfbfbf" points="616,-180.5 616,-180.5 796,-180.5 796,-180.5 616,-180.5"/>
<polygon fill="#bfbfbf" stroke="#bfbfbf" points="616,-164.5 616,-164.5 796,-164.5 796,-164.5 616,-164.5"/>
<polygon fill="none" stroke="#bfbfbf" points="616,-130.5 616,-211.5 796,-211.5 796,-130.5 616,-130.5"/>
</a>
</g>
</g>
<!-- Node6&#45;&gt;Node12 -->
<g id="edge11_Node000006_Node000012" class="edge">
<title>Node6&#45;&gt;Node12</title>
<g id="a_edge11_Node000006_Node000012"><a xlink:title=" ">
<path fill="none" stroke="#63b8ff" d="M576.75,-286.91C577.86,-285.96 578.94,-284.99 580,-284 603.58,-262 593.11,-243.72 616,-221 619.4,-217.63 623.07,-214.41 626.91,-211.36"/>
<polygon fill="none" stroke="#63b8ff" points="574.76,-284.02 569.01,-292.92 579.06,-289.54 574.76,-284.02"/>
</a>
</g>
</g>
<!-- Node13 -->
<g id="Node000013" class="node">
<title>Node13</title>
<g id="a_Node000013"><a xlink:href="../../d8/d1b/classv8_1_1internal_1_1TrustedSpace.html" target="_top" xlink:title=" ">
<polygon fill="white" stroke="none" points="796,-112 616,-112 616,-44 796,-44 796,-112"/>
<text text-anchor="start" x="628" y="-98.5" font-family="Cascadia Code NF" font-size="10.00">v8::internal::TrustedSpace</text>
<text text-anchor="start" x="703" y="-82.5" font-family="Cascadia Code NF" font-size="10.00"> </text>
<text text-anchor="start" x="620" y="-66.5" font-family="Cascadia Code NF" font-size="10.00">+</text>
<text text-anchor="start" x="630" y="-66.5" font-family="Cascadia Code NF" font-size="10.00">TrustedSpace()</text>
<text text-anchor="start" x="620" y="-50.5" font-family="Cascadia Code NF" font-size="10.00">+</text>
<text text-anchor="start" x="630" y="-50.5" font-family="Cascadia Code NF" font-size="10.00">ExternalBackingStoreBytes()</text>
<polygon fill="#bfbfbf" stroke="#bfbfbf" points="616,-94 616,-94 796,-94 796,-94 616,-94"/>
<polygon fill="#bfbfbf" stroke="#bfbfbf" points="616,-78 616,-78 796,-78 796,-78 616,-78"/>
<polygon fill="none" stroke="#bfbfbf" points="616,-44 616,-112 796,-112 796,-44 616,-44"/>
</a>
</g>
</g>
<!-- Node6&#45;&gt;Node13 -->
<g id="edge12_Node000006_Node000013" class="edge">
<title>Node6&#45;&gt;Node13</title>
<g id="a_edge12_Node000006_Node000013"><a xlink:title=" ">
<path fill="none" stroke="#63b8ff" d="M576.18,-288.43C577.52,-287 578.79,-285.53 580,-284 625.78,-226.17 570.48,-180.03 616,-122 618.87,-118.34 622.13,-114.96 625.66,-111.84"/>
<polygon fill="none" stroke="#63b8ff" points="574.01,-285.67 569.05,-295.04 578.76,-290.8 574.01,-285.67"/>
</a>
</g>
</g>
<!-- Node10 -->
<g id="Node000010" class="node">
<title>Node10</title>
<g id="a_Node000010"><a xlink:href="../../dd/d2a/classv8_1_1internal_1_1StickySpace.html" target="_top" xlink:title=" ">
<polygon fill="white" stroke="none" points="1006,-456 832,-456 832,-308 1006,-308 1006,-456"/>
<text text-anchor="start" x="844" y="-442.5" font-family="Cascadia Code NF" font-size="10.00">v8::internal::StickySpace</text>
<text text-anchor="start" x="916" y="-426.5" font-family="Cascadia Code NF" font-size="10.00"> </text>
<text text-anchor="start" x="836" y="-410.5" font-family="Cascadia Code NF" font-size="10.00">+</text>
<text text-anchor="start" x="846" y="-410.5" font-family="Cascadia Code NF" font-size="10.00">young_objects_size()</text>
<text text-anchor="start" x="836" y="-394.5" font-family="Cascadia Code NF" font-size="10.00">+</text>
<text text-anchor="start" x="846" y="-394.5" font-family="Cascadia Code NF" font-size="10.00">old_objects_size()</text>
<text text-anchor="start" x="836" y="-378.5" font-family="Cascadia Code NF" font-size="10.00">+</text>
<text text-anchor="start" x="846" y="-378.5" font-family="Cascadia Code NF" font-size="10.00">set_old_objects_size()</text>
<text text-anchor="start" x="836" y="-362.5" font-family="Cascadia Code NF" font-size="10.00">+</text>
<text text-anchor="start" x="846" y="-362.5" font-family="Cascadia Code NF" font-size="10.00">NotifyBlackAreaCreated()</text>
<text text-anchor="start" x="836" y="-346.5" font-family="Cascadia Code NF" font-size="10.00">+</text>
<text text-anchor="start" x="846" y="-346.5" font-family="Cascadia Code NF" font-size="10.00">NotifyBlackAreaDestroyed()</text>
<text text-anchor="start" x="836" y="-330.5" font-family="Cascadia Code NF" font-size="10.00">+</text>
<text text-anchor="start" x="846" y="-330.5" font-family="Cascadia Code NF" font-size="10.00">OldSpace()</text>
<text text-anchor="start" x="836" y="-314.5" font-family="Cascadia Code NF" font-size="10.00">+</text>
<text text-anchor="start" x="846" y="-314.5" font-family="Cascadia Code NF" font-size="10.00">From()</text>
<polygon fill="#bfbfbf" stroke="#bfbfbf" points="832,-438 832,-438 1006,-438 1006,-438 832,-438"/>
<polygon fill="#bfbfbf" stroke="#bfbfbf" points="832,-422 832,-422 1006,-422 1006,-422 832,-422"/>
<polygon fill="none" stroke="#bfbfbf" points="832,-308 832,-456 1006,-456 1006,-308 832,-308"/>
</a>
</g>
</g>
<!-- Node9&#45;&gt;Node10 -->
<g id="edge9_Node000009_Node000010" class="edge">
<title>Node9&#45;&gt;Node10</title>
<g id="a_edge9_Node000009_Node000010"><a xlink:title=" ">
<path fill="none" stroke="#63b8ff" d="M807.24,-382C815.61,-382 824.02,-382 832.26,-382"/>
<polygon fill="none" stroke="#63b8ff" points="807.39,-378.5 797.39,-382 807.38,-385.5 807.39,-378.5"/>
</a>
</g>
</g>
</g>
</svg>
