<?xml version="1.0" encoding="UTF-8" standalone="no"?>
<!DOCTYPE svg PUBLIC "-//W3C//DTD SVG 1.1//EN"
 "http://www.w3.org/Graphics/SVG/1.1/DTD/svg11.dtd">
<!-- Generated by graphviz version 11.0.0 (20240428.1522)
 -->
<!-- Title: v8::internal::ZoneChunkList&lt; T &gt; Pages: 1 -->
<svg width="538pt" height="233pt"
 viewBox="0.00 0.00 538.00 233.00" xmlns="http://www.w3.org/2000/svg" xmlns:xlink="http://www.w3.org/1999/xlink">
<g id="graph0" class="graph" transform="scale(1 1) rotate(0) translate(4 229)">
<title>v8::internal::ZoneChunkList&lt; T &gt;</title>
<!-- Node1 -->
<g id="Node000001" class="node">
<title>Node1</title>
<g id="a_Node000001"><a xlink:title=" ">
<polygon fill="#999999" stroke="none" points="530,-225 328,-225 328,0 530,0 530,-225"/>
<text text-anchor="start" x="333" y="-211.5" font-family="Cascadia Code NF" font-size="10.00">v8::internal::ZoneChunkList&lt; T &gt;</text>
<text text-anchor="start" x="426" y="-195.5" font-family="Cascadia Code NF" font-size="10.00"> </text>
<text text-anchor="start" x="348" y="-179.5" font-family="Cascadia Code NF" font-size="10.00">+</text>
<text text-anchor="start" x="374" y="-179.5" font-family="Cascadia Code NF" font-size="10.00">ZoneChunkList()</text>
<text text-anchor="start" x="348" y="-163.5" font-family="Cascadia Code NF" font-size="10.00">+</text>
<text text-anchor="start" x="374" y="-163.5" font-family="Cascadia Code NF" font-size="10.00">MOVE_ONLY_NO_DEFAULT</text>
<text text-anchor="start" x="374" y="-150.75" font-family="Cascadia Code NF" font-size="10.00">_CONSTRUCTOR()</text>
<text text-anchor="start" x="348" y="-134.5" font-family="Cascadia Code NF" font-size="10.00">+</text>
<text text-anchor="start" x="374" y="-134.5" font-family="Cascadia Code NF" font-size="10.00">size()</text>
<text text-anchor="start" x="348" y="-118.5" font-family="Cascadia Code NF" font-size="10.00">+</text>
<text text-anchor="start" x="374" y="-118.5" font-family="Cascadia Code NF" font-size="10.00">empty()</text>
<text text-anchor="start" x="348" y="-102.5" font-family="Cascadia Code NF" font-size="10.00">+</text>
<text text-anchor="start" x="374" y="-102.5" font-family="Cascadia Code NF" font-size="10.00">front()</text>
<text text-anchor="start" x="348" y="-86.5" font-family="Cascadia Code NF" font-size="10.00">+</text>
<text text-anchor="start" x="374" y="-86.5" font-family="Cascadia Code NF" font-size="10.00">front()</text>
<text text-anchor="start" x="348" y="-70.5" font-family="Cascadia Code NF" font-size="10.00">+</text>
<text text-anchor="start" x="374" y="-70.5" font-family="Cascadia Code NF" font-size="10.00">back()</text>
<text text-anchor="start" x="348" y="-54.5" font-family="Cascadia Code NF" font-size="10.00">+</text>
<text text-anchor="start" x="374" y="-54.5" font-family="Cascadia Code NF" font-size="10.00">back()</text>
<text text-anchor="start" x="348" y="-38.5" font-family="Cascadia Code NF" font-size="10.00">+</text>
<text text-anchor="start" x="374" y="-38.5" font-family="Cascadia Code NF" font-size="10.00">push_back()</text>
<text text-anchor="start" x="348" y="-22.5" font-family="Cascadia Code NF" font-size="10.00">+</text>
<text text-anchor="start" x="374" y="-22.5" font-family="Cascadia Code NF" font-size="10.00">push_front()</text>
<text text-anchor="start" x="374" y="-6.5" font-family="Cascadia Code NF" font-size="10.00">and 15 more...</text>
<polygon fill="#666666" stroke="#666666" points="328,-207 328,-207 530,-207 530,-207 328,-207"/>
<polygon fill="#666666" stroke="#666666" points="328,-191 328,-191 530,-191 530,-191 328,-191"/>
<polygon fill="none" stroke="#666666" points="328,0 328,-225 530,-225 530,0 328,0"/>
</a>
</g>
</g>
<!-- Node2 -->
<g id="Node000002" class="node">
<title>Node2</title>
<g id="a_Node000002"><a xlink:href="$dc/dca/classv8_1_1internal_1_1ZoneObject.html" xlink:title=" ">
<polygon fill="white" stroke="none" points="154,-209.5 0,-209.5 0,-109.5 154,-109.5 154,-209.5"/>
<text text-anchor="start" x="5" y="-196" font-family="Cascadia Code NF" font-size="10.00">v8::internal::ZoneObject</text>
<text text-anchor="start" x="74" y="-180" font-family="Cascadia Code NF" font-size="10.00"> </text>
<text text-anchor="start" x="12.5" y="-164" font-family="Cascadia Code NF" font-size="10.00">+</text>
<text text-anchor="start" x="31" y="-164" font-family="Cascadia Code NF" font-size="10.00">operator new()</text>
<text text-anchor="start" x="12.5" y="-148" font-family="Cascadia Code NF" font-size="10.00">+</text>
<text text-anchor="start" x="31" y="-148" font-family="Cascadia Code NF" font-size="10.00">operator new()</text>
<text text-anchor="start" x="12.5" y="-132" font-family="Cascadia Code NF" font-size="10.00">+</text>
<text text-anchor="start" x="31" y="-132" font-family="Cascadia Code NF" font-size="10.00">operator delete()</text>
<text text-anchor="start" x="12.5" y="-116" font-family="Cascadia Code NF" font-size="10.00">+</text>
<text text-anchor="start" x="31" y="-116" font-family="Cascadia Code NF" font-size="10.00">operator delete()</text>
<polygon fill="#bfbfbf" stroke="#bfbfbf" points="0,-191.5 0,-191.5 154,-191.5 154,-191.5 0,-191.5"/>
<polygon fill="#bfbfbf" stroke="#bfbfbf" points="0,-175.5 0,-175.5 154,-175.5 154,-175.5 0,-175.5"/>
<polygon fill="none" stroke="#bfbfbf" points="0,-109.5 0,-209.5 154,-209.5 154,-109.5 0,-109.5"/>
</a>
</g>
</g>
<!-- Node2&#45;&gt;Node1 -->
<g id="edge1_Node000001_Node000002" class="edge">
<title>Node2&#45;&gt;Node1</title>
<g id="a_edge1_Node000001_Node000002"><a xlink:title=" ">
<path fill="none" stroke="#63b8ff" d="M165.27,-147.78C214.75,-141.14 276.86,-132.8 328.27,-125.89"/>
<polygon fill="none" stroke="#63b8ff" points="164.89,-144.3 155.44,-149.1 165.82,-151.24 164.89,-144.3"/>
</a>
</g>
</g>
<!-- Node3 -->
<g id="Node000003" class="node">
<title>Node3</title>
<g id="a_Node000003"><a xlink:href="$d3/d87/classuint32__t.html" xlink:title=" ">
<polygon fill="white" stroke="none" points="106,-91.5 48,-91.5 48,-39.5 106,-39.5 106,-91.5"/>
<text text-anchor="start" x="53" y="-78" font-family="Cascadia Code NF" font-size="10.00">uint32_t</text>
<text text-anchor="start" x="74" y="-62" font-family="Cascadia Code NF" font-size="10.00"> </text>
<text text-anchor="start" x="74" y="-46" font-family="Cascadia Code NF" font-size="10.00"> </text>
<polygon fill="#bfbfbf" stroke="#bfbfbf" points="48,-73.5 48,-73.5 106,-73.5 106,-73.5 48,-73.5"/>
<polygon fill="#bfbfbf" stroke="#bfbfbf" points="48,-57.5 48,-57.5 106,-57.5 106,-57.5 48,-57.5"/>
<polygon fill="none" stroke="#bfbfbf" points="48,-39.5 48,-91.5 106,-91.5 106,-39.5 48,-39.5"/>
</a>
</g>
</g>
<!-- Node3&#45;&gt;Node1 -->
<g id="edge2_Node000001_Node000003" class="edge">
<title>Node3&#45;&gt;Node1</title>
<g id="a_edge2_Node000001_Node000003"><a xlink:title=" ">
<path fill="none" stroke="#63b8ff" d="M105.76,-69.23C150.69,-75.26 241.79,-87.5 315.7,-97.42"/>
<polygon fill="none" stroke="#63b8ff" points="315.56,-97.4 322.03,-94.23 327.45,-99 320.97,-102.16 315.56,-97.4"/>
</a>
</g>
<text text-anchor="middle" x="241" y="-111.5" font-family="Cascadia Code NF" font-size="10.00" fill="grey"> +kInitialChunkCapacity</text>
<text text-anchor="middle" x="241" y="-98.75" font-family="Cascadia Code NF" font-size="10.00" fill="grey">+kMaxChunkCapacity</text>
</g>
</g>
</svg>
