<?xml version="1.0" encoding="UTF-8" standalone="no"?>
<!DOCTYPE svg PUBLIC "-//W3C//DTD SVG 1.1//EN"
 "http://www.w3.org/Graphics/SVG/1.1/DTD/svg11.dtd">
<!-- Generated by graphviz version 11.0.0 (20240428.1522)
 -->
<!-- Title: v8::internal::interpreter::TryFinallyBuilder Pages: 1 -->
<svg width="364pt" height="185pt"
 viewBox="0.00 0.00 364.00 185.00" xmlns="http://www.w3.org/2000/svg" xmlns:xlink="http://www.w3.org/1999/xlink">
<g id="graph0" class="graph" transform="scale(1 1) rotate(0) translate(4 181)">
<title>v8::internal::interpreter::TryFinallyBuilder</title>
<!-- Node1 -->
<g id="Node000001" class="node">
<title>Node1</title>
<g id="a_Node000001"><a xlink:title=" ">
<polygon fill="#999999" stroke="none" points="356,-177 196,-177 196,0 356,0 356,-177"/>
<text text-anchor="start" x="201" y="-163.5" font-family="Cascadia Code NF" font-size="10.00">v8::internal::interpreter</text>
<text text-anchor="start" x="219" y="-150.75" font-family="Cascadia Code NF" font-size="10.00">::TryFinallyBuilder</text>
<text text-anchor="start" x="273" y="-134.5" font-family="Cascadia Code NF" font-size="10.00"> </text>
<text text-anchor="start" x="205.5" y="-118.5" font-family="Cascadia Code NF" font-size="10.00">+</text>
<text text-anchor="start" x="221" y="-118.5" font-family="Cascadia Code NF" font-size="10.00">TryFinallyBuilder()</text>
<text text-anchor="start" x="205.5" y="-102.5" font-family="Cascadia Code NF" font-size="10.00">+</text>
<text text-anchor="start" x="221" y="-102.5" font-family="Cascadia Code NF" font-size="10.00">~TryFinallyBuilder()</text>
<text text-anchor="start" x="205.5" y="-86.5" font-family="Cascadia Code NF" font-size="10.00">+</text>
<text text-anchor="start" x="221" y="-86.5" font-family="Cascadia Code NF" font-size="10.00">BeginTry()</text>
<text text-anchor="start" x="205.5" y="-70.5" font-family="Cascadia Code NF" font-size="10.00">+</text>
<text text-anchor="start" x="221" y="-70.5" font-family="Cascadia Code NF" font-size="10.00">LeaveTry()</text>
<text text-anchor="start" x="205.5" y="-54.5" font-family="Cascadia Code NF" font-size="10.00">+</text>
<text text-anchor="start" x="221" y="-54.5" font-family="Cascadia Code NF" font-size="10.00">EndTry()</text>
<text text-anchor="start" x="205.5" y="-38.5" font-family="Cascadia Code NF" font-size="10.00">+</text>
<text text-anchor="start" x="221" y="-38.5" font-family="Cascadia Code NF" font-size="10.00">BeginHandler()</text>
<text text-anchor="start" x="205.5" y="-22.5" font-family="Cascadia Code NF" font-size="10.00">+</text>
<text text-anchor="start" x="221" y="-22.5" font-family="Cascadia Code NF" font-size="10.00">BeginFinally()</text>
<text text-anchor="start" x="205.5" y="-6.5" font-family="Cascadia Code NF" font-size="10.00">+</text>
<text text-anchor="start" x="221" y="-6.5" font-family="Cascadia Code NF" font-size="10.00">EndFinally()</text>
<polygon fill="#666666" stroke="#666666" points="196,-146 196,-146 356,-146 356,-146 196,-146"/>
<polygon fill="#666666" stroke="#666666" points="196,-130 196,-130 356,-130 356,-130 196,-130"/>
<polygon fill="none" stroke="#666666" points="196,0 196,-177 356,-177 356,0 196,0"/>
</a>
</g>
</g>
<!-- Node2 -->
<g id="Node000002" class="node">
<title>Node2</title>
<g id="a_Node000002"><a xlink:href="$d2/db4/classv8_1_1internal_1_1interpreter_1_1ControlFlowBuilder.html" xlink:title=" ">
<polygon fill="white" stroke="none" points="160,-153 0,-153 0,-24 160,-24 160,-153"/>
<text text-anchor="start" x="5" y="-139.5" font-family="Cascadia Code NF" font-size="10.00">v8::internal::interpreter</text>
<text text-anchor="start" x="20" y="-126.75" font-family="Cascadia Code NF" font-size="10.00">::ControlFlowBuilder</text>
<text text-anchor="start" x="77" y="-110.5" font-family="Cascadia Code NF" font-size="10.00"> </text>
<text text-anchor="start" x="8" y="-94.5" font-family="Cascadia Code NF" font-size="10.00">+</text>
<text text-anchor="start" x="22" y="-94.5" font-family="Cascadia Code NF" font-size="10.00">ControlFlowBuilder()</text>
<text text-anchor="start" x="8" y="-78.5" font-family="Cascadia Code NF" font-size="10.00">+</text>
<text text-anchor="start" x="22" y="-78.5" font-family="Cascadia Code NF" font-size="10.00">ControlFlowBuilder()</text>
<text text-anchor="start" x="8" y="-62.5" font-family="Cascadia Code NF" font-size="10.00">+</text>
<text text-anchor="start" x="22" y="-62.5" font-family="Cascadia Code NF" font-size="10.00">operator=()</text>
<text text-anchor="start" x="8" y="-46.5" font-family="Cascadia Code NF" font-size="10.00">+</text>
<text text-anchor="start" x="22" y="-46.5" font-family="Cascadia Code NF" font-size="10.00">~ControlFlowBuilder()</text>
<text text-anchor="start" x="8" y="-30.5" font-family="Cascadia Code NF" font-size="10.00">#</text>
<text text-anchor="start" x="22" y="-30.5" font-family="Cascadia Code NF" font-size="10.00">builder()</text>
<polygon fill="#bfbfbf" stroke="#bfbfbf" points="0,-122 0,-122 160,-122 160,-122 0,-122"/>
<polygon fill="#bfbfbf" stroke="#bfbfbf" points="0,-106 0,-106 160,-106 160,-106 0,-106"/>
<polygon fill="none" stroke="#bfbfbf" points="0,-24 0,-153 160,-153 160,-24 0,-24"/>
</a>
</g>
</g>
<!-- Node2&#45;&gt;Node1 -->
<g id="edge1_Node000001_Node000002" class="edge">
<title>Node2&#45;&gt;Node1</title>
<g id="a_edge1_Node000001_Node000002"><a xlink:title=" ">
<path fill="none" stroke="#63b8ff" d="M171.21,-88.5C179.54,-88.5 187.94,-88.5 196.16,-88.5"/>
<polygon fill="none" stroke="#63b8ff" points="171.42,-85 161.42,-88.5 171.42,-92 171.42,-85"/>
</a>
</g>
</g>
</g>
</svg>
