<?xml version="1.0" encoding="UTF-8" standalone="no"?>
<!DOCTYPE svg PUBLIC "-//W3C//DTD SVG 1.1//EN"
 "http://www.w3.org/Graphics/SVG/1.1/DTD/svg11.dtd">
<!-- Generated by graphviz version 11.0.0 (20240428.1522)
 -->
<!-- Title: v8::internal::BaseDictionaryShape&lt; Key &gt; Pages: 1 -->
<svg width="370pt" height="89pt"
 viewBox="0.00 0.00 370.00 89.00" xmlns="http://www.w3.org/2000/svg" xmlns:xlink="http://www.w3.org/1999/xlink">
<g id="graph0" class="graph" transform="scale(1 1) rotate(0) translate(4 85)">
<title>v8::internal::BaseDictionaryShape&lt; Key &gt;</title>
<!-- Node1 -->
<g id="Node000001" class="node">
<title>Node1</title>
<g id="a_Node000001"><a xlink:title=" ">
<polygon fill="#999999" stroke="none" points="362,-81 184,-81 184,0 362,0 362,-81"/>
<text text-anchor="start" x="189" y="-67.5" font-family="Cascadia Code NF" font-size="10.00">v8::internal::BaseDictionary</text>
<text text-anchor="start" x="237" y="-54.75" font-family="Cascadia Code NF" font-size="10.00">Shape&lt; Key &gt;</text>
<text text-anchor="start" x="207" y="-38.5" font-family="Cascadia Code NF" font-size="10.00">+</text>
<text text-anchor="start" x="236" y="-38.5" font-family="Cascadia Code NF" font-size="10.00">kHasDetails</text>
<text text-anchor="start" x="207" y="-22.5" font-family="Cascadia Code NF" font-size="10.00">+</text>
<text text-anchor="start" x="236" y="-22.5" font-family="Cascadia Code NF" font-size="10.00">DetailsAt()</text>
<text text-anchor="start" x="207" y="-6.5" font-family="Cascadia Code NF" font-size="10.00">+</text>
<text text-anchor="start" x="236" y="-6.5" font-family="Cascadia Code NF" font-size="10.00">DetailsAtPut()</text>
<polygon fill="#666666" stroke="#666666" points="184,-50 184,-50 362,-50 362,-50 184,-50"/>
<polygon fill="#666666" stroke="#666666" points="184,-34 184,-34 234,-34 234,-34 184,-34"/>
<polygon fill="#666666" stroke="#666666" points="234,-34 234,-34 362,-34 362,-34 234,-34"/>
<polygon fill="none" stroke="#666666" points="184,0 184,-81 362,-81 362,0 184,0"/>
</a>
</g>
</g>
<!-- Node2 -->
<g id="Node000002" class="node">
<title>Node2</title>
<g id="a_Node000002"><a xlink:href="../../de/dd8/classv8_1_1internal_1_1BaseShape.html" target="_top" xlink:title=" ">
<polygon fill="white" stroke="none" points="148,-73 0,-73 0,-8 148,-8 148,-73"/>
<text text-anchor="start" x="5" y="-59.5" font-family="Cascadia Code NF" font-size="10.00">v8::internal::BaseShape</text>
<text text-anchor="start" x="53" y="-46.75" font-family="Cascadia Code NF" font-size="10.00">&lt; Key &gt;</text>
<text text-anchor="start" x="71" y="-30.5" font-family="Cascadia Code NF" font-size="10.00"> </text>
<text text-anchor="start" x="24.5" y="-14.5" font-family="Cascadia Code NF" font-size="10.00">+</text>
<text text-anchor="start" x="55" y="-14.5" font-family="Cascadia Code NF" font-size="10.00">Unwrap()</text>
<polygon fill="#bfbfbf" stroke="#bfbfbf" points="0,-42 0,-42 148,-42 148,-42 0,-42"/>
<polygon fill="#bfbfbf" stroke="#bfbfbf" points="0,-26 0,-26 148,-26 148,-26 0,-26"/>
<polygon fill="none" stroke="#bfbfbf" points="0,-8 0,-73 148,-73 148,-8 0,-8"/>
</a>
</g>
</g>
<!-- Node2&#45;&gt;Node1 -->
<g id="edge1_Node000001_Node000002" class="edge">
<title>Node2&#45;&gt;Node1</title>
<g id="a_edge1_Node000001_Node000002"><a xlink:title=" ">
<path fill="none" stroke="#63b8ff" d="M159.03,-40.5C167.34,-40.5 175.8,-40.5 184.15,-40.5"/>
<polygon fill="none" stroke="#63b8ff" points="159.31,-37 149.31,-40.5 159.31,-44 159.31,-37"/>
</a>
</g>
</g>
</g>
</svg>
