<?xml version="1.0" encoding="UTF-8" standalone="no"?>
<!DOCTYPE svg PUBLIC "-//W3C//DTD SVG 1.1//EN"
 "http://www.w3.org/Graphics/SVG/1.1/DTD/svg11.dtd">
<!-- Generated by graphviz version 11.0.0 (20240428.1522)
 -->
<!-- Title: TorqueGeneratedScript&lt; D, P &gt; Pages: 1 -->
<!--zoomable 473 -->

<svg id="main" version="1.1" xmlns="http://www.w3.org/2000/svg" xmlns:xlink="http://www.w3.org/1999/xlink" xml:space="preserve" onload="init(evt)">
<style type="text/css"><![CDATA[
.node, .edge {opacity: 0.7;}
.node.selected, .edge.selected {opacity: 1;}
.edge:hover path { stroke: red; }
.edge:hover polygon { stroke: red; fill: red; }
svg#main { background-color: #111; }
]]></style>

<defs>
  <circle id="rim" cx="0" cy="0" r="7"/>
  <circle id="rim2" cx="0" cy="0" r="3.5"/>
  <g id="zoomPlus">
    <use xlink:href="#rim" fill="#404040"><set attributeName="fill" to="#808080" begin="zoomplus.mouseover" end="zoomplus.mouseout"/></use>
    <path d="M-4,0h8M0,-4v8" fill="none" stroke="white" stroke-width="1.5" pointer-events="none"/>
  </g>
  <g id="zoomMin">
    <use xlink:href="#rim" fill="#404040"><set attributeName="fill" to="#808080" begin="zoomminus.mouseover" end="zoomminus.mouseout"/></use>
    <path d="M-4,0h8" fill="none" stroke="white" stroke-width="1.5" pointer-events="none"/>
  </g>
  <g id="arrowUp" transform="translate(30 24)">
    <use xlink:href="#rim"/>
    <path pointer-events="none" fill="none" stroke="white" stroke-width="1.5" d="M0,-3.0v7 M-2.5,-0.5L0,-3.0L2.5,-0.5"/>
  </g>
  <g id="arrowRight" transform="rotate(90) translate(36 -43)">
    <use xlink:href="#rim"/>
    <path pointer-events="none" fill="none" stroke="white" stroke-width="1.5" d="M0,-3.0v7 M-2.5,-0.5L0,-3.0L2.5,-0.5"/>
  </g>
  <g id="arrowDown" transform="rotate(180) translate(-30 -48)">
    <use xlink:href="#rim"/>
    <path pointer-events="none" fill="none" stroke="white" stroke-width="1.5" d="M0,-3.0v7 M-2.5,-0.5L0,-3.0L2.5,-0.5"/>
  </g>
  <g id="arrowLeft" transform="rotate(270) translate(-36 17)">
    <use xlink:href="#rim"/>
    <path pointer-events="none" fill="none" stroke="white" stroke-width="1.5" d="M0,-3.0v7 M-2.5,-0.5L0,-3.0L2.5,-0.5"/>
  </g>
  <g id="resetDef">
    <use xlink:href="#rim2" fill="#404040"><set attributeName="fill" to="#808080" begin="reset.mouseover" end="reset.mouseout"/></use>
  </g>
</defs>
<script type="application/ecmascript">
var viewWidth = 432;
var viewHeight = 473;
var sectionId = 'dynsection-1';
</script>
<script type="application/ecmascript" xlink:href="../../svg.min.js"/>
<svg id="graph" class="graph">
<g id="viewport">
<title>TorqueGeneratedScript&lt; D, P &gt;</title>
<!-- Node1 -->
<g id="Node000001" class="node">
<title>Node1</title>
<g id="a_Node000001"><a xlink:title=" ">
<polygon fill="#999999" stroke="none" points="424,-465 250,-465 250,0 424,0 424,-465"/>
<text text-anchor="start" x="274" y="-451.5" font-family="Cascadia Code NF" font-size="10.00">TorqueGeneratedScript</text>
<text text-anchor="start" x="313" y="-438.75" font-family="Cascadia Code NF" font-size="10.00">&lt; D, P &gt;</text>
<text text-anchor="start" x="254" y="-422.5" font-family="Cascadia Code NF" font-size="10.00">+</text>
<text text-anchor="start" x="264" y="-422.5" font-family="Cascadia Code NF" font-size="10.00">kStartOfStrongFieldsOffset</text>
<text text-anchor="start" x="254" y="-406.5" font-family="Cascadia Code NF" font-size="10.00">+</text>
<text text-anchor="start" x="264" y="-406.5" font-family="Cascadia Code NF" font-size="10.00">kSourceOffset</text>
<text text-anchor="start" x="254" y="-390.5" font-family="Cascadia Code NF" font-size="10.00">+</text>
<text text-anchor="start" x="264" y="-390.5" font-family="Cascadia Code NF" font-size="10.00">kSourceOffsetEnd</text>
<text text-anchor="start" x="254" y="-374.5" font-family="Cascadia Code NF" font-size="10.00">+</text>
<text text-anchor="start" x="264" y="-374.5" font-family="Cascadia Code NF" font-size="10.00">kNameOffset</text>
<text text-anchor="start" x="254" y="-358.5" font-family="Cascadia Code NF" font-size="10.00">+</text>
<text text-anchor="start" x="264" y="-358.5" font-family="Cascadia Code NF" font-size="10.00">kNameOffsetEnd</text>
<text text-anchor="start" x="254" y="-342.5" font-family="Cascadia Code NF" font-size="10.00">+</text>
<text text-anchor="start" x="264" y="-342.5" font-family="Cascadia Code NF" font-size="10.00">kLineOffsetOffset</text>
<text text-anchor="start" x="254" y="-326.5" font-family="Cascadia Code NF" font-size="10.00">+</text>
<text text-anchor="start" x="264" y="-326.5" font-family="Cascadia Code NF" font-size="10.00">kLineOffsetOffsetEnd</text>
<text text-anchor="start" x="254" y="-310.5" font-family="Cascadia Code NF" font-size="10.00">+</text>
<text text-anchor="start" x="264" y="-310.5" font-family="Cascadia Code NF" font-size="10.00">kScriptTypeOffset</text>
<text text-anchor="start" x="254" y="-294.5" font-family="Cascadia Code NF" font-size="10.00">+</text>
<text text-anchor="start" x="264" y="-294.5" font-family="Cascadia Code NF" font-size="10.00">kScriptTypeOffsetEnd</text>
<text text-anchor="start" x="254" y="-278.5" font-family="Cascadia Code NF" font-size="10.00">+</text>
<text text-anchor="start" x="264" y="-278.5" font-family="Cascadia Code NF" font-size="10.00">kLineEndsOffset</text>
<text text-anchor="start" x="264" y="-262.5" font-family="Cascadia Code NF" font-size="10.00">and 20 more...</text>
<text text-anchor="start" x="254" y="-246.5" font-family="Cascadia Code NF" font-size="10.00">+</text>
<text text-anchor="start" x="264" y="-246.5" font-family="Cascadia Code NF" font-size="10.00">source()</text>
<text text-anchor="start" x="254" y="-230.5" font-family="Cascadia Code NF" font-size="10.00">+</text>
<text text-anchor="start" x="264" y="-230.5" font-family="Cascadia Code NF" font-size="10.00">source()</text>
<text text-anchor="start" x="254" y="-214.5" font-family="Cascadia Code NF" font-size="10.00">+</text>
<text text-anchor="start" x="264" y="-214.5" font-family="Cascadia Code NF" font-size="10.00">set_source()</text>
<text text-anchor="start" x="254" y="-198.5" font-family="Cascadia Code NF" font-size="10.00">+</text>
<text text-anchor="start" x="264" y="-198.5" font-family="Cascadia Code NF" font-size="10.00">name()</text>
<text text-anchor="start" x="254" y="-182.5" font-family="Cascadia Code NF" font-size="10.00">+</text>
<text text-anchor="start" x="264" y="-182.5" font-family="Cascadia Code NF" font-size="10.00">name()</text>
<text text-anchor="start" x="254" y="-166.5" font-family="Cascadia Code NF" font-size="10.00">+</text>
<text text-anchor="start" x="264" y="-166.5" font-family="Cascadia Code NF" font-size="10.00">set_name()</text>
<text text-anchor="start" x="254" y="-150.5" font-family="Cascadia Code NF" font-size="10.00">+</text>
<text text-anchor="start" x="264" y="-150.5" font-family="Cascadia Code NF" font-size="10.00">line_offset()</text>
<text text-anchor="start" x="254" y="-134.5" font-family="Cascadia Code NF" font-size="10.00">+</text>
<text text-anchor="start" x="264" y="-134.5" font-family="Cascadia Code NF" font-size="10.00">set_line_offset()</text>
<text text-anchor="start" x="254" y="-118.5" font-family="Cascadia Code NF" font-size="10.00">+</text>
<text text-anchor="start" x="264" y="-118.5" font-family="Cascadia Code NF" font-size="10.00">column_offset()</text>
<text text-anchor="start" x="254" y="-102.5" font-family="Cascadia Code NF" font-size="10.00">+</text>
<text text-anchor="start" x="264" y="-102.5" font-family="Cascadia Code NF" font-size="10.00">set_column_offset()</text>
<text text-anchor="start" x="264" y="-86.5" font-family="Cascadia Code NF" font-size="10.00">and 38 more...</text>
<text text-anchor="start" x="254" y="-70.5" font-family="Cascadia Code NF" font-size="10.00">+</text>
<text text-anchor="start" x="264" y="-70.5" font-family="Cascadia Code NF" font-size="10.00">cast()</text>
<text text-anchor="start" x="254" y="-54.5" font-family="Cascadia Code NF" font-size="10.00">+</text>
<text text-anchor="start" x="264" y="-54.5" font-family="Cascadia Code NF" font-size="10.00">unchecked_cast()</text>
<text text-anchor="start" x="254" y="-38.5" font-family="Cascadia Code NF" font-size="10.00">+</text>
<text text-anchor="start" x="264" y="-38.5" font-family="Cascadia Code NF" font-size="10.00">SizeFor()</text>
<text text-anchor="start" x="254" y="-22.5" font-family="Cascadia Code NF" font-size="10.00">#</text>
<text text-anchor="start" x="264" y="-22.5" font-family="Cascadia Code NF" font-size="10.00">TorqueGeneratedScript()</text>
<text text-anchor="start" x="254" y="-6.5" font-family="Cascadia Code NF" font-size="10.00">#</text>
<text text-anchor="start" x="264" y="-6.5" font-family="Cascadia Code NF" font-size="10.00">TorqueGeneratedScript()</text>
<polygon fill="#666666" stroke="#666666" points="250,-434 250,-434 424,-434 424,-434 250,-434"/>
<polygon fill="#666666" stroke="#666666" points="250,-258 250,-258 262,-258 262,-258 250,-258"/>
<polygon fill="#666666" stroke="#666666" points="262,-258 262,-258 424,-258 424,-258 262,-258"/>
<polygon fill="none" stroke="#666666" points="250,0 250,-465 424,-465 424,0 250,0"/>
</a>
</g>
</g>
<!-- Node2 -->
<g id="Node000002" class="node">
<title>Node2</title>
<g id="a_Node000002"><a xlink:href="../../db/d72/classP.html" target="_top" xlink:title=" ">
<polygon fill="white" stroke="none" points="22,-353.5 6,-353.5 6,-301.5 22,-301.5 22,-353.5"/>
<text text-anchor="start" x="11" y="-340" font-family="Cascadia Code NF" font-size="10.00">P</text>
<text text-anchor="start" x="11" y="-324" font-family="Cascadia Code NF" font-size="10.00"> </text>
<text text-anchor="start" x="11" y="-308" font-family="Cascadia Code NF" font-size="10.00"> </text>
<polygon fill="#bfbfbf" stroke="#bfbfbf" points="6,-335.5 6,-335.5 22,-335.5 22,-335.5 6,-335.5"/>
<polygon fill="#bfbfbf" stroke="#bfbfbf" points="6,-319.5 6,-319.5 22,-319.5 22,-319.5 6,-319.5"/>
<polygon fill="none" stroke="#bfbfbf" points="6,-301.5 6,-353.5 22,-353.5 22,-301.5 6,-301.5"/>
</a>
</g>
</g>
<!-- Node2&#45;&gt;Node1 -->
<g id="edge1_Node000001_Node000002" class="edge">
<title>Node2&#45;&gt;Node1</title>
<g id="a_edge1_Node000001_Node000002"><a xlink:title=" ">
<path fill="none" stroke="#63b8ff" d="M32.73,-328.66C70.64,-330.52 161.85,-331.63 232,-305.5 238.1,-303.23 244.17,-300.51 250.15,-297.48"/>
<polygon fill="none" stroke="#63b8ff" points="33.36,-325.19 23.17,-328.1 32.95,-332.18 33.36,-325.19"/>
</a>
</g>
</g>
<!-- Node3 -->
<g id="Node000003" class="node">
<title>Node3</title>
<g id="a_Node000003"><a xlink:href="../../d1/da0/classint.html" target="_top" xlink:title=" ">
<polygon fill="white" stroke="none" points="28,-164.5 0,-164.5 0,-112.5 28,-112.5 28,-164.5"/>
<text text-anchor="start" x="5" y="-151" font-family="Cascadia Code NF" font-size="10.00">int</text>
<text text-anchor="start" x="11" y="-135" font-family="Cascadia Code NF" font-size="10.00"> </text>
<text text-anchor="start" x="11" y="-119" font-family="Cascadia Code NF" font-size="10.00"> </text>
<polygon fill="#bfbfbf" stroke="#bfbfbf" points="0,-146.5 0,-146.5 28,-146.5 28,-146.5 0,-146.5"/>
<polygon fill="#bfbfbf" stroke="#bfbfbf" points="0,-130.5 0,-130.5 28,-130.5 28,-130.5 0,-130.5"/>
<polygon fill="none" stroke="#bfbfbf" points="0,-112.5 0,-164.5 28,-164.5 28,-112.5 0,-112.5"/>
</a>
</g>
</g>
<!-- Node3&#45;&gt;Node1 -->
<g id="edge2_Node000001_Node000003" class="edge">
<title>Node3&#45;&gt;Node1</title>
<g id="a_edge2_Node000001_Node000003"><a xlink:title=" ">
<path fill="none" stroke="#63b8ff" d="M27.81,-135.54C62.25,-128.22 159.21,-111.77 232,-139.75 234.23,-140.61 236.45,-141.54 238.64,-142.53"/>
<polygon fill="none" stroke="#63b8ff" points="238.7,-142.56 245.86,-141.73 249.38,-148.03 242.22,-148.86 238.7,-142.56"/>
</a>
</g>
<text text-anchor="middle" x="139" y="-295.75" font-family="Cascadia Code NF" font-size="10.00" fill="grey"> +kColumnOffsetOffset</text>
<text text-anchor="middle" x="139" y="-283" font-family="Cascadia Code NF" font-size="10.00" fill="grey">+kColumnOffsetOffsetEnd</text>
<text text-anchor="start" x="46" y="-270.25" font-family="Cascadia Code NF" font-size="10.00" fill="grey">+kCompiledLazyFunctionPositions</text>
<text text-anchor="middle" x="139" y="-257.5" font-family="Cascadia Code NF" font-size="10.00" fill="grey">Offset</text>
<text text-anchor="start" x="46" y="-244.75" font-family="Cascadia Code NF" font-size="10.00" fill="grey">+kCompiledLazyFunctionPositions</text>
<text text-anchor="middle" x="139" y="-232" font-family="Cascadia Code NF" font-size="10.00" fill="grey">OffsetEnd</text>
<text text-anchor="middle" x="139" y="-219.25" font-family="Cascadia Code NF" font-size="10.00" fill="grey">+kContextDataOffset</text>
<text text-anchor="middle" x="139" y="-206.5" font-family="Cascadia Code NF" font-size="10.00" fill="grey">+kContextDataOffsetEnd</text>
<text text-anchor="middle" x="139" y="-193.75" font-family="Cascadia Code NF" font-size="10.00" fill="grey">+kEndOfStrongFieldsOffset</text>
<text text-anchor="middle" x="139" y="-181" font-family="Cascadia Code NF" font-size="10.00" fill="grey">+kEndOfWeakFieldsOffset</text>
<text text-anchor="middle" x="139" y="-168.25" font-family="Cascadia Code NF" font-size="10.00" fill="grey">+kEvalFromPositionOffset</text>
<text text-anchor="middle" x="139" y="-155.5" font-family="Cascadia Code NF" font-size="10.00" fill="grey">+kEvalFromPositionOffsetEnd</text>
<text text-anchor="middle" x="139" y="-142.75" font-family="Cascadia Code NF" font-size="10.00" fill="grey">...</text>
</g>
</g>
</svg>

<g id="navigator" transform="translate(0 0)" fill="#404254">
  <rect fill="#f2f5e9" fill-opacity="0.5" stroke="#606060" stroke-width=".5" x="0" y="0" width="60" height="60"/>
  <use id="zoomplus" xlink:href="#zoomPlus" x="17" y="9" onmousedown="handleZoom(evt,'in')"/>
  <use id="zoomminus" xlink:href="#zoomMin" x="42" y="9" onmousedown="handleZoom(evt,'out')"/>
  <use id="reset" xlink:href="#resetDef" x="30" y="36" onmousedown="handleReset()"/>
   <use id="arrowup" xlink:href="#arrowUp" x="0" y="0" onmousedown="handlePan(0,-1)"/>
  <use id="arrowright" xlink:href="#arrowRight" x="0" y="0" onmousedown="handlePan(1,0)"/>
  <use id="arrowdown" xlink:href="#arrowDown" x="0" y="0" onmousedown="handlePan(0,1)"/>
  <use id="arrowleft" xlink:href="#arrowLeft" x="0" y="0" onmousedown="handlePan(-1,0)"/>
</g>
<svg viewBox="0 0 15 15" width="100%" height="30px" preserveAspectRatio="xMaxYMin meet">
 <g id="arrow_out" transform="scale(0.3 0.3)">
  <a xlink:href="classTorqueGeneratedScript__coll__graph_org.svg" target="_base">
   <rect id="button" ry="5" rx="5" y="6" x="6" height="38" width="38"
        fill="#f2f5e9" fill-opacity="0.5" stroke="#606060" stroke-width="1.0"/>
   <path id="arrow"
     d="M 11.500037,31.436501 C 11.940474,20.09759 22.043105,11.32322 32.158766,21.979434 L 37.068811,17.246167 C 37.068811,17.246167 37.088388,32 37.088388,32 L 22.160133,31.978069 C 22.160133,31.978069 26.997745,27.140456 26.997745,27.140456 C 18.528582,18.264221 13.291696,25.230495 11.500037,31.436501 z"
     style="fill:#404040;"/>
  </a>
 </g>
</svg>

<style type='text/css'>
<![CDATA[
[data-mouse-over-selected='false'] { opacity: 0.7; }
[data-mouse-over-selected='true']  { opacity: 1.0; }
]]>
</style>
<script type="application/ecmascript"><![CDATA[
document.addEventListener('DOMContentLoaded', (event) => {
  highlightEdges();
  highlightAdjacentNodes();
});
]]></script>
</svg>
