<?xml version="1.0" encoding="UTF-8" standalone="no"?>
<!DOCTYPE svg PUBLIC "-//W3C//DTD SVG 1.1//EN"
 "http://www.w3.org/Graphics/SVG/1.1/DTD/svg11.dtd">
<!-- Generated by graphviz version 11.0.0 (20240428.1522)
 -->
<!-- Title: v8::internal::debug_helper_internal::TqJSGeneratorObject Pages: 1 -->
<svg width="964pt" height="246pt"
 viewBox="0.00 0.00 964.00 246.00" xmlns="http://www.w3.org/2000/svg" xmlns:xlink="http://www.w3.org/1999/xlink">
<g id="graph0" class="graph" transform="scale(1 1) rotate(0) translate(4 242)">
<title>v8::internal::debug_helper_internal::TqJSGeneratorObject</title>
<!-- Node1 -->
<g id="Node000001" class="node">
<title>Node1</title>
<g id="a_Node000001"><a xlink:title=" ">
<polygon fill="#999999" stroke="none" points="956,-238 760,-238 760,0 956,0 956,-238"/>
<text text-anchor="start" x="765" y="-224.5" font-family="Cascadia Code NF" font-size="10.00">v8::internal::debug</text>
<text text-anchor="start" x="765" y="-211.75" font-family="Cascadia Code NF" font-size="10.00">_helper_internal::TqJSGenerator</text>
<text text-anchor="start" x="840" y="-199" font-family="Cascadia Code NF" font-size="10.00">Object</text>
<text text-anchor="start" x="855" y="-182.5" font-family="Cascadia Code NF" font-size="10.00"> </text>
<text text-anchor="start" x="777" y="-166.5" font-family="Cascadia Code NF" font-size="10.00">+</text>
<text text-anchor="start" x="800" y="-166.5" font-family="Cascadia Code NF" font-size="10.00">TqJSGeneratorObject()</text>
<text text-anchor="start" x="777" y="-150.5" font-family="Cascadia Code NF" font-size="10.00">+</text>
<text text-anchor="start" x="800" y="-150.5" font-family="Cascadia Code NF" font-size="10.00">GetProperties()</text>
<text text-anchor="start" x="777" y="-134.5" font-family="Cascadia Code NF" font-size="10.00">+</text>
<text text-anchor="start" x="800" y="-134.5" font-family="Cascadia Code NF" font-size="10.00">GetName()</text>
<text text-anchor="start" x="777" y="-118.5" font-family="Cascadia Code NF" font-size="10.00">+</text>
<text text-anchor="start" x="800" y="-118.5" font-family="Cascadia Code NF" font-size="10.00">Visit()</text>
<text text-anchor="start" x="777" y="-102.5" font-family="Cascadia Code NF" font-size="10.00">+</text>
<text text-anchor="start" x="800" y="-102.5" font-family="Cascadia Code NF" font-size="10.00">IsSuperclassOf()</text>
<text text-anchor="start" x="777" y="-86.5" font-family="Cascadia Code NF" font-size="10.00">+</text>
<text text-anchor="start" x="800" y="-86.5" font-family="Cascadia Code NF" font-size="10.00">GetFunctionAddress()</text>
<text text-anchor="start" x="777" y="-70.5" font-family="Cascadia Code NF" font-size="10.00">+</text>
<text text-anchor="start" x="800" y="-70.5" font-family="Cascadia Code NF" font-size="10.00">GetFunctionValue()</text>
<text text-anchor="start" x="777" y="-54.5" font-family="Cascadia Code NF" font-size="10.00">+</text>
<text text-anchor="start" x="800" y="-54.5" font-family="Cascadia Code NF" font-size="10.00">GetContextAddress()</text>
<text text-anchor="start" x="777" y="-38.5" font-family="Cascadia Code NF" font-size="10.00">+</text>
<text text-anchor="start" x="800" y="-38.5" font-family="Cascadia Code NF" font-size="10.00">GetContextValue()</text>
<text text-anchor="start" x="777" y="-22.5" font-family="Cascadia Code NF" font-size="10.00">+</text>
<text text-anchor="start" x="800" y="-22.5" font-family="Cascadia Code NF" font-size="10.00">GetReceiverAddress()</text>
<text text-anchor="start" x="800" y="-6.5" font-family="Cascadia Code NF" font-size="10.00">and 9 more...</text>
<polygon fill="#666666" stroke="#666666" points="760,-194 760,-194 956,-194 956,-194 760,-194"/>
<polygon fill="#666666" stroke="#666666" points="760,-178 760,-178 956,-178 956,-178 760,-178"/>
<polygon fill="none" stroke="#666666" points="760,0 760,-238 956,-238 956,0 760,0"/>
</a>
</g>
</g>
<!-- Node2 -->
<g id="Node000002" class="node">
<title>Node2</title>
<g id="a_Node000002"><a xlink:href="$d9/dd7/classv8_1_1internal_1_1debug__helper__internal_1_1TqJSObject.html" xlink:title=" ">
<polygon fill="white" stroke="none" points="724,-199.5 546,-199.5 546,-38.5 724,-38.5 724,-199.5"/>
<text text-anchor="start" x="551" y="-186" font-family="Cascadia Code NF" font-size="10.00">v8::internal::debug</text>
<text text-anchor="start" x="551" y="-173.25" font-family="Cascadia Code NF" font-size="10.00">_helper_internal::TqJSObject</text>
<text text-anchor="start" x="632" y="-157" font-family="Cascadia Code NF" font-size="10.00"> </text>
<text text-anchor="start" x="560" y="-141" font-family="Cascadia Code NF" font-size="10.00">+</text>
<text text-anchor="start" x="580" y="-141" font-family="Cascadia Code NF" font-size="10.00">TqJSObject()</text>
<text text-anchor="start" x="560" y="-125" font-family="Cascadia Code NF" font-size="10.00">+</text>
<text text-anchor="start" x="580" y="-125" font-family="Cascadia Code NF" font-size="10.00">GetProperties()</text>
<text text-anchor="start" x="560" y="-109" font-family="Cascadia Code NF" font-size="10.00">+</text>
<text text-anchor="start" x="580" y="-109" font-family="Cascadia Code NF" font-size="10.00">GetName()</text>
<text text-anchor="start" x="560" y="-93" font-family="Cascadia Code NF" font-size="10.00">+</text>
<text text-anchor="start" x="580" y="-93" font-family="Cascadia Code NF" font-size="10.00">Visit()</text>
<text text-anchor="start" x="560" y="-77" font-family="Cascadia Code NF" font-size="10.00">+</text>
<text text-anchor="start" x="580" y="-77" font-family="Cascadia Code NF" font-size="10.00">IsSuperclassOf()</text>
<text text-anchor="start" x="560" y="-61" font-family="Cascadia Code NF" font-size="10.00">+</text>
<text text-anchor="start" x="580" y="-61" font-family="Cascadia Code NF" font-size="10.00">GetElementsAddress()</text>
<text text-anchor="start" x="560" y="-45" font-family="Cascadia Code NF" font-size="10.00">+</text>
<text text-anchor="start" x="580" y="-45" font-family="Cascadia Code NF" font-size="10.00">GetElementsValue()</text>
<polygon fill="#bfbfbf" stroke="#bfbfbf" points="546,-168.5 546,-168.5 724,-168.5 724,-168.5 546,-168.5"/>
<polygon fill="#bfbfbf" stroke="#bfbfbf" points="546,-152.5 546,-152.5 724,-152.5 724,-152.5 546,-152.5"/>
<polygon fill="none" stroke="#bfbfbf" points="546,-38.5 546,-199.5 724,-199.5 724,-38.5 546,-38.5"/>
</a>
</g>
</g>
<!-- Node2&#45;&gt;Node1 -->
<g id="edge1_Node000001_Node000002" class="edge">
<title>Node2&#45;&gt;Node1</title>
<g id="a_edge1_Node000001_Node000002"><a xlink:title=" ">
<path fill="none" stroke="#63b8ff" d="M735.24,-119C743.55,-119 751.95,-119 760.24,-119"/>
<polygon fill="none" stroke="#63b8ff" points="735.49,-115.5 725.49,-119 735.49,-122.5 735.49,-115.5"/>
</a>
</g>
</g>
<!-- Node3 -->
<g id="Node000003" class="node">
<title>Node3</title>
<g id="a_Node000003"><a xlink:href="$df/d7b/classv8_1_1internal_1_1debug__helper__internal_1_1TqJSReceiver.html" xlink:title=" ">
<polygon fill="white" stroke="none" points="510,-199.5 320,-199.5 320,-38.5 510,-38.5 510,-199.5"/>
<text text-anchor="start" x="325" y="-186" font-family="Cascadia Code NF" font-size="10.00">v8::internal::debug</text>
<text text-anchor="start" x="325" y="-173.25" font-family="Cascadia Code NF" font-size="10.00">_helper_internal::TqJSReceiver</text>
<text text-anchor="start" x="412" y="-157" font-family="Cascadia Code NF" font-size="10.00"> </text>
<text text-anchor="start" x="325" y="-141" font-family="Cascadia Code NF" font-size="10.00">+</text>
<text text-anchor="start" x="336" y="-141" font-family="Cascadia Code NF" font-size="10.00">TqJSReceiver()</text>
<text text-anchor="start" x="325" y="-125" font-family="Cascadia Code NF" font-size="10.00">+</text>
<text text-anchor="start" x="336" y="-125" font-family="Cascadia Code NF" font-size="10.00">GetProperties()</text>
<text text-anchor="start" x="325" y="-109" font-family="Cascadia Code NF" font-size="10.00">+</text>
<text text-anchor="start" x="336" y="-109" font-family="Cascadia Code NF" font-size="10.00">GetName()</text>
<text text-anchor="start" x="325" y="-93" font-family="Cascadia Code NF" font-size="10.00">+</text>
<text text-anchor="start" x="336" y="-93" font-family="Cascadia Code NF" font-size="10.00">Visit()</text>
<text text-anchor="start" x="325" y="-77" font-family="Cascadia Code NF" font-size="10.00">+</text>
<text text-anchor="start" x="336" y="-77" font-family="Cascadia Code NF" font-size="10.00">IsSuperclassOf()</text>
<text text-anchor="start" x="325" y="-61" font-family="Cascadia Code NF" font-size="10.00">+</text>
<text text-anchor="start" x="336" y="-61" font-family="Cascadia Code NF" font-size="10.00">GetPropertiesOrHashAddress()</text>
<text text-anchor="start" x="325" y="-45" font-family="Cascadia Code NF" font-size="10.00">+</text>
<text text-anchor="start" x="336" y="-45" font-family="Cascadia Code NF" font-size="10.00">GetPropertiesOrHashValue()</text>
<polygon fill="#bfbfbf" stroke="#bfbfbf" points="320,-168.5 320,-168.5 510,-168.5 510,-168.5 320,-168.5"/>
<polygon fill="#bfbfbf" stroke="#bfbfbf" points="320,-152.5 320,-152.5 510,-152.5 510,-152.5 320,-152.5"/>
<polygon fill="none" stroke="#bfbfbf" points="320,-38.5 320,-199.5 510,-199.5 510,-38.5 320,-38.5"/>
</a>
</g>
</g>
<!-- Node3&#45;&gt;Node2 -->
<g id="edge2_Node000002_Node000003" class="edge">
<title>Node3&#45;&gt;Node2</title>
<g id="a_edge2_Node000002_Node000003"><a xlink:title=" ">
<path fill="none" stroke="#63b8ff" d="M521.13,-119C529.53,-119 537.96,-119 546.22,-119"/>
<polygon fill="none" stroke="#63b8ff" points="521.23,-115.5 511.23,-119 521.23,-122.5 521.23,-115.5"/>
</a>
</g>
</g>
<!-- Node4 -->
<g id="Node000004" class="node">
<title>Node4</title>
<g id="a_Node000004"><a xlink:href="$db/deb/classv8_1_1internal_1_1debug__helper__internal_1_1TqHeapObject.html" xlink:title=" ">
<polygon fill="white" stroke="none" points="284,-199.5 94,-199.5 94,-38.5 284,-38.5 284,-199.5"/>
<text text-anchor="start" x="99" y="-186" font-family="Cascadia Code NF" font-size="10.00">v8::internal::debug</text>
<text text-anchor="start" x="99" y="-173.25" font-family="Cascadia Code NF" font-size="10.00">_helper_internal::TqHeapObject</text>
<text text-anchor="start" x="186" y="-157" font-family="Cascadia Code NF" font-size="10.00"> </text>
<text text-anchor="start" x="117" y="-141" font-family="Cascadia Code NF" font-size="10.00">+</text>
<text text-anchor="start" x="146" y="-141" font-family="Cascadia Code NF" font-size="10.00">TqHeapObject()</text>
<text text-anchor="start" x="117" y="-125" font-family="Cascadia Code NF" font-size="10.00">+</text>
<text text-anchor="start" x="146" y="-125" font-family="Cascadia Code NF" font-size="10.00">GetProperties()</text>
<text text-anchor="start" x="117" y="-109" font-family="Cascadia Code NF" font-size="10.00">+</text>
<text text-anchor="start" x="146" y="-109" font-family="Cascadia Code NF" font-size="10.00">GetName()</text>
<text text-anchor="start" x="117" y="-93" font-family="Cascadia Code NF" font-size="10.00">+</text>
<text text-anchor="start" x="146" y="-93" font-family="Cascadia Code NF" font-size="10.00">Visit()</text>
<text text-anchor="start" x="117" y="-77" font-family="Cascadia Code NF" font-size="10.00">+</text>
<text text-anchor="start" x="146" y="-77" font-family="Cascadia Code NF" font-size="10.00">IsSuperclassOf()</text>
<text text-anchor="start" x="117" y="-61" font-family="Cascadia Code NF" font-size="10.00">+</text>
<text text-anchor="start" x="146" y="-61" font-family="Cascadia Code NF" font-size="10.00">GetMapAddress()</text>
<text text-anchor="start" x="117" y="-45" font-family="Cascadia Code NF" font-size="10.00">+</text>
<text text-anchor="start" x="146" y="-45" font-family="Cascadia Code NF" font-size="10.00">GetMapValue()</text>
<polygon fill="#bfbfbf" stroke="#bfbfbf" points="94,-168.5 94,-168.5 284,-168.5 284,-168.5 94,-168.5"/>
<polygon fill="#bfbfbf" stroke="#bfbfbf" points="94,-152.5 94,-152.5 284,-152.5 284,-152.5 94,-152.5"/>
<polygon fill="none" stroke="#bfbfbf" points="94,-38.5 94,-199.5 284,-199.5 284,-38.5 94,-38.5"/>
</a>
</g>
</g>
<!-- Node4&#45;&gt;Node3 -->
<g id="edge3_Node000003_Node000004" class="edge">
<title>Node4&#45;&gt;Node3</title>
<g id="a_edge3_Node000003_Node000004"><a xlink:title=" ">
<path fill="none" stroke="#63b8ff" d="M295.12,-119C303.53,-119 311.99,-119 320.32,-119"/>
<polygon fill="none" stroke="#63b8ff" points="295.21,-115.5 285.21,-119 295.21,-122.5 295.21,-115.5"/>
</a>
</g>
</g>
<!-- Node5 -->
<g id="Node000005" class="node">
<title>Node5</title>
<g id="a_Node000005"><a xlink:href="$dd/d42/classTqObject.html" xlink:title=" ">
<polygon fill="white" stroke="none" points="58,-145 0,-145 0,-93 58,-93 58,-145"/>
<text text-anchor="start" x="5" y="-131.5" font-family="Cascadia Code NF" font-size="10.00">TqObject</text>
<text text-anchor="start" x="26" y="-115.5" font-family="Cascadia Code NF" font-size="10.00"> </text>
<text text-anchor="start" x="26" y="-99.5" font-family="Cascadia Code NF" font-size="10.00"> </text>
<polygon fill="#bfbfbf" stroke="#bfbfbf" points="0,-127 0,-127 58,-127 58,-127 0,-127"/>
<polygon fill="#bfbfbf" stroke="#bfbfbf" points="0,-111 0,-111 58,-111 58,-111 0,-111"/>
<polygon fill="none" stroke="#bfbfbf" points="0,-93 0,-145 58,-145 58,-93 0,-93"/>
</a>
</g>
</g>
<!-- Node5&#45;&gt;Node4 -->
<g id="edge4_Node000004_Node000005" class="edge">
<title>Node5&#45;&gt;Node4</title>
<g id="a_edge4_Node000004_Node000005"><a xlink:title=" ">
<path fill="none" stroke="#63b8ff" d="M69.34,-119C77.03,-119 85.39,-119 94,-119"/>
<polygon fill="none" stroke="#63b8ff" points="69.4,-115.5 59.4,-119 69.4,-122.5 69.4,-115.5"/>
</a>
</g>
</g>
</g>
</svg>
