<?xml version="1.0" encoding="UTF-8" standalone="no"?>
<!DOCTYPE svg PUBLIC "-//W3C//DTD SVG 1.1//EN"
 "http://www.w3.org/Graphics/SVG/1.1/DTD/svg11.dtd">
<!-- Generated by graphviz version 11.0.0 (20240428.1522)
 -->
<!-- Title: v8::internal::EmbedderRootNode Pages: 1 -->
<svg width="584pt" height="252pt"
 viewBox="0.00 0.00 584.00 252.00" xmlns="http://www.w3.org/2000/svg" xmlns:xlink="http://www.w3.org/1999/xlink">
<g id="graph0" class="graph" transform="scale(1 1) rotate(0) translate(4 248)">
<title>v8::internal::EmbedderRootNode</title>
<!-- Node1 -->
<g id="Node000001" class="node">
<title>Node1</title>
<g id="a_Node000001"><a xlink:title=" ">
<polygon fill="#999999" stroke="none" points="576,-164 386,-164 386,-80 576,-80 576,-164"/>
<text text-anchor="start" x="391" y="-150.5" font-family="Cascadia Code NF" font-size="10.00">v8::internal::EmbedderRootNode</text>
<text text-anchor="start" x="478" y="-134.5" font-family="Cascadia Code NF" font-size="10.00"> </text>
<text text-anchor="start" x="404.5" y="-118.5" font-family="Cascadia Code NF" font-size="10.00">+</text>
<text text-anchor="start" x="429" y="-118.5" font-family="Cascadia Code NF" font-size="10.00">EmbedderRootNode()</text>
<text text-anchor="start" x="404.5" y="-102.5" font-family="Cascadia Code NF" font-size="10.00">+</text>
<text text-anchor="start" x="429" y="-102.5" font-family="Cascadia Code NF" font-size="10.00">~EmbedderRootNode()</text>
<text text-anchor="start" x="404.5" y="-86.5" font-family="Cascadia Code NF" font-size="10.00">+</text>
<text text-anchor="start" x="429" y="-86.5" font-family="Cascadia Code NF" font-size="10.00">IsRootNode()</text>
<polygon fill="#666666" stroke="#666666" points="386,-146 386,-146 576,-146 576,-146 386,-146"/>
<polygon fill="#666666" stroke="#666666" points="386,-130 386,-130 576,-130 576,-130 386,-130"/>
<polygon fill="none" stroke="#666666" points="386,-80 386,-164 576,-164 576,-80 386,-80"/>
</a>
</g>
</g>
<!-- Node2 -->
<g id="Node000002" class="node">
<title>Node2</title>
<g id="a_Node000002"><a xlink:href="$dc/d24/classv8_1_1internal_1_1EmbedderNode.html" xlink:title=" ">
<polygon fill="white" stroke="none" points="350,-220 184,-220 184,-24 350,-24 350,-220"/>
<text text-anchor="start" x="189" y="-206.5" font-family="Cascadia Code NF" font-size="10.00">v8::internal::EmbedderNode</text>
<text text-anchor="start" x="264" y="-190.5" font-family="Cascadia Code NF" font-size="10.00"> </text>
<text text-anchor="start" x="193.5" y="-174.5" font-family="Cascadia Code NF" font-size="10.00">+</text>
<text text-anchor="start" x="209" y="-174.5" font-family="Cascadia Code NF" font-size="10.00">EmbedderNode()</text>
<text text-anchor="start" x="193.5" y="-158.5" font-family="Cascadia Code NF" font-size="10.00">+</text>
<text text-anchor="start" x="209" y="-158.5" font-family="Cascadia Code NF" font-size="10.00">~EmbedderNode()</text>
<text text-anchor="start" x="193.5" y="-142.5" font-family="Cascadia Code NF" font-size="10.00">+</text>
<text text-anchor="start" x="209" y="-142.5" font-family="Cascadia Code NF" font-size="10.00">Name()</text>
<text text-anchor="start" x="193.5" y="-126.5" font-family="Cascadia Code NF" font-size="10.00">+</text>
<text text-anchor="start" x="209" y="-126.5" font-family="Cascadia Code NF" font-size="10.00">SizeInBytes()</text>
<text text-anchor="start" x="193.5" y="-110.5" font-family="Cascadia Code NF" font-size="10.00">+</text>
<text text-anchor="start" x="209" y="-110.5" font-family="Cascadia Code NF" font-size="10.00">SetWrapperNode()</text>
<text text-anchor="start" x="193.5" y="-94.5" font-family="Cascadia Code NF" font-size="10.00">+</text>
<text text-anchor="start" x="209" y="-94.5" font-family="Cascadia Code NF" font-size="10.00">WrapperNode()</text>
<text text-anchor="start" x="193.5" y="-78.5" font-family="Cascadia Code NF" font-size="10.00">+</text>
<text text-anchor="start" x="209" y="-78.5" font-family="Cascadia Code NF" font-size="10.00">SetDetachedness()</text>
<text text-anchor="start" x="193.5" y="-62.5" font-family="Cascadia Code NF" font-size="10.00">+</text>
<text text-anchor="start" x="209" y="-62.5" font-family="Cascadia Code NF" font-size="10.00">GetDetachedness()</text>
<text text-anchor="start" x="193.5" y="-46.5" font-family="Cascadia Code NF" font-size="10.00">+</text>
<text text-anchor="start" x="209" y="-46.5" font-family="Cascadia Code NF" font-size="10.00">InternalizeEdgeName()</text>
<text text-anchor="start" x="193.5" y="-30.5" font-family="Cascadia Code NF" font-size="10.00">+</text>
<text text-anchor="start" x="209" y="-30.5" font-family="Cascadia Code NF" font-size="10.00">GetAddress()</text>
<polygon fill="#bfbfbf" stroke="#bfbfbf" points="184,-202 184,-202 350,-202 350,-202 184,-202"/>
<polygon fill="#bfbfbf" stroke="#bfbfbf" points="184,-186 184,-186 350,-186 350,-186 184,-186"/>
<polygon fill="none" stroke="#bfbfbf" points="184,-24 184,-220 350,-220 350,-24 184,-24"/>
</a>
</g>
</g>
<!-- Node2&#45;&gt;Node1 -->
<g id="edge1_Node000001_Node000002" class="edge">
<title>Node2&#45;&gt;Node1</title>
<g id="a_edge1_Node000001_Node000002"><a xlink:title=" ">
<path fill="none" stroke="#63b8ff" d="M361.21,-122C369.52,-122 377.94,-122 386.25,-122"/>
<polygon fill="none" stroke="#63b8ff" points="361.48,-118.5 351.48,-122 361.48,-125.5 361.48,-118.5"/>
</a>
</g>
</g>
<!-- Node3 -->
<g id="Node000003" class="node">
<title>Node3</title>
<g id="a_Node000003"><a xlink:href="$da/d62/classv8_1_1EmbedderGraph_1_1Node.html" xlink:title=" ">
<polygon fill="white" stroke="none" points="148,-244 0,-244 0,0 148,0 148,-244"/>
<text text-anchor="start" x="5" y="-230.5" font-family="Cascadia Code NF" font-size="10.00">v8::EmbedderGraph::Node</text>
<text text-anchor="start" x="71" y="-214.5" font-family="Cascadia Code NF" font-size="10.00"> </text>
<text text-anchor="start" x="11" y="-198.5" font-family="Cascadia Code NF" font-size="10.00">+</text>
<text text-anchor="start" x="28" y="-198.5" font-family="Cascadia Code NF" font-size="10.00">Node()</text>
<text text-anchor="start" x="11" y="-182.5" font-family="Cascadia Code NF" font-size="10.00">+</text>
<text text-anchor="start" x="28" y="-182.5" font-family="Cascadia Code NF" font-size="10.00">~Node()</text>
<text text-anchor="start" x="11" y="-166.5" font-family="Cascadia Code NF" font-size="10.00">+</text>
<text text-anchor="start" x="28" y="-166.5" font-family="Cascadia Code NF" font-size="10.00">Name()</text>
<text text-anchor="start" x="11" y="-150.5" font-family="Cascadia Code NF" font-size="10.00">+</text>
<text text-anchor="start" x="28" y="-150.5" font-family="Cascadia Code NF" font-size="10.00">SizeInBytes()</text>
<text text-anchor="start" x="11" y="-134.5" font-family="Cascadia Code NF" font-size="10.00">+</text>
<text text-anchor="start" x="28" y="-134.5" font-family="Cascadia Code NF" font-size="10.00">WrapperNode()</text>
<text text-anchor="start" x="11" y="-118.5" font-family="Cascadia Code NF" font-size="10.00">+</text>
<text text-anchor="start" x="28" y="-118.5" font-family="Cascadia Code NF" font-size="10.00">IsRootNode()</text>
<text text-anchor="start" x="11" y="-102.5" font-family="Cascadia Code NF" font-size="10.00">+</text>
<text text-anchor="start" x="28" y="-102.5" font-family="Cascadia Code NF" font-size="10.00">IsEmbedderNode()</text>
<text text-anchor="start" x="11" y="-86.5" font-family="Cascadia Code NF" font-size="10.00">+</text>
<text text-anchor="start" x="28" y="-86.5" font-family="Cascadia Code NF" font-size="10.00">NamePrefix()</text>
<text text-anchor="start" x="11" y="-70.5" font-family="Cascadia Code NF" font-size="10.00">+</text>
<text text-anchor="start" x="28" y="-70.5" font-family="Cascadia Code NF" font-size="10.00">GetNativeObject()</text>
<text text-anchor="start" x="11" y="-54.5" font-family="Cascadia Code NF" font-size="10.00">+</text>
<text text-anchor="start" x="28" y="-54.5" font-family="Cascadia Code NF" font-size="10.00">GetDetachedness()</text>
<text text-anchor="start" x="11" y="-38.5" font-family="Cascadia Code NF" font-size="10.00">+</text>
<text text-anchor="start" x="28" y="-38.5" font-family="Cascadia Code NF" font-size="10.00">GetAddress()</text>
<text text-anchor="start" x="11" y="-22.5" font-family="Cascadia Code NF" font-size="10.00">+</text>
<text text-anchor="start" x="28" y="-22.5" font-family="Cascadia Code NF" font-size="10.00">Node()</text>
<text text-anchor="start" x="11" y="-6.5" font-family="Cascadia Code NF" font-size="10.00">+</text>
<text text-anchor="start" x="28" y="-6.5" font-family="Cascadia Code NF" font-size="10.00">operator=()</text>
<polygon fill="#bfbfbf" stroke="#bfbfbf" points="0,-226 0,-226 148,-226 148,-226 0,-226"/>
<polygon fill="#bfbfbf" stroke="#bfbfbf" points="0,-210 0,-210 148,-210 148,-210 0,-210"/>
<polygon fill="none" stroke="#bfbfbf" points="0,0 0,-244 148,-244 148,0 0,0"/>
</a>
</g>
</g>
<!-- Node3&#45;&gt;Node2 -->
<g id="edge2_Node000002_Node000003" class="edge">
<title>Node3&#45;&gt;Node2</title>
<g id="a_edge2_Node000002_Node000003"><a xlink:title=" ">
<path fill="none" stroke="#63b8ff" d="M159.04,-122C167.4,-122 175.87,-122 184.19,-122"/>
<polygon fill="none" stroke="#63b8ff" points="159.27,-118.5 149.27,-122 159.27,-125.5 159.27,-118.5"/>
</a>
</g>
</g>
</g>
</svg>
