<?xml version="1.0" encoding="UTF-8" standalone="no"?>
<!DOCTYPE svg PUBLIC "-//W3C//DTD SVG 1.1//EN"
 "http://www.w3.org/Graphics/SVG/1.1/DTD/svg11.dtd">
<!-- Generated by graphviz version 11.0.0 (20240428.1522)
 -->
<!-- Title: TorqueGeneratedJSSegmenter&lt; D, P &gt; Pages: 1 -->
<svg width="420pt" height="265pt"
 viewBox="0.00 0.00 420.00 265.00" xmlns="http://www.w3.org/2000/svg" xmlns:xlink="http://www.w3.org/1999/xlink">
<g id="graph0" class="graph" transform="scale(1 1) rotate(0) translate(4 261)">
<title>TorqueGeneratedJSSegmenter&lt; D, P &gt;</title>
<!-- Node1 -->
<g id="Node000001" class="node">
<title>Node1</title>
<g id="a_Node000001"><a xlink:title=" ">
<polygon fill="#999999" stroke="none" points="412,-257 226,-257 226,0 412,0 412,-257"/>
<text text-anchor="start" x="241" y="-243.5" font-family="Cascadia Code NF" font-size="10.00">TorqueGeneratedJSSegmenter</text>
<text text-anchor="start" x="295" y="-230.75" font-family="Cascadia Code NF" font-size="10.00">&lt; D, P &gt;</text>
<text text-anchor="start" x="230" y="-214.5" font-family="Cascadia Code NF" font-size="10.00">+</text>
<text text-anchor="start" x="240" y="-214.5" font-family="Cascadia Code NF" font-size="10.00">kStartOfWeakFieldsOffset</text>
<text text-anchor="start" x="230" y="-198.5" font-family="Cascadia Code NF" font-size="10.00">+</text>
<text text-anchor="start" x="240" y="-198.5" font-family="Cascadia Code NF" font-size="10.00">locale()</text>
<text text-anchor="start" x="230" y="-182.5" font-family="Cascadia Code NF" font-size="10.00">+</text>
<text text-anchor="start" x="240" y="-182.5" font-family="Cascadia Code NF" font-size="10.00">locale()</text>
<text text-anchor="start" x="230" y="-166.5" font-family="Cascadia Code NF" font-size="10.00">+</text>
<text text-anchor="start" x="240" y="-166.5" font-family="Cascadia Code NF" font-size="10.00">set_locale()</text>
<text text-anchor="start" x="230" y="-150.5" font-family="Cascadia Code NF" font-size="10.00">+</text>
<text text-anchor="start" x="240" y="-150.5" font-family="Cascadia Code NF" font-size="10.00">icu_break_iterator()</text>
<text text-anchor="start" x="230" y="-134.5" font-family="Cascadia Code NF" font-size="10.00">+</text>
<text text-anchor="start" x="240" y="-134.5" font-family="Cascadia Code NF" font-size="10.00">icu_break_iterator()</text>
<text text-anchor="start" x="230" y="-118.5" font-family="Cascadia Code NF" font-size="10.00">+</text>
<text text-anchor="start" x="240" y="-118.5" font-family="Cascadia Code NF" font-size="10.00">set_icu_break_iterator()</text>
<text text-anchor="start" x="230" y="-102.5" font-family="Cascadia Code NF" font-size="10.00">+</text>
<text text-anchor="start" x="240" y="-102.5" font-family="Cascadia Code NF" font-size="10.00">flags()</text>
<text text-anchor="start" x="230" y="-86.5" font-family="Cascadia Code NF" font-size="10.00">+</text>
<text text-anchor="start" x="240" y="-86.5" font-family="Cascadia Code NF" font-size="10.00">set_flags()</text>
<text text-anchor="start" x="230" y="-70.5" font-family="Cascadia Code NF" font-size="10.00">+</text>
<text text-anchor="start" x="240" y="-70.5" font-family="Cascadia Code NF" font-size="10.00">TorqueGeneratedJSSegmenter()</text>
<text text-anchor="start" x="230" y="-54.5" font-family="Cascadia Code NF" font-size="10.00">+</text>
<text text-anchor="start" x="240" y="-54.5" font-family="Cascadia Code NF" font-size="10.00">cast()</text>
<text text-anchor="start" x="230" y="-38.5" font-family="Cascadia Code NF" font-size="10.00">+</text>
<text text-anchor="start" x="240" y="-38.5" font-family="Cascadia Code NF" font-size="10.00">unchecked_cast()</text>
<text text-anchor="start" x="230" y="-22.5" font-family="Cascadia Code NF" font-size="10.00">#</text>
<text text-anchor="start" x="240" y="-22.5" font-family="Cascadia Code NF" font-size="10.00">TorqueGeneratedJSSegmenter()</text>
<text text-anchor="start" x="230" y="-6.5" font-family="Cascadia Code NF" font-size="10.00">#</text>
<text text-anchor="start" x="240" y="-6.5" font-family="Cascadia Code NF" font-size="10.00">TorqueGeneratedJSSegmenter()</text>
<polygon fill="#666666" stroke="#666666" points="226,-226 226,-226 412,-226 412,-226 226,-226"/>
<polygon fill="#666666" stroke="#666666" points="226,-210 226,-210 238,-210 238,-210 226,-210"/>
<polygon fill="#666666" stroke="#666666" points="238,-210 238,-210 412,-210 412,-210 238,-210"/>
<polygon fill="none" stroke="#666666" points="226,0 226,-257 412,-257 412,0 226,0"/>
</a>
</g>
</g>
<!-- Node2 -->
<g id="Node000002" class="node">
<title>Node2</title>
<g id="a_Node000002"><a xlink:href="$db/d72/classP.html" xlink:title=" ">
<polygon fill="white" stroke="none" points="22,-236.5 6,-236.5 6,-184.5 22,-184.5 22,-236.5"/>
<text text-anchor="start" x="11" y="-223" font-family="Cascadia Code NF" font-size="10.00">P</text>
<text text-anchor="start" x="11" y="-207" font-family="Cascadia Code NF" font-size="10.00"> </text>
<text text-anchor="start" x="11" y="-191" font-family="Cascadia Code NF" font-size="10.00"> </text>
<polygon fill="#bfbfbf" stroke="#bfbfbf" points="6,-218.5 6,-218.5 22,-218.5 22,-218.5 6,-218.5"/>
<polygon fill="#bfbfbf" stroke="#bfbfbf" points="6,-202.5 6,-202.5 22,-202.5 22,-202.5 6,-202.5"/>
<polygon fill="none" stroke="#bfbfbf" points="6,-184.5 6,-236.5 22,-236.5 22,-184.5 6,-184.5"/>
</a>
</g>
</g>
<!-- Node2&#45;&gt;Node1 -->
<g id="edge1_Node000001_Node000002" class="edge">
<title>Node2&#45;&gt;Node1</title>
<g id="a_edge1_Node000001_Node000002"><a xlink:title=" ">
<path fill="none" stroke="#63b8ff" d="M33.33,-210.73C68.2,-210.65 146.12,-208.08 208,-188.5 214.01,-186.6 220.08,-184.36 226.1,-181.88"/>
<polygon fill="none" stroke="#63b8ff" points="33.4,-207.23 23.38,-210.66 33.35,-214.23 33.4,-207.23"/>
</a>
</g>
</g>
<!-- Node3 -->
<g id="Node000003" class="node">
<title>Node3</title>
<g id="a_Node000003"><a xlink:href="$d1/da0/classint.html" xlink:title=" ">
<polygon fill="white" stroke="none" points="28,-73.5 0,-73.5 0,-21.5 28,-21.5 28,-73.5"/>
<text text-anchor="start" x="5" y="-60" font-family="Cascadia Code NF" font-size="10.00">int</text>
<text text-anchor="start" x="11" y="-44" font-family="Cascadia Code NF" font-size="10.00"> </text>
<text text-anchor="start" x="11" y="-28" font-family="Cascadia Code NF" font-size="10.00"> </text>
<polygon fill="#bfbfbf" stroke="#bfbfbf" points="0,-55.5 0,-55.5 28,-55.5 28,-55.5 0,-55.5"/>
<polygon fill="#bfbfbf" stroke="#bfbfbf" points="0,-39.5 0,-39.5 28,-39.5 28,-39.5 0,-39.5"/>
<polygon fill="none" stroke="#bfbfbf" points="0,-21.5 0,-73.5 28,-73.5 28,-21.5 0,-21.5"/>
</a>
</g>
</g>
<!-- Node3&#45;&gt;Node1 -->
<g id="edge2_Node000001_Node000003" class="edge">
<title>Node3&#45;&gt;Node1</title>
<g id="a_edge2_Node000001_Node000003"><a xlink:title=" ">
<path fill="none" stroke="#63b8ff" d="M27.62,-44.94C59.06,-39.12 143.05,-26.94 208,-48.25 210.12,-48.95 212.24,-49.7 214.35,-50.51"/>
<polygon fill="none" stroke="#63b8ff" points="214.46,-50.56 221.55,-49.26 225.47,-55.32 218.38,-56.61 214.46,-50.56"/>
</a>
</g>
<text text-anchor="middle" x="127" y="-178.25" font-family="Cascadia Code NF" font-size="10.00" fill="grey"> +kEndOfStrongFieldsOffset</text>
<text text-anchor="middle" x="127" y="-165.5" font-family="Cascadia Code NF" font-size="10.00" fill="grey">+kEndOfWeakFieldsOffset</text>
<text text-anchor="middle" x="127" y="-152.75" font-family="Cascadia Code NF" font-size="10.00" fill="grey">+kFlagsOffset</text>
<text text-anchor="middle" x="127" y="-140" font-family="Cascadia Code NF" font-size="10.00" fill="grey">+kFlagsOffsetEnd</text>
<text text-anchor="middle" x="127" y="-127.25" font-family="Cascadia Code NF" font-size="10.00" fill="grey">+kHeaderSize</text>
<text text-anchor="middle" x="127" y="-114.5" font-family="Cascadia Code NF" font-size="10.00" fill="grey">+kIcuBreakIteratorOffset</text>
<text text-anchor="middle" x="127" y="-101.75" font-family="Cascadia Code NF" font-size="10.00" fill="grey">+kIcuBreakIteratorOffsetEnd</text>
<text text-anchor="middle" x="127" y="-89" font-family="Cascadia Code NF" font-size="10.00" fill="grey">+kLocaleOffset</text>
<text text-anchor="middle" x="127" y="-76.25" font-family="Cascadia Code NF" font-size="10.00" fill="grey">+kLocaleOffsetEnd</text>
<text text-anchor="middle" x="127" y="-63.5" font-family="Cascadia Code NF" font-size="10.00" fill="grey">+kStartOfStrongFieldsOffset</text>
<text text-anchor="middle" x="127" y="-50.75" font-family="Cascadia Code NF" font-size="10.00" fill="grey">...</text>
</g>
</g>
</svg>
