<?xml version="1.0" encoding="UTF-8" standalone="no"?>
<!DOCTYPE svg PUBLIC "-//W3C//DTD SVG 1.1//EN"
 "http://www.w3.org/Graphics/SVG/1.1/DTD/svg11.dtd">
<!-- Generated by graphviz version 11.0.0 (20240428.1522)
 -->
<!-- Title: v8::internal::HeapObjectToIndexHashMap Pages: 1 -->
<svg width="888pt" height="287pt"
 viewBox="0.00 0.00 888.00 287.00" xmlns="http://www.w3.org/2000/svg" xmlns:xlink="http://www.w3.org/1999/xlink">
<g id="graph0" class="graph" transform="scale(1 1) rotate(0) translate(4 283)">
<title>v8::internal::HeapObjectToIndexHashMap</title>
<!-- Node1 -->
<g id="Node000001" class="node">
<title>Node1</title>
<g id="a_Node000001"><a xlink:title=" ">
<polygon fill="#999999" stroke="none" points="880,-172 726,-172 726,-107 880,-107 880,-172"/>
<text text-anchor="start" x="731" y="-158.5" font-family="Cascadia Code NF" font-size="10.00">v8::internal::HeapObject</text>
<text text-anchor="start" x="761" y="-145.75" font-family="Cascadia Code NF" font-size="10.00">ToIndexHashMap</text>
<text text-anchor="start" x="800" y="-129.5" font-family="Cascadia Code NF" font-size="10.00"> </text>
<text text-anchor="start" x="800" y="-113.5" font-family="Cascadia Code NF" font-size="10.00"> </text>
<polygon fill="#666666" stroke="#666666" points="726,-141 726,-141 880,-141 880,-141 726,-141"/>
<polygon fill="#666666" stroke="#666666" points="726,-125 726,-125 880,-125 880,-125 726,-125"/>
<polygon fill="none" stroke="#666666" points="726,-107 726,-172 880,-172 880,-107 726,-107"/>
</a>
</g>
</g>
<!-- Node2 -->
<g id="Node000002" class="node">
<title>Node2</title>
<g id="a_Node000002"><a xlink:href="../../d3/d1b/classv8_1_1internal_1_1PointerToIndexHashMap.html" target="_top" xlink:title=" ">
<polygon fill="white" stroke="none" points="690,-180 494,-180 494,-99 690,-99 690,-180"/>
<text text-anchor="start" x="499" y="-166.5" font-family="Cascadia Code NF" font-size="10.00">v8::internal::PointerToIndex</text>
<text text-anchor="start" x="499" y="-153.75" font-family="Cascadia Code NF" font-size="10.00">HashMap&lt; Tagged&lt; HeapObject &gt; &gt;</text>
<text text-anchor="start" x="589" y="-137.5" font-family="Cascadia Code NF" font-size="10.00"> </text>
<text text-anchor="start" x="535" y="-121.5" font-family="Cascadia Code NF" font-size="10.00">+</text>
<text text-anchor="start" x="582" y="-121.5" font-family="Cascadia Code NF" font-size="10.00">Set()</text>
<text text-anchor="start" x="535" y="-105.5" font-family="Cascadia Code NF" font-size="10.00">+</text>
<text text-anchor="start" x="582" y="-105.5" font-family="Cascadia Code NF" font-size="10.00">Get()</text>
<polygon fill="#bfbfbf" stroke="#bfbfbf" points="494,-149 494,-149 690,-149 690,-149 494,-149"/>
<polygon fill="#bfbfbf" stroke="#bfbfbf" points="494,-133 494,-133 690,-133 690,-133 494,-133"/>
<polygon fill="none" stroke="#bfbfbf" points="494,-99 494,-180 690,-180 690,-99 494,-99"/>
</a>
</g>
</g>
<!-- Node2&#45;&gt;Node1 -->
<g id="edge1_Node000001_Node000002" class="edge">
<title>Node2&#45;&gt;Node1</title>
<g id="a_edge1_Node000001_Node000002"><a xlink:title=" ">
<path fill="none" stroke="#63b8ff" d="M701.28,-139.5C709.67,-139.5 718.02,-139.5 726.12,-139.5"/>
<polygon fill="none" stroke="#63b8ff" points="701.37,-136 691.37,-139.5 701.37,-143 701.37,-136"/>
</a>
</g>
</g>
<!-- Node3 -->
<g id="Node000003" class="node">
<title>Node3</title>
<g id="a_Node000003"><a xlink:href="../../d2/dcd/classv8_1_1base_1_1TemplateHashMapImpl.html" target="_top" xlink:title=" ">
<polygon fill="white" stroke="none" points="458,-279 226,-279 226,0 458,0 458,-279"/>
<text text-anchor="start" x="231" y="-265.5" font-family="Cascadia Code NF" font-size="10.00">v8::base::TemplateHashMap</text>
<text text-anchor="start" x="231" y="-252.75" font-family="Cascadia Code NF" font-size="10.00">Impl&lt; uintptr_t, uint32</text>
<text text-anchor="start" x="231" y="-240" font-family="Cascadia Code NF" font-size="10.00">_t, base::KeyEqualityMatcher</text>
<text text-anchor="start" x="231" y="-227.25" font-family="Cascadia Code NF" font-size="10.00">&lt; intptr_t &gt;, base::DefaultAllocation</text>
<text text-anchor="start" x="318" y="-214.5" font-family="Cascadia Code NF" font-size="10.00">Policy &gt;</text>
<text text-anchor="start" x="339" y="-198.5" font-family="Cascadia Code NF" font-size="10.00"> </text>
<text text-anchor="start" x="250.5" y="-182.5" font-family="Cascadia Code NF" font-size="10.00">+</text>
<text text-anchor="start" x="281" y="-182.5" font-family="Cascadia Code NF" font-size="10.00">TemplateHashMapImpl()</text>
<text text-anchor="start" x="250.5" y="-166.5" font-family="Cascadia Code NF" font-size="10.00">+</text>
<text text-anchor="start" x="281" y="-166.5" font-family="Cascadia Code NF" font-size="10.00">TemplateHashMapImpl()</text>
<text text-anchor="start" x="250.5" y="-150.5" font-family="Cascadia Code NF" font-size="10.00">+</text>
<text text-anchor="start" x="281" y="-150.5" font-family="Cascadia Code NF" font-size="10.00">TemplateHashMapImpl()</text>
<text text-anchor="start" x="250.5" y="-134.5" font-family="Cascadia Code NF" font-size="10.00">+</text>
<text text-anchor="start" x="281" y="-134.5" font-family="Cascadia Code NF" font-size="10.00">TemplateHashMapImpl()</text>
<text text-anchor="start" x="250.5" y="-118.5" font-family="Cascadia Code NF" font-size="10.00">+</text>
<text text-anchor="start" x="281" y="-118.5" font-family="Cascadia Code NF" font-size="10.00">operator=()</text>
<text text-anchor="start" x="250.5" y="-102.5" font-family="Cascadia Code NF" font-size="10.00">+</text>
<text text-anchor="start" x="281" y="-102.5" font-family="Cascadia Code NF" font-size="10.00">operator=()</text>
<text text-anchor="start" x="250.5" y="-86.5" font-family="Cascadia Code NF" font-size="10.00">+</text>
<text text-anchor="start" x="281" y="-86.5" font-family="Cascadia Code NF" font-size="10.00">~TemplateHashMapImpl()</text>
<text text-anchor="start" x="250.5" y="-70.5" font-family="Cascadia Code NF" font-size="10.00">+</text>
<text text-anchor="start" x="281" y="-70.5" font-family="Cascadia Code NF" font-size="10.00">Lookup()</text>
<text text-anchor="start" x="250.5" y="-54.5" font-family="Cascadia Code NF" font-size="10.00">+</text>
<text text-anchor="start" x="281" y="-54.5" font-family="Cascadia Code NF" font-size="10.00">LookupOrInsert()</text>
<text text-anchor="start" x="250.5" y="-38.5" font-family="Cascadia Code NF" font-size="10.00">+</text>
<text text-anchor="start" x="281" y="-38.5" font-family="Cascadia Code NF" font-size="10.00">LookupOrInsert()</text>
<text text-anchor="start" x="281" y="-22.5" font-family="Cascadia Code NF" font-size="10.00">and 10 more...</text>
<text text-anchor="start" x="250.5" y="-6.5" font-family="Cascadia Code NF" font-size="10.00">#</text>
<text text-anchor="start" x="281" y="-6.5" font-family="Cascadia Code NF" font-size="10.00">Initialize()</text>
<polygon fill="#bfbfbf" stroke="#bfbfbf" points="226,-210 226,-210 458,-210 458,-210 226,-210"/>
<polygon fill="#bfbfbf" stroke="#bfbfbf" points="226,-194 226,-194 458,-194 458,-194 226,-194"/>
<polygon fill="none" stroke="#bfbfbf" points="226,0 226,-279 458,-279 458,0 226,0"/>
</a>
</g>
</g>
<!-- Node3&#45;&gt;Node2 -->
<g id="edge2_Node000002_Node000003" class="edge">
<title>Node3&#45;&gt;Node2</title>
<g id="a_edge2_Node000002_Node000003"><a xlink:title=" ">
<path fill="none" stroke="#63b8ff" d="M469.35,-139.5C477.73,-139.5 486.1,-139.5 494.3,-139.5"/>
<polygon fill="none" stroke="#63b8ff" points="469.44,-136 459.44,-139.5 469.44,-143 469.44,-136"/>
</a>
</g>
</g>
<!-- Node4 -->
<g id="Node000004" class="node">
<title>Node4</title>
<g id="a_Node000004"><a xlink:title=" ">
<polygon fill="white" stroke="none" points="40,-165.5 0,-165.5 0,-113.5 40,-113.5 40,-165.5"/>
<text text-anchor="start" x="5" y="-152" font-family="Cascadia Code NF" font-size="10.00">const</text>
<text text-anchor="start" x="17" y="-136" font-family="Cascadia Code NF" font-size="10.00"> </text>
<text text-anchor="start" x="17" y="-120" font-family="Cascadia Code NF" font-size="10.00"> </text>
<polygon fill="#bfbfbf" stroke="#bfbfbf" points="0,-147.5 0,-147.5 40,-147.5 40,-147.5 0,-147.5"/>
<polygon fill="#bfbfbf" stroke="#bfbfbf" points="0,-131.5 0,-131.5 40,-131.5 40,-131.5 0,-131.5"/>
<polygon fill="none" stroke="#bfbfbf" points="0,-113.5 0,-165.5 40,-165.5 40,-113.5 0,-113.5"/>
</a>
</g>
</g>
<!-- Node4&#45;&gt;Node3 -->
<g id="edge3_Node000003_Node000004" class="edge">
<title>Node4&#45;&gt;Node3</title>
<g id="a_edge3_Node000003_Node000004"><a xlink:title=" ">
<path fill="none" stroke="#63b8ff" d="M39.59,-139.5C73.3,-139.5 147.16,-139.5 213.33,-139.5"/>
<polygon fill="none" stroke="#63b8ff" points="213.11,-139.5 219.11,-135.5 225.11,-139.5 219.11,-143.5 213.11,-139.5"/>
</a>
</g>
<text text-anchor="middle" x="133" y="-142.75" font-family="Cascadia Code NF" font-size="10.00" fill="grey"> +kDefaultHashMapCapacity</text>
</g>
</g>
</svg>
