<?xml version="1.0" encoding="UTF-8" standalone="no"?>
<!DOCTYPE svg PUBLIC "-//W3C//DTD SVG 1.1//EN"
 "http://www.w3.org/Graphics/SVG/1.1/DTD/svg11.dtd">
<!-- Generated by graphviz version 11.0.0 (20240428.1522)
 -->
<!-- Title: v8::internal::maglev::DeoptFrame Pages: 1 -->
<!--zoomable 717 -->

<svg id="main" version="1.1" xmlns="http://www.w3.org/2000/svg" xmlns:xlink="http://www.w3.org/1999/xlink" xml:space="preserve" onload="init(evt)">
<style type="text/css"><![CDATA[
.node, .edge {opacity: 0.7;}
.node.selected, .edge.selected {opacity: 1;}
.edge:hover path { stroke: red; }
.edge:hover polygon { stroke: red; fill: red; }
svg#main { background-color: #111; }
]]></style>

<defs>
  <circle id="rim" cx="0" cy="0" r="7"/>
  <circle id="rim2" cx="0" cy="0" r="3.5"/>
  <g id="zoomPlus">
    <use xlink:href="#rim" fill="#404040"><set attributeName="fill" to="#808080" begin="zoomplus.mouseover" end="zoomplus.mouseout"/></use>
    <path d="M-4,0h8M0,-4v8" fill="none" stroke="white" stroke-width="1.5" pointer-events="none"/>
  </g>
  <g id="zoomMin">
    <use xlink:href="#rim" fill="#404040"><set attributeName="fill" to="#808080" begin="zoomminus.mouseover" end="zoomminus.mouseout"/></use>
    <path d="M-4,0h8" fill="none" stroke="white" stroke-width="1.5" pointer-events="none"/>
  </g>
  <g id="arrowUp" transform="translate(30 24)">
    <use xlink:href="#rim"/>
    <path pointer-events="none" fill="none" stroke="white" stroke-width="1.5" d="M0,-3.0v7 M-2.5,-0.5L0,-3.0L2.5,-0.5"/>
  </g>
  <g id="arrowRight" transform="rotate(90) translate(36 -43)">
    <use xlink:href="#rim"/>
    <path pointer-events="none" fill="none" stroke="white" stroke-width="1.5" d="M0,-3.0v7 M-2.5,-0.5L0,-3.0L2.5,-0.5"/>
  </g>
  <g id="arrowDown" transform="rotate(180) translate(-30 -48)">
    <use xlink:href="#rim"/>
    <path pointer-events="none" fill="none" stroke="white" stroke-width="1.5" d="M0,-3.0v7 M-2.5,-0.5L0,-3.0L2.5,-0.5"/>
  </g>
  <g id="arrowLeft" transform="rotate(270) translate(-36 17)">
    <use xlink:href="#rim"/>
    <path pointer-events="none" fill="none" stroke="white" stroke-width="1.5" d="M0,-3.0v7 M-2.5,-0.5L0,-3.0L2.5,-0.5"/>
  </g>
  <g id="resetDef">
    <use xlink:href="#rim2" fill="#404040"><set attributeName="fill" to="#808080" begin="reset.mouseover" end="reset.mouseout"/></use>
  </g>
</defs>
<script type="application/ecmascript">
var viewWidth = 426;
var viewHeight = 717;
var sectionId = 'dynsection-0';
</script>
<script type="application/ecmascript" xlink:href="../../svg.min.js"/>
<svg id="graph" class="graph">
<g id="viewport">
<title>v8::internal::maglev::DeoptFrame</title>
<!-- Node1 -->
<g id="Node000001" class="node">
<title>Node1</title>
<g id="a_Node000001"><a xlink:title=" ">
<polygon fill="#999999" stroke="none" points="186,-525 0,-525 0,-156 186,-156 186,-525"/>
<text text-anchor="start" x="33" y="-511.5" font-family="Cascadia Code NF" font-size="10.00">v8::internal::maglev</text>
<text text-anchor="start" x="57" y="-498.75" font-family="Cascadia Code NF" font-size="10.00">::DeoptFrame</text>
<text text-anchor="start" x="4" y="-482.5" font-family="Cascadia Code NF" font-size="10.00">#</text>
<text text-anchor="start" x="14" y="-482.5" font-family="Cascadia Code NF" font-size="10.00">data_</text>
<text text-anchor="start" x="4" y="-466.5" font-family="Cascadia Code NF" font-size="10.00">#</text>
<text text-anchor="start" x="14" y="-466.5" font-family="Cascadia Code NF" font-size="10.00">parent_</text>
<text text-anchor="start" x="4" y="-450.5" font-family="Cascadia Code NF" font-size="10.00">+</text>
<text text-anchor="start" x="14" y="-450.5" font-family="Cascadia Code NF" font-size="10.00">DeoptFrame()</text>
<text text-anchor="start" x="4" y="-434.5" font-family="Cascadia Code NF" font-size="10.00">+</text>
<text text-anchor="start" x="14" y="-434.5" font-family="Cascadia Code NF" font-size="10.00">DeoptFrame()</text>
<text text-anchor="start" x="4" y="-418.5" font-family="Cascadia Code NF" font-size="10.00">+</text>
<text text-anchor="start" x="14" y="-418.5" font-family="Cascadia Code NF" font-size="10.00">type()</text>
<text text-anchor="start" x="4" y="-402.5" font-family="Cascadia Code NF" font-size="10.00">+</text>
<text text-anchor="start" x="14" y="-402.5" font-family="Cascadia Code NF" font-size="10.00">parent()</text>
<text text-anchor="start" x="4" y="-386.5" font-family="Cascadia Code NF" font-size="10.00">+</text>
<text text-anchor="start" x="14" y="-386.5" font-family="Cascadia Code NF" font-size="10.00">parent()</text>
<text text-anchor="start" x="4" y="-370.5" font-family="Cascadia Code NF" font-size="10.00">+</text>
<text text-anchor="start" x="14" y="-370.5" font-family="Cascadia Code NF" font-size="10.00">as_interpreted()</text>
<text text-anchor="start" x="4" y="-354.5" font-family="Cascadia Code NF" font-size="10.00">+</text>
<text text-anchor="start" x="14" y="-354.5" font-family="Cascadia Code NF" font-size="10.00">as_inlined_arguments()</text>
<text text-anchor="start" x="4" y="-338.5" font-family="Cascadia Code NF" font-size="10.00">+</text>
<text text-anchor="start" x="14" y="-338.5" font-family="Cascadia Code NF" font-size="10.00">as_construct_stub()</text>
<text text-anchor="start" x="4" y="-322.5" font-family="Cascadia Code NF" font-size="10.00">+</text>
<text text-anchor="start" x="14" y="-322.5" font-family="Cascadia Code NF" font-size="10.00">as_builtin_continuation()</text>
<text text-anchor="start" x="4" y="-306.5" font-family="Cascadia Code NF" font-size="10.00">+</text>
<text text-anchor="start" x="14" y="-306.5" font-family="Cascadia Code NF" font-size="10.00">as_interpreted()</text>
<text text-anchor="start" x="4" y="-290.5" font-family="Cascadia Code NF" font-size="10.00">+</text>
<text text-anchor="start" x="14" y="-290.5" font-family="Cascadia Code NF" font-size="10.00">as_inlined_arguments()</text>
<text text-anchor="start" x="4" y="-274.5" font-family="Cascadia Code NF" font-size="10.00">+</text>
<text text-anchor="start" x="14" y="-274.5" font-family="Cascadia Code NF" font-size="10.00">as_construct_stub()</text>
<text text-anchor="start" x="4" y="-258.5" font-family="Cascadia Code NF" font-size="10.00">+</text>
<text text-anchor="start" x="14" y="-258.5" font-family="Cascadia Code NF" font-size="10.00">as_builtin_continuation()</text>
<text text-anchor="start" x="4" y="-242.5" font-family="Cascadia Code NF" font-size="10.00">+</text>
<text text-anchor="start" x="14" y="-242.5" font-family="Cascadia Code NF" font-size="10.00">IsJsFrame()</text>
<text text-anchor="start" x="4" y="-226.5" font-family="Cascadia Code NF" font-size="10.00">+</text>
<text text-anchor="start" x="14" y="-226.5" font-family="Cascadia Code NF" font-size="10.00">GetInputLocationsArraySize()</text>
<text text-anchor="start" x="4" y="-210.5" font-family="Cascadia Code NF" font-size="10.00">#</text>
<text text-anchor="start" x="14" y="-210.5" font-family="Cascadia Code NF" font-size="10.00">DeoptFrame()</text>
<text text-anchor="start" x="4" y="-194.5" font-family="Cascadia Code NF" font-size="10.00">#</text>
<text text-anchor="start" x="14" y="-194.5" font-family="Cascadia Code NF" font-size="10.00">DeoptFrame()</text>
<text text-anchor="start" x="4" y="-178.5" font-family="Cascadia Code NF" font-size="10.00">#</text>
<text text-anchor="start" x="14" y="-178.5" font-family="Cascadia Code NF" font-size="10.00">DeoptFrame()</text>
<text text-anchor="start" x="4" y="-162.5" font-family="Cascadia Code NF" font-size="10.00">#</text>
<text text-anchor="start" x="14" y="-162.5" font-family="Cascadia Code NF" font-size="10.00">DeoptFrame()</text>
<polygon fill="#666666" stroke="#666666" points="0,-494 0,-494 186,-494 186,-494 0,-494"/>
<polygon fill="#666666" stroke="#666666" points="0,-462 0,-462 12,-462 12,-462 0,-462"/>
<polygon fill="#666666" stroke="#666666" points="12,-462 12,-462 186,-462 186,-462 12,-462"/>
<polygon fill="none" stroke="#666666" points="0,-156 0,-525 186,-525 186,-156 0,-156"/>
</a>
</g>
</g>
<!-- Node2 -->
<g id="Node000002" class="node">
<title>Node2</title>
<g id="a_Node000002"><a xlink:href="../../dc/d06/classv8_1_1internal_1_1maglev_1_1BuiltinContinuationDeoptFrame.html" target="_top" xlink:title=" ">
<polygon fill="white" stroke="none" points="418,-708.5 222,-708.5 222,-534.5 418,-534.5 418,-708.5"/>
<text text-anchor="start" x="227" y="-695" font-family="Cascadia Code NF" font-size="10.00">v8::internal::maglev</text>
<text text-anchor="start" x="227" y="-682.25" font-family="Cascadia Code NF" font-size="10.00">::BuiltinContinuationDeoptFrame</text>
<text text-anchor="start" x="317" y="-666" font-family="Cascadia Code NF" font-size="10.00"> </text>
<text text-anchor="start" x="234.5" y="-650" font-family="Cascadia Code NF" font-size="10.00">+</text>
<text text-anchor="start" x="253" y="-650" font-family="Cascadia Code NF" font-size="10.00">BuiltinContinuationDeopt</text>
<text text-anchor="start" x="253" y="-637.25" font-family="Cascadia Code NF" font-size="10.00">Frame()</text>
<text text-anchor="start" x="234.5" y="-621" font-family="Cascadia Code NF" font-size="10.00">+</text>
<text text-anchor="start" x="253" y="-621" font-family="Cascadia Code NF" font-size="10.00">builtin_id()</text>
<text text-anchor="start" x="234.5" y="-605" font-family="Cascadia Code NF" font-size="10.00">+</text>
<text text-anchor="start" x="253" y="-605" font-family="Cascadia Code NF" font-size="10.00">parameters()</text>
<text text-anchor="start" x="234.5" y="-589" font-family="Cascadia Code NF" font-size="10.00">+</text>
<text text-anchor="start" x="253" y="-589" font-family="Cascadia Code NF" font-size="10.00">context()</text>
<text text-anchor="start" x="234.5" y="-573" font-family="Cascadia Code NF" font-size="10.00">+</text>
<text text-anchor="start" x="253" y="-573" font-family="Cascadia Code NF" font-size="10.00">context()</text>
<text text-anchor="start" x="234.5" y="-557" font-family="Cascadia Code NF" font-size="10.00">+</text>
<text text-anchor="start" x="253" y="-557" font-family="Cascadia Code NF" font-size="10.00">is_javascript()</text>
<text text-anchor="start" x="234.5" y="-541" font-family="Cascadia Code NF" font-size="10.00">+</text>
<text text-anchor="start" x="253" y="-541" font-family="Cascadia Code NF" font-size="10.00">javascript_target()</text>
<polygon fill="#bfbfbf" stroke="#bfbfbf" points="222,-677.5 222,-677.5 418,-677.5 418,-677.5 222,-677.5"/>
<polygon fill="#bfbfbf" stroke="#bfbfbf" points="222,-661.5 222,-661.5 418,-661.5 418,-661.5 222,-661.5"/>
<polygon fill="none" stroke="#bfbfbf" points="222,-534.5 222,-708.5 418,-708.5 418,-534.5 222,-534.5"/>
</a>
</g>
</g>
<!-- Node1&#45;&gt;Node2 -->
<g id="edge1_Node000001_Node000002" class="edge">
<title>Node1&#45;&gt;Node2</title>
<g id="a_edge1_Node000001_Node000002"><a xlink:title=" ">
<path fill="none" stroke="#63b8ff" d="M192.6,-488.38C202.23,-501.16 212.11,-513.71 222,-525.5 224.51,-528.5 227.1,-531.5 229.75,-534.51"/>
<polygon fill="none" stroke="#63b8ff" points="195.66,-486.63 186.87,-480.7 190.05,-490.81 195.66,-486.63"/>
</a>
</g>
</g>
<!-- Node3 -->
<g id="Node000003" class="node">
<title>Node3</title>
<g id="a_Node000003"><a xlink:href="../../d7/d8f/classv8_1_1internal_1_1maglev_1_1ConstructInvokeStubDeoptFrame.html" target="_top" xlink:title=" ">
<polygon fill="white" stroke="none" points="418,-516.5 222,-516.5 222,-342.5 418,-342.5 418,-516.5"/>
<text text-anchor="start" x="227" y="-503" font-family="Cascadia Code NF" font-size="10.00">v8::internal::maglev</text>
<text text-anchor="start" x="227" y="-490.25" font-family="Cascadia Code NF" font-size="10.00">::ConstructInvokeStubDeoptFrame</text>
<text text-anchor="start" x="317" y="-474" font-family="Cascadia Code NF" font-size="10.00"> </text>
<text text-anchor="start" x="234.5" y="-458" font-family="Cascadia Code NF" font-size="10.00">+</text>
<text text-anchor="start" x="253" y="-458" font-family="Cascadia Code NF" font-size="10.00">ConstructInvokeStubDeopt</text>
<text text-anchor="start" x="253" y="-445.25" font-family="Cascadia Code NF" font-size="10.00">Frame()</text>
<text text-anchor="start" x="234.5" y="-429" font-family="Cascadia Code NF" font-size="10.00">+</text>
<text text-anchor="start" x="253" y="-429" font-family="Cascadia Code NF" font-size="10.00">unit()</text>
<text text-anchor="start" x="234.5" y="-413" font-family="Cascadia Code NF" font-size="10.00">+</text>
<text text-anchor="start" x="253" y="-413" font-family="Cascadia Code NF" font-size="10.00">receiver()</text>
<text text-anchor="start" x="234.5" y="-397" font-family="Cascadia Code NF" font-size="10.00">+</text>
<text text-anchor="start" x="253" y="-397" font-family="Cascadia Code NF" font-size="10.00">receiver()</text>
<text text-anchor="start" x="234.5" y="-381" font-family="Cascadia Code NF" font-size="10.00">+</text>
<text text-anchor="start" x="253" y="-381" font-family="Cascadia Code NF" font-size="10.00">context()</text>
<text text-anchor="start" x="234.5" y="-365" font-family="Cascadia Code NF" font-size="10.00">+</text>
<text text-anchor="start" x="253" y="-365" font-family="Cascadia Code NF" font-size="10.00">context()</text>
<text text-anchor="start" x="234.5" y="-349" font-family="Cascadia Code NF" font-size="10.00">+</text>
<text text-anchor="start" x="253" y="-349" font-family="Cascadia Code NF" font-size="10.00">source_position()</text>
<polygon fill="#bfbfbf" stroke="#bfbfbf" points="222,-485.5 222,-485.5 418,-485.5 418,-485.5 222,-485.5"/>
<polygon fill="#bfbfbf" stroke="#bfbfbf" points="222,-469.5 222,-469.5 418,-469.5 418,-469.5 222,-469.5"/>
<polygon fill="none" stroke="#bfbfbf" points="222,-342.5 222,-516.5 418,-516.5 418,-342.5 222,-342.5"/>
</a>
</g>
</g>
<!-- Node1&#45;&gt;Node3 -->
<g id="edge2_Node000001_Node000003" class="edge">
<title>Node1&#45;&gt;Node3</title>
<g id="a_edge2_Node000001_Node000003"><a xlink:title=" ">
<path fill="none" stroke="#63b8ff" d="M196.34,-380.98C204.99,-384.4 213.73,-387.86 222.33,-391.26"/>
<polygon fill="none" stroke="#63b8ff" points="197.83,-377.81 187.25,-377.38 195.26,-384.32 197.83,-377.81"/>
</a>
</g>
</g>
<!-- Node4 -->
<g id="Node000004" class="node">
<title>Node4</title>
<g id="a_Node000004"><a xlink:href="../../d2/d3b/classv8_1_1internal_1_1maglev_1_1InlinedArgumentsDeoptFrame.html" target="_top" xlink:title=" ">
<polygon fill="white" stroke="none" points="413,-324 227,-324 227,-179 413,-179 413,-324"/>
<text text-anchor="start" x="236" y="-310.5" font-family="Cascadia Code NF" font-size="10.00">v8::internal::maglev</text>
<text text-anchor="start" x="236" y="-297.75" font-family="Cascadia Code NF" font-size="10.00">::InlinedArgumentsDeoptFrame</text>
<text text-anchor="start" x="317" y="-281.5" font-family="Cascadia Code NF" font-size="10.00"> </text>
<text text-anchor="start" x="231" y="-265.5" font-family="Cascadia Code NF" font-size="10.00">+</text>
<text text-anchor="start" x="241" y="-265.5" font-family="Cascadia Code NF" font-size="10.00">InlinedArgumentsDeoptFrame()</text>
<text text-anchor="start" x="231" y="-249.5" font-family="Cascadia Code NF" font-size="10.00">+</text>
<text text-anchor="start" x="241" y="-249.5" font-family="Cascadia Code NF" font-size="10.00">unit()</text>
<text text-anchor="start" x="231" y="-233.5" font-family="Cascadia Code NF" font-size="10.00">+</text>
<text text-anchor="start" x="241" y="-233.5" font-family="Cascadia Code NF" font-size="10.00">bytecode_position()</text>
<text text-anchor="start" x="231" y="-217.5" font-family="Cascadia Code NF" font-size="10.00">+</text>
<text text-anchor="start" x="241" y="-217.5" font-family="Cascadia Code NF" font-size="10.00">closure()</text>
<text text-anchor="start" x="231" y="-201.5" font-family="Cascadia Code NF" font-size="10.00">+</text>
<text text-anchor="start" x="241" y="-201.5" font-family="Cascadia Code NF" font-size="10.00">closure()</text>
<text text-anchor="start" x="231" y="-185.5" font-family="Cascadia Code NF" font-size="10.00">+</text>
<text text-anchor="start" x="241" y="-185.5" font-family="Cascadia Code NF" font-size="10.00">arguments()</text>
<polygon fill="#bfbfbf" stroke="#bfbfbf" points="227,-293 227,-293 413,-293 413,-293 227,-293"/>
<polygon fill="#bfbfbf" stroke="#bfbfbf" points="227,-277 227,-277 413,-277 413,-277 227,-277"/>
<polygon fill="none" stroke="#bfbfbf" points="227,-179 227,-324 413,-324 413,-179 227,-179"/>
</a>
</g>
</g>
<!-- Node1&#45;&gt;Node4 -->
<g id="edge3_Node000001_Node000004" class="edge">
<title>Node1&#45;&gt;Node4</title>
<g id="a_edge3_Node000001_Node000004"><a xlink:title=" ">
<path fill="none" stroke="#63b8ff" d="M196.44,-299.98C206.66,-295.94 216.99,-291.85 227.09,-287.86"/>
<polygon fill="none" stroke="#63b8ff" points="195.26,-296.68 187.25,-303.62 197.83,-303.19 195.26,-296.68"/>
</a>
</g>
</g>
<!-- Node5 -->
<g id="Node000005" class="node">
<title>Node5</title>
<g id="a_Node000005"><a xlink:href="../../d6/d01/classv8_1_1internal_1_1maglev_1_1InterpretedDeoptFrame.html" target="_top" xlink:title=" ">
<polygon fill="white" stroke="none" points="398,-161 242,-161 242,0 398,0 398,-161"/>
<text text-anchor="start" x="251" y="-147.5" font-family="Cascadia Code NF" font-size="10.00">v8::internal::maglev</text>
<text text-anchor="start" x="251" y="-134.75" font-family="Cascadia Code NF" font-size="10.00">::InterpretedDeoptFrame</text>
<text text-anchor="start" x="317" y="-118.5" font-family="Cascadia Code NF" font-size="10.00"> </text>
<text text-anchor="start" x="246" y="-102.5" font-family="Cascadia Code NF" font-size="10.00">+</text>
<text text-anchor="start" x="256" y="-102.5" font-family="Cascadia Code NF" font-size="10.00">InterpretedDeoptFrame()</text>
<text text-anchor="start" x="246" y="-86.5" font-family="Cascadia Code NF" font-size="10.00">+</text>
<text text-anchor="start" x="256" y="-86.5" font-family="Cascadia Code NF" font-size="10.00">unit()</text>
<text text-anchor="start" x="246" y="-70.5" font-family="Cascadia Code NF" font-size="10.00">+</text>
<text text-anchor="start" x="256" y="-70.5" font-family="Cascadia Code NF" font-size="10.00">frame_state()</text>
<text text-anchor="start" x="246" y="-54.5" font-family="Cascadia Code NF" font-size="10.00">+</text>
<text text-anchor="start" x="256" y="-54.5" font-family="Cascadia Code NF" font-size="10.00">closure()</text>
<text text-anchor="start" x="246" y="-38.5" font-family="Cascadia Code NF" font-size="10.00">+</text>
<text text-anchor="start" x="256" y="-38.5" font-family="Cascadia Code NF" font-size="10.00">closure()</text>
<text text-anchor="start" x="246" y="-22.5" font-family="Cascadia Code NF" font-size="10.00">+</text>
<text text-anchor="start" x="256" y="-22.5" font-family="Cascadia Code NF" font-size="10.00">bytecode_position()</text>
<text text-anchor="start" x="246" y="-6.5" font-family="Cascadia Code NF" font-size="10.00">+</text>
<text text-anchor="start" x="256" y="-6.5" font-family="Cascadia Code NF" font-size="10.00">source_position()</text>
<polygon fill="#bfbfbf" stroke="#bfbfbf" points="242,-130 242,-130 398,-130 398,-130 242,-130"/>
<polygon fill="#bfbfbf" stroke="#bfbfbf" points="242,-114 242,-114 398,-114 398,-114 242,-114"/>
<polygon fill="none" stroke="#bfbfbf" points="242,0 242,-161 398,-161 398,0 242,0"/>
</a>
</g>
</g>
<!-- Node1&#45;&gt;Node5 -->
<g id="edge4_Node000001_Node000005" class="edge">
<title>Node1&#45;&gt;Node5</title>
<g id="a_edge4_Node000001_Node000005"><a xlink:title=" ">
<path fill="none" stroke="#63b8ff" d="M193.15,-204.23C202.64,-192.61 212.34,-181.21 222,-170.5 228.31,-163.51 235.09,-156.45 242.02,-149.52"/>
<polygon fill="none" stroke="#63b8ff" points="190.45,-202.01 186.89,-211.99 195.9,-206.41 190.45,-202.01"/>
</a>
</g>
</g>
</g>
</svg>

<g id="navigator" transform="translate(0 0)" fill="#404254">
  <rect fill="#f2f5e9" fill-opacity="0.5" stroke="#606060" stroke-width=".5" x="0" y="0" width="60" height="60"/>
  <use id="zoomplus" xlink:href="#zoomPlus" x="17" y="9" onmousedown="handleZoom(evt,'in')"/>
  <use id="zoomminus" xlink:href="#zoomMin" x="42" y="9" onmousedown="handleZoom(evt,'out')"/>
  <use id="reset" xlink:href="#resetDef" x="30" y="36" onmousedown="handleReset()"/>
   <use id="arrowup" xlink:href="#arrowUp" x="0" y="0" onmousedown="handlePan(0,-1)"/>
  <use id="arrowright" xlink:href="#arrowRight" x="0" y="0" onmousedown="handlePan(1,0)"/>
  <use id="arrowdown" xlink:href="#arrowDown" x="0" y="0" onmousedown="handlePan(0,1)"/>
  <use id="arrowleft" xlink:href="#arrowLeft" x="0" y="0" onmousedown="handlePan(-1,0)"/>
</g>
<svg viewBox="0 0 15 15" width="100%" height="30px" preserveAspectRatio="xMaxYMin meet">
 <g id="arrow_out" transform="scale(0.3 0.3)">
  <a xlink:href="classv8_1_1internal_1_1maglev_1_1DeoptFrame__inherit__graph_org.svg" target="_base">
   <rect id="button" ry="5" rx="5" y="6" x="6" height="38" width="38"
        fill="#f2f5e9" fill-opacity="0.5" stroke="#606060" stroke-width="1.0"/>
   <path id="arrow"
     d="M 11.500037,31.436501 C 11.940474,20.09759 22.043105,11.32322 32.158766,21.979434 L 37.068811,17.246167 C 37.068811,17.246167 37.088388,32 37.088388,32 L 22.160133,31.978069 C 22.160133,31.978069 26.997745,27.140456 26.997745,27.140456 C 18.528582,18.264221 13.291696,25.230495 11.500037,31.436501 z"
     style="fill:#404040;"/>
  </a>
 </g>
</svg>

<style type='text/css'>
<![CDATA[
[data-mouse-over-selected='false'] { opacity: 0.7; }
[data-mouse-over-selected='true']  { opacity: 1.0; }
]]>
</style>
<script type="application/ecmascript"><![CDATA[
document.addEventListener('DOMContentLoaded', (event) => {
  highlightEdges();
  highlightAdjacentNodes();
});
]]></script>
</svg>
