<?xml version="1.0" encoding="UTF-8" standalone="no"?>
<!DOCTYPE svg PUBLIC "-//W3C//DTD SVG 1.1//EN"
 "http://www.w3.org/Graphics/SVG/1.1/DTD/svg11.dtd">
<!-- Generated by graphviz version 11.0.0 (20240428.1522)
 -->
<!-- Title: v8::internal::RegisteredSymbolTable Pages: 1 -->
<svg width="418pt" height="137pt"
 viewBox="0.00 0.00 418.00 137.00" xmlns="http://www.w3.org/2000/svg" xmlns:xlink="http://www.w3.org/1999/xlink">

<svg id="main" version="1.1" xmlns="http://www.w3.org/2000/svg" xmlns:xlink="http://www.w3.org/1999/xlink" xml:space="preserve" onload="init(evt)">
<style type="text/css"><![CDATA[
.node, .edge {opacity: 0.7;}
.node.selected, .edge.selected {opacity: 1;}
.edge:hover path { stroke: red; }
.edge:hover polygon { stroke: red; fill: red; }
svg#main { background-color: #111; }
]]></style>
<script type="application/ecmascript" xlink:href="../../svg.min.js"/>
<svg id="graph" class="graph">
<g id="graph0" class="graph" transform="scale(1 1) rotate(0) translate(4 133)">
<title>v8::internal::RegisteredSymbolTable</title>
<!-- Node1 -->
<g id="Node000001" class="node">
<title>Node1</title>
<g id="a_Node000001"><a xlink:title=" ">
<polygon fill="#999999" stroke="none" points="410,-129 256,-129 256,0 410,0 410,-129"/>
<text text-anchor="start" x="261" y="-115.5" font-family="Cascadia Code NF" font-size="10.00">v8::internal::Registered</text>
<text text-anchor="start" x="300" y="-102.75" font-family="Cascadia Code NF" font-size="10.00">SymbolTable</text>
<text text-anchor="start" x="330" y="-86.5" font-family="Cascadia Code NF" font-size="10.00"> </text>
<text text-anchor="start" x="262.5" y="-70.5" font-family="Cascadia Code NF" font-size="10.00">+</text>
<text text-anchor="start" x="275" y="-70.5" font-family="Cascadia Code NF" font-size="10.00">SlowReverseLookup()</text>
<text text-anchor="start" x="262.5" y="-54.5" font-family="Cascadia Code NF" font-size="10.00">+</text>
<text text-anchor="start" x="275" y="-54.5" font-family="Cascadia Code NF" font-size="10.00">ValueAt()</text>
<text text-anchor="start" x="262.5" y="-38.5" font-family="Cascadia Code NF" font-size="10.00">+</text>
<text text-anchor="start" x="275" y="-38.5" font-family="Cascadia Code NF" font-size="10.00">OBJECT_CONSTRUCTORS()</text>
<text text-anchor="start" x="262.5" y="-22.5" font-family="Cascadia Code NF" font-size="10.00">+</text>
<text text-anchor="start" x="275" y="-22.5" font-family="Cascadia Code NF" font-size="10.00">GetMap()</text>
<text text-anchor="start" x="262.5" y="-6.5" font-family="Cascadia Code NF" font-size="10.00">+</text>
<text text-anchor="start" x="275" y="-6.5" font-family="Cascadia Code NF" font-size="10.00">Add()</text>
<polygon fill="#666666" stroke="#666666" points="256,-98 256,-98 410,-98 410,-98 256,-98"/>
<polygon fill="#666666" stroke="#666666" points="256,-82 256,-82 410,-82 410,-82 256,-82"/>
<polygon fill="none" stroke="#666666" points="256,0 256,-129 410,-129 410,0 256,0"/>
</a>
</g>
</g>
<!-- Node2 -->
<g id="Node000002" class="node">
<title>Node2</title>
<g id="a_Node000002"><a xlink:title=" ">
<polygon fill="white" stroke="none" points="220,-97 0,-97 0,-32 220,-32 220,-97"/>
<text text-anchor="start" x="5" y="-83.5" font-family="Cascadia Code NF" font-size="10.00">HashTable&lt; RegisteredSymbol</text>
<text text-anchor="start" x="5" y="-70.75" font-family="Cascadia Code NF" font-size="10.00">Table, RegisteredSymbolTableShape &gt;</text>
<text text-anchor="start" x="107" y="-54.5" font-family="Cascadia Code NF" font-size="10.00"> </text>
<text text-anchor="start" x="107" y="-38.5" font-family="Cascadia Code NF" font-size="10.00"> </text>
<polygon fill="#bfbfbf" stroke="#bfbfbf" points="0,-66 0,-66 220,-66 220,-66 0,-66"/>
<polygon fill="#bfbfbf" stroke="#bfbfbf" points="0,-50 0,-50 220,-50 220,-50 0,-50"/>
<polygon fill="none" stroke="#bfbfbf" points="0,-32 0,-97 220,-97 220,-32 0,-32"/>
</a>
</g>
</g>
<!-- Node2&#45;&gt;Node1 -->
<g id="edge1_Node000001_Node000002" class="edge">
<title>Node2&#45;&gt;Node1</title>
<g id="a_edge1_Node000001_Node000002"><a xlink:title=" ">
<path fill="none" stroke="#63b8ff" d="M231.13,-64.5C239.66,-64.5 248.11,-64.5 256.29,-64.5"/>
<polygon fill="none" stroke="#63b8ff" points="231.39,-61 221.39,-64.5 231.39,-68 231.39,-61"/>
</a>
</g>
</g>
</g>
</svg>
</svg>

<style type='text/css'>
<![CDATA[
[data-mouse-over-selected='false'] { opacity: 0.7; }
[data-mouse-over-selected='true']  { opacity: 1.0; }
]]>
</style>
<script type="application/ecmascript"><![CDATA[
document.addEventListener('DOMContentLoaded', (event) => {
  highlightEdges();
  highlightAdjacentNodes();
});
]]></script>
</svg>
