<?xml version="1.0" encoding="UTF-8" standalone="no"?>
<!DOCTYPE svg PUBLIC "-//W3C//DTD SVG 1.1//EN"
 "http://www.w3.org/Graphics/SVG/1.1/DTD/svg11.dtd">
<!-- Generated by graphviz version 11.0.0 (20240428.1522)
 -->
<!-- Title: v8::internal::TranslatedValue Pages: 1 -->
<!--zoomable 1016 -->

<svg id="main" version="1.1" xmlns="http://www.w3.org/2000/svg" xmlns:xlink="http://www.w3.org/1999/xlink" xml:space="preserve" onload="init(evt)">
<style type="text/css"><![CDATA[
.node, .edge {opacity: 0.7;}
.node.selected, .edge.selected {opacity: 1;}
.edge:hover path { stroke: red; }
.edge:hover polygon { stroke: red; fill: red; }
svg#main { background-color: #111; }
]]></style>

<defs>
  <circle id="rim" cx="0" cy="0" r="7"/>
  <circle id="rim2" cx="0" cy="0" r="3.5"/>
  <g id="zoomPlus">
    <use xlink:href="#rim" fill="#404040"><set attributeName="fill" to="#808080" begin="zoomplus.mouseover" end="zoomplus.mouseout"/></use>
    <path d="M-4,0h8M0,-4v8" fill="none" stroke="white" stroke-width="1.5" pointer-events="none"/>
  </g>
  <g id="zoomMin">
    <use xlink:href="#rim" fill="#404040"><set attributeName="fill" to="#808080" begin="zoomminus.mouseover" end="zoomminus.mouseout"/></use>
    <path d="M-4,0h8" fill="none" stroke="white" stroke-width="1.5" pointer-events="none"/>
  </g>
  <g id="arrowUp" transform="translate(30 24)">
    <use xlink:href="#rim"/>
    <path pointer-events="none" fill="none" stroke="white" stroke-width="1.5" d="M0,-3.0v7 M-2.5,-0.5L0,-3.0L2.5,-0.5"/>
  </g>
  <g id="arrowRight" transform="rotate(90) translate(36 -43)">
    <use xlink:href="#rim"/>
    <path pointer-events="none" fill="none" stroke="white" stroke-width="1.5" d="M0,-3.0v7 M-2.5,-0.5L0,-3.0L2.5,-0.5"/>
  </g>
  <g id="arrowDown" transform="rotate(180) translate(-30 -48)">
    <use xlink:href="#rim"/>
    <path pointer-events="none" fill="none" stroke="white" stroke-width="1.5" d="M0,-3.0v7 M-2.5,-0.5L0,-3.0L2.5,-0.5"/>
  </g>
  <g id="arrowLeft" transform="rotate(270) translate(-36 17)">
    <use xlink:href="#rim"/>
    <path pointer-events="none" fill="none" stroke="white" stroke-width="1.5" d="M0,-3.0v7 M-2.5,-0.5L0,-3.0L2.5,-0.5"/>
  </g>
  <g id="resetDef">
    <use xlink:href="#rim2" fill="#404040"><set attributeName="fill" to="#808080" begin="reset.mouseover" end="reset.mouseout"/></use>
  </g>
</defs>
<script type="application/ecmascript">
var viewWidth = 1070;
var viewHeight = 1016;
var sectionId = 'dynsection-0';
</script>
<script type="application/ecmascript" xlink:href="../../svg.min.js"/>
<svg id="graph" class="graph">
<g id="viewport">
<title>v8::internal::TranslatedValue</title>
<!-- Node1 -->
<g id="Node000001" class="node">
<title>Node1</title>
<g id="a_Node000001"><a xlink:title=" ">
<polygon fill="#999999" stroke="none" points="1062,-573 876,-573 876,-444 1062,-444 1062,-573"/>
<text text-anchor="start" x="897" y="-559.5" font-family="Cascadia Code NF" font-size="10.00">v8::internal::Translated</text>
<text text-anchor="start" x="954" y="-546.75" font-family="Cascadia Code NF" font-size="10.00">Value</text>
<text text-anchor="start" x="966" y="-530.5" font-family="Cascadia Code NF" font-size="10.00"> </text>
<text text-anchor="start" x="880" y="-514.5" font-family="Cascadia Code NF" font-size="10.00">+</text>
<text text-anchor="start" x="890" y="-514.5" font-family="Cascadia Code NF" font-size="10.00">GetRawValue()</text>
<text text-anchor="start" x="880" y="-498.5" font-family="Cascadia Code NF" font-size="10.00">+</text>
<text text-anchor="start" x="890" y="-498.5" font-family="Cascadia Code NF" font-size="10.00">GetSmiValue()</text>
<text text-anchor="start" x="880" y="-482.5" font-family="Cascadia Code NF" font-size="10.00">+</text>
<text text-anchor="start" x="890" y="-482.5" font-family="Cascadia Code NF" font-size="10.00">GetValue()</text>
<text text-anchor="start" x="880" y="-466.5" font-family="Cascadia Code NF" font-size="10.00">+</text>
<text text-anchor="start" x="890" y="-466.5" font-family="Cascadia Code NF" font-size="10.00">IsMaterializedObject()</text>
<text text-anchor="start" x="880" y="-450.5" font-family="Cascadia Code NF" font-size="10.00">+</text>
<text text-anchor="start" x="890" y="-450.5" font-family="Cascadia Code NF" font-size="10.00">IsMaterializableByDebugger()</text>
<polygon fill="#666666" stroke="#666666" points="876,-542 876,-542 1062,-542 1062,-542 876,-542"/>
<polygon fill="#666666" stroke="#666666" points="876,-526 876,-526 1062,-526 1062,-526 876,-526"/>
<polygon fill="none" stroke="#666666" points="876,-444 876,-573 1062,-573 1062,-444 876,-444"/>
</a>
</g>
</g>
<!-- Node2 -->
<g id="Node000002" class="node">
<title>Node2</title>
<g id="a_Node000002"><a xlink:href="../../d7/d4b/classv8_1_1internal_1_1Tagged.html" target="_top" xlink:title=" ">
<polygon fill="white" stroke="none" points="687,-985 533,-985 533,-728 687,-728 687,-985"/>
<text text-anchor="start" x="538" y="-971.5" font-family="Cascadia Code NF" font-size="10.00">v8::internal::Tagged</text>
<text text-anchor="start" x="538" y="-958.75" font-family="Cascadia Code NF" font-size="10.00">&lt; v8::internal::Object &gt;</text>
<text text-anchor="start" x="607" y="-942.5" font-family="Cascadia Code NF" font-size="10.00"> </text>
<text text-anchor="start" x="547" y="-926.5" font-family="Cascadia Code NF" font-size="10.00">+</text>
<text text-anchor="start" x="567" y="-926.5" font-family="Cascadia Code NF" font-size="10.00">Tagged()</text>
<text text-anchor="start" x="547" y="-910.5" font-family="Cascadia Code NF" font-size="10.00">+</text>
<text text-anchor="start" x="567" y="-910.5" font-family="Cascadia Code NF" font-size="10.00">Tagged()</text>
<text text-anchor="start" x="547" y="-894.5" font-family="Cascadia Code NF" font-size="10.00">+</text>
<text text-anchor="start" x="567" y="-894.5" font-family="Cascadia Code NF" font-size="10.00">Tagged()</text>
<text text-anchor="start" x="547" y="-878.5" font-family="Cascadia Code NF" font-size="10.00">+</text>
<text text-anchor="start" x="567" y="-878.5" font-family="Cascadia Code NF" font-size="10.00">Tagged()</text>
<text text-anchor="start" x="547" y="-862.5" font-family="Cascadia Code NF" font-size="10.00">+</text>
<text text-anchor="start" x="567" y="-862.5" font-family="Cascadia Code NF" font-size="10.00">operator=()</text>
<text text-anchor="start" x="547" y="-846.5" font-family="Cascadia Code NF" font-size="10.00">+</text>
<text text-anchor="start" x="567" y="-846.5" font-family="Cascadia Code NF" font-size="10.00">operator*()</text>
<text text-anchor="start" x="547" y="-830.5" font-family="Cascadia Code NF" font-size="10.00">+</text>
<text text-anchor="start" x="567" y="-830.5" font-family="Cascadia Code NF" font-size="10.00">operator*()</text>
<text text-anchor="start" x="547" y="-814.5" font-family="Cascadia Code NF" font-size="10.00">+</text>
<text text-anchor="start" x="567" y="-814.5" font-family="Cascadia Code NF" font-size="10.00">operator&#45;&gt;()</text>
<text text-anchor="start" x="547" y="-798.5" font-family="Cascadia Code NF" font-size="10.00">+</text>
<text text-anchor="start" x="567" y="-798.5" font-family="Cascadia Code NF" font-size="10.00">operator&#45;&gt;()</text>
<text text-anchor="start" x="547" y="-782.5" font-family="Cascadia Code NF" font-size="10.00">+</text>
<text text-anchor="start" x="567" y="-782.5" font-family="Cascadia Code NF" font-size="10.00">cast()</text>
<text text-anchor="start" x="547" y="-766.5" font-family="Cascadia Code NF" font-size="10.00">+</text>
<text text-anchor="start" x="567" y="-766.5" font-family="Cascadia Code NF" font-size="10.00">cast()</text>
<text text-anchor="start" x="547" y="-750.5" font-family="Cascadia Code NF" font-size="10.00">+</text>
<text text-anchor="start" x="567" y="-750.5" font-family="Cascadia Code NF" font-size="10.00">cast()</text>
<text text-anchor="start" x="547" y="-734.5" font-family="Cascadia Code NF" font-size="10.00">+</text>
<text text-anchor="start" x="567" y="-734.5" font-family="Cascadia Code NF" font-size="10.00">unchecked_cast()</text>
<polygon fill="#bfbfbf" stroke="#bfbfbf" points="533,-954 533,-954 687,-954 687,-954 533,-954"/>
<polygon fill="#bfbfbf" stroke="#bfbfbf" points="533,-938 533,-938 687,-938 687,-938 533,-938"/>
<polygon fill="none" stroke="#bfbfbf" points="533,-728 533,-985 687,-985 687,-728 533,-728"/>
</a>
</g>
</g>
<!-- Node2&#45;&gt;Node1 -->
<g id="edge1_Node000001_Node000002" class="edge">
<title>Node2&#45;&gt;Node1</title>
<g id="a_edge1_Node000001_Node000002"><a xlink:title=" ">
<path fill="none" stroke="#63b8ff" d="M686.86,-810.26C738.68,-776.4 806.95,-727.14 858,-673.5 883.47,-646.73 906.92,-613.41 925.56,-583.73"/>
<polygon fill="none" stroke="#63b8ff" points="925.42,-583.96 925.18,-576.75 931.73,-573.75 931.98,-580.96 925.42,-583.96"/>
</a>
</g>
<text text-anchor="middle" x="789" y="-787.75" font-family="Cascadia Code NF" font-size="10.00" fill="grey"> +raw_literal_</text>
</g>
<!-- Node3 -->
<g id="Node000003" class="node">
<title>Node3</title>
<g id="a_Node000003"><a xlink:href="../../d9/daf/classv8_1_1internal_1_1Tagged_3_01HeapObject_01_4.html" target="_top" xlink:title=" ">
<polygon fill="white" stroke="none" points="434,-1007.5 292,-1007.5 292,-705.5 434,-705.5 434,-1007.5"/>
<text text-anchor="start" x="297" y="-994" font-family="Cascadia Code NF" font-size="10.00">detail::BaseForTagged</text>
<text text-anchor="start" x="297" y="-981.25" font-family="Cascadia Code NF" font-size="10.00">&lt; v8::internal::Object</text>
<text text-anchor="start" x="339" y="-968.5" font-family="Cascadia Code NF" font-size="10.00"> &gt;::type</text>
<text text-anchor="start" x="360" y="-952" font-family="Cascadia Code NF" font-size="10.00"> </text>
<text text-anchor="start" x="303" y="-936" font-family="Cascadia Code NF" font-size="10.00">+</text>
<text text-anchor="start" x="320" y="-936" font-family="Cascadia Code NF" font-size="10.00">Tagged()</text>
<text text-anchor="start" x="303" y="-920" font-family="Cascadia Code NF" font-size="10.00">+</text>
<text text-anchor="start" x="320" y="-920" font-family="Cascadia Code NF" font-size="10.00">Tagged()</text>
<text text-anchor="start" x="303" y="-904" font-family="Cascadia Code NF" font-size="10.00">+</text>
<text text-anchor="start" x="320" y="-904" font-family="Cascadia Code NF" font-size="10.00">operator=()</text>
<text text-anchor="start" x="303" y="-888" font-family="Cascadia Code NF" font-size="10.00">+</text>
<text text-anchor="start" x="320" y="-888" font-family="Cascadia Code NF" font-size="10.00">Tagged()</text>
<text text-anchor="start" x="303" y="-872" font-family="Cascadia Code NF" font-size="10.00">+</text>
<text text-anchor="start" x="320" y="-872" font-family="Cascadia Code NF" font-size="10.00">operator*()</text>
<text text-anchor="start" x="303" y="-856" font-family="Cascadia Code NF" font-size="10.00">+</text>
<text text-anchor="start" x="320" y="-856" font-family="Cascadia Code NF" font-size="10.00">operator&#45;&gt;()</text>
<text text-anchor="start" x="303" y="-840" font-family="Cascadia Code NF" font-size="10.00">+</text>
<text text-anchor="start" x="320" y="-840" font-family="Cascadia Code NF" font-size="10.00">is_null()</text>
<text text-anchor="start" x="303" y="-824" font-family="Cascadia Code NF" font-size="10.00">+</text>
<text text-anchor="start" x="320" y="-824" font-family="Cascadia Code NF" font-size="10.00">IsHeapObject()</text>
<text text-anchor="start" x="303" y="-808" font-family="Cascadia Code NF" font-size="10.00">+</text>
<text text-anchor="start" x="320" y="-808" font-family="Cascadia Code NF" font-size="10.00">IsSmi()</text>
<text text-anchor="start" x="303" y="-792" font-family="Cascadia Code NF" font-size="10.00">+</text>
<text text-anchor="start" x="320" y="-792" font-family="Cascadia Code NF" font-size="10.00">Tagged()</text>
<text text-anchor="start" x="303" y="-776" font-family="Cascadia Code NF" font-size="10.00">+</text>
<text text-anchor="start" x="320" y="-776" font-family="Cascadia Code NF" font-size="10.00">address()</text>
<text text-anchor="start" x="303" y="-760" font-family="Cascadia Code NF" font-size="10.00">+</text>
<text text-anchor="start" x="320" y="-760" font-family="Cascadia Code NF" font-size="10.00">cast()</text>
<text text-anchor="start" x="303" y="-744" font-family="Cascadia Code NF" font-size="10.00">+</text>
<text text-anchor="start" x="320" y="-744" font-family="Cascadia Code NF" font-size="10.00">unchecked_cast()</text>
<text text-anchor="start" x="303" y="-728" font-family="Cascadia Code NF" font-size="10.00">+</text>
<text text-anchor="start" x="320" y="-728" font-family="Cascadia Code NF" font-size="10.00">cast()</text>
<text text-anchor="start" x="303" y="-712" font-family="Cascadia Code NF" font-size="10.00">#</text>
<text text-anchor="start" x="320" y="-712" font-family="Cascadia Code NF" font-size="10.00">Tagged()</text>
<polygon fill="#bfbfbf" stroke="#bfbfbf" points="292,-963.5 292,-963.5 434,-963.5 434,-963.5 292,-963.5"/>
<polygon fill="#bfbfbf" stroke="#bfbfbf" points="292,-947.5 292,-947.5 434,-947.5 434,-947.5 292,-947.5"/>
<polygon fill="none" stroke="#bfbfbf" points="292,-705.5 292,-1007.5 434,-1007.5 434,-705.5 292,-705.5"/>
</a>
</g>
</g>
<!-- Node3&#45;&gt;Node2 -->
<g id="edge2_Node000002_Node000003" class="edge">
<title>Node3&#45;&gt;Node2</title>
<g id="a_edge2_Node000002_Node000003"><a xlink:title=" ">
<path fill="none" stroke="#63b8ff" d="M445.36,-856.5C473.63,-856.5 505.2,-856.5 533.02,-856.5"/>
<polygon fill="none" stroke="#63b8ff" points="445.39,-853 435.39,-856.5 445.39,-860 445.39,-853"/>
</a>
</g>
</g>
<!-- Node4 -->
<g id="Node000004" class="node">
<title>Node4</title>
<g id="a_Node000004"><a xlink:href="../../df/d94/classv8_1_1internal_1_1TaggedImpl.html" target="_top" xlink:title=" ">
<polygon fill="white" stroke="none" points="256,-978.5 148,-978.5 148,-734.5 256,-734.5 256,-978.5"/>
<text text-anchor="start" x="154" y="-965" font-family="Cascadia Code NF" font-size="10.00">StrongTaggedBase</text>
<text text-anchor="start" x="199" y="-949" font-family="Cascadia Code NF" font-size="10.00"> </text>
<text text-anchor="start" x="152" y="-933" font-family="Cascadia Code NF" font-size="10.00">+</text>
<text text-anchor="start" x="162" y="-933" font-family="Cascadia Code NF" font-size="10.00">TaggedImpl()</text>
<text text-anchor="start" x="152" y="-917" font-family="Cascadia Code NF" font-size="10.00">+</text>
<text text-anchor="start" x="162" y="-917" font-family="Cascadia Code NF" font-size="10.00">TaggedImpl()</text>
<text text-anchor="start" x="152" y="-901" font-family="Cascadia Code NF" font-size="10.00">+</text>
<text text-anchor="start" x="162" y="-901" font-family="Cascadia Code NF" font-size="10.00">operator bool()</text>
<text text-anchor="start" x="152" y="-885" font-family="Cascadia Code NF" font-size="10.00">+</text>
<text text-anchor="start" x="162" y="-885" font-family="Cascadia Code NF" font-size="10.00">operator==()</text>
<text text-anchor="start" x="152" y="-869" font-family="Cascadia Code NF" font-size="10.00">+</text>
<text text-anchor="start" x="162" y="-869" font-family="Cascadia Code NF" font-size="10.00">operator!=()</text>
<text text-anchor="start" x="152" y="-853" font-family="Cascadia Code NF" font-size="10.00">+</text>
<text text-anchor="start" x="162" y="-853" font-family="Cascadia Code NF" font-size="10.00">SafeEquals()</text>
<text text-anchor="start" x="152" y="-837" font-family="Cascadia Code NF" font-size="10.00">+</text>
<text text-anchor="start" x="162" y="-837" font-family="Cascadia Code NF" font-size="10.00">operator&lt;()</text>
<text text-anchor="start" x="152" y="-821" font-family="Cascadia Code NF" font-size="10.00">+</text>
<text text-anchor="start" x="162" y="-821" font-family="Cascadia Code NF" font-size="10.00">ptr()</text>
<text text-anchor="start" x="152" y="-805" font-family="Cascadia Code NF" font-size="10.00">+</text>
<text text-anchor="start" x="162" y="-805" font-family="Cascadia Code NF" font-size="10.00">IsObject()</text>
<text text-anchor="start" x="152" y="-789" font-family="Cascadia Code NF" font-size="10.00">+</text>
<text text-anchor="start" x="162" y="-789" font-family="Cascadia Code NF" font-size="10.00">IsSmi()</text>
<text text-anchor="start" x="162" y="-773" font-family="Cascadia Code NF" font-size="10.00">and 25 more...</text>
<text text-anchor="start" x="152" y="-757" font-family="Cascadia Code NF" font-size="10.00">#</text>
<text text-anchor="start" x="162" y="-757" font-family="Cascadia Code NF" font-size="10.00">ptr_location()</text>
<text text-anchor="start" x="152" y="-741" font-family="Cascadia Code NF" font-size="10.00">#</text>
<text text-anchor="start" x="162" y="-741" font-family="Cascadia Code NF" font-size="10.00">ptr_location()</text>
<polygon fill="#bfbfbf" stroke="#bfbfbf" points="148,-960.5 148,-960.5 256,-960.5 256,-960.5 148,-960.5"/>
<polygon fill="#bfbfbf" stroke="#bfbfbf" points="148,-944.5 148,-944.5 256,-944.5 256,-944.5 148,-944.5"/>
<polygon fill="none" stroke="#bfbfbf" points="148,-734.5 148,-978.5 256,-978.5 256,-734.5 148,-734.5"/>
</a>
</g>
</g>
<!-- Node4&#45;&gt;Node3 -->
<g id="edge3_Node000003_Node000004" class="edge">
<title>Node4&#45;&gt;Node3</title>
<g id="a_edge3_Node000003_Node000004"><a xlink:title=" ">
<path fill="none" stroke="#63b8ff" d="M267.28,-856.5C275.43,-856.5 283.8,-856.5 292.03,-856.5"/>
<polygon fill="none" stroke="#63b8ff" points="267.46,-853 257.46,-856.5 267.46,-860 267.46,-853"/>
</a>
</g>
</g>
<!-- Node5 -->
<g id="Node000005" class="node">
<title>Node5</title>
<g id="a_Node000005"><a xlink:title=" ">
<polygon fill="white" stroke="none" points="40,-882.5 0,-882.5 0,-830.5 40,-830.5 40,-882.5"/>
<text text-anchor="start" x="5" y="-869" font-family="Cascadia Code NF" font-size="10.00">const</text>
<text text-anchor="start" x="17" y="-853" font-family="Cascadia Code NF" font-size="10.00"> </text>
<text text-anchor="start" x="17" y="-837" font-family="Cascadia Code NF" font-size="10.00"> </text>
<polygon fill="#bfbfbf" stroke="#bfbfbf" points="0,-864.5 0,-864.5 40,-864.5 40,-864.5 0,-864.5"/>
<polygon fill="#bfbfbf" stroke="#bfbfbf" points="0,-848.5 0,-848.5 40,-848.5 40,-848.5 0,-848.5"/>
<polygon fill="none" stroke="#bfbfbf" points="0,-830.5 0,-882.5 40,-882.5 40,-830.5 0,-830.5"/>
</a>
</g>
</g>
<!-- Node5&#45;&gt;Node4 -->
<g id="edge4_Node000004_Node000005" class="edge">
<title>Node5&#45;&gt;Node4</title>
<g id="a_edge4_Node000004_Node000005"><a xlink:title=" ">
<path fill="none" stroke="#63b8ff" d="M39.92,-856.5C62.49,-856.5 101.44,-856.5 135.38,-856.5"/>
<polygon fill="none" stroke="#63b8ff" points="135.2,-856.5 141.2,-852.5 147.2,-856.5 141.2,-860.5 135.2,-856.5"/>
</a>
</g>
<text text-anchor="middle" x="94" y="-872.5" font-family="Cascadia Code NF" font-size="10.00" fill="grey"> +kCanBeWeak</text>
<text text-anchor="middle" x="94" y="-859.75" font-family="Cascadia Code NF" font-size="10.00" fill="grey">+kIsFull</text>
</g>
<!-- Node6 -->
<g id="Node000006" class="node">
<title>Node6</title>
<g id="a_Node000006"><a xlink:href="../../d3/d87/classuint32__t.html" target="_top" xlink:title=" ">
<polygon fill="white" stroke="none" points="639,-709.5 581,-709.5 581,-657.5 639,-657.5 639,-709.5"/>
<text text-anchor="start" x="586" y="-696" font-family="Cascadia Code NF" font-size="10.00">uint32_t</text>
<text text-anchor="start" x="607" y="-680" font-family="Cascadia Code NF" font-size="10.00"> </text>
<text text-anchor="start" x="607" y="-664" font-family="Cascadia Code NF" font-size="10.00"> </text>
<polygon fill="#bfbfbf" stroke="#bfbfbf" points="581,-691.5 581,-691.5 639,-691.5 639,-691.5 581,-691.5"/>
<polygon fill="#bfbfbf" stroke="#bfbfbf" points="581,-675.5 581,-675.5 639,-675.5 639,-675.5 581,-675.5"/>
<polygon fill="none" stroke="#bfbfbf" points="581,-657.5 581,-709.5 639,-709.5 639,-657.5 581,-657.5"/>
</a>
</g>
</g>
<!-- Node6&#45;&gt;Node1 -->
<g id="edge5_Node000001_Node000006" class="edge">
<title>Node6&#45;&gt;Node1</title>
<g id="a_edge5_Node000001_Node000006"><a xlink:title=" ">
<path fill="none" stroke="#63b8ff" d="M638.75,-678.11C686.02,-668.14 784.23,-643.96 858,-602.5 869.2,-596.2 880.32,-588.67 890.94,-580.65"/>
<polygon fill="none" stroke="#63b8ff" points="890.78,-580.77 893.05,-573.92 900.24,-573.38 897.97,-580.23 890.78,-580.77"/>
</a>
</g>
<text text-anchor="middle" x="789" y="-659.75" font-family="Cascadia Code NF" font-size="10.00" fill="grey"> +uint32_value_</text>
</g>
<!-- Node7 -->
<g id="Node000007" class="node">
<title>Node7</title>
<g id="a_Node000007"><a xlink:title=" ">
<polygon fill="white" stroke="none" points="636,-639.5 584,-639.5 584,-587.5 636,-587.5 636,-639.5"/>
<text text-anchor="start" x="589" y="-626" font-family="Cascadia Code NF" font-size="10.00">int32_t</text>
<text text-anchor="start" x="607" y="-610" font-family="Cascadia Code NF" font-size="10.00"> </text>
<text text-anchor="start" x="607" y="-594" font-family="Cascadia Code NF" font-size="10.00"> </text>
<polygon fill="#bfbfbf" stroke="#bfbfbf" points="584,-621.5 584,-621.5 636,-621.5 636,-621.5 584,-621.5"/>
<polygon fill="#bfbfbf" stroke="#bfbfbf" points="584,-605.5 584,-605.5 636,-605.5 636,-605.5 584,-605.5"/>
<polygon fill="none" stroke="#bfbfbf" points="584,-587.5 584,-639.5 636,-639.5 636,-587.5 584,-587.5"/>
</a>
</g>
</g>
<!-- Node7&#45;&gt;Node1 -->
<g id="edge6_Node000001_Node000007" class="edge">
<title>Node7&#45;&gt;Node1</title>
<g id="a_edge6_Node000001_Node000007"><a xlink:title=" ">
<path fill="none" stroke="#63b8ff" d="M635.75,-607.78C680.48,-597.27 777.59,-573.64 858,-548.5 859.94,-547.89 861.9,-547.27 863.87,-546.64"/>
<polygon fill="none" stroke="#63b8ff" points="863.83,-546.65 868.28,-540.98 875.23,-542.91 870.77,-548.58 863.83,-546.65"/>
</a>
</g>
<text text-anchor="middle" x="789" y="-588.75" font-family="Cascadia Code NF" font-size="10.00" fill="grey"> +int32_value_</text>
</g>
<!-- Node8 -->
<g id="Node000008" class="node">
<title>Node8</title>
<g id="a_Node000008"><a xlink:title=" ">
<polygon fill="white" stroke="none" points="639,-569.5 581,-569.5 581,-517.5 639,-517.5 639,-569.5"/>
<text text-anchor="start" x="586" y="-556" font-family="Cascadia Code NF" font-size="10.00">uint64_t</text>
<text text-anchor="start" x="607" y="-540" font-family="Cascadia Code NF" font-size="10.00"> </text>
<text text-anchor="start" x="607" y="-524" font-family="Cascadia Code NF" font-size="10.00"> </text>
<polygon fill="#bfbfbf" stroke="#bfbfbf" points="581,-551.5 581,-551.5 639,-551.5 639,-551.5 581,-551.5"/>
<polygon fill="#bfbfbf" stroke="#bfbfbf" points="581,-535.5 581,-535.5 639,-535.5 639,-535.5 581,-535.5"/>
<polygon fill="none" stroke="#bfbfbf" points="581,-517.5 581,-569.5 639,-569.5 639,-517.5 581,-517.5"/>
</a>
</g>
</g>
<!-- Node8&#45;&gt;Node1 -->
<g id="edge7_Node000001_Node000008" class="edge">
<title>Node8&#45;&gt;Node1</title>
<g id="a_edge7_Node000001_Node000008"><a xlink:title=" ">
<path fill="none" stroke="#63b8ff" d="M638.72,-540.78C686.36,-536.11 786.11,-526.33 863.41,-518.75"/>
<polygon fill="none" stroke="#63b8ff" points="863.26,-518.77 868.84,-514.2 875.2,-517.6 869.62,-522.16 863.26,-518.77"/>
</a>
</g>
<text text-anchor="middle" x="789" y="-534.75" font-family="Cascadia Code NF" font-size="10.00" fill="grey"> +uint64_value_</text>
</g>
<!-- Node9 -->
<g id="Node000009" class="node">
<title>Node9</title>
<g id="a_Node000009"><a xlink:href="../../d8/d3f/classint64__t.html" target="_top" xlink:title=" ">
<polygon fill="white" stroke="none" points="636,-499.5 584,-499.5 584,-447.5 636,-447.5 636,-499.5"/>
<text text-anchor="start" x="589" y="-486" font-family="Cascadia Code NF" font-size="10.00">int64_t</text>
<text text-anchor="start" x="607" y="-470" font-family="Cascadia Code NF" font-size="10.00"> </text>
<text text-anchor="start" x="607" y="-454" font-family="Cascadia Code NF" font-size="10.00"> </text>
<polygon fill="#bfbfbf" stroke="#bfbfbf" points="584,-481.5 584,-481.5 636,-481.5 636,-481.5 584,-481.5"/>
<polygon fill="#bfbfbf" stroke="#bfbfbf" points="584,-465.5 584,-465.5 636,-465.5 636,-465.5 584,-465.5"/>
<polygon fill="none" stroke="#bfbfbf" points="584,-447.5 584,-499.5 636,-499.5 636,-447.5 584,-447.5"/>
</a>
</g>
</g>
<!-- Node9&#45;&gt;Node1 -->
<g id="edge8_Node000001_Node000009" class="edge">
<title>Node9&#45;&gt;Node1</title>
<g id="a_edge8_Node000001_Node000009"><a xlink:title=" ">
<path fill="none" stroke="#63b8ff" d="M635.82,-475.93C682.18,-480.48 784.36,-490.5 863.24,-498.23"/>
<polygon fill="none" stroke="#63b8ff" points="863.34,-498.24 869.71,-494.84 875.29,-499.41 868.92,-502.81 863.34,-498.24"/>
</a>
</g>
<text text-anchor="middle" x="789" y="-499.75" font-family="Cascadia Code NF" font-size="10.00" fill="grey"> +int64_value_</text>
</g>
<!-- Node10 -->
<g id="Node000010" class="node">
<title>Node10</title>
<g id="a_Node000010"><a xlink:href="../../d1/d2c/classv8_1_1internal_1_1Float32.html" target="_top" xlink:title=" ">
<polygon fill="white" stroke="none" points="678,-429.5 542,-429.5 542,-281.5 678,-281.5 678,-429.5"/>
<text text-anchor="start" x="547" y="-416" font-family="Cascadia Code NF" font-size="10.00">v8::internal::Float32</text>
<text text-anchor="start" x="607" y="-400" font-family="Cascadia Code NF" font-size="10.00"> </text>
<text text-anchor="start" x="548.5" y="-384" font-family="Cascadia Code NF" font-size="10.00">+</text>
<text text-anchor="start" x="561" y="-384" font-family="Cascadia Code NF" font-size="10.00">Float32()</text>
<text text-anchor="start" x="548.5" y="-368" font-family="Cascadia Code NF" font-size="10.00">+</text>
<text text-anchor="start" x="561" y="-368" font-family="Cascadia Code NF" font-size="10.00">Float32()</text>
<text text-anchor="start" x="548.5" y="-352" font-family="Cascadia Code NF" font-size="10.00">+</text>
<text text-anchor="start" x="561" y="-352" font-family="Cascadia Code NF" font-size="10.00">get_bits()</text>
<text text-anchor="start" x="548.5" y="-336" font-family="Cascadia Code NF" font-size="10.00">+</text>
<text text-anchor="start" x="561" y="-336" font-family="Cascadia Code NF" font-size="10.00">get_scalar()</text>
<text text-anchor="start" x="548.5" y="-320" font-family="Cascadia Code NF" font-size="10.00">+</text>
<text text-anchor="start" x="561" y="-320" font-family="Cascadia Code NF" font-size="10.00">is_nan()</text>
<text text-anchor="start" x="548.5" y="-304" font-family="Cascadia Code NF" font-size="10.00">+</text>
<text text-anchor="start" x="561" y="-304" font-family="Cascadia Code NF" font-size="10.00">get_bits_address()</text>
<text text-anchor="start" x="548.5" y="-288" font-family="Cascadia Code NF" font-size="10.00">+</text>
<text text-anchor="start" x="561" y="-288" font-family="Cascadia Code NF" font-size="10.00">FromBits()</text>
<polygon fill="#bfbfbf" stroke="#bfbfbf" points="542,-411.5 542,-411.5 678,-411.5 678,-411.5 542,-411.5"/>
<polygon fill="#bfbfbf" stroke="#bfbfbf" points="542,-395.5 542,-395.5 678,-395.5 678,-395.5 542,-395.5"/>
<polygon fill="none" stroke="#bfbfbf" points="542,-281.5 542,-429.5 678,-429.5 678,-281.5 542,-281.5"/>
</a>
</g>
</g>
<!-- Node10&#45;&gt;Node1 -->
<g id="edge9_Node000001_Node000010" class="edge">
<title>Node10&#45;&gt;Node1</title>
<g id="a_edge9_Node000001_Node000010"><a xlink:title=" ">
<path fill="none" stroke="#63b8ff" d="M677.73,-384.1C730.14,-406.56 804.06,-438.24 864.18,-464.01"/>
<polygon fill="none" stroke="#63b8ff" points="864.16,-464 871.25,-462.68 875.19,-468.72 868.09,-470.04 864.16,-464"/>
</a>
</g>
<text text-anchor="middle" x="789" y="-461.75" font-family="Cascadia Code NF" font-size="10.00" fill="grey"> +float_value_</text>
</g>
<!-- Node11 -->
<g id="Node000011" class="node">
<title>Node11</title>
<g id="a_Node000011"><a xlink:href="../../dd/d5d/classv8_1_1internal_1_1Float64.html" target="_top" xlink:title=" ">
<polygon fill="white" stroke="none" points="678,-263.5 542,-263.5 542,-83.5 678,-83.5 678,-263.5"/>
<text text-anchor="start" x="547" y="-250" font-family="Cascadia Code NF" font-size="10.00">v8::internal::Float64</text>
<text text-anchor="start" x="607" y="-234" font-family="Cascadia Code NF" font-size="10.00"> </text>
<text text-anchor="start" x="548.5" y="-218" font-family="Cascadia Code NF" font-size="10.00">+</text>
<text text-anchor="start" x="561" y="-218" font-family="Cascadia Code NF" font-size="10.00">Float64()</text>
<text text-anchor="start" x="548.5" y="-202" font-family="Cascadia Code NF" font-size="10.00">+</text>
<text text-anchor="start" x="561" y="-202" font-family="Cascadia Code NF" font-size="10.00">Float64()</text>
<text text-anchor="start" x="548.5" y="-186" font-family="Cascadia Code NF" font-size="10.00">+</text>
<text text-anchor="start" x="561" y="-186" font-family="Cascadia Code NF" font-size="10.00">get_bits()</text>
<text text-anchor="start" x="548.5" y="-170" font-family="Cascadia Code NF" font-size="10.00">+</text>
<text text-anchor="start" x="561" y="-170" font-family="Cascadia Code NF" font-size="10.00">get_scalar()</text>
<text text-anchor="start" x="548.5" y="-154" font-family="Cascadia Code NF" font-size="10.00">+</text>
<text text-anchor="start" x="561" y="-154" font-family="Cascadia Code NF" font-size="10.00">is_hole_nan()</text>
<text text-anchor="start" x="548.5" y="-138" font-family="Cascadia Code NF" font-size="10.00">+</text>
<text text-anchor="start" x="561" y="-138" font-family="Cascadia Code NF" font-size="10.00">is_nan()</text>
<text text-anchor="start" x="548.5" y="-122" font-family="Cascadia Code NF" font-size="10.00">+</text>
<text text-anchor="start" x="561" y="-122" font-family="Cascadia Code NF" font-size="10.00">get_bits_address()</text>
<text text-anchor="start" x="548.5" y="-106" font-family="Cascadia Code NF" font-size="10.00">+</text>
<text text-anchor="start" x="561" y="-106" font-family="Cascadia Code NF" font-size="10.00">operator==()</text>
<text text-anchor="start" x="548.5" y="-90" font-family="Cascadia Code NF" font-size="10.00">+</text>
<text text-anchor="start" x="561" y="-90" font-family="Cascadia Code NF" font-size="10.00">FromBits()</text>
<polygon fill="#bfbfbf" stroke="#bfbfbf" points="542,-245.5 542,-245.5 678,-245.5 678,-245.5 542,-245.5"/>
<polygon fill="#bfbfbf" stroke="#bfbfbf" points="542,-229.5 542,-229.5 678,-229.5 678,-229.5 542,-229.5"/>
<polygon fill="none" stroke="#bfbfbf" points="542,-83.5 542,-263.5 678,-263.5 678,-83.5 542,-83.5"/>
</a>
</g>
</g>
<!-- Node11&#45;&gt;Node1 -->
<g id="edge10_Node000001_Node000011" class="edge">
<title>Node11&#45;&gt;Node1</title>
<g id="a_edge10_Node000001_Node000011"><a xlink:title=" ">
<path fill="none" stroke="#63b8ff" d="M677.87,-227.86C728.66,-270 799.5,-330.66 858,-387.75 873.18,-402.57 888.89,-419.04 903.51,-434.93"/>
<polygon fill="none" stroke="#63b8ff" points="903.28,-434.68 910.28,-436.41 911.38,-443.54 904.38,-441.81 903.28,-434.68"/>
</a>
</g>
<text text-anchor="middle" x="789" y="-390.75" font-family="Cascadia Code NF" font-size="10.00" fill="grey"> +double_value_</text>
</g>
<!-- Node12 -->
<g id="Node000012" class="node">
<title>Node12</title>
<g id="a_Node000012"><a xlink:title=" ">
<polygon fill="white" stroke="none" points="702,-65 518,-65 518,0 702,0 702,-65"/>
<text text-anchor="start" x="523" y="-51.5" font-family="Cascadia Code NF" font-size="10.00">v8::internal::Translated</text>
<text text-anchor="start" x="523" y="-38.75" font-family="Cascadia Code NF" font-size="10.00">Value::MaterializedObjectInfo</text>
<text text-anchor="start" x="607" y="-22.5" font-family="Cascadia Code NF" font-size="10.00"> </text>
<text text-anchor="start" x="607" y="-6.5" font-family="Cascadia Code NF" font-size="10.00"> </text>
<polygon fill="#bfbfbf" stroke="#bfbfbf" points="518,-34 518,-34 702,-34 702,-34 518,-34"/>
<polygon fill="#bfbfbf" stroke="#bfbfbf" points="518,-18 518,-18 702,-18 702,-18 518,-18"/>
<polygon fill="none" stroke="#bfbfbf" points="518,0 518,-65 702,-65 702,0 518,0"/>
</a>
</g>
</g>
<!-- Node12&#45;&gt;Node1 -->
<g id="edge11_Node000001_Node000012" class="edge">
<title>Node12&#45;&gt;Node1</title>
<g id="a_edge11_Node000001_Node000012"><a xlink:title=" ">
<path fill="none" stroke="#63b8ff" d="M687.36,-64.79C692.46,-67.83 697.39,-71.07 702,-74.5 785.95,-136.92 802.08,-162.34 858,-250.75 894.19,-307.97 923.54,-379.15 942.79,-432.2"/>
<polygon fill="none" stroke="#63b8ff" points="942.76,-432.1 948.54,-436.4 946.8,-443.4 941.01,-439.1 942.76,-432.1"/>
</a>
</g>
<text text-anchor="middle" x="789" y="-253.75" font-family="Cascadia Code NF" font-size="10.00" fill="grey"> +materialization_info_</text>
</g>
<!-- Node13 -->
<g id="Node000013" class="node">
<title>Node13</title>
<g id="a_Node000013"><a xlink:href="../../d1/da0/classint.html" target="_top" xlink:title=" ">
<polygon fill="white" stroke="none" points="377,-58.5 349,-58.5 349,-6.5 377,-6.5 377,-58.5"/>
<text text-anchor="start" x="354" y="-45" font-family="Cascadia Code NF" font-size="10.00">int</text>
<text text-anchor="start" x="360" y="-29" font-family="Cascadia Code NF" font-size="10.00"> </text>
<text text-anchor="start" x="360" y="-13" font-family="Cascadia Code NF" font-size="10.00"> </text>
<polygon fill="#bfbfbf" stroke="#bfbfbf" points="349,-40.5 349,-40.5 377,-40.5 377,-40.5 349,-40.5"/>
<polygon fill="#bfbfbf" stroke="#bfbfbf" points="349,-24.5 349,-24.5 377,-24.5 377,-24.5 349,-24.5"/>
<polygon fill="none" stroke="#bfbfbf" points="349,-6.5 349,-58.5 377,-58.5 377,-6.5 349,-6.5"/>
</a>
</g>
</g>
<!-- Node13&#45;&gt;Node12 -->
<g id="edge12_Node000012_Node000013" class="edge">
<title>Node13&#45;&gt;Node12</title>
<g id="a_edge12_Node000012_Node000013"><a xlink:title=" ">
<path fill="none" stroke="#63b8ff" d="M376.83,-32.5C400.97,-32.5 455.22,-32.5 505.21,-32.5"/>
<polygon fill="none" stroke="#63b8ff" points="505.25,-32.5 511.25,-28.5 517.25,-32.5 511.25,-36.5 505.25,-32.5"/>
</a>
</g>
<text text-anchor="middle" x="476" y="-48.5" font-family="Cascadia Code NF" font-size="10.00" fill="grey"> +id_</text>
<text text-anchor="middle" x="476" y="-35.75" font-family="Cascadia Code NF" font-size="10.00" fill="grey">+length_</text>
</g>
</g>
</svg>

<g id="navigator" transform="translate(0 0)" fill="#404254">
  <rect fill="#f2f5e9" fill-opacity="0.5" stroke="#606060" stroke-width=".5" x="0" y="0" width="60" height="60"/>
  <use id="zoomplus" xlink:href="#zoomPlus" x="17" y="9" onmousedown="handleZoom(evt,'in')"/>
  <use id="zoomminus" xlink:href="#zoomMin" x="42" y="9" onmousedown="handleZoom(evt,'out')"/>
  <use id="reset" xlink:href="#resetDef" x="30" y="36" onmousedown="handleReset()"/>
   <use id="arrowup" xlink:href="#arrowUp" x="0" y="0" onmousedown="handlePan(0,-1)"/>
  <use id="arrowright" xlink:href="#arrowRight" x="0" y="0" onmousedown="handlePan(1,0)"/>
  <use id="arrowdown" xlink:href="#arrowDown" x="0" y="0" onmousedown="handlePan(0,1)"/>
  <use id="arrowleft" xlink:href="#arrowLeft" x="0" y="0" onmousedown="handlePan(-1,0)"/>
</g>
<svg viewBox="0 0 15 15" width="100%" height="30px" preserveAspectRatio="xMaxYMin meet">
 <g id="arrow_out" transform="scale(0.3 0.3)">
  <a xlink:href="classv8_1_1internal_1_1TranslatedValue__coll__graph_org.svg" target="_base">
   <rect id="button" ry="5" rx="5" y="6" x="6" height="38" width="38"
        fill="#f2f5e9" fill-opacity="0.5" stroke="#606060" stroke-width="1.0"/>
   <path id="arrow"
     d="M 11.500037,31.436501 C 11.940474,20.09759 22.043105,11.32322 32.158766,21.979434 L 37.068811,17.246167 C 37.068811,17.246167 37.088388,32 37.088388,32 L 22.160133,31.978069 C 22.160133,31.978069 26.997745,27.140456 26.997745,27.140456 C 18.528582,18.264221 13.291696,25.230495 11.500037,31.436501 z"
     style="fill:#404040;"/>
  </a>
 </g>
</svg>

<style type='text/css'>
<![CDATA[
[data-mouse-over-selected='false'] { opacity: 0.7; }
[data-mouse-over-selected='true']  { opacity: 1.0; }
]]>
</style>
<script type="application/ecmascript"><![CDATA[
document.addEventListener('DOMContentLoaded', (event) => {
  highlightEdges();
  highlightAdjacentNodes();
});
]]></script>
</svg>
