<?xml version="1.0" encoding="UTF-8" standalone="no"?>
<!DOCTYPE svg PUBLIC "-//W3C//DTD SVG 1.1//EN"
 "http://www.w3.org/Graphics/SVG/1.1/DTD/svg11.dtd">
<!-- Generated by graphviz version 11.0.0 (20240428.1522)
 -->
<!-- Title: v8::internal::CppHeapPointerHandleT Pages: 1 -->
<svg width="912pt" height="73pt"
 viewBox="0.00 0.00 912.00 73.00" xmlns="http://www.w3.org/2000/svg" xmlns:xlink="http://www.w3.org/1999/xlink">
<g id="graph0" class="graph" transform="scale(1 1) rotate(0) translate(4 69)">
<title>v8::internal::CppHeapPointerHandleT</title>
<!-- Node1 -->
<g id="Node000001" class="node">
<title>Node1</title>
<g id="a_Node000001"><a xlink:title=" ">
<polygon fill="#999999" stroke="none" points="904,-65 726,-65 726,0 904,0 904,-65"/>
<text text-anchor="start" x="731" y="-51.5" font-family="Cascadia Code NF" font-size="10.00">v8::internal::CppHeapPointer</text>
<text text-anchor="start" x="794" y="-38.75" font-family="Cascadia Code NF" font-size="10.00">HandleT</text>
<text text-anchor="start" x="752" y="-22.5" font-family="Cascadia Code NF" font-size="10.00">+</text>
<text text-anchor="start" x="784" y="-22.5" font-family="Cascadia Code NF" font-size="10.00">kMachineType</text>
<text text-anchor="start" x="812" y="-6.5" font-family="Cascadia Code NF" font-size="10.00"> </text>
<polygon fill="#666666" stroke="#666666" points="726,-34 726,-34 904,-34 904,-34 726,-34"/>
<polygon fill="#666666" stroke="#666666" points="726,-18 726,-18 782,-18 782,-18 726,-18"/>
<polygon fill="#666666" stroke="#666666" points="782,-18 782,-18 904,-18 904,-18 782,-18"/>
<polygon fill="none" stroke="#666666" points="726,0 726,-65 904,-65 904,0 726,0"/>
</a>
</g>
</g>
<!-- Node2 -->
<g id="Node000002" class="node">
<title>Node2</title>
<g id="a_Node000002"><a xlink:href="$de/d43/structv8_1_1internal_1_1Uint32T.html" xlink:title=" ">
<polygon fill="white" stroke="none" points="690,-58.5 554,-58.5 554,-6.5 690,-6.5 690,-58.5"/>
<text text-anchor="start" x="559" y="-45" font-family="Cascadia Code NF" font-size="10.00">v8::internal::Uint32T</text>
<text text-anchor="start" x="569.5" y="-29" font-family="Cascadia Code NF" font-size="10.00">+</text>
<text text-anchor="start" x="591" y="-29" font-family="Cascadia Code NF" font-size="10.00">kMachineType</text>
<text text-anchor="start" x="619" y="-13" font-family="Cascadia Code NF" font-size="10.00"> </text>
<polygon fill="#bfbfbf" stroke="#bfbfbf" points="554,-40.5 554,-40.5 690,-40.5 690,-40.5 554,-40.5"/>
<polygon fill="#bfbfbf" stroke="#bfbfbf" points="554,-24.5 554,-24.5 589,-24.5 589,-24.5 554,-24.5"/>
<polygon fill="#bfbfbf" stroke="#bfbfbf" points="589,-24.5 589,-24.5 690,-24.5 690,-24.5 589,-24.5"/>
<polygon fill="none" stroke="#bfbfbf" points="554,-6.5 554,-58.5 690,-58.5 690,-6.5 554,-6.5"/>
</a>
</g>
</g>
<!-- Node2&#45;&gt;Node1 -->
<g id="edge1_Node000001_Node000002" class="edge">
<title>Node2&#45;&gt;Node1</title>
<g id="a_edge1_Node000001_Node000002"><a xlink:title=" ">
<path fill="none" stroke="#63b8ff" d="M701.24,-32.5C709.43,-32.5 717.8,-32.5 726.09,-32.5"/>
<polygon fill="none" stroke="#63b8ff" points="701.32,-29 691.32,-32.5 701.32,-36 701.32,-29"/>
</a>
</g>
</g>
<!-- Node3 -->
<g id="Node000003" class="node">
<title>Node3</title>
<g id="a_Node000003"><a xlink:href="$d4/d7d/structv8_1_1internal_1_1Word32T.html" xlink:title=" ">
<polygon fill="white" stroke="none" points="518,-58.5 368,-58.5 368,-6.5 518,-6.5 518,-58.5"/>
<text text-anchor="start" x="380" y="-45" font-family="Cascadia Code NF" font-size="10.00">v8::internal::Word32T</text>
<text text-anchor="start" x="372" y="-29" font-family="Cascadia Code NF" font-size="10.00">+</text>
<text text-anchor="start" x="382" y="-29" font-family="Cascadia Code NF" font-size="10.00">kMachineRepresentation</text>
<text text-anchor="start" x="440" y="-13" font-family="Cascadia Code NF" font-size="10.00"> </text>
<polygon fill="#bfbfbf" stroke="#bfbfbf" points="368,-40.5 368,-40.5 518,-40.5 518,-40.5 368,-40.5"/>
<polygon fill="#bfbfbf" stroke="#bfbfbf" points="368,-24.5 368,-24.5 380,-24.5 380,-24.5 368,-24.5"/>
<polygon fill="#bfbfbf" stroke="#bfbfbf" points="380,-24.5 380,-24.5 518,-24.5 518,-24.5 380,-24.5"/>
<polygon fill="none" stroke="#bfbfbf" points="368,-6.5 368,-58.5 518,-58.5 518,-6.5 368,-6.5"/>
</a>
</g>
</g>
<!-- Node3&#45;&gt;Node2 -->
<g id="edge2_Node000002_Node000003" class="edge">
<title>Node3&#45;&gt;Node2</title>
<g id="a_edge2_Node000002_Node000003"><a xlink:title=" ">
<path fill="none" stroke="#63b8ff" d="M529.16,-32.5C537.54,-32.5 545.96,-32.5 554.12,-32.5"/>
<polygon fill="none" stroke="#63b8ff" points="529.3,-29 519.3,-32.5 529.3,-36 529.3,-29"/>
</a>
</g>
</g>
<!-- Node4 -->
<g id="Node000004" class="node">
<title>Node4</title>
<g id="a_Node000004"><a xlink:href="$d9/da6/structv8_1_1internal_1_1IntegralT.html" xlink:title=" ">
<polygon fill="white" stroke="none" points="332,-58.5 184,-58.5 184,-6.5 332,-6.5 332,-58.5"/>
<text text-anchor="start" x="189" y="-45" font-family="Cascadia Code NF" font-size="10.00">v8::internal::IntegralT</text>
<text text-anchor="start" x="255" y="-29" font-family="Cascadia Code NF" font-size="10.00"> </text>
<text text-anchor="start" x="255" y="-13" font-family="Cascadia Code NF" font-size="10.00"> </text>
<polygon fill="#bfbfbf" stroke="#bfbfbf" points="184,-40.5 184,-40.5 332,-40.5 332,-40.5 184,-40.5"/>
<polygon fill="#bfbfbf" stroke="#bfbfbf" points="184,-24.5 184,-24.5 332,-24.5 332,-24.5 184,-24.5"/>
<polygon fill="none" stroke="#bfbfbf" points="184,-6.5 184,-58.5 332,-58.5 332,-6.5 184,-6.5"/>
</a>
</g>
</g>
<!-- Node4&#45;&gt;Node3 -->
<g id="edge3_Node000003_Node000004" class="edge">
<title>Node4&#45;&gt;Node3</title>
<g id="a_edge3_Node000003_Node000004"><a xlink:title=" ">
<path fill="none" stroke="#63b8ff" d="M343.17,-32.5C351.52,-32.5 359.96,-32.5 368.2,-32.5"/>
<polygon fill="none" stroke="#63b8ff" points="343.37,-29 333.37,-32.5 343.37,-36 343.37,-29"/>
</a>
</g>
</g>
<!-- Node5 -->
<g id="Node000005" class="node">
<title>Node5</title>
<g id="a_Node000005"><a xlink:href="$df/d93/structv8_1_1internal_1_1UntaggedT.html" xlink:title=" ">
<polygon fill="white" stroke="none" points="148,-58.5 0,-58.5 0,-6.5 148,-6.5 148,-58.5"/>
<text text-anchor="start" x="5" y="-45" font-family="Cascadia Code NF" font-size="10.00">v8::internal::UntaggedT</text>
<text text-anchor="start" x="71" y="-29" font-family="Cascadia Code NF" font-size="10.00"> </text>
<text text-anchor="start" x="71" y="-13" font-family="Cascadia Code NF" font-size="10.00"> </text>
<polygon fill="#bfbfbf" stroke="#bfbfbf" points="0,-40.5 0,-40.5 148,-40.5 148,-40.5 0,-40.5"/>
<polygon fill="#bfbfbf" stroke="#bfbfbf" points="0,-24.5 0,-24.5 148,-24.5 148,-24.5 0,-24.5"/>
<polygon fill="none" stroke="#bfbfbf" points="0,-6.5 0,-58.5 148,-58.5 148,-6.5 0,-6.5"/>
</a>
</g>
</g>
<!-- Node5&#45;&gt;Node4 -->
<g id="edge4_Node000004_Node000005" class="edge">
<title>Node5&#45;&gt;Node4</title>
<g id="a_edge4_Node000004_Node000005"><a xlink:title=" ">
<path fill="none" stroke="#63b8ff" d="M159.48,-32.5C167.68,-32.5 175.94,-32.5 184.01,-32.5"/>
<polygon fill="none" stroke="#63b8ff" points="159.49,-29 149.49,-32.5 159.49,-36 159.49,-29"/>
</a>
</g>
</g>
</g>
</svg>
