<?xml version="1.0" encoding="UTF-8" standalone="no"?>
<!DOCTYPE svg PUBLIC "-//W3C//DTD SVG 1.1//EN"
 "http://www.w3.org/Graphics/SVG/1.1/DTD/svg11.dtd">
<!-- Generated by graphviz version 11.0.0 (20240428.1522)
 -->
<!-- Title: TorqueGeneratedWeakCell&lt; D, P &gt; Pages: 1 -->
<svg width="438pt" height="489pt"
 viewBox="0.00 0.00 438.00 489.00" xmlns="http://www.w3.org/2000/svg" xmlns:xlink="http://www.w3.org/1999/xlink">
<g id="graph0" class="graph" transform="scale(1 1) rotate(0) translate(4 485)">
<title>TorqueGeneratedWeakCell&lt; D, P &gt;</title>
<!-- Node1 -->
<g id="Node000001" class="node">
<title>Node1</title>
<g id="a_Node000001"><a xlink:title=" ">
<polygon fill="#999999" stroke="none" points="430,-481 250,-481 250,0 430,0 430,-481"/>
<text text-anchor="start" x="271" y="-467.5" font-family="Cascadia Code NF" font-size="10.00">TorqueGeneratedWeakCell</text>
<text text-anchor="start" x="316" y="-454.75" font-family="Cascadia Code NF" font-size="10.00">&lt; D, P &gt;</text>
<text text-anchor="start" x="254" y="-438.5" font-family="Cascadia Code NF" font-size="10.00">+</text>
<text text-anchor="start" x="264" y="-438.5" font-family="Cascadia Code NF" font-size="10.00">kStartOfStrongFieldsOffset</text>
<text text-anchor="start" x="254" y="-422.5" font-family="Cascadia Code NF" font-size="10.00">+</text>
<text text-anchor="start" x="264" y="-422.5" font-family="Cascadia Code NF" font-size="10.00">kTargetOffset</text>
<text text-anchor="start" x="254" y="-406.5" font-family="Cascadia Code NF" font-size="10.00">+</text>
<text text-anchor="start" x="264" y="-406.5" font-family="Cascadia Code NF" font-size="10.00">kTargetOffsetEnd</text>
<text text-anchor="start" x="254" y="-390.5" font-family="Cascadia Code NF" font-size="10.00">+</text>
<text text-anchor="start" x="264" y="-390.5" font-family="Cascadia Code NF" font-size="10.00">kUnregisterTokenOffset</text>
<text text-anchor="start" x="254" y="-374.5" font-family="Cascadia Code NF" font-size="10.00">+</text>
<text text-anchor="start" x="264" y="-374.5" font-family="Cascadia Code NF" font-size="10.00">kUnregisterTokenOffsetEnd</text>
<text text-anchor="start" x="254" y="-358.5" font-family="Cascadia Code NF" font-size="10.00">+</text>
<text text-anchor="start" x="264" y="-358.5" font-family="Cascadia Code NF" font-size="10.00">kPrevOffset</text>
<text text-anchor="start" x="254" y="-342.5" font-family="Cascadia Code NF" font-size="10.00">+</text>
<text text-anchor="start" x="264" y="-342.5" font-family="Cascadia Code NF" font-size="10.00">kPrevOffsetEnd</text>
<text text-anchor="start" x="254" y="-326.5" font-family="Cascadia Code NF" font-size="10.00">+</text>
<text text-anchor="start" x="264" y="-326.5" font-family="Cascadia Code NF" font-size="10.00">kNextOffset</text>
<text text-anchor="start" x="254" y="-310.5" font-family="Cascadia Code NF" font-size="10.00">+</text>
<text text-anchor="start" x="264" y="-310.5" font-family="Cascadia Code NF" font-size="10.00">kNextOffsetEnd</text>
<text text-anchor="start" x="254" y="-294.5" font-family="Cascadia Code NF" font-size="10.00">+</text>
<text text-anchor="start" x="264" y="-294.5" font-family="Cascadia Code NF" font-size="10.00">kKeyListPrevOffsetEnd</text>
<text text-anchor="start" x="254" y="-278.5" font-family="Cascadia Code NF" font-size="10.00">+</text>
<text text-anchor="start" x="264" y="-278.5" font-family="Cascadia Code NF" font-size="10.00">kStartOfWeakFieldsOffset</text>
<text text-anchor="start" x="254" y="-262.5" font-family="Cascadia Code NF" font-size="10.00">+</text>
<text text-anchor="start" x="264" y="-262.5" font-family="Cascadia Code NF" font-size="10.00">kSize</text>
<text text-anchor="start" x="254" y="-246.5" font-family="Cascadia Code NF" font-size="10.00">+</text>
<text text-anchor="start" x="264" y="-246.5" font-family="Cascadia Code NF" font-size="10.00">finalization_registry()</text>
<text text-anchor="start" x="254" y="-230.5" font-family="Cascadia Code NF" font-size="10.00">+</text>
<text text-anchor="start" x="264" y="-230.5" font-family="Cascadia Code NF" font-size="10.00">finalization_registry()</text>
<text text-anchor="start" x="254" y="-214.5" font-family="Cascadia Code NF" font-size="10.00">+</text>
<text text-anchor="start" x="264" y="-214.5" font-family="Cascadia Code NF" font-size="10.00">set_finalization_registry()</text>
<text text-anchor="start" x="254" y="-198.5" font-family="Cascadia Code NF" font-size="10.00">+</text>
<text text-anchor="start" x="264" y="-198.5" font-family="Cascadia Code NF" font-size="10.00">target()</text>
<text text-anchor="start" x="254" y="-182.5" font-family="Cascadia Code NF" font-size="10.00">+</text>
<text text-anchor="start" x="264" y="-182.5" font-family="Cascadia Code NF" font-size="10.00">target()</text>
<text text-anchor="start" x="254" y="-166.5" font-family="Cascadia Code NF" font-size="10.00">+</text>
<text text-anchor="start" x="264" y="-166.5" font-family="Cascadia Code NF" font-size="10.00">set_target()</text>
<text text-anchor="start" x="254" y="-150.5" font-family="Cascadia Code NF" font-size="10.00">+</text>
<text text-anchor="start" x="264" y="-150.5" font-family="Cascadia Code NF" font-size="10.00">unregister_token()</text>
<text text-anchor="start" x="254" y="-134.5" font-family="Cascadia Code NF" font-size="10.00">+</text>
<text text-anchor="start" x="264" y="-134.5" font-family="Cascadia Code NF" font-size="10.00">unregister_token()</text>
<text text-anchor="start" x="254" y="-118.5" font-family="Cascadia Code NF" font-size="10.00">+</text>
<text text-anchor="start" x="264" y="-118.5" font-family="Cascadia Code NF" font-size="10.00">set_unregister_token()</text>
<text text-anchor="start" x="254" y="-102.5" font-family="Cascadia Code NF" font-size="10.00">+</text>
<text text-anchor="start" x="264" y="-102.5" font-family="Cascadia Code NF" font-size="10.00">holdings()</text>
<text text-anchor="start" x="264" y="-86.5" font-family="Cascadia Code NF" font-size="10.00">and 16 more...</text>
<text text-anchor="start" x="254" y="-70.5" font-family="Cascadia Code NF" font-size="10.00">+</text>
<text text-anchor="start" x="264" y="-70.5" font-family="Cascadia Code NF" font-size="10.00">cast()</text>
<text text-anchor="start" x="254" y="-54.5" font-family="Cascadia Code NF" font-size="10.00">+</text>
<text text-anchor="start" x="264" y="-54.5" font-family="Cascadia Code NF" font-size="10.00">unchecked_cast()</text>
<text text-anchor="start" x="254" y="-38.5" font-family="Cascadia Code NF" font-size="10.00">+</text>
<text text-anchor="start" x="264" y="-38.5" font-family="Cascadia Code NF" font-size="10.00">SizeFor()</text>
<text text-anchor="start" x="254" y="-22.5" font-family="Cascadia Code NF" font-size="10.00">#</text>
<text text-anchor="start" x="264" y="-22.5" font-family="Cascadia Code NF" font-size="10.00">TorqueGeneratedWeakCell()</text>
<text text-anchor="start" x="254" y="-6.5" font-family="Cascadia Code NF" font-size="10.00">#</text>
<text text-anchor="start" x="264" y="-6.5" font-family="Cascadia Code NF" font-size="10.00">TorqueGeneratedWeakCell()</text>
<polygon fill="#666666" stroke="#666666" points="250,-450 250,-450 430,-450 430,-450 250,-450"/>
<polygon fill="#666666" stroke="#666666" points="250,-258 250,-258 262,-258 262,-258 250,-258"/>
<polygon fill="#666666" stroke="#666666" points="262,-258 262,-258 430,-258 430,-258 262,-258"/>
<polygon fill="none" stroke="#666666" points="250,0 250,-481 430,-481 430,0 250,0"/>
</a>
</g>
</g>
<!-- Node2 -->
<g id="Node000002" class="node">
<title>Node2</title>
<g id="a_Node000002"><a xlink:href="../../db/d72/classP.html" target="_top" xlink:title=" ">
<polygon fill="white" stroke="none" points="22,-348.5 6,-348.5 6,-296.5 22,-296.5 22,-348.5"/>
<text text-anchor="start" x="11" y="-335" font-family="Cascadia Code NF" font-size="10.00">P</text>
<text text-anchor="start" x="11" y="-319" font-family="Cascadia Code NF" font-size="10.00"> </text>
<text text-anchor="start" x="11" y="-303" font-family="Cascadia Code NF" font-size="10.00"> </text>
<polygon fill="#bfbfbf" stroke="#bfbfbf" points="6,-330.5 6,-330.5 22,-330.5 22,-330.5 6,-330.5"/>
<polygon fill="#bfbfbf" stroke="#bfbfbf" points="6,-314.5 6,-314.5 22,-314.5 22,-314.5 6,-314.5"/>
<polygon fill="none" stroke="#bfbfbf" points="6,-296.5 6,-348.5 22,-348.5 22,-296.5 6,-296.5"/>
</a>
</g>
</g>
<!-- Node2&#45;&gt;Node1 -->
<g id="edge1_Node000001_Node000002" class="edge">
<title>Node2&#45;&gt;Node1</title>
<g id="a_edge1_Node000001_Node000002"><a xlink:title=" ">
<path fill="none" stroke="#63b8ff" d="M33.05,-323.12C70.9,-323.89 160.94,-322.95 232,-300.5 237.99,-298.61 244.02,-296.35 250,-293.85"/>
<polygon fill="none" stroke="#63b8ff" points="33.56,-319.63 23.47,-322.85 33.37,-326.63 33.56,-319.63"/>
</a>
</g>
</g>
<!-- Node3 -->
<g id="Node000003" class="node">
<title>Node3</title>
<g id="a_Node000003"><a xlink:href="../../d1/da0/classint.html" target="_top" xlink:title=" ">
<polygon fill="white" stroke="none" points="28,-185.5 0,-185.5 0,-133.5 28,-133.5 28,-185.5"/>
<text text-anchor="start" x="5" y="-172" font-family="Cascadia Code NF" font-size="10.00">int</text>
<text text-anchor="start" x="11" y="-156" font-family="Cascadia Code NF" font-size="10.00"> </text>
<text text-anchor="start" x="11" y="-140" font-family="Cascadia Code NF" font-size="10.00"> </text>
<polygon fill="#bfbfbf" stroke="#bfbfbf" points="0,-167.5 0,-167.5 28,-167.5 28,-167.5 0,-167.5"/>
<polygon fill="#bfbfbf" stroke="#bfbfbf" points="0,-151.5 0,-151.5 28,-151.5 28,-151.5 0,-151.5"/>
<polygon fill="none" stroke="#bfbfbf" points="0,-133.5 0,-185.5 28,-185.5 28,-133.5 0,-133.5"/>
</a>
</g>
</g>
<!-- Node3&#45;&gt;Node1 -->
<g id="edge2_Node000001_Node000003" class="edge">
<title>Node3&#45;&gt;Node1</title>
<g id="a_edge2_Node000001_Node000003"><a xlink:title=" ">
<path fill="none" stroke="#63b8ff" d="M27.68,-156.85C61.81,-150.27 158.06,-135.46 232,-160.25 234.12,-160.96 236.23,-161.73 238.33,-162.56"/>
<polygon fill="none" stroke="#63b8ff" points="238.44,-162.6 245.54,-161.38 249.41,-167.47 242.3,-168.69 238.44,-162.6"/>
</a>
</g>
<text text-anchor="middle" x="139" y="-290.25" font-family="Cascadia Code NF" font-size="10.00" fill="grey"> +kEndOfStrongFieldsOffset</text>
<text text-anchor="middle" x="139" y="-277.5" font-family="Cascadia Code NF" font-size="10.00" fill="grey">+kEndOfWeakFieldsOffset</text>
<text text-anchor="middle" x="139" y="-264.75" font-family="Cascadia Code NF" font-size="10.00" fill="grey">+kFinalizationRegistryOffset</text>
<text text-anchor="middle" x="139" y="-252" font-family="Cascadia Code NF" font-size="10.00" fill="grey">+kFinalizationRegistryOffsetEnd</text>
<text text-anchor="middle" x="139" y="-239.25" font-family="Cascadia Code NF" font-size="10.00" fill="grey">+kHeaderSize</text>
<text text-anchor="middle" x="139" y="-226.5" font-family="Cascadia Code NF" font-size="10.00" fill="grey">+kHoldingsOffset</text>
<text text-anchor="middle" x="139" y="-213.75" font-family="Cascadia Code NF" font-size="10.00" fill="grey">+kHoldingsOffsetEnd</text>
<text text-anchor="middle" x="139" y="-201" font-family="Cascadia Code NF" font-size="10.00" fill="grey">+kKeyListNextOffset</text>
<text text-anchor="middle" x="139" y="-188.25" font-family="Cascadia Code NF" font-size="10.00" fill="grey">+kKeyListNextOffsetEnd</text>
<text text-anchor="middle" x="139" y="-175.5" font-family="Cascadia Code NF" font-size="10.00" fill="grey">+kKeyListPrevOffset</text>
<text text-anchor="middle" x="139" y="-162.75" font-family="Cascadia Code NF" font-size="10.00" fill="grey">...</text>
</g>
</g>
</svg>
