<?xml version="1.0" encoding="UTF-8" standalone="no"?>
<!DOCTYPE svg PUBLIC "-//W3C//DTD SVG 1.1//EN"
 "http://www.w3.org/Graphics/SVG/1.1/DTD/svg11.dtd">
<!-- Generated by graphviz version 11.0.0 (20240428.1522)
 -->
<!-- Title: v8::internal::VariableDeclaration Pages: 1 -->
<svg width="1008pt" height="124pt"
 viewBox="0.00 0.00 1008.00 124.00" xmlns="http://www.w3.org/2000/svg" xmlns:xlink="http://www.w3.org/1999/xlink">
<g id="graph0" class="graph" transform="scale(1 1) rotate(0) translate(4 120)">
<title>v8::internal::VariableDeclaration</title>
<!-- Node1 -->
<g id="Node000001" class="node">
<title>Node1</title>
<g id="a_Node000001"><a xlink:title=" ">
<polygon fill="#999999" stroke="none" points="786,-92 578,-92 578,-24 786,-24 786,-92"/>
<text text-anchor="start" x="583" y="-78.5" font-family="Cascadia Code NF" font-size="10.00">v8::internal::VariableDeclaration</text>
<text text-anchor="start" x="679" y="-62.5" font-family="Cascadia Code NF" font-size="10.00"> </text>
<text text-anchor="start" x="598" y="-46.5" font-family="Cascadia Code NF" font-size="10.00">+</text>
<text text-anchor="start" x="624" y="-46.5" font-family="Cascadia Code NF" font-size="10.00">AsNested()</text>
<text text-anchor="start" x="598" y="-30.5" font-family="Cascadia Code NF" font-size="10.00">#</text>
<text text-anchor="start" x="624" y="-30.5" font-family="Cascadia Code NF" font-size="10.00">VariableDeclaration()</text>
<polygon fill="#666666" stroke="#666666" points="578,-74 578,-74 786,-74 786,-74 578,-74"/>
<polygon fill="#666666" stroke="#666666" points="578,-58 578,-58 786,-58 786,-58 578,-58"/>
<polygon fill="none" stroke="#666666" points="578,-24 578,-92 786,-92 786,-24 578,-24"/>
</a>
</g>
</g>
<!-- Node5 -->
<g id="Node000005" class="node">
<title>Node5</title>
<g id="a_Node000005"><a xlink:href="../../d9/d27/classv8_1_1internal_1_1NestedVariableDeclaration.html" target="_top" xlink:title=" ">
<polygon fill="white" stroke="none" points="1000,-90.5 822,-90.5 822,-25.5 1000,-25.5 1000,-90.5"/>
<text text-anchor="start" x="827" y="-77" font-family="Cascadia Code NF" font-size="10.00">v8::internal::NestedVariable</text>
<text text-anchor="start" x="878" y="-64.25" font-family="Cascadia Code NF" font-size="10.00">Declaration</text>
<text text-anchor="start" x="908" y="-48" font-family="Cascadia Code NF" font-size="10.00"> </text>
<text text-anchor="start" x="855.5" y="-32" font-family="Cascadia Code NF" font-size="10.00">+</text>
<text text-anchor="start" x="895" y="-32" font-family="Cascadia Code NF" font-size="10.00">scope()</text>
<polygon fill="#bfbfbf" stroke="#bfbfbf" points="822,-59.5 822,-59.5 1000,-59.5 1000,-59.5 822,-59.5"/>
<polygon fill="#bfbfbf" stroke="#bfbfbf" points="822,-43.5 822,-43.5 1000,-43.5 1000,-43.5 822,-43.5"/>
<polygon fill="none" stroke="#bfbfbf" points="822,-25.5 822,-90.5 1000,-90.5 1000,-25.5 822,-25.5"/>
</a>
</g>
</g>
<!-- Node1&#45;&gt;Node5 -->
<g id="edge4_Node000001_Node000005" class="edge">
<title>Node1&#45;&gt;Node5</title>
<g id="a_edge4_Node000001_Node000005"><a xlink:title=" ">
<path fill="none" stroke="#63b8ff" d="M797.23,-58C805.57,-58 813.9,-58 822.05,-58"/>
<polygon fill="none" stroke="#63b8ff" points="797.39,-54.5 787.39,-58 797.39,-61.5 797.39,-54.5"/>
</a>
</g>
</g>
<!-- Node2 -->
<g id="Node000002" class="node">
<title>Node2</title>
<g id="a_Node000002"><a xlink:href="../../d5/de1/classv8_1_1internal_1_1Declaration.html" target="_top" xlink:title=" ">
<polygon fill="white" stroke="none" points="542,-100 382,-100 382,-16 542,-16 542,-100"/>
<text text-anchor="start" x="387" y="-86.5" font-family="Cascadia Code NF" font-size="10.00">v8::internal::Declaration</text>
<text text-anchor="start" x="459" y="-70.5" font-family="Cascadia Code NF" font-size="10.00"> </text>
<text text-anchor="start" x="402" y="-54.5" font-family="Cascadia Code NF" font-size="10.00">+</text>
<text text-anchor="start" x="428" y="-54.5" font-family="Cascadia Code NF" font-size="10.00">var()</text>
<text text-anchor="start" x="402" y="-38.5" font-family="Cascadia Code NF" font-size="10.00">+</text>
<text text-anchor="start" x="428" y="-38.5" font-family="Cascadia Code NF" font-size="10.00">set_var()</text>
<text text-anchor="start" x="402" y="-22.5" font-family="Cascadia Code NF" font-size="10.00">#</text>
<text text-anchor="start" x="428" y="-22.5" font-family="Cascadia Code NF" font-size="10.00">Declaration()</text>
<polygon fill="#bfbfbf" stroke="#bfbfbf" points="382,-82 382,-82 542,-82 542,-82 382,-82"/>
<polygon fill="#bfbfbf" stroke="#bfbfbf" points="382,-66 382,-66 542,-66 542,-66 382,-66"/>
<polygon fill="none" stroke="#bfbfbf" points="382,-16 382,-100 542,-100 542,-16 382,-16"/>
</a>
</g>
</g>
<!-- Node2&#45;&gt;Node1 -->
<g id="edge1_Node000001_Node000002" class="edge">
<title>Node2&#45;&gt;Node1</title>
<g id="a_edge1_Node000001_Node000002"><a xlink:title=" ">
<path fill="none" stroke="#63b8ff" d="M553.21,-58C561.43,-58 569.8,-58 578.12,-58"/>
<polygon fill="none" stroke="#63b8ff" points="553.22,-54.5 543.22,-58 553.22,-61.5 553.22,-54.5"/>
</a>
</g>
</g>
<!-- Node3 -->
<g id="Node000003" class="node">
<title>Node3</title>
<g id="a_Node000003"><a xlink:href="../../de/d53/classv8_1_1internal_1_1AstNode.html" target="_top" xlink:title=" ">
<polygon fill="white" stroke="none" points="346,-116 190,-116 190,0 346,0 346,-116"/>
<text text-anchor="start" x="205" y="-102.5" font-family="Cascadia Code NF" font-size="10.00">v8::internal::AstNode</text>
<text text-anchor="start" x="194" y="-86.5" font-family="Cascadia Code NF" font-size="10.00">#</text>
<text text-anchor="start" x="204" y="-86.5" font-family="Cascadia Code NF" font-size="10.00">bit_field_</text>
<text text-anchor="start" x="194" y="-70.5" font-family="Cascadia Code NF" font-size="10.00">+</text>
<text text-anchor="start" x="204" y="-70.5" font-family="Cascadia Code NF" font-size="10.00">node_type()</text>
<text text-anchor="start" x="194" y="-54.5" font-family="Cascadia Code NF" font-size="10.00">+</text>
<text text-anchor="start" x="204" y="-54.5" font-family="Cascadia Code NF" font-size="10.00">position()</text>
<text text-anchor="start" x="194" y="-38.5" font-family="Cascadia Code NF" font-size="10.00">+</text>
<text text-anchor="start" x="204" y="-38.5" font-family="Cascadia Code NF" font-size="10.00">AsIterationStatement()</text>
<text text-anchor="start" x="194" y="-22.5" font-family="Cascadia Code NF" font-size="10.00">+</text>
<text text-anchor="start" x="204" y="-22.5" font-family="Cascadia Code NF" font-size="10.00">AsMaterializedLiteral()</text>
<text text-anchor="start" x="194" y="-6.5" font-family="Cascadia Code NF" font-size="10.00">#</text>
<text text-anchor="start" x="204" y="-6.5" font-family="Cascadia Code NF" font-size="10.00">AstNode()</text>
<polygon fill="#bfbfbf" stroke="#bfbfbf" points="190,-98 190,-98 346,-98 346,-98 190,-98"/>
<polygon fill="#bfbfbf" stroke="#bfbfbf" points="190,-82 190,-82 202,-82 202,-82 190,-82"/>
<polygon fill="#bfbfbf" stroke="#bfbfbf" points="202,-82 202,-82 346,-82 346,-82 202,-82"/>
<polygon fill="none" stroke="#bfbfbf" points="190,0 190,-116 346,-116 346,0 190,0"/>
</a>
</g>
</g>
<!-- Node3&#45;&gt;Node2 -->
<g id="edge2_Node000002_Node000003" class="edge">
<title>Node3&#45;&gt;Node2</title>
<g id="a_edge2_Node000002_Node000003"><a xlink:title=" ">
<path fill="none" stroke="#63b8ff" d="M357.23,-58C365.53,-58 373.91,-58 382.11,-58"/>
<polygon fill="none" stroke="#63b8ff" points="357.5,-54.5 347.5,-58 357.5,-61.5 357.5,-54.5"/>
</a>
</g>
</g>
<!-- Node4 -->
<g id="Node000004" class="node">
<title>Node4</title>
<g id="a_Node000004"><a xlink:href="../../dc/dca/classv8_1_1internal_1_1ZoneObject.html" target="_top" xlink:title=" ">
<polygon fill="white" stroke="none" points="154,-108 0,-108 0,-8 154,-8 154,-108"/>
<text text-anchor="start" x="5" y="-94.5" font-family="Cascadia Code NF" font-size="10.00">v8::internal::ZoneObject</text>
<text text-anchor="start" x="74" y="-78.5" font-family="Cascadia Code NF" font-size="10.00"> </text>
<text text-anchor="start" x="12.5" y="-62.5" font-family="Cascadia Code NF" font-size="10.00">+</text>
<text text-anchor="start" x="31" y="-62.5" font-family="Cascadia Code NF" font-size="10.00">operator new()</text>
<text text-anchor="start" x="12.5" y="-46.5" font-family="Cascadia Code NF" font-size="10.00">+</text>
<text text-anchor="start" x="31" y="-46.5" font-family="Cascadia Code NF" font-size="10.00">operator new()</text>
<text text-anchor="start" x="12.5" y="-30.5" font-family="Cascadia Code NF" font-size="10.00">+</text>
<text text-anchor="start" x="31" y="-30.5" font-family="Cascadia Code NF" font-size="10.00">operator delete()</text>
<text text-anchor="start" x="12.5" y="-14.5" font-family="Cascadia Code NF" font-size="10.00">+</text>
<text text-anchor="start" x="31" y="-14.5" font-family="Cascadia Code NF" font-size="10.00">operator delete()</text>
<polygon fill="#bfbfbf" stroke="#bfbfbf" points="0,-90 0,-90 154,-90 154,-90 0,-90"/>
<polygon fill="#bfbfbf" stroke="#bfbfbf" points="0,-74 0,-74 154,-74 154,-74 0,-74"/>
<polygon fill="none" stroke="#bfbfbf" points="0,-8 0,-108 154,-108 154,-8 0,-8"/>
</a>
</g>
</g>
<!-- Node4&#45;&gt;Node3 -->
<g id="edge3_Node000003_Node000004" class="edge">
<title>Node4&#45;&gt;Node3</title>
<g id="a_edge3_Node000003_Node000004"><a xlink:title=" ">
<path fill="none" stroke="#63b8ff" d="M165.15,-58C173.53,-58 182,-58 190.27,-58"/>
<polygon fill="none" stroke="#63b8ff" points="165.3,-54.5 155.3,-58 165.3,-61.5 165.3,-54.5"/>
</a>
</g>
</g>
</g>
</svg>
