<?xml version="1.0" encoding="UTF-8" standalone="no"?>
<!DOCTYPE svg PUBLIC "-//W3C//DTD SVG 1.1//EN"
 "http://www.w3.org/Graphics/SVG/1.1/DTD/svg11.dtd">
<!-- Generated by graphviz version 11.0.0 (20240428.1522)
 -->
<!-- Title: v8::internal::compiler::PropertyDescriptor Pages: 1 -->
<svg width="610pt" height="496pt"
 viewBox="0.00 0.00 610.00 495.50" xmlns="http://www.w3.org/2000/svg" xmlns:xlink="http://www.w3.org/1999/xlink">
<g id="graph0" class="graph" transform="scale(1 1) rotate(0) translate(4 491.5)">
<title>v8::internal::compiler::PropertyDescriptor</title>
<!-- Node1 -->
<g id="Node000001" class="node">
<title>Node1</title>
<g id="a_Node000001"><a xlink:title=" ">
<polygon fill="#999999" stroke="none" points="602,-232 460,-232 460,-167 602,-167 602,-232"/>
<text text-anchor="start" x="465" y="-218.5" font-family="Cascadia Code NF" font-size="10.00">v8::internal::compiler</text>
<text text-anchor="start" x="471" y="-205.75" font-family="Cascadia Code NF" font-size="10.00">::PropertyDescriptor</text>
<text text-anchor="start" x="528" y="-189.5" font-family="Cascadia Code NF" font-size="10.00"> </text>
<text text-anchor="start" x="528" y="-173.5" font-family="Cascadia Code NF" font-size="10.00"> </text>
<polygon fill="#666666" stroke="#666666" points="460,-201 460,-201 602,-201 602,-201 460,-201"/>
<polygon fill="#666666" stroke="#666666" points="460,-185 460,-185 602,-185 602,-185 460,-185"/>
<polygon fill="none" stroke="#666666" points="460,-167 460,-232 602,-232 602,-167 460,-167"/>
</a>
</g>
</g>
<!-- Node2 -->
<g id="Node000002" class="node">
<title>Node2</title>
<g id="a_Node000002"><a xlink:href="$d8/de1/classv8_1_1internal_1_1FieldIndex.html" xlink:title=" ">
<polygon fill="white" stroke="none" points="346,-487.5 190,-487.5 190,-163.5 346,-163.5 346,-487.5"/>
<text text-anchor="start" x="196" y="-474" font-family="Cascadia Code NF" font-size="10.00">v8::internal::FieldIndex</text>
<text text-anchor="start" x="265" y="-458" font-family="Cascadia Code NF" font-size="10.00"> </text>
<text text-anchor="start" x="194" y="-442" font-family="Cascadia Code NF" font-size="10.00">+</text>
<text text-anchor="start" x="204" y="-442" font-family="Cascadia Code NF" font-size="10.00">FieldIndex()</text>
<text text-anchor="start" x="194" y="-426" font-family="Cascadia Code NF" font-size="10.00">+</text>
<text text-anchor="start" x="204" y="-426" font-family="Cascadia Code NF" font-size="10.00">GetLoadByFieldIndex()</text>
<text text-anchor="start" x="194" y="-410" font-family="Cascadia Code NF" font-size="10.00">+</text>
<text text-anchor="start" x="204" y="-410" font-family="Cascadia Code NF" font-size="10.00">is_inobject()</text>
<text text-anchor="start" x="194" y="-394" font-family="Cascadia Code NF" font-size="10.00">+</text>
<text text-anchor="start" x="204" y="-394" font-family="Cascadia Code NF" font-size="10.00">is_double()</text>
<text text-anchor="start" x="194" y="-378" font-family="Cascadia Code NF" font-size="10.00">+</text>
<text text-anchor="start" x="204" y="-378" font-family="Cascadia Code NF" font-size="10.00">offset()</text>
<text text-anchor="start" x="194" y="-362" font-family="Cascadia Code NF" font-size="10.00">+</text>
<text text-anchor="start" x="204" y="-362" font-family="Cascadia Code NF" font-size="10.00">bit_field()</text>
<text text-anchor="start" x="194" y="-346" font-family="Cascadia Code NF" font-size="10.00">+</text>
<text text-anchor="start" x="204" y="-346" font-family="Cascadia Code NF" font-size="10.00">index()</text>
<text text-anchor="start" x="194" y="-330" font-family="Cascadia Code NF" font-size="10.00">+</text>
<text text-anchor="start" x="204" y="-330" font-family="Cascadia Code NF" font-size="10.00">outobject_array_index()</text>
<text text-anchor="start" x="194" y="-314" font-family="Cascadia Code NF" font-size="10.00">+</text>
<text text-anchor="start" x="204" y="-314" font-family="Cascadia Code NF" font-size="10.00">property_index()</text>
<text text-anchor="start" x="194" y="-298" font-family="Cascadia Code NF" font-size="10.00">+</text>
<text text-anchor="start" x="204" y="-298" font-family="Cascadia Code NF" font-size="10.00">GetFieldAccessStubKey()</text>
<text text-anchor="start" x="194" y="-282" font-family="Cascadia Code NF" font-size="10.00">+</text>
<text text-anchor="start" x="204" y="-282" font-family="Cascadia Code NF" font-size="10.00">operator==()</text>
<text text-anchor="start" x="194" y="-266" font-family="Cascadia Code NF" font-size="10.00">+</text>
<text text-anchor="start" x="204" y="-266" font-family="Cascadia Code NF" font-size="10.00">operator!=()</text>
<text text-anchor="start" x="194" y="-250" font-family="Cascadia Code NF" font-size="10.00">+</text>
<text text-anchor="start" x="204" y="-250" font-family="Cascadia Code NF" font-size="10.00">ForPropertyIndex()</text>
<text text-anchor="start" x="194" y="-234" font-family="Cascadia Code NF" font-size="10.00">+</text>
<text text-anchor="start" x="204" y="-234" font-family="Cascadia Code NF" font-size="10.00">ForInObjectOffset()</text>
<text text-anchor="start" x="194" y="-218" font-family="Cascadia Code NF" font-size="10.00">+</text>
<text text-anchor="start" x="204" y="-218" font-family="Cascadia Code NF" font-size="10.00">ForSmiLoadHandler()</text>
<text text-anchor="start" x="194" y="-202" font-family="Cascadia Code NF" font-size="10.00">+</text>
<text text-anchor="start" x="204" y="-202" font-family="Cascadia Code NF" font-size="10.00">ForDescriptor()</text>
<text text-anchor="start" x="194" y="-186" font-family="Cascadia Code NF" font-size="10.00">+</text>
<text text-anchor="start" x="204" y="-186" font-family="Cascadia Code NF" font-size="10.00">ForDescriptor()</text>
<text text-anchor="start" x="194" y="-170" font-family="Cascadia Code NF" font-size="10.00">+</text>
<text text-anchor="start" x="204" y="-170" font-family="Cascadia Code NF" font-size="10.00">ForDetails()</text>
<polygon fill="#bfbfbf" stroke="#bfbfbf" points="190,-469.5 190,-469.5 346,-469.5 346,-469.5 190,-469.5"/>
<polygon fill="#bfbfbf" stroke="#bfbfbf" points="190,-453.5 190,-453.5 346,-453.5 346,-453.5 190,-453.5"/>
<polygon fill="none" stroke="#bfbfbf" points="190,-163.5 190,-487.5 346,-487.5 346,-163.5 190,-163.5"/>
</a>
</g>
</g>
<!-- Node2&#45;&gt;Node1 -->
<g id="edge1_Node000001_Node000002" class="edge">
<title>Node2&#45;&gt;Node1</title>
<g id="a_edge1_Node000001_Node000002"><a xlink:title=" ">
<path fill="none" stroke="#63b8ff" d="M345.9,-288.38C379.12,-272.34 417.95,-253.59 451.37,-237.46"/>
<polygon fill="none" stroke="#63b8ff" points="451.33,-237.48 454.99,-231.27 462.13,-232.26 458.47,-238.47 451.33,-237.48"/>
</a>
</g>
<text text-anchor="middle" x="403" y="-279.75" font-family="Cascadia Code NF" font-size="10.00" fill="grey"> +field_index</text>
</g>
<!-- Node3 -->
<g id="Node000003" class="node">
<title>Node3</title>
<g id="a_Node000003"><a xlink:href="$d6/d55/classv8_1_1internal_1_1compiler_1_1ObjectData.html" xlink:title=" ">
<polygon fill="white" stroke="none" points="339,-145 197,-145 197,0 339,0 339,-145"/>
<text text-anchor="start" x="202" y="-131.5" font-family="Cascadia Code NF" font-size="10.00">v8::internal::compiler</text>
<text text-anchor="start" x="232" y="-118.75" font-family="Cascadia Code NF" font-size="10.00">::ObjectData</text>
<text text-anchor="start" x="265" y="-102.5" font-family="Cascadia Code NF" font-size="10.00"> </text>
<text text-anchor="start" x="202" y="-86.5" font-family="Cascadia Code NF" font-size="10.00">+</text>
<text text-anchor="start" x="213" y="-86.5" font-family="Cascadia Code NF" font-size="10.00">ObjectData()</text>
<text text-anchor="start" x="202" y="-70.5" font-family="Cascadia Code NF" font-size="10.00">+</text>
<text text-anchor="start" x="213" y="-70.5" font-family="Cascadia Code NF" font-size="10.00">object()</text>
<text text-anchor="start" x="202" y="-54.5" font-family="Cascadia Code NF" font-size="10.00">+</text>
<text text-anchor="start" x="213" y="-54.5" font-family="Cascadia Code NF" font-size="10.00">kind()</text>
<text text-anchor="start" x="202" y="-38.5" font-family="Cascadia Code NF" font-size="10.00">+</text>
<text text-anchor="start" x="213" y="-38.5" font-family="Cascadia Code NF" font-size="10.00">is_smi()</text>
<text text-anchor="start" x="202" y="-22.5" font-family="Cascadia Code NF" font-size="10.00">+</text>
<text text-anchor="start" x="213" y="-22.5" font-family="Cascadia Code NF" font-size="10.00">should_access_heap()</text>
<text text-anchor="start" x="202" y="-6.5" font-family="Cascadia Code NF" font-size="10.00">+</text>
<text text-anchor="start" x="213" y="-6.5" font-family="Cascadia Code NF" font-size="10.00">IsNull()</text>
<polygon fill="#bfbfbf" stroke="#bfbfbf" points="197,-114 197,-114 339,-114 339,-114 197,-114"/>
<polygon fill="#bfbfbf" stroke="#bfbfbf" points="197,-98 197,-98 339,-98 339,-98 197,-98"/>
<polygon fill="none" stroke="#bfbfbf" points="197,0 197,-145 339,-145 339,0 197,0"/>
</a>
</g>
</g>
<!-- Node3&#45;&gt;Node1 -->
<g id="edge2_Node000001_Node000003" class="edge">
<title>Node3&#45;&gt;Node1</title>
<g id="a_edge2_Node000001_Node000003"><a xlink:title=" ">
<path fill="none" stroke="#63b8ff" d="M338.94,-106.53C373.82,-123.51 416.12,-144.09 452.04,-161.57"/>
<polygon fill="none" stroke="#63b8ff" points="451.86,-161.48 459.01,-160.51 462.65,-166.73 455.51,-167.7 451.86,-161.48"/>
</a>
</g>
<text text-anchor="middle" x="403" y="-157.75" font-family="Cascadia Code NF" font-size="10.00" fill="grey"> +field_owner</text>
</g>
<!-- Node4 -->
<g id="Node000004" class="node">
<title>Node4</title>
<g id="a_Node000004"><a xlink:href="$dc/dca/classv8_1_1internal_1_1ZoneObject.html" xlink:title=" ">
<polygon fill="white" stroke="none" points="154,-122.5 0,-122.5 0,-22.5 154,-22.5 154,-122.5"/>
<text text-anchor="start" x="5" y="-109" font-family="Cascadia Code NF" font-size="10.00">v8::internal::ZoneObject</text>
<text text-anchor="start" x="74" y="-93" font-family="Cascadia Code NF" font-size="10.00"> </text>
<text text-anchor="start" x="12.5" y="-77" font-family="Cascadia Code NF" font-size="10.00">+</text>
<text text-anchor="start" x="31" y="-77" font-family="Cascadia Code NF" font-size="10.00">operator new()</text>
<text text-anchor="start" x="12.5" y="-61" font-family="Cascadia Code NF" font-size="10.00">+</text>
<text text-anchor="start" x="31" y="-61" font-family="Cascadia Code NF" font-size="10.00">operator new()</text>
<text text-anchor="start" x="12.5" y="-45" font-family="Cascadia Code NF" font-size="10.00">+</text>
<text text-anchor="start" x="31" y="-45" font-family="Cascadia Code NF" font-size="10.00">operator delete()</text>
<text text-anchor="start" x="12.5" y="-29" font-family="Cascadia Code NF" font-size="10.00">+</text>
<text text-anchor="start" x="31" y="-29" font-family="Cascadia Code NF" font-size="10.00">operator delete()</text>
<polygon fill="#bfbfbf" stroke="#bfbfbf" points="0,-104.5 0,-104.5 154,-104.5 154,-104.5 0,-104.5"/>
<polygon fill="#bfbfbf" stroke="#bfbfbf" points="0,-88.5 0,-88.5 154,-88.5 154,-88.5 0,-88.5"/>
<polygon fill="none" stroke="#bfbfbf" points="0,-22.5 0,-122.5 154,-122.5 154,-22.5 0,-22.5"/>
</a>
</g>
</g>
<!-- Node4&#45;&gt;Node3 -->
<g id="edge3_Node000003_Node000004" class="edge">
<title>Node4&#45;&gt;Node3</title>
<g id="a_edge3_Node000003_Node000004"><a xlink:title=" ">
<path fill="none" stroke="#63b8ff" d="M165.26,-72.5C175.9,-72.5 186.67,-72.5 197.02,-72.5"/>
<polygon fill="none" stroke="#63b8ff" points="165.3,-69 155.3,-72.5 165.3,-76 165.3,-69"/>
</a>
</g>
</g>
</g>
</svg>
