<?xml version="1.0" encoding="UTF-8" standalone="no"?>
<!DOCTYPE svg PUBLIC "-//W3C//DTD SVG 1.1//EN"
 "http://www.w3.org/Graphics/SVG/1.1/DTD/svg11.dtd">
<!-- Generated by graphviz version 11.0.0 (20240428.1522)
 -->
<!-- Title: v8_inspector::protocol::Runtime::SerializationOptions::SerializationOptionsBuilder&lt; STATE &gt; Pages: 1 -->
<svg width="204pt" height="147pt"
 viewBox="0.00 0.00 204.00 147.00" xmlns="http://www.w3.org/2000/svg" xmlns:xlink="http://www.w3.org/1999/xlink">
<g id="graph0" class="graph" transform="scale(1 1) rotate(0) translate(4 143)">
<title>v8_inspector::protocol::Runtime::SerializationOptions::SerializationOptionsBuilder&lt; STATE &gt;</title>
<!-- Node1 -->
<g id="Node000001" class="node">
<title>Node1</title>
<g id="a_Node000001"><a xlink:title=" ">
<polygon fill="#999999" stroke="none" points="196,-139 0,-139 0,0 196,0 196,-139"/>
<text text-anchor="start" x="5" y="-125.5" font-family="Cascadia Code NF" font-size="10.00">v8_inspector::protocol</text>
<text text-anchor="start" x="5" y="-112.75" font-family="Cascadia Code NF" font-size="10.00">::Runtime::SerializationOptions</text>
<text text-anchor="start" x="5" y="-100" font-family="Cascadia Code NF" font-size="10.00">::SerializationOptionsBuilder</text>
<text text-anchor="start" x="71" y="-87.25" font-family="Cascadia Code NF" font-size="10.00">&lt; STATE &gt;</text>
<text text-anchor="start" x="95" y="-70.5" font-family="Cascadia Code NF" font-size="10.00"> </text>
<text text-anchor="start" x="11" y="-54.5" font-family="Cascadia Code NF" font-size="10.00">+</text>
<text text-anchor="start" x="28" y="-54.5" font-family="Cascadia Code NF" font-size="10.00">setSerialization()</text>
<text text-anchor="start" x="11" y="-38.5" font-family="Cascadia Code NF" font-size="10.00">+</text>
<text text-anchor="start" x="28" y="-38.5" font-family="Cascadia Code NF" font-size="10.00">setMaxDepth()</text>
<text text-anchor="start" x="11" y="-22.5" font-family="Cascadia Code NF" font-size="10.00">+</text>
<text text-anchor="start" x="28" y="-22.5" font-family="Cascadia Code NF" font-size="10.00">setAdditionalParameters()</text>
<text text-anchor="start" x="11" y="-6.5" font-family="Cascadia Code NF" font-size="10.00">+</text>
<text text-anchor="start" x="28" y="-6.5" font-family="Cascadia Code NF" font-size="10.00">build()</text>
<polygon fill="#666666" stroke="#666666" points="0,-82 0,-82 196,-82 196,-82 0,-82"/>
<polygon fill="#666666" stroke="#666666" points="0,-66 0,-66 196,-66 196,-66 0,-66"/>
<polygon fill="none" stroke="#666666" points="0,0 0,-139 196,-139 196,0 0,0"/>
</a>
</g>
</g>
</g>
</svg>
