<?xml version="1.0" encoding="UTF-8" standalone="no"?>
<!DOCTYPE svg PUBLIC "-//W3C//DTD SVG 1.1//EN"
 "http://www.w3.org/Graphics/SVG/1.1/DTD/svg11.dtd">
<!-- Generated by graphviz version 11.0.0 (20240428.1522)
 -->
<!-- Title: v8::internal::compiler::turboshaft::ReducerStack&lt; Assembler, true, ValueNumberingReducer, Reducers... &gt; Pages: 1 -->
<svg width="1198pt" height="163pt"
 viewBox="0.00 0.00 1198.00 163.00" xmlns="http://www.w3.org/2000/svg" xmlns:xlink="http://www.w3.org/1999/xlink">
<g id="graph0" class="graph" transform="scale(1 1) rotate(0) translate(4 159)">
<title>v8::internal::compiler::turboshaft::ReducerStack&lt; Assembler, true, ValueNumberingReducer, Reducers... &gt;</title>
<!-- Node1 -->
<g id="Node000001" class="node">
<title>Node1</title>
<g id="a_Node000001"><a xlink:title=" ">
<polygon fill="#999999" stroke="none" points="1190,-123 982,-123 982,-32 1190,-32 1190,-123"/>
<text text-anchor="start" x="987" y="-109.5" font-family="Cascadia Code NF" font-size="10.00">v8::internal::compiler</text>
<text text-anchor="start" x="987" y="-96.75" font-family="Cascadia Code NF" font-size="10.00">::turboshaft::ReducerStack</text>
<text text-anchor="start" x="987" y="-84" font-family="Cascadia Code NF" font-size="10.00">&lt; Assembler, true, ValueNumbering</text>
<text text-anchor="start" x="1020" y="-71.25" font-family="Cascadia Code NF" font-size="10.00">Reducer, Reducers... &gt;</text>
<text text-anchor="start" x="1083" y="-54.5" font-family="Cascadia Code NF" font-size="10.00"> </text>
<text text-anchor="start" x="1083" y="-38.5" font-family="Cascadia Code NF" font-size="10.00"> </text>
<polygon fill="#666666" stroke="#666666" points="982,-66 982,-66 1190,-66 1190,-66 982,-66"/>
<polygon fill="#666666" stroke="#666666" points="982,-50 982,-50 1190,-50 1190,-50 982,-50"/>
<polygon fill="none" stroke="#666666" points="982,-32 982,-123 1190,-123 1190,-32 982,-32"/>
</a>
</g>
</g>
<!-- Node2 -->
<g id="Node000002" class="node">
<title>Node2</title>
<g id="a_Node000002"><a xlink:href="../../da/ddb/classv8_1_1internal_1_1compiler_1_1turboshaft_1_1EmitProjectionReducer.html" target="_top" xlink:title=" ">
<polygon fill="white" stroke="none" points="946,-137 744,-137 744,-18 946,-18 946,-137"/>
<text text-anchor="start" x="749" y="-123.5" font-family="Cascadia Code NF" font-size="10.00">v8::internal::compiler</text>
<text text-anchor="start" x="749" y="-110.75" font-family="Cascadia Code NF" font-size="10.00">::turboshaft::EmitProjection</text>
<text text-anchor="start" x="749" y="-98" font-family="Cascadia Code NF" font-size="10.00">Reducer&lt; ValueNumberingReducer</text>
<text text-anchor="start" x="749" y="-85.25" font-family="Cascadia Code NF" font-size="10.00">&lt; ReducerStack&lt; Assembler, true,</text>
<text text-anchor="start" x="791" y="-72.5" font-family="Cascadia Code NF" font-size="10.00"> Reducers... &gt; &gt; &gt;</text>
<text text-anchor="start" x="842" y="-56.5" font-family="Cascadia Code NF" font-size="10.00"> </text>
<text text-anchor="start" x="759.5" y="-40.5" font-family="Cascadia Code NF" font-size="10.00">+</text>
<text text-anchor="start" x="781" y="-40.5" font-family="Cascadia Code NF" font-size="10.00">ReduceCatchBlockBegin()</text>
<text text-anchor="start" x="759.5" y="-24.5" font-family="Cascadia Code NF" font-size="10.00">+</text>
<text text-anchor="start" x="781" y="-24.5" font-family="Cascadia Code NF" font-size="10.00">ReduceOperation()</text>
<polygon fill="#bfbfbf" stroke="#bfbfbf" points="744,-68 744,-68 946,-68 946,-68 744,-68"/>
<polygon fill="#bfbfbf" stroke="#bfbfbf" points="744,-52 744,-52 946,-52 946,-52 744,-52"/>
<polygon fill="none" stroke="#bfbfbf" points="744,-18 744,-137 946,-137 946,-18 744,-18"/>
</a>
</g>
</g>
<!-- Node2&#45;&gt;Node1 -->
<g id="edge1_Node000001_Node000002" class="edge">
<title>Node2&#45;&gt;Node1</title>
<g id="a_edge1_Node000001_Node000002"><a xlink:title=" ">
<path fill="none" stroke="#63b8ff" d="M957.31,-77.5C965.66,-77.5 974.06,-77.5 982.35,-77.5"/>
<polygon fill="none" stroke="#63b8ff" points="957.49,-74 947.49,-77.5 957.49,-81 957.49,-74"/>
</a>
</g>
</g>
<!-- Node3 -->
<g id="Node000003" class="node">
<title>Node3</title>
<g id="a_Node000003"><a xlink:href="../../db/d89/classv8_1_1internal_1_1compiler_1_1turboshaft_1_1UniformReducerAdapter.html" target="_top" xlink:title=" ">
<polygon fill="white" stroke="none" points="708,-137 482,-137 482,-18 708,-18 708,-137"/>
<text text-anchor="start" x="487" y="-123.5" font-family="Cascadia Code NF" font-size="10.00">v8::internal::compiler</text>
<text text-anchor="start" x="487" y="-110.75" font-family="Cascadia Code NF" font-size="10.00">::turboshaft::UniformReducer</text>
<text text-anchor="start" x="487" y="-98" font-family="Cascadia Code NF" font-size="10.00">Adapter&lt; EmitProjectionReducer,</text>
<text text-anchor="start" x="487" y="-85.25" font-family="Cascadia Code NF" font-size="10.00"> ValueNumberingReducer&lt; ReducerStack</text>
<text text-anchor="start" x="487" y="-72.5" font-family="Cascadia Code NF" font-size="10.00">&lt; Assembler, true, Reducers... &gt; &gt; &gt;</text>
<text text-anchor="start" x="592" y="-56.5" font-family="Cascadia Code NF" font-size="10.00"> </text>
<text text-anchor="start" x="497.5" y="-40.5" font-family="Cascadia Code NF" font-size="10.00">+</text>
<text text-anchor="start" x="519" y="-40.5" font-family="Cascadia Code NF" font-size="10.00">ReduceOperation()</text>
<text text-anchor="start" x="497.5" y="-24.5" font-family="Cascadia Code NF" font-size="10.00">+</text>
<text text-anchor="start" x="519" y="-24.5" font-family="Cascadia Code NF" font-size="10.00">ReduceInputGraphOperation()</text>
<polygon fill="#bfbfbf" stroke="#bfbfbf" points="482,-68 482,-68 708,-68 708,-68 482,-68"/>
<polygon fill="#bfbfbf" stroke="#bfbfbf" points="482,-52 482,-52 708,-52 708,-52 482,-52"/>
<polygon fill="none" stroke="#bfbfbf" points="482,-18 482,-137 708,-137 708,-18 482,-18"/>
</a>
</g>
</g>
<!-- Node3&#45;&gt;Node2 -->
<g id="edge2_Node000002_Node000003" class="edge">
<title>Node3&#45;&gt;Node2</title>
<g id="a_edge2_Node000002_Node000003"><a xlink:title=" ">
<path fill="none" stroke="#63b8ff" d="M719.15,-77.5C727.58,-77.5 736.02,-77.5 744.31,-77.5"/>
<polygon fill="none" stroke="#63b8ff" points="719.18,-74 709.18,-77.5 719.18,-81 719.18,-74"/>
</a>
</g>
</g>
<!-- Node4 -->
<g id="Node000004" class="node">
<title>Node4</title>
<g id="a_Node000004"><a xlink:href="../../d2/dcb/classv8_1_1internal_1_1compiler_1_1turboshaft_1_1ValueNumberingReducer.html" target="_top" xlink:title=" ">
<polygon fill="white" stroke="none" points="446,-155 238,-155 238,0 446,0 446,-155"/>
<text text-anchor="start" x="243" y="-141.5" font-family="Cascadia Code NF" font-size="10.00">v8::internal::compiler</text>
<text text-anchor="start" x="243" y="-128.75" font-family="Cascadia Code NF" font-size="10.00">::turboshaft::ValueNumbering</text>
<text text-anchor="start" x="243" y="-116" font-family="Cascadia Code NF" font-size="10.00">Reducer&lt; ReducerStack&lt; Assembler,</text>
<text text-anchor="start" x="276" y="-103.25" font-family="Cascadia Code NF" font-size="10.00"> true, Reducers... &gt; &gt;</text>
<text text-anchor="start" x="339" y="-86.5" font-family="Cascadia Code NF" font-size="10.00"> </text>
<text text-anchor="start" x="259.5" y="-70.5" font-family="Cascadia Code NF" font-size="10.00">+</text>
<text text-anchor="start" x="287" y="-70.5" font-family="Cascadia Code NF" font-size="10.00">Bind()</text>
<text text-anchor="start" x="259.5" y="-54.5" font-family="Cascadia Code NF" font-size="10.00">+</text>
<text text-anchor="start" x="287" y="-54.5" font-family="Cascadia Code NF" font-size="10.00">ResetToBlock()</text>
<text text-anchor="start" x="259.5" y="-38.5" font-family="Cascadia Code NF" font-size="10.00">+</text>
<text text-anchor="start" x="287" y="-38.5" font-family="Cascadia Code NF" font-size="10.00">WillGVNOp()</text>
<text text-anchor="start" x="259.5" y="-22.5" font-family="Cascadia Code NF" font-size="10.00">+</text>
<text text-anchor="start" x="287" y="-22.5" font-family="Cascadia Code NF" font-size="10.00">gvn_disabled_scope()</text>
<text text-anchor="start" x="259.5" y="-6.5" font-family="Cascadia Code NF" font-size="10.00">+</text>
<text text-anchor="start" x="287" y="-6.5" font-family="Cascadia Code NF" font-size="10.00">CanBeGVNed()</text>
<polygon fill="#bfbfbf" stroke="#bfbfbf" points="238,-98 238,-98 446,-98 446,-98 238,-98"/>
<polygon fill="#bfbfbf" stroke="#bfbfbf" points="238,-82 238,-82 446,-82 446,-82 238,-82"/>
<polygon fill="none" stroke="#bfbfbf" points="238,0 238,-155 446,-155 446,0 238,0"/>
</a>
</g>
</g>
<!-- Node4&#45;&gt;Node3 -->
<g id="edge3_Node000003_Node000004" class="edge">
<title>Node4&#45;&gt;Node3</title>
<g id="a_edge3_Node000003_Node000004"><a xlink:title=" ">
<path fill="none" stroke="#63b8ff" d="M457.18,-77.5C465.56,-77.5 474,-77.5 482.36,-77.5"/>
<polygon fill="none" stroke="#63b8ff" points="457.33,-74 447.33,-77.5 457.33,-81 457.33,-74"/>
</a>
</g>
</g>
<!-- Node5 -->
<g id="Node000005" class="node">
<title>Node5</title>
<g id="a_Node000005"><a xlink:href="../../d9/df7/classv8_1_1internal_1_1compiler_1_1turboshaft_1_1ReducerStack.html" target="_top" xlink:title=" ">
<polygon fill="white" stroke="none" points="202,-116.5 0,-116.5 0,-38.5 202,-38.5 202,-116.5"/>
<text text-anchor="start" x="5" y="-103" font-family="Cascadia Code NF" font-size="10.00">v8::internal::compiler</text>
<text text-anchor="start" x="5" y="-90.25" font-family="Cascadia Code NF" font-size="10.00">::turboshaft::ReducerStack</text>
<text text-anchor="start" x="5" y="-77.5" font-family="Cascadia Code NF" font-size="10.00">&lt; Assembler, true, Reducers... &gt;</text>
<text text-anchor="start" x="98" y="-61" font-family="Cascadia Code NF" font-size="10.00"> </text>
<text text-anchor="start" x="98" y="-45" font-family="Cascadia Code NF" font-size="10.00"> </text>
<polygon fill="#bfbfbf" stroke="#bfbfbf" points="0,-72.5 0,-72.5 202,-72.5 202,-72.5 0,-72.5"/>
<polygon fill="#bfbfbf" stroke="#bfbfbf" points="0,-56.5 0,-56.5 202,-56.5 202,-56.5 0,-56.5"/>
<polygon fill="none" stroke="#bfbfbf" points="0,-38.5 0,-116.5 202,-116.5 202,-38.5 0,-38.5"/>
</a>
</g>
</g>
<!-- Node5&#45;&gt;Node4 -->
<g id="edge4_Node000004_Node000005" class="edge">
<title>Node5&#45;&gt;Node4</title>
<g id="a_edge4_Node000004_Node000005"><a xlink:title=" ">
<path fill="none" stroke="#63b8ff" d="M213.31,-77.5C221.66,-77.5 230.06,-77.5 238.35,-77.5"/>
<polygon fill="none" stroke="#63b8ff" points="213.49,-74 203.49,-77.5 213.49,-81 213.49,-74"/>
</a>
</g>
</g>
</g>
</svg>
