<?xml version="1.0" encoding="UTF-8" standalone="no"?>
<!DOCTYPE svg PUBLIC "-//W3C//DTD SVG 1.1//EN"
 "http://www.w3.org/Graphics/SVG/1.1/DTD/svg11.dtd">
<!-- Generated by graphviz version 11.0.0 (20240428.1522)
 -->
<!-- Title: v8::internal::OnHeapConsumedPreparseData Pages: 1 -->
<svg width="672pt" height="188pt"
 viewBox="0.00 0.00 672.00 188.00" xmlns="http://www.w3.org/2000/svg" xmlns:xlink="http://www.w3.org/1999/xlink">
<g id="graph0" class="graph" transform="scale(1 1) rotate(0) translate(4 184)">
<title>v8::internal::OnHeapConsumedPreparseData</title>
<!-- Node1 -->
<g id="Node000001" class="node">
<title>Node1</title>
<g id="a_Node000001"><a xlink:title=" ">
<polygon fill="#999999" stroke="none" points="664,-138.5 478,-138.5 478,-41.5 664,-41.5 664,-138.5"/>
<text text-anchor="start" x="487" y="-125" font-family="Cascadia Code NF" font-size="10.00">v8::internal::OnHeapConsumed</text>
<text text-anchor="start" x="535" y="-112.25" font-family="Cascadia Code NF" font-size="10.00">PreparseData</text>
<text text-anchor="start" x="568" y="-96" font-family="Cascadia Code NF" font-size="10.00"> </text>
<text text-anchor="start" x="482" y="-80" font-family="Cascadia Code NF" font-size="10.00">+</text>
<text text-anchor="start" x="492" y="-80" font-family="Cascadia Code NF" font-size="10.00">OnHeapConsumedPreparseData()</text>
<text text-anchor="start" x="482" y="-64" font-family="Cascadia Code NF" font-size="10.00">+</text>
<text text-anchor="start" x="492" y="-64" font-family="Cascadia Code NF" font-size="10.00">GetScopeData()</text>
<text text-anchor="start" x="482" y="-48" font-family="Cascadia Code NF" font-size="10.00">+</text>
<text text-anchor="start" x="492" y="-48" font-family="Cascadia Code NF" font-size="10.00">GetChildData()</text>
<polygon fill="#666666" stroke="#666666" points="478,-107.5 478,-107.5 664,-107.5 664,-107.5 478,-107.5"/>
<polygon fill="#666666" stroke="#666666" points="478,-91.5 478,-91.5 664,-91.5 664,-91.5 478,-91.5"/>
<polygon fill="none" stroke="#666666" points="478,-41.5 478,-138.5 664,-138.5 664,-41.5 478,-41.5"/>
</a>
</g>
</g>
<!-- Node2 -->
<g id="Node000002" class="node">
<title>Node2</title>
<g id="a_Node000002"><a xlink:href="$dc/daf/classv8_1_1internal_1_1BaseConsumedPreparseData.html" xlink:title=" ">
<polygon fill="white" stroke="none" points="442,-177 250,-177 250,-3 442,-3 442,-177"/>
<text text-anchor="start" x="256" y="-163.5" font-family="Cascadia Code NF" font-size="10.00">v8::internal::BaseConsumed</text>
<text text-anchor="start" x="256" y="-150.75" font-family="Cascadia Code NF" font-size="10.00">PreparseData&lt; Tagged&lt; Preparse</text>
<text text-anchor="start" x="322" y="-138" font-family="Cascadia Code NF" font-size="10.00">Data &gt; &gt;</text>
<text text-anchor="start" x="343" y="-121.5" font-family="Cascadia Code NF" font-size="10.00"> </text>
<text text-anchor="start" x="254" y="-105.5" font-family="Cascadia Code NF" font-size="10.00">+</text>
<text text-anchor="start" x="264" y="-105.5" font-family="Cascadia Code NF" font-size="10.00">BaseConsumedPreparseData()</text>
<text text-anchor="start" x="254" y="-89.5" font-family="Cascadia Code NF" font-size="10.00">+</text>
<text text-anchor="start" x="264" y="-89.5" font-family="Cascadia Code NF" font-size="10.00">BaseConsumedPreparseData()</text>
<text text-anchor="start" x="254" y="-73.5" font-family="Cascadia Code NF" font-size="10.00">+</text>
<text text-anchor="start" x="264" y="-73.5" font-family="Cascadia Code NF" font-size="10.00">operator=()</text>
<text text-anchor="start" x="254" y="-57.5" font-family="Cascadia Code NF" font-size="10.00">+</text>
<text text-anchor="start" x="264" y="-57.5" font-family="Cascadia Code NF" font-size="10.00">GetScopeData()</text>
<text text-anchor="start" x="254" y="-41.5" font-family="Cascadia Code NF" font-size="10.00">+</text>
<text text-anchor="start" x="264" y="-41.5" font-family="Cascadia Code NF" font-size="10.00">GetChildData()</text>
<text text-anchor="start" x="254" y="-25.5" font-family="Cascadia Code NF" font-size="10.00">+</text>
<text text-anchor="start" x="264" y="-25.5" font-family="Cascadia Code NF" font-size="10.00">GetDataForSkippableFunction()</text>
<text text-anchor="start" x="254" y="-9.5" font-family="Cascadia Code NF" font-size="10.00">+</text>
<text text-anchor="start" x="264" y="-9.5" font-family="Cascadia Code NF" font-size="10.00">RestoreScopeAllocationData()</text>
<polygon fill="#bfbfbf" stroke="#bfbfbf" points="250,-133 250,-133 442,-133 442,-133 250,-133"/>
<polygon fill="#bfbfbf" stroke="#bfbfbf" points="250,-117 250,-117 442,-117 442,-117 250,-117"/>
<polygon fill="none" stroke="#bfbfbf" points="250,-3 250,-177 442,-177 442,-3 250,-3"/>
</a>
</g>
</g>
<!-- Node2&#45;&gt;Node1 -->
<g id="edge1_Node000001_Node000002" class="edge">
<title>Node2&#45;&gt;Node1</title>
<g id="a_edge1_Node000001_Node000002"><a xlink:title=" ">
<path fill="none" stroke="#63b8ff" d="M453.18,-90C461.48,-90 469.83,-90 478.03,-90"/>
<polygon fill="none" stroke="#63b8ff" points="453.41,-86.5 443.41,-90 453.41,-93.5 453.41,-86.5"/>
</a>
</g>
</g>
<!-- Node3 -->
<g id="Node000003" class="node">
<title>Node3</title>
<g id="a_Node000003"><a xlink:href="$de/d08/classv8_1_1internal_1_1ConsumedPreparseData.html" xlink:title=" ">
<polygon fill="white" stroke="none" points="214,-180 0,-180 0,0 214,0 214,-180"/>
<text text-anchor="start" x="5" y="-166.5" font-family="Cascadia Code NF" font-size="10.00">v8::internal::ConsumedPreparseData</text>
<text text-anchor="start" x="104" y="-150.5" font-family="Cascadia Code NF" font-size="10.00"> </text>
<text text-anchor="start" x="9.5" y="-134.5" font-family="Cascadia Code NF" font-size="10.00">+</text>
<text text-anchor="start" x="25" y="-134.5" font-family="Cascadia Code NF" font-size="10.00">~ConsumedPreparseData()</text>
<text text-anchor="start" x="9.5" y="-118.5" font-family="Cascadia Code NF" font-size="10.00">+</text>
<text text-anchor="start" x="25" y="-118.5" font-family="Cascadia Code NF" font-size="10.00">ConsumedPreparseData()</text>
<text text-anchor="start" x="9.5" y="-102.5" font-family="Cascadia Code NF" font-size="10.00">+</text>
<text text-anchor="start" x="25" y="-102.5" font-family="Cascadia Code NF" font-size="10.00">operator=()</text>
<text text-anchor="start" x="9.5" y="-86.5" font-family="Cascadia Code NF" font-size="10.00">+</text>
<text text-anchor="start" x="25" y="-86.5" font-family="Cascadia Code NF" font-size="10.00">GetDataForSkippableFunction()</text>
<text text-anchor="start" x="9.5" y="-70.5" font-family="Cascadia Code NF" font-size="10.00">+</text>
<text text-anchor="start" x="25" y="-70.5" font-family="Cascadia Code NF" font-size="10.00">RestoreScopeAllocationData()</text>
<text text-anchor="start" x="9.5" y="-54.5" font-family="Cascadia Code NF" font-size="10.00">+</text>
<text text-anchor="start" x="25" y="-54.5" font-family="Cascadia Code NF" font-size="10.00">For()</text>
<text text-anchor="start" x="9.5" y="-38.5" font-family="Cascadia Code NF" font-size="10.00">+</text>
<text text-anchor="start" x="25" y="-38.5" font-family="Cascadia Code NF" font-size="10.00">For()</text>
<text text-anchor="start" x="9.5" y="-22.5" font-family="Cascadia Code NF" font-size="10.00">+</text>
<text text-anchor="start" x="25" y="-22.5" font-family="Cascadia Code NF" font-size="10.00">For()</text>
<text text-anchor="start" x="9.5" y="-6.5" font-family="Cascadia Code NF" font-size="10.00">#</text>
<text text-anchor="start" x="25" y="-6.5" font-family="Cascadia Code NF" font-size="10.00">ConsumedPreparseData()</text>
<polygon fill="#bfbfbf" stroke="#bfbfbf" points="0,-162 0,-162 214,-162 214,-162 0,-162"/>
<polygon fill="#bfbfbf" stroke="#bfbfbf" points="0,-146 0,-146 214,-146 214,-146 0,-146"/>
<polygon fill="none" stroke="#bfbfbf" points="0,0 0,-180 214,-180 214,0 0,0"/>
</a>
</g>
</g>
<!-- Node3&#45;&gt;Node2 -->
<g id="edge2_Node000002_Node000003" class="edge">
<title>Node3&#45;&gt;Node2</title>
<g id="a_edge2_Node000002_Node000003"><a xlink:title=" ">
<path fill="none" stroke="#63b8ff" d="M225.17,-90C233.62,-90 242.07,-90 250.36,-90"/>
<polygon fill="none" stroke="#63b8ff" points="225.19,-86.5 215.19,-90 225.19,-93.5 225.19,-86.5"/>
</a>
</g>
</g>
</g>
</svg>
