<?xml version="1.0" encoding="UTF-8" standalone="no"?>
<!DOCTYPE svg PUBLIC "-//W3C//DTD SVG 1.1//EN"
 "http://www.w3.org/Graphics/SVG/1.1/DTD/svg11.dtd">
<!-- Generated by graphviz version 11.0.0 (20240428.1522)
 -->
<!-- Title: v8::internal::FreeListManyCachedFastPathForNewSpace Pages: 1 -->
<!--zoomable 654 -->

<svg id="main" version="1.1" xmlns="http://www.w3.org/2000/svg" xmlns:xlink="http://www.w3.org/1999/xlink" xml:space="preserve" onload="init(evt)">
<style type="text/css"><![CDATA[
.node, .edge {opacity: 0.7;}
.node.selected, .edge.selected {opacity: 1;}
.edge:hover path { stroke: red; }
.edge:hover polygon { stroke: red; fill: red; }
svg#main { background-color: #111; }
]]></style>

<defs>
  <circle id="rim" cx="0" cy="0" r="7"/>
  <circle id="rim2" cx="0" cy="0" r="3.5"/>
  <g id="zoomPlus">
    <use xlink:href="#rim" fill="#404040"><set attributeName="fill" to="#808080" begin="zoomplus.mouseover" end="zoomplus.mouseout"/></use>
    <path d="M-4,0h8M0,-4v8" fill="none" stroke="white" stroke-width="1.5" pointer-events="none"/>
  </g>
  <g id="zoomMin">
    <use xlink:href="#rim" fill="#404040"><set attributeName="fill" to="#808080" begin="zoomminus.mouseover" end="zoomminus.mouseout"/></use>
    <path d="M-4,0h8" fill="none" stroke="white" stroke-width="1.5" pointer-events="none"/>
  </g>
  <g id="arrowUp" transform="translate(30 24)">
    <use xlink:href="#rim"/>
    <path pointer-events="none" fill="none" stroke="white" stroke-width="1.5" d="M0,-3.0v7 M-2.5,-0.5L0,-3.0L2.5,-0.5"/>
  </g>
  <g id="arrowRight" transform="rotate(90) translate(36 -43)">
    <use xlink:href="#rim"/>
    <path pointer-events="none" fill="none" stroke="white" stroke-width="1.5" d="M0,-3.0v7 M-2.5,-0.5L0,-3.0L2.5,-0.5"/>
  </g>
  <g id="arrowDown" transform="rotate(180) translate(-30 -48)">
    <use xlink:href="#rim"/>
    <path pointer-events="none" fill="none" stroke="white" stroke-width="1.5" d="M0,-3.0v7 M-2.5,-0.5L0,-3.0L2.5,-0.5"/>
  </g>
  <g id="arrowLeft" transform="rotate(270) translate(-36 17)">
    <use xlink:href="#rim"/>
    <path pointer-events="none" fill="none" stroke="white" stroke-width="1.5" d="M0,-3.0v7 M-2.5,-0.5L0,-3.0L2.5,-0.5"/>
  </g>
  <g id="resetDef">
    <use xlink:href="#rim2" fill="#404040"><set attributeName="fill" to="#808080" begin="reset.mouseover" end="reset.mouseout"/></use>
  </g>
</defs>
<script type="application/ecmascript">
var viewWidth = 1532;
var viewHeight = 654;
var sectionId = 'dynsection-1';
</script>
<script type="application/ecmascript" xlink:href="../../svg.min.js"/>
<svg id="graph" class="graph">
<g id="viewport">
<title>v8::internal::FreeListManyCachedFastPathForNewSpace</title>
<!-- Node1 -->
<g id="Node000001" class="node">
<title>Node1</title>
<g id="a_Node000001"><a xlink:title=" ">
<polygon fill="#999999" stroke="none" points="1524,-441 1350,-441 1350,-363 1524,-363 1524,-441"/>
<text text-anchor="start" x="1359" y="-427.5" font-family="Cascadia Code NF" font-size="10.00">v8::internal::FreeListMany</text>
<text text-anchor="start" x="1362" y="-414.75" font-family="Cascadia Code NF" font-size="10.00">CachedFastPathForNewSpace</text>
<text text-anchor="start" x="1434" y="-398.5" font-family="Cascadia Code NF" font-size="10.00"> </text>
<text text-anchor="start" x="1354" y="-382.5" font-family="Cascadia Code NF" font-size="10.00">+</text>
<text text-anchor="start" x="1364" y="-382.5" font-family="Cascadia Code NF" font-size="10.00">FreeListManyCachedFastPath</text>
<text text-anchor="start" x="1364" y="-369.75" font-family="Cascadia Code NF" font-size="10.00">ForNewSpace()</text>
<polygon fill="#666666" stroke="#666666" points="1350,-410 1350,-410 1524,-410 1524,-410 1350,-410"/>
<polygon fill="#666666" stroke="#666666" points="1350,-394 1350,-394 1524,-394 1524,-394 1350,-394"/>
<polygon fill="none" stroke="#666666" points="1350,-363 1350,-441 1524,-441 1524,-363 1350,-363"/>
</a>
</g>
</g>
<!-- Node2 -->
<g id="Node000002" class="node">
<title>Node2</title>
<g id="a_Node000002"><a xlink:href="../../de/d91/classv8_1_1internal_1_1FreeListManyCachedFastPathBase.html" target="_top" xlink:title=" ">
<polygon fill="white" stroke="none" points="1314,-463.5 1140,-463.5 1140,-340.5 1314,-340.5 1314,-463.5"/>
<text text-anchor="start" x="1149" y="-450" font-family="Cascadia Code NF" font-size="10.00">v8::internal::FreeListMany</text>
<text text-anchor="start" x="1173" y="-437.25" font-family="Cascadia Code NF" font-size="10.00">CachedFastPathBase</text>
<text text-anchor="start" x="1224" y="-421" font-family="Cascadia Code NF" font-size="10.00"> </text>
<text text-anchor="start" x="1144" y="-405" font-family="Cascadia Code NF" font-size="10.00">+</text>
<text text-anchor="start" x="1154" y="-405" font-family="Cascadia Code NF" font-size="10.00">FreeListManyCachedFastPath</text>
<text text-anchor="start" x="1154" y="-392.25" font-family="Cascadia Code NF" font-size="10.00">Base()</text>
<text text-anchor="start" x="1144" y="-376" font-family="Cascadia Code NF" font-size="10.00">+</text>
<text text-anchor="start" x="1154" y="-376" font-family="Cascadia Code NF" font-size="10.00">Allocate()</text>
<text text-anchor="start" x="1144" y="-360" font-family="Cascadia Code NF" font-size="10.00">#</text>
<text text-anchor="start" x="1154" y="-360" font-family="Cascadia Code NF" font-size="10.00">SelectFastAllocationFree</text>
<text text-anchor="start" x="1154" y="-347.25" font-family="Cascadia Code NF" font-size="10.00">ListCategoryType()</text>
<polygon fill="#bfbfbf" stroke="#bfbfbf" points="1140,-432.5 1140,-432.5 1314,-432.5 1314,-432.5 1140,-432.5"/>
<polygon fill="#bfbfbf" stroke="#bfbfbf" points="1140,-416.5 1140,-416.5 1314,-416.5 1314,-416.5 1140,-416.5"/>
<polygon fill="none" stroke="#bfbfbf" points="1140,-340.5 1140,-463.5 1314,-463.5 1314,-340.5 1140,-340.5"/>
</a>
</g>
</g>
<!-- Node2&#45;&gt;Node1 -->
<g id="edge1_Node000001_Node000002" class="edge">
<title>Node2&#45;&gt;Node1</title>
<g id="a_edge1_Node000001_Node000002"><a xlink:title=" ">
<path fill="none" stroke="#63b8ff" d="M1325.11,-402C1333.44,-402 1341.83,-402 1350.06,-402"/>
<polygon fill="none" stroke="#63b8ff" points="1325.32,-398.5 1315.32,-402 1325.32,-405.5 1325.32,-398.5"/>
</a>
</g>
</g>
<!-- Node3 -->
<g id="Node000003" class="node">
<title>Node3</title>
<g id="a_Node000003"><a xlink:href="../../db/d35/classv8_1_1internal_1_1FreeListManyCached.html" target="_top" xlink:title=" ">
<polygon fill="white" stroke="none" points="1103,-266.5 929,-266.5 929,-89.5 1103,-89.5 1103,-266.5"/>
<text text-anchor="start" x="938" y="-253" font-family="Cascadia Code NF" font-size="10.00">v8::internal::FreeListMany</text>
<text text-anchor="start" x="998" y="-240.25" font-family="Cascadia Code NF" font-size="10.00">Cached</text>
<text text-anchor="start" x="1013" y="-224" font-family="Cascadia Code NF" font-size="10.00"> </text>
<text text-anchor="start" x="933" y="-208" font-family="Cascadia Code NF" font-size="10.00">+</text>
<text text-anchor="start" x="943" y="-208" font-family="Cascadia Code NF" font-size="10.00">FreeListManyCached()</text>
<text text-anchor="start" x="933" y="-192" font-family="Cascadia Code NF" font-size="10.00">+</text>
<text text-anchor="start" x="943" y="-192" font-family="Cascadia Code NF" font-size="10.00">Allocate()</text>
<text text-anchor="start" x="933" y="-176" font-family="Cascadia Code NF" font-size="10.00">+</text>
<text text-anchor="start" x="943" y="-176" font-family="Cascadia Code NF" font-size="10.00">Free()</text>
<text text-anchor="start" x="933" y="-160" font-family="Cascadia Code NF" font-size="10.00">+</text>
<text text-anchor="start" x="943" y="-160" font-family="Cascadia Code NF" font-size="10.00">Reset()</text>
<text text-anchor="start" x="933" y="-144" font-family="Cascadia Code NF" font-size="10.00">+</text>
<text text-anchor="start" x="943" y="-144" font-family="Cascadia Code NF" font-size="10.00">AddCategory()</text>
<text text-anchor="start" x="933" y="-128" font-family="Cascadia Code NF" font-size="10.00">+</text>
<text text-anchor="start" x="943" y="-128" font-family="Cascadia Code NF" font-size="10.00">RemoveCategory()</text>
<text text-anchor="start" x="933" y="-112" font-family="Cascadia Code NF" font-size="10.00">#</text>
<text text-anchor="start" x="943" y="-112" font-family="Cascadia Code NF" font-size="10.00">UpdateCacheAfterAddition()</text>
<text text-anchor="start" x="933" y="-96" font-family="Cascadia Code NF" font-size="10.00">#</text>
<text text-anchor="start" x="943" y="-96" font-family="Cascadia Code NF" font-size="10.00">UpdateCacheAfterRemoval()</text>
<polygon fill="#bfbfbf" stroke="#bfbfbf" points="929,-235.5 929,-235.5 1103,-235.5 1103,-235.5 929,-235.5"/>
<polygon fill="#bfbfbf" stroke="#bfbfbf" points="929,-219.5 929,-219.5 1103,-219.5 1103,-219.5 929,-219.5"/>
<polygon fill="none" stroke="#bfbfbf" points="929,-89.5 929,-266.5 1103,-266.5 1103,-89.5 929,-89.5"/>
</a>
</g>
</g>
<!-- Node3&#45;&gt;Node2 -->
<g id="edge2_Node000002_Node000003" class="edge">
<title>Node3&#45;&gt;Node2</title>
<g id="a_edge2_Node000002_Node000003"><a xlink:title=" ">
<path fill="none" stroke="#63b8ff" d="M1107,-274.46C1128,-296.97 1149.8,-320.33 1168.91,-340.82"/>
<polygon fill="none" stroke="#63b8ff" points="1109.72,-272.24 1100.33,-267.32 1104.6,-277.02 1109.72,-272.24"/>
</a>
</g>
</g>
<!-- Node4 -->
<g id="Node000004" class="node">
<title>Node4</title>
<g id="a_Node000004"><a xlink:href="../../d6/d0b/classv8_1_1internal_1_1FreeListMany.html" target="_top" xlink:title=" ">
<polygon fill="white" stroke="none" points="892,-252 706,-252 706,-104 892,-104 892,-252"/>
<text text-anchor="start" x="721" y="-238.5" font-family="Cascadia Code NF" font-size="10.00">v8::internal::FreeListMany</text>
<text text-anchor="start" x="796" y="-222.5" font-family="Cascadia Code NF" font-size="10.00"> </text>
<text text-anchor="start" x="710" y="-206.5" font-family="Cascadia Code NF" font-size="10.00">+</text>
<text text-anchor="start" x="720" y="-206.5" font-family="Cascadia Code NF" font-size="10.00">GetPageForSize()</text>
<text text-anchor="start" x="710" y="-190.5" font-family="Cascadia Code NF" font-size="10.00">+</text>
<text text-anchor="start" x="720" y="-190.5" font-family="Cascadia Code NF" font-size="10.00">FreeListMany()</text>
<text text-anchor="start" x="710" y="-174.5" font-family="Cascadia Code NF" font-size="10.00">+</text>
<text text-anchor="start" x="720" y="-174.5" font-family="Cascadia Code NF" font-size="10.00">~FreeListMany()</text>
<text text-anchor="start" x="710" y="-158.5" font-family="Cascadia Code NF" font-size="10.00">+</text>
<text text-anchor="start" x="720" y="-158.5" font-family="Cascadia Code NF" font-size="10.00">Allocate()</text>
<text text-anchor="start" x="710" y="-142.5" font-family="Cascadia Code NF" font-size="10.00">#</text>
<text text-anchor="start" x="720" y="-142.5" font-family="Cascadia Code NF" font-size="10.00">SelectFreeListCategoryType()</text>
<text text-anchor="start" x="710" y="-126.5" font-family="Cascadia Code NF" font-size="10.00">#</text>
<text text-anchor="start" x="720" y="-126.5" font-family="Cascadia Code NF" font-size="10.00">FRIEND_TEST()</text>
<text text-anchor="start" x="710" y="-110.5" font-family="Cascadia Code NF" font-size="10.00">#</text>
<text text-anchor="start" x="720" y="-110.5" font-family="Cascadia Code NF" font-size="10.00">FRIEND_TEST()</text>
<polygon fill="#bfbfbf" stroke="#bfbfbf" points="706,-234 706,-234 892,-234 892,-234 706,-234"/>
<polygon fill="#bfbfbf" stroke="#bfbfbf" points="706,-218 706,-218 892,-218 892,-218 706,-218"/>
<polygon fill="none" stroke="#bfbfbf" points="706,-104 706,-252 892,-252 892,-104 706,-104"/>
</a>
</g>
</g>
<!-- Node4&#45;&gt;Node3 -->
<g id="edge3_Node000003_Node000004" class="edge">
<title>Node4&#45;&gt;Node3</title>
<g id="a_edge3_Node000003_Node000004"><a xlink:title=" ">
<path fill="none" stroke="#63b8ff" d="M903.23,-178C911.96,-178 920.73,-178 929.3,-178"/>
<polygon fill="none" stroke="#63b8ff" points="903.32,-174.5 893.32,-178 903.32,-181.5 903.32,-174.5"/>
</a>
</g>
</g>
<!-- Node5 -->
<g id="Node000005" class="node">
<title>Node5</title>
<g id="a_Node000005"><a xlink:href="../../d2/d03/classv8_1_1internal_1_1FreeList.html" target="_top" xlink:title=" ">
<polygon fill="white" stroke="none" points="544,-484 358,-484 358,-144 544,-144 544,-484"/>
<text text-anchor="start" x="385" y="-470.5" font-family="Cascadia Code NF" font-size="10.00">v8::internal::FreeList</text>
<text text-anchor="start" x="448" y="-454.5" font-family="Cascadia Code NF" font-size="10.00"> </text>
<text text-anchor="start" x="362" y="-438.5" font-family="Cascadia Code NF" font-size="10.00">+</text>
<text text-anchor="start" x="372" y="-438.5" font-family="Cascadia Code NF" font-size="10.00">FreeList()</text>
<text text-anchor="start" x="362" y="-422.5" font-family="Cascadia Code NF" font-size="10.00">+</text>
<text text-anchor="start" x="372" y="-422.5" font-family="Cascadia Code NF" font-size="10.00">~FreeList()</text>
<text text-anchor="start" x="362" y="-406.5" font-family="Cascadia Code NF" font-size="10.00">+</text>
<text text-anchor="start" x="372" y="-406.5" font-family="Cascadia Code NF" font-size="10.00">Free()</text>
<text text-anchor="start" x="362" y="-390.5" font-family="Cascadia Code NF" font-size="10.00">+</text>
<text text-anchor="start" x="372" y="-390.5" font-family="Cascadia Code NF" font-size="10.00">Allocate()</text>
<text text-anchor="start" x="362" y="-374.5" font-family="Cascadia Code NF" font-size="10.00">+</text>
<text text-anchor="start" x="372" y="-374.5" font-family="Cascadia Code NF" font-size="10.00">GetPageForSize()</text>
<text text-anchor="start" x="362" y="-358.5" font-family="Cascadia Code NF" font-size="10.00">+</text>
<text text-anchor="start" x="372" y="-358.5" font-family="Cascadia Code NF" font-size="10.00">Reset()</text>
<text text-anchor="start" x="362" y="-342.5" font-family="Cascadia Code NF" font-size="10.00">+</text>
<text text-anchor="start" x="372" y="-342.5" font-family="Cascadia Code NF" font-size="10.00">Available()</text>
<text text-anchor="start" x="362" y="-326.5" font-family="Cascadia Code NF" font-size="10.00">+</text>
<text text-anchor="start" x="372" y="-326.5" font-family="Cascadia Code NF" font-size="10.00">IncreaseAvailableBytes()</text>
<text text-anchor="start" x="362" y="-310.5" font-family="Cascadia Code NF" font-size="10.00">+</text>
<text text-anchor="start" x="372" y="-310.5" font-family="Cascadia Code NF" font-size="10.00">DecreaseAvailableBytes()</text>
<text text-anchor="start" x="362" y="-294.5" font-family="Cascadia Code NF" font-size="10.00">+</text>
<text text-anchor="start" x="372" y="-294.5" font-family="Cascadia Code NF" font-size="10.00">wasted_bytes()</text>
<text text-anchor="start" x="372" y="-278.5" font-family="Cascadia Code NF" font-size="10.00">and 13 more...</text>
<text text-anchor="start" x="362" y="-262.5" font-family="Cascadia Code NF" font-size="10.00">+</text>
<text text-anchor="start" x="372" y="-262.5" font-family="Cascadia Code NF" font-size="10.00">CreateFreeList()</text>
<text text-anchor="start" x="362" y="-246.5" font-family="Cascadia Code NF" font-size="10.00">+</text>
<text text-anchor="start" x="372" y="-246.5" font-family="Cascadia Code NF" font-size="10.00">CreateFreeListForNewSpace()</text>
<text text-anchor="start" x="362" y="-230.5" font-family="Cascadia Code NF" font-size="10.00">#</text>
<text text-anchor="start" x="372" y="-230.5" font-family="Cascadia Code NF" font-size="10.00">VerifyAvailable()</text>
<text text-anchor="start" x="362" y="-214.5" font-family="Cascadia Code NF" font-size="10.00">#</text>
<text text-anchor="start" x="372" y="-214.5" font-family="Cascadia Code NF" font-size="10.00">TryFindNodeIn()</text>
<text text-anchor="start" x="362" y="-198.5" font-family="Cascadia Code NF" font-size="10.00">#</text>
<text text-anchor="start" x="372" y="-198.5" font-family="Cascadia Code NF" font-size="10.00">SearchForNodeInList()</text>
<text text-anchor="start" x="362" y="-182.5" font-family="Cascadia Code NF" font-size="10.00">#</text>
<text text-anchor="start" x="372" y="-182.5" font-family="Cascadia Code NF" font-size="10.00">SelectFreeListCategoryType()</text>
<text text-anchor="start" x="362" y="-166.5" font-family="Cascadia Code NF" font-size="10.00">#</text>
<text text-anchor="start" x="372" y="-166.5" font-family="Cascadia Code NF" font-size="10.00">top()</text>
<text text-anchor="start" x="362" y="-150.5" font-family="Cascadia Code NF" font-size="10.00">#</text>
<text text-anchor="start" x="372" y="-150.5" font-family="Cascadia Code NF" font-size="10.00">GetPageForCategoryType()</text>
<polygon fill="#bfbfbf" stroke="#bfbfbf" points="358,-466 358,-466 544,-466 544,-466 358,-466"/>
<polygon fill="#bfbfbf" stroke="#bfbfbf" points="358,-450 358,-450 544,-450 544,-450 358,-450"/>
<polygon fill="none" stroke="#bfbfbf" points="358,-144 358,-484 544,-484 544,-144 358,-144"/>
</a>
</g>
</g>
<!-- Node5&#45;&gt;Node4 -->
<g id="edge4_Node000004_Node000005" class="edge">
<title>Node5&#45;&gt;Node4</title>
<g id="a_edge4_Node000004_Node000005"><a xlink:title=" ">
<path fill="none" stroke="#63b8ff" d="M554.26,-273.81C602.38,-254.89 659.32,-232.51 706.06,-214.14"/>
<polygon fill="none" stroke="#63b8ff" points="553.25,-270.44 545.22,-277.36 555.81,-276.96 553.25,-270.44"/>
</a>
</g>
</g>
<!-- Node6 -->
<g id="Node000006" class="node">
<title>Node6</title>
<g id="a_Node000006"><a xlink:title=" ">
<polygon fill="white" stroke="none" points="115,-557 75,-557 75,-505 115,-505 115,-557"/>
<text text-anchor="start" x="80" y="-543.5" font-family="Cascadia Code NF" font-size="10.00">const</text>
<text text-anchor="start" x="92" y="-527.5" font-family="Cascadia Code NF" font-size="10.00"> </text>
<text text-anchor="start" x="92" y="-511.5" font-family="Cascadia Code NF" font-size="10.00"> </text>
<polygon fill="#bfbfbf" stroke="#bfbfbf" points="75,-539 75,-539 115,-539 115,-539 75,-539"/>
<polygon fill="#bfbfbf" stroke="#bfbfbf" points="75,-523 75,-523 115,-523 115,-523 75,-523"/>
<polygon fill="none" stroke="#bfbfbf" points="75,-505 75,-557 115,-557 115,-505 75,-505"/>
</a>
</g>
</g>
<!-- Node6&#45;&gt;Node2 -->
<g id="edge12_Node000002_Node000006" class="edge">
<title>Node6&#45;&gt;Node2</title>
<g id="a_edge12_Node000002_Node000006"><a xlink:title=" ">
<path fill="none" stroke="#63b8ff" d="M114.67,-535.62C167.14,-548.17 320.54,-582 450,-582 450,-582 450,-582 1017,-582 1086.52,-582 1144.4,-524.11 1181.49,-474"/>
<polygon fill="none" stroke="#63b8ff" points="1181.55,-473.91 1181.81,-466.71 1188.56,-464.17 1188.3,-471.38 1181.55,-473.91"/>
</a>
</g>
<text text-anchor="middle" x="799" y="-636.25" font-family="Cascadia Code NF" font-size="10.00" fill="grey"> #kFastPathFallBackTiny</text>
<text text-anchor="middle" x="799" y="-623.5" font-family="Cascadia Code NF" font-size="10.00" fill="grey">#kFastPathFirstCategory</text>
<text text-anchor="middle" x="799" y="-610.75" font-family="Cascadia Code NF" font-size="10.00" fill="grey">#kFastPathOffset</text>
<text text-anchor="middle" x="799" y="-598" font-family="Cascadia Code NF" font-size="10.00" fill="grey">#kFastPathStart</text>
<text text-anchor="middle" x="799" y="-585.25" font-family="Cascadia Code NF" font-size="10.00" fill="grey">#kTinyObjectMaxSize</text>
</g>
<!-- Node6&#45;&gt;Node5 -->
<g id="edge5_Node000005_Node000006" class="edge">
<title>Node6&#45;&gt;Node5</title>
<g id="a_edge5_Node000005_Node000006"><a xlink:title=" ">
<path fill="none" stroke="#63b8ff" d="M114.53,-519.64C157.29,-493.43 265.42,-427.15 347.45,-376.86"/>
<polygon fill="none" stroke="#63b8ff" points="347.34,-376.93 350.36,-370.39 357.57,-370.66 354.54,-377.21 347.34,-376.93"/>
</a>
</g>
<text text-anchor="middle" x="274" y="-476" font-family="Cascadia Code NF" font-size="10.00" fill="grey"> #last_category_</text>
<text text-anchor="middle" x="274" y="-463.25" font-family="Cascadia Code NF" font-size="10.00" fill="grey">#number_of_categories_</text>
</g>
<!-- Node7 -->
<g id="Node000007" class="node">
<title>Node7</title>
<g id="a_Node000007"><a xlink:title=" ">
<polygon fill="white" stroke="none" points="118,-144 72,-144 72,-92 118,-92 118,-144"/>
<text text-anchor="start" x="77" y="-130.5" font-family="Cascadia Code NF" font-size="10.00">size_t</text>
<text text-anchor="start" x="92" y="-114.5" font-family="Cascadia Code NF" font-size="10.00"> </text>
<text text-anchor="start" x="92" y="-98.5" font-family="Cascadia Code NF" font-size="10.00"> </text>
<polygon fill="#bfbfbf" stroke="#bfbfbf" points="72,-126 72,-126 118,-126 118,-126 72,-126"/>
<polygon fill="#bfbfbf" stroke="#bfbfbf" points="72,-110 72,-110 118,-110 118,-110 72,-110"/>
<polygon fill="none" stroke="#bfbfbf" points="72,-92 72,-144 118,-144 118,-92 72,-92"/>
</a>
</g>
</g>
<!-- Node7&#45;&gt;Node4 -->
<g id="edge8_Node000004_Node000007" class="edge">
<title>Node7&#45;&gt;Node4</title>
<g id="a_edge8_Node000004_Node000007"><a xlink:title=" ">
<path fill="none" stroke="#63b8ff" d="M117.61,-113.91C182.59,-102.28 381.67,-71.42 544,-96.75 594.49,-104.63 648.66,-120.82 693.96,-136.69"/>
<polygon fill="none" stroke="#63b8ff" points="694.02,-136.71 701.02,-134.96 705.33,-140.74 698.34,-142.49 694.02,-136.71"/>
</a>
</g>
<text text-anchor="middle" x="451" y="-125.75" font-family="Cascadia Code NF" font-size="10.00" fill="grey"> #kMaxBlockSize</text>
<text text-anchor="middle" x="451" y="-113" font-family="Cascadia Code NF" font-size="10.00" fill="grey">#kMinBlockSize</text>
<text text-anchor="middle" x="451" y="-100.25" font-family="Cascadia Code NF" font-size="10.00" fill="grey">#kPreciseCategoryMaxSize</text>
</g>
<!-- Node7&#45;&gt;Node5 -->
<g id="edge6_Node000005_Node000007" class="edge">
<title>Node7&#45;&gt;Node5</title>
<g id="a_edge6_Node000005_Node000007"><a xlink:title=" ">
<path fill="none" stroke="#63b8ff" d="M117.88,-130.11C162.65,-154.9 267.25,-212.82 347.2,-257.08"/>
<polygon fill="none" stroke="#63b8ff" points="347.02,-256.98 354.21,-256.39 357.52,-262.8 350.33,-263.39 347.02,-256.98"/>
</a>
</g>
<text text-anchor="middle" x="274" y="-279.75" font-family="Cascadia Code NF" font-size="10.00" fill="grey"> #available_</text>
<text text-anchor="middle" x="274" y="-267" font-family="Cascadia Code NF" font-size="10.00" fill="grey">#min_block_size_</text>
<text text-anchor="middle" x="274" y="-254.25" font-family="Cascadia Code NF" font-size="10.00" fill="grey">#wasted_bytes_</text>
</g>
<!-- Node8 -->
<g id="Node000008" class="node">
<title>Node8</title>
<g id="a_Node000008"><a xlink:href="../../d3/d85/classv8_1_1internal_1_1FreeListCategory.html" target="_top" xlink:title=" ">
<polygon fill="white" stroke="none" points="190,-436 0,-436 0,-192 190,-192 190,-436"/>
<text text-anchor="start" x="5" y="-422.5" font-family="Cascadia Code NF" font-size="10.00">v8::internal::FreeListCategory</text>
<text text-anchor="start" x="92" y="-406.5" font-family="Cascadia Code NF" font-size="10.00"> </text>
<text text-anchor="start" x="11" y="-390.5" font-family="Cascadia Code NF" font-size="10.00">+</text>
<text text-anchor="start" x="28" y="-390.5" font-family="Cascadia Code NF" font-size="10.00">Initialize()</text>
<text text-anchor="start" x="11" y="-374.5" font-family="Cascadia Code NF" font-size="10.00">+</text>
<text text-anchor="start" x="28" y="-374.5" font-family="Cascadia Code NF" font-size="10.00">Reset()</text>
<text text-anchor="start" x="11" y="-358.5" font-family="Cascadia Code NF" font-size="10.00">+</text>
<text text-anchor="start" x="28" y="-358.5" font-family="Cascadia Code NF" font-size="10.00">RepairFreeList()</text>
<text text-anchor="start" x="11" y="-342.5" font-family="Cascadia Code NF" font-size="10.00">+</text>
<text text-anchor="start" x="28" y="-342.5" font-family="Cascadia Code NF" font-size="10.00">Relink()</text>
<text text-anchor="start" x="11" y="-326.5" font-family="Cascadia Code NF" font-size="10.00">+</text>
<text text-anchor="start" x="28" y="-326.5" font-family="Cascadia Code NF" font-size="10.00">Free()</text>
<text text-anchor="start" x="11" y="-310.5" font-family="Cascadia Code NF" font-size="10.00">+</text>
<text text-anchor="start" x="28" y="-310.5" font-family="Cascadia Code NF" font-size="10.00">PickNodeFromList()</text>
<text text-anchor="start" x="11" y="-294.5" font-family="Cascadia Code NF" font-size="10.00">+</text>
<text text-anchor="start" x="28" y="-294.5" font-family="Cascadia Code NF" font-size="10.00">SearchForNodeInList()</text>
<text text-anchor="start" x="11" y="-278.5" font-family="Cascadia Code NF" font-size="10.00">+</text>
<text text-anchor="start" x="28" y="-278.5" font-family="Cascadia Code NF" font-size="10.00">is_linked()</text>
<text text-anchor="start" x="11" y="-262.5" font-family="Cascadia Code NF" font-size="10.00">+</text>
<text text-anchor="start" x="28" y="-262.5" font-family="Cascadia Code NF" font-size="10.00">is_empty()</text>
<text text-anchor="start" x="11" y="-246.5" font-family="Cascadia Code NF" font-size="10.00">+</text>
<text text-anchor="start" x="28" y="-246.5" font-family="Cascadia Code NF" font-size="10.00">available()</text>
<text text-anchor="start" x="11" y="-230.5" font-family="Cascadia Code NF" font-size="10.00">+</text>
<text text-anchor="start" x="28" y="-230.5" font-family="Cascadia Code NF" font-size="10.00">SumFreeList()</text>
<text text-anchor="start" x="11" y="-214.5" font-family="Cascadia Code NF" font-size="10.00">+</text>
<text text-anchor="start" x="28" y="-214.5" font-family="Cascadia Code NF" font-size="10.00">FreeListLength()</text>
<text text-anchor="start" x="11" y="-198.5" font-family="Cascadia Code NF" font-size="10.00">+</text>
<text text-anchor="start" x="28" y="-198.5" font-family="Cascadia Code NF" font-size="10.00">IterateNodesForTesting()</text>
<polygon fill="#bfbfbf" stroke="#bfbfbf" points="0,-418 0,-418 190,-418 190,-418 0,-418"/>
<polygon fill="#bfbfbf" stroke="#bfbfbf" points="0,-402 0,-402 190,-402 190,-402 0,-402"/>
<polygon fill="none" stroke="#bfbfbf" points="0,-192 0,-436 190,-436 190,-192 0,-192"/>
</a>
</g>
</g>
<!-- Node8&#45;&gt;Node5 -->
<g id="edge7_Node000005_Node000008" class="edge">
<title>Node8&#45;&gt;Node5</title>
<g id="a_edge7_Node000005_Node000008"><a xlink:title=" ">
<path fill="none" stroke="#63b8ff" d="M189.94,-314C237.7,-314 295.89,-314 345.11,-314"/>
<polygon fill="none" stroke="#63b8ff" points="345.18,-314 351.18,-310 357.18,-314 351.18,-318 345.18,-314"/>
</a>
</g>
<text text-anchor="middle" x="274" y="-317.25" font-family="Cascadia Code NF" font-size="10.00" fill="grey"> #categories_</text>
</g>
<!-- Node9 -->
<g id="Node000009" class="node">
<title>Node9</title>
<g id="a_Node000009"><a xlink:href="../../d1/da0/classint.html" target="_top" xlink:title=" ">
<polygon fill="white" stroke="none" points="465,-52 437,-52 437,0 465,0 465,-52"/>
<text text-anchor="start" x="442" y="-38.5" font-family="Cascadia Code NF" font-size="10.00">int</text>
<text text-anchor="start" x="448" y="-22.5" font-family="Cascadia Code NF" font-size="10.00"> </text>
<text text-anchor="start" x="448" y="-6.5" font-family="Cascadia Code NF" font-size="10.00"> </text>
<polygon fill="#bfbfbf" stroke="#bfbfbf" points="437,-34 437,-34 465,-34 465,-34 437,-34"/>
<polygon fill="#bfbfbf" stroke="#bfbfbf" points="437,-18 437,-18 465,-18 465,-18 437,-18"/>
<polygon fill="none" stroke="#bfbfbf" points="437,0 437,-52 465,-52 465,0 437,0"/>
</a>
</g>
</g>
<!-- Node9&#45;&gt;Node3 -->
<g id="edge11_Node000003_Node000009" class="edge">
<title>Node9&#45;&gt;Node3</title>
<g id="a_edge11_Node000003_Node000009"><a xlink:title=" ">
<path fill="none" stroke="#63b8ff" d="M464.63,-24.96C518.87,-21.04 736.29,-10.74 892,-82.25 900.91,-86.34 909.75,-91.19 918.38,-96.5"/>
<polygon fill="none" stroke="#63b8ff" points="918.33,-96.47 925.54,-96.35 928.42,-102.96 921.21,-103.08 918.33,-96.47"/>
</a>
</g>
<text text-anchor="middle" x="799" y="-86.25" font-family="Cascadia Code NF" font-size="10.00" fill="grey"> #next_nonempty_category</text>
</g>
<!-- Node9&#45;&gt;Node4 -->
<g id="edge9_Node000004_Node000009" class="edge">
<title>Node9&#45;&gt;Node4</title>
<g id="a_edge9_Node000004_Node000009"><a xlink:title=" ">
<path fill="none" stroke="#63b8ff" d="M464.73,-27.41C510.92,-32.58 667.99,-50.79 688,-61.25 704.44,-69.85 719.78,-81.88 733.47,-94.97"/>
<polygon fill="none" stroke="#63b8ff" points="733.55,-95.05 740.62,-96.47 742.04,-103.54 734.97,-102.12 733.55,-95.05"/>
</a>
</g>
<text text-anchor="middle" x="625" y="-65.25" font-family="Cascadia Code NF" font-size="10.00" fill="grey"> #kNumberOfCategories</text>
</g>
<!-- Node10 -->
<g id="Node000010" class="node">
<title>Node10</title>
<g id="a_Node000010"><a xlink:title=" ">
<polygon fill="white" stroke="none" points="480,-554 422,-554 422,-502 480,-502 480,-554"/>
<text text-anchor="start" x="427" y="-540.5" font-family="Cascadia Code NF" font-size="10.00">unsigned</text>
<text text-anchor="start" x="448" y="-524.5" font-family="Cascadia Code NF" font-size="10.00"> </text>
<text text-anchor="start" x="448" y="-508.5" font-family="Cascadia Code NF" font-size="10.00"> </text>
<polygon fill="#bfbfbf" stroke="#bfbfbf" points="422,-536 422,-536 480,-536 480,-536 422,-536"/>
<polygon fill="#bfbfbf" stroke="#bfbfbf" points="422,-520 422,-520 480,-520 480,-520 422,-520"/>
<polygon fill="none" stroke="#bfbfbf" points="422,-502 422,-554 480,-554 480,-502 422,-502"/>
</a>
</g>
</g>
<!-- Node10&#45;&gt;Node4 -->
<g id="edge10_Node000004_Node000010" class="edge">
<title>Node10&#45;&gt;Node4</title>
<g id="a_edge10_Node000004_Node000010"><a xlink:title=" ">
<path fill="none" stroke="#63b8ff" d="M479.62,-521.61C498.94,-516.2 524.64,-507.05 544,-493 629.71,-430.79 702.56,-332.6 747.97,-262.39"/>
<polygon fill="none" stroke="#63b8ff" points="747.79,-262.67 747.66,-255.46 754.26,-252.57 754.4,-259.78 747.79,-262.67"/>
</a>
</g>
<text text-anchor="middle" x="625" y="-475.25" font-family="Cascadia Code NF" font-size="10.00" fill="grey"> #categories_min</text>
</g>
</g>
</svg>

<g id="navigator" transform="translate(0 0)" fill="#404254">
  <rect fill="#f2f5e9" fill-opacity="0.5" stroke="#606060" stroke-width=".5" x="0" y="0" width="60" height="60"/>
  <use id="zoomplus" xlink:href="#zoomPlus" x="17" y="9" onmousedown="handleZoom(evt,'in')"/>
  <use id="zoomminus" xlink:href="#zoomMin" x="42" y="9" onmousedown="handleZoom(evt,'out')"/>
  <use id="reset" xlink:href="#resetDef" x="30" y="36" onmousedown="handleReset()"/>
   <use id="arrowup" xlink:href="#arrowUp" x="0" y="0" onmousedown="handlePan(0,-1)"/>
  <use id="arrowright" xlink:href="#arrowRight" x="0" y="0" onmousedown="handlePan(1,0)"/>
  <use id="arrowdown" xlink:href="#arrowDown" x="0" y="0" onmousedown="handlePan(0,1)"/>
  <use id="arrowleft" xlink:href="#arrowLeft" x="0" y="0" onmousedown="handlePan(-1,0)"/>
</g>
<svg viewBox="0 0 15 15" width="100%" height="30px" preserveAspectRatio="xMaxYMin meet">
 <g id="arrow_out" transform="scale(0.3 0.3)">
  <a xlink:href="classv8_1_1internal_1_1FreeListManyCachedFastPathForNewSpace__coll__graph_org.svg" target="_base">
   <rect id="button" ry="5" rx="5" y="6" x="6" height="38" width="38"
        fill="#f2f5e9" fill-opacity="0.5" stroke="#606060" stroke-width="1.0"/>
   <path id="arrow"
     d="M 11.500037,31.436501 C 11.940474,20.09759 22.043105,11.32322 32.158766,21.979434 L 37.068811,17.246167 C 37.068811,17.246167 37.088388,32 37.088388,32 L 22.160133,31.978069 C 22.160133,31.978069 26.997745,27.140456 26.997745,27.140456 C 18.528582,18.264221 13.291696,25.230495 11.500037,31.436501 z"
     style="fill:#404040;"/>
  </a>
 </g>
</svg>

<style type='text/css'>
<![CDATA[
[data-mouse-over-selected='false'] { opacity: 0.7; }
[data-mouse-over-selected='true']  { opacity: 1.0; }
]]>
</style>
<script type="application/ecmascript"><![CDATA[
document.addEventListener('DOMContentLoaded', (event) => {
  highlightEdges();
  highlightAdjacentNodes();
});
]]></script>
</svg>
