<?xml version="1.0" encoding="UTF-8" standalone="no"?>
<!DOCTYPE svg PUBLIC "-//W3C//DTD SVG 1.1//EN"
 "http://www.w3.org/Graphics/SVG/1.1/DTD/svg11.dtd">
<!-- Generated by graphviz version 11.0.0 (20240428.1522)
 -->
<!-- Title: v8::internal::StoreDescriptor Pages: 1 -->
<svg width="886pt" height="630pt"
 viewBox="0.00 0.00 886.00 630.00" xmlns="http://www.w3.org/2000/svg" xmlns:xlink="http://www.w3.org/1999/xlink">
<g id="graph0" class="graph" transform="scale(1 1) rotate(0) translate(4 626)">
<title>v8::internal::StoreDescriptor</title>
<!-- Node1 -->
<g id="Node000001" class="node">
<title>Node1</title>
<g id="a_Node000001"><a xlink:title=" ">
<polygon fill="#999999" stroke="none" points="878,-204 694,-204 694,-88 878,-88 878,-204"/>
<text text-anchor="start" x="699" y="-190.5" font-family="Cascadia Code NF" font-size="10.00">v8::internal::StoreDescriptor</text>
<text text-anchor="start" x="783" y="-174.5" font-family="Cascadia Code NF" font-size="10.00"> </text>
<text text-anchor="start" x="703.5" y="-158.5" font-family="Cascadia Code NF" font-size="10.00">+</text>
<text text-anchor="start" x="719" y="-158.5" font-family="Cascadia Code NF" font-size="10.00">DEFINE_PARAMETER_TYPES()</text>
<text text-anchor="start" x="703.5" y="-142.5" font-family="Cascadia Code NF" font-size="10.00">+</text>
<text text-anchor="start" x="719" y="-142.5" font-family="Cascadia Code NF" font-size="10.00">NameRegister()</text>
<text text-anchor="start" x="703.5" y="-126.5" font-family="Cascadia Code NF" font-size="10.00">+</text>
<text text-anchor="start" x="719" y="-126.5" font-family="Cascadia Code NF" font-size="10.00">ValueRegister()</text>
<text text-anchor="start" x="703.5" y="-110.5" font-family="Cascadia Code NF" font-size="10.00">+</text>
<text text-anchor="start" x="719" y="-110.5" font-family="Cascadia Code NF" font-size="10.00">SlotRegister()</text>
<text text-anchor="start" x="703.5" y="-94.5" font-family="Cascadia Code NF" font-size="10.00">+</text>
<text text-anchor="start" x="719" y="-94.5" font-family="Cascadia Code NF" font-size="10.00">registers()</text>
<polygon fill="#666666" stroke="#666666" points="694,-186 694,-186 878,-186 878,-186 694,-186"/>
<polygon fill="#666666" stroke="#666666" points="694,-170 694,-170 878,-170 878,-170 694,-170"/>
<polygon fill="none" stroke="#666666" points="694,-88 694,-204 878,-204 878,-88 694,-88"/>
</a>
</g>
</g>
<!-- Node2 -->
<g id="Node000002" class="node">
<title>Node2</title>
<g id="a_Node000002"><a xlink:href="$d8/d7b/classv8_1_1internal_1_1StaticCallInterfaceDescriptor.html" xlink:title=" ">
<polygon fill="white" stroke="none" points="658,-266.5 420,-266.5 420,-25.5 658,-25.5 658,-266.5"/>
<text text-anchor="start" x="425" y="-253" font-family="Cascadia Code NF" font-size="10.00">v8::internal::StaticCall</text>
<text text-anchor="start" x="425" y="-240.25" font-family="Cascadia Code NF" font-size="10.00">InterfaceDescriptor&lt; StoreDescriptor &gt;</text>
<text text-anchor="start" x="536" y="-224" font-family="Cascadia Code NF" font-size="10.00"> </text>
<text text-anchor="start" x="432.5" y="-208" font-family="Cascadia Code NF" font-size="10.00">+</text>
<text text-anchor="start" x="451" y="-208" font-family="Cascadia Code NF" font-size="10.00">StaticCallInterfaceDescriptor()</text>
<text text-anchor="start" x="432.5" y="-192" font-family="Cascadia Code NF" font-size="10.00">+</text>
<text text-anchor="start" x="451" y="-192" font-family="Cascadia Code NF" font-size="10.00">registers()</text>
<text text-anchor="start" x="432.5" y="-176" font-family="Cascadia Code NF" font-size="10.00">+</text>
<text text-anchor="start" x="451" y="-176" font-family="Cascadia Code NF" font-size="10.00">double_registers()</text>
<text text-anchor="start" x="432.5" y="-160" font-family="Cascadia Code NF" font-size="10.00">+</text>
<text text-anchor="start" x="451" y="-160" font-family="Cascadia Code NF" font-size="10.00">return_registers()</text>
<text text-anchor="start" x="432.5" y="-144" font-family="Cascadia Code NF" font-size="10.00">+</text>
<text text-anchor="start" x="451" y="-144" font-family="Cascadia Code NF" font-size="10.00">return_double_registers()</text>
<text text-anchor="start" x="432.5" y="-128" font-family="Cascadia Code NF" font-size="10.00">+</text>
<text text-anchor="start" x="451" y="-128" font-family="Cascadia Code NF" font-size="10.00">flags()</text>
<text text-anchor="start" x="432.5" y="-112" font-family="Cascadia Code NF" font-size="10.00">+</text>
<text text-anchor="start" x="451" y="-112" font-family="Cascadia Code NF" font-size="10.00">AllowVarArgs()</text>
<text text-anchor="start" x="432.5" y="-96" font-family="Cascadia Code NF" font-size="10.00">+</text>
<text text-anchor="start" x="451" y="-96" font-family="Cascadia Code NF" font-size="10.00">HasContextParameter()</text>
<text text-anchor="start" x="432.5" y="-80" font-family="Cascadia Code NF" font-size="10.00">+</text>
<text text-anchor="start" x="451" y="-80" font-family="Cascadia Code NF" font-size="10.00">GetReturnCount()</text>
<text text-anchor="start" x="432.5" y="-64" font-family="Cascadia Code NF" font-size="10.00">+</text>
<text text-anchor="start" x="451" y="-64" font-family="Cascadia Code NF" font-size="10.00">GetParameterCount()</text>
<text text-anchor="start" x="432.5" y="-48" font-family="Cascadia Code NF" font-size="10.00">+</text>
<text text-anchor="start" x="451" y="-48" font-family="Cascadia Code NF" font-size="10.00">GetRegisterParameterCount()</text>
<text text-anchor="start" x="451" y="-32" font-family="Cascadia Code NF" font-size="10.00">and 6 more...</text>
<polygon fill="#bfbfbf" stroke="#bfbfbf" points="420,-235.5 420,-235.5 658,-235.5 658,-235.5 420,-235.5"/>
<polygon fill="#bfbfbf" stroke="#bfbfbf" points="420,-219.5 420,-219.5 658,-219.5 658,-219.5 420,-219.5"/>
<polygon fill="none" stroke="#bfbfbf" points="420,-25.5 420,-266.5 658,-266.5 658,-25.5 420,-25.5"/>
</a>
</g>
</g>
<!-- Node2&#45;&gt;Node1 -->
<g id="edge1_Node000001_Node000002" class="edge">
<title>Node2&#45;&gt;Node1</title>
<g id="a_edge1_Node000001_Node000002"><a xlink:title=" ">
<path fill="none" stroke="#63b8ff" d="M669.33,-146C677.75,-146 686.13,-146 694.31,-146"/>
<polygon fill="none" stroke="#63b8ff" points="669.35,-142.5 659.35,-146 669.35,-149.5 669.35,-142.5"/>
</a>
</g>
</g>
<!-- Node3 -->
<g id="Node000003" class="node">
<title>Node3</title>
<g id="a_Node000003"><a xlink:href="$d5/d76/classv8_1_1internal_1_1CallInterfaceDescriptor.html" xlink:title=" ">
<polygon fill="white" stroke="none" points="204,-622 0,-622 0,-240 204,-240 204,-622"/>
<text text-anchor="start" x="21" y="-608.5" font-family="Cascadia Code NF" font-size="10.00">v8::internal::CallInterface</text>
<text text-anchor="start" x="72" y="-595.75" font-family="Cascadia Code NF" font-size="10.00">Descriptor</text>
<text text-anchor="start" x="99" y="-579.5" font-family="Cascadia Code NF" font-size="10.00"> </text>
<text text-anchor="start" x="4" y="-563.5" font-family="Cascadia Code NF" font-size="10.00">+</text>
<text text-anchor="start" x="14" y="-563.5" font-family="Cascadia Code NF" font-size="10.00">CallInterfaceDescriptor()</text>
<text text-anchor="start" x="4" y="-547.5" font-family="Cascadia Code NF" font-size="10.00">+</text>
<text text-anchor="start" x="14" y="-547.5" font-family="Cascadia Code NF" font-size="10.00">~CallInterfaceDescriptor()</text>
<text text-anchor="start" x="4" y="-531.5" font-family="Cascadia Code NF" font-size="10.00">+</text>
<text text-anchor="start" x="14" y="-531.5" font-family="Cascadia Code NF" font-size="10.00">CallInterfaceDescriptor()</text>
<text text-anchor="start" x="4" y="-515.5" font-family="Cascadia Code NF" font-size="10.00">+</text>
<text text-anchor="start" x="14" y="-515.5" font-family="Cascadia Code NF" font-size="10.00">flags()</text>
<text text-anchor="start" x="4" y="-499.5" font-family="Cascadia Code NF" font-size="10.00">+</text>
<text text-anchor="start" x="14" y="-499.5" font-family="Cascadia Code NF" font-size="10.00">tag()</text>
<text text-anchor="start" x="4" y="-483.5" font-family="Cascadia Code NF" font-size="10.00">+</text>
<text text-anchor="start" x="14" y="-483.5" font-family="Cascadia Code NF" font-size="10.00">HasContextParameter()</text>
<text text-anchor="start" x="4" y="-467.5" font-family="Cascadia Code NF" font-size="10.00">+</text>
<text text-anchor="start" x="14" y="-467.5" font-family="Cascadia Code NF" font-size="10.00">AllowVarArgs()</text>
<text text-anchor="start" x="4" y="-451.5" font-family="Cascadia Code NF" font-size="10.00">+</text>
<text text-anchor="start" x="14" y="-451.5" font-family="Cascadia Code NF" font-size="10.00">CalleeSaveRegisters()</text>
<text text-anchor="start" x="4" y="-435.5" font-family="Cascadia Code NF" font-size="10.00">+</text>
<text text-anchor="start" x="14" y="-435.5" font-family="Cascadia Code NF" font-size="10.00">GetReturnCount()</text>
<text text-anchor="start" x="4" y="-419.5" font-family="Cascadia Code NF" font-size="10.00">+</text>
<text text-anchor="start" x="14" y="-419.5" font-family="Cascadia Code NF" font-size="10.00">GetReturnType()</text>
<text text-anchor="start" x="14" y="-403.5" font-family="Cascadia Code NF" font-size="10.00">and 12 more...</text>
<text text-anchor="start" x="4" y="-387.5" font-family="Cascadia Code NF" font-size="10.00">+</text>
<text text-anchor="start" x="14" y="-387.5" font-family="Cascadia Code NF" font-size="10.00">ContextRegister()</text>
<text text-anchor="start" x="4" y="-371.5" font-family="Cascadia Code NF" font-size="10.00">#</text>
<text text-anchor="start" x="14" y="-371.5" font-family="Cascadia Code NF" font-size="10.00">data()</text>
<text text-anchor="start" x="4" y="-355.5" font-family="Cascadia Code NF" font-size="10.00">#</text>
<text text-anchor="start" x="14" y="-355.5" font-family="Cascadia Code NF" font-size="10.00">CheckFloatingPointParameters()</text>
<text text-anchor="start" x="4" y="-339.5" font-family="Cascadia Code NF" font-size="10.00">#</text>
<text text-anchor="start" x="14" y="-339.5" font-family="Cascadia Code NF" font-size="10.00">IsValidFloatParameterRegister()</text>
<text text-anchor="start" x="4" y="-323.5" font-family="Cascadia Code NF" font-size="10.00">#</text>
<text text-anchor="start" x="14" y="-323.5" font-family="Cascadia Code NF" font-size="10.00">DefaultRegisterArray()</text>
<text text-anchor="start" x="4" y="-307.5" font-family="Cascadia Code NF" font-size="10.00">#</text>
<text text-anchor="start" x="14" y="-307.5" font-family="Cascadia Code NF" font-size="10.00">DefaultDoubleRegisterArray()</text>
<text text-anchor="start" x="4" y="-291.5" font-family="Cascadia Code NF" font-size="10.00">#</text>
<text text-anchor="start" x="14" y="-291.5" font-family="Cascadia Code NF" font-size="10.00">DefaultReturnRegisterArray()</text>
<text text-anchor="start" x="4" y="-275.5" font-family="Cascadia Code NF" font-size="10.00">#</text>
<text text-anchor="start" x="14" y="-275.5" font-family="Cascadia Code NF" font-size="10.00">DefaultReturnDoubleRegister</text>
<text text-anchor="start" x="14" y="-262.75" font-family="Cascadia Code NF" font-size="10.00">Array()</text>
<text text-anchor="start" x="4" y="-246.5" font-family="Cascadia Code NF" font-size="10.00">#</text>
<text text-anchor="start" x="14" y="-246.5" font-family="Cascadia Code NF" font-size="10.00">DefaultJSRegisterArray()</text>
<polygon fill="#bfbfbf" stroke="#bfbfbf" points="0,-591 0,-591 204,-591 204,-591 0,-591"/>
<polygon fill="#bfbfbf" stroke="#bfbfbf" points="0,-575 0,-575 204,-575 204,-575 0,-575"/>
<polygon fill="none" stroke="#bfbfbf" points="0,-240 0,-622 204,-622 204,-240 0,-240"/>
</a>
</g>
</g>
<!-- Node3&#45;&gt;Node2 -->
<g id="edge2_Node000002_Node000003" class="edge">
<title>Node3&#45;&gt;Node2</title>
<g id="a_edge2_Node000002_Node000003"><a xlink:title=" ">
<path fill="none" stroke="#63b8ff" d="M213.49,-358.61C276.7,-317.2 355.95,-265.27 420.32,-223.1"/>
<polygon fill="none" stroke="#63b8ff" points="211.6,-355.66 205.16,-364.07 215.44,-361.52 211.6,-355.66"/>
</a>
</g>
</g>
<!-- Node4 -->
<g id="Node000004" class="node">
<title>Node4</title>
<g id="a_Node000004"><a xlink:href="$d1/da0/classint.html" xlink:title=" ">
<polygon fill="white" stroke="none" points="116,-222 88,-222 88,-170 116,-170 116,-222"/>
<text text-anchor="start" x="93" y="-208.5" font-family="Cascadia Code NF" font-size="10.00">int</text>
<text text-anchor="start" x="99" y="-192.5" font-family="Cascadia Code NF" font-size="10.00"> </text>
<text text-anchor="start" x="99" y="-176.5" font-family="Cascadia Code NF" font-size="10.00"> </text>
<polygon fill="#bfbfbf" stroke="#bfbfbf" points="88,-204 88,-204 116,-204 116,-204 88,-204"/>
<polygon fill="#bfbfbf" stroke="#bfbfbf" points="88,-188 88,-188 116,-188 116,-188 88,-188"/>
<polygon fill="none" stroke="#bfbfbf" points="88,-170 88,-222 116,-222 116,-170 88,-170"/>
</a>
</g>
</g>
<!-- Node4&#45;&gt;Node2 -->
<g id="edge3_Node000002_Node000004" class="edge">
<title>Node4&#45;&gt;Node2</title>
<g id="a_edge3_Node000002_Node000004"><a xlink:title=" ">
<path fill="none" stroke="#63b8ff" d="M115.89,-195.65C157.49,-194.39 291.93,-189.31 402,-174 403.77,-173.75 405.56,-173.5 407.35,-173.23"/>
<polygon fill="none" stroke="#63b8ff" points="407.47,-173.21 412.78,-168.34 419.33,-171.36 414.02,-176.24 407.47,-173.21"/>
</a>
</g>
<text text-anchor="middle" x="312" y="-218.75" font-family="Cascadia Code NF" font-size="10.00" fill="grey"> +kMaxRegisterParams</text>
<text text-anchor="middle" x="312" y="-206" font-family="Cascadia Code NF" font-size="10.00" fill="grey">+kParameterCount</text>
<text text-anchor="middle" x="312" y="-193.25" font-family="Cascadia Code NF" font-size="10.00" fill="grey">+kReturnCount</text>
</g>
<!-- Node5 -->
<g id="Node000005" class="node">
<title>Node5</title>
<g id="a_Node000005"><a xlink:title=" ">
<polygon fill="white" stroke="none" points="119,-122 85,-122 85,-70 119,-70 119,-122"/>
<text text-anchor="start" x="90" y="-108.5" font-family="Cascadia Code NF" font-size="10.00">bool</text>
<text text-anchor="start" x="99" y="-92.5" font-family="Cascadia Code NF" font-size="10.00"> </text>
<text text-anchor="start" x="99" y="-76.5" font-family="Cascadia Code NF" font-size="10.00"> </text>
<polygon fill="#bfbfbf" stroke="#bfbfbf" points="85,-104 85,-104 119,-104 119,-104 85,-104"/>
<polygon fill="#bfbfbf" stroke="#bfbfbf" points="85,-88 85,-88 119,-88 119,-88 85,-88"/>
<polygon fill="none" stroke="#bfbfbf" points="85,-70 85,-122 119,-122 119,-70 85,-70"/>
</a>
</g>
</g>
<!-- Node5&#45;&gt;Node2 -->
<g id="edge4_Node000002_Node000005" class="edge">
<title>Node5&#45;&gt;Node2</title>
<g id="a_edge4_Node000002_Node000005"><a xlink:title=" ">
<path fill="none" stroke="#63b8ff" d="M118.75,-93.77C163.55,-87.87 295.34,-73.63 402,-93.5 403.87,-93.85 405.74,-94.22 407.62,-94.62"/>
<polygon fill="none" stroke="#63b8ff" points="407.51,-94.59 414.27,-92.07 419.2,-97.33 412.44,-99.86 407.51,-94.59"/>
</a>
</g>
<text text-anchor="middle" x="312" y="-160" font-family="Cascadia Code NF" font-size="10.00" fill="grey"> +kAllowVarArgs</text>
<text text-anchor="middle" x="312" y="-147.25" font-family="Cascadia Code NF" font-size="10.00" fill="grey">+kCalleeSaveRegisters</text>
<text text-anchor="middle" x="312" y="-134.5" font-family="Cascadia Code NF" font-size="10.00" fill="grey">+kCustomMachineTypes</text>
<text text-anchor="middle" x="312" y="-121.75" font-family="Cascadia Code NF" font-size="10.00" fill="grey">+kNoContext</text>
<text text-anchor="middle" x="312" y="-109" font-family="Cascadia Code NF" font-size="10.00" fill="grey">+kNoStackScan</text>
<text text-anchor="middle" x="312" y="-96.25" font-family="Cascadia Code NF" font-size="10.00" fill="grey">+kRestrictAllocatableRegisters</text>
</g>
<!-- Node6 -->
<g id="Node000006" class="node">
<title>Node6</title>
<g id="a_Node000006"><a xlink:title=" ">
<polygon fill="white" stroke="none" points="170,-52 34,-52 34,0 170,0 170,-52"/>
<text text-anchor="start" x="39" y="-38.5" font-family="Cascadia Code NF" font-size="10.00">static constexpr auto</text>
<text text-anchor="start" x="99" y="-22.5" font-family="Cascadia Code NF" font-size="10.00"> </text>
<text text-anchor="start" x="99" y="-6.5" font-family="Cascadia Code NF" font-size="10.00"> </text>
<polygon fill="#bfbfbf" stroke="#bfbfbf" points="34,-34 34,-34 170,-34 170,-34 34,-34"/>
<polygon fill="#bfbfbf" stroke="#bfbfbf" points="34,-18 34,-18 170,-18 170,-18 34,-18"/>
<polygon fill="none" stroke="#bfbfbf" points="34,0 34,-52 170,-52 170,0 34,0"/>
</a>
</g>
</g>
<!-- Node6&#45;&gt;Node2 -->
<g id="edge5_Node000002_Node000006" class="edge">
<title>Node6&#45;&gt;Node2</title>
<g id="a_edge5_Node000002_Node000006"><a xlink:title=" ">
<path fill="none" stroke="#63b8ff" d="M169.76,-27.48C231.53,-30.58 325.13,-39.74 402,-66.25 404.09,-66.97 406.18,-67.73 408.28,-68.51"/>
<polygon fill="none" stroke="#63b8ff" points="408.3,-68.52 415.36,-67.05 419.44,-73 412.38,-74.47 408.3,-68.52"/>
</a>
</g>
<text text-anchor="middle" x="312" y="-69.25" font-family="Cascadia Code NF" font-size="10.00" fill="grey"> +kStackArgumentOrder</text>
</g>
</g>
</svg>
