<?xml version="1.0" encoding="UTF-8" standalone="no"?>
<!DOCTYPE svg PUBLIC "-//W3C//DTD SVG 1.1//EN"
 "http://www.w3.org/Graphics/SVG/1.1/DTD/svg11.dtd">
<!-- Generated by graphviz version 11.0.0 (20240428.1522)
 -->
<!-- Title: v8::internal::BuiltinContinuationFrameConstants Pages: 1 -->
<svg width="1143pt" height="328pt"
 viewBox="0.00 0.00 1143.00 328.00" xmlns="http://www.w3.org/2000/svg" xmlns:xlink="http://www.w3.org/1999/xlink">
<g id="graph0" class="graph" transform="scale(1 1) rotate(0) translate(4 324)">
<title>v8::internal::BuiltinContinuationFrameConstants</title>
<!-- Node1 -->
<g id="Node000001" class="node">
<title>Node1</title>
<g id="a_Node000001"><a xlink:title=" ">
<polygon fill="#999999" stroke="none" points="1135,-94 927,-94 927,0 1135,0 1135,-94"/>
<text text-anchor="start" x="932" y="-80.5" font-family="Cascadia Code NF" font-size="10.00">v8::internal::BuiltinContinuation</text>
<text text-anchor="start" x="989" y="-67.75" font-family="Cascadia Code NF" font-size="10.00">FrameConstants</text>
<text text-anchor="start" x="1028" y="-51.5" font-family="Cascadia Code NF" font-size="10.00"> </text>
<text text-anchor="start" x="951.5" y="-35.5" font-family="Cascadia Code NF" font-size="10.00">+</text>
<text text-anchor="start" x="982" y="-35.5" font-family="Cascadia Code NF" font-size="10.00">DEFINE_TYPED_FRAME</text>
<text text-anchor="start" x="982" y="-22.75" font-family="Cascadia Code NF" font-size="10.00">_SIZES()</text>
<text text-anchor="start" x="951.5" y="-6.5" font-family="Cascadia Code NF" font-size="10.00">+</text>
<text text-anchor="start" x="982" y="-6.5" font-family="Cascadia Code NF" font-size="10.00">PaddingSlotCount()</text>
<polygon fill="#666666" stroke="#666666" points="927,-63 927,-63 1135,-63 1135,-63 927,-63"/>
<polygon fill="#666666" stroke="#666666" points="927,-47 927,-47 1135,-47 1135,-47 927,-47"/>
<polygon fill="none" stroke="#666666" points="927,0 927,-94 1135,-94 1135,0 927,0"/>
</a>
</g>
</g>
<!-- Node2 -->
<g id="Node000002" class="node">
<title>Node2</title>
<g id="a_Node000002"><a xlink:href="$d1/dfd/classv8_1_1internal_1_1TypedFrameConstants.html" xlink:title=" ">
<polygon fill="white" stroke="none" points="890,-130.5 736,-130.5 736,-65.5 890,-65.5 890,-130.5"/>
<text text-anchor="start" x="741" y="-117" font-family="Cascadia Code NF" font-size="10.00">v8::internal::TypedFrame</text>
<text text-anchor="start" x="786" y="-104.25" font-family="Cascadia Code NF" font-size="10.00">Constants</text>
<text text-anchor="start" x="810" y="-88" font-family="Cascadia Code NF" font-size="10.00"> </text>
<text text-anchor="start" x="810" y="-72" font-family="Cascadia Code NF" font-size="10.00"> </text>
<polygon fill="#bfbfbf" stroke="#bfbfbf" points="736,-99.5 736,-99.5 890,-99.5 890,-99.5 736,-99.5"/>
<polygon fill="#bfbfbf" stroke="#bfbfbf" points="736,-83.5 736,-83.5 890,-83.5 890,-83.5 736,-83.5"/>
<polygon fill="none" stroke="#bfbfbf" points="736,-65.5 736,-130.5 890,-130.5 890,-65.5 736,-65.5"/>
</a>
</g>
</g>
<!-- Node2&#45;&gt;Node1 -->
<g id="edge1_Node000001_Node000002" class="edge">
<title>Node2&#45;&gt;Node1</title>
<g id="a_edge1_Node000001_Node000002"><a xlink:title=" ">
<path fill="none" stroke="#63b8ff" d="M900.99,-77.46C909.57,-75.44 918.32,-73.37 927.03,-71.31"/>
<polygon fill="none" stroke="#63b8ff" points="900.25,-74.04 891.32,-79.74 901.86,-80.85 900.25,-74.04"/>
</a>
</g>
</g>
<!-- Node3 -->
<g id="Node000003" class="node">
<title>Node3</title>
<g id="a_Node000003"><a xlink:href="$dd/db5/classv8_1_1internal_1_1CommonFrameConstants.html" xlink:title=" ">
<polygon fill="white" stroke="none" points="510,-270.5 350,-270.5 350,-205.5 510,-205.5 510,-270.5"/>
<text text-anchor="start" x="355" y="-257" font-family="Cascadia Code NF" font-size="10.00">v8::internal::CommonFrame</text>
<text text-anchor="start" x="403" y="-244.25" font-family="Cascadia Code NF" font-size="10.00">Constants</text>
<text text-anchor="start" x="427" y="-228" font-family="Cascadia Code NF" font-size="10.00"> </text>
<text text-anchor="start" x="427" y="-212" font-family="Cascadia Code NF" font-size="10.00"> </text>
<polygon fill="#bfbfbf" stroke="#bfbfbf" points="350,-239.5 350,-239.5 510,-239.5 510,-239.5 350,-239.5"/>
<polygon fill="#bfbfbf" stroke="#bfbfbf" points="350,-223.5 350,-223.5 510,-223.5 510,-223.5 350,-223.5"/>
<polygon fill="none" stroke="#bfbfbf" points="350,-205.5 350,-270.5 510,-270.5 510,-205.5 350,-205.5"/>
</a>
</g>
</g>
<!-- Node3&#45;&gt;Node2 -->
<g id="edge2_Node000002_Node000003" class="edge">
<title>Node3&#45;&gt;Node2</title>
<g id="a_edge2_Node000002_Node000003"><a xlink:title=" ">
<path fill="none" stroke="#63b8ff" d="M520.67,-205.05C586.18,-180.98 674.03,-148.7 736.08,-125.9"/>
<polygon fill="none" stroke="#63b8ff" points="519.54,-201.74 511.36,-208.47 521.96,-208.31 519.54,-201.74"/>
</a>
</g>
</g>
<!-- Node4 -->
<g id="Node000004" class="node">
<title>Node4</title>
<g id="a_Node000004"><a xlink:href="$dd/da7/classv8_1_1internal_1_1AllStatic.html" xlink:title=" ">
<polygon fill="white" stroke="none" points="148,-320 0,-320 0,-268 148,-268 148,-320"/>
<text text-anchor="start" x="5" y="-306.5" font-family="Cascadia Code NF" font-size="10.00">v8::internal::AllStatic</text>
<text text-anchor="start" x="71" y="-290.5" font-family="Cascadia Code NF" font-size="10.00"> </text>
<text text-anchor="start" x="71" y="-274.5" font-family="Cascadia Code NF" font-size="10.00"> </text>
<polygon fill="#bfbfbf" stroke="#bfbfbf" points="0,-302 0,-302 148,-302 148,-302 0,-302"/>
<polygon fill="#bfbfbf" stroke="#bfbfbf" points="0,-286 0,-286 148,-286 148,-286 0,-286"/>
<polygon fill="none" stroke="#bfbfbf" points="0,-268 0,-320 148,-320 148,-268 0,-268"/>
</a>
</g>
</g>
<!-- Node4&#45;&gt;Node3 -->
<g id="edge3_Node000003_Node000004" class="edge">
<title>Node4&#45;&gt;Node3</title>
<g id="a_edge3_Node000003_Node000004"><a xlink:title=" ">
<path fill="none" stroke="#63b8ff" d="M159.04,-291.08C207.13,-288.27 268.37,-282.77 322,-272 331.17,-270.16 340.67,-267.81 350.04,-265.21"/>
<polygon fill="none" stroke="#63b8ff" points="159.04,-287.57 149.25,-291.62 159.43,-294.56 159.04,-287.57"/>
</a>
</g>
</g>
<!-- Node5 -->
<g id="Node000005" class="node">
<title>Node5</title>
<g id="a_Node000005"><a xlink:href="$d1/da0/classint.html" xlink:title=" ">
<polygon fill="white" stroke="none" points="88,-124 60,-124 60,-72 88,-72 88,-124"/>
<text text-anchor="start" x="65" y="-110.5" font-family="Cascadia Code NF" font-size="10.00">int</text>
<text text-anchor="start" x="71" y="-94.5" font-family="Cascadia Code NF" font-size="10.00"> </text>
<text text-anchor="start" x="71" y="-78.5" font-family="Cascadia Code NF" font-size="10.00"> </text>
<polygon fill="#bfbfbf" stroke="#bfbfbf" points="60,-106 60,-106 88,-106 88,-106 60,-106"/>
<polygon fill="#bfbfbf" stroke="#bfbfbf" points="60,-90 60,-90 88,-90 88,-90 60,-90"/>
<polygon fill="none" stroke="#bfbfbf" points="60,-72 60,-124 88,-124 88,-72 60,-72"/>
</a>
</g>
</g>
<!-- Node5&#45;&gt;Node1 -->
<g id="edge6_Node000001_Node000005" class="edge">
<title>Node5&#45;&gt;Node1</title>
<g id="a_edge6_Node000001_Node000005"><a xlink:title=" ">
<path fill="none" stroke="#63b8ff" d="M87.81,-95.42C142.04,-84.68 358.13,-43.34 538,-30.25 617.79,-24.44 638.03,-28.1 718,-30.25 783.04,-31.99 855.63,-35.78 914.41,-39.31"/>
<polygon fill="none" stroke="#63b8ff" points="914.24,-39.3 920.47,-35.68 926.22,-40.03 919.99,-43.66 914.24,-39.3"/>
</a>
</g>
<text text-anchor="middle" x="628" y="-85.25" font-family="Cascadia Code NF" font-size="10.00" fill="grey"> +kArgCOffset</text>
<text text-anchor="middle" x="628" y="-72.5" font-family="Cascadia Code NF" font-size="10.00" fill="grey">+kBuiltinContextOffset</text>
<text text-anchor="middle" x="628" y="-59.75" font-family="Cascadia Code NF" font-size="10.00" fill="grey">+kBuiltinIndexOffset</text>
<text text-anchor="middle" x="628" y="-47" font-family="Cascadia Code NF" font-size="10.00" fill="grey">+kFrameSPtoFPDeltaAtDeoptimize</text>
<text text-anchor="middle" x="628" y="-34.25" font-family="Cascadia Code NF" font-size="10.00" fill="grey">+kFunctionOffset</text>
</g>
<!-- Node5&#45;&gt;Node2 -->
<g id="edge5_Node000002_Node000005" class="edge">
<title>Node5&#45;&gt;Node2</title>
<g id="a_edge5_Node000002_Node000005"><a xlink:title=" ">
<path fill="none" stroke="#63b8ff" d="M87.79,-98C162.66,-98 546.84,-98 723.24,-98"/>
<polygon fill="none" stroke="#63b8ff" points="723.19,-98 729.19,-94 735.19,-98 729.19,-102 723.19,-98"/>
</a>
</g>
<text text-anchor="middle" x="430" y="-177.75" font-family="Cascadia Code NF" font-size="10.00" fill="grey"> +kFirstPushedFrameValueOffset</text>
<text text-anchor="middle" x="430" y="-165" font-family="Cascadia Code NF" font-size="10.00" fill="grey">+kFixedFrameSize</text>
<text text-anchor="middle" x="430" y="-152.25" font-family="Cascadia Code NF" font-size="10.00" fill="grey">+kFixedFrameSizeFromFp</text>
<text text-anchor="middle" x="430" y="-139.5" font-family="Cascadia Code NF" font-size="10.00" fill="grey">+kFixedSlotCount</text>
<text text-anchor="middle" x="430" y="-126.75" font-family="Cascadia Code NF" font-size="10.00" fill="grey">+kFixedSlotCountFromFp</text>
<text text-anchor="middle" x="430" y="-114" font-family="Cascadia Code NF" font-size="10.00" fill="grey">+kFrameTypeOffset</text>
<text text-anchor="middle" x="430" y="-101.25" font-family="Cascadia Code NF" font-size="10.00" fill="grey">+kFrameTypeSize</text>
</g>
<!-- Node5&#45;&gt;Node3 -->
<g id="edge4_Node000003_Node000005" class="edge">
<title>Node5&#45;&gt;Node3</title>
<g id="a_edge4_Node000003_Node000005"><a xlink:title=" ">
<path fill="none" stroke="#63b8ff" d="M87.96,-99.57C105.61,-101.71 138.19,-105.65 166,-109 200.67,-113.18 295.44,-105.08 322,-127.75 344.23,-146.73 321.6,-168.29 340,-191 341.79,-193.21 343.71,-195.32 345.73,-197.35"/>
<polygon fill="none" stroke="#63b8ff" points="345.54,-197.18 352.69,-198.12 354.56,-205.09 347.41,-204.14 345.54,-197.18"/>
</a>
</g>
<text text-anchor="middle" x="244" y="-257.75" font-family="Cascadia Code NF" font-size="10.00" fill="grey"> +kCPSlotCount</text>
<text text-anchor="middle" x="244" y="-245" font-family="Cascadia Code NF" font-size="10.00" fill="grey">+kCPSlotSize</text>
<text text-anchor="middle" x="244" y="-232.25" font-family="Cascadia Code NF" font-size="10.00" fill="grey">+kCallerFPOffset</text>
<text text-anchor="middle" x="244" y="-219.5" font-family="Cascadia Code NF" font-size="10.00" fill="grey">+kCallerPCOffset</text>
<text text-anchor="middle" x="244" y="-206.75" font-family="Cascadia Code NF" font-size="10.00" fill="grey">+kCallerSPOffset</text>
<text text-anchor="middle" x="244" y="-194" font-family="Cascadia Code NF" font-size="10.00" fill="grey">+kConstantPoolOffset</text>
<text text-anchor="middle" x="244" y="-181.25" font-family="Cascadia Code NF" font-size="10.00" fill="grey">+kContextOrFrameTypeOffset</text>
<text text-anchor="middle" x="244" y="-168.5" font-family="Cascadia Code NF" font-size="10.00" fill="grey">+kContextOrFrameTypeSize</text>
<text text-anchor="middle" x="244" y="-155.75" font-family="Cascadia Code NF" font-size="10.00" fill="grey">+kFixedFrameSizeAboveFp</text>
<text text-anchor="middle" x="244" y="-143" font-family="Cascadia Code NF" font-size="10.00" fill="grey">+kFixedSlotCountAboveFp</text>
<text text-anchor="middle" x="244" y="-130.25" font-family="Cascadia Code NF" font-size="10.00" fill="grey">...</text>
</g>
</g>
</svg>
