<?xml version="1.0" encoding="UTF-8" standalone="no"?>
<!DOCTYPE svg PUBLIC "-//W3C//DTD SVG 1.1//EN"
 "http://www.w3.org/Graphics/SVG/1.1/DTD/svg11.dtd">
<!-- Generated by graphviz version 11.0.0 (20240428.1522)
 -->
<!-- Title: v8::internal::ObjectLiteral Pages: 1 -->
<svg width="1250pt" height="236pt"
 viewBox="0.00 0.00 1250.00 236.00" xmlns="http://www.w3.org/2000/svg" xmlns:xlink="http://www.w3.org/1999/xlink">
<g id="graph0" class="graph" transform="scale(1 1) rotate(0) translate(4 232)">
<title>v8::internal::ObjectLiteral</title>
<!-- Node1 -->
<g id="Node000001" class="node">
<title>Node1</title>
<g id="a_Node000001"><a xlink:title=" ">
<polygon fill="#999999" stroke="none" points="1242,-172 1070,-172 1070,-56 1242,-56 1242,-172"/>
<text text-anchor="start" x="1075" y="-158.5" font-family="Cascadia Code NF" font-size="10.00">v8::internal::ObjectLiteral</text>
<text text-anchor="start" x="1153" y="-142.5" font-family="Cascadia Code NF" font-size="10.00"> </text>
<text text-anchor="start" x="1082.5" y="-126.5" font-family="Cascadia Code NF" font-size="10.00">+</text>
<text text-anchor="start" x="1101" y="-126.5" font-family="Cascadia Code NF" font-size="10.00">CalculateEmitStore()</text>
<text text-anchor="start" x="1082.5" y="-110.5" font-family="Cascadia Code NF" font-size="10.00">+</text>
<text text-anchor="start" x="1101" y="-110.5" font-family="Cascadia Code NF" font-size="10.00">properties()</text>
<text text-anchor="start" x="1082.5" y="-94.5" font-family="Cascadia Code NF" font-size="10.00">+</text>
<text text-anchor="start" x="1101" y="-94.5" font-family="Cascadia Code NF" font-size="10.00">builder()</text>
<text text-anchor="start" x="1082.5" y="-78.5" font-family="Cascadia Code NF" font-size="10.00">+</text>
<text text-anchor="start" x="1101" y="-78.5" font-family="Cascadia Code NF" font-size="10.00">builder()</text>
<text text-anchor="start" x="1082.5" y="-62.5" font-family="Cascadia Code NF" font-size="10.00">+</text>
<text text-anchor="start" x="1101" y="-62.5" font-family="Cascadia Code NF" font-size="10.00">home_object()</text>
<polygon fill="#666666" stroke="#666666" points="1070,-154 1070,-154 1242,-154 1242,-154 1070,-154"/>
<polygon fill="#666666" stroke="#666666" points="1070,-138 1070,-138 1242,-138 1242,-138 1070,-138"/>
<polygon fill="none" stroke="#666666" points="1070,-56 1070,-172 1242,-172 1242,-56 1070,-56"/>
</a>
</g>
</g>
<!-- Node2 -->
<g id="Node000002" class="node">
<title>Node2</title>
<g id="a_Node000002"><a xlink:href="$d6/d03/classv8_1_1internal_1_1AggregateLiteral.html" xlink:title=" ">
<polygon fill="white" stroke="none" points="1034,-140 844,-140 844,-88 1034,-88 1034,-140"/>
<text text-anchor="start" x="849" y="-126.5" font-family="Cascadia Code NF" font-size="10.00">v8::internal::AggregateLiteral</text>
<text text-anchor="start" x="936" y="-110.5" font-family="Cascadia Code NF" font-size="10.00"> </text>
<text text-anchor="start" x="864" y="-94.5" font-family="Cascadia Code NF" font-size="10.00">#</text>
<text text-anchor="start" x="890" y="-94.5" font-family="Cascadia Code NF" font-size="10.00">AggregateLiteral()</text>
<polygon fill="#bfbfbf" stroke="#bfbfbf" points="844,-122 844,-122 1034,-122 1034,-122 844,-122"/>
<polygon fill="#bfbfbf" stroke="#bfbfbf" points="844,-106 844,-106 1034,-106 1034,-106 844,-106"/>
<polygon fill="none" stroke="#bfbfbf" points="844,-88 844,-140 1034,-140 1034,-88 844,-88"/>
</a>
</g>
</g>
<!-- Node2&#45;&gt;Node1 -->
<g id="edge1_Node000001_Node000002" class="edge">
<title>Node2&#45;&gt;Node1</title>
<g id="a_edge1_Node000001_Node000002"><a xlink:title=" ">
<path fill="none" stroke="#63b8ff" d="M1045.37,-114C1053.74,-114 1062.13,-114 1070.33,-114"/>
<polygon fill="none" stroke="#63b8ff" points="1045.5,-110.5 1035.5,-114 1045.5,-117.5 1045.5,-110.5"/>
</a>
</g>
</g>
<!-- Node3 -->
<g id="Node000003" class="node">
<title>Node3</title>
<g id="a_Node000003"><a xlink:href="$d6/d29/classv8_1_1internal_1_1MaterializedLiteral.html" xlink:title=" ">
<polygon fill="white" stroke="none" points="808,-162.5 622,-162.5 622,-65.5 808,-65.5 808,-162.5"/>
<text text-anchor="start" x="637" y="-149" font-family="Cascadia Code NF" font-size="10.00">v8::internal::Materialized</text>
<text text-anchor="start" x="694" y="-136.25" font-family="Cascadia Code NF" font-size="10.00">Literal</text>
<text text-anchor="start" x="712" y="-120" font-family="Cascadia Code NF" font-size="10.00"> </text>
<text text-anchor="start" x="626" y="-104" font-family="Cascadia Code NF" font-size="10.00">+</text>
<text text-anchor="start" x="636" y="-104" font-family="Cascadia Code NF" font-size="10.00">IsSimple()</text>
<text text-anchor="start" x="626" y="-88" font-family="Cascadia Code NF" font-size="10.00">#</text>
<text text-anchor="start" x="636" y="-88" font-family="Cascadia Code NF" font-size="10.00">MaterializedLiteral()</text>
<text text-anchor="start" x="626" y="-72" font-family="Cascadia Code NF" font-size="10.00">#</text>
<text text-anchor="start" x="636" y="-72" font-family="Cascadia Code NF" font-size="10.00">NeedsInitialAllocationSite()</text>
<polygon fill="#bfbfbf" stroke="#bfbfbf" points="622,-131.5 622,-131.5 808,-131.5 808,-131.5 622,-131.5"/>
<polygon fill="#bfbfbf" stroke="#bfbfbf" points="622,-115.5 622,-115.5 808,-115.5 808,-115.5 622,-115.5"/>
<polygon fill="none" stroke="#bfbfbf" points="622,-65.5 622,-162.5 808,-162.5 808,-65.5 622,-65.5"/>
</a>
</g>
</g>
<!-- Node3&#45;&gt;Node2 -->
<g id="edge2_Node000002_Node000003" class="edge">
<title>Node3&#45;&gt;Node2</title>
<g id="a_edge2_Node000002_Node000003"><a xlink:title=" ">
<path fill="none" stroke="#63b8ff" d="M819.15,-114C827.45,-114 835.8,-114 844.02,-114"/>
<polygon fill="none" stroke="#63b8ff" points="819.41,-110.5 809.41,-114 819.41,-117.5 819.41,-110.5"/>
</a>
</g>
</g>
<!-- Node4 -->
<g id="Node000004" class="node">
<title>Node4</title>
<g id="a_Node000004"><a xlink:href="$df/d1f/classv8_1_1internal_1_1Expression.html" xlink:title=" ">
<polygon fill="white" stroke="none" points="586,-228 382,-228 382,0 586,0 586,-228"/>
<text text-anchor="start" x="412" y="-214.5" font-family="Cascadia Code NF" font-size="10.00">v8::internal::Expression</text>
<text text-anchor="start" x="481" y="-198.5" font-family="Cascadia Code NF" font-size="10.00"> </text>
<text text-anchor="start" x="386" y="-182.5" font-family="Cascadia Code NF" font-size="10.00">+</text>
<text text-anchor="start" x="396" y="-182.5" font-family="Cascadia Code NF" font-size="10.00">IsValidReferenceExpression()</text>
<text text-anchor="start" x="386" y="-166.5" font-family="Cascadia Code NF" font-size="10.00">+</text>
<text text-anchor="start" x="396" y="-166.5" font-family="Cascadia Code NF" font-size="10.00">IsPrivateName()</text>
<text text-anchor="start" x="386" y="-150.5" font-family="Cascadia Code NF" font-size="10.00">+</text>
<text text-anchor="start" x="396" y="-150.5" font-family="Cascadia Code NF" font-size="10.00">ToBooleanIsTrue()</text>
<text text-anchor="start" x="386" y="-134.5" font-family="Cascadia Code NF" font-size="10.00">+</text>
<text text-anchor="start" x="396" y="-134.5" font-family="Cascadia Code NF" font-size="10.00">ToBooleanIsFalse()</text>
<text text-anchor="start" x="386" y="-118.5" font-family="Cascadia Code NF" font-size="10.00">+</text>
<text text-anchor="start" x="396" y="-118.5" font-family="Cascadia Code NF" font-size="10.00">IsPropertyName()</text>
<text text-anchor="start" x="386" y="-102.5" font-family="Cascadia Code NF" font-size="10.00">+</text>
<text text-anchor="start" x="396" y="-102.5" font-family="Cascadia Code NF" font-size="10.00">IsAnonymousFunctionDefinition()</text>
<text text-anchor="start" x="386" y="-86.5" font-family="Cascadia Code NF" font-size="10.00">+</text>
<text text-anchor="start" x="396" y="-86.5" font-family="Cascadia Code NF" font-size="10.00">IsConciseMethodDefinition()</text>
<text text-anchor="start" x="386" y="-70.5" font-family="Cascadia Code NF" font-size="10.00">+</text>
<text text-anchor="start" x="396" y="-70.5" font-family="Cascadia Code NF" font-size="10.00">IsAccessorFunctionDefinition()</text>
<text text-anchor="start" x="386" y="-54.5" font-family="Cascadia Code NF" font-size="10.00">+</text>
<text text-anchor="start" x="396" y="-54.5" font-family="Cascadia Code NF" font-size="10.00">IsSmiLiteral()</text>
<text text-anchor="start" x="386" y="-38.5" font-family="Cascadia Code NF" font-size="10.00">+</text>
<text text-anchor="start" x="396" y="-38.5" font-family="Cascadia Code NF" font-size="10.00">IsNumberLiteral()</text>
<text text-anchor="start" x="396" y="-22.5" font-family="Cascadia Code NF" font-size="10.00">and 12 more...</text>
<text text-anchor="start" x="386" y="-6.5" font-family="Cascadia Code NF" font-size="10.00">#</text>
<text text-anchor="start" x="396" y="-6.5" font-family="Cascadia Code NF" font-size="10.00">Expression()</text>
<polygon fill="#bfbfbf" stroke="#bfbfbf" points="382,-210 382,-210 586,-210 586,-210 382,-210"/>
<polygon fill="#bfbfbf" stroke="#bfbfbf" points="382,-194 382,-194 586,-194 586,-194 382,-194"/>
<polygon fill="none" stroke="#bfbfbf" points="382,0 382,-228 586,-228 586,0 382,0"/>
</a>
</g>
</g>
<!-- Node4&#45;&gt;Node3 -->
<g id="edge3_Node000003_Node000004" class="edge">
<title>Node4&#45;&gt;Node3</title>
<g id="a_edge3_Node000003_Node000004"><a xlink:title=" ">
<path fill="none" stroke="#63b8ff" d="M597.18,-114C605.57,-114 613.97,-114 622.21,-114"/>
<polygon fill="none" stroke="#63b8ff" points="597.29,-110.5 587.29,-114 597.29,-117.5 597.29,-110.5"/>
</a>
</g>
</g>
<!-- Node5 -->
<g id="Node000005" class="node">
<title>Node5</title>
<g id="a_Node000005"><a xlink:href="$de/d53/classv8_1_1internal_1_1AstNode.html" xlink:title=" ">
<polygon fill="white" stroke="none" points="346,-172 190,-172 190,-56 346,-56 346,-172"/>
<text text-anchor="start" x="205" y="-158.5" font-family="Cascadia Code NF" font-size="10.00">v8::internal::AstNode</text>
<text text-anchor="start" x="194" y="-142.5" font-family="Cascadia Code NF" font-size="10.00">#</text>
<text text-anchor="start" x="204" y="-142.5" font-family="Cascadia Code NF" font-size="10.00">bit_field_</text>
<text text-anchor="start" x="194" y="-126.5" font-family="Cascadia Code NF" font-size="10.00">+</text>
<text text-anchor="start" x="204" y="-126.5" font-family="Cascadia Code NF" font-size="10.00">node_type()</text>
<text text-anchor="start" x="194" y="-110.5" font-family="Cascadia Code NF" font-size="10.00">+</text>
<text text-anchor="start" x="204" y="-110.5" font-family="Cascadia Code NF" font-size="10.00">position()</text>
<text text-anchor="start" x="194" y="-94.5" font-family="Cascadia Code NF" font-size="10.00">+</text>
<text text-anchor="start" x="204" y="-94.5" font-family="Cascadia Code NF" font-size="10.00">AsIterationStatement()</text>
<text text-anchor="start" x="194" y="-78.5" font-family="Cascadia Code NF" font-size="10.00">+</text>
<text text-anchor="start" x="204" y="-78.5" font-family="Cascadia Code NF" font-size="10.00">AsMaterializedLiteral()</text>
<text text-anchor="start" x="194" y="-62.5" font-family="Cascadia Code NF" font-size="10.00">#</text>
<text text-anchor="start" x="204" y="-62.5" font-family="Cascadia Code NF" font-size="10.00">AstNode()</text>
<polygon fill="#bfbfbf" stroke="#bfbfbf" points="190,-154 190,-154 346,-154 346,-154 190,-154"/>
<polygon fill="#bfbfbf" stroke="#bfbfbf" points="190,-138 190,-138 202,-138 202,-138 190,-138"/>
<polygon fill="#bfbfbf" stroke="#bfbfbf" points="202,-138 202,-138 346,-138 346,-138 202,-138"/>
<polygon fill="none" stroke="#bfbfbf" points="190,-56 190,-172 346,-172 346,-56 190,-56"/>
</a>
</g>
</g>
<!-- Node5&#45;&gt;Node4 -->
<g id="edge4_Node000004_Node000005" class="edge">
<title>Node5&#45;&gt;Node4</title>
<g id="a_edge4_Node000004_Node000005"><a xlink:title=" ">
<path fill="none" stroke="#63b8ff" d="M357.38,-114C365.55,-114 373.86,-114 382.13,-114"/>
<polygon fill="none" stroke="#63b8ff" points="357.47,-110.5 347.47,-114 357.47,-117.5 357.47,-110.5"/>
</a>
</g>
</g>
<!-- Node6 -->
<g id="Node000006" class="node">
<title>Node6</title>
<g id="a_Node000006"><a xlink:href="$dc/dca/classv8_1_1internal_1_1ZoneObject.html" xlink:title=" ">
<polygon fill="white" stroke="none" points="154,-164 0,-164 0,-64 154,-64 154,-164"/>
<text text-anchor="start" x="5" y="-150.5" font-family="Cascadia Code NF" font-size="10.00">v8::internal::ZoneObject</text>
<text text-anchor="start" x="74" y="-134.5" font-family="Cascadia Code NF" font-size="10.00"> </text>
<text text-anchor="start" x="12.5" y="-118.5" font-family="Cascadia Code NF" font-size="10.00">+</text>
<text text-anchor="start" x="31" y="-118.5" font-family="Cascadia Code NF" font-size="10.00">operator new()</text>
<text text-anchor="start" x="12.5" y="-102.5" font-family="Cascadia Code NF" font-size="10.00">+</text>
<text text-anchor="start" x="31" y="-102.5" font-family="Cascadia Code NF" font-size="10.00">operator new()</text>
<text text-anchor="start" x="12.5" y="-86.5" font-family="Cascadia Code NF" font-size="10.00">+</text>
<text text-anchor="start" x="31" y="-86.5" font-family="Cascadia Code NF" font-size="10.00">operator delete()</text>
<text text-anchor="start" x="12.5" y="-70.5" font-family="Cascadia Code NF" font-size="10.00">+</text>
<text text-anchor="start" x="31" y="-70.5" font-family="Cascadia Code NF" font-size="10.00">operator delete()</text>
<polygon fill="#bfbfbf" stroke="#bfbfbf" points="0,-146 0,-146 154,-146 154,-146 0,-146"/>
<polygon fill="#bfbfbf" stroke="#bfbfbf" points="0,-130 0,-130 154,-130 154,-130 0,-130"/>
<polygon fill="none" stroke="#bfbfbf" points="0,-64 0,-164 154,-164 154,-64 0,-64"/>
</a>
</g>
</g>
<!-- Node6&#45;&gt;Node5 -->
<g id="edge5_Node000005_Node000006" class="edge">
<title>Node6&#45;&gt;Node5</title>
<g id="a_edge5_Node000005_Node000006"><a xlink:title=" ">
<path fill="none" stroke="#63b8ff" d="M165.15,-114C173.53,-114 182,-114 190.27,-114"/>
<polygon fill="none" stroke="#63b8ff" points="165.3,-110.5 155.3,-114 165.3,-117.5 165.3,-110.5"/>
</a>
</g>
</g>
</g>
</svg>
