<?xml version="1.0" encoding="UTF-8" standalone="no"?>
<!DOCTYPE svg PUBLIC "-//W3C//DTD SVG 1.1//EN"
 "http://www.w3.org/Graphics/SVG/1.1/DTD/svg11.dtd">
<!-- Generated by graphviz version 11.0.0 (20240428.1522)
 -->
<!-- Title: v8::internal::WasmTagObject Pages: 1 -->
<svg width="508pt" height="438pt"
 viewBox="0.00 0.00 508.00 438.00" xmlns="http://www.w3.org/2000/svg" xmlns:xlink="http://www.w3.org/1999/xlink">
<g id="graph0" class="graph" transform="scale(1 1) rotate(0) translate(4 434)">
<title>v8::internal::WasmTagObject</title>
<!-- Node1 -->
<g id="Node000001" class="node">
<title>Node1</title>
<g id="a_Node000001"><a xlink:title=" ">
<polygon fill="#999999" stroke="none" points="500,-249 328,-249 328,-181 500,-181 500,-249"/>
<text text-anchor="start" x="333" y="-235.5" font-family="Cascadia Code NF" font-size="10.00">v8::internal::WasmTagObject</text>
<text text-anchor="start" x="411" y="-219.5" font-family="Cascadia Code NF" font-size="10.00"> </text>
<text text-anchor="start" x="343.5" y="-203.5" font-family="Cascadia Code NF" font-size="10.00">+</text>
<text text-anchor="start" x="365" y="-203.5" font-family="Cascadia Code NF" font-size="10.00">MatchesSignature()</text>
<text text-anchor="start" x="343.5" y="-187.5" font-family="Cascadia Code NF" font-size="10.00">+</text>
<text text-anchor="start" x="365" y="-187.5" font-family="Cascadia Code NF" font-size="10.00">New()</text>
<polygon fill="#666666" stroke="#666666" points="328,-231 328,-231 500,-231 500,-231 328,-231"/>
<polygon fill="#666666" stroke="#666666" points="328,-215 328,-215 500,-215 500,-215 328,-215"/>
<polygon fill="none" stroke="#666666" points="328,-181 328,-249 500,-249 500,-181 328,-181"/>
</a>
</g>
</g>
<!-- Node2 -->
<g id="Node000002" class="node">
<title>Node2</title>
<g id="a_Node000002"><a xlink:href="../../db/dba/classTorqueGeneratedWasmTagObject.html" target="_top" xlink:title=" ">
<polygon fill="white" stroke="none" points="292,-430 94,-430 94,0 292,0 292,-430"/>
<text text-anchor="start" x="109" y="-416.5" font-family="Cascadia Code NF" font-size="10.00">TorqueGeneratedWasmTagObject</text>
<text text-anchor="start" x="112" y="-403.75" font-family="Cascadia Code NF" font-size="10.00">&lt; WasmTagObject, JSObject &gt;</text>
<text text-anchor="start" x="98" y="-387.5" font-family="Cascadia Code NF" font-size="10.00">+</text>
<text text-anchor="start" x="108" y="-387.5" font-family="Cascadia Code NF" font-size="10.00">kStartOfStrongFieldsOffset</text>
<text text-anchor="start" x="98" y="-371.5" font-family="Cascadia Code NF" font-size="10.00">+</text>
<text text-anchor="start" x="108" y="-371.5" font-family="Cascadia Code NF" font-size="10.00">kSerializedSignatureOffset</text>
<text text-anchor="start" x="98" y="-355.5" font-family="Cascadia Code NF" font-size="10.00">+</text>
<text text-anchor="start" x="108" y="-355.5" font-family="Cascadia Code NF" font-size="10.00">kSerializedSignatureOffsetEnd</text>
<text text-anchor="start" x="98" y="-339.5" font-family="Cascadia Code NF" font-size="10.00">+</text>
<text text-anchor="start" x="108" y="-339.5" font-family="Cascadia Code NF" font-size="10.00">kTagOffset</text>
<text text-anchor="start" x="98" y="-323.5" font-family="Cascadia Code NF" font-size="10.00">+</text>
<text text-anchor="start" x="108" y="-323.5" font-family="Cascadia Code NF" font-size="10.00">kTagOffsetEnd</text>
<text text-anchor="start" x="98" y="-307.5" font-family="Cascadia Code NF" font-size="10.00">+</text>
<text text-anchor="start" x="108" y="-307.5" font-family="Cascadia Code NF" font-size="10.00">kCanonicalTypeIndexOffset</text>
<text text-anchor="start" x="98" y="-291.5" font-family="Cascadia Code NF" font-size="10.00">+</text>
<text text-anchor="start" x="108" y="-291.5" font-family="Cascadia Code NF" font-size="10.00">kCanonicalTypeIndexOffsetEnd</text>
<text text-anchor="start" x="98" y="-275.5" font-family="Cascadia Code NF" font-size="10.00">+</text>
<text text-anchor="start" x="108" y="-275.5" font-family="Cascadia Code NF" font-size="10.00">kEndOfStrongFieldsOffset</text>
<text text-anchor="start" x="98" y="-259.5" font-family="Cascadia Code NF" font-size="10.00">+</text>
<text text-anchor="start" x="108" y="-259.5" font-family="Cascadia Code NF" font-size="10.00">kStartOfWeakFieldsOffset</text>
<text text-anchor="start" x="98" y="-243.5" font-family="Cascadia Code NF" font-size="10.00">+</text>
<text text-anchor="start" x="108" y="-243.5" font-family="Cascadia Code NF" font-size="10.00">kEndOfWeakFieldsOffset</text>
<text text-anchor="start" x="98" y="-227.5" font-family="Cascadia Code NF" font-size="10.00">+</text>
<text text-anchor="start" x="108" y="-227.5" font-family="Cascadia Code NF" font-size="10.00">kHeaderSize</text>
<text text-anchor="start" x="98" y="-211.5" font-family="Cascadia Code NF" font-size="10.00">+</text>
<text text-anchor="start" x="108" y="-211.5" font-family="Cascadia Code NF" font-size="10.00">serialized_signature()</text>
<text text-anchor="start" x="98" y="-195.5" font-family="Cascadia Code NF" font-size="10.00">+</text>
<text text-anchor="start" x="108" y="-195.5" font-family="Cascadia Code NF" font-size="10.00">serialized_signature()</text>
<text text-anchor="start" x="98" y="-179.5" font-family="Cascadia Code NF" font-size="10.00">+</text>
<text text-anchor="start" x="108" y="-179.5" font-family="Cascadia Code NF" font-size="10.00">set_serialized_signature()</text>
<text text-anchor="start" x="98" y="-163.5" font-family="Cascadia Code NF" font-size="10.00">+</text>
<text text-anchor="start" x="108" y="-163.5" font-family="Cascadia Code NF" font-size="10.00">tag()</text>
<text text-anchor="start" x="98" y="-147.5" font-family="Cascadia Code NF" font-size="10.00">+</text>
<text text-anchor="start" x="108" y="-147.5" font-family="Cascadia Code NF" font-size="10.00">tag()</text>
<text text-anchor="start" x="98" y="-131.5" font-family="Cascadia Code NF" font-size="10.00">+</text>
<text text-anchor="start" x="108" y="-131.5" font-family="Cascadia Code NF" font-size="10.00">set_tag()</text>
<text text-anchor="start" x="98" y="-115.5" font-family="Cascadia Code NF" font-size="10.00">+</text>
<text text-anchor="start" x="108" y="-115.5" font-family="Cascadia Code NF" font-size="10.00">canonical_type_index()</text>
<text text-anchor="start" x="98" y="-99.5" font-family="Cascadia Code NF" font-size="10.00">+</text>
<text text-anchor="start" x="108" y="-99.5" font-family="Cascadia Code NF" font-size="10.00">set_canonical_type</text>
<text text-anchor="start" x="108" y="-86.75" font-family="Cascadia Code NF" font-size="10.00">_index()</text>
<text text-anchor="start" x="98" y="-70.5" font-family="Cascadia Code NF" font-size="10.00">+</text>
<text text-anchor="start" x="108" y="-70.5" font-family="Cascadia Code NF" font-size="10.00">TorqueGeneratedWasmTagObject()</text>
<text text-anchor="start" x="98" y="-54.5" font-family="Cascadia Code NF" font-size="10.00">+</text>
<text text-anchor="start" x="108" y="-54.5" font-family="Cascadia Code NF" font-size="10.00">cast()</text>
<text text-anchor="start" x="98" y="-38.5" font-family="Cascadia Code NF" font-size="10.00">+</text>
<text text-anchor="start" x="108" y="-38.5" font-family="Cascadia Code NF" font-size="10.00">unchecked_cast()</text>
<text text-anchor="start" x="98" y="-22.5" font-family="Cascadia Code NF" font-size="10.00">#</text>
<text text-anchor="start" x="108" y="-22.5" font-family="Cascadia Code NF" font-size="10.00">TorqueGeneratedWasmTagObject()</text>
<text text-anchor="start" x="98" y="-6.5" font-family="Cascadia Code NF" font-size="10.00">#</text>
<text text-anchor="start" x="108" y="-6.5" font-family="Cascadia Code NF" font-size="10.00">TorqueGeneratedWasmTagObject()</text>
<polygon fill="#bfbfbf" stroke="#bfbfbf" points="94,-399 94,-399 292,-399 292,-399 94,-399"/>
<polygon fill="#bfbfbf" stroke="#bfbfbf" points="94,-223 94,-223 106,-223 106,-223 94,-223"/>
<polygon fill="#bfbfbf" stroke="#bfbfbf" points="106,-223 106,-223 292,-223 292,-223 106,-223"/>
<polygon fill="none" stroke="#bfbfbf" points="94,0 94,-430 292,-430 292,0 94,0"/>
</a>
</g>
</g>
<!-- Node2&#45;&gt;Node1 -->
<g id="edge1_Node000001_Node000002" class="edge">
<title>Node2&#45;&gt;Node1</title>
<g id="a_edge1_Node000001_Node000002"><a xlink:title=" ">
<path fill="none" stroke="#63b8ff" d="M303.32,-215C311.67,-215 320.01,-215 328.16,-215"/>
<polygon fill="none" stroke="#63b8ff" points="303.48,-211.5 293.48,-215 303.48,-218.5 303.48,-211.5"/>
</a>
</g>
</g>
<!-- Node3 -->
<g id="Node000003" class="node">
<title>Node3</title>
<g id="a_Node000003"><a xlink:title=" ">
<polygon fill="white" stroke="none" points="58,-241 0,-241 0,-189 58,-189 58,-241"/>
<text text-anchor="start" x="5" y="-227.5" font-family="Cascadia Code NF" font-size="10.00">JSObject</text>
<text text-anchor="start" x="26" y="-211.5" font-family="Cascadia Code NF" font-size="10.00"> </text>
<text text-anchor="start" x="26" y="-195.5" font-family="Cascadia Code NF" font-size="10.00"> </text>
<polygon fill="#bfbfbf" stroke="#bfbfbf" points="0,-223 0,-223 58,-223 58,-223 0,-223"/>
<polygon fill="#bfbfbf" stroke="#bfbfbf" points="0,-207 0,-207 58,-207 58,-207 0,-207"/>
<polygon fill="none" stroke="#bfbfbf" points="0,-189 0,-241 58,-241 58,-189 0,-189"/>
</a>
</g>
</g>
<!-- Node3&#45;&gt;Node2 -->
<g id="edge2_Node000002_Node000003" class="edge">
<title>Node3&#45;&gt;Node2</title>
<g id="a_edge2_Node000002_Node000003"><a xlink:title=" ">
<path fill="none" stroke="#63b8ff" d="M69.09,-215C76.9,-215 85.42,-215 94.22,-215"/>
<polygon fill="none" stroke="#63b8ff" points="69.36,-211.5 59.36,-215 69.36,-218.5 69.36,-211.5"/>
</a>
</g>
</g>
</g>
</svg>
