<?xml version="1.0" encoding="UTF-8" standalone="no"?>
<!DOCTYPE svg PUBLIC "-//W3C//DTD SVG 1.1//EN"
 "http://www.w3.org/Graphics/SVG/1.1/DTD/svg11.dtd">
<!-- Generated by graphviz version 11.0.0 (20240428.1522)
 -->
<!-- Title: v8::internal::is_subtype&lt; ExternalReference, RawPtrT &gt; Pages: 1 -->
<svg width="316pt" height="73pt"
 viewBox="0.00 0.00 316.00 73.00" xmlns="http://www.w3.org/2000/svg" xmlns:xlink="http://www.w3.org/1999/xlink">
<g id="graph0" class="graph" transform="scale(1 1) rotate(0) translate(4 69)">
<title>v8::internal::is_subtype&lt; ExternalReference, RawPtrT &gt;</title>
<!-- Node1 -->
<g id="Node000001" class="node">
<title>Node1</title>
<g id="a_Node000001"><a xlink:title=" ">
<polygon fill="#999999" stroke="none" points="308,-65 118,-65 118,0 308,0 308,-65"/>
<text text-anchor="start" x="123" y="-51.5" font-family="Cascadia Code NF" font-size="10.00">v8::internal::is_subtype</text>
<text text-anchor="start" x="123" y="-38.75" font-family="Cascadia Code NF" font-size="10.00">&lt; ExternalReference, RawPtrT &gt;</text>
<text text-anchor="start" x="210" y="-22.5" font-family="Cascadia Code NF" font-size="10.00"> </text>
<text text-anchor="start" x="210" y="-6.5" font-family="Cascadia Code NF" font-size="10.00"> </text>
<polygon fill="#666666" stroke="#666666" points="118,-34 118,-34 308,-34 308,-34 118,-34"/>
<polygon fill="#666666" stroke="#666666" points="118,-18 118,-18 308,-18 308,-18 118,-18"/>
<polygon fill="none" stroke="#666666" points="118,0 118,-65 308,-65 308,0 118,0"/>
</a>
</g>
</g>
<!-- Node2 -->
<g id="Node000002" class="node">
<title>Node2</title>
<g id="a_Node000002"><a xlink:title=" ">
<polygon fill="white" stroke="none" points="40,-58.5 0,-58.5 0,-6.5 40,-6.5 40,-58.5"/>
<text text-anchor="start" x="5" y="-45" font-family="Cascadia Code NF" font-size="10.00">const</text>
<text text-anchor="start" x="17" y="-29" font-family="Cascadia Code NF" font-size="10.00"> </text>
<text text-anchor="start" x="17" y="-13" font-family="Cascadia Code NF" font-size="10.00"> </text>
<polygon fill="#bfbfbf" stroke="#bfbfbf" points="0,-40.5 0,-40.5 40,-40.5 40,-40.5 0,-40.5"/>
<polygon fill="#bfbfbf" stroke="#bfbfbf" points="0,-24.5 0,-24.5 40,-24.5 40,-24.5 0,-24.5"/>
<polygon fill="none" stroke="#bfbfbf" points="0,-6.5 0,-58.5 40,-58.5 40,-6.5 0,-6.5"/>
</a>
</g>
</g>
<!-- Node2&#45;&gt;Node1 -->
<g id="edge1_Node000001_Node000002" class="edge">
<title>Node2&#45;&gt;Node1</title>
<g id="a_edge1_Node000001_Node000002"><a xlink:title=" ">
<path fill="none" stroke="#63b8ff" d="M39.66,-32.5C55.56,-32.5 79.8,-32.5 105.13,-32.5"/>
<polygon fill="none" stroke="#63b8ff" points="105.12,-32.5 111.12,-28.5 117.12,-32.5 111.12,-36.5 105.12,-32.5"/>
</a>
</g>
<text text-anchor="middle" x="79" y="-35.75" font-family="Cascadia Code NF" font-size="10.00" fill="grey"> +value</text>
</g>
</g>
</svg>
