<?xml version="1.0" encoding="UTF-8" standalone="no"?>
<!DOCTYPE svg PUBLIC "-//W3C//DTD SVG 1.1//EN"
 "http://www.w3.org/Graphics/SVG/1.1/DTD/svg11.dtd">
<!-- Generated by graphviz version 11.0.0 (20240428.1522)
 -->
<!-- Title: wasm::GlobalTypeImpl Pages: 1 -->
<!--zoomable 216 -->

<svg id="main" version="1.1" xmlns="http://www.w3.org/2000/svg" xmlns:xlink="http://www.w3.org/1999/xlink" xml:space="preserve" onload="init(evt)">
<style type="text/css"><![CDATA[
.node, .edge {opacity: 0.7;}
.node.selected, .edge.selected {opacity: 1;}
.edge:hover path { stroke: red; }
.edge:hover polygon { stroke: red; fill: red; }
svg#main { background-color: #111; }
]]></style>

<defs>
  <circle id="rim" cx="0" cy="0" r="7"/>
  <circle id="rim2" cx="0" cy="0" r="3.5"/>
  <g id="zoomPlus">
    <use xlink:href="#rim" fill="#404040"><set attributeName="fill" to="#808080" begin="zoomplus.mouseover" end="zoomplus.mouseout"/></use>
    <path d="M-4,0h8M0,-4v8" fill="none" stroke="white" stroke-width="1.5" pointer-events="none"/>
  </g>
  <g id="zoomMin">
    <use xlink:href="#rim" fill="#404040"><set attributeName="fill" to="#808080" begin="zoomminus.mouseover" end="zoomminus.mouseout"/></use>
    <path d="M-4,0h8" fill="none" stroke="white" stroke-width="1.5" pointer-events="none"/>
  </g>
  <g id="arrowUp" transform="translate(30 24)">
    <use xlink:href="#rim"/>
    <path pointer-events="none" fill="none" stroke="white" stroke-width="1.5" d="M0,-3.0v7 M-2.5,-0.5L0,-3.0L2.5,-0.5"/>
  </g>
  <g id="arrowRight" transform="rotate(90) translate(36 -43)">
    <use xlink:href="#rim"/>
    <path pointer-events="none" fill="none" stroke="white" stroke-width="1.5" d="M0,-3.0v7 M-2.5,-0.5L0,-3.0L2.5,-0.5"/>
  </g>
  <g id="arrowDown" transform="rotate(180) translate(-30 -48)">
    <use xlink:href="#rim"/>
    <path pointer-events="none" fill="none" stroke="white" stroke-width="1.5" d="M0,-3.0v7 M-2.5,-0.5L0,-3.0L2.5,-0.5"/>
  </g>
  <g id="arrowLeft" transform="rotate(270) translate(-36 17)">
    <use xlink:href="#rim"/>
    <path pointer-events="none" fill="none" stroke="white" stroke-width="1.5" d="M0,-3.0v7 M-2.5,-0.5L0,-3.0L2.5,-0.5"/>
  </g>
  <g id="resetDef">
    <use xlink:href="#rim2" fill="#404040"><set attributeName="fill" to="#808080" begin="reset.mouseover" end="reset.mouseout"/></use>
  </g>
</defs>
<script type="application/ecmascript">
var viewWidth = 518;
var viewHeight = 216;
var sectionId = 'dynsection-1';
</script>
<script type="application/ecmascript" xlink:href="../../svg.min.js"/>
<svg id="graph" class="graph">
<g id="viewport">
<title>wasm::GlobalTypeImpl</title>
<!-- Node1 -->
<g id="Node000001" class="node">
<title>Node1</title>
<g id="a_Node000001"><a xlink:title=" ">
<polygon fill="#999999" stroke="none" points="510,-130 380,-130 380,-62 510,-62 510,-130"/>
<text text-anchor="start" x="385" y="-116.5" font-family="Cascadia Code NF" font-size="10.00">wasm::GlobalTypeImpl</text>
<text text-anchor="start" x="442" y="-100.5" font-family="Cascadia Code NF" font-size="10.00"> </text>
<text text-anchor="start" x="386.5" y="-84.5" font-family="Cascadia Code NF" font-size="10.00">+</text>
<text text-anchor="start" x="399" y="-84.5" font-family="Cascadia Code NF" font-size="10.00">GlobalTypeImpl()</text>
<text text-anchor="start" x="386.5" y="-68.5" font-family="Cascadia Code NF" font-size="10.00">+</text>
<text text-anchor="start" x="399" y="-68.5" font-family="Cascadia Code NF" font-size="10.00">~GlobalTypeImpl()</text>
<polygon fill="#666666" stroke="#666666" points="380,-112 380,-112 510,-112 510,-112 380,-112"/>
<polygon fill="#666666" stroke="#666666" points="380,-96 380,-96 510,-96 510,-96 380,-96"/>
<polygon fill="none" stroke="#666666" points="380,-62 380,-130 510,-130 510,-62 380,-62"/>
</a>
</g>
</g>
<!-- Node2 -->
<g id="Node000002" class="node">
<title>Node2</title>
<g id="a_Node000002"><a xlink:href="../../dc/dc7/structwasm_1_1ExternTypeImpl.html" target="_top" xlink:title=" ">
<polygon fill="white" stroke="none" points="272,-208 142,-208 142,-140 272,-140 272,-208"/>
<text text-anchor="start" x="147" y="-194.5" font-family="Cascadia Code NF" font-size="10.00">wasm::ExternTypeImpl</text>
<text text-anchor="start" x="204" y="-178.5" font-family="Cascadia Code NF" font-size="10.00"> </text>
<text text-anchor="start" x="148.5" y="-162.5" font-family="Cascadia Code NF" font-size="10.00">+</text>
<text text-anchor="start" x="161" y="-162.5" font-family="Cascadia Code NF" font-size="10.00">ExternTypeImpl()</text>
<text text-anchor="start" x="148.5" y="-146.5" font-family="Cascadia Code NF" font-size="10.00">+</text>
<text text-anchor="start" x="161" y="-146.5" font-family="Cascadia Code NF" font-size="10.00">~ExternTypeImpl()</text>
<polygon fill="#bfbfbf" stroke="#bfbfbf" points="142,-190 142,-190 272,-190 272,-190 142,-190"/>
<polygon fill="#bfbfbf" stroke="#bfbfbf" points="142,-174 142,-174 272,-174 272,-174 142,-174"/>
<polygon fill="none" stroke="#bfbfbf" points="142,-140 142,-208 272,-208 272,-140 142,-140"/>
</a>
</g>
</g>
<!-- Node2&#45;&gt;Node1 -->
<g id="edge1_Node000001_Node000002" class="edge">
<title>Node2&#45;&gt;Node1</title>
<g id="a_edge1_Node000001_Node000002"><a xlink:title=" ">
<path fill="none" stroke="#63b8ff" d="M282.72,-149.3C314.02,-138.96 350.04,-127.06 380.08,-117.12"/>
<polygon fill="none" stroke="#63b8ff" points="281.7,-145.96 273.3,-152.42 283.9,-152.6 281.7,-145.96"/>
</a>
</g>
</g>
<!-- Node3 -->
<g id="Node000003" class="node">
<title>Node3</title>
<g id="a_Node000003"><a xlink:title=" ">
<polygon fill="white" stroke="none" points="70,-200 0,-200 0,-148 70,-148 70,-200"/>
<text text-anchor="start" x="5" y="-186.5" font-family="Cascadia Code NF" font-size="10.00">ExternKind</text>
<text text-anchor="start" x="32" y="-170.5" font-family="Cascadia Code NF" font-size="10.00"> </text>
<text text-anchor="start" x="32" y="-154.5" font-family="Cascadia Code NF" font-size="10.00"> </text>
<polygon fill="#bfbfbf" stroke="#bfbfbf" points="0,-182 0,-182 70,-182 70,-182 0,-182"/>
<polygon fill="#bfbfbf" stroke="#bfbfbf" points="0,-166 0,-166 70,-166 70,-166 0,-166"/>
<polygon fill="none" stroke="#bfbfbf" points="0,-148 0,-200 70,-200 70,-148 0,-148"/>
</a>
</g>
</g>
<!-- Node3&#45;&gt;Node2 -->
<g id="edge2_Node000002_Node000003" class="edge">
<title>Node3&#45;&gt;Node2</title>
<g id="a_edge2_Node000002_Node000003"><a xlink:title=" ">
<path fill="none" stroke="#63b8ff" d="M69.99,-174C87.08,-174 108.54,-174 129.33,-174"/>
<polygon fill="none" stroke="#63b8ff" points="129.24,-174 135.24,-170 141.24,-174 135.24,-178 129.24,-174"/>
</a>
</g>
<text text-anchor="middle" x="106" y="-177.25" font-family="Cascadia Code NF" font-size="10.00" fill="grey"> +kind</text>
</g>
<!-- Node4 -->
<g id="Node000004" class="node">
<title>Node4</title>
<g id="a_Node000004"><a xlink:title=" ">
<polygon fill="white" stroke="none" points="254,-122 160,-122 160,-70 254,-70 254,-122"/>
<text text-anchor="start" x="165" y="-108.5" font-family="Cascadia Code NF" font-size="10.00">own&lt; ValType &gt;</text>
<text text-anchor="start" x="204" y="-92.5" font-family="Cascadia Code NF" font-size="10.00"> </text>
<text text-anchor="start" x="204" y="-76.5" font-family="Cascadia Code NF" font-size="10.00"> </text>
<polygon fill="#bfbfbf" stroke="#bfbfbf" points="160,-104 160,-104 254,-104 254,-104 160,-104"/>
<polygon fill="#bfbfbf" stroke="#bfbfbf" points="160,-88 160,-88 254,-88 254,-88 160,-88"/>
<polygon fill="none" stroke="#bfbfbf" points="160,-70 160,-122 254,-122 254,-70 160,-70"/>
</a>
</g>
</g>
<!-- Node4&#45;&gt;Node1 -->
<g id="edge3_Node000001_Node000004" class="edge">
<title>Node4&#45;&gt;Node1</title>
<g id="a_edge3_Node000001_Node000004"><a xlink:title=" ">
<path fill="none" stroke="#63b8ff" d="M253.78,-96C285.92,-96 329.66,-96 367.1,-96"/>
<polygon fill="none" stroke="#63b8ff" points="367.15,-96 373.15,-92 379.15,-96 373.15,-100 367.15,-96"/>
</a>
</g>
<text text-anchor="middle" x="326" y="-99.25" font-family="Cascadia Code NF" font-size="10.00" fill="grey"> +content</text>
</g>
<!-- Node5 -->
<g id="Node000005" class="node">
<title>Node5</title>
<g id="a_Node000005"><a xlink:title=" ">
<polygon fill="white" stroke="none" points="242,-52 172,-52 172,0 242,0 242,-52"/>
<text text-anchor="start" x="177" y="-38.5" font-family="Cascadia Code NF" font-size="10.00">Mutability</text>
<text text-anchor="start" x="204" y="-22.5" font-family="Cascadia Code NF" font-size="10.00"> </text>
<text text-anchor="start" x="204" y="-6.5" font-family="Cascadia Code NF" font-size="10.00"> </text>
<polygon fill="#bfbfbf" stroke="#bfbfbf" points="172,-34 172,-34 242,-34 242,-34 172,-34"/>
<polygon fill="#bfbfbf" stroke="#bfbfbf" points="172,-18 172,-18 242,-18 242,-18 172,-18"/>
<polygon fill="none" stroke="#bfbfbf" points="172,0 172,-52 242,-52 242,0 172,0"/>
</a>
</g>
</g>
<!-- Node5&#45;&gt;Node1 -->
<g id="edge4_Node000001_Node000005" class="edge">
<title>Node5&#45;&gt;Node1</title>
<g id="a_edge4_Node000001_Node000005"><a xlink:title=" ">
<path fill="none" stroke="#63b8ff" d="M241.81,-36.03C274.53,-45.73 325.25,-60.78 367.71,-73.37"/>
<polygon fill="none" stroke="#63b8ff" points="367.64,-73.35 374.53,-71.22 379.15,-76.76 372.26,-78.89 367.64,-73.35"/>
</a>
</g>
<text text-anchor="middle" x="326" y="-74.25" font-family="Cascadia Code NF" font-size="10.00" fill="grey"> +mutability</text>
</g>
</g>
</svg>

<g id="navigator" transform="translate(0 0)" fill="#404254">
  <rect fill="#f2f5e9" fill-opacity="0.5" stroke="#606060" stroke-width=".5" x="0" y="0" width="60" height="60"/>
  <use id="zoomplus" xlink:href="#zoomPlus" x="17" y="9" onmousedown="handleZoom(evt,'in')"/>
  <use id="zoomminus" xlink:href="#zoomMin" x="42" y="9" onmousedown="handleZoom(evt,'out')"/>
  <use id="reset" xlink:href="#resetDef" x="30" y="36" onmousedown="handleReset()"/>
   <use id="arrowup" xlink:href="#arrowUp" x="0" y="0" onmousedown="handlePan(0,-1)"/>
  <use id="arrowright" xlink:href="#arrowRight" x="0" y="0" onmousedown="handlePan(1,0)"/>
  <use id="arrowdown" xlink:href="#arrowDown" x="0" y="0" onmousedown="handlePan(0,1)"/>
  <use id="arrowleft" xlink:href="#arrowLeft" x="0" y="0" onmousedown="handlePan(-1,0)"/>
</g>
<svg viewBox="0 0 15 15" width="100%" height="30px" preserveAspectRatio="xMaxYMin meet">
 <g id="arrow_out" transform="scale(0.3 0.3)">
  <a xlink:href="structwasm_1_1GlobalTypeImpl__coll__graph_org.svg" target="_base">
   <rect id="button" ry="5" rx="5" y="6" x="6" height="38" width="38"
        fill="#f2f5e9" fill-opacity="0.5" stroke="#606060" stroke-width="1.0"/>
   <path id="arrow"
     d="M 11.500037,31.436501 C 11.940474,20.09759 22.043105,11.32322 32.158766,21.979434 L 37.068811,17.246167 C 37.068811,17.246167 37.088388,32 37.088388,32 L 22.160133,31.978069 C 22.160133,31.978069 26.997745,27.140456 26.997745,27.140456 C 18.528582,18.264221 13.291696,25.230495 11.500037,31.436501 z"
     style="fill:#404040;"/>
  </a>
 </g>
</svg>

<style type='text/css'>
<![CDATA[
[data-mouse-over-selected='false'] { opacity: 0.7; }
[data-mouse-over-selected='true']  { opacity: 1.0; }
]]>
</style>
<script type="application/ecmascript"><![CDATA[
document.addEventListener('DOMContentLoaded', (event) => {
  highlightEdges();
  highlightAdjacentNodes();
});
]]></script>
</svg>
