<?xml version="1.0" encoding="UTF-8" standalone="no"?>
<!DOCTYPE svg PUBLIC "-//W3C//DTD SVG 1.1//EN"
 "http://www.w3.org/Graphics/SVG/1.1/DTD/svg11.dtd">
<!-- Generated by graphviz version 11.0.0 (20240428.1522)
 -->
<!-- Title: v8::internal::compiler::turboshaft::v_traits&lt; Union&lt; Ts... &gt; &gt;::implicitly_constructible_from&lt; Union&lt; Us... &gt; &gt; Pages: 1 -->
<svg width="400pt" height="111pt"
 viewBox="0.00 0.00 400.00 111.00" xmlns="http://www.w3.org/2000/svg" xmlns:xlink="http://www.w3.org/1999/xlink">
<g id="graph0" class="graph" transform="scale(1 1) rotate(0) translate(4 107)">
<title>v8::internal::compiler::turboshaft::v_traits&lt; Union&lt; Ts... &gt; &gt;::implicitly_constructible_from&lt; Union&lt; Us... &gt; &gt;</title>
<!-- Node1 -->
<g id="Node000001" class="node">
<title>Node1</title>
<g id="a_Node000001"><a xlink:title=" ">
<polygon fill="#999999" stroke="none" points="392,-103 202,-103 202,0 392,0 392,-103"/>
<text text-anchor="start" x="207" y="-89.5" font-family="Cascadia Code NF" font-size="10.00">v8::internal::compiler</text>
<text text-anchor="start" x="207" y="-76.75" font-family="Cascadia Code NF" font-size="10.00">::turboshaft::v_traits</text>
<text text-anchor="start" x="207" y="-64" font-family="Cascadia Code NF" font-size="10.00">&lt; Union&lt; Ts... &gt; &gt;::implicitly</text>
<text text-anchor="start" x="207" y="-51.25" font-family="Cascadia Code NF" font-size="10.00">_constructible_from&lt; Union&lt;</text>
<text text-anchor="start" x="267" y="-38.5" font-family="Cascadia Code NF" font-size="10.00"> Us... &gt; &gt;</text>
<text text-anchor="start" x="294" y="-22.5" font-family="Cascadia Code NF" font-size="10.00"> </text>
<text text-anchor="start" x="294" y="-6.5" font-family="Cascadia Code NF" font-size="10.00"> </text>
<polygon fill="#666666" stroke="#666666" points="202,-34 202,-34 392,-34 392,-34 202,-34"/>
<polygon fill="#666666" stroke="#666666" points="202,-18 202,-18 392,-18 392,-18 202,-18"/>
<polygon fill="none" stroke="#666666" points="202,0 202,-103 392,-103 392,0 202,0"/>
</a>
</g>
</g>
<!-- Node2 -->
<g id="Node000002" class="node">
<title>Node2</title>
<g id="a_Node000002"><a xlink:title=" ">
<polygon fill="white" stroke="none" points="166,-90.5 0,-90.5 0,-12.5 166,-12.5 166,-90.5"/>
<text text-anchor="start" x="5" y="-77" font-family="Cascadia Code NF" font-size="10.00">std::bool_constant</text>
<text text-anchor="start" x="5" y="-64.25" font-family="Cascadia Code NF" font-size="10.00">&lt;(implicitly_constructible</text>
<text text-anchor="start" x="5" y="-51.5" font-family="Cascadia Code NF" font-size="10.00">_from&lt; Us &gt;::value &amp;&amp;...)&gt;</text>
<text text-anchor="start" x="80" y="-35" font-family="Cascadia Code NF" font-size="10.00"> </text>
<text text-anchor="start" x="80" y="-19" font-family="Cascadia Code NF" font-size="10.00"> </text>
<polygon fill="#bfbfbf" stroke="#bfbfbf" points="0,-46.5 0,-46.5 166,-46.5 166,-46.5 0,-46.5"/>
<polygon fill="#bfbfbf" stroke="#bfbfbf" points="0,-30.5 0,-30.5 166,-30.5 166,-30.5 0,-30.5"/>
<polygon fill="none" stroke="#bfbfbf" points="0,-12.5 0,-90.5 166,-90.5 166,-12.5 0,-12.5"/>
</a>
</g>
</g>
<!-- Node2&#45;&gt;Node1 -->
<g id="edge1_Node000001_Node000002" class="edge">
<title>Node2&#45;&gt;Node1</title>
<g id="a_edge1_Node000001_Node000002"><a xlink:title=" ">
<path fill="none" stroke="#63b8ff" d="M177.21,-51.5C185.52,-51.5 193.94,-51.5 202.25,-51.5"/>
<polygon fill="none" stroke="#63b8ff" points="177.48,-48 167.48,-51.5 177.48,-55 177.48,-48"/>
</a>
</g>
</g>
</g>
</svg>
