<?xml version="1.0" encoding="UTF-8" standalone="no"?>
<!DOCTYPE svg PUBLIC "-//W3C//DTD SVG 1.1//EN"
 "http://www.w3.org/Graphics/SVG/1.1/DTD/svg11.dtd">
<!-- Generated by graphviz version 11.0.0 (20240428.1522)
 -->
<!-- Title: v8::internal::InternalFrame Pages: 1 -->
<svg width="1006pt" height="409pt"
 viewBox="0.00 0.00 1006.00 409.00" xmlns="http://www.w3.org/2000/svg" xmlns:xlink="http://www.w3.org/1999/xlink">
<g id="graph0" class="graph" transform="scale(1 1) rotate(0) translate(4 405)">
<title>v8::internal::InternalFrame</title>
<!-- Node1 -->
<g id="Node000001" class="node">
<title>Node1</title>
<g id="a_Node000001"><a xlink:title=" ">
<polygon fill="#999999" stroke="none" points="998,-250.5 826,-250.5 826,-150.5 998,-150.5 998,-250.5"/>
<text text-anchor="start" x="831" y="-237" font-family="Cascadia Code NF" font-size="10.00">v8::internal::InternalFrame</text>
<text text-anchor="start" x="909" y="-221" font-family="Cascadia Code NF" font-size="10.00"> </text>
<text text-anchor="start" x="846" y="-205" font-family="Cascadia Code NF" font-size="10.00">+</text>
<text text-anchor="start" x="872" y="-205" font-family="Cascadia Code NF" font-size="10.00">type()</text>
<text text-anchor="start" x="846" y="-189" font-family="Cascadia Code NF" font-size="10.00">+</text>
<text text-anchor="start" x="872" y="-189" font-family="Cascadia Code NF" font-size="10.00">Iterate()</text>
<text text-anchor="start" x="846" y="-173" font-family="Cascadia Code NF" font-size="10.00">+</text>
<text text-anchor="start" x="872" y="-173" font-family="Cascadia Code NF" font-size="10.00">cast()</text>
<text text-anchor="start" x="846" y="-157" font-family="Cascadia Code NF" font-size="10.00">#</text>
<text text-anchor="start" x="872" y="-157" font-family="Cascadia Code NF" font-size="10.00">InternalFrame()</text>
<polygon fill="#666666" stroke="#666666" points="826,-232.5 826,-232.5 998,-232.5 998,-232.5 826,-232.5"/>
<polygon fill="#666666" stroke="#666666" points="826,-216.5 826,-216.5 998,-216.5 998,-216.5 826,-216.5"/>
<polygon fill="none" stroke="#666666" points="826,-150.5 826,-250.5 998,-250.5 998,-150.5 826,-150.5"/>
</a>
</g>
</g>
<!-- Node2 -->
<g id="Node000002" class="node">
<title>Node2</title>
<g id="a_Node000002"><a xlink:href="../../db/dfe/classv8_1_1internal_1_1TypedFrame.html" target="_top" xlink:title=" ">
<polygon fill="white" stroke="none" points="790,-250.5 580,-250.5 580,-150.5 790,-150.5 790,-250.5"/>
<text text-anchor="start" x="613" y="-237" font-family="Cascadia Code NF" font-size="10.00">v8::internal::TypedFrame</text>
<text text-anchor="start" x="682" y="-221" font-family="Cascadia Code NF" font-size="10.00"> </text>
<text text-anchor="start" x="584" y="-205" font-family="Cascadia Code NF" font-size="10.00">+</text>
<text text-anchor="start" x="594" y="-205" font-family="Cascadia Code NF" font-size="10.00">unchecked_code()</text>
<text text-anchor="start" x="584" y="-189" font-family="Cascadia Code NF" font-size="10.00">+</text>
<text text-anchor="start" x="594" y="-189" font-family="Cascadia Code NF" font-size="10.00">Iterate()</text>
<text text-anchor="start" x="584" y="-173" font-family="Cascadia Code NF" font-size="10.00">+</text>
<text text-anchor="start" x="594" y="-173" font-family="Cascadia Code NF" font-size="10.00">IterateParamsOfWasmToJSWrapper()</text>
<text text-anchor="start" x="584" y="-157" font-family="Cascadia Code NF" font-size="10.00">#</text>
<text text-anchor="start" x="594" y="-157" font-family="Cascadia Code NF" font-size="10.00">TypedFrame()</text>
<polygon fill="#bfbfbf" stroke="#bfbfbf" points="580,-232.5 580,-232.5 790,-232.5 790,-232.5 580,-232.5"/>
<polygon fill="#bfbfbf" stroke="#bfbfbf" points="580,-216.5 580,-216.5 790,-216.5 790,-216.5 580,-216.5"/>
<polygon fill="none" stroke="#bfbfbf" points="580,-150.5 580,-250.5 790,-250.5 790,-150.5 580,-150.5"/>
</a>
</g>
</g>
<!-- Node2&#45;&gt;Node1 -->
<g id="edge1_Node000001_Node000002" class="edge">
<title>Node2&#45;&gt;Node1</title>
<g id="a_edge1_Node000001_Node000002"><a xlink:title=" ">
<path fill="none" stroke="#63b8ff" d="M801.29,-200.5C809.63,-200.5 817.94,-200.5 826.04,-200.5"/>
<polygon fill="none" stroke="#63b8ff" points="801.45,-197 791.45,-200.5 801.45,-204 801.45,-197"/>
</a>
</g>
</g>
<!-- Node3 -->
<g id="Node000003" class="node">
<title>Node3</title>
<g id="a_Node000003"><a xlink:href="../../d1/d1f/classv8_1_1internal_1_1CommonFrame.html" target="_top" xlink:title=" ">
<polygon fill="white" stroke="none" points="544,-353 376,-353 376,-48 544,-48 544,-353"/>
<text text-anchor="start" x="385" y="-339.5" font-family="Cascadia Code NF" font-size="10.00">v8::internal::CommonFrame</text>
<text text-anchor="start" x="457" y="-323.5" font-family="Cascadia Code NF" font-size="10.00"> </text>
<text text-anchor="start" x="380" y="-307.5" font-family="Cascadia Code NF" font-size="10.00">+</text>
<text text-anchor="start" x="390" y="-307.5" font-family="Cascadia Code NF" font-size="10.00">context()</text>
<text text-anchor="start" x="380" y="-291.5" font-family="Cascadia Code NF" font-size="10.00">+</text>
<text text-anchor="start" x="390" y="-291.5" font-family="Cascadia Code NF" font-size="10.00">position()</text>
<text text-anchor="start" x="380" y="-275.5" font-family="Cascadia Code NF" font-size="10.00">+</text>
<text text-anchor="start" x="390" y="-275.5" font-family="Cascadia Code NF" font-size="10.00">GetExpression()</text>
<text text-anchor="start" x="380" y="-259.5" font-family="Cascadia Code NF" font-size="10.00">+</text>
<text text-anchor="start" x="390" y="-259.5" font-family="Cascadia Code NF" font-size="10.00">SetExpression()</text>
<text text-anchor="start" x="380" y="-243.5" font-family="Cascadia Code NF" font-size="10.00">+</text>
<text text-anchor="start" x="390" y="-243.5" font-family="Cascadia Code NF" font-size="10.00">ComputeExpressionsCount()</text>
<text text-anchor="start" x="380" y="-227.5" font-family="Cascadia Code NF" font-size="10.00">+</text>
<text text-anchor="start" x="390" y="-227.5" font-family="Cascadia Code NF" font-size="10.00">GetCallerStackPointer()</text>
<text text-anchor="start" x="380" y="-211.5" font-family="Cascadia Code NF" font-size="10.00">+</text>
<text text-anchor="start" x="390" y="-211.5" font-family="Cascadia Code NF" font-size="10.00">Summarize()</text>
<text text-anchor="start" x="380" y="-195.5" font-family="Cascadia Code NF" font-size="10.00">+</text>
<text text-anchor="start" x="390" y="-195.5" font-family="Cascadia Code NF" font-size="10.00">cast()</text>
<text text-anchor="start" x="380" y="-179.5" font-family="Cascadia Code NF" font-size="10.00">#</text>
<text text-anchor="start" x="390" y="-179.5" font-family="Cascadia Code NF" font-size="10.00">CommonFrame()</text>
<text text-anchor="start" x="380" y="-163.5" font-family="Cascadia Code NF" font-size="10.00">#</text>
<text text-anchor="start" x="390" y="-163.5" font-family="Cascadia Code NF" font-size="10.00">HasTaggedOutgoingParams()</text>
<text text-anchor="start" x="380" y="-147.5" font-family="Cascadia Code NF" font-size="10.00">#</text>
<text text-anchor="start" x="390" y="-147.5" font-family="Cascadia Code NF" font-size="10.00">ComputeCallerState()</text>
<text text-anchor="start" x="380" y="-131.5" font-family="Cascadia Code NF" font-size="10.00">#</text>
<text text-anchor="start" x="390" y="-131.5" font-family="Cascadia Code NF" font-size="10.00">caller_fp()</text>
<text text-anchor="start" x="380" y="-115.5" font-family="Cascadia Code NF" font-size="10.00">#</text>
<text text-anchor="start" x="390" y="-115.5" font-family="Cascadia Code NF" font-size="10.00">caller_pc()</text>
<text text-anchor="start" x="380" y="-99.5" font-family="Cascadia Code NF" font-size="10.00">#</text>
<text text-anchor="start" x="390" y="-99.5" font-family="Cascadia Code NF" font-size="10.00">IterateExpressions()</text>
<text text-anchor="start" x="380" y="-83.5" font-family="Cascadia Code NF" font-size="10.00">#</text>
<text text-anchor="start" x="390" y="-83.5" font-family="Cascadia Code NF" font-size="10.00">IterateTurbofanOptimized</text>
<text text-anchor="start" x="390" y="-70.75" font-family="Cascadia Code NF" font-size="10.00">Frame()</text>
<text text-anchor="start" x="380" y="-54.5" font-family="Cascadia Code NF" font-size="10.00">#</text>
<text text-anchor="start" x="390" y="-54.5" font-family="Cascadia Code NF" font-size="10.00">GetExpressionAddress()</text>
<polygon fill="#bfbfbf" stroke="#bfbfbf" points="376,-335 376,-335 544,-335 544,-335 376,-335"/>
<polygon fill="#bfbfbf" stroke="#bfbfbf" points="376,-319 376,-319 544,-319 544,-319 376,-319"/>
<polygon fill="none" stroke="#bfbfbf" points="376,-48 376,-353 544,-353 544,-48 376,-48"/>
</a>
</g>
</g>
<!-- Node3&#45;&gt;Node2 -->
<g id="edge2_Node000002_Node000003" class="edge">
<title>Node3&#45;&gt;Node2</title>
<g id="a_edge2_Node000002_Node000003"><a xlink:title=" ">
<path fill="none" stroke="#63b8ff" d="M555,-200.5C563.34,-200.5 571.81,-200.5 580.23,-200.5"/>
<polygon fill="none" stroke="#63b8ff" points="555.23,-197 545.23,-200.5 555.23,-204 555.23,-197"/>
</a>
</g>
</g>
<!-- Node4 -->
<g id="Node000004" class="node">
<title>Node4</title>
<g id="a_Node000004"><a xlink:href="../../d0/d2d/classv8_1_1internal_1_1StackFrame.html" target="_top" xlink:title=" ">
<polygon fill="white" stroke="none" points="340,-401 142,-401 142,0 340,0 340,-401"/>
<text text-anchor="start" x="169" y="-387.5" font-family="Cascadia Code NF" font-size="10.00">v8::internal::StackFrame</text>
<text text-anchor="start" x="238" y="-371.5" font-family="Cascadia Code NF" font-size="10.00"> </text>
<text text-anchor="start" x="146" y="-355.5" font-family="Cascadia Code NF" font-size="10.00">+</text>
<text text-anchor="start" x="156" y="-355.5" font-family="Cascadia Code NF" font-size="10.00">StackFrame()</text>
<text text-anchor="start" x="146" y="-339.5" font-family="Cascadia Code NF" font-size="10.00">+</text>
<text text-anchor="start" x="156" y="-339.5" font-family="Cascadia Code NF" font-size="10.00">is_entry()</text>
<text text-anchor="start" x="146" y="-323.5" font-family="Cascadia Code NF" font-size="10.00">+</text>
<text text-anchor="start" x="156" y="-323.5" font-family="Cascadia Code NF" font-size="10.00">is_construct_entry()</text>
<text text-anchor="start" x="146" y="-307.5" font-family="Cascadia Code NF" font-size="10.00">+</text>
<text text-anchor="start" x="156" y="-307.5" font-family="Cascadia Code NF" font-size="10.00">is_exit()</text>
<text text-anchor="start" x="146" y="-291.5" font-family="Cascadia Code NF" font-size="10.00">+</text>
<text text-anchor="start" x="156" y="-291.5" font-family="Cascadia Code NF" font-size="10.00">is_optimized()</text>
<text text-anchor="start" x="146" y="-275.5" font-family="Cascadia Code NF" font-size="10.00">+</text>
<text text-anchor="start" x="156" y="-275.5" font-family="Cascadia Code NF" font-size="10.00">is_unoptimized()</text>
<text text-anchor="start" x="146" y="-259.5" font-family="Cascadia Code NF" font-size="10.00">+</text>
<text text-anchor="start" x="156" y="-259.5" font-family="Cascadia Code NF" font-size="10.00">is_interpreted()</text>
<text text-anchor="start" x="146" y="-243.5" font-family="Cascadia Code NF" font-size="10.00">+</text>
<text text-anchor="start" x="156" y="-243.5" font-family="Cascadia Code NF" font-size="10.00">is_baseline()</text>
<text text-anchor="start" x="146" y="-227.5" font-family="Cascadia Code NF" font-size="10.00">+</text>
<text text-anchor="start" x="156" y="-227.5" font-family="Cascadia Code NF" font-size="10.00">is_maglev()</text>
<text text-anchor="start" x="146" y="-211.5" font-family="Cascadia Code NF" font-size="10.00">+</text>
<text text-anchor="start" x="156" y="-211.5" font-family="Cascadia Code NF" font-size="10.00">is_turbofan()</text>
<text text-anchor="start" x="156" y="-195.5" font-family="Cascadia Code NF" font-size="10.00">and 35 more...</text>
<text text-anchor="start" x="146" y="-179.5" font-family="Cascadia Code NF" font-size="10.00">+</text>
<text text-anchor="start" x="156" y="-179.5" font-family="Cascadia Code NF" font-size="10.00">TypeToMarker()</text>
<text text-anchor="start" x="146" y="-163.5" font-family="Cascadia Code NF" font-size="10.00">+</text>
<text text-anchor="start" x="156" y="-163.5" font-family="Cascadia Code NF" font-size="10.00">MarkerToType()</text>
<text text-anchor="start" x="146" y="-147.5" font-family="Cascadia Code NF" font-size="10.00">+</text>
<text text-anchor="start" x="156" y="-147.5" font-family="Cascadia Code NF" font-size="10.00">IsTypeMarker()</text>
<text text-anchor="start" x="146" y="-131.5" font-family="Cascadia Code NF" font-size="10.00">+</text>
<text text-anchor="start" x="156" y="-131.5" font-family="Cascadia Code NF" font-size="10.00">IsJavaScript()</text>
<text text-anchor="start" x="146" y="-115.5" font-family="Cascadia Code NF" font-size="10.00">+</text>
<text text-anchor="start" x="156" y="-115.5" font-family="Cascadia Code NF" font-size="10.00">unauthenticated_pc()</text>
<text text-anchor="start" x="146" y="-99.5" font-family="Cascadia Code NF" font-size="10.00">+</text>
<text text-anchor="start" x="156" y="-99.5" font-family="Cascadia Code NF" font-size="10.00">maybe_unauthenticated_pc()</text>
<text text-anchor="start" x="146" y="-83.5" font-family="Cascadia Code NF" font-size="10.00">+</text>
<text text-anchor="start" x="156" y="-83.5" font-family="Cascadia Code NF" font-size="10.00">SetReturnAddressLocation</text>
<text text-anchor="start" x="156" y="-70.75" font-family="Cascadia Code NF" font-size="10.00">Resolver()</text>
<text text-anchor="start" x="146" y="-54.5" font-family="Cascadia Code NF" font-size="10.00">+</text>
<text text-anchor="start" x="156" y="-54.5" font-family="Cascadia Code NF" font-size="10.00">ReadPC()</text>
<text text-anchor="start" x="146" y="-38.5" font-family="Cascadia Code NF" font-size="10.00">+</text>
<text text-anchor="start" x="156" y="-38.5" font-family="Cascadia Code NF" font-size="10.00">ResolveReturnAddressLocation()</text>
<text text-anchor="start" x="146" y="-22.5" font-family="Cascadia Code NF" font-size="10.00">#</text>
<text text-anchor="start" x="156" y="-22.5" font-family="Cascadia Code NF" font-size="10.00">StackFrame()</text>
<text text-anchor="start" x="146" y="-6.5" font-family="Cascadia Code NF" font-size="10.00">#</text>
<text text-anchor="start" x="156" y="-6.5" font-family="Cascadia Code NF" font-size="10.00">GetCallerStackPointer()</text>
<polygon fill="#bfbfbf" stroke="#bfbfbf" points="142,-383 142,-383 340,-383 340,-383 142,-383"/>
<polygon fill="#bfbfbf" stroke="#bfbfbf" points="142,-367 142,-367 340,-367 340,-367 142,-367"/>
<polygon fill="none" stroke="#bfbfbf" points="142,0 142,-401 340,-401 340,0 142,0"/>
</a>
</g>
</g>
<!-- Node4&#45;&gt;Node3 -->
<g id="edge3_Node000003_Node000004" class="edge">
<title>Node4&#45;&gt;Node3</title>
<g id="a_edge3_Node000003_Node000004"><a xlink:title=" ">
<path fill="none" stroke="#63b8ff" d="M351.13,-200.5C359.52,-200.5 367.91,-200.5 376.09,-200.5"/>
<polygon fill="none" stroke="#63b8ff" points="351.22,-197 341.22,-200.5 351.22,-204 351.22,-197"/>
</a>
</g>
</g>
<!-- Node5 -->
<g id="Node000005" class="node">
<title>Node5</title>
<g id="a_Node000005"><a xlink:title=" ">
<polygon fill="white" stroke="none" points="40,-226.5 0,-226.5 0,-174.5 40,-174.5 40,-226.5"/>
<text text-anchor="start" x="5" y="-213" font-family="Cascadia Code NF" font-size="10.00">const</text>
<text text-anchor="start" x="17" y="-197" font-family="Cascadia Code NF" font-size="10.00"> </text>
<text text-anchor="start" x="17" y="-181" font-family="Cascadia Code NF" font-size="10.00"> </text>
<polygon fill="#bfbfbf" stroke="#bfbfbf" points="0,-208.5 0,-208.5 40,-208.5 40,-208.5 0,-208.5"/>
<polygon fill="#bfbfbf" stroke="#bfbfbf" points="0,-192.5 0,-192.5 40,-192.5 40,-192.5 0,-192.5"/>
<polygon fill="none" stroke="#bfbfbf" points="0,-174.5 0,-226.5 40,-226.5 40,-174.5 0,-174.5"/>
</a>
</g>
</g>
<!-- Node5&#45;&gt;Node4 -->
<g id="edge4_Node000004_Node000005" class="edge">
<title>Node5&#45;&gt;Node4</title>
<g id="a_edge4_Node000004_Node000005"><a xlink:title=" ">
<path fill="none" stroke="#63b8ff" d="M39.67,-200.5C60.12,-200.5 94.65,-200.5 129.34,-200.5"/>
<polygon fill="none" stroke="#63b8ff" points="129.2,-200.5 135.2,-196.5 141.2,-200.5 135.2,-204.5 129.2,-200.5"/>
</a>
</g>
<text text-anchor="middle" x="91" y="-203.75" font-family="Cascadia Code NF" font-size="10.00" fill="grey"> #iterator_</text>
</g>
</g>
</svg>
