<?xml version="1.0" encoding="UTF-8" standalone="no"?>
<!DOCTYPE svg PUBLIC "-//W3C//DTD SVG 1.1//EN"
 "http://www.w3.org/Graphics/SVG/1.1/DTD/svg11.dtd">
<!-- Generated by graphviz version 11.0.0 (20240428.1522)
 -->
<!-- Title: v8::internal::Handle&lt; T &gt; Pages: 1 -->
<!--zoomable 252 -->

<svg id="main" version="1.1" xmlns="http://www.w3.org/2000/svg" xmlns:xlink="http://www.w3.org/1999/xlink" xml:space="preserve" onload="init(evt)">
<style type="text/css"><![CDATA[
.node, .edge {opacity: 0.7;}
.node.selected, .edge.selected {opacity: 1;}
.edge:hover path { stroke: red; }
.edge:hover polygon { stroke: red; fill: red; }
svg#main { background-color: #111; }
]]></style>

<defs>
  <circle id="rim" cx="0" cy="0" r="7"/>
  <circle id="rim2" cx="0" cy="0" r="3.5"/>
  <g id="zoomPlus">
    <use xlink:href="#rim" fill="#404040"><set attributeName="fill" to="#808080" begin="zoomplus.mouseover" end="zoomplus.mouseout"/></use>
    <path d="M-4,0h8M0,-4v8" fill="none" stroke="white" stroke-width="1.5" pointer-events="none"/>
  </g>
  <g id="zoomMin">
    <use xlink:href="#rim" fill="#404040"><set attributeName="fill" to="#808080" begin="zoomminus.mouseover" end="zoomminus.mouseout"/></use>
    <path d="M-4,0h8" fill="none" stroke="white" stroke-width="1.5" pointer-events="none"/>
  </g>
  <g id="arrowUp" transform="translate(30 24)">
    <use xlink:href="#rim"/>
    <path pointer-events="none" fill="none" stroke="white" stroke-width="1.5" d="M0,-3.0v7 M-2.5,-0.5L0,-3.0L2.5,-0.5"/>
  </g>
  <g id="arrowRight" transform="rotate(90) translate(36 -43)">
    <use xlink:href="#rim"/>
    <path pointer-events="none" fill="none" stroke="white" stroke-width="1.5" d="M0,-3.0v7 M-2.5,-0.5L0,-3.0L2.5,-0.5"/>
  </g>
  <g id="arrowDown" transform="rotate(180) translate(-30 -48)">
    <use xlink:href="#rim"/>
    <path pointer-events="none" fill="none" stroke="white" stroke-width="1.5" d="M0,-3.0v7 M-2.5,-0.5L0,-3.0L2.5,-0.5"/>
  </g>
  <g id="arrowLeft" transform="rotate(270) translate(-36 17)">
    <use xlink:href="#rim"/>
    <path pointer-events="none" fill="none" stroke="white" stroke-width="1.5" d="M0,-3.0v7 M-2.5,-0.5L0,-3.0L2.5,-0.5"/>
  </g>
  <g id="resetDef">
    <use xlink:href="#rim2" fill="#404040"><set attributeName="fill" to="#808080" begin="reset.mouseover" end="reset.mouseout"/></use>
  </g>
</defs>
<script type="application/ecmascript">
var viewWidth = 524;
var viewHeight = 252;
var sectionId = 'dynsection-1';
</script>
<script type="application/ecmascript" xlink:href="../../svg.min.js"/>
<svg id="graph" class="graph">
<g id="viewport">
<title>v8::internal::Handle&lt; T &gt;</title>
<!-- Node1 -->
<g id="Node000001" class="node">
<title>Node1</title>
<g id="a_Node000001"><a xlink:title=" ">
<polygon fill="#999999" stroke="none" points="516,-244 356,-244 356,0 516,0 516,-244"/>
<text text-anchor="start" x="361" y="-230.5" font-family="Cascadia Code NF" font-size="10.00">v8::internal::Handle&lt; T &gt;</text>
<text text-anchor="start" x="433" y="-214.5" font-family="Cascadia Code NF" font-size="10.00"> </text>
<text text-anchor="start" x="377.5" y="-198.5" font-family="Cascadia Code NF" font-size="10.00">+</text>
<text text-anchor="start" x="405" y="-198.5" font-family="Cascadia Code NF" font-size="10.00">Handle()</text>
<text text-anchor="start" x="377.5" y="-182.5" font-family="Cascadia Code NF" font-size="10.00">+</text>
<text text-anchor="start" x="405" y="-182.5" font-family="Cascadia Code NF" font-size="10.00">Handle()</text>
<text text-anchor="start" x="377.5" y="-166.5" font-family="Cascadia Code NF" font-size="10.00">+</text>
<text text-anchor="start" x="405" y="-166.5" font-family="Cascadia Code NF" font-size="10.00">Handle()</text>
<text text-anchor="start" x="377.5" y="-150.5" font-family="Cascadia Code NF" font-size="10.00">+</text>
<text text-anchor="start" x="405" y="-150.5" font-family="Cascadia Code NF" font-size="10.00">Handle()</text>
<text text-anchor="start" x="377.5" y="-134.5" font-family="Cascadia Code NF" font-size="10.00">+</text>
<text text-anchor="start" x="405" y="-134.5" font-family="Cascadia Code NF" font-size="10.00">Handle()</text>
<text text-anchor="start" x="377.5" y="-118.5" font-family="Cascadia Code NF" font-size="10.00">+</text>
<text text-anchor="start" x="405" y="-118.5" font-family="Cascadia Code NF" font-size="10.00">Handle()</text>
<text text-anchor="start" x="377.5" y="-102.5" font-family="Cascadia Code NF" font-size="10.00">+</text>
<text text-anchor="start" x="405" y="-102.5" font-family="Cascadia Code NF" font-size="10.00">operator&#45;&gt;()</text>
<text text-anchor="start" x="377.5" y="-86.5" font-family="Cascadia Code NF" font-size="10.00">+</text>
<text text-anchor="start" x="405" y="-86.5" font-family="Cascadia Code NF" font-size="10.00">operator*()</text>
<text text-anchor="start" x="377.5" y="-70.5" font-family="Cascadia Code NF" font-size="10.00">+</text>
<text text-anchor="start" x="405" y="-70.5" font-family="Cascadia Code NF" font-size="10.00">equals()</text>
<text text-anchor="start" x="377.5" y="-54.5" font-family="Cascadia Code NF" font-size="10.00">+</text>
<text text-anchor="start" x="405" y="-54.5" font-family="Cascadia Code NF" font-size="10.00">PatchValue()</text>
<text text-anchor="start" x="377.5" y="-38.5" font-family="Cascadia Code NF" font-size="10.00">+</text>
<text text-anchor="start" x="405" y="-38.5" font-family="Cascadia Code NF" font-size="10.00">New()</text>
<text text-anchor="start" x="377.5" y="-22.5" font-family="Cascadia Code NF" font-size="10.00">+</text>
<text text-anchor="start" x="405" y="-22.5" font-family="Cascadia Code NF" font-size="10.00">cast()</text>
<text text-anchor="start" x="377.5" y="-6.5" font-family="Cascadia Code NF" font-size="10.00">+</text>
<text text-anchor="start" x="405" y="-6.5" font-family="Cascadia Code NF" font-size="10.00">null()</text>
<polygon fill="#666666" stroke="#666666" points="356,-226 356,-226 516,-226 516,-226 356,-226"/>
<polygon fill="#666666" stroke="#666666" points="356,-210 356,-210 516,-210 516,-210 356,-210"/>
<polygon fill="none" stroke="#666666" points="356,0 356,-244 516,-244 516,0 356,0"/>
</a>
</g>
</g>
<!-- Node2 -->
<g id="Node000002" class="node">
<title>Node2</title>
<g id="a_Node000002"><a xlink:href="../../d7/d65/classv8_1_1internal_1_1HandleBase.html" target="_top" xlink:title=" ">
<polygon fill="white" stroke="none" points="320,-212 166,-212 166,-32 320,-32 320,-212"/>
<text text-anchor="start" x="171" y="-198.5" font-family="Cascadia Code NF" font-size="10.00">v8::internal::HandleBase</text>
<text text-anchor="start" x="240" y="-182.5" font-family="Cascadia Code NF" font-size="10.00"> </text>
<text text-anchor="start" x="171" y="-166.5" font-family="Cascadia Code NF" font-size="10.00">+</text>
<text text-anchor="start" x="182" y="-166.5" font-family="Cascadia Code NF" font-size="10.00">is_identical_to()</text>
<text text-anchor="start" x="171" y="-150.5" font-family="Cascadia Code NF" font-size="10.00">+</text>
<text text-anchor="start" x="182" y="-150.5" font-family="Cascadia Code NF" font-size="10.00">is_null()</text>
<text text-anchor="start" x="171" y="-134.5" font-family="Cascadia Code NF" font-size="10.00">+</text>
<text text-anchor="start" x="182" y="-134.5" font-family="Cascadia Code NF" font-size="10.00">address()</text>
<text text-anchor="start" x="171" y="-118.5" font-family="Cascadia Code NF" font-size="10.00">+</text>
<text text-anchor="start" x="182" y="-118.5" font-family="Cascadia Code NF" font-size="10.00">location()</text>
<text text-anchor="start" x="171" y="-102.5" font-family="Cascadia Code NF" font-size="10.00">#</text>
<text text-anchor="start" x="182" y="-102.5" font-family="Cascadia Code NF" font-size="10.00">HandleBase()</text>
<text text-anchor="start" x="171" y="-86.5" font-family="Cascadia Code NF" font-size="10.00">#</text>
<text text-anchor="start" x="182" y="-86.5" font-family="Cascadia Code NF" font-size="10.00">HandleBase()</text>
<text text-anchor="start" x="171" y="-70.5" font-family="Cascadia Code NF" font-size="10.00">#</text>
<text text-anchor="start" x="182" y="-70.5" font-family="Cascadia Code NF" font-size="10.00">HandleBase()</text>
<text text-anchor="start" x="171" y="-54.5" font-family="Cascadia Code NF" font-size="10.00">#</text>
<text text-anchor="start" x="182" y="-54.5" font-family="Cascadia Code NF" font-size="10.00">HandleBase()</text>
<text text-anchor="start" x="171" y="-38.5" font-family="Cascadia Code NF" font-size="10.00">#</text>
<text text-anchor="start" x="182" y="-38.5" font-family="Cascadia Code NF" font-size="10.00">IsDereferenceAllowed()</text>
<polygon fill="#bfbfbf" stroke="#bfbfbf" points="166,-194 166,-194 320,-194 320,-194 166,-194"/>
<polygon fill="#bfbfbf" stroke="#bfbfbf" points="166,-178 166,-178 320,-178 320,-178 166,-178"/>
<polygon fill="none" stroke="#bfbfbf" points="166,-32 166,-212 320,-212 320,-32 166,-32"/>
</a>
</g>
</g>
<!-- Node2&#45;&gt;Node1 -->
<g id="edge1_Node000001_Node000002" class="edge">
<title>Node2&#45;&gt;Node1</title>
<g id="a_edge1_Node000001_Node000002"><a xlink:title=" ">
<path fill="none" stroke="#63b8ff" d="M331.09,-122C339.46,-122 347.91,-122 356.2,-122"/>
<polygon fill="none" stroke="#63b8ff" points="331.28,-118.5 321.28,-122 331.28,-125.5 331.28,-118.5"/>
</a>
</g>
</g>
<!-- Node3 -->
<g id="Node000003" class="node">
<title>Node3</title>
<g id="a_Node000003"><a xlink:href="../../d0/d60/classuintptr__t.html" target="_top" xlink:title=" ">
<polygon fill="white" stroke="none" points="64,-148 0,-148 0,-96 64,-96 64,-148"/>
<text text-anchor="start" x="5" y="-134.5" font-family="Cascadia Code NF" font-size="10.00">uintptr_t</text>
<text text-anchor="start" x="29" y="-118.5" font-family="Cascadia Code NF" font-size="10.00"> </text>
<text text-anchor="start" x="29" y="-102.5" font-family="Cascadia Code NF" font-size="10.00"> </text>
<polygon fill="#bfbfbf" stroke="#bfbfbf" points="0,-130 0,-130 64,-130 64,-130 0,-130"/>
<polygon fill="#bfbfbf" stroke="#bfbfbf" points="0,-114 0,-114 64,-114 64,-114 0,-114"/>
<polygon fill="none" stroke="#bfbfbf" points="0,-96 0,-148 64,-148 64,-96 0,-96"/>
</a>
</g>
</g>
<!-- Node3&#45;&gt;Node2 -->
<g id="edge2_Node000002_Node000003" class="edge">
<title>Node3&#45;&gt;Node2</title>
<g id="a_edge2_Node000002_Node000003"><a xlink:title=" ">
<path fill="none" stroke="#63b8ff" d="M63.84,-122C87.49,-122 121.39,-122 153.28,-122"/>
<polygon fill="none" stroke="#63b8ff" points="153.41,-122 159.41,-118 165.41,-122 159.41,-126 153.41,-122"/>
</a>
</g>
<text text-anchor="middle" x="115" y="-125.25" font-family="Cascadia Code NF" font-size="10.00" fill="grey"> #location_</text>
</g>
</g>
</svg>

<g id="navigator" transform="translate(0 0)" fill="#404254">
  <rect fill="#f2f5e9" fill-opacity="0.5" stroke="#606060" stroke-width=".5" x="0" y="0" width="60" height="60"/>
  <use id="zoomplus" xlink:href="#zoomPlus" x="17" y="9" onmousedown="handleZoom(evt,'in')"/>
  <use id="zoomminus" xlink:href="#zoomMin" x="42" y="9" onmousedown="handleZoom(evt,'out')"/>
  <use id="reset" xlink:href="#resetDef" x="30" y="36" onmousedown="handleReset()"/>
   <use id="arrowup" xlink:href="#arrowUp" x="0" y="0" onmousedown="handlePan(0,-1)"/>
  <use id="arrowright" xlink:href="#arrowRight" x="0" y="0" onmousedown="handlePan(1,0)"/>
  <use id="arrowdown" xlink:href="#arrowDown" x="0" y="0" onmousedown="handlePan(0,1)"/>
  <use id="arrowleft" xlink:href="#arrowLeft" x="0" y="0" onmousedown="handlePan(-1,0)"/>
</g>
<svg viewBox="0 0 15 15" width="100%" height="30px" preserveAspectRatio="xMaxYMin meet">
 <g id="arrow_out" transform="scale(0.3 0.3)">
  <a xlink:href="classv8_1_1internal_1_1Handle__coll__graph_org.svg" target="_base">
   <rect id="button" ry="5" rx="5" y="6" x="6" height="38" width="38"
        fill="#f2f5e9" fill-opacity="0.5" stroke="#606060" stroke-width="1.0"/>
   <path id="arrow"
     d="M 11.500037,31.436501 C 11.940474,20.09759 22.043105,11.32322 32.158766,21.979434 L 37.068811,17.246167 C 37.068811,17.246167 37.088388,32 37.088388,32 L 22.160133,31.978069 C 22.160133,31.978069 26.997745,27.140456 26.997745,27.140456 C 18.528582,18.264221 13.291696,25.230495 11.500037,31.436501 z"
     style="fill:#404040;"/>
  </a>
 </g>
</svg>

<style type='text/css'>
<![CDATA[
[data-mouse-over-selected='false'] { opacity: 0.7; }
[data-mouse-over-selected='true']  { opacity: 1.0; }
]]>
</style>
<script type="application/ecmascript"><![CDATA[
document.addEventListener('DOMContentLoaded', (event) => {
  highlightEdges();
  highlightAdjacentNodes();
});
]]></script>
</svg>
