<?xml version="1.0" encoding="UTF-8" standalone="no"?>
<!DOCTYPE svg PUBLIC "-//W3C//DTD SVG 1.1//EN"
 "http://www.w3.org/Graphics/SVG/1.1/DTD/svg11.dtd">
<!-- Generated by graphviz version 11.0.0 (20240428.1522)
 -->
<!-- Title: v8::internal::SnapshotData Pages: 1 -->
<!--zoomable 306 -->

<svg id="main" version="1.1" xmlns="http://www.w3.org/2000/svg" xmlns:xlink="http://www.w3.org/1999/xlink" xml:space="preserve" onload="init(evt)">
<style type="text/css"><![CDATA[
.node, .edge {opacity: 0.7;}
.node.selected, .edge.selected {opacity: 1;}
.edge:hover path { stroke: red; }
.edge:hover polygon { stroke: red; fill: red; }
svg#main { background-color: #111; }
]]></style>

<defs>
  <circle id="rim" cx="0" cy="0" r="7"/>
  <circle id="rim2" cx="0" cy="0" r="3.5"/>
  <g id="zoomPlus">
    <use xlink:href="#rim" fill="#404040"><set attributeName="fill" to="#808080" begin="zoomplus.mouseover" end="zoomplus.mouseout"/></use>
    <path d="M-4,0h8M0,-4v8" fill="none" stroke="white" stroke-width="1.5" pointer-events="none"/>
  </g>
  <g id="zoomMin">
    <use xlink:href="#rim" fill="#404040"><set attributeName="fill" to="#808080" begin="zoomminus.mouseover" end="zoomminus.mouseout"/></use>
    <path d="M-4,0h8" fill="none" stroke="white" stroke-width="1.5" pointer-events="none"/>
  </g>
  <g id="arrowUp" transform="translate(30 24)">
    <use xlink:href="#rim"/>
    <path pointer-events="none" fill="none" stroke="white" stroke-width="1.5" d="M0,-3.0v7 M-2.5,-0.5L0,-3.0L2.5,-0.5"/>
  </g>
  <g id="arrowRight" transform="rotate(90) translate(36 -43)">
    <use xlink:href="#rim"/>
    <path pointer-events="none" fill="none" stroke="white" stroke-width="1.5" d="M0,-3.0v7 M-2.5,-0.5L0,-3.0L2.5,-0.5"/>
  </g>
  <g id="arrowDown" transform="rotate(180) translate(-30 -48)">
    <use xlink:href="#rim"/>
    <path pointer-events="none" fill="none" stroke="white" stroke-width="1.5" d="M0,-3.0v7 M-2.5,-0.5L0,-3.0L2.5,-0.5"/>
  </g>
  <g id="arrowLeft" transform="rotate(270) translate(-36 17)">
    <use xlink:href="#rim"/>
    <path pointer-events="none" fill="none" stroke="white" stroke-width="1.5" d="M0,-3.0v7 M-2.5,-0.5L0,-3.0L2.5,-0.5"/>
  </g>
  <g id="resetDef">
    <use xlink:href="#rim2" fill="#404040"><set attributeName="fill" to="#808080" begin="reset.mouseover" end="reset.mouseout"/></use>
  </g>
</defs>
<script type="application/ecmascript">
var viewWidth = 722;
var viewHeight = 306;
var sectionId = 'dynsection-1';
</script>
<script type="application/ecmascript" xlink:href="../../svg.min.js"/>
<svg id="graph" class="graph">
<g id="viewport">
<title>v8::internal::SnapshotData</title>
<!-- Node1 -->
<g id="Node000001" class="node">
<title>Node1</title>
<g id="a_Node000001"><a xlink:title=" ">
<polygon fill="#999999" stroke="none" points="714,-132 548,-132 548,0 714,0 714,-132"/>
<text text-anchor="start" x="553" y="-118.5" font-family="Cascadia Code NF" font-size="10.00">v8::internal::SnapshotData</text>
<text text-anchor="start" x="628" y="-102.5" font-family="Cascadia Code NF" font-size="10.00"> </text>
<text text-anchor="start" x="568" y="-86.5" font-family="Cascadia Code NF" font-size="10.00">+</text>
<text text-anchor="start" x="594" y="-86.5" font-family="Cascadia Code NF" font-size="10.00">SnapshotData()</text>
<text text-anchor="start" x="568" y="-70.5" font-family="Cascadia Code NF" font-size="10.00">+</text>
<text text-anchor="start" x="594" y="-70.5" font-family="Cascadia Code NF" font-size="10.00">SnapshotData()</text>
<text text-anchor="start" x="568" y="-54.5" font-family="Cascadia Code NF" font-size="10.00">+</text>
<text text-anchor="start" x="594" y="-54.5" font-family="Cascadia Code NF" font-size="10.00">Payload()</text>
<text text-anchor="start" x="568" y="-38.5" font-family="Cascadia Code NF" font-size="10.00">+</text>
<text text-anchor="start" x="594" y="-38.5" font-family="Cascadia Code NF" font-size="10.00">RawData()</text>
<text text-anchor="start" x="568" y="-22.5" font-family="Cascadia Code NF" font-size="10.00">#</text>
<text text-anchor="start" x="594" y="-22.5" font-family="Cascadia Code NF" font-size="10.00">SnapshotData()</text>
<text text-anchor="start" x="568" y="-6.5" font-family="Cascadia Code NF" font-size="10.00">#</text>
<text text-anchor="start" x="594" y="-6.5" font-family="Cascadia Code NF" font-size="10.00">Resize()</text>
<polygon fill="#666666" stroke="#666666" points="548,-114 548,-114 714,-114 714,-114 548,-114"/>
<polygon fill="#666666" stroke="#666666" points="548,-98 548,-98 714,-98 714,-98 548,-98"/>
<polygon fill="none" stroke="#666666" points="548,0 548,-132 714,-132 714,0 548,0"/>
</a>
</g>
</g>
<!-- Node2 -->
<g id="Node000002" class="node">
<title>Node2</title>
<g id="a_Node000002"><a xlink:href="../../d6/df9/classv8_1_1internal_1_1SerializedData.html" target="_top" xlink:title=" ">
<polygon fill="white" stroke="none" points="386,-298 208,-298 208,-86 386,-86 386,-298"/>
<text text-anchor="start" x="213" y="-284.5" font-family="Cascadia Code NF" font-size="10.00">v8::internal::SerializedData</text>
<text text-anchor="start" x="294" y="-268.5" font-family="Cascadia Code NF" font-size="10.00"> </text>
<text text-anchor="start" x="226.5" y="-252.5" font-family="Cascadia Code NF" font-size="10.00">+</text>
<text text-anchor="start" x="251" y="-252.5" font-family="Cascadia Code NF" font-size="10.00">SerializedData()</text>
<text text-anchor="start" x="226.5" y="-236.5" font-family="Cascadia Code NF" font-size="10.00">+</text>
<text text-anchor="start" x="251" y="-236.5" font-family="Cascadia Code NF" font-size="10.00">SerializedData()</text>
<text text-anchor="start" x="226.5" y="-220.5" font-family="Cascadia Code NF" font-size="10.00">+</text>
<text text-anchor="start" x="251" y="-220.5" font-family="Cascadia Code NF" font-size="10.00">SerializedData()</text>
<text text-anchor="start" x="226.5" y="-204.5" font-family="Cascadia Code NF" font-size="10.00">+</text>
<text text-anchor="start" x="251" y="-204.5" font-family="Cascadia Code NF" font-size="10.00">SerializedData()</text>
<text text-anchor="start" x="226.5" y="-188.5" font-family="Cascadia Code NF" font-size="10.00">+</text>
<text text-anchor="start" x="251" y="-188.5" font-family="Cascadia Code NF" font-size="10.00">operator=()</text>
<text text-anchor="start" x="226.5" y="-172.5" font-family="Cascadia Code NF" font-size="10.00">+</text>
<text text-anchor="start" x="251" y="-172.5" font-family="Cascadia Code NF" font-size="10.00">~SerializedData()</text>
<text text-anchor="start" x="226.5" y="-156.5" font-family="Cascadia Code NF" font-size="10.00">+</text>
<text text-anchor="start" x="251" y="-156.5" font-family="Cascadia Code NF" font-size="10.00">GetMagicNumber()</text>
<text text-anchor="start" x="226.5" y="-140.5" font-family="Cascadia Code NF" font-size="10.00">#</text>
<text text-anchor="start" x="251" y="-140.5" font-family="Cascadia Code NF" font-size="10.00">SetHeaderValue()</text>
<text text-anchor="start" x="226.5" y="-124.5" font-family="Cascadia Code NF" font-size="10.00">#</text>
<text text-anchor="start" x="251" y="-124.5" font-family="Cascadia Code NF" font-size="10.00">GetHeaderValue()</text>
<text text-anchor="start" x="226.5" y="-108.5" font-family="Cascadia Code NF" font-size="10.00">#</text>
<text text-anchor="start" x="251" y="-108.5" font-family="Cascadia Code NF" font-size="10.00">AllocateData()</text>
<text text-anchor="start" x="226.5" y="-92.5" font-family="Cascadia Code NF" font-size="10.00">#</text>
<text text-anchor="start" x="251" y="-92.5" font-family="Cascadia Code NF" font-size="10.00">SetMagicNumber()</text>
<polygon fill="#bfbfbf" stroke="#bfbfbf" points="208,-280 208,-280 386,-280 386,-280 208,-280"/>
<polygon fill="#bfbfbf" stroke="#bfbfbf" points="208,-264 208,-264 386,-264 386,-264 208,-264"/>
<polygon fill="none" stroke="#bfbfbf" points="208,-86 208,-298 386,-298 386,-86 208,-86"/>
</a>
</g>
</g>
<!-- Node2&#45;&gt;Node1 -->
<g id="edge1_Node000001_Node000002" class="edge">
<title>Node2&#45;&gt;Node1</title>
<g id="a_edge1_Node000001_Node000002"><a xlink:title=" ">
<path fill="none" stroke="#63b8ff" d="M396.15,-154.75C444.52,-136.39 502.17,-114.51 548.13,-97.07"/>
<polygon fill="none" stroke="#63b8ff" points="395.19,-151.37 387.08,-158.19 397.67,-157.92 395.19,-151.37"/>
</a>
</g>
</g>
<!-- Node3 -->
<g id="Node000003" class="node">
<title>Node3</title>
<g id="a_Node000003"><a xlink:href="../../d3/d87/classuint32__t.html" target="_top" xlink:title=" ">
<polygon fill="white" stroke="none" points="58,-288 0,-288 0,-236 58,-236 58,-288"/>
<text text-anchor="start" x="5" y="-274.5" font-family="Cascadia Code NF" font-size="10.00">uint32_t</text>
<text text-anchor="start" x="26" y="-258.5" font-family="Cascadia Code NF" font-size="10.00"> </text>
<text text-anchor="start" x="26" y="-242.5" font-family="Cascadia Code NF" font-size="10.00"> </text>
<polygon fill="#bfbfbf" stroke="#bfbfbf" points="0,-270 0,-270 58,-270 58,-270 0,-270"/>
<polygon fill="#bfbfbf" stroke="#bfbfbf" points="0,-254 0,-254 58,-254 58,-254 0,-254"/>
<polygon fill="none" stroke="#bfbfbf" points="0,-236 0,-288 58,-288 58,-236 0,-236"/>
</a>
</g>
</g>
<!-- Node3&#45;&gt;Node2 -->
<g id="edge2_Node000002_Node000003" class="edge">
<title>Node3&#45;&gt;Node2</title>
<g id="a_edge2_Node000002_Node000003"><a xlink:title=" ">
<path fill="none" stroke="#63b8ff" d="M57.96,-254.64C90.61,-246.05 146.44,-231.36 195.83,-218.36"/>
<polygon fill="none" stroke="#63b8ff" points="195.75,-218.38 200.54,-212.99 207.36,-215.33 202.57,-220.72 195.75,-218.38"/>
</a>
</g>
<text text-anchor="middle" x="133" y="-276.75" font-family="Cascadia Code NF" font-size="10.00" fill="grey"> #size_</text>
<text text-anchor="middle" x="133" y="-264" font-family="Cascadia Code NF" font-size="10.00" fill="grey">+kMagicNumber</text>
<text text-anchor="middle" x="133" y="-251.25" font-family="Cascadia Code NF" font-size="10.00" fill="grey">+kMagicNumberOffset</text>
</g>
<!-- Node4 -->
<g id="Node000004" class="node">
<title>Node4</title>
<g id="a_Node000004"><a xlink:title=" ">
<polygon fill="white" stroke="none" points="55,-218 3,-218 3,-166 55,-166 55,-218"/>
<text text-anchor="start" x="8" y="-204.5" font-family="Cascadia Code NF" font-size="10.00">uint8_t</text>
<text text-anchor="start" x="26" y="-188.5" font-family="Cascadia Code NF" font-size="10.00"> </text>
<text text-anchor="start" x="26" y="-172.5" font-family="Cascadia Code NF" font-size="10.00"> </text>
<polygon fill="#bfbfbf" stroke="#bfbfbf" points="3,-200 3,-200 55,-200 55,-200 3,-200"/>
<polygon fill="#bfbfbf" stroke="#bfbfbf" points="3,-184 3,-184 55,-184 55,-184 3,-184"/>
<polygon fill="none" stroke="#bfbfbf" points="3,-166 3,-218 55,-218 55,-166 3,-166"/>
</a>
</g>
</g>
<!-- Node4&#45;&gt;Node2 -->
<g id="edge3_Node000002_Node000004" class="edge">
<title>Node4&#45;&gt;Node2</title>
<g id="a_edge3_Node000002_Node000004"><a xlink:title=" ">
<path fill="none" stroke="#63b8ff" d="M54.55,-192C86.5,-192 144.3,-192 195.33,-192"/>
<polygon fill="none" stroke="#63b8ff" points="195.24,-192 201.24,-188 207.24,-192 201.24,-196 195.24,-192"/>
</a>
</g>
<text text-anchor="middle" x="133" y="-195.25" font-family="Cascadia Code NF" font-size="10.00" fill="grey"> #data_</text>
</g>
<!-- Node5 -->
<g id="Node000005" class="node">
<title>Node5</title>
<g id="a_Node000005"><a xlink:title=" ">
<polygon fill="white" stroke="none" points="46,-148 12,-148 12,-96 46,-96 46,-148"/>
<text text-anchor="start" x="17" y="-134.5" font-family="Cascadia Code NF" font-size="10.00">bool</text>
<text text-anchor="start" x="26" y="-118.5" font-family="Cascadia Code NF" font-size="10.00"> </text>
<text text-anchor="start" x="26" y="-102.5" font-family="Cascadia Code NF" font-size="10.00"> </text>
<polygon fill="#bfbfbf" stroke="#bfbfbf" points="12,-130 12,-130 46,-130 46,-130 12,-130"/>
<polygon fill="#bfbfbf" stroke="#bfbfbf" points="12,-114 12,-114 46,-114 46,-114 12,-114"/>
<polygon fill="none" stroke="#bfbfbf" points="12,-96 12,-148 46,-148 46,-96 12,-96"/>
</a>
</g>
</g>
<!-- Node5&#45;&gt;Node2 -->
<g id="edge4_Node000002_Node000005" class="edge">
<title>Node5&#45;&gt;Node2</title>
<g id="a_edge4_Node000002_Node000005"><a xlink:title=" ">
<path fill="none" stroke="#63b8ff" d="M45.84,-126.17C75.01,-133.84 139.36,-150.78 195.49,-165.55"/>
<polygon fill="none" stroke="#63b8ff" points="195.59,-165.58 202.41,-163.23 207.19,-168.63 200.37,-170.97 195.59,-165.58"/>
</a>
</g>
<text text-anchor="middle" x="133" y="-166.25" font-family="Cascadia Code NF" font-size="10.00" fill="grey"> #owns_data_</text>
</g>
<!-- Node6 -->
<g id="Node000006" class="node">
<title>Node6</title>
<g id="a_Node000006"><a xlink:title=" ">
<polygon fill="white" stroke="none" points="317,-68 277,-68 277,-16 317,-16 317,-68"/>
<text text-anchor="start" x="282" y="-54.5" font-family="Cascadia Code NF" font-size="10.00">const</text>
<text text-anchor="start" x="294" y="-38.5" font-family="Cascadia Code NF" font-size="10.00"> </text>
<text text-anchor="start" x="294" y="-22.5" font-family="Cascadia Code NF" font-size="10.00"> </text>
<polygon fill="#bfbfbf" stroke="#bfbfbf" points="277,-50 277,-50 317,-50 317,-50 277,-50"/>
<polygon fill="#bfbfbf" stroke="#bfbfbf" points="277,-34 277,-34 317,-34 317,-34 277,-34"/>
<polygon fill="none" stroke="#bfbfbf" points="277,-16 277,-68 317,-68 317,-16 277,-16"/>
</a>
</g>
</g>
<!-- Node6&#45;&gt;Node1 -->
<g id="edge5_Node000001_Node000006" class="edge">
<title>Node6&#45;&gt;Node1</title>
<g id="a_edge5_Node000001_Node000006"><a xlink:title=" ">
<path fill="none" stroke="#63b8ff" d="M316.8,-43.36C358.1,-46.34 459.13,-53.65 535.37,-59.16"/>
<polygon fill="none" stroke="#63b8ff" points="535.46,-59.17 541.74,-55.61 547.43,-60.03 541.16,-63.59 535.46,-59.17"/>
</a>
</g>
<text text-anchor="middle" x="467" y="-75" font-family="Cascadia Code NF" font-size="10.00" fill="grey"> #kHeaderSize</text>
<text text-anchor="middle" x="467" y="-62.25" font-family="Cascadia Code NF" font-size="10.00" fill="grey">#kPayloadLengthOffset</text>
</g>
</g>
</svg>

<g id="navigator" transform="translate(0 0)" fill="#404254">
  <rect fill="#f2f5e9" fill-opacity="0.5" stroke="#606060" stroke-width=".5" x="0" y="0" width="60" height="60"/>
  <use id="zoomplus" xlink:href="#zoomPlus" x="17" y="9" onmousedown="handleZoom(evt,'in')"/>
  <use id="zoomminus" xlink:href="#zoomMin" x="42" y="9" onmousedown="handleZoom(evt,'out')"/>
  <use id="reset" xlink:href="#resetDef" x="30" y="36" onmousedown="handleReset()"/>
   <use id="arrowup" xlink:href="#arrowUp" x="0" y="0" onmousedown="handlePan(0,-1)"/>
  <use id="arrowright" xlink:href="#arrowRight" x="0" y="0" onmousedown="handlePan(1,0)"/>
  <use id="arrowdown" xlink:href="#arrowDown" x="0" y="0" onmousedown="handlePan(0,1)"/>
  <use id="arrowleft" xlink:href="#arrowLeft" x="0" y="0" onmousedown="handlePan(-1,0)"/>
</g>
<svg viewBox="0 0 15 15" width="100%" height="30px" preserveAspectRatio="xMaxYMin meet">
 <g id="arrow_out" transform="scale(0.3 0.3)">
  <a xlink:href="classv8_1_1internal_1_1SnapshotData__coll__graph_org.svg" target="_base">
   <rect id="button" ry="5" rx="5" y="6" x="6" height="38" width="38"
        fill="#f2f5e9" fill-opacity="0.5" stroke="#606060" stroke-width="1.0"/>
   <path id="arrow"
     d="M 11.500037,31.436501 C 11.940474,20.09759 22.043105,11.32322 32.158766,21.979434 L 37.068811,17.246167 C 37.068811,17.246167 37.088388,32 37.088388,32 L 22.160133,31.978069 C 22.160133,31.978069 26.997745,27.140456 26.997745,27.140456 C 18.528582,18.264221 13.291696,25.230495 11.500037,31.436501 z"
     style="fill:#404040;"/>
  </a>
 </g>
</svg>

<style type='text/css'>
<![CDATA[
[data-mouse-over-selected='false'] { opacity: 0.7; }
[data-mouse-over-selected='true']  { opacity: 1.0; }
]]>
</style>
<script type="application/ecmascript"><![CDATA[
document.addEventListener('DOMContentLoaded', (event) => {
  highlightEdges();
  highlightAdjacentNodes();
});
]]></script>
</svg>
