<?xml version="1.0" encoding="UTF-8" standalone="no"?>
<!DOCTYPE svg PUBLIC "-//W3C//DTD SVG 1.1//EN"
 "http://www.w3.org/Graphics/SVG/1.1/DTD/svg11.dtd">
<!-- Generated by graphviz version 11.0.0 (20240428.1522)
 -->
<!-- Title: v8::internal::compiler::turboshaft::VariableReducer&lt; AfterNext &gt; Pages: 1 -->
<svg width="568pt" height="259pt"
 viewBox="0.00 0.00 568.00 259.00" xmlns="http://www.w3.org/2000/svg" xmlns:xlink="http://www.w3.org/1999/xlink">
<g id="graph0" class="graph" transform="scale(1 1) rotate(0) translate(4 255)">
<title>v8::internal::compiler::turboshaft::VariableReducer&lt; AfterNext &gt;</title>
<!-- Node1 -->
<g id="Node000001" class="node">
<title>Node1</title>
<g id="a_Node000001"><a xlink:title=" ">
<polygon fill="#999999" stroke="none" points="560,-251 350,-251 350,0 560,0 560,-251"/>
<text text-anchor="start" x="368" y="-237.5" font-family="Cascadia Code NF" font-size="10.00">v8::internal::compiler</text>
<text text-anchor="start" x="368" y="-224.75" font-family="Cascadia Code NF" font-size="10.00">::turboshaft::VariableReducer</text>
<text text-anchor="start" x="416" y="-212" font-family="Cascadia Code NF" font-size="10.00">&lt; AfterNext &gt;</text>
<text text-anchor="start" x="452" y="-195.5" font-family="Cascadia Code NF" font-size="10.00"> </text>
<text text-anchor="start" x="354" y="-179.5" font-family="Cascadia Code NF" font-size="10.00">+</text>
<text text-anchor="start" x="364" y="-179.5" font-family="Cascadia Code NF" font-size="10.00">Bind()</text>
<text text-anchor="start" x="354" y="-163.5" font-family="Cascadia Code NF" font-size="10.00">+</text>
<text text-anchor="start" x="364" y="-163.5" font-family="Cascadia Code NF" font-size="10.00">RestoreTemporaryVariable</text>
<text text-anchor="start" x="364" y="-150.75" font-family="Cascadia Code NF" font-size="10.00">SnapshotAfter()</text>
<text text-anchor="start" x="354" y="-134.5" font-family="Cascadia Code NF" font-size="10.00">+</text>
<text text-anchor="start" x="364" y="-134.5" font-family="Cascadia Code NF" font-size="10.00">CloseTemporaryVariableSnapshot()</text>
<text text-anchor="start" x="354" y="-118.5" font-family="Cascadia Code NF" font-size="10.00">+</text>
<text text-anchor="start" x="364" y="-118.5" font-family="Cascadia Code NF" font-size="10.00">Goto()</text>
<text text-anchor="start" x="354" y="-102.5" font-family="Cascadia Code NF" font-size="10.00">+</text>
<text text-anchor="start" x="364" y="-102.5" font-family="Cascadia Code NF" font-size="10.00">GetVariable()</text>
<text text-anchor="start" x="354" y="-86.5" font-family="Cascadia Code NF" font-size="10.00">+</text>
<text text-anchor="start" x="364" y="-86.5" font-family="Cascadia Code NF" font-size="10.00">GetPredecessorValue()</text>
<text text-anchor="start" x="354" y="-70.5" font-family="Cascadia Code NF" font-size="10.00">+</text>
<text text-anchor="start" x="364" y="-70.5" font-family="Cascadia Code NF" font-size="10.00">SetVariable()</text>
<text text-anchor="start" x="354" y="-54.5" font-family="Cascadia Code NF" font-size="10.00">+</text>
<text text-anchor="start" x="364" y="-54.5" font-family="Cascadia Code NF" font-size="10.00">Set()</text>
<text text-anchor="start" x="354" y="-38.5" font-family="Cascadia Code NF" font-size="10.00">+</text>
<text text-anchor="start" x="364" y="-38.5" font-family="Cascadia Code NF" font-size="10.00">NewLoopInvariantVariable()</text>
<text text-anchor="start" x="354" y="-22.5" font-family="Cascadia Code NF" font-size="10.00">+</text>
<text text-anchor="start" x="364" y="-22.5" font-family="Cascadia Code NF" font-size="10.00">NewVariable()</text>
<text text-anchor="start" x="354" y="-6.5" font-family="Cascadia Code NF" font-size="10.00">+</text>
<text text-anchor="start" x="364" y="-6.5" font-family="Cascadia Code NF" font-size="10.00">SealAndSaveVariableSnapshot()</text>
<polygon fill="#666666" stroke="#666666" points="350,-207 350,-207 560,-207 560,-207 350,-207"/>
<polygon fill="#666666" stroke="#666666" points="350,-191 350,-191 560,-191 560,-191 350,-191"/>
<polygon fill="none" stroke="#666666" points="350,0 350,-251 560,-251 560,0 350,0"/>
</a>
</g>
</g>
<!-- Node2 -->
<g id="Node000002" class="node">
<title>Node2</title>
<g id="a_Node000002"><a xlink:href="../../d1/d12/classv8_1_1internal_1_1compiler_1_1turboshaft_1_1RequiredOptimizationReducer.html" target="_top" xlink:title=" ">
<polygon fill="white" stroke="none" points="314,-164.5 100,-164.5 100,-86.5 314,-86.5 314,-164.5"/>
<text text-anchor="start" x="105" y="-151" font-family="Cascadia Code NF" font-size="10.00">v8::internal::compiler</text>
<text text-anchor="start" x="105" y="-138.25" font-family="Cascadia Code NF" font-size="10.00">::turboshaft::RequiredOptimization</text>
<text text-anchor="start" x="147" y="-125.5" font-family="Cascadia Code NF" font-size="10.00">Reducer&lt; AfterNext &gt;</text>
<text text-anchor="start" x="204" y="-109" font-family="Cascadia Code NF" font-size="10.00"> </text>
<text text-anchor="start" x="145.5" y="-93" font-family="Cascadia Code NF" font-size="10.00">+</text>
<text text-anchor="start" x="197" y="-93" font-family="Cascadia Code NF" font-size="10.00">Phi()</text>
<polygon fill="#bfbfbf" stroke="#bfbfbf" points="100,-120.5 100,-120.5 314,-120.5 314,-120.5 100,-120.5"/>
<polygon fill="#bfbfbf" stroke="#bfbfbf" points="100,-104.5 100,-104.5 314,-104.5 314,-104.5 100,-104.5"/>
<polygon fill="none" stroke="#bfbfbf" points="100,-86.5 100,-164.5 314,-164.5 314,-86.5 100,-86.5"/>
</a>
</g>
</g>
<!-- Node2&#45;&gt;Node1 -->
<g id="edge1_Node000001_Node000002" class="edge">
<title>Node2&#45;&gt;Node1</title>
<g id="a_edge1_Node000001_Node000002"><a xlink:title=" ">
<path fill="none" stroke="#63b8ff" d="M325.16,-125.5C333.55,-125.5 341.98,-125.5 350.29,-125.5"/>
<polygon fill="none" stroke="#63b8ff" points="325.27,-122 315.27,-125.5 325.27,-129 325.27,-122"/>
</a>
</g>
</g>
<!-- Node3 -->
<g id="Node000003" class="node">
<title>Node3</title>
<g id="a_Node000003"><a xlink:title=" ">
<polygon fill="white" stroke="none" points="64,-151.5 0,-151.5 0,-99.5 64,-99.5 64,-151.5"/>
<text text-anchor="start" x="5" y="-138" font-family="Cascadia Code NF" font-size="10.00">AfterNext</text>
<text text-anchor="start" x="29" y="-122" font-family="Cascadia Code NF" font-size="10.00"> </text>
<text text-anchor="start" x="29" y="-106" font-family="Cascadia Code NF" font-size="10.00"> </text>
<polygon fill="#bfbfbf" stroke="#bfbfbf" points="0,-133.5 0,-133.5 64,-133.5 64,-133.5 0,-133.5"/>
<polygon fill="#bfbfbf" stroke="#bfbfbf" points="0,-117.5 0,-117.5 64,-117.5 64,-117.5 0,-117.5"/>
<polygon fill="none" stroke="#bfbfbf" points="0,-99.5 0,-151.5 64,-151.5 64,-99.5 0,-99.5"/>
</a>
</g>
</g>
<!-- Node3&#45;&gt;Node2 -->
<g id="edge2_Node000002_Node000003" class="edge">
<title>Node3&#45;&gt;Node2</title>
<g id="a_edge2_Node000002_Node000003"><a xlink:title=" ">
<path fill="none" stroke="#63b8ff" d="M75.21,-125.5C83.01,-125.5 91.46,-125.5 100.19,-125.5"/>
<polygon fill="none" stroke="#63b8ff" points="75.44,-122 65.44,-125.5 75.44,-129 75.44,-122"/>
</a>
</g>
</g>
</g>
</svg>
