<?xml version="1.0" encoding="UTF-8" standalone="no"?>
<!DOCTYPE svg PUBLIC "-//W3C//DTD SVG 1.1//EN"
 "http://www.w3.org/Graphics/SVG/1.1/DTD/svg11.dtd">
<!-- Generated by graphviz version 11.0.0 (20240428.1522)
 -->
<!-- Title: TorqueGeneratedPromiseCapability&lt; D, P &gt; Pages: 1 -->
<svg width="450pt" height="329pt"
 viewBox="0.00 0.00 450.00 329.00" xmlns="http://www.w3.org/2000/svg" xmlns:xlink="http://www.w3.org/1999/xlink">
<g id="graph0" class="graph" transform="scale(1 1) rotate(0) translate(4 325)">
<title>TorqueGeneratedPromiseCapability&lt; D, P &gt;</title>
<!-- Node1 -->
<g id="Node000001" class="node">
<title>Node1</title>
<g id="a_Node000001"><a xlink:title=" ">
<polygon fill="#999999" stroke="none" points="442,-321 220,-321 220,0 442,0 442,-321"/>
<text text-anchor="start" x="235" y="-307.5" font-family="Cascadia Code NF" font-size="10.00">TorqueGeneratedPromiseCapability</text>
<text text-anchor="start" x="307" y="-294.75" font-family="Cascadia Code NF" font-size="10.00">&lt; D, P &gt;</text>
<text text-anchor="start" x="224" y="-278.5" font-family="Cascadia Code NF" font-size="10.00">+</text>
<text text-anchor="start" x="234" y="-278.5" font-family="Cascadia Code NF" font-size="10.00">kStartOfStrongFieldsOffset</text>
<text text-anchor="start" x="224" y="-262.5" font-family="Cascadia Code NF" font-size="10.00">+</text>
<text text-anchor="start" x="234" y="-262.5" font-family="Cascadia Code NF" font-size="10.00">kStartOfWeakFieldsOffset</text>
<text text-anchor="start" x="224" y="-246.5" font-family="Cascadia Code NF" font-size="10.00">+</text>
<text text-anchor="start" x="234" y="-246.5" font-family="Cascadia Code NF" font-size="10.00">promise()</text>
<text text-anchor="start" x="224" y="-230.5" font-family="Cascadia Code NF" font-size="10.00">+</text>
<text text-anchor="start" x="234" y="-230.5" font-family="Cascadia Code NF" font-size="10.00">promise()</text>
<text text-anchor="start" x="224" y="-214.5" font-family="Cascadia Code NF" font-size="10.00">+</text>
<text text-anchor="start" x="234" y="-214.5" font-family="Cascadia Code NF" font-size="10.00">set_promise()</text>
<text text-anchor="start" x="224" y="-198.5" font-family="Cascadia Code NF" font-size="10.00">+</text>
<text text-anchor="start" x="234" y="-198.5" font-family="Cascadia Code NF" font-size="10.00">resolve()</text>
<text text-anchor="start" x="224" y="-182.5" font-family="Cascadia Code NF" font-size="10.00">+</text>
<text text-anchor="start" x="234" y="-182.5" font-family="Cascadia Code NF" font-size="10.00">resolve()</text>
<text text-anchor="start" x="224" y="-166.5" font-family="Cascadia Code NF" font-size="10.00">+</text>
<text text-anchor="start" x="234" y="-166.5" font-family="Cascadia Code NF" font-size="10.00">set_resolve()</text>
<text text-anchor="start" x="224" y="-150.5" font-family="Cascadia Code NF" font-size="10.00">+</text>
<text text-anchor="start" x="234" y="-150.5" font-family="Cascadia Code NF" font-size="10.00">reject()</text>
<text text-anchor="start" x="224" y="-134.5" font-family="Cascadia Code NF" font-size="10.00">+</text>
<text text-anchor="start" x="234" y="-134.5" font-family="Cascadia Code NF" font-size="10.00">reject()</text>
<text text-anchor="start" x="224" y="-118.5" font-family="Cascadia Code NF" font-size="10.00">+</text>
<text text-anchor="start" x="234" y="-118.5" font-family="Cascadia Code NF" font-size="10.00">set_reject()</text>
<text text-anchor="start" x="224" y="-102.5" font-family="Cascadia Code NF" font-size="10.00">+</text>
<text text-anchor="start" x="234" y="-102.5" font-family="Cascadia Code NF" font-size="10.00">AllocatedSize()</text>
<text text-anchor="start" x="224" y="-86.5" font-family="Cascadia Code NF" font-size="10.00">+</text>
<text text-anchor="start" x="234" y="-86.5" font-family="Cascadia Code NF" font-size="10.00">TorqueGeneratedPromiseCapability()</text>
<text text-anchor="start" x="224" y="-70.5" font-family="Cascadia Code NF" font-size="10.00">+</text>
<text text-anchor="start" x="234" y="-70.5" font-family="Cascadia Code NF" font-size="10.00">cast()</text>
<text text-anchor="start" x="224" y="-54.5" font-family="Cascadia Code NF" font-size="10.00">+</text>
<text text-anchor="start" x="234" y="-54.5" font-family="Cascadia Code NF" font-size="10.00">unchecked_cast()</text>
<text text-anchor="start" x="224" y="-38.5" font-family="Cascadia Code NF" font-size="10.00">+</text>
<text text-anchor="start" x="234" y="-38.5" font-family="Cascadia Code NF" font-size="10.00">SizeFor()</text>
<text text-anchor="start" x="224" y="-22.5" font-family="Cascadia Code NF" font-size="10.00">#</text>
<text text-anchor="start" x="234" y="-22.5" font-family="Cascadia Code NF" font-size="10.00">TorqueGeneratedPromiseCapability()</text>
<text text-anchor="start" x="224" y="-6.5" font-family="Cascadia Code NF" font-size="10.00">#</text>
<text text-anchor="start" x="234" y="-6.5" font-family="Cascadia Code NF" font-size="10.00">TorqueGeneratedPromiseCapability()</text>
<polygon fill="#666666" stroke="#666666" points="220,-290 220,-290 442,-290 442,-290 220,-290"/>
<polygon fill="#666666" stroke="#666666" points="220,-258 220,-258 232,-258 232,-258 220,-258"/>
<polygon fill="#666666" stroke="#666666" points="232,-258 232,-258 442,-258 442,-258 232,-258"/>
<polygon fill="none" stroke="#666666" points="220,0 220,-321 442,-321 442,0 220,0"/>
</a>
</g>
</g>
<!-- Node2 -->
<g id="Node000002" class="node">
<title>Node2</title>
<g id="a_Node000002"><a xlink:href="$db/d72/classP.html" xlink:title=" ">
<polygon fill="white" stroke="none" points="22,-268.5 6,-268.5 6,-216.5 22,-216.5 22,-268.5"/>
<text text-anchor="start" x="11" y="-255" font-family="Cascadia Code NF" font-size="10.00">P</text>
<text text-anchor="start" x="11" y="-239" font-family="Cascadia Code NF" font-size="10.00"> </text>
<text text-anchor="start" x="11" y="-223" font-family="Cascadia Code NF" font-size="10.00"> </text>
<polygon fill="#bfbfbf" stroke="#bfbfbf" points="6,-250.5 6,-250.5 22,-250.5 22,-250.5 6,-250.5"/>
<polygon fill="#bfbfbf" stroke="#bfbfbf" points="6,-234.5 6,-234.5 22,-234.5 22,-234.5 6,-234.5"/>
<polygon fill="none" stroke="#bfbfbf" points="6,-216.5 6,-268.5 22,-268.5 22,-216.5 6,-216.5"/>
</a>
</g>
</g>
<!-- Node2&#45;&gt;Node1 -->
<g id="edge1_Node000001_Node000002" class="edge">
<title>Node2&#45;&gt;Node1</title>
<g id="a_edge1_Node000001_Node000002"><a xlink:title=" ">
<path fill="none" stroke="#63b8ff" d="M33.13,-242.28C66.97,-241.46 141.78,-237.67 202,-220.5 208.02,-218.78 214.11,-216.81 220.19,-214.66"/>
<polygon fill="none" stroke="#63b8ff" points="33.4,-238.78 23.46,-242.45 33.52,-245.78 33.4,-238.78"/>
</a>
</g>
</g>
<!-- Node3 -->
<g id="Node000003" class="node">
<title>Node3</title>
<g id="a_Node000003"><a xlink:href="$d1/da0/classint.html" xlink:title=" ">
<polygon fill="white" stroke="none" points="28,-105.5 0,-105.5 0,-53.5 28,-53.5 28,-105.5"/>
<text text-anchor="start" x="5" y="-92" font-family="Cascadia Code NF" font-size="10.00">int</text>
<text text-anchor="start" x="11" y="-76" font-family="Cascadia Code NF" font-size="10.00"> </text>
<text text-anchor="start" x="11" y="-60" font-family="Cascadia Code NF" font-size="10.00"> </text>
<polygon fill="#bfbfbf" stroke="#bfbfbf" points="0,-87.5 0,-87.5 28,-87.5 28,-87.5 0,-87.5"/>
<polygon fill="#bfbfbf" stroke="#bfbfbf" points="0,-71.5 0,-71.5 28,-71.5 28,-71.5 0,-71.5"/>
<polygon fill="none" stroke="#bfbfbf" points="0,-53.5 0,-105.5 28,-105.5 28,-53.5 0,-53.5"/>
</a>
</g>
</g>
<!-- Node3&#45;&gt;Node1 -->
<g id="edge2_Node000001_Node000003" class="edge">
<title>Node3&#45;&gt;Node1</title>
<g id="a_edge2_Node000001_Node000003"><a xlink:title=" ">
<path fill="none" stroke="#63b8ff" d="M27.59,-77.22C58.2,-72.18 138.7,-61.91 202,-80.25 203.98,-80.82 205.97,-81.44 207.95,-82.09"/>
<polygon fill="none" stroke="#63b8ff" points="207.95,-82.1 214.97,-80.41 219.22,-86.24 212.2,-87.92 207.95,-82.1"/>
</a>
</g>
<text text-anchor="middle" x="124" y="-210.25" font-family="Cascadia Code NF" font-size="10.00" fill="grey"> +kEndOfStrongFieldsOffset</text>
<text text-anchor="middle" x="124" y="-197.5" font-family="Cascadia Code NF" font-size="10.00" fill="grey">+kEndOfWeakFieldsOffset</text>
<text text-anchor="middle" x="124" y="-184.75" font-family="Cascadia Code NF" font-size="10.00" fill="grey">+kHeaderSize</text>
<text text-anchor="middle" x="124" y="-172" font-family="Cascadia Code NF" font-size="10.00" fill="grey">+kPromiseOffset</text>
<text text-anchor="middle" x="124" y="-159.25" font-family="Cascadia Code NF" font-size="10.00" fill="grey">+kPromiseOffsetEnd</text>
<text text-anchor="middle" x="124" y="-146.5" font-family="Cascadia Code NF" font-size="10.00" fill="grey">+kRejectOffset</text>
<text text-anchor="middle" x="124" y="-133.75" font-family="Cascadia Code NF" font-size="10.00" fill="grey">+kRejectOffsetEnd</text>
<text text-anchor="middle" x="124" y="-121" font-family="Cascadia Code NF" font-size="10.00" fill="grey">+kResolveOffset</text>
<text text-anchor="middle" x="124" y="-108.25" font-family="Cascadia Code NF" font-size="10.00" fill="grey">+kResolveOffsetEnd</text>
<text text-anchor="middle" x="124" y="-95.5" font-family="Cascadia Code NF" font-size="10.00" fill="grey">+kSize</text>
<text text-anchor="middle" x="124" y="-82.75" font-family="Cascadia Code NF" font-size="10.00" fill="grey">...</text>
</g>
</g>
</svg>
