<?xml version="1.0" encoding="UTF-8" standalone="no"?>
<!DOCTYPE svg PUBLIC "-//W3C//DTD SVG 1.1//EN"
 "http://www.w3.org/Graphics/SVG/1.1/DTD/svg11.dtd">
<!-- Generated by graphviz version 11.0.0 (20240428.1522)
 -->
<!-- Title: v8::internal::DateCache Pages: 1 -->
<svg width="382pt" height="278pt"
 viewBox="0.00 0.00 382.00 278.25" xmlns="http://www.w3.org/2000/svg" xmlns:xlink="http://www.w3.org/1999/xlink">
<g id="graph0" class="graph" transform="scale(1 1) rotate(0) translate(4 274.25)">
<title>v8::internal::DateCache</title>
<!-- Node1 -->
<g id="Node000001" class="node">
<title>Node1</title>
<g id="a_Node000001"><a xlink:title=" ">
<polygon fill="#999999" stroke="none" points="374,-260 226,-260 226,0 374,0 374,-260"/>
<text text-anchor="start" x="231" y="-246.5" font-family="Cascadia Code NF" font-size="10.00">v8::internal::DateCache</text>
<text text-anchor="start" x="297" y="-230.5" font-family="Cascadia Code NF" font-size="10.00"> </text>
<text text-anchor="start" x="237" y="-214.5" font-family="Cascadia Code NF" font-size="10.00">+</text>
<text text-anchor="start" x="254" y="-214.5" font-family="Cascadia Code NF" font-size="10.00">DateCache()</text>
<text text-anchor="start" x="237" y="-198.5" font-family="Cascadia Code NF" font-size="10.00">+</text>
<text text-anchor="start" x="254" y="-198.5" font-family="Cascadia Code NF" font-size="10.00">~DateCache()</text>
<text text-anchor="start" x="237" y="-182.5" font-family="Cascadia Code NF" font-size="10.00">+</text>
<text text-anchor="start" x="254" y="-182.5" font-family="Cascadia Code NF" font-size="10.00">ResetDateCache()</text>
<text text-anchor="start" x="237" y="-166.5" font-family="Cascadia Code NF" font-size="10.00">+</text>
<text text-anchor="start" x="254" y="-166.5" font-family="Cascadia Code NF" font-size="10.00">Weekday()</text>
<text text-anchor="start" x="237" y="-150.5" font-family="Cascadia Code NF" font-size="10.00">+</text>
<text text-anchor="start" x="254" y="-150.5" font-family="Cascadia Code NF" font-size="10.00">IsLeap()</text>
<text text-anchor="start" x="237" y="-134.5" font-family="Cascadia Code NF" font-size="10.00">+</text>
<text text-anchor="start" x="254" y="-134.5" font-family="Cascadia Code NF" font-size="10.00">LocalOffsetInMs()</text>
<text text-anchor="start" x="237" y="-118.5" font-family="Cascadia Code NF" font-size="10.00">+</text>
<text text-anchor="start" x="254" y="-118.5" font-family="Cascadia Code NF" font-size="10.00">LocalTimezone()</text>
<text text-anchor="start" x="237" y="-102.5" font-family="Cascadia Code NF" font-size="10.00">+</text>
<text text-anchor="start" x="254" y="-102.5" font-family="Cascadia Code NF" font-size="10.00">TimezoneOffset()</text>
<text text-anchor="start" x="237" y="-86.5" font-family="Cascadia Code NF" font-size="10.00">+</text>
<text text-anchor="start" x="254" y="-86.5" font-family="Cascadia Code NF" font-size="10.00">ToLocal()</text>
<text text-anchor="start" x="237" y="-70.5" font-family="Cascadia Code NF" font-size="10.00">+</text>
<text text-anchor="start" x="254" y="-70.5" font-family="Cascadia Code NF" font-size="10.00">ToUTC()</text>
<text text-anchor="start" x="254" y="-54.5" font-family="Cascadia Code NF" font-size="10.00">and 9 more...</text>
<text text-anchor="start" x="237" y="-38.5" font-family="Cascadia Code NF" font-size="10.00">+</text>
<text text-anchor="start" x="254" y="-38.5" font-family="Cascadia Code NF" font-size="10.00">DaysFromTime()</text>
<text text-anchor="start" x="237" y="-22.5" font-family="Cascadia Code NF" font-size="10.00">+</text>
<text text-anchor="start" x="254" y="-22.5" font-family="Cascadia Code NF" font-size="10.00">TimeInDay()</text>
<text text-anchor="start" x="237" y="-6.5" font-family="Cascadia Code NF" font-size="10.00">+</text>
<text text-anchor="start" x="254" y="-6.5" font-family="Cascadia Code NF" font-size="10.00">TimeClip()</text>
<polygon fill="#666666" stroke="#666666" points="226,-242 226,-242 374,-242 374,-242 226,-242"/>
<polygon fill="#666666" stroke="#666666" points="226,-226 226,-226 374,-226 374,-226 226,-226"/>
<polygon fill="none" stroke="#666666" points="226,0 226,-260 374,-260 374,0 226,0"/>
</a>
</g>
</g>
<!-- Node2 -->
<g id="Node000002" class="node">
<title>Node2</title>
<g id="a_Node000002"><a xlink:title=" ">
<polygon fill="white" stroke="none" points="40,-156 0,-156 0,-104 40,-104 40,-156"/>
<text text-anchor="start" x="5" y="-142.5" font-family="Cascadia Code NF" font-size="10.00">const</text>
<text text-anchor="start" x="17" y="-126.5" font-family="Cascadia Code NF" font-size="10.00"> </text>
<text text-anchor="start" x="17" y="-110.5" font-family="Cascadia Code NF" font-size="10.00"> </text>
<polygon fill="#bfbfbf" stroke="#bfbfbf" points="0,-138 0,-138 40,-138 40,-138 0,-138"/>
<polygon fill="#bfbfbf" stroke="#bfbfbf" points="0,-122 0,-122 40,-122 40,-122 0,-122"/>
<polygon fill="none" stroke="#bfbfbf" points="0,-104 0,-156 40,-156 40,-104 0,-104"/>
</a>
</g>
</g>
<!-- Node2&#45;&gt;Node1 -->
<g id="edge1_Node000001_Node000002" class="edge">
<title>Node2&#45;&gt;Node1</title>
<g id="a_edge1_Node000001_Node000002"><a xlink:title=" ">
<path fill="none" stroke="#63b8ff" d="M39.67,-130C74.68,-130 152.16,-130 213.36,-130"/>
<polygon fill="none" stroke="#63b8ff" points="213.26,-130 219.26,-126 225.26,-130 219.26,-134 213.26,-130"/>
</a>
</g>
<text text-anchor="middle" x="133" y="-260.75" font-family="Cascadia Code NF" font-size="10.00" fill="grey"> +kInvalidLocalOffsetInMs</text>
<text text-anchor="middle" x="133" y="-248" font-family="Cascadia Code NF" font-size="10.00" fill="grey">+kInvalidStamp</text>
<text text-anchor="middle" x="133" y="-235.25" font-family="Cascadia Code NF" font-size="10.00" fill="grey">+kMaxEpochTimeInMs</text>
<text text-anchor="middle" x="133" y="-222.5" font-family="Cascadia Code NF" font-size="10.00" fill="grey">+kMaxEpochTimeInSec</text>
<text text-anchor="middle" x="133" y="-209.75" font-family="Cascadia Code NF" font-size="10.00" fill="grey">+kMaxTimeBeforeUTCInMs</text>
<text text-anchor="middle" x="133" y="-197" font-family="Cascadia Code NF" font-size="10.00" fill="grey">+kMaxTimeInMs</text>
<text text-anchor="middle" x="133" y="-184.25" font-family="Cascadia Code NF" font-size="10.00" fill="grey">+kMsPerDay</text>
<text text-anchor="middle" x="133" y="-171.5" font-family="Cascadia Code NF" font-size="10.00" fill="grey">+kMsPerMin</text>
<text text-anchor="middle" x="133" y="-158.75" font-family="Cascadia Code NF" font-size="10.00" fill="grey">+kMsPerMonth</text>
<text text-anchor="middle" x="133" y="-146" font-family="Cascadia Code NF" font-size="10.00" fill="grey">+kSecPerDay</text>
<text text-anchor="middle" x="133" y="-133.25" font-family="Cascadia Code NF" font-size="10.00" fill="grey">...</text>
</g>
</g>
</svg>
