<?xml version="1.0" encoding="UTF-8" standalone="no"?>
<!DOCTYPE svg PUBLIC "-//W3C//DTD SVG 1.1//EN"
 "http://www.w3.org/Graphics/SVG/1.1/DTD/svg11.dtd">
<!-- Generated by graphviz version 11.0.0 (20240428.1522)
 -->
<!-- Title: v8::internal::SIYInstruction Pages: 1 -->
<!--zoomable 428 -->

<svg id="main" version="1.1" xmlns="http://www.w3.org/2000/svg" xmlns:xlink="http://www.w3.org/1999/xlink" xml:space="preserve" onload="init(evt)">
<style type="text/css"><![CDATA[
.node, .edge {opacity: 0.7;}
.node.selected, .edge.selected {opacity: 1;}
.edge:hover path { stroke: red; }
.edge:hover polygon { stroke: red; fill: red; }
svg#main { background-color: #111; }
]]></style>

<defs>
  <circle id="rim" cx="0" cy="0" r="7"/>
  <circle id="rim2" cx="0" cy="0" r="3.5"/>
  <g id="zoomPlus">
    <use xlink:href="#rim" fill="#404040"><set attributeName="fill" to="#808080" begin="zoomplus.mouseover" end="zoomplus.mouseout"/></use>
    <path d="M-4,0h8M0,-4v8" fill="none" stroke="white" stroke-width="1.5" pointer-events="none"/>
  </g>
  <g id="zoomMin">
    <use xlink:href="#rim" fill="#404040"><set attributeName="fill" to="#808080" begin="zoomminus.mouseover" end="zoomminus.mouseout"/></use>
    <path d="M-4,0h8" fill="none" stroke="white" stroke-width="1.5" pointer-events="none"/>
  </g>
  <g id="arrowUp" transform="translate(30 24)">
    <use xlink:href="#rim"/>
    <path pointer-events="none" fill="none" stroke="white" stroke-width="1.5" d="M0,-3.0v7 M-2.5,-0.5L0,-3.0L2.5,-0.5"/>
  </g>
  <g id="arrowRight" transform="rotate(90) translate(36 -43)">
    <use xlink:href="#rim"/>
    <path pointer-events="none" fill="none" stroke="white" stroke-width="1.5" d="M0,-3.0v7 M-2.5,-0.5L0,-3.0L2.5,-0.5"/>
  </g>
  <g id="arrowDown" transform="rotate(180) translate(-30 -48)">
    <use xlink:href="#rim"/>
    <path pointer-events="none" fill="none" stroke="white" stroke-width="1.5" d="M0,-3.0v7 M-2.5,-0.5L0,-3.0L2.5,-0.5"/>
  </g>
  <g id="arrowLeft" transform="rotate(270) translate(-36 17)">
    <use xlink:href="#rim"/>
    <path pointer-events="none" fill="none" stroke="white" stroke-width="1.5" d="M0,-3.0v7 M-2.5,-0.5L0,-3.0L2.5,-0.5"/>
  </g>
  <g id="resetDef">
    <use xlink:href="#rim2" fill="#404040"><set attributeName="fill" to="#808080" begin="reset.mouseover" end="reset.mouseout"/></use>
  </g>
</defs>
<script type="application/ecmascript">
var viewWidth = 846;
var viewHeight = 428;
var sectionId = 'dynsection-0';
</script>
<script type="application/ecmascript" xlink:href="../../svg.min.js"/>
<svg id="graph" class="graph">
<g id="viewport">
<title>v8::internal::SIYInstruction</title>
<!-- Node1 -->
<g id="Node000001" class="node">
<title>Node1</title>
<g id="a_Node000001"><a xlink:title=" ">
<polygon fill="#999999" stroke="none" points="838,-260 660,-260 660,-160 838,-160 838,-260"/>
<text text-anchor="start" x="665" y="-246.5" font-family="Cascadia Code NF" font-size="10.00">v8::internal::SIYInstruction</text>
<text text-anchor="start" x="746" y="-230.5" font-family="Cascadia Code NF" font-size="10.00"> </text>
<text text-anchor="start" x="690.5" y="-214.5" font-family="Cascadia Code NF" font-size="10.00">+</text>
<text text-anchor="start" x="727" y="-214.5" font-family="Cascadia Code NF" font-size="10.00">B1Value()</text>
<text text-anchor="start" x="690.5" y="-198.5" font-family="Cascadia Code NF" font-size="10.00">+</text>
<text text-anchor="start" x="727" y="-198.5" font-family="Cascadia Code NF" font-size="10.00">D1Value()</text>
<text text-anchor="start" x="690.5" y="-182.5" font-family="Cascadia Code NF" font-size="10.00">+</text>
<text text-anchor="start" x="727" y="-182.5" font-family="Cascadia Code NF" font-size="10.00">I2Value()</text>
<text text-anchor="start" x="690.5" y="-166.5" font-family="Cascadia Code NF" font-size="10.00">+</text>
<text text-anchor="start" x="727" y="-166.5" font-family="Cascadia Code NF" font-size="10.00">size()</text>
<polygon fill="#666666" stroke="#666666" points="660,-242 660,-242 838,-242 838,-242 660,-242"/>
<polygon fill="#666666" stroke="#666666" points="660,-226 660,-226 838,-226 838,-226 660,-226"/>
<polygon fill="none" stroke="#666666" points="660,-160 660,-260 838,-260 838,-160 660,-160"/>
</a>
</g>
</g>
<!-- Node2 -->
<g id="Node000002" class="node">
<title>Node2</title>
<g id="a_Node000002"><a xlink:href="../../d6/da5/classv8_1_1internal_1_1Instruction.html" target="_top" xlink:title=" ">
<polygon fill="white" stroke="none" points="624,-420 462,-420 462,0 624,0 624,-420"/>
<text text-anchor="start" x="468" y="-406.5" font-family="Cascadia Code NF" font-size="10.00">v8::internal::Instruction</text>
<text text-anchor="start" x="466" y="-390.5" font-family="Cascadia Code NF" font-size="10.00">+</text>
<text text-anchor="start" x="476" y="-390.5" font-family="Cascadia Code NF" font-size="10.00">kPcLoadDelta</text>
<text text-anchor="start" x="466" y="-374.5" font-family="Cascadia Code NF" font-size="10.00">+</text>
<text text-anchor="start" x="476" y="-374.5" font-family="Cascadia Code NF" font-size="10.00">ImmPCRelRangeBitwidth</text>
<text text-anchor="start" x="466" y="-358.5" font-family="Cascadia Code NF" font-size="10.00">+</text>
<text text-anchor="start" x="476" y="-358.5" font-family="Cascadia Code NF" font-size="10.00">OpcodeFormatTable</text>
<text text-anchor="start" x="466" y="-342.5" font-family="Cascadia Code NF" font-size="10.00">+</text>
<text text-anchor="start" x="476" y="-342.5" font-family="Cascadia Code NF" font-size="10.00">InstructionBits()</text>
<text text-anchor="start" x="466" y="-326.5" font-family="Cascadia Code NF" font-size="10.00">+</text>
<text text-anchor="start" x="476" y="-326.5" font-family="Cascadia Code NF" font-size="10.00">SetInstructionBits()</text>
<text text-anchor="start" x="466" y="-310.5" font-family="Cascadia Code NF" font-size="10.00">+</text>
<text text-anchor="start" x="476" y="-310.5" font-family="Cascadia Code NF" font-size="10.00">Bit()</text>
<text text-anchor="start" x="466" y="-294.5" font-family="Cascadia Code NF" font-size="10.00">+</text>
<text text-anchor="start" x="476" y="-294.5" font-family="Cascadia Code NF" font-size="10.00">Bits()</text>
<text text-anchor="start" x="466" y="-278.5" font-family="Cascadia Code NF" font-size="10.00">+</text>
<text text-anchor="start" x="476" y="-278.5" font-family="Cascadia Code NF" font-size="10.00">BitField()</text>
<text text-anchor="start" x="466" y="-262.5" font-family="Cascadia Code NF" font-size="10.00">+</text>
<text text-anchor="start" x="476" y="-262.5" font-family="Cascadia Code NF" font-size="10.00">ConditionValue()</text>
<text text-anchor="start" x="466" y="-246.5" font-family="Cascadia Code NF" font-size="10.00">+</text>
<text text-anchor="start" x="476" y="-246.5" font-family="Cascadia Code NF" font-size="10.00">ConditionField()</text>
<text text-anchor="start" x="466" y="-230.5" font-family="Cascadia Code NF" font-size="10.00">+</text>
<text text-anchor="start" x="476" y="-230.5" font-family="Cascadia Code NF" font-size="10.00">TypeValue()</text>
<text text-anchor="start" x="466" y="-214.5" font-family="Cascadia Code NF" font-size="10.00">+</text>
<text text-anchor="start" x="476" y="-214.5" font-family="Cascadia Code NF" font-size="10.00">SpecialValue()</text>
<text text-anchor="start" x="466" y="-198.5" font-family="Cascadia Code NF" font-size="10.00">+</text>
<text text-anchor="start" x="476" y="-198.5" font-family="Cascadia Code NF" font-size="10.00">RnValue()</text>
<text text-anchor="start" x="476" y="-182.5" font-family="Cascadia Code NF" font-size="10.00">and 157 more...</text>
<text text-anchor="start" x="466" y="-166.5" font-family="Cascadia Code NF" font-size="10.00">+</text>
<text text-anchor="start" x="476" y="-166.5" font-family="Cascadia Code NF" font-size="10.00">At()</text>
<text text-anchor="start" x="466" y="-150.5" font-family="Cascadia Code NF" font-size="10.00">+</text>
<text text-anchor="start" x="476" y="-150.5" font-family="Cascadia Code NF" font-size="10.00">Imm8ToFP32()</text>
<text text-anchor="start" x="466" y="-134.5" font-family="Cascadia Code NF" font-size="10.00">+</text>
<text text-anchor="start" x="476" y="-134.5" font-family="Cascadia Code NF" font-size="10.00">Imm8ToFP64()</text>
<text text-anchor="start" x="466" y="-118.5" font-family="Cascadia Code NF" font-size="10.00">+</text>
<text text-anchor="start" x="476" y="-118.5" font-family="Cascadia Code NF" font-size="10.00">ImmBranchRangeBitwidth()</text>
<text text-anchor="start" x="466" y="-102.5" font-family="Cascadia Code NF" font-size="10.00">+</text>
<text text-anchor="start" x="476" y="-102.5" font-family="Cascadia Code NF" font-size="10.00">ImmBranchRange()</text>
<text text-anchor="start" x="466" y="-86.5" font-family="Cascadia Code NF" font-size="10.00">+</text>
<text text-anchor="start" x="476" y="-86.5" font-family="Cascadia Code NF" font-size="10.00">IsValidImmPCOffset()</text>
<text text-anchor="start" x="466" y="-70.5" font-family="Cascadia Code NF" font-size="10.00">+</text>
<text text-anchor="start" x="476" y="-70.5" font-family="Cascadia Code NF" font-size="10.00">Cast()</text>
<text text-anchor="start" x="466" y="-54.5" font-family="Cascadia Code NF" font-size="10.00">+</text>
<text text-anchor="start" x="476" y="-54.5" font-family="Cascadia Code NF" font-size="10.00">IsValidPCRelOffset()</text>
<text text-anchor="start" x="466" y="-38.5" font-family="Cascadia Code NF" font-size="10.00">+</text>
<text text-anchor="start" x="476" y="-38.5" font-family="Cascadia Code NF" font-size="10.00">At()</text>
<text text-anchor="start" x="466" y="-22.5" font-family="Cascadia Code NF" font-size="10.00">+</text>
<text text-anchor="start" x="476" y="-22.5" font-family="Cascadia Code NF" font-size="10.00">At()</text>
<text text-anchor="start" x="476" y="-6.5" font-family="Cascadia Code NF" font-size="10.00">and 15 more...</text>
<polygon fill="#bfbfbf" stroke="#bfbfbf" points="462,-402 462,-402 624,-402 624,-402 462,-402"/>
<polygon fill="#bfbfbf" stroke="#bfbfbf" points="462,-354 462,-354 474,-354 474,-354 462,-354"/>
<polygon fill="#bfbfbf" stroke="#bfbfbf" points="474,-354 474,-354 624,-354 624,-354 474,-354"/>
<polygon fill="none" stroke="#bfbfbf" points="462,0 462,-420 624,-420 624,0 462,0"/>
</a>
</g>
</g>
<!-- Node2&#45;&gt;Node1 -->
<g id="edge1_Node000001_Node000002" class="edge">
<title>Node2&#45;&gt;Node1</title>
<g id="a_edge1_Node000001_Node000002"><a xlink:title=" ">
<path fill="none" stroke="#8b1a1a" d="M635.06,-210C643.42,-210 651.88,-210 660.21,-210"/>
<polygon fill="none" stroke="#8b1a1a" points="635.26,-206.5 625.26,-210 635.26,-213.5 635.26,-206.5"/>
</a>
</g>
</g>
<!-- Node3 -->
<g id="Node000003" class="node">
<title>Node3</title>
<g id="a_Node000003"><a xlink:href="../../da/dad/classv8_1_1internal_1_1InstructionGetters.html" target="_top" xlink:title=" ">
<polygon fill="white" stroke="none" points="426,-330.5 234,-330.5 234,-89.5 426,-89.5 426,-330.5"/>
<text text-anchor="start" x="252" y="-317" font-family="Cascadia Code NF" font-size="10.00">v8::internal::Instruction</text>
<text text-anchor="start" x="252" y="-304.25" font-family="Cascadia Code NF" font-size="10.00">Getters&lt; InstructionBase &gt;</text>
<text text-anchor="start" x="327" y="-288" font-family="Cascadia Code NF" font-size="10.00"> </text>
<text text-anchor="start" x="238" y="-272" font-family="Cascadia Code NF" font-size="10.00">+</text>
<text text-anchor="start" x="248" y="-272" font-family="Cascadia Code NF" font-size="10.00">RjValue()</text>
<text text-anchor="start" x="238" y="-256" font-family="Cascadia Code NF" font-size="10.00">+</text>
<text text-anchor="start" x="248" y="-256" font-family="Cascadia Code NF" font-size="10.00">RkValue()</text>
<text text-anchor="start" x="238" y="-240" font-family="Cascadia Code NF" font-size="10.00">+</text>
<text text-anchor="start" x="248" y="-240" font-family="Cascadia Code NF" font-size="10.00">RdValue()</text>
<text text-anchor="start" x="238" y="-224" font-family="Cascadia Code NF" font-size="10.00">+</text>
<text text-anchor="start" x="248" y="-224" font-family="Cascadia Code NF" font-size="10.00">RdValue()</text>
<text text-anchor="start" x="238" y="-208" font-family="Cascadia Code NF" font-size="10.00">+</text>
<text text-anchor="start" x="248" y="-208" font-family="Cascadia Code NF" font-size="10.00">RdValue()</text>
<text text-anchor="start" x="238" y="-192" font-family="Cascadia Code NF" font-size="10.00">+</text>
<text text-anchor="start" x="248" y="-192" font-family="Cascadia Code NF" font-size="10.00">Sa2Value()</text>
<text text-anchor="start" x="238" y="-176" font-family="Cascadia Code NF" font-size="10.00">+</text>
<text text-anchor="start" x="248" y="-176" font-family="Cascadia Code NF" font-size="10.00">Sa3Value()</text>
<text text-anchor="start" x="238" y="-160" font-family="Cascadia Code NF" font-size="10.00">+</text>
<text text-anchor="start" x="248" y="-160" font-family="Cascadia Code NF" font-size="10.00">Ui5Value()</text>
<text text-anchor="start" x="238" y="-144" font-family="Cascadia Code NF" font-size="10.00">+</text>
<text text-anchor="start" x="248" y="-144" font-family="Cascadia Code NF" font-size="10.00">Ui6Value()</text>
<text text-anchor="start" x="238" y="-128" font-family="Cascadia Code NF" font-size="10.00">+</text>
<text text-anchor="start" x="248" y="-128" font-family="Cascadia Code NF" font-size="10.00">Ui12Value()</text>
<text text-anchor="start" x="248" y="-112" font-family="Cascadia Code NF" font-size="10.00">and 138 more...</text>
<text text-anchor="start" x="238" y="-96" font-family="Cascadia Code NF" font-size="10.00">+</text>
<text text-anchor="start" x="248" y="-96" font-family="Cascadia Code NF" font-size="10.00">IsForbiddenAfterBranchInstr()</text>
<polygon fill="#bfbfbf" stroke="#bfbfbf" points="234,-299.5 234,-299.5 426,-299.5 426,-299.5 234,-299.5"/>
<polygon fill="#bfbfbf" stroke="#bfbfbf" points="234,-283.5 234,-283.5 426,-283.5 426,-283.5 234,-283.5"/>
<polygon fill="none" stroke="#bfbfbf" points="234,-89.5 234,-330.5 426,-330.5 426,-89.5 234,-89.5"/>
</a>
</g>
</g>
<!-- Node3&#45;&gt;Node2 -->
<g id="edge2_Node000002_Node000003" class="edge">
<title>Node3&#45;&gt;Node2</title>
<g id="a_edge2_Node000002_Node000003"><a xlink:title=" ">
<path fill="none" stroke="#63b8ff" d="M437.14,-196.5C445.54,-196.51 453.93,-196.63 462.11,-196.86"/>
<polygon fill="none" stroke="#63b8ff" points="437.19,-193 427.21,-196.55 437.23,-200 437.19,-193"/>
</a>
</g>
</g>
<!-- Node3&#45;&gt;Node2 -->
<g id="edge6_Node000002_Node000003" class="edge">
<title>Node3&#45;&gt;Node2</title>
<g id="a_edge6_Node000002_Node000003"><a xlink:title=" ">
<path fill="none" stroke="#63b8ff" d="M437.14,-210C445.54,-210 453.93,-210 462.11,-210"/>
<polygon fill="none" stroke="#63b8ff" points="437.21,-206.5 427.21,-210 437.21,-213.5 437.21,-206.5"/>
</a>
</g>
</g>
<!-- Node3&#45;&gt;Node2 -->
<g id="edge7_Node000002_Node000003" class="edge">
<title>Node3&#45;&gt;Node2</title>
<g id="a_edge7_Node000002_Node000003"><a xlink:title=" ">
<path fill="none" stroke="#63b8ff" d="M437.14,-223.5C445.54,-223.49 453.93,-223.37 462.11,-223.14"/>
<polygon fill="none" stroke="#63b8ff" points="437.23,-220 427.21,-223.45 437.19,-227 437.23,-220"/>
</a>
</g>
</g>
<!-- Node4 -->
<g id="Node000004" class="node">
<title>Node4</title>
<g id="a_Node000004"><a xlink:href="../../df/dfe/classv8_1_1internal_1_1InstructionBase.html" target="_top" xlink:title=" ">
<polygon fill="white" stroke="none" points="198,-348 0,-348 0,-72 198,-72 198,-348"/>
<text text-anchor="start" x="12" y="-334.5" font-family="Cascadia Code NF" font-size="10.00">v8::internal::InstructionBase</text>
<text text-anchor="start" x="4" y="-318.5" font-family="Cascadia Code NF" font-size="10.00">+</text>
<text text-anchor="start" x="14" y="-318.5" font-family="Cascadia Code NF" font-size="10.00">kOpcodeImmediateTypeMask</text>
<text text-anchor="start" x="4" y="-302.5" font-family="Cascadia Code NF" font-size="10.00">+</text>
<text text-anchor="start" x="14" y="-302.5" font-family="Cascadia Code NF" font-size="10.00">kFunctionFieldRegisterTypeMask</text>
<text text-anchor="start" x="4" y="-286.5" font-family="Cascadia Code NF" font-size="10.00">+</text>
<text text-anchor="start" x="14" y="-286.5" font-family="Cascadia Code NF" font-size="10.00">InstructionBits()</text>
<text text-anchor="start" x="4" y="-270.5" font-family="Cascadia Code NF" font-size="10.00">+</text>
<text text-anchor="start" x="14" y="-270.5" font-family="Cascadia Code NF" font-size="10.00">SetInstructionBits()</text>
<text text-anchor="start" x="4" y="-254.5" font-family="Cascadia Code NF" font-size="10.00">+</text>
<text text-anchor="start" x="14" y="-254.5" font-family="Cascadia Code NF" font-size="10.00">Bit()</text>
<text text-anchor="start" x="4" y="-238.5" font-family="Cascadia Code NF" font-size="10.00">+</text>
<text text-anchor="start" x="14" y="-238.5" font-family="Cascadia Code NF" font-size="10.00">Bits()</text>
<text text-anchor="start" x="4" y="-222.5" font-family="Cascadia Code NF" font-size="10.00">+</text>
<text text-anchor="start" x="14" y="-222.5" font-family="Cascadia Code NF" font-size="10.00">RjFieldRawNoAssert()</text>
<text text-anchor="start" x="4" y="-206.5" font-family="Cascadia Code NF" font-size="10.00">+</text>
<text text-anchor="start" x="14" y="-206.5" font-family="Cascadia Code NF" font-size="10.00">InstructionType()</text>
<text text-anchor="start" x="4" y="-190.5" font-family="Cascadia Code NF" font-size="10.00">+</text>
<text text-anchor="start" x="14" y="-190.5" font-family="Cascadia Code NF" font-size="10.00">InstructionBits()</text>
<text text-anchor="start" x="4" y="-174.5" font-family="Cascadia Code NF" font-size="10.00">+</text>
<text text-anchor="start" x="14" y="-174.5" font-family="Cascadia Code NF" font-size="10.00">SetInstructionBits()</text>
<text text-anchor="start" x="4" y="-158.5" font-family="Cascadia Code NF" font-size="10.00">+</text>
<text text-anchor="start" x="14" y="-158.5" font-family="Cascadia Code NF" font-size="10.00">Bit()</text>
<text text-anchor="start" x="4" y="-142.5" font-family="Cascadia Code NF" font-size="10.00">+</text>
<text text-anchor="start" x="14" y="-142.5" font-family="Cascadia Code NF" font-size="10.00">Bits()</text>
<text text-anchor="start" x="14" y="-126.5" font-family="Cascadia Code NF" font-size="10.00">and 25 more...</text>
<text text-anchor="start" x="4" y="-110.5" font-family="Cascadia Code NF" font-size="10.00">#</text>
<text text-anchor="start" x="14" y="-110.5" font-family="Cascadia Code NF" font-size="10.00">InstructionBase()</text>
<text text-anchor="start" x="4" y="-94.5" font-family="Cascadia Code NF" font-size="10.00">#</text>
<text text-anchor="start" x="14" y="-94.5" font-family="Cascadia Code NF" font-size="10.00">InstructionBase()</text>
<text text-anchor="start" x="4" y="-78.5" font-family="Cascadia Code NF" font-size="10.00">#</text>
<text text-anchor="start" x="14" y="-78.5" font-family="Cascadia Code NF" font-size="10.00">InstructionBase()</text>
<polygon fill="#bfbfbf" stroke="#bfbfbf" points="0,-330 0,-330 198,-330 198,-330 0,-330"/>
<polygon fill="#bfbfbf" stroke="#bfbfbf" points="0,-298 0,-298 12,-298 12,-298 0,-298"/>
<polygon fill="#bfbfbf" stroke="#bfbfbf" points="12,-298 12,-298 198,-298 198,-298 12,-298"/>
<polygon fill="none" stroke="#bfbfbf" points="0,-72 0,-348 198,-348 198,-72 0,-72"/>
</a>
</g>
</g>
<!-- Node4&#45;&gt;Node3 -->
<g id="edge3_Node000003_Node000004" class="edge">
<title>Node4&#45;&gt;Node3</title>
<g id="a_edge3_Node000003_Node000004"><a xlink:title=" ">
<path fill="none" stroke="#63b8ff" d="M209.12,-196.51C217.47,-196.47 225.85,-196.53 234.09,-196.68"/>
<polygon fill="none" stroke="#63b8ff" points="209.26,-193.01 199.29,-196.61 209.33,-200.01 209.26,-193.01"/>
</a>
</g>
</g>
<!-- Node4&#45;&gt;Node3 -->
<g id="edge4_Node000003_Node000004" class="edge">
<title>Node4&#45;&gt;Node3</title>
<g id="a_edge4_Node000003_Node000004"><a xlink:title=" ">
<path fill="none" stroke="#63b8ff" d="M209.12,-210C217.47,-210 225.85,-210 234.09,-210"/>
<polygon fill="none" stroke="#63b8ff" points="209.29,-206.5 199.29,-210 209.29,-213.5 209.29,-206.5"/>
</a>
</g>
</g>
<!-- Node4&#45;&gt;Node3 -->
<g id="edge5_Node000003_Node000004" class="edge">
<title>Node4&#45;&gt;Node3</title>
<g id="a_edge5_Node000003_Node000004"><a xlink:title=" ">
<path fill="none" stroke="#63b8ff" d="M209.12,-223.49C217.47,-223.53 225.85,-223.47 234.09,-223.32"/>
<polygon fill="none" stroke="#63b8ff" points="209.33,-219.99 199.29,-223.39 209.26,-226.99 209.33,-219.99"/>
</a>
</g>
</g>
</g>
</svg>

<g id="navigator" transform="translate(0 0)" fill="#404254">
  <rect fill="#f2f5e9" fill-opacity="0.5" stroke="#606060" stroke-width=".5" x="0" y="0" width="60" height="60"/>
  <use id="zoomplus" xlink:href="#zoomPlus" x="17" y="9" onmousedown="handleZoom(evt,'in')"/>
  <use id="zoomminus" xlink:href="#zoomMin" x="42" y="9" onmousedown="handleZoom(evt,'out')"/>
  <use id="reset" xlink:href="#resetDef" x="30" y="36" onmousedown="handleReset()"/>
   <use id="arrowup" xlink:href="#arrowUp" x="0" y="0" onmousedown="handlePan(0,-1)"/>
  <use id="arrowright" xlink:href="#arrowRight" x="0" y="0" onmousedown="handlePan(1,0)"/>
  <use id="arrowdown" xlink:href="#arrowDown" x="0" y="0" onmousedown="handlePan(0,1)"/>
  <use id="arrowleft" xlink:href="#arrowLeft" x="0" y="0" onmousedown="handlePan(-1,0)"/>
</g>
<svg viewBox="0 0 15 15" width="100%" height="30px" preserveAspectRatio="xMaxYMin meet">
 <g id="arrow_out" transform="scale(0.3 0.3)">
  <a xlink:href="classv8_1_1internal_1_1SIYInstruction__inherit__graph_org.svg" target="_base">
   <rect id="button" ry="5" rx="5" y="6" x="6" height="38" width="38"
        fill="#f2f5e9" fill-opacity="0.5" stroke="#606060" stroke-width="1.0"/>
   <path id="arrow"
     d="M 11.500037,31.436501 C 11.940474,20.09759 22.043105,11.32322 32.158766,21.979434 L 37.068811,17.246167 C 37.068811,17.246167 37.088388,32 37.088388,32 L 22.160133,31.978069 C 22.160133,31.978069 26.997745,27.140456 26.997745,27.140456 C 18.528582,18.264221 13.291696,25.230495 11.500037,31.436501 z"
     style="fill:#404040;"/>
  </a>
 </g>
</svg>

<style type='text/css'>
<![CDATA[
[data-mouse-over-selected='false'] { opacity: 0.7; }
[data-mouse-over-selected='true']  { opacity: 1.0; }
]]>
</style>
<script type="application/ecmascript"><![CDATA[
document.addEventListener('DOMContentLoaded', (event) => {
  highlightEdges();
  highlightAdjacentNodes();
});
]]></script>
</svg>
