<?xml version="1.0" encoding="UTF-8" standalone="no"?>
<!DOCTYPE svg PUBLIC "-//W3C//DTD SVG 1.1//EN"
 "http://www.w3.org/Graphics/SVG/1.1/DTD/svg11.dtd">
<!-- Generated by graphviz version 11.0.0 (20240428.1522)
 -->
<!-- Title: v8::internal::BigInt Pages: 1 -->
<!--zoomable 348 -->

<svg id="main" version="1.1" xmlns="http://www.w3.org/2000/svg" xmlns:xlink="http://www.w3.org/1999/xlink" xml:space="preserve" onload="init(evt)">
<style type="text/css"><![CDATA[
.node, .edge {opacity: 0.7;}
.node.selected, .edge.selected {opacity: 1;}
.edge:hover path { stroke: red; }
.edge:hover polygon { stroke: red; fill: red; }
svg#main { background-color: #111; }
]]></style>

<defs>
  <circle id="rim" cx="0" cy="0" r="7"/>
  <circle id="rim2" cx="0" cy="0" r="3.5"/>
  <g id="zoomPlus">
    <use xlink:href="#rim" fill="#404040"><set attributeName="fill" to="#808080" begin="zoomplus.mouseover" end="zoomplus.mouseout"/></use>
    <path d="M-4,0h8M0,-4v8" fill="none" stroke="white" stroke-width="1.5" pointer-events="none"/>
  </g>
  <g id="zoomMin">
    <use xlink:href="#rim" fill="#404040"><set attributeName="fill" to="#808080" begin="zoomminus.mouseover" end="zoomminus.mouseout"/></use>
    <path d="M-4,0h8" fill="none" stroke="white" stroke-width="1.5" pointer-events="none"/>
  </g>
  <g id="arrowUp" transform="translate(30 24)">
    <use xlink:href="#rim"/>
    <path pointer-events="none" fill="none" stroke="white" stroke-width="1.5" d="M0,-3.0v7 M-2.5,-0.5L0,-3.0L2.5,-0.5"/>
  </g>
  <g id="arrowRight" transform="rotate(90) translate(36 -43)">
    <use xlink:href="#rim"/>
    <path pointer-events="none" fill="none" stroke="white" stroke-width="1.5" d="M0,-3.0v7 M-2.5,-0.5L0,-3.0L2.5,-0.5"/>
  </g>
  <g id="arrowDown" transform="rotate(180) translate(-30 -48)">
    <use xlink:href="#rim"/>
    <path pointer-events="none" fill="none" stroke="white" stroke-width="1.5" d="M0,-3.0v7 M-2.5,-0.5L0,-3.0L2.5,-0.5"/>
  </g>
  <g id="arrowLeft" transform="rotate(270) translate(-36 17)">
    <use xlink:href="#rim"/>
    <path pointer-events="none" fill="none" stroke="white" stroke-width="1.5" d="M0,-3.0v7 M-2.5,-0.5L0,-3.0L2.5,-0.5"/>
  </g>
  <g id="resetDef">
    <use xlink:href="#rim2" fill="#404040"><set attributeName="fill" to="#808080" begin="reset.mouseover" end="reset.mouseout"/></use>
  </g>
</defs>
<script type="application/ecmascript">
var viewWidth = 854;
var viewHeight = 348;
var sectionId = 'dynsection-1';
</script>
<script type="application/ecmascript" xlink:href="../../svg.min.js"/>
<svg id="graph" class="graph">
<g id="viewport">
<title>v8::internal::BigInt</title>
<!-- Node1 -->
<g id="Node000001" class="node">
<title>Node1</title>
<g id="a_Node000001"><a xlink:title=" ">
<polygon fill="#999999" stroke="none" points="846,-340 716,-340 716,0 846,0 846,-340"/>
<text text-anchor="start" x="721" y="-326.5" font-family="Cascadia Code NF" font-size="10.00">v8::internal::BigInt</text>
<text text-anchor="start" x="778" y="-310.5" font-family="Cascadia Code NF" font-size="10.00"> </text>
<text text-anchor="start" x="721" y="-294.5" font-family="Cascadia Code NF" font-size="10.00">+</text>
<text text-anchor="start" x="732" y="-294.5" font-family="Cascadia Code NF" font-size="10.00">ToBoolean()</text>
<text text-anchor="start" x="721" y="-278.5" font-family="Cascadia Code NF" font-size="10.00">+</text>
<text text-anchor="start" x="732" y="-278.5" font-family="Cascadia Code NF" font-size="10.00">Hash()</text>
<text text-anchor="start" x="721" y="-262.5" font-family="Cascadia Code NF" font-size="10.00">+</text>
<text text-anchor="start" x="732" y="-262.5" font-family="Cascadia Code NF" font-size="10.00">IsNegative()</text>
<text text-anchor="start" x="721" y="-246.5" font-family="Cascadia Code NF" font-size="10.00">+</text>
<text text-anchor="start" x="732" y="-246.5" font-family="Cascadia Code NF" font-size="10.00">AsInt64()</text>
<text text-anchor="start" x="721" y="-230.5" font-family="Cascadia Code NF" font-size="10.00">+</text>
<text text-anchor="start" x="732" y="-230.5" font-family="Cascadia Code NF" font-size="10.00">AsUint64()</text>
<text text-anchor="start" x="721" y="-214.5" font-family="Cascadia Code NF" font-size="10.00">+</text>
<text text-anchor="start" x="732" y="-214.5" font-family="Cascadia Code NF" font-size="10.00">Words64Count()</text>
<text text-anchor="start" x="721" y="-198.5" font-family="Cascadia Code NF" font-size="10.00">+</text>
<text text-anchor="start" x="732" y="-198.5" font-family="Cascadia Code NF" font-size="10.00">ToWordsArray64()</text>
<text text-anchor="start" x="721" y="-182.5" font-family="Cascadia Code NF" font-size="10.00">+</text>
<text text-anchor="start" x="732" y="-182.5" font-family="Cascadia Code NF" font-size="10.00">BigIntShortPrint()</text>
<text text-anchor="start" x="721" y="-166.5" font-family="Cascadia Code NF" font-size="10.00">+</text>
<text text-anchor="start" x="732" y="-166.5" font-family="Cascadia Code NF" font-size="10.00">UnaryMinus()</text>
<text text-anchor="start" x="721" y="-150.5" font-family="Cascadia Code NF" font-size="10.00">+</text>
<text text-anchor="start" x="732" y="-150.5" font-family="Cascadia Code NF" font-size="10.00">BitwiseNot()</text>
<text text-anchor="start" x="721" y="-134.5" font-family="Cascadia Code NF" font-size="10.00">+</text>
<text text-anchor="start" x="732" y="-134.5" font-family="Cascadia Code NF" font-size="10.00">Exponentiate()</text>
<text text-anchor="start" x="721" y="-118.5" font-family="Cascadia Code NF" font-size="10.00">+</text>
<text text-anchor="start" x="732" y="-118.5" font-family="Cascadia Code NF" font-size="10.00">Multiply()</text>
<text text-anchor="start" x="721" y="-102.5" font-family="Cascadia Code NF" font-size="10.00">+</text>
<text text-anchor="start" x="732" y="-102.5" font-family="Cascadia Code NF" font-size="10.00">Divide()</text>
<text text-anchor="start" x="721" y="-86.5" font-family="Cascadia Code NF" font-size="10.00">+</text>
<text text-anchor="start" x="732" y="-86.5" font-family="Cascadia Code NF" font-size="10.00">Remainder()</text>
<text text-anchor="start" x="721" y="-70.5" font-family="Cascadia Code NF" font-size="10.00">+</text>
<text text-anchor="start" x="732" y="-70.5" font-family="Cascadia Code NF" font-size="10.00">Add()</text>
<text text-anchor="start" x="721" y="-54.5" font-family="Cascadia Code NF" font-size="10.00">+</text>
<text text-anchor="start" x="732" y="-54.5" font-family="Cascadia Code NF" font-size="10.00">Subtract()</text>
<text text-anchor="start" x="721" y="-38.5" font-family="Cascadia Code NF" font-size="10.00">+</text>
<text text-anchor="start" x="732" y="-38.5" font-family="Cascadia Code NF" font-size="10.00">LeftShift()</text>
<text text-anchor="start" x="721" y="-22.5" font-family="Cascadia Code NF" font-size="10.00">+</text>
<text text-anchor="start" x="732" y="-22.5" font-family="Cascadia Code NF" font-size="10.00">SignedRightShift()</text>
<text text-anchor="start" x="732" y="-6.5" font-family="Cascadia Code NF" font-size="10.00">and 24 more...</text>
<polygon fill="#666666" stroke="#666666" points="716,-322 716,-322 846,-322 846,-322 716,-322"/>
<polygon fill="#666666" stroke="#666666" points="716,-306 716,-306 846,-306 846,-306 716,-306"/>
<polygon fill="none" stroke="#666666" points="716,0 716,-340 846,-340 846,0 716,0"/>
</a>
</g>
</g>
<!-- Node2 -->
<g id="Node000002" class="node">
<title>Node2</title>
<g id="a_Node000002"><a xlink:href="../../d6/d44/classv8_1_1internal_1_1BigIntBase.html" target="_top" xlink:title=" ">
<polygon fill="white" stroke="none" points="680,-212 526,-212 526,-128 680,-128 680,-212"/>
<text text-anchor="start" x="531" y="-198.5" font-family="Cascadia Code NF" font-size="10.00">v8::internal::BigIntBase</text>
<text text-anchor="start" x="600" y="-182.5" font-family="Cascadia Code NF" font-size="10.00"> </text>
<text text-anchor="start" x="552" y="-166.5" font-family="Cascadia Code NF" font-size="10.00">+</text>
<text text-anchor="start" x="584" y="-166.5" font-family="Cascadia Code NF" font-size="10.00">length()</text>
<text text-anchor="start" x="552" y="-150.5" font-family="Cascadia Code NF" font-size="10.00">+</text>
<text text-anchor="start" x="584" y="-150.5" font-family="Cascadia Code NF" font-size="10.00">length()</text>
<text text-anchor="start" x="552" y="-134.5" font-family="Cascadia Code NF" font-size="10.00">+</text>
<text text-anchor="start" x="584" y="-134.5" font-family="Cascadia Code NF" font-size="10.00">digits()</text>
<polygon fill="#bfbfbf" stroke="#bfbfbf" points="526,-194 526,-194 680,-194 680,-194 526,-194"/>
<polygon fill="#bfbfbf" stroke="#bfbfbf" points="526,-178 526,-178 680,-178 680,-178 526,-178"/>
<polygon fill="none" stroke="#bfbfbf" points="526,-128 526,-212 680,-212 680,-128 526,-128"/>
</a>
</g>
</g>
<!-- Node2&#45;&gt;Node1 -->
<g id="edge1_Node000001_Node000002" class="edge">
<title>Node2&#45;&gt;Node1</title>
<g id="a_edge1_Node000001_Node000002"><a xlink:title=" ">
<path fill="none" stroke="#63b8ff" d="M691.32,-170C699.7,-170 708.1,-170 716.19,-170"/>
<polygon fill="none" stroke="#63b8ff" points="691.43,-166.5 681.43,-170 691.43,-173.5 691.43,-166.5"/>
</a>
</g>
</g>
<!-- Node3 -->
<g id="Node000003" class="node">
<title>Node3</title>
<g id="a_Node000003"><a xlink:href="../../d6/d18/classv8_1_1internal_1_1PrimitiveHeapObject.html" target="_top" xlink:title=" ">
<polygon fill="white" stroke="none" points="382,-249.5 210,-249.5 210,-184.5 382,-184.5 382,-249.5"/>
<text text-anchor="start" x="215" y="-236" font-family="Cascadia Code NF" font-size="10.00">v8::internal::PrimitiveHeap</text>
<text text-anchor="start" x="278" y="-223.25" font-family="Cascadia Code NF" font-size="10.00">Object</text>
<text text-anchor="start" x="293" y="-207" font-family="Cascadia Code NF" font-size="10.00"> </text>
<text text-anchor="start" x="293" y="-191" font-family="Cascadia Code NF" font-size="10.00"> </text>
<polygon fill="#bfbfbf" stroke="#bfbfbf" points="210,-218.5 210,-218.5 382,-218.5 382,-218.5 210,-218.5"/>
<polygon fill="#bfbfbf" stroke="#bfbfbf" points="210,-202.5 210,-202.5 382,-202.5 382,-202.5 210,-202.5"/>
<polygon fill="none" stroke="#bfbfbf" points="210,-184.5 210,-249.5 382,-249.5 382,-184.5 210,-184.5"/>
</a>
</g>
</g>
<!-- Node3&#45;&gt;Node2 -->
<g id="edge2_Node000002_Node000003" class="edge">
<title>Node3&#45;&gt;Node2</title>
<g id="a_edge2_Node000002_Node000003"><a xlink:title=" ">
<path fill="none" stroke="#63b8ff" d="M392.85,-204.15C428.99,-199.1 470.43,-193.07 508,-187 513.89,-186.05 519.99,-185.03 526.11,-183.98"/>
<polygon fill="none" stroke="#63b8ff" points="392.73,-200.63 383.31,-205.48 393.7,-207.57 392.73,-200.63"/>
</a>
</g>
</g>
<!-- Node4 -->
<g id="Node000004" class="node">
<title>Node4</title>
<g id="a_Node000004"><a xlink:href="../../d0/dec/classv8_1_1internal_1_1HeapObjectLayout.html" target="_top" xlink:title=" ">
<polygon fill="white" stroke="none" points="174,-336 0,-336 0,-98 174,-98 174,-336"/>
<text text-anchor="start" x="15" y="-322.5" font-family="Cascadia Code NF" font-size="10.00">v8::internal::HeapObject</text>
<text text-anchor="start" x="69" y="-309.75" font-family="Cascadia Code NF" font-size="10.00">Layout</text>
<text text-anchor="start" x="84" y="-293.5" font-family="Cascadia Code NF" font-size="10.00"> </text>
<text text-anchor="start" x="4" y="-277.5" font-family="Cascadia Code NF" font-size="10.00">+</text>
<text text-anchor="start" x="14" y="-277.5" font-family="Cascadia Code NF" font-size="10.00">HeapObjectLayout()</text>
<text text-anchor="start" x="4" y="-261.5" font-family="Cascadia Code NF" font-size="10.00">+</text>
<text text-anchor="start" x="14" y="-261.5" font-family="Cascadia Code NF" font-size="10.00">map()</text>
<text text-anchor="start" x="4" y="-245.5" font-family="Cascadia Code NF" font-size="10.00">+</text>
<text text-anchor="start" x="14" y="-245.5" font-family="Cascadia Code NF" font-size="10.00">map()</text>
<text text-anchor="start" x="4" y="-229.5" font-family="Cascadia Code NF" font-size="10.00">+</text>
<text text-anchor="start" x="14" y="-229.5" font-family="Cascadia Code NF" font-size="10.00">set_map()</text>
<text text-anchor="start" x="4" y="-213.5" font-family="Cascadia Code NF" font-size="10.00">+</text>
<text text-anchor="start" x="14" y="-213.5" font-family="Cascadia Code NF" font-size="10.00">set_map()</text>
<text text-anchor="start" x="4" y="-197.5" font-family="Cascadia Code NF" font-size="10.00">+</text>
<text text-anchor="start" x="14" y="-197.5" font-family="Cascadia Code NF" font-size="10.00">set_map_safe_transition()</text>
<text text-anchor="start" x="4" y="-181.5" font-family="Cascadia Code NF" font-size="10.00">+</text>
<text text-anchor="start" x="14" y="-181.5" font-family="Cascadia Code NF" font-size="10.00">set_map_safe_transition</text>
<text text-anchor="start" x="14" y="-168.75" font-family="Cascadia Code NF" font-size="10.00">_no_write_barrier()</text>
<text text-anchor="start" x="4" y="-152.5" font-family="Cascadia Code NF" font-size="10.00">+</text>
<text text-anchor="start" x="14" y="-152.5" font-family="Cascadia Code NF" font-size="10.00">set_map_after_allocation()</text>
<text text-anchor="start" x="4" y="-136.5" font-family="Cascadia Code NF" font-size="10.00">+</text>
<text text-anchor="start" x="14" y="-136.5" font-family="Cascadia Code NF" font-size="10.00">set_map_no_write_barrier()</text>
<text text-anchor="start" x="4" y="-120.5" font-family="Cascadia Code NF" font-size="10.00">+</text>
<text text-anchor="start" x="14" y="-120.5" font-family="Cascadia Code NF" font-size="10.00">set_map_word_forwarded()</text>
<text text-anchor="start" x="14" y="-104.5" font-family="Cascadia Code NF" font-size="10.00">and 7 more...</text>
<polygon fill="#bfbfbf" stroke="#bfbfbf" points="0,-305 0,-305 174,-305 174,-305 0,-305"/>
<polygon fill="#bfbfbf" stroke="#bfbfbf" points="0,-289 0,-289 174,-289 174,-289 0,-289"/>
<polygon fill="none" stroke="#bfbfbf" points="0,-98 0,-336 174,-336 174,-98 0,-98"/>
</a>
</g>
</g>
<!-- Node4&#45;&gt;Node3 -->
<g id="edge3_Node000003_Node000004" class="edge">
<title>Node4&#45;&gt;Node3</title>
<g id="a_edge3_Node000003_Node000004"><a xlink:title=" ">
<path fill="none" stroke="#63b8ff" d="M185.31,-217C193.65,-217 202.05,-217 210.28,-217"/>
<polygon fill="none" stroke="#63b8ff" points="185.5,-213.5 175.5,-217 185.5,-220.5 185.5,-213.5"/>
</a>
</g>
</g>
<!-- Node5 -->
<g id="Node000005" class="node">
<title>Node5</title>
<g id="a_Node000005"><a xlink:title=" ">
<polygon fill="white" stroke="none" points="316,-166 276,-166 276,-114 316,-114 316,-166"/>
<text text-anchor="start" x="281" y="-152.5" font-family="Cascadia Code NF" font-size="10.00">const</text>
<text text-anchor="start" x="293" y="-136.5" font-family="Cascadia Code NF" font-size="10.00"> </text>
<text text-anchor="start" x="293" y="-120.5" font-family="Cascadia Code NF" font-size="10.00"> </text>
<polygon fill="#bfbfbf" stroke="#bfbfbf" points="276,-148 276,-148 316,-148 316,-148 276,-148"/>
<polygon fill="#bfbfbf" stroke="#bfbfbf" points="276,-132 276,-132 316,-132 316,-132 276,-132"/>
<polygon fill="none" stroke="#bfbfbf" points="276,-114 276,-166 316,-166 316,-114 276,-114"/>
</a>
</g>
</g>
<!-- Node5&#45;&gt;Node2 -->
<g id="edge4_Node000002_Node000005" class="edge">
<title>Node5&#45;&gt;Node2</title>
<g id="a_edge4_Node000002_Node000005"><a xlink:title=" ">
<path fill="none" stroke="#63b8ff" d="M315.73,-139.65C352.67,-139.19 437.49,-139.4 508,-148.75 509.75,-148.98 511.51,-149.23 513.29,-149.49"/>
<polygon fill="none" stroke="#63b8ff" points="513.3,-149.5 519.87,-146.53 525.14,-151.45 518.56,-154.42 513.3,-149.5"/>
</a>
</g>
<text text-anchor="middle" x="454" y="-176.75" font-family="Cascadia Code NF" font-size="10.00" fill="grey"> +kLengthFieldBits</text>
<text text-anchor="middle" x="454" y="-164" font-family="Cascadia Code NF" font-size="10.00" fill="grey">+kMaxLength</text>
<text text-anchor="middle" x="454" y="-151.25" font-family="Cascadia Code NF" font-size="10.00" fill="grey">+kMaxLengthBits</text>
</g>
</g>
</svg>

<g id="navigator" transform="translate(0 0)" fill="#404254">
  <rect fill="#f2f5e9" fill-opacity="0.5" stroke="#606060" stroke-width=".5" x="0" y="0" width="60" height="60"/>
  <use id="zoomplus" xlink:href="#zoomPlus" x="17" y="9" onmousedown="handleZoom(evt,'in')"/>
  <use id="zoomminus" xlink:href="#zoomMin" x="42" y="9" onmousedown="handleZoom(evt,'out')"/>
  <use id="reset" xlink:href="#resetDef" x="30" y="36" onmousedown="handleReset()"/>
   <use id="arrowup" xlink:href="#arrowUp" x="0" y="0" onmousedown="handlePan(0,-1)"/>
  <use id="arrowright" xlink:href="#arrowRight" x="0" y="0" onmousedown="handlePan(1,0)"/>
  <use id="arrowdown" xlink:href="#arrowDown" x="0" y="0" onmousedown="handlePan(0,1)"/>
  <use id="arrowleft" xlink:href="#arrowLeft" x="0" y="0" onmousedown="handlePan(-1,0)"/>
</g>
<svg viewBox="0 0 15 15" width="100%" height="30px" preserveAspectRatio="xMaxYMin meet">
 <g id="arrow_out" transform="scale(0.3 0.3)">
  <a xlink:href="classv8_1_1internal_1_1BigInt__coll__graph_org.svg" target="_base">
   <rect id="button" ry="5" rx="5" y="6" x="6" height="38" width="38"
        fill="#f2f5e9" fill-opacity="0.5" stroke="#606060" stroke-width="1.0"/>
   <path id="arrow"
     d="M 11.500037,31.436501 C 11.940474,20.09759 22.043105,11.32322 32.158766,21.979434 L 37.068811,17.246167 C 37.068811,17.246167 37.088388,32 37.088388,32 L 22.160133,31.978069 C 22.160133,31.978069 26.997745,27.140456 26.997745,27.140456 C 18.528582,18.264221 13.291696,25.230495 11.500037,31.436501 z"
     style="fill:#404040;"/>
  </a>
 </g>
</svg>

<style type='text/css'>
<![CDATA[
[data-mouse-over-selected='false'] { opacity: 0.7; }
[data-mouse-over-selected='true']  { opacity: 1.0; }
]]>
</style>
<script type="application/ecmascript"><![CDATA[
document.addEventListener('DOMContentLoaded', (event) => {
  highlightEdges();
  highlightAdjacentNodes();
});
]]></script>
</svg>
