<?xml version="1.0" encoding="UTF-8" standalone="no"?>
<!DOCTYPE svg PUBLIC "-//W3C//DTD SVG 1.1//EN"
 "http://www.w3.org/Graphics/SVG/1.1/DTD/svg11.dtd">
<!-- Generated by graphviz version 11.0.0 (20240428.1522)
 -->
<!-- Title: v8::internal::TorqueStructUnmodifiedOrderedHashSetIterator_0 Pages: 1 -->
<svg width="1066pt" height="741pt"
 viewBox="0.00 0.00 1066.00 740.50" xmlns="http://www.w3.org/2000/svg" xmlns:xlink="http://www.w3.org/1999/xlink">
<g id="graph0" class="graph" transform="scale(1 1) rotate(0) translate(4 736.5)">
<title>v8::internal::TorqueStructUnmodifiedOrderedHashSetIterator_0</title>
<!-- Node1 -->
<g id="Node000001" class="node">
<title>Node1</title>
<g id="a_Node000001"><a xlink:title=" ">
<polygon fill="#999999" stroke="none" points="1058,-437.5 844,-437.5 844,-372.5 1058,-372.5 1058,-437.5"/>
<text text-anchor="start" x="849" y="-424" font-family="Cascadia Code NF" font-size="10.00">v8::internal::TorqueStruct</text>
<text text-anchor="start" x="849" y="-411.25" font-family="Cascadia Code NF" font-size="10.00">UnmodifiedOrderedHashSetIterator_0</text>
<text text-anchor="start" x="948" y="-395" font-family="Cascadia Code NF" font-size="10.00"> </text>
<text text-anchor="start" x="883.5" y="-379" font-family="Cascadia Code NF" font-size="10.00">+</text>
<text text-anchor="start" x="929" y="-379" font-family="Cascadia Code NF" font-size="10.00">Flatten()</text>
<polygon fill="#666666" stroke="#666666" points="844,-406.5 844,-406.5 1058,-406.5 1058,-406.5 844,-406.5"/>
<polygon fill="#666666" stroke="#666666" points="844,-390.5 844,-390.5 1058,-390.5 1058,-390.5 844,-390.5"/>
<polygon fill="none" stroke="#666666" points="844,-372.5 844,-437.5 1058,-437.5 1058,-372.5 844,-372.5"/>
</a>
</g>
</g>
<!-- Node2 -->
<g id="Node000002" class="node">
<title>Node2</title>
<g id="a_Node000002"><a xlink:href="$db/dc1/classv8_1_1internal_1_1TNode.html" xlink:title=" ">
<polygon fill="white" stroke="none" points="570,-732.5 398,-732.5 398,-513.5 570,-513.5 570,-732.5"/>
<text text-anchor="start" x="403" y="-719" font-family="Cascadia Code NF" font-size="10.00">v8::internal::TNode</text>
<text text-anchor="start" x="403" y="-706.25" font-family="Cascadia Code NF" font-size="10.00">&lt; v8::internal::OrderedHash</text>
<text text-anchor="start" x="469" y="-693.5" font-family="Cascadia Code NF" font-size="10.00">Set &gt;</text>
<text text-anchor="start" x="481" y="-677" font-family="Cascadia Code NF" font-size="10.00"> </text>
<text text-anchor="start" x="410.5" y="-661" font-family="Cascadia Code NF" font-size="10.00">+</text>
<text text-anchor="start" x="429" y="-661" font-family="Cascadia Code NF" font-size="10.00">TNode()</text>
<text text-anchor="start" x="410.5" y="-645" font-family="Cascadia Code NF" font-size="10.00">+</text>
<text text-anchor="start" x="429" y="-645" font-family="Cascadia Code NF" font-size="10.00">TNode()</text>
<text text-anchor="start" x="410.5" y="-629" font-family="Cascadia Code NF" font-size="10.00">+</text>
<text text-anchor="start" x="429" y="-629" font-family="Cascadia Code NF" font-size="10.00">TNode()</text>
<text text-anchor="start" x="410.5" y="-613" font-family="Cascadia Code NF" font-size="10.00">+</text>
<text text-anchor="start" x="429" y="-613" font-family="Cascadia Code NF" font-size="10.00">operator=()</text>
<text text-anchor="start" x="410.5" y="-597" font-family="Cascadia Code NF" font-size="10.00">+</text>
<text text-anchor="start" x="429" y="-597" font-family="Cascadia Code NF" font-size="10.00">operator compiler::</text>
<text text-anchor="start" x="429" y="-584.25" font-family="Cascadia Code NF" font-size="10.00">Node *()</text>
<text text-anchor="start" x="410.5" y="-568" font-family="Cascadia Code NF" font-size="10.00">+</text>
<text text-anchor="start" x="429" y="-568" font-family="Cascadia Code NF" font-size="10.00">operator bool()</text>
<text text-anchor="start" x="410.5" y="-552" font-family="Cascadia Code NF" font-size="10.00">+</text>
<text text-anchor="start" x="429" y="-552" font-family="Cascadia Code NF" font-size="10.00">UncheckedCast()</text>
<text text-anchor="start" x="410.5" y="-536" font-family="Cascadia Code NF" font-size="10.00">#</text>
<text text-anchor="start" x="429" y="-536" font-family="Cascadia Code NF" font-size="10.00">TNode()</text>
<text text-anchor="start" x="410.5" y="-520" font-family="Cascadia Code NF" font-size="10.00">#</text>
<text text-anchor="start" x="429" y="-520" font-family="Cascadia Code NF" font-size="10.00">LazyTemplateChecks()</text>
<polygon fill="#bfbfbf" stroke="#bfbfbf" points="398,-688.5 398,-688.5 570,-688.5 570,-688.5 398,-688.5"/>
<polygon fill="#bfbfbf" stroke="#bfbfbf" points="398,-672.5 398,-672.5 570,-672.5 570,-672.5 398,-672.5"/>
<polygon fill="none" stroke="#bfbfbf" points="398,-513.5 398,-732.5 570,-732.5 570,-513.5 398,-513.5"/>
</a>
</g>
</g>
<!-- Node2&#45;&gt;Node1 -->
<g id="edge1_Node000001_Node000002" class="edge">
<title>Node2&#45;&gt;Node1</title>
<g id="a_edge1_Node000001_Node000002"><a xlink:title=" ">
<path fill="none" stroke="#63b8ff" d="M569.75,-583.27C654.97,-543.31 785.43,-482.15 869.22,-442.87"/>
<polygon fill="none" stroke="#63b8ff" points="869.3,-442.84 873.03,-436.67 880.16,-437.74 876.43,-443.91 869.3,-442.84"/>
</a>
</g>
<text text-anchor="middle" x="671" y="-574.25" font-family="Cascadia Code NF" font-size="10.00" fill="grey"> +table</text>
</g>
<!-- Node3 -->
<g id="Node000003" class="node">
<title>Node3</title>
<g id="a_Node000003"><a xlink:href="$dc/d22/classv8_1_1internal_1_1compiler_1_1Node.html" xlink:title=" ">
<polygon fill="white" stroke="none" points="142,-553.5 0,-553.5 0,-296.5 142,-296.5 142,-553.5"/>
<text text-anchor="start" x="5" y="-540" font-family="Cascadia Code NF" font-size="10.00">v8::internal::compiler</text>
<text text-anchor="start" x="53" y="-527.25" font-family="Cascadia Code NF" font-size="10.00">::Node</text>
<text text-anchor="start" x="68" y="-511" font-family="Cascadia Code NF" font-size="10.00"> </text>
<text text-anchor="start" x="14" y="-495" font-family="Cascadia Code NF" font-size="10.00">+</text>
<text text-anchor="start" x="34" y="-495" font-family="Cascadia Code NF" font-size="10.00">IsDead()</text>
<text text-anchor="start" x="14" y="-479" font-family="Cascadia Code NF" font-size="10.00">+</text>
<text text-anchor="start" x="34" y="-479" font-family="Cascadia Code NF" font-size="10.00">Kill()</text>
<text text-anchor="start" x="14" y="-463" font-family="Cascadia Code NF" font-size="10.00">+</text>
<text text-anchor="start" x="34" y="-463" font-family="Cascadia Code NF" font-size="10.00">op()</text>
<text text-anchor="start" x="14" y="-447" font-family="Cascadia Code NF" font-size="10.00">+</text>
<text text-anchor="start" x="34" y="-447" font-family="Cascadia Code NF" font-size="10.00">opcode()</text>
<text text-anchor="start" x="14" y="-431" font-family="Cascadia Code NF" font-size="10.00">+</text>
<text text-anchor="start" x="34" y="-431" font-family="Cascadia Code NF" font-size="10.00">id()</text>
<text text-anchor="start" x="14" y="-415" font-family="Cascadia Code NF" font-size="10.00">+</text>
<text text-anchor="start" x="34" y="-415" font-family="Cascadia Code NF" font-size="10.00">InputCount()</text>
<text text-anchor="start" x="14" y="-399" font-family="Cascadia Code NF" font-size="10.00">+</text>
<text text-anchor="start" x="34" y="-399" font-family="Cascadia Code NF" font-size="10.00">Verify()</text>
<text text-anchor="start" x="14" y="-383" font-family="Cascadia Code NF" font-size="10.00">+</text>
<text text-anchor="start" x="34" y="-383" font-family="Cascadia Code NF" font-size="10.00">InputAt()</text>
<text text-anchor="start" x="14" y="-367" font-family="Cascadia Code NF" font-size="10.00">+</text>
<text text-anchor="start" x="34" y="-367" font-family="Cascadia Code NF" font-size="10.00">ReplaceInput()</text>
<text text-anchor="start" x="14" y="-351" font-family="Cascadia Code NF" font-size="10.00">+</text>
<text text-anchor="start" x="34" y="-351" font-family="Cascadia Code NF" font-size="10.00">AppendInput()</text>
<text text-anchor="start" x="34" y="-335" font-family="Cascadia Code NF" font-size="10.00">and 19 more...</text>
<text text-anchor="start" x="14" y="-319" font-family="Cascadia Code NF" font-size="10.00">+</text>
<text text-anchor="start" x="34" y="-319" font-family="Cascadia Code NF" font-size="10.00">New()</text>
<text text-anchor="start" x="14" y="-303" font-family="Cascadia Code NF" font-size="10.00">+</text>
<text text-anchor="start" x="34" y="-303" font-family="Cascadia Code NF" font-size="10.00">Clone()</text>
<polygon fill="#bfbfbf" stroke="#bfbfbf" points="0,-522.5 0,-522.5 142,-522.5 142,-522.5 0,-522.5"/>
<polygon fill="#bfbfbf" stroke="#bfbfbf" points="0,-506.5 0,-506.5 142,-506.5 142,-506.5 0,-506.5"/>
<polygon fill="none" stroke="#bfbfbf" points="0,-296.5 0,-553.5 142,-553.5 142,-296.5 0,-296.5"/>
</a>
</g>
</g>
<!-- Node3&#45;&gt;Node2 -->
<g id="edge2_Node000002_Node000003" class="edge">
<title>Node3&#45;&gt;Node2</title>
<g id="a_edge2_Node000002_Node000003"><a xlink:title=" ">
<path fill="none" stroke="#63b8ff" d="M141.72,-458.59C209.14,-491.07 311.86,-540.55 386.99,-576.75"/>
<polygon fill="none" stroke="#63b8ff" points="386.71,-576.61 393.86,-575.61 397.52,-581.82 390.38,-582.82 386.71,-576.61"/>
</a>
</g>
<text text-anchor="middle" x="181" y="-489.25" font-family="Cascadia Code NF" font-size="10.00" fill="grey"> #node_</text>
</g>
<!-- Node4 -->
<g id="Node000004" class="node">
<title>Node4</title>
<g id="a_Node000004"><a xlink:href="$db/dc1/classv8_1_1internal_1_1TNode.html" xlink:title=" ">
<polygon fill="white" stroke="none" points="561,-508 407,-508 407,-302 561,-302 561,-508"/>
<text text-anchor="start" x="412" y="-494.5" font-family="Cascadia Code NF" font-size="10.00">v8::internal::TNode</text>
<text text-anchor="start" x="412" y="-481.75" font-family="Cascadia Code NF" font-size="10.00">&lt; v8::internal::Int32T &gt;</text>
<text text-anchor="start" x="481" y="-465.5" font-family="Cascadia Code NF" font-size="10.00"> </text>
<text text-anchor="start" x="415" y="-449.5" font-family="Cascadia Code NF" font-size="10.00">+</text>
<text text-anchor="start" x="429" y="-449.5" font-family="Cascadia Code NF" font-size="10.00">TNode()</text>
<text text-anchor="start" x="415" y="-433.5" font-family="Cascadia Code NF" font-size="10.00">+</text>
<text text-anchor="start" x="429" y="-433.5" font-family="Cascadia Code NF" font-size="10.00">TNode()</text>
<text text-anchor="start" x="415" y="-417.5" font-family="Cascadia Code NF" font-size="10.00">+</text>
<text text-anchor="start" x="429" y="-417.5" font-family="Cascadia Code NF" font-size="10.00">TNode()</text>
<text text-anchor="start" x="415" y="-401.5" font-family="Cascadia Code NF" font-size="10.00">+</text>
<text text-anchor="start" x="429" y="-401.5" font-family="Cascadia Code NF" font-size="10.00">operator=()</text>
<text text-anchor="start" x="415" y="-385.5" font-family="Cascadia Code NF" font-size="10.00">+</text>
<text text-anchor="start" x="429" y="-385.5" font-family="Cascadia Code NF" font-size="10.00">operator compiler::</text>
<text text-anchor="start" x="429" y="-372.75" font-family="Cascadia Code NF" font-size="10.00">Node *()</text>
<text text-anchor="start" x="415" y="-356.5" font-family="Cascadia Code NF" font-size="10.00">+</text>
<text text-anchor="start" x="429" y="-356.5" font-family="Cascadia Code NF" font-size="10.00">operator bool()</text>
<text text-anchor="start" x="415" y="-340.5" font-family="Cascadia Code NF" font-size="10.00">+</text>
<text text-anchor="start" x="429" y="-340.5" font-family="Cascadia Code NF" font-size="10.00">UncheckedCast()</text>
<text text-anchor="start" x="415" y="-324.5" font-family="Cascadia Code NF" font-size="10.00">#</text>
<text text-anchor="start" x="429" y="-324.5" font-family="Cascadia Code NF" font-size="10.00">TNode()</text>
<text text-anchor="start" x="415" y="-308.5" font-family="Cascadia Code NF" font-size="10.00">#</text>
<text text-anchor="start" x="429" y="-308.5" font-family="Cascadia Code NF" font-size="10.00">LazyTemplateChecks()</text>
<polygon fill="#bfbfbf" stroke="#bfbfbf" points="407,-477 407,-477 561,-477 561,-477 407,-477"/>
<polygon fill="#bfbfbf" stroke="#bfbfbf" points="407,-461 407,-461 561,-461 561,-461 407,-461"/>
<polygon fill="none" stroke="#bfbfbf" points="407,-302 407,-508 561,-508 561,-302 407,-302"/>
</a>
</g>
</g>
<!-- Node3&#45;&gt;Node4 -->
<g id="edge4_Node000004_Node000003" class="edge">
<title>Node3&#45;&gt;Node4</title>
<g id="a_edge4_Node000004_Node000003"><a xlink:title=" ">
<path fill="none" stroke="#63b8ff" d="M141.88,-436.25C204.61,-444.44 299.01,-452.02 380,-439 384.88,-438.22 389.84,-437.23 394.82,-436.1"/>
<polygon fill="none" stroke="#63b8ff" points="394.66,-436.14 399.52,-430.81 406.31,-433.24 401.45,-438.57 394.66,-436.14"/>
</a>
</g>
<text text-anchor="middle" x="181" y="-445.25" font-family="Cascadia Code NF" font-size="10.00" fill="grey"> #node_</text>
</g>
<!-- Node6 -->
<g id="Node000006" class="node">
<title>Node6</title>
<g id="a_Node000006"><a xlink:href="$db/dc1/classv8_1_1internal_1_1TNode.html" xlink:title=" ">
<polygon fill="white" stroke="none" points="377,-430 223,-430 223,-224 377,-224 377,-430"/>
<text text-anchor="start" x="228" y="-416.5" font-family="Cascadia Code NF" font-size="10.00">v8::internal::TNode</text>
<text text-anchor="start" x="228" y="-403.75" font-family="Cascadia Code NF" font-size="10.00">&lt; v8::internal::Object &gt;</text>
<text text-anchor="start" x="297" y="-387.5" font-family="Cascadia Code NF" font-size="10.00"> </text>
<text text-anchor="start" x="231" y="-371.5" font-family="Cascadia Code NF" font-size="10.00">+</text>
<text text-anchor="start" x="245" y="-371.5" font-family="Cascadia Code NF" font-size="10.00">TNode()</text>
<text text-anchor="start" x="231" y="-355.5" font-family="Cascadia Code NF" font-size="10.00">+</text>
<text text-anchor="start" x="245" y="-355.5" font-family="Cascadia Code NF" font-size="10.00">TNode()</text>
<text text-anchor="start" x="231" y="-339.5" font-family="Cascadia Code NF" font-size="10.00">+</text>
<text text-anchor="start" x="245" y="-339.5" font-family="Cascadia Code NF" font-size="10.00">TNode()</text>
<text text-anchor="start" x="231" y="-323.5" font-family="Cascadia Code NF" font-size="10.00">+</text>
<text text-anchor="start" x="245" y="-323.5" font-family="Cascadia Code NF" font-size="10.00">operator=()</text>
<text text-anchor="start" x="231" y="-307.5" font-family="Cascadia Code NF" font-size="10.00">+</text>
<text text-anchor="start" x="245" y="-307.5" font-family="Cascadia Code NF" font-size="10.00">operator compiler::</text>
<text text-anchor="start" x="245" y="-294.75" font-family="Cascadia Code NF" font-size="10.00">Node *()</text>
<text text-anchor="start" x="231" y="-278.5" font-family="Cascadia Code NF" font-size="10.00">+</text>
<text text-anchor="start" x="245" y="-278.5" font-family="Cascadia Code NF" font-size="10.00">operator bool()</text>
<text text-anchor="start" x="231" y="-262.5" font-family="Cascadia Code NF" font-size="10.00">+</text>
<text text-anchor="start" x="245" y="-262.5" font-family="Cascadia Code NF" font-size="10.00">UncheckedCast()</text>
<text text-anchor="start" x="231" y="-246.5" font-family="Cascadia Code NF" font-size="10.00">#</text>
<text text-anchor="start" x="245" y="-246.5" font-family="Cascadia Code NF" font-size="10.00">TNode()</text>
<text text-anchor="start" x="231" y="-230.5" font-family="Cascadia Code NF" font-size="10.00">#</text>
<text text-anchor="start" x="245" y="-230.5" font-family="Cascadia Code NF" font-size="10.00">LazyTemplateChecks()</text>
<polygon fill="#bfbfbf" stroke="#bfbfbf" points="223,-399 223,-399 377,-399 377,-399 223,-399"/>
<polygon fill="#bfbfbf" stroke="#bfbfbf" points="223,-383 223,-383 377,-383 377,-383 223,-383"/>
<polygon fill="none" stroke="#bfbfbf" points="223,-224 223,-430 377,-430 377,-224 223,-224"/>
</a>
</g>
</g>
<!-- Node3&#45;&gt;Node6 -->
<g id="edge7_Node000006_Node000003" class="edge">
<title>Node3&#45;&gt;Node6</title>
<g id="a_edge7_Node000006_Node000003"><a xlink:title=" ">
<path fill="none" stroke="#63b8ff" d="M141.96,-394.8C163.92,-385.31 188.45,-374.73 211.48,-364.79"/>
<polygon fill="none" stroke="#63b8ff" points="211.51,-364.77 215.43,-358.72 222.53,-360.01 218.6,-366.06 211.51,-364.77"/>
</a>
</g>
<text text-anchor="middle" x="181" y="-387.25" font-family="Cascadia Code NF" font-size="10.00" fill="grey"> #node_</text>
</g>
<!-- Node7 -->
<g id="Node000007" class="node">
<title>Node7</title>
<g id="a_Node000007"><a xlink:href="$db/dc1/classv8_1_1internal_1_1TNode.html" xlink:title=" ">
<polygon fill="white" stroke="none" points="380,-206 220,-206 220,0 380,0 380,-206"/>
<text text-anchor="start" x="225" y="-192.5" font-family="Cascadia Code NF" font-size="10.00">v8::internal::TNode</text>
<text text-anchor="start" x="225" y="-179.75" font-family="Cascadia Code NF" font-size="10.00">&lt; v8::internal::IntPtrT &gt;</text>
<text text-anchor="start" x="297" y="-163.5" font-family="Cascadia Code NF" font-size="10.00"> </text>
<text text-anchor="start" x="229.5" y="-147.5" font-family="Cascadia Code NF" font-size="10.00">+</text>
<text text-anchor="start" x="245" y="-147.5" font-family="Cascadia Code NF" font-size="10.00">TNode()</text>
<text text-anchor="start" x="229.5" y="-131.5" font-family="Cascadia Code NF" font-size="10.00">+</text>
<text text-anchor="start" x="245" y="-131.5" font-family="Cascadia Code NF" font-size="10.00">TNode()</text>
<text text-anchor="start" x="229.5" y="-115.5" font-family="Cascadia Code NF" font-size="10.00">+</text>
<text text-anchor="start" x="245" y="-115.5" font-family="Cascadia Code NF" font-size="10.00">TNode()</text>
<text text-anchor="start" x="229.5" y="-99.5" font-family="Cascadia Code NF" font-size="10.00">+</text>
<text text-anchor="start" x="245" y="-99.5" font-family="Cascadia Code NF" font-size="10.00">operator=()</text>
<text text-anchor="start" x="229.5" y="-83.5" font-family="Cascadia Code NF" font-size="10.00">+</text>
<text text-anchor="start" x="245" y="-83.5" font-family="Cascadia Code NF" font-size="10.00">operator compiler::</text>
<text text-anchor="start" x="245" y="-70.75" font-family="Cascadia Code NF" font-size="10.00">Node *()</text>
<text text-anchor="start" x="229.5" y="-54.5" font-family="Cascadia Code NF" font-size="10.00">+</text>
<text text-anchor="start" x="245" y="-54.5" font-family="Cascadia Code NF" font-size="10.00">operator bool()</text>
<text text-anchor="start" x="229.5" y="-38.5" font-family="Cascadia Code NF" font-size="10.00">+</text>
<text text-anchor="start" x="245" y="-38.5" font-family="Cascadia Code NF" font-size="10.00">UncheckedCast()</text>
<text text-anchor="start" x="229.5" y="-22.5" font-family="Cascadia Code NF" font-size="10.00">#</text>
<text text-anchor="start" x="245" y="-22.5" font-family="Cascadia Code NF" font-size="10.00">TNode()</text>
<text text-anchor="start" x="229.5" y="-6.5" font-family="Cascadia Code NF" font-size="10.00">#</text>
<text text-anchor="start" x="245" y="-6.5" font-family="Cascadia Code NF" font-size="10.00">LazyTemplateChecks()</text>
<polygon fill="#bfbfbf" stroke="#bfbfbf" points="220,-175 220,-175 380,-175 380,-175 220,-175"/>
<polygon fill="#bfbfbf" stroke="#bfbfbf" points="220,-159 220,-159 380,-159 380,-159 220,-159"/>
<polygon fill="none" stroke="#bfbfbf" points="220,0 220,-206 380,-206 380,0 220,0"/>
</a>
</g>
</g>
<!-- Node3&#45;&gt;Node7 -->
<g id="edge9_Node000007_Node000003" class="edge">
<title>Node3&#45;&gt;Node7</title>
<g id="a_edge9_Node000007_Node000003"><a xlink:title=" ">
<path fill="none" stroke="#63b8ff" d="M141.82,-325.91C164.59,-293.61 190.14,-257.35 219.04,-216.36"/>
<polygon fill="none" stroke="#63b8ff" points="219.03,-216.38 219.21,-209.17 225.94,-206.57 225.75,-213.78 219.03,-216.38"/>
</a>
</g>
<text text-anchor="middle" x="181" y="-298.25" font-family="Cascadia Code NF" font-size="10.00" fill="grey"> #node_</text>
</g>
<!-- Node4&#45;&gt;Node1 -->
<g id="edge3_Node000001_Node000004" class="edge">
<title>Node4&#45;&gt;Node1</title>
<g id="a_edge3_Node000001_Node000004"><a xlink:title=" ">
<path fill="none" stroke="#63b8ff" d="M560.75,-405C634.06,-405 746.29,-405 831.44,-405"/>
<polygon fill="none" stroke="#63b8ff" points="831.43,-405 837.43,-401 843.43,-405 837.43,-409 831.43,-405"/>
</a>
</g>
<text text-anchor="middle" x="671" y="-421" font-family="Cascadia Code NF" font-size="10.00" fill="grey"> +numBuckets</text>
<text text-anchor="middle" x="671" y="-408.25" font-family="Cascadia Code NF" font-size="10.00" fill="grey">+usedCapacity</text>
</g>
<!-- Node5 -->
<g id="Node000005" class="node">
<title>Node5</title>
<g id="a_Node000005"><a xlink:href="$d9/d8d/structv8_1_1internal_1_1TorqueStructKeyIndexPair.html" xlink:title=" ">
<polygon fill="white" stroke="none" points="754,-316.5 588,-316.5 588,-251.5 754,-251.5 754,-316.5"/>
<text text-anchor="start" x="593" y="-303" font-family="Cascadia Code NF" font-size="10.00">v8::internal::TorqueStruct</text>
<text text-anchor="start" x="635" y="-290.25" font-family="Cascadia Code NF" font-size="10.00">KeyIndexPair</text>
<text text-anchor="start" x="668" y="-274" font-family="Cascadia Code NF" font-size="10.00"> </text>
<text text-anchor="start" x="615.5" y="-258" font-family="Cascadia Code NF" font-size="10.00">+</text>
<text text-anchor="start" x="649" y="-258" font-family="Cascadia Code NF" font-size="10.00">Flatten()</text>
<polygon fill="#bfbfbf" stroke="#bfbfbf" points="588,-285.5 588,-285.5 754,-285.5 754,-285.5 588,-285.5"/>
<polygon fill="#bfbfbf" stroke="#bfbfbf" points="588,-269.5 588,-269.5 754,-269.5 754,-269.5 588,-269.5"/>
<polygon fill="none" stroke="#bfbfbf" points="588,-251.5 588,-316.5 754,-316.5 754,-251.5 588,-251.5"/>
</a>
</g>
</g>
<!-- Node5&#45;&gt;Node1 -->
<g id="edge5_Node000001_Node000005" class="edge">
<title>Node5&#45;&gt;Node1</title>
<g id="a_edge5_Node000001_Node000005"><a xlink:title=" ">
<path fill="none" stroke="#63b8ff" d="M746.5,-316.43C782.64,-332.15 826.25,-351.14 863.81,-367.49"/>
<polygon fill="none" stroke="#63b8ff" points="863.95,-367.55 871.05,-366.27 874.95,-372.33 867.85,-373.61 863.95,-367.55"/>
</a>
</g>
<text text-anchor="middle" x="799" y="-351.25" font-family="Cascadia Code NF" font-size="10.00" fill="grey"> +current</text>
</g>
<!-- Node6&#45;&gt;Node5 -->
<g id="edge6_Node000005_Node000006" class="edge">
<title>Node6&#45;&gt;Node5</title>
<g id="a_edge6_Node000005_Node000006"><a xlink:title=" ">
<path fill="none" stroke="#63b8ff" d="M376.93,-287.44C383.92,-284.95 391,-282.82 398,-281.25 455.9,-268.28 522.48,-268.7 575.28,-272.5"/>
<polygon fill="none" stroke="#63b8ff" points="575.18,-272.49 581.48,-268.97 587.15,-273.43 580.85,-276.95 575.18,-272.49"/>
</a>
</g>
<text text-anchor="middle" x="484" y="-284.25" font-family="Cascadia Code NF" font-size="10.00" fill="grey"> +key</text>
</g>
<!-- Node7&#45;&gt;Node5 -->
<g id="edge8_Node000005_Node000007" class="edge">
<title>Node7&#45;&gt;Node5</title>
<g id="a_edge8_Node000005_Node000007"><a xlink:title=" ">
<path fill="none" stroke="#63b8ff" d="M379.71,-141.61C442.47,-172.4 529.91,-215.29 592.39,-245.93"/>
<polygon fill="none" stroke="#63b8ff" points="592.17,-245.82 599.32,-244.88 602.95,-251.11 595.8,-252.06 592.17,-245.82"/>
</a>
</g>
<text text-anchor="middle" x="484" y="-233.25" font-family="Cascadia Code NF" font-size="10.00" fill="grey"> +index</text>
</g>
</g>
</svg>
