<?xml version="1.0" encoding="UTF-8" standalone="no"?>
<!DOCTYPE svg PUBLIC "-//W3C//DTD SVG 1.1//EN"
 "http://www.w3.org/Graphics/SVG/1.1/DTD/svg11.dtd">
<!-- Generated by graphviz version 11.0.0 (20240428.1522)
 -->
<!-- Title: v8::internal::UncompiledDataWithPreparseData Pages: 1 -->
<svg width="566pt" height="381pt"
 viewBox="0.00 0.00 566.00 381.00" xmlns="http://www.w3.org/2000/svg" xmlns:xlink="http://www.w3.org/1999/xlink">
<g id="graph0" class="graph" transform="scale(1 1) rotate(0) translate(4 377)">
<title>v8::internal::UncompiledDataWithPreparseData</title>
<!-- Node1 -->
<g id="Node000001" class="node">
<title>Node1</title>
<g id="a_Node000001"><a xlink:title=" ">
<polygon fill="#999999" stroke="none" points="558,-219 404,-219 404,-154 558,-154 558,-219"/>
<text text-anchor="start" x="409" y="-205.5" font-family="Cascadia Code NF" font-size="10.00">v8::internal::Uncompiled</text>
<text text-anchor="start" x="421" y="-192.75" font-family="Cascadia Code NF" font-size="10.00">DataWithPreparseData</text>
<text text-anchor="start" x="478" y="-176.5" font-family="Cascadia Code NF" font-size="10.00"> </text>
<text text-anchor="start" x="478" y="-160.5" font-family="Cascadia Code NF" font-size="10.00"> </text>
<polygon fill="#666666" stroke="#666666" points="404,-188 404,-188 558,-188 558,-188 404,-188"/>
<polygon fill="#666666" stroke="#666666" points="404,-172 404,-172 558,-172 558,-172 404,-172"/>
<polygon fill="none" stroke="#666666" points="404,-154 404,-219 558,-219 558,-154 404,-154"/>
</a>
</g>
</g>
<!-- Node2 -->
<g id="Node000002" class="node">
<title>Node2</title>
<g id="a_Node000002"><a xlink:href="$d8/d77/classTorqueGeneratedUncompiledDataWithPreparseData.html" xlink:title=" ">
<polygon fill="white" stroke="none" points="368,-373 130,-373 130,0 368,0 368,-373"/>
<text text-anchor="start" x="135" y="-359.5" font-family="Cascadia Code NF" font-size="10.00">TorqueGeneratedUncompiled</text>
<text text-anchor="start" x="135" y="-346.75" font-family="Cascadia Code NF" font-size="10.00">DataWithPreparseData&lt; Uncompiled</text>
<text text-anchor="start" x="135" y="-334" font-family="Cascadia Code NF" font-size="10.00">DataWithPreparseData, UncompiledData &gt;</text>
<text text-anchor="start" x="150" y="-317.5" font-family="Cascadia Code NF" font-size="10.00">+</text>
<text text-anchor="start" x="176" y="-317.5" font-family="Cascadia Code NF" font-size="10.00">kStartOfStrongFieldsOffset</text>
<text text-anchor="start" x="150" y="-301.5" font-family="Cascadia Code NF" font-size="10.00">+</text>
<text text-anchor="start" x="176" y="-301.5" font-family="Cascadia Code NF" font-size="10.00">kPreparseDataOffset</text>
<text text-anchor="start" x="150" y="-285.5" font-family="Cascadia Code NF" font-size="10.00">+</text>
<text text-anchor="start" x="176" y="-285.5" font-family="Cascadia Code NF" font-size="10.00">kPreparseDataOffsetEnd</text>
<text text-anchor="start" x="150" y="-269.5" font-family="Cascadia Code NF" font-size="10.00">+</text>
<text text-anchor="start" x="176" y="-269.5" font-family="Cascadia Code NF" font-size="10.00">kEndOfStrongFieldsOffset</text>
<text text-anchor="start" x="150" y="-253.5" font-family="Cascadia Code NF" font-size="10.00">+</text>
<text text-anchor="start" x="176" y="-253.5" font-family="Cascadia Code NF" font-size="10.00">kStartOfWeakFieldsOffset</text>
<text text-anchor="start" x="150" y="-237.5" font-family="Cascadia Code NF" font-size="10.00">+</text>
<text text-anchor="start" x="176" y="-237.5" font-family="Cascadia Code NF" font-size="10.00">kEndOfWeakFieldsOffset</text>
<text text-anchor="start" x="150" y="-221.5" font-family="Cascadia Code NF" font-size="10.00">+</text>
<text text-anchor="start" x="176" y="-221.5" font-family="Cascadia Code NF" font-size="10.00">kHeaderSize</text>
<text text-anchor="start" x="150" y="-205.5" font-family="Cascadia Code NF" font-size="10.00">+</text>
<text text-anchor="start" x="176" y="-205.5" font-family="Cascadia Code NF" font-size="10.00">kSize</text>
<text text-anchor="start" x="150" y="-189.5" font-family="Cascadia Code NF" font-size="10.00">+</text>
<text text-anchor="start" x="176" y="-189.5" font-family="Cascadia Code NF" font-size="10.00">preparse_data()</text>
<text text-anchor="start" x="150" y="-173.5" font-family="Cascadia Code NF" font-size="10.00">+</text>
<text text-anchor="start" x="176" y="-173.5" font-family="Cascadia Code NF" font-size="10.00">preparse_data()</text>
<text text-anchor="start" x="150" y="-157.5" font-family="Cascadia Code NF" font-size="10.00">+</text>
<text text-anchor="start" x="176" y="-157.5" font-family="Cascadia Code NF" font-size="10.00">set_preparse_data()</text>
<text text-anchor="start" x="150" y="-141.5" font-family="Cascadia Code NF" font-size="10.00">+</text>
<text text-anchor="start" x="176" y="-141.5" font-family="Cascadia Code NF" font-size="10.00">AllocatedSize()</text>
<text text-anchor="start" x="150" y="-125.5" font-family="Cascadia Code NF" font-size="10.00">+</text>
<text text-anchor="start" x="176" y="-125.5" font-family="Cascadia Code NF" font-size="10.00">TorqueGeneratedUncompiled</text>
<text text-anchor="start" x="176" y="-112.75" font-family="Cascadia Code NF" font-size="10.00">DataWithPreparseData()</text>
<text text-anchor="start" x="150" y="-96.5" font-family="Cascadia Code NF" font-size="10.00">+</text>
<text text-anchor="start" x="176" y="-96.5" font-family="Cascadia Code NF" font-size="10.00">cast()</text>
<text text-anchor="start" x="150" y="-80.5" font-family="Cascadia Code NF" font-size="10.00">+</text>
<text text-anchor="start" x="176" y="-80.5" font-family="Cascadia Code NF" font-size="10.00">unchecked_cast()</text>
<text text-anchor="start" x="150" y="-64.5" font-family="Cascadia Code NF" font-size="10.00">+</text>
<text text-anchor="start" x="176" y="-64.5" font-family="Cascadia Code NF" font-size="10.00">SizeFor()</text>
<text text-anchor="start" x="150" y="-48.5" font-family="Cascadia Code NF" font-size="10.00">#</text>
<text text-anchor="start" x="176" y="-48.5" font-family="Cascadia Code NF" font-size="10.00">TorqueGeneratedUncompiled</text>
<text text-anchor="start" x="176" y="-35.75" font-family="Cascadia Code NF" font-size="10.00">DataWithPreparseData()</text>
<text text-anchor="start" x="150" y="-19.5" font-family="Cascadia Code NF" font-size="10.00">#</text>
<text text-anchor="start" x="176" y="-19.5" font-family="Cascadia Code NF" font-size="10.00">TorqueGeneratedUncompiled</text>
<text text-anchor="start" x="176" y="-6.75" font-family="Cascadia Code NF" font-size="10.00">DataWithPreparseData()</text>
<polygon fill="#bfbfbf" stroke="#bfbfbf" points="130,-329 130,-329 368,-329 368,-329 130,-329"/>
<polygon fill="#bfbfbf" stroke="#bfbfbf" points="130,-201 130,-201 174,-201 174,-201 130,-201"/>
<polygon fill="#bfbfbf" stroke="#bfbfbf" points="174,-201 174,-201 368,-201 368,-201 174,-201"/>
<polygon fill="none" stroke="#bfbfbf" points="130,0 130,-373 368,-373 368,0 130,0"/>
</a>
</g>
</g>
<!-- Node2&#45;&gt;Node1 -->
<g id="edge1_Node000001_Node000002" class="edge">
<title>Node2&#45;&gt;Node1</title>
<g id="a_edge1_Node000001_Node000002"><a xlink:title=" ">
<path fill="none" stroke="#63b8ff" d="M378.98,-186.5C387.53,-186.5 395.98,-186.5 404.13,-186.5"/>
<polygon fill="none" stroke="#63b8ff" points="379.21,-183 369.21,-186.5 379.21,-190 379.21,-183"/>
</a>
</g>
</g>
<!-- Node3 -->
<g id="Node000003" class="node">
<title>Node3</title>
<g id="a_Node000003"><a xlink:title=" ">
<polygon fill="white" stroke="none" points="94,-212.5 0,-212.5 0,-160.5 94,-160.5 94,-212.5"/>
<text text-anchor="start" x="5" y="-199" font-family="Cascadia Code NF" font-size="10.00">UncompiledData</text>
<text text-anchor="start" x="44" y="-183" font-family="Cascadia Code NF" font-size="10.00"> </text>
<text text-anchor="start" x="44" y="-167" font-family="Cascadia Code NF" font-size="10.00"> </text>
<polygon fill="#bfbfbf" stroke="#bfbfbf" points="0,-194.5 0,-194.5 94,-194.5 94,-194.5 0,-194.5"/>
<polygon fill="#bfbfbf" stroke="#bfbfbf" points="0,-178.5 0,-178.5 94,-178.5 94,-178.5 0,-178.5"/>
<polygon fill="none" stroke="#bfbfbf" points="0,-160.5 0,-212.5 94,-212.5 94,-160.5 0,-160.5"/>
</a>
</g>
</g>
<!-- Node3&#45;&gt;Node2 -->
<g id="edge2_Node000002_Node000003" class="edge">
<title>Node3&#45;&gt;Node2</title>
<g id="a_edge2_Node000002_Node000003"><a xlink:title=" ">
<path fill="none" stroke="#63b8ff" d="M105.16,-186.5C113.1,-186.5 121.47,-186.5 130.03,-186.5"/>
<polygon fill="none" stroke="#63b8ff" points="105.4,-183 95.4,-186.5 105.4,-190 105.4,-183"/>
</a>
</g>
</g>
</g>
</svg>
