<?xml version="1.0" encoding="UTF-8" standalone="no"?>
<!DOCTYPE svg PUBLIC "-//W3C//DTD SVG 1.1//EN"
 "http://www.w3.org/Graphics/SVG/1.1/DTD/svg11.dtd">
<!-- Generated by graphviz version 11.0.0 (20240428.1522)
 -->
<!-- Title: v8::internal::JSTemporalPlainYearMonth Pages: 1 -->
<svg width="650pt" height="281pt"
 viewBox="0.00 0.00 650.00 281.00" xmlns="http://www.w3.org/2000/svg" xmlns:xlink="http://www.w3.org/1999/xlink">
<g id="graph0" class="graph" transform="scale(1 1) rotate(0) translate(4 277)">
<title>v8::internal::JSTemporalPlainYearMonth</title>
<!-- Node1 -->
<g id="Node000001" class="node">
<title>Node1</title>
<g id="a_Node000001"><a xlink:title=" ">
<polygon fill="#999999" stroke="none" points="642,-273 488,-273 488,0 642,0 642,-273"/>
<text text-anchor="start" x="493" y="-259.5" font-family="Cascadia Code NF" font-size="10.00">v8::internal::JSTemporal</text>
<text text-anchor="start" x="523" y="-246.75" font-family="Cascadia Code NF" font-size="10.00">PlainYearMonth</text>
<text text-anchor="start" x="562" y="-230.5" font-family="Cascadia Code NF" font-size="10.00"> </text>
<text text-anchor="start" x="502" y="-214.5" font-family="Cascadia Code NF" font-size="10.00">+</text>
<text text-anchor="start" x="522" y="-214.5" font-family="Cascadia Code NF" font-size="10.00">Constructor()</text>
<text text-anchor="start" x="502" y="-198.5" font-family="Cascadia Code NF" font-size="10.00">+</text>
<text text-anchor="start" x="522" y="-198.5" font-family="Cascadia Code NF" font-size="10.00">From()</text>
<text text-anchor="start" x="502" y="-182.5" font-family="Cascadia Code NF" font-size="10.00">+</text>
<text text-anchor="start" x="522" y="-182.5" font-family="Cascadia Code NF" font-size="10.00">Compare()</text>
<text text-anchor="start" x="502" y="-166.5" font-family="Cascadia Code NF" font-size="10.00">+</text>
<text text-anchor="start" x="522" y="-166.5" font-family="Cascadia Code NF" font-size="10.00">Equals()</text>
<text text-anchor="start" x="502" y="-150.5" font-family="Cascadia Code NF" font-size="10.00">+</text>
<text text-anchor="start" x="522" y="-150.5" font-family="Cascadia Code NF" font-size="10.00">With()</text>
<text text-anchor="start" x="502" y="-134.5" font-family="Cascadia Code NF" font-size="10.00">+</text>
<text text-anchor="start" x="522" y="-134.5" font-family="Cascadia Code NF" font-size="10.00">ToPlainDate()</text>
<text text-anchor="start" x="502" y="-118.5" font-family="Cascadia Code NF" font-size="10.00">+</text>
<text text-anchor="start" x="522" y="-118.5" font-family="Cascadia Code NF" font-size="10.00">GetISOFields()</text>
<text text-anchor="start" x="502" y="-102.5" font-family="Cascadia Code NF" font-size="10.00">+</text>
<text text-anchor="start" x="522" y="-102.5" font-family="Cascadia Code NF" font-size="10.00">Add()</text>
<text text-anchor="start" x="502" y="-86.5" font-family="Cascadia Code NF" font-size="10.00">+</text>
<text text-anchor="start" x="522" y="-86.5" font-family="Cascadia Code NF" font-size="10.00">Subtract()</text>
<text text-anchor="start" x="502" y="-70.5" font-family="Cascadia Code NF" font-size="10.00">+</text>
<text text-anchor="start" x="522" y="-70.5" font-family="Cascadia Code NF" font-size="10.00">Until()</text>
<text text-anchor="start" x="502" y="-54.5" font-family="Cascadia Code NF" font-size="10.00">+</text>
<text text-anchor="start" x="522" y="-54.5" font-family="Cascadia Code NF" font-size="10.00">Since()</text>
<text text-anchor="start" x="502" y="-38.5" font-family="Cascadia Code NF" font-size="10.00">+</text>
<text text-anchor="start" x="522" y="-38.5" font-family="Cascadia Code NF" font-size="10.00">ToString()</text>
<text text-anchor="start" x="502" y="-22.5" font-family="Cascadia Code NF" font-size="10.00">+</text>
<text text-anchor="start" x="522" y="-22.5" font-family="Cascadia Code NF" font-size="10.00">ToJSON()</text>
<text text-anchor="start" x="502" y="-6.5" font-family="Cascadia Code NF" font-size="10.00">+</text>
<text text-anchor="start" x="522" y="-6.5" font-family="Cascadia Code NF" font-size="10.00">ToLocaleString()</text>
<polygon fill="#666666" stroke="#666666" points="488,-242 488,-242 642,-242 642,-242 488,-242"/>
<polygon fill="#666666" stroke="#666666" points="488,-226 488,-226 642,-226 642,-226 488,-226"/>
<polygon fill="none" stroke="#666666" points="488,0 488,-273 642,-273 642,0 488,0"/>
</a>
</g>
</g>
<!-- Node2 -->
<g id="Node000002" class="node">
<title>Node2</title>
<g id="a_Node000002"><a xlink:href="$d6/deb/classTorqueGeneratedJSTemporalPlainYearMonth.html" xlink:title=" ">
<polygon fill="white" stroke="none" points="452,-267 256,-267 256,-6 452,-6 452,-267"/>
<text text-anchor="start" x="261" y="-253.5" font-family="Cascadia Code NF" font-size="10.00">TorqueGeneratedJSTemporal</text>
<text text-anchor="start" x="261" y="-240.75" font-family="Cascadia Code NF" font-size="10.00">PlainYearMonth&lt; JSTemporalPlain</text>
<text text-anchor="start" x="291" y="-228" font-family="Cascadia Code NF" font-size="10.00">YearMonth, JSObject &gt;</text>
<text text-anchor="start" x="351" y="-211.5" font-family="Cascadia Code NF" font-size="10.00"> </text>
<text text-anchor="start" x="267" y="-195.5" font-family="Cascadia Code NF" font-size="10.00">+</text>
<text text-anchor="start" x="284" y="-195.5" font-family="Cascadia Code NF" font-size="10.00">year_month_day()</text>
<text text-anchor="start" x="267" y="-179.5" font-family="Cascadia Code NF" font-size="10.00">+</text>
<text text-anchor="start" x="284" y="-179.5" font-family="Cascadia Code NF" font-size="10.00">set_year_month_day()</text>
<text text-anchor="start" x="267" y="-163.5" font-family="Cascadia Code NF" font-size="10.00">+</text>
<text text-anchor="start" x="284" y="-163.5" font-family="Cascadia Code NF" font-size="10.00">calendar()</text>
<text text-anchor="start" x="267" y="-147.5" font-family="Cascadia Code NF" font-size="10.00">+</text>
<text text-anchor="start" x="284" y="-147.5" font-family="Cascadia Code NF" font-size="10.00">calendar()</text>
<text text-anchor="start" x="267" y="-131.5" font-family="Cascadia Code NF" font-size="10.00">+</text>
<text text-anchor="start" x="284" y="-131.5" font-family="Cascadia Code NF" font-size="10.00">set_calendar()</text>
<text text-anchor="start" x="267" y="-115.5" font-family="Cascadia Code NF" font-size="10.00">+</text>
<text text-anchor="start" x="284" y="-115.5" font-family="Cascadia Code NF" font-size="10.00">TorqueGeneratedJSTemporal</text>
<text text-anchor="start" x="284" y="-102.75" font-family="Cascadia Code NF" font-size="10.00">PlainYearMonth()</text>
<text text-anchor="start" x="267" y="-86.5" font-family="Cascadia Code NF" font-size="10.00">+</text>
<text text-anchor="start" x="284" y="-86.5" font-family="Cascadia Code NF" font-size="10.00">cast()</text>
<text text-anchor="start" x="267" y="-70.5" font-family="Cascadia Code NF" font-size="10.00">+</text>
<text text-anchor="start" x="284" y="-70.5" font-family="Cascadia Code NF" font-size="10.00">unchecked_cast()</text>
<text text-anchor="start" x="267" y="-54.5" font-family="Cascadia Code NF" font-size="10.00">#</text>
<text text-anchor="start" x="284" y="-54.5" font-family="Cascadia Code NF" font-size="10.00">TorqueGeneratedJSTemporal</text>
<text text-anchor="start" x="284" y="-41.75" font-family="Cascadia Code NF" font-size="10.00">PlainYearMonth()</text>
<text text-anchor="start" x="267" y="-25.5" font-family="Cascadia Code NF" font-size="10.00">#</text>
<text text-anchor="start" x="284" y="-25.5" font-family="Cascadia Code NF" font-size="10.00">TorqueGeneratedJSTemporal</text>
<text text-anchor="start" x="284" y="-12.75" font-family="Cascadia Code NF" font-size="10.00">PlainYearMonth()</text>
<polygon fill="#bfbfbf" stroke="#bfbfbf" points="256,-223 256,-223 452,-223 452,-223 256,-223"/>
<polygon fill="#bfbfbf" stroke="#bfbfbf" points="256,-207 256,-207 452,-207 452,-207 256,-207"/>
<polygon fill="none" stroke="#bfbfbf" points="256,-6 256,-267 452,-267 452,-6 256,-6"/>
</a>
</g>
</g>
<!-- Node2&#45;&gt;Node1 -->
<g id="edge1_Node000001_Node000002" class="edge">
<title>Node2&#45;&gt;Node1</title>
<g id="a_edge1_Node000001_Node000002"><a xlink:title=" ">
<path fill="none" stroke="#63b8ff" d="M463.28,-136.5C471.67,-136.5 480.02,-136.5 488.12,-136.5"/>
<polygon fill="none" stroke="#63b8ff" points="463.37,-133 453.37,-136.5 463.37,-140 463.37,-133"/>
</a>
</g>
</g>
<!-- Node3 -->
<g id="Node000003" class="node">
<title>Node3</title>
<g id="a_Node000003"><a xlink:title=" ">
<polygon fill="white" stroke="none" points="58,-231.5 0,-231.5 0,-179.5 58,-179.5 58,-231.5"/>
<text text-anchor="start" x="5" y="-218" font-family="Cascadia Code NF" font-size="10.00">JSObject</text>
<text text-anchor="start" x="26" y="-202" font-family="Cascadia Code NF" font-size="10.00"> </text>
<text text-anchor="start" x="26" y="-186" font-family="Cascadia Code NF" font-size="10.00"> </text>
<polygon fill="#bfbfbf" stroke="#bfbfbf" points="0,-213.5 0,-213.5 58,-213.5 58,-213.5 0,-213.5"/>
<polygon fill="#bfbfbf" stroke="#bfbfbf" points="0,-197.5 0,-197.5 58,-197.5 58,-197.5 0,-197.5"/>
<polygon fill="none" stroke="#bfbfbf" points="0,-179.5 0,-231.5 58,-231.5 58,-179.5 0,-179.5"/>
</a>
</g>
</g>
<!-- Node3&#45;&gt;Node2 -->
<g id="edge2_Node000002_Node000003" class="edge">
<title>Node3&#45;&gt;Node2</title>
<g id="a_edge2_Node000002_Node000003"><a xlink:title=" ">
<path fill="none" stroke="#63b8ff" d="M69.12,-204.64C111.36,-202.96 180.35,-198.02 238,-183.5 243.96,-182 250.02,-180.25 256.08,-178.33"/>
<polygon fill="none" stroke="#63b8ff" points="69.07,-201.14 59.2,-204.99 69.32,-208.14 69.07,-201.14"/>
</a>
</g>
</g>
<!-- Node4 -->
<g id="Node000004" class="node">
<title>Node4</title>
<g id="a_Node000004"><a xlink:href="$d1/da0/classint.html" xlink:title=" ">
<polygon fill="white" stroke="none" points="43,-93.5 15,-93.5 15,-41.5 43,-41.5 43,-93.5"/>
<text text-anchor="start" x="20" y="-80" font-family="Cascadia Code NF" font-size="10.00">int</text>
<text text-anchor="start" x="26" y="-64" font-family="Cascadia Code NF" font-size="10.00"> </text>
<text text-anchor="start" x="26" y="-48" font-family="Cascadia Code NF" font-size="10.00"> </text>
<polygon fill="#bfbfbf" stroke="#bfbfbf" points="15,-75.5 15,-75.5 43,-75.5 43,-75.5 15,-75.5"/>
<polygon fill="#bfbfbf" stroke="#bfbfbf" points="15,-59.5 15,-59.5 43,-59.5 43,-59.5 15,-59.5"/>
<polygon fill="none" stroke="#bfbfbf" points="15,-41.5 15,-93.5 43,-93.5 43,-41.5 15,-41.5"/>
</a>
</g>
</g>
<!-- Node4&#45;&gt;Node2 -->
<g id="edge3_Node000002_Node000004" class="edge">
<title>Node4&#45;&gt;Node2</title>
<g id="a_edge3_Node000002_Node000004"><a xlink:title=" ">
<path fill="none" stroke="#63b8ff" d="M42.52,-64.88C75.38,-58.53 166.48,-44.27 238,-64.75 240,-65.32 242.01,-65.94 244.01,-66.61"/>
<polygon fill="none" stroke="#63b8ff" points="244.15,-66.66 251.17,-65.01 255.39,-70.86 248.37,-72.51 244.15,-66.66"/>
</a>
</g>
<text text-anchor="middle" x="157" y="-170.75" font-family="Cascadia Code NF" font-size="10.00" fill="grey"> +kCalendarOffset</text>
<text text-anchor="middle" x="157" y="-158" font-family="Cascadia Code NF" font-size="10.00" fill="grey">+kCalendarOffsetEnd</text>
<text text-anchor="middle" x="157" y="-145.25" font-family="Cascadia Code NF" font-size="10.00" fill="grey">+kEndOfStrongFieldsOffset</text>
<text text-anchor="middle" x="157" y="-132.5" font-family="Cascadia Code NF" font-size="10.00" fill="grey">+kEndOfWeakFieldsOffset</text>
<text text-anchor="middle" x="157" y="-119.75" font-family="Cascadia Code NF" font-size="10.00" fill="grey">+kHeaderSize</text>
<text text-anchor="middle" x="157" y="-107" font-family="Cascadia Code NF" font-size="10.00" fill="grey">+kStartOfStrongFieldsOffset</text>
<text text-anchor="middle" x="157" y="-94.25" font-family="Cascadia Code NF" font-size="10.00" fill="grey">+kStartOfWeakFieldsOffset</text>
<text text-anchor="middle" x="157" y="-81.5" font-family="Cascadia Code NF" font-size="10.00" fill="grey">+kYearMonthDayOffset</text>
<text text-anchor="middle" x="157" y="-68.75" font-family="Cascadia Code NF" font-size="10.00" fill="grey">+kYearMonthDayOffsetEnd</text>
</g>
</g>
</svg>
