<?xml version="1.0" encoding="UTF-8" standalone="no"?>
<!DOCTYPE svg PUBLIC "-//W3C//DTD SVG 1.1//EN"
 "http://www.w3.org/Graphics/SVG/1.1/DTD/svg11.dtd">
<!-- Generated by graphviz version 11.0.0 (20240428.1522)
 -->
<!-- Title: v8::internal::TypedArrayBuiltinsAssembler Pages: 1 -->
<!--zoomable 608 -->

<svg id="main" version="1.1" xmlns="http://www.w3.org/2000/svg" xmlns:xlink="http://www.w3.org/1999/xlink" xml:space="preserve" onload="init(evt)">
<style type="text/css"><![CDATA[
.node, .edge {opacity: 0.7;}
.node.selected, .edge.selected {opacity: 1;}
.edge:hover path { stroke: red; }
.edge:hover polygon { stroke: red; fill: red; }
svg#main { background-color: #111; }
]]></style>

<defs>
  <circle id="rim" cx="0" cy="0" r="7"/>
  <circle id="rim2" cx="0" cy="0" r="3.5"/>
  <g id="zoomPlus">
    <use xlink:href="#rim" fill="#404040"><set attributeName="fill" to="#808080" begin="zoomplus.mouseover" end="zoomplus.mouseout"/></use>
    <path d="M-4,0h8M0,-4v8" fill="none" stroke="white" stroke-width="1.5" pointer-events="none"/>
  </g>
  <g id="zoomMin">
    <use xlink:href="#rim" fill="#404040"><set attributeName="fill" to="#808080" begin="zoomminus.mouseover" end="zoomminus.mouseout"/></use>
    <path d="M-4,0h8" fill="none" stroke="white" stroke-width="1.5" pointer-events="none"/>
  </g>
  <g id="arrowUp" transform="translate(30 24)">
    <use xlink:href="#rim"/>
    <path pointer-events="none" fill="none" stroke="white" stroke-width="1.5" d="M0,-3.0v7 M-2.5,-0.5L0,-3.0L2.5,-0.5"/>
  </g>
  <g id="arrowRight" transform="rotate(90) translate(36 -43)">
    <use xlink:href="#rim"/>
    <path pointer-events="none" fill="none" stroke="white" stroke-width="1.5" d="M0,-3.0v7 M-2.5,-0.5L0,-3.0L2.5,-0.5"/>
  </g>
  <g id="arrowDown" transform="rotate(180) translate(-30 -48)">
    <use xlink:href="#rim"/>
    <path pointer-events="none" fill="none" stroke="white" stroke-width="1.5" d="M0,-3.0v7 M-2.5,-0.5L0,-3.0L2.5,-0.5"/>
  </g>
  <g id="arrowLeft" transform="rotate(270) translate(-36 17)">
    <use xlink:href="#rim"/>
    <path pointer-events="none" fill="none" stroke="white" stroke-width="1.5" d="M0,-3.0v7 M-2.5,-0.5L0,-3.0L2.5,-0.5"/>
  </g>
  <g id="resetDef">
    <use xlink:href="#rim2" fill="#404040"><set attributeName="fill" to="#808080" begin="reset.mouseover" end="reset.mouseout"/></use>
  </g>
</defs>
<script type="application/ecmascript">
var viewWidth = 696;
var viewHeight = 608;
var sectionId = 'dynsection-0';
</script>
<script type="application/ecmascript" xlink:href="../../svg.min.js"/>
<svg id="graph" class="graph">
<g id="viewport">
<title>v8::internal::TypedArrayBuiltinsAssembler</title>
<!-- Node1 -->
<g id="Node000001" class="node">
<title>Node1</title>
<g id="a_Node000001"><a xlink:title=" ">
<polygon fill="#999999" stroke="none" points="688,-405 484,-405 484,-167 688,-167 688,-405"/>
<text text-anchor="start" x="514" y="-391.5" font-family="Cascadia Code NF" font-size="10.00">v8::internal::TypedArray</text>
<text text-anchor="start" x="535" y="-378.75" font-family="Cascadia Code NF" font-size="10.00">BuiltinsAssembler</text>
<text text-anchor="start" x="583" y="-362.5" font-family="Cascadia Code NF" font-size="10.00"> </text>
<text text-anchor="start" x="488" y="-346.5" font-family="Cascadia Code NF" font-size="10.00">+</text>
<text text-anchor="start" x="498" y="-346.5" font-family="Cascadia Code NF" font-size="10.00">TypedArrayBuiltinsAssembler()</text>
<text text-anchor="start" x="488" y="-330.5" font-family="Cascadia Code NF" font-size="10.00">+</text>
<text text-anchor="start" x="498" y="-330.5" font-family="Cascadia Code NF" font-size="10.00">SetupTypedArrayEmbedderFields()</text>
<text text-anchor="start" x="488" y="-314.5" font-family="Cascadia Code NF" font-size="10.00">+</text>
<text text-anchor="start" x="498" y="-314.5" font-family="Cascadia Code NF" font-size="10.00">AttachBuffer()</text>
<text text-anchor="start" x="488" y="-298.5" font-family="Cascadia Code NF" font-size="10.00">+</text>
<text text-anchor="start" x="498" y="-298.5" font-family="Cascadia Code NF" font-size="10.00">AllocateEmptyOnHeapBuffer()</text>
<text text-anchor="start" x="488" y="-282.5" font-family="Cascadia Code NF" font-size="10.00">+</text>
<text text-anchor="start" x="498" y="-282.5" font-family="Cascadia Code NF" font-size="10.00">LoadMapForType()</text>
<text text-anchor="start" x="488" y="-266.5" font-family="Cascadia Code NF" font-size="10.00">+</text>
<text text-anchor="start" x="498" y="-266.5" font-family="Cascadia Code NF" font-size="10.00">IsMockArrayBufferAllocator</text>
<text text-anchor="start" x="498" y="-253.75" font-family="Cascadia Code NF" font-size="10.00">Flag()</text>
<text text-anchor="start" x="488" y="-237.5" font-family="Cascadia Code NF" font-size="10.00">+</text>
<text text-anchor="start" x="498" y="-237.5" font-family="Cascadia Code NF" font-size="10.00">CalculateExternalPointer()</text>
<text text-anchor="start" x="488" y="-221.5" font-family="Cascadia Code NF" font-size="10.00">+</text>
<text text-anchor="start" x="498" y="-221.5" font-family="Cascadia Code NF" font-size="10.00">IsUint8ElementsKind()</text>
<text text-anchor="start" x="488" y="-205.5" font-family="Cascadia Code NF" font-size="10.00">+</text>
<text text-anchor="start" x="498" y="-205.5" font-family="Cascadia Code NF" font-size="10.00">IsBigInt64ElementsKind()</text>
<text text-anchor="start" x="488" y="-189.5" font-family="Cascadia Code NF" font-size="10.00">+</text>
<text text-anchor="start" x="498" y="-189.5" font-family="Cascadia Code NF" font-size="10.00">GetTypedArrayElementSize()</text>
<text text-anchor="start" x="498" y="-173.5" font-family="Cascadia Code NF" font-size="10.00">and 19 more...</text>
<polygon fill="#666666" stroke="#666666" points="484,-374 484,-374 688,-374 688,-374 484,-374"/>
<polygon fill="#666666" stroke="#666666" points="484,-358 484,-358 688,-358 688,-358 484,-358"/>
<polygon fill="none" stroke="#666666" points="484,-167 484,-405 688,-405 688,-167 484,-167"/>
</a>
</g>
</g>
<!-- Node2 -->
<g id="Node000002" class="node">
<title>Node2</title>
<g id="a_Node000002"><a xlink:href="../../df/d4b/classv8_1_1internal_1_1CodeStubAssembler.html" target="_top" xlink:title=" ">
<polygon fill="white" stroke="none" points="448,-424 252,-424 252,-148 448,-148 448,-424"/>
<text text-anchor="start" x="257" y="-410.5" font-family="Cascadia Code NF" font-size="10.00">v8::internal::CodeStubAssembler</text>
<text text-anchor="start" x="264.5" y="-394.5" font-family="Cascadia Code NF" font-size="10.00">+</text>
<text text-anchor="start" x="283" y="-394.5" font-family="Cascadia Code NF" font-size="10.00">UintPtrLessThanOrEqual</text>
<text text-anchor="start" x="264.5" y="-378.5" font-family="Cascadia Code NF" font-size="10.00">+</text>
<text text-anchor="start" x="283" y="-378.5" font-family="Cascadia Code NF" font-size="10.00">b</text>
<text text-anchor="start" x="264.5" y="-362.5" font-family="Cascadia Code NF" font-size="10.00">+</text>
<text text-anchor="start" x="283" y="-362.5" font-family="Cascadia Code NF" font-size="10.00">IntPtrGreaterThanOrEqual</text>
<text text-anchor="start" x="264.5" y="-346.5" font-family="Cascadia Code NF" font-size="10.00">+</text>
<text text-anchor="start" x="283" y="-346.5" font-family="Cascadia Code NF" font-size="10.00">SmiLessThanOrEqual</text>
<text text-anchor="start" x="264.5" y="-330.5" font-family="Cascadia Code NF" font-size="10.00">+</text>
<text text-anchor="start" x="283" y="-330.5" font-family="Cascadia Code NF" font-size="10.00">CodeStubAssembler()</text>
<text text-anchor="start" x="264.5" y="-314.5" font-family="Cascadia Code NF" font-size="10.00">+</text>
<text text-anchor="start" x="283" y="-314.5" font-family="Cascadia Code NF" font-size="10.00">ParameterToIntPtr()</text>
<text text-anchor="start" x="264.5" y="-298.5" font-family="Cascadia Code NF" font-size="10.00">+</text>
<text text-anchor="start" x="283" y="-298.5" font-family="Cascadia Code NF" font-size="10.00">ParameterToIntPtr()</text>
<text text-anchor="start" x="264.5" y="-282.5" font-family="Cascadia Code NF" font-size="10.00">+</text>
<text text-anchor="start" x="283" y="-282.5" font-family="Cascadia Code NF" font-size="10.00">ParameterToIntPtr()</text>
<text text-anchor="start" x="264.5" y="-266.5" font-family="Cascadia Code NF" font-size="10.00">+</text>
<text text-anchor="start" x="283" y="-266.5" font-family="Cascadia Code NF" font-size="10.00">ParameterToIntPtr()</text>
<text text-anchor="start" x="264.5" y="-250.5" font-family="Cascadia Code NF" font-size="10.00">+</text>
<text text-anchor="start" x="283" y="-250.5" font-family="Cascadia Code NF" font-size="10.00">ParameterToTagged()</text>
<text text-anchor="start" x="264.5" y="-234.5" font-family="Cascadia Code NF" font-size="10.00">+</text>
<text text-anchor="start" x="283" y="-234.5" font-family="Cascadia Code NF" font-size="10.00">ParameterToTagged()</text>
<text text-anchor="start" x="264.5" y="-218.5" font-family="Cascadia Code NF" font-size="10.00">+</text>
<text text-anchor="start" x="283" y="-218.5" font-family="Cascadia Code NF" font-size="10.00">TaggedToParameter()</text>
<text text-anchor="start" x="264.5" y="-202.5" font-family="Cascadia Code NF" font-size="10.00">+</text>
<text text-anchor="start" x="283" y="-202.5" font-family="Cascadia Code NF" font-size="10.00">ToParameterConstant()</text>
<text text-anchor="start" x="264.5" y="-186.5" font-family="Cascadia Code NF" font-size="10.00">+</text>
<text text-anchor="start" x="283" y="-186.5" font-family="Cascadia Code NF" font-size="10.00">ToParameterConstant()</text>
<text text-anchor="start" x="283" y="-170.5" font-family="Cascadia Code NF" font-size="10.00">and 1093 more...</text>
<text text-anchor="start" x="264.5" y="-154.5" font-family="Cascadia Code NF" font-size="10.00">+</text>
<text text-anchor="start" x="283" y="-154.5" font-family="Cascadia Code NF" font-size="10.00">MaxSafeIntegerUintPtr()</text>
<polygon fill="#bfbfbf" stroke="#bfbfbf" points="252,-406 252,-406 448,-406 448,-406 252,-406"/>
<polygon fill="#bfbfbf" stroke="#bfbfbf" points="252,-342 252,-342 281,-342 281,-342 252,-342"/>
<polygon fill="#bfbfbf" stroke="#bfbfbf" points="281,-342 281,-342 448,-342 448,-342 281,-342"/>
<polygon fill="none" stroke="#bfbfbf" points="252,-148 252,-424 448,-424 448,-148 252,-148"/>
</a>
</g>
</g>
<!-- Node2&#45;&gt;Node1 -->
<g id="edge1_Node000001_Node000002" class="edge">
<title>Node2&#45;&gt;Node1</title>
<g id="a_edge1_Node000001_Node000002"><a xlink:title=" ">
<path fill="none" stroke="#63b8ff" d="M459.13,-286C467.43,-286 475.79,-286 484.05,-286"/>
<polygon fill="none" stroke="#63b8ff" points="459.38,-282.5 449.38,-286 459.38,-289.5 459.38,-282.5"/>
</a>
</g>
</g>
<!-- Node3 -->
<g id="Node000003" class="node">
<title>Node3</title>
<g id="a_Node000003"><a xlink:href="../../d4/d1b/classv8_1_1internal_1_1compiler_1_1CodeAssembler.html" target="_top" xlink:title=" ">
<polygon fill="white" stroke="none" points="216,-600 0,-600 0,-282 216,-282 216,-600"/>
<text text-anchor="start" x="42" y="-586.5" font-family="Cascadia Code NF" font-size="10.00">v8::internal::compiler</text>
<text text-anchor="start" x="63" y="-573.75" font-family="Cascadia Code NF" font-size="10.00">::CodeAssembler</text>
<text text-anchor="start" x="4" y="-557.5" font-family="Cascadia Code NF" font-size="10.00">+</text>
<text text-anchor="start" x="14" y="-557.5" font-family="Cascadia Code NF" font-size="10.00">kTargetParameterIndex</text>
<text text-anchor="start" x="4" y="-541.5" font-family="Cascadia Code NF" font-size="10.00">+</text>
<text text-anchor="start" x="14" y="-541.5" font-family="Cascadia Code NF" font-size="10.00">CodeAssembler()</text>
<text text-anchor="start" x="4" y="-525.5" font-family="Cascadia Code NF" font-size="10.00">+</text>
<text text-anchor="start" x="14" y="-525.5" font-family="Cascadia Code NF" font-size="10.00">~CodeAssembler()</text>
<text text-anchor="start" x="4" y="-509.5" font-family="Cascadia Code NF" font-size="10.00">+</text>
<text text-anchor="start" x="14" y="-509.5" font-family="Cascadia Code NF" font-size="10.00">CodeAssembler()</text>
<text text-anchor="start" x="4" y="-493.5" font-family="Cascadia Code NF" font-size="10.00">+</text>
<text text-anchor="start" x="14" y="-493.5" font-family="Cascadia Code NF" font-size="10.00">operator=()</text>
<text text-anchor="start" x="4" y="-477.5" font-family="Cascadia Code NF" font-size="10.00">+</text>
<text text-anchor="start" x="14" y="-477.5" font-family="Cascadia Code NF" font-size="10.00">Is64()</text>
<text text-anchor="start" x="4" y="-461.5" font-family="Cascadia Code NF" font-size="10.00">+</text>
<text text-anchor="start" x="14" y="-461.5" font-family="Cascadia Code NF" font-size="10.00">Is32()</text>
<text text-anchor="start" x="4" y="-445.5" font-family="Cascadia Code NF" font-size="10.00">+</text>
<text text-anchor="start" x="14" y="-445.5" font-family="Cascadia Code NF" font-size="10.00">IsFloat64RoundUpSupported()</text>
<text text-anchor="start" x="4" y="-429.5" font-family="Cascadia Code NF" font-size="10.00">+</text>
<text text-anchor="start" x="14" y="-429.5" font-family="Cascadia Code NF" font-size="10.00">IsFloat64RoundDownSupported()</text>
<text text-anchor="start" x="4" y="-413.5" font-family="Cascadia Code NF" font-size="10.00">+</text>
<text text-anchor="start" x="14" y="-413.5" font-family="Cascadia Code NF" font-size="10.00">IsFloat64RoundTiesEvenSupported()</text>
<text text-anchor="start" x="4" y="-397.5" font-family="Cascadia Code NF" font-size="10.00">+</text>
<text text-anchor="start" x="14" y="-397.5" font-family="Cascadia Code NF" font-size="10.00">IsFloat64RoundTruncateSupported()</text>
<text text-anchor="start" x="14" y="-381.5" font-family="Cascadia Code NF" font-size="10.00">and 262 more...</text>
<text text-anchor="start" x="4" y="-365.5" font-family="Cascadia Code NF" font-size="10.00">+</text>
<text text-anchor="start" x="14" y="-365.5" font-family="Cascadia Code NF" font-size="10.00">GenerateCode()</text>
<text text-anchor="start" x="4" y="-349.5" font-family="Cascadia Code NF" font-size="10.00">#</text>
<text text-anchor="start" x="14" y="-349.5" font-family="Cascadia Code NF" font-size="10.00">RegisterCallGenerationCallbacks()</text>
<text text-anchor="start" x="4" y="-333.5" font-family="Cascadia Code NF" font-size="10.00">#</text>
<text text-anchor="start" x="14" y="-333.5" font-family="Cascadia Code NF" font-size="10.00">UnregisterCallGeneration</text>
<text text-anchor="start" x="14" y="-320.75" font-family="Cascadia Code NF" font-size="10.00">Callbacks()</text>
<text text-anchor="start" x="4" y="-304.5" font-family="Cascadia Code NF" font-size="10.00">#</text>
<text text-anchor="start" x="14" y="-304.5" font-family="Cascadia Code NF" font-size="10.00">Word32ShiftIsSafe()</text>
<text text-anchor="start" x="4" y="-288.5" font-family="Cascadia Code NF" font-size="10.00">#</text>
<text text-anchor="start" x="14" y="-288.5" font-family="Cascadia Code NF" font-size="10.00">IsJSFunctionCall()</text>
<polygon fill="#bfbfbf" stroke="#bfbfbf" points="0,-569 0,-569 216,-569 216,-569 0,-569"/>
<polygon fill="#bfbfbf" stroke="#bfbfbf" points="0,-553 0,-553 12,-553 12,-553 0,-553"/>
<polygon fill="#bfbfbf" stroke="#bfbfbf" points="12,-553 12,-553 216,-553 216,-553 12,-553"/>
<polygon fill="none" stroke="#bfbfbf" points="0,-282 0,-600 216,-600 216,-282 0,-282"/>
</a>
</g>
</g>
<!-- Node3&#45;&gt;Node2 -->
<g id="edge2_Node000002_Node000003" class="edge">
<title>Node3&#45;&gt;Node2</title>
<g id="a_edge2_Node000002_Node000003"><a xlink:title=" ">
<path fill="none" stroke="#63b8ff" d="M225.09,-366.03C234.14,-360.18 243.23,-354.31 252.14,-348.55"/>
<polygon fill="none" stroke="#63b8ff" points="223.44,-362.93 216.94,-371.29 227.24,-368.81 223.44,-362.93"/>
</a>
</g>
</g>
<!-- Node4 -->
<g id="Node000004" class="node">
<title>Node4</title>
<g id="a_Node000004"><a xlink:href="../../d7/dab/classv8_1_1internal_1_1TorqueGeneratedExportedMacrosAssembler.html" target="_top" xlink:title=" ">
<polygon fill="white" stroke="none" points="207,-264 9,-264 9,0 207,0 207,-264"/>
<text text-anchor="start" x="21" y="-250.5" font-family="Cascadia Code NF" font-size="10.00">v8::internal::TorqueGenerated</text>
<text text-anchor="start" x="39" y="-237.75" font-family="Cascadia Code NF" font-size="10.00">ExportedMacrosAssembler</text>
<text text-anchor="start" x="105" y="-221.5" font-family="Cascadia Code NF" font-size="10.00"> </text>
<text text-anchor="start" x="13" y="-205.5" font-family="Cascadia Code NF" font-size="10.00">+</text>
<text text-anchor="start" x="23" y="-205.5" font-family="Cascadia Code NF" font-size="10.00">TorqueGeneratedExportedMacros</text>
<text text-anchor="start" x="23" y="-192.75" font-family="Cascadia Code NF" font-size="10.00">Assembler()</text>
<text text-anchor="start" x="13" y="-176.5" font-family="Cascadia Code NF" font-size="10.00">+</text>
<text text-anchor="start" x="23" y="-176.5" font-family="Cascadia Code NF" font-size="10.00">EnsureArrayLengthWritable()</text>
<text text-anchor="start" x="13" y="-160.5" font-family="Cascadia Code NF" font-size="10.00">+</text>
<text text-anchor="start" x="23" y="-160.5" font-family="Cascadia Code NF" font-size="10.00">ToInteger_Inline()</text>
<text text-anchor="start" x="13" y="-144.5" font-family="Cascadia Code NF" font-size="10.00">+</text>
<text text-anchor="start" x="23" y="-144.5" font-family="Cascadia Code NF" font-size="10.00">RequireObjectCoercible()</text>
<text text-anchor="start" x="13" y="-128.5" font-family="Cascadia Code NF" font-size="10.00">+</text>
<text text-anchor="start" x="23" y="-128.5" font-family="Cascadia Code NF" font-size="10.00">ChangeUintPtrNumberToUint</text>
<text text-anchor="start" x="23" y="-115.75" font-family="Cascadia Code NF" font-size="10.00">Ptr()</text>
<text text-anchor="start" x="13" y="-99.5" font-family="Cascadia Code NF" font-size="10.00">+</text>
<text text-anchor="start" x="23" y="-99.5" font-family="Cascadia Code NF" font-size="10.00">ChangeSafeIntegerNumberTo</text>
<text text-anchor="start" x="23" y="-86.75" font-family="Cascadia Code NF" font-size="10.00">UintPtr()</text>
<text text-anchor="start" x="13" y="-70.5" font-family="Cascadia Code NF" font-size="10.00">+</text>
<text text-anchor="start" x="23" y="-70.5" font-family="Cascadia Code NF" font-size="10.00">ToIndex()</text>
<text text-anchor="start" x="13" y="-54.5" font-family="Cascadia Code NF" font-size="10.00">+</text>
<text text-anchor="start" x="23" y="-54.5" font-family="Cascadia Code NF" font-size="10.00">ConvertAndClampRelativeIndex()</text>
<text text-anchor="start" x="13" y="-38.5" font-family="Cascadia Code NF" font-size="10.00">+</text>
<text text-anchor="start" x="23" y="-38.5" font-family="Cascadia Code NF" font-size="10.00">ConvertAndClampRelativeIndex()</text>
<text text-anchor="start" x="13" y="-22.5" font-family="Cascadia Code NF" font-size="10.00">+</text>
<text text-anchor="start" x="23" y="-22.5" font-family="Cascadia Code NF" font-size="10.00">ClampToIndexRange()</text>
<text text-anchor="start" x="23" y="-6.5" font-family="Cascadia Code NF" font-size="10.00">and 1568 more...</text>
<polygon fill="#bfbfbf" stroke="#bfbfbf" points="9,-233 9,-233 207,-233 207,-233 9,-233"/>
<polygon fill="#bfbfbf" stroke="#bfbfbf" points="9,-217 9,-217 207,-217 207,-217 9,-217"/>
<polygon fill="none" stroke="#bfbfbf" points="9,0 9,-264 207,-264 207,0 9,0"/>
</a>
</g>
</g>
<!-- Node4&#45;&gt;Node2 -->
<g id="edge3_Node000002_Node000004" class="edge">
<title>Node4&#45;&gt;Node2</title>
<g id="a_edge3_Node000002_Node000004"><a xlink:title=" ">
<path fill="none" stroke="#63b8ff" d="M216.45,-200.95C228.33,-208.57 240.38,-216.3 252.13,-223.84"/>
<polygon fill="none" stroke="#63b8ff" points="218.54,-198.13 208.24,-195.68 214.76,-204.02 218.54,-198.13"/>
</a>
</g>
</g>
</g>
</svg>

<g id="navigator" transform="translate(0 0)" fill="#404254">
  <rect fill="#f2f5e9" fill-opacity="0.5" stroke="#606060" stroke-width=".5" x="0" y="0" width="60" height="60"/>
  <use id="zoomplus" xlink:href="#zoomPlus" x="17" y="9" onmousedown="handleZoom(evt,'in')"/>
  <use id="zoomminus" xlink:href="#zoomMin" x="42" y="9" onmousedown="handleZoom(evt,'out')"/>
  <use id="reset" xlink:href="#resetDef" x="30" y="36" onmousedown="handleReset()"/>
   <use id="arrowup" xlink:href="#arrowUp" x="0" y="0" onmousedown="handlePan(0,-1)"/>
  <use id="arrowright" xlink:href="#arrowRight" x="0" y="0" onmousedown="handlePan(1,0)"/>
  <use id="arrowdown" xlink:href="#arrowDown" x="0" y="0" onmousedown="handlePan(0,1)"/>
  <use id="arrowleft" xlink:href="#arrowLeft" x="0" y="0" onmousedown="handlePan(-1,0)"/>
</g>
<svg viewBox="0 0 15 15" width="100%" height="30px" preserveAspectRatio="xMaxYMin meet">
 <g id="arrow_out" transform="scale(0.3 0.3)">
  <a xlink:href="classv8_1_1internal_1_1TypedArrayBuiltinsAssembler__inherit__graph_org.svg" target="_base">
   <rect id="button" ry="5" rx="5" y="6" x="6" height="38" width="38"
        fill="#f2f5e9" fill-opacity="0.5" stroke="#606060" stroke-width="1.0"/>
   <path id="arrow"
     d="M 11.500037,31.436501 C 11.940474,20.09759 22.043105,11.32322 32.158766,21.979434 L 37.068811,17.246167 C 37.068811,17.246167 37.088388,32 37.088388,32 L 22.160133,31.978069 C 22.160133,31.978069 26.997745,27.140456 26.997745,27.140456 C 18.528582,18.264221 13.291696,25.230495 11.500037,31.436501 z"
     style="fill:#404040;"/>
  </a>
 </g>
</svg>

<style type='text/css'>
<![CDATA[
[data-mouse-over-selected='false'] { opacity: 0.7; }
[data-mouse-over-selected='true']  { opacity: 1.0; }
]]>
</style>
<script type="application/ecmascript"><![CDATA[
document.addEventListener('DOMContentLoaded', (event) => {
  highlightEdges();
  highlightAdjacentNodes();
});
]]></script>
</svg>
