<?xml version="1.0" encoding="UTF-8" standalone="no"?>
<!DOCTYPE svg PUBLIC "-//W3C//DTD SVG 1.1//EN"
 "http://www.w3.org/Graphics/SVG/1.1/DTD/svg11.dtd">
<!-- Generated by graphviz version 11.0.0 (20240428.1522)
 -->
<!-- Title: v8::internal::JSDisposableStack Pages: 1 -->
<svg width="522pt" height="397pt"
 viewBox="0.00 0.00 522.00 397.00" xmlns="http://www.w3.org/2000/svg" xmlns:xlink="http://www.w3.org/1999/xlink">
<g id="graph0" class="graph" transform="scale(1 1) rotate(0) translate(4 393)">
<title>v8::internal::JSDisposableStack</title>
<!-- Node1 -->
<g id="Node000001" class="node">
<title>Node1</title>
<g id="a_Node000001"><a xlink:title=" ">
<polygon fill="#999999" stroke="none" points="514,-251 310,-251 310,-138 514,-138 514,-251"/>
<text text-anchor="start" x="334" y="-237.5" font-family="Cascadia Code NF" font-size="10.00">v8::internal::JSDisposable</text>
<text text-anchor="start" x="397" y="-224.75" font-family="Cascadia Code NF" font-size="10.00">Stack</text>
<text text-anchor="start" x="409" y="-208.5" font-family="Cascadia Code NF" font-size="10.00"> </text>
<text text-anchor="start" x="314" y="-192.5" font-family="Cascadia Code NF" font-size="10.00">+</text>
<text text-anchor="start" x="324" y="-192.5" font-family="Cascadia Code NF" font-size="10.00">Initialize()</text>
<text text-anchor="start" x="314" y="-176.5" font-family="Cascadia Code NF" font-size="10.00">+</text>
<text text-anchor="start" x="324" y="-176.5" font-family="Cascadia Code NF" font-size="10.00">Add()</text>
<text text-anchor="start" x="314" y="-160.5" font-family="Cascadia Code NF" font-size="10.00">+</text>
<text text-anchor="start" x="324" y="-160.5" font-family="Cascadia Code NF" font-size="10.00">CheckValueAndGetDisposeMethod()</text>
<text text-anchor="start" x="314" y="-144.5" font-family="Cascadia Code NF" font-size="10.00">+</text>
<text text-anchor="start" x="324" y="-144.5" font-family="Cascadia Code NF" font-size="10.00">DisposeResources()</text>
<polygon fill="#666666" stroke="#666666" points="310,-220 310,-220 514,-220 514,-220 310,-220"/>
<polygon fill="#666666" stroke="#666666" points="310,-204 310,-204 514,-204 514,-204 310,-204"/>
<polygon fill="none" stroke="#666666" points="310,-138 310,-251 514,-251 514,-138 310,-138"/>
</a>
</g>
</g>
<!-- Node2 -->
<g id="Node000002" class="node">
<title>Node2</title>
<g id="a_Node000002"><a xlink:href="$dc/d8d/classTorqueGeneratedJSDisposableStack.html" xlink:title=" ">
<polygon fill="white" stroke="none" points="274,-389 94,-389 94,0 274,0 274,-389"/>
<text text-anchor="start" x="103" y="-375.5" font-family="Cascadia Code NF" font-size="10.00">TorqueGeneratedJSDisposable</text>
<text text-anchor="start" x="103" y="-362.75" font-family="Cascadia Code NF" font-size="10.00">Stack&lt; JSDisposableStack,</text>
<text text-anchor="start" x="151" y="-350" font-family="Cascadia Code NF" font-size="10.00"> JSObject &gt;</text>
<text text-anchor="start" x="98" y="-333.5" font-family="Cascadia Code NF" font-size="10.00">+</text>
<text text-anchor="start" x="108" y="-333.5" font-family="Cascadia Code NF" font-size="10.00">kStartOfStrongFieldsOffset</text>
<text text-anchor="start" x="98" y="-317.5" font-family="Cascadia Code NF" font-size="10.00">+</text>
<text text-anchor="start" x="108" y="-317.5" font-family="Cascadia Code NF" font-size="10.00">kStackOffset</text>
<text text-anchor="start" x="98" y="-301.5" font-family="Cascadia Code NF" font-size="10.00">+</text>
<text text-anchor="start" x="108" y="-301.5" font-family="Cascadia Code NF" font-size="10.00">kStackOffsetEnd</text>
<text text-anchor="start" x="98" y="-285.5" font-family="Cascadia Code NF" font-size="10.00">+</text>
<text text-anchor="start" x="108" y="-285.5" font-family="Cascadia Code NF" font-size="10.00">kStatusOffset</text>
<text text-anchor="start" x="98" y="-269.5" font-family="Cascadia Code NF" font-size="10.00">+</text>
<text text-anchor="start" x="108" y="-269.5" font-family="Cascadia Code NF" font-size="10.00">kStatusOffsetEnd</text>
<text text-anchor="start" x="98" y="-253.5" font-family="Cascadia Code NF" font-size="10.00">+</text>
<text text-anchor="start" x="108" y="-253.5" font-family="Cascadia Code NF" font-size="10.00">kEndOfStrongFieldsOffset</text>
<text text-anchor="start" x="98" y="-237.5" font-family="Cascadia Code NF" font-size="10.00">+</text>
<text text-anchor="start" x="108" y="-237.5" font-family="Cascadia Code NF" font-size="10.00">kStartOfWeakFieldsOffset</text>
<text text-anchor="start" x="98" y="-221.5" font-family="Cascadia Code NF" font-size="10.00">+</text>
<text text-anchor="start" x="108" y="-221.5" font-family="Cascadia Code NF" font-size="10.00">kEndOfWeakFieldsOffset</text>
<text text-anchor="start" x="98" y="-205.5" font-family="Cascadia Code NF" font-size="10.00">+</text>
<text text-anchor="start" x="108" y="-205.5" font-family="Cascadia Code NF" font-size="10.00">kHeaderSize</text>
<text text-anchor="start" x="98" y="-189.5" font-family="Cascadia Code NF" font-size="10.00">+</text>
<text text-anchor="start" x="108" y="-189.5" font-family="Cascadia Code NF" font-size="10.00">stack()</text>
<text text-anchor="start" x="98" y="-173.5" font-family="Cascadia Code NF" font-size="10.00">+</text>
<text text-anchor="start" x="108" y="-173.5" font-family="Cascadia Code NF" font-size="10.00">stack()</text>
<text text-anchor="start" x="98" y="-157.5" font-family="Cascadia Code NF" font-size="10.00">+</text>
<text text-anchor="start" x="108" y="-157.5" font-family="Cascadia Code NF" font-size="10.00">set_stack()</text>
<text text-anchor="start" x="98" y="-141.5" font-family="Cascadia Code NF" font-size="10.00">+</text>
<text text-anchor="start" x="108" y="-141.5" font-family="Cascadia Code NF" font-size="10.00">status()</text>
<text text-anchor="start" x="98" y="-125.5" font-family="Cascadia Code NF" font-size="10.00">+</text>
<text text-anchor="start" x="108" y="-125.5" font-family="Cascadia Code NF" font-size="10.00">set_status()</text>
<text text-anchor="start" x="98" y="-109.5" font-family="Cascadia Code NF" font-size="10.00">+</text>
<text text-anchor="start" x="108" y="-109.5" font-family="Cascadia Code NF" font-size="10.00">TorqueGeneratedJSDisposable</text>
<text text-anchor="start" x="108" y="-96.75" font-family="Cascadia Code NF" font-size="10.00">Stack()</text>
<text text-anchor="start" x="98" y="-80.5" font-family="Cascadia Code NF" font-size="10.00">+</text>
<text text-anchor="start" x="108" y="-80.5" font-family="Cascadia Code NF" font-size="10.00">cast()</text>
<text text-anchor="start" x="98" y="-64.5" font-family="Cascadia Code NF" font-size="10.00">+</text>
<text text-anchor="start" x="108" y="-64.5" font-family="Cascadia Code NF" font-size="10.00">unchecked_cast()</text>
<text text-anchor="start" x="98" y="-48.5" font-family="Cascadia Code NF" font-size="10.00">#</text>
<text text-anchor="start" x="108" y="-48.5" font-family="Cascadia Code NF" font-size="10.00">TorqueGeneratedJSDisposable</text>
<text text-anchor="start" x="108" y="-35.75" font-family="Cascadia Code NF" font-size="10.00">Stack()</text>
<text text-anchor="start" x="98" y="-19.5" font-family="Cascadia Code NF" font-size="10.00">#</text>
<text text-anchor="start" x="108" y="-19.5" font-family="Cascadia Code NF" font-size="10.00">TorqueGeneratedJSDisposable</text>
<text text-anchor="start" x="108" y="-6.75" font-family="Cascadia Code NF" font-size="10.00">Stack()</text>
<polygon fill="#bfbfbf" stroke="#bfbfbf" points="94,-345 94,-345 274,-345 274,-345 94,-345"/>
<polygon fill="#bfbfbf" stroke="#bfbfbf" points="94,-201 94,-201 106,-201 106,-201 94,-201"/>
<polygon fill="#bfbfbf" stroke="#bfbfbf" points="106,-201 106,-201 274,-201 274,-201 106,-201"/>
<polygon fill="none" stroke="#bfbfbf" points="94,0 94,-389 274,-389 274,0 94,0"/>
</a>
</g>
</g>
<!-- Node2&#45;&gt;Node1 -->
<g id="edge1_Node000001_Node000002" class="edge">
<title>Node2&#45;&gt;Node1</title>
<g id="a_edge1_Node000001_Node000002"><a xlink:title=" ">
<path fill="none" stroke="#63b8ff" d="M285.49,-194.5C293.67,-194.5 301.94,-194.5 310.12,-194.5"/>
<polygon fill="none" stroke="#63b8ff" points="285.51,-191 275.51,-194.5 285.51,-198 285.51,-191"/>
</a>
</g>
</g>
<!-- Node3 -->
<g id="Node000003" class="node">
<title>Node3</title>
<g id="a_Node000003"><a xlink:title=" ">
<polygon fill="white" stroke="none" points="58,-220.5 0,-220.5 0,-168.5 58,-168.5 58,-220.5"/>
<text text-anchor="start" x="5" y="-207" font-family="Cascadia Code NF" font-size="10.00">JSObject</text>
<text text-anchor="start" x="26" y="-191" font-family="Cascadia Code NF" font-size="10.00"> </text>
<text text-anchor="start" x="26" y="-175" font-family="Cascadia Code NF" font-size="10.00"> </text>
<polygon fill="#bfbfbf" stroke="#bfbfbf" points="0,-202.5 0,-202.5 58,-202.5 58,-202.5 0,-202.5"/>
<polygon fill="#bfbfbf" stroke="#bfbfbf" points="0,-186.5 0,-186.5 58,-186.5 58,-186.5 0,-186.5"/>
<polygon fill="none" stroke="#bfbfbf" points="0,-168.5 0,-220.5 58,-220.5 58,-168.5 0,-168.5"/>
</a>
</g>
</g>
<!-- Node3&#45;&gt;Node2 -->
<g id="edge2_Node000002_Node000003" class="edge">
<title>Node3&#45;&gt;Node2</title>
<g id="a_edge2_Node000002_Node000003"><a xlink:title=" ">
<path fill="none" stroke="#63b8ff" d="M69.04,-194.5C76.91,-194.5 85.48,-194.5 94.27,-194.5"/>
<polygon fill="none" stroke="#63b8ff" points="69.22,-191 59.22,-194.5 69.22,-198 69.22,-191"/>
</a>
</g>
</g>
</g>
</svg>
