<?xml version="1.0" encoding="UTF-8" standalone="no"?>
<!DOCTYPE svg PUBLIC "-//W3C//DTD SVG 1.1//EN"
 "http://www.w3.org/Graphics/SVG/1.1/DTD/svg11.dtd">
<!-- Generated by graphviz version 11.0.0 (20240428.1522)
 -->
<!-- Title: v8::internal::JSTemporalTimeZone Pages: 1 -->
<svg width="766pt" height="416pt"
 viewBox="0.00 0.00 766.00 416.00" xmlns="http://www.w3.org/2000/svg" xmlns:xlink="http://www.w3.org/1999/xlink">
<g id="graph0" class="graph" transform="scale(1 1) rotate(0) translate(4 412)">
<title>v8::internal::JSTemporalTimeZone</title>
<!-- Node1 -->
<g id="Node000001" class="node">
<title>Node1</title>
<g id="a_Node000001"><a xlink:title=" ">
<polygon fill="#999999" stroke="none" points="758,-273 590,-273 590,0 758,0 758,-273"/>
<text text-anchor="start" x="602" y="-259.5" font-family="Cascadia Code NF" font-size="10.00">v8::internal::JSTemporal</text>
<text text-anchor="start" x="650" y="-246.75" font-family="Cascadia Code NF" font-size="10.00">TimeZone</text>
<text text-anchor="start" x="671" y="-230.5" font-family="Cascadia Code NF" font-size="10.00"> </text>
<text text-anchor="start" x="594" y="-214.5" font-family="Cascadia Code NF" font-size="10.00">+</text>
<text text-anchor="start" x="604" y="-214.5" font-family="Cascadia Code NF" font-size="10.00">time_zone_index()</text>
<text text-anchor="start" x="594" y="-198.5" font-family="Cascadia Code NF" font-size="10.00">+</text>
<text text-anchor="start" x="604" y="-198.5" font-family="Cascadia Code NF" font-size="10.00">offset_nanoseconds()</text>
<text text-anchor="start" x="594" y="-182.5" font-family="Cascadia Code NF" font-size="10.00">+</text>
<text text-anchor="start" x="604" y="-182.5" font-family="Cascadia Code NF" font-size="10.00">set_offset_nanoseconds()</text>
<text text-anchor="start" x="594" y="-166.5" font-family="Cascadia Code NF" font-size="10.00">+</text>
<text text-anchor="start" x="604" y="-166.5" font-family="Cascadia Code NF" font-size="10.00">id()</text>
<text text-anchor="start" x="594" y="-150.5" font-family="Cascadia Code NF" font-size="10.00">+</text>
<text text-anchor="start" x="604" y="-150.5" font-family="Cascadia Code NF" font-size="10.00">Now()</text>
<text text-anchor="start" x="594" y="-134.5" font-family="Cascadia Code NF" font-size="10.00">+</text>
<text text-anchor="start" x="604" y="-134.5" font-family="Cascadia Code NF" font-size="10.00">Constructor()</text>
<text text-anchor="start" x="594" y="-118.5" font-family="Cascadia Code NF" font-size="10.00">+</text>
<text text-anchor="start" x="604" y="-118.5" font-family="Cascadia Code NF" font-size="10.00">GetInstantFor()</text>
<text text-anchor="start" x="594" y="-102.5" font-family="Cascadia Code NF" font-size="10.00">+</text>
<text text-anchor="start" x="604" y="-102.5" font-family="Cascadia Code NF" font-size="10.00">GetPlainDateTimeFor()</text>
<text text-anchor="start" x="594" y="-86.5" font-family="Cascadia Code NF" font-size="10.00">+</text>
<text text-anchor="start" x="604" y="-86.5" font-family="Cascadia Code NF" font-size="10.00">GetNextTransition()</text>
<text text-anchor="start" x="594" y="-70.5" font-family="Cascadia Code NF" font-size="10.00">+</text>
<text text-anchor="start" x="604" y="-70.5" font-family="Cascadia Code NF" font-size="10.00">GetPreviousTransition()</text>
<text text-anchor="start" x="594" y="-54.5" font-family="Cascadia Code NF" font-size="10.00">+</text>
<text text-anchor="start" x="604" y="-54.5" font-family="Cascadia Code NF" font-size="10.00">GetPossibleInstantsFor()</text>
<text text-anchor="start" x="594" y="-38.5" font-family="Cascadia Code NF" font-size="10.00">+</text>
<text text-anchor="start" x="604" y="-38.5" font-family="Cascadia Code NF" font-size="10.00">GetOffsetNanosecondsFor()</text>
<text text-anchor="start" x="594" y="-22.5" font-family="Cascadia Code NF" font-size="10.00">+</text>
<text text-anchor="start" x="604" y="-22.5" font-family="Cascadia Code NF" font-size="10.00">GetOffsetStringFor()</text>
<text text-anchor="start" x="594" y="-6.5" font-family="Cascadia Code NF" font-size="10.00">+</text>
<text text-anchor="start" x="604" y="-6.5" font-family="Cascadia Code NF" font-size="10.00">ToString()</text>
<polygon fill="#666666" stroke="#666666" points="590,-242 590,-242 758,-242 758,-242 590,-242"/>
<polygon fill="#666666" stroke="#666666" points="590,-226 590,-226 758,-226 758,-226 590,-226"/>
<polygon fill="none" stroke="#666666" points="590,0 590,-273 758,-273 758,0 590,0"/>
</a>
</g>
</g>
<!-- Node2 -->
<g id="Node000002" class="node">
<title>Node2</title>
<g id="a_Node000002"><a xlink:href="../../d3/db8/classTorqueGeneratedJSTemporalTimeZone.html" target="_top" xlink:title=" ">
<polygon fill="white" stroke="none" points="440,-408 256,-408 256,-163 440,-163 440,-408"/>
<text text-anchor="start" x="261" y="-394.5" font-family="Cascadia Code NF" font-size="10.00">TorqueGeneratedJSTemporal</text>
<text text-anchor="start" x="261" y="-381.75" font-family="Cascadia Code NF" font-size="10.00">TimeZone&lt; JSTemporalTimeZone,</text>
<text text-anchor="start" x="315" y="-369" font-family="Cascadia Code NF" font-size="10.00"> JSObject &gt;</text>
<text text-anchor="start" x="345" y="-352.5" font-family="Cascadia Code NF" font-size="10.00"> </text>
<text text-anchor="start" x="264" y="-336.5" font-family="Cascadia Code NF" font-size="10.00">+</text>
<text text-anchor="start" x="278" y="-336.5" font-family="Cascadia Code NF" font-size="10.00">flags()</text>
<text text-anchor="start" x="264" y="-320.5" font-family="Cascadia Code NF" font-size="10.00">+</text>
<text text-anchor="start" x="278" y="-320.5" font-family="Cascadia Code NF" font-size="10.00">set_flags()</text>
<text text-anchor="start" x="264" y="-304.5" font-family="Cascadia Code NF" font-size="10.00">+</text>
<text text-anchor="start" x="278" y="-304.5" font-family="Cascadia Code NF" font-size="10.00">details()</text>
<text text-anchor="start" x="264" y="-288.5" font-family="Cascadia Code NF" font-size="10.00">+</text>
<text text-anchor="start" x="278" y="-288.5" font-family="Cascadia Code NF" font-size="10.00">set_details()</text>
<text text-anchor="start" x="264" y="-272.5" font-family="Cascadia Code NF" font-size="10.00">+</text>
<text text-anchor="start" x="278" y="-272.5" font-family="Cascadia Code NF" font-size="10.00">TorqueGeneratedJSTemporal</text>
<text text-anchor="start" x="278" y="-259.75" font-family="Cascadia Code NF" font-size="10.00">TimeZone()</text>
<text text-anchor="start" x="264" y="-243.5" font-family="Cascadia Code NF" font-size="10.00">+</text>
<text text-anchor="start" x="278" y="-243.5" font-family="Cascadia Code NF" font-size="10.00">cast()</text>
<text text-anchor="start" x="264" y="-227.5" font-family="Cascadia Code NF" font-size="10.00">+</text>
<text text-anchor="start" x="278" y="-227.5" font-family="Cascadia Code NF" font-size="10.00">unchecked_cast()</text>
<text text-anchor="start" x="264" y="-211.5" font-family="Cascadia Code NF" font-size="10.00">#</text>
<text text-anchor="start" x="278" y="-211.5" font-family="Cascadia Code NF" font-size="10.00">TorqueGeneratedJSTemporal</text>
<text text-anchor="start" x="278" y="-198.75" font-family="Cascadia Code NF" font-size="10.00">TimeZone()</text>
<text text-anchor="start" x="264" y="-182.5" font-family="Cascadia Code NF" font-size="10.00">#</text>
<text text-anchor="start" x="278" y="-182.5" font-family="Cascadia Code NF" font-size="10.00">TorqueGeneratedJSTemporal</text>
<text text-anchor="start" x="278" y="-169.75" font-family="Cascadia Code NF" font-size="10.00">TimeZone()</text>
<polygon fill="#bfbfbf" stroke="#bfbfbf" points="256,-364 256,-364 440,-364 440,-364 256,-364"/>
<polygon fill="#bfbfbf" stroke="#bfbfbf" points="256,-348 256,-348 440,-348 440,-348 256,-348"/>
<polygon fill="none" stroke="#bfbfbf" points="256,-163 256,-408 440,-408 440,-163 256,-163"/>
</a>
</g>
</g>
<!-- Node2&#45;&gt;Node1 -->
<g id="edge1_Node000001_Node000002" class="edge">
<title>Node2&#45;&gt;Node1</title>
<g id="a_edge1_Node000001_Node000002"><a xlink:title=" ">
<path fill="none" stroke="#63b8ff" d="M450.06,-239.02C495.08,-218.32 547.44,-194.24 590.1,-174.62"/>
<polygon fill="none" stroke="#63b8ff" points="448.68,-235.81 441.06,-243.16 451.61,-242.17 448.68,-235.81"/>
</a>
</g>
</g>
<!-- Node3 -->
<g id="Node000003" class="node">
<title>Node3</title>
<g id="a_Node000003"><a xlink:title=" ">
<polygon fill="white" stroke="none" points="58,-380.5 0,-380.5 0,-328.5 58,-328.5 58,-380.5"/>
<text text-anchor="start" x="5" y="-367" font-family="Cascadia Code NF" font-size="10.00">JSObject</text>
<text text-anchor="start" x="26" y="-351" font-family="Cascadia Code NF" font-size="10.00"> </text>
<text text-anchor="start" x="26" y="-335" font-family="Cascadia Code NF" font-size="10.00"> </text>
<polygon fill="#bfbfbf" stroke="#bfbfbf" points="0,-362.5 0,-362.5 58,-362.5 58,-362.5 0,-362.5"/>
<polygon fill="#bfbfbf" stroke="#bfbfbf" points="0,-346.5 0,-346.5 58,-346.5 58,-346.5 0,-346.5"/>
<polygon fill="none" stroke="#bfbfbf" points="0,-328.5 0,-380.5 58,-380.5 58,-328.5 0,-328.5"/>
</a>
</g>
</g>
<!-- Node3&#45;&gt;Node2 -->
<g id="edge2_Node000002_Node000003" class="edge">
<title>Node3&#45;&gt;Node2</title>
<g id="a_edge2_Node000002_Node000003"><a xlink:title=" ">
<path fill="none" stroke="#63b8ff" d="M69.18,-353.86C111.46,-352.36 180.49,-347.57 238,-332.5 243.98,-330.93 250.06,-329.09 256.12,-327.05"/>
<polygon fill="none" stroke="#63b8ff" points="69.13,-350.36 59.24,-354.16 69.34,-357.36 69.13,-350.36"/>
</a>
</g>
</g>
<!-- Node4 -->
<g id="Node000004" class="node">
<title>Node4</title>
<g id="a_Node000004"><a xlink:href="../../d1/da0/classint.html" target="_top" xlink:title=" ">
<polygon fill="white" stroke="none" points="43,-242.5 15,-242.5 15,-190.5 43,-190.5 43,-242.5"/>
<text text-anchor="start" x="20" y="-229" font-family="Cascadia Code NF" font-size="10.00">int</text>
<text text-anchor="start" x="26" y="-213" font-family="Cascadia Code NF" font-size="10.00"> </text>
<text text-anchor="start" x="26" y="-197" font-family="Cascadia Code NF" font-size="10.00"> </text>
<polygon fill="#bfbfbf" stroke="#bfbfbf" points="15,-224.5 15,-224.5 43,-224.5 43,-224.5 15,-224.5"/>
<polygon fill="#bfbfbf" stroke="#bfbfbf" points="15,-208.5 15,-208.5 43,-208.5 43,-208.5 15,-208.5"/>
<polygon fill="none" stroke="#bfbfbf" points="15,-190.5 15,-242.5 43,-242.5 43,-190.5 15,-190.5"/>
</a>
</g>
</g>
<!-- Node4&#45;&gt;Node2 -->
<g id="edge3_Node000002_Node000004" class="edge">
<title>Node4&#45;&gt;Node2</title>
<g id="a_edge3_Node000002_Node000004"><a xlink:title=" ">
<path fill="none" stroke="#63b8ff" d="M42.55,-213.78C75.48,-207.19 166.73,-192.4 238,-213.75 239.99,-214.35 241.99,-214.99 243.97,-215.69"/>
<polygon fill="none" stroke="#63b8ff" points="244.09,-215.73 251.14,-214.21 255.25,-220.14 248.2,-221.66 244.09,-215.73"/>
</a>
</g>
<text text-anchor="middle" x="157" y="-318.75" font-family="Cascadia Code NF" font-size="10.00" fill="grey"> +kDetailsOffset</text>
<text text-anchor="middle" x="157" y="-306" font-family="Cascadia Code NF" font-size="10.00" fill="grey">+kDetailsOffsetEnd</text>
<text text-anchor="middle" x="157" y="-293.25" font-family="Cascadia Code NF" font-size="10.00" fill="grey">+kEndOfStrongFieldsOffset</text>
<text text-anchor="middle" x="157" y="-280.5" font-family="Cascadia Code NF" font-size="10.00" fill="grey">+kEndOfWeakFieldsOffset</text>
<text text-anchor="middle" x="157" y="-267.75" font-family="Cascadia Code NF" font-size="10.00" fill="grey">+kFlagsOffset</text>
<text text-anchor="middle" x="157" y="-255" font-family="Cascadia Code NF" font-size="10.00" fill="grey">+kFlagsOffsetEnd</text>
<text text-anchor="middle" x="157" y="-242.25" font-family="Cascadia Code NF" font-size="10.00" fill="grey">+kHeaderSize</text>
<text text-anchor="middle" x="157" y="-229.5" font-family="Cascadia Code NF" font-size="10.00" fill="grey">+kStartOfStrongFieldsOffset</text>
<text text-anchor="middle" x="157" y="-216.75" font-family="Cascadia Code NF" font-size="10.00" fill="grey">+kStartOfWeakFieldsOffset</text>
</g>
<!-- Node5 -->
<g id="Node000005" class="node">
<title>Node5</title>
<g id="a_Node000005"><a xlink:title=" ">
<polygon fill="white" stroke="none" points="374,-144.5 322,-144.5 322,-92.5 374,-92.5 374,-144.5"/>
<text text-anchor="start" x="327" y="-131" font-family="Cascadia Code NF" font-size="10.00">int32_t</text>
<text text-anchor="start" x="345" y="-115" font-family="Cascadia Code NF" font-size="10.00"> </text>
<text text-anchor="start" x="345" y="-99" font-family="Cascadia Code NF" font-size="10.00"> </text>
<polygon fill="#bfbfbf" stroke="#bfbfbf" points="322,-126.5 322,-126.5 374,-126.5 374,-126.5 322,-126.5"/>
<polygon fill="#bfbfbf" stroke="#bfbfbf" points="322,-110.5 322,-110.5 374,-110.5 374,-110.5 322,-110.5"/>
<polygon fill="none" stroke="#bfbfbf" points="322,-92.5 322,-144.5 374,-144.5 374,-92.5 322,-92.5"/>
</a>
</g>
</g>
<!-- Node5&#45;&gt;Node1 -->
<g id="edge4_Node000001_Node000005" class="edge">
<title>Node5&#45;&gt;Node1</title>
<g id="a_edge4_Node000001_Node000005"><a xlink:title=" ">
<path fill="none" stroke="#63b8ff" d="M373.89,-119.88C416.85,-122.27 507.08,-127.28 577.27,-131.18"/>
<polygon fill="none" stroke="#63b8ff" points="577.24,-131.18 583.45,-127.52 589.22,-131.85 583.01,-135.51 577.24,-131.18"/>
</a>
</g>
<text text-anchor="middle" x="515" y="-133.75" font-family="Cascadia Code NF" font-size="10.00" fill="grey"> +kUTCTimeZoneIndex</text>
</g>
</g>
</svg>
