<?xml version="1.0" encoding="UTF-8" standalone="no"?>
<!DOCTYPE svg PUBLIC "-//W3C//DTD SVG 1.1//EN"
 "http://www.w3.org/Graphics/SVG/1.1/DTD/svg11.dtd">
<!-- Generated by graphviz version 11.0.0 (20240428.1522)
 -->
<!-- Title: NON_EXPORTED_BASEAllStatic Pages: 1 -->
<svg width="402pt" height="502pt"
 viewBox="0.00 0.00 402.00 502.00" xmlns="http://www.w3.org/2000/svg" xmlns:xlink="http://www.w3.org/1999/xlink">
<g id="graph0" class="graph" transform="scale(1 1) rotate(0) translate(4 498)">
<title>NON_EXPORTED_BASEAllStatic</title>
<!-- Node1 -->
<g id="Node000001" class="node">
<title>Node1</title>
<g id="a_Node000001"><a xlink:title=" ">
<polygon fill="#999999" stroke="none" points="166,-286 0,-286 0,-234 166,-234 166,-286"/>
<text text-anchor="start" x="5" y="-272.5" font-family="Cascadia Code NF" font-size="10.00">NON_EXPORTED_BASEAllStatic</text>
<text text-anchor="start" x="80" y="-256.5" font-family="Cascadia Code NF" font-size="10.00"> </text>
<text text-anchor="start" x="80" y="-240.5" font-family="Cascadia Code NF" font-size="10.00"> </text>
<polygon fill="#666666" stroke="#666666" points="0,-268 0,-268 166,-268 166,-268 0,-268"/>
<polygon fill="#666666" stroke="#666666" points="0,-252 0,-252 166,-252 166,-252 0,-252"/>
<polygon fill="none" stroke="#666666" points="0,-234 0,-286 166,-286 166,-234 0,-234"/>
</a>
</g>
</g>
<!-- Node2 -->
<g id="Node000002" class="node">
<title>Node2</title>
<g id="a_Node000002"><a xlink:href="$d0/daa/classv8_1_1internal_1_1EhFrameConstants.html" xlink:title=" ">
<polygon fill="white" stroke="none" points="393,-494 203,-494 203,-282 393,-282 393,-494"/>
<text text-anchor="start" x="208" y="-480.5" font-family="Cascadia Code NF" font-size="10.00">v8::internal::EhFrameConstants</text>
<text text-anchor="start" x="208" y="-464.5" font-family="Cascadia Code NF" font-size="10.00">+</text>
<text text-anchor="start" x="219" y="-464.5" font-family="Cascadia Code NF" font-size="10.00">kLocationTag</text>
<text text-anchor="start" x="208" y="-448.5" font-family="Cascadia Code NF" font-size="10.00">+</text>
<text text-anchor="start" x="219" y="-448.5" font-family="Cascadia Code NF" font-size="10.00">kLocationMask</text>
<text text-anchor="start" x="208" y="-432.5" font-family="Cascadia Code NF" font-size="10.00">+</text>
<text text-anchor="start" x="219" y="-432.5" font-family="Cascadia Code NF" font-size="10.00">kLocationMaskSize</text>
<text text-anchor="start" x="208" y="-416.5" font-family="Cascadia Code NF" font-size="10.00">+</text>
<text text-anchor="start" x="219" y="-416.5" font-family="Cascadia Code NF" font-size="10.00">kSavedRegisterTag</text>
<text text-anchor="start" x="208" y="-400.5" font-family="Cascadia Code NF" font-size="10.00">+</text>
<text text-anchor="start" x="219" y="-400.5" font-family="Cascadia Code NF" font-size="10.00">kSavedRegisterMask</text>
<text text-anchor="start" x="208" y="-384.5" font-family="Cascadia Code NF" font-size="10.00">+</text>
<text text-anchor="start" x="219" y="-384.5" font-family="Cascadia Code NF" font-size="10.00">kSavedRegisterMaskSize</text>
<text text-anchor="start" x="208" y="-368.5" font-family="Cascadia Code NF" font-size="10.00">+</text>
<text text-anchor="start" x="219" y="-368.5" font-family="Cascadia Code NF" font-size="10.00">kFollowInitialRuleTag</text>
<text text-anchor="start" x="208" y="-352.5" font-family="Cascadia Code NF" font-size="10.00">+</text>
<text text-anchor="start" x="219" y="-352.5" font-family="Cascadia Code NF" font-size="10.00">kFollowInitialRuleMask</text>
<text text-anchor="start" x="208" y="-336.5" font-family="Cascadia Code NF" font-size="10.00">+</text>
<text text-anchor="start" x="219" y="-336.5" font-family="Cascadia Code NF" font-size="10.00">kFollowInitialRuleMaskSize</text>
<text text-anchor="start" x="208" y="-320.5" font-family="Cascadia Code NF" font-size="10.00">+</text>
<text text-anchor="start" x="219" y="-320.5" font-family="Cascadia Code NF" font-size="10.00">kProcedureAddressOffsetInFde</text>
<text text-anchor="start" x="219" y="-304.5" font-family="Cascadia Code NF" font-size="10.00">and 9 more...</text>
<text text-anchor="start" x="295" y="-288.5" font-family="Cascadia Code NF" font-size="10.00"> </text>
<polygon fill="#bfbfbf" stroke="#bfbfbf" points="203,-476 203,-476 393,-476 393,-476 203,-476"/>
<polygon fill="#bfbfbf" stroke="#bfbfbf" points="203,-300 203,-300 217,-300 217,-300 203,-300"/>
<polygon fill="#bfbfbf" stroke="#bfbfbf" points="217,-300 217,-300 393,-300 393,-300 217,-300"/>
<polygon fill="none" stroke="#bfbfbf" points="203,-282 203,-494 393,-494 393,-282 203,-282"/>
</a>
</g>
</g>
<!-- Node1&#45;&gt;Node2 -->
<g id="edge1_Node000001_Node000002" class="edge">
<title>Node1&#45;&gt;Node2</title>
<g id="a_edge1_Node000001_Node000002"><a xlink:title=" ">
<path fill="none" stroke="#63b8ff" d="M136.7,-291.67C156.87,-303.79 180.52,-318.01 203.38,-331.74"/>
<polygon fill="none" stroke="#63b8ff" points="138.78,-288.83 128.4,-286.68 135.17,-294.83 138.78,-288.83"/>
</a>
</g>
</g>
<!-- Node3 -->
<g id="Node000003" class="node">
<title>Node3</title>
<g id="a_Node000003"><a xlink:href="$dd/d8f/classv8_1_1internal_1_1compiler_1_1AccessBuilder.html" xlink:title=" ">
<polygon fill="white" stroke="none" points="394,-264 202,-264 202,0 394,0 394,-264"/>
<text text-anchor="start" x="232" y="-250.5" font-family="Cascadia Code NF" font-size="10.00">v8::internal::compiler</text>
<text text-anchor="start" x="253" y="-237.75" font-family="Cascadia Code NF" font-size="10.00">::AccessBuilder</text>
<text text-anchor="start" x="295" y="-221.5" font-family="Cascadia Code NF" font-size="10.00"> </text>
<text text-anchor="start" x="206" y="-205.5" font-family="Cascadia Code NF" font-size="10.00">+</text>
<text text-anchor="start" x="216" y="-205.5" font-family="Cascadia Code NF" font-size="10.00">ForExternalIntPtr()</text>
<text text-anchor="start" x="206" y="-189.5" font-family="Cascadia Code NF" font-size="10.00">+</text>
<text text-anchor="start" x="216" y="-189.5" font-family="Cascadia Code NF" font-size="10.00">ForMap()</text>
<text text-anchor="start" x="206" y="-173.5" font-family="Cascadia Code NF" font-size="10.00">+</text>
<text text-anchor="start" x="216" y="-173.5" font-family="Cascadia Code NF" font-size="10.00">ForHeapNumberValue()</text>
<text text-anchor="start" x="206" y="-157.5" font-family="Cascadia Code NF" font-size="10.00">+</text>
<text text-anchor="start" x="216" y="-157.5" font-family="Cascadia Code NF" font-size="10.00">ForHeapNumberOrOddballOr</text>
<text text-anchor="start" x="216" y="-144.75" font-family="Cascadia Code NF" font-size="10.00">HoleValue()</text>
<text text-anchor="start" x="206" y="-128.5" font-family="Cascadia Code NF" font-size="10.00">+</text>
<text text-anchor="start" x="216" y="-128.5" font-family="Cascadia Code NF" font-size="10.00">ForBigIntBitfield()</text>
<text text-anchor="start" x="206" y="-112.5" font-family="Cascadia Code NF" font-size="10.00">+</text>
<text text-anchor="start" x="216" y="-112.5" font-family="Cascadia Code NF" font-size="10.00">ForBigIntLeastSignificant</text>
<text text-anchor="start" x="216" y="-99.75" font-family="Cascadia Code NF" font-size="10.00">Digit64()</text>
<text text-anchor="start" x="206" y="-83.5" font-family="Cascadia Code NF" font-size="10.00">+</text>
<text text-anchor="start" x="216" y="-83.5" font-family="Cascadia Code NF" font-size="10.00">ForJSObjectPropertiesOrHash()</text>
<text text-anchor="start" x="206" y="-67.5" font-family="Cascadia Code NF" font-size="10.00">+</text>
<text text-anchor="start" x="216" y="-67.5" font-family="Cascadia Code NF" font-size="10.00">ForJSObjectPropertiesOrHash</text>
<text text-anchor="start" x="216" y="-54.75" font-family="Cascadia Code NF" font-size="10.00">KnownPointer()</text>
<text text-anchor="start" x="206" y="-38.5" font-family="Cascadia Code NF" font-size="10.00">+</text>
<text text-anchor="start" x="216" y="-38.5" font-family="Cascadia Code NF" font-size="10.00">ForJSObjectElements()</text>
<text text-anchor="start" x="206" y="-22.5" font-family="Cascadia Code NF" font-size="10.00">+</text>
<text text-anchor="start" x="216" y="-22.5" font-family="Cascadia Code NF" font-size="10.00">ForJSObjectInObjectProperty()</text>
<text text-anchor="start" x="216" y="-6.5" font-family="Cascadia Code NF" font-size="10.00">and 110 more...</text>
<polygon fill="#bfbfbf" stroke="#bfbfbf" points="202,-233 202,-233 394,-233 394,-233 202,-233"/>
<polygon fill="#bfbfbf" stroke="#bfbfbf" points="202,-217 202,-217 394,-217 394,-217 202,-217"/>
<polygon fill="none" stroke="#bfbfbf" points="202,0 202,-264 394,-264 394,0 202,0"/>
</a>
</g>
</g>
<!-- Node1&#45;&gt;Node3 -->
<g id="edge2_Node000001_Node000003" class="edge">
<title>Node1&#45;&gt;Node3</title>
<g id="a_edge2_Node000001_Node000003"><a xlink:title=" ">
<path fill="none" stroke="#63b8ff" d="M136.81,-228.26C156.56,-216.39 179.65,-202.52 202.05,-189.06"/>
<polygon fill="none" stroke="#63b8ff" points="135.17,-225.17 128.4,-233.32 138.78,-231.17 135.17,-225.17"/>
</a>
</g>
</g>
</g>
</svg>
