<?xml version="1.0" encoding="UTF-8" standalone="no"?>
<!DOCTYPE svg PUBLIC "-//W3C//DTD SVG 1.1//EN"
 "http://www.w3.org/Graphics/SVG/1.1/DTD/svg11.dtd">
<!-- Generated by graphviz version 11.0.0 (20240428.1522)
 -->
<!-- Title: v8::internal::RegExpLookaround Pages: 1 -->
<!--zoomable 236 -->

<svg id="main" version="1.1" xmlns="http://www.w3.org/2000/svg" xmlns:xlink="http://www.w3.org/1999/xlink" xml:space="preserve" onload="init(evt)">
<style type="text/css"><![CDATA[
.node, .edge {opacity: 0.7;}
.node.selected, .edge.selected {opacity: 1;}
.edge:hover path { stroke: red; }
.edge:hover polygon { stroke: red; fill: red; }
svg#main { background-color: #111; }
]]></style>

<defs>
  <circle id="rim" cx="0" cy="0" r="7"/>
  <circle id="rim2" cx="0" cy="0" r="3.5"/>
  <g id="zoomPlus">
    <use xlink:href="#rim" fill="#404040"><set attributeName="fill" to="#808080" begin="zoomplus.mouseover" end="zoomplus.mouseout"/></use>
    <path d="M-4,0h8M0,-4v8" fill="none" stroke="white" stroke-width="1.5" pointer-events="none"/>
  </g>
  <g id="zoomMin">
    <use xlink:href="#rim" fill="#404040"><set attributeName="fill" to="#808080" begin="zoomminus.mouseover" end="zoomminus.mouseout"/></use>
    <path d="M-4,0h8" fill="none" stroke="white" stroke-width="1.5" pointer-events="none"/>
  </g>
  <g id="arrowUp" transform="translate(30 24)">
    <use xlink:href="#rim"/>
    <path pointer-events="none" fill="none" stroke="white" stroke-width="1.5" d="M0,-3.0v7 M-2.5,-0.5L0,-3.0L2.5,-0.5"/>
  </g>
  <g id="arrowRight" transform="rotate(90) translate(36 -43)">
    <use xlink:href="#rim"/>
    <path pointer-events="none" fill="none" stroke="white" stroke-width="1.5" d="M0,-3.0v7 M-2.5,-0.5L0,-3.0L2.5,-0.5"/>
  </g>
  <g id="arrowDown" transform="rotate(180) translate(-30 -48)">
    <use xlink:href="#rim"/>
    <path pointer-events="none" fill="none" stroke="white" stroke-width="1.5" d="M0,-3.0v7 M-2.5,-0.5L0,-3.0L2.5,-0.5"/>
  </g>
  <g id="arrowLeft" transform="rotate(270) translate(-36 17)">
    <use xlink:href="#rim"/>
    <path pointer-events="none" fill="none" stroke="white" stroke-width="1.5" d="M0,-3.0v7 M-2.5,-0.5L0,-3.0L2.5,-0.5"/>
  </g>
  <g id="resetDef">
    <use xlink:href="#rim2" fill="#404040"><set attributeName="fill" to="#808080" begin="reset.mouseover" end="reset.mouseout"/></use>
  </g>
</defs>
<script type="application/ecmascript">
var viewWidth = 578;
var viewHeight = 236;
var sectionId = 'dynsection-0';
</script>
<script type="application/ecmascript" xlink:href="../../svg.min.js"/>
<svg id="graph" class="graph">
<g id="viewport">
<title>v8::internal::RegExpLookaround</title>
<!-- Node1 -->
<g id="Node000001" class="node">
<title>Node1</title>
<g id="a_Node000001"><a xlink:title=" ">
<polygon fill="#999999" stroke="none" points="570,-228 380,-228 380,0 570,0 570,-228"/>
<text text-anchor="start" x="385" y="-214.5" font-family="Cascadia Code NF" font-size="10.00">v8::internal::RegExpLookaround</text>
<text text-anchor="start" x="472" y="-198.5" font-family="Cascadia Code NF" font-size="10.00"> </text>
<text text-anchor="start" x="398.5" y="-182.5" font-family="Cascadia Code NF" font-size="10.00">+</text>
<text text-anchor="start" x="423" y="-182.5" font-family="Cascadia Code NF" font-size="10.00">RegExpLookaround()</text>
<text text-anchor="start" x="398.5" y="-166.5" font-family="Cascadia Code NF" font-size="10.00">+</text>
<text text-anchor="start" x="423" y="-166.5" font-family="Cascadia Code NF" font-size="10.00">DECL_BOILERPLATE()</text>
<text text-anchor="start" x="398.5" y="-150.5" font-family="Cascadia Code NF" font-size="10.00">+</text>
<text text-anchor="start" x="423" y="-150.5" font-family="Cascadia Code NF" font-size="10.00">CaptureRegisters()</text>
<text text-anchor="start" x="398.5" y="-134.5" font-family="Cascadia Code NF" font-size="10.00">+</text>
<text text-anchor="start" x="423" y="-134.5" font-family="Cascadia Code NF" font-size="10.00">IsAnchoredAtStart()</text>
<text text-anchor="start" x="398.5" y="-118.5" font-family="Cascadia Code NF" font-size="10.00">+</text>
<text text-anchor="start" x="423" y="-118.5" font-family="Cascadia Code NF" font-size="10.00">min_match()</text>
<text text-anchor="start" x="398.5" y="-102.5" font-family="Cascadia Code NF" font-size="10.00">+</text>
<text text-anchor="start" x="423" y="-102.5" font-family="Cascadia Code NF" font-size="10.00">max_match()</text>
<text text-anchor="start" x="398.5" y="-86.5" font-family="Cascadia Code NF" font-size="10.00">+</text>
<text text-anchor="start" x="423" y="-86.5" font-family="Cascadia Code NF" font-size="10.00">body()</text>
<text text-anchor="start" x="398.5" y="-70.5" font-family="Cascadia Code NF" font-size="10.00">+</text>
<text text-anchor="start" x="423" y="-70.5" font-family="Cascadia Code NF" font-size="10.00">is_positive()</text>
<text text-anchor="start" x="398.5" y="-54.5" font-family="Cascadia Code NF" font-size="10.00">+</text>
<text text-anchor="start" x="423" y="-54.5" font-family="Cascadia Code NF" font-size="10.00">capture_count()</text>
<text text-anchor="start" x="398.5" y="-38.5" font-family="Cascadia Code NF" font-size="10.00">+</text>
<text text-anchor="start" x="423" y="-38.5" font-family="Cascadia Code NF" font-size="10.00">capture_from()</text>
<text text-anchor="start" x="398.5" y="-22.5" font-family="Cascadia Code NF" font-size="10.00">+</text>
<text text-anchor="start" x="423" y="-22.5" font-family="Cascadia Code NF" font-size="10.00">type()</text>
<text text-anchor="start" x="398.5" y="-6.5" font-family="Cascadia Code NF" font-size="10.00">+</text>
<text text-anchor="start" x="423" y="-6.5" font-family="Cascadia Code NF" font-size="10.00">index()</text>
<polygon fill="#666666" stroke="#666666" points="380,-210 380,-210 570,-210 570,-210 380,-210"/>
<polygon fill="#666666" stroke="#666666" points="380,-194 380,-194 570,-194 570,-194 380,-194"/>
<polygon fill="none" stroke="#666666" points="380,0 380,-228 570,-228 570,0 380,0"/>
</a>
</g>
</g>
<!-- Node2 -->
<g id="Node000002" class="node">
<title>Node2</title>
<g id="a_Node000002"><a xlink:href="../../d8/d20/classv8_1_1internal_1_1RegExpTree.html" target="_top" xlink:title=" ">
<polygon fill="white" stroke="none" points="344,-220 190,-220 190,-8 344,-8 344,-220"/>
<text text-anchor="start" x="195" y="-206.5" font-family="Cascadia Code NF" font-size="10.00">v8::internal::RegExpTree</text>
<text text-anchor="start" x="199.5" y="-190.5" font-family="Cascadia Code NF" font-size="10.00">+</text>
<text text-anchor="start" x="215" y="-190.5" font-family="Cascadia Code NF" font-size="10.00">kInfinity</text>
<text text-anchor="start" x="199.5" y="-174.5" font-family="Cascadia Code NF" font-size="10.00">+</text>
<text text-anchor="start" x="215" y="-174.5" font-family="Cascadia Code NF" font-size="10.00">~RegExpTree()</text>
<text text-anchor="start" x="199.5" y="-158.5" font-family="Cascadia Code NF" font-size="10.00">+</text>
<text text-anchor="start" x="215" y="-158.5" font-family="Cascadia Code NF" font-size="10.00">Accept()</text>
<text text-anchor="start" x="199.5" y="-142.5" font-family="Cascadia Code NF" font-size="10.00">+</text>
<text text-anchor="start" x="215" y="-142.5" font-family="Cascadia Code NF" font-size="10.00">ToNode()</text>
<text text-anchor="start" x="199.5" y="-126.5" font-family="Cascadia Code NF" font-size="10.00">+</text>
<text text-anchor="start" x="215" y="-126.5" font-family="Cascadia Code NF" font-size="10.00">IsTextElement()</text>
<text text-anchor="start" x="199.5" y="-110.5" font-family="Cascadia Code NF" font-size="10.00">+</text>
<text text-anchor="start" x="215" y="-110.5" font-family="Cascadia Code NF" font-size="10.00">IsAnchoredAtStart()</text>
<text text-anchor="start" x="199.5" y="-94.5" font-family="Cascadia Code NF" font-size="10.00">+</text>
<text text-anchor="start" x="215" y="-94.5" font-family="Cascadia Code NF" font-size="10.00">IsAnchoredAtEnd()</text>
<text text-anchor="start" x="199.5" y="-78.5" font-family="Cascadia Code NF" font-size="10.00">+</text>
<text text-anchor="start" x="215" y="-78.5" font-family="Cascadia Code NF" font-size="10.00">min_match()</text>
<text text-anchor="start" x="199.5" y="-62.5" font-family="Cascadia Code NF" font-size="10.00">+</text>
<text text-anchor="start" x="215" y="-62.5" font-family="Cascadia Code NF" font-size="10.00">max_match()</text>
<text text-anchor="start" x="199.5" y="-46.5" font-family="Cascadia Code NF" font-size="10.00">+</text>
<text text-anchor="start" x="215" y="-46.5" font-family="Cascadia Code NF" font-size="10.00">CaptureRegisters()</text>
<text text-anchor="start" x="199.5" y="-30.5" font-family="Cascadia Code NF" font-size="10.00">+</text>
<text text-anchor="start" x="215" y="-30.5" font-family="Cascadia Code NF" font-size="10.00">AppendToText()</text>
<text text-anchor="start" x="199.5" y="-14.5" font-family="Cascadia Code NF" font-size="10.00">+</text>
<text text-anchor="start" x="215" y="-14.5" font-family="Cascadia Code NF" font-size="10.00">Print()</text>
<polygon fill="#bfbfbf" stroke="#bfbfbf" points="190,-202 190,-202 344,-202 344,-202 190,-202"/>
<polygon fill="#bfbfbf" stroke="#bfbfbf" points="190,-186 190,-186 213,-186 213,-186 190,-186"/>
<polygon fill="#bfbfbf" stroke="#bfbfbf" points="213,-186 213,-186 344,-186 344,-186 213,-186"/>
<polygon fill="none" stroke="#bfbfbf" points="190,-8 190,-220 344,-220 344,-8 190,-8"/>
</a>
</g>
</g>
<!-- Node2&#45;&gt;Node1 -->
<g id="edge1_Node000001_Node000002" class="edge">
<title>Node2&#45;&gt;Node1</title>
<g id="a_edge1_Node000001_Node000002"><a xlink:title=" ">
<path fill="none" stroke="#63b8ff" d="M355.32,-114C363.53,-114 371.87,-114 380.13,-114"/>
<polygon fill="none" stroke="#63b8ff" points="355.34,-110.5 345.34,-114 355.34,-117.5 355.34,-110.5"/>
</a>
</g>
</g>
<!-- Node3 -->
<g id="Node000003" class="node">
<title>Node3</title>
<g id="a_Node000003"><a xlink:href="../../dc/dca/classv8_1_1internal_1_1ZoneObject.html" target="_top" xlink:title=" ">
<polygon fill="white" stroke="none" points="154,-164 0,-164 0,-64 154,-64 154,-164"/>
<text text-anchor="start" x="5" y="-150.5" font-family="Cascadia Code NF" font-size="10.00">v8::internal::ZoneObject</text>
<text text-anchor="start" x="74" y="-134.5" font-family="Cascadia Code NF" font-size="10.00"> </text>
<text text-anchor="start" x="12.5" y="-118.5" font-family="Cascadia Code NF" font-size="10.00">+</text>
<text text-anchor="start" x="31" y="-118.5" font-family="Cascadia Code NF" font-size="10.00">operator new()</text>
<text text-anchor="start" x="12.5" y="-102.5" font-family="Cascadia Code NF" font-size="10.00">+</text>
<text text-anchor="start" x="31" y="-102.5" font-family="Cascadia Code NF" font-size="10.00">operator new()</text>
<text text-anchor="start" x="12.5" y="-86.5" font-family="Cascadia Code NF" font-size="10.00">+</text>
<text text-anchor="start" x="31" y="-86.5" font-family="Cascadia Code NF" font-size="10.00">operator delete()</text>
<text text-anchor="start" x="12.5" y="-70.5" font-family="Cascadia Code NF" font-size="10.00">+</text>
<text text-anchor="start" x="31" y="-70.5" font-family="Cascadia Code NF" font-size="10.00">operator delete()</text>
<polygon fill="#bfbfbf" stroke="#bfbfbf" points="0,-146 0,-146 154,-146 154,-146 0,-146"/>
<polygon fill="#bfbfbf" stroke="#bfbfbf" points="0,-130 0,-130 154,-130 154,-130 0,-130"/>
<polygon fill="none" stroke="#bfbfbf" points="0,-64 0,-164 154,-164 154,-64 0,-64"/>
</a>
</g>
</g>
<!-- Node3&#45;&gt;Node2 -->
<g id="edge2_Node000002_Node000003" class="edge">
<title>Node3&#45;&gt;Node2</title>
<g id="a_edge2_Node000002_Node000003"><a xlink:title=" ">
<path fill="none" stroke="#63b8ff" d="M165.2,-114C173.51,-114 181.9,-114 190.1,-114"/>
<polygon fill="none" stroke="#63b8ff" points="165.44,-110.5 155.44,-114 165.44,-117.5 165.44,-110.5"/>
</a>
</g>
</g>
</g>
</svg>

<g id="navigator" transform="translate(0 0)" fill="#404254">
  <rect fill="#f2f5e9" fill-opacity="0.5" stroke="#606060" stroke-width=".5" x="0" y="0" width="60" height="60"/>
  <use id="zoomplus" xlink:href="#zoomPlus" x="17" y="9" onmousedown="handleZoom(evt,'in')"/>
  <use id="zoomminus" xlink:href="#zoomMin" x="42" y="9" onmousedown="handleZoom(evt,'out')"/>
  <use id="reset" xlink:href="#resetDef" x="30" y="36" onmousedown="handleReset()"/>
   <use id="arrowup" xlink:href="#arrowUp" x="0" y="0" onmousedown="handlePan(0,-1)"/>
  <use id="arrowright" xlink:href="#arrowRight" x="0" y="0" onmousedown="handlePan(1,0)"/>
  <use id="arrowdown" xlink:href="#arrowDown" x="0" y="0" onmousedown="handlePan(0,1)"/>
  <use id="arrowleft" xlink:href="#arrowLeft" x="0" y="0" onmousedown="handlePan(-1,0)"/>
</g>
<svg viewBox="0 0 15 15" width="100%" height="30px" preserveAspectRatio="xMaxYMin meet">
 <g id="arrow_out" transform="scale(0.3 0.3)">
  <a xlink:href="classv8_1_1internal_1_1RegExpLookaround__inherit__graph_org.svg" target="_base">
   <rect id="button" ry="5" rx="5" y="6" x="6" height="38" width="38"
        fill="#f2f5e9" fill-opacity="0.5" stroke="#606060" stroke-width="1.0"/>
   <path id="arrow"
     d="M 11.500037,31.436501 C 11.940474,20.09759 22.043105,11.32322 32.158766,21.979434 L 37.068811,17.246167 C 37.068811,17.246167 37.088388,32 37.088388,32 L 22.160133,31.978069 C 22.160133,31.978069 26.997745,27.140456 26.997745,27.140456 C 18.528582,18.264221 13.291696,25.230495 11.500037,31.436501 z"
     style="fill:#404040;"/>
  </a>
 </g>
</svg>

<style type='text/css'>
<![CDATA[
[data-mouse-over-selected='false'] { opacity: 0.7; }
[data-mouse-over-selected='true']  { opacity: 1.0; }
]]>
</style>
<script type="application/ecmascript"><![CDATA[
document.addEventListener('DOMContentLoaded', (event) => {
  highlightEdges();
  highlightAdjacentNodes();
});
]]></script>
</svg>
