<?xml version="1.0" encoding="UTF-8" standalone="no"?>
<!DOCTYPE svg PUBLIC "-//W3C//DTD SVG 1.1//EN"
 "http://www.w3.org/Graphics/SVG/1.1/DTD/svg11.dtd">
<!-- Generated by graphviz version 11.0.0 (20240428.1522)
 -->
<!-- Title: v8::internal::FreeSpace Pages: 1 -->
<svg width="472pt" height="393pt"
 viewBox="0.00 0.00 472.00 393.00" xmlns="http://www.w3.org/2000/svg" xmlns:xlink="http://www.w3.org/1999/xlink">
<g id="graph0" class="graph" transform="scale(1 1) rotate(0) translate(4 389)">
<title>v8::internal::FreeSpace</title>
<!-- Node1 -->
<g id="Node000001" class="node">
<title>Node1</title>
<g id="a_Node000001"><a xlink:title=" ">
<polygon fill="#999999" stroke="none" points="464,-258.5 316,-258.5 316,-126.5 464,-126.5 464,-258.5"/>
<text text-anchor="start" x="321" y="-245" font-family="Cascadia Code NF" font-size="10.00">v8::internal::FreeSpace</text>
<text text-anchor="start" x="387" y="-229" font-family="Cascadia Code NF" font-size="10.00"> </text>
<text text-anchor="start" x="328.5" y="-213" font-family="Cascadia Code NF" font-size="10.00">+</text>
<text text-anchor="start" x="347" y="-213" font-family="Cascadia Code NF" font-size="10.00">Size()</text>
<text text-anchor="start" x="328.5" y="-197" font-family="Cascadia Code NF" font-size="10.00">+</text>
<text text-anchor="start" x="347" y="-197" font-family="Cascadia Code NF" font-size="10.00">next()</text>
<text text-anchor="start" x="328.5" y="-181" font-family="Cascadia Code NF" font-size="10.00">+</text>
<text text-anchor="start" x="347" y="-181" font-family="Cascadia Code NF" font-size="10.00">SetNext()</text>
<text text-anchor="start" x="328.5" y="-165" font-family="Cascadia Code NF" font-size="10.00">+</text>
<text text-anchor="start" x="347" y="-165" font-family="Cascadia Code NF" font-size="10.00">SetSize()</text>
<text text-anchor="start" x="328.5" y="-149" font-family="Cascadia Code NF" font-size="10.00">+</text>
<text text-anchor="start" x="347" y="-149" font-family="Cascadia Code NF" font-size="10.00">cast()</text>
<text text-anchor="start" x="328.5" y="-133" font-family="Cascadia Code NF" font-size="10.00">+</text>
<text text-anchor="start" x="347" y="-133" font-family="Cascadia Code NF" font-size="10.00">unchecked_cast()</text>
<polygon fill="#666666" stroke="#666666" points="316,-240.5 316,-240.5 464,-240.5 464,-240.5 316,-240.5"/>
<polygon fill="#666666" stroke="#666666" points="316,-224.5 316,-224.5 464,-224.5 464,-224.5 316,-224.5"/>
<polygon fill="none" stroke="#666666" points="316,-126.5 316,-258.5 464,-258.5 464,-126.5 316,-126.5"/>
</a>
</g>
</g>
<!-- Node2 -->
<g id="Node000002" class="node">
<title>Node2</title>
<g id="a_Node000002"><a xlink:href="$d9/de6/classTorqueGeneratedFreeSpace.html" xlink:title=" ">
<polygon fill="white" stroke="none" points="280,-385 106,-385 106,0 280,0 280,-385"/>
<text text-anchor="start" x="118" y="-371.5" font-family="Cascadia Code NF" font-size="10.00">TorqueGeneratedFreeSpace</text>
<text text-anchor="start" x="118" y="-358.75" font-family="Cascadia Code NF" font-size="10.00">&lt; FreeSpace, HeapObject &gt;</text>
<text text-anchor="start" x="110" y="-342.5" font-family="Cascadia Code NF" font-size="10.00">+</text>
<text text-anchor="start" x="120" y="-342.5" font-family="Cascadia Code NF" font-size="10.00">kStartOfStrongFieldsOffset</text>
<text text-anchor="start" x="110" y="-326.5" font-family="Cascadia Code NF" font-size="10.00">+</text>
<text text-anchor="start" x="120" y="-326.5" font-family="Cascadia Code NF" font-size="10.00">kSizeOffset</text>
<text text-anchor="start" x="110" y="-310.5" font-family="Cascadia Code NF" font-size="10.00">+</text>
<text text-anchor="start" x="120" y="-310.5" font-family="Cascadia Code NF" font-size="10.00">kSizeOffsetEnd</text>
<text text-anchor="start" x="110" y="-294.5" font-family="Cascadia Code NF" font-size="10.00">+</text>
<text text-anchor="start" x="120" y="-294.5" font-family="Cascadia Code NF" font-size="10.00">kEndOfStrongFieldsOffset</text>
<text text-anchor="start" x="110" y="-278.5" font-family="Cascadia Code NF" font-size="10.00">+</text>
<text text-anchor="start" x="120" y="-278.5" font-family="Cascadia Code NF" font-size="10.00">kStartOfWeakFieldsOffset</text>
<text text-anchor="start" x="110" y="-262.5" font-family="Cascadia Code NF" font-size="10.00">+</text>
<text text-anchor="start" x="120" y="-262.5" font-family="Cascadia Code NF" font-size="10.00">kNextOffset</text>
<text text-anchor="start" x="110" y="-246.5" font-family="Cascadia Code NF" font-size="10.00">+</text>
<text text-anchor="start" x="120" y="-246.5" font-family="Cascadia Code NF" font-size="10.00">kNextOffsetEnd</text>
<text text-anchor="start" x="110" y="-230.5" font-family="Cascadia Code NF" font-size="10.00">+</text>
<text text-anchor="start" x="120" y="-230.5" font-family="Cascadia Code NF" font-size="10.00">kEndOfWeakFieldsOffset</text>
<text text-anchor="start" x="110" y="-214.5" font-family="Cascadia Code NF" font-size="10.00">+</text>
<text text-anchor="start" x="120" y="-214.5" font-family="Cascadia Code NF" font-size="10.00">kHeaderSize</text>
<text text-anchor="start" x="110" y="-198.5" font-family="Cascadia Code NF" font-size="10.00">+</text>
<text text-anchor="start" x="120" y="-198.5" font-family="Cascadia Code NF" font-size="10.00">kSize</text>
<text text-anchor="start" x="110" y="-182.5" font-family="Cascadia Code NF" font-size="10.00">+</text>
<text text-anchor="start" x="120" y="-182.5" font-family="Cascadia Code NF" font-size="10.00">size()</text>
<text text-anchor="start" x="110" y="-166.5" font-family="Cascadia Code NF" font-size="10.00">+</text>
<text text-anchor="start" x="120" y="-166.5" font-family="Cascadia Code NF" font-size="10.00">set_size()</text>
<text text-anchor="start" x="110" y="-150.5" font-family="Cascadia Code NF" font-size="10.00">+</text>
<text text-anchor="start" x="120" y="-150.5" font-family="Cascadia Code NF" font-size="10.00">next()</text>
<text text-anchor="start" x="110" y="-134.5" font-family="Cascadia Code NF" font-size="10.00">+</text>
<text text-anchor="start" x="120" y="-134.5" font-family="Cascadia Code NF" font-size="10.00">next()</text>
<text text-anchor="start" x="110" y="-118.5" font-family="Cascadia Code NF" font-size="10.00">+</text>
<text text-anchor="start" x="120" y="-118.5" font-family="Cascadia Code NF" font-size="10.00">set_next()</text>
<text text-anchor="start" x="110" y="-102.5" font-family="Cascadia Code NF" font-size="10.00">+</text>
<text text-anchor="start" x="120" y="-102.5" font-family="Cascadia Code NF" font-size="10.00">AllocatedSize()</text>
<text text-anchor="start" x="110" y="-86.5" font-family="Cascadia Code NF" font-size="10.00">+</text>
<text text-anchor="start" x="120" y="-86.5" font-family="Cascadia Code NF" font-size="10.00">TorqueGeneratedFreeSpace()</text>
<text text-anchor="start" x="110" y="-70.5" font-family="Cascadia Code NF" font-size="10.00">+</text>
<text text-anchor="start" x="120" y="-70.5" font-family="Cascadia Code NF" font-size="10.00">cast()</text>
<text text-anchor="start" x="110" y="-54.5" font-family="Cascadia Code NF" font-size="10.00">+</text>
<text text-anchor="start" x="120" y="-54.5" font-family="Cascadia Code NF" font-size="10.00">unchecked_cast()</text>
<text text-anchor="start" x="110" y="-38.5" font-family="Cascadia Code NF" font-size="10.00">+</text>
<text text-anchor="start" x="120" y="-38.5" font-family="Cascadia Code NF" font-size="10.00">SizeFor()</text>
<text text-anchor="start" x="110" y="-22.5" font-family="Cascadia Code NF" font-size="10.00">#</text>
<text text-anchor="start" x="120" y="-22.5" font-family="Cascadia Code NF" font-size="10.00">TorqueGeneratedFreeSpace()</text>
<text text-anchor="start" x="110" y="-6.5" font-family="Cascadia Code NF" font-size="10.00">#</text>
<text text-anchor="start" x="120" y="-6.5" font-family="Cascadia Code NF" font-size="10.00">TorqueGeneratedFreeSpace()</text>
<polygon fill="#bfbfbf" stroke="#bfbfbf" points="106,-354 106,-354 280,-354 280,-354 106,-354"/>
<polygon fill="#bfbfbf" stroke="#bfbfbf" points="106,-194 106,-194 118,-194 118,-194 106,-194"/>
<polygon fill="#bfbfbf" stroke="#bfbfbf" points="118,-194 118,-194 280,-194 280,-194 118,-194"/>
<polygon fill="none" stroke="#bfbfbf" points="106,0 106,-385 280,-385 280,0 106,0"/>
</a>
</g>
</g>
<!-- Node2&#45;&gt;Node1 -->
<g id="edge1_Node000001_Node000002" class="edge">
<title>Node2&#45;&gt;Node1</title>
<g id="a_edge1_Node000001_Node000002"><a xlink:title=" ">
<path fill="none" stroke="#63b8ff" d="M291.26,-192.5C299.68,-192.5 308.09,-192.5 316.26,-192.5"/>
<polygon fill="none" stroke="#63b8ff" points="291.33,-189 281.33,-192.5 291.33,-196 291.33,-189"/>
</a>
</g>
</g>
<!-- Node3 -->
<g id="Node000003" class="node">
<title>Node3</title>
<g id="a_Node000003"><a xlink:title=" ">
<polygon fill="white" stroke="none" points="70,-218.5 0,-218.5 0,-166.5 70,-166.5 70,-218.5"/>
<text text-anchor="start" x="5" y="-205" font-family="Cascadia Code NF" font-size="10.00">HeapObject</text>
<text text-anchor="start" x="32" y="-189" font-family="Cascadia Code NF" font-size="10.00"> </text>
<text text-anchor="start" x="32" y="-173" font-family="Cascadia Code NF" font-size="10.00"> </text>
<polygon fill="#bfbfbf" stroke="#bfbfbf" points="0,-200.5 0,-200.5 70,-200.5 70,-200.5 0,-200.5"/>
<polygon fill="#bfbfbf" stroke="#bfbfbf" points="0,-184.5 0,-184.5 70,-184.5 70,-184.5 0,-184.5"/>
<polygon fill="none" stroke="#bfbfbf" points="0,-166.5 0,-218.5 70,-218.5 70,-166.5 0,-166.5"/>
</a>
</g>
</g>
<!-- Node3&#45;&gt;Node2 -->
<g id="edge2_Node000002_Node000003" class="edge">
<title>Node3&#45;&gt;Node2</title>
<g id="a_edge2_Node000002_Node000003"><a xlink:title=" ">
<path fill="none" stroke="#63b8ff" d="M81.3,-192.5C89.15,-192.5 97.54,-192.5 106.06,-192.5"/>
<polygon fill="none" stroke="#63b8ff" points="81.36,-189 71.36,-192.5 81.36,-196 81.36,-189"/>
</a>
</g>
</g>
</g>
</svg>
