<?xml version="1.0" encoding="UTF-8" standalone="no"?>
<!DOCTYPE svg PUBLIC "-//W3C//DTD SVG 1.1//EN"
 "http://www.w3.org/Graphics/SVG/1.1/DTD/svg11.dtd">
<!-- Generated by graphviz version 11.0.0 (20240428.1522)
 -->
<!-- Title: v8::internal::ConcurrentUnifiedHeapMarkingVisitor Pages: 1 -->
<!--zoomable 329 -->

<svg id="main" version="1.1" xmlns="http://www.w3.org/2000/svg" xmlns:xlink="http://www.w3.org/1999/xlink" xml:space="preserve" onload="init(evt)">
<style type="text/css"><![CDATA[
.node, .edge {opacity: 0.7;}
.node.selected, .edge.selected {opacity: 1;}
.edge:hover path { stroke: red; }
.edge:hover polygon { stroke: red; fill: red; }
svg#main { background-color: #111; }
]]></style>

<defs>
  <circle id="rim" cx="0" cy="0" r="7"/>
  <circle id="rim2" cx="0" cy="0" r="3.5"/>
  <g id="zoomPlus">
    <use xlink:href="#rim" fill="#404040"><set attributeName="fill" to="#808080" begin="zoomplus.mouseover" end="zoomplus.mouseout"/></use>
    <path d="M-4,0h8M0,-4v8" fill="none" stroke="white" stroke-width="1.5" pointer-events="none"/>
  </g>
  <g id="zoomMin">
    <use xlink:href="#rim" fill="#404040"><set attributeName="fill" to="#808080" begin="zoomminus.mouseover" end="zoomminus.mouseout"/></use>
    <path d="M-4,0h8" fill="none" stroke="white" stroke-width="1.5" pointer-events="none"/>
  </g>
  <g id="arrowUp" transform="translate(30 24)">
    <use xlink:href="#rim"/>
    <path pointer-events="none" fill="none" stroke="white" stroke-width="1.5" d="M0,-3.0v7 M-2.5,-0.5L0,-3.0L2.5,-0.5"/>
  </g>
  <g id="arrowRight" transform="rotate(90) translate(36 -43)">
    <use xlink:href="#rim"/>
    <path pointer-events="none" fill="none" stroke="white" stroke-width="1.5" d="M0,-3.0v7 M-2.5,-0.5L0,-3.0L2.5,-0.5"/>
  </g>
  <g id="arrowDown" transform="rotate(180) translate(-30 -48)">
    <use xlink:href="#rim"/>
    <path pointer-events="none" fill="none" stroke="white" stroke-width="1.5" d="M0,-3.0v7 M-2.5,-0.5L0,-3.0L2.5,-0.5"/>
  </g>
  <g id="arrowLeft" transform="rotate(270) translate(-36 17)">
    <use xlink:href="#rim"/>
    <path pointer-events="none" fill="none" stroke="white" stroke-width="1.5" d="M0,-3.0v7 M-2.5,-0.5L0,-3.0L2.5,-0.5"/>
  </g>
  <g id="resetDef">
    <use xlink:href="#rim2" fill="#404040"><set attributeName="fill" to="#808080" begin="reset.mouseover" end="reset.mouseout"/></use>
  </g>
</defs>
<script type="application/ecmascript">
var viewWidth = 758;
var viewHeight = 329;
var sectionId = 'dynsection-0';
</script>
<script type="application/ecmascript" xlink:href="../../svg.min.js"/>
<svg id="graph" class="graph">
<g id="viewport">
<title>v8::internal::ConcurrentUnifiedHeapMarkingVisitor</title>
<!-- Node1 -->
<g id="Node000001" class="node">
<title>Node1</title>
<g id="a_Node000001"><a xlink:title=" ">
<polygon fill="#999999" stroke="none" points="750,-228.5 558,-228.5 558,-92.5 750,-92.5 750,-228.5"/>
<text text-anchor="start" x="579" y="-215" font-family="Cascadia Code NF" font-size="10.00">v8::internal::Concurrent</text>
<text text-anchor="start" x="579" y="-202.25" font-family="Cascadia Code NF" font-size="10.00">UnifiedHeapMarkingVisitor</text>
<text text-anchor="start" x="651" y="-186" font-family="Cascadia Code NF" font-size="10.00"> </text>
<text text-anchor="start" x="562" y="-170" font-family="Cascadia Code NF" font-size="10.00">+</text>
<text text-anchor="start" x="572" y="-170" font-family="Cascadia Code NF" font-size="10.00">ConcurrentUnifiedHeapMarking</text>
<text text-anchor="start" x="572" y="-157.25" font-family="Cascadia Code NF" font-size="10.00">Visitor()</text>
<text text-anchor="start" x="562" y="-141" font-family="Cascadia Code NF" font-size="10.00">+</text>
<text text-anchor="start" x="572" y="-141" font-family="Cascadia Code NF" font-size="10.00">~ConcurrentUnifiedHeapMarking</text>
<text text-anchor="start" x="572" y="-128.25" font-family="Cascadia Code NF" font-size="10.00">Visitor()</text>
<text text-anchor="start" x="562" y="-112" font-family="Cascadia Code NF" font-size="10.00">#</text>
<text text-anchor="start" x="572" y="-112" font-family="Cascadia Code NF" font-size="10.00">DeferTraceToMutatorThread</text>
<text text-anchor="start" x="572" y="-99.25" font-family="Cascadia Code NF" font-size="10.00">IfConcurrent()</text>
<polygon fill="#666666" stroke="#666666" points="558,-197.5 558,-197.5 750,-197.5 750,-197.5 558,-197.5"/>
<polygon fill="#666666" stroke="#666666" points="558,-181.5 558,-181.5 750,-181.5 750,-181.5 558,-181.5"/>
<polygon fill="none" stroke="#666666" points="558,-92.5 558,-228.5 750,-228.5 750,-92.5 558,-92.5"/>
</a>
</g>
</g>
<!-- Node2 -->
<g id="Node000002" class="node">
<title>Node2</title>
<g id="a_Node000002"><a xlink:href="../../d3/d22/classv8_1_1internal_1_1UnifiedHeapMarkingVisitorBase.html" target="_top" xlink:title=" ">
<polygon fill="white" stroke="none" points="522,-299 348,-299 348,-22 522,-22 522,-299"/>
<text text-anchor="start" x="360" y="-285.5" font-family="Cascadia Code NF" font-size="10.00">v8::internal::UnifiedHeap</text>
<text text-anchor="start" x="381" y="-272.75" font-family="Cascadia Code NF" font-size="10.00">MarkingVisitorBase</text>
<text text-anchor="start" x="352" y="-256.5" font-family="Cascadia Code NF" font-size="10.00">#</text>
<text text-anchor="start" x="362" y="-256.5" font-family="Cascadia Code NF" font-size="10.00">marking_state_</text>
<text text-anchor="start" x="352" y="-240.5" font-family="Cascadia Code NF" font-size="10.00">#</text>
<text text-anchor="start" x="362" y="-240.5" font-family="Cascadia Code NF" font-size="10.00">unified_heap_marking</text>
<text text-anchor="start" x="362" y="-227.75" font-family="Cascadia Code NF" font-size="10.00">_state_</text>
<text text-anchor="start" x="352" y="-211.5" font-family="Cascadia Code NF" font-size="10.00">+</text>
<text text-anchor="start" x="362" y="-211.5" font-family="Cascadia Code NF" font-size="10.00">UnifiedHeapMarkingVisitor</text>
<text text-anchor="start" x="362" y="-198.75" font-family="Cascadia Code NF" font-size="10.00">Base()</text>
<text text-anchor="start" x="352" y="-182.5" font-family="Cascadia Code NF" font-size="10.00">+</text>
<text text-anchor="start" x="362" y="-182.5" font-family="Cascadia Code NF" font-size="10.00">~UnifiedHeapMarkingVisitor</text>
<text text-anchor="start" x="362" y="-169.75" font-family="Cascadia Code NF" font-size="10.00">Base()</text>
<text text-anchor="start" x="352" y="-153.5" font-family="Cascadia Code NF" font-size="10.00">#</text>
<text text-anchor="start" x="362" y="-153.5" font-family="Cascadia Code NF" font-size="10.00">Visit()</text>
<text text-anchor="start" x="352" y="-137.5" font-family="Cascadia Code NF" font-size="10.00">#</text>
<text text-anchor="start" x="362" y="-137.5" font-family="Cascadia Code NF" font-size="10.00">VisitMultipleUncompressed</text>
<text text-anchor="start" x="362" y="-124.75" font-family="Cascadia Code NF" font-size="10.00">Member()</text>
<text text-anchor="start" x="352" y="-108.5" font-family="Cascadia Code NF" font-size="10.00">#</text>
<text text-anchor="start" x="362" y="-108.5" font-family="Cascadia Code NF" font-size="10.00">VisitWeak()</text>
<text text-anchor="start" x="352" y="-92.5" font-family="Cascadia Code NF" font-size="10.00">#</text>
<text text-anchor="start" x="362" y="-92.5" font-family="Cascadia Code NF" font-size="10.00">VisitEphemeron()</text>
<text text-anchor="start" x="352" y="-76.5" font-family="Cascadia Code NF" font-size="10.00">#</text>
<text text-anchor="start" x="362" y="-76.5" font-family="Cascadia Code NF" font-size="10.00">VisitWeakContainer()</text>
<text text-anchor="start" x="352" y="-60.5" font-family="Cascadia Code NF" font-size="10.00">#</text>
<text text-anchor="start" x="362" y="-60.5" font-family="Cascadia Code NF" font-size="10.00">RegisterWeakCallback()</text>
<text text-anchor="start" x="352" y="-44.5" font-family="Cascadia Code NF" font-size="10.00">#</text>
<text text-anchor="start" x="362" y="-44.5" font-family="Cascadia Code NF" font-size="10.00">HandleMovableReference()</text>
<text text-anchor="start" x="352" y="-28.5" font-family="Cascadia Code NF" font-size="10.00">#</text>
<text text-anchor="start" x="362" y="-28.5" font-family="Cascadia Code NF" font-size="10.00">Visit()</text>
<polygon fill="#bfbfbf" stroke="#bfbfbf" points="348,-268 348,-268 522,-268 522,-268 348,-268"/>
<polygon fill="#bfbfbf" stroke="#bfbfbf" points="348,-223 348,-223 360,-223 360,-223 348,-223"/>
<polygon fill="#bfbfbf" stroke="#bfbfbf" points="360,-223 360,-223 522,-223 522,-223 360,-223"/>
<polygon fill="none" stroke="#bfbfbf" points="348,-22 348,-299 522,-299 522,-22 348,-22"/>
</a>
</g>
</g>
<!-- Node2&#45;&gt;Node1 -->
<g id="edge1_Node000001_Node000002" class="edge">
<title>Node2&#45;&gt;Node1</title>
<g id="a_edge1_Node000001_Node000002"><a xlink:title=" ">
<path fill="none" stroke="#63b8ff" d="M533.08,-160.5C541.43,-160.5 549.87,-160.5 558.2,-160.5"/>
<polygon fill="none" stroke="#63b8ff" points="533.28,-157 523.28,-160.5 533.28,-164 533.28,-157"/>
</a>
</g>
</g>
<!-- Node3 -->
<g id="Node000003" class="node">
<title>Node3</title>
<g id="a_Node000003"><a xlink:href="../../d2/d75/classv8_1_1JSVisitor.html" target="_top" xlink:title=" ">
<polygon fill="white" stroke="none" points="312,-210.5 222,-210.5 222,-110.5 312,-110.5 312,-210.5"/>
<text text-anchor="start" x="228" y="-197" font-family="Cascadia Code NF" font-size="10.00">v8::JSVisitor</text>
<text text-anchor="start" x="264" y="-181" font-family="Cascadia Code NF" font-size="10.00"> </text>
<text text-anchor="start" x="226" y="-165" font-family="Cascadia Code NF" font-size="10.00">+</text>
<text text-anchor="start" x="236" y="-165" font-family="Cascadia Code NF" font-size="10.00">JSVisitor()</text>
<text text-anchor="start" x="226" y="-149" font-family="Cascadia Code NF" font-size="10.00">+</text>
<text text-anchor="start" x="236" y="-149" font-family="Cascadia Code NF" font-size="10.00">~JSVisitor()</text>
<text text-anchor="start" x="226" y="-133" font-family="Cascadia Code NF" font-size="10.00">+</text>
<text text-anchor="start" x="236" y="-133" font-family="Cascadia Code NF" font-size="10.00">Trace()</text>
<text text-anchor="start" x="226" y="-117" font-family="Cascadia Code NF" font-size="10.00">#</text>
<text text-anchor="start" x="236" y="-117" font-family="Cascadia Code NF" font-size="10.00">Visit()</text>
<polygon fill="#bfbfbf" stroke="#bfbfbf" points="222,-192.5 222,-192.5 312,-192.5 312,-192.5 222,-192.5"/>
<polygon fill="#bfbfbf" stroke="#bfbfbf" points="222,-176.5 222,-176.5 312,-176.5 312,-176.5 222,-176.5"/>
<polygon fill="none" stroke="#bfbfbf" points="222,-110.5 222,-210.5 312,-210.5 312,-110.5 222,-110.5"/>
</a>
</g>
</g>
<!-- Node3&#45;&gt;Node2 -->
<g id="edge2_Node000002_Node000003" class="edge">
<title>Node3&#45;&gt;Node2</title>
<g id="a_edge2_Node000002_Node000003"><a xlink:title=" ">
<path fill="none" stroke="#63b8ff" d="M322.86,-160.5C331.04,-160.5 339.63,-160.5 348.26,-160.5"/>
<polygon fill="none" stroke="#63b8ff" points="323.13,-157 313.13,-160.5 323.13,-164 323.13,-157"/>
</a>
</g>
</g>
<!-- Node4 -->
<g id="Node000004" class="node">
<title>Node4</title>
<g id="a_Node000004"><a xlink:href="../../d9/dd8/classcppgc_1_1Visitor.html" target="_top" xlink:title=" ">
<polygon fill="white" stroke="none" points="186,-321 0,-321 0,0 186,0 186,-321"/>
<text text-anchor="start" x="51" y="-307.5" font-family="Cascadia Code NF" font-size="10.00">cppgc::Visitor</text>
<text text-anchor="start" x="90" y="-291.5" font-family="Cascadia Code NF" font-size="10.00"> </text>
<text text-anchor="start" x="4" y="-275.5" font-family="Cascadia Code NF" font-size="10.00">+</text>
<text text-anchor="start" x="14" y="-275.5" font-family="Cascadia Code NF" font-size="10.00">Visitor()</text>
<text text-anchor="start" x="4" y="-259.5" font-family="Cascadia Code NF" font-size="10.00">+</text>
<text text-anchor="start" x="14" y="-259.5" font-family="Cascadia Code NF" font-size="10.00">~Visitor()</text>
<text text-anchor="start" x="4" y="-243.5" font-family="Cascadia Code NF" font-size="10.00">+</text>
<text text-anchor="start" x="14" y="-243.5" font-family="Cascadia Code NF" font-size="10.00">Trace()</text>
<text text-anchor="start" x="4" y="-227.5" font-family="Cascadia Code NF" font-size="10.00">+</text>
<text text-anchor="start" x="14" y="-227.5" font-family="Cascadia Code NF" font-size="10.00">Trace()</text>
<text text-anchor="start" x="4" y="-211.5" font-family="Cascadia Code NF" font-size="10.00">+</text>
<text text-anchor="start" x="14" y="-211.5" font-family="Cascadia Code NF" font-size="10.00">TraceMultiple()</text>
<text text-anchor="start" x="4" y="-195.5" font-family="Cascadia Code NF" font-size="10.00">+</text>
<text text-anchor="start" x="14" y="-195.5" font-family="Cascadia Code NF" font-size="10.00">TraceMultiple()</text>
<text text-anchor="start" x="4" y="-179.5" font-family="Cascadia Code NF" font-size="10.00">+</text>
<text text-anchor="start" x="14" y="-179.5" font-family="Cascadia Code NF" font-size="10.00">Trace()</text>
<text text-anchor="start" x="4" y="-163.5" font-family="Cascadia Code NF" font-size="10.00">+</text>
<text text-anchor="start" x="14" y="-163.5" font-family="Cascadia Code NF" font-size="10.00">TraceMultiple()</text>
<text text-anchor="start" x="4" y="-147.5" font-family="Cascadia Code NF" font-size="10.00">+</text>
<text text-anchor="start" x="14" y="-147.5" font-family="Cascadia Code NF" font-size="10.00">RegisterWeakCallbackMethod()</text>
<text text-anchor="start" x="4" y="-131.5" font-family="Cascadia Code NF" font-size="10.00">+</text>
<text text-anchor="start" x="14" y="-131.5" font-family="Cascadia Code NF" font-size="10.00">Trace()</text>
<text text-anchor="start" x="14" y="-115.5" font-family="Cascadia Code NF" font-size="10.00">and 8 more...</text>
<text text-anchor="start" x="4" y="-99.5" font-family="Cascadia Code NF" font-size="10.00">#</text>
<text text-anchor="start" x="14" y="-99.5" font-family="Cascadia Code NF" font-size="10.00">Visit()</text>
<text text-anchor="start" x="4" y="-83.5" font-family="Cascadia Code NF" font-size="10.00">#</text>
<text text-anchor="start" x="14" y="-83.5" font-family="Cascadia Code NF" font-size="10.00">VisitWeak()</text>
<text text-anchor="start" x="4" y="-67.5" font-family="Cascadia Code NF" font-size="10.00">#</text>
<text text-anchor="start" x="14" y="-67.5" font-family="Cascadia Code NF" font-size="10.00">VisitEphemeron()</text>
<text text-anchor="start" x="4" y="-51.5" font-family="Cascadia Code NF" font-size="10.00">#</text>
<text text-anchor="start" x="14" y="-51.5" font-family="Cascadia Code NF" font-size="10.00">VisitWeakContainer()</text>
<text text-anchor="start" x="4" y="-35.5" font-family="Cascadia Code NF" font-size="10.00">#</text>
<text text-anchor="start" x="14" y="-35.5" font-family="Cascadia Code NF" font-size="10.00">HandleMovableReference()</text>
<text text-anchor="start" x="4" y="-19.5" font-family="Cascadia Code NF" font-size="10.00">#</text>
<text text-anchor="start" x="14" y="-19.5" font-family="Cascadia Code NF" font-size="10.00">VisitMultipleUncompressed</text>
<text text-anchor="start" x="14" y="-6.75" font-family="Cascadia Code NF" font-size="10.00">Member()</text>
<polygon fill="#666666" stroke="#666666" points="0,-303 0,-303 186,-303 186,-303 0,-303"/>
<polygon fill="#666666" stroke="#666666" points="0,-287 0,-287 186,-287 186,-287 0,-287"/>
<polygon fill="none" stroke="#666666" points="0,0 0,-321 186,-321 186,0 0,0"/>
</a>
</g>
</g>
<!-- Node4&#45;&gt;Node3 -->
<g id="edge3_Node000003_Node000004" class="edge">
<title>Node4&#45;&gt;Node3</title>
<g id="a_edge3_Node000003_Node000004"><a xlink:title=" ">
<path fill="none" stroke="#63b8ff" d="M197.27,-160.5C205.93,-160.5 214.33,-160.5 222.13,-160.5"/>
<polygon fill="none" stroke="#63b8ff" points="197.3,-157 187.3,-160.5 197.3,-164 197.3,-157"/>
</a>
</g>
</g>
</g>
</svg>

<g id="navigator" transform="translate(0 0)" fill="#404254">
  <rect fill="#f2f5e9" fill-opacity="0.5" stroke="#606060" stroke-width=".5" x="0" y="0" width="60" height="60"/>
  <use id="zoomplus" xlink:href="#zoomPlus" x="17" y="9" onmousedown="handleZoom(evt,'in')"/>
  <use id="zoomminus" xlink:href="#zoomMin" x="42" y="9" onmousedown="handleZoom(evt,'out')"/>
  <use id="reset" xlink:href="#resetDef" x="30" y="36" onmousedown="handleReset()"/>
   <use id="arrowup" xlink:href="#arrowUp" x="0" y="0" onmousedown="handlePan(0,-1)"/>
  <use id="arrowright" xlink:href="#arrowRight" x="0" y="0" onmousedown="handlePan(1,0)"/>
  <use id="arrowdown" xlink:href="#arrowDown" x="0" y="0" onmousedown="handlePan(0,1)"/>
  <use id="arrowleft" xlink:href="#arrowLeft" x="0" y="0" onmousedown="handlePan(-1,0)"/>
</g>
<svg viewBox="0 0 15 15" width="100%" height="30px" preserveAspectRatio="xMaxYMin meet">
 <g id="arrow_out" transform="scale(0.3 0.3)">
  <a xlink:href="classv8_1_1internal_1_1ConcurrentUnifiedHeapMarkingVisitor__inherit__graph_org.svg" target="_base">
   <rect id="button" ry="5" rx="5" y="6" x="6" height="38" width="38"
        fill="#f2f5e9" fill-opacity="0.5" stroke="#606060" stroke-width="1.0"/>
   <path id="arrow"
     d="M 11.500037,31.436501 C 11.940474,20.09759 22.043105,11.32322 32.158766,21.979434 L 37.068811,17.246167 C 37.068811,17.246167 37.088388,32 37.088388,32 L 22.160133,31.978069 C 22.160133,31.978069 26.997745,27.140456 26.997745,27.140456 C 18.528582,18.264221 13.291696,25.230495 11.500037,31.436501 z"
     style="fill:#404040;"/>
  </a>
 </g>
</svg>

<style type='text/css'>
<![CDATA[
[data-mouse-over-selected='false'] { opacity: 0.7; }
[data-mouse-over-selected='true']  { opacity: 1.0; }
]]>
</style>
<script type="application/ecmascript"><![CDATA[
document.addEventListener('DOMContentLoaded', (event) => {
  highlightEdges();
  highlightAdjacentNodes();
});
]]></script>
</svg>
