<?xml version="1.0" encoding="UTF-8" standalone="no"?>
<!DOCTYPE svg PUBLIC "-//W3C//DTD SVG 1.1//EN"
 "http://www.w3.org/Graphics/SVG/1.1/DTD/svg11.dtd">
<!-- Generated by graphviz version 11.0.0 (20240428.1522)
 -->
<!-- Title: v8::internal::compiler::FieldAccess Pages: 1 -->
<svg width="686pt" height="1777pt"
 viewBox="0.00 0.00 686.00 1777.00" xmlns="http://www.w3.org/2000/svg" xmlns:xlink="http://www.w3.org/1999/xlink">
<g id="graph0" class="graph" transform="scale(1 1) rotate(0) translate(4 1773)">
<title>v8::internal::compiler::FieldAccess</title>
<!-- Node1 -->
<g id="Node000001" class="node">
<title>Node1</title>
<g id="a_Node000001"><a xlink:title=" ">
<polygon fill="#999999" stroke="none" points="678,-802.5 536,-802.5 536,-705.5 678,-705.5 678,-802.5"/>
<text text-anchor="start" x="541" y="-789" font-family="Cascadia Code NF" font-size="10.00">v8::internal::compiler</text>
<text text-anchor="start" x="568" y="-776.25" font-family="Cascadia Code NF" font-size="10.00">::FieldAccess</text>
<text text-anchor="start" x="604" y="-760" font-family="Cascadia Code NF" font-size="10.00"> </text>
<text text-anchor="start" x="551.5" y="-744" font-family="Cascadia Code NF" font-size="10.00">+</text>
<text text-anchor="start" x="573" y="-744" font-family="Cascadia Code NF" font-size="10.00">FieldAccess()</text>
<text text-anchor="start" x="551.5" y="-728" font-family="Cascadia Code NF" font-size="10.00">+</text>
<text text-anchor="start" x="573" y="-728" font-family="Cascadia Code NF" font-size="10.00">FieldAccess()</text>
<text text-anchor="start" x="551.5" y="-712" font-family="Cascadia Code NF" font-size="10.00">+</text>
<text text-anchor="start" x="573" y="-712" font-family="Cascadia Code NF" font-size="10.00">tag()</text>
<polygon fill="#666666" stroke="#666666" points="536,-771.5 536,-771.5 678,-771.5 678,-771.5 536,-771.5"/>
<polygon fill="#666666" stroke="#666666" points="536,-755.5 536,-755.5 678,-755.5 678,-755.5 536,-755.5"/>
<polygon fill="none" stroke="#666666" points="536,-705.5 536,-802.5 678,-802.5 678,-705.5 536,-705.5"/>
</a>
</g>
</g>
<!-- Node2 -->
<g id="Node000002" class="node">
<title>Node2</title>
<g id="a_Node000002"><a xlink:title=" ">
<polygon fill="white" stroke="none" points="323,-1769 229,-1769 229,-1717 323,-1717 323,-1769"/>
<text text-anchor="start" x="234" y="-1755.5" font-family="Cascadia Code NF" font-size="10.00">BaseTaggedness</text>
<text text-anchor="start" x="273" y="-1739.5" font-family="Cascadia Code NF" font-size="10.00"> </text>
<text text-anchor="start" x="273" y="-1723.5" font-family="Cascadia Code NF" font-size="10.00"> </text>
<polygon fill="#bfbfbf" stroke="#bfbfbf" points="229,-1751 229,-1751 323,-1751 323,-1751 229,-1751"/>
<polygon fill="#bfbfbf" stroke="#bfbfbf" points="229,-1735 229,-1735 323,-1735 323,-1735 229,-1735"/>
<polygon fill="none" stroke="#bfbfbf" points="229,-1717 229,-1769 323,-1769 323,-1717 229,-1717"/>
</a>
</g>
</g>
<!-- Node2&#45;&gt;Node1 -->
<g id="edge1_Node000001_Node000002" class="edge">
<title>Node2&#45;&gt;Node1</title>
<g id="a_edge1_Node000001_Node000002"><a xlink:title=" ">
<path fill="none" stroke="#63b8ff" d="M322.84,-1737.78C378.78,-1728.78 471.63,-1704.76 518,-1642 567,-1575.69 595.36,-1005.56 603.52,-815.42"/>
<polygon fill="none" stroke="#63b8ff" points="603.53,-815.29 599.79,-809.13 604.04,-803.3 607.78,-809.47 603.53,-815.29"/>
</a>
</g>
<text text-anchor="middle" x="446" y="-1728.25" font-family="Cascadia Code NF" font-size="10.00" fill="grey"> +base_is_tagged</text>
</g>
<!-- Node3 -->
<g id="Node000003" class="node">
<title>Node3</title>
<g id="a_Node000003"><a xlink:href="$d1/da0/classint.html" xlink:title=" ">
<polygon fill="white" stroke="none" points="290,-1699 262,-1699 262,-1647 290,-1647 290,-1699"/>
<text text-anchor="start" x="267" y="-1685.5" font-family="Cascadia Code NF" font-size="10.00">int</text>
<text text-anchor="start" x="273" y="-1669.5" font-family="Cascadia Code NF" font-size="10.00"> </text>
<text text-anchor="start" x="273" y="-1653.5" font-family="Cascadia Code NF" font-size="10.00"> </text>
<polygon fill="#bfbfbf" stroke="#bfbfbf" points="262,-1681 262,-1681 290,-1681 290,-1681 262,-1681"/>
<polygon fill="#bfbfbf" stroke="#bfbfbf" points="262,-1665 262,-1665 290,-1665 290,-1665 262,-1665"/>
<polygon fill="none" stroke="#bfbfbf" points="262,-1647 262,-1699 290,-1699 290,-1647 262,-1647"/>
</a>
</g>
</g>
<!-- Node3&#45;&gt;Node1 -->
<g id="edge2_Node000001_Node000003" class="edge">
<title>Node3&#45;&gt;Node1</title>
<g id="a_edge2_Node000001_Node000003"><a xlink:title=" ">
<path fill="none" stroke="#63b8ff" d="M289.75,-1668.94C305.99,-1663.42 334.51,-1652.55 356,-1638 439.29,-1581.63 473.42,-1570.15 518,-1480 575.7,-1363.33 597.42,-967.88 603.78,-815.02"/>
<polygon fill="none" stroke="#63b8ff" points="603.78,-815.17 600.03,-809.01 604.27,-803.18 608.02,-809.34 603.78,-815.17"/>
</a>
</g>
<text text-anchor="middle" x="446" y="-1628.25" font-family="Cascadia Code NF" font-size="10.00" fill="grey"> +offset</text>
</g>
<!-- Node4 -->
<g id="Node000004" class="node">
<title>Node4</title>
<g id="a_Node000004"><a xlink:href="$dc/d82/classv8_1_1internal_1_1MaybeHandle.html" xlink:title=" ">
<polygon fill="white" stroke="none" points="356,-1628.5 196,-1628.5 196,-1371.5 356,-1371.5 356,-1628.5"/>
<text text-anchor="start" x="201" y="-1615" font-family="Cascadia Code NF" font-size="10.00">v8::internal::MaybeHandle</text>
<text text-anchor="start" x="210" y="-1602.25" font-family="Cascadia Code NF" font-size="10.00">&lt; v8::internal::Name &gt;</text>
<text text-anchor="start" x="273" y="-1586" font-family="Cascadia Code NF" font-size="10.00"> </text>
<text text-anchor="start" x="210" y="-1570" font-family="Cascadia Code NF" font-size="10.00">+</text>
<text text-anchor="start" x="230" y="-1570" font-family="Cascadia Code NF" font-size="10.00">MaybeHandle()</text>
<text text-anchor="start" x="210" y="-1554" font-family="Cascadia Code NF" font-size="10.00">+</text>
<text text-anchor="start" x="230" y="-1554" font-family="Cascadia Code NF" font-size="10.00">MaybeHandle()</text>
<text text-anchor="start" x="210" y="-1538" font-family="Cascadia Code NF" font-size="10.00">+</text>
<text text-anchor="start" x="230" y="-1538" font-family="Cascadia Code NF" font-size="10.00">MaybeHandle()</text>
<text text-anchor="start" x="210" y="-1522" font-family="Cascadia Code NF" font-size="10.00">+</text>
<text text-anchor="start" x="230" y="-1522" font-family="Cascadia Code NF" font-size="10.00">MaybeHandle()</text>
<text text-anchor="start" x="210" y="-1506" font-family="Cascadia Code NF" font-size="10.00">+</text>
<text text-anchor="start" x="230" y="-1506" font-family="Cascadia Code NF" font-size="10.00">MaybeHandle()</text>
<text text-anchor="start" x="210" y="-1490" font-family="Cascadia Code NF" font-size="10.00">+</text>
<text text-anchor="start" x="230" y="-1490" font-family="Cascadia Code NF" font-size="10.00">MaybeHandle()</text>
<text text-anchor="start" x="210" y="-1474" font-family="Cascadia Code NF" font-size="10.00">+</text>
<text text-anchor="start" x="230" y="-1474" font-family="Cascadia Code NF" font-size="10.00">Assert()</text>
<text text-anchor="start" x="210" y="-1458" font-family="Cascadia Code NF" font-size="10.00">+</text>
<text text-anchor="start" x="230" y="-1458" font-family="Cascadia Code NF" font-size="10.00">Check()</text>
<text text-anchor="start" x="210" y="-1442" font-family="Cascadia Code NF" font-size="10.00">+</text>
<text text-anchor="start" x="230" y="-1442" font-family="Cascadia Code NF" font-size="10.00">ToHandleChecked()</text>
<text text-anchor="start" x="210" y="-1426" font-family="Cascadia Code NF" font-size="10.00">+</text>
<text text-anchor="start" x="230" y="-1426" font-family="Cascadia Code NF" font-size="10.00">ToHandle()</text>
<text text-anchor="start" x="210" y="-1410" font-family="Cascadia Code NF" font-size="10.00">+</text>
<text text-anchor="start" x="230" y="-1410" font-family="Cascadia Code NF" font-size="10.00">equals()</text>
<text text-anchor="start" x="210" y="-1394" font-family="Cascadia Code NF" font-size="10.00">+</text>
<text text-anchor="start" x="230" y="-1394" font-family="Cascadia Code NF" font-size="10.00">address()</text>
<text text-anchor="start" x="210" y="-1378" font-family="Cascadia Code NF" font-size="10.00">+</text>
<text text-anchor="start" x="230" y="-1378" font-family="Cascadia Code NF" font-size="10.00">is_null()</text>
<polygon fill="#bfbfbf" stroke="#bfbfbf" points="196,-1597.5 196,-1597.5 356,-1597.5 356,-1597.5 196,-1597.5"/>
<polygon fill="#bfbfbf" stroke="#bfbfbf" points="196,-1581.5 196,-1581.5 356,-1581.5 356,-1581.5 196,-1581.5"/>
<polygon fill="none" stroke="#bfbfbf" points="196,-1371.5 196,-1628.5 356,-1628.5 356,-1371.5 196,-1371.5"/>
</a>
</g>
</g>
<!-- Node4&#45;&gt;Node1 -->
<g id="edge3_Node000001_Node000004" class="edge">
<title>Node4&#45;&gt;Node1</title>
<g id="a_edge3_Node000001_Node000004"><a xlink:title=" ">
<path fill="none" stroke="#63b8ff" d="M355.82,-1473.33C410.37,-1450.62 479.78,-1412.42 518,-1355 576.46,-1267.18 597.29,-949.5 603.61,-814.92"/>
<polygon fill="none" stroke="#63b8ff" points="603.6,-814.98 599.88,-808.81 604.15,-803 607.87,-809.17 603.6,-814.98"/>
</a>
</g>
<text text-anchor="middle" x="446" y="-1466.25" font-family="Cascadia Code NF" font-size="10.00" fill="grey"> +name</text>
</g>
<!-- Node5 -->
<g id="Node000005" class="node">
<title>Node5</title>
<g id="a_Node000005"><a xlink:href="$d0/d60/classuintptr__t.html" xlink:title=" ">
<polygon fill="white" stroke="none" points="79,-1526 15,-1526 15,-1474 79,-1474 79,-1526"/>
<text text-anchor="start" x="20" y="-1512.5" font-family="Cascadia Code NF" font-size="10.00">uintptr_t</text>
<text text-anchor="start" x="44" y="-1496.5" font-family="Cascadia Code NF" font-size="10.00"> </text>
<text text-anchor="start" x="44" y="-1480.5" font-family="Cascadia Code NF" font-size="10.00"> </text>
<polygon fill="#bfbfbf" stroke="#bfbfbf" points="15,-1508 15,-1508 79,-1508 79,-1508 15,-1508"/>
<polygon fill="#bfbfbf" stroke="#bfbfbf" points="15,-1492 15,-1492 79,-1492 79,-1492 15,-1492"/>
<polygon fill="none" stroke="#bfbfbf" points="15,-1474 15,-1526 79,-1526 79,-1474 15,-1474"/>
</a>
</g>
</g>
<!-- Node5&#45;&gt;Node4 -->
<g id="edge4_Node000004_Node000005" class="edge">
<title>Node5&#45;&gt;Node4</title>
<g id="a_edge4_Node000004_Node000005"><a xlink:title=" ">
<path fill="none" stroke="#63b8ff" d="M78.61,-1500C105.46,-1500 145.91,-1500 183.14,-1500"/>
<polygon fill="none" stroke="#63b8ff" points="183.24,-1500 189.24,-1496 195.24,-1500 189.24,-1504 183.24,-1500"/>
</a>
</g>
<text text-anchor="middle" x="145" y="-1503.25" font-family="Cascadia Code NF" font-size="10.00" fill="grey"> #location_</text>
</g>
<!-- Node6 -->
<g id="Node000006" class="node">
<title>Node6</title>
<g id="a_Node000006"><a xlink:title=" ">
<polygon fill="white" stroke="none" points="94,-1353 0,-1353 0,-1301 94,-1301 94,-1353"/>
<text text-anchor="start" x="5" y="-1339.5" font-family="Cascadia Code NF" font-size="10.00">OptionalMapRef</text>
<text text-anchor="start" x="44" y="-1323.5" font-family="Cascadia Code NF" font-size="10.00"> </text>
<text text-anchor="start" x="44" y="-1307.5" font-family="Cascadia Code NF" font-size="10.00"> </text>
<polygon fill="#bfbfbf" stroke="#bfbfbf" points="0,-1335 0,-1335 94,-1335 94,-1335 0,-1335"/>
<polygon fill="#bfbfbf" stroke="#bfbfbf" points="0,-1319 0,-1319 94,-1319 94,-1319 0,-1319"/>
<polygon fill="none" stroke="#bfbfbf" points="0,-1301 0,-1353 94,-1353 94,-1301 0,-1301"/>
</a>
</g>
</g>
<!-- Node6&#45;&gt;Node1 -->
<g id="edge5_Node000001_Node000006" class="edge">
<title>Node6&#45;&gt;Node1</title>
<g id="a_edge5_Node000001_Node000006"><a xlink:title=" ">
<path fill="none" stroke="#63b8ff" d="M93.87,-1334.38C155.88,-1342.32 268.74,-1349.47 356,-1314 445.51,-1277.61 469.58,-1252.62 518,-1169 583.51,-1055.86 600.48,-900.1 604.73,-815.21"/>
<polygon fill="none" stroke="#63b8ff" points="604.73,-815.11 601,-808.93 605.27,-803.12 609,-809.29 604.73,-815.11"/>
</a>
</g>
<text text-anchor="middle" x="276" y="-1343.25" font-family="Cascadia Code NF" font-size="10.00" fill="grey"> +map</text>
</g>
<!-- Node11 -->
<g id="Node000011" class="node">
<title>Node11</title>
<g id="a_Node000011"><a xlink:href="$dc/d08/structv8_1_1internal_1_1compiler_1_1ConstFieldInfo.html" xlink:title=" ">
<polygon fill="white" stroke="none" points="347,-1304.5 205,-1304.5 205,-1191.5 347,-1191.5 347,-1304.5"/>
<text text-anchor="start" x="210" y="-1291" font-family="Cascadia Code NF" font-size="10.00">v8::internal::compiler</text>
<text text-anchor="start" x="228" y="-1278.25" font-family="Cascadia Code NF" font-size="10.00">::ConstFieldInfo</text>
<text text-anchor="start" x="273" y="-1262" font-family="Cascadia Code NF" font-size="10.00"> </text>
<text text-anchor="start" x="216" y="-1246" font-family="Cascadia Code NF" font-size="10.00">+</text>
<text text-anchor="start" x="233" y="-1246" font-family="Cascadia Code NF" font-size="10.00">ConstFieldInfo()</text>
<text text-anchor="start" x="216" y="-1230" font-family="Cascadia Code NF" font-size="10.00">+</text>
<text text-anchor="start" x="233" y="-1230" font-family="Cascadia Code NF" font-size="10.00">ConstFieldInfo()</text>
<text text-anchor="start" x="216" y="-1214" font-family="Cascadia Code NF" font-size="10.00">+</text>
<text text-anchor="start" x="233" y="-1214" font-family="Cascadia Code NF" font-size="10.00">IsConst()</text>
<text text-anchor="start" x="216" y="-1198" font-family="Cascadia Code NF" font-size="10.00">+</text>
<text text-anchor="start" x="233" y="-1198" font-family="Cascadia Code NF" font-size="10.00">None()</text>
<polygon fill="#bfbfbf" stroke="#bfbfbf" points="205,-1273.5 205,-1273.5 347,-1273.5 347,-1273.5 205,-1273.5"/>
<polygon fill="#bfbfbf" stroke="#bfbfbf" points="205,-1257.5 205,-1257.5 347,-1257.5 347,-1257.5 205,-1257.5"/>
<polygon fill="none" stroke="#bfbfbf" points="205,-1191.5 205,-1304.5 347,-1304.5 347,-1191.5 205,-1191.5"/>
</a>
</g>
</g>
<!-- Node6&#45;&gt;Node11 -->
<g id="edge11_Node000011_Node000006" class="edge">
<title>Node6&#45;&gt;Node11</title>
<g id="a_edge11_Node000011_Node000006"><a xlink:title=" ">
<path fill="none" stroke="#63b8ff" d="M93.94,-1311.01C122.44,-1301.09 159.87,-1288.07 193.3,-1276.43"/>
<polygon fill="none" stroke="#63b8ff" points="193.23,-1276.46 197.58,-1270.71 204.56,-1272.51 200.21,-1278.26 193.23,-1276.46"/>
</a>
</g>
<text text-anchor="middle" x="145" y="-1306.25" font-family="Cascadia Code NF" font-size="10.00" fill="grey"> +owner_map</text>
</g>
<!-- Node7 -->
<g id="Node000007" class="node">
<title>Node7</title>
<g id="a_Node000007"><a xlink:href="$d8/d31/classv8_1_1internal_1_1compiler_1_1Type.html" xlink:title=" ">
<polygon fill="white" stroke="none" points="354,-1173.5 198,-1173.5 198,-756.5 354,-756.5 354,-1173.5"/>
<text text-anchor="start" x="210" y="-1160" font-family="Cascadia Code NF" font-size="10.00">v8::internal::compiler</text>
<text text-anchor="start" x="258" y="-1147.25" font-family="Cascadia Code NF" font-size="10.00">::Type</text>
<text text-anchor="start" x="273" y="-1131" font-family="Cascadia Code NF" font-size="10.00"> </text>
<text text-anchor="start" x="202" y="-1115" font-family="Cascadia Code NF" font-size="10.00">+</text>
<text text-anchor="start" x="212" y="-1115" font-family="Cascadia Code NF" font-size="10.00">Type()</text>
<text text-anchor="start" x="202" y="-1099" font-family="Cascadia Code NF" font-size="10.00">+</text>
<text text-anchor="start" x="212" y="-1099" font-family="Cascadia Code NF" font-size="10.00">IsNone()</text>
<text text-anchor="start" x="202" y="-1083" font-family="Cascadia Code NF" font-size="10.00">+</text>
<text text-anchor="start" x="212" y="-1083" font-family="Cascadia Code NF" font-size="10.00">IsInvalid()</text>
<text text-anchor="start" x="202" y="-1067" font-family="Cascadia Code NF" font-size="10.00">+</text>
<text text-anchor="start" x="212" y="-1067" font-family="Cascadia Code NF" font-size="10.00">Is()</text>
<text text-anchor="start" x="202" y="-1051" font-family="Cascadia Code NF" font-size="10.00">+</text>
<text text-anchor="start" x="212" y="-1051" font-family="Cascadia Code NF" font-size="10.00">Maybe()</text>
<text text-anchor="start" x="202" y="-1035" font-family="Cascadia Code NF" font-size="10.00">+</text>
<text text-anchor="start" x="212" y="-1035" font-family="Cascadia Code NF" font-size="10.00">Equals()</text>
<text text-anchor="start" x="202" y="-1019" font-family="Cascadia Code NF" font-size="10.00">+</text>
<text text-anchor="start" x="212" y="-1019" font-family="Cascadia Code NF" font-size="10.00">IsBitset()</text>
<text text-anchor="start" x="202" y="-1003" font-family="Cascadia Code NF" font-size="10.00">+</text>
<text text-anchor="start" x="212" y="-1003" font-family="Cascadia Code NF" font-size="10.00">IsRange()</text>
<text text-anchor="start" x="202" y="-987" font-family="Cascadia Code NF" font-size="10.00">+</text>
<text text-anchor="start" x="212" y="-987" font-family="Cascadia Code NF" font-size="10.00">IsHeapConstant()</text>
<text text-anchor="start" x="202" y="-971" font-family="Cascadia Code NF" font-size="10.00">+</text>
<text text-anchor="start" x="212" y="-971" font-family="Cascadia Code NF" font-size="10.00">IsOtherNumberConstant()</text>
<text text-anchor="start" x="212" y="-955" font-family="Cascadia Code NF" font-size="10.00">and 20 more...</text>
<text text-anchor="start" x="202" y="-939" font-family="Cascadia Code NF" font-size="10.00">+</text>
<text text-anchor="start" x="212" y="-939" font-family="Cascadia Code NF" font-size="10.00">SignedSmall()</text>
<text text-anchor="start" x="202" y="-923" font-family="Cascadia Code NF" font-size="10.00">+</text>
<text text-anchor="start" x="212" y="-923" font-family="Cascadia Code NF" font-size="10.00">UnsignedSmall()</text>
<text text-anchor="start" x="202" y="-907" font-family="Cascadia Code NF" font-size="10.00">+</text>
<text text-anchor="start" x="212" y="-907" font-family="Cascadia Code NF" font-size="10.00">Constant()</text>
<text text-anchor="start" x="202" y="-891" font-family="Cascadia Code NF" font-size="10.00">+</text>
<text text-anchor="start" x="212" y="-891" font-family="Cascadia Code NF" font-size="10.00">Constant()</text>
<text text-anchor="start" x="202" y="-875" font-family="Cascadia Code NF" font-size="10.00">+</text>
<text text-anchor="start" x="212" y="-875" font-family="Cascadia Code NF" font-size="10.00">Constant()</text>
<text text-anchor="start" x="202" y="-859" font-family="Cascadia Code NF" font-size="10.00">+</text>
<text text-anchor="start" x="212" y="-859" font-family="Cascadia Code NF" font-size="10.00">Range()</text>
<text text-anchor="start" x="202" y="-843" font-family="Cascadia Code NF" font-size="10.00">+</text>
<text text-anchor="start" x="212" y="-843" font-family="Cascadia Code NF" font-size="10.00">Tuple()</text>
<text text-anchor="start" x="202" y="-827" font-family="Cascadia Code NF" font-size="10.00">+</text>
<text text-anchor="start" x="212" y="-827" font-family="Cascadia Code NF" font-size="10.00">Tuple()</text>
<text text-anchor="start" x="202" y="-811" font-family="Cascadia Code NF" font-size="10.00">+</text>
<text text-anchor="start" x="212" y="-811" font-family="Cascadia Code NF" font-size="10.00">Union()</text>
<text text-anchor="start" x="202" y="-795" font-family="Cascadia Code NF" font-size="10.00">+</text>
<text text-anchor="start" x="212" y="-795" font-family="Cascadia Code NF" font-size="10.00">Intersect()</text>
<text text-anchor="start" x="202" y="-779" font-family="Cascadia Code NF" font-size="10.00">+</text>
<text text-anchor="start" x="212" y="-779" font-family="Cascadia Code NF" font-size="10.00">For()</text>
<text text-anchor="start" x="202" y="-763" font-family="Cascadia Code NF" font-size="10.00">+</text>
<text text-anchor="start" x="212" y="-763" font-family="Cascadia Code NF" font-size="10.00">Invalid()</text>
<polygon fill="#bfbfbf" stroke="#bfbfbf" points="198,-1142.5 198,-1142.5 354,-1142.5 354,-1142.5 198,-1142.5"/>
<polygon fill="#bfbfbf" stroke="#bfbfbf" points="198,-1126.5 198,-1126.5 354,-1126.5 354,-1126.5 198,-1126.5"/>
<polygon fill="none" stroke="#bfbfbf" points="198,-756.5 198,-1173.5 354,-1173.5 354,-756.5 198,-756.5"/>
</a>
</g>
</g>
<!-- Node7&#45;&gt;Node1 -->
<g id="edge6_Node000001_Node000007" class="edge">
<title>Node7&#45;&gt;Node1</title>
<g id="a_edge6_Node000001_Node000007"><a xlink:title=" ">
<path fill="none" stroke="#63b8ff" d="M353.72,-915.8C405.22,-882.77 472.94,-839.33 525.26,-805.78"/>
<polygon fill="none" stroke="#63b8ff" points="525.32,-805.75 528.21,-799.14 535.42,-799.27 532.53,-805.87 525.32,-805.75"/>
</a>
</g>
<text text-anchor="middle" x="446" y="-905.25" font-family="Cascadia Code NF" font-size="10.00" fill="grey"> +type</text>
</g>
<!-- Node8 -->
<g id="Node000008" class="node">
<title>Node8</title>
<g id="a_Node000008"><a xlink:href="$d0/dcd/classv8_1_1internal_1_1MachineType.html" xlink:title=" ">
<polygon fill="white" stroke="none" points="356,-738 196,-738 196,-350 356,-350 356,-738"/>
<text text-anchor="start" x="201" y="-724.5" font-family="Cascadia Code NF" font-size="10.00">v8::internal::MachineType</text>
<text text-anchor="start" x="273" y="-708.5" font-family="Cascadia Code NF" font-size="10.00"> </text>
<text text-anchor="start" x="201" y="-692.5" font-family="Cascadia Code NF" font-size="10.00">+</text>
<text text-anchor="start" x="212" y="-692.5" font-family="Cascadia Code NF" font-size="10.00">MachineType()</text>
<text text-anchor="start" x="201" y="-676.5" font-family="Cascadia Code NF" font-size="10.00">+</text>
<text text-anchor="start" x="212" y="-676.5" font-family="Cascadia Code NF" font-size="10.00">MachineType()</text>
<text text-anchor="start" x="201" y="-660.5" font-family="Cascadia Code NF" font-size="10.00">+</text>
<text text-anchor="start" x="212" y="-660.5" font-family="Cascadia Code NF" font-size="10.00">operator==()</text>
<text text-anchor="start" x="201" y="-644.5" font-family="Cascadia Code NF" font-size="10.00">+</text>
<text text-anchor="start" x="212" y="-644.5" font-family="Cascadia Code NF" font-size="10.00">operator!=()</text>
<text text-anchor="start" x="201" y="-628.5" font-family="Cascadia Code NF" font-size="10.00">+</text>
<text text-anchor="start" x="212" y="-628.5" font-family="Cascadia Code NF" font-size="10.00">representation()</text>
<text text-anchor="start" x="201" y="-612.5" font-family="Cascadia Code NF" font-size="10.00">+</text>
<text text-anchor="start" x="212" y="-612.5" font-family="Cascadia Code NF" font-size="10.00">semantic()</text>
<text text-anchor="start" x="201" y="-596.5" font-family="Cascadia Code NF" font-size="10.00">+</text>
<text text-anchor="start" x="212" y="-596.5" font-family="Cascadia Code NF" font-size="10.00">IsNone()</text>
<text text-anchor="start" x="201" y="-580.5" font-family="Cascadia Code NF" font-size="10.00">+</text>
<text text-anchor="start" x="212" y="-580.5" font-family="Cascadia Code NF" font-size="10.00">IsMapWord()</text>
<text text-anchor="start" x="201" y="-564.5" font-family="Cascadia Code NF" font-size="10.00">+</text>
<text text-anchor="start" x="212" y="-564.5" font-family="Cascadia Code NF" font-size="10.00">IsSigned()</text>
<text text-anchor="start" x="201" y="-548.5" font-family="Cascadia Code NF" font-size="10.00">+</text>
<text text-anchor="start" x="212" y="-548.5" font-family="Cascadia Code NF" font-size="10.00">IsUnsigned()</text>
<text text-anchor="start" x="212" y="-532.5" font-family="Cascadia Code NF" font-size="10.00">and 8 more...</text>
<text text-anchor="start" x="201" y="-516.5" font-family="Cascadia Code NF" font-size="10.00">+</text>
<text text-anchor="start" x="212" y="-516.5" font-family="Cascadia Code NF" font-size="10.00">PointerRepresentation()</text>
<text text-anchor="start" x="201" y="-500.5" font-family="Cascadia Code NF" font-size="10.00">+</text>
<text text-anchor="start" x="212" y="-500.5" font-family="Cascadia Code NF" font-size="10.00">UintPtr()</text>
<text text-anchor="start" x="201" y="-484.5" font-family="Cascadia Code NF" font-size="10.00">+</text>
<text text-anchor="start" x="212" y="-484.5" font-family="Cascadia Code NF" font-size="10.00">IntPtr()</text>
<text text-anchor="start" x="201" y="-468.5" font-family="Cascadia Code NF" font-size="10.00">+</text>
<text text-anchor="start" x="212" y="-468.5" font-family="Cascadia Code NF" font-size="10.00">Int8()</text>
<text text-anchor="start" x="201" y="-452.5" font-family="Cascadia Code NF" font-size="10.00">+</text>
<text text-anchor="start" x="212" y="-452.5" font-family="Cascadia Code NF" font-size="10.00">Uint8()</text>
<text text-anchor="start" x="201" y="-436.5" font-family="Cascadia Code NF" font-size="10.00">+</text>
<text text-anchor="start" x="212" y="-436.5" font-family="Cascadia Code NF" font-size="10.00">Int16()</text>
<text text-anchor="start" x="201" y="-420.5" font-family="Cascadia Code NF" font-size="10.00">+</text>
<text text-anchor="start" x="212" y="-420.5" font-family="Cascadia Code NF" font-size="10.00">Uint16()</text>
<text text-anchor="start" x="201" y="-404.5" font-family="Cascadia Code NF" font-size="10.00">+</text>
<text text-anchor="start" x="212" y="-404.5" font-family="Cascadia Code NF" font-size="10.00">Int32()</text>
<text text-anchor="start" x="201" y="-388.5" font-family="Cascadia Code NF" font-size="10.00">+</text>
<text text-anchor="start" x="212" y="-388.5" font-family="Cascadia Code NF" font-size="10.00">Uint32()</text>
<text text-anchor="start" x="201" y="-372.5" font-family="Cascadia Code NF" font-size="10.00">+</text>
<text text-anchor="start" x="212" y="-372.5" font-family="Cascadia Code NF" font-size="10.00">Int64()</text>
<text text-anchor="start" x="212" y="-356.5" font-family="Cascadia Code NF" font-size="10.00">and 21 more...</text>
<polygon fill="#bfbfbf" stroke="#bfbfbf" points="196,-720 196,-720 356,-720 356,-720 196,-720"/>
<polygon fill="#bfbfbf" stroke="#bfbfbf" points="196,-704 196,-704 356,-704 356,-704 196,-704"/>
<polygon fill="none" stroke="#bfbfbf" points="196,-350 196,-738 356,-738 356,-350 196,-350"/>
</a>
</g>
</g>
<!-- Node8&#45;&gt;Node1 -->
<g id="edge7_Node000001_Node000008" class="edge">
<title>Node8&#45;&gt;Node1</title>
<g id="a_edge7_Node000001_Node000008"><a xlink:title=" ">
<path fill="none" stroke="#63b8ff" d="M355.8,-594.3C407.09,-627.04 473.81,-669.62 525.44,-702.58"/>
<polygon fill="none" stroke="#63b8ff" points="525.35,-702.52 532.56,-702.38 535.46,-708.98 528.25,-709.12 525.35,-702.52"/>
</a>
</g>
<text text-anchor="middle" x="446" y="-700.25" font-family="Cascadia Code NF" font-size="10.00" fill="grey"> +machine_type</text>
</g>
<!-- Node9 -->
<g id="Node000009" class="node">
<title>Node9</title>
<g id="a_Node000009"><a xlink:title=" ">
<polygon fill="white" stroke="none" points="329,-332 223,-332 223,-280 329,-280 329,-332"/>
<text text-anchor="start" x="228" y="-318.5" font-family="Cascadia Code NF" font-size="10.00">WriteBarrierKind</text>
<text text-anchor="start" x="273" y="-302.5" font-family="Cascadia Code NF" font-size="10.00"> </text>
<text text-anchor="start" x="273" y="-286.5" font-family="Cascadia Code NF" font-size="10.00"> </text>
<polygon fill="#bfbfbf" stroke="#bfbfbf" points="223,-314 223,-314 329,-314 329,-314 223,-314"/>
<polygon fill="#bfbfbf" stroke="#bfbfbf" points="223,-298 223,-298 329,-298 329,-298 223,-298"/>
<polygon fill="none" stroke="#bfbfbf" points="223,-280 223,-332 329,-332 329,-280 223,-280"/>
</a>
</g>
</g>
<!-- Node9&#45;&gt;Node1 -->
<g id="edge8_Node000001_Node000009" class="edge">
<title>Node9&#45;&gt;Node1</title>
<g id="a_edge8_Node000001_Node000009"><a xlink:title=" ">
<path fill="none" stroke="#63b8ff" d="M328.84,-323.81C338.47,-328.5 348,-334.2 356,-341 471.55,-439.28 548.67,-605.02 583.95,-693.72"/>
<polygon fill="none" stroke="#63b8ff" points="583.94,-693.69 589.85,-697.82 588.32,-704.87 582.4,-700.74 583.94,-693.69"/>
</a>
</g>
<text text-anchor="middle" x="446" y="-549.25" font-family="Cascadia Code NF" font-size="10.00" fill="grey"> +write_barrier_kind</text>
</g>
<!-- Node10 -->
<g id="Node000010" class="node">
<title>Node10</title>
<g id="a_Node000010"><a xlink:title=" ">
<polygon fill="white" stroke="none" points="296,-262 256,-262 256,-210 296,-210 296,-262"/>
<text text-anchor="start" x="261" y="-248.5" font-family="Cascadia Code NF" font-size="10.00">const</text>
<text text-anchor="start" x="273" y="-232.5" font-family="Cascadia Code NF" font-size="10.00"> </text>
<text text-anchor="start" x="273" y="-216.5" font-family="Cascadia Code NF" font-size="10.00"> </text>
<polygon fill="#bfbfbf" stroke="#bfbfbf" points="256,-244 256,-244 296,-244 296,-244 256,-244"/>
<polygon fill="#bfbfbf" stroke="#bfbfbf" points="256,-228 256,-228 296,-228 296,-228 256,-228"/>
<polygon fill="none" stroke="#bfbfbf" points="256,-210 256,-262 296,-262 296,-210 256,-210"/>
</a>
</g>
</g>
<!-- Node10&#45;&gt;Node1 -->
<g id="edge9_Node000001_Node000010" class="edge">
<title>Node10&#45;&gt;Node1</title>
<g id="a_edge9_Node000001_Node000010"><a xlink:title=" ">
<path fill="none" stroke="#63b8ff" d="M295.84,-238.38C341.62,-245.22 459.25,-269.27 518,-341.25 561.5,-394.54 588.53,-591.71 599.85,-693.03"/>
<polygon fill="none" stroke="#63b8ff" points="599.84,-692.95 604.47,-698.48 601.15,-704.88 596.52,-699.35 599.84,-692.95"/>
</a>
</g>
<text text-anchor="middle" x="446" y="-344.25" font-family="Cascadia Code NF" font-size="10.00" fill="grey"> +creator_mnemonic</text>
</g>
<!-- Node11&#45;&gt;Node1 -->
<g id="edge10_Node000001_Node000011" class="edge">
<title>Node11&#45;&gt;Node1</title>
<g id="a_edge10_Node000001_Node000011"><a xlink:title=" ">
<path fill="none" stroke="#63b8ff" d="M346.76,-1192.92C349.98,-1189.66 353.08,-1186.35 356,-1183 457.91,-1065.95 540.12,-901.37 579.94,-813.99"/>
<polygon fill="none" stroke="#63b8ff" points="579.96,-813.94 578.79,-806.83 584.91,-803.01 586.08,-810.12 579.96,-813.94"/>
</a>
</g>
<text text-anchor="middle" x="446" y="-1155.25" font-family="Cascadia Code NF" font-size="10.00" fill="grey"> +const_field_info</text>
</g>
<!-- Node12 -->
<g id="Node000012" class="node">
<title>Node12</title>
<g id="a_Node000012"><a xlink:title=" ">
<polygon fill="white" stroke="none" points="293,-192 259,-192 259,-140 293,-140 293,-192"/>
<text text-anchor="start" x="264" y="-178.5" font-family="Cascadia Code NF" font-size="10.00">bool</text>
<text text-anchor="start" x="273" y="-162.5" font-family="Cascadia Code NF" font-size="10.00"> </text>
<text text-anchor="start" x="273" y="-146.5" font-family="Cascadia Code NF" font-size="10.00"> </text>
<polygon fill="#bfbfbf" stroke="#bfbfbf" points="259,-174 259,-174 293,-174 293,-174 259,-174"/>
<polygon fill="#bfbfbf" stroke="#bfbfbf" points="259,-158 259,-158 293,-158 293,-158 259,-158"/>
<polygon fill="none" stroke="#bfbfbf" points="259,-140 259,-192 293,-192 293,-140 259,-140"/>
</a>
</g>
</g>
<!-- Node12&#45;&gt;Node1 -->
<g id="edge12_Node000001_Node000012" class="edge">
<title>Node12&#45;&gt;Node1</title>
<g id="a_edge12_Node000001_Node000012"><a xlink:title=" ">
<path fill="none" stroke="#63b8ff" d="M292.83,-161.66C335.59,-151.01 454.46,-128.55 518,-188.25 590.14,-256.03 603.29,-560.76 605.58,-692.74"/>
<polygon fill="none" stroke="#63b8ff" points="605.58,-692.81 609.67,-698.75 605.77,-704.81 601.67,-698.87 605.58,-692.81"/>
</a>
</g>
<text text-anchor="middle" x="446" y="-242.25" font-family="Cascadia Code NF" font-size="10.00" fill="grey"> +is_bounded_size_access</text>
<text text-anchor="middle" x="446" y="-229.5" font-family="Cascadia Code NF" font-size="10.00" fill="grey">+is_immutable</text>
<text text-anchor="middle" x="446" y="-216.75" font-family="Cascadia Code NF" font-size="10.00" fill="grey">+is_store_in_literal</text>
<text text-anchor="start" x="374" y="-204" font-family="Cascadia Code NF" font-size="10.00" fill="grey">+maybe_initializing</text>
<text text-anchor="middle" x="446" y="-191.25" font-family="Cascadia Code NF" font-size="10.00" fill="grey">_or_transitioning_store</text>
</g>
<!-- Node13 -->
<g id="Node000013" class="node">
<title>Node13</title>
<g id="a_Node000013"><a xlink:title=" ">
<polygon fill="white" stroke="none" points="335,-122 217,-122 217,-70 335,-70 335,-122"/>
<text text-anchor="start" x="222" y="-108.5" font-family="Cascadia Code NF" font-size="10.00">ExternalPointerTag</text>
<text text-anchor="start" x="273" y="-92.5" font-family="Cascadia Code NF" font-size="10.00"> </text>
<text text-anchor="start" x="273" y="-76.5" font-family="Cascadia Code NF" font-size="10.00"> </text>
<polygon fill="#bfbfbf" stroke="#bfbfbf" points="217,-104 217,-104 335,-104 335,-104 217,-104"/>
<polygon fill="#bfbfbf" stroke="#bfbfbf" points="217,-88 217,-88 335,-88 335,-88 217,-88"/>
<polygon fill="none" stroke="#bfbfbf" points="217,-70 217,-122 335,-122 335,-70 217,-70"/>
</a>
</g>
</g>
<!-- Node13&#45;&gt;Node1 -->
<g id="edge13_Node000001_Node000013" class="edge">
<title>Node13&#45;&gt;Node1</title>
<g id="a_edge13_Node000001_Node000013"><a xlink:title=" ">
<path fill="none" stroke="#63b8ff" d="M334.93,-86.75C389.86,-81.56 470.8,-83.82 518,-131.25 595.79,-209.41 605.61,-551.91 606.29,-692.96"/>
<polygon fill="none" stroke="#63b8ff" points="606.29,-693.07 610.31,-699.06 606.33,-705.07 602.31,-699.08 606.29,-693.07"/>
</a>
</g>
<text text-anchor="middle" x="446" y="-134.25" font-family="Cascadia Code NF" font-size="10.00" fill="grey"> +external_pointer_tag</text>
</g>
<!-- Node14 -->
<g id="Node000014" class="node">
<title>Node14</title>
<g id="a_Node000014"><a xlink:title=" ">
<polygon fill="white" stroke="none" points="335,-52 217,-52 217,0 335,0 335,-52"/>
<text text-anchor="start" x="222" y="-38.5" font-family="Cascadia Code NF" font-size="10.00">IndirectPointerTag</text>
<text text-anchor="start" x="273" y="-22.5" font-family="Cascadia Code NF" font-size="10.00"> </text>
<text text-anchor="start" x="273" y="-6.5" font-family="Cascadia Code NF" font-size="10.00"> </text>
<polygon fill="#bfbfbf" stroke="#bfbfbf" points="217,-34 217,-34 335,-34 335,-34 217,-34"/>
<polygon fill="#bfbfbf" stroke="#bfbfbf" points="217,-18 217,-18 335,-18 335,-18 217,-18"/>
<polygon fill="none" stroke="#bfbfbf" points="217,0 217,-52 335,-52 335,0 217,0"/>
</a>
</g>
</g>
<!-- Node14&#45;&gt;Node1 -->
<g id="edge14_Node000001_Node000014" class="edge">
<title>Node14&#45;&gt;Node1</title>
<g id="a_edge14_Node000001_Node000014"><a xlink:title=" ">
<path fill="none" stroke="#63b8ff" d="M334.98,-18.26C390.15,-14.44 471.44,-18.68 518,-67.25 561.01,-112.11 591.96,-532.68 602.27,-692.65"/>
<polygon fill="none" stroke="#63b8ff" points="602.26,-692.63 606.64,-698.37 603.03,-704.61 598.65,-698.87 602.26,-692.63"/>
</a>
</g>
<text text-anchor="middle" x="446" y="-70.25" font-family="Cascadia Code NF" font-size="10.00" fill="grey"> +indirect_pointer_tag</text>
</g>
</g>
</svg>
