<?xml version="1.0" encoding="UTF-8" standalone="no"?>
<!DOCTYPE svg PUBLIC "-//W3C//DTD SVG 1.1//EN"
 "http://www.w3.org/Graphics/SVG/1.1/DTD/svg11.dtd">
<!-- Generated by graphviz version 11.0.0 (20240428.1522)
 -->
<!-- Title: v8::metrics::WasmModuleDecoded Pages: 1 -->
<svg width="412pt" height="201pt"
 viewBox="0.00 0.00 412.00 201.25" xmlns="http://www.w3.org/2000/svg" xmlns:xlink="http://www.w3.org/1999/xlink">

<svg id="main" version="1.1" xmlns="http://www.w3.org/2000/svg" xmlns:xlink="http://www.w3.org/1999/xlink" xml:space="preserve" onload="init(evt)">
<style type="text/css"><![CDATA[
.node, .edge {opacity: 0.7;}
.node.selected, .edge.selected {opacity: 1;}
.edge:hover path { stroke: red; }
.edge:hover polygon { stroke: red; fill: red; }
svg#main { background-color: #111; }
]]></style>
<script type="application/ecmascript" xlink:href="../../svg.min.js"/>
<svg id="graph" class="graph">
<g id="graph0" class="graph" transform="scale(1 1) rotate(0) translate(4 197.25)">
<title>v8::metrics::WasmModuleDecoded</title>
<!-- Node1 -->
<g id="Node000001" class="node">
<title>Node1</title>
<g id="a_Node000001"><a xlink:title=" ">
<polygon fill="#999999" stroke="none" points="404,-130 214,-130 214,-62 404,-62 404,-130"/>
<text text-anchor="start" x="219" y="-116.5" font-family="Cascadia Code NF" font-size="10.00">v8::metrics::WasmModuleDecoded</text>
<text text-anchor="start" x="306" y="-100.5" font-family="Cascadia Code NF" font-size="10.00"> </text>
<text text-anchor="start" x="232.5" y="-84.5" font-family="Cascadia Code NF" font-size="10.00">+</text>
<text text-anchor="start" x="257" y="-84.5" font-family="Cascadia Code NF" font-size="10.00">WasmModuleDecoded()</text>
<text text-anchor="start" x="232.5" y="-68.5" font-family="Cascadia Code NF" font-size="10.00">+</text>
<text text-anchor="start" x="257" y="-68.5" font-family="Cascadia Code NF" font-size="10.00">WasmModuleDecoded()</text>
<polygon fill="#666666" stroke="#666666" points="214,-112 214,-112 404,-112 404,-112 214,-112"/>
<polygon fill="#666666" stroke="#666666" points="214,-96 214,-96 404,-96 404,-96 214,-96"/>
<polygon fill="none" stroke="#666666" points="214,-62 214,-130 404,-130 404,-62 214,-62"/>
</a>
</g>
</g>
<!-- Node2 -->
<g id="Node000002" class="node">
<title>Node2</title>
<g id="a_Node000002"><a xlink:title=" ">
<polygon fill="white" stroke="none" points="43,-192 9,-192 9,-140 43,-140 43,-192"/>
<text text-anchor="start" x="14" y="-178.5" font-family="Cascadia Code NF" font-size="10.00">bool</text>
<text text-anchor="start" x="23" y="-162.5" font-family="Cascadia Code NF" font-size="10.00"> </text>
<text text-anchor="start" x="23" y="-146.5" font-family="Cascadia Code NF" font-size="10.00"> </text>
<polygon fill="#bfbfbf" stroke="#bfbfbf" points="9,-174 9,-174 43,-174 43,-174 9,-174"/>
<polygon fill="#bfbfbf" stroke="#bfbfbf" points="9,-158 9,-158 43,-158 43,-158 9,-158"/>
<polygon fill="none" stroke="#bfbfbf" points="9,-140 9,-192 43,-192 43,-140 9,-140"/>
</a>
</g>
</g>
<!-- Node2&#45;&gt;Node1 -->
<g id="edge1_Node000001_Node000002" class="edge">
<title>Node2&#45;&gt;Node1</title>
<g id="a_edge1_Node000001_Node000002"><a xlink:title=" ">
<path fill="none" stroke="#63b8ff" d="M42.88,-162.4C72.87,-155.58 139.87,-140.16 196,-126 197.86,-125.53 199.74,-125.05 201.63,-124.57"/>
<polygon fill="none" stroke="#63b8ff" points="201.75,-124.54 206.57,-119.17 213.38,-121.55 208.56,-126.92 201.75,-124.54"/>
</a>
</g>
<text text-anchor="middle" x="133" y="-183.75" font-family="Cascadia Code NF" font-size="10.00" fill="grey"> +async</text>
<text text-anchor="middle" x="133" y="-171" font-family="Cascadia Code NF" font-size="10.00" fill="grey">+streamed</text>
<text text-anchor="middle" x="133" y="-158.25" font-family="Cascadia Code NF" font-size="10.00" fill="grey">+success</text>
</g>
<!-- Node3 -->
<g id="Node000003" class="node">
<title>Node3</title>
<g id="a_Node000003"><a xlink:title=" ">
<polygon fill="white" stroke="none" points="49,-122 3,-122 3,-70 49,-70 49,-122"/>
<text text-anchor="start" x="8" y="-108.5" font-family="Cascadia Code NF" font-size="10.00">size_t</text>
<text text-anchor="start" x="23" y="-92.5" font-family="Cascadia Code NF" font-size="10.00"> </text>
<text text-anchor="start" x="23" y="-76.5" font-family="Cascadia Code NF" font-size="10.00"> </text>
<polygon fill="#bfbfbf" stroke="#bfbfbf" points="3,-104 3,-104 49,-104 49,-104 3,-104"/>
<polygon fill="#bfbfbf" stroke="#bfbfbf" points="3,-88 3,-88 49,-88 49,-88 3,-88"/>
<polygon fill="none" stroke="#bfbfbf" points="3,-70 3,-122 49,-122 49,-70 3,-70"/>
</a>
</g>
</g>
<!-- Node3&#45;&gt;Node1 -->
<g id="edge2_Node000001_Node000003" class="edge">
<title>Node3&#45;&gt;Node1</title>
<g id="a_edge2_Node000001_Node000003"><a xlink:title=" ">
<path fill="none" stroke="#63b8ff" d="M48.58,-96C81.13,-96 144.96,-96 201.15,-96"/>
<polygon fill="none" stroke="#63b8ff" points="201.23,-96 207.23,-92 213.23,-96 207.23,-100 201.23,-96"/>
</a>
</g>
<text text-anchor="middle" x="133" y="-112" font-family="Cascadia Code NF" font-size="10.00" fill="grey"> +function_count</text>
<text text-anchor="middle" x="133" y="-99.25" font-family="Cascadia Code NF" font-size="10.00" fill="grey">+module_size_in_bytes</text>
</g>
<!-- Node4 -->
<g id="Node000004" class="node">
<title>Node4</title>
<g id="a_Node000004"><a xlink:href="../../d8/d3f/classint64__t.html" target="_top" xlink:title=" ">
<polygon fill="white" stroke="none" points="52,-52 0,-52 0,0 52,0 52,-52"/>
<text text-anchor="start" x="5" y="-38.5" font-family="Cascadia Code NF" font-size="10.00">int64_t</text>
<text text-anchor="start" x="23" y="-22.5" font-family="Cascadia Code NF" font-size="10.00"> </text>
<text text-anchor="start" x="23" y="-6.5" font-family="Cascadia Code NF" font-size="10.00"> </text>
<polygon fill="#bfbfbf" stroke="#bfbfbf" points="0,-34 0,-34 52,-34 52,-34 0,-34"/>
<polygon fill="#bfbfbf" stroke="#bfbfbf" points="0,-18 0,-18 52,-18 52,-18 0,-18"/>
<polygon fill="none" stroke="#bfbfbf" points="0,0 0,-52 52,-52 52,0 0,0"/>
</a>
</g>
</g>
<!-- Node4&#45;&gt;Node1 -->
<g id="edge3_Node000001_Node000004" class="edge">
<title>Node4&#45;&gt;Node1</title>
<g id="a_edge3_Node000001_Node000004"><a xlink:title=" ">
<path fill="none" stroke="#63b8ff" d="M51.95,-31.8C84.97,-39.51 144.94,-53.66 196,-66.5 197.86,-66.97 199.73,-67.44 201.62,-67.92"/>
<polygon fill="none" stroke="#63b8ff" points="201.73,-67.95 208.54,-65.56 213.36,-70.92 206.56,-73.31 201.73,-67.95"/>
</a>
</g>
<text text-anchor="start" x="70" y="-82" font-family="Cascadia Code NF" font-size="10.00" fill="grey"> +wall_clock_duration</text>
<text text-anchor="middle" x="133" y="-69.25" font-family="Cascadia Code NF" font-size="10.00" fill="grey">_in_us</text>
</g>
</g>
</svg>
</svg>

<style type='text/css'>
<![CDATA[
[data-mouse-over-selected='false'] { opacity: 0.7; }
[data-mouse-over-selected='true']  { opacity: 1.0; }
]]>
</style>
<script type="application/ecmascript"><![CDATA[
document.addEventListener('DOMContentLoaded', (event) => {
  highlightEdges();
  highlightAdjacentNodes();
});
]]></script>
</svg>
