<?xml version="1.0" encoding="UTF-8" standalone="no"?>
<!DOCTYPE svg PUBLIC "-//W3C//DTD SVG 1.1//EN"
 "http://www.w3.org/Graphics/SVG/1.1/DTD/svg11.dtd">
<!-- Generated by graphviz version 11.0.0 (20240428.1522)
 -->
<!-- Title: v8::internal::Float16T Pages: 1 -->
<svg width="942pt" height="509pt"
 viewBox="0.00 0.00 942.00 509.00" xmlns="http://www.w3.org/2000/svg" xmlns:xlink="http://www.w3.org/1999/xlink">
<g id="graph0" class="graph" transform="scale(1 1) rotate(0) translate(4 505)">
<title>v8::internal::Float16T</title>
<!-- Node1 -->
<g id="Node000001" class="node">
<title>Node1</title>
<g id="a_Node000001"><a xlink:title=" ">
<polygon fill="#999999" stroke="none" points="934,-238 792,-238 792,-186 934,-186 934,-238"/>
<text text-anchor="start" x="797" y="-224.5" font-family="Cascadia Code NF" font-size="10.00">v8::internal::Float16T</text>
<text text-anchor="start" x="860" y="-208.5" font-family="Cascadia Code NF" font-size="10.00"> </text>
<text text-anchor="start" x="860" y="-192.5" font-family="Cascadia Code NF" font-size="10.00"> </text>
<polygon fill="#666666" stroke="#666666" points="792,-220 792,-220 934,-220 934,-220 792,-220"/>
<polygon fill="#666666" stroke="#666666" points="792,-204 792,-204 934,-204 934,-204 792,-204"/>
<polygon fill="none" stroke="#666666" points="792,-186 792,-238 934,-238 934,-186 792,-186"/>
</a>
</g>
</g>
<!-- Node2 -->
<g id="Node000002" class="node">
<title>Node2</title>
<g id="a_Node000002"><a xlink:href="$d4/d7d/structv8_1_1internal_1_1Word32T.html" xlink:title=" ">
<polygon fill="white" stroke="none" points="660,-458 524,-458 524,-406 660,-406 660,-458"/>
<text text-anchor="start" x="529" y="-444.5" font-family="Cascadia Code NF" font-size="10.00">v8::internal::Word32T</text>
<text text-anchor="start" x="589" y="-428.5" font-family="Cascadia Code NF" font-size="10.00"> </text>
<text text-anchor="start" x="589" y="-412.5" font-family="Cascadia Code NF" font-size="10.00"> </text>
<polygon fill="#bfbfbf" stroke="#bfbfbf" points="524,-440 524,-440 660,-440 660,-440 524,-440"/>
<polygon fill="#bfbfbf" stroke="#bfbfbf" points="524,-424 524,-424 660,-424 660,-424 524,-424"/>
<polygon fill="none" stroke="#bfbfbf" points="524,-406 524,-458 660,-458 660,-406 524,-406"/>
</a>
</g>
</g>
<!-- Node2&#45;&gt;Node1 -->
<g id="edge1_Node000001_Node000002" class="edge">
<title>Node2&#45;&gt;Node1</title>
<g id="a_edge1_Node000001_Node000002"><a xlink:title=" ">
<path fill="none" stroke="#63b8ff" d="M666.56,-400.52C668.41,-399.37 670.23,-398.2 672,-397 741.22,-350.19 807.79,-276.77 840.68,-237.99"/>
<polygon fill="none" stroke="#63b8ff" points="665.24,-397.24 658.33,-405.27 668.74,-403.3 665.24,-397.24"/>
</a>
</g>
</g>
<!-- Node3 -->
<g id="Node000003" class="node">
<title>Node3</title>
<g id="a_Node000003"><a xlink:href="$d9/da6/structv8_1_1internal_1_1IntegralT.html" xlink:title=" ">
<polygon fill="white" stroke="none" points="332,-501 184,-501 184,-449 332,-449 332,-501"/>
<text text-anchor="start" x="189" y="-487.5" font-family="Cascadia Code NF" font-size="10.00">v8::internal::IntegralT</text>
<text text-anchor="start" x="255" y="-471.5" font-family="Cascadia Code NF" font-size="10.00"> </text>
<text text-anchor="start" x="255" y="-455.5" font-family="Cascadia Code NF" font-size="10.00"> </text>
<polygon fill="#bfbfbf" stroke="#bfbfbf" points="184,-483 184,-483 332,-483 332,-483 184,-483"/>
<polygon fill="#bfbfbf" stroke="#bfbfbf" points="184,-467 184,-467 332,-467 332,-467 184,-467"/>
<polygon fill="none" stroke="#bfbfbf" points="184,-449 184,-501 332,-501 332,-449 184,-449"/>
</a>
</g>
</g>
<!-- Node3&#45;&gt;Node2 -->
<g id="edge2_Node000002_Node000003" class="edge">
<title>Node3&#45;&gt;Node2</title>
<g id="a_edge2_Node000002_Node000003"><a xlink:title=" ">
<path fill="none" stroke="#63b8ff" d="M343.21,-464.09C399.34,-456.82 472.1,-447.4 524.24,-440.65"/>
<polygon fill="none" stroke="#63b8ff" points="342.83,-460.61 333.36,-465.37 343.73,-467.56 342.83,-460.61"/>
</a>
</g>
</g>
<!-- Node4 -->
<g id="Node000004" class="node">
<title>Node4</title>
<g id="a_Node000004"><a xlink:href="$df/d93/structv8_1_1internal_1_1UntaggedT.html" xlink:title=" ">
<polygon fill="white" stroke="none" points="148,-501 0,-501 0,-449 148,-449 148,-501"/>
<text text-anchor="start" x="5" y="-487.5" font-family="Cascadia Code NF" font-size="10.00">v8::internal::UntaggedT</text>
<text text-anchor="start" x="71" y="-471.5" font-family="Cascadia Code NF" font-size="10.00"> </text>
<text text-anchor="start" x="71" y="-455.5" font-family="Cascadia Code NF" font-size="10.00"> </text>
<polygon fill="#bfbfbf" stroke="#bfbfbf" points="0,-483 0,-483 148,-483 148,-483 0,-483"/>
<polygon fill="#bfbfbf" stroke="#bfbfbf" points="0,-467 0,-467 148,-467 148,-467 0,-467"/>
<polygon fill="none" stroke="#bfbfbf" points="0,-449 0,-501 148,-501 148,-449 0,-449"/>
</a>
</g>
</g>
<!-- Node4&#45;&gt;Node3 -->
<g id="edge3_Node000003_Node000004" class="edge">
<title>Node4&#45;&gt;Node3</title>
<g id="a_edge3_Node000003_Node000004"><a xlink:title=" ">
<path fill="none" stroke="#63b8ff" d="M159.48,-475C167.68,-475 175.94,-475 184.01,-475"/>
<polygon fill="none" stroke="#63b8ff" points="159.49,-471.5 149.49,-475 159.49,-478.5 159.49,-471.5"/>
</a>
</g>
</g>
<!-- Node5 -->
<g id="Node000005" class="node">
<title>Node5</title>
<g id="a_Node000005"><a xlink:title=" ">
<polygon fill="white" stroke="none" points="278,-431 238,-431 238,-379 278,-379 278,-431"/>
<text text-anchor="start" x="243" y="-417.5" font-family="Cascadia Code NF" font-size="10.00">const</text>
<text text-anchor="start" x="255" y="-401.5" font-family="Cascadia Code NF" font-size="10.00"> </text>
<text text-anchor="start" x="255" y="-385.5" font-family="Cascadia Code NF" font-size="10.00"> </text>
<polygon fill="#bfbfbf" stroke="#bfbfbf" points="238,-413 238,-413 278,-413 278,-413 238,-413"/>
<polygon fill="#bfbfbf" stroke="#bfbfbf" points="238,-397 238,-397 278,-397 278,-397 238,-397"/>
<polygon fill="none" stroke="#bfbfbf" points="238,-379 238,-431 278,-431 278,-379 238,-379"/>
</a>
</g>
</g>
<!-- Node5&#45;&gt;Node2 -->
<g id="edge4_Node000002_Node000005" class="edge">
<title>Node5&#45;&gt;Node2</title>
<g id="a_edge4_Node000002_Node000005"><a xlink:title=" ">
<path fill="none" stroke="#63b8ff" d="M277.89,-406.39C317.81,-409.33 413.67,-416.51 494,-423.25 499.65,-423.72 505.48,-424.22 511.36,-424.74"/>
<polygon fill="none" stroke="#63b8ff" points="511.37,-424.74 517.69,-421.28 523.32,-425.79 516.99,-429.25 511.37,-424.74"/>
</a>
</g>
<text text-anchor="middle" x="422" y="-426.25" font-family="Cascadia Code NF" font-size="10.00" fill="grey"> +kMachineRepresentation</text>
</g>
<!-- Node6 -->
<g id="Node000006" class="node">
<title>Node6</title>
<g id="a_Node000006"><a xlink:href="$d0/dcd/classv8_1_1internal_1_1MachineType.html" xlink:title=" ">
<polygon fill="white" stroke="none" points="672,-388 512,-388 512,0 672,0 672,-388"/>
<text text-anchor="start" x="517" y="-374.5" font-family="Cascadia Code NF" font-size="10.00">v8::internal::MachineType</text>
<text text-anchor="start" x="589" y="-358.5" font-family="Cascadia Code NF" font-size="10.00"> </text>
<text text-anchor="start" x="517" y="-342.5" font-family="Cascadia Code NF" font-size="10.00">+</text>
<text text-anchor="start" x="528" y="-342.5" font-family="Cascadia Code NF" font-size="10.00">MachineType()</text>
<text text-anchor="start" x="517" y="-326.5" font-family="Cascadia Code NF" font-size="10.00">+</text>
<text text-anchor="start" x="528" y="-326.5" font-family="Cascadia Code NF" font-size="10.00">MachineType()</text>
<text text-anchor="start" x="517" y="-310.5" font-family="Cascadia Code NF" font-size="10.00">+</text>
<text text-anchor="start" x="528" y="-310.5" font-family="Cascadia Code NF" font-size="10.00">operator==()</text>
<text text-anchor="start" x="517" y="-294.5" font-family="Cascadia Code NF" font-size="10.00">+</text>
<text text-anchor="start" x="528" y="-294.5" font-family="Cascadia Code NF" font-size="10.00">operator!=()</text>
<text text-anchor="start" x="517" y="-278.5" font-family="Cascadia Code NF" font-size="10.00">+</text>
<text text-anchor="start" x="528" y="-278.5" font-family="Cascadia Code NF" font-size="10.00">representation()</text>
<text text-anchor="start" x="517" y="-262.5" font-family="Cascadia Code NF" font-size="10.00">+</text>
<text text-anchor="start" x="528" y="-262.5" font-family="Cascadia Code NF" font-size="10.00">semantic()</text>
<text text-anchor="start" x="517" y="-246.5" font-family="Cascadia Code NF" font-size="10.00">+</text>
<text text-anchor="start" x="528" y="-246.5" font-family="Cascadia Code NF" font-size="10.00">IsNone()</text>
<text text-anchor="start" x="517" y="-230.5" font-family="Cascadia Code NF" font-size="10.00">+</text>
<text text-anchor="start" x="528" y="-230.5" font-family="Cascadia Code NF" font-size="10.00">IsMapWord()</text>
<text text-anchor="start" x="517" y="-214.5" font-family="Cascadia Code NF" font-size="10.00">+</text>
<text text-anchor="start" x="528" y="-214.5" font-family="Cascadia Code NF" font-size="10.00">IsSigned()</text>
<text text-anchor="start" x="517" y="-198.5" font-family="Cascadia Code NF" font-size="10.00">+</text>
<text text-anchor="start" x="528" y="-198.5" font-family="Cascadia Code NF" font-size="10.00">IsUnsigned()</text>
<text text-anchor="start" x="528" y="-182.5" font-family="Cascadia Code NF" font-size="10.00">and 8 more...</text>
<text text-anchor="start" x="517" y="-166.5" font-family="Cascadia Code NF" font-size="10.00">+</text>
<text text-anchor="start" x="528" y="-166.5" font-family="Cascadia Code NF" font-size="10.00">PointerRepresentation()</text>
<text text-anchor="start" x="517" y="-150.5" font-family="Cascadia Code NF" font-size="10.00">+</text>
<text text-anchor="start" x="528" y="-150.5" font-family="Cascadia Code NF" font-size="10.00">UintPtr()</text>
<text text-anchor="start" x="517" y="-134.5" font-family="Cascadia Code NF" font-size="10.00">+</text>
<text text-anchor="start" x="528" y="-134.5" font-family="Cascadia Code NF" font-size="10.00">IntPtr()</text>
<text text-anchor="start" x="517" y="-118.5" font-family="Cascadia Code NF" font-size="10.00">+</text>
<text text-anchor="start" x="528" y="-118.5" font-family="Cascadia Code NF" font-size="10.00">Int8()</text>
<text text-anchor="start" x="517" y="-102.5" font-family="Cascadia Code NF" font-size="10.00">+</text>
<text text-anchor="start" x="528" y="-102.5" font-family="Cascadia Code NF" font-size="10.00">Uint8()</text>
<text text-anchor="start" x="517" y="-86.5" font-family="Cascadia Code NF" font-size="10.00">+</text>
<text text-anchor="start" x="528" y="-86.5" font-family="Cascadia Code NF" font-size="10.00">Int16()</text>
<text text-anchor="start" x="517" y="-70.5" font-family="Cascadia Code NF" font-size="10.00">+</text>
<text text-anchor="start" x="528" y="-70.5" font-family="Cascadia Code NF" font-size="10.00">Uint16()</text>
<text text-anchor="start" x="517" y="-54.5" font-family="Cascadia Code NF" font-size="10.00">+</text>
<text text-anchor="start" x="528" y="-54.5" font-family="Cascadia Code NF" font-size="10.00">Int32()</text>
<text text-anchor="start" x="517" y="-38.5" font-family="Cascadia Code NF" font-size="10.00">+</text>
<text text-anchor="start" x="528" y="-38.5" font-family="Cascadia Code NF" font-size="10.00">Uint32()</text>
<text text-anchor="start" x="517" y="-22.5" font-family="Cascadia Code NF" font-size="10.00">+</text>
<text text-anchor="start" x="528" y="-22.5" font-family="Cascadia Code NF" font-size="10.00">Int64()</text>
<text text-anchor="start" x="528" y="-6.5" font-family="Cascadia Code NF" font-size="10.00">and 21 more...</text>
<polygon fill="#bfbfbf" stroke="#bfbfbf" points="512,-370 512,-370 672,-370 672,-370 512,-370"/>
<polygon fill="#bfbfbf" stroke="#bfbfbf" points="512,-354 512,-354 672,-354 672,-354 512,-354"/>
<polygon fill="none" stroke="#bfbfbf" points="512,0 512,-388 672,-388 672,0 512,0"/>
</a>
</g>
</g>
<!-- Node6&#45;&gt;Node1 -->
<g id="edge5_Node000001_Node000006" class="edge">
<title>Node6&#45;&gt;Node1</title>
<g id="a_edge5_Node000001_Node000006"><a xlink:title=" ">
<path fill="none" stroke="#63b8ff" d="M671.89,-199.28C705.71,-201.54 745.22,-204.19 779.43,-206.47"/>
<polygon fill="none" stroke="#63b8ff" points="779.39,-206.47 785.64,-202.88 791.36,-207.27 785.11,-210.86 779.39,-206.47"/>
</a>
</g>
<text text-anchor="middle" x="732" y="-209.25" font-family="Cascadia Code NF" font-size="10.00" fill="grey"> +kMachineType</text>
</g>
</g>
</svg>
