<?xml version="1.0" encoding="UTF-8" standalone="no"?>
<!DOCTYPE svg PUBLIC "-//W3C//DTD SVG 1.1//EN"
 "http://www.w3.org/Graphics/SVG/1.1/DTD/svg11.dtd">
<!-- Generated by graphviz version 11.0.0 (20240428.1522)
 -->
<!-- Title: v8::internal::CPURegister Pages: 1 -->
<!--zoomable 392 -->

<svg id="main" version="1.1" xmlns="http://www.w3.org/2000/svg" xmlns:xlink="http://www.w3.org/1999/xlink" xml:space="preserve" onload="init(evt)">
<style type="text/css"><![CDATA[
.node, .edge {opacity: 0.7;}
.node.selected, .edge.selected {opacity: 1;}
.edge:hover path { stroke: red; }
.edge:hover polygon { stroke: red; fill: red; }
svg#main { background-color: #111; }
]]></style>

<defs>
  <circle id="rim" cx="0" cy="0" r="7"/>
  <circle id="rim2" cx="0" cy="0" r="3.5"/>
  <g id="zoomPlus">
    <use xlink:href="#rim" fill="#404040"><set attributeName="fill" to="#808080" begin="zoomplus.mouseover" end="zoomplus.mouseout"/></use>
    <path d="M-4,0h8M0,-4v8" fill="none" stroke="white" stroke-width="1.5" pointer-events="none"/>
  </g>
  <g id="zoomMin">
    <use xlink:href="#rim" fill="#404040"><set attributeName="fill" to="#808080" begin="zoomminus.mouseover" end="zoomminus.mouseout"/></use>
    <path d="M-4,0h8" fill="none" stroke="white" stroke-width="1.5" pointer-events="none"/>
  </g>
  <g id="arrowUp" transform="translate(30 24)">
    <use xlink:href="#rim"/>
    <path pointer-events="none" fill="none" stroke="white" stroke-width="1.5" d="M0,-3.0v7 M-2.5,-0.5L0,-3.0L2.5,-0.5"/>
  </g>
  <g id="arrowRight" transform="rotate(90) translate(36 -43)">
    <use xlink:href="#rim"/>
    <path pointer-events="none" fill="none" stroke="white" stroke-width="1.5" d="M0,-3.0v7 M-2.5,-0.5L0,-3.0L2.5,-0.5"/>
  </g>
  <g id="arrowDown" transform="rotate(180) translate(-30 -48)">
    <use xlink:href="#rim"/>
    <path pointer-events="none" fill="none" stroke="white" stroke-width="1.5" d="M0,-3.0v7 M-2.5,-0.5L0,-3.0L2.5,-0.5"/>
  </g>
  <g id="arrowLeft" transform="rotate(270) translate(-36 17)">
    <use xlink:href="#rim"/>
    <path pointer-events="none" fill="none" stroke="white" stroke-width="1.5" d="M0,-3.0v7 M-2.5,-0.5L0,-3.0L2.5,-0.5"/>
  </g>
  <g id="resetDef">
    <use xlink:href="#rim2" fill="#404040"><set attributeName="fill" to="#808080" begin="reset.mouseover" end="reset.mouseout"/></use>
  </g>
</defs>
<script type="application/ecmascript">
var viewWidth = 728;
var viewHeight = 392;
var sectionId = 'dynsection-1';
</script>
<script type="application/ecmascript" xlink:href="../../svg.min.js"/>
<svg id="graph" class="graph">
<g id="viewport">
<title>v8::internal::CPURegister</title>
<!-- Node1 -->
<g id="Node000001" class="node">
<title>Node1</title>
<g id="a_Node000001"><a xlink:title=" ">
<polygon fill="#999999" stroke="none" points="720,-324 560,-324 560,0 720,0 720,-324"/>
<text text-anchor="start" x="565" y="-310.5" font-family="Cascadia Code NF" font-size="10.00">v8::internal::CPURegister</text>
<text text-anchor="start" x="637" y="-294.5" font-family="Cascadia Code NF" font-size="10.00"> </text>
<text text-anchor="start" x="572.5" y="-278.5" font-family="Cascadia Code NF" font-size="10.00">+</text>
<text text-anchor="start" x="591" y="-278.5" font-family="Cascadia Code NF" font-size="10.00">type()</text>
<text text-anchor="start" x="572.5" y="-262.5" font-family="Cascadia Code NF" font-size="10.00">+</text>
<text text-anchor="start" x="591" y="-262.5" font-family="Cascadia Code NF" font-size="10.00">SizeInBits()</text>
<text text-anchor="start" x="572.5" y="-246.5" font-family="Cascadia Code NF" font-size="10.00">+</text>
<text text-anchor="start" x="591" y="-246.5" font-family="Cascadia Code NF" font-size="10.00">SizeInBytes()</text>
<text text-anchor="start" x="572.5" y="-230.5" font-family="Cascadia Code NF" font-size="10.00">+</text>
<text text-anchor="start" x="591" y="-230.5" font-family="Cascadia Code NF" font-size="10.00">Is8Bits()</text>
<text text-anchor="start" x="572.5" y="-214.5" font-family="Cascadia Code NF" font-size="10.00">+</text>
<text text-anchor="start" x="591" y="-214.5" font-family="Cascadia Code NF" font-size="10.00">Is16Bits()</text>
<text text-anchor="start" x="572.5" y="-198.5" font-family="Cascadia Code NF" font-size="10.00">+</text>
<text text-anchor="start" x="591" y="-198.5" font-family="Cascadia Code NF" font-size="10.00">Is32Bits()</text>
<text text-anchor="start" x="572.5" y="-182.5" font-family="Cascadia Code NF" font-size="10.00">+</text>
<text text-anchor="start" x="591" y="-182.5" font-family="Cascadia Code NF" font-size="10.00">Is64Bits()</text>
<text text-anchor="start" x="572.5" y="-166.5" font-family="Cascadia Code NF" font-size="10.00">+</text>
<text text-anchor="start" x="591" y="-166.5" font-family="Cascadia Code NF" font-size="10.00">Is128Bits()</text>
<text text-anchor="start" x="572.5" y="-150.5" font-family="Cascadia Code NF" font-size="10.00">+</text>
<text text-anchor="start" x="591" y="-150.5" font-family="Cascadia Code NF" font-size="10.00">IsNone()</text>
<text text-anchor="start" x="572.5" y="-134.5" font-family="Cascadia Code NF" font-size="10.00">+</text>
<text text-anchor="start" x="591" y="-134.5" font-family="Cascadia Code NF" font-size="10.00">Aliases()</text>
<text text-anchor="start" x="591" y="-118.5" font-family="Cascadia Code NF" font-size="10.00">and 28 more...</text>
<text text-anchor="start" x="572.5" y="-102.5" font-family="Cascadia Code NF" font-size="10.00">+</text>
<text text-anchor="start" x="591" y="-102.5" font-family="Cascadia Code NF" font-size="10.00">no_reg()</text>
<text text-anchor="start" x="572.5" y="-86.5" font-family="Cascadia Code NF" font-size="10.00">+</text>
<text text-anchor="start" x="591" y="-86.5" font-family="Cascadia Code NF" font-size="10.00">Create()</text>
<text text-anchor="start" x="572.5" y="-70.5" font-family="Cascadia Code NF" font-size="10.00">#</text>
<text text-anchor="start" x="591" y="-70.5" font-family="Cascadia Code NF" font-size="10.00">CPURegister()</text>
<text text-anchor="start" x="572.5" y="-54.5" font-family="Cascadia Code NF" font-size="10.00">#</text>
<text text-anchor="start" x="591" y="-54.5" font-family="Cascadia Code NF" font-size="10.00">IsValidRegister()</text>
<text text-anchor="start" x="572.5" y="-38.5" font-family="Cascadia Code NF" font-size="10.00">#</text>
<text text-anchor="start" x="591" y="-38.5" font-family="Cascadia Code NF" font-size="10.00">IsValidVRegister()</text>
<text text-anchor="start" x="572.5" y="-22.5" font-family="Cascadia Code NF" font-size="10.00">#</text>
<text text-anchor="start" x="591" y="-22.5" font-family="Cascadia Code NF" font-size="10.00">IsValid()</text>
<text text-anchor="start" x="572.5" y="-6.5" font-family="Cascadia Code NF" font-size="10.00">#</text>
<text text-anchor="start" x="591" y="-6.5" font-family="Cascadia Code NF" font-size="10.00">IsNone()</text>
<polygon fill="#666666" stroke="#666666" points="560,-306 560,-306 720,-306 720,-306 560,-306"/>
<polygon fill="#666666" stroke="#666666" points="560,-290 560,-290 720,-290 720,-290 560,-290"/>
<polygon fill="none" stroke="#666666" points="560,0 560,-324 720,-324 720,0 560,0"/>
</a>
</g>
</g>
<!-- Node2 -->
<g id="Node000002" class="node">
<title>Node2</title>
<g id="a_Node000002"><a xlink:href="../../da/d96/classv8_1_1internal_1_1RegisterBase.html" target="_top" xlink:title=" ">
<polygon fill="white" stroke="none" points="458,-383.5 268,-383.5 268,-206.5 458,-206.5 458,-383.5"/>
<text text-anchor="start" x="273" y="-370" font-family="Cascadia Code NF" font-size="10.00">v8::internal::RegisterBase</text>
<text text-anchor="start" x="273" y="-357.25" font-family="Cascadia Code NF" font-size="10.00">&lt; CPURegister, kRegAfterLast &gt;</text>
<text text-anchor="start" x="360" y="-341" font-family="Cascadia Code NF" font-size="10.00"> </text>
<text text-anchor="start" x="279" y="-325" font-family="Cascadia Code NF" font-size="10.00">+</text>
<text text-anchor="start" x="296" y="-325" font-family="Cascadia Code NF" font-size="10.00">is_valid()</text>
<text text-anchor="start" x="279" y="-309" font-family="Cascadia Code NF" font-size="10.00">+</text>
<text text-anchor="start" x="296" y="-309" font-family="Cascadia Code NF" font-size="10.00">code()</text>
<text text-anchor="start" x="279" y="-293" font-family="Cascadia Code NF" font-size="10.00">+</text>
<text text-anchor="start" x="296" y="-293" font-family="Cascadia Code NF" font-size="10.00">operator==()</text>
<text text-anchor="start" x="279" y="-277" font-family="Cascadia Code NF" font-size="10.00">+</text>
<text text-anchor="start" x="296" y="-277" font-family="Cascadia Code NF" font-size="10.00">operator!=()</text>
<text text-anchor="start" x="279" y="-261" font-family="Cascadia Code NF" font-size="10.00">+</text>
<text text-anchor="start" x="296" y="-261" font-family="Cascadia Code NF" font-size="10.00">no_reg()</text>
<text text-anchor="start" x="279" y="-245" font-family="Cascadia Code NF" font-size="10.00">+</text>
<text text-anchor="start" x="296" y="-245" font-family="Cascadia Code NF" font-size="10.00">from_code()</text>
<text text-anchor="start" x="279" y="-229" font-family="Cascadia Code NF" font-size="10.00">+</text>
<text text-anchor="start" x="296" y="-229" font-family="Cascadia Code NF" font-size="10.00">GetSpecialRegisterName()</text>
<text text-anchor="start" x="279" y="-213" font-family="Cascadia Code NF" font-size="10.00">#</text>
<text text-anchor="start" x="296" y="-213" font-family="Cascadia Code NF" font-size="10.00">RegisterBase()</text>
<polygon fill="#bfbfbf" stroke="#bfbfbf" points="268,-352.5 268,-352.5 458,-352.5 458,-352.5 268,-352.5"/>
<polygon fill="#bfbfbf" stroke="#bfbfbf" points="268,-336.5 268,-336.5 458,-336.5 458,-336.5 268,-336.5"/>
<polygon fill="none" stroke="#bfbfbf" points="268,-206.5 268,-383.5 458,-383.5 458,-206.5 268,-206.5"/>
</a>
</g>
</g>
<!-- Node2&#45;&gt;Node1 -->
<g id="edge1_Node000001_Node000002" class="edge">
<title>Node2&#45;&gt;Node1</title>
<g id="a_edge1_Node000001_Node000002"><a xlink:title=" ">
<path fill="none" stroke="#63b8ff" d="M468.12,-244.64C498.65,-229.88 531.51,-213.98 560.19,-200.12"/>
<polygon fill="none" stroke="#63b8ff" points="466.71,-241.44 459.23,-248.94 469.76,-247.74 466.71,-241.44"/>
</a>
</g>
</g>
<!-- Node3 -->
<g id="Node000003" class="node">
<title>Node3</title>
<g id="a_Node000003"><a xlink:href="../../da/df7/classstatic_01constexpr_01int8__t.html" target="_top" xlink:title=" ">
<polygon fill="white" stroke="none" points="148,-321 0,-321 0,-269 148,-269 148,-321"/>
<text text-anchor="start" x="5" y="-307.5" font-family="Cascadia Code NF" font-size="10.00">static constexpr int8_t</text>
<text text-anchor="start" x="71" y="-291.5" font-family="Cascadia Code NF" font-size="10.00"> </text>
<text text-anchor="start" x="71" y="-275.5" font-family="Cascadia Code NF" font-size="10.00"> </text>
<polygon fill="#bfbfbf" stroke="#bfbfbf" points="0,-303 0,-303 148,-303 148,-303 0,-303"/>
<polygon fill="#bfbfbf" stroke="#bfbfbf" points="0,-287 0,-287 148,-287 148,-287 0,-287"/>
<polygon fill="none" stroke="#bfbfbf" points="0,-269 0,-321 148,-321 148,-269 0,-269"/>
</a>
</g>
</g>
<!-- Node3&#45;&gt;Node2 -->
<g id="edge2_Node000002_Node000003" class="edge">
<title>Node3&#45;&gt;Node2</title>
<g id="a_edge2_Node000002_Node000003"><a xlink:title=" ">
<path fill="none" stroke="#63b8ff" d="M147.79,-295C180.33,-295 219.34,-295 255.09,-295"/>
<polygon fill="none" stroke="#63b8ff" points="255.2,-295 261.2,-291 267.2,-295 261.2,-299 255.2,-295"/>
</a>
</g>
<text text-anchor="middle" x="208" y="-311" font-family="Cascadia Code NF" font-size="10.00" fill="grey"> +kCode_no_reg</text>
<text text-anchor="middle" x="208" y="-298.25" font-family="Cascadia Code NF" font-size="10.00" fill="grey">+kNumRegisters</text>
</g>
<!-- Node4 -->
<g id="Node000004" class="node">
<title>Node4</title>
<g id="a_Node000004"><a xlink:title=" ">
<polygon fill="white" stroke="none" points="389,-188 337,-188 337,-136 389,-136 389,-188"/>
<text text-anchor="start" x="342" y="-174.5" font-family="Cascadia Code NF" font-size="10.00">uint8_t</text>
<text text-anchor="start" x="360" y="-158.5" font-family="Cascadia Code NF" font-size="10.00"> </text>
<text text-anchor="start" x="360" y="-142.5" font-family="Cascadia Code NF" font-size="10.00"> </text>
<polygon fill="#bfbfbf" stroke="#bfbfbf" points="337,-170 337,-170 389,-170 389,-170 337,-170"/>
<polygon fill="#bfbfbf" stroke="#bfbfbf" points="337,-154 337,-154 389,-154 389,-154 337,-154"/>
<polygon fill="none" stroke="#bfbfbf" points="337,-136 337,-188 389,-188 389,-136 337,-136"/>
</a>
</g>
</g>
<!-- Node4&#45;&gt;Node1 -->
<g id="edge3_Node000001_Node000004" class="edge">
<title>Node4&#45;&gt;Node1</title>
<g id="a_edge3_Node000001_Node000004"><a xlink:title=" ">
<path fill="none" stroke="#63b8ff" d="M388.89,-162C424.4,-162 491.48,-162 547.23,-162"/>
<polygon fill="none" stroke="#63b8ff" points="547.14,-162 553.14,-158 559.14,-162 553.14,-166 547.14,-162"/>
</a>
</g>
<text text-anchor="middle" x="509" y="-165.25" font-family="Cascadia Code NF" font-size="10.00" fill="grey"> #reg_size_</text>
</g>
<!-- Node5 -->
<g id="Node000005" class="node">
<title>Node5</title>
<g id="a_Node000005"><a xlink:title=" ">
<polygon fill="white" stroke="none" points="404,-118 322,-118 322,-66 404,-66 404,-118"/>
<text text-anchor="start" x="327" y="-104.5" font-family="Cascadia Code NF" font-size="10.00">RegisterType</text>
<text text-anchor="start" x="360" y="-88.5" font-family="Cascadia Code NF" font-size="10.00"> </text>
<text text-anchor="start" x="360" y="-72.5" font-family="Cascadia Code NF" font-size="10.00"> </text>
<polygon fill="#bfbfbf" stroke="#bfbfbf" points="322,-100 322,-100 404,-100 404,-100 322,-100"/>
<polygon fill="#bfbfbf" stroke="#bfbfbf" points="322,-84 322,-84 404,-84 404,-84 322,-84"/>
<polygon fill="none" stroke="#bfbfbf" points="322,-66 322,-118 404,-118 404,-66 322,-66"/>
</a>
</g>
</g>
<!-- Node5&#45;&gt;Node1 -->
<g id="edge4_Node000001_Node000005" class="edge">
<title>Node5&#45;&gt;Node1</title>
<g id="a_edge4_Node000001_Node000005"><a xlink:title=" ">
<path fill="none" stroke="#63b8ff" d="M403.99,-102.18C441.47,-111.72 498.86,-126.33 547.55,-138.72"/>
<polygon fill="none" stroke="#63b8ff" points="547.54,-138.72 554.34,-136.32 559.17,-141.68 552.37,-144.08 547.54,-138.72"/>
</a>
</g>
<text text-anchor="middle" x="509" y="-138.25" font-family="Cascadia Code NF" font-size="10.00" fill="grey"> #reg_type_</text>
</g>
</g>
</svg>

<g id="navigator" transform="translate(0 0)" fill="#404254">
  <rect fill="#f2f5e9" fill-opacity="0.5" stroke="#606060" stroke-width=".5" x="0" y="0" width="60" height="60"/>
  <use id="zoomplus" xlink:href="#zoomPlus" x="17" y="9" onmousedown="handleZoom(evt,'in')"/>
  <use id="zoomminus" xlink:href="#zoomMin" x="42" y="9" onmousedown="handleZoom(evt,'out')"/>
  <use id="reset" xlink:href="#resetDef" x="30" y="36" onmousedown="handleReset()"/>
   <use id="arrowup" xlink:href="#arrowUp" x="0" y="0" onmousedown="handlePan(0,-1)"/>
  <use id="arrowright" xlink:href="#arrowRight" x="0" y="0" onmousedown="handlePan(1,0)"/>
  <use id="arrowdown" xlink:href="#arrowDown" x="0" y="0" onmousedown="handlePan(0,1)"/>
  <use id="arrowleft" xlink:href="#arrowLeft" x="0" y="0" onmousedown="handlePan(-1,0)"/>
</g>
<svg viewBox="0 0 15 15" width="100%" height="30px" preserveAspectRatio="xMaxYMin meet">
 <g id="arrow_out" transform="scale(0.3 0.3)">
  <a xlink:href="classv8_1_1internal_1_1CPURegister__coll__graph_org.svg" target="_base">
   <rect id="button" ry="5" rx="5" y="6" x="6" height="38" width="38"
        fill="#f2f5e9" fill-opacity="0.5" stroke="#606060" stroke-width="1.0"/>
   <path id="arrow"
     d="M 11.500037,31.436501 C 11.940474,20.09759 22.043105,11.32322 32.158766,21.979434 L 37.068811,17.246167 C 37.068811,17.246167 37.088388,32 37.088388,32 L 22.160133,31.978069 C 22.160133,31.978069 26.997745,27.140456 26.997745,27.140456 C 18.528582,18.264221 13.291696,25.230495 11.500037,31.436501 z"
     style="fill:#404040;"/>
  </a>
 </g>
</svg>

<style type='text/css'>
<![CDATA[
[data-mouse-over-selected='false'] { opacity: 0.7; }
[data-mouse-over-selected='true']  { opacity: 1.0; }
]]>
</style>
<script type="application/ecmascript"><![CDATA[
document.addEventListener('DOMContentLoaded', (event) => {
  highlightEdges();
  highlightAdjacentNodes();
});
]]></script>
</svg>
