<?xml version="1.0" encoding="UTF-8" standalone="no"?>
<!DOCTYPE svg PUBLIC "-//W3C//DTD SVG 1.1//EN"
 "http://www.w3.org/Graphics/SVG/1.1/DTD/svg11.dtd">
<!-- Generated by graphviz version 11.0.0 (20240428.1522)
 -->
<!-- Title: v8::internal::compiler::turboshaft::ConvertJSPrimitiveToObjectOp Pages: 1 -->
<svg width="634pt" height="345pt"
 viewBox="0.00 0.00 634.00 345.00" xmlns="http://www.w3.org/2000/svg" xmlns:xlink="http://www.w3.org/1999/xlink">
<g id="graph0" class="graph" transform="scale(1 1) rotate(0) translate(4 341)">
<title>v8::internal::compiler::turboshaft::ConvertJSPrimitiveToObjectOp</title>
<!-- Node1 -->
<g id="Node000001" class="node">
<title>Node1</title>
<g id="a_Node000001"><a xlink:title=" ">
<polygon fill="#999999" stroke="none" points="626,-287.5 424,-287.5 424,-49.5 626,-49.5 626,-287.5"/>
<text text-anchor="start" x="429" y="-274" font-family="Cascadia Code NF" font-size="10.00">v8::internal::compiler</text>
<text text-anchor="start" x="429" y="-261.25" font-family="Cascadia Code NF" font-size="10.00">::turboshaft::ConvertJSPrimitive</text>
<text text-anchor="start" x="495" y="-248.5" font-family="Cascadia Code NF" font-size="10.00">ToObjectOp</text>
<text text-anchor="start" x="429" y="-232" font-family="Cascadia Code NF" font-size="10.00">+</text>
<text text-anchor="start" x="440" y="-232" font-family="Cascadia Code NF" font-size="10.00">mode</text>
<text text-anchor="start" x="429" y="-216" font-family="Cascadia Code NF" font-size="10.00">+</text>
<text text-anchor="start" x="440" y="-216" font-family="Cascadia Code NF" font-size="10.00">effects</text>
<text text-anchor="start" x="429" y="-200" font-family="Cascadia Code NF" font-size="10.00">+</text>
<text text-anchor="start" x="440" y="-200" font-family="Cascadia Code NF" font-size="10.00">outputs_rep()</text>
<text text-anchor="start" x="429" y="-184" font-family="Cascadia Code NF" font-size="10.00">+</text>
<text text-anchor="start" x="440" y="-184" font-family="Cascadia Code NF" font-size="10.00">inputs_rep()</text>
<text text-anchor="start" x="429" y="-168" font-family="Cascadia Code NF" font-size="10.00">+</text>
<text text-anchor="start" x="440" y="-168" font-family="Cascadia Code NF" font-size="10.00">value()</text>
<text text-anchor="start" x="429" y="-152" font-family="Cascadia Code NF" font-size="10.00">+</text>
<text text-anchor="start" x="440" y="-152" font-family="Cascadia Code NF" font-size="10.00">native_context()</text>
<text text-anchor="start" x="429" y="-136" font-family="Cascadia Code NF" font-size="10.00">+</text>
<text text-anchor="start" x="440" y="-136" font-family="Cascadia Code NF" font-size="10.00">global_proxy()</text>
<text text-anchor="start" x="429" y="-120" font-family="Cascadia Code NF" font-size="10.00">+</text>
<text text-anchor="start" x="440" y="-120" font-family="Cascadia Code NF" font-size="10.00">ConvertJSPrimitiveToObjectOp()</text>
<text text-anchor="start" x="429" y="-104" font-family="Cascadia Code NF" font-size="10.00">+</text>
<text text-anchor="start" x="440" y="-104" font-family="Cascadia Code NF" font-size="10.00">Explode()</text>
<text text-anchor="start" x="429" y="-88" font-family="Cascadia Code NF" font-size="10.00">+</text>
<text text-anchor="start" x="440" y="-88" font-family="Cascadia Code NF" font-size="10.00">Validate()</text>
<text text-anchor="start" x="429" y="-72" font-family="Cascadia Code NF" font-size="10.00">+</text>
<text text-anchor="start" x="440" y="-72" font-family="Cascadia Code NF" font-size="10.00">options()</text>
<text text-anchor="start" x="429" y="-56" font-family="Cascadia Code NF" font-size="10.00">+</text>
<text text-anchor="start" x="440" y="-56" font-family="Cascadia Code NF" font-size="10.00">New()</text>
<polygon fill="#666666" stroke="#666666" points="424,-243.5 424,-243.5 626,-243.5 626,-243.5 424,-243.5"/>
<polygon fill="#666666" stroke="#666666" points="424,-211.5 424,-211.5 438,-211.5 438,-211.5 424,-211.5"/>
<polygon fill="#666666" stroke="#666666" points="438,-211.5 438,-211.5 626,-211.5 626,-211.5 438,-211.5"/>
<polygon fill="none" stroke="#666666" points="424,-49.5 424,-287.5 626,-287.5 626,-49.5 424,-49.5"/>
</a>
</g>
</g>
<!-- Node2 -->
<g id="Node000002" class="node">
<title>Node2</title>
<g id="a_Node000002"><a xlink:href="../../d5/d1a/structv8_1_1internal_1_1compiler_1_1turboshaft_1_1OperationT.html" target="_top" xlink:title=" ">
<polygon fill="white" stroke="none" points="388,-335.5 186,-335.5 186,-1.5 388,-1.5 388,-335.5"/>
<text text-anchor="start" x="191" y="-322" font-family="Cascadia Code NF" font-size="10.00">v8::internal::compiler</text>
<text text-anchor="start" x="191" y="-309.25" font-family="Cascadia Code NF" font-size="10.00">::turboshaft::OperationT</text>
<text text-anchor="start" x="191" y="-296.5" font-family="Cascadia Code NF" font-size="10.00">&lt; ConvertJSPrimitiveToObjectOp &gt;</text>
<text text-anchor="start" x="203" y="-280" font-family="Cascadia Code NF" font-size="10.00">+</text>
<text text-anchor="start" x="226" y="-280" font-family="Cascadia Code NF" font-size="10.00">opcode</text>
<text text-anchor="start" x="203" y="-264" font-family="Cascadia Code NF" font-size="10.00">+</text>
<text text-anchor="start" x="226" y="-264" font-family="Cascadia Code NF" font-size="10.00">IsRequiredWhenUnused()</text>
<text text-anchor="start" x="203" y="-248" font-family="Cascadia Code NF" font-size="10.00">+</text>
<text text-anchor="start" x="226" y="-248" font-family="Cascadia Code NF" font-size="10.00">derived_this()</text>
<text text-anchor="start" x="203" y="-232" font-family="Cascadia Code NF" font-size="10.00">+</text>
<text text-anchor="start" x="226" y="-232" font-family="Cascadia Code NF" font-size="10.00">derived_this()</text>
<text text-anchor="start" x="203" y="-216" font-family="Cascadia Code NF" font-size="10.00">+</text>
<text text-anchor="start" x="226" y="-216" font-family="Cascadia Code NF" font-size="10.00">inputs()</text>
<text text-anchor="start" x="203" y="-200" font-family="Cascadia Code NF" font-size="10.00">+</text>
<text text-anchor="start" x="226" y="-200" font-family="Cascadia Code NF" font-size="10.00">inputs()</text>
<text text-anchor="start" x="203" y="-184" font-family="Cascadia Code NF" font-size="10.00">+</text>
<text text-anchor="start" x="226" y="-184" font-family="Cascadia Code NF" font-size="10.00">input()</text>
<text text-anchor="start" x="203" y="-168" font-family="Cascadia Code NF" font-size="10.00">+</text>
<text text-anchor="start" x="226" y="-168" font-family="Cascadia Code NF" font-size="10.00">input()</text>
<text text-anchor="start" x="203" y="-152" font-family="Cascadia Code NF" font-size="10.00">+</text>
<text text-anchor="start" x="226" y="-152" font-family="Cascadia Code NF" font-size="10.00">input()</text>
<text text-anchor="start" x="203" y="-136" font-family="Cascadia Code NF" font-size="10.00">+</text>
<text text-anchor="start" x="226" y="-136" font-family="Cascadia Code NF" font-size="10.00">StorageSlotCount()</text>
<text text-anchor="start" x="203" y="-120" font-family="Cascadia Code NF" font-size="10.00">+</text>
<text text-anchor="start" x="226" y="-120" font-family="Cascadia Code NF" font-size="10.00">OperationT()</text>
<text text-anchor="start" x="226" y="-104" font-family="Cascadia Code NF" font-size="10.00">and 7 more...</text>
<text text-anchor="start" x="203" y="-88" font-family="Cascadia Code NF" font-size="10.00">+</text>
<text text-anchor="start" x="226" y="-88" font-family="Cascadia Code NF" font-size="10.00">Effects()</text>
<text text-anchor="start" x="203" y="-72" font-family="Cascadia Code NF" font-size="10.00">+</text>
<text text-anchor="start" x="226" y="-72" font-family="Cascadia Code NF" font-size="10.00">IsBlockTerminator()</text>
<text text-anchor="start" x="203" y="-56" font-family="Cascadia Code NF" font-size="10.00">+</text>
<text text-anchor="start" x="226" y="-56" font-family="Cascadia Code NF" font-size="10.00">EffectsIfStatic()</text>
<text text-anchor="start" x="203" y="-40" font-family="Cascadia Code NF" font-size="10.00">+</text>
<text text-anchor="start" x="226" y="-40" font-family="Cascadia Code NF" font-size="10.00">StorageSlotCount()</text>
<text text-anchor="start" x="203" y="-24" font-family="Cascadia Code NF" font-size="10.00">+</text>
<text text-anchor="start" x="226" y="-24" font-family="Cascadia Code NF" font-size="10.00">New()</text>
<text text-anchor="start" x="203" y="-8" font-family="Cascadia Code NF" font-size="10.00">+</text>
<text text-anchor="start" x="226" y="-8" font-family="Cascadia Code NF" font-size="10.00">New()</text>
<polygon fill="#bfbfbf" stroke="#bfbfbf" points="186,-291.5 186,-291.5 388,-291.5 388,-291.5 186,-291.5"/>
<polygon fill="#bfbfbf" stroke="#bfbfbf" points="186,-275.5 186,-275.5 224,-275.5 224,-275.5 186,-275.5"/>
<polygon fill="#bfbfbf" stroke="#bfbfbf" points="224,-275.5 224,-275.5 388,-275.5 388,-275.5 224,-275.5"/>
<polygon fill="none" stroke="#bfbfbf" points="186,-1.5 186,-335.5 388,-335.5 388,-1.5 186,-1.5"/>
</a>
</g>
</g>
<!-- Node2&#45;&gt;Node1 -->
<g id="edge1_Node000001_Node000002" class="edge">
<title>Node2&#45;&gt;Node1</title>
<g id="a_edge1_Node000001_Node000002"><a xlink:title=" ">
<path fill="none" stroke="#63b8ff" d="M399.13,-168.5C407.51,-168.5 415.93,-168.5 424.24,-168.5"/>
<polygon fill="none" stroke="#63b8ff" points="399.26,-165 389.26,-168.5 399.26,-172 399.26,-165"/>
</a>
</g>
</g>
<!-- Node3 -->
<g id="Node000003" class="node">
<title>Node3</title>
<g id="a_Node000003"><a xlink:href="../../d6/da7/structv8_1_1internal_1_1compiler_1_1turboshaft_1_1Operation.html" target="_top" xlink:title=" ">
<polygon fill="white" stroke="none" points="150,-337 0,-337 0,0 150,0 150,-337"/>
<text text-anchor="start" x="6" y="-323.5" font-family="Cascadia Code NF" font-size="10.00">v8::internal::compiler</text>
<text text-anchor="start" x="6" y="-310.75" font-family="Cascadia Code NF" font-size="10.00">::turboshaft::Operation</text>
<text text-anchor="start" x="4" y="-294.5" font-family="Cascadia Code NF" font-size="10.00">+</text>
<text text-anchor="start" x="14" y="-294.5" font-family="Cascadia Code NF" font-size="10.00">opcode</text>
<text text-anchor="start" x="4" y="-278.5" font-family="Cascadia Code NF" font-size="10.00">+</text>
<text text-anchor="start" x="14" y="-278.5" font-family="Cascadia Code NF" font-size="10.00">saturated_use_count</text>
<text text-anchor="start" x="4" y="-262.5" font-family="Cascadia Code NF" font-size="10.00">+</text>
<text text-anchor="start" x="14" y="-262.5" font-family="Cascadia Code NF" font-size="10.00">input_count</text>
<text text-anchor="start" x="4" y="-246.5" font-family="Cascadia Code NF" font-size="10.00">+</text>
<text text-anchor="start" x="14" y="-246.5" font-family="Cascadia Code NF" font-size="10.00">inputs()</text>
<text text-anchor="start" x="4" y="-230.5" font-family="Cascadia Code NF" font-size="10.00">+</text>
<text text-anchor="start" x="14" y="-230.5" font-family="Cascadia Code NF" font-size="10.00">input()</text>
<text text-anchor="start" x="4" y="-214.5" font-family="Cascadia Code NF" font-size="10.00">+</text>
<text text-anchor="start" x="14" y="-214.5" font-family="Cascadia Code NF" font-size="10.00">StorageSlotCount()</text>
<text text-anchor="start" x="4" y="-198.5" font-family="Cascadia Code NF" font-size="10.00">+</text>
<text text-anchor="start" x="14" y="-198.5" font-family="Cascadia Code NF" font-size="10.00">outputs_rep()</text>
<text text-anchor="start" x="4" y="-182.5" font-family="Cascadia Code NF" font-size="10.00">+</text>
<text text-anchor="start" x="14" y="-182.5" font-family="Cascadia Code NF" font-size="10.00">inputs_rep()</text>
<text text-anchor="start" x="4" y="-166.5" font-family="Cascadia Code NF" font-size="10.00">+</text>
<text text-anchor="start" x="14" y="-166.5" font-family="Cascadia Code NF" font-size="10.00">Is()</text>
<text text-anchor="start" x="4" y="-150.5" font-family="Cascadia Code NF" font-size="10.00">+</text>
<text text-anchor="start" x="14" y="-150.5" font-family="Cascadia Code NF" font-size="10.00">Cast()</text>
<text text-anchor="start" x="4" y="-134.5" font-family="Cascadia Code NF" font-size="10.00">+</text>
<text text-anchor="start" x="14" y="-134.5" font-family="Cascadia Code NF" font-size="10.00">Cast()</text>
<text text-anchor="start" x="4" y="-118.5" font-family="Cascadia Code NF" font-size="10.00">+</text>
<text text-anchor="start" x="14" y="-118.5" font-family="Cascadia Code NF" font-size="10.00">TryCast()</text>
<text text-anchor="start" x="4" y="-102.5" font-family="Cascadia Code NF" font-size="10.00">+</text>
<text text-anchor="start" x="14" y="-102.5" font-family="Cascadia Code NF" font-size="10.00">TryCast()</text>
<text text-anchor="start" x="14" y="-86.5" font-family="Cascadia Code NF" font-size="10.00">and 7 more...</text>
<text text-anchor="start" x="4" y="-70.5" font-family="Cascadia Code NF" font-size="10.00">+</text>
<text text-anchor="start" x="14" y="-70.5" font-family="Cascadia Code NF" font-size="10.00">StorageSlotCount()</text>
<text text-anchor="start" x="4" y="-54.5" font-family="Cascadia Code NF" font-size="10.00">#</text>
<text text-anchor="start" x="14" y="-54.5" font-family="Cascadia Code NF" font-size="10.00">Operation()</text>
<text text-anchor="start" x="4" y="-38.5" font-family="Cascadia Code NF" font-size="10.00">#</text>
<text text-anchor="start" x="14" y="-38.5" font-family="Cascadia Code NF" font-size="10.00">V8_CLANG_NO_SANITIZE()</text>
<text text-anchor="start" x="4" y="-22.5" font-family="Cascadia Code NF" font-size="10.00">#</text>
<text text-anchor="start" x="14" y="-22.5" font-family="Cascadia Code NF" font-size="10.00">Operation()</text>
<text text-anchor="start" x="4" y="-6.5" font-family="Cascadia Code NF" font-size="10.00">#</text>
<text text-anchor="start" x="14" y="-6.5" font-family="Cascadia Code NF" font-size="10.00">operator=()</text>
<polygon fill="#bfbfbf" stroke="#bfbfbf" points="0,-306 0,-306 150,-306 150,-306 0,-306"/>
<polygon fill="#bfbfbf" stroke="#bfbfbf" points="0,-258 0,-258 12,-258 12,-258 0,-258"/>
<polygon fill="#bfbfbf" stroke="#bfbfbf" points="12,-258 12,-258 150,-258 150,-258 12,-258"/>
<polygon fill="none" stroke="#bfbfbf" points="0,0 0,-337 150,-337 150,0 0,0"/>
</a>
</g>
</g>
<!-- Node3&#45;&gt;Node2 -->
<g id="edge2_Node000002_Node000003" class="edge">
<title>Node3&#45;&gt;Node2</title>
<g id="a_edge2_Node000002_Node000003"><a xlink:title=" ">
<path fill="none" stroke="#63b8ff" d="M161.26,-168.5C169.49,-168.5 177.9,-168.5 186.26,-168.5"/>
<polygon fill="none" stroke="#63b8ff" points="161.26,-165 151.26,-168.5 161.26,-172 161.26,-165"/>
</a>
</g>
</g>
</g>
</svg>
