<?xml version="1.0" encoding="UTF-8" standalone="no"?>
<!DOCTYPE svg PUBLIC "-//W3C//DTD SVG 1.1//EN"
 "http://www.w3.org/Graphics/SVG/1.1/DTD/svg11.dtd">
<!-- Generated by graphviz version 11.0.0 (20240428.1522)
 -->
<!-- Title: v8::internal::compiler::turboshaft::TruncateJSPrimitiveToUntaggedOp Pages: 1 -->
<svg width="946pt" height="345pt"
 viewBox="0.00 0.00 946.00 345.00" xmlns="http://www.w3.org/2000/svg" xmlns:xlink="http://www.w3.org/1999/xlink">
<g id="graph0" class="graph" transform="scale(1 1) rotate(0) translate(4 341)">
<title>v8::internal::compiler::turboshaft::TruncateJSPrimitiveToUntaggedOp</title>
<!-- Node1 -->
<g id="Node000001" class="node">
<title>Node1</title>
<g id="a_Node000001"><a xlink:title=" ">
<polygon fill="#999999" stroke="none" points="938,-263.5 722,-263.5 722,-73.5 938,-73.5 938,-263.5"/>
<text text-anchor="start" x="731" y="-250" font-family="Cascadia Code NF" font-size="10.00">v8::internal::compiler</text>
<text text-anchor="start" x="731" y="-237.25" font-family="Cascadia Code NF" font-size="10.00">::turboshaft::TruncateJSPrimitive</text>
<text text-anchor="start" x="794" y="-224.5" font-family="Cascadia Code NF" font-size="10.00">ToUntaggedOp</text>
<text text-anchor="start" x="726" y="-208" font-family="Cascadia Code NF" font-size="10.00">+</text>
<text text-anchor="start" x="736" y="-208" font-family="Cascadia Code NF" font-size="10.00">kind</text>
<text text-anchor="start" x="726" y="-192" font-family="Cascadia Code NF" font-size="10.00">+</text>
<text text-anchor="start" x="736" y="-192" font-family="Cascadia Code NF" font-size="10.00">input_assumptions</text>
<text text-anchor="start" x="726" y="-176" font-family="Cascadia Code NF" font-size="10.00">+</text>
<text text-anchor="start" x="736" y="-176" font-family="Cascadia Code NF" font-size="10.00">effects</text>
<text text-anchor="start" x="726" y="-160" font-family="Cascadia Code NF" font-size="10.00">+</text>
<text text-anchor="start" x="736" y="-160" font-family="Cascadia Code NF" font-size="10.00">outputs_rep()</text>
<text text-anchor="start" x="726" y="-144" font-family="Cascadia Code NF" font-size="10.00">+</text>
<text text-anchor="start" x="736" y="-144" font-family="Cascadia Code NF" font-size="10.00">inputs_rep()</text>
<text text-anchor="start" x="726" y="-128" font-family="Cascadia Code NF" font-size="10.00">+</text>
<text text-anchor="start" x="736" y="-128" font-family="Cascadia Code NF" font-size="10.00">input()</text>
<text text-anchor="start" x="726" y="-112" font-family="Cascadia Code NF" font-size="10.00">+</text>
<text text-anchor="start" x="736" y="-112" font-family="Cascadia Code NF" font-size="10.00">TruncateJSPrimitiveToUntaggedOp()</text>
<text text-anchor="start" x="726" y="-96" font-family="Cascadia Code NF" font-size="10.00">+</text>
<text text-anchor="start" x="736" y="-96" font-family="Cascadia Code NF" font-size="10.00">Validate()</text>
<text text-anchor="start" x="726" y="-80" font-family="Cascadia Code NF" font-size="10.00">+</text>
<text text-anchor="start" x="736" y="-80" font-family="Cascadia Code NF" font-size="10.00">options()</text>
<polygon fill="#666666" stroke="#666666" points="722,-219.5 722,-219.5 938,-219.5 938,-219.5 722,-219.5"/>
<polygon fill="#666666" stroke="#666666" points="722,-171.5 722,-171.5 734,-171.5 734,-171.5 722,-171.5"/>
<polygon fill="#666666" stroke="#666666" points="734,-171.5 734,-171.5 938,-171.5 938,-171.5 734,-171.5"/>
<polygon fill="none" stroke="#666666" points="722,-73.5 722,-263.5 938,-263.5 938,-73.5 722,-73.5"/>
</a>
</g>
</g>
<!-- Node2 -->
<g id="Node000002" class="node">
<title>Node2</title>
<g id="a_Node000002"><a xlink:href="$da/d8a/structv8_1_1internal_1_1compiler_1_1turboshaft_1_1FixedArityOperationT.html" xlink:title=" ">
<polygon fill="white" stroke="none" points="686,-231.5 442,-231.5 442,-105.5 686,-105.5 686,-231.5"/>
<text text-anchor="start" x="447" y="-218" font-family="Cascadia Code NF" font-size="10.00">v8::internal::compiler</text>
<text text-anchor="start" x="447" y="-205.25" font-family="Cascadia Code NF" font-size="10.00">::turboshaft::FixedArityOperation</text>
<text text-anchor="start" x="447" y="-192.5" font-family="Cascadia Code NF" font-size="10.00">T&lt; 1, TruncateJSPrimitiveToUntaggedOp &gt;</text>
<text text-anchor="start" x="469.5" y="-176" font-family="Cascadia Code NF" font-size="10.00">+</text>
<text text-anchor="start" x="503" y="-176" font-family="Cascadia Code NF" font-size="10.00">input_count</text>
<text text-anchor="start" x="469.5" y="-160" font-family="Cascadia Code NF" font-size="10.00">+</text>
<text text-anchor="start" x="503" y="-160" font-family="Cascadia Code NF" font-size="10.00">FixedArityOperationT()</text>
<text text-anchor="start" x="469.5" y="-144" font-family="Cascadia Code NF" font-size="10.00">+</text>
<text text-anchor="start" x="503" y="-144" font-family="Cascadia Code NF" font-size="10.00">ExplodeImpl()</text>
<text text-anchor="start" x="469.5" y="-128" font-family="Cascadia Code NF" font-size="10.00">+</text>
<text text-anchor="start" x="503" y="-128" font-family="Cascadia Code NF" font-size="10.00">Explode()</text>
<text text-anchor="start" x="469.5" y="-112" font-family="Cascadia Code NF" font-size="10.00">+</text>
<text text-anchor="start" x="503" y="-112" font-family="Cascadia Code NF" font-size="10.00">New()</text>
<polygon fill="#bfbfbf" stroke="#bfbfbf" points="442,-187.5 442,-187.5 686,-187.5 686,-187.5 442,-187.5"/>
<polygon fill="#bfbfbf" stroke="#bfbfbf" points="442,-171.5 442,-171.5 501,-171.5 501,-171.5 442,-171.5"/>
<polygon fill="#bfbfbf" stroke="#bfbfbf" points="501,-171.5 501,-171.5 686,-171.5 686,-171.5 501,-171.5"/>
<polygon fill="none" stroke="#bfbfbf" points="442,-105.5 442,-231.5 686,-231.5 686,-105.5 442,-105.5"/>
</a>
</g>
</g>
<!-- Node2&#45;&gt;Node1 -->
<g id="edge1_Node000001_Node000002" class="edge">
<title>Node2&#45;&gt;Node1</title>
<g id="a_edge1_Node000001_Node000002"><a xlink:title=" ">
<path fill="none" stroke="#63b8ff" d="M697.15,-168.5C705.48,-168.5 713.82,-168.5 722.02,-168.5"/>
<polygon fill="none" stroke="#63b8ff" points="697.31,-165 687.31,-168.5 697.31,-172 697.31,-165"/>
</a>
</g>
</g>
<!-- Node3 -->
<g id="Node000003" class="node">
<title>Node3</title>
<g id="a_Node000003"><a xlink:href="$d5/d1a/structv8_1_1internal_1_1compiler_1_1turboshaft_1_1OperationT.html" xlink:title=" ">
<polygon fill="white" stroke="none" points="406,-335.5 186,-335.5 186,-1.5 406,-1.5 406,-335.5"/>
<text text-anchor="start" x="191" y="-322" font-family="Cascadia Code NF" font-size="10.00">v8::internal::compiler</text>
<text text-anchor="start" x="191" y="-309.25" font-family="Cascadia Code NF" font-size="10.00">::turboshaft::OperationT</text>
<text text-anchor="start" x="191" y="-296.5" font-family="Cascadia Code NF" font-size="10.00">&lt; TruncateJSPrimitiveToUntaggedOp &gt;</text>
<text text-anchor="start" x="207.5" y="-280" font-family="Cascadia Code NF" font-size="10.00">+</text>
<text text-anchor="start" x="235" y="-280" font-family="Cascadia Code NF" font-size="10.00">opcode</text>
<text text-anchor="start" x="207.5" y="-264" font-family="Cascadia Code NF" font-size="10.00">+</text>
<text text-anchor="start" x="235" y="-264" font-family="Cascadia Code NF" font-size="10.00">IsRequiredWhenUnused()</text>
<text text-anchor="start" x="207.5" y="-248" font-family="Cascadia Code NF" font-size="10.00">+</text>
<text text-anchor="start" x="235" y="-248" font-family="Cascadia Code NF" font-size="10.00">derived_this()</text>
<text text-anchor="start" x="207.5" y="-232" font-family="Cascadia Code NF" font-size="10.00">+</text>
<text text-anchor="start" x="235" y="-232" font-family="Cascadia Code NF" font-size="10.00">derived_this()</text>
<text text-anchor="start" x="207.5" y="-216" font-family="Cascadia Code NF" font-size="10.00">+</text>
<text text-anchor="start" x="235" y="-216" font-family="Cascadia Code NF" font-size="10.00">inputs()</text>
<text text-anchor="start" x="207.5" y="-200" font-family="Cascadia Code NF" font-size="10.00">+</text>
<text text-anchor="start" x="235" y="-200" font-family="Cascadia Code NF" font-size="10.00">inputs()</text>
<text text-anchor="start" x="207.5" y="-184" font-family="Cascadia Code NF" font-size="10.00">+</text>
<text text-anchor="start" x="235" y="-184" font-family="Cascadia Code NF" font-size="10.00">input()</text>
<text text-anchor="start" x="207.5" y="-168" font-family="Cascadia Code NF" font-size="10.00">+</text>
<text text-anchor="start" x="235" y="-168" font-family="Cascadia Code NF" font-size="10.00">input()</text>
<text text-anchor="start" x="207.5" y="-152" font-family="Cascadia Code NF" font-size="10.00">+</text>
<text text-anchor="start" x="235" y="-152" font-family="Cascadia Code NF" font-size="10.00">input()</text>
<text text-anchor="start" x="207.5" y="-136" font-family="Cascadia Code NF" font-size="10.00">+</text>
<text text-anchor="start" x="235" y="-136" font-family="Cascadia Code NF" font-size="10.00">StorageSlotCount()</text>
<text text-anchor="start" x="207.5" y="-120" font-family="Cascadia Code NF" font-size="10.00">+</text>
<text text-anchor="start" x="235" y="-120" font-family="Cascadia Code NF" font-size="10.00">OperationT()</text>
<text text-anchor="start" x="235" y="-104" font-family="Cascadia Code NF" font-size="10.00">and 7 more...</text>
<text text-anchor="start" x="207.5" y="-88" font-family="Cascadia Code NF" font-size="10.00">+</text>
<text text-anchor="start" x="235" y="-88" font-family="Cascadia Code NF" font-size="10.00">Effects()</text>
<text text-anchor="start" x="207.5" y="-72" font-family="Cascadia Code NF" font-size="10.00">+</text>
<text text-anchor="start" x="235" y="-72" font-family="Cascadia Code NF" font-size="10.00">IsBlockTerminator()</text>
<text text-anchor="start" x="207.5" y="-56" font-family="Cascadia Code NF" font-size="10.00">+</text>
<text text-anchor="start" x="235" y="-56" font-family="Cascadia Code NF" font-size="10.00">EffectsIfStatic()</text>
<text text-anchor="start" x="207.5" y="-40" font-family="Cascadia Code NF" font-size="10.00">+</text>
<text text-anchor="start" x="235" y="-40" font-family="Cascadia Code NF" font-size="10.00">StorageSlotCount()</text>
<text text-anchor="start" x="207.5" y="-24" font-family="Cascadia Code NF" font-size="10.00">+</text>
<text text-anchor="start" x="235" y="-24" font-family="Cascadia Code NF" font-size="10.00">New()</text>
<text text-anchor="start" x="207.5" y="-8" font-family="Cascadia Code NF" font-size="10.00">+</text>
<text text-anchor="start" x="235" y="-8" font-family="Cascadia Code NF" font-size="10.00">New()</text>
<polygon fill="#bfbfbf" stroke="#bfbfbf" points="186,-291.5 186,-291.5 406,-291.5 406,-291.5 186,-291.5"/>
<polygon fill="#bfbfbf" stroke="#bfbfbf" points="186,-275.5 186,-275.5 233,-275.5 233,-275.5 186,-275.5"/>
<polygon fill="#bfbfbf" stroke="#bfbfbf" points="233,-275.5 233,-275.5 406,-275.5 406,-275.5 233,-275.5"/>
<polygon fill="none" stroke="#bfbfbf" points="186,-1.5 186,-335.5 406,-335.5 406,-1.5 186,-1.5"/>
</a>
</g>
</g>
<!-- Node3&#45;&gt;Node2 -->
<g id="edge2_Node000002_Node000003" class="edge">
<title>Node3&#45;&gt;Node2</title>
<g id="a_edge2_Node000002_Node000003"><a xlink:title=" ">
<path fill="none" stroke="#63b8ff" d="M417.47,-168.5C425.65,-168.5 433.9,-168.5 442.08,-168.5"/>
<polygon fill="none" stroke="#63b8ff" points="417.47,-165 407.47,-168.5 417.47,-172 417.47,-165"/>
</a>
</g>
</g>
<!-- Node4 -->
<g id="Node000004" class="node">
<title>Node4</title>
<g id="a_Node000004"><a xlink:href="$d6/da7/structv8_1_1internal_1_1compiler_1_1turboshaft_1_1Operation.html" xlink:title=" ">
<polygon fill="white" stroke="none" points="150,-337 0,-337 0,0 150,0 150,-337"/>
<text text-anchor="start" x="6" y="-323.5" font-family="Cascadia Code NF" font-size="10.00">v8::internal::compiler</text>
<text text-anchor="start" x="6" y="-310.75" font-family="Cascadia Code NF" font-size="10.00">::turboshaft::Operation</text>
<text text-anchor="start" x="4" y="-294.5" font-family="Cascadia Code NF" font-size="10.00">+</text>
<text text-anchor="start" x="14" y="-294.5" font-family="Cascadia Code NF" font-size="10.00">opcode</text>
<text text-anchor="start" x="4" y="-278.5" font-family="Cascadia Code NF" font-size="10.00">+</text>
<text text-anchor="start" x="14" y="-278.5" font-family="Cascadia Code NF" font-size="10.00">saturated_use_count</text>
<text text-anchor="start" x="4" y="-262.5" font-family="Cascadia Code NF" font-size="10.00">+</text>
<text text-anchor="start" x="14" y="-262.5" font-family="Cascadia Code NF" font-size="10.00">input_count</text>
<text text-anchor="start" x="4" y="-246.5" font-family="Cascadia Code NF" font-size="10.00">+</text>
<text text-anchor="start" x="14" y="-246.5" font-family="Cascadia Code NF" font-size="10.00">inputs()</text>
<text text-anchor="start" x="4" y="-230.5" font-family="Cascadia Code NF" font-size="10.00">+</text>
<text text-anchor="start" x="14" y="-230.5" font-family="Cascadia Code NF" font-size="10.00">input()</text>
<text text-anchor="start" x="4" y="-214.5" font-family="Cascadia Code NF" font-size="10.00">+</text>
<text text-anchor="start" x="14" y="-214.5" font-family="Cascadia Code NF" font-size="10.00">StorageSlotCount()</text>
<text text-anchor="start" x="4" y="-198.5" font-family="Cascadia Code NF" font-size="10.00">+</text>
<text text-anchor="start" x="14" y="-198.5" font-family="Cascadia Code NF" font-size="10.00">outputs_rep()</text>
<text text-anchor="start" x="4" y="-182.5" font-family="Cascadia Code NF" font-size="10.00">+</text>
<text text-anchor="start" x="14" y="-182.5" font-family="Cascadia Code NF" font-size="10.00">inputs_rep()</text>
<text text-anchor="start" x="4" y="-166.5" font-family="Cascadia Code NF" font-size="10.00">+</text>
<text text-anchor="start" x="14" y="-166.5" font-family="Cascadia Code NF" font-size="10.00">Is()</text>
<text text-anchor="start" x="4" y="-150.5" font-family="Cascadia Code NF" font-size="10.00">+</text>
<text text-anchor="start" x="14" y="-150.5" font-family="Cascadia Code NF" font-size="10.00">Cast()</text>
<text text-anchor="start" x="4" y="-134.5" font-family="Cascadia Code NF" font-size="10.00">+</text>
<text text-anchor="start" x="14" y="-134.5" font-family="Cascadia Code NF" font-size="10.00">Cast()</text>
<text text-anchor="start" x="4" y="-118.5" font-family="Cascadia Code NF" font-size="10.00">+</text>
<text text-anchor="start" x="14" y="-118.5" font-family="Cascadia Code NF" font-size="10.00">TryCast()</text>
<text text-anchor="start" x="4" y="-102.5" font-family="Cascadia Code NF" font-size="10.00">+</text>
<text text-anchor="start" x="14" y="-102.5" font-family="Cascadia Code NF" font-size="10.00">TryCast()</text>
<text text-anchor="start" x="14" y="-86.5" font-family="Cascadia Code NF" font-size="10.00">and 7 more...</text>
<text text-anchor="start" x="4" y="-70.5" font-family="Cascadia Code NF" font-size="10.00">+</text>
<text text-anchor="start" x="14" y="-70.5" font-family="Cascadia Code NF" font-size="10.00">StorageSlotCount()</text>
<text text-anchor="start" x="4" y="-54.5" font-family="Cascadia Code NF" font-size="10.00">#</text>
<text text-anchor="start" x="14" y="-54.5" font-family="Cascadia Code NF" font-size="10.00">Operation()</text>
<text text-anchor="start" x="4" y="-38.5" font-family="Cascadia Code NF" font-size="10.00">#</text>
<text text-anchor="start" x="14" y="-38.5" font-family="Cascadia Code NF" font-size="10.00">V8_CLANG_NO_SANITIZE()</text>
<text text-anchor="start" x="4" y="-22.5" font-family="Cascadia Code NF" font-size="10.00">#</text>
<text text-anchor="start" x="14" y="-22.5" font-family="Cascadia Code NF" font-size="10.00">Operation()</text>
<text text-anchor="start" x="4" y="-6.5" font-family="Cascadia Code NF" font-size="10.00">#</text>
<text text-anchor="start" x="14" y="-6.5" font-family="Cascadia Code NF" font-size="10.00">operator=()</text>
<polygon fill="#bfbfbf" stroke="#bfbfbf" points="0,-306 0,-306 150,-306 150,-306 0,-306"/>
<polygon fill="#bfbfbf" stroke="#bfbfbf" points="0,-258 0,-258 12,-258 12,-258 0,-258"/>
<polygon fill="#bfbfbf" stroke="#bfbfbf" points="12,-258 12,-258 150,-258 150,-258 12,-258"/>
<polygon fill="none" stroke="#bfbfbf" points="0,0 0,-337 150,-337 150,0 0,0"/>
</a>
</g>
</g>
<!-- Node4&#45;&gt;Node3 -->
<g id="edge3_Node000003_Node000004" class="edge">
<title>Node4&#45;&gt;Node3</title>
<g id="a_edge3_Node000003_Node000004"><a xlink:title=" ">
<path fill="none" stroke="#63b8ff" d="M161.22,-168.5C169.38,-168.5 177.72,-168.5 186.06,-168.5"/>
<polygon fill="none" stroke="#63b8ff" points="161.35,-165 151.35,-168.5 161.35,-172 161.35,-165"/>
</a>
</g>
</g>
</g>
</svg>
