<?xml version="1.0" encoding="UTF-8" standalone="no"?>
<!DOCTYPE svg PUBLIC "-//W3C//DTD SVG 1.1//EN"
 "http://www.w3.org/Graphics/SVG/1.1/DTD/svg11.dtd">
<!-- Generated by graphviz version 11.0.0 (20240428.1522)
 -->
<!-- Title: TorqueGeneratedCoverageInfo&lt; D, P &gt; Pages: 1 -->
<svg width="252pt" height="496pt"
 viewBox="0.00 0.00 252.00 496.00" xmlns="http://www.w3.org/2000/svg" xmlns:xlink="http://www.w3.org/1999/xlink">
<g id="graph0" class="graph" transform="scale(1 1) rotate(0) translate(4 492)">
<title>TorqueGeneratedCoverageInfo&lt; D, P &gt;</title>
<!-- Node1 -->
<g id="Node000001" class="node">
<title>Node1</title>
<g id="a_Node000001"><a xlink:title=" ">
<polygon fill="#999999" stroke="none" points="244,-488 52,-488 52,0 244,0 244,-488"/>
<text text-anchor="start" x="67" y="-474.5" font-family="Cascadia Code NF" font-size="10.00">TorqueGeneratedCoverageInfo</text>
<text text-anchor="start" x="124" y="-461.75" font-family="Cascadia Code NF" font-size="10.00">&lt; D, P &gt;</text>
<text text-anchor="start" x="56" y="-445.5" font-family="Cascadia Code NF" font-size="10.00">+</text>
<text text-anchor="start" x="66" y="-445.5" font-family="Cascadia Code NF" font-size="10.00">kSlotCountOffset</text>
<text text-anchor="start" x="56" y="-429.5" font-family="Cascadia Code NF" font-size="10.00">+</text>
<text text-anchor="start" x="66" y="-429.5" font-family="Cascadia Code NF" font-size="10.00">kSlotCountOffsetEnd</text>
<text text-anchor="start" x="56" y="-413.5" font-family="Cascadia Code NF" font-size="10.00">+</text>
<text text-anchor="start" x="66" y="-413.5" font-family="Cascadia Code NF" font-size="10.00">kHeaderSize</text>
<text text-anchor="start" x="56" y="-397.5" font-family="Cascadia Code NF" font-size="10.00">+</text>
<text text-anchor="start" x="66" y="-397.5" font-family="Cascadia Code NF" font-size="10.00">kSlotsOffset</text>
<text text-anchor="start" x="56" y="-381.5" font-family="Cascadia Code NF" font-size="10.00">+</text>
<text text-anchor="start" x="66" y="-381.5" font-family="Cascadia Code NF" font-size="10.00">kSlotsOffsetEnd</text>
<text text-anchor="start" x="56" y="-365.5" font-family="Cascadia Code NF" font-size="10.00">+</text>
<text text-anchor="start" x="66" y="-365.5" font-family="Cascadia Code NF" font-size="10.00">kStartOfWeakFieldsOffset</text>
<text text-anchor="start" x="56" y="-349.5" font-family="Cascadia Code NF" font-size="10.00">+</text>
<text text-anchor="start" x="66" y="-349.5" font-family="Cascadia Code NF" font-size="10.00">kEndOfWeakFieldsOffset</text>
<text text-anchor="start" x="56" y="-333.5" font-family="Cascadia Code NF" font-size="10.00">+</text>
<text text-anchor="start" x="66" y="-333.5" font-family="Cascadia Code NF" font-size="10.00">kStartOfStrongFieldsOffset</text>
<text text-anchor="start" x="56" y="-317.5" font-family="Cascadia Code NF" font-size="10.00">+</text>
<text text-anchor="start" x="66" y="-317.5" font-family="Cascadia Code NF" font-size="10.00">kEndOfStrongFieldsOffset</text>
<text text-anchor="start" x="56" y="-301.5" font-family="Cascadia Code NF" font-size="10.00">+</text>
<text text-anchor="start" x="66" y="-301.5" font-family="Cascadia Code NF" font-size="10.00">slot_count()</text>
<text text-anchor="start" x="56" y="-285.5" font-family="Cascadia Code NF" font-size="10.00">+</text>
<text text-anchor="start" x="66" y="-285.5" font-family="Cascadia Code NF" font-size="10.00">set_slot_count()</text>
<text text-anchor="start" x="56" y="-269.5" font-family="Cascadia Code NF" font-size="10.00">+</text>
<text text-anchor="start" x="66" y="-269.5" font-family="Cascadia Code NF" font-size="10.00">slots_start_source</text>
<text text-anchor="start" x="66" y="-256.75" font-family="Cascadia Code NF" font-size="10.00">_position()</text>
<text text-anchor="start" x="56" y="-240.5" font-family="Cascadia Code NF" font-size="10.00">+</text>
<text text-anchor="start" x="66" y="-240.5" font-family="Cascadia Code NF" font-size="10.00">set_slots_start_source</text>
<text text-anchor="start" x="66" y="-227.75" font-family="Cascadia Code NF" font-size="10.00">_position()</text>
<text text-anchor="start" x="56" y="-211.5" font-family="Cascadia Code NF" font-size="10.00">+</text>
<text text-anchor="start" x="66" y="-211.5" font-family="Cascadia Code NF" font-size="10.00">slots_end_source_position()</text>
<text text-anchor="start" x="56" y="-195.5" font-family="Cascadia Code NF" font-size="10.00">+</text>
<text text-anchor="start" x="66" y="-195.5" font-family="Cascadia Code NF" font-size="10.00">set_slots_end_source</text>
<text text-anchor="start" x="66" y="-182.75" font-family="Cascadia Code NF" font-size="10.00">_position()</text>
<text text-anchor="start" x="56" y="-166.5" font-family="Cascadia Code NF" font-size="10.00">+</text>
<text text-anchor="start" x="66" y="-166.5" font-family="Cascadia Code NF" font-size="10.00">slots_block_count()</text>
<text text-anchor="start" x="56" y="-150.5" font-family="Cascadia Code NF" font-size="10.00">+</text>
<text text-anchor="start" x="66" y="-150.5" font-family="Cascadia Code NF" font-size="10.00">set_slots_block_count()</text>
<text text-anchor="start" x="56" y="-134.5" font-family="Cascadia Code NF" font-size="10.00">+</text>
<text text-anchor="start" x="66" y="-134.5" font-family="Cascadia Code NF" font-size="10.00">slots_padding()</text>
<text text-anchor="start" x="56" y="-118.5" font-family="Cascadia Code NF" font-size="10.00">+</text>
<text text-anchor="start" x="66" y="-118.5" font-family="Cascadia Code NF" font-size="10.00">set_slots_padding()</text>
<text text-anchor="start" x="56" y="-102.5" font-family="Cascadia Code NF" font-size="10.00">+</text>
<text text-anchor="start" x="66" y="-102.5" font-family="Cascadia Code NF" font-size="10.00">AllocatedSize()</text>
<text text-anchor="start" x="56" y="-86.5" font-family="Cascadia Code NF" font-size="10.00">+</text>
<text text-anchor="start" x="66" y="-86.5" font-family="Cascadia Code NF" font-size="10.00">TorqueGeneratedCoverageInfo()</text>
<text text-anchor="start" x="56" y="-70.5" font-family="Cascadia Code NF" font-size="10.00">+</text>
<text text-anchor="start" x="66" y="-70.5" font-family="Cascadia Code NF" font-size="10.00">cast()</text>
<text text-anchor="start" x="56" y="-54.5" font-family="Cascadia Code NF" font-size="10.00">+</text>
<text text-anchor="start" x="66" y="-54.5" font-family="Cascadia Code NF" font-size="10.00">unchecked_cast()</text>
<text text-anchor="start" x="56" y="-38.5" font-family="Cascadia Code NF" font-size="10.00">+</text>
<text text-anchor="start" x="66" y="-38.5" font-family="Cascadia Code NF" font-size="10.00">SizeFor()</text>
<text text-anchor="start" x="56" y="-22.5" font-family="Cascadia Code NF" font-size="10.00">#</text>
<text text-anchor="start" x="66" y="-22.5" font-family="Cascadia Code NF" font-size="10.00">TorqueGeneratedCoverageInfo()</text>
<text text-anchor="start" x="56" y="-6.5" font-family="Cascadia Code NF" font-size="10.00">#</text>
<text text-anchor="start" x="66" y="-6.5" font-family="Cascadia Code NF" font-size="10.00">TorqueGeneratedCoverageInfo()</text>
<polygon fill="#666666" stroke="#666666" points="52,-457 52,-457 244,-457 244,-457 52,-457"/>
<polygon fill="#666666" stroke="#666666" points="52,-313 52,-313 64,-313 64,-313 52,-313"/>
<polygon fill="#666666" stroke="#666666" points="64,-313 64,-313 244,-313 244,-313 64,-313"/>
<polygon fill="none" stroke="#666666" points="52,0 52,-488 244,-488 244,0 52,0"/>
</a>
</g>
</g>
<!-- Node2 -->
<g id="Node000002" class="node">
<title>Node2</title>
<g id="a_Node000002"><a xlink:href="../../db/d72/classP.html" target="_top" xlink:title=" ">
<polygon fill="white" stroke="none" points="16,-270 0,-270 0,-218 16,-218 16,-270"/>
<text text-anchor="start" x="5" y="-256.5" font-family="Cascadia Code NF" font-size="10.00">P</text>
<text text-anchor="start" x="5" y="-240.5" font-family="Cascadia Code NF" font-size="10.00"> </text>
<text text-anchor="start" x="5" y="-224.5" font-family="Cascadia Code NF" font-size="10.00"> </text>
<polygon fill="#bfbfbf" stroke="#bfbfbf" points="0,-252 0,-252 16,-252 16,-252 0,-252"/>
<polygon fill="#bfbfbf" stroke="#bfbfbf" points="0,-236 0,-236 16,-236 16,-236 0,-236"/>
<polygon fill="none" stroke="#bfbfbf" points="0,-218 0,-270 16,-270 16,-218 0,-218"/>
</a>
</g>
</g>
<!-- Node2&#45;&gt;Node1 -->
<g id="edge1_Node000001_Node000002" class="edge">
<title>Node2&#45;&gt;Node1</title>
<g id="a_edge1_Node000001_Node000002"><a xlink:title=" ">
<path fill="none" stroke="#63b8ff" d="M26.97,-244C34,-244 42.63,-244 52.01,-244"/>
<polygon fill="none" stroke="#63b8ff" points="27.17,-240.5 17.17,-244 27.17,-247.5 27.17,-240.5"/>
</a>
</g>
</g>
</g>
</svg>
