<?xml version="1.0" encoding="UTF-8" standalone="no"?>
<!DOCTYPE svg PUBLIC "-//W3C//DTD SVG 1.1//EN"
 "http://www.w3.org/Graphics/SVG/1.1/DTD/svg11.dtd">
<!-- Generated by graphviz version 11.0.0 (20240428.1522)
 -->
<!-- Title: v8::internal::SourceTextModuleDescriptor::Entry Pages: 1 -->
<svg width="548pt" height="388pt"
 viewBox="0.00 0.00 548.00 388.00" xmlns="http://www.w3.org/2000/svg" xmlns:xlink="http://www.w3.org/1999/xlink">
<g id="graph0" class="graph" transform="scale(1 1) rotate(0) translate(4 384)">
<title>v8::internal::SourceTextModuleDescriptor::Entry</title>
<!-- Node1 -->
<g id="Node000001" class="node">
<title>Node1</title>
<g id="a_Node000001"><a xlink:title=" ">
<polygon fill="#999999" stroke="none" points="540,-250.5 386,-250.5 386,-169.5 540,-169.5 540,-250.5"/>
<text text-anchor="start" x="391" y="-237" font-family="Cascadia Code NF" font-size="10.00">v8::internal::SourceText</text>
<text text-anchor="start" x="394" y="-224.25" font-family="Cascadia Code NF" font-size="10.00">ModuleDescriptor::Entry</text>
<text text-anchor="start" x="460" y="-208" font-family="Cascadia Code NF" font-size="10.00"> </text>
<text text-anchor="start" x="407.5" y="-192" font-family="Cascadia Code NF" font-size="10.00">+</text>
<text text-anchor="start" x="435" y="-192" font-family="Cascadia Code NF" font-size="10.00">Entry()</text>
<text text-anchor="start" x="407.5" y="-176" font-family="Cascadia Code NF" font-size="10.00">+</text>
<text text-anchor="start" x="435" y="-176" font-family="Cascadia Code NF" font-size="10.00">Serialize()</text>
<polygon fill="#666666" stroke="#666666" points="386,-219.5 386,-219.5 540,-219.5 540,-219.5 386,-219.5"/>
<polygon fill="#666666" stroke="#666666" points="386,-203.5 386,-203.5 540,-203.5 540,-203.5 386,-203.5"/>
<polygon fill="none" stroke="#666666" points="386,-169.5 386,-250.5 540,-250.5 540,-169.5 386,-169.5"/>
</a>
</g>
</g>
<!-- Node2 -->
<g id="Node000002" class="node">
<title>Node2</title>
<g id="a_Node000002"><a xlink:href="../../dc/dca/classv8_1_1internal_1_1ZoneObject.html" target="_top" xlink:title=" ">
<polygon fill="white" stroke="none" points="272,-380 118,-380 118,-280 272,-280 272,-380"/>
<text text-anchor="start" x="123" y="-366.5" font-family="Cascadia Code NF" font-size="10.00">v8::internal::ZoneObject</text>
<text text-anchor="start" x="192" y="-350.5" font-family="Cascadia Code NF" font-size="10.00"> </text>
<text text-anchor="start" x="130.5" y="-334.5" font-family="Cascadia Code NF" font-size="10.00">+</text>
<text text-anchor="start" x="149" y="-334.5" font-family="Cascadia Code NF" font-size="10.00">operator new()</text>
<text text-anchor="start" x="130.5" y="-318.5" font-family="Cascadia Code NF" font-size="10.00">+</text>
<text text-anchor="start" x="149" y="-318.5" font-family="Cascadia Code NF" font-size="10.00">operator new()</text>
<text text-anchor="start" x="130.5" y="-302.5" font-family="Cascadia Code NF" font-size="10.00">+</text>
<text text-anchor="start" x="149" y="-302.5" font-family="Cascadia Code NF" font-size="10.00">operator delete()</text>
<text text-anchor="start" x="130.5" y="-286.5" font-family="Cascadia Code NF" font-size="10.00">+</text>
<text text-anchor="start" x="149" y="-286.5" font-family="Cascadia Code NF" font-size="10.00">operator delete()</text>
<polygon fill="#bfbfbf" stroke="#bfbfbf" points="118,-362 118,-362 272,-362 272,-362 118,-362"/>
<polygon fill="#bfbfbf" stroke="#bfbfbf" points="118,-346 118,-346 272,-346 272,-346 118,-346"/>
<polygon fill="none" stroke="#bfbfbf" points="118,-280 118,-380 272,-380 272,-280 118,-280"/>
</a>
</g>
</g>
<!-- Node2&#45;&gt;Node1 -->
<g id="edge1_Node000001_Node000002" class="edge">
<title>Node2&#45;&gt;Node1</title>
<g id="a_edge1_Node000001_Node000002"><a xlink:title=" ">
<path fill="none" stroke="#63b8ff" d="M282.1,-291.16C315.57,-276.06 353.59,-258.91 386.03,-244.27"/>
<polygon fill="none" stroke="#63b8ff" points="280.92,-287.85 273.25,-295.15 283.8,-294.23 280.92,-287.85"/>
</a>
</g>
</g>
<!-- Node3 -->
<g id="Node000003" class="node">
<title>Node3</title>
<g id="a_Node000003"><a xlink:href="../../da/d0e/structv8_1_1internal_1_1Scanner_1_1Location.html" target="_top" xlink:title=" ">
<polygon fill="white" stroke="none" points="263,-199.5 127,-199.5 127,-70.5 263,-70.5 263,-199.5"/>
<text text-anchor="start" x="132" y="-186" font-family="Cascadia Code NF" font-size="10.00">v8::internal::Scanner</text>
<text text-anchor="start" x="165" y="-173.25" font-family="Cascadia Code NF" font-size="10.00">::Location</text>
<text text-anchor="start" x="192" y="-157" font-family="Cascadia Code NF" font-size="10.00"> </text>
<text text-anchor="start" x="145.5" y="-141" font-family="Cascadia Code NF" font-size="10.00">+</text>
<text text-anchor="start" x="170" y="-141" font-family="Cascadia Code NF" font-size="10.00">Location()</text>
<text text-anchor="start" x="145.5" y="-125" font-family="Cascadia Code NF" font-size="10.00">+</text>
<text text-anchor="start" x="170" y="-125" font-family="Cascadia Code NF" font-size="10.00">Location()</text>
<text text-anchor="start" x="145.5" y="-109" font-family="Cascadia Code NF" font-size="10.00">+</text>
<text text-anchor="start" x="170" y="-109" font-family="Cascadia Code NF" font-size="10.00">length()</text>
<text text-anchor="start" x="145.5" y="-93" font-family="Cascadia Code NF" font-size="10.00">+</text>
<text text-anchor="start" x="170" y="-93" font-family="Cascadia Code NF" font-size="10.00">IsValid()</text>
<text text-anchor="start" x="145.5" y="-77" font-family="Cascadia Code NF" font-size="10.00">+</text>
<text text-anchor="start" x="170" y="-77" font-family="Cascadia Code NF" font-size="10.00">invalid()</text>
<polygon fill="#bfbfbf" stroke="#bfbfbf" points="127,-168.5 127,-168.5 263,-168.5 263,-168.5 127,-168.5"/>
<polygon fill="#bfbfbf" stroke="#bfbfbf" points="127,-152.5 127,-152.5 263,-152.5 263,-152.5 127,-152.5"/>
<polygon fill="none" stroke="#bfbfbf" points="127,-70.5 127,-199.5 263,-199.5 263,-70.5 127,-70.5"/>
</a>
</g>
</g>
<!-- Node3&#45;&gt;Node1 -->
<g id="edge2_Node000001_Node000003" class="edge">
<title>Node3&#45;&gt;Node1</title>
<g id="a_edge2_Node000001_Node000003"><a xlink:title=" ">
<path fill="none" stroke="#63b8ff" d="M262.78,-153.83C296.52,-163.34 337.89,-175.01 374.17,-185.23"/>
<polygon fill="none" stroke="#63b8ff" points="373.84,-185.14 380.7,-182.92 385.39,-188.4 378.53,-190.62 373.84,-185.14"/>
</a>
</g>
<text text-anchor="middle" x="329" y="-184.25" font-family="Cascadia Code NF" font-size="10.00" fill="grey"> +location</text>
</g>
<!-- Node4 -->
<g id="Node000004" class="node">
<title>Node4</title>
<g id="a_Node000004"><a xlink:href="../../d1/da0/classint.html" target="_top" xlink:title=" ">
<polygon fill="white" stroke="none" points="28,-211 0,-211 0,-159 28,-159 28,-211"/>
<text text-anchor="start" x="5" y="-197.5" font-family="Cascadia Code NF" font-size="10.00">int</text>
<text text-anchor="start" x="11" y="-181.5" font-family="Cascadia Code NF" font-size="10.00"> </text>
<text text-anchor="start" x="11" y="-165.5" font-family="Cascadia Code NF" font-size="10.00"> </text>
<polygon fill="#bfbfbf" stroke="#bfbfbf" points="0,-193 0,-193 28,-193 28,-193 0,-193"/>
<polygon fill="#bfbfbf" stroke="#bfbfbf" points="0,-177 0,-177 28,-177 28,-177 0,-177"/>
<polygon fill="none" stroke="#bfbfbf" points="0,-159 0,-211 28,-211 28,-159 0,-159"/>
</a>
</g>
</g>
<!-- Node4&#45;&gt;Node1 -->
<g id="edge5_Node000001_Node000004" class="edge">
<title>Node4&#45;&gt;Node1</title>
<g id="a_edge5_Node000001_Node000004"><a xlink:title=" ">
<path fill="none" stroke="#63b8ff" d="M27.81,-195.39C33.12,-199.11 39.54,-202.9 46,-205 76.48,-214.91 85.96,-208.06 118,-209 204.83,-211.54 304.04,-211.51 373.53,-211.02"/>
<polygon fill="none" stroke="#63b8ff" points="373.25,-211.02 379.22,-206.98 385.25,-210.93 379.28,-214.98 373.25,-211.02"/>
</a>
</g>
<text text-anchor="middle" x="195" y="-227" font-family="Cascadia Code NF" font-size="10.00" fill="grey"> +cell_index</text>
<text text-anchor="middle" x="195" y="-214.25" font-family="Cascadia Code NF" font-size="10.00" fill="grey">+module_request</text>
</g>
<!-- Node4&#45;&gt;Node3 -->
<g id="edge3_Node000003_Node000004" class="edge">
<title>Node4&#45;&gt;Node3</title>
<g id="a_edge3_Node000003_Node000004"><a xlink:title=" ">
<path fill="none" stroke="#63b8ff" d="M27.87,-181.4C46.29,-176.26 81.64,-166.39 115.01,-157.06"/>
<polygon fill="none" stroke="#63b8ff" points="114.75,-157.14 119.46,-151.67 126.31,-153.91 121.61,-159.37 114.75,-157.14"/>
</a>
</g>
<text text-anchor="middle" x="73" y="-191" font-family="Cascadia Code NF" font-size="10.00" fill="grey"> +beg_pos</text>
<text text-anchor="middle" x="73" y="-178.25" font-family="Cascadia Code NF" font-size="10.00" fill="grey">+end_pos</text>
</g>
<!-- Node5 -->
<g id="Node000005" class="node">
<title>Node5</title>
<g id="a_Node000005"><a xlink:title=" ">
<polygon fill="white" stroke="none" points="215,-52 175,-52 175,0 215,0 215,-52"/>
<text text-anchor="start" x="180" y="-38.5" font-family="Cascadia Code NF" font-size="10.00">const</text>
<text text-anchor="start" x="192" y="-22.5" font-family="Cascadia Code NF" font-size="10.00"> </text>
<text text-anchor="start" x="192" y="-6.5" font-family="Cascadia Code NF" font-size="10.00"> </text>
<polygon fill="#bfbfbf" stroke="#bfbfbf" points="175,-34 175,-34 215,-34 215,-34 175,-34"/>
<polygon fill="#bfbfbf" stroke="#bfbfbf" points="175,-18 175,-18 215,-18 215,-18 175,-18"/>
<polygon fill="none" stroke="#bfbfbf" points="175,0 175,-52 215,-52 215,0 175,0"/>
</a>
</g>
</g>
<!-- Node5&#45;&gt;Node1 -->
<g id="edge4_Node000001_Node000005" class="edge">
<title>Node5&#45;&gt;Node1</title>
<g id="a_edge4_Node000001_Node000005"><a xlink:title=" ">
<path fill="none" stroke="#63b8ff" d="M214.7,-34.19C230.26,-41.15 252.87,-51.65 272,-62 316,-85.8 328.31,-90.3 368,-120.75 383.82,-132.88 399.95,-147.31 414.28,-160.99"/>
<polygon fill="none" stroke="#63b8ff" points="414.14,-160.86 421.24,-162.16 422.76,-169.21 415.67,-167.9 414.14,-160.86"/>
</a>
</g>
<text text-anchor="middle" x="329" y="-148.75" font-family="Cascadia Code NF" font-size="10.00" fill="grey"> +export_name</text>
<text text-anchor="middle" x="329" y="-136" font-family="Cascadia Code NF" font-size="10.00" fill="grey">+import_name</text>
<text text-anchor="middle" x="329" y="-123.25" font-family="Cascadia Code NF" font-size="10.00" fill="grey">+local_name</text>
</g>
</g>
</svg>
