<?xml version="1.0" encoding="UTF-8" standalone="no"?>
<!DOCTYPE svg PUBLIC "-//W3C//DTD SVG 1.1//EN"
 "http://www.w3.org/Graphics/SVG/1.1/DTD/svg11.dtd">
<!-- Generated by graphviz version 11.0.0 (20240428.1522)
 -->
<!-- Title: v8::internal::AsyncGeneratorRequest Pages: 1 -->
<svg width="500pt" height="605pt"
 viewBox="0.00 0.00 500.00 605.00" xmlns="http://www.w3.org/2000/svg" xmlns:xlink="http://www.w3.org/1999/xlink">
<g id="graph0" class="graph" transform="scale(1 1) rotate(0) translate(4 601)">
<title>v8::internal::AsyncGeneratorRequest</title>
<!-- Node1 -->
<g id="Node000001" class="node">
<title>Node1</title>
<g id="a_Node000001"><a xlink:title=" ">
<polygon fill="#999999" stroke="none" points="492,-331 314,-331 314,-266 492,-266 492,-331"/>
<text text-anchor="start" x="319" y="-317.5" font-family="Cascadia Code NF" font-size="10.00">v8::internal::AsyncGenerator</text>
<text text-anchor="start" x="382" y="-304.75" font-family="Cascadia Code NF" font-size="10.00">Request</text>
<text text-anchor="start" x="400" y="-288.5" font-family="Cascadia Code NF" font-size="10.00"> </text>
<text text-anchor="start" x="400" y="-272.5" font-family="Cascadia Code NF" font-size="10.00"> </text>
<polygon fill="#666666" stroke="#666666" points="314,-300 314,-300 492,-300 492,-300 314,-300"/>
<polygon fill="#666666" stroke="#666666" points="314,-284 314,-284 492,-284 492,-284 314,-284"/>
<polygon fill="none" stroke="#666666" points="314,-266 314,-331 492,-331 492,-266 314,-266"/>
</a>
</g>
</g>
<!-- Node2 -->
<g id="Node000002" class="node">
<title>Node2</title>
<g id="a_Node000002"><a xlink:href="$da/dbd/classTorqueGeneratedAsyncGeneratorRequest.html" xlink:title=" ">
<polygon fill="white" stroke="none" points="278,-597 82,-597 82,0 278,0 278,-597"/>
<text text-anchor="start" x="87" y="-583.5" font-family="Cascadia Code NF" font-size="10.00">TorqueGeneratedAsyncGenerator</text>
<text text-anchor="start" x="87" y="-570.75" font-family="Cascadia Code NF" font-size="10.00">Request&lt; AsyncGeneratorRequest,</text>
<text text-anchor="start" x="153" y="-558" font-family="Cascadia Code NF" font-size="10.00"> Struct &gt;</text>
<text text-anchor="start" x="87" y="-541.5" font-family="Cascadia Code NF" font-size="10.00">+</text>
<text text-anchor="start" x="98" y="-541.5" font-family="Cascadia Code NF" font-size="10.00">kStartOfStrongFieldsOffset</text>
<text text-anchor="start" x="87" y="-525.5" font-family="Cascadia Code NF" font-size="10.00">+</text>
<text text-anchor="start" x="98" y="-525.5" font-family="Cascadia Code NF" font-size="10.00">kNextOffset</text>
<text text-anchor="start" x="87" y="-509.5" font-family="Cascadia Code NF" font-size="10.00">+</text>
<text text-anchor="start" x="98" y="-509.5" font-family="Cascadia Code NF" font-size="10.00">kNextOffsetEnd</text>
<text text-anchor="start" x="87" y="-493.5" font-family="Cascadia Code NF" font-size="10.00">+</text>
<text text-anchor="start" x="98" y="-493.5" font-family="Cascadia Code NF" font-size="10.00">kResumeModeOffset</text>
<text text-anchor="start" x="87" y="-477.5" font-family="Cascadia Code NF" font-size="10.00">+</text>
<text text-anchor="start" x="98" y="-477.5" font-family="Cascadia Code NF" font-size="10.00">kResumeModeOffsetEnd</text>
<text text-anchor="start" x="87" y="-461.5" font-family="Cascadia Code NF" font-size="10.00">+</text>
<text text-anchor="start" x="98" y="-461.5" font-family="Cascadia Code NF" font-size="10.00">kValueOffset</text>
<text text-anchor="start" x="87" y="-445.5" font-family="Cascadia Code NF" font-size="10.00">+</text>
<text text-anchor="start" x="98" y="-445.5" font-family="Cascadia Code NF" font-size="10.00">kValueOffsetEnd</text>
<text text-anchor="start" x="87" y="-429.5" font-family="Cascadia Code NF" font-size="10.00">+</text>
<text text-anchor="start" x="98" y="-429.5" font-family="Cascadia Code NF" font-size="10.00">kPromiseOffset</text>
<text text-anchor="start" x="87" y="-413.5" font-family="Cascadia Code NF" font-size="10.00">+</text>
<text text-anchor="start" x="98" y="-413.5" font-family="Cascadia Code NF" font-size="10.00">kPromiseOffsetEnd</text>
<text text-anchor="start" x="87" y="-397.5" font-family="Cascadia Code NF" font-size="10.00">+</text>
<text text-anchor="start" x="98" y="-397.5" font-family="Cascadia Code NF" font-size="10.00">kEndOfStrongFieldsOffset</text>
<text text-anchor="start" x="87" y="-381.5" font-family="Cascadia Code NF" font-size="10.00">+</text>
<text text-anchor="start" x="98" y="-381.5" font-family="Cascadia Code NF" font-size="10.00">kStartOfWeakFieldsOffset</text>
<text text-anchor="start" x="87" y="-365.5" font-family="Cascadia Code NF" font-size="10.00">+</text>
<text text-anchor="start" x="98" y="-365.5" font-family="Cascadia Code NF" font-size="10.00">kEndOfWeakFieldsOffset</text>
<text text-anchor="start" x="87" y="-349.5" font-family="Cascadia Code NF" font-size="10.00">+</text>
<text text-anchor="start" x="98" y="-349.5" font-family="Cascadia Code NF" font-size="10.00">kHeaderSize</text>
<text text-anchor="start" x="87" y="-333.5" font-family="Cascadia Code NF" font-size="10.00">+</text>
<text text-anchor="start" x="98" y="-333.5" font-family="Cascadia Code NF" font-size="10.00">kSize</text>
<text text-anchor="start" x="87" y="-317.5" font-family="Cascadia Code NF" font-size="10.00">+</text>
<text text-anchor="start" x="98" y="-317.5" font-family="Cascadia Code NF" font-size="10.00">next()</text>
<text text-anchor="start" x="87" y="-301.5" font-family="Cascadia Code NF" font-size="10.00">+</text>
<text text-anchor="start" x="98" y="-301.5" font-family="Cascadia Code NF" font-size="10.00">next()</text>
<text text-anchor="start" x="87" y="-285.5" font-family="Cascadia Code NF" font-size="10.00">+</text>
<text text-anchor="start" x="98" y="-285.5" font-family="Cascadia Code NF" font-size="10.00">set_next()</text>
<text text-anchor="start" x="87" y="-269.5" font-family="Cascadia Code NF" font-size="10.00">+</text>
<text text-anchor="start" x="98" y="-269.5" font-family="Cascadia Code NF" font-size="10.00">resume_mode()</text>
<text text-anchor="start" x="87" y="-253.5" font-family="Cascadia Code NF" font-size="10.00">+</text>
<text text-anchor="start" x="98" y="-253.5" font-family="Cascadia Code NF" font-size="10.00">set_resume_mode()</text>
<text text-anchor="start" x="87" y="-237.5" font-family="Cascadia Code NF" font-size="10.00">+</text>
<text text-anchor="start" x="98" y="-237.5" font-family="Cascadia Code NF" font-size="10.00">value()</text>
<text text-anchor="start" x="87" y="-221.5" font-family="Cascadia Code NF" font-size="10.00">+</text>
<text text-anchor="start" x="98" y="-221.5" font-family="Cascadia Code NF" font-size="10.00">value()</text>
<text text-anchor="start" x="87" y="-205.5" font-family="Cascadia Code NF" font-size="10.00">+</text>
<text text-anchor="start" x="98" y="-205.5" font-family="Cascadia Code NF" font-size="10.00">set_value()</text>
<text text-anchor="start" x="87" y="-189.5" font-family="Cascadia Code NF" font-size="10.00">+</text>
<text text-anchor="start" x="98" y="-189.5" font-family="Cascadia Code NF" font-size="10.00">promise()</text>
<text text-anchor="start" x="87" y="-173.5" font-family="Cascadia Code NF" font-size="10.00">+</text>
<text text-anchor="start" x="98" y="-173.5" font-family="Cascadia Code NF" font-size="10.00">promise()</text>
<text text-anchor="start" x="87" y="-157.5" font-family="Cascadia Code NF" font-size="10.00">+</text>
<text text-anchor="start" x="98" y="-157.5" font-family="Cascadia Code NF" font-size="10.00">set_promise()</text>
<text text-anchor="start" x="87" y="-141.5" font-family="Cascadia Code NF" font-size="10.00">+</text>
<text text-anchor="start" x="98" y="-141.5" font-family="Cascadia Code NF" font-size="10.00">AllocatedSize()</text>
<text text-anchor="start" x="87" y="-125.5" font-family="Cascadia Code NF" font-size="10.00">+</text>
<text text-anchor="start" x="98" y="-125.5" font-family="Cascadia Code NF" font-size="10.00">TorqueGeneratedAsyncGenerator</text>
<text text-anchor="start" x="98" y="-112.75" font-family="Cascadia Code NF" font-size="10.00">Request()</text>
<text text-anchor="start" x="87" y="-96.5" font-family="Cascadia Code NF" font-size="10.00">+</text>
<text text-anchor="start" x="98" y="-96.5" font-family="Cascadia Code NF" font-size="10.00">cast()</text>
<text text-anchor="start" x="87" y="-80.5" font-family="Cascadia Code NF" font-size="10.00">+</text>
<text text-anchor="start" x="98" y="-80.5" font-family="Cascadia Code NF" font-size="10.00">unchecked_cast()</text>
<text text-anchor="start" x="87" y="-64.5" font-family="Cascadia Code NF" font-size="10.00">+</text>
<text text-anchor="start" x="98" y="-64.5" font-family="Cascadia Code NF" font-size="10.00">SizeFor()</text>
<text text-anchor="start" x="87" y="-48.5" font-family="Cascadia Code NF" font-size="10.00">#</text>
<text text-anchor="start" x="98" y="-48.5" font-family="Cascadia Code NF" font-size="10.00">TorqueGeneratedAsyncGenerator</text>
<text text-anchor="start" x="98" y="-35.75" font-family="Cascadia Code NF" font-size="10.00">Request()</text>
<text text-anchor="start" x="87" y="-19.5" font-family="Cascadia Code NF" font-size="10.00">#</text>
<text text-anchor="start" x="98" y="-19.5" font-family="Cascadia Code NF" font-size="10.00">TorqueGeneratedAsyncGenerator</text>
<text text-anchor="start" x="98" y="-6.75" font-family="Cascadia Code NF" font-size="10.00">Request()</text>
<polygon fill="#bfbfbf" stroke="#bfbfbf" points="82,-553 82,-553 278,-553 278,-553 82,-553"/>
<polygon fill="#bfbfbf" stroke="#bfbfbf" points="82,-329 82,-329 96,-329 96,-329 82,-329"/>
<polygon fill="#bfbfbf" stroke="#bfbfbf" points="96,-329 96,-329 278,-329 278,-329 96,-329"/>
<polygon fill="none" stroke="#bfbfbf" points="82,0 82,-597 278,-597 278,0 82,0"/>
</a>
</g>
</g>
<!-- Node2&#45;&gt;Node1 -->
<g id="edge1_Node000001_Node000002" class="edge">
<title>Node2&#45;&gt;Node1</title>
<g id="a_edge1_Node000001_Node000002"><a xlink:title=" ">
<path fill="none" stroke="#63b8ff" d="M289.29,-298.5C297.63,-298.5 306,-298.5 314.19,-298.5"/>
<polygon fill="none" stroke="#63b8ff" points="289.45,-295 279.45,-298.5 289.45,-302 289.45,-295"/>
</a>
</g>
</g>
<!-- Node3 -->
<g id="Node000003" class="node">
<title>Node3</title>
<g id="a_Node000003"><a xlink:title=" ">
<polygon fill="white" stroke="none" points="46,-324.5 0,-324.5 0,-272.5 46,-272.5 46,-324.5"/>
<text text-anchor="start" x="5" y="-311" font-family="Cascadia Code NF" font-size="10.00">Struct</text>
<text text-anchor="start" x="20" y="-295" font-family="Cascadia Code NF" font-size="10.00"> </text>
<text text-anchor="start" x="20" y="-279" font-family="Cascadia Code NF" font-size="10.00"> </text>
<polygon fill="#bfbfbf" stroke="#bfbfbf" points="0,-306.5 0,-306.5 46,-306.5 46,-306.5 0,-306.5"/>
<polygon fill="#bfbfbf" stroke="#bfbfbf" points="0,-290.5 0,-290.5 46,-290.5 46,-290.5 0,-290.5"/>
<polygon fill="none" stroke="#bfbfbf" points="0,-272.5 0,-324.5 46,-324.5 46,-272.5 0,-272.5"/>
</a>
</g>
</g>
<!-- Node3&#45;&gt;Node2 -->
<g id="edge2_Node000002_Node000003" class="edge">
<title>Node3&#45;&gt;Node2</title>
<g id="a_edge2_Node000002_Node000003"><a xlink:title=" ">
<path fill="none" stroke="#63b8ff" d="M57.16,-298.5C64.85,-298.5 73.41,-298.5 82.34,-298.5"/>
<polygon fill="none" stroke="#63b8ff" points="57.39,-295 47.39,-298.5 57.39,-302 57.39,-295"/>
</a>
</g>
</g>
</g>
</svg>
