<?xml version="1.0" encoding="UTF-8" standalone="no"?>
<!DOCTYPE svg PUBLIC "-//W3C//DTD SVG 1.1//EN"
 "http://www.w3.org/Graphics/SVG/1.1/DTD/svg11.dtd">
<!-- Generated by graphviz version 11.0.0 (20240428.1522)
 -->
<!-- Title: v8::internal::IndirectPointerWriteBarrierDescriptor Pages: 1 -->
<!--zoomable 627 -->

<svg id="main" version="1.1" xmlns="http://www.w3.org/2000/svg" xmlns:xlink="http://www.w3.org/1999/xlink" xml:space="preserve" onload="init(evt)">
<style type="text/css"><![CDATA[
.node, .edge {opacity: 0.7;}
.node.selected, .edge.selected {opacity: 1;}
.edge:hover path { stroke: red; }
.edge:hover polygon { stroke: red; fill: red; }
svg#main { background-color: #111; }
]]></style>

<defs>
  <circle id="rim" cx="0" cy="0" r="7"/>
  <circle id="rim2" cx="0" cy="0" r="3.5"/>
  <g id="zoomPlus">
    <use xlink:href="#rim" fill="#404040"><set attributeName="fill" to="#808080" begin="zoomplus.mouseover" end="zoomplus.mouseout"/></use>
    <path d="M-4,0h8M0,-4v8" fill="none" stroke="white" stroke-width="1.5" pointer-events="none"/>
  </g>
  <g id="zoomMin">
    <use xlink:href="#rim" fill="#404040"><set attributeName="fill" to="#808080" begin="zoomminus.mouseover" end="zoomminus.mouseout"/></use>
    <path d="M-4,0h8" fill="none" stroke="white" stroke-width="1.5" pointer-events="none"/>
  </g>
  <g id="arrowUp" transform="translate(30 24)">
    <use xlink:href="#rim"/>
    <path pointer-events="none" fill="none" stroke="white" stroke-width="1.5" d="M0,-3.0v7 M-2.5,-0.5L0,-3.0L2.5,-0.5"/>
  </g>
  <g id="arrowRight" transform="rotate(90) translate(36 -43)">
    <use xlink:href="#rim"/>
    <path pointer-events="none" fill="none" stroke="white" stroke-width="1.5" d="M0,-3.0v7 M-2.5,-0.5L0,-3.0L2.5,-0.5"/>
  </g>
  <g id="arrowDown" transform="rotate(180) translate(-30 -48)">
    <use xlink:href="#rim"/>
    <path pointer-events="none" fill="none" stroke="white" stroke-width="1.5" d="M0,-3.0v7 M-2.5,-0.5L0,-3.0L2.5,-0.5"/>
  </g>
  <g id="arrowLeft" transform="rotate(270) translate(-36 17)">
    <use xlink:href="#rim"/>
    <path pointer-events="none" fill="none" stroke="white" stroke-width="1.5" d="M0,-3.0v7 M-2.5,-0.5L0,-3.0L2.5,-0.5"/>
  </g>
  <g id="resetDef">
    <use xlink:href="#rim2" fill="#404040"><set attributeName="fill" to="#808080" begin="reset.mouseover" end="reset.mouseout"/></use>
  </g>
</defs>
<script type="application/ecmascript">
var viewWidth = 855;
var viewHeight = 627;
var sectionId = 'dynsection-1';
</script>
<script type="application/ecmascript" xlink:href="../../svg.min.js"/>
<svg id="graph" class="graph">
<g id="viewport">
<title>v8::internal::IndirectPointerWriteBarrierDescriptor</title>
<!-- Node1 -->
<g id="Node000001" class="node">
<title>Node1</title>
<g id="a_Node000001"><a xlink:title=" ">
<polygon fill="#999999" stroke="none" points="847,-129 661,-129 661,0 847,0 847,-129"/>
<text text-anchor="start" x="667" y="-115.5" font-family="Cascadia Code NF" font-size="10.00">v8::internal::IndirectPointer</text>
<text text-anchor="start" x="688" y="-102.75" font-family="Cascadia Code NF" font-size="10.00">WriteBarrierDescriptor</text>
<text text-anchor="start" x="751" y="-86.5" font-family="Cascadia Code NF" font-size="10.00"> </text>
<text text-anchor="start" x="665" y="-70.5" font-family="Cascadia Code NF" font-size="10.00">+</text>
<text text-anchor="start" x="675" y="-70.5" font-family="Cascadia Code NF" font-size="10.00">DEFINE_PARAMETER_TYPES()</text>
<text text-anchor="start" x="665" y="-54.5" font-family="Cascadia Code NF" font-size="10.00">+</text>
<text text-anchor="start" x="675" y="-54.5" font-family="Cascadia Code NF" font-size="10.00">ObjectRegister()</text>
<text text-anchor="start" x="665" y="-38.5" font-family="Cascadia Code NF" font-size="10.00">+</text>
<text text-anchor="start" x="675" y="-38.5" font-family="Cascadia Code NF" font-size="10.00">SlotAddressRegister()</text>
<text text-anchor="start" x="665" y="-22.5" font-family="Cascadia Code NF" font-size="10.00">+</text>
<text text-anchor="start" x="675" y="-22.5" font-family="Cascadia Code NF" font-size="10.00">IndirectPointerTagRegister()</text>
<text text-anchor="start" x="665" y="-6.5" font-family="Cascadia Code NF" font-size="10.00">+</text>
<text text-anchor="start" x="675" y="-6.5" font-family="Cascadia Code NF" font-size="10.00">ComputeSavedRegisters()</text>
<polygon fill="#666666" stroke="#666666" points="661,-98 661,-98 847,-98 847,-98 661,-98"/>
<polygon fill="#666666" stroke="#666666" points="661,-82 661,-82 847,-82 847,-82 661,-82"/>
<polygon fill="none" stroke="#666666" points="661,0 661,-129 847,-129 847,0 661,0"/>
</a>
</g>
</g>
<!-- Node2 -->
<g id="Node000002" class="node">
<title>Node2</title>
<g id="a_Node000002"><a xlink:href="../../d8/d7b/classv8_1_1internal_1_1StaticCallInterfaceDescriptor.html" target="_top" xlink:title=" ">
<polygon fill="white" stroke="none" points="624,-311.5 420,-311.5 420,-57.5 624,-57.5 624,-311.5"/>
<text text-anchor="start" x="429" y="-298" font-family="Cascadia Code NF" font-size="10.00">v8::internal::StaticCall</text>
<text text-anchor="start" x="429" y="-285.25" font-family="Cascadia Code NF" font-size="10.00">InterfaceDescriptor&lt; Indirect</text>
<text text-anchor="start" x="429" y="-272.5" font-family="Cascadia Code NF" font-size="10.00">PointerWriteBarrierDescriptor &gt;</text>
<text text-anchor="start" x="519" y="-256" font-family="Cascadia Code NF" font-size="10.00"> </text>
<text text-anchor="start" x="424" y="-240" font-family="Cascadia Code NF" font-size="10.00">+</text>
<text text-anchor="start" x="434" y="-240" font-family="Cascadia Code NF" font-size="10.00">StaticCallInterfaceDescriptor()</text>
<text text-anchor="start" x="424" y="-224" font-family="Cascadia Code NF" font-size="10.00">+</text>
<text text-anchor="start" x="434" y="-224" font-family="Cascadia Code NF" font-size="10.00">registers()</text>
<text text-anchor="start" x="424" y="-208" font-family="Cascadia Code NF" font-size="10.00">+</text>
<text text-anchor="start" x="434" y="-208" font-family="Cascadia Code NF" font-size="10.00">double_registers()</text>
<text text-anchor="start" x="424" y="-192" font-family="Cascadia Code NF" font-size="10.00">+</text>
<text text-anchor="start" x="434" y="-192" font-family="Cascadia Code NF" font-size="10.00">return_registers()</text>
<text text-anchor="start" x="424" y="-176" font-family="Cascadia Code NF" font-size="10.00">+</text>
<text text-anchor="start" x="434" y="-176" font-family="Cascadia Code NF" font-size="10.00">return_double_registers()</text>
<text text-anchor="start" x="424" y="-160" font-family="Cascadia Code NF" font-size="10.00">+</text>
<text text-anchor="start" x="434" y="-160" font-family="Cascadia Code NF" font-size="10.00">flags()</text>
<text text-anchor="start" x="424" y="-144" font-family="Cascadia Code NF" font-size="10.00">+</text>
<text text-anchor="start" x="434" y="-144" font-family="Cascadia Code NF" font-size="10.00">AllowVarArgs()</text>
<text text-anchor="start" x="424" y="-128" font-family="Cascadia Code NF" font-size="10.00">+</text>
<text text-anchor="start" x="434" y="-128" font-family="Cascadia Code NF" font-size="10.00">HasContextParameter()</text>
<text text-anchor="start" x="424" y="-112" font-family="Cascadia Code NF" font-size="10.00">+</text>
<text text-anchor="start" x="434" y="-112" font-family="Cascadia Code NF" font-size="10.00">GetReturnCount()</text>
<text text-anchor="start" x="424" y="-96" font-family="Cascadia Code NF" font-size="10.00">+</text>
<text text-anchor="start" x="434" y="-96" font-family="Cascadia Code NF" font-size="10.00">GetParameterCount()</text>
<text text-anchor="start" x="424" y="-80" font-family="Cascadia Code NF" font-size="10.00">+</text>
<text text-anchor="start" x="434" y="-80" font-family="Cascadia Code NF" font-size="10.00">GetRegisterParameterCount()</text>
<text text-anchor="start" x="434" y="-64" font-family="Cascadia Code NF" font-size="10.00">and 6 more...</text>
<polygon fill="#bfbfbf" stroke="#bfbfbf" points="420,-267.5 420,-267.5 624,-267.5 624,-267.5 420,-267.5"/>
<polygon fill="#bfbfbf" stroke="#bfbfbf" points="420,-251.5 420,-251.5 624,-251.5 624,-251.5 420,-251.5"/>
<polygon fill="none" stroke="#bfbfbf" points="420,-57.5 420,-311.5 624,-311.5 624,-57.5 420,-57.5"/>
</a>
</g>
</g>
<!-- Node2&#45;&gt;Node1 -->
<g id="edge1_Node000001_Node000002" class="edge">
<title>Node2&#45;&gt;Node1</title>
<g id="a_edge1_Node000001_Node000002"><a xlink:title=" ">
<path fill="none" stroke="#63b8ff" d="M633.82,-126.68C643.01,-121.89 652.23,-117.07 661.25,-112.37"/>
<polygon fill="none" stroke="#63b8ff" points="632.47,-123.44 625.22,-131.17 635.71,-129.64 632.47,-123.44"/>
</a>
</g>
</g>
<!-- Node3 -->
<g id="Node000003" class="node">
<title>Node3</title>
<g id="a_Node000003"><a xlink:href="../../d5/d76/classv8_1_1internal_1_1CallInterfaceDescriptor.html" target="_top" xlink:title=" ">
<polygon fill="white" stroke="none" points="204,-548.5 0,-548.5 0,-166.5 204,-166.5 204,-548.5"/>
<text text-anchor="start" x="21" y="-535" font-family="Cascadia Code NF" font-size="10.00">v8::internal::CallInterface</text>
<text text-anchor="start" x="72" y="-522.25" font-family="Cascadia Code NF" font-size="10.00">Descriptor</text>
<text text-anchor="start" x="99" y="-506" font-family="Cascadia Code NF" font-size="10.00"> </text>
<text text-anchor="start" x="4" y="-490" font-family="Cascadia Code NF" font-size="10.00">+</text>
<text text-anchor="start" x="14" y="-490" font-family="Cascadia Code NF" font-size="10.00">CallInterfaceDescriptor()</text>
<text text-anchor="start" x="4" y="-474" font-family="Cascadia Code NF" font-size="10.00">+</text>
<text text-anchor="start" x="14" y="-474" font-family="Cascadia Code NF" font-size="10.00">~CallInterfaceDescriptor()</text>
<text text-anchor="start" x="4" y="-458" font-family="Cascadia Code NF" font-size="10.00">+</text>
<text text-anchor="start" x="14" y="-458" font-family="Cascadia Code NF" font-size="10.00">CallInterfaceDescriptor()</text>
<text text-anchor="start" x="4" y="-442" font-family="Cascadia Code NF" font-size="10.00">+</text>
<text text-anchor="start" x="14" y="-442" font-family="Cascadia Code NF" font-size="10.00">flags()</text>
<text text-anchor="start" x="4" y="-426" font-family="Cascadia Code NF" font-size="10.00">+</text>
<text text-anchor="start" x="14" y="-426" font-family="Cascadia Code NF" font-size="10.00">tag()</text>
<text text-anchor="start" x="4" y="-410" font-family="Cascadia Code NF" font-size="10.00">+</text>
<text text-anchor="start" x="14" y="-410" font-family="Cascadia Code NF" font-size="10.00">HasContextParameter()</text>
<text text-anchor="start" x="4" y="-394" font-family="Cascadia Code NF" font-size="10.00">+</text>
<text text-anchor="start" x="14" y="-394" font-family="Cascadia Code NF" font-size="10.00">AllowVarArgs()</text>
<text text-anchor="start" x="4" y="-378" font-family="Cascadia Code NF" font-size="10.00">+</text>
<text text-anchor="start" x="14" y="-378" font-family="Cascadia Code NF" font-size="10.00">CalleeSaveRegisters()</text>
<text text-anchor="start" x="4" y="-362" font-family="Cascadia Code NF" font-size="10.00">+</text>
<text text-anchor="start" x="14" y="-362" font-family="Cascadia Code NF" font-size="10.00">GetReturnCount()</text>
<text text-anchor="start" x="4" y="-346" font-family="Cascadia Code NF" font-size="10.00">+</text>
<text text-anchor="start" x="14" y="-346" font-family="Cascadia Code NF" font-size="10.00">GetReturnType()</text>
<text text-anchor="start" x="14" y="-330" font-family="Cascadia Code NF" font-size="10.00">and 12 more...</text>
<text text-anchor="start" x="4" y="-314" font-family="Cascadia Code NF" font-size="10.00">+</text>
<text text-anchor="start" x="14" y="-314" font-family="Cascadia Code NF" font-size="10.00">ContextRegister()</text>
<text text-anchor="start" x="4" y="-298" font-family="Cascadia Code NF" font-size="10.00">#</text>
<text text-anchor="start" x="14" y="-298" font-family="Cascadia Code NF" font-size="10.00">data()</text>
<text text-anchor="start" x="4" y="-282" font-family="Cascadia Code NF" font-size="10.00">#</text>
<text text-anchor="start" x="14" y="-282" font-family="Cascadia Code NF" font-size="10.00">CheckFloatingPointParameters()</text>
<text text-anchor="start" x="4" y="-266" font-family="Cascadia Code NF" font-size="10.00">#</text>
<text text-anchor="start" x="14" y="-266" font-family="Cascadia Code NF" font-size="10.00">IsValidFloatParameterRegister()</text>
<text text-anchor="start" x="4" y="-250" font-family="Cascadia Code NF" font-size="10.00">#</text>
<text text-anchor="start" x="14" y="-250" font-family="Cascadia Code NF" font-size="10.00">DefaultRegisterArray()</text>
<text text-anchor="start" x="4" y="-234" font-family="Cascadia Code NF" font-size="10.00">#</text>
<text text-anchor="start" x="14" y="-234" font-family="Cascadia Code NF" font-size="10.00">DefaultDoubleRegisterArray()</text>
<text text-anchor="start" x="4" y="-218" font-family="Cascadia Code NF" font-size="10.00">#</text>
<text text-anchor="start" x="14" y="-218" font-family="Cascadia Code NF" font-size="10.00">DefaultReturnRegisterArray()</text>
<text text-anchor="start" x="4" y="-202" font-family="Cascadia Code NF" font-size="10.00">#</text>
<text text-anchor="start" x="14" y="-202" font-family="Cascadia Code NF" font-size="10.00">DefaultReturnDoubleRegister</text>
<text text-anchor="start" x="14" y="-189.25" font-family="Cascadia Code NF" font-size="10.00">Array()</text>
<text text-anchor="start" x="4" y="-173" font-family="Cascadia Code NF" font-size="10.00">#</text>
<text text-anchor="start" x="14" y="-173" font-family="Cascadia Code NF" font-size="10.00">DefaultJSRegisterArray()</text>
<polygon fill="#bfbfbf" stroke="#bfbfbf" points="0,-517.5 0,-517.5 204,-517.5 204,-517.5 0,-517.5"/>
<polygon fill="#bfbfbf" stroke="#bfbfbf" points="0,-501.5 0,-501.5 204,-501.5 204,-501.5 0,-501.5"/>
<polygon fill="none" stroke="#bfbfbf" points="0,-166.5 0,-548.5 204,-548.5 204,-166.5 0,-166.5"/>
</a>
</g>
</g>
<!-- Node3&#45;&gt;Node2 -->
<g id="edge2_Node000002_Node000003" class="edge">
<title>Node3&#45;&gt;Node2</title>
<g id="a_edge2_Node000002_Node000003"><a xlink:title=" ">
<path fill="none" stroke="#63b8ff" d="M214.45,-311.37C278.44,-284.89 358.16,-251.9 420.26,-226.19"/>
<polygon fill="none" stroke="#63b8ff" points="213.22,-308.09 205.32,-315.15 215.9,-314.56 213.22,-308.09"/>
</a>
</g>
</g>
<!-- Node4 -->
<g id="Node000004" class="node">
<title>Node4</title>
<g id="a_Node000004"><a xlink:href="../../d1/da0/classint.html" target="_top" xlink:title=" ">
<polygon fill="white" stroke="none" points="116,-148.5 88,-148.5 88,-96.5 116,-96.5 116,-148.5"/>
<text text-anchor="start" x="93" y="-135" font-family="Cascadia Code NF" font-size="10.00">int</text>
<text text-anchor="start" x="99" y="-119" font-family="Cascadia Code NF" font-size="10.00"> </text>
<text text-anchor="start" x="99" y="-103" font-family="Cascadia Code NF" font-size="10.00"> </text>
<polygon fill="#bfbfbf" stroke="#bfbfbf" points="88,-130.5 88,-130.5 116,-130.5 116,-130.5 88,-130.5"/>
<polygon fill="#bfbfbf" stroke="#bfbfbf" points="88,-114.5 88,-114.5 116,-114.5 116,-114.5 88,-114.5"/>
<polygon fill="none" stroke="#bfbfbf" points="88,-96.5 88,-148.5 116,-148.5 116,-96.5 88,-96.5"/>
</a>
</g>
</g>
<!-- Node4&#45;&gt;Node2 -->
<g id="edge3_Node000002_Node000004" class="edge">
<title>Node4&#45;&gt;Node2</title>
<g id="a_edge3_Node000002_Node000004"><a xlink:title=" ">
<path fill="none" stroke="#63b8ff" d="M115.97,-124.42C159.49,-130.88 303.43,-152.23 407.35,-167.64"/>
<polygon fill="none" stroke="#63b8ff" points="407.37,-167.65 413.89,-164.57 419.24,-169.41 412.72,-172.48 407.37,-167.65"/>
</a>
</g>
<text text-anchor="middle" x="312" y="-195.25" font-family="Cascadia Code NF" font-size="10.00" fill="grey"> +kMaxRegisterParams</text>
<text text-anchor="middle" x="312" y="-182.5" font-family="Cascadia Code NF" font-size="10.00" fill="grey">+kParameterCount</text>
<text text-anchor="middle" x="312" y="-169.75" font-family="Cascadia Code NF" font-size="10.00" fill="grey">+kReturnCount</text>
</g>
<!-- Node5 -->
<g id="Node000005" class="node">
<title>Node5</title>
<g id="a_Node000005"><a xlink:title=" ">
<polygon fill="white" stroke="none" points="119,-55.5 85,-55.5 85,-3.5 119,-3.5 119,-55.5"/>
<text text-anchor="start" x="90" y="-42" font-family="Cascadia Code NF" font-size="10.00">bool</text>
<text text-anchor="start" x="99" y="-26" font-family="Cascadia Code NF" font-size="10.00"> </text>
<text text-anchor="start" x="99" y="-10" font-family="Cascadia Code NF" font-size="10.00"> </text>
<polygon fill="#bfbfbf" stroke="#bfbfbf" points="85,-37.5 85,-37.5 119,-37.5 119,-37.5 85,-37.5"/>
<polygon fill="#bfbfbf" stroke="#bfbfbf" points="85,-21.5 85,-21.5 119,-21.5 119,-21.5 85,-21.5"/>
<polygon fill="none" stroke="#bfbfbf" points="85,-3.5 85,-55.5 119,-55.5 119,-3.5 85,-3.5"/>
</a>
</g>
</g>
<!-- Node5&#45;&gt;Node1 -->
<g id="edge6_Node000001_Node000005" class="edge">
<title>Node5&#45;&gt;Node1</title>
<g id="a_edge6_Node000001_Node000005"><a xlink:title=" ">
<path fill="none" stroke="#63b8ff" d="M118.91,-27.38C182.83,-19.25 426.95,7.92 624,-23 632.1,-24.27 640.39,-25.97 648.66,-27.95"/>
<polygon fill="none" stroke="#63b8ff" points="648.68,-27.95 655.49,-25.56 660.31,-30.93 653.5,-33.31 648.68,-27.95"/>
</a>
</g>
<text text-anchor="middle" x="522" y="-39.5" font-family="Cascadia Code NF" font-size="10.00" fill="grey"> +kCalleeSaveRegisters</text>
<text text-anchor="middle" x="522" y="-26.75" font-family="Cascadia Code NF" font-size="10.00" fill="grey">+kRestrictAllocatableRegisters</text>
</g>
<!-- Node5&#45;&gt;Node2 -->
<g id="edge4_Node000002_Node000005" class="edge">
<title>Node5&#45;&gt;Node2</title>
<g id="a_edge4_Node000002_Node000005"><a xlink:title=" ">
<path fill="none" stroke="#63b8ff" d="M118.91,-29.75C173.31,-30.84 351.35,-36.25 402,-61 404.31,-62.13 406.59,-63.32 408.86,-64.57"/>
<polygon fill="none" stroke="#63b8ff" points="408.95,-64.62 416.15,-64.29 419.23,-70.82 412.02,-71.15 408.95,-64.62"/>
</a>
</g>
<text text-anchor="middle" x="312" y="-128.5" font-family="Cascadia Code NF" font-size="10.00" fill="grey"> +kAllowVarArgs</text>
<text text-anchor="middle" x="312" y="-115.75" font-family="Cascadia Code NF" font-size="10.00" fill="grey">+kCalleeSaveRegisters</text>
<text text-anchor="middle" x="312" y="-103" font-family="Cascadia Code NF" font-size="10.00" fill="grey">+kCustomMachineTypes</text>
<text text-anchor="middle" x="312" y="-90.25" font-family="Cascadia Code NF" font-size="10.00" fill="grey">+kNoContext</text>
<text text-anchor="middle" x="312" y="-77.5" font-family="Cascadia Code NF" font-size="10.00" fill="grey">+kNoStackScan</text>
<text text-anchor="middle" x="312" y="-64.75" font-family="Cascadia Code NF" font-size="10.00" fill="grey">+kRestrictAllocatableRegisters</text>
</g>
<!-- Node6 -->
<g id="Node000006" class="node">
<title>Node6</title>
<g id="a_Node000006"><a xlink:title=" ">
<polygon fill="white" stroke="none" points="170,-618.5 34,-618.5 34,-566.5 170,-566.5 170,-618.5"/>
<text text-anchor="start" x="39" y="-605" font-family="Cascadia Code NF" font-size="10.00">static constexpr auto</text>
<text text-anchor="start" x="99" y="-589" font-family="Cascadia Code NF" font-size="10.00"> </text>
<text text-anchor="start" x="99" y="-573" font-family="Cascadia Code NF" font-size="10.00"> </text>
<polygon fill="#bfbfbf" stroke="#bfbfbf" points="34,-600.5 34,-600.5 170,-600.5 170,-600.5 34,-600.5"/>
<polygon fill="#bfbfbf" stroke="#bfbfbf" points="34,-584.5 34,-584.5 170,-584.5 170,-584.5 34,-584.5"/>
<polygon fill="none" stroke="#bfbfbf" points="34,-566.5 34,-618.5 170,-618.5 170,-566.5 34,-566.5"/>
</a>
</g>
</g>
<!-- Node6&#45;&gt;Node2 -->
<g id="edge5_Node000002_Node000006" class="edge">
<title>Node6&#45;&gt;Node2</title>
<g id="a_edge5_Node000002_Node000006"><a xlink:title=" ">
<path fill="none" stroke="#63b8ff" d="M169.82,-575.02C181.75,-570.35 193.66,-564.57 204,-557.5 294.96,-495.28 375.11,-400.38 432.06,-321.88"/>
<polygon fill="none" stroke="#63b8ff" points="432.05,-321.88 432.31,-314.68 439.06,-312.14 438.81,-319.35 432.05,-321.88"/>
</a>
</g>
<text text-anchor="middle" x="312" y="-544.75" font-family="Cascadia Code NF" font-size="10.00" fill="grey"> +kStackArgumentOrder</text>
</g>
</g>
</svg>

<g id="navigator" transform="translate(0 0)" fill="#404254">
  <rect fill="#f2f5e9" fill-opacity="0.5" stroke="#606060" stroke-width=".5" x="0" y="0" width="60" height="60"/>
  <use id="zoomplus" xlink:href="#zoomPlus" x="17" y="9" onmousedown="handleZoom(evt,'in')"/>
  <use id="zoomminus" xlink:href="#zoomMin" x="42" y="9" onmousedown="handleZoom(evt,'out')"/>
  <use id="reset" xlink:href="#resetDef" x="30" y="36" onmousedown="handleReset()"/>
   <use id="arrowup" xlink:href="#arrowUp" x="0" y="0" onmousedown="handlePan(0,-1)"/>
  <use id="arrowright" xlink:href="#arrowRight" x="0" y="0" onmousedown="handlePan(1,0)"/>
  <use id="arrowdown" xlink:href="#arrowDown" x="0" y="0" onmousedown="handlePan(0,1)"/>
  <use id="arrowleft" xlink:href="#arrowLeft" x="0" y="0" onmousedown="handlePan(-1,0)"/>
</g>
<svg viewBox="0 0 15 15" width="100%" height="30px" preserveAspectRatio="xMaxYMin meet">
 <g id="arrow_out" transform="scale(0.3 0.3)">
  <a xlink:href="classv8_1_1internal_1_1IndirectPointerWriteBarrierDescriptor__coll__graph_org.svg" target="_base">
   <rect id="button" ry="5" rx="5" y="6" x="6" height="38" width="38"
        fill="#f2f5e9" fill-opacity="0.5" stroke="#606060" stroke-width="1.0"/>
   <path id="arrow"
     d="M 11.500037,31.436501 C 11.940474,20.09759 22.043105,11.32322 32.158766,21.979434 L 37.068811,17.246167 C 37.068811,17.246167 37.088388,32 37.088388,32 L 22.160133,31.978069 C 22.160133,31.978069 26.997745,27.140456 26.997745,27.140456 C 18.528582,18.264221 13.291696,25.230495 11.500037,31.436501 z"
     style="fill:#404040;"/>
  </a>
 </g>
</svg>

<style type='text/css'>
<![CDATA[
[data-mouse-over-selected='false'] { opacity: 0.7; }
[data-mouse-over-selected='true']  { opacity: 1.0; }
]]>
</style>
<script type="application/ecmascript"><![CDATA[
document.addEventListener('DOMContentLoaded', (event) => {
  highlightEdges();
  highlightAdjacentNodes();
});
]]></script>
</svg>
