<?xml version="1.0" encoding="UTF-8" standalone="no"?>
<!DOCTYPE svg PUBLIC "-//W3C//DTD SVG 1.1//EN"
 "http://www.w3.org/Graphics/SVG/1.1/DTD/svg11.dtd">
<!-- Generated by graphviz version 11.0.0 (20240428.1522)
 -->
<!-- Title: TorqueGeneratedJSTemporalZonedDateTime&lt; D, P &gt; Pages: 1 -->
<svg width="402pt" height="320pt"
 viewBox="0.00 0.00 402.00 320.00" xmlns="http://www.w3.org/2000/svg" xmlns:xlink="http://www.w3.org/1999/xlink">
<g id="graph0" class="graph" transform="scale(1 1) rotate(0) translate(4 316)">
<title>TorqueGeneratedJSTemporalZonedDateTime&lt; D, P &gt;</title>
<!-- Node1 -->
<g id="Node000001" class="node">
<title>Node1</title>
<g id="a_Node000001"><a xlink:title=" ">
<polygon fill="#999999" stroke="none" points="394,-312 226,-312 226,0 394,0 394,-312"/>
<text text-anchor="start" x="235" y="-298.5" font-family="Cascadia Code NF" font-size="10.00">TorqueGeneratedJSTemporal</text>
<text text-anchor="start" x="247" y="-285.75" font-family="Cascadia Code NF" font-size="10.00">ZonedDateTime&lt; D, P &gt;</text>
<text text-anchor="start" x="230" y="-269.5" font-family="Cascadia Code NF" font-size="10.00">+</text>
<text text-anchor="start" x="240" y="-269.5" font-family="Cascadia Code NF" font-size="10.00">kTimeZoneOffsetEnd</text>
<text text-anchor="start" x="230" y="-253.5" font-family="Cascadia Code NF" font-size="10.00">+</text>
<text text-anchor="start" x="240" y="-253.5" font-family="Cascadia Code NF" font-size="10.00">nanoseconds()</text>
<text text-anchor="start" x="230" y="-237.5" font-family="Cascadia Code NF" font-size="10.00">+</text>
<text text-anchor="start" x="240" y="-237.5" font-family="Cascadia Code NF" font-size="10.00">nanoseconds()</text>
<text text-anchor="start" x="230" y="-221.5" font-family="Cascadia Code NF" font-size="10.00">+</text>
<text text-anchor="start" x="240" y="-221.5" font-family="Cascadia Code NF" font-size="10.00">set_nanoseconds()</text>
<text text-anchor="start" x="230" y="-205.5" font-family="Cascadia Code NF" font-size="10.00">+</text>
<text text-anchor="start" x="240" y="-205.5" font-family="Cascadia Code NF" font-size="10.00">time_zone()</text>
<text text-anchor="start" x="230" y="-189.5" font-family="Cascadia Code NF" font-size="10.00">+</text>
<text text-anchor="start" x="240" y="-189.5" font-family="Cascadia Code NF" font-size="10.00">time_zone()</text>
<text text-anchor="start" x="230" y="-173.5" font-family="Cascadia Code NF" font-size="10.00">+</text>
<text text-anchor="start" x="240" y="-173.5" font-family="Cascadia Code NF" font-size="10.00">set_time_zone()</text>
<text text-anchor="start" x="230" y="-157.5" font-family="Cascadia Code NF" font-size="10.00">+</text>
<text text-anchor="start" x="240" y="-157.5" font-family="Cascadia Code NF" font-size="10.00">calendar()</text>
<text text-anchor="start" x="230" y="-141.5" font-family="Cascadia Code NF" font-size="10.00">+</text>
<text text-anchor="start" x="240" y="-141.5" font-family="Cascadia Code NF" font-size="10.00">calendar()</text>
<text text-anchor="start" x="230" y="-125.5" font-family="Cascadia Code NF" font-size="10.00">+</text>
<text text-anchor="start" x="240" y="-125.5" font-family="Cascadia Code NF" font-size="10.00">set_calendar()</text>
<text text-anchor="start" x="230" y="-109.5" font-family="Cascadia Code NF" font-size="10.00">+</text>
<text text-anchor="start" x="240" y="-109.5" font-family="Cascadia Code NF" font-size="10.00">TorqueGeneratedJSTemporal</text>
<text text-anchor="start" x="240" y="-96.75" font-family="Cascadia Code NF" font-size="10.00">ZonedDateTime()</text>
<text text-anchor="start" x="230" y="-80.5" font-family="Cascadia Code NF" font-size="10.00">+</text>
<text text-anchor="start" x="240" y="-80.5" font-family="Cascadia Code NF" font-size="10.00">cast()</text>
<text text-anchor="start" x="230" y="-64.5" font-family="Cascadia Code NF" font-size="10.00">+</text>
<text text-anchor="start" x="240" y="-64.5" font-family="Cascadia Code NF" font-size="10.00">unchecked_cast()</text>
<text text-anchor="start" x="230" y="-48.5" font-family="Cascadia Code NF" font-size="10.00">#</text>
<text text-anchor="start" x="240" y="-48.5" font-family="Cascadia Code NF" font-size="10.00">TorqueGeneratedJSTemporal</text>
<text text-anchor="start" x="240" y="-35.75" font-family="Cascadia Code NF" font-size="10.00">ZonedDateTime()</text>
<text text-anchor="start" x="230" y="-19.5" font-family="Cascadia Code NF" font-size="10.00">#</text>
<text text-anchor="start" x="240" y="-19.5" font-family="Cascadia Code NF" font-size="10.00">TorqueGeneratedJSTemporal</text>
<text text-anchor="start" x="240" y="-6.75" font-family="Cascadia Code NF" font-size="10.00">ZonedDateTime()</text>
<polygon fill="#666666" stroke="#666666" points="226,-281 226,-281 394,-281 394,-281 226,-281"/>
<polygon fill="#666666" stroke="#666666" points="226,-265 226,-265 238,-265 238,-265 226,-265"/>
<polygon fill="#666666" stroke="#666666" points="238,-265 238,-265 394,-265 394,-265 238,-265"/>
<polygon fill="none" stroke="#666666" points="226,0 226,-312 394,-312 394,0 226,0"/>
</a>
</g>
</g>
<!-- Node2 -->
<g id="Node000002" class="node">
<title>Node2</title>
<g id="a_Node000002"><a xlink:href="../../db/d72/classP.html" target="_top" xlink:title=" ">
<polygon fill="white" stroke="none" points="22,-264 6,-264 6,-212 22,-212 22,-264"/>
<text text-anchor="start" x="11" y="-250.5" font-family="Cascadia Code NF" font-size="10.00">P</text>
<text text-anchor="start" x="11" y="-234.5" font-family="Cascadia Code NF" font-size="10.00"> </text>
<text text-anchor="start" x="11" y="-218.5" font-family="Cascadia Code NF" font-size="10.00"> </text>
<polygon fill="#bfbfbf" stroke="#bfbfbf" points="6,-246 6,-246 22,-246 22,-246 6,-246"/>
<polygon fill="#bfbfbf" stroke="#bfbfbf" points="6,-230 6,-230 22,-230 22,-230 6,-230"/>
<polygon fill="none" stroke="#bfbfbf" points="6,-212 6,-264 22,-264 22,-212 6,-212"/>
</a>
</g>
</g>
<!-- Node2&#45;&gt;Node1 -->
<g id="edge1_Node000001_Node000002" class="edge">
<title>Node2&#45;&gt;Node1</title>
<g id="a_edge1_Node000001_Node000002"><a xlink:title=" ">
<path fill="none" stroke="#63b8ff" d="M32.94,-238.43C67.7,-238.73 146.22,-236.8 208,-216 214.09,-213.95 220.21,-211.5 226.26,-208.77"/>
<polygon fill="none" stroke="#63b8ff" points="33.46,-234.94 23.4,-238.27 33.34,-241.94 33.46,-234.94"/>
</a>
</g>
</g>
<!-- Node3 -->
<g id="Node000003" class="node">
<title>Node3</title>
<g id="a_Node000003"><a xlink:href="../../d1/da0/classint.html" target="_top" xlink:title=" ">
<polygon fill="white" stroke="none" points="28,-101 0,-101 0,-49 28,-49 28,-101"/>
<text text-anchor="start" x="5" y="-87.5" font-family="Cascadia Code NF" font-size="10.00">int</text>
<text text-anchor="start" x="11" y="-71.5" font-family="Cascadia Code NF" font-size="10.00"> </text>
<text text-anchor="start" x="11" y="-55.5" font-family="Cascadia Code NF" font-size="10.00"> </text>
<polygon fill="#bfbfbf" stroke="#bfbfbf" points="0,-83 0,-83 28,-83 28,-83 0,-83"/>
<polygon fill="#bfbfbf" stroke="#bfbfbf" points="0,-67 0,-67 28,-67 28,-67 0,-67"/>
<polygon fill="none" stroke="#bfbfbf" points="0,-49 0,-101 28,-101 28,-49 0,-49"/>
</a>
</g>
</g>
<!-- Node3&#45;&gt;Node1 -->
<g id="edge2_Node000001_Node000003" class="edge">
<title>Node3&#45;&gt;Node1</title>
<g id="a_edge2_Node000001_Node000003"><a xlink:title=" ">
<path fill="none" stroke="#63b8ff" d="M27.67,-72.28C59.24,-66.07 143.5,-53.11 208,-75.75 210.11,-76.49 212.2,-77.29 214.28,-78.15"/>
<polygon fill="none" stroke="#63b8ff" points="214.37,-78.2 221.5,-77.13 225.23,-83.3 218.1,-84.37 214.37,-78.2"/>
</a>
</g>
<text text-anchor="middle" x="127" y="-205.75" font-family="Cascadia Code NF" font-size="10.00" fill="grey"> +kCalendarOffset</text>
<text text-anchor="middle" x="127" y="-193" font-family="Cascadia Code NF" font-size="10.00" fill="grey">+kCalendarOffsetEnd</text>
<text text-anchor="middle" x="127" y="-180.25" font-family="Cascadia Code NF" font-size="10.00" fill="grey">+kEndOfStrongFieldsOffset</text>
<text text-anchor="middle" x="127" y="-167.5" font-family="Cascadia Code NF" font-size="10.00" fill="grey">+kEndOfWeakFieldsOffset</text>
<text text-anchor="middle" x="127" y="-154.75" font-family="Cascadia Code NF" font-size="10.00" fill="grey">+kHeaderSize</text>
<text text-anchor="middle" x="127" y="-142" font-family="Cascadia Code NF" font-size="10.00" fill="grey">+kNanosecondsOffset</text>
<text text-anchor="middle" x="127" y="-129.25" font-family="Cascadia Code NF" font-size="10.00" fill="grey">+kNanosecondsOffsetEnd</text>
<text text-anchor="middle" x="127" y="-116.5" font-family="Cascadia Code NF" font-size="10.00" fill="grey">+kStartOfStrongFieldsOffset</text>
<text text-anchor="middle" x="127" y="-103.75" font-family="Cascadia Code NF" font-size="10.00" fill="grey">+kStartOfWeakFieldsOffset</text>
<text text-anchor="middle" x="127" y="-91" font-family="Cascadia Code NF" font-size="10.00" fill="grey">+kTimeZoneOffset</text>
<text text-anchor="middle" x="127" y="-78.25" font-family="Cascadia Code NF" font-size="10.00" fill="grey">...</text>
</g>
</g>
</svg>
