<?xml version="1.0" encoding="UTF-8" standalone="no"?>
<!DOCTYPE svg PUBLIC "-//W3C//DTD SVG 1.1//EN"
 "http://www.w3.org/Graphics/SVG/1.1/DTD/svg11.dtd">
<!-- Generated by graphviz version 11.0.0 (20240428.1522)
 -->
<!-- Title: v8::internal::GlobalDictionaryShape Pages: 1 -->
<svg width="1039pt" height="206pt"
 viewBox="0.00 0.00 1039.00 206.00" xmlns="http://www.w3.org/2000/svg" xmlns:xlink="http://www.w3.org/1999/xlink">
<g id="graph0" class="graph" transform="scale(1 1) rotate(0) translate(4 202)">
<title>v8::internal::GlobalDictionaryShape</title>
<!-- Node1 -->
<g id="Node000001" class="node">
<title>Node1</title>
<g id="a_Node000001"><a xlink:title=" ">
<polygon fill="#999999" stroke="none" points="1031,-129 841,-129 841,0 1031,0 1031,-129"/>
<text text-anchor="start" x="846" y="-115.5" font-family="Cascadia Code NF" font-size="10.00">v8::internal::GlobalDictionary</text>
<text text-anchor="start" x="921" y="-102.75" font-family="Cascadia Code NF" font-size="10.00">Shape</text>
<text text-anchor="start" x="933" y="-86.5" font-family="Cascadia Code NF" font-size="10.00"> </text>
<text text-anchor="start" x="865.5" y="-70.5" font-family="Cascadia Code NF" font-size="10.00">+</text>
<text text-anchor="start" x="896" y="-70.5" font-family="Cascadia Code NF" font-size="10.00">IsMatch()</text>
<text text-anchor="start" x="865.5" y="-54.5" font-family="Cascadia Code NF" font-size="10.00">+</text>
<text text-anchor="start" x="896" y="-54.5" font-family="Cascadia Code NF" font-size="10.00">HashForObject()</text>
<text text-anchor="start" x="865.5" y="-38.5" font-family="Cascadia Code NF" font-size="10.00">+</text>
<text text-anchor="start" x="896" y="-38.5" font-family="Cascadia Code NF" font-size="10.00">DetailsAt()</text>
<text text-anchor="start" x="865.5" y="-22.5" font-family="Cascadia Code NF" font-size="10.00">+</text>
<text text-anchor="start" x="896" y="-22.5" font-family="Cascadia Code NF" font-size="10.00">DetailsAtPut()</text>
<text text-anchor="start" x="865.5" y="-6.5" font-family="Cascadia Code NF" font-size="10.00">+</text>
<text text-anchor="start" x="896" y="-6.5" font-family="Cascadia Code NF" font-size="10.00">Unwrap()</text>
<polygon fill="#666666" stroke="#666666" points="841,-98 841,-98 1031,-98 1031,-98 841,-98"/>
<polygon fill="#666666" stroke="#666666" points="841,-82 841,-82 1031,-82 1031,-82 841,-82"/>
<polygon fill="none" stroke="#666666" points="841,0 841,-129 1031,-129 1031,0 841,0"/>
</a>
</g>
</g>
<!-- Node2 -->
<g id="Node000002" class="node">
<title>Node2</title>
<g id="a_Node000002"><a xlink:href="../../dc/d54/classv8_1_1internal_1_1BaseNameDictionaryShape.html" target="_top" xlink:title=" ">
<polygon fill="white" stroke="none" points="804,-191 602,-191 602,-62 804,-62 804,-191"/>
<text text-anchor="start" x="607" y="-177.5" font-family="Cascadia Code NF" font-size="10.00">v8::internal::BaseNameDictionary</text>
<text text-anchor="start" x="688" y="-164.75" font-family="Cascadia Code NF" font-size="10.00">Shape</text>
<text text-anchor="start" x="700" y="-148.5" font-family="Cascadia Code NF" font-size="10.00"> </text>
<text text-anchor="start" x="629.5" y="-132.5" font-family="Cascadia Code NF" font-size="10.00">+</text>
<text text-anchor="start" x="663" y="-132.5" font-family="Cascadia Code NF" font-size="10.00">IsMatch()</text>
<text text-anchor="start" x="629.5" y="-116.5" font-family="Cascadia Code NF" font-size="10.00">+</text>
<text text-anchor="start" x="663" y="-116.5" font-family="Cascadia Code NF" font-size="10.00">Hash()</text>
<text text-anchor="start" x="629.5" y="-100.5" font-family="Cascadia Code NF" font-size="10.00">+</text>
<text text-anchor="start" x="663" y="-100.5" font-family="Cascadia Code NF" font-size="10.00">HashForObject()</text>
<text text-anchor="start" x="629.5" y="-84.5" font-family="Cascadia Code NF" font-size="10.00">+</text>
<text text-anchor="start" x="663" y="-84.5" font-family="Cascadia Code NF" font-size="10.00">AsHandle()</text>
<text text-anchor="start" x="629.5" y="-68.5" font-family="Cascadia Code NF" font-size="10.00">+</text>
<text text-anchor="start" x="663" y="-68.5" font-family="Cascadia Code NF" font-size="10.00">AsHandle()</text>
<polygon fill="#bfbfbf" stroke="#bfbfbf" points="602,-160 602,-160 804,-160 804,-160 602,-160"/>
<polygon fill="#bfbfbf" stroke="#bfbfbf" points="602,-144 602,-144 804,-144 804,-144 602,-144"/>
<polygon fill="none" stroke="#bfbfbf" points="602,-62 602,-191 804,-191 804,-62 602,-62"/>
</a>
</g>
</g>
<!-- Node2&#45;&gt;Node1 -->
<g id="edge1_Node000001_Node000002" class="edge">
<title>Node2&#45;&gt;Node1</title>
<g id="a_edge1_Node000001_Node000002"><a xlink:title=" ">
<path fill="none" stroke="#63b8ff" d="M814.99,-96.71C823.72,-94.37 832.48,-92.02 841.07,-89.71"/>
<polygon fill="none" stroke="#63b8ff" points="814.19,-93.3 805.44,-99.27 816,-100.06 814.19,-93.3"/>
</a>
</g>
</g>
<!-- Node3 -->
<g id="Node000003" class="node">
<title>Node3</title>
<g id="a_Node000003"><a xlink:href="../../da/dc4/classv8_1_1internal_1_1BaseDictionaryShape.html" target="_top" xlink:title=" ">
<polygon fill="white" stroke="none" points="440,-198 262,-198 262,-117 440,-117 440,-198"/>
<text text-anchor="start" x="267" y="-184.5" font-family="Cascadia Code NF" font-size="10.00">v8::internal::BaseDictionary</text>
<text text-anchor="start" x="282" y="-171.75" font-family="Cascadia Code NF" font-size="10.00">Shape&lt; Handle&lt; Name &gt; &gt;</text>
<text text-anchor="start" x="348" y="-155.5" font-family="Cascadia Code NF" font-size="10.00"> </text>
<text text-anchor="start" x="285" y="-139.5" font-family="Cascadia Code NF" font-size="10.00">+</text>
<text text-anchor="start" x="314" y="-139.5" font-family="Cascadia Code NF" font-size="10.00">DetailsAt()</text>
<text text-anchor="start" x="285" y="-123.5" font-family="Cascadia Code NF" font-size="10.00">+</text>
<text text-anchor="start" x="314" y="-123.5" font-family="Cascadia Code NF" font-size="10.00">DetailsAtPut()</text>
<polygon fill="#bfbfbf" stroke="#bfbfbf" points="262,-167 262,-167 440,-167 440,-167 262,-167"/>
<polygon fill="#bfbfbf" stroke="#bfbfbf" points="262,-151 262,-151 440,-151 440,-151 262,-151"/>
<polygon fill="none" stroke="#bfbfbf" points="262,-117 262,-198 440,-198 440,-117 262,-117"/>
</a>
</g>
</g>
<!-- Node3&#45;&gt;Node2 -->
<g id="edge2_Node000002_Node000003" class="edge">
<title>Node3&#45;&gt;Node2</title>
<g id="a_edge2_Node000002_Node000003"><a xlink:title=" ">
<path fill="none" stroke="#63b8ff" d="M451.04,-148.73C498.28,-144.54 554.67,-139.55 602.02,-135.36"/>
<polygon fill="none" stroke="#63b8ff" points="451.03,-145.22 441.38,-149.58 451.65,-152.19 451.03,-145.22"/>
</a>
</g>
</g>
<!-- Node4 -->
<g id="Node000004" class="node">
<title>Node4</title>
<g id="a_Node000004"><a xlink:href="../../de/dd8/classv8_1_1internal_1_1BaseShape.html" target="_top" xlink:title=" ">
<polygon fill="white" stroke="none" points="148,-193 0,-193 0,-128 148,-128 148,-193"/>
<text text-anchor="start" x="5" y="-179.5" font-family="Cascadia Code NF" font-size="10.00">v8::internal::BaseShape</text>
<text text-anchor="start" x="20" y="-166.75" font-family="Cascadia Code NF" font-size="10.00">&lt; Handle&lt; Name &gt; &gt;</text>
<text text-anchor="start" x="71" y="-150.5" font-family="Cascadia Code NF" font-size="10.00"> </text>
<text text-anchor="start" x="24.5" y="-134.5" font-family="Cascadia Code NF" font-size="10.00">+</text>
<text text-anchor="start" x="55" y="-134.5" font-family="Cascadia Code NF" font-size="10.00">Unwrap()</text>
<polygon fill="#bfbfbf" stroke="#bfbfbf" points="0,-162 0,-162 148,-162 148,-162 0,-162"/>
<polygon fill="#bfbfbf" stroke="#bfbfbf" points="0,-146 0,-146 148,-146 148,-146 0,-146"/>
<polygon fill="none" stroke="#bfbfbf" points="0,-128 0,-193 148,-193 148,-128 0,-128"/>
</a>
</g>
</g>
<!-- Node4&#45;&gt;Node3 -->
<g id="edge3_Node000003_Node000004" class="edge">
<title>Node4&#45;&gt;Node3</title>
<g id="a_edge3_Node000003_Node000004"><a xlink:title=" ">
<path fill="none" stroke="#63b8ff" d="M159.3,-159.58C191.93,-159.22 229.28,-158.82 262.23,-158.46"/>
<polygon fill="none" stroke="#63b8ff" points="159.45,-156.08 149.49,-159.69 159.52,-163.08 159.45,-156.08"/>
</a>
</g>
</g>
<!-- Node5 -->
<g id="Node000005" class="node">
<title>Node5</title>
<g id="a_Node000005"><a xlink:title=" ">
<polygon fill="white" stroke="none" points="94,-109.5 54,-109.5 54,-57.5 94,-57.5 94,-109.5"/>
<text text-anchor="start" x="59" y="-96" font-family="Cascadia Code NF" font-size="10.00">const</text>
<text text-anchor="start" x="71" y="-80" font-family="Cascadia Code NF" font-size="10.00"> </text>
<text text-anchor="start" x="71" y="-64" font-family="Cascadia Code NF" font-size="10.00"> </text>
<polygon fill="#bfbfbf" stroke="#bfbfbf" points="54,-91.5 54,-91.5 94,-91.5 94,-91.5 54,-91.5"/>
<polygon fill="#bfbfbf" stroke="#bfbfbf" points="54,-75.5 54,-75.5 94,-75.5 94,-75.5 54,-75.5"/>
<polygon fill="none" stroke="#bfbfbf" points="54,-57.5 54,-109.5 94,-109.5 94,-57.5 54,-57.5"/>
</a>
</g>
</g>
<!-- Node5&#45;&gt;Node1 -->
<g id="edge6_Node000001_Node000005" class="edge">
<title>Node5&#45;&gt;Node1</title>
<g id="a_edge6_Node000001_Node000005"><a xlink:title=" ">
<path fill="none" stroke="#63b8ff" d="M93.7,-81.6C149.19,-76.06 317.74,-59.96 458,-54.25 521.95,-51.64 538,-53.67 602,-53.5 691.78,-53.27 714.3,-49.74 804,-53.5 811.93,-53.83 820.13,-54.28 828.36,-54.8"/>
<polygon fill="none" stroke="#63b8ff" points="828.45,-54.8 834.7,-51.22 840.42,-55.61 834.16,-59.2 828.45,-54.8"/>
</a>
</g>
<text text-anchor="middle" x="521" y="-82.25" font-family="Cascadia Code NF" font-size="10.00" fill="grey"> +kEntrySize</text>
<text text-anchor="middle" x="521" y="-69.5" font-family="Cascadia Code NF" font-size="10.00" fill="grey">+kMatchNeedsHoleCheck</text>
<text text-anchor="middle" x="521" y="-56.75" font-family="Cascadia Code NF" font-size="10.00" fill="grey">+kPrefixSize</text>
</g>
<!-- Node5&#45;&gt;Node2 -->
<g id="edge5_Node000002_Node000005" class="edge">
<title>Node5&#45;&gt;Node2</title>
<g id="a_edge5_Node000002_Node000005"><a xlink:title=" ">
<path fill="none" stroke="#63b8ff" d="M93.64,-83.58C147.44,-83.92 307.54,-85.77 440,-95.75 489.05,-99.45 543.06,-105.45 589.23,-111.18"/>
<polygon fill="none" stroke="#63b8ff" points="589.24,-111.18 595.69,-107.96 601.14,-112.67 594.69,-115.9 589.24,-111.18"/>
</a>
</g>
<text text-anchor="middle" x="351" y="-98.75" font-family="Cascadia Code NF" font-size="10.00" fill="grey"> +kEntryValueIndex</text>
</g>
<!-- Node5&#45;&gt;Node3 -->
<g id="edge4_Node000003_Node000005" class="edge">
<title>Node5&#45;&gt;Node3</title>
<g id="a_edge4_Node000003_Node000005"><a xlink:title=" ">
<path fill="none" stroke="#63b8ff" d="M93.9,-88.59C125.78,-97.17 192.38,-115.09 249.67,-130.5"/>
<polygon fill="none" stroke="#63b8ff" points="249.65,-130.5 256.48,-128.19 261.24,-133.61 254.4,-135.92 249.65,-130.5"/>
</a>
</g>
<text text-anchor="middle" x="205" y="-129.75" font-family="Cascadia Code NF" font-size="10.00" fill="grey"> +kHasDetails</text>
</g>
</g>
</svg>
