<?xml version="1.0" encoding="UTF-8" standalone="no"?>
<!DOCTYPE svg PUBLIC "-//W3C//DTD SVG 1.1//EN"
 "http://www.w3.org/Graphics/SVG/1.1/DTD/svg11.dtd">
<!-- Generated by graphviz version 11.0.0 (20240428.1522)
 -->
<!-- Title: v8::internal::debug_helper_internal::TqTurboshaftWord32Type Pages: 1 -->
<svg width="996pt" height="438pt"
 viewBox="0.00 0.00 996.00 438.00" xmlns="http://www.w3.org/2000/svg" xmlns:xlink="http://www.w3.org/1999/xlink">
<g id="graph0" class="graph" transform="scale(1 1) rotate(0) translate(4 434)">
<title>v8::internal::debug_helper_internal::TqTurboshaftWord32Type</title>
<!-- Node1 -->
<g id="Node000001" class="node">
<title>Node1</title>
<g id="a_Node000001"><a xlink:title=" ">
<polygon fill="#999999" stroke="none" points="760,-286 570,-286 570,-144 760,-144 760,-286"/>
<text text-anchor="start" x="575" y="-272.5" font-family="Cascadia Code NF" font-size="10.00">v8::internal::debug</text>
<text text-anchor="start" x="575" y="-259.75" font-family="Cascadia Code NF" font-size="10.00">_helper_internal::TqTurboshaft</text>
<text text-anchor="start" x="635" y="-247" font-family="Cascadia Code NF" font-size="10.00">Word32Type</text>
<text text-anchor="start" x="662" y="-230.5" font-family="Cascadia Code NF" font-size="10.00"> </text>
<text text-anchor="start" x="581" y="-214.5" font-family="Cascadia Code NF" font-size="10.00">+</text>
<text text-anchor="start" x="598" y="-214.5" font-family="Cascadia Code NF" font-size="10.00">TqTurboshaftWord32Type()</text>
<text text-anchor="start" x="581" y="-198.5" font-family="Cascadia Code NF" font-size="10.00">+</text>
<text text-anchor="start" x="598" y="-198.5" font-family="Cascadia Code NF" font-size="10.00">GetProperties()</text>
<text text-anchor="start" x="581" y="-182.5" font-family="Cascadia Code NF" font-size="10.00">+</text>
<text text-anchor="start" x="598" y="-182.5" font-family="Cascadia Code NF" font-size="10.00">GetName()</text>
<text text-anchor="start" x="581" y="-166.5" font-family="Cascadia Code NF" font-size="10.00">+</text>
<text text-anchor="start" x="598" y="-166.5" font-family="Cascadia Code NF" font-size="10.00">Visit()</text>
<text text-anchor="start" x="581" y="-150.5" font-family="Cascadia Code NF" font-size="10.00">+</text>
<text text-anchor="start" x="598" y="-150.5" font-family="Cascadia Code NF" font-size="10.00">IsSuperclassOf()</text>
<polygon fill="#666666" stroke="#666666" points="570,-242 570,-242 760,-242 760,-242 570,-242"/>
<polygon fill="#666666" stroke="#666666" points="570,-226 570,-226 760,-226 760,-226 570,-226"/>
<polygon fill="none" stroke="#666666" points="570,-144 570,-286 760,-286 760,-144 570,-144"/>
</a>
</g>
</g>
<!-- Node5 -->
<g id="Node000005" class="node">
<title>Node5</title>
<g id="a_Node000005"><a xlink:href="../../d0/dc0/classv8_1_1internal_1_1debug__helper__internal_1_1TqTurboshaftWord32RangeType.html" target="_top" xlink:title=" ">
<polygon fill="white" stroke="none" points="988,-430 796,-430 796,-224 988,-224 988,-430"/>
<text text-anchor="start" x="802" y="-416.5" font-family="Cascadia Code NF" font-size="10.00">v8::internal::debug</text>
<text text-anchor="start" x="802" y="-403.75" font-family="Cascadia Code NF" font-size="10.00">_helper_internal::TqTurboshaft</text>
<text text-anchor="start" x="847" y="-391" font-family="Cascadia Code NF" font-size="10.00">Word32RangeType</text>
<text text-anchor="start" x="889" y="-374.5" font-family="Cascadia Code NF" font-size="10.00"> </text>
<text text-anchor="start" x="800" y="-358.5" font-family="Cascadia Code NF" font-size="10.00">+</text>
<text text-anchor="start" x="810" y="-358.5" font-family="Cascadia Code NF" font-size="10.00">TqTurboshaftWord32RangeType()</text>
<text text-anchor="start" x="800" y="-342.5" font-family="Cascadia Code NF" font-size="10.00">+</text>
<text text-anchor="start" x="810" y="-342.5" font-family="Cascadia Code NF" font-size="10.00">GetProperties()</text>
<text text-anchor="start" x="800" y="-326.5" font-family="Cascadia Code NF" font-size="10.00">+</text>
<text text-anchor="start" x="810" y="-326.5" font-family="Cascadia Code NF" font-size="10.00">GetName()</text>
<text text-anchor="start" x="800" y="-310.5" font-family="Cascadia Code NF" font-size="10.00">+</text>
<text text-anchor="start" x="810" y="-310.5" font-family="Cascadia Code NF" font-size="10.00">Visit()</text>
<text text-anchor="start" x="800" y="-294.5" font-family="Cascadia Code NF" font-size="10.00">+</text>
<text text-anchor="start" x="810" y="-294.5" font-family="Cascadia Code NF" font-size="10.00">IsSuperclassOf()</text>
<text text-anchor="start" x="800" y="-278.5" font-family="Cascadia Code NF" font-size="10.00">+</text>
<text text-anchor="start" x="810" y="-278.5" font-family="Cascadia Code NF" font-size="10.00">GetFromAddress()</text>
<text text-anchor="start" x="800" y="-262.5" font-family="Cascadia Code NF" font-size="10.00">+</text>
<text text-anchor="start" x="810" y="-262.5" font-family="Cascadia Code NF" font-size="10.00">GetFromValue()</text>
<text text-anchor="start" x="800" y="-246.5" font-family="Cascadia Code NF" font-size="10.00">+</text>
<text text-anchor="start" x="810" y="-246.5" font-family="Cascadia Code NF" font-size="10.00">GetToAddress()</text>
<text text-anchor="start" x="800" y="-230.5" font-family="Cascadia Code NF" font-size="10.00">+</text>
<text text-anchor="start" x="810" y="-230.5" font-family="Cascadia Code NF" font-size="10.00">GetToValue()</text>
<polygon fill="#bfbfbf" stroke="#bfbfbf" points="796,-386 796,-386 988,-386 988,-386 796,-386"/>
<polygon fill="#bfbfbf" stroke="#bfbfbf" points="796,-370 796,-370 988,-370 988,-370 796,-370"/>
<polygon fill="none" stroke="#bfbfbf" points="796,-224 796,-430 988,-430 988,-224 796,-224"/>
</a>
</g>
</g>
<!-- Node1&#45;&gt;Node5 -->
<g id="edge4_Node000001_Node000005" class="edge">
<title>Node1&#45;&gt;Node5</title>
<g id="a_edge4_Node000001_Node000005"><a xlink:title=" ">
<path fill="none" stroke="#63b8ff" d="M770.02,-266.78C778.78,-271.14 787.6,-275.53 796.28,-279.85"/>
<polygon fill="none" stroke="#63b8ff" points="771.66,-263.68 761.15,-262.36 768.54,-269.95 771.66,-263.68"/>
</a>
</g>
</g>
<!-- Node6 -->
<g id="Node000006" class="node">
<title>Node6</title>
<g id="a_Node000006"><a xlink:href="../../de/da5/classv8_1_1internal_1_1debug__helper__internal_1_1TqTurboshaftWord32SetType.html" target="_top" xlink:title=" ">
<polygon fill="white" stroke="none" points="987,-206 797,-206 797,0 987,0 987,-206"/>
<text text-anchor="start" x="802" y="-192.5" font-family="Cascadia Code NF" font-size="10.00">v8::internal::debug</text>
<text text-anchor="start" x="802" y="-179.75" font-family="Cascadia Code NF" font-size="10.00">_helper_internal::TqTurboshaft</text>
<text text-anchor="start" x="853" y="-167" font-family="Cascadia Code NF" font-size="10.00">Word32SetType</text>
<text text-anchor="start" x="889" y="-150.5" font-family="Cascadia Code NF" font-size="10.00"> </text>
<text text-anchor="start" x="803.5" y="-134.5" font-family="Cascadia Code NF" font-size="10.00">+</text>
<text text-anchor="start" x="816" y="-134.5" font-family="Cascadia Code NF" font-size="10.00">TqTurboshaftWord32SetType()</text>
<text text-anchor="start" x="803.5" y="-118.5" font-family="Cascadia Code NF" font-size="10.00">+</text>
<text text-anchor="start" x="816" y="-118.5" font-family="Cascadia Code NF" font-size="10.00">GetProperties()</text>
<text text-anchor="start" x="803.5" y="-102.5" font-family="Cascadia Code NF" font-size="10.00">+</text>
<text text-anchor="start" x="816" y="-102.5" font-family="Cascadia Code NF" font-size="10.00">GetName()</text>
<text text-anchor="start" x="803.5" y="-86.5" font-family="Cascadia Code NF" font-size="10.00">+</text>
<text text-anchor="start" x="816" y="-86.5" font-family="Cascadia Code NF" font-size="10.00">Visit()</text>
<text text-anchor="start" x="803.5" y="-70.5" font-family="Cascadia Code NF" font-size="10.00">+</text>
<text text-anchor="start" x="816" y="-70.5" font-family="Cascadia Code NF" font-size="10.00">IsSuperclassOf()</text>
<text text-anchor="start" x="803.5" y="-54.5" font-family="Cascadia Code NF" font-size="10.00">+</text>
<text text-anchor="start" x="816" y="-54.5" font-family="Cascadia Code NF" font-size="10.00">GetSetSizeAddress()</text>
<text text-anchor="start" x="803.5" y="-38.5" font-family="Cascadia Code NF" font-size="10.00">+</text>
<text text-anchor="start" x="816" y="-38.5" font-family="Cascadia Code NF" font-size="10.00">GetSetSizeValue()</text>
<text text-anchor="start" x="803.5" y="-22.5" font-family="Cascadia Code NF" font-size="10.00">+</text>
<text text-anchor="start" x="816" y="-22.5" font-family="Cascadia Code NF" font-size="10.00">GetElementsAddress()</text>
<text text-anchor="start" x="803.5" y="-6.5" font-family="Cascadia Code NF" font-size="10.00">+</text>
<text text-anchor="start" x="816" y="-6.5" font-family="Cascadia Code NF" font-size="10.00">GetElementsValue()</text>
<polygon fill="#bfbfbf" stroke="#bfbfbf" points="797,-162 797,-162 987,-162 987,-162 797,-162"/>
<polygon fill="#bfbfbf" stroke="#bfbfbf" points="797,-146 797,-146 987,-146 987,-146 797,-146"/>
<polygon fill="none" stroke="#bfbfbf" points="797,0 797,-206 987,-206 987,0 797,0"/>
</a>
</g>
</g>
<!-- Node1&#45;&gt;Node6 -->
<g id="edge5_Node000001_Node000006" class="edge">
<title>Node1&#45;&gt;Node6</title>
<g id="a_edge5_Node000001_Node000006"><a xlink:title=" ">
<path fill="none" stroke="#63b8ff" d="M770.04,-163.21C779.15,-158.68 788.34,-154.1 797.36,-149.61"/>
<polygon fill="none" stroke="#63b8ff" points="768.54,-160.05 761.15,-167.64 771.66,-166.32 768.54,-160.05"/>
</a>
</g>
</g>
<!-- Node2 -->
<g id="Node000002" class="node">
<title>Node2</title>
<g id="a_Node000002"><a xlink:href="../../db/df8/classv8_1_1internal_1_1debug__helper__internal_1_1TqTurboshaftType.html" target="_top" xlink:title=" ">
<polygon fill="white" stroke="none" points="534,-279.5 320,-279.5 320,-150.5 534,-150.5 534,-279.5"/>
<text text-anchor="start" x="325" y="-266" font-family="Cascadia Code NF" font-size="10.00">v8::internal::debug</text>
<text text-anchor="start" x="325" y="-253.25" font-family="Cascadia Code NF" font-size="10.00">_helper_internal::TqTurboshaftType</text>
<text text-anchor="start" x="424" y="-237" font-family="Cascadia Code NF" font-size="10.00"> </text>
<text text-anchor="start" x="346" y="-221" font-family="Cascadia Code NF" font-size="10.00">+</text>
<text text-anchor="start" x="378" y="-221" font-family="Cascadia Code NF" font-size="10.00">TqTurboshaftType()</text>
<text text-anchor="start" x="346" y="-205" font-family="Cascadia Code NF" font-size="10.00">+</text>
<text text-anchor="start" x="378" y="-205" font-family="Cascadia Code NF" font-size="10.00">GetProperties()</text>
<text text-anchor="start" x="346" y="-189" font-family="Cascadia Code NF" font-size="10.00">+</text>
<text text-anchor="start" x="378" y="-189" font-family="Cascadia Code NF" font-size="10.00">GetName()</text>
<text text-anchor="start" x="346" y="-173" font-family="Cascadia Code NF" font-size="10.00">+</text>
<text text-anchor="start" x="378" y="-173" font-family="Cascadia Code NF" font-size="10.00">Visit()</text>
<text text-anchor="start" x="346" y="-157" font-family="Cascadia Code NF" font-size="10.00">+</text>
<text text-anchor="start" x="378" y="-157" font-family="Cascadia Code NF" font-size="10.00">IsSuperclassOf()</text>
<polygon fill="#bfbfbf" stroke="#bfbfbf" points="320,-248.5 320,-248.5 534,-248.5 534,-248.5 320,-248.5"/>
<polygon fill="#bfbfbf" stroke="#bfbfbf" points="320,-232.5 320,-232.5 534,-232.5 534,-232.5 320,-232.5"/>
<polygon fill="none" stroke="#bfbfbf" points="320,-150.5 320,-279.5 534,-279.5 534,-150.5 320,-150.5"/>
</a>
</g>
</g>
<!-- Node2&#45;&gt;Node1 -->
<g id="edge1_Node000001_Node000002" class="edge">
<title>Node2&#45;&gt;Node1</title>
<g id="a_edge1_Node000001_Node000002"><a xlink:title=" ">
<path fill="none" stroke="#63b8ff" d="M545.33,-215C553.71,-215 562.09,-215 570.31,-215"/>
<polygon fill="none" stroke="#63b8ff" points="545.43,-211.5 535.43,-215 545.43,-218.5 545.43,-211.5"/>
</a>
</g>
</g>
<!-- Node3 -->
<g id="Node000003" class="node">
<title>Node3</title>
<g id="a_Node000003"><a xlink:href="../../db/deb/classv8_1_1internal_1_1debug__helper__internal_1_1TqHeapObject.html" target="_top" xlink:title=" ">
<polygon fill="white" stroke="none" points="284,-295.5 94,-295.5 94,-134.5 284,-134.5 284,-295.5"/>
<text text-anchor="start" x="99" y="-282" font-family="Cascadia Code NF" font-size="10.00">v8::internal::debug</text>
<text text-anchor="start" x="99" y="-269.25" font-family="Cascadia Code NF" font-size="10.00">_helper_internal::TqHeapObject</text>
<text text-anchor="start" x="186" y="-253" font-family="Cascadia Code NF" font-size="10.00"> </text>
<text text-anchor="start" x="117" y="-237" font-family="Cascadia Code NF" font-size="10.00">+</text>
<text text-anchor="start" x="146" y="-237" font-family="Cascadia Code NF" font-size="10.00">TqHeapObject()</text>
<text text-anchor="start" x="117" y="-221" font-family="Cascadia Code NF" font-size="10.00">+</text>
<text text-anchor="start" x="146" y="-221" font-family="Cascadia Code NF" font-size="10.00">GetProperties()</text>
<text text-anchor="start" x="117" y="-205" font-family="Cascadia Code NF" font-size="10.00">+</text>
<text text-anchor="start" x="146" y="-205" font-family="Cascadia Code NF" font-size="10.00">GetName()</text>
<text text-anchor="start" x="117" y="-189" font-family="Cascadia Code NF" font-size="10.00">+</text>
<text text-anchor="start" x="146" y="-189" font-family="Cascadia Code NF" font-size="10.00">Visit()</text>
<text text-anchor="start" x="117" y="-173" font-family="Cascadia Code NF" font-size="10.00">+</text>
<text text-anchor="start" x="146" y="-173" font-family="Cascadia Code NF" font-size="10.00">IsSuperclassOf()</text>
<text text-anchor="start" x="117" y="-157" font-family="Cascadia Code NF" font-size="10.00">+</text>
<text text-anchor="start" x="146" y="-157" font-family="Cascadia Code NF" font-size="10.00">GetMapAddress()</text>
<text text-anchor="start" x="117" y="-141" font-family="Cascadia Code NF" font-size="10.00">+</text>
<text text-anchor="start" x="146" y="-141" font-family="Cascadia Code NF" font-size="10.00">GetMapValue()</text>
<polygon fill="#bfbfbf" stroke="#bfbfbf" points="94,-264.5 94,-264.5 284,-264.5 284,-264.5 94,-264.5"/>
<polygon fill="#bfbfbf" stroke="#bfbfbf" points="94,-248.5 94,-248.5 284,-248.5 284,-248.5 94,-248.5"/>
<polygon fill="none" stroke="#bfbfbf" points="94,-134.5 94,-295.5 284,-295.5 284,-134.5 94,-134.5"/>
</a>
</g>
</g>
<!-- Node3&#45;&gt;Node2 -->
<g id="edge2_Node000002_Node000003" class="edge">
<title>Node3&#45;&gt;Node2</title>
<g id="a_edge2_Node000002_Node000003"><a xlink:title=" ">
<path fill="none" stroke="#63b8ff" d="M295.24,-215C303.58,-215 311.99,-215 320.33,-215"/>
<polygon fill="none" stroke="#63b8ff" points="295.47,-211.5 285.47,-215 295.47,-218.5 295.47,-211.5"/>
</a>
</g>
</g>
<!-- Node4 -->
<g id="Node000004" class="node">
<title>Node4</title>
<g id="a_Node000004"><a xlink:href="../../dd/d42/classTqObject.html" target="_top" xlink:title=" ">
<polygon fill="white" stroke="none" points="58,-241 0,-241 0,-189 58,-189 58,-241"/>
<text text-anchor="start" x="5" y="-227.5" font-family="Cascadia Code NF" font-size="10.00">TqObject</text>
<text text-anchor="start" x="26" y="-211.5" font-family="Cascadia Code NF" font-size="10.00"> </text>
<text text-anchor="start" x="26" y="-195.5" font-family="Cascadia Code NF" font-size="10.00"> </text>
<polygon fill="#bfbfbf" stroke="#bfbfbf" points="0,-223 0,-223 58,-223 58,-223 0,-223"/>
<polygon fill="#bfbfbf" stroke="#bfbfbf" points="0,-207 0,-207 58,-207 58,-207 0,-207"/>
<polygon fill="none" stroke="#bfbfbf" points="0,-189 0,-241 58,-241 58,-189 0,-189"/>
</a>
</g>
</g>
<!-- Node4&#45;&gt;Node3 -->
<g id="edge3_Node000003_Node000004" class="edge">
<title>Node4&#45;&gt;Node3</title>
<g id="a_edge3_Node000003_Node000004"><a xlink:title=" ">
<path fill="none" stroke="#63b8ff" d="M69.34,-215C77.03,-215 85.39,-215 94,-215"/>
<polygon fill="none" stroke="#63b8ff" points="69.4,-211.5 59.4,-215 69.4,-218.5 69.4,-211.5"/>
</a>
</g>
</g>
</g>
</svg>
