<?xml version="1.0" encoding="UTF-8" standalone="no"?>
<!DOCTYPE svg PUBLIC "-//W3C//DTD SVG 1.1//EN"
 "http://www.w3.org/Graphics/SVG/1.1/DTD/svg11.dtd">
<!-- Generated by graphviz version 11.0.0 (20240428.1522)
 -->
<!-- Title: v8::internal::compiler::NodeObservation Pages: 1 -->
<!--zoomable 356 -->

<svg id="main" version="1.1" xmlns="http://www.w3.org/2000/svg" xmlns:xlink="http://www.w3.org/1999/xlink" xml:space="preserve" onload="init(evt)">
<style type="text/css"><![CDATA[
.node, .edge {opacity: 0.7;}
.node.selected, .edge.selected {opacity: 1;}
.edge:hover path { stroke: red; }
.edge:hover polygon { stroke: red; fill: red; }
svg#main { background-color: #111; }
]]></style>

<defs>
  <circle id="rim" cx="0" cy="0" r="7"/>
  <circle id="rim2" cx="0" cy="0" r="3.5"/>
  <g id="zoomPlus">
    <use xlink:href="#rim" fill="#404040"><set attributeName="fill" to="#808080" begin="zoomplus.mouseover" end="zoomplus.mouseout"/></use>
    <path d="M-4,0h8M0,-4v8" fill="none" stroke="white" stroke-width="1.5" pointer-events="none"/>
  </g>
  <g id="zoomMin">
    <use xlink:href="#rim" fill="#404040"><set attributeName="fill" to="#808080" begin="zoomminus.mouseover" end="zoomminus.mouseout"/></use>
    <path d="M-4,0h8" fill="none" stroke="white" stroke-width="1.5" pointer-events="none"/>
  </g>
  <g id="arrowUp" transform="translate(30 24)">
    <use xlink:href="#rim"/>
    <path pointer-events="none" fill="none" stroke="white" stroke-width="1.5" d="M0,-3.0v7 M-2.5,-0.5L0,-3.0L2.5,-0.5"/>
  </g>
  <g id="arrowRight" transform="rotate(90) translate(36 -43)">
    <use xlink:href="#rim"/>
    <path pointer-events="none" fill="none" stroke="white" stroke-width="1.5" d="M0,-3.0v7 M-2.5,-0.5L0,-3.0L2.5,-0.5"/>
  </g>
  <g id="arrowDown" transform="rotate(180) translate(-30 -48)">
    <use xlink:href="#rim"/>
    <path pointer-events="none" fill="none" stroke="white" stroke-width="1.5" d="M0,-3.0v7 M-2.5,-0.5L0,-3.0L2.5,-0.5"/>
  </g>
  <g id="arrowLeft" transform="rotate(270) translate(-36 17)">
    <use xlink:href="#rim"/>
    <path pointer-events="none" fill="none" stroke="white" stroke-width="1.5" d="M0,-3.0v7 M-2.5,-0.5L0,-3.0L2.5,-0.5"/>
  </g>
  <g id="resetDef">
    <use xlink:href="#rim2" fill="#404040"><set attributeName="fill" to="#808080" begin="reset.mouseover" end="reset.mouseout"/></use>
  </g>
</defs>
<script type="application/ecmascript">
var viewWidth = 611;
var viewHeight = 356;
var sectionId = 'dynsection-1';
</script>
<script type="application/ecmascript" xlink:href="../../svg.min.js"/>
<svg id="graph" class="graph">
<g id="viewport">
<title>v8::internal::compiler::NodeObservation</title>
<!-- Node1 -->
<g id="Node000001" class="node">
<title>Node1</title>
<g id="a_Node000001"><a xlink:title=" ">
<polygon fill="#999999" stroke="none" points="603,-268 461,-268 461,-203 603,-203 603,-268"/>
<text text-anchor="start" x="466" y="-254.5" font-family="Cascadia Code NF" font-size="10.00">v8::internal::compiler</text>
<text text-anchor="start" x="481" y="-241.75" font-family="Cascadia Code NF" font-size="10.00">::NodeObservation</text>
<text text-anchor="start" x="529" y="-225.5" font-family="Cascadia Code NF" font-size="10.00"> </text>
<text text-anchor="start" x="470.5" y="-209.5" font-family="Cascadia Code NF" font-size="10.00">+</text>
<text text-anchor="start" x="486" y="-209.5" font-family="Cascadia Code NF" font-size="10.00">NodeObservation()</text>
<polygon fill="#666666" stroke="#666666" points="461,-237 461,-237 603,-237 603,-237 461,-237"/>
<polygon fill="#666666" stroke="#666666" points="461,-221 461,-221 603,-221 603,-221 461,-221"/>
<polygon fill="none" stroke="#666666" points="461,-203 461,-268 603,-268 603,-203 461,-203"/>
</a>
</g>
</g>
<!-- Node2 -->
<g id="Node000002" class="node">
<title>Node2</title>
<g id="a_Node000002"><a xlink:href="../../dc/dca/classv8_1_1internal_1_1ZoneObject.html" target="_top" xlink:title=" ">
<polygon fill="white" stroke="none" points="154,-347.5 0,-347.5 0,-247.5 154,-247.5 154,-347.5"/>
<text text-anchor="start" x="5" y="-334" font-family="Cascadia Code NF" font-size="10.00">v8::internal::ZoneObject</text>
<text text-anchor="start" x="74" y="-318" font-family="Cascadia Code NF" font-size="10.00"> </text>
<text text-anchor="start" x="12.5" y="-302" font-family="Cascadia Code NF" font-size="10.00">+</text>
<text text-anchor="start" x="31" y="-302" font-family="Cascadia Code NF" font-size="10.00">operator new()</text>
<text text-anchor="start" x="12.5" y="-286" font-family="Cascadia Code NF" font-size="10.00">+</text>
<text text-anchor="start" x="31" y="-286" font-family="Cascadia Code NF" font-size="10.00">operator new()</text>
<text text-anchor="start" x="12.5" y="-270" font-family="Cascadia Code NF" font-size="10.00">+</text>
<text text-anchor="start" x="31" y="-270" font-family="Cascadia Code NF" font-size="10.00">operator delete()</text>
<text text-anchor="start" x="12.5" y="-254" font-family="Cascadia Code NF" font-size="10.00">+</text>
<text text-anchor="start" x="31" y="-254" font-family="Cascadia Code NF" font-size="10.00">operator delete()</text>
<polygon fill="#bfbfbf" stroke="#bfbfbf" points="0,-329.5 0,-329.5 154,-329.5 154,-329.5 0,-329.5"/>
<polygon fill="#bfbfbf" stroke="#bfbfbf" points="0,-313.5 0,-313.5 154,-313.5 154,-313.5 0,-313.5"/>
<polygon fill="none" stroke="#bfbfbf" points="0,-247.5 0,-347.5 154,-347.5 154,-247.5 0,-247.5"/>
</a>
</g>
</g>
<!-- Node2&#45;&gt;Node1 -->
<g id="edge1_Node000001_Node000002" class="edge">
<title>Node2&#45;&gt;Node1</title>
<g id="a_edge1_Node000001_Node000002"><a xlink:title=" ">
<path fill="none" stroke="#63b8ff" d="M164.84,-328.1C173.59,-330.29 182.42,-332.17 191,-333.5 267.42,-345.38 290.4,-353.88 365,-333.5 411.65,-320.76 458.53,-291.18 490.51,-267.83"/>
<polygon fill="none" stroke="#63b8ff" points="165.85,-324.74 155.28,-325.55 164.04,-331.51 165.85,-324.74"/>
</a>
</g>
</g>
<!-- Node3 -->
<g id="Node000003" class="node">
<title>Node3</title>
<g id="a_Node000003"><a xlink:href="../../de/d35/classv8_1_1internal_1_1compiler_1_1NodeObserver.html" target="_top" xlink:title=" ">
<polygon fill="white" stroke="none" points="365,-324 191,-324 191,-147 365,-147 365,-324"/>
<text text-anchor="start" x="212" y="-310.5" font-family="Cascadia Code NF" font-size="10.00">v8::internal::compiler</text>
<text text-anchor="start" x="236" y="-297.75" font-family="Cascadia Code NF" font-size="10.00">::NodeObserver</text>
<text text-anchor="start" x="275" y="-281.5" font-family="Cascadia Code NF" font-size="10.00"> </text>
<text text-anchor="start" x="195" y="-265.5" font-family="Cascadia Code NF" font-size="10.00">+</text>
<text text-anchor="start" x="205" y="-265.5" font-family="Cascadia Code NF" font-size="10.00">NodeObserver()</text>
<text text-anchor="start" x="195" y="-249.5" font-family="Cascadia Code NF" font-size="10.00">+</text>
<text text-anchor="start" x="205" y="-249.5" font-family="Cascadia Code NF" font-size="10.00">~NodeObserver()</text>
<text text-anchor="start" x="195" y="-233.5" font-family="Cascadia Code NF" font-size="10.00">+</text>
<text text-anchor="start" x="205" y="-233.5" font-family="Cascadia Code NF" font-size="10.00">NodeObserver()</text>
<text text-anchor="start" x="195" y="-217.5" font-family="Cascadia Code NF" font-size="10.00">+</text>
<text text-anchor="start" x="205" y="-217.5" font-family="Cascadia Code NF" font-size="10.00">operator=()</text>
<text text-anchor="start" x="195" y="-201.5" font-family="Cascadia Code NF" font-size="10.00">+</text>
<text text-anchor="start" x="205" y="-201.5" font-family="Cascadia Code NF" font-size="10.00">OnNodeCreated()</text>
<text text-anchor="start" x="195" y="-185.5" font-family="Cascadia Code NF" font-size="10.00">+</text>
<text text-anchor="start" x="205" y="-185.5" font-family="Cascadia Code NF" font-size="10.00">OnNodeChanged()</text>
<text text-anchor="start" x="195" y="-169.5" font-family="Cascadia Code NF" font-size="10.00">+</text>
<text text-anchor="start" x="205" y="-169.5" font-family="Cascadia Code NF" font-size="10.00">set_has_observed_changes()</text>
<text text-anchor="start" x="195" y="-153.5" font-family="Cascadia Code NF" font-size="10.00">+</text>
<text text-anchor="start" x="205" y="-153.5" font-family="Cascadia Code NF" font-size="10.00">has_observed_changes()</text>
<polygon fill="#bfbfbf" stroke="#bfbfbf" points="191,-293 191,-293 365,-293 365,-293 191,-293"/>
<polygon fill="#bfbfbf" stroke="#bfbfbf" points="191,-277 191,-277 365,-277 365,-277 191,-277"/>
<polygon fill="none" stroke="#bfbfbf" points="191,-147 191,-324 365,-324 365,-147 191,-147"/>
</a>
</g>
</g>
<!-- Node2&#45;&gt;Node3 -->
<g id="edge3_Node000003_Node000002" class="edge">
<title>Node2&#45;&gt;Node3</title>
<g id="a_edge3_Node000003_Node000002"><a xlink:title=" ">
<path fill="none" stroke="#63b8ff" d="M164.77,-270.47C173.51,-267.74 182.37,-264.98 191.1,-262.26"/>
<polygon fill="none" stroke="#63b8ff" points="163.75,-267.12 155.25,-273.43 165.83,-273.8 163.75,-267.12"/>
</a>
</g>
</g>
<!-- Node3&#45;&gt;Node1 -->
<g id="edge2_Node000001_Node000003" class="edge">
<title>Node3&#45;&gt;Node1</title>
<g id="a_edge2_Node000001_Node000003"><a xlink:title=" ">
<path fill="none" stroke="#63b8ff" d="M364.67,-235.5C391.64,-235.5 421.38,-235.5 448.15,-235.5"/>
<polygon fill="none" stroke="#63b8ff" points="448.14,-235.5 454.14,-231.5 460.14,-235.5 454.14,-239.5 448.14,-235.5"/>
</a>
</g>
<text text-anchor="middle" x="413" y="-238.75" font-family="Cascadia Code NF" font-size="10.00" fill="grey"> +observer</text>
</g>
<!-- Node4 -->
<g id="Node000004" class="node">
<title>Node4</title>
<g id="a_Node000004"><a xlink:href="../../d5/d61/classv8_1_1internal_1_1compiler_1_1ObservableNodeState.html" target="_top" xlink:title=" ">
<polygon fill="white" stroke="none" points="350,-129 206,-129 206,0 350,0 350,-129"/>
<text text-anchor="start" x="212" y="-115.5" font-family="Cascadia Code NF" font-size="10.00">v8::internal::compiler</text>
<text text-anchor="start" x="215" y="-102.75" font-family="Cascadia Code NF" font-size="10.00">::ObservableNodeState</text>
<text text-anchor="start" x="275" y="-86.5" font-family="Cascadia Code NF" font-size="10.00"> </text>
<text text-anchor="start" x="210" y="-70.5" font-family="Cascadia Code NF" font-size="10.00">+</text>
<text text-anchor="start" x="220" y="-70.5" font-family="Cascadia Code NF" font-size="10.00">ObservableNodeState()</text>
<text text-anchor="start" x="210" y="-54.5" font-family="Cascadia Code NF" font-size="10.00">+</text>
<text text-anchor="start" x="220" y="-54.5" font-family="Cascadia Code NF" font-size="10.00">id()</text>
<text text-anchor="start" x="210" y="-38.5" font-family="Cascadia Code NF" font-size="10.00">+</text>
<text text-anchor="start" x="220" y="-38.5" font-family="Cascadia Code NF" font-size="10.00">op()</text>
<text text-anchor="start" x="210" y="-22.5" font-family="Cascadia Code NF" font-size="10.00">+</text>
<text text-anchor="start" x="220" y="-22.5" font-family="Cascadia Code NF" font-size="10.00">opcode()</text>
<text text-anchor="start" x="210" y="-6.5" font-family="Cascadia Code NF" font-size="10.00">+</text>
<text text-anchor="start" x="220" y="-6.5" font-family="Cascadia Code NF" font-size="10.00">type()</text>
<polygon fill="#bfbfbf" stroke="#bfbfbf" points="206,-98 206,-98 350,-98 350,-98 206,-98"/>
<polygon fill="#bfbfbf" stroke="#bfbfbf" points="206,-82 206,-82 350,-82 350,-82 206,-82"/>
<polygon fill="none" stroke="#bfbfbf" points="206,0 206,-129 350,-129 350,0 206,0"/>
</a>
</g>
</g>
<!-- Node4&#45;&gt;Node1 -->
<g id="edge4_Node000001_Node000004" class="edge">
<title>Node4&#45;&gt;Node1</title>
<g id="a_edge4_Node000001_Node000004"><a xlink:title=" ">
<path fill="none" stroke="#63b8ff" d="M349.87,-112.59C388.69,-138.93 436.21,-171.18 472.83,-196.03"/>
<polygon fill="none" stroke="#63b8ff" points="472.67,-195.92 479.88,-195.98 482.6,-202.65 475.39,-202.6 472.67,-195.92"/>
</a>
</g>
<text text-anchor="middle" x="413" y="-177.75" font-family="Cascadia Code NF" font-size="10.00" fill="grey"> +state</text>
</g>
</g>
</svg>

<g id="navigator" transform="translate(0 0)" fill="#404254">
  <rect fill="#f2f5e9" fill-opacity="0.5" stroke="#606060" stroke-width=".5" x="0" y="0" width="60" height="60"/>
  <use id="zoomplus" xlink:href="#zoomPlus" x="17" y="9" onmousedown="handleZoom(evt,'in')"/>
  <use id="zoomminus" xlink:href="#zoomMin" x="42" y="9" onmousedown="handleZoom(evt,'out')"/>
  <use id="reset" xlink:href="#resetDef" x="30" y="36" onmousedown="handleReset()"/>
   <use id="arrowup" xlink:href="#arrowUp" x="0" y="0" onmousedown="handlePan(0,-1)"/>
  <use id="arrowright" xlink:href="#arrowRight" x="0" y="0" onmousedown="handlePan(1,0)"/>
  <use id="arrowdown" xlink:href="#arrowDown" x="0" y="0" onmousedown="handlePan(0,1)"/>
  <use id="arrowleft" xlink:href="#arrowLeft" x="0" y="0" onmousedown="handlePan(-1,0)"/>
</g>
<svg viewBox="0 0 15 15" width="100%" height="30px" preserveAspectRatio="xMaxYMin meet">
 <g id="arrow_out" transform="scale(0.3 0.3)">
  <a xlink:href="structv8_1_1internal_1_1compiler_1_1NodeObservation__coll__graph_org.svg" target="_base">
   <rect id="button" ry="5" rx="5" y="6" x="6" height="38" width="38"
        fill="#f2f5e9" fill-opacity="0.5" stroke="#606060" stroke-width="1.0"/>
   <path id="arrow"
     d="M 11.500037,31.436501 C 11.940474,20.09759 22.043105,11.32322 32.158766,21.979434 L 37.068811,17.246167 C 37.068811,17.246167 37.088388,32 37.088388,32 L 22.160133,31.978069 C 22.160133,31.978069 26.997745,27.140456 26.997745,27.140456 C 18.528582,18.264221 13.291696,25.230495 11.500037,31.436501 z"
     style="fill:#404040;"/>
  </a>
 </g>
</svg>

<style type='text/css'>
<![CDATA[
[data-mouse-over-selected='false'] { opacity: 0.7; }
[data-mouse-over-selected='true']  { opacity: 1.0; }
]]>
</style>
<script type="application/ecmascript"><![CDATA[
document.addEventListener('DOMContentLoaded', (event) => {
  highlightEdges();
  highlightAdjacentNodes();
});
]]></script>
</svg>
