<?xml version="1.0" encoding="UTF-8" standalone="no"?>
<!DOCTYPE svg PUBLIC "-//W3C//DTD SVG 1.1//EN"
 "http://www.w3.org/Graphics/SVG/1.1/DTD/svg11.dtd">
<!-- Generated by graphviz version 11.0.0 (20240428.1522)
 -->
<!-- Title: v8::internal::BufferedCharacterStream&lt; ByteStream &gt; Pages: 1 -->
<svg width="418pt" height="406pt"
 viewBox="0.00 0.00 418.00 406.00" xmlns="http://www.w3.org/2000/svg" xmlns:xlink="http://www.w3.org/1999/xlink">
<g id="graph0" class="graph" transform="scale(1 1) rotate(0) translate(4 402)">
<title>v8::internal::BufferedCharacterStream&lt; ByteStream &gt;</title>
<!-- Node1 -->
<g id="Node000001" class="node">
<title>Node1</title>
<g id="a_Node000001"><a xlink:title=" ">
<polygon fill="#999999" stroke="none" points="410,-263.5 214,-263.5 214,-134.5 410,-134.5 410,-263.5"/>
<text text-anchor="start" x="219" y="-250" font-family="Cascadia Code NF" font-size="10.00">v8::internal::BufferedCharacter</text>
<text text-anchor="start" x="252" y="-237.25" font-family="Cascadia Code NF" font-size="10.00">Stream&lt; ByteStream &gt;</text>
<text text-anchor="start" x="309" y="-221" font-family="Cascadia Code NF" font-size="10.00"> </text>
<text text-anchor="start" x="225" y="-205" font-family="Cascadia Code NF" font-size="10.00">+</text>
<text text-anchor="start" x="242" y="-205" font-family="Cascadia Code NF" font-size="10.00">BufferedCharacterStream()</text>
<text text-anchor="start" x="225" y="-189" font-family="Cascadia Code NF" font-size="10.00">+</text>
<text text-anchor="start" x="242" y="-189" font-family="Cascadia Code NF" font-size="10.00">can_be_cloned()</text>
<text text-anchor="start" x="225" y="-173" font-family="Cascadia Code NF" font-size="10.00">+</text>
<text text-anchor="start" x="242" y="-173" font-family="Cascadia Code NF" font-size="10.00">Clone()</text>
<text text-anchor="start" x="225" y="-157" font-family="Cascadia Code NF" font-size="10.00">#</text>
<text text-anchor="start" x="242" y="-157" font-family="Cascadia Code NF" font-size="10.00">ReadBlock()</text>
<text text-anchor="start" x="225" y="-141" font-family="Cascadia Code NF" font-size="10.00">#</text>
<text text-anchor="start" x="242" y="-141" font-family="Cascadia Code NF" font-size="10.00">can_access_heap()</text>
<polygon fill="#666666" stroke="#666666" points="214,-232.5 214,-232.5 410,-232.5 410,-232.5 214,-232.5"/>
<polygon fill="#666666" stroke="#666666" points="214,-216.5 214,-216.5 410,-216.5 410,-216.5 214,-216.5"/>
<polygon fill="none" stroke="#666666" points="214,-134.5 214,-263.5 410,-263.5 410,-134.5 214,-134.5"/>
</a>
</g>
</g>
<!-- Node2 -->
<g id="Node000002" class="node">
<title>Node2</title>
<g id="a_Node000002"><a xlink:href="../../d3/d2d/classv8_1_1internal_1_1Utf16CharacterStream.html" target="_top" xlink:title=" ">
<polygon fill="white" stroke="none" points="178,-398 0,-398 0,0 178,0 178,-398"/>
<text text-anchor="start" x="5" y="-384.5" font-family="Cascadia Code NF" font-size="10.00">v8::internal::Utf16Character</text>
<text text-anchor="start" x="71" y="-371.75" font-family="Cascadia Code NF" font-size="10.00">Stream</text>
<text text-anchor="start" x="9.5" y="-355.5" font-family="Cascadia Code NF" font-size="10.00">+</text>
<text text-anchor="start" x="25" y="-355.5" font-family="Cascadia Code NF" font-size="10.00">kEndOfInput</text>
<text text-anchor="start" x="9.5" y="-339.5" font-family="Cascadia Code NF" font-size="10.00">#</text>
<text text-anchor="start" x="25" y="-339.5" font-family="Cascadia Code NF" font-size="10.00">buffer_start_</text>
<text text-anchor="start" x="9.5" y="-323.5" font-family="Cascadia Code NF" font-size="10.00">#</text>
<text text-anchor="start" x="25" y="-323.5" font-family="Cascadia Code NF" font-size="10.00">buffer_cursor_</text>
<text text-anchor="start" x="9.5" y="-307.5" font-family="Cascadia Code NF" font-size="10.00">#</text>
<text text-anchor="start" x="25" y="-307.5" font-family="Cascadia Code NF" font-size="10.00">buffer_end_</text>
<text text-anchor="start" x="9.5" y="-291.5" font-family="Cascadia Code NF" font-size="10.00">#</text>
<text text-anchor="start" x="25" y="-291.5" font-family="Cascadia Code NF" font-size="10.00">buffer_pos_</text>
<text text-anchor="start" x="9.5" y="-275.5" font-family="Cascadia Code NF" font-size="10.00">#</text>
<text text-anchor="start" x="25" y="-275.5" font-family="Cascadia Code NF" font-size="10.00">runtime_call_stats_</text>
<text text-anchor="start" x="9.5" y="-259.5" font-family="Cascadia Code NF" font-size="10.00">#</text>
<text text-anchor="start" x="25" y="-259.5" font-family="Cascadia Code NF" font-size="10.00">has_parser_error_</text>
<text text-anchor="start" x="9.5" y="-243.5" font-family="Cascadia Code NF" font-size="10.00">+</text>
<text text-anchor="start" x="25" y="-243.5" font-family="Cascadia Code NF" font-size="10.00">~Utf16CharacterStream()</text>
<text text-anchor="start" x="9.5" y="-227.5" font-family="Cascadia Code NF" font-size="10.00">+</text>
<text text-anchor="start" x="25" y="-227.5" font-family="Cascadia Code NF" font-size="10.00">set_parser_error()</text>
<text text-anchor="start" x="9.5" y="-211.5" font-family="Cascadia Code NF" font-size="10.00">+</text>
<text text-anchor="start" x="25" y="-211.5" font-family="Cascadia Code NF" font-size="10.00">reset_parser_error</text>
<text text-anchor="start" x="25" y="-198.75" font-family="Cascadia Code NF" font-size="10.00">_flag()</text>
<text text-anchor="start" x="9.5" y="-182.5" font-family="Cascadia Code NF" font-size="10.00">+</text>
<text text-anchor="start" x="25" y="-182.5" font-family="Cascadia Code NF" font-size="10.00">has_parser_error()</text>
<text text-anchor="start" x="9.5" y="-166.5" font-family="Cascadia Code NF" font-size="10.00">+</text>
<text text-anchor="start" x="25" y="-166.5" font-family="Cascadia Code NF" font-size="10.00">Peek()</text>
<text text-anchor="start" x="9.5" y="-150.5" font-family="Cascadia Code NF" font-size="10.00">+</text>
<text text-anchor="start" x="25" y="-150.5" font-family="Cascadia Code NF" font-size="10.00">Advance()</text>
<text text-anchor="start" x="9.5" y="-134.5" font-family="Cascadia Code NF" font-size="10.00">+</text>
<text text-anchor="start" x="25" y="-134.5" font-family="Cascadia Code NF" font-size="10.00">AdvanceUntil()</text>
<text text-anchor="start" x="9.5" y="-118.5" font-family="Cascadia Code NF" font-size="10.00">+</text>
<text text-anchor="start" x="25" y="-118.5" font-family="Cascadia Code NF" font-size="10.00">Back()</text>
<text text-anchor="start" x="9.5" y="-102.5" font-family="Cascadia Code NF" font-size="10.00">+</text>
<text text-anchor="start" x="25" y="-102.5" font-family="Cascadia Code NF" font-size="10.00">pos()</text>
<text text-anchor="start" x="9.5" y="-86.5" font-family="Cascadia Code NF" font-size="10.00">+</text>
<text text-anchor="start" x="25" y="-86.5" font-family="Cascadia Code NF" font-size="10.00">Seek()</text>
<text text-anchor="start" x="25" y="-70.5" font-family="Cascadia Code NF" font-size="10.00">and 6 more...</text>
<text text-anchor="start" x="9.5" y="-54.5" font-family="Cascadia Code NF" font-size="10.00">#</text>
<text text-anchor="start" x="25" y="-54.5" font-family="Cascadia Code NF" font-size="10.00">Utf16CharacterStream()</text>
<text text-anchor="start" x="9.5" y="-38.5" font-family="Cascadia Code NF" font-size="10.00">#</text>
<text text-anchor="start" x="25" y="-38.5" font-family="Cascadia Code NF" font-size="10.00">Utf16CharacterStream()</text>
<text text-anchor="start" x="9.5" y="-22.5" font-family="Cascadia Code NF" font-size="10.00">#</text>
<text text-anchor="start" x="25" y="-22.5" font-family="Cascadia Code NF" font-size="10.00">ReadBlockChecked()</text>
<text text-anchor="start" x="9.5" y="-6.5" font-family="Cascadia Code NF" font-size="10.00">#</text>
<text text-anchor="start" x="25" y="-6.5" font-family="Cascadia Code NF" font-size="10.00">ReadBlock()</text>
<polygon fill="#bfbfbf" stroke="#bfbfbf" points="0,-367 0,-367 178,-367 178,-367 0,-367"/>
<polygon fill="#bfbfbf" stroke="#bfbfbf" points="0,-255 0,-255 23,-255 23,-255 0,-255"/>
<polygon fill="#bfbfbf" stroke="#bfbfbf" points="23,-255 23,-255 178,-255 178,-255 23,-255"/>
<polygon fill="none" stroke="#bfbfbf" points="0,0 0,-398 178,-398 178,0 0,0"/>
</a>
</g>
</g>
<!-- Node2&#45;&gt;Node1 -->
<g id="edge1_Node000001_Node000002" class="edge">
<title>Node2&#45;&gt;Node1</title>
<g id="a_edge1_Node000001_Node000002"><a xlink:title=" ">
<path fill="none" stroke="#63b8ff" d="M189.24,-199C197.55,-199 205.95,-199 214.24,-199"/>
<polygon fill="none" stroke="#63b8ff" points="189.49,-195.5 179.49,-199 189.49,-202.5 189.49,-195.5"/>
</a>
</g>
</g>
</g>
</svg>
