<?xml version="1.0" encoding="UTF-8" standalone="no"?>
<!DOCTYPE svg PUBLIC "-//W3C//DTD SVG 1.1//EN"
 "http://www.w3.org/Graphics/SVG/1.1/DTD/svg11.dtd">
<!-- Generated by graphviz version 11.0.0 (20240428.1522)
 -->
<!-- Title: TorqueGeneratedPropertyCell&lt; D, P &gt; Pages: 1 -->
<svg width="252pt" height="566pt"
 viewBox="0.00 0.00 252.00 566.00" xmlns="http://www.w3.org/2000/svg" xmlns:xlink="http://www.w3.org/1999/xlink">
<g id="graph0" class="graph" transform="scale(1 1) rotate(0) translate(4 562)">
<title>TorqueGeneratedPropertyCell&lt; D, P &gt;</title>
<!-- Node1 -->
<g id="Node000001" class="node">
<title>Node1</title>
<g id="a_Node000001"><a xlink:title=" ">
<polygon fill="#999999" stroke="none" points="244,-558 52,-558 52,0 244,0 244,-558"/>
<text text-anchor="start" x="67" y="-544.5" font-family="Cascadia Code NF" font-size="10.00">TorqueGeneratedPropertyCell</text>
<text text-anchor="start" x="124" y="-531.75" font-family="Cascadia Code NF" font-size="10.00">&lt; D, P &gt;</text>
<text text-anchor="start" x="56" y="-515.5" font-family="Cascadia Code NF" font-size="10.00">+</text>
<text text-anchor="start" x="66" y="-515.5" font-family="Cascadia Code NF" font-size="10.00">kStartOfStrongFieldsOffset</text>
<text text-anchor="start" x="56" y="-499.5" font-family="Cascadia Code NF" font-size="10.00">+</text>
<text text-anchor="start" x="66" y="-499.5" font-family="Cascadia Code NF" font-size="10.00">kNameOffset</text>
<text text-anchor="start" x="56" y="-483.5" font-family="Cascadia Code NF" font-size="10.00">+</text>
<text text-anchor="start" x="66" y="-483.5" font-family="Cascadia Code NF" font-size="10.00">kNameOffsetEnd</text>
<text text-anchor="start" x="56" y="-467.5" font-family="Cascadia Code NF" font-size="10.00">+</text>
<text text-anchor="start" x="66" y="-467.5" font-family="Cascadia Code NF" font-size="10.00">kPropertyDetailsRawOffset</text>
<text text-anchor="start" x="56" y="-451.5" font-family="Cascadia Code NF" font-size="10.00">+</text>
<text text-anchor="start" x="66" y="-451.5" font-family="Cascadia Code NF" font-size="10.00">kPropertyDetailsRawOffsetEnd</text>
<text text-anchor="start" x="56" y="-435.5" font-family="Cascadia Code NF" font-size="10.00">+</text>
<text text-anchor="start" x="66" y="-435.5" font-family="Cascadia Code NF" font-size="10.00">kValueOffset</text>
<text text-anchor="start" x="56" y="-419.5" font-family="Cascadia Code NF" font-size="10.00">+</text>
<text text-anchor="start" x="66" y="-419.5" font-family="Cascadia Code NF" font-size="10.00">kValueOffsetEnd</text>
<text text-anchor="start" x="56" y="-403.5" font-family="Cascadia Code NF" font-size="10.00">+</text>
<text text-anchor="start" x="66" y="-403.5" font-family="Cascadia Code NF" font-size="10.00">kDependentCodeOffset</text>
<text text-anchor="start" x="56" y="-387.5" font-family="Cascadia Code NF" font-size="10.00">+</text>
<text text-anchor="start" x="66" y="-387.5" font-family="Cascadia Code NF" font-size="10.00">kDependentCodeOffsetEnd</text>
<text text-anchor="start" x="56" y="-371.5" font-family="Cascadia Code NF" font-size="10.00">+</text>
<text text-anchor="start" x="66" y="-371.5" font-family="Cascadia Code NF" font-size="10.00">kEndOfStrongFieldsOffset</text>
<text text-anchor="start" x="56" y="-355.5" font-family="Cascadia Code NF" font-size="10.00">+</text>
<text text-anchor="start" x="66" y="-355.5" font-family="Cascadia Code NF" font-size="10.00">kStartOfWeakFieldsOffset</text>
<text text-anchor="start" x="56" y="-339.5" font-family="Cascadia Code NF" font-size="10.00">+</text>
<text text-anchor="start" x="66" y="-339.5" font-family="Cascadia Code NF" font-size="10.00">kEndOfWeakFieldsOffset</text>
<text text-anchor="start" x="56" y="-323.5" font-family="Cascadia Code NF" font-size="10.00">+</text>
<text text-anchor="start" x="66" y="-323.5" font-family="Cascadia Code NF" font-size="10.00">kHeaderSize</text>
<text text-anchor="start" x="56" y="-307.5" font-family="Cascadia Code NF" font-size="10.00">+</text>
<text text-anchor="start" x="66" y="-307.5" font-family="Cascadia Code NF" font-size="10.00">kSize</text>
<text text-anchor="start" x="56" y="-291.5" font-family="Cascadia Code NF" font-size="10.00">+</text>
<text text-anchor="start" x="66" y="-291.5" font-family="Cascadia Code NF" font-size="10.00">name()</text>
<text text-anchor="start" x="56" y="-275.5" font-family="Cascadia Code NF" font-size="10.00">+</text>
<text text-anchor="start" x="66" y="-275.5" font-family="Cascadia Code NF" font-size="10.00">name()</text>
<text text-anchor="start" x="56" y="-259.5" font-family="Cascadia Code NF" font-size="10.00">+</text>
<text text-anchor="start" x="66" y="-259.5" font-family="Cascadia Code NF" font-size="10.00">set_name()</text>
<text text-anchor="start" x="56" y="-243.5" font-family="Cascadia Code NF" font-size="10.00">+</text>
<text text-anchor="start" x="66" y="-243.5" font-family="Cascadia Code NF" font-size="10.00">property_details_raw()</text>
<text text-anchor="start" x="56" y="-227.5" font-family="Cascadia Code NF" font-size="10.00">+</text>
<text text-anchor="start" x="66" y="-227.5" font-family="Cascadia Code NF" font-size="10.00">set_property_details</text>
<text text-anchor="start" x="66" y="-214.75" font-family="Cascadia Code NF" font-size="10.00">_raw()</text>
<text text-anchor="start" x="56" y="-198.5" font-family="Cascadia Code NF" font-size="10.00">+</text>
<text text-anchor="start" x="66" y="-198.5" font-family="Cascadia Code NF" font-size="10.00">value()</text>
<text text-anchor="start" x="56" y="-182.5" font-family="Cascadia Code NF" font-size="10.00">+</text>
<text text-anchor="start" x="66" y="-182.5" font-family="Cascadia Code NF" font-size="10.00">value()</text>
<text text-anchor="start" x="56" y="-166.5" font-family="Cascadia Code NF" font-size="10.00">+</text>
<text text-anchor="start" x="66" y="-166.5" font-family="Cascadia Code NF" font-size="10.00">set_value()</text>
<text text-anchor="start" x="56" y="-150.5" font-family="Cascadia Code NF" font-size="10.00">+</text>
<text text-anchor="start" x="66" y="-150.5" font-family="Cascadia Code NF" font-size="10.00">dependent_code()</text>
<text text-anchor="start" x="56" y="-134.5" font-family="Cascadia Code NF" font-size="10.00">+</text>
<text text-anchor="start" x="66" y="-134.5" font-family="Cascadia Code NF" font-size="10.00">dependent_code()</text>
<text text-anchor="start" x="56" y="-118.5" font-family="Cascadia Code NF" font-size="10.00">+</text>
<text text-anchor="start" x="66" y="-118.5" font-family="Cascadia Code NF" font-size="10.00">set_dependent_code()</text>
<text text-anchor="start" x="56" y="-102.5" font-family="Cascadia Code NF" font-size="10.00">+</text>
<text text-anchor="start" x="66" y="-102.5" font-family="Cascadia Code NF" font-size="10.00">AllocatedSize()</text>
<text text-anchor="start" x="56" y="-86.5" font-family="Cascadia Code NF" font-size="10.00">+</text>
<text text-anchor="start" x="66" y="-86.5" font-family="Cascadia Code NF" font-size="10.00">TorqueGeneratedPropertyCell()</text>
<text text-anchor="start" x="56" y="-70.5" font-family="Cascadia Code NF" font-size="10.00">+</text>
<text text-anchor="start" x="66" y="-70.5" font-family="Cascadia Code NF" font-size="10.00">cast()</text>
<text text-anchor="start" x="56" y="-54.5" font-family="Cascadia Code NF" font-size="10.00">+</text>
<text text-anchor="start" x="66" y="-54.5" font-family="Cascadia Code NF" font-size="10.00">unchecked_cast()</text>
<text text-anchor="start" x="56" y="-38.5" font-family="Cascadia Code NF" font-size="10.00">+</text>
<text text-anchor="start" x="66" y="-38.5" font-family="Cascadia Code NF" font-size="10.00">SizeFor()</text>
<text text-anchor="start" x="56" y="-22.5" font-family="Cascadia Code NF" font-size="10.00">#</text>
<text text-anchor="start" x="66" y="-22.5" font-family="Cascadia Code NF" font-size="10.00">TorqueGeneratedPropertyCell()</text>
<text text-anchor="start" x="56" y="-6.5" font-family="Cascadia Code NF" font-size="10.00">#</text>
<text text-anchor="start" x="66" y="-6.5" font-family="Cascadia Code NF" font-size="10.00">TorqueGeneratedPropertyCell()</text>
<polygon fill="#666666" stroke="#666666" points="52,-527 52,-527 244,-527 244,-527 52,-527"/>
<polygon fill="#666666" stroke="#666666" points="52,-303 52,-303 64,-303 64,-303 52,-303"/>
<polygon fill="#666666" stroke="#666666" points="64,-303 64,-303 244,-303 244,-303 64,-303"/>
<polygon fill="none" stroke="#666666" points="52,0 52,-558 244,-558 244,0 52,0"/>
</a>
</g>
</g>
<!-- Node2 -->
<g id="Node000002" class="node">
<title>Node2</title>
<g id="a_Node000002"><a xlink:href="$db/d72/classP.html" xlink:title=" ">
<polygon fill="white" stroke="none" points="16,-305 0,-305 0,-253 16,-253 16,-305"/>
<text text-anchor="start" x="5" y="-291.5" font-family="Cascadia Code NF" font-size="10.00">P</text>
<text text-anchor="start" x="5" y="-275.5" font-family="Cascadia Code NF" font-size="10.00"> </text>
<text text-anchor="start" x="5" y="-259.5" font-family="Cascadia Code NF" font-size="10.00"> </text>
<polygon fill="#bfbfbf" stroke="#bfbfbf" points="0,-287 0,-287 16,-287 16,-287 0,-287"/>
<polygon fill="#bfbfbf" stroke="#bfbfbf" points="0,-271 0,-271 16,-271 16,-271 0,-271"/>
<polygon fill="none" stroke="#bfbfbf" points="0,-253 0,-305 16,-305 16,-253 0,-253"/>
</a>
</g>
</g>
<!-- Node2&#45;&gt;Node1 -->
<g id="edge1_Node000001_Node000002" class="edge">
<title>Node2&#45;&gt;Node1</title>
<g id="a_edge1_Node000001_Node000002"><a xlink:title=" ">
<path fill="none" stroke="#63b8ff" d="M26.97,-279C34,-279 42.63,-279 52.01,-279"/>
<polygon fill="none" stroke="#63b8ff" points="27.17,-275.5 17.17,-279 27.17,-282.5 27.17,-275.5"/>
</a>
</g>
</g>
</g>
</svg>
