<?xml version="1.0" encoding="UTF-8" standalone="no"?>
<!DOCTYPE svg PUBLIC "-//W3C//DTD SVG 1.1//EN"
 "http://www.w3.org/Graphics/SVG/1.1/DTD/svg11.dtd">
<!-- Generated by graphviz version 11.0.0 (20240428.1522)
 -->
<!-- Title: v8::internal::DependentCode Pages: 1 -->
<svg width="1148pt" height="553pt"
 viewBox="0.00 0.00 1148.00 553.25" xmlns="http://www.w3.org/2000/svg" xmlns:xlink="http://www.w3.org/1999/xlink">
<g id="graph0" class="graph" transform="scale(1 1) rotate(0) translate(4 549.25)">
<title>v8::internal::DependentCode</title>
<!-- Node1 -->
<g id="Node000001" class="node">
<title>Node1</title>
<g id="a_Node000001"><a xlink:title=" ">
<polygon fill="#999999" stroke="none" points="1140,-314 954,-314 954,-182 1140,-182 1140,-314"/>
<text text-anchor="start" x="966" y="-300.5" font-family="Cascadia Code NF" font-size="10.00">v8::internal::DependentCode</text>
<text text-anchor="start" x="1044" y="-284.5" font-family="Cascadia Code NF" font-size="10.00"> </text>
<text text-anchor="start" x="958" y="-268.5" font-family="Cascadia Code NF" font-size="10.00">+</text>
<text text-anchor="start" x="968" y="-268.5" font-family="Cascadia Code NF" font-size="10.00">DependencyGroupName()</text>
<text text-anchor="start" x="958" y="-252.5" font-family="Cascadia Code NF" font-size="10.00">+</text>
<text text-anchor="start" x="968" y="-252.5" font-family="Cascadia Code NF" font-size="10.00">InstallDependency()</text>
<text text-anchor="start" x="958" y="-236.5" font-family="Cascadia Code NF" font-size="10.00">+</text>
<text text-anchor="start" x="968" y="-236.5" font-family="Cascadia Code NF" font-size="10.00">DeoptimizeDependencyGroups()</text>
<text text-anchor="start" x="958" y="-220.5" font-family="Cascadia Code NF" font-size="10.00">+</text>
<text text-anchor="start" x="968" y="-220.5" font-family="Cascadia Code NF" font-size="10.00">DeoptimizeDependencyGroups()</text>
<text text-anchor="start" x="958" y="-204.5" font-family="Cascadia Code NF" font-size="10.00">+</text>
<text text-anchor="start" x="968" y="-204.5" font-family="Cascadia Code NF" font-size="10.00">MarkCodeForDeoptimization()</text>
<text text-anchor="start" x="958" y="-188.5" font-family="Cascadia Code NF" font-size="10.00">+</text>
<text text-anchor="start" x="968" y="-188.5" font-family="Cascadia Code NF" font-size="10.00">empty_dependent_code()</text>
<polygon fill="#666666" stroke="#666666" points="954,-296 954,-296 1140,-296 1140,-296 954,-296"/>
<polygon fill="#666666" stroke="#666666" points="954,-280 954,-280 1140,-280 1140,-280 954,-280"/>
<polygon fill="none" stroke="#666666" points="954,-182 954,-314 1140,-314 1140,-182 954,-182"/>
</a>
</g>
</g>
<!-- Node2 -->
<g id="Node000002" class="node">
<title>Node2</title>
<g id="a_Node000002"><a xlink:href="$db/de3/classv8_1_1internal_1_1WeakArrayList.html" xlink:title=" ">
<polygon fill="white" stroke="none" points="792,-426 620,-426 620,-70 792,-70 792,-426"/>
<text text-anchor="start" x="625" y="-412.5" font-family="Cascadia Code NF" font-size="10.00">v8::internal::WeakArrayList</text>
<text text-anchor="start" x="703" y="-396.5" font-family="Cascadia Code NF" font-size="10.00"> </text>
<text text-anchor="start" x="625" y="-380.5" font-family="Cascadia Code NF" font-size="10.00">+</text>
<text text-anchor="start" x="636" y="-380.5" font-family="Cascadia Code NF" font-size="10.00">Compact()</text>
<text text-anchor="start" x="625" y="-364.5" font-family="Cascadia Code NF" font-size="10.00">+</text>
<text text-anchor="start" x="636" y="-364.5" font-family="Cascadia Code NF" font-size="10.00">Get()</text>
<text text-anchor="start" x="625" y="-348.5" font-family="Cascadia Code NF" font-size="10.00">+</text>
<text text-anchor="start" x="636" y="-348.5" font-family="Cascadia Code NF" font-size="10.00">Get()</text>
<text text-anchor="start" x="625" y="-332.5" font-family="Cascadia Code NF" font-size="10.00">+</text>
<text text-anchor="start" x="636" y="-332.5" font-family="Cascadia Code NF" font-size="10.00">get()</text>
<text text-anchor="start" x="625" y="-316.5" font-family="Cascadia Code NF" font-size="10.00">+</text>
<text text-anchor="start" x="636" y="-316.5" font-family="Cascadia Code NF" font-size="10.00">Set()</text>
<text text-anchor="start" x="625" y="-300.5" font-family="Cascadia Code NF" font-size="10.00">+</text>
<text text-anchor="start" x="636" y="-300.5" font-family="Cascadia Code NF" font-size="10.00">Set()</text>
<text text-anchor="start" x="625" y="-284.5" font-family="Cascadia Code NF" font-size="10.00">+</text>
<text text-anchor="start" x="636" y="-284.5" font-family="Cascadia Code NF" font-size="10.00">data_start()</text>
<text text-anchor="start" x="625" y="-268.5" font-family="Cascadia Code NF" font-size="10.00">+</text>
<text text-anchor="start" x="636" y="-268.5" font-family="Cascadia Code NF" font-size="10.00">CopyElements()</text>
<text text-anchor="start" x="625" y="-252.5" font-family="Cascadia Code NF" font-size="10.00">+</text>
<text text-anchor="start" x="636" y="-252.5" font-family="Cascadia Code NF" font-size="10.00">IsFull()</text>
<text text-anchor="start" x="625" y="-236.5" font-family="Cascadia Code NF" font-size="10.00">+</text>
<text text-anchor="start" x="636" y="-236.5" font-family="Cascadia Code NF" font-size="10.00">AllocatedSize()</text>
<text text-anchor="start" x="625" y="-220.5" font-family="Cascadia Code NF" font-size="10.00">+</text>
<text text-anchor="start" x="636" y="-220.5" font-family="Cascadia Code NF" font-size="10.00">CountLiveWeakReferences()</text>
<text text-anchor="start" x="625" y="-204.5" font-family="Cascadia Code NF" font-size="10.00">+</text>
<text text-anchor="start" x="636" y="-204.5" font-family="Cascadia Code NF" font-size="10.00">CountLiveElements()</text>
<text text-anchor="start" x="625" y="-188.5" font-family="Cascadia Code NF" font-size="10.00">+</text>
<text text-anchor="start" x="636" y="-188.5" font-family="Cascadia Code NF" font-size="10.00">RemoveOne()</text>
<text text-anchor="start" x="625" y="-172.5" font-family="Cascadia Code NF" font-size="10.00">+</text>
<text text-anchor="start" x="636" y="-172.5" font-family="Cascadia Code NF" font-size="10.00">Contains()</text>
<text text-anchor="start" x="625" y="-156.5" font-family="Cascadia Code NF" font-size="10.00">+</text>
<text text-anchor="start" x="636" y="-156.5" font-family="Cascadia Code NF" font-size="10.00">AddToEnd()</text>
<text text-anchor="start" x="625" y="-140.5" font-family="Cascadia Code NF" font-size="10.00">+</text>
<text text-anchor="start" x="636" y="-140.5" font-family="Cascadia Code NF" font-size="10.00">AddToEnd()</text>
<text text-anchor="start" x="625" y="-124.5" font-family="Cascadia Code NF" font-size="10.00">+</text>
<text text-anchor="start" x="636" y="-124.5" font-family="Cascadia Code NF" font-size="10.00">Append()</text>
<text text-anchor="start" x="625" y="-108.5" font-family="Cascadia Code NF" font-size="10.00">+</text>
<text text-anchor="start" x="636" y="-108.5" font-family="Cascadia Code NF" font-size="10.00">SizeForCapacity()</text>
<text text-anchor="start" x="625" y="-92.5" font-family="Cascadia Code NF" font-size="10.00">+</text>
<text text-anchor="start" x="636" y="-92.5" font-family="Cascadia Code NF" font-size="10.00">CapacityForLength()</text>
<text text-anchor="start" x="625" y="-76.5" font-family="Cascadia Code NF" font-size="10.00">+</text>
<text text-anchor="start" x="636" y="-76.5" font-family="Cascadia Code NF" font-size="10.00">EnsureSpace()</text>
<polygon fill="#bfbfbf" stroke="#bfbfbf" points="620,-408 620,-408 792,-408 792,-408 620,-408"/>
<polygon fill="#bfbfbf" stroke="#bfbfbf" points="620,-392 620,-392 792,-392 792,-392 620,-392"/>
<polygon fill="none" stroke="#bfbfbf" points="620,-70 620,-426 792,-426 792,-70 620,-70"/>
</a>
</g>
</g>
<!-- Node2&#45;&gt;Node1 -->
<g id="edge1_Node000001_Node000002" class="edge">
<title>Node2&#45;&gt;Node1</title>
<g id="a_edge1_Node000001_Node000002"><a xlink:title=" ">
<path fill="none" stroke="#63b8ff" d="M803.18,-248C850.53,-248 907.33,-248 954.09,-248"/>
<polygon fill="none" stroke="#63b8ff" points="803.18,-244.5 793.18,-248 803.18,-251.5 803.18,-244.5"/>
</a>
</g>
</g>
<!-- Node3 -->
<g id="Node000003" class="node">
<title>Node3</title>
<g id="a_Node000003"><a xlink:href="$db/d82/classTorqueGeneratedWeakArrayList.html" xlink:title=" ">
<polygon fill="white" stroke="none" points="476,-356 268,-356 268,-44 476,-44 476,-356"/>
<text text-anchor="start" x="273" y="-342.5" font-family="Cascadia Code NF" font-size="10.00">TorqueGeneratedWeakArray</text>
<text text-anchor="start" x="273" y="-329.75" font-family="Cascadia Code NF" font-size="10.00">List&lt; WeakArrayList, HeapObject &gt;</text>
<text text-anchor="start" x="283.5" y="-313.5" font-family="Cascadia Code NF" font-size="10.00">+</text>
<text text-anchor="start" x="305" y="-313.5" font-family="Cascadia Code NF" font-size="10.00">kStartOfWeakFieldsOffset</text>
<text text-anchor="start" x="283.5" y="-297.5" font-family="Cascadia Code NF" font-size="10.00">+</text>
<text text-anchor="start" x="305" y="-297.5" font-family="Cascadia Code NF" font-size="10.00">capacity()</text>
<text text-anchor="start" x="283.5" y="-281.5" font-family="Cascadia Code NF" font-size="10.00">+</text>
<text text-anchor="start" x="305" y="-281.5" font-family="Cascadia Code NF" font-size="10.00">set_capacity()</text>
<text text-anchor="start" x="283.5" y="-265.5" font-family="Cascadia Code NF" font-size="10.00">+</text>
<text text-anchor="start" x="305" y="-265.5" font-family="Cascadia Code NF" font-size="10.00">length()</text>
<text text-anchor="start" x="283.5" y="-249.5" font-family="Cascadia Code NF" font-size="10.00">+</text>
<text text-anchor="start" x="305" y="-249.5" font-family="Cascadia Code NF" font-size="10.00">set_length()</text>
<text text-anchor="start" x="283.5" y="-233.5" font-family="Cascadia Code NF" font-size="10.00">+</text>
<text text-anchor="start" x="305" y="-233.5" font-family="Cascadia Code NF" font-size="10.00">objects()</text>
<text text-anchor="start" x="283.5" y="-217.5" font-family="Cascadia Code NF" font-size="10.00">+</text>
<text text-anchor="start" x="305" y="-217.5" font-family="Cascadia Code NF" font-size="10.00">objects()</text>
<text text-anchor="start" x="283.5" y="-201.5" font-family="Cascadia Code NF" font-size="10.00">+</text>
<text text-anchor="start" x="305" y="-201.5" font-family="Cascadia Code NF" font-size="10.00">set_objects()</text>
<text text-anchor="start" x="283.5" y="-185.5" font-family="Cascadia Code NF" font-size="10.00">+</text>
<text text-anchor="start" x="305" y="-185.5" font-family="Cascadia Code NF" font-size="10.00">AllocatedSize()</text>
<text text-anchor="start" x="283.5" y="-169.5" font-family="Cascadia Code NF" font-size="10.00">+</text>
<text text-anchor="start" x="305" y="-169.5" font-family="Cascadia Code NF" font-size="10.00">TorqueGeneratedWeakArray</text>
<text text-anchor="start" x="305" y="-156.75" font-family="Cascadia Code NF" font-size="10.00">List()</text>
<text text-anchor="start" x="283.5" y="-140.5" font-family="Cascadia Code NF" font-size="10.00">+</text>
<text text-anchor="start" x="305" y="-140.5" font-family="Cascadia Code NF" font-size="10.00">cast()</text>
<text text-anchor="start" x="283.5" y="-124.5" font-family="Cascadia Code NF" font-size="10.00">+</text>
<text text-anchor="start" x="305" y="-124.5" font-family="Cascadia Code NF" font-size="10.00">unchecked_cast()</text>
<text text-anchor="start" x="283.5" y="-108.5" font-family="Cascadia Code NF" font-size="10.00">+</text>
<text text-anchor="start" x="305" y="-108.5" font-family="Cascadia Code NF" font-size="10.00">SizeFor()</text>
<text text-anchor="start" x="283.5" y="-92.5" font-family="Cascadia Code NF" font-size="10.00">#</text>
<text text-anchor="start" x="305" y="-92.5" font-family="Cascadia Code NF" font-size="10.00">TorqueGeneratedWeakArray</text>
<text text-anchor="start" x="305" y="-79.75" font-family="Cascadia Code NF" font-size="10.00">List()</text>
<text text-anchor="start" x="283.5" y="-63.5" font-family="Cascadia Code NF" font-size="10.00">#</text>
<text text-anchor="start" x="305" y="-63.5" font-family="Cascadia Code NF" font-size="10.00">TorqueGeneratedWeakArray</text>
<text text-anchor="start" x="305" y="-50.75" font-family="Cascadia Code NF" font-size="10.00">List()</text>
<polygon fill="#bfbfbf" stroke="#bfbfbf" points="268,-325 268,-325 476,-325 476,-325 268,-325"/>
<polygon fill="#bfbfbf" stroke="#bfbfbf" points="268,-309 268,-309 303,-309 303,-309 268,-309"/>
<polygon fill="#bfbfbf" stroke="#bfbfbf" points="303,-309 303,-309 476,-309 476,-309 303,-309"/>
<polygon fill="none" stroke="#bfbfbf" points="268,-44 268,-356 476,-356 476,-44 268,-44"/>
</a>
</g>
</g>
<!-- Node3&#45;&gt;Node2 -->
<g id="edge2_Node000002_Node000003" class="edge">
<title>Node3&#45;&gt;Node2</title>
<g id="a_edge2_Node000002_Node000003"><a xlink:title=" ">
<path fill="none" stroke="#63b8ff" d="M487.05,-216.49C530.75,-222.81 579.78,-229.9 620.26,-235.75"/>
<polygon fill="none" stroke="#63b8ff" points="487.67,-213.04 477.27,-215.08 486.67,-219.97 487.67,-213.04"/>
</a>
</g>
</g>
<!-- Node4 -->
<g id="Node000004" class="node">
<title>Node4</title>
<g id="a_Node000004"><a xlink:title=" ">
<polygon fill="white" stroke="none" points="70,-226 0,-226 0,-174 70,-174 70,-226"/>
<text text-anchor="start" x="5" y="-212.5" font-family="Cascadia Code NF" font-size="10.00">HeapObject</text>
<text text-anchor="start" x="32" y="-196.5" font-family="Cascadia Code NF" font-size="10.00"> </text>
<text text-anchor="start" x="32" y="-180.5" font-family="Cascadia Code NF" font-size="10.00"> </text>
<polygon fill="#bfbfbf" stroke="#bfbfbf" points="0,-208 0,-208 70,-208 70,-208 0,-208"/>
<polygon fill="#bfbfbf" stroke="#bfbfbf" points="0,-192 0,-192 70,-192 70,-192 0,-192"/>
<polygon fill="none" stroke="#bfbfbf" points="0,-174 0,-226 70,-226 70,-174 0,-174"/>
</a>
</g>
</g>
<!-- Node4&#45;&gt;Node3 -->
<g id="edge3_Node000003_Node000004" class="edge">
<title>Node4&#45;&gt;Node3</title>
<g id="a_edge3_Node000003_Node000004"><a xlink:title=" ">
<path fill="none" stroke="#63b8ff" d="M81.44,-200C129.12,-200 205.66,-200 268.08,-200"/>
<polygon fill="none" stroke="#63b8ff" points="81.48,-196.5 71.48,-200 81.48,-203.5 81.48,-196.5"/>
</a>
</g>
</g>
<!-- Node5 -->
<g id="Node000005" class="node">
<title>Node5</title>
<g id="a_Node000005"><a xlink:href="$d1/da0/classint.html" xlink:title=" ">
<polygon fill="white" stroke="none" points="49,-364 21,-364 21,-312 49,-312 49,-364"/>
<text text-anchor="start" x="26" y="-350.5" font-family="Cascadia Code NF" font-size="10.00">int</text>
<text text-anchor="start" x="32" y="-334.5" font-family="Cascadia Code NF" font-size="10.00"> </text>
<text text-anchor="start" x="32" y="-318.5" font-family="Cascadia Code NF" font-size="10.00"> </text>
<polygon fill="#bfbfbf" stroke="#bfbfbf" points="21,-346 21,-346 49,-346 49,-346 21,-346"/>
<polygon fill="#bfbfbf" stroke="#bfbfbf" points="21,-330 21,-330 49,-330 49,-330 21,-330"/>
<polygon fill="none" stroke="#bfbfbf" points="21,-312 21,-364 49,-364 49,-312 21,-312"/>
</a>
</g>
</g>
<!-- Node5&#45;&gt;Node1 -->
<g id="edge7_Node000001_Node000005" class="edge">
<title>Node5&#45;&gt;Node1</title>
<g id="a_edge7_Node000001_Node000005"><a xlink:title=" ">
<path fill="none" stroke="#63b8ff" d="M41.13,-363.72C47.52,-388.14 61.05,-423.49 88,-440 167.65,-488.8 324.46,-590.94 792,-435 859.79,-412.39 924.48,-364.23 971.61,-322.45"/>
<polygon fill="none" stroke="#63b8ff" points="971.5,-322.55 973.28,-315.56 980.42,-314.52 978.64,-321.51 971.5,-322.55"/>
</a>
</g>
<text text-anchor="middle" x="548" y="-535.75" font-family="Cascadia Code NF" font-size="10.00" fill="grey"> +kCodeSlotOffset</text>
<text text-anchor="middle" x="548" y="-523" font-family="Cascadia Code NF" font-size="10.00" fill="grey">+kGroupsSlotOffset</text>
<text text-anchor="middle" x="548" y="-510.25" font-family="Cascadia Code NF" font-size="10.00" fill="grey">+kSlotsPerEntry</text>
</g>
<!-- Node5&#45;&gt;Node3 -->
<g id="edge4_Node000003_Node000005" class="edge">
<title>Node5&#45;&gt;Node3</title>
<g id="a_edge4_Node000003_Node000005"><a xlink:title=" ">
<path fill="none" stroke="#63b8ff" d="M48.96,-326.78C59.06,-318.46 73.73,-307.3 88,-299.75 140.87,-271.79 203.23,-248.84 255.95,-232.04"/>
<polygon fill="none" stroke="#63b8ff" points="255.77,-232.09 260.3,-226.48 267.22,-228.49 262.7,-234.11 255.77,-232.09"/>
</a>
</g>
<text text-anchor="middle" x="169" y="-429.75" font-family="Cascadia Code NF" font-size="10.00" fill="grey"> +kCapacityOffset</text>
<text text-anchor="middle" x="169" y="-417" font-family="Cascadia Code NF" font-size="10.00" fill="grey">+kCapacityOffsetEnd</text>
<text text-anchor="middle" x="169" y="-404.25" font-family="Cascadia Code NF" font-size="10.00" fill="grey">+kEndOfStrongFieldsOffset</text>
<text text-anchor="middle" x="169" y="-391.5" font-family="Cascadia Code NF" font-size="10.00" fill="grey">+kEndOfWeakFieldsOffset</text>
<text text-anchor="middle" x="169" y="-378.75" font-family="Cascadia Code NF" font-size="10.00" fill="grey">+kHeaderSize</text>
<text text-anchor="middle" x="169" y="-366" font-family="Cascadia Code NF" font-size="10.00" fill="grey">+kLengthOffset</text>
<text text-anchor="middle" x="169" y="-353.25" font-family="Cascadia Code NF" font-size="10.00" fill="grey">+kLengthOffsetEnd</text>
<text text-anchor="middle" x="169" y="-340.5" font-family="Cascadia Code NF" font-size="10.00" fill="grey">+kObjectsOffset</text>
<text text-anchor="middle" x="169" y="-327.75" font-family="Cascadia Code NF" font-size="10.00" fill="grey">+kObjectsOffsetEnd</text>
<text text-anchor="middle" x="169" y="-315" font-family="Cascadia Code NF" font-size="10.00" fill="grey">+kStartOfStrongFieldsOffset</text>
<text text-anchor="middle" x="169" y="-302.25" font-family="Cascadia Code NF" font-size="10.00" fill="grey">...</text>
</g>
<!-- Node6 -->
<g id="Node000006" class="node">
<title>Node6</title>
<g id="a_Node000006"><a xlink:title=" ">
<polygon fill="white" stroke="none" points="392,-426 352,-426 352,-374 392,-374 392,-426"/>
<text text-anchor="start" x="357" y="-412.5" font-family="Cascadia Code NF" font-size="10.00">const</text>
<text text-anchor="start" x="369" y="-396.5" font-family="Cascadia Code NF" font-size="10.00"> </text>
<text text-anchor="start" x="369" y="-380.5" font-family="Cascadia Code NF" font-size="10.00"> </text>
<polygon fill="#bfbfbf" stroke="#bfbfbf" points="352,-408 352,-408 392,-408 392,-408 352,-408"/>
<polygon fill="#bfbfbf" stroke="#bfbfbf" points="352,-392 352,-392 392,-392 392,-392 352,-392"/>
<polygon fill="none" stroke="#bfbfbf" points="352,-374 352,-426 392,-426 392,-374 352,-374"/>
</a>
</g>
</g>
<!-- Node6&#45;&gt;Node2 -->
<g id="edge5_Node000002_Node000006" class="edge">
<title>Node6&#45;&gt;Node2</title>
<g id="a_edge5_Node000002_Node000006"><a xlink:title=" ">
<path fill="none" stroke="#63b8ff" d="M391.91,-394.48C412.81,-388.17 447.3,-377.13 476,-365 520.54,-346.17 568.38,-322.33 608.76,-301.09"/>
<polygon fill="none" stroke="#63b8ff" points="608.82,-301.06 612.25,-294.72 619.42,-295.45 615.99,-301.79 608.82,-301.06"/>
</a>
</g>
<text text-anchor="middle" x="548" y="-359.25" font-family="Cascadia Code NF" font-size="10.00" fill="grey"> +kMaxCapacity</text>
</g>
<!-- Node7 -->
<g id="Node000007" class="node">
<title>Node7</title>
<g id="a_Node000007"><a xlink:title=" ">
<polygon fill="white" stroke="none" points="789,-52 623,-52 623,0 789,0 789,-52"/>
<text text-anchor="start" x="628" y="-38.5" font-family="Cascadia Code NF" font-size="10.00">static constexpr RootIndex</text>
<text text-anchor="start" x="703" y="-22.5" font-family="Cascadia Code NF" font-size="10.00"> </text>
<text text-anchor="start" x="703" y="-6.5" font-family="Cascadia Code NF" font-size="10.00"> </text>
<polygon fill="#bfbfbf" stroke="#bfbfbf" points="623,-34 623,-34 789,-34 789,-34 623,-34"/>
<polygon fill="#bfbfbf" stroke="#bfbfbf" points="623,-18 623,-18 789,-18 789,-18 623,-18"/>
<polygon fill="none" stroke="#bfbfbf" points="623,0 623,-52 789,-52 789,0 623,0"/>
</a>
</g>
</g>
<!-- Node7&#45;&gt;Node1 -->
<g id="edge6_Node000001_Node000007" class="edge">
<title>Node7&#45;&gt;Node1</title>
<g id="a_edge6_Node000001_Node000007"><a xlink:title=" ">
<path fill="none" stroke="#63b8ff" d="M774.09,-51.8C780.24,-54.71 786.3,-57.79 792,-61 849.8,-93.53 909.76,-137.13 956.9,-174.05"/>
<polygon fill="none" stroke="#63b8ff" points="956.93,-174.08 964.12,-174.65 966.35,-181.51 959.17,-180.93 956.93,-174.08"/>
</a>
</g>
<text text-anchor="middle" x="873" y="-160.25" font-family="Cascadia Code NF" font-size="10.00" fill="grey"> +kEmptyDependentCode</text>
</g>
</g>
</svg>
