<?xml version="1.0" encoding="UTF-8" standalone="no"?>
<!DOCTYPE svg PUBLIC "-//W3C//DTD SVG 1.1//EN"
 "http://www.w3.org/Graphics/SVG/1.1/DTD/svg11.dtd">
<!-- Generated by graphviz version 11.0.0 (20240428.1522)
 -->
<!-- Title: v8::internal::SourceTextModuleDescriptor Pages: 1 -->
<svg width="384pt" height="249pt"
 viewBox="0.00 0.00 384.00 249.00" xmlns="http://www.w3.org/2000/svg" xmlns:xlink="http://www.w3.org/1999/xlink">
<g id="graph0" class="graph" transform="scale(1 1) rotate(0) translate(4 245)">
<title>v8::internal::SourceTextModuleDescriptor</title>
<!-- Node1 -->
<g id="Node000001" class="node">
<title>Node1</title>
<g id="a_Node000001"><a xlink:title=" ">
<polygon fill="#999999" stroke="none" points="376,-241 190,-241 190,0 376,0 376,-241"/>
<text text-anchor="start" x="211" y="-227.5" font-family="Cascadia Code NF" font-size="10.00">v8::internal::SourceText</text>
<text text-anchor="start" x="235" y="-214.75" font-family="Cascadia Code NF" font-size="10.00">ModuleDescriptor</text>
<text text-anchor="start" x="280" y="-198.5" font-family="Cascadia Code NF" font-size="10.00"> </text>
<text text-anchor="start" x="194" y="-182.5" font-family="Cascadia Code NF" font-size="10.00">+</text>
<text text-anchor="start" x="204" y="-182.5" font-family="Cascadia Code NF" font-size="10.00">SourceTextModuleDescriptor()</text>
<text text-anchor="start" x="194" y="-166.5" font-family="Cascadia Code NF" font-size="10.00">+</text>
<text text-anchor="start" x="204" y="-166.5" font-family="Cascadia Code NF" font-size="10.00">AddImport()</text>
<text text-anchor="start" x="194" y="-150.5" font-family="Cascadia Code NF" font-size="10.00">+</text>
<text text-anchor="start" x="204" y="-150.5" font-family="Cascadia Code NF" font-size="10.00">AddStarImport()</text>
<text text-anchor="start" x="194" y="-134.5" font-family="Cascadia Code NF" font-size="10.00">+</text>
<text text-anchor="start" x="204" y="-134.5" font-family="Cascadia Code NF" font-size="10.00">AddEmptyImport()</text>
<text text-anchor="start" x="194" y="-118.5" font-family="Cascadia Code NF" font-size="10.00">+</text>
<text text-anchor="start" x="204" y="-118.5" font-family="Cascadia Code NF" font-size="10.00">AddExport()</text>
<text text-anchor="start" x="194" y="-102.5" font-family="Cascadia Code NF" font-size="10.00">+</text>
<text text-anchor="start" x="204" y="-102.5" font-family="Cascadia Code NF" font-size="10.00">AddExport()</text>
<text text-anchor="start" x="194" y="-86.5" font-family="Cascadia Code NF" font-size="10.00">+</text>
<text text-anchor="start" x="204" y="-86.5" font-family="Cascadia Code NF" font-size="10.00">AddStarExport()</text>
<text text-anchor="start" x="194" y="-70.5" font-family="Cascadia Code NF" font-size="10.00">+</text>
<text text-anchor="start" x="204" y="-70.5" font-family="Cascadia Code NF" font-size="10.00">Validate()</text>
<text text-anchor="start" x="194" y="-54.5" font-family="Cascadia Code NF" font-size="10.00">+</text>
<text text-anchor="start" x="204" y="-54.5" font-family="Cascadia Code NF" font-size="10.00">module_requests()</text>
<text text-anchor="start" x="194" y="-38.5" font-family="Cascadia Code NF" font-size="10.00">+</text>
<text text-anchor="start" x="204" y="-38.5" font-family="Cascadia Code NF" font-size="10.00">namespace_imports()</text>
<text text-anchor="start" x="204" y="-22.5" font-family="Cascadia Code NF" font-size="10.00">and 8 more...</text>
<text text-anchor="start" x="194" y="-6.5" font-family="Cascadia Code NF" font-size="10.00">+</text>
<text text-anchor="start" x="204" y="-6.5" font-family="Cascadia Code NF" font-size="10.00">GetCellIndexKind()</text>
<polygon fill="#666666" stroke="#666666" points="190,-210 190,-210 376,-210 376,-210 190,-210"/>
<polygon fill="#666666" stroke="#666666" points="190,-194 190,-194 376,-194 376,-194 190,-194"/>
<polygon fill="none" stroke="#666666" points="190,0 190,-241 376,-241 376,0 190,0"/>
</a>
</g>
</g>
<!-- Node2 -->
<g id="Node000002" class="node">
<title>Node2</title>
<g id="a_Node000002"><a xlink:href="$dc/dca/classv8_1_1internal_1_1ZoneObject.html" xlink:title=" ">
<polygon fill="white" stroke="none" points="154,-170.5 0,-170.5 0,-70.5 154,-70.5 154,-170.5"/>
<text text-anchor="start" x="5" y="-157" font-family="Cascadia Code NF" font-size="10.00">v8::internal::ZoneObject</text>
<text text-anchor="start" x="74" y="-141" font-family="Cascadia Code NF" font-size="10.00"> </text>
<text text-anchor="start" x="12.5" y="-125" font-family="Cascadia Code NF" font-size="10.00">+</text>
<text text-anchor="start" x="31" y="-125" font-family="Cascadia Code NF" font-size="10.00">operator new()</text>
<text text-anchor="start" x="12.5" y="-109" font-family="Cascadia Code NF" font-size="10.00">+</text>
<text text-anchor="start" x="31" y="-109" font-family="Cascadia Code NF" font-size="10.00">operator new()</text>
<text text-anchor="start" x="12.5" y="-93" font-family="Cascadia Code NF" font-size="10.00">+</text>
<text text-anchor="start" x="31" y="-93" font-family="Cascadia Code NF" font-size="10.00">operator delete()</text>
<text text-anchor="start" x="12.5" y="-77" font-family="Cascadia Code NF" font-size="10.00">+</text>
<text text-anchor="start" x="31" y="-77" font-family="Cascadia Code NF" font-size="10.00">operator delete()</text>
<polygon fill="#bfbfbf" stroke="#bfbfbf" points="0,-152.5 0,-152.5 154,-152.5 154,-152.5 0,-152.5"/>
<polygon fill="#bfbfbf" stroke="#bfbfbf" points="0,-136.5 0,-136.5 154,-136.5 154,-136.5 0,-136.5"/>
<polygon fill="none" stroke="#bfbfbf" points="0,-70.5 0,-170.5 154,-170.5 154,-70.5 0,-70.5"/>
</a>
</g>
</g>
<!-- Node2&#45;&gt;Node1 -->
<g id="edge1_Node000001_Node000002" class="edge">
<title>Node2&#45;&gt;Node1</title>
<g id="a_edge1_Node000001_Node000002"><a xlink:title=" ">
<path fill="none" stroke="#63b8ff" d="M165.41,-120.5C173.59,-120.5 181.89,-120.5 190.11,-120.5"/>
<polygon fill="none" stroke="#63b8ff" points="165.48,-117 155.48,-120.5 165.48,-124 165.48,-117"/>
</a>
</g>
</g>
</g>
</svg>
