<?xml version="1.0" encoding="UTF-8" standalone="no"?>
<!DOCTYPE svg PUBLIC "-//W3C//DTD SVG 1.1//EN"
 "http://www.w3.org/Graphics/SVG/1.1/DTD/svg11.dtd">
<!-- Generated by graphviz version 11.0.0 (20240428.1522)
 -->
<!-- Title: v8::internal::ExternalLogEventListener Pages: 1 -->
<svg width="414pt" height="233pt"
 viewBox="0.00 0.00 414.00 233.00" xmlns="http://www.w3.org/2000/svg" xmlns:xlink="http://www.w3.org/1999/xlink">
<g id="graph0" class="graph" transform="scale(1 1) rotate(0) translate(4 229)">
<title>v8::internal::ExternalLogEventListener</title>
<!-- Node1 -->
<g id="Node000001" class="node">
<title>Node1</title>
<g id="a_Node000001"><a xlink:title=" ">
<polygon fill="#999999" stroke="none" points="406,-225 226,-225 226,0 406,0 406,-225"/>
<text text-anchor="start" x="241" y="-211.5" font-family="Cascadia Code NF" font-size="10.00">v8::internal::ExternalLog</text>
<text text-anchor="start" x="277" y="-198.75" font-family="Cascadia Code NF" font-size="10.00">EventListener</text>
<text text-anchor="start" x="313" y="-182.5" font-family="Cascadia Code NF" font-size="10.00"> </text>
<text text-anchor="start" x="230" y="-166.5" font-family="Cascadia Code NF" font-size="10.00">+</text>
<text text-anchor="start" x="240" y="-166.5" font-family="Cascadia Code NF" font-size="10.00">ExternalLogEventListener()</text>
<text text-anchor="start" x="230" y="-150.5" font-family="Cascadia Code NF" font-size="10.00">+</text>
<text text-anchor="start" x="240" y="-150.5" font-family="Cascadia Code NF" font-size="10.00">~ExternalLogEventListener()</text>
<text text-anchor="start" x="230" y="-134.5" font-family="Cascadia Code NF" font-size="10.00">+</text>
<text text-anchor="start" x="240" y="-134.5" font-family="Cascadia Code NF" font-size="10.00">CodeCreateEvent()</text>
<text text-anchor="start" x="230" y="-118.5" font-family="Cascadia Code NF" font-size="10.00">+</text>
<text text-anchor="start" x="240" y="-118.5" font-family="Cascadia Code NF" font-size="10.00">CodeCreateEvent()</text>
<text text-anchor="start" x="230" y="-102.5" font-family="Cascadia Code NF" font-size="10.00">+</text>
<text text-anchor="start" x="240" y="-102.5" font-family="Cascadia Code NF" font-size="10.00">CodeCreateEvent()</text>
<text text-anchor="start" x="230" y="-86.5" font-family="Cascadia Code NF" font-size="10.00">+</text>
<text text-anchor="start" x="240" y="-86.5" font-family="Cascadia Code NF" font-size="10.00">CodeCreateEvent()</text>
<text text-anchor="start" x="230" y="-70.5" font-family="Cascadia Code NF" font-size="10.00">+</text>
<text text-anchor="start" x="240" y="-70.5" font-family="Cascadia Code NF" font-size="10.00">RegExpCodeCreateEvent()</text>
<text text-anchor="start" x="230" y="-54.5" font-family="Cascadia Code NF" font-size="10.00">+</text>
<text text-anchor="start" x="240" y="-54.5" font-family="Cascadia Code NF" font-size="10.00">CallbackEvent()</text>
<text text-anchor="start" x="230" y="-38.5" font-family="Cascadia Code NF" font-size="10.00">+</text>
<text text-anchor="start" x="240" y="-38.5" font-family="Cascadia Code NF" font-size="10.00">GetterCallbackEvent()</text>
<text text-anchor="start" x="230" y="-22.5" font-family="Cascadia Code NF" font-size="10.00">+</text>
<text text-anchor="start" x="240" y="-22.5" font-family="Cascadia Code NF" font-size="10.00">SetterCallbackEvent()</text>
<text text-anchor="start" x="240" y="-6.5" font-family="Cascadia Code NF" font-size="10.00">and 12 more...</text>
<polygon fill="#666666" stroke="#666666" points="226,-194 226,-194 406,-194 406,-194 226,-194"/>
<polygon fill="#666666" stroke="#666666" points="226,-178 226,-178 406,-178 406,-178 226,-178"/>
<polygon fill="none" stroke="#666666" points="226,0 226,-225 406,-225 406,0 226,0"/>
</a>
</g>
</g>
<!-- Node2 -->
<g id="Node000002" class="node">
<title>Node2</title>
<g id="a_Node000002"><a xlink:href="$d9/dc3/classv8_1_1internal_1_1LogEventListener.html" xlink:title=" ">
<polygon fill="white" stroke="none" points="190,-218.5 0,-218.5 0,-6.5 190,-6.5 190,-218.5"/>
<text text-anchor="start" x="5" y="-205" font-family="Cascadia Code NF" font-size="10.00">v8::internal::LogEventListener</text>
<text text-anchor="start" x="92" y="-189" font-family="Cascadia Code NF" font-size="10.00"> </text>
<text text-anchor="start" x="12.5" y="-173" font-family="Cascadia Code NF" font-size="10.00">+</text>
<text text-anchor="start" x="31" y="-173" font-family="Cascadia Code NF" font-size="10.00">~LogEventListener()</text>
<text text-anchor="start" x="12.5" y="-157" font-family="Cascadia Code NF" font-size="10.00">+</text>
<text text-anchor="start" x="31" y="-157" font-family="Cascadia Code NF" font-size="10.00">CodeCreateEvent()</text>
<text text-anchor="start" x="12.5" y="-141" font-family="Cascadia Code NF" font-size="10.00">+</text>
<text text-anchor="start" x="31" y="-141" font-family="Cascadia Code NF" font-size="10.00">CodeCreateEvent()</text>
<text text-anchor="start" x="12.5" y="-125" font-family="Cascadia Code NF" font-size="10.00">+</text>
<text text-anchor="start" x="31" y="-125" font-family="Cascadia Code NF" font-size="10.00">CodeCreateEvent()</text>
<text text-anchor="start" x="12.5" y="-109" font-family="Cascadia Code NF" font-size="10.00">+</text>
<text text-anchor="start" x="31" y="-109" font-family="Cascadia Code NF" font-size="10.00">CodeCreateEvent()</text>
<text text-anchor="start" x="12.5" y="-93" font-family="Cascadia Code NF" font-size="10.00">+</text>
<text text-anchor="start" x="31" y="-93" font-family="Cascadia Code NF" font-size="10.00">CallbackEvent()</text>
<text text-anchor="start" x="12.5" y="-77" font-family="Cascadia Code NF" font-size="10.00">+</text>
<text text-anchor="start" x="31" y="-77" font-family="Cascadia Code NF" font-size="10.00">GetterCallbackEvent()</text>
<text text-anchor="start" x="12.5" y="-61" font-family="Cascadia Code NF" font-size="10.00">+</text>
<text text-anchor="start" x="31" y="-61" font-family="Cascadia Code NF" font-size="10.00">SetterCallbackEvent()</text>
<text text-anchor="start" x="12.5" y="-45" font-family="Cascadia Code NF" font-size="10.00">+</text>
<text text-anchor="start" x="31" y="-45" font-family="Cascadia Code NF" font-size="10.00">RegExpCodeCreateEvent()</text>
<text text-anchor="start" x="12.5" y="-29" font-family="Cascadia Code NF" font-size="10.00">+</text>
<text text-anchor="start" x="31" y="-29" font-family="Cascadia Code NF" font-size="10.00">CodeMoveEvent()</text>
<text text-anchor="start" x="31" y="-13" font-family="Cascadia Code NF" font-size="10.00">and 10 more...</text>
<polygon fill="#bfbfbf" stroke="#bfbfbf" points="0,-200.5 0,-200.5 190,-200.5 190,-200.5 0,-200.5"/>
<polygon fill="#bfbfbf" stroke="#bfbfbf" points="0,-184.5 0,-184.5 190,-184.5 190,-184.5 0,-184.5"/>
<polygon fill="none" stroke="#bfbfbf" points="0,-6.5 0,-218.5 190,-218.5 190,-6.5 0,-6.5"/>
</a>
</g>
</g>
<!-- Node2&#45;&gt;Node1 -->
<g id="edge1_Node000001_Node000002" class="edge">
<title>Node2&#45;&gt;Node1</title>
<g id="a_edge1_Node000001_Node000002"><a xlink:title=" ">
<path fill="none" stroke="#63b8ff" d="M201.21,-112.5C209.58,-112.5 217.98,-112.5 226.23,-112.5"/>
<polygon fill="none" stroke="#63b8ff" points="201.34,-109 191.34,-112.5 201.34,-116 201.34,-109"/>
</a>
</g>
</g>
</g>
</svg>
