<?xml version="1.0" encoding="UTF-8" standalone="no"?>
<!DOCTYPE svg PUBLIC "-//W3C//DTD SVG 1.1//EN"
 "http://www.w3.org/Graphics/SVG/1.1/DTD/svg11.dtd">
<!-- Generated by graphviz version 11.0.0 (20240428.1522)
 -->
<!-- Title: v8::internal::compiler::StructuralType Pages: 1 -->
<svg width="506pt" height="188pt"
 viewBox="0.00 0.00 506.00 188.00" xmlns="http://www.w3.org/2000/svg" xmlns:xlink="http://www.w3.org/1999/xlink">
<g id="graph0" class="graph" transform="scale(1 1) rotate(0) translate(4 184)">
<title>v8::internal::compiler::StructuralType</title>
<!-- Node1 -->
<g id="Node000001" class="node">
<title>Node1</title>
<g id="a_Node000001"><a xlink:title=" ">
<polygon fill="#999999" stroke="none" points="320,-154 178,-154 178,-9 320,-9 320,-154"/>
<text text-anchor="start" x="183" y="-140.5" font-family="Cascadia Code NF" font-size="10.00">v8::internal::compiler</text>
<text text-anchor="start" x="201" y="-127.75" font-family="Cascadia Code NF" font-size="10.00">::StructuralType</text>
<text text-anchor="start" x="246" y="-111.5" font-family="Cascadia Code NF" font-size="10.00"> </text>
<text text-anchor="start" x="186" y="-95.5" font-family="Cascadia Code NF" font-size="10.00">+</text>
<text text-anchor="start" x="200" y="-95.5" font-family="Cascadia Code NF" font-size="10.00">LengthForTesting()</text>
<text text-anchor="start" x="186" y="-79.5" font-family="Cascadia Code NF" font-size="10.00">#</text>
<text text-anchor="start" x="200" y="-79.5" font-family="Cascadia Code NF" font-size="10.00">Length()</text>
<text text-anchor="start" x="186" y="-63.5" font-family="Cascadia Code NF" font-size="10.00">#</text>
<text text-anchor="start" x="200" y="-63.5" font-family="Cascadia Code NF" font-size="10.00">Get()</text>
<text text-anchor="start" x="186" y="-47.5" font-family="Cascadia Code NF" font-size="10.00">#</text>
<text text-anchor="start" x="200" y="-47.5" font-family="Cascadia Code NF" font-size="10.00">Set()</text>
<text text-anchor="start" x="186" y="-31.5" font-family="Cascadia Code NF" font-size="10.00">#</text>
<text text-anchor="start" x="200" y="-31.5" font-family="Cascadia Code NF" font-size="10.00">Shrink()</text>
<text text-anchor="start" x="186" y="-15.5" font-family="Cascadia Code NF" font-size="10.00">#</text>
<text text-anchor="start" x="200" y="-15.5" font-family="Cascadia Code NF" font-size="10.00">StructuralType()</text>
<polygon fill="#666666" stroke="#666666" points="178,-123 178,-123 320,-123 320,-123 178,-123"/>
<polygon fill="#666666" stroke="#666666" points="178,-107 178,-107 320,-107 320,-107 178,-107"/>
<polygon fill="none" stroke="#666666" points="178,-9 178,-154 320,-154 320,-9 178,-9"/>
</a>
</g>
</g>
<!-- Node3 -->
<g id="Node000003" class="node">
<title>Node3</title>
<g id="a_Node000003"><a xlink:href="../../d0/da3/classv8_1_1internal_1_1compiler_1_1TupleType.html" target="_top" xlink:title=" ">
<polygon fill="white" stroke="none" points="498,-180 356,-180 356,-83 498,-83 498,-180"/>
<text text-anchor="start" x="361" y="-166.5" font-family="Cascadia Code NF" font-size="10.00">v8::internal::compiler</text>
<text text-anchor="start" x="394" y="-153.75" font-family="Cascadia Code NF" font-size="10.00">::TupleType</text>
<text text-anchor="start" x="424" y="-137.5" font-family="Cascadia Code NF" font-size="10.00"> </text>
<text text-anchor="start" x="371.5" y="-121.5" font-family="Cascadia Code NF" font-size="10.00">+</text>
<text text-anchor="start" x="393" y="-121.5" font-family="Cascadia Code NF" font-size="10.00">Arity()</text>
<text text-anchor="start" x="371.5" y="-105.5" font-family="Cascadia Code NF" font-size="10.00">+</text>
<text text-anchor="start" x="393" y="-105.5" font-family="Cascadia Code NF" font-size="10.00">Element()</text>
<text text-anchor="start" x="371.5" y="-89.5" font-family="Cascadia Code NF" font-size="10.00">+</text>
<text text-anchor="start" x="393" y="-89.5" font-family="Cascadia Code NF" font-size="10.00">InitElement()</text>
<polygon fill="#bfbfbf" stroke="#bfbfbf" points="356,-149 356,-149 498,-149 498,-149 356,-149"/>
<polygon fill="#bfbfbf" stroke="#bfbfbf" points="356,-133 356,-133 498,-133 498,-133 356,-133"/>
<polygon fill="none" stroke="#bfbfbf" points="356,-83 356,-180 498,-180 498,-83 356,-83"/>
</a>
</g>
</g>
<!-- Node1&#45;&gt;Node3 -->
<g id="edge2_Node000001_Node000003" class="edge">
<title>Node1&#45;&gt;Node3</title>
<g id="a_edge2_Node000001_Node000003"><a xlink:title=" ">
<path fill="none" stroke="#63b8ff" d="M330.88,-104.48C339.36,-106.89 347.93,-109.32 356.27,-111.69"/>
<polygon fill="none" stroke="#63b8ff" points="331.84,-101.11 321.27,-101.75 329.93,-107.85 331.84,-101.11"/>
</a>
</g>
</g>
<!-- Node4 -->
<g id="Node000004" class="node">
<title>Node4</title>
<g id="a_Node000004"><a xlink:href="../../d8/d7f/classv8_1_1internal_1_1compiler_1_1UnionType.html" target="_top" xlink:title=" ">
<polygon fill="white" stroke="none" points="498,-65 356,-65 356,0 498,0 498,-65"/>
<text text-anchor="start" x="361" y="-51.5" font-family="Cascadia Code NF" font-size="10.00">v8::internal::compiler</text>
<text text-anchor="start" x="394" y="-38.75" font-family="Cascadia Code NF" font-size="10.00">::UnionType</text>
<text text-anchor="start" x="424" y="-22.5" font-family="Cascadia Code NF" font-size="10.00"> </text>
<text text-anchor="start" x="424" y="-6.5" font-family="Cascadia Code NF" font-size="10.00"> </text>
<polygon fill="#bfbfbf" stroke="#bfbfbf" points="356,-34 356,-34 498,-34 498,-34 356,-34"/>
<polygon fill="#bfbfbf" stroke="#bfbfbf" points="356,-18 356,-18 498,-18 498,-18 356,-18"/>
<polygon fill="none" stroke="#bfbfbf" points="356,0 356,-65 498,-65 498,0 356,0"/>
</a>
</g>
</g>
<!-- Node1&#45;&gt;Node4 -->
<g id="edge3_Node000001_Node000004" class="edge">
<title>Node1&#45;&gt;Node4</title>
<g id="a_edge3_Node000001_Node000004"><a xlink:title=" ">
<path fill="none" stroke="#63b8ff" d="M330.88,-58.98C339.36,-56.62 347.93,-54.23 356.27,-51.91"/>
<polygon fill="none" stroke="#63b8ff" points="329.97,-55.6 321.27,-61.66 331.84,-62.35 329.97,-55.6"/>
</a>
</g>
</g>
<!-- Node2 -->
<g id="Node000002" class="node">
<title>Node2</title>
<g id="a_Node000002"><a xlink:href="../../de/db7/classv8_1_1internal_1_1compiler_1_1TypeBase.html" target="_top" xlink:title=" ">
<polygon fill="white" stroke="none" points="142,-130 0,-130 0,-33 142,-33 142,-130"/>
<text text-anchor="start" x="5" y="-116.5" font-family="Cascadia Code NF" font-size="10.00">v8::internal::compiler</text>
<text text-anchor="start" x="41" y="-103.75" font-family="Cascadia Code NF" font-size="10.00">::TypeBase</text>
<text text-anchor="start" x="68" y="-87.5" font-family="Cascadia Code NF" font-size="10.00"> </text>
<text text-anchor="start" x="20" y="-71.5" font-family="Cascadia Code NF" font-size="10.00">#</text>
<text text-anchor="start" x="46" y="-71.5" font-family="Cascadia Code NF" font-size="10.00">kind()</text>
<text text-anchor="start" x="20" y="-55.5" font-family="Cascadia Code NF" font-size="10.00">#</text>
<text text-anchor="start" x="46" y="-55.5" font-family="Cascadia Code NF" font-size="10.00">TypeBase()</text>
<text text-anchor="start" x="20" y="-39.5" font-family="Cascadia Code NF" font-size="10.00">#</text>
<text text-anchor="start" x="46" y="-39.5" font-family="Cascadia Code NF" font-size="10.00">IsKind()</text>
<polygon fill="#bfbfbf" stroke="#bfbfbf" points="0,-99 0,-99 142,-99 142,-99 0,-99"/>
<polygon fill="#bfbfbf" stroke="#bfbfbf" points="0,-83 0,-83 142,-83 142,-83 0,-83"/>
<polygon fill="none" stroke="#bfbfbf" points="0,-33 0,-130 142,-130 142,-33 0,-33"/>
</a>
</g>
</g>
<!-- Node2&#45;&gt;Node1 -->
<g id="edge1_Node000001_Node000002" class="edge">
<title>Node2&#45;&gt;Node1</title>
<g id="a_edge1_Node000001_Node000002"><a xlink:title=" ">
<path fill="none" stroke="#63b8ff" d="M153.17,-81.5C161.56,-81.5 170.03,-81.5 178.27,-81.5"/>
<polygon fill="none" stroke="#63b8ff" points="153.33,-78 143.33,-81.5 153.33,-85 153.33,-78"/>
</a>
</g>
</g>
</g>
</svg>
