<?xml version="1.0" encoding="UTF-8" standalone="no"?>
<!DOCTYPE svg PUBLIC "-//W3C//DTD SVG 1.1//EN"
 "http://www.w3.org/Graphics/SVG/1.1/DTD/svg11.dtd">
<!-- Generated by graphviz version 11.0.0 (20240428.1522)
 -->
<!-- Title: v8::internal::FixedBodyDescriptor&lt; start_offset, end_offset, size &gt; Pages: 1 -->
<svg width="502pt" height="182pt"
 viewBox="0.00 0.00 502.00 181.50" xmlns="http://www.w3.org/2000/svg" xmlns:xlink="http://www.w3.org/1999/xlink">
<g id="graph0" class="graph" transform="scale(1 1) rotate(0) translate(4 177.5)">
<title>v8::internal::FixedBodyDescriptor&lt; start_offset, end_offset, size &gt;</title>
<!-- Node1 -->
<g id="Node000001" class="node">
<title>Node1</title>
<g id="a_Node000001"><a xlink:title=" ">
<polygon fill="#999999" stroke="none" points="494,-106.5 280,-106.5 280,-41.5 494,-41.5 494,-106.5"/>
<text text-anchor="start" x="285" y="-93" font-family="Cascadia Code NF" font-size="10.00">v8::internal::FixedBodyDescriptor</text>
<text text-anchor="start" x="285" y="-80.25" font-family="Cascadia Code NF" font-size="10.00">&lt; start_offset, end_offset, size &gt;</text>
<text text-anchor="start" x="384" y="-64" font-family="Cascadia Code NF" font-size="10.00"> </text>
<text text-anchor="start" x="321" y="-48" font-family="Cascadia Code NF" font-size="10.00">+</text>
<text text-anchor="start" x="368" y="-48" font-family="Cascadia Code NF" font-size="10.00">SizeOf()</text>
<polygon fill="#666666" stroke="#666666" points="280,-75.5 280,-75.5 494,-75.5 494,-75.5 280,-75.5"/>
<polygon fill="#666666" stroke="#666666" points="280,-59.5 280,-59.5 494,-59.5 494,-59.5 280,-59.5"/>
<polygon fill="none" stroke="#666666" points="280,-41.5 280,-106.5 494,-106.5 494,-41.5 280,-41.5"/>
</a>
</g>
</g>
<!-- Node2 -->
<g id="Node000002" class="node">
<title>Node2</title>
<g id="a_Node000002"><a xlink:title=" ">
<polygon fill="white" stroke="none" points="202,-173.5 0,-173.5 0,-70.5 202,-70.5 202,-173.5"/>
<text text-anchor="start" x="5" y="-160" font-family="Cascadia Code NF" font-size="10.00">std::conditional_t</text>
<text text-anchor="start" x="5" y="-147.25" font-family="Cascadia Code NF" font-size="10.00">&lt; start_offset==end</text>
<text text-anchor="start" x="5" y="-134.5" font-family="Cascadia Code NF" font-size="10.00">_offset, DataOnlyBodyDescriptor,</text>
<text text-anchor="start" x="5" y="-121.75" font-family="Cascadia Code NF" font-size="10.00"> FixedRangeBodyDescriptor&lt;</text>
<text text-anchor="start" x="14" y="-109" font-family="Cascadia Code NF" font-size="10.00"> start_offset, end_offset &gt; &gt;</text>
<text text-anchor="start" x="98" y="-93" font-family="Cascadia Code NF" font-size="10.00"> </text>
<text text-anchor="start" x="98" y="-77" font-family="Cascadia Code NF" font-size="10.00"> </text>
<polygon fill="#bfbfbf" stroke="#bfbfbf" points="0,-104.5 0,-104.5 202,-104.5 202,-104.5 0,-104.5"/>
<polygon fill="#bfbfbf" stroke="#bfbfbf" points="0,-88.5 0,-88.5 202,-88.5 202,-88.5 0,-88.5"/>
<polygon fill="none" stroke="#bfbfbf" points="0,-70.5 0,-173.5 202,-173.5 202,-70.5 0,-70.5"/>
</a>
</g>
</g>
<!-- Node2&#45;&gt;Node1 -->
<g id="edge1_Node000001_Node000002" class="edge">
<title>Node2&#45;&gt;Node1</title>
<g id="a_edge1_Node000001_Node000002"><a xlink:title=" ">
<path fill="none" stroke="#63b8ff" d="M212.86,-103.26C235.03,-99.52 258.26,-95.59 280.24,-91.87"/>
<polygon fill="none" stroke="#63b8ff" points="212.5,-99.77 203.22,-104.89 213.66,-106.68 212.5,-99.77"/>
</a>
</g>
</g>
<!-- Node3 -->
<g id="Node000003" class="node">
<title>Node3</title>
<g id="a_Node000003"><a xlink:href="../../d1/da0/classint.html" target="_top" xlink:title=" ">
<polygon fill="white" stroke="none" points="115,-52 87,-52 87,0 115,0 115,-52"/>
<text text-anchor="start" x="92" y="-38.5" font-family="Cascadia Code NF" font-size="10.00">int</text>
<text text-anchor="start" x="98" y="-22.5" font-family="Cascadia Code NF" font-size="10.00"> </text>
<text text-anchor="start" x="98" y="-6.5" font-family="Cascadia Code NF" font-size="10.00"> </text>
<polygon fill="#bfbfbf" stroke="#bfbfbf" points="87,-34 87,-34 115,-34 115,-34 87,-34"/>
<polygon fill="#bfbfbf" stroke="#bfbfbf" points="87,-18 87,-18 115,-18 115,-18 87,-18"/>
<polygon fill="none" stroke="#bfbfbf" points="87,0 87,-52 115,-52 115,0 87,0"/>
</a>
</g>
</g>
<!-- Node3&#45;&gt;Node1 -->
<g id="edge2_Node000001_Node000003" class="edge">
<title>Node3&#45;&gt;Node1</title>
<g id="a_edge2_Node000001_Node000003"><a xlink:title=" ">
<path fill="none" stroke="#63b8ff" d="M114.94,-28.19C142.14,-32.78 207.68,-43.86 267.5,-53.97"/>
<polygon fill="none" stroke="#63b8ff" points="267.44,-53.96 274.02,-51.02 279.27,-55.96 272.69,-58.91 267.44,-53.96"/>
</a>
</g>
<text text-anchor="middle" x="241" y="-55.25" font-family="Cascadia Code NF" font-size="10.00" fill="grey"> +kSize</text>
</g>
</g>
</svg>
