<?xml version="1.0" encoding="UTF-8" standalone="no"?>
<!DOCTYPE svg PUBLIC "-//W3C//DTD SVG 1.1//EN"
 "http://www.w3.org/Graphics/SVG/1.1/DTD/svg11.dtd">
<!-- Generated by graphviz version 11.0.0 (20240428.1522)
 -->
<!-- Title: v8::internal::MachineTypeOf&lt; UnionT&lt; T1, T2 &gt; &gt; Pages: 1 -->
<svg width="406pt" height="396pt"
 viewBox="0.00 0.00 406.00 396.00" xmlns="http://www.w3.org/2000/svg" xmlns:xlink="http://www.w3.org/1999/xlink">
<g id="graph0" class="graph" transform="scale(1 1) rotate(0) translate(4 392)">
<title>v8::internal::MachineTypeOf&lt; UnionT&lt; T1, T2 &gt; &gt;</title>
<!-- Node1 -->
<g id="Node000001" class="node">
<title>Node1</title>
<g id="a_Node000001"><a xlink:title=" ">
<polygon fill="#999999" stroke="none" points="398,-226.5 238,-226.5 238,-161.5 398,-161.5 398,-226.5"/>
<text text-anchor="start" x="243" y="-213" font-family="Cascadia Code NF" font-size="10.00">v8::internal::MachineType</text>
<text text-anchor="start" x="252" y="-200.25" font-family="Cascadia Code NF" font-size="10.00">Of&lt; UnionT&lt; T1, T2 &gt; &gt;</text>
<text text-anchor="start" x="315" y="-184" font-family="Cascadia Code NF" font-size="10.00"> </text>
<text text-anchor="start" x="315" y="-168" font-family="Cascadia Code NF" font-size="10.00"> </text>
<polygon fill="#666666" stroke="#666666" points="238,-195.5 238,-195.5 398,-195.5 398,-195.5 238,-195.5"/>
<polygon fill="#666666" stroke="#666666" points="238,-179.5 238,-179.5 398,-179.5 398,-179.5 238,-179.5"/>
<polygon fill="none" stroke="#666666" points="238,-161.5 238,-226.5 398,-226.5 398,-161.5 238,-161.5"/>
</a>
</g>
</g>
<!-- Node2 -->
<g id="Node000002" class="node">
<title>Node2</title>
<g id="a_Node000002"><a xlink:href="../../d0/dcd/classv8_1_1internal_1_1MachineType.html" target="_top" xlink:title=" ">
<polygon fill="white" stroke="none" points="160,-388 0,-388 0,0 160,0 160,-388"/>
<text text-anchor="start" x="5" y="-374.5" font-family="Cascadia Code NF" font-size="10.00">v8::internal::MachineType</text>
<text text-anchor="start" x="77" y="-358.5" font-family="Cascadia Code NF" font-size="10.00"> </text>
<text text-anchor="start" x="5" y="-342.5" font-family="Cascadia Code NF" font-size="10.00">+</text>
<text text-anchor="start" x="16" y="-342.5" font-family="Cascadia Code NF" font-size="10.00">MachineType()</text>
<text text-anchor="start" x="5" y="-326.5" font-family="Cascadia Code NF" font-size="10.00">+</text>
<text text-anchor="start" x="16" y="-326.5" font-family="Cascadia Code NF" font-size="10.00">MachineType()</text>
<text text-anchor="start" x="5" y="-310.5" font-family="Cascadia Code NF" font-size="10.00">+</text>
<text text-anchor="start" x="16" y="-310.5" font-family="Cascadia Code NF" font-size="10.00">operator==()</text>
<text text-anchor="start" x="5" y="-294.5" font-family="Cascadia Code NF" font-size="10.00">+</text>
<text text-anchor="start" x="16" y="-294.5" font-family="Cascadia Code NF" font-size="10.00">operator!=()</text>
<text text-anchor="start" x="5" y="-278.5" font-family="Cascadia Code NF" font-size="10.00">+</text>
<text text-anchor="start" x="16" y="-278.5" font-family="Cascadia Code NF" font-size="10.00">representation()</text>
<text text-anchor="start" x="5" y="-262.5" font-family="Cascadia Code NF" font-size="10.00">+</text>
<text text-anchor="start" x="16" y="-262.5" font-family="Cascadia Code NF" font-size="10.00">semantic()</text>
<text text-anchor="start" x="5" y="-246.5" font-family="Cascadia Code NF" font-size="10.00">+</text>
<text text-anchor="start" x="16" y="-246.5" font-family="Cascadia Code NF" font-size="10.00">IsNone()</text>
<text text-anchor="start" x="5" y="-230.5" font-family="Cascadia Code NF" font-size="10.00">+</text>
<text text-anchor="start" x="16" y="-230.5" font-family="Cascadia Code NF" font-size="10.00">IsMapWord()</text>
<text text-anchor="start" x="5" y="-214.5" font-family="Cascadia Code NF" font-size="10.00">+</text>
<text text-anchor="start" x="16" y="-214.5" font-family="Cascadia Code NF" font-size="10.00">IsSigned()</text>
<text text-anchor="start" x="5" y="-198.5" font-family="Cascadia Code NF" font-size="10.00">+</text>
<text text-anchor="start" x="16" y="-198.5" font-family="Cascadia Code NF" font-size="10.00">IsUnsigned()</text>
<text text-anchor="start" x="16" y="-182.5" font-family="Cascadia Code NF" font-size="10.00">and 8 more...</text>
<text text-anchor="start" x="5" y="-166.5" font-family="Cascadia Code NF" font-size="10.00">+</text>
<text text-anchor="start" x="16" y="-166.5" font-family="Cascadia Code NF" font-size="10.00">PointerRepresentation()</text>
<text text-anchor="start" x="5" y="-150.5" font-family="Cascadia Code NF" font-size="10.00">+</text>
<text text-anchor="start" x="16" y="-150.5" font-family="Cascadia Code NF" font-size="10.00">UintPtr()</text>
<text text-anchor="start" x="5" y="-134.5" font-family="Cascadia Code NF" font-size="10.00">+</text>
<text text-anchor="start" x="16" y="-134.5" font-family="Cascadia Code NF" font-size="10.00">IntPtr()</text>
<text text-anchor="start" x="5" y="-118.5" font-family="Cascadia Code NF" font-size="10.00">+</text>
<text text-anchor="start" x="16" y="-118.5" font-family="Cascadia Code NF" font-size="10.00">Int8()</text>
<text text-anchor="start" x="5" y="-102.5" font-family="Cascadia Code NF" font-size="10.00">+</text>
<text text-anchor="start" x="16" y="-102.5" font-family="Cascadia Code NF" font-size="10.00">Uint8()</text>
<text text-anchor="start" x="5" y="-86.5" font-family="Cascadia Code NF" font-size="10.00">+</text>
<text text-anchor="start" x="16" y="-86.5" font-family="Cascadia Code NF" font-size="10.00">Int16()</text>
<text text-anchor="start" x="5" y="-70.5" font-family="Cascadia Code NF" font-size="10.00">+</text>
<text text-anchor="start" x="16" y="-70.5" font-family="Cascadia Code NF" font-size="10.00">Uint16()</text>
<text text-anchor="start" x="5" y="-54.5" font-family="Cascadia Code NF" font-size="10.00">+</text>
<text text-anchor="start" x="16" y="-54.5" font-family="Cascadia Code NF" font-size="10.00">Int32()</text>
<text text-anchor="start" x="5" y="-38.5" font-family="Cascadia Code NF" font-size="10.00">+</text>
<text text-anchor="start" x="16" y="-38.5" font-family="Cascadia Code NF" font-size="10.00">Uint32()</text>
<text text-anchor="start" x="5" y="-22.5" font-family="Cascadia Code NF" font-size="10.00">+</text>
<text text-anchor="start" x="16" y="-22.5" font-family="Cascadia Code NF" font-size="10.00">Int64()</text>
<text text-anchor="start" x="16" y="-6.5" font-family="Cascadia Code NF" font-size="10.00">and 21 more...</text>
<polygon fill="#bfbfbf" stroke="#bfbfbf" points="0,-370 0,-370 160,-370 160,-370 0,-370"/>
<polygon fill="#bfbfbf" stroke="#bfbfbf" points="0,-354 0,-354 160,-354 160,-354 0,-354"/>
<polygon fill="none" stroke="#bfbfbf" points="0,0 0,-388 160,-388 160,0 0,0"/>
</a>
</g>
</g>
<!-- Node2&#45;&gt;Node1 -->
<g id="edge1_Node000001_Node000002" class="edge">
<title>Node2&#45;&gt;Node1</title>
<g id="a_edge1_Node000001_Node000002"><a xlink:title=" ">
<path fill="none" stroke="#63b8ff" d="M159.91,-194C180.87,-194 203.69,-194 225.27,-194"/>
<polygon fill="none" stroke="#63b8ff" points="225.26,-194 231.26,-190 237.26,-194 231.26,-198 225.26,-194"/>
</a>
</g>
<text text-anchor="middle" x="199" y="-197.25" font-family="Cascadia Code NF" font-size="10.00" fill="grey"> +value</text>
</g>
</g>
</svg>
