<?xml version="1.0" encoding="UTF-8" standalone="no"?>
<!DOCTYPE svg PUBLIC "-//W3C//DTD SVG 1.1//EN"
 "http://www.w3.org/Graphics/SVG/1.1/DTD/svg11.dtd">
<!-- Generated by graphviz version 11.0.0 (20240428.1522)
 -->
<!-- Title: cppgc::internal::PersistentBase Pages: 1 -->
<!--zoomable 464 -->

<svg id="main" version="1.1" xmlns="http://www.w3.org/2000/svg" xmlns:xlink="http://www.w3.org/1999/xlink" xml:space="preserve" onload="init(evt)">
<style type="text/css"><![CDATA[
.node, .edge {opacity: 0.7;}
.node.selected, .edge.selected {opacity: 1;}
.edge:hover path { stroke: red; }
.edge:hover polygon { stroke: red; fill: red; }
svg#main { background-color: #111; }
]]></style>

<defs>
  <circle id="rim" cx="0" cy="0" r="7"/>
  <circle id="rim2" cx="0" cy="0" r="3.5"/>
  <g id="zoomPlus">
    <use xlink:href="#rim" fill="#404040"><set attributeName="fill" to="#808080" begin="zoomplus.mouseover" end="zoomplus.mouseout"/></use>
    <path d="M-4,0h8M0,-4v8" fill="none" stroke="white" stroke-width="1.5" pointer-events="none"/>
  </g>
  <g id="zoomMin">
    <use xlink:href="#rim" fill="#404040"><set attributeName="fill" to="#808080" begin="zoomminus.mouseover" end="zoomminus.mouseout"/></use>
    <path d="M-4,0h8" fill="none" stroke="white" stroke-width="1.5" pointer-events="none"/>
  </g>
  <g id="arrowUp" transform="translate(30 24)">
    <use xlink:href="#rim"/>
    <path pointer-events="none" fill="none" stroke="white" stroke-width="1.5" d="M0,-3.0v7 M-2.5,-0.5L0,-3.0L2.5,-0.5"/>
  </g>
  <g id="arrowRight" transform="rotate(90) translate(36 -43)">
    <use xlink:href="#rim"/>
    <path pointer-events="none" fill="none" stroke="white" stroke-width="1.5" d="M0,-3.0v7 M-2.5,-0.5L0,-3.0L2.5,-0.5"/>
  </g>
  <g id="arrowDown" transform="rotate(180) translate(-30 -48)">
    <use xlink:href="#rim"/>
    <path pointer-events="none" fill="none" stroke="white" stroke-width="1.5" d="M0,-3.0v7 M-2.5,-0.5L0,-3.0L2.5,-0.5"/>
  </g>
  <g id="arrowLeft" transform="rotate(270) translate(-36 17)">
    <use xlink:href="#rim"/>
    <path pointer-events="none" fill="none" stroke="white" stroke-width="1.5" d="M0,-3.0v7 M-2.5,-0.5L0,-3.0L2.5,-0.5"/>
  </g>
  <g id="resetDef">
    <use xlink:href="#rim2" fill="#404040"><set attributeName="fill" to="#808080" begin="reset.mouseover" end="reset.mouseout"/></use>
  </g>
</defs>
<script type="application/ecmascript">
var viewWidth = 728;
var viewHeight = 464;
var sectionId = 'dynsection-0';
</script>
<script type="application/ecmascript" xlink:href="../../svg.min.js"/>
<svg id="graph" class="graph">
<g id="viewport">
<title>cppgc::internal::PersistentBase</title>
<!-- Node1 -->
<g id="Node000001" class="node">
<title>Node1</title>
<g id="a_Node000001"><a xlink:title=" ">
<polygon fill="#999999" stroke="none" points="196,-310 0,-310 0,-146 196,-146 196,-310"/>
<text text-anchor="start" x="5" y="-296.5" font-family="Cascadia Code NF" font-size="10.00">cppgc::internal::PersistentBase</text>
<text text-anchor="start" x="24.5" y="-280.5" font-family="Cascadia Code NF" font-size="10.00">#</text>
<text text-anchor="start" x="55" y="-280.5" font-family="Cascadia Code NF" font-size="10.00">raw_</text>
<text text-anchor="start" x="24.5" y="-264.5" font-family="Cascadia Code NF" font-size="10.00">#</text>
<text text-anchor="start" x="55" y="-264.5" font-family="Cascadia Code NF" font-size="10.00">node_</text>
<text text-anchor="start" x="24.5" y="-248.5" font-family="Cascadia Code NF" font-size="10.00">#</text>
<text text-anchor="start" x="55" y="-248.5" font-family="Cascadia Code NF" font-size="10.00">PersistentBase()</text>
<text text-anchor="start" x="24.5" y="-232.5" font-family="Cascadia Code NF" font-size="10.00">#</text>
<text text-anchor="start" x="55" y="-232.5" font-family="Cascadia Code NF" font-size="10.00">PersistentBase()</text>
<text text-anchor="start" x="24.5" y="-216.5" font-family="Cascadia Code NF" font-size="10.00">#</text>
<text text-anchor="start" x="55" y="-216.5" font-family="Cascadia Code NF" font-size="10.00">GetValue()</text>
<text text-anchor="start" x="24.5" y="-200.5" font-family="Cascadia Code NF" font-size="10.00">#</text>
<text text-anchor="start" x="55" y="-200.5" font-family="Cascadia Code NF" font-size="10.00">SetValue()</text>
<text text-anchor="start" x="24.5" y="-184.5" font-family="Cascadia Code NF" font-size="10.00">#</text>
<text text-anchor="start" x="55" y="-184.5" font-family="Cascadia Code NF" font-size="10.00">GetNode()</text>
<text text-anchor="start" x="24.5" y="-168.5" font-family="Cascadia Code NF" font-size="10.00">#</text>
<text text-anchor="start" x="55" y="-168.5" font-family="Cascadia Code NF" font-size="10.00">SetNode()</text>
<text text-anchor="start" x="24.5" y="-152.5" font-family="Cascadia Code NF" font-size="10.00">#</text>
<text text-anchor="start" x="55" y="-152.5" font-family="Cascadia Code NF" font-size="10.00">ClearFromGC()</text>
<polygon fill="#666666" stroke="#666666" points="0,-292 0,-292 196,-292 196,-292 0,-292"/>
<polygon fill="#666666" stroke="#666666" points="0,-260 0,-260 53,-260 53,-260 0,-260"/>
<polygon fill="#666666" stroke="#666666" points="53,-260 53,-260 196,-260 196,-260 53,-260"/>
<polygon fill="none" stroke="#666666" points="0,-146 0,-310 196,-310 196,-146 0,-146"/>
</a>
</g>
</g>
<!-- Node2 -->
<g id="Node000002" class="node">
<title>Node2</title>
<g id="a_Node000002"><a xlink:href="../../d1/dee/classcppgc_1_1internal_1_1BasicPersistent.html" target="_top" xlink:title=" ">
<polygon fill="white" stroke="none" points="458,-456 232,-456 232,-218 458,-218 458,-456"/>
<text text-anchor="start" x="237" y="-442.5" font-family="Cascadia Code NF" font-size="10.00">cppgc::internal::BasicPersistent</text>
<text text-anchor="start" x="237" y="-429.75" font-family="Cascadia Code NF" font-size="10.00">&lt; T, WeaknessPolicy, LocationPolicy,</text>
<text text-anchor="start" x="294" y="-417" font-family="Cascadia Code NF" font-size="10.00"> CheckingPolicy &gt;</text>
<text text-anchor="start" x="342" y="-400.5" font-family="Cascadia Code NF" font-size="10.00"> </text>
<text text-anchor="start" x="261" y="-384.5" font-family="Cascadia Code NF" font-size="10.00">+</text>
<text text-anchor="start" x="296" y="-384.5" font-family="Cascadia Code NF" font-size="10.00">BasicPersistent()</text>
<text text-anchor="start" x="261" y="-368.5" font-family="Cascadia Code NF" font-size="10.00">+</text>
<text text-anchor="start" x="296" y="-368.5" font-family="Cascadia Code NF" font-size="10.00">BasicPersistent()</text>
<text text-anchor="start" x="261" y="-352.5" font-family="Cascadia Code NF" font-size="10.00">+</text>
<text text-anchor="start" x="296" y="-352.5" font-family="Cascadia Code NF" font-size="10.00">BasicPersistent()</text>
<text text-anchor="start" x="261" y="-336.5" font-family="Cascadia Code NF" font-size="10.00">+</text>
<text text-anchor="start" x="296" y="-336.5" font-family="Cascadia Code NF" font-size="10.00">BasicPersistent()</text>
<text text-anchor="start" x="261" y="-320.5" font-family="Cascadia Code NF" font-size="10.00">+</text>
<text text-anchor="start" x="296" y="-320.5" font-family="Cascadia Code NF" font-size="10.00">BasicPersistent()</text>
<text text-anchor="start" x="261" y="-304.5" font-family="Cascadia Code NF" font-size="10.00">+</text>
<text text-anchor="start" x="296" y="-304.5" font-family="Cascadia Code NF" font-size="10.00">BasicPersistent()</text>
<text text-anchor="start" x="261" y="-288.5" font-family="Cascadia Code NF" font-size="10.00">+</text>
<text text-anchor="start" x="296" y="-288.5" font-family="Cascadia Code NF" font-size="10.00">BasicPersistent()</text>
<text text-anchor="start" x="261" y="-272.5" font-family="Cascadia Code NF" font-size="10.00">+</text>
<text text-anchor="start" x="296" y="-272.5" font-family="Cascadia Code NF" font-size="10.00">BasicPersistent()</text>
<text text-anchor="start" x="261" y="-256.5" font-family="Cascadia Code NF" font-size="10.00">+</text>
<text text-anchor="start" x="296" y="-256.5" font-family="Cascadia Code NF" font-size="10.00">BasicPersistent()</text>
<text text-anchor="start" x="261" y="-240.5" font-family="Cascadia Code NF" font-size="10.00">+</text>
<text text-anchor="start" x="296" y="-240.5" font-family="Cascadia Code NF" font-size="10.00">~BasicPersistent()</text>
<text text-anchor="start" x="296" y="-224.5" font-family="Cascadia Code NF" font-size="10.00">and 15 more...</text>
<polygon fill="#bfbfbf" stroke="#bfbfbf" points="232,-412 232,-412 458,-412 458,-412 232,-412"/>
<polygon fill="#bfbfbf" stroke="#bfbfbf" points="232,-396 232,-396 458,-396 458,-396 232,-396"/>
<polygon fill="none" stroke="#bfbfbf" points="232,-218 232,-456 458,-456 458,-218 232,-218"/>
</a>
</g>
</g>
<!-- Node1&#45;&gt;Node2 -->
<g id="edge1_Node000001_Node000002" class="edge">
<title>Node1&#45;&gt;Node2</title>
<g id="a_edge1_Node000001_Node000002"><a xlink:title=" ">
<path fill="none" stroke="#63b8ff" d="M206.23,-275.71C214.8,-279.52 223.48,-283.38 232.08,-287.21"/>
<polygon fill="none" stroke="#63b8ff" points="207.77,-272.56 197.21,-271.69 204.93,-278.96 207.77,-272.56"/>
</a>
</g>
</g>
<!-- Node3 -->
<g id="Node000003" class="node">
<title>Node3</title>
<g id="a_Node000003"><a xlink:href="../../d4/d05/classcppgc_1_1internal_1_1CrossThreadPersistentBase.html" target="_top" xlink:title=" ">
<polygon fill="white" stroke="none" points="435,-199.5 255,-199.5 255,-38.5 435,-38.5 435,-199.5"/>
<text text-anchor="start" x="261" y="-186" font-family="Cascadia Code NF" font-size="10.00">cppgc::internal::CrossThread</text>
<text text-anchor="start" x="303" y="-173.25" font-family="Cascadia Code NF" font-size="10.00">PersistentBase</text>
<text text-anchor="start" x="342" y="-157" font-family="Cascadia Code NF" font-size="10.00"> </text>
<text text-anchor="start" x="259" y="-141" font-family="Cascadia Code NF" font-size="10.00">+</text>
<text text-anchor="start" x="269" y="-141" font-family="Cascadia Code NF" font-size="10.00">CrossThreadPersistentBase()</text>
<text text-anchor="start" x="259" y="-125" font-family="Cascadia Code NF" font-size="10.00">+</text>
<text text-anchor="start" x="269" y="-125" font-family="Cascadia Code NF" font-size="10.00">CrossThreadPersistentBase()</text>
<text text-anchor="start" x="259" y="-109" font-family="Cascadia Code NF" font-size="10.00">+</text>
<text text-anchor="start" x="269" y="-109" font-family="Cascadia Code NF" font-size="10.00">V8_CLANG_NO_SANITIZE()</text>
<text text-anchor="start" x="259" y="-93" font-family="Cascadia Code NF" font-size="10.00">+</text>
<text text-anchor="start" x="269" y="-93" font-family="Cascadia Code NF" font-size="10.00">GetNodeFromGC()</text>
<text text-anchor="start" x="259" y="-77" font-family="Cascadia Code NF" font-size="10.00">+</text>
<text text-anchor="start" x="269" y="-77" font-family="Cascadia Code NF" font-size="10.00">ClearFromGC()</text>
<text text-anchor="start" x="259" y="-61" font-family="Cascadia Code NF" font-size="10.00">+</text>
<text text-anchor="start" x="269" y="-61" font-family="Cascadia Code NF" font-size="10.00">GetNodeSafe()</text>
<text text-anchor="start" x="259" y="-45" font-family="Cascadia Code NF" font-size="10.00">+</text>
<text text-anchor="start" x="269" y="-45" font-family="Cascadia Code NF" font-size="10.00">SetNodeSafe()</text>
<polygon fill="#bfbfbf" stroke="#bfbfbf" points="255,-168.5 255,-168.5 435,-168.5 435,-168.5 255,-168.5"/>
<polygon fill="#bfbfbf" stroke="#bfbfbf" points="255,-152.5 255,-152.5 435,-152.5 435,-152.5 255,-152.5"/>
<polygon fill="none" stroke="#bfbfbf" points="255,-38.5 255,-199.5 435,-199.5 435,-38.5 255,-38.5"/>
</a>
</g>
</g>
<!-- Node1&#45;&gt;Node3 -->
<g id="edge2_Node000001_Node000003" class="edge">
<title>Node1&#45;&gt;Node3</title>
<g id="a_edge2_Node000001_Node000003"><a xlink:title=" ">
<path fill="none" stroke="#63b8ff" d="M205.97,-180.41C222.35,-173.12 239.11,-165.67 255.04,-158.58"/>
<polygon fill="none" stroke="#63b8ff" points="204.93,-177.04 197.21,-184.31 207.77,-183.44 204.93,-177.04"/>
</a>
</g>
</g>
<!-- Node4 -->
<g id="Node000004" class="node">
<title>Node4</title>
<g id="a_Node000004"><a xlink:href="../../dd/de4/classcppgc_1_1internal_1_1BasicCrossThreadPersistent.html" target="_top" xlink:title=" ">
<polygon fill="white" stroke="none" points="720,-238 494,-238 494,0 720,0 720,-238"/>
<text text-anchor="start" x="499" y="-224.5" font-family="Cascadia Code NF" font-size="10.00">cppgc::internal::BasicCross</text>
<text text-anchor="start" x="499" y="-211.75" font-family="Cascadia Code NF" font-size="10.00">ThreadPersistent&lt; T, WeaknessPolicy,</text>
<text text-anchor="start" x="508" y="-199" font-family="Cascadia Code NF" font-size="10.00"> LocationPolicy, CheckingPolicy &gt;</text>
<text text-anchor="start" x="604" y="-182.5" font-family="Cascadia Code NF" font-size="10.00"> </text>
<text text-anchor="start" x="506.5" y="-166.5" font-family="Cascadia Code NF" font-size="10.00">+</text>
<text text-anchor="start" x="525" y="-166.5" font-family="Cascadia Code NF" font-size="10.00">~BasicCrossThreadPersistent()</text>
<text text-anchor="start" x="506.5" y="-150.5" font-family="Cascadia Code NF" font-size="10.00">+</text>
<text text-anchor="start" x="525" y="-150.5" font-family="Cascadia Code NF" font-size="10.00">BasicCrossThreadPersistent()</text>
<text text-anchor="start" x="506.5" y="-134.5" font-family="Cascadia Code NF" font-size="10.00">+</text>
<text text-anchor="start" x="525" y="-134.5" font-family="Cascadia Code NF" font-size="10.00">BasicCrossThreadPersistent()</text>
<text text-anchor="start" x="506.5" y="-118.5" font-family="Cascadia Code NF" font-size="10.00">+</text>
<text text-anchor="start" x="525" y="-118.5" font-family="Cascadia Code NF" font-size="10.00">BasicCrossThreadPersistent()</text>
<text text-anchor="start" x="506.5" y="-102.5" font-family="Cascadia Code NF" font-size="10.00">+</text>
<text text-anchor="start" x="525" y="-102.5" font-family="Cascadia Code NF" font-size="10.00">BasicCrossThreadPersistent()</text>
<text text-anchor="start" x="506.5" y="-86.5" font-family="Cascadia Code NF" font-size="10.00">+</text>
<text text-anchor="start" x="525" y="-86.5" font-family="Cascadia Code NF" font-size="10.00">BasicCrossThreadPersistent()</text>
<text text-anchor="start" x="506.5" y="-70.5" font-family="Cascadia Code NF" font-size="10.00">+</text>
<text text-anchor="start" x="525" y="-70.5" font-family="Cascadia Code NF" font-size="10.00">BasicCrossThreadPersistent()</text>
<text text-anchor="start" x="506.5" y="-54.5" font-family="Cascadia Code NF" font-size="10.00">+</text>
<text text-anchor="start" x="525" y="-54.5" font-family="Cascadia Code NF" font-size="10.00">BasicCrossThreadPersistent()</text>
<text text-anchor="start" x="506.5" y="-38.5" font-family="Cascadia Code NF" font-size="10.00">+</text>
<text text-anchor="start" x="525" y="-38.5" font-family="Cascadia Code NF" font-size="10.00">BasicCrossThreadPersistent()</text>
<text text-anchor="start" x="506.5" y="-22.5" font-family="Cascadia Code NF" font-size="10.00">+</text>
<text text-anchor="start" x="525" y="-22.5" font-family="Cascadia Code NF" font-size="10.00">BasicCrossThreadPersistent()</text>
<text text-anchor="start" x="525" y="-6.5" font-family="Cascadia Code NF" font-size="10.00">and 17 more...</text>
<polygon fill="#bfbfbf" stroke="#bfbfbf" points="494,-194 494,-194 720,-194 720,-194 494,-194"/>
<polygon fill="#bfbfbf" stroke="#bfbfbf" points="494,-178 494,-178 720,-178 720,-178 494,-178"/>
<polygon fill="none" stroke="#bfbfbf" points="494,0 494,-238 720,-238 720,0 494,0"/>
</a>
</g>
</g>
<!-- Node3&#45;&gt;Node4 -->
<g id="edge3_Node000003_Node000004" class="edge">
<title>Node3&#45;&gt;Node4</title>
<g id="a_edge3_Node000003_Node000004"><a xlink:title=" ">
<path fill="none" stroke="#63b8ff" d="M446.09,-119C461.84,-119 478.21,-119 494.2,-119"/>
<polygon fill="none" stroke="#63b8ff" points="446.26,-115.5 436.26,-119 446.26,-122.5 446.26,-115.5"/>
</a>
</g>
</g>
</g>
</svg>

<g id="navigator" transform="translate(0 0)" fill="#404254">
  <rect fill="#f2f5e9" fill-opacity="0.5" stroke="#606060" stroke-width=".5" x="0" y="0" width="60" height="60"/>
  <use id="zoomplus" xlink:href="#zoomPlus" x="17" y="9" onmousedown="handleZoom(evt,'in')"/>
  <use id="zoomminus" xlink:href="#zoomMin" x="42" y="9" onmousedown="handleZoom(evt,'out')"/>
  <use id="reset" xlink:href="#resetDef" x="30" y="36" onmousedown="handleReset()"/>
   <use id="arrowup" xlink:href="#arrowUp" x="0" y="0" onmousedown="handlePan(0,-1)"/>
  <use id="arrowright" xlink:href="#arrowRight" x="0" y="0" onmousedown="handlePan(1,0)"/>
  <use id="arrowdown" xlink:href="#arrowDown" x="0" y="0" onmousedown="handlePan(0,1)"/>
  <use id="arrowleft" xlink:href="#arrowLeft" x="0" y="0" onmousedown="handlePan(-1,0)"/>
</g>
<svg viewBox="0 0 15 15" width="100%" height="30px" preserveAspectRatio="xMaxYMin meet">
 <g id="arrow_out" transform="scale(0.3 0.3)">
  <a xlink:href="classcppgc_1_1internal_1_1PersistentBase__inherit__graph_org.svg" target="_base">
   <rect id="button" ry="5" rx="5" y="6" x="6" height="38" width="38"
        fill="#f2f5e9" fill-opacity="0.5" stroke="#606060" stroke-width="1.0"/>
   <path id="arrow"
     d="M 11.500037,31.436501 C 11.940474,20.09759 22.043105,11.32322 32.158766,21.979434 L 37.068811,17.246167 C 37.068811,17.246167 37.088388,32 37.088388,32 L 22.160133,31.978069 C 22.160133,31.978069 26.997745,27.140456 26.997745,27.140456 C 18.528582,18.264221 13.291696,25.230495 11.500037,31.436501 z"
     style="fill:#404040;"/>
  </a>
 </g>
</svg>

<style type='text/css'>
<![CDATA[
[data-mouse-over-selected='false'] { opacity: 0.7; }
[data-mouse-over-selected='true']  { opacity: 1.0; }
]]>
</style>
<script type="application/ecmascript"><![CDATA[
document.addEventListener('DOMContentLoaded', (event) => {
  highlightEdges();
  highlightAdjacentNodes();
});
]]></script>
</svg>
