<?xml version="1.0" encoding="UTF-8" standalone="no"?>
<!DOCTYPE svg PUBLIC "-//W3C//DTD SVG 1.1//EN"
 "http://www.w3.org/Graphics/SVG/1.1/DTD/svg11.dtd">
<!-- Generated by graphviz version 11.0.0 (20240428.1522)
 -->
<!-- Title: v8::internal::compiler::turboshaft::LoadOp Pages: 1 -->
<svg width="1266pt" height="1574pt"
 viewBox="0.00 0.00 1266.00 1574.00" xmlns="http://www.w3.org/2000/svg" xmlns:xlink="http://www.w3.org/1999/xlink">
<g id="graph0" class="graph" transform="scale(1 1) rotate(0) translate(4 1570)">
<title>v8::internal::compiler::turboshaft::LoadOp</title>
<!-- Node1 -->
<g id="Node000001" class="node">
<title>Node1</title>
<g id="a_Node000001"><a xlink:title=" ">
<polygon fill="#999999" stroke="none" points="1258,-769.5 1116,-769.5 1116,-496.5 1258,-496.5 1258,-769.5"/>
<text text-anchor="start" x="1121" y="-756" font-family="Cascadia Code NF" font-size="10.00">v8::internal::compiler</text>
<text text-anchor="start" x="1127" y="-743.25" font-family="Cascadia Code NF" font-size="10.00">::turboshaft::LoadOp</text>
<text text-anchor="start" x="1184" y="-727" font-family="Cascadia Code NF" font-size="10.00"> </text>
<text text-anchor="start" x="1128.5" y="-711" font-family="Cascadia Code NF" font-size="10.00">+</text>
<text text-anchor="start" x="1147" y="-711" font-family="Cascadia Code NF" font-size="10.00">Effects()</text>
<text text-anchor="start" x="1128.5" y="-695" font-family="Cascadia Code NF" font-size="10.00">+</text>
<text text-anchor="start" x="1147" y="-695" font-family="Cascadia Code NF" font-size="10.00">outputs_rep()</text>
<text text-anchor="start" x="1128.5" y="-679" font-family="Cascadia Code NF" font-size="10.00">+</text>
<text text-anchor="start" x="1147" y="-679" font-family="Cascadia Code NF" font-size="10.00">machine_type()</text>
<text text-anchor="start" x="1128.5" y="-663" font-family="Cascadia Code NF" font-size="10.00">+</text>
<text text-anchor="start" x="1147" y="-663" font-family="Cascadia Code NF" font-size="10.00">inputs_rep()</text>
<text text-anchor="start" x="1128.5" y="-647" font-family="Cascadia Code NF" font-size="10.00">+</text>
<text text-anchor="start" x="1147" y="-647" font-family="Cascadia Code NF" font-size="10.00">base()</text>
<text text-anchor="start" x="1128.5" y="-631" font-family="Cascadia Code NF" font-size="10.00">+</text>
<text text-anchor="start" x="1147" y="-631" font-family="Cascadia Code NF" font-size="10.00">index()</text>
<text text-anchor="start" x="1128.5" y="-615" font-family="Cascadia Code NF" font-size="10.00">+</text>
<text text-anchor="start" x="1147" y="-615" font-family="Cascadia Code NF" font-size="10.00">LoadOp()</text>
<text text-anchor="start" x="1128.5" y="-599" font-family="Cascadia Code NF" font-size="10.00">+</text>
<text text-anchor="start" x="1147" y="-599" font-family="Cascadia Code NF" font-size="10.00">Explode()</text>
<text text-anchor="start" x="1128.5" y="-583" font-family="Cascadia Code NF" font-size="10.00">+</text>
<text text-anchor="start" x="1147" y="-583" font-family="Cascadia Code NF" font-size="10.00">Validate()</text>
<text text-anchor="start" x="1128.5" y="-567" font-family="Cascadia Code NF" font-size="10.00">+</text>
<text text-anchor="start" x="1147" y="-567" font-family="Cascadia Code NF" font-size="10.00">PrintInputs()</text>
<text text-anchor="start" x="1128.5" y="-551" font-family="Cascadia Code NF" font-size="10.00">+</text>
<text text-anchor="start" x="1147" y="-551" font-family="Cascadia Code NF" font-size="10.00">PrintOptions()</text>
<text text-anchor="start" x="1128.5" y="-535" font-family="Cascadia Code NF" font-size="10.00">+</text>
<text text-anchor="start" x="1147" y="-535" font-family="Cascadia Code NF" font-size="10.00">options()</text>
<text text-anchor="start" x="1128.5" y="-519" font-family="Cascadia Code NF" font-size="10.00">+</text>
<text text-anchor="start" x="1147" y="-519" font-family="Cascadia Code NF" font-size="10.00">OffsetIsValid()</text>
<text text-anchor="start" x="1128.5" y="-503" font-family="Cascadia Code NF" font-size="10.00">+</text>
<text text-anchor="start" x="1147" y="-503" font-family="Cascadia Code NF" font-size="10.00">New()</text>
<polygon fill="#666666" stroke="#666666" points="1116,-738.5 1116,-738.5 1258,-738.5 1258,-738.5 1116,-738.5"/>
<polygon fill="#666666" stroke="#666666" points="1116,-722.5 1116,-722.5 1258,-722.5 1258,-722.5 1116,-722.5"/>
<polygon fill="none" stroke="#666666" points="1116,-496.5 1116,-769.5 1258,-769.5 1258,-496.5 1116,-496.5"/>
</a>
</g>
</g>
<!-- Node2 -->
<g id="Node000002" class="node">
<title>Node2</title>
<g id="a_Node000002"><a xlink:href="$d5/d1a/structv8_1_1internal_1_1compiler_1_1turboshaft_1_1OperationT.html" xlink:title=" ">
<polygon fill="white" stroke="none" points="930,-1566 776,-1566 776,-1232 930,-1232 930,-1566"/>
<text text-anchor="start" x="781" y="-1552.5" font-family="Cascadia Code NF" font-size="10.00">v8::internal::compiler</text>
<text text-anchor="start" x="781" y="-1539.75" font-family="Cascadia Code NF" font-size="10.00">::turboshaft::OperationT</text>
<text text-anchor="start" x="823" y="-1527" font-family="Cascadia Code NF" font-size="10.00">&lt; LoadOp &gt;</text>
<text text-anchor="start" x="850" y="-1510.5" font-family="Cascadia Code NF" font-size="10.00"> </text>
<text text-anchor="start" x="781" y="-1494.5" font-family="Cascadia Code NF" font-size="10.00">+</text>
<text text-anchor="start" x="792" y="-1494.5" font-family="Cascadia Code NF" font-size="10.00">IsRequiredWhenUnused()</text>
<text text-anchor="start" x="781" y="-1478.5" font-family="Cascadia Code NF" font-size="10.00">+</text>
<text text-anchor="start" x="792" y="-1478.5" font-family="Cascadia Code NF" font-size="10.00">derived_this()</text>
<text text-anchor="start" x="781" y="-1462.5" font-family="Cascadia Code NF" font-size="10.00">+</text>
<text text-anchor="start" x="792" y="-1462.5" font-family="Cascadia Code NF" font-size="10.00">derived_this()</text>
<text text-anchor="start" x="781" y="-1446.5" font-family="Cascadia Code NF" font-size="10.00">+</text>
<text text-anchor="start" x="792" y="-1446.5" font-family="Cascadia Code NF" font-size="10.00">inputs()</text>
<text text-anchor="start" x="781" y="-1430.5" font-family="Cascadia Code NF" font-size="10.00">+</text>
<text text-anchor="start" x="792" y="-1430.5" font-family="Cascadia Code NF" font-size="10.00">inputs()</text>
<text text-anchor="start" x="781" y="-1414.5" font-family="Cascadia Code NF" font-size="10.00">+</text>
<text text-anchor="start" x="792" y="-1414.5" font-family="Cascadia Code NF" font-size="10.00">input()</text>
<text text-anchor="start" x="781" y="-1398.5" font-family="Cascadia Code NF" font-size="10.00">+</text>
<text text-anchor="start" x="792" y="-1398.5" font-family="Cascadia Code NF" font-size="10.00">input()</text>
<text text-anchor="start" x="781" y="-1382.5" font-family="Cascadia Code NF" font-size="10.00">+</text>
<text text-anchor="start" x="792" y="-1382.5" font-family="Cascadia Code NF" font-size="10.00">input()</text>
<text text-anchor="start" x="781" y="-1366.5" font-family="Cascadia Code NF" font-size="10.00">+</text>
<text text-anchor="start" x="792" y="-1366.5" font-family="Cascadia Code NF" font-size="10.00">StorageSlotCount()</text>
<text text-anchor="start" x="781" y="-1350.5" font-family="Cascadia Code NF" font-size="10.00">+</text>
<text text-anchor="start" x="792" y="-1350.5" font-family="Cascadia Code NF" font-size="10.00">OperationT()</text>
<text text-anchor="start" x="792" y="-1334.5" font-family="Cascadia Code NF" font-size="10.00">and 7 more...</text>
<text text-anchor="start" x="781" y="-1318.5" font-family="Cascadia Code NF" font-size="10.00">+</text>
<text text-anchor="start" x="792" y="-1318.5" font-family="Cascadia Code NF" font-size="10.00">Effects()</text>
<text text-anchor="start" x="781" y="-1302.5" font-family="Cascadia Code NF" font-size="10.00">+</text>
<text text-anchor="start" x="792" y="-1302.5" font-family="Cascadia Code NF" font-size="10.00">IsBlockTerminator()</text>
<text text-anchor="start" x="781" y="-1286.5" font-family="Cascadia Code NF" font-size="10.00">+</text>
<text text-anchor="start" x="792" y="-1286.5" font-family="Cascadia Code NF" font-size="10.00">EffectsIfStatic()</text>
<text text-anchor="start" x="781" y="-1270.5" font-family="Cascadia Code NF" font-size="10.00">+</text>
<text text-anchor="start" x="792" y="-1270.5" font-family="Cascadia Code NF" font-size="10.00">StorageSlotCount()</text>
<text text-anchor="start" x="781" y="-1254.5" font-family="Cascadia Code NF" font-size="10.00">+</text>
<text text-anchor="start" x="792" y="-1254.5" font-family="Cascadia Code NF" font-size="10.00">New()</text>
<text text-anchor="start" x="781" y="-1238.5" font-family="Cascadia Code NF" font-size="10.00">+</text>
<text text-anchor="start" x="792" y="-1238.5" font-family="Cascadia Code NF" font-size="10.00">New()</text>
<polygon fill="#bfbfbf" stroke="#bfbfbf" points="776,-1522 776,-1522 930,-1522 930,-1522 776,-1522"/>
<polygon fill="#bfbfbf" stroke="#bfbfbf" points="776,-1506 776,-1506 930,-1506 930,-1506 776,-1506"/>
<polygon fill="none" stroke="#bfbfbf" points="776,-1232 776,-1566 930,-1566 930,-1232 776,-1232"/>
</a>
</g>
</g>
<!-- Node2&#45;&gt;Node1 -->
<g id="edge1_Node000001_Node000002" class="edge">
<title>Node2&#45;&gt;Node1</title>
<g id="a_edge1_Node000001_Node000002"><a xlink:title=" ">
<path fill="none" stroke="#63b8ff" d="M935.66,-1273.62C946.1,-1256.74 956.46,-1239.55 966,-1223 1029.55,-1112.78 1052.27,-1087.72 1098,-969 1122.71,-904.85 1142.87,-831.21 1157.62,-769.24"/>
<polygon fill="none" stroke="#63b8ff" points="932.96,-1271.33 930.65,-1281.67 938.9,-1275.03 932.96,-1271.33"/>
</a>
</g>
</g>
<!-- Node3 -->
<g id="Node000003" class="node">
<title>Node3</title>
<g id="a_Node000003"><a xlink:href="$d6/da7/structv8_1_1internal_1_1compiler_1_1turboshaft_1_1Operation.html" xlink:title=" ">
<polygon fill="white" stroke="none" points="543,-1500.5 393,-1500.5 393,-1195.5 543,-1195.5 543,-1500.5"/>
<text text-anchor="start" x="399" y="-1487" font-family="Cascadia Code NF" font-size="10.00">v8::internal::compiler</text>
<text text-anchor="start" x="399" y="-1474.25" font-family="Cascadia Code NF" font-size="10.00">::turboshaft::Operation</text>
<text text-anchor="start" x="465" y="-1458" font-family="Cascadia Code NF" font-size="10.00"> </text>
<text text-anchor="start" x="397" y="-1442" font-family="Cascadia Code NF" font-size="10.00">+</text>
<text text-anchor="start" x="407" y="-1442" font-family="Cascadia Code NF" font-size="10.00">inputs()</text>
<text text-anchor="start" x="397" y="-1426" font-family="Cascadia Code NF" font-size="10.00">+</text>
<text text-anchor="start" x="407" y="-1426" font-family="Cascadia Code NF" font-size="10.00">input()</text>
<text text-anchor="start" x="397" y="-1410" font-family="Cascadia Code NF" font-size="10.00">+</text>
<text text-anchor="start" x="407" y="-1410" font-family="Cascadia Code NF" font-size="10.00">StorageSlotCount()</text>
<text text-anchor="start" x="397" y="-1394" font-family="Cascadia Code NF" font-size="10.00">+</text>
<text text-anchor="start" x="407" y="-1394" font-family="Cascadia Code NF" font-size="10.00">outputs_rep()</text>
<text text-anchor="start" x="397" y="-1378" font-family="Cascadia Code NF" font-size="10.00">+</text>
<text text-anchor="start" x="407" y="-1378" font-family="Cascadia Code NF" font-size="10.00">inputs_rep()</text>
<text text-anchor="start" x="397" y="-1362" font-family="Cascadia Code NF" font-size="10.00">+</text>
<text text-anchor="start" x="407" y="-1362" font-family="Cascadia Code NF" font-size="10.00">Is()</text>
<text text-anchor="start" x="397" y="-1346" font-family="Cascadia Code NF" font-size="10.00">+</text>
<text text-anchor="start" x="407" y="-1346" font-family="Cascadia Code NF" font-size="10.00">Cast()</text>
<text text-anchor="start" x="397" y="-1330" font-family="Cascadia Code NF" font-size="10.00">+</text>
<text text-anchor="start" x="407" y="-1330" font-family="Cascadia Code NF" font-size="10.00">Cast()</text>
<text text-anchor="start" x="397" y="-1314" font-family="Cascadia Code NF" font-size="10.00">+</text>
<text text-anchor="start" x="407" y="-1314" font-family="Cascadia Code NF" font-size="10.00">TryCast()</text>
<text text-anchor="start" x="397" y="-1298" font-family="Cascadia Code NF" font-size="10.00">+</text>
<text text-anchor="start" x="407" y="-1298" font-family="Cascadia Code NF" font-size="10.00">TryCast()</text>
<text text-anchor="start" x="407" y="-1282" font-family="Cascadia Code NF" font-size="10.00">and 7 more...</text>
<text text-anchor="start" x="397" y="-1266" font-family="Cascadia Code NF" font-size="10.00">+</text>
<text text-anchor="start" x="407" y="-1266" font-family="Cascadia Code NF" font-size="10.00">StorageSlotCount()</text>
<text text-anchor="start" x="397" y="-1250" font-family="Cascadia Code NF" font-size="10.00">#</text>
<text text-anchor="start" x="407" y="-1250" font-family="Cascadia Code NF" font-size="10.00">Operation()</text>
<text text-anchor="start" x="397" y="-1234" font-family="Cascadia Code NF" font-size="10.00">#</text>
<text text-anchor="start" x="407" y="-1234" font-family="Cascadia Code NF" font-size="10.00">V8_CLANG_NO_SANITIZE()</text>
<text text-anchor="start" x="397" y="-1218" font-family="Cascadia Code NF" font-size="10.00">#</text>
<text text-anchor="start" x="407" y="-1218" font-family="Cascadia Code NF" font-size="10.00">Operation()</text>
<text text-anchor="start" x="397" y="-1202" font-family="Cascadia Code NF" font-size="10.00">#</text>
<text text-anchor="start" x="407" y="-1202" font-family="Cascadia Code NF" font-size="10.00">operator=()</text>
<polygon fill="#bfbfbf" stroke="#bfbfbf" points="393,-1469.5 393,-1469.5 543,-1469.5 543,-1469.5 393,-1469.5"/>
<polygon fill="#bfbfbf" stroke="#bfbfbf" points="393,-1453.5 393,-1453.5 543,-1453.5 543,-1453.5 393,-1453.5"/>
<polygon fill="none" stroke="#bfbfbf" points="393,-1195.5 393,-1500.5 543,-1500.5 543,-1195.5 393,-1195.5"/>
</a>
</g>
</g>
<!-- Node3&#45;&gt;Node2 -->
<g id="edge2_Node000002_Node000003" class="edge">
<title>Node3&#45;&gt;Node2</title>
<g id="a_edge2_Node000002_Node000003"><a xlink:title=" ">
<path fill="none" stroke="#63b8ff" d="M554.12,-1359.33C620.59,-1368.19 712.09,-1380.37 776.09,-1388.89"/>
<polygon fill="none" stroke="#63b8ff" points="554.72,-1355.88 544.35,-1358.03 553.8,-1362.82 554.72,-1355.88"/>
</a>
</g>
</g>
<!-- Node4 -->
<g id="Node000004" class="node">
<title>Node4</title>
<g id="a_Node000004"><a xlink:title=" ">
<polygon fill="white" stroke="none" points="109,-1547 69,-1547 69,-1495 109,-1495 109,-1547"/>
<text text-anchor="start" x="74" y="-1533.5" font-family="Cascadia Code NF" font-size="10.00">const</text>
<text text-anchor="start" x="86" y="-1517.5" font-family="Cascadia Code NF" font-size="10.00"> </text>
<text text-anchor="start" x="86" y="-1501.5" font-family="Cascadia Code NF" font-size="10.00"> </text>
<polygon fill="#bfbfbf" stroke="#bfbfbf" points="69,-1529 69,-1529 109,-1529 109,-1529 69,-1529"/>
<polygon fill="#bfbfbf" stroke="#bfbfbf" points="69,-1513 69,-1513 109,-1513 109,-1513 69,-1513"/>
<polygon fill="none" stroke="#bfbfbf" points="69,-1495 69,-1547 109,-1547 109,-1495 69,-1495"/>
</a>
</g>
</g>
<!-- Node4&#45;&gt;Node2 -->
<g id="edge5_Node000002_Node000004" class="edge">
<title>Node4&#45;&gt;Node2</title>
<g id="a_edge5_Node000002_Node000004"><a xlink:title=" ">
<path fill="none" stroke="#63b8ff" d="M108.68,-1523.15C175.68,-1530.32 409.73,-1550.76 596,-1510 654.58,-1497.18 716.37,-1470.8 764.56,-1446.98"/>
<polygon fill="none" stroke="#63b8ff" points="764.67,-1446.93 768.24,-1440.66 775.39,-1441.55 771.82,-1447.81 764.67,-1446.93"/>
</a>
</g>
<text text-anchor="middle" x="468" y="-1537.25" font-family="Cascadia Code NF" font-size="10.00" fill="grey"> +opcode</text>
</g>
<!-- Node4&#45;&gt;Node3 -->
<g id="edge3_Node000003_Node000004" class="edge">
<title>Node4&#45;&gt;Node3</title>
<g id="a_edge3_Node000003_Node000004"><a xlink:title=" ">
<path fill="none" stroke="#63b8ff" d="M108.95,-1512.3C158.11,-1489.74 292.09,-1428.26 381.48,-1387.24"/>
<polygon fill="none" stroke="#63b8ff" points="381.51,-1387.23 385.3,-1381.09 392.42,-1382.22 388.64,-1388.36 381.51,-1387.23"/>
</a>
</g>
<text text-anchor="middle" x="259" y="-1485" font-family="Cascadia Code NF" font-size="10.00" fill="grey"> +input_count</text>
<text text-anchor="middle" x="259" y="-1472.25" font-family="Cascadia Code NF" font-size="10.00" fill="grey">+opcode</text>
</g>
<!-- Node5 -->
<g id="Node000005" class="node">
<title>Node5</title>
<g id="a_Node000005"><a xlink:href="$dc/d00/classv8_1_1internal_1_1compiler_1_1turboshaft_1_1SaturatedUint8.html" xlink:title=" ">
<polygon fill="white" stroke="none" points="178,-1460.5 0,-1460.5 0,-1235.5 178,-1235.5 178,-1460.5"/>
<text text-anchor="start" x="5" y="-1447" font-family="Cascadia Code NF" font-size="10.00">v8::internal::compiler</text>
<text text-anchor="start" x="5" y="-1434.25" font-family="Cascadia Code NF" font-size="10.00">::turboshaft::SaturatedUint8</text>
<text text-anchor="start" x="86" y="-1418" font-family="Cascadia Code NF" font-size="10.00"> </text>
<text text-anchor="start" x="20" y="-1402" font-family="Cascadia Code NF" font-size="10.00">+</text>
<text text-anchor="start" x="46" y="-1402" font-family="Cascadia Code NF" font-size="10.00">SaturatedUint8()</text>
<text text-anchor="start" x="20" y="-1386" font-family="Cascadia Code NF" font-size="10.00">+</text>
<text text-anchor="start" x="46" y="-1386" font-family="Cascadia Code NF" font-size="10.00">Incr()</text>
<text text-anchor="start" x="20" y="-1370" font-family="Cascadia Code NF" font-size="10.00">+</text>
<text text-anchor="start" x="46" y="-1370" font-family="Cascadia Code NF" font-size="10.00">Decr()</text>
<text text-anchor="start" x="20" y="-1354" font-family="Cascadia Code NF" font-size="10.00">+</text>
<text text-anchor="start" x="46" y="-1354" font-family="Cascadia Code NF" font-size="10.00">SetToZero()</text>
<text text-anchor="start" x="20" y="-1338" font-family="Cascadia Code NF" font-size="10.00">+</text>
<text text-anchor="start" x="46" y="-1338" font-family="Cascadia Code NF" font-size="10.00">SetToOne()</text>
<text text-anchor="start" x="20" y="-1322" font-family="Cascadia Code NF" font-size="10.00">+</text>
<text text-anchor="start" x="46" y="-1322" font-family="Cascadia Code NF" font-size="10.00">IsZero()</text>
<text text-anchor="start" x="20" y="-1306" font-family="Cascadia Code NF" font-size="10.00">+</text>
<text text-anchor="start" x="46" y="-1306" font-family="Cascadia Code NF" font-size="10.00">IsOne()</text>
<text text-anchor="start" x="20" y="-1290" font-family="Cascadia Code NF" font-size="10.00">+</text>
<text text-anchor="start" x="46" y="-1290" font-family="Cascadia Code NF" font-size="10.00">IsSaturated()</text>
<text text-anchor="start" x="20" y="-1274" font-family="Cascadia Code NF" font-size="10.00">+</text>
<text text-anchor="start" x="46" y="-1274" font-family="Cascadia Code NF" font-size="10.00">Get()</text>
<text text-anchor="start" x="20" y="-1258" font-family="Cascadia Code NF" font-size="10.00">+</text>
<text text-anchor="start" x="46" y="-1258" font-family="Cascadia Code NF" font-size="10.00">operator+=()</text>
<text text-anchor="start" x="20" y="-1242" font-family="Cascadia Code NF" font-size="10.00">+</text>
<text text-anchor="start" x="46" y="-1242" font-family="Cascadia Code NF" font-size="10.00">FromSize()</text>
<polygon fill="#bfbfbf" stroke="#bfbfbf" points="0,-1429.5 0,-1429.5 178,-1429.5 178,-1429.5 0,-1429.5"/>
<polygon fill="#bfbfbf" stroke="#bfbfbf" points="0,-1413.5 0,-1413.5 178,-1413.5 178,-1413.5 0,-1413.5"/>
<polygon fill="none" stroke="#bfbfbf" points="0,-1235.5 0,-1460.5 178,-1460.5 178,-1235.5 0,-1235.5"/>
</a>
</g>
</g>
<!-- Node5&#45;&gt;Node3 -->
<g id="edge4_Node000003_Node000005" class="edge">
<title>Node5&#45;&gt;Node3</title>
<g id="a_edge4_Node000003_Node000005"><a xlink:title=" ">
<path fill="none" stroke="#63b8ff" d="M177.91,-1348C238.83,-1348 319.56,-1348 380.22,-1348"/>
<polygon fill="none" stroke="#63b8ff" points="380.34,-1348 386.34,-1344 392.34,-1348 386.34,-1352 380.34,-1348"/>
</a>
</g>
<text text-anchor="middle" x="259" y="-1351.25" font-family="Cascadia Code NF" font-size="10.00" fill="grey"> +saturated_use_count</text>
</g>
<!-- Node6 -->
<g id="Node000006" class="node">
<title>Node6</title>
<g id="a_Node000006"><a xlink:href="$d0/d59/structv8_1_1internal_1_1compiler_1_1turboshaft_1_1LoadOp_1_1Kind.html" xlink:title=" ">
<polygon fill="white" stroke="none" points="936,-1213.5 770,-1213.5 770,-988.5 936,-988.5 936,-1213.5"/>
<text text-anchor="start" x="775" y="-1200" font-family="Cascadia Code NF" font-size="10.00">v8::internal::compiler</text>
<text text-anchor="start" x="775" y="-1187.25" font-family="Cascadia Code NF" font-size="10.00">::turboshaft::LoadOp::Kind</text>
<text text-anchor="start" x="850" y="-1171" font-family="Cascadia Code NF" font-size="10.00"> </text>
<text text-anchor="start" x="782.5" y="-1155" font-family="Cascadia Code NF" font-size="10.00">+</text>
<text text-anchor="start" x="801" y="-1155" font-family="Cascadia Code NF" font-size="10.00">NotLoadEliminable()</text>
<text text-anchor="start" x="782.5" y="-1139" font-family="Cascadia Code NF" font-size="10.00">+</text>
<text text-anchor="start" x="801" y="-1139" font-family="Cascadia Code NF" font-size="10.00">Immutable()</text>
<text text-anchor="start" x="782.5" y="-1123" font-family="Cascadia Code NF" font-size="10.00">+</text>
<text text-anchor="start" x="801" y="-1123" font-family="Cascadia Code NF" font-size="10.00">Atomic()</text>
<text text-anchor="start" x="782.5" y="-1107" font-family="Cascadia Code NF" font-size="10.00">+</text>
<text text-anchor="start" x="801" y="-1107" font-family="Cascadia Code NF" font-size="10.00">operator==()</text>
<text text-anchor="start" x="782.5" y="-1091" font-family="Cascadia Code NF" font-size="10.00">+</text>
<text text-anchor="start" x="801" y="-1091" font-family="Cascadia Code NF" font-size="10.00">Aligned()</text>
<text text-anchor="start" x="782.5" y="-1075" font-family="Cascadia Code NF" font-size="10.00">+</text>
<text text-anchor="start" x="801" y="-1075" font-family="Cascadia Code NF" font-size="10.00">TaggedBase()</text>
<text text-anchor="start" x="782.5" y="-1059" font-family="Cascadia Code NF" font-size="10.00">+</text>
<text text-anchor="start" x="801" y="-1059" font-family="Cascadia Code NF" font-size="10.00">RawAligned()</text>
<text text-anchor="start" x="782.5" y="-1043" font-family="Cascadia Code NF" font-size="10.00">+</text>
<text text-anchor="start" x="801" y="-1043" font-family="Cascadia Code NF" font-size="10.00">RawUnaligned()</text>
<text text-anchor="start" x="782.5" y="-1027" font-family="Cascadia Code NF" font-size="10.00">+</text>
<text text-anchor="start" x="801" y="-1027" font-family="Cascadia Code NF" font-size="10.00">Protected()</text>
<text text-anchor="start" x="782.5" y="-1011" font-family="Cascadia Code NF" font-size="10.00">+</text>
<text text-anchor="start" x="801" y="-1011" font-family="Cascadia Code NF" font-size="10.00">TrapOnNull()</text>
<text text-anchor="start" x="782.5" y="-995" font-family="Cascadia Code NF" font-size="10.00">+</text>
<text text-anchor="start" x="801" y="-995" font-family="Cascadia Code NF" font-size="10.00">MaybeUnaligned()</text>
<polygon fill="#bfbfbf" stroke="#bfbfbf" points="770,-1182.5 770,-1182.5 936,-1182.5 936,-1182.5 770,-1182.5"/>
<polygon fill="#bfbfbf" stroke="#bfbfbf" points="770,-1166.5 770,-1166.5 936,-1166.5 936,-1166.5 770,-1166.5"/>
<polygon fill="none" stroke="#bfbfbf" points="770,-988.5 770,-1213.5 936,-1213.5 936,-988.5 770,-988.5"/>
</a>
</g>
</g>
<!-- Node6&#45;&gt;Node1 -->
<g id="edge6_Node000001_Node000006" class="edge">
<title>Node6&#45;&gt;Node1</title>
<g id="a_edge6_Node000001_Node000006"><a xlink:title=" ">
<path fill="none" stroke="#63b8ff" d="M935.79,-1015.67C946.29,-1003.63 956.64,-991.2 966,-979 1017.93,-911.33 1069.45,-831.2 1109.56,-765.1"/>
<polygon fill="none" stroke="#63b8ff" points="1109.48,-765.24 1109.16,-758.04 1115.68,-754.97 1116,-762.17 1109.48,-765.24"/>
</a>
</g>
<text text-anchor="middle" x="1041" y="-955.25" font-family="Cascadia Code NF" font-size="10.00" fill="grey"> +kind</text>
</g>
<!-- Node7 -->
<g id="Node000007" class="node">
<title>Node7</title>
<g id="a_Node000007"><a xlink:title=" ">
<polygon fill="white" stroke="none" points="485,-1127 451,-1127 451,-1075 485,-1075 485,-1127"/>
<text text-anchor="start" x="456" y="-1113.5" font-family="Cascadia Code NF" font-size="10.00">bool</text>
<text text-anchor="start" x="465" y="-1097.5" font-family="Cascadia Code NF" font-size="10.00"> </text>
<text text-anchor="start" x="465" y="-1081.5" font-family="Cascadia Code NF" font-size="10.00"> </text>
<polygon fill="#bfbfbf" stroke="#bfbfbf" points="451,-1109 451,-1109 485,-1109 485,-1109 451,-1109"/>
<polygon fill="#bfbfbf" stroke="#bfbfbf" points="451,-1093 451,-1093 485,-1093 485,-1093 451,-1093"/>
<polygon fill="none" stroke="#bfbfbf" points="451,-1075 451,-1127 485,-1127 485,-1075 451,-1075"/>
</a>
</g>
</g>
<!-- Node7&#45;&gt;Node6 -->
<g id="edge7_Node000006_Node000007" class="edge">
<title>Node7&#45;&gt;Node6</title>
<g id="a_edge7_Node000006_Node000007"><a xlink:title=" ">
<path fill="none" stroke="#63b8ff" d="M484.97,-1101C530.67,-1101 664.65,-1101 757.42,-1101"/>
<polygon fill="none" stroke="#63b8ff" points="757.32,-1101 763.32,-1097 769.32,-1101 763.32,-1105 757.32,-1101"/>
</a>
</g>
<text text-anchor="middle" x="668" y="-1180.75" font-family="Cascadia Code NF" font-size="10.00" fill="grey"> +is_atomic</text>
<text text-anchor="middle" x="668" y="-1168" font-family="Cascadia Code NF" font-size="10.00" fill="grey">+is_immutable</text>
<text text-anchor="middle" x="668" y="-1155.25" font-family="Cascadia Code NF" font-size="10.00" fill="grey">+load_eliminable</text>
<text text-anchor="middle" x="668" y="-1142.5" font-family="Cascadia Code NF" font-size="10.00" fill="grey">+maybe_unaligned</text>
<text text-anchor="middle" x="668" y="-1129.75" font-family="Cascadia Code NF" font-size="10.00" fill="grey">+tagged_base</text>
<text text-anchor="middle" x="668" y="-1117" font-family="Cascadia Code NF" font-size="10.00" fill="grey">+trap_on_null</text>
<text text-anchor="middle" x="668" y="-1104.25" font-family="Cascadia Code NF" font-size="10.00" fill="grey">+with_trap_handler</text>
</g>
<!-- Node8 -->
<g id="Node000008" class="node">
<title>Node8</title>
<g id="a_Node000008"><a xlink:href="$df/d13/classv8_1_1internal_1_1compiler_1_1turboshaft_1_1MemoryRepresentation.html" xlink:title=" ">
<polygon fill="white" stroke="none" points="960,-970 746,-970 746,-508 960,-508 960,-970"/>
<text text-anchor="start" x="751" y="-956.5" font-family="Cascadia Code NF" font-size="10.00">v8::internal::compiler</text>
<text text-anchor="start" x="751" y="-943.75" font-family="Cascadia Code NF" font-size="10.00">::turboshaft::MemoryRepresentation</text>
<text text-anchor="start" x="850" y="-927.5" font-family="Cascadia Code NF" font-size="10.00"> </text>
<text text-anchor="start" x="760" y="-911.5" font-family="Cascadia Code NF" font-size="10.00">+</text>
<text text-anchor="start" x="780" y="-911.5" font-family="Cascadia Code NF" font-size="10.00">MemoryRepresentation()</text>
<text text-anchor="start" x="760" y="-895.5" font-family="Cascadia Code NF" font-size="10.00">+</text>
<text text-anchor="start" x="780" y="-895.5" font-family="Cascadia Code NF" font-size="10.00">MemoryRepresentation()</text>
<text text-anchor="start" x="760" y="-879.5" font-family="Cascadia Code NF" font-size="10.00">+</text>
<text text-anchor="start" x="780" y="-879.5" font-family="Cascadia Code NF" font-size="10.00">is_valid()</text>
<text text-anchor="start" x="760" y="-863.5" font-family="Cascadia Code NF" font-size="10.00">+</text>
<text text-anchor="start" x="780" y="-863.5" font-family="Cascadia Code NF" font-size="10.00">value()</text>
<text text-anchor="start" x="760" y="-847.5" font-family="Cascadia Code NF" font-size="10.00">+</text>
<text text-anchor="start" x="780" y="-847.5" font-family="Cascadia Code NF" font-size="10.00">operator Enum()</text>
<text text-anchor="start" x="760" y="-831.5" font-family="Cascadia Code NF" font-size="10.00">+</text>
<text text-anchor="start" x="780" y="-831.5" font-family="Cascadia Code NF" font-size="10.00">IsWord()</text>
<text text-anchor="start" x="760" y="-815.5" font-family="Cascadia Code NF" font-size="10.00">+</text>
<text text-anchor="start" x="780" y="-815.5" font-family="Cascadia Code NF" font-size="10.00">IsSigned()</text>
<text text-anchor="start" x="760" y="-799.5" font-family="Cascadia Code NF" font-size="10.00">+</text>
<text text-anchor="start" x="780" y="-799.5" font-family="Cascadia Code NF" font-size="10.00">IsTagged()</text>
<text text-anchor="start" x="760" y="-783.5" font-family="Cascadia Code NF" font-size="10.00">+</text>
<text text-anchor="start" x="780" y="-783.5" font-family="Cascadia Code NF" font-size="10.00">CanBeTaggedPointer()</text>
<text text-anchor="start" x="760" y="-767.5" font-family="Cascadia Code NF" font-size="10.00">+</text>
<text text-anchor="start" x="780" y="-767.5" font-family="Cascadia Code NF" font-size="10.00">ToRegisterRepresentation()</text>
<text text-anchor="start" x="760" y="-751.5" font-family="Cascadia Code NF" font-size="10.00">+</text>
<text text-anchor="start" x="780" y="-751.5" font-family="Cascadia Code NF" font-size="10.00">ToRegisterRepresentation</text>
<text text-anchor="start" x="780" y="-738.75" font-family="Cascadia Code NF" font-size="10.00">ForStore()</text>
<text text-anchor="start" x="760" y="-722.5" font-family="Cascadia Code NF" font-size="10.00">+</text>
<text text-anchor="start" x="780" y="-722.5" font-family="Cascadia Code NF" font-size="10.00">ToMachineType()</text>
<text text-anchor="start" x="760" y="-706.5" font-family="Cascadia Code NF" font-size="10.00">+</text>
<text text-anchor="start" x="780" y="-706.5" font-family="Cascadia Code NF" font-size="10.00">SizeInBytes()</text>
<text text-anchor="start" x="760" y="-690.5" font-family="Cascadia Code NF" font-size="10.00">+</text>
<text text-anchor="start" x="780" y="-690.5" font-family="Cascadia Code NF" font-size="10.00">SizeInBytesLog2()</text>
<text text-anchor="start" x="760" y="-674.5" font-family="Cascadia Code NF" font-size="10.00">+</text>
<text text-anchor="start" x="780" y="-674.5" font-family="Cascadia Code NF" font-size="10.00">Int8()</text>
<text text-anchor="start" x="760" y="-658.5" font-family="Cascadia Code NF" font-size="10.00">+</text>
<text text-anchor="start" x="780" y="-658.5" font-family="Cascadia Code NF" font-size="10.00">Uint8()</text>
<text text-anchor="start" x="760" y="-642.5" font-family="Cascadia Code NF" font-size="10.00">+</text>
<text text-anchor="start" x="780" y="-642.5" font-family="Cascadia Code NF" font-size="10.00">Int16()</text>
<text text-anchor="start" x="760" y="-626.5" font-family="Cascadia Code NF" font-size="10.00">+</text>
<text text-anchor="start" x="780" y="-626.5" font-family="Cascadia Code NF" font-size="10.00">Uint16()</text>
<text text-anchor="start" x="760" y="-610.5" font-family="Cascadia Code NF" font-size="10.00">+</text>
<text text-anchor="start" x="780" y="-610.5" font-family="Cascadia Code NF" font-size="10.00">Int32()</text>
<text text-anchor="start" x="760" y="-594.5" font-family="Cascadia Code NF" font-size="10.00">+</text>
<text text-anchor="start" x="780" y="-594.5" font-family="Cascadia Code NF" font-size="10.00">Uint32()</text>
<text text-anchor="start" x="760" y="-578.5" font-family="Cascadia Code NF" font-size="10.00">+</text>
<text text-anchor="start" x="780" y="-578.5" font-family="Cascadia Code NF" font-size="10.00">Int64()</text>
<text text-anchor="start" x="760" y="-562.5" font-family="Cascadia Code NF" font-size="10.00">+</text>
<text text-anchor="start" x="780" y="-562.5" font-family="Cascadia Code NF" font-size="10.00">Uint64()</text>
<text text-anchor="start" x="760" y="-546.5" font-family="Cascadia Code NF" font-size="10.00">+</text>
<text text-anchor="start" x="780" y="-546.5" font-family="Cascadia Code NF" font-size="10.00">UintPtr()</text>
<text text-anchor="start" x="760" y="-530.5" font-family="Cascadia Code NF" font-size="10.00">+</text>
<text text-anchor="start" x="780" y="-530.5" font-family="Cascadia Code NF" font-size="10.00">Float32()</text>
<text text-anchor="start" x="780" y="-514.5" font-family="Cascadia Code NF" font-size="10.00">and 12 more...</text>
<polygon fill="#bfbfbf" stroke="#bfbfbf" points="746,-939 746,-939 960,-939 960,-939 746,-939"/>
<polygon fill="#bfbfbf" stroke="#bfbfbf" points="746,-923 746,-923 960,-923 960,-923 746,-923"/>
<polygon fill="none" stroke="#bfbfbf" points="746,-508 746,-970 960,-970 960,-508 746,-508"/>
</a>
</g>
</g>
<!-- Node8&#45;&gt;Node1 -->
<g id="edge8_Node000001_Node000008" class="edge">
<title>Node8&#45;&gt;Node1</title>
<g id="a_edge8_Node000001_Node000008"><a xlink:title=" ">
<path fill="none" stroke="#63b8ff" d="M959.96,-705.17C1006.52,-690.3 1060.37,-673.11 1103.82,-659.24"/>
<polygon fill="none" stroke="#63b8ff" points="1103.79,-659.25 1108.29,-653.61 1115.22,-655.6 1110.72,-661.23 1103.79,-659.25"/>
</a>
</g>
<text text-anchor="middle" x="1041" y="-698.25" font-family="Cascadia Code NF" font-size="10.00" fill="grey"> +loaded_rep</text>
</g>
<!-- Node9 -->
<g id="Node000009" class="node">
<title>Node9</title>
<g id="a_Node000009"><a xlink:href="$dc/db6/classv8_1_1internal_1_1compiler_1_1turboshaft_1_1RegisterRepresentation.html" xlink:title=" ">
<polygon fill="white" stroke="none" points="966,-490 740,-490 740,-140 966,-140 966,-490"/>
<text text-anchor="start" x="745" y="-476.5" font-family="Cascadia Code NF" font-size="10.00">v8::internal::compiler</text>
<text text-anchor="start" x="745" y="-463.75" font-family="Cascadia Code NF" font-size="10.00">::turboshaft::RegisterRepresentation</text>
<text text-anchor="start" x="850" y="-447.5" font-family="Cascadia Code NF" font-size="10.00"> </text>
<text text-anchor="start" x="755.5" y="-431.5" font-family="Cascadia Code NF" font-size="10.00">+</text>
<text text-anchor="start" x="777" y="-431.5" font-family="Cascadia Code NF" font-size="10.00">RegisterRepresentation()</text>
<text text-anchor="start" x="755.5" y="-415.5" font-family="Cascadia Code NF" font-size="10.00">+</text>
<text text-anchor="start" x="777" y="-415.5" font-family="Cascadia Code NF" font-size="10.00">RegisterRepresentation()</text>
<text text-anchor="start" x="755.5" y="-399.5" font-family="Cascadia Code NF" font-size="10.00">+</text>
<text text-anchor="start" x="777" y="-399.5" font-family="Cascadia Code NF" font-size="10.00">RegisterRepresentation()</text>
<text text-anchor="start" x="755.5" y="-383.5" font-family="Cascadia Code NF" font-size="10.00">+</text>
<text text-anchor="start" x="777" y="-383.5" font-family="Cascadia Code NF" font-size="10.00">operator Enum()</text>
<text text-anchor="start" x="755.5" y="-367.5" font-family="Cascadia Code NF" font-size="10.00">+</text>
<text text-anchor="start" x="777" y="-367.5" font-family="Cascadia Code NF" font-size="10.00">value()</text>
<text text-anchor="start" x="755.5" y="-351.5" font-family="Cascadia Code NF" font-size="10.00">+</text>
<text text-anchor="start" x="777" y="-351.5" font-family="Cascadia Code NF" font-size="10.00">AllowImplicitRepresentation</text>
<text text-anchor="start" x="777" y="-338.75" font-family="Cascadia Code NF" font-size="10.00">ChangeTo()</text>
<text text-anchor="start" x="755.5" y="-322.5" font-family="Cascadia Code NF" font-size="10.00">+</text>
<text text-anchor="start" x="777" y="-322.5" font-family="Cascadia Code NF" font-size="10.00">MapTaggedToWord()</text>
<text text-anchor="start" x="755.5" y="-306.5" font-family="Cascadia Code NF" font-size="10.00">+</text>
<text text-anchor="start" x="777" y="-306.5" font-family="Cascadia Code NF" font-size="10.00">Word32()</text>
<text text-anchor="start" x="755.5" y="-290.5" font-family="Cascadia Code NF" font-size="10.00">+</text>
<text text-anchor="start" x="777" y="-290.5" font-family="Cascadia Code NF" font-size="10.00">Word64()</text>
<text text-anchor="start" x="755.5" y="-274.5" font-family="Cascadia Code NF" font-size="10.00">+</text>
<text text-anchor="start" x="777" y="-274.5" font-family="Cascadia Code NF" font-size="10.00">WordPtr()</text>
<text text-anchor="start" x="755.5" y="-258.5" font-family="Cascadia Code NF" font-size="10.00">+</text>
<text text-anchor="start" x="777" y="-258.5" font-family="Cascadia Code NF" font-size="10.00">Float32()</text>
<text text-anchor="start" x="755.5" y="-242.5" font-family="Cascadia Code NF" font-size="10.00">+</text>
<text text-anchor="start" x="777" y="-242.5" font-family="Cascadia Code NF" font-size="10.00">Float64()</text>
<text text-anchor="start" x="755.5" y="-226.5" font-family="Cascadia Code NF" font-size="10.00">+</text>
<text text-anchor="start" x="777" y="-226.5" font-family="Cascadia Code NF" font-size="10.00">Tagged()</text>
<text text-anchor="start" x="755.5" y="-210.5" font-family="Cascadia Code NF" font-size="10.00">+</text>
<text text-anchor="start" x="777" y="-210.5" font-family="Cascadia Code NF" font-size="10.00">Compressed()</text>
<text text-anchor="start" x="755.5" y="-194.5" font-family="Cascadia Code NF" font-size="10.00">+</text>
<text text-anchor="start" x="777" y="-194.5" font-family="Cascadia Code NF" font-size="10.00">Simd128()</text>
<text text-anchor="start" x="755.5" y="-178.5" font-family="Cascadia Code NF" font-size="10.00">+</text>
<text text-anchor="start" x="777" y="-178.5" font-family="Cascadia Code NF" font-size="10.00">Simd256()</text>
<text text-anchor="start" x="755.5" y="-162.5" font-family="Cascadia Code NF" font-size="10.00">+</text>
<text text-anchor="start" x="777" y="-162.5" font-family="Cascadia Code NF" font-size="10.00">FromMachineRepresentation()</text>
<text text-anchor="start" x="755.5" y="-146.5" font-family="Cascadia Code NF" font-size="10.00">+</text>
<text text-anchor="start" x="777" y="-146.5" font-family="Cascadia Code NF" font-size="10.00">FromMachineType()</text>
<polygon fill="#bfbfbf" stroke="#bfbfbf" points="740,-459 740,-459 966,-459 966,-459 740,-459"/>
<polygon fill="#bfbfbf" stroke="#bfbfbf" points="740,-443 740,-443 966,-443 966,-443 740,-443"/>
<polygon fill="none" stroke="#bfbfbf" points="740,-140 740,-490 966,-490 966,-140 740,-140"/>
</a>
</g>
</g>
<!-- Node9&#45;&gt;Node1 -->
<g id="edge9_Node000001_Node000009" class="edge">
<title>Node9&#45;&gt;Node1</title>
<g id="a_edge9_Node000001_Node000009"><a xlink:title=" ">
<path fill="none" stroke="#63b8ff" d="M965.94,-422.22C1012.14,-466.47 1064.62,-516.73 1106.73,-557.08"/>
<polygon fill="none" stroke="#63b8ff" points="1106.79,-557.13 1113.89,-558.39 1115.45,-565.43 1108.35,-564.17 1106.79,-557.13"/>
</a>
</g>
<text text-anchor="middle" x="1041" y="-550.25" font-family="Cascadia Code NF" font-size="10.00" fill="grey"> +result_rep</text>
</g>
<!-- Node10 -->
<g id="Node000010" class="node">
<title>Node10</title>
<g id="a_Node000010"><a xlink:href="$dc/d22/classv8_1_1internal_1_1compiler_1_1turboshaft_1_1MaybeRegisterRepresentation.html" xlink:title=" ">
<polygon fill="white" stroke="none" points="596,-507.5 340,-507.5 340,-122.5 596,-122.5 596,-507.5"/>
<text text-anchor="start" x="345" y="-494" font-family="Cascadia Code NF" font-size="10.00">v8::internal::compiler</text>
<text text-anchor="start" x="345" y="-481.25" font-family="Cascadia Code NF" font-size="10.00">::turboshaft::MaybeRegisterRepresentation</text>
<text text-anchor="start" x="465" y="-465" font-family="Cascadia Code NF" font-size="10.00"> </text>
<text text-anchor="start" x="360" y="-449" font-family="Cascadia Code NF" font-size="10.00">+</text>
<text text-anchor="start" x="386" y="-449" font-family="Cascadia Code NF" font-size="10.00">MaybeRegisterRepresentation()</text>
<text text-anchor="start" x="360" y="-433" font-family="Cascadia Code NF" font-size="10.00">+</text>
<text text-anchor="start" x="386" y="-433" font-family="Cascadia Code NF" font-size="10.00">MaybeRegisterRepresentation()</text>
<text text-anchor="start" x="360" y="-417" font-family="Cascadia Code NF" font-size="10.00">+</text>
<text text-anchor="start" x="386" y="-417" font-family="Cascadia Code NF" font-size="10.00">is_valid()</text>
<text text-anchor="start" x="360" y="-401" font-family="Cascadia Code NF" font-size="10.00">+</text>
<text text-anchor="start" x="386" y="-401" font-family="Cascadia Code NF" font-size="10.00">value()</text>
<text text-anchor="start" x="360" y="-385" font-family="Cascadia Code NF" font-size="10.00">+</text>
<text text-anchor="start" x="386" y="-385" font-family="Cascadia Code NF" font-size="10.00">operator Enum()</text>
<text text-anchor="start" x="360" y="-369" font-family="Cascadia Code NF" font-size="10.00">+</text>
<text text-anchor="start" x="386" y="-369" font-family="Cascadia Code NF" font-size="10.00">IsWord()</text>
<text text-anchor="start" x="360" y="-353" font-family="Cascadia Code NF" font-size="10.00">+</text>
<text text-anchor="start" x="386" y="-353" font-family="Cascadia Code NF" font-size="10.00">IsFloat()</text>
<text text-anchor="start" x="360" y="-337" font-family="Cascadia Code NF" font-size="10.00">+</text>
<text text-anchor="start" x="386" y="-337" font-family="Cascadia Code NF" font-size="10.00">IsTaggedOrCompressed()</text>
<text text-anchor="start" x="360" y="-321" font-family="Cascadia Code NF" font-size="10.00">+</text>
<text text-anchor="start" x="386" y="-321" font-family="Cascadia Code NF" font-size="10.00">MaxUnsignedValue()</text>
<text text-anchor="start" x="360" y="-305" font-family="Cascadia Code NF" font-size="10.00">+</text>
<text text-anchor="start" x="386" y="-305" font-family="Cascadia Code NF" font-size="10.00">machine_representation()</text>
<text text-anchor="start" x="360" y="-289" font-family="Cascadia Code NF" font-size="10.00">+</text>
<text text-anchor="start" x="386" y="-289" font-family="Cascadia Code NF" font-size="10.00">bit_width()</text>
<text text-anchor="start" x="360" y="-273" font-family="Cascadia Code NF" font-size="10.00">+</text>
<text text-anchor="start" x="386" y="-273" font-family="Cascadia Code NF" font-size="10.00">Word32()</text>
<text text-anchor="start" x="360" y="-257" font-family="Cascadia Code NF" font-size="10.00">+</text>
<text text-anchor="start" x="386" y="-257" font-family="Cascadia Code NF" font-size="10.00">Word64()</text>
<text text-anchor="start" x="360" y="-241" font-family="Cascadia Code NF" font-size="10.00">+</text>
<text text-anchor="start" x="386" y="-241" font-family="Cascadia Code NF" font-size="10.00">WordPtr()</text>
<text text-anchor="start" x="360" y="-225" font-family="Cascadia Code NF" font-size="10.00">+</text>
<text text-anchor="start" x="386" y="-225" font-family="Cascadia Code NF" font-size="10.00">Float32()</text>
<text text-anchor="start" x="360" y="-209" font-family="Cascadia Code NF" font-size="10.00">+</text>
<text text-anchor="start" x="386" y="-209" font-family="Cascadia Code NF" font-size="10.00">Float64()</text>
<text text-anchor="start" x="360" y="-193" font-family="Cascadia Code NF" font-size="10.00">+</text>
<text text-anchor="start" x="386" y="-193" font-family="Cascadia Code NF" font-size="10.00">Tagged()</text>
<text text-anchor="start" x="360" y="-177" font-family="Cascadia Code NF" font-size="10.00">+</text>
<text text-anchor="start" x="386" y="-177" font-family="Cascadia Code NF" font-size="10.00">Compressed()</text>
<text text-anchor="start" x="360" y="-161" font-family="Cascadia Code NF" font-size="10.00">+</text>
<text text-anchor="start" x="386" y="-161" font-family="Cascadia Code NF" font-size="10.00">Simd128()</text>
<text text-anchor="start" x="360" y="-145" font-family="Cascadia Code NF" font-size="10.00">+</text>
<text text-anchor="start" x="386" y="-145" font-family="Cascadia Code NF" font-size="10.00">Simd256()</text>
<text text-anchor="start" x="360" y="-129" font-family="Cascadia Code NF" font-size="10.00">+</text>
<text text-anchor="start" x="386" y="-129" font-family="Cascadia Code NF" font-size="10.00">None()</text>
<polygon fill="#bfbfbf" stroke="#bfbfbf" points="340,-476.5 340,-476.5 596,-476.5 596,-476.5 340,-476.5"/>
<polygon fill="#bfbfbf" stroke="#bfbfbf" points="340,-460.5 340,-460.5 596,-460.5 596,-460.5 340,-460.5"/>
<polygon fill="none" stroke="#bfbfbf" points="340,-122.5 340,-507.5 596,-507.5 596,-122.5 340,-122.5"/>
</a>
</g>
</g>
<!-- Node10&#45;&gt;Node9 -->
<g id="edge10_Node000009_Node000010" class="edge">
<title>Node10&#45;&gt;Node9</title>
<g id="a_edge10_Node000009_Node000010"><a xlink:title=" ">
<path fill="none" stroke="#63b8ff" d="M607.07,-315C650.83,-315 698.64,-315 740.31,-315"/>
<polygon fill="none" stroke="#63b8ff" points="607.25,-311.5 597.25,-315 607.25,-318.5 607.25,-311.5"/>
</a>
</g>
</g>
<!-- Node11 -->
<g id="Node000011" class="node">
<title>Node11</title>
<g id="a_Node000011"><a xlink:title=" ">
<polygon fill="white" stroke="none" points="879,-122 827,-122 827,-70 879,-70 879,-122"/>
<text text-anchor="start" x="832" y="-108.5" font-family="Cascadia Code NF" font-size="10.00">uint8_t</text>
<text text-anchor="start" x="850" y="-92.5" font-family="Cascadia Code NF" font-size="10.00"> </text>
<text text-anchor="start" x="850" y="-76.5" font-family="Cascadia Code NF" font-size="10.00"> </text>
<polygon fill="#bfbfbf" stroke="#bfbfbf" points="827,-104 827,-104 879,-104 879,-104 827,-104"/>
<polygon fill="#bfbfbf" stroke="#bfbfbf" points="827,-88 827,-88 879,-88 879,-88 827,-88"/>
<polygon fill="none" stroke="#bfbfbf" points="827,-70 827,-122 879,-122 879,-70 827,-70"/>
</a>
</g>
</g>
<!-- Node11&#45;&gt;Node1 -->
<g id="edge11_Node000001_Node000011" class="edge">
<title>Node11&#45;&gt;Node1</title>
<g id="a_edge11_Node000001_Node000011"><a xlink:title=" ">
<path fill="none" stroke="#63b8ff" d="M878.71,-97.87C903.53,-100.96 941.51,-109.18 966,-131 1069.22,-222.99 1126.15,-372.27 1156.07,-484.18"/>
<polygon fill="none" stroke="#63b8ff" points="1156.06,-484.13 1161.45,-488.92 1159.1,-495.73 1153.71,-490.94 1156.06,-484.13"/>
</a>
</g>
<text text-anchor="middle" x="1041" y="-314.25" font-family="Cascadia Code NF" font-size="10.00" fill="grey"> +element_size_log2</text>
</g>
<!-- Node12 -->
<g id="Node000012" class="node">
<title>Node12</title>
<g id="a_Node000012"><a xlink:title=" ">
<polygon fill="white" stroke="none" points="879,-52 827,-52 827,0 879,0 879,-52"/>
<text text-anchor="start" x="832" y="-38.5" font-family="Cascadia Code NF" font-size="10.00">int32_t</text>
<text text-anchor="start" x="850" y="-22.5" font-family="Cascadia Code NF" font-size="10.00"> </text>
<text text-anchor="start" x="850" y="-6.5" font-family="Cascadia Code NF" font-size="10.00"> </text>
<polygon fill="#bfbfbf" stroke="#bfbfbf" points="827,-34 827,-34 879,-34 879,-34 827,-34"/>
<polygon fill="#bfbfbf" stroke="#bfbfbf" points="827,-18 827,-18 879,-18 879,-18 827,-18"/>
<polygon fill="none" stroke="#bfbfbf" points="827,0 827,-52 879,-52 879,0 827,0"/>
</a>
</g>
</g>
<!-- Node12&#45;&gt;Node1 -->
<g id="edge12_Node000001_Node000012" class="edge">
<title>Node12&#45;&gt;Node1</title>
<g id="a_edge12_Node000001_Node000012"><a xlink:title=" ">
<path fill="none" stroke="#63b8ff" d="M878.87,-28.9C929.72,-36.3 1045.25,-60.85 1098,-135.25 1136.95,-190.19 1160.82,-358.16 1173.7,-483.89"/>
<polygon fill="none" stroke="#63b8ff" points="1173.7,-483.85 1178.28,-489.42 1174.9,-495.79 1170.32,-490.22 1173.7,-483.85"/>
</a>
</g>
<text text-anchor="middle" x="1041" y="-139.25" font-family="Cascadia Code NF" font-size="10.00" fill="grey"> +offset</text>
</g>
</g>
</svg>
