<?xml version="1.0" encoding="UTF-8" standalone="no"?>
<!DOCTYPE svg PUBLIC "-//W3C//DTD SVG 1.1//EN"
 "http://www.w3.org/Graphics/SVG/1.1/DTD/svg11.dtd">
<!-- Generated by graphviz version 11.0.0 (20240428.1522)
 -->
<!-- Title: TurbofanHeapConstantType Pages: 1 -->
<svg width="1249pt" height="296pt"
 viewBox="0.00 0.00 1249.00 296.00" xmlns="http://www.w3.org/2000/svg" xmlns:xlink="http://www.w3.org/1999/xlink">
<g id="graph0" class="graph" transform="scale(1 1) rotate(0) translate(4 292)">
<title>TurbofanHeapConstantType</title>
<!-- Node1 -->
<g id="Node000001" class="node">
<title>Node1</title>
<g id="a_Node000001"><a xlink:title=" ">
<polygon fill="#999999" stroke="none" points="1241,-156.5 1087,-156.5 1087,-104.5 1241,-104.5 1241,-156.5"/>
<text text-anchor="start" x="1092" y="-143" font-family="Cascadia Code NF" font-size="10.00">TurbofanHeapConstantType</text>
<text text-anchor="start" x="1161" y="-127" font-family="Cascadia Code NF" font-size="10.00"> </text>
<text text-anchor="start" x="1161" y="-111" font-family="Cascadia Code NF" font-size="10.00"> </text>
<polygon fill="#666666" stroke="#666666" points="1087,-138.5 1087,-138.5 1241,-138.5 1241,-138.5 1087,-138.5"/>
<polygon fill="#666666" stroke="#666666" points="1087,-122.5 1087,-122.5 1241,-122.5 1241,-122.5 1087,-122.5"/>
<polygon fill="none" stroke="#666666" points="1087,-104.5 1087,-156.5 1241,-156.5 1241,-104.5 1087,-104.5"/>
</a>
</g>
</g>
<!-- Node2 -->
<g id="Node000002" class="node">
<title>Node2</title>
<g id="a_Node000002"><a xlink:href="../../d8/d9b/classTorqueGeneratedTurbofanHeapConstantType.html" target="_top" xlink:title=" ">
<polygon fill="white" stroke="none" points="1051,-261 837,-261 837,0 1051,0 1051,-261"/>
<text text-anchor="start" x="842" y="-247.5" font-family="Cascadia Code NF" font-size="10.00">TorqueGeneratedTurbofanHeap</text>
<text text-anchor="start" x="842" y="-234.75" font-family="Cascadia Code NF" font-size="10.00">ConstantType&lt; TurbofanHeapConstant</text>
<text text-anchor="start" x="884" y="-222" font-family="Cascadia Code NF" font-size="10.00">Type, TurbofanType &gt;</text>
<text text-anchor="start" x="941" y="-205.5" font-family="Cascadia Code NF" font-size="10.00"> </text>
<text text-anchor="start" x="849.5" y="-189.5" font-family="Cascadia Code NF" font-size="10.00">+</text>
<text text-anchor="start" x="868" y="-189.5" font-family="Cascadia Code NF" font-size="10.00">constant()</text>
<text text-anchor="start" x="849.5" y="-173.5" font-family="Cascadia Code NF" font-size="10.00">+</text>
<text text-anchor="start" x="868" y="-173.5" font-family="Cascadia Code NF" font-size="10.00">constant()</text>
<text text-anchor="start" x="849.5" y="-157.5" font-family="Cascadia Code NF" font-size="10.00">+</text>
<text text-anchor="start" x="868" y="-157.5" font-family="Cascadia Code NF" font-size="10.00">set_constant()</text>
<text text-anchor="start" x="849.5" y="-141.5" font-family="Cascadia Code NF" font-size="10.00">+</text>
<text text-anchor="start" x="868" y="-141.5" font-family="Cascadia Code NF" font-size="10.00">AllocatedSize()</text>
<text text-anchor="start" x="849.5" y="-125.5" font-family="Cascadia Code NF" font-size="10.00">+</text>
<text text-anchor="start" x="868" y="-125.5" font-family="Cascadia Code NF" font-size="10.00">TorqueGeneratedTurbofanHeap</text>
<text text-anchor="start" x="868" y="-112.75" font-family="Cascadia Code NF" font-size="10.00">ConstantType()</text>
<text text-anchor="start" x="849.5" y="-96.5" font-family="Cascadia Code NF" font-size="10.00">+</text>
<text text-anchor="start" x="868" y="-96.5" font-family="Cascadia Code NF" font-size="10.00">cast()</text>
<text text-anchor="start" x="849.5" y="-80.5" font-family="Cascadia Code NF" font-size="10.00">+</text>
<text text-anchor="start" x="868" y="-80.5" font-family="Cascadia Code NF" font-size="10.00">unchecked_cast()</text>
<text text-anchor="start" x="849.5" y="-64.5" font-family="Cascadia Code NF" font-size="10.00">+</text>
<text text-anchor="start" x="868" y="-64.5" font-family="Cascadia Code NF" font-size="10.00">SizeFor()</text>
<text text-anchor="start" x="849.5" y="-48.5" font-family="Cascadia Code NF" font-size="10.00">#</text>
<text text-anchor="start" x="868" y="-48.5" font-family="Cascadia Code NF" font-size="10.00">TorqueGeneratedTurbofanHeap</text>
<text text-anchor="start" x="868" y="-35.75" font-family="Cascadia Code NF" font-size="10.00">ConstantType()</text>
<text text-anchor="start" x="849.5" y="-19.5" font-family="Cascadia Code NF" font-size="10.00">#</text>
<text text-anchor="start" x="868" y="-19.5" font-family="Cascadia Code NF" font-size="10.00">TorqueGeneratedTurbofanHeap</text>
<text text-anchor="start" x="868" y="-6.75" font-family="Cascadia Code NF" font-size="10.00">ConstantType()</text>
<polygon fill="#bfbfbf" stroke="#bfbfbf" points="837,-217 837,-217 1051,-217 1051,-217 837,-217"/>
<polygon fill="#bfbfbf" stroke="#bfbfbf" points="837,-201 837,-201 1051,-201 1051,-201 837,-201"/>
<polygon fill="none" stroke="#bfbfbf" points="837,0 837,-261 1051,-261 1051,0 837,0"/>
</a>
</g>
</g>
<!-- Node2&#45;&gt;Node1 -->
<g id="edge1_Node000001_Node000002" class="edge">
<title>Node2&#45;&gt;Node1</title>
<g id="a_edge1_Node000001_Node000002"><a xlink:title=" ">
<path fill="none" stroke="#63b8ff" d="M1062.3,-130.5C1070.71,-130.5 1079.05,-130.5 1087.12,-130.5"/>
<polygon fill="none" stroke="#63b8ff" points="1062.32,-127 1052.32,-130.5 1062.32,-134 1062.32,-127"/>
</a>
</g>
</g>
<!-- Node3 -->
<g id="Node000003" class="node">
<title>Node3</title>
<g id="a_Node000003"><a xlink:href="../../d3/dd5/classTurbofanType.html" target="_top" xlink:title=" ">
<polygon fill="white" stroke="none" points="800,-215.5 718,-215.5 718,-163.5 800,-163.5 800,-215.5"/>
<text text-anchor="start" x="723" y="-202" font-family="Cascadia Code NF" font-size="10.00">TurbofanType</text>
<text text-anchor="start" x="756" y="-186" font-family="Cascadia Code NF" font-size="10.00"> </text>
<text text-anchor="start" x="756" y="-170" font-family="Cascadia Code NF" font-size="10.00"> </text>
<polygon fill="#bfbfbf" stroke="#bfbfbf" points="718,-197.5 718,-197.5 800,-197.5 800,-197.5 718,-197.5"/>
<polygon fill="#bfbfbf" stroke="#bfbfbf" points="718,-181.5 718,-181.5 800,-181.5 800,-181.5 718,-181.5"/>
<polygon fill="none" stroke="#bfbfbf" points="718,-163.5 718,-215.5 800,-215.5 800,-163.5 718,-163.5"/>
</a>
</g>
</g>
<!-- Node3&#45;&gt;Node2 -->
<g id="edge2_Node000002_Node000003" class="edge">
<title>Node3&#45;&gt;Node2</title>
<g id="a_edge2_Node000002_Node000003"><a xlink:title=" ">
<path fill="none" stroke="#63b8ff" d="M810.49,-173.22C818.98,-170.48 828.07,-167.55 837.35,-164.56"/>
<polygon fill="none" stroke="#63b8ff" points="809.59,-169.83 801.15,-176.23 811.74,-176.5 809.59,-169.83"/>
</a>
</g>
</g>
<!-- Node4 -->
<g id="Node000004" class="node">
<title>Node4</title>
<g id="a_Node000004"><a xlink:href="../../dd/d5f/classTorqueGeneratedTurbofanType.html" target="_top" xlink:title=" ">
<polygon fill="white" stroke="none" points="520,-288 328,-288 328,-159 520,-159 520,-288"/>
<text text-anchor="start" x="340" y="-274.5" font-family="Cascadia Code NF" font-size="10.00">TorqueGeneratedTurbofanType</text>
<text text-anchor="start" x="340" y="-261.75" font-family="Cascadia Code NF" font-size="10.00">&lt; TurbofanType, HeapObject &gt;</text>
<text text-anchor="start" x="421" y="-245.5" font-family="Cascadia Code NF" font-size="10.00"> </text>
<text text-anchor="start" x="332" y="-229.5" font-family="Cascadia Code NF" font-size="10.00">+</text>
<text text-anchor="start" x="342" y="-229.5" font-family="Cascadia Code NF" font-size="10.00">TorqueGeneratedTurbofanType()</text>
<text text-anchor="start" x="332" y="-213.5" font-family="Cascadia Code NF" font-size="10.00">+</text>
<text text-anchor="start" x="342" y="-213.5" font-family="Cascadia Code NF" font-size="10.00">cast()</text>
<text text-anchor="start" x="332" y="-197.5" font-family="Cascadia Code NF" font-size="10.00">+</text>
<text text-anchor="start" x="342" y="-197.5" font-family="Cascadia Code NF" font-size="10.00">unchecked_cast()</text>
<text text-anchor="start" x="332" y="-181.5" font-family="Cascadia Code NF" font-size="10.00">#</text>
<text text-anchor="start" x="342" y="-181.5" font-family="Cascadia Code NF" font-size="10.00">TorqueGeneratedTurbofanType()</text>
<text text-anchor="start" x="332" y="-165.5" font-family="Cascadia Code NF" font-size="10.00">#</text>
<text text-anchor="start" x="342" y="-165.5" font-family="Cascadia Code NF" font-size="10.00">TorqueGeneratedTurbofanType()</text>
<polygon fill="#bfbfbf" stroke="#bfbfbf" points="328,-257 328,-257 520,-257 520,-257 328,-257"/>
<polygon fill="#bfbfbf" stroke="#bfbfbf" points="328,-241 328,-241 520,-241 520,-241 328,-241"/>
<polygon fill="none" stroke="#bfbfbf" points="328,-159 328,-288 520,-288 520,-159 328,-159"/>
</a>
</g>
</g>
<!-- Node4&#45;&gt;Node3 -->
<g id="edge3_Node000003_Node000004" class="edge">
<title>Node4&#45;&gt;Node3</title>
<g id="a_edge3_Node000003_Node000004"><a xlink:title=" ">
<path fill="none" stroke="#63b8ff" d="M531.36,-219.84C582.56,-217.04 644.71,-212.12 700,-203.5 705.94,-202.57 712.16,-201.35 718.24,-200.01"/>
<polygon fill="none" stroke="#63b8ff" points="531.25,-216.34 521.45,-220.36 531.62,-223.33 531.25,-216.34"/>
</a>
</g>
</g>
<!-- Node5 -->
<g id="Node000005" class="node">
<title>Node5</title>
<g id="a_Node000005"><a xlink:title=" ">
<polygon fill="white" stroke="none" points="100,-249.5 30,-249.5 30,-197.5 100,-197.5 100,-249.5"/>
<text text-anchor="start" x="35" y="-236" font-family="Cascadia Code NF" font-size="10.00">HeapObject</text>
<text text-anchor="start" x="62" y="-220" font-family="Cascadia Code NF" font-size="10.00"> </text>
<text text-anchor="start" x="62" y="-204" font-family="Cascadia Code NF" font-size="10.00"> </text>
<polygon fill="#bfbfbf" stroke="#bfbfbf" points="30,-231.5 30,-231.5 100,-231.5 100,-231.5 30,-231.5"/>
<polygon fill="#bfbfbf" stroke="#bfbfbf" points="30,-215.5 30,-215.5 100,-215.5 100,-215.5 30,-215.5"/>
<polygon fill="none" stroke="#bfbfbf" points="30,-197.5 30,-249.5 100,-249.5 100,-197.5 30,-197.5"/>
</a>
</g>
</g>
<!-- Node5&#45;&gt;Node4 -->
<g id="edge4_Node000004_Node000005" class="edge">
<title>Node5&#45;&gt;Node4</title>
<g id="a_edge4_Node000004_Node000005"><a xlink:title=" ">
<path fill="none" stroke="#63b8ff" d="M111.21,-223.5C165.46,-223.5 257.86,-223.5 328.04,-223.5"/>
<polygon fill="none" stroke="#63b8ff" points="111.42,-220 101.42,-223.5 111.42,-227 111.42,-220"/>
</a>
</g>
</g>
<!-- Node6 -->
<g id="Node000006" class="node">
<title>Node6</title>
<g id="a_Node000006"><a xlink:href="../../d4/d34/classstatic_01constexpr_01int.html" target="_top" xlink:title=" ">
<polygon fill="white" stroke="none" points="130,-145.5 0,-145.5 0,-93.5 130,-93.5 130,-145.5"/>
<text text-anchor="start" x="5" y="-132" font-family="Cascadia Code NF" font-size="10.00">static constexpr int</text>
<text text-anchor="start" x="62" y="-116" font-family="Cascadia Code NF" font-size="10.00"> </text>
<text text-anchor="start" x="62" y="-100" font-family="Cascadia Code NF" font-size="10.00"> </text>
<polygon fill="#bfbfbf" stroke="#bfbfbf" points="0,-127.5 0,-127.5 130,-127.5 130,-127.5 0,-127.5"/>
<polygon fill="#bfbfbf" stroke="#bfbfbf" points="0,-111.5 0,-111.5 130,-111.5 130,-111.5 0,-111.5"/>
<polygon fill="none" stroke="#bfbfbf" points="0,-93.5 0,-145.5 130,-145.5 130,-93.5 0,-93.5"/>
</a>
</g>
</g>
<!-- Node6&#45;&gt;Node2 -->
<g id="edge6_Node000002_Node000006" class="edge">
<title>Node6&#45;&gt;Node2</title>
<g id="a_edge6_Node000002_Node000006"><a xlink:title=" ">
<path fill="none" stroke="#63b8ff" d="M129.96,-112.97C244.42,-102.24 491.77,-83.43 700,-97.5 740.64,-100.25 784.84,-105.55 824.26,-111.11"/>
<polygon fill="none" stroke="#63b8ff" points="824.39,-111.13 830.9,-108.03 836.27,-112.84 829.76,-115.94 824.39,-111.13"/>
</a>
</g>
<text text-anchor="middle" x="619" y="-190" font-family="Cascadia Code NF" font-size="10.00" fill="grey"> +kConstantOffset</text>
<text text-anchor="middle" x="619" y="-177.25" font-family="Cascadia Code NF" font-size="10.00" fill="grey">+kConstantOffsetEnd</text>
<text text-anchor="middle" x="619" y="-164.5" font-family="Cascadia Code NF" font-size="10.00" fill="grey">+kEndOfStrongFieldsOffset</text>
<text text-anchor="middle" x="619" y="-151.75" font-family="Cascadia Code NF" font-size="10.00" fill="grey">+kEndOfWeakFieldsOffset</text>
<text text-anchor="middle" x="619" y="-139" font-family="Cascadia Code NF" font-size="10.00" fill="grey">+kHeaderSize</text>
<text text-anchor="middle" x="619" y="-126.25" font-family="Cascadia Code NF" font-size="10.00" fill="grey">+kSize</text>
<text text-anchor="middle" x="619" y="-113.5" font-family="Cascadia Code NF" font-size="10.00" fill="grey">+kStartOfStrongFieldsOffset</text>
<text text-anchor="middle" x="619" y="-100.75" font-family="Cascadia Code NF" font-size="10.00" fill="grey">+kStartOfWeakFieldsOffset</text>
</g>
<!-- Node6&#45;&gt;Node4 -->
<g id="edge5_Node000004_Node000006" class="edge">
<title>Node6&#45;&gt;Node4</title>
<g id="a_edge5_Node000004_Node000006"><a xlink:title=" ">
<path fill="none" stroke="#63b8ff" d="M129.83,-122.15C180.05,-125.85 251.13,-134.68 310,-155.75 312.07,-156.49 314.15,-157.27 316.23,-158.09"/>
<polygon fill="none" stroke="#63b8ff" points="316.23,-158.1 323.32,-156.76 327.28,-162.79 320.19,-164.12 316.23,-158.1"/>
</a>
</g>
<text text-anchor="middle" x="229" y="-209.75" font-family="Cascadia Code NF" font-size="10.00" fill="grey"> +kEndOfStrongFieldsOffset</text>
<text text-anchor="middle" x="229" y="-197" font-family="Cascadia Code NF" font-size="10.00" fill="grey">+kEndOfWeakFieldsOffset</text>
<text text-anchor="middle" x="229" y="-184.25" font-family="Cascadia Code NF" font-size="10.00" fill="grey">+kHeaderSize</text>
<text text-anchor="middle" x="229" y="-171.5" font-family="Cascadia Code NF" font-size="10.00" fill="grey">+kStartOfStrongFieldsOffset</text>
<text text-anchor="middle" x="229" y="-158.75" font-family="Cascadia Code NF" font-size="10.00" fill="grey">+kStartOfWeakFieldsOffset</text>
</g>
</g>
</svg>
