<?xml version="1.0" encoding="UTF-8" standalone="no"?>
<!DOCTYPE svg PUBLIC "-//W3C//DTD SVG 1.1//EN"
 "http://www.w3.org/Graphics/SVG/1.1/DTD/svg11.dtd">
<!-- Generated by graphviz version 11.0.0 (20240428.1522)
 -->
<!-- Title: v8::internal::compiler::turboshaft::LoadStoreSimplificationReducer&lt; Next &gt; Pages: 1 -->
<svg width="722pt" height="213pt"
 viewBox="0.00 0.00 722.00 213.00" xmlns="http://www.w3.org/2000/svg" xmlns:xlink="http://www.w3.org/1999/xlink">
<g id="graph0" class="graph" transform="scale(1 1) rotate(0) translate(4 209)">
<title>v8::internal::compiler::turboshaft::LoadStoreSimplificationReducer&lt; Next &gt;</title>
<!-- Node1 -->
<g id="Node000001" class="node">
<title>Node1</title>
<g id="a_Node000001"><a xlink:title=" ">
<polygon fill="#999999" stroke="none" points="714,-192 482,-192 482,-82 714,-82 714,-192"/>
<text text-anchor="start" x="487" y="-178.5" font-family="Cascadia Code NF" font-size="10.00">v8::internal::compiler</text>
<text text-anchor="start" x="487" y="-165.75" font-family="Cascadia Code NF" font-size="10.00">::turboshaft::LoadStoreSimplification</text>
<text text-anchor="start" x="553" y="-153" font-family="Cascadia Code NF" font-size="10.00">Reducer&lt; Next &gt;</text>
<text text-anchor="start" x="595" y="-136.5" font-family="Cascadia Code NF" font-size="10.00"> </text>
<text text-anchor="start" x="512.5" y="-120.5" font-family="Cascadia Code NF" font-size="10.00">+</text>
<text text-anchor="start" x="549" y="-120.5" font-family="Cascadia Code NF" font-size="10.00">Load()</text>
<text text-anchor="start" x="512.5" y="-104.5" font-family="Cascadia Code NF" font-size="10.00">+</text>
<text text-anchor="start" x="549" y="-104.5" font-family="Cascadia Code NF" font-size="10.00">Store()</text>
<text text-anchor="start" x="512.5" y="-88.5" font-family="Cascadia Code NF" font-size="10.00">+</text>
<text text-anchor="start" x="549" y="-88.5" font-family="Cascadia Code NF" font-size="10.00">AtomicWord32Pair()</text>
<polygon fill="#666666" stroke="#666666" points="482,-148 482,-148 714,-148 714,-148 482,-148"/>
<polygon fill="#666666" stroke="#666666" points="482,-132 482,-132 714,-132 714,-132 482,-132"/>
<polygon fill="none" stroke="#666666" points="482,-82 482,-192 714,-192 714,-82 482,-82"/>
</a>
</g>
</g>
<!-- Node2 -->
<g id="Node000002" class="node">
<title>Node2</title>
<g id="a_Node000002"><a xlink:title=" ">
<polygon fill="white" stroke="none" points="347,-205 313,-205 313,-153 347,-153 347,-205"/>
<text text-anchor="start" x="318" y="-191.5" font-family="Cascadia Code NF" font-size="10.00">Next</text>
<text text-anchor="start" x="327" y="-175.5" font-family="Cascadia Code NF" font-size="10.00"> </text>
<text text-anchor="start" x="327" y="-159.5" font-family="Cascadia Code NF" font-size="10.00"> </text>
<polygon fill="#bfbfbf" stroke="#bfbfbf" points="313,-187 313,-187 347,-187 347,-187 313,-187"/>
<polygon fill="#bfbfbf" stroke="#bfbfbf" points="313,-171 313,-171 347,-171 347,-171 313,-171"/>
<polygon fill="none" stroke="#bfbfbf" points="313,-153 313,-205 347,-205 347,-153 313,-153"/>
</a>
</g>
</g>
<!-- Node2&#45;&gt;Node1 -->
<g id="edge1_Node000001_Node000002" class="edge">
<title>Node2&#45;&gt;Node1</title>
<g id="a_edge1_Node000001_Node000002"><a xlink:title=" ">
<path fill="none" stroke="#63b8ff" d="M358.19,-174.71C387.58,-170.07 436.41,-162.36 482.28,-155.11"/>
<polygon fill="none" stroke="#63b8ff" points="357.67,-171.25 348.34,-176.26 358.76,-178.16 357.67,-171.25"/>
</a>
</g>
</g>
<!-- Node3 -->
<g id="Node000003" class="node">
<title>Node3</title>
<g id="a_Node000003"><a xlink:href="../../dd/d2a/structv8_1_1internal_1_1compiler_1_1turboshaft_1_1LoadStoreSimplificationConfiguration.html" target="_top" xlink:title=" ">
<polygon fill="white" stroke="none" points="446,-135 214,-135 214,-57 446,-57 446,-135"/>
<text text-anchor="start" x="219" y="-121.5" font-family="Cascadia Code NF" font-size="10.00">v8::internal::compiler</text>
<text text-anchor="start" x="219" y="-108.75" font-family="Cascadia Code NF" font-size="10.00">::turboshaft::LoadStoreSimplification</text>
<text text-anchor="start" x="291" y="-96" font-family="Cascadia Code NF" font-size="10.00">Configuration</text>
<text text-anchor="start" x="327" y="-79.5" font-family="Cascadia Code NF" font-size="10.00"> </text>
<text text-anchor="start" x="327" y="-63.5" font-family="Cascadia Code NF" font-size="10.00"> </text>
<polygon fill="#bfbfbf" stroke="#bfbfbf" points="214,-91 214,-91 446,-91 446,-91 214,-91"/>
<polygon fill="#bfbfbf" stroke="#bfbfbf" points="214,-75 214,-75 446,-75 446,-75 214,-75"/>
<polygon fill="none" stroke="#bfbfbf" points="214,-57 214,-135 446,-135 446,-57 214,-57"/>
</a>
</g>
</g>
<!-- Node3&#45;&gt;Node1 -->
<g id="edge2_Node000001_Node000003" class="edge">
<title>Node3&#45;&gt;Node1</title>
<g id="a_edge2_Node000001_Node000003"><a xlink:title=" ">
<path fill="none" stroke="#8b1a1a" d="M456.84,-115.4C465.31,-116.7 473.81,-118.01 482.22,-119.31"/>
<polygon fill="none" stroke="#8b1a1a" points="457.65,-111.98 447.23,-113.92 456.58,-118.9 457.65,-111.98"/>
</a>
</g>
</g>
<!-- Node4 -->
<g id="Node000004" class="node">
<title>Node4</title>
<g id="a_Node000004"><a xlink:title=" ">
<polygon fill="white" stroke="none" points="43,-192 9,-192 9,-140 43,-140 43,-192"/>
<text text-anchor="start" x="14" y="-178.5" font-family="Cascadia Code NF" font-size="10.00">bool</text>
<text text-anchor="start" x="23" y="-162.5" font-family="Cascadia Code NF" font-size="10.00"> </text>
<text text-anchor="start" x="23" y="-146.5" font-family="Cascadia Code NF" font-size="10.00"> </text>
<polygon fill="#bfbfbf" stroke="#bfbfbf" points="9,-174 9,-174 43,-174 43,-174 9,-174"/>
<polygon fill="#bfbfbf" stroke="#bfbfbf" points="9,-158 9,-158 43,-158 43,-158 9,-158"/>
<polygon fill="none" stroke="#bfbfbf" points="9,-140 9,-192 43,-192 43,-140 9,-140"/>
</a>
</g>
</g>
<!-- Node4&#45;&gt;Node3 -->
<g id="edge3_Node000003_Node000004" class="edge">
<title>Node4&#45;&gt;Node3</title>
<g id="a_edge3_Node000003_Node000004"><a xlink:title=" ">
<path fill="none" stroke="#63b8ff" d="M42.81,-162.34C72.62,-155.43 139.67,-139.88 201.39,-125.58"/>
<polygon fill="none" stroke="#63b8ff" points="201.48,-125.56 206.42,-120.31 213.17,-122.85 208.23,-128.1 201.48,-125.56"/>
</a>
</g>
<text text-anchor="middle" x="133" y="-158.25" font-family="Cascadia Code NF" font-size="10.00" fill="grey"> +kNeedsUntaggedBase</text>
</g>
<!-- Node5 -->
<g id="Node000005" class="node">
<title>Node5</title>
<g id="a_Node000005"><a xlink:title=" ">
<polygon fill="white" stroke="none" points="52,-122 0,-122 0,-70 52,-70 52,-122"/>
<text text-anchor="start" x="5" y="-108.5" font-family="Cascadia Code NF" font-size="10.00">int32_t</text>
<text text-anchor="start" x="23" y="-92.5" font-family="Cascadia Code NF" font-size="10.00"> </text>
<text text-anchor="start" x="23" y="-76.5" font-family="Cascadia Code NF" font-size="10.00"> </text>
<polygon fill="#bfbfbf" stroke="#bfbfbf" points="0,-104 0,-104 52,-104 52,-104 0,-104"/>
<polygon fill="#bfbfbf" stroke="#bfbfbf" points="0,-88 0,-88 52,-88 52,-88 0,-88"/>
<polygon fill="none" stroke="#bfbfbf" points="0,-70 0,-122 52,-122 52,-70 0,-70"/>
</a>
</g>
</g>
<!-- Node5&#45;&gt;Node3 -->
<g id="edge4_Node000003_Node000005" class="edge">
<title>Node5&#45;&gt;Node3</title>
<g id="a_edge4_Node000003_Node000005"><a xlink:title=" ">
<path fill="none" stroke="#63b8ff" d="M51.97,-96C84.88,-96 145.16,-96 201.1,-96"/>
<polygon fill="none" stroke="#63b8ff" points="201.18,-96 207.18,-92 213.18,-96 207.18,-100 201.18,-96"/>
</a>
</g>
<text text-anchor="middle" x="133" y="-112" font-family="Cascadia Code NF" font-size="10.00" fill="grey"> +kMaxOffset</text>
<text text-anchor="middle" x="133" y="-99.25" font-family="Cascadia Code NF" font-size="10.00" fill="grey">+kMinOffset</text>
</g>
<!-- Node6 -->
<g id="Node000006" class="node">
<title>Node6</title>
<g id="a_Node000006"><a xlink:href="../../d1/da0/classint.html" target="_top" xlink:title=" ">
<polygon fill="white" stroke="none" points="40,-52 12,-52 12,0 40,0 40,-52"/>
<text text-anchor="start" x="17" y="-38.5" font-family="Cascadia Code NF" font-size="10.00">int</text>
<text text-anchor="start" x="23" y="-22.5" font-family="Cascadia Code NF" font-size="10.00"> </text>
<text text-anchor="start" x="23" y="-6.5" font-family="Cascadia Code NF" font-size="10.00"> </text>
<polygon fill="#bfbfbf" stroke="#bfbfbf" points="12,-34 12,-34 40,-34 40,-34 12,-34"/>
<polygon fill="#bfbfbf" stroke="#bfbfbf" points="12,-18 12,-18 40,-18 40,-18 12,-18"/>
<polygon fill="none" stroke="#bfbfbf" points="12,0 12,-52 40,-52 40,0 12,0"/>
</a>
</g>
</g>
<!-- Node6&#45;&gt;Node3 -->
<g id="edge5_Node000003_Node000006" class="edge">
<title>Node6&#45;&gt;Node3</title>
<g id="a_edge5_Node000003_Node000006"><a xlink:title=" ">
<path fill="none" stroke="#63b8ff" d="M39.98,-29.01C68.18,-35.55 137.68,-51.66 201.46,-66.44"/>
<polygon fill="none" stroke="#63b8ff" points="201.56,-66.46 208.31,-63.92 213.25,-69.17 206.5,-71.71 201.56,-66.46"/>
</a>
</g>
<text text-anchor="middle" x="133" y="-66.25" font-family="Cascadia Code NF" font-size="10.00" fill="grey"> +kMaxElementSizeLog2</text>
</g>
</g>
</svg>
