<?xml version="1.0" encoding="UTF-8" standalone="no"?>
<!DOCTYPE svg PUBLIC "-//W3C//DTD SVG 1.1//EN"
 "http://www.w3.org/Graphics/SVG/1.1/DTD/svg11.dtd">
<!-- Generated by graphviz version 11.0.0 (20240428.1522)
 -->
<!-- Title: v8::internal::PreParserFormalParameters Pages: 1 -->
<svg width="442pt" height="166pt"
 viewBox="0.00 0.00 442.00 166.00" xmlns="http://www.w3.org/2000/svg" xmlns:xlink="http://www.w3.org/1999/xlink">
<g id="graph0" class="graph" transform="scale(1 1) rotate(0) translate(4 162)">
<title>v8::internal::PreParserFormalParameters</title>
<!-- Node1 -->
<g id="Node000001" class="node">
<title>Node1</title>
<g id="a_Node000001"><a xlink:title=" ">
<polygon fill="#999999" stroke="none" points="434,-158 250,-158 250,0 434,0 434,-158"/>
<text text-anchor="start" x="255" y="-144.5" font-family="Cascadia Code NF" font-size="10.00">v8::internal::PreParserFormal</text>
<text text-anchor="start" x="312" y="-131.75" font-family="Cascadia Code NF" font-size="10.00">Parameters</text>
<text text-anchor="start" x="339" y="-115.5" font-family="Cascadia Code NF" font-size="10.00"> </text>
<text text-anchor="start" x="255" y="-99.5" font-family="Cascadia Code NF" font-size="10.00">+</text>
<text text-anchor="start" x="266" y="-99.5" font-family="Cascadia Code NF" font-size="10.00">PreParserFormalParameters()</text>
<text text-anchor="start" x="255" y="-83.5" font-family="Cascadia Code NF" font-size="10.00">+</text>
<text text-anchor="start" x="266" y="-83.5" font-family="Cascadia Code NF" font-size="10.00">set_has_duplicate()</text>
<text text-anchor="start" x="255" y="-67.5" font-family="Cascadia Code NF" font-size="10.00">+</text>
<text text-anchor="start" x="266" y="-67.5" font-family="Cascadia Code NF" font-size="10.00">has_duplicate()</text>
<text text-anchor="start" x="255" y="-51.5" font-family="Cascadia Code NF" font-size="10.00">+</text>
<text text-anchor="start" x="266" y="-51.5" font-family="Cascadia Code NF" font-size="10.00">ValidateDuplicate()</text>
<text text-anchor="start" x="255" y="-35.5" font-family="Cascadia Code NF" font-size="10.00">+</text>
<text text-anchor="start" x="266" y="-35.5" font-family="Cascadia Code NF" font-size="10.00">set_strict_parameter</text>
<text text-anchor="start" x="266" y="-22.75" font-family="Cascadia Code NF" font-size="10.00">_error()</text>
<text text-anchor="start" x="255" y="-6.5" font-family="Cascadia Code NF" font-size="10.00">+</text>
<text text-anchor="start" x="266" y="-6.5" font-family="Cascadia Code NF" font-size="10.00">ValidateStrictMode()</text>
<polygon fill="#666666" stroke="#666666" points="250,-127 250,-127 434,-127 434,-127 250,-127"/>
<polygon fill="#666666" stroke="#666666" points="250,-111 250,-111 434,-111 434,-111 250,-111"/>
<polygon fill="none" stroke="#666666" points="250,0 250,-158 434,-158 434,0 250,0"/>
</a>
</g>
</g>
<!-- Node2 -->
<g id="Node000002" class="node">
<title>Node2</title>
<g id="a_Node000002"><a xlink:href="$db/d5e/structv8_1_1internal_1_1FormalParametersBase.html" xlink:title=" ">
<polygon fill="white" stroke="none" points="214,-153 0,-153 0,-5 214,-5 214,-153"/>
<text text-anchor="start" x="5" y="-139.5" font-family="Cascadia Code NF" font-size="10.00">v8::internal::FormalParametersBase</text>
<text text-anchor="start" x="8" y="-123.5" font-family="Cascadia Code NF" font-size="10.00">+</text>
<text text-anchor="start" x="22" y="-123.5" font-family="Cascadia Code NF" font-size="10.00">scope</text>
<text text-anchor="start" x="8" y="-107.5" font-family="Cascadia Code NF" font-size="10.00">+</text>
<text text-anchor="start" x="22" y="-107.5" font-family="Cascadia Code NF" font-size="10.00">has_rest</text>
<text text-anchor="start" x="8" y="-91.5" font-family="Cascadia Code NF" font-size="10.00">+</text>
<text text-anchor="start" x="22" y="-91.5" font-family="Cascadia Code NF" font-size="10.00">is_simple</text>
<text text-anchor="start" x="8" y="-75.5" font-family="Cascadia Code NF" font-size="10.00">+</text>
<text text-anchor="start" x="22" y="-75.5" font-family="Cascadia Code NF" font-size="10.00">function_length</text>
<text text-anchor="start" x="8" y="-59.5" font-family="Cascadia Code NF" font-size="10.00">+</text>
<text text-anchor="start" x="22" y="-59.5" font-family="Cascadia Code NF" font-size="10.00">arity</text>
<text text-anchor="start" x="8" y="-43.5" font-family="Cascadia Code NF" font-size="10.00">+</text>
<text text-anchor="start" x="22" y="-43.5" font-family="Cascadia Code NF" font-size="10.00">FormalParametersBase()</text>
<text text-anchor="start" x="8" y="-27.5" font-family="Cascadia Code NF" font-size="10.00">+</text>
<text text-anchor="start" x="22" y="-27.5" font-family="Cascadia Code NF" font-size="10.00">num_parameters()</text>
<text text-anchor="start" x="8" y="-11.5" font-family="Cascadia Code NF" font-size="10.00">+</text>
<text text-anchor="start" x="22" y="-11.5" font-family="Cascadia Code NF" font-size="10.00">UpdateArityAndFunctionLength()</text>
<polygon fill="#bfbfbf" stroke="#bfbfbf" points="0,-135 0,-135 214,-135 214,-135 0,-135"/>
<polygon fill="#bfbfbf" stroke="#bfbfbf" points="0,-55 0,-55 20,-55 20,-55 0,-55"/>
<polygon fill="#bfbfbf" stroke="#bfbfbf" points="20,-55 20,-55 214,-55 214,-55 20,-55"/>
<polygon fill="none" stroke="#bfbfbf" points="0,-5 0,-153 214,-153 214,-5 0,-5"/>
</a>
</g>
</g>
<!-- Node2&#45;&gt;Node1 -->
<g id="edge1_Node000001_Node000002" class="edge">
<title>Node2&#45;&gt;Node1</title>
<g id="a_edge1_Node000001_Node000002"><a xlink:title=" ">
<path fill="none" stroke="#63b8ff" d="M225.34,-79C233.72,-79 242.09,-79 250.29,-79"/>
<polygon fill="none" stroke="#63b8ff" points="225.45,-75.5 215.45,-79 225.45,-82.5 225.45,-75.5"/>
</a>
</g>
</g>
</g>
</svg>
