<?xml version="1.0" encoding="UTF-8" standalone="no"?>
<!DOCTYPE svg PUBLIC "-//W3C//DTD SVG 1.1//EN"
 "http://www.w3.org/Graphics/SVG/1.1/DTD/svg11.dtd">
<!-- Generated by graphviz version 11.0.0 (20240428.1522)
 -->
<!-- Title: v8::internal::ExpressionScope&lt; Types &gt; Pages: 1 -->
<!--zoomable 625 -->

<svg id="main" version="1.1" xmlns="http://www.w3.org/2000/svg" xmlns:xlink="http://www.w3.org/1999/xlink" xml:space="preserve" onload="init(evt)">
<style type="text/css"><![CDATA[
.node, .edge {opacity: 0.7;}
.node.selected, .edge.selected {opacity: 1;}
.edge:hover path { stroke: red; }
.edge:hover polygon { stroke: red; fill: red; }
svg#main { background-color: #111; }
]]></style>

<defs>
  <circle id="rim" cx="0" cy="0" r="7"/>
  <circle id="rim2" cx="0" cy="0" r="3.5"/>
  <g id="zoomPlus">
    <use xlink:href="#rim" fill="#404040"><set attributeName="fill" to="#808080" begin="zoomplus.mouseover" end="zoomplus.mouseout"/></use>
    <path d="M-4,0h8M0,-4v8" fill="none" stroke="white" stroke-width="1.5" pointer-events="none"/>
  </g>
  <g id="zoomMin">
    <use xlink:href="#rim" fill="#404040"><set attributeName="fill" to="#808080" begin="zoomminus.mouseover" end="zoomminus.mouseout"/></use>
    <path d="M-4,0h8" fill="none" stroke="white" stroke-width="1.5" pointer-events="none"/>
  </g>
  <g id="arrowUp" transform="translate(30 24)">
    <use xlink:href="#rim"/>
    <path pointer-events="none" fill="none" stroke="white" stroke-width="1.5" d="M0,-3.0v7 M-2.5,-0.5L0,-3.0L2.5,-0.5"/>
  </g>
  <g id="arrowRight" transform="rotate(90) translate(36 -43)">
    <use xlink:href="#rim"/>
    <path pointer-events="none" fill="none" stroke="white" stroke-width="1.5" d="M0,-3.0v7 M-2.5,-0.5L0,-3.0L2.5,-0.5"/>
  </g>
  <g id="arrowDown" transform="rotate(180) translate(-30 -48)">
    <use xlink:href="#rim"/>
    <path pointer-events="none" fill="none" stroke="white" stroke-width="1.5" d="M0,-3.0v7 M-2.5,-0.5L0,-3.0L2.5,-0.5"/>
  </g>
  <g id="arrowLeft" transform="rotate(270) translate(-36 17)">
    <use xlink:href="#rim"/>
    <path pointer-events="none" fill="none" stroke="white" stroke-width="1.5" d="M0,-3.0v7 M-2.5,-0.5L0,-3.0L2.5,-0.5"/>
  </g>
  <g id="resetDef">
    <use xlink:href="#rim2" fill="#404040"><set attributeName="fill" to="#808080" begin="reset.mouseover" end="reset.mouseout"/></use>
  </g>
</defs>
<script type="application/ecmascript">
var viewWidth = 682;
var viewHeight = 625;
var sectionId = 'dynsection-0';
</script>
<script type="application/ecmascript" xlink:href="../../svg.min.js"/>
<svg id="graph" class="graph">
<g id="viewport">
<title>v8::internal::ExpressionScope&lt; Types &gt;</title>
<!-- Node1 -->
<g id="Node000001" class="node">
<title>Node1</title>
<g id="a_Node000001"><a xlink:title=" ">
<polygon fill="#999999" stroke="none" points="198,-464 0,-464 0,-21 198,-21 198,-464"/>
<text text-anchor="start" x="27" y="-450.5" font-family="Cascadia Code NF" font-size="10.00">v8::internal::Expression</text>
<text text-anchor="start" x="57" y="-437.75" font-family="Cascadia Code NF" font-size="10.00">Scope&lt; Types &gt;</text>
<text text-anchor="start" x="96" y="-421.5" font-family="Cascadia Code NF" font-size="10.00"> </text>
<text text-anchor="start" x="4" y="-405.5" font-family="Cascadia Code NF" font-size="10.00">+</text>
<text text-anchor="start" x="14" y="-405.5" font-family="Cascadia Code NF" font-size="10.00">ExpressionScope()</text>
<text text-anchor="start" x="4" y="-389.5" font-family="Cascadia Code NF" font-size="10.00">+</text>
<text text-anchor="start" x="14" y="-389.5" font-family="Cascadia Code NF" font-size="10.00">operator=()</text>
<text text-anchor="start" x="4" y="-373.5" font-family="Cascadia Code NF" font-size="10.00">+</text>
<text text-anchor="start" x="14" y="-373.5" font-family="Cascadia Code NF" font-size="10.00">NewVariable()</text>
<text text-anchor="start" x="4" y="-357.5" font-family="Cascadia Code NF" font-size="10.00">+</text>
<text text-anchor="start" x="14" y="-357.5" font-family="Cascadia Code NF" font-size="10.00">MergeVariableList()</text>
<text text-anchor="start" x="4" y="-341.5" font-family="Cascadia Code NF" font-size="10.00">+</text>
<text text-anchor="start" x="14" y="-341.5" font-family="Cascadia Code NF" font-size="10.00">Declare()</text>
<text text-anchor="start" x="4" y="-325.5" font-family="Cascadia Code NF" font-size="10.00">+</text>
<text text-anchor="start" x="14" y="-325.5" font-family="Cascadia Code NF" font-size="10.00">MarkIdentifierAsAssigned()</text>
<text text-anchor="start" x="4" y="-309.5" font-family="Cascadia Code NF" font-size="10.00">+</text>
<text text-anchor="start" x="14" y="-309.5" font-family="Cascadia Code NF" font-size="10.00">ValidateAsPattern()</text>
<text text-anchor="start" x="4" y="-293.5" font-family="Cascadia Code NF" font-size="10.00">+</text>
<text text-anchor="start" x="14" y="-293.5" font-family="Cascadia Code NF" font-size="10.00">ValidateAsExpression()</text>
<text text-anchor="start" x="4" y="-277.5" font-family="Cascadia Code NF" font-size="10.00">+</text>
<text text-anchor="start" x="14" y="-277.5" font-family="Cascadia Code NF" font-size="10.00">RecordAsyncArrowParameters</text>
<text text-anchor="start" x="14" y="-264.75" font-family="Cascadia Code NF" font-size="10.00">Error()</text>
<text text-anchor="start" x="4" y="-248.5" font-family="Cascadia Code NF" font-size="10.00">+</text>
<text text-anchor="start" x="14" y="-248.5" font-family="Cascadia Code NF" font-size="10.00">RecordParameterInitializer</text>
<text text-anchor="start" x="14" y="-235.75" font-family="Cascadia Code NF" font-size="10.00">Error()</text>
<text text-anchor="start" x="14" y="-219.5" font-family="Cascadia Code NF" font-size="10.00">and 9 more...</text>
<text text-anchor="start" x="4" y="-203.5" font-family="Cascadia Code NF" font-size="10.00">#</text>
<text text-anchor="start" x="14" y="-203.5" font-family="Cascadia Code NF" font-size="10.00">parser()</text>
<text text-anchor="start" x="4" y="-187.5" font-family="Cascadia Code NF" font-size="10.00">#</text>
<text text-anchor="start" x="14" y="-187.5" font-family="Cascadia Code NF" font-size="10.00">parent()</text>
<text text-anchor="start" x="4" y="-171.5" font-family="Cascadia Code NF" font-size="10.00">#</text>
<text text-anchor="start" x="14" y="-171.5" font-family="Cascadia Code NF" font-size="10.00">Report()</text>
<text text-anchor="start" x="4" y="-155.5" font-family="Cascadia Code NF" font-size="10.00">#</text>
<text text-anchor="start" x="14" y="-155.5" font-family="Cascadia Code NF" font-size="10.00">ExpressionScope()</text>
<text text-anchor="start" x="4" y="-139.5" font-family="Cascadia Code NF" font-size="10.00">#</text>
<text text-anchor="start" x="14" y="-139.5" font-family="Cascadia Code NF" font-size="10.00">~ExpressionScope()</text>
<text text-anchor="start" x="4" y="-123.5" font-family="Cascadia Code NF" font-size="10.00">#</text>
<text text-anchor="start" x="14" y="-123.5" font-family="Cascadia Code NF" font-size="10.00">AsExpressionParsingScope()</text>
<text text-anchor="start" x="4" y="-107.5" font-family="Cascadia Code NF" font-size="10.00">#</text>
<text text-anchor="start" x="14" y="-107.5" font-family="Cascadia Code NF" font-size="10.00">CanBeExpression()</text>
<text text-anchor="start" x="4" y="-91.5" font-family="Cascadia Code NF" font-size="10.00">#</text>
<text text-anchor="start" x="14" y="-91.5" font-family="Cascadia Code NF" font-size="10.00">CanBeDeclaration()</text>
<text text-anchor="start" x="4" y="-75.5" font-family="Cascadia Code NF" font-size="10.00">#</text>
<text text-anchor="start" x="14" y="-75.5" font-family="Cascadia Code NF" font-size="10.00">IsVariableDeclaration()</text>
<text text-anchor="start" x="4" y="-59.5" font-family="Cascadia Code NF" font-size="10.00">#</text>
<text text-anchor="start" x="14" y="-59.5" font-family="Cascadia Code NF" font-size="10.00">IsLexicalDeclaration()</text>
<text text-anchor="start" x="4" y="-43.5" font-family="Cascadia Code NF" font-size="10.00">#</text>
<text text-anchor="start" x="14" y="-43.5" font-family="Cascadia Code NF" font-size="10.00">IsAsyncArrowHeadParsingScope()</text>
<text text-anchor="start" x="4" y="-27.5" font-family="Cascadia Code NF" font-size="10.00">#</text>
<text text-anchor="start" x="14" y="-27.5" font-family="Cascadia Code NF" font-size="10.00">IsVarDeclaration()</text>
<polygon fill="#666666" stroke="#666666" points="0,-433 0,-433 198,-433 198,-433 0,-433"/>
<polygon fill="#666666" stroke="#666666" points="0,-417 0,-417 198,-417 198,-417 0,-417"/>
<polygon fill="none" stroke="#666666" points="0,-21 0,-464 198,-464 198,-21 0,-21"/>
</a>
</g>
</g>
<!-- Node2 -->
<g id="Node000002" class="node">
<title>Node2</title>
<g id="a_Node000002"><a xlink:href="../../da/df6/classv8_1_1internal_1_1ExpressionParsingScope.html" target="_top" xlink:title=" ">
<polygon fill="white" stroke="none" points="437,-616.5 245,-616.5 245,-346.5 437,-346.5 437,-616.5"/>
<text text-anchor="start" x="269" y="-603" font-family="Cascadia Code NF" font-size="10.00">v8::internal::Expression</text>
<text text-anchor="start" x="278" y="-590.25" font-family="Cascadia Code NF" font-size="10.00">ParsingScope&lt; Types &gt;</text>
<text text-anchor="start" x="338" y="-574" font-family="Cascadia Code NF" font-size="10.00"> </text>
<text text-anchor="start" x="249" y="-558" font-family="Cascadia Code NF" font-size="10.00">+</text>
<text text-anchor="start" x="259" y="-558" font-family="Cascadia Code NF" font-size="10.00">ExpressionParsingScope()</text>
<text text-anchor="start" x="249" y="-542" font-family="Cascadia Code NF" font-size="10.00">+</text>
<text text-anchor="start" x="259" y="-542" font-family="Cascadia Code NF" font-size="10.00">ExpressionParsingScope()</text>
<text text-anchor="start" x="249" y="-526" font-family="Cascadia Code NF" font-size="10.00">+</text>
<text text-anchor="start" x="259" y="-526" font-family="Cascadia Code NF" font-size="10.00">operator=()</text>
<text text-anchor="start" x="249" y="-510" font-family="Cascadia Code NF" font-size="10.00">+</text>
<text text-anchor="start" x="259" y="-510" font-family="Cascadia Code NF" font-size="10.00">RecordAsyncArrowParameters</text>
<text text-anchor="start" x="259" y="-497.25" font-family="Cascadia Code NF" font-size="10.00">Error()</text>
<text text-anchor="start" x="249" y="-481" font-family="Cascadia Code NF" font-size="10.00">+</text>
<text text-anchor="start" x="259" y="-481" font-family="Cascadia Code NF" font-size="10.00">~ExpressionParsingScope()</text>
<text text-anchor="start" x="249" y="-465" font-family="Cascadia Code NF" font-size="10.00">+</text>
<text text-anchor="start" x="259" y="-465" font-family="Cascadia Code NF" font-size="10.00">ValidateAndRewriteReference()</text>
<text text-anchor="start" x="249" y="-449" font-family="Cascadia Code NF" font-size="10.00">+</text>
<text text-anchor="start" x="259" y="-449" font-family="Cascadia Code NF" font-size="10.00">RecordExpressionError()</text>
<text text-anchor="start" x="249" y="-433" font-family="Cascadia Code NF" font-size="10.00">+</text>
<text text-anchor="start" x="259" y="-433" font-family="Cascadia Code NF" font-size="10.00">RecordPatternError()</text>
<text text-anchor="start" x="249" y="-417" font-family="Cascadia Code NF" font-size="10.00">+</text>
<text text-anchor="start" x="259" y="-417" font-family="Cascadia Code NF" font-size="10.00">ValidateExpression()</text>
<text text-anchor="start" x="249" y="-401" font-family="Cascadia Code NF" font-size="10.00">+</text>
<text text-anchor="start" x="259" y="-401" font-family="Cascadia Code NF" font-size="10.00">ValidatePattern()</text>
<text text-anchor="start" x="259" y="-385" font-family="Cascadia Code NF" font-size="10.00">and 6 more...</text>
<text text-anchor="start" x="249" y="-369" font-family="Cascadia Code NF" font-size="10.00">#</text>
<text text-anchor="start" x="259" y="-369" font-family="Cascadia Code NF" font-size="10.00">is_verified()</text>
<text text-anchor="start" x="249" y="-353" font-family="Cascadia Code NF" font-size="10.00">#</text>
<text text-anchor="start" x="259" y="-353" font-family="Cascadia Code NF" font-size="10.00">ValidatePattern()</text>
<polygon fill="#bfbfbf" stroke="#bfbfbf" points="245,-585.5 245,-585.5 437,-585.5 437,-585.5 245,-585.5"/>
<polygon fill="#bfbfbf" stroke="#bfbfbf" points="245,-569.5 245,-569.5 437,-569.5 437,-569.5 245,-569.5"/>
<polygon fill="none" stroke="#bfbfbf" points="245,-346.5 245,-616.5 437,-616.5 437,-346.5 245,-346.5"/>
</a>
</g>
</g>
<!-- Node1&#45;&gt;Node2 -->
<g id="edge1_Node000001_Node000002" class="edge">
<title>Node1&#45;&gt;Node2</title>
<g id="a_edge1_Node000001_Node000002"><a xlink:title=" ">
<path fill="none" stroke="#63b8ff" d="M206.02,-348.08C219.02,-361.03 232.24,-374.19 245.06,-386.96"/>
<polygon fill="none" stroke="#63b8ff" points="208.59,-345.7 199.04,-341.12 203.65,-350.66 208.59,-345.7"/>
</a>
</g>
</g>
<!-- Node4 -->
<g id="Node000004" class="node">
<title>Node4</title>
<g id="a_Node000004"><a xlink:href="../../db/d88/classv8_1_1internal_1_1ParameterDeclarationParsingScope.html" target="_top" xlink:title=" ">
<polygon fill="white" stroke="none" points="448,-328 234,-328 234,-157 448,-157 448,-328"/>
<text text-anchor="start" x="239" y="-314.5" font-family="Cascadia Code NF" font-size="10.00">v8::internal::ParameterDeclaration</text>
<text text-anchor="start" x="278" y="-301.75" font-family="Cascadia Code NF" font-size="10.00">ParsingScope&lt; Types &gt;</text>
<text text-anchor="start" x="338" y="-285.5" font-family="Cascadia Code NF" font-size="10.00"> </text>
<text text-anchor="start" x="246.5" y="-269.5" font-family="Cascadia Code NF" font-size="10.00">+</text>
<text text-anchor="start" x="265" y="-269.5" font-family="Cascadia Code NF" font-size="10.00">ParameterDeclarationParsing</text>
<text text-anchor="start" x="265" y="-256.75" font-family="Cascadia Code NF" font-size="10.00">Scope()</text>
<text text-anchor="start" x="246.5" y="-240.5" font-family="Cascadia Code NF" font-size="10.00">+</text>
<text text-anchor="start" x="265" y="-240.5" font-family="Cascadia Code NF" font-size="10.00">ParameterDeclarationParsing</text>
<text text-anchor="start" x="265" y="-227.75" font-family="Cascadia Code NF" font-size="10.00">Scope()</text>
<text text-anchor="start" x="246.5" y="-211.5" font-family="Cascadia Code NF" font-size="10.00">+</text>
<text text-anchor="start" x="265" y="-211.5" font-family="Cascadia Code NF" font-size="10.00">operator=()</text>
<text text-anchor="start" x="246.5" y="-195.5" font-family="Cascadia Code NF" font-size="10.00">+</text>
<text text-anchor="start" x="265" y="-195.5" font-family="Cascadia Code NF" font-size="10.00">Declare()</text>
<text text-anchor="start" x="246.5" y="-179.5" font-family="Cascadia Code NF" font-size="10.00">+</text>
<text text-anchor="start" x="265" y="-179.5" font-family="Cascadia Code NF" font-size="10.00">has_duplicate()</text>
<text text-anchor="start" x="246.5" y="-163.5" font-family="Cascadia Code NF" font-size="10.00">+</text>
<text text-anchor="start" x="265" y="-163.5" font-family="Cascadia Code NF" font-size="10.00">duplicate_location()</text>
<polygon fill="#bfbfbf" stroke="#bfbfbf" points="234,-297 234,-297 448,-297 448,-297 234,-297"/>
<polygon fill="#bfbfbf" stroke="#bfbfbf" points="234,-281 234,-281 448,-281 448,-281 234,-281"/>
<polygon fill="none" stroke="#bfbfbf" points="234,-157 234,-328 448,-328 448,-157 234,-157"/>
</a>
</g>
</g>
<!-- Node1&#45;&gt;Node4 -->
<g id="edge3_Node000001_Node000004" class="edge">
<title>Node1&#45;&gt;Node4</title>
<g id="a_edge3_Node000001_Node000004"><a xlink:title=" ">
<path fill="none" stroke="#63b8ff" d="M209.22,-242.5C217.51,-242.5 225.87,-242.5 234.15,-242.5"/>
<polygon fill="none" stroke="#63b8ff" points="209.48,-239 199.48,-242.5 209.48,-246 209.48,-239"/>
</a>
</g>
</g>
<!-- Node5 -->
<g id="Node000005" class="node">
<title>Node5</title>
<g id="a_Node000005"><a xlink:href="../../d8/d30/classv8_1_1internal_1_1VariableDeclarationParsingScope.html" target="_top" xlink:title=" ">
<polygon fill="white" stroke="none" points="445,-139 237,-139 237,0 445,0 445,-139"/>
<text text-anchor="start" x="242" y="-125.5" font-family="Cascadia Code NF" font-size="10.00">v8::internal::VariableDeclaration</text>
<text text-anchor="start" x="278" y="-112.75" font-family="Cascadia Code NF" font-size="10.00">ParsingScope&lt; Types &gt;</text>
<text text-anchor="start" x="338" y="-96.5" font-family="Cascadia Code NF" font-size="10.00"> </text>
<text text-anchor="start" x="249.5" y="-80.5" font-family="Cascadia Code NF" font-size="10.00">+</text>
<text text-anchor="start" x="268" y="-80.5" font-family="Cascadia Code NF" font-size="10.00">VariableDeclarationParsing</text>
<text text-anchor="start" x="268" y="-67.75" font-family="Cascadia Code NF" font-size="10.00">Scope()</text>
<text text-anchor="start" x="249.5" y="-51.5" font-family="Cascadia Code NF" font-size="10.00">+</text>
<text text-anchor="start" x="268" y="-51.5" font-family="Cascadia Code NF" font-size="10.00">VariableDeclarationParsing</text>
<text text-anchor="start" x="268" y="-38.75" font-family="Cascadia Code NF" font-size="10.00">Scope()</text>
<text text-anchor="start" x="249.5" y="-22.5" font-family="Cascadia Code NF" font-size="10.00">+</text>
<text text-anchor="start" x="268" y="-22.5" font-family="Cascadia Code NF" font-size="10.00">operator=()</text>
<text text-anchor="start" x="249.5" y="-6.5" font-family="Cascadia Code NF" font-size="10.00">+</text>
<text text-anchor="start" x="268" y="-6.5" font-family="Cascadia Code NF" font-size="10.00">Declare()</text>
<polygon fill="#bfbfbf" stroke="#bfbfbf" points="237,-108 237,-108 445,-108 445,-108 237,-108"/>
<polygon fill="#bfbfbf" stroke="#bfbfbf" points="237,-92 237,-92 445,-92 445,-92 237,-92"/>
<polygon fill="none" stroke="#bfbfbf" points="237,0 237,-139 445,-139 445,0 237,0"/>
</a>
</g>
</g>
<!-- Node1&#45;&gt;Node5 -->
<g id="edge4_Node000001_Node000005" class="edge">
<title>Node1&#45;&gt;Node5</title>
<g id="a_edge4_Node000001_Node000005"><a xlink:title=" ">
<path fill="none" stroke="#63b8ff" d="M207.26,-165.19C219.46,-156.39 231.85,-147.46 243.9,-138.77"/>
<polygon fill="none" stroke="#63b8ff" points="205.26,-162.31 199.19,-171 209.35,-167.99 205.26,-162.31"/>
</a>
</g>
</g>
<!-- Node3 -->
<g id="Node000003" class="node">
<title>Node3</title>
<g id="a_Node000003"><a xlink:href="../../dd/d63/classv8_1_1internal_1_1ArrowHeadParsingScope.html" target="_top" xlink:title=" ">
<polygon fill="white" stroke="none" points="674,-570 484,-570 484,-393 674,-393 674,-570"/>
<text text-anchor="start" x="489" y="-556.5" font-family="Cascadia Code NF" font-size="10.00">v8::internal::ArrowHeadParsing</text>
<text text-anchor="start" x="537" y="-543.75" font-family="Cascadia Code NF" font-size="10.00">Scope&lt; Types &gt;</text>
<text text-anchor="start" x="576" y="-527.5" font-family="Cascadia Code NF" font-size="10.00"> </text>
<text text-anchor="start" x="492" y="-511.5" font-family="Cascadia Code NF" font-size="10.00">+</text>
<text text-anchor="start" x="506" y="-511.5" font-family="Cascadia Code NF" font-size="10.00">ArrowHeadParsingScope()</text>
<text text-anchor="start" x="492" y="-495.5" font-family="Cascadia Code NF" font-size="10.00">+</text>
<text text-anchor="start" x="506" y="-495.5" font-family="Cascadia Code NF" font-size="10.00">ArrowHeadParsingScope()</text>
<text text-anchor="start" x="492" y="-479.5" font-family="Cascadia Code NF" font-size="10.00">+</text>
<text text-anchor="start" x="506" y="-479.5" font-family="Cascadia Code NF" font-size="10.00">operator=()</text>
<text text-anchor="start" x="492" y="-463.5" font-family="Cascadia Code NF" font-size="10.00">+</text>
<text text-anchor="start" x="506" y="-463.5" font-family="Cascadia Code NF" font-size="10.00">ValidateExpression()</text>
<text text-anchor="start" x="492" y="-447.5" font-family="Cascadia Code NF" font-size="10.00">+</text>
<text text-anchor="start" x="506" y="-447.5" font-family="Cascadia Code NF" font-size="10.00">ValidateAndCreateScope()</text>
<text text-anchor="start" x="492" y="-431.5" font-family="Cascadia Code NF" font-size="10.00">+</text>
<text text-anchor="start" x="506" y="-431.5" font-family="Cascadia Code NF" font-size="10.00">RecordDeclarationError()</text>
<text text-anchor="start" x="492" y="-415.5" font-family="Cascadia Code NF" font-size="10.00">+</text>
<text text-anchor="start" x="506" y="-415.5" font-family="Cascadia Code NF" font-size="10.00">RecordNonSimpleParameter()</text>
<text text-anchor="start" x="492" y="-399.5" font-family="Cascadia Code NF" font-size="10.00">+</text>
<text text-anchor="start" x="506" y="-399.5" font-family="Cascadia Code NF" font-size="10.00">RecordThisUse()</text>
<polygon fill="#bfbfbf" stroke="#bfbfbf" points="484,-539 484,-539 674,-539 674,-539 484,-539"/>
<polygon fill="#bfbfbf" stroke="#bfbfbf" points="484,-523 484,-523 674,-523 674,-523 484,-523"/>
<polygon fill="none" stroke="#bfbfbf" points="484,-393 484,-570 674,-570 674,-393 484,-393"/>
</a>
</g>
</g>
<!-- Node2&#45;&gt;Node3 -->
<g id="edge2_Node000002_Node000003" class="edge">
<title>Node2&#45;&gt;Node3</title>
<g id="a_edge2_Node000002_Node000003"><a xlink:title=" ">
<path fill="none" stroke="#63b8ff" d="M448.41,-481.5C460.4,-481.5 472.56,-481.5 484.38,-481.5"/>
<polygon fill="none" stroke="#63b8ff" points="448.48,-478 438.48,-481.5 448.48,-485 448.48,-478"/>
</a>
</g>
</g>
</g>
</svg>

<g id="navigator" transform="translate(0 0)" fill="#404254">
  <rect fill="#f2f5e9" fill-opacity="0.5" stroke="#606060" stroke-width=".5" x="0" y="0" width="60" height="60"/>
  <use id="zoomplus" xlink:href="#zoomPlus" x="17" y="9" onmousedown="handleZoom(evt,'in')"/>
  <use id="zoomminus" xlink:href="#zoomMin" x="42" y="9" onmousedown="handleZoom(evt,'out')"/>
  <use id="reset" xlink:href="#resetDef" x="30" y="36" onmousedown="handleReset()"/>
   <use id="arrowup" xlink:href="#arrowUp" x="0" y="0" onmousedown="handlePan(0,-1)"/>
  <use id="arrowright" xlink:href="#arrowRight" x="0" y="0" onmousedown="handlePan(1,0)"/>
  <use id="arrowdown" xlink:href="#arrowDown" x="0" y="0" onmousedown="handlePan(0,1)"/>
  <use id="arrowleft" xlink:href="#arrowLeft" x="0" y="0" onmousedown="handlePan(-1,0)"/>
</g>
<svg viewBox="0 0 15 15" width="100%" height="30px" preserveAspectRatio="xMaxYMin meet">
 <g id="arrow_out" transform="scale(0.3 0.3)">
  <a xlink:href="classv8_1_1internal_1_1ExpressionScope__inherit__graph_org.svg" target="_base">
   <rect id="button" ry="5" rx="5" y="6" x="6" height="38" width="38"
        fill="#f2f5e9" fill-opacity="0.5" stroke="#606060" stroke-width="1.0"/>
   <path id="arrow"
     d="M 11.500037,31.436501 C 11.940474,20.09759 22.043105,11.32322 32.158766,21.979434 L 37.068811,17.246167 C 37.068811,17.246167 37.088388,32 37.088388,32 L 22.160133,31.978069 C 22.160133,31.978069 26.997745,27.140456 26.997745,27.140456 C 18.528582,18.264221 13.291696,25.230495 11.500037,31.436501 z"
     style="fill:#404040;"/>
  </a>
 </g>
</svg>

<style type='text/css'>
<![CDATA[
[data-mouse-over-selected='false'] { opacity: 0.7; }
[data-mouse-over-selected='true']  { opacity: 1.0; }
]]>
</style>
<script type="application/ecmascript"><![CDATA[
document.addEventListener('DOMContentLoaded', (event) => {
  highlightEdges();
  highlightAdjacentNodes();
});
]]></script>
</svg>
