<?xml version="1.0" encoding="UTF-8" standalone="no"?>
<!DOCTYPE svg PUBLIC "-//W3C//DTD SVG 1.1//EN"
 "http://www.w3.org/Graphics/SVG/1.1/DTD/svg11.dtd">
<!-- Generated by graphviz version 11.0.0 (20240428.1522)
 -->
<!-- Title: v8::internal::StackHandlerMarker Pages: 1 -->
<svg width="322pt" height="73pt"
 viewBox="0.00 0.00 322.00 73.00" xmlns="http://www.w3.org/2000/svg" xmlns:xlink="http://www.w3.org/1999/xlink">

<svg id="main" version="1.1" xmlns="http://www.w3.org/2000/svg" xmlns:xlink="http://www.w3.org/1999/xlink" xml:space="preserve" onload="init(evt)">
<style type="text/css"><![CDATA[
.node, .edge {opacity: 0.7;}
.node.selected, .edge.selected {opacity: 1;}
.edge:hover path { stroke: red; }
.edge:hover polygon { stroke: red; fill: red; }
svg#main { background-color: #111; }
]]></style>
<script type="application/ecmascript" xlink:href="../../svg.min.js"/>
<svg id="graph" class="graph">
<g id="graph0" class="graph" transform="scale(1 1) rotate(0) translate(4 69)">
<title>v8::internal::StackHandlerMarker</title>
<!-- Node1 -->
<g id="Node000001" class="node">
<title>Node1</title>
<g id="a_Node000001"><a xlink:title=" ">
<polygon fill="#999999" stroke="none" points="314,-65 148,-65 148,0 314,0 314,-65"/>
<text text-anchor="start" x="153" y="-51.5" font-family="Cascadia Code NF" font-size="10.00">v8::internal::StackHandler</text>
<text text-anchor="start" x="213" y="-38.75" font-family="Cascadia Code NF" font-size="10.00">Marker</text>
<text text-anchor="start" x="228" y="-22.5" font-family="Cascadia Code NF" font-size="10.00"> </text>
<text text-anchor="start" x="228" y="-6.5" font-family="Cascadia Code NF" font-size="10.00"> </text>
<polygon fill="#666666" stroke="#666666" points="148,-34 148,-34 314,-34 314,-34 148,-34"/>
<polygon fill="#666666" stroke="#666666" points="148,-18 148,-18 314,-18 314,-18 148,-18"/>
<polygon fill="none" stroke="#666666" points="148,0 148,-65 314,-65 314,0 148,0"/>
</a>
</g>
</g>
<!-- Node2 -->
<g id="Node000002" class="node">
<title>Node2</title>
<g id="a_Node000002"><a xlink:href="../../d0/d60/classuintptr__t.html" target="_top" xlink:title=" ">
<polygon fill="white" stroke="none" points="64,-58.5 0,-58.5 0,-6.5 64,-6.5 64,-58.5"/>
<text text-anchor="start" x="5" y="-45" font-family="Cascadia Code NF" font-size="10.00">uintptr_t</text>
<text text-anchor="start" x="29" y="-29" font-family="Cascadia Code NF" font-size="10.00"> </text>
<text text-anchor="start" x="29" y="-13" font-family="Cascadia Code NF" font-size="10.00"> </text>
<polygon fill="#bfbfbf" stroke="#bfbfbf" points="0,-40.5 0,-40.5 64,-40.5 64,-40.5 0,-40.5"/>
<polygon fill="#bfbfbf" stroke="#bfbfbf" points="0,-24.5 0,-24.5 64,-24.5 64,-24.5 0,-24.5"/>
<polygon fill="none" stroke="#bfbfbf" points="0,-6.5 0,-58.5 64,-58.5 64,-6.5 0,-6.5"/>
</a>
</g>
</g>
<!-- Node2&#45;&gt;Node1 -->
<g id="edge1_Node000001_Node000002" class="edge">
<title>Node2&#45;&gt;Node1</title>
<g id="a_edge1_Node000001_Node000002"><a xlink:title=" ">
<path fill="none" stroke="#63b8ff" d="M63.78,-32.5C83.13,-32.5 109.23,-32.5 135.02,-32.5"/>
<polygon fill="none" stroke="#63b8ff" points="135.12,-32.5 141.12,-28.5 147.12,-32.5 141.12,-36.5 135.12,-32.5"/>
</a>
</g>
<text text-anchor="middle" x="106" y="-48.5" font-family="Cascadia Code NF" font-size="10.00" fill="grey"> +next</text>
<text text-anchor="middle" x="106" y="-35.75" font-family="Cascadia Code NF" font-size="10.00" fill="grey">+padding</text>
</g>
</g>
</svg>
</svg>

<style type='text/css'>
<![CDATA[
[data-mouse-over-selected='false'] { opacity: 0.7; }
[data-mouse-over-selected='true']  { opacity: 1.0; }
]]>
</style>
<script type="application/ecmascript"><![CDATA[
document.addEventListener('DOMContentLoaded', (event) => {
  highlightEdges();
  highlightAdjacentNodes();
});
]]></script>
</svg>
