<?xml version="1.0" encoding="UTF-8" standalone="no"?>
<!DOCTYPE svg PUBLIC "-//W3C//DTD SVG 1.1//EN"
 "http://www.w3.org/Graphics/SVG/1.1/DTD/svg11.dtd">
<!-- Generated by graphviz version 11.0.0 (20240428.1522)
 -->
<!-- Title: v8::internal::compiler::TurbofanAdapter::DeoptimizeView Pages: 1 -->
<svg width="216pt" height="201pt"
 viewBox="0.00 0.00 216.00 201.00" xmlns="http://www.w3.org/2000/svg" xmlns:xlink="http://www.w3.org/1999/xlink">
<g id="graph0" class="graph" transform="scale(1 1) rotate(0) translate(4 197)">
<title>v8::internal::compiler::TurbofanAdapter::DeoptimizeView</title>
<!-- Node1 -->
<g id="Node000001" class="node">
<title>Node1</title>
<g id="a_Node000001"><a xlink:title=" ">
<polygon fill="#999999" stroke="none" points="208,-193 0,-193 0,0 208,0 208,-193"/>
<text text-anchor="start" x="5" y="-179.5" font-family="Cascadia Code NF" font-size="10.00">v8::internal::compiler</text>
<text text-anchor="start" x="5" y="-166.75" font-family="Cascadia Code NF" font-size="10.00">::TurbofanAdapter::DeoptimizeView</text>
<text text-anchor="start" x="101" y="-150.5" font-family="Cascadia Code NF" font-size="10.00"> </text>
<text text-anchor="start" x="18.5" y="-134.5" font-family="Cascadia Code NF" font-size="10.00">+</text>
<text text-anchor="start" x="43" y="-134.5" font-family="Cascadia Code NF" font-size="10.00">DeoptimizeView()</text>
<text text-anchor="start" x="18.5" y="-118.5" font-family="Cascadia Code NF" font-size="10.00">+</text>
<text text-anchor="start" x="43" y="-118.5" font-family="Cascadia Code NF" font-size="10.00">reason()</text>
<text text-anchor="start" x="18.5" y="-102.5" font-family="Cascadia Code NF" font-size="10.00">+</text>
<text text-anchor="start" x="43" y="-102.5" font-family="Cascadia Code NF" font-size="10.00">feedback()</text>
<text text-anchor="start" x="18.5" y="-86.5" font-family="Cascadia Code NF" font-size="10.00">+</text>
<text text-anchor="start" x="43" y="-86.5" font-family="Cascadia Code NF" font-size="10.00">frame_state()</text>
<text text-anchor="start" x="18.5" y="-70.5" font-family="Cascadia Code NF" font-size="10.00">+</text>
<text text-anchor="start" x="43" y="-70.5" font-family="Cascadia Code NF" font-size="10.00">is_deoptimize()</text>
<text text-anchor="start" x="18.5" y="-54.5" font-family="Cascadia Code NF" font-size="10.00">+</text>
<text text-anchor="start" x="43" y="-54.5" font-family="Cascadia Code NF" font-size="10.00">is_deoptimize_if()</text>
<text text-anchor="start" x="18.5" y="-38.5" font-family="Cascadia Code NF" font-size="10.00">+</text>
<text text-anchor="start" x="43" y="-38.5" font-family="Cascadia Code NF" font-size="10.00">is_deoptimize_unless()</text>
<text text-anchor="start" x="18.5" y="-22.5" font-family="Cascadia Code NF" font-size="10.00">+</text>
<text text-anchor="start" x="43" y="-22.5" font-family="Cascadia Code NF" font-size="10.00">condition()</text>
<text text-anchor="start" x="18.5" y="-6.5" font-family="Cascadia Code NF" font-size="10.00">+</text>
<text text-anchor="start" x="43" y="-6.5" font-family="Cascadia Code NF" font-size="10.00">operator node_t()</text>
<polygon fill="#666666" stroke="#666666" points="0,-162 0,-162 208,-162 208,-162 0,-162"/>
<polygon fill="#666666" stroke="#666666" points="0,-146 0,-146 208,-146 208,-146 0,-146"/>
<polygon fill="none" stroke="#666666" points="0,0 0,-193 208,-193 208,0 0,0"/>
</a>
</g>
</g>
</g>
</svg>
