<?xml version="1.0" encoding="UTF-8" standalone="no"?>
<!DOCTYPE svg PUBLIC "-//W3C//DTD SVG 1.1//EN"
 "http://www.w3.org/Graphics/SVG/1.1/DTD/svg11.dtd">
<!-- Generated by graphviz version 11.0.0 (20240428.1522)
 -->
<!-- Title: v8::internal::CopyDataPropertiesWithExcludedPropertiesOnStackDescriptor Pages: 1 -->
<svg width="742pt" height="419pt"
 viewBox="0.00 0.00 742.00 419.00" xmlns="http://www.w3.org/2000/svg" xmlns:xlink="http://www.w3.org/1999/xlink">
<g id="graph0" class="graph" transform="scale(1 1) rotate(0) translate(4 415)">
<title>v8::internal::CopyDataPropertiesWithExcludedPropertiesOnStackDescriptor</title>
<!-- Node1 -->
<g id="Node000001" class="node">
<title>Node1</title>
<g id="a_Node000001"><a xlink:title=" ">
<polygon fill="#999999" stroke="none" points="734,-238 490,-238 490,-173 734,-173 734,-238"/>
<text text-anchor="start" x="495" y="-224.5" font-family="Cascadia Code NF" font-size="10.00">v8::internal::CopyDataProperties</text>
<text text-anchor="start" x="495" y="-211.75" font-family="Cascadia Code NF" font-size="10.00">WithExcludedPropertiesOnStackDescriptor</text>
<text text-anchor="start" x="609" y="-195.5" font-family="Cascadia Code NF" font-size="10.00"> </text>
<text text-anchor="start" x="514.5" y="-179.5" font-family="Cascadia Code NF" font-size="10.00">+</text>
<text text-anchor="start" x="545" y="-179.5" font-family="Cascadia Code NF" font-size="10.00">DEFINE_PARAMETER_TYPES()</text>
<polygon fill="#666666" stroke="#666666" points="490,-207 490,-207 734,-207 734,-207 490,-207"/>
<polygon fill="#666666" stroke="#666666" points="490,-191 490,-191 734,-191 734,-191 490,-191"/>
<polygon fill="none" stroke="#666666" points="490,-173 490,-238 734,-238 734,-173 490,-173"/>
</a>
</g>
</g>
<!-- Node2 -->
<g id="Node000002" class="node">
<title>Node2</title>
<g id="a_Node000002"><a xlink:href="$d8/d7b/classv8_1_1internal_1_1StaticCallInterfaceDescriptor.html" xlink:title=" ">
<polygon fill="white" stroke="none" points="454,-411 240,-411 240,0 454,0 454,-411"/>
<text text-anchor="start" x="245" y="-397.5" font-family="Cascadia Code NF" font-size="10.00">v8::internal::StaticCall</text>
<text text-anchor="start" x="245" y="-384.75" font-family="Cascadia Code NF" font-size="10.00">InterfaceDescriptor&lt; CopyData</text>
<text text-anchor="start" x="245" y="-372" font-family="Cascadia Code NF" font-size="10.00">PropertiesWithExcludedPropertiesOn</text>
<text text-anchor="start" x="296" y="-359.25" font-family="Cascadia Code NF" font-size="10.00">StackDescriptor &gt;</text>
<text text-anchor="start" x="246.5" y="-342.5" font-family="Cascadia Code NF" font-size="10.00">+</text>
<text text-anchor="start" x="259" y="-342.5" font-family="Cascadia Code NF" font-size="10.00">kReturnCount</text>
<text text-anchor="start" x="246.5" y="-326.5" font-family="Cascadia Code NF" font-size="10.00">+</text>
<text text-anchor="start" x="259" y="-326.5" font-family="Cascadia Code NF" font-size="10.00">kParameterCount</text>
<text text-anchor="start" x="246.5" y="-310.5" font-family="Cascadia Code NF" font-size="10.00">+</text>
<text text-anchor="start" x="259" y="-310.5" font-family="Cascadia Code NF" font-size="10.00">kNoContext</text>
<text text-anchor="start" x="246.5" y="-294.5" font-family="Cascadia Code NF" font-size="10.00">+</text>
<text text-anchor="start" x="259" y="-294.5" font-family="Cascadia Code NF" font-size="10.00">kAllowVarArgs</text>
<text text-anchor="start" x="246.5" y="-278.5" font-family="Cascadia Code NF" font-size="10.00">+</text>
<text text-anchor="start" x="259" y="-278.5" font-family="Cascadia Code NF" font-size="10.00">kNoStackScan</text>
<text text-anchor="start" x="246.5" y="-262.5" font-family="Cascadia Code NF" font-size="10.00">+</text>
<text text-anchor="start" x="259" y="-262.5" font-family="Cascadia Code NF" font-size="10.00">kStackArgumentOrder</text>
<text text-anchor="start" x="246.5" y="-246.5" font-family="Cascadia Code NF" font-size="10.00">+</text>
<text text-anchor="start" x="259" y="-246.5" font-family="Cascadia Code NF" font-size="10.00">kMaxRegisterParams</text>
<text text-anchor="start" x="246.5" y="-230.5" font-family="Cascadia Code NF" font-size="10.00">+</text>
<text text-anchor="start" x="259" y="-230.5" font-family="Cascadia Code NF" font-size="10.00">kRestrictAllocatableRegisters</text>
<text text-anchor="start" x="246.5" y="-214.5" font-family="Cascadia Code NF" font-size="10.00">+</text>
<text text-anchor="start" x="259" y="-214.5" font-family="Cascadia Code NF" font-size="10.00">kCalleeSaveRegisters</text>
<text text-anchor="start" x="246.5" y="-198.5" font-family="Cascadia Code NF" font-size="10.00">+</text>
<text text-anchor="start" x="259" y="-198.5" font-family="Cascadia Code NF" font-size="10.00">kCustomMachineTypes</text>
<text text-anchor="start" x="246.5" y="-182.5" font-family="Cascadia Code NF" font-size="10.00">+</text>
<text text-anchor="start" x="259" y="-182.5" font-family="Cascadia Code NF" font-size="10.00">StaticCallInterfaceDescriptor()</text>
<text text-anchor="start" x="246.5" y="-166.5" font-family="Cascadia Code NF" font-size="10.00">+</text>
<text text-anchor="start" x="259" y="-166.5" font-family="Cascadia Code NF" font-size="10.00">registers()</text>
<text text-anchor="start" x="246.5" y="-150.5" font-family="Cascadia Code NF" font-size="10.00">+</text>
<text text-anchor="start" x="259" y="-150.5" font-family="Cascadia Code NF" font-size="10.00">double_registers()</text>
<text text-anchor="start" x="246.5" y="-134.5" font-family="Cascadia Code NF" font-size="10.00">+</text>
<text text-anchor="start" x="259" y="-134.5" font-family="Cascadia Code NF" font-size="10.00">return_registers()</text>
<text text-anchor="start" x="246.5" y="-118.5" font-family="Cascadia Code NF" font-size="10.00">+</text>
<text text-anchor="start" x="259" y="-118.5" font-family="Cascadia Code NF" font-size="10.00">return_double_registers()</text>
<text text-anchor="start" x="246.5" y="-102.5" font-family="Cascadia Code NF" font-size="10.00">+</text>
<text text-anchor="start" x="259" y="-102.5" font-family="Cascadia Code NF" font-size="10.00">flags()</text>
<text text-anchor="start" x="246.5" y="-86.5" font-family="Cascadia Code NF" font-size="10.00">+</text>
<text text-anchor="start" x="259" y="-86.5" font-family="Cascadia Code NF" font-size="10.00">AllowVarArgs()</text>
<text text-anchor="start" x="246.5" y="-70.5" font-family="Cascadia Code NF" font-size="10.00">+</text>
<text text-anchor="start" x="259" y="-70.5" font-family="Cascadia Code NF" font-size="10.00">HasContextParameter()</text>
<text text-anchor="start" x="246.5" y="-54.5" font-family="Cascadia Code NF" font-size="10.00">+</text>
<text text-anchor="start" x="259" y="-54.5" font-family="Cascadia Code NF" font-size="10.00">GetReturnCount()</text>
<text text-anchor="start" x="246.5" y="-38.5" font-family="Cascadia Code NF" font-size="10.00">+</text>
<text text-anchor="start" x="259" y="-38.5" font-family="Cascadia Code NF" font-size="10.00">GetParameterCount()</text>
<text text-anchor="start" x="246.5" y="-22.5" font-family="Cascadia Code NF" font-size="10.00">+</text>
<text text-anchor="start" x="259" y="-22.5" font-family="Cascadia Code NF" font-size="10.00">GetRegisterParameterCount()</text>
<text text-anchor="start" x="259" y="-6.5" font-family="Cascadia Code NF" font-size="10.00">and 6 more...</text>
<polygon fill="#bfbfbf" stroke="#bfbfbf" points="240,-354 240,-354 454,-354 454,-354 240,-354"/>
<polygon fill="#bfbfbf" stroke="#bfbfbf" points="240,-194 240,-194 257,-194 257,-194 240,-194"/>
<polygon fill="#bfbfbf" stroke="#bfbfbf" points="257,-194 257,-194 454,-194 454,-194 257,-194"/>
<polygon fill="none" stroke="#bfbfbf" points="240,0 240,-411 454,-411 454,0 240,0"/>
</a>
</g>
</g>
<!-- Node2&#45;&gt;Node1 -->
<g id="edge1_Node000001_Node000002" class="edge">
<title>Node2&#45;&gt;Node1</title>
<g id="a_edge1_Node000001_Node000002"><a xlink:title=" ">
<path fill="none" stroke="#63b8ff" d="M465.15,-205.5C473.49,-205.5 481.91,-205.5 490.27,-205.5"/>
<polygon fill="none" stroke="#63b8ff" points="465.35,-202 455.35,-205.5 465.35,-209 465.35,-202"/>
</a>
</g>
</g>
<!-- Node3 -->
<g id="Node000003" class="node">
<title>Node3</title>
<g id="a_Node000003"><a xlink:href="$d5/d76/classv8_1_1internal_1_1CallInterfaceDescriptor.html" xlink:title=" ">
<polygon fill="white" stroke="none" points="204,-396.5 0,-396.5 0,-14.5 204,-14.5 204,-396.5"/>
<text text-anchor="start" x="21" y="-383" font-family="Cascadia Code NF" font-size="10.00">v8::internal::CallInterface</text>
<text text-anchor="start" x="72" y="-370.25" font-family="Cascadia Code NF" font-size="10.00">Descriptor</text>
<text text-anchor="start" x="99" y="-354" font-family="Cascadia Code NF" font-size="10.00"> </text>
<text text-anchor="start" x="4" y="-338" font-family="Cascadia Code NF" font-size="10.00">+</text>
<text text-anchor="start" x="14" y="-338" font-family="Cascadia Code NF" font-size="10.00">CallInterfaceDescriptor()</text>
<text text-anchor="start" x="4" y="-322" font-family="Cascadia Code NF" font-size="10.00">+</text>
<text text-anchor="start" x="14" y="-322" font-family="Cascadia Code NF" font-size="10.00">~CallInterfaceDescriptor()</text>
<text text-anchor="start" x="4" y="-306" font-family="Cascadia Code NF" font-size="10.00">+</text>
<text text-anchor="start" x="14" y="-306" font-family="Cascadia Code NF" font-size="10.00">CallInterfaceDescriptor()</text>
<text text-anchor="start" x="4" y="-290" font-family="Cascadia Code NF" font-size="10.00">+</text>
<text text-anchor="start" x="14" y="-290" font-family="Cascadia Code NF" font-size="10.00">flags()</text>
<text text-anchor="start" x="4" y="-274" font-family="Cascadia Code NF" font-size="10.00">+</text>
<text text-anchor="start" x="14" y="-274" font-family="Cascadia Code NF" font-size="10.00">tag()</text>
<text text-anchor="start" x="4" y="-258" font-family="Cascadia Code NF" font-size="10.00">+</text>
<text text-anchor="start" x="14" y="-258" font-family="Cascadia Code NF" font-size="10.00">HasContextParameter()</text>
<text text-anchor="start" x="4" y="-242" font-family="Cascadia Code NF" font-size="10.00">+</text>
<text text-anchor="start" x="14" y="-242" font-family="Cascadia Code NF" font-size="10.00">AllowVarArgs()</text>
<text text-anchor="start" x="4" y="-226" font-family="Cascadia Code NF" font-size="10.00">+</text>
<text text-anchor="start" x="14" y="-226" font-family="Cascadia Code NF" font-size="10.00">CalleeSaveRegisters()</text>
<text text-anchor="start" x="4" y="-210" font-family="Cascadia Code NF" font-size="10.00">+</text>
<text text-anchor="start" x="14" y="-210" font-family="Cascadia Code NF" font-size="10.00">GetReturnCount()</text>
<text text-anchor="start" x="4" y="-194" font-family="Cascadia Code NF" font-size="10.00">+</text>
<text text-anchor="start" x="14" y="-194" font-family="Cascadia Code NF" font-size="10.00">GetReturnType()</text>
<text text-anchor="start" x="14" y="-178" font-family="Cascadia Code NF" font-size="10.00">and 12 more...</text>
<text text-anchor="start" x="4" y="-162" font-family="Cascadia Code NF" font-size="10.00">+</text>
<text text-anchor="start" x="14" y="-162" font-family="Cascadia Code NF" font-size="10.00">ContextRegister()</text>
<text text-anchor="start" x="4" y="-146" font-family="Cascadia Code NF" font-size="10.00">#</text>
<text text-anchor="start" x="14" y="-146" font-family="Cascadia Code NF" font-size="10.00">data()</text>
<text text-anchor="start" x="4" y="-130" font-family="Cascadia Code NF" font-size="10.00">#</text>
<text text-anchor="start" x="14" y="-130" font-family="Cascadia Code NF" font-size="10.00">CheckFloatingPointParameters()</text>
<text text-anchor="start" x="4" y="-114" font-family="Cascadia Code NF" font-size="10.00">#</text>
<text text-anchor="start" x="14" y="-114" font-family="Cascadia Code NF" font-size="10.00">IsValidFloatParameterRegister()</text>
<text text-anchor="start" x="4" y="-98" font-family="Cascadia Code NF" font-size="10.00">#</text>
<text text-anchor="start" x="14" y="-98" font-family="Cascadia Code NF" font-size="10.00">DefaultRegisterArray()</text>
<text text-anchor="start" x="4" y="-82" font-family="Cascadia Code NF" font-size="10.00">#</text>
<text text-anchor="start" x="14" y="-82" font-family="Cascadia Code NF" font-size="10.00">DefaultDoubleRegisterArray()</text>
<text text-anchor="start" x="4" y="-66" font-family="Cascadia Code NF" font-size="10.00">#</text>
<text text-anchor="start" x="14" y="-66" font-family="Cascadia Code NF" font-size="10.00">DefaultReturnRegisterArray()</text>
<text text-anchor="start" x="4" y="-50" font-family="Cascadia Code NF" font-size="10.00">#</text>
<text text-anchor="start" x="14" y="-50" font-family="Cascadia Code NF" font-size="10.00">DefaultReturnDoubleRegister</text>
<text text-anchor="start" x="14" y="-37.25" font-family="Cascadia Code NF" font-size="10.00">Array()</text>
<text text-anchor="start" x="4" y="-21" font-family="Cascadia Code NF" font-size="10.00">#</text>
<text text-anchor="start" x="14" y="-21" font-family="Cascadia Code NF" font-size="10.00">DefaultJSRegisterArray()</text>
<polygon fill="#bfbfbf" stroke="#bfbfbf" points="0,-365.5 0,-365.5 204,-365.5 204,-365.5 0,-365.5"/>
<polygon fill="#bfbfbf" stroke="#bfbfbf" points="0,-349.5 0,-349.5 204,-349.5 204,-349.5 0,-349.5"/>
<polygon fill="none" stroke="#bfbfbf" points="0,-14.5 0,-396.5 204,-396.5 204,-14.5 0,-14.5"/>
</a>
</g>
</g>
<!-- Node3&#45;&gt;Node2 -->
<g id="edge2_Node000002_Node000003" class="edge">
<title>Node3&#45;&gt;Node2</title>
<g id="a_edge2_Node000002_Node000003"><a xlink:title=" ">
<path fill="none" stroke="#63b8ff" d="M215.26,-205.5C223.59,-205.5 231.98,-205.5 240.27,-205.5"/>
<polygon fill="none" stroke="#63b8ff" points="215.46,-202 205.46,-205.5 215.46,-209 215.46,-202"/>
</a>
</g>
</g>
</g>
</svg>
