<?xml version="1.0" encoding="UTF-8" standalone="no"?>
<!DOCTYPE svg PUBLIC "-//W3C//DTD SVG 1.1//EN"
 "http://www.w3.org/Graphics/SVG/1.1/DTD/svg11.dtd">
<!-- Generated by graphviz version 11.0.0 (20240428.1522)
 -->
<!-- Title: v8::internal::compiler::Assessment Pages: 1 -->
<svg width="518pt" height="348pt"
 viewBox="0.00 0.00 518.00 348.00" xmlns="http://www.w3.org/2000/svg" xmlns:xlink="http://www.w3.org/1999/xlink">
<g id="graph0" class="graph" transform="scale(1 1) rotate(0) translate(4 344)">
<title>v8::internal::compiler::Assessment</title>
<!-- Node1 -->
<g id="Node000001" class="node">
<title>Node1</title>
<g id="a_Node000001"><a xlink:title=" ">
<polygon fill="#999999" stroke="none" points="332,-242 190,-242 190,-129 332,-129 332,-242"/>
<text text-anchor="start" x="195" y="-228.5" font-family="Cascadia Code NF" font-size="10.00">v8::internal::compiler</text>
<text text-anchor="start" x="225" y="-215.75" font-family="Cascadia Code NF" font-size="10.00">::Assessment</text>
<text text-anchor="start" x="207" y="-199.5" font-family="Cascadia Code NF" font-size="10.00">#</text>
<text text-anchor="start" x="230" y="-199.5" font-family="Cascadia Code NF" font-size="10.00">kind_</text>
<text text-anchor="start" x="207" y="-183.5" font-family="Cascadia Code NF" font-size="10.00">+</text>
<text text-anchor="start" x="230" y="-183.5" font-family="Cascadia Code NF" font-size="10.00">Assessment()</text>
<text text-anchor="start" x="207" y="-167.5" font-family="Cascadia Code NF" font-size="10.00">+</text>
<text text-anchor="start" x="230" y="-167.5" font-family="Cascadia Code NF" font-size="10.00">operator=()</text>
<text text-anchor="start" x="207" y="-151.5" font-family="Cascadia Code NF" font-size="10.00">+</text>
<text text-anchor="start" x="230" y="-151.5" font-family="Cascadia Code NF" font-size="10.00">kind()</text>
<text text-anchor="start" x="207" y="-135.5" font-family="Cascadia Code NF" font-size="10.00">#</text>
<text text-anchor="start" x="230" y="-135.5" font-family="Cascadia Code NF" font-size="10.00">Assessment()</text>
<polygon fill="#666666" stroke="#666666" points="190,-211 190,-211 332,-211 332,-211 190,-211"/>
<polygon fill="#666666" stroke="#666666" points="190,-195 190,-195 228,-195 228,-195 190,-195"/>
<polygon fill="#666666" stroke="#666666" points="228,-195 228,-195 332,-195 332,-195 228,-195"/>
<polygon fill="none" stroke="#666666" points="190,-129 190,-242 332,-242 332,-129 190,-129"/>
</a>
</g>
</g>
<!-- Node3 -->
<g id="Node000003" class="node">
<title>Node3</title>
<g id="a_Node000003"><a xlink:href="$d6/d69/classv8_1_1internal_1_1compiler_1_1FinalAssessment.html" xlink:title=" ">
<polygon fill="white" stroke="none" points="510,-340 368,-340 368,-211 510,-211 510,-340"/>
<text text-anchor="start" x="373" y="-326.5" font-family="Cascadia Code NF" font-size="10.00">v8::internal::compiler</text>
<text text-anchor="start" x="388" y="-313.75" font-family="Cascadia Code NF" font-size="10.00">::FinalAssessment</text>
<text text-anchor="start" x="436" y="-297.5" font-family="Cascadia Code NF" font-size="10.00"> </text>
<text text-anchor="start" x="376" y="-281.5" font-family="Cascadia Code NF" font-size="10.00">+</text>
<text text-anchor="start" x="390" y="-281.5" font-family="Cascadia Code NF" font-size="10.00">FinalAssessment()</text>
<text text-anchor="start" x="376" y="-265.5" font-family="Cascadia Code NF" font-size="10.00">+</text>
<text text-anchor="start" x="390" y="-265.5" font-family="Cascadia Code NF" font-size="10.00">FinalAssessment()</text>
<text text-anchor="start" x="376" y="-249.5" font-family="Cascadia Code NF" font-size="10.00">+</text>
<text text-anchor="start" x="390" y="-249.5" font-family="Cascadia Code NF" font-size="10.00">operator=()</text>
<text text-anchor="start" x="376" y="-233.5" font-family="Cascadia Code NF" font-size="10.00">+</text>
<text text-anchor="start" x="390" y="-233.5" font-family="Cascadia Code NF" font-size="10.00">virtual_register()</text>
<text text-anchor="start" x="376" y="-217.5" font-family="Cascadia Code NF" font-size="10.00">+</text>
<text text-anchor="start" x="390" y="-217.5" font-family="Cascadia Code NF" font-size="10.00">cast()</text>
<polygon fill="#bfbfbf" stroke="#bfbfbf" points="368,-309 368,-309 510,-309 510,-309 368,-309"/>
<polygon fill="#bfbfbf" stroke="#bfbfbf" points="368,-293 368,-293 510,-293 510,-293 368,-293"/>
<polygon fill="none" stroke="#bfbfbf" points="368,-211 368,-340 510,-340 510,-211 368,-211"/>
</a>
</g>
</g>
<!-- Node1&#45;&gt;Node3 -->
<g id="edge2_Node000001_Node000003" class="edge">
<title>Node1&#45;&gt;Node3</title>
<g id="a_edge2_Node000001_Node000003"><a xlink:title=" ">
<path fill="none" stroke="#63b8ff" d="M342.03,-226.42C350.79,-230.9 359.65,-235.44 368.27,-239.84"/>
<polygon fill="none" stroke="#63b8ff" points="343.66,-223.33 333.16,-221.89 340.47,-229.56 343.66,-223.33"/>
</a>
</g>
</g>
<!-- Node4 -->
<g id="Node000004" class="node">
<title>Node4</title>
<g id="a_Node000004"><a xlink:href="$de/ddc/classv8_1_1internal_1_1compiler_1_1PendingAssessment.html" xlink:title=" ">
<polygon fill="white" stroke="none" points="510,-193 368,-193 368,0 510,0 510,-193"/>
<text text-anchor="start" x="373" y="-179.5" font-family="Cascadia Code NF" font-size="10.00">v8::internal::compiler</text>
<text text-anchor="start" x="382" y="-166.75" font-family="Cascadia Code NF" font-size="10.00">::PendingAssessment</text>
<text text-anchor="start" x="436" y="-150.5" font-family="Cascadia Code NF" font-size="10.00"> </text>
<text text-anchor="start" x="374.5" y="-134.5" font-family="Cascadia Code NF" font-size="10.00">+</text>
<text text-anchor="start" x="387" y="-134.5" font-family="Cascadia Code NF" font-size="10.00">PendingAssessment()</text>
<text text-anchor="start" x="374.5" y="-118.5" font-family="Cascadia Code NF" font-size="10.00">+</text>
<text text-anchor="start" x="387" y="-118.5" font-family="Cascadia Code NF" font-size="10.00">PendingAssessment()</text>
<text text-anchor="start" x="374.5" y="-102.5" font-family="Cascadia Code NF" font-size="10.00">+</text>
<text text-anchor="start" x="387" y="-102.5" font-family="Cascadia Code NF" font-size="10.00">operator=()</text>
<text text-anchor="start" x="374.5" y="-86.5" font-family="Cascadia Code NF" font-size="10.00">+</text>
<text text-anchor="start" x="387" y="-86.5" font-family="Cascadia Code NF" font-size="10.00">origin()</text>
<text text-anchor="start" x="374.5" y="-70.5" font-family="Cascadia Code NF" font-size="10.00">+</text>
<text text-anchor="start" x="387" y="-70.5" font-family="Cascadia Code NF" font-size="10.00">operand()</text>
<text text-anchor="start" x="374.5" y="-54.5" font-family="Cascadia Code NF" font-size="10.00">+</text>
<text text-anchor="start" x="387" y="-54.5" font-family="Cascadia Code NF" font-size="10.00">IsAliasOf()</text>
<text text-anchor="start" x="374.5" y="-38.5" font-family="Cascadia Code NF" font-size="10.00">+</text>
<text text-anchor="start" x="387" y="-38.5" font-family="Cascadia Code NF" font-size="10.00">AddAlias()</text>
<text text-anchor="start" x="374.5" y="-22.5" font-family="Cascadia Code NF" font-size="10.00">+</text>
<text text-anchor="start" x="387" y="-22.5" font-family="Cascadia Code NF" font-size="10.00">cast()</text>
<text text-anchor="start" x="374.5" y="-6.5" font-family="Cascadia Code NF" font-size="10.00">+</text>
<text text-anchor="start" x="387" y="-6.5" font-family="Cascadia Code NF" font-size="10.00">cast()</text>
<polygon fill="#bfbfbf" stroke="#bfbfbf" points="368,-162 368,-162 510,-162 510,-162 368,-162"/>
<polygon fill="#bfbfbf" stroke="#bfbfbf" points="368,-146 368,-146 510,-146 510,-146 368,-146"/>
<polygon fill="none" stroke="#bfbfbf" points="368,0 368,-193 510,-193 510,0 368,0"/>
</a>
</g>
</g>
<!-- Node1&#45;&gt;Node4 -->
<g id="edge3_Node000001_Node000004" class="edge">
<title>Node1&#45;&gt;Node4</title>
<g id="a_edge3_Node000001_Node000004"><a xlink:title=" ">
<path fill="none" stroke="#63b8ff" d="M342.03,-145.03C350.79,-140.6 359.65,-136.12 368.27,-131.76"/>
<polygon fill="none" stroke="#63b8ff" points="340.51,-141.88 333.16,-149.51 343.67,-148.12 340.51,-141.88"/>
</a>
</g>
</g>
<!-- Node2 -->
<g id="Node000002" class="node">
<title>Node2</title>
<g id="a_Node000002"><a xlink:href="$dc/dca/classv8_1_1internal_1_1ZoneObject.html" xlink:title=" ">
<polygon fill="white" stroke="none" points="154,-235.5 0,-235.5 0,-135.5 154,-135.5 154,-235.5"/>
<text text-anchor="start" x="5" y="-222" font-family="Cascadia Code NF" font-size="10.00">v8::internal::ZoneObject</text>
<text text-anchor="start" x="74" y="-206" font-family="Cascadia Code NF" font-size="10.00"> </text>
<text text-anchor="start" x="12.5" y="-190" font-family="Cascadia Code NF" font-size="10.00">+</text>
<text text-anchor="start" x="31" y="-190" font-family="Cascadia Code NF" font-size="10.00">operator new()</text>
<text text-anchor="start" x="12.5" y="-174" font-family="Cascadia Code NF" font-size="10.00">+</text>
<text text-anchor="start" x="31" y="-174" font-family="Cascadia Code NF" font-size="10.00">operator new()</text>
<text text-anchor="start" x="12.5" y="-158" font-family="Cascadia Code NF" font-size="10.00">+</text>
<text text-anchor="start" x="31" y="-158" font-family="Cascadia Code NF" font-size="10.00">operator delete()</text>
<text text-anchor="start" x="12.5" y="-142" font-family="Cascadia Code NF" font-size="10.00">+</text>
<text text-anchor="start" x="31" y="-142" font-family="Cascadia Code NF" font-size="10.00">operator delete()</text>
<polygon fill="#bfbfbf" stroke="#bfbfbf" points="0,-217.5 0,-217.5 154,-217.5 154,-217.5 0,-217.5"/>
<polygon fill="#bfbfbf" stroke="#bfbfbf" points="0,-201.5 0,-201.5 154,-201.5 154,-201.5 0,-201.5"/>
<polygon fill="none" stroke="#bfbfbf" points="0,-135.5 0,-235.5 154,-235.5 154,-135.5 0,-135.5"/>
</a>
</g>
</g>
<!-- Node2&#45;&gt;Node1 -->
<g id="edge1_Node000001_Node000002" class="edge">
<title>Node2&#45;&gt;Node1</title>
<g id="a_edge1_Node000001_Node000002"><a xlink:title=" ">
<path fill="none" stroke="#63b8ff" d="M165.19,-185.5C173.54,-185.5 181.93,-185.5 190.07,-185.5"/>
<polygon fill="none" stroke="#63b8ff" points="165.38,-182 155.38,-185.5 165.38,-189 165.38,-182"/>
</a>
</g>
</g>
</g>
</svg>
