<?xml version="1.0" encoding="UTF-8" standalone="no"?>
<!DOCTYPE svg PUBLIC "-//W3C//DTD SVG 1.1//EN"
 "http://www.w3.org/Graphics/SVG/1.1/DTD/svg11.dtd">
<!-- Generated by graphviz version 11.0.0 (20240428.1522)
 -->
<!-- Title: v8::internal::CompiledReplacement Pages: 1 -->
<svg width="216pt" height="92pt"
 viewBox="0.00 0.00 216.00 92.00" xmlns="http://www.w3.org/2000/svg" xmlns:xlink="http://www.w3.org/1999/xlink">
<g id="graph0" class="graph" transform="scale(1 1) rotate(0) translate(4 88)">
<title>v8::internal::CompiledReplacement</title>
<!-- Node1 -->
<g id="Node000001" class="node">
<title>Node1</title>
<g id="a_Node000001"><a xlink:title=" ">
<polygon fill="#999999" stroke="none" points="208,-84 0,-84 0,0 208,0 208,-84"/>
<text text-anchor="start" x="5" y="-70.5" font-family="Cascadia Code NF" font-size="10.00">v8::internal::CompiledReplacement</text>
<text text-anchor="start" x="101" y="-54.5" font-family="Cascadia Code NF" font-size="10.00"> </text>
<text text-anchor="start" x="38" y="-38.5" font-family="Cascadia Code NF" font-size="10.00">+</text>
<text text-anchor="start" x="82" y="-38.5" font-family="Cascadia Code NF" font-size="10.00">Compile()</text>
<text text-anchor="start" x="38" y="-22.5" font-family="Cascadia Code NF" font-size="10.00">+</text>
<text text-anchor="start" x="82" y="-22.5" font-family="Cascadia Code NF" font-size="10.00">Apply()</text>
<text text-anchor="start" x="38" y="-6.5" font-family="Cascadia Code NF" font-size="10.00">+</text>
<text text-anchor="start" x="82" y="-6.5" font-family="Cascadia Code NF" font-size="10.00">parts()</text>
<polygon fill="#666666" stroke="#666666" points="0,-66 0,-66 208,-66 208,-66 0,-66"/>
<polygon fill="#666666" stroke="#666666" points="0,-50 0,-50 208,-50 208,-50 0,-50"/>
<polygon fill="none" stroke="#666666" points="0,0 0,-84 208,-84 208,0 0,0"/>
</a>
</g>
</g>
</g>
</svg>
