<?xml version="1.0" encoding="UTF-8" standalone="no"?>
<!DOCTYPE svg PUBLIC "-//W3C//DTD SVG 1.1//EN"
 "http://www.w3.org/Graphics/SVG/1.1/DTD/svg11.dtd">
<!-- Generated by graphviz version 11.0.0 (20240428.1522)
 -->
<!-- Title: v8::internal::CodeLargeObjectSpace Pages: 1 -->
<svg width="1214pt" height="419pt"
 viewBox="0.00 0.00 1214.00 419.00" xmlns="http://www.w3.org/2000/svg" xmlns:xlink="http://www.w3.org/1999/xlink">
<g id="graph0" class="graph" transform="scale(1 1) rotate(0) translate(4 415)">
<title>v8::internal::CodeLargeObjectSpace</title>
<!-- Node1 -->
<g id="Node000001" class="node">
<title>Node1</title>
<g id="a_Node000001"><a xlink:title=" ">
<polygon fill="#999999" stroke="none" points="1206,-262 1022,-262 1022,-149 1206,-149 1206,-262"/>
<text text-anchor="start" x="1027" y="-248.5" font-family="Cascadia Code NF" font-size="10.00">v8::internal::CodeLargeObject</text>
<text text-anchor="start" x="1099" y="-235.75" font-family="Cascadia Code NF" font-size="10.00">Space</text>
<text text-anchor="start" x="1111" y="-219.5" font-family="Cascadia Code NF" font-size="10.00"> </text>
<text text-anchor="start" x="1034.5" y="-203.5" font-family="Cascadia Code NF" font-size="10.00">+</text>
<text text-anchor="start" x="1053" y="-203.5" font-family="Cascadia Code NF" font-size="10.00">CodeLargeObjectSpace()</text>
<text text-anchor="start" x="1034.5" y="-187.5" font-family="Cascadia Code NF" font-size="10.00">+</text>
<text text-anchor="start" x="1053" y="-187.5" font-family="Cascadia Code NF" font-size="10.00">AllocateRaw()</text>
<text text-anchor="start" x="1034.5" y="-171.5" font-family="Cascadia Code NF" font-size="10.00">#</text>
<text text-anchor="start" x="1053" y="-171.5" font-family="Cascadia Code NF" font-size="10.00">AddPage()</text>
<text text-anchor="start" x="1034.5" y="-155.5" font-family="Cascadia Code NF" font-size="10.00">#</text>
<text text-anchor="start" x="1053" y="-155.5" font-family="Cascadia Code NF" font-size="10.00">RemovePage()</text>
<polygon fill="#666666" stroke="#666666" points="1022,-231 1022,-231 1206,-231 1206,-231 1022,-231"/>
<polygon fill="#666666" stroke="#666666" points="1022,-215 1022,-215 1206,-215 1206,-215 1022,-215"/>
<polygon fill="none" stroke="#666666" points="1022,-149 1022,-262 1206,-262 1206,-149 1022,-149"/>
</a>
</g>
</g>
<!-- Node2 -->
<g id="Node000002" class="node">
<title>Node2</title>
<g id="a_Node000002"><a xlink:href="../../d0/d9a/classv8_1_1internal_1_1OldLargeObjectSpace.html" target="_top" xlink:title=" ">
<polygon fill="white" stroke="none" points="986,-270 808,-270 808,-141 986,-141 986,-270"/>
<text text-anchor="start" x="813" y="-256.5" font-family="Cascadia Code NF" font-size="10.00">v8::internal::OldLargeObject</text>
<text text-anchor="start" x="882" y="-243.75" font-family="Cascadia Code NF" font-size="10.00">Space</text>
<text text-anchor="start" x="894" y="-227.5" font-family="Cascadia Code NF" font-size="10.00"> </text>
<text text-anchor="start" x="817.5" y="-211.5" font-family="Cascadia Code NF" font-size="10.00">+</text>
<text text-anchor="start" x="833" y="-211.5" font-family="Cascadia Code NF" font-size="10.00">OldLargeObjectSpace()</text>
<text text-anchor="start" x="817.5" y="-195.5" font-family="Cascadia Code NF" font-size="10.00">+</text>
<text text-anchor="start" x="833" y="-195.5" font-family="Cascadia Code NF" font-size="10.00">AllocateRaw()</text>
<text text-anchor="start" x="817.5" y="-179.5" font-family="Cascadia Code NF" font-size="10.00">+</text>
<text text-anchor="start" x="833" y="-179.5" font-family="Cascadia Code NF" font-size="10.00">PromoteNewLargeObject()</text>
<text text-anchor="start" x="817.5" y="-163.5" font-family="Cascadia Code NF" font-size="10.00">#</text>
<text text-anchor="start" x="833" y="-163.5" font-family="Cascadia Code NF" font-size="10.00">OldLargeObjectSpace()</text>
<text text-anchor="start" x="817.5" y="-147.5" font-family="Cascadia Code NF" font-size="10.00">#</text>
<text text-anchor="start" x="833" y="-147.5" font-family="Cascadia Code NF" font-size="10.00">AllocateRaw()</text>
<polygon fill="#bfbfbf" stroke="#bfbfbf" points="808,-239 808,-239 986,-239 986,-239 808,-239"/>
<polygon fill="#bfbfbf" stroke="#bfbfbf" points="808,-223 808,-223 986,-223 986,-223 808,-223"/>
<polygon fill="none" stroke="#bfbfbf" points="808,-141 808,-270 986,-270 986,-141 808,-141"/>
</a>
</g>
</g>
<!-- Node2&#45;&gt;Node1 -->
<g id="edge1_Node000001_Node000002" class="edge">
<title>Node2&#45;&gt;Node1</title>
<g id="a_edge1_Node000001_Node000002"><a xlink:title=" ">
<path fill="none" stroke="#63b8ff" d="M997.05,-205.5C1005.38,-205.5 1013.77,-205.5 1022.03,-205.5"/>
<polygon fill="none" stroke="#63b8ff" points="997.27,-202 987.27,-205.5 997.27,-209 997.27,-202"/>
</a>
</g>
</g>
<!-- Node3 -->
<g id="Node000003" class="node">
<title>Node3</title>
<g id="a_Node000003"><a xlink:href="../../d8/d76/classv8_1_1internal_1_1LargeObjectSpace.html" target="_top" xlink:title=" ">
<polygon fill="white" stroke="none" points="772,-411 598,-411 598,0 772,0 772,-411"/>
<text text-anchor="start" x="610" y="-397.5" font-family="Cascadia Code NF" font-size="10.00">v8::internal::LargeObject</text>
<text text-anchor="start" x="670" y="-384.75" font-family="Cascadia Code NF" font-size="10.00">Space</text>
<text text-anchor="start" x="602" y="-368.5" font-family="Cascadia Code NF" font-size="10.00">#</text>
<text text-anchor="start" x="612" y="-368.5" font-family="Cascadia Code NF" font-size="10.00">size_</text>
<text text-anchor="start" x="602" y="-352.5" font-family="Cascadia Code NF" font-size="10.00">#</text>
<text text-anchor="start" x="612" y="-352.5" font-family="Cascadia Code NF" font-size="10.00">page_count_</text>
<text text-anchor="start" x="602" y="-336.5" font-family="Cascadia Code NF" font-size="10.00">#</text>
<text text-anchor="start" x="612" y="-336.5" font-family="Cascadia Code NF" font-size="10.00">objects_size_</text>
<text text-anchor="start" x="602" y="-320.5" font-family="Cascadia Code NF" font-size="10.00">#</text>
<text text-anchor="start" x="612" y="-320.5" font-family="Cascadia Code NF" font-size="10.00">allocation_mutex_</text>
<text text-anchor="start" x="602" y="-304.5" font-family="Cascadia Code NF" font-size="10.00">#</text>
<text text-anchor="start" x="612" y="-304.5" font-family="Cascadia Code NF" font-size="10.00">pending_object_</text>
<text text-anchor="start" x="602" y="-288.5" font-family="Cascadia Code NF" font-size="10.00">#</text>
<text text-anchor="start" x="612" y="-288.5" font-family="Cascadia Code NF" font-size="10.00">pending_allocation</text>
<text text-anchor="start" x="612" y="-275.75" font-family="Cascadia Code NF" font-size="10.00">_mutex_</text>
<text text-anchor="start" x="602" y="-259.5" font-family="Cascadia Code NF" font-size="10.00">#</text>
<text text-anchor="start" x="612" y="-259.5" font-family="Cascadia Code NF" font-size="10.00">allocation_counter_</text>
<text text-anchor="start" x="602" y="-243.5" font-family="Cascadia Code NF" font-size="10.00">+</text>
<text text-anchor="start" x="612" y="-243.5" font-family="Cascadia Code NF" font-size="10.00">~LargeObjectSpace()</text>
<text text-anchor="start" x="602" y="-227.5" font-family="Cascadia Code NF" font-size="10.00">+</text>
<text text-anchor="start" x="612" y="-227.5" font-family="Cascadia Code NF" font-size="10.00">TearDown()</text>
<text text-anchor="start" x="602" y="-211.5" font-family="Cascadia Code NF" font-size="10.00">+</text>
<text text-anchor="start" x="612" y="-211.5" font-family="Cascadia Code NF" font-size="10.00">Available()</text>
<text text-anchor="start" x="602" y="-195.5" font-family="Cascadia Code NF" font-size="10.00">+</text>
<text text-anchor="start" x="612" y="-195.5" font-family="Cascadia Code NF" font-size="10.00">Size()</text>
<text text-anchor="start" x="602" y="-179.5" font-family="Cascadia Code NF" font-size="10.00">+</text>
<text text-anchor="start" x="612" y="-179.5" font-family="Cascadia Code NF" font-size="10.00">SizeOfObjects()</text>
<text text-anchor="start" x="602" y="-163.5" font-family="Cascadia Code NF" font-size="10.00">+</text>
<text text-anchor="start" x="612" y="-163.5" font-family="Cascadia Code NF" font-size="10.00">CommittedPhysicalMemory()</text>
<text text-anchor="start" x="602" y="-147.5" font-family="Cascadia Code NF" font-size="10.00">+</text>
<text text-anchor="start" x="612" y="-147.5" font-family="Cascadia Code NF" font-size="10.00">PageCount()</text>
<text text-anchor="start" x="602" y="-131.5" font-family="Cascadia Code NF" font-size="10.00">+</text>
<text text-anchor="start" x="612" y="-131.5" font-family="Cascadia Code NF" font-size="10.00">ShrinkPageToObjectSize()</text>
<text text-anchor="start" x="602" y="-115.5" font-family="Cascadia Code NF" font-size="10.00">+</text>
<text text-anchor="start" x="612" y="-115.5" font-family="Cascadia Code NF" font-size="10.00">Contains()</text>
<text text-anchor="start" x="602" y="-99.5" font-family="Cascadia Code NF" font-size="10.00">+</text>
<text text-anchor="start" x="612" y="-99.5" font-family="Cascadia Code NF" font-size="10.00">ContainsSlow()</text>
<text text-anchor="start" x="612" y="-83.5" font-family="Cascadia Code NF" font-size="10.00">and 16 more...</text>
<text text-anchor="start" x="602" y="-67.5" font-family="Cascadia Code NF" font-size="10.00">#</text>
<text text-anchor="start" x="612" y="-67.5" font-family="Cascadia Code NF" font-size="10.00">LargeObjectSpace()</text>
<text text-anchor="start" x="602" y="-51.5" font-family="Cascadia Code NF" font-size="10.00">#</text>
<text text-anchor="start" x="612" y="-51.5" font-family="Cascadia Code NF" font-size="10.00">AdvanceAndInvokeAllocation</text>
<text text-anchor="start" x="612" y="-38.75" font-family="Cascadia Code NF" font-size="10.00">Observers()</text>
<text text-anchor="start" x="602" y="-22.5" font-family="Cascadia Code NF" font-size="10.00">#</text>
<text text-anchor="start" x="612" y="-22.5" font-family="Cascadia Code NF" font-size="10.00">AllocateLargePage()</text>
<text text-anchor="start" x="602" y="-6.5" font-family="Cascadia Code NF" font-size="10.00">#</text>
<text text-anchor="start" x="612" y="-6.5" font-family="Cascadia Code NF" font-size="10.00">UpdatePendingObject()</text>
<polygon fill="#bfbfbf" stroke="#bfbfbf" points="598,-380 598,-380 772,-380 772,-380 598,-380"/>
<polygon fill="#bfbfbf" stroke="#bfbfbf" points="598,-255 598,-255 610,-255 610,-255 598,-255"/>
<polygon fill="#bfbfbf" stroke="#bfbfbf" points="610,-255 610,-255 772,-255 772,-255 610,-255"/>
<polygon fill="none" stroke="#bfbfbf" points="598,0 598,-411 772,-411 772,0 598,0"/>
</a>
</g>
</g>
<!-- Node3&#45;&gt;Node2 -->
<g id="edge2_Node000002_Node000003" class="edge">
<title>Node3&#45;&gt;Node2</title>
<g id="a_edge2_Node000002_Node000003"><a xlink:title=" ">
<path fill="none" stroke="#63b8ff" d="M783.07,-205.5C791.44,-205.5 799.88,-205.5 808.17,-205.5"/>
<polygon fill="none" stroke="#63b8ff" points="783.23,-202 773.23,-205.5 783.23,-209 783.23,-202"/>
</a>
</g>
</g>
<!-- Node4 -->
<g id="Node000004" class="node">
<title>Node4</title>
<g id="a_Node000004"><a xlink:href="../../d4/d33/classv8_1_1internal_1_1Space.html" target="_top" xlink:title=" ">
<polygon fill="white" stroke="none" points="562,-361.5 382,-361.5 382,-49.5 562,-49.5 562,-361.5"/>
<text text-anchor="start" x="415" y="-348" font-family="Cascadia Code NF" font-size="10.00">v8::internal::Space</text>
<text text-anchor="start" x="386" y="-332" font-family="Cascadia Code NF" font-size="10.00">#</text>
<text text-anchor="start" x="396" y="-332" font-family="Cascadia Code NF" font-size="10.00">memory_chunk_list_</text>
<text text-anchor="start" x="386" y="-316" font-family="Cascadia Code NF" font-size="10.00">#</text>
<text text-anchor="start" x="396" y="-316" font-family="Cascadia Code NF" font-size="10.00">external_backing_store</text>
<text text-anchor="start" x="396" y="-303.25" font-family="Cascadia Code NF" font-size="10.00">_bytes_</text>
<text text-anchor="start" x="386" y="-287" font-family="Cascadia Code NF" font-size="10.00">#</text>
<text text-anchor="start" x="396" y="-287" font-family="Cascadia Code NF" font-size="10.00">free_list_</text>
<text text-anchor="start" x="386" y="-271" font-family="Cascadia Code NF" font-size="10.00">+</text>
<text text-anchor="start" x="396" y="-271" font-family="Cascadia Code NF" font-size="10.00">Space()</text>
<text text-anchor="start" x="386" y="-255" font-family="Cascadia Code NF" font-size="10.00">+</text>
<text text-anchor="start" x="396" y="-255" font-family="Cascadia Code NF" font-size="10.00">~Space()</text>
<text text-anchor="start" x="386" y="-239" font-family="Cascadia Code NF" font-size="10.00">+</text>
<text text-anchor="start" x="396" y="-239" font-family="Cascadia Code NF" font-size="10.00">Space()</text>
<text text-anchor="start" x="386" y="-223" font-family="Cascadia Code NF" font-size="10.00">+</text>
<text text-anchor="start" x="396" y="-223" font-family="Cascadia Code NF" font-size="10.00">operator=()</text>
<text text-anchor="start" x="386" y="-207" font-family="Cascadia Code NF" font-size="10.00">+</text>
<text text-anchor="start" x="396" y="-207" font-family="Cascadia Code NF" font-size="10.00">SizeOfObjects()</text>
<text text-anchor="start" x="386" y="-191" font-family="Cascadia Code NF" font-size="10.00">+</text>
<text text-anchor="start" x="396" y="-191" font-family="Cascadia Code NF" font-size="10.00">Available()</text>
<text text-anchor="start" x="386" y="-175" font-family="Cascadia Code NF" font-size="10.00">+</text>
<text text-anchor="start" x="396" y="-175" font-family="Cascadia Code NF" font-size="10.00">GetObjectIterator()</text>
<text text-anchor="start" x="386" y="-159" font-family="Cascadia Code NF" font-size="10.00">+</text>
<text text-anchor="start" x="396" y="-159" font-family="Cascadia Code NF" font-size="10.00">IncrementExternalBacking</text>
<text text-anchor="start" x="396" y="-146.25" font-family="Cascadia Code NF" font-size="10.00">StoreBytes()</text>
<text text-anchor="start" x="386" y="-130" font-family="Cascadia Code NF" font-size="10.00">+</text>
<text text-anchor="start" x="396" y="-130" font-family="Cascadia Code NF" font-size="10.00">DecrementExternalBacking</text>
<text text-anchor="start" x="396" y="-117.25" font-family="Cascadia Code NF" font-size="10.00">StoreBytes()</text>
<text text-anchor="start" x="386" y="-101" font-family="Cascadia Code NF" font-size="10.00">+</text>
<text text-anchor="start" x="396" y="-101" font-family="Cascadia Code NF" font-size="10.00">ExternalBackingStoreBytes()</text>
<text text-anchor="start" x="396" y="-85" font-family="Cascadia Code NF" font-size="10.00">and 10 more...</text>
<text text-anchor="start" x="386" y="-69" font-family="Cascadia Code NF" font-size="10.00">+</text>
<text text-anchor="start" x="396" y="-69" font-family="Cascadia Code NF" font-size="10.00">MoveExternalBackingStore</text>
<text text-anchor="start" x="396" y="-56.25" font-family="Cascadia Code NF" font-size="10.00">Bytes()</text>
<polygon fill="#bfbfbf" stroke="#bfbfbf" points="382,-343.5 382,-343.5 562,-343.5 562,-343.5 382,-343.5"/>
<polygon fill="#bfbfbf" stroke="#bfbfbf" points="382,-282.5 382,-282.5 394,-282.5 394,-282.5 382,-282.5"/>
<polygon fill="#bfbfbf" stroke="#bfbfbf" points="394,-282.5 394,-282.5 562,-282.5 562,-282.5 394,-282.5"/>
<polygon fill="none" stroke="#bfbfbf" points="382,-49.5 382,-361.5 562,-361.5 562,-49.5 382,-49.5"/>
</a>
</g>
</g>
<!-- Node4&#45;&gt;Node3 -->
<g id="edge3_Node000003_Node000004" class="edge">
<title>Node4&#45;&gt;Node3</title>
<g id="a_edge3_Node000003_Node000004"><a xlink:title=" ">
<path fill="none" stroke="#63b8ff" d="M573.24,-205.5C581.61,-205.5 590.02,-205.5 598.26,-205.5"/>
<polygon fill="none" stroke="#63b8ff" points="573.39,-202 563.39,-205.5 573.38,-209 573.39,-202"/>
</a>
</g>
</g>
<!-- Node5 -->
<g id="Node000005" class="node">
<title>Node5</title>
<g id="a_Node000005"><a xlink:href="../../d0/de7/classv8_1_1internal_1_1BaseSpace.html" target="_top" xlink:title=" ">
<polygon fill="white" stroke="none" points="346,-343.5 178,-343.5 178,-67.5 346,-67.5 346,-343.5"/>
<text text-anchor="start" x="193" y="-330" font-family="Cascadia Code NF" font-size="10.00">v8::internal::BaseSpace</text>
<text text-anchor="start" x="182" y="-314" font-family="Cascadia Code NF" font-size="10.00">#</text>
<text text-anchor="start" x="192" y="-314" font-family="Cascadia Code NF" font-size="10.00">heap_</text>
<text text-anchor="start" x="182" y="-298" font-family="Cascadia Code NF" font-size="10.00">#</text>
<text text-anchor="start" x="192" y="-298" font-family="Cascadia Code NF" font-size="10.00">id_</text>
<text text-anchor="start" x="182" y="-282" font-family="Cascadia Code NF" font-size="10.00">#</text>
<text text-anchor="start" x="192" y="-282" font-family="Cascadia Code NF" font-size="10.00">committed_</text>
<text text-anchor="start" x="182" y="-266" font-family="Cascadia Code NF" font-size="10.00">#</text>
<text text-anchor="start" x="192" y="-266" font-family="Cascadia Code NF" font-size="10.00">max_committed_</text>
<text text-anchor="start" x="182" y="-250" font-family="Cascadia Code NF" font-size="10.00">+</text>
<text text-anchor="start" x="192" y="-250" font-family="Cascadia Code NF" font-size="10.00">BaseSpace()</text>
<text text-anchor="start" x="182" y="-234" font-family="Cascadia Code NF" font-size="10.00">+</text>
<text text-anchor="start" x="192" y="-234" font-family="Cascadia Code NF" font-size="10.00">operator=()</text>
<text text-anchor="start" x="182" y="-218" font-family="Cascadia Code NF" font-size="10.00">+</text>
<text text-anchor="start" x="192" y="-218" font-family="Cascadia Code NF" font-size="10.00">heap()</text>
<text text-anchor="start" x="182" y="-202" font-family="Cascadia Code NF" font-size="10.00">+</text>
<text text-anchor="start" x="192" y="-202" font-family="Cascadia Code NF" font-size="10.00">identity()</text>
<text text-anchor="start" x="182" y="-186" font-family="Cascadia Code NF" font-size="10.00">+</text>
<text text-anchor="start" x="192" y="-186" font-family="Cascadia Code NF" font-size="10.00">CommittedMemory()</text>
<text text-anchor="start" x="182" y="-170" font-family="Cascadia Code NF" font-size="10.00">+</text>
<text text-anchor="start" x="192" y="-170" font-family="Cascadia Code NF" font-size="10.00">MaximumCommittedMemory()</text>
<text text-anchor="start" x="182" y="-154" font-family="Cascadia Code NF" font-size="10.00">+</text>
<text text-anchor="start" x="192" y="-154" font-family="Cascadia Code NF" font-size="10.00">CommittedPhysicalMemory()</text>
<text text-anchor="start" x="182" y="-138" font-family="Cascadia Code NF" font-size="10.00">+</text>
<text text-anchor="start" x="192" y="-138" font-family="Cascadia Code NF" font-size="10.00">Size()</text>
<text text-anchor="start" x="182" y="-122" font-family="Cascadia Code NF" font-size="10.00">#</text>
<text text-anchor="start" x="192" y="-122" font-family="Cascadia Code NF" font-size="10.00">BaseSpace()</text>
<text text-anchor="start" x="182" y="-106" font-family="Cascadia Code NF" font-size="10.00">#</text>
<text text-anchor="start" x="192" y="-106" font-family="Cascadia Code NF" font-size="10.00">~BaseSpace()</text>
<text text-anchor="start" x="182" y="-90" font-family="Cascadia Code NF" font-size="10.00">#</text>
<text text-anchor="start" x="192" y="-90" font-family="Cascadia Code NF" font-size="10.00">AccountCommitted()</text>
<text text-anchor="start" x="182" y="-74" font-family="Cascadia Code NF" font-size="10.00">#</text>
<text text-anchor="start" x="192" y="-74" font-family="Cascadia Code NF" font-size="10.00">AccountUncommitted()</text>
<polygon fill="#bfbfbf" stroke="#bfbfbf" points="178,-325.5 178,-325.5 346,-325.5 346,-325.5 178,-325.5"/>
<polygon fill="#bfbfbf" stroke="#bfbfbf" points="178,-261.5 178,-261.5 190,-261.5 190,-261.5 178,-261.5"/>
<polygon fill="#bfbfbf" stroke="#bfbfbf" points="190,-261.5 190,-261.5 346,-261.5 346,-261.5 190,-261.5"/>
<polygon fill="none" stroke="#bfbfbf" points="178,-67.5 178,-343.5 346,-343.5 346,-67.5 178,-67.5"/>
</a>
</g>
</g>
<!-- Node5&#45;&gt;Node4 -->
<g id="edge4_Node000004_Node000005" class="edge">
<title>Node5&#45;&gt;Node4</title>
<g id="a_edge4_Node000004_Node000005"><a xlink:title=" ">
<path fill="none" stroke="#63b8ff" d="M357.16,-205.5C365.54,-205.5 374,-205.5 382.33,-205.5"/>
<polygon fill="none" stroke="#63b8ff" points="357.32,-202 347.32,-205.5 357.32,-209 357.32,-202"/>
</a>
</g>
</g>
<!-- Node6 -->
<g id="Node000006" class="node">
<title>Node6</title>
<g id="a_Node000006"><a xlink:href="../../d4/db9/classv8_1_1internal_1_1Malloced.html" target="_top" xlink:title=" ">
<polygon fill="white" stroke="none" points="142,-239.5 0,-239.5 0,-171.5 142,-171.5 142,-239.5"/>
<text text-anchor="start" x="5" y="-226" font-family="Cascadia Code NF" font-size="10.00">v8::internal::Malloced</text>
<text text-anchor="start" x="68" y="-210" font-family="Cascadia Code NF" font-size="10.00"> </text>
<text text-anchor="start" x="9.5" y="-194" font-family="Cascadia Code NF" font-size="10.00">+</text>
<text text-anchor="start" x="25" y="-194" font-family="Cascadia Code NF" font-size="10.00">operator new()</text>
<text text-anchor="start" x="9.5" y="-178" font-family="Cascadia Code NF" font-size="10.00">+</text>
<text text-anchor="start" x="25" y="-178" font-family="Cascadia Code NF" font-size="10.00">operator delete()</text>
<polygon fill="#bfbfbf" stroke="#bfbfbf" points="0,-221.5 0,-221.5 142,-221.5 142,-221.5 0,-221.5"/>
<polygon fill="#bfbfbf" stroke="#bfbfbf" points="0,-205.5 0,-205.5 142,-205.5 142,-205.5 0,-205.5"/>
<polygon fill="none" stroke="#bfbfbf" points="0,-171.5 0,-239.5 142,-239.5 142,-171.5 0,-171.5"/>
</a>
</g>
</g>
<!-- Node6&#45;&gt;Node5 -->
<g id="edge5_Node000005_Node000006" class="edge">
<title>Node6&#45;&gt;Node5</title>
<g id="a_edge5_Node000005_Node000006"><a xlink:title=" ">
<path fill="none" stroke="#63b8ff" d="M153.3,-205.5C161.49,-205.5 169.81,-205.5 178.02,-205.5"/>
<polygon fill="none" stroke="#63b8ff" points="153.35,-202 143.35,-205.5 153.35,-209 153.35,-202"/>
</a>
</g>
</g>
</g>
</svg>
