<?xml version="1.0" encoding="UTF-8" standalone="no"?>
<!DOCTYPE svg PUBLIC "-//W3C//DTD SVG 1.1//EN"
 "http://www.w3.org/Graphics/SVG/1.1/DTD/svg11.dtd">
<!-- Generated by graphviz version 11.0.0 (20240428.1522)
 -->
<!-- Title: v8::internal::JSAtomicsMutex::TryLockGuard Pages: 1 -->
<svg width="400pt" height="137pt"
 viewBox="0.00 0.00 400.00 137.00" xmlns="http://www.w3.org/2000/svg" xmlns:xlink="http://www.w3.org/1999/xlink">
<g id="graph0" class="graph" transform="scale(1 1) rotate(0) translate(4 133)">
<title>v8::internal::JSAtomicsMutex::TryLockGuard</title>
<!-- Node1 -->
<g id="Node000001" class="node">
<title>Node1</title>
<g id="a_Node000001"><a xlink:title=" ">
<polygon fill="#999999" stroke="none" points="392,-97 214,-97 214,-32 392,-32 392,-97"/>
<text text-anchor="start" x="219" y="-83.5" font-family="Cascadia Code NF" font-size="10.00">v8::internal::JSAtomicsMutex</text>
<text text-anchor="start" x="261" y="-70.75" font-family="Cascadia Code NF" font-size="10.00">::TryLockGuard</text>
<text text-anchor="start" x="300" y="-54.5" font-family="Cascadia Code NF" font-size="10.00"> </text>
<text text-anchor="start" x="237" y="-38.5" font-family="Cascadia Code NF" font-size="10.00">+</text>
<text text-anchor="start" x="266" y="-38.5" font-family="Cascadia Code NF" font-size="10.00">TryLockGuard()</text>
<polygon fill="#666666" stroke="#666666" points="214,-66 214,-66 392,-66 392,-66 214,-66"/>
<polygon fill="#666666" stroke="#666666" points="214,-50 214,-50 392,-50 392,-50 214,-50"/>
<polygon fill="none" stroke="#666666" points="214,-32 214,-97 392,-97 392,-32 214,-32"/>
</a>
</g>
</g>
<!-- Node2 -->
<g id="Node000002" class="node">
<title>Node2</title>
<g id="a_Node000002"><a xlink:href="$d4/da9/classv8_1_1internal_1_1JSAtomicsMutex_1_1LockGuardBase.html" xlink:title=" ">
<polygon fill="white" stroke="none" points="178,-129 0,-129 0,0 178,0 178,-129"/>
<text text-anchor="start" x="5" y="-115.5" font-family="Cascadia Code NF" font-size="10.00">v8::internal::JSAtomicsMutex</text>
<text text-anchor="start" x="44" y="-102.75" font-family="Cascadia Code NF" font-size="10.00">::LockGuardBase</text>
<text text-anchor="start" x="86" y="-86.5" font-family="Cascadia Code NF" font-size="10.00"> </text>
<text text-anchor="start" x="20" y="-70.5" font-family="Cascadia Code NF" font-size="10.00">+</text>
<text text-anchor="start" x="46" y="-70.5" font-family="Cascadia Code NF" font-size="10.00">LockGuardBase()</text>
<text text-anchor="start" x="20" y="-54.5" font-family="Cascadia Code NF" font-size="10.00">+</text>
<text text-anchor="start" x="46" y="-54.5" font-family="Cascadia Code NF" font-size="10.00">operator=()</text>
<text text-anchor="start" x="20" y="-38.5" font-family="Cascadia Code NF" font-size="10.00">+</text>
<text text-anchor="start" x="46" y="-38.5" font-family="Cascadia Code NF" font-size="10.00">~LockGuardBase()</text>
<text text-anchor="start" x="20" y="-22.5" font-family="Cascadia Code NF" font-size="10.00">+</text>
<text text-anchor="start" x="46" y="-22.5" font-family="Cascadia Code NF" font-size="10.00">locked()</text>
<text text-anchor="start" x="20" y="-6.5" font-family="Cascadia Code NF" font-size="10.00">#</text>
<text text-anchor="start" x="46" y="-6.5" font-family="Cascadia Code NF" font-size="10.00">LockGuardBase()</text>
<polygon fill="#bfbfbf" stroke="#bfbfbf" points="0,-98 0,-98 178,-98 178,-98 0,-98"/>
<polygon fill="#bfbfbf" stroke="#bfbfbf" points="0,-82 0,-82 178,-82 178,-82 0,-82"/>
<polygon fill="none" stroke="#bfbfbf" points="0,0 0,-129 178,-129 178,0 0,0"/>
</a>
</g>
</g>
<!-- Node2&#45;&gt;Node1 -->
<g id="edge1_Node000001_Node000002" class="edge">
<title>Node2&#45;&gt;Node1</title>
<g id="a_edge1_Node000001_Node000002"><a xlink:title=" ">
<path fill="none" stroke="#63b8ff" d="M189.15,-64.5C197.55,-64.5 206.01,-64.5 214.31,-64.5"/>
<polygon fill="none" stroke="#63b8ff" points="189.27,-61 179.27,-64.5 189.27,-68 189.27,-61"/>
</a>
</g>
</g>
</g>
</svg>
