<?xml version="1.0" encoding="UTF-8" standalone="no"?>
<!DOCTYPE svg PUBLIC "-//W3C//DTD SVG 1.1//EN"
 "http://www.w3.org/Graphics/SVG/1.1/DTD/svg11.dtd">
<!-- Generated by graphviz version 11.0.0 (20240428.1522)
 -->
<!-- Title: v8::internal::TurbofanFrame Pages: 1 -->
<!--zoomable 451 -->

<svg id="main" version="1.1" xmlns="http://www.w3.org/2000/svg" xmlns:xlink="http://www.w3.org/1999/xlink" xml:space="preserve" onload="init(evt)">
<style type="text/css"><![CDATA[
.node, .edge {opacity: 0.7;}
.node.selected, .edge.selected {opacity: 1;}
.edge:hover path { stroke: red; }
.edge:hover polygon { stroke: red; fill: red; }
svg#main { background-color: #111; }
]]></style>

<defs>
  <circle id="rim" cx="0" cy="0" r="7"/>
  <circle id="rim2" cx="0" cy="0" r="3.5"/>
  <g id="zoomPlus">
    <use xlink:href="#rim" fill="#404040"><set attributeName="fill" to="#808080" begin="zoomplus.mouseover" end="zoomplus.mouseout"/></use>
    <path d="M-4,0h8M0,-4v8" fill="none" stroke="white" stroke-width="1.5" pointer-events="none"/>
  </g>
  <g id="zoomMin">
    <use xlink:href="#rim" fill="#404040"><set attributeName="fill" to="#808080" begin="zoomminus.mouseover" end="zoomminus.mouseout"/></use>
    <path d="M-4,0h8" fill="none" stroke="white" stroke-width="1.5" pointer-events="none"/>
  </g>
  <g id="arrowUp" transform="translate(30 24)">
    <use xlink:href="#rim"/>
    <path pointer-events="none" fill="none" stroke="white" stroke-width="1.5" d="M0,-3.0v7 M-2.5,-0.5L0,-3.0L2.5,-0.5"/>
  </g>
  <g id="arrowRight" transform="rotate(90) translate(36 -43)">
    <use xlink:href="#rim"/>
    <path pointer-events="none" fill="none" stroke="white" stroke-width="1.5" d="M0,-3.0v7 M-2.5,-0.5L0,-3.0L2.5,-0.5"/>
  </g>
  <g id="arrowDown" transform="rotate(180) translate(-30 -48)">
    <use xlink:href="#rim"/>
    <path pointer-events="none" fill="none" stroke="white" stroke-width="1.5" d="M0,-3.0v7 M-2.5,-0.5L0,-3.0L2.5,-0.5"/>
  </g>
  <g id="arrowLeft" transform="rotate(270) translate(-36 17)">
    <use xlink:href="#rim"/>
    <path pointer-events="none" fill="none" stroke="white" stroke-width="1.5" d="M0,-3.0v7 M-2.5,-0.5L0,-3.0L2.5,-0.5"/>
  </g>
  <g id="resetDef">
    <use xlink:href="#rim2" fill="#404040"><set attributeName="fill" to="#808080" begin="reset.mouseover" end="reset.mouseout"/></use>
  </g>
</defs>
<script type="application/ecmascript">
var viewWidth = 1404;
var viewHeight = 451;
var sectionId = 'dynsection-1';
</script>
<script type="application/ecmascript" xlink:href="../../svg.min.js"/>
<svg id="graph" class="graph">
<g id="viewport">
<title>v8::internal::TurbofanFrame</title>
<!-- Node1 -->
<g id="Node000001" class="node">
<title>Node1</title>
<g id="a_Node000001"><a xlink:title=" ">
<polygon fill="#999999" stroke="none" points="1396,-279.5 1216,-279.5 1216,-163.5 1396,-163.5 1396,-279.5"/>
<text text-anchor="start" x="1225" y="-266" font-family="Cascadia Code NF" font-size="10.00">v8::internal::TurbofanFrame</text>
<text text-anchor="start" x="1303" y="-250" font-family="Cascadia Code NF" font-size="10.00"> </text>
<text text-anchor="start" x="1220" y="-234" font-family="Cascadia Code NF" font-size="10.00">+</text>
<text text-anchor="start" x="1230" y="-234" font-family="Cascadia Code NF" font-size="10.00">type()</text>
<text text-anchor="start" x="1220" y="-218" font-family="Cascadia Code NF" font-size="10.00">+</text>
<text text-anchor="start" x="1230" y="-218" font-family="Cascadia Code NF" font-size="10.00">ComputeParametersCount()</text>
<text text-anchor="start" x="1220" y="-202" font-family="Cascadia Code NF" font-size="10.00">+</text>
<text text-anchor="start" x="1230" y="-202" font-family="Cascadia Code NF" font-size="10.00">Iterate()</text>
<text text-anchor="start" x="1220" y="-186" font-family="Cascadia Code NF" font-size="10.00">+</text>
<text text-anchor="start" x="1230" y="-186" font-family="Cascadia Code NF" font-size="10.00">FindReturnPCForTrampoline()</text>
<text text-anchor="start" x="1220" y="-170" font-family="Cascadia Code NF" font-size="10.00">#</text>
<text text-anchor="start" x="1230" y="-170" font-family="Cascadia Code NF" font-size="10.00">TurbofanFrame()</text>
<polygon fill="#666666" stroke="#666666" points="1216,-261.5 1216,-261.5 1396,-261.5 1396,-261.5 1216,-261.5"/>
<polygon fill="#666666" stroke="#666666" points="1216,-245.5 1216,-245.5 1396,-245.5 1396,-245.5 1216,-245.5"/>
<polygon fill="none" stroke="#666666" points="1216,-163.5 1216,-279.5 1396,-279.5 1396,-163.5 1216,-163.5"/>
</a>
</g>
</g>
<!-- Node2 -->
<g id="Node000002" class="node">
<title>Node2</title>
<g id="a_Node000002"><a xlink:href="../../de/d9f/classv8_1_1internal_1_1OptimizedFrame.html" target="_top" xlink:title=" ">
<polygon fill="white" stroke="none" points="1180,-302 988,-302 988,-141 1180,-141 1180,-302"/>
<text text-anchor="start" x="1000" y="-288.5" font-family="Cascadia Code NF" font-size="10.00">v8::internal::OptimizedFrame</text>
<text text-anchor="start" x="1081" y="-272.5" font-family="Cascadia Code NF" font-size="10.00"> </text>
<text text-anchor="start" x="992" y="-256.5" font-family="Cascadia Code NF" font-size="10.00">+</text>
<text text-anchor="start" x="1002" y="-256.5" font-family="Cascadia Code NF" font-size="10.00">GetFunctions()</text>
<text text-anchor="start" x="992" y="-240.5" font-family="Cascadia Code NF" font-size="10.00">+</text>
<text text-anchor="start" x="1002" y="-240.5" font-family="Cascadia Code NF" font-size="10.00">Summarize()</text>
<text text-anchor="start" x="992" y="-224.5" font-family="Cascadia Code NF" font-size="10.00">+</text>
<text text-anchor="start" x="1002" y="-224.5" font-family="Cascadia Code NF" font-size="10.00">GetDeoptimizationData()</text>
<text text-anchor="start" x="992" y="-208.5" font-family="Cascadia Code NF" font-size="10.00">+</text>
<text text-anchor="start" x="1002" y="-208.5" font-family="Cascadia Code NF" font-size="10.00">LookupExceptionHandlerIn</text>
<text text-anchor="start" x="1002" y="-195.75" font-family="Cascadia Code NF" font-size="10.00">Table()</text>
<text text-anchor="start" x="992" y="-179.5" font-family="Cascadia Code NF" font-size="10.00">+</text>
<text text-anchor="start" x="1002" y="-179.5" font-family="Cascadia Code NF" font-size="10.00">FindReturnPCForTrampoline()</text>
<text text-anchor="start" x="992" y="-163.5" font-family="Cascadia Code NF" font-size="10.00">+</text>
<text text-anchor="start" x="1002" y="-163.5" font-family="Cascadia Code NF" font-size="10.00">StackSlotOffsetRelativeToFp()</text>
<text text-anchor="start" x="992" y="-147.5" font-family="Cascadia Code NF" font-size="10.00">#</text>
<text text-anchor="start" x="1002" y="-147.5" font-family="Cascadia Code NF" font-size="10.00">OptimizedFrame()</text>
<polygon fill="#bfbfbf" stroke="#bfbfbf" points="988,-284 988,-284 1180,-284 1180,-284 988,-284"/>
<polygon fill="#bfbfbf" stroke="#bfbfbf" points="988,-268 988,-268 1180,-268 1180,-268 988,-268"/>
<polygon fill="none" stroke="#bfbfbf" points="988,-141 988,-302 1180,-302 1180,-141 988,-141"/>
</a>
</g>
</g>
<!-- Node2&#45;&gt;Node1 -->
<g id="edge1_Node000001_Node000002" class="edge">
<title>Node2&#45;&gt;Node1</title>
<g id="a_edge1_Node000001_Node000002"><a xlink:title=" ">
<path fill="none" stroke="#63b8ff" d="M1191.29,-221.5C1199.67,-221.5 1208.08,-221.5 1216.33,-221.5"/>
<polygon fill="none" stroke="#63b8ff" points="1191.41,-218 1181.41,-221.5 1191.41,-225 1191.41,-218"/>
</a>
</g>
</g>
<!-- Node3 -->
<g id="Node000003" class="node">
<title>Node3</title>
<g id="a_Node000003"><a xlink:href="../../d1/d70/classv8_1_1internal_1_1JavaScriptFrame.html" target="_top" xlink:title=" ">
<polygon fill="white" stroke="none" points="952,-443 790,-443 790,0 952,0 952,-443"/>
<text text-anchor="start" x="799" y="-429.5" font-family="Cascadia Code NF" font-size="10.00">v8::internal::JavaScript</text>
<text text-anchor="start" x="856" y="-416.75" font-family="Cascadia Code NF" font-size="10.00">Frame</text>
<text text-anchor="start" x="868" y="-400.5" font-family="Cascadia Code NF" font-size="10.00"> </text>
<text text-anchor="start" x="794" y="-384.5" font-family="Cascadia Code NF" font-size="10.00">+</text>
<text text-anchor="start" x="804" y="-384.5" font-family="Cascadia Code NF" font-size="10.00">type()</text>
<text text-anchor="start" x="794" y="-368.5" font-family="Cascadia Code NF" font-size="10.00">+</text>
<text text-anchor="start" x="804" y="-368.5" font-family="Cascadia Code NF" font-size="10.00">function()</text>
<text text-anchor="start" x="794" y="-352.5" font-family="Cascadia Code NF" font-size="10.00">+</text>
<text text-anchor="start" x="804" y="-352.5" font-family="Cascadia Code NF" font-size="10.00">unchecked_function()</text>
<text text-anchor="start" x="794" y="-336.5" font-family="Cascadia Code NF" font-size="10.00">+</text>
<text text-anchor="start" x="804" y="-336.5" font-family="Cascadia Code NF" font-size="10.00">script()</text>
<text text-anchor="start" x="794" y="-320.5" font-family="Cascadia Code NF" font-size="10.00">+</text>
<text text-anchor="start" x="804" y="-320.5" font-family="Cascadia Code NF" font-size="10.00">context()</text>
<text text-anchor="start" x="794" y="-304.5" font-family="Cascadia Code NF" font-size="10.00">+</text>
<text text-anchor="start" x="804" y="-304.5" font-family="Cascadia Code NF" font-size="10.00">GetActualArgumentCount()</text>
<text text-anchor="start" x="794" y="-288.5" font-family="Cascadia Code NF" font-size="10.00">+</text>
<text text-anchor="start" x="804" y="-288.5" font-family="Cascadia Code NF" font-size="10.00">set_receiver()</text>
<text text-anchor="start" x="794" y="-272.5" font-family="Cascadia Code NF" font-size="10.00">+</text>
<text text-anchor="start" x="804" y="-272.5" font-family="Cascadia Code NF" font-size="10.00">SetParameterValue()</text>
<text text-anchor="start" x="794" y="-256.5" font-family="Cascadia Code NF" font-size="10.00">+</text>
<text text-anchor="start" x="804" y="-256.5" font-family="Cascadia Code NF" font-size="10.00">IsConstructor()</text>
<text text-anchor="start" x="794" y="-240.5" font-family="Cascadia Code NF" font-size="10.00">+</text>
<text text-anchor="start" x="804" y="-240.5" font-family="Cascadia Code NF" font-size="10.00">Iterate()</text>
<text text-anchor="start" x="794" y="-224.5" font-family="Cascadia Code NF" font-size="10.00">+</text>
<text text-anchor="start" x="804" y="-224.5" font-family="Cascadia Code NF" font-size="10.00">Print()</text>
<text text-anchor="start" x="794" y="-208.5" font-family="Cascadia Code NF" font-size="10.00">+</text>
<text text-anchor="start" x="804" y="-208.5" font-family="Cascadia Code NF" font-size="10.00">GetFunctions()</text>
<text text-anchor="start" x="794" y="-192.5" font-family="Cascadia Code NF" font-size="10.00">+</text>
<text text-anchor="start" x="804" y="-192.5" font-family="Cascadia Code NF" font-size="10.00">GetFunctions()</text>
<text text-anchor="start" x="794" y="-176.5" font-family="Cascadia Code NF" font-size="10.00">+</text>
<text text-anchor="start" x="804" y="-176.5" font-family="Cascadia Code NF" font-size="10.00">fp_register()</text>
<text text-anchor="start" x="794" y="-160.5" font-family="Cascadia Code NF" font-size="10.00">+</text>
<text text-anchor="start" x="804" y="-160.5" font-family="Cascadia Code NF" font-size="10.00">context_register()</text>
<text text-anchor="start" x="794" y="-144.5" font-family="Cascadia Code NF" font-size="10.00">+</text>
<text text-anchor="start" x="804" y="-144.5" font-family="Cascadia Code NF" font-size="10.00">constant_pool_pointer</text>
<text text-anchor="start" x="804" y="-131.75" font-family="Cascadia Code NF" font-size="10.00">_register()</text>
<text text-anchor="start" x="794" y="-115.5" font-family="Cascadia Code NF" font-size="10.00">+</text>
<text text-anchor="start" x="804" y="-115.5" font-family="Cascadia Code NF" font-size="10.00">cast()</text>
<text text-anchor="start" x="794" y="-99.5" font-family="Cascadia Code NF" font-size="10.00">+</text>
<text text-anchor="start" x="804" y="-99.5" font-family="Cascadia Code NF" font-size="10.00">PrintFunctionAndOffset()</text>
<text text-anchor="start" x="794" y="-83.5" font-family="Cascadia Code NF" font-size="10.00">+</text>
<text text-anchor="start" x="804" y="-83.5" font-family="Cascadia Code NF" font-size="10.00">PrintTop()</text>
<text text-anchor="start" x="794" y="-67.5" font-family="Cascadia Code NF" font-size="10.00">+</text>
<text text-anchor="start" x="804" y="-67.5" font-family="Cascadia Code NF" font-size="10.00">CollectFunctionAndOffset</text>
<text text-anchor="start" x="804" y="-54.75" font-family="Cascadia Code NF" font-size="10.00">ForICStats()</text>
<text text-anchor="start" x="794" y="-38.5" font-family="Cascadia Code NF" font-size="10.00">#</text>
<text text-anchor="start" x="804" y="-38.5" font-family="Cascadia Code NF" font-size="10.00">JavaScriptFrame()</text>
<text text-anchor="start" x="794" y="-22.5" font-family="Cascadia Code NF" font-size="10.00">#</text>
<text text-anchor="start" x="804" y="-22.5" font-family="Cascadia Code NF" font-size="10.00">GetCallerStackPointer()</text>
<text text-anchor="start" x="794" y="-6.5" font-family="Cascadia Code NF" font-size="10.00">#</text>
<text text-anchor="start" x="804" y="-6.5" font-family="Cascadia Code NF" font-size="10.00">PrintFrameKind()</text>
<polygon fill="#bfbfbf" stroke="#bfbfbf" points="790,-412 790,-412 952,-412 952,-412 790,-412"/>
<polygon fill="#bfbfbf" stroke="#bfbfbf" points="790,-396 790,-396 952,-396 952,-396 790,-396"/>
<polygon fill="none" stroke="#bfbfbf" points="790,0 790,-443 952,-443 952,0 790,0"/>
</a>
</g>
</g>
<!-- Node3&#45;&gt;Node2 -->
<g id="edge2_Node000002_Node000003" class="edge">
<title>Node3&#45;&gt;Node2</title>
<g id="a_edge2_Node000002_Node000003"><a xlink:title=" ">
<path fill="none" stroke="#63b8ff" d="M963.05,-221.5C971.39,-221.5 979.85,-221.5 988.22,-221.5"/>
<polygon fill="none" stroke="#63b8ff" points="963.28,-218 953.28,-221.5 963.28,-225 963.28,-218"/>
</a>
</g>
</g>
<!-- Node4 -->
<g id="Node000004" class="node">
<title>Node4</title>
<g id="a_Node000004"><a xlink:href="../../d0/d7c/classv8_1_1internal_1_1CommonFrameWithJSLinkage.html" target="_top" xlink:title=" ">
<polygon fill="white" stroke="none" points="754,-356.5 580,-356.5 580,-86.5 754,-86.5 754,-356.5"/>
<text text-anchor="start" x="592" y="-343" font-family="Cascadia Code NF" font-size="10.00">v8::internal::CommonFrame</text>
<text text-anchor="start" x="628" y="-330.25" font-family="Cascadia Code NF" font-size="10.00">WithJSLinkage</text>
<text text-anchor="start" x="664" y="-314" font-family="Cascadia Code NF" font-size="10.00"> </text>
<text text-anchor="start" x="584" y="-298" font-family="Cascadia Code NF" font-size="10.00">+</text>
<text text-anchor="start" x="594" y="-298" font-family="Cascadia Code NF" font-size="10.00">function()</text>
<text text-anchor="start" x="584" y="-282" font-family="Cascadia Code NF" font-size="10.00">+</text>
<text text-anchor="start" x="594" y="-282" font-family="Cascadia Code NF" font-size="10.00">receiver()</text>
<text text-anchor="start" x="584" y="-266" font-family="Cascadia Code NF" font-size="10.00">+</text>
<text text-anchor="start" x="594" y="-266" font-family="Cascadia Code NF" font-size="10.00">GetParameter()</text>
<text text-anchor="start" x="584" y="-250" font-family="Cascadia Code NF" font-size="10.00">+</text>
<text text-anchor="start" x="594" y="-250" font-family="Cascadia Code NF" font-size="10.00">ComputeParametersCount()</text>
<text text-anchor="start" x="584" y="-234" font-family="Cascadia Code NF" font-size="10.00">+</text>
<text text-anchor="start" x="594" y="-234" font-family="Cascadia Code NF" font-size="10.00">GetParameters()</text>
<text text-anchor="start" x="584" y="-218" font-family="Cascadia Code NF" font-size="10.00">+</text>
<text text-anchor="start" x="594" y="-218" font-family="Cascadia Code NF" font-size="10.00">GetActualArgumentCount()</text>
<text text-anchor="start" x="584" y="-202" font-family="Cascadia Code NF" font-size="10.00">+</text>
<text text-anchor="start" x="594" y="-202" font-family="Cascadia Code NF" font-size="10.00">unchecked_code()</text>
<text text-anchor="start" x="584" y="-186" font-family="Cascadia Code NF" font-size="10.00">+</text>
<text text-anchor="start" x="594" y="-186" font-family="Cascadia Code NF" font-size="10.00">LookupExceptionHandlerIn</text>
<text text-anchor="start" x="594" y="-173.25" font-family="Cascadia Code NF" font-size="10.00">Table()</text>
<text text-anchor="start" x="584" y="-157" font-family="Cascadia Code NF" font-size="10.00">+</text>
<text text-anchor="start" x="594" y="-157" font-family="Cascadia Code NF" font-size="10.00">IsConstructor()</text>
<text text-anchor="start" x="584" y="-141" font-family="Cascadia Code NF" font-size="10.00">+</text>
<text text-anchor="start" x="594" y="-141" font-family="Cascadia Code NF" font-size="10.00">Summarize()</text>
<text text-anchor="start" x="584" y="-125" font-family="Cascadia Code NF" font-size="10.00">#</text>
<text text-anchor="start" x="594" y="-125" font-family="Cascadia Code NF" font-size="10.00">CommonFrameWithJSLinkage()</text>
<text text-anchor="start" x="584" y="-109" font-family="Cascadia Code NF" font-size="10.00">#</text>
<text text-anchor="start" x="594" y="-109" font-family="Cascadia Code NF" font-size="10.00">GetParameterSlot()</text>
<text text-anchor="start" x="584" y="-93" font-family="Cascadia Code NF" font-size="10.00">#</text>
<text text-anchor="start" x="594" y="-93" font-family="Cascadia Code NF" font-size="10.00">IsConstructFrame()</text>
<polygon fill="#bfbfbf" stroke="#bfbfbf" points="580,-325.5 580,-325.5 754,-325.5 754,-325.5 580,-325.5"/>
<polygon fill="#bfbfbf" stroke="#bfbfbf" points="580,-309.5 580,-309.5 754,-309.5 754,-309.5 580,-309.5"/>
<polygon fill="none" stroke="#bfbfbf" points="580,-86.5 580,-356.5 754,-356.5 754,-86.5 580,-86.5"/>
</a>
</g>
</g>
<!-- Node4&#45;&gt;Node3 -->
<g id="edge3_Node000003_Node000004" class="edge">
<title>Node4&#45;&gt;Node3</title>
<g id="a_edge3_Node000003_Node000004"><a xlink:title=" ">
<path fill="none" stroke="#63b8ff" d="M765.3,-221.5C773.64,-221.5 782.02,-221.5 790.21,-221.5"/>
<polygon fill="none" stroke="#63b8ff" points="765.47,-218 755.47,-221.5 765.47,-225 765.47,-218"/>
</a>
</g>
</g>
<!-- Node5 -->
<g id="Node000005" class="node">
<title>Node5</title>
<g id="a_Node000005"><a xlink:href="../../d1/d1f/classv8_1_1internal_1_1CommonFrame.html" target="_top" xlink:title=" ">
<polygon fill="white" stroke="none" points="544,-374 376,-374 376,-69 544,-69 544,-374"/>
<text text-anchor="start" x="385" y="-360.5" font-family="Cascadia Code NF" font-size="10.00">v8::internal::CommonFrame</text>
<text text-anchor="start" x="457" y="-344.5" font-family="Cascadia Code NF" font-size="10.00"> </text>
<text text-anchor="start" x="380" y="-328.5" font-family="Cascadia Code NF" font-size="10.00">+</text>
<text text-anchor="start" x="390" y="-328.5" font-family="Cascadia Code NF" font-size="10.00">context()</text>
<text text-anchor="start" x="380" y="-312.5" font-family="Cascadia Code NF" font-size="10.00">+</text>
<text text-anchor="start" x="390" y="-312.5" font-family="Cascadia Code NF" font-size="10.00">position()</text>
<text text-anchor="start" x="380" y="-296.5" font-family="Cascadia Code NF" font-size="10.00">+</text>
<text text-anchor="start" x="390" y="-296.5" font-family="Cascadia Code NF" font-size="10.00">GetExpression()</text>
<text text-anchor="start" x="380" y="-280.5" font-family="Cascadia Code NF" font-size="10.00">+</text>
<text text-anchor="start" x="390" y="-280.5" font-family="Cascadia Code NF" font-size="10.00">SetExpression()</text>
<text text-anchor="start" x="380" y="-264.5" font-family="Cascadia Code NF" font-size="10.00">+</text>
<text text-anchor="start" x="390" y="-264.5" font-family="Cascadia Code NF" font-size="10.00">ComputeExpressionsCount()</text>
<text text-anchor="start" x="380" y="-248.5" font-family="Cascadia Code NF" font-size="10.00">+</text>
<text text-anchor="start" x="390" y="-248.5" font-family="Cascadia Code NF" font-size="10.00">GetCallerStackPointer()</text>
<text text-anchor="start" x="380" y="-232.5" font-family="Cascadia Code NF" font-size="10.00">+</text>
<text text-anchor="start" x="390" y="-232.5" font-family="Cascadia Code NF" font-size="10.00">Summarize()</text>
<text text-anchor="start" x="380" y="-216.5" font-family="Cascadia Code NF" font-size="10.00">+</text>
<text text-anchor="start" x="390" y="-216.5" font-family="Cascadia Code NF" font-size="10.00">cast()</text>
<text text-anchor="start" x="380" y="-200.5" font-family="Cascadia Code NF" font-size="10.00">#</text>
<text text-anchor="start" x="390" y="-200.5" font-family="Cascadia Code NF" font-size="10.00">CommonFrame()</text>
<text text-anchor="start" x="380" y="-184.5" font-family="Cascadia Code NF" font-size="10.00">#</text>
<text text-anchor="start" x="390" y="-184.5" font-family="Cascadia Code NF" font-size="10.00">HasTaggedOutgoingParams()</text>
<text text-anchor="start" x="380" y="-168.5" font-family="Cascadia Code NF" font-size="10.00">#</text>
<text text-anchor="start" x="390" y="-168.5" font-family="Cascadia Code NF" font-size="10.00">ComputeCallerState()</text>
<text text-anchor="start" x="380" y="-152.5" font-family="Cascadia Code NF" font-size="10.00">#</text>
<text text-anchor="start" x="390" y="-152.5" font-family="Cascadia Code NF" font-size="10.00">caller_fp()</text>
<text text-anchor="start" x="380" y="-136.5" font-family="Cascadia Code NF" font-size="10.00">#</text>
<text text-anchor="start" x="390" y="-136.5" font-family="Cascadia Code NF" font-size="10.00">caller_pc()</text>
<text text-anchor="start" x="380" y="-120.5" font-family="Cascadia Code NF" font-size="10.00">#</text>
<text text-anchor="start" x="390" y="-120.5" font-family="Cascadia Code NF" font-size="10.00">IterateExpressions()</text>
<text text-anchor="start" x="380" y="-104.5" font-family="Cascadia Code NF" font-size="10.00">#</text>
<text text-anchor="start" x="390" y="-104.5" font-family="Cascadia Code NF" font-size="10.00">IterateTurbofanOptimized</text>
<text text-anchor="start" x="390" y="-91.75" font-family="Cascadia Code NF" font-size="10.00">Frame()</text>
<text text-anchor="start" x="380" y="-75.5" font-family="Cascadia Code NF" font-size="10.00">#</text>
<text text-anchor="start" x="390" y="-75.5" font-family="Cascadia Code NF" font-size="10.00">GetExpressionAddress()</text>
<polygon fill="#bfbfbf" stroke="#bfbfbf" points="376,-356 376,-356 544,-356 544,-356 376,-356"/>
<polygon fill="#bfbfbf" stroke="#bfbfbf" points="376,-340 376,-340 544,-340 544,-340 376,-340"/>
<polygon fill="none" stroke="#bfbfbf" points="376,-69 376,-374 544,-374 544,-69 376,-69"/>
</a>
</g>
</g>
<!-- Node5&#45;&gt;Node4 -->
<g id="edge4_Node000004_Node000005" class="edge">
<title>Node5&#45;&gt;Node4</title>
<g id="a_edge4_Node000004_Node000005"><a xlink:title=" ">
<path fill="none" stroke="#63b8ff" d="M555.13,-221.5C563.5,-221.5 571.94,-221.5 580.23,-221.5"/>
<polygon fill="none" stroke="#63b8ff" points="555.3,-218 545.3,-221.5 555.3,-225 555.3,-218"/>
</a>
</g>
</g>
<!-- Node6 -->
<g id="Node000006" class="node">
<title>Node6</title>
<g id="a_Node000006"><a xlink:href="../../d0/d2d/classv8_1_1internal_1_1StackFrame.html" target="_top" xlink:title=" ">
<polygon fill="white" stroke="none" points="340,-422 142,-422 142,-21 340,-21 340,-422"/>
<text text-anchor="start" x="169" y="-408.5" font-family="Cascadia Code NF" font-size="10.00">v8::internal::StackFrame</text>
<text text-anchor="start" x="238" y="-392.5" font-family="Cascadia Code NF" font-size="10.00"> </text>
<text text-anchor="start" x="146" y="-376.5" font-family="Cascadia Code NF" font-size="10.00">+</text>
<text text-anchor="start" x="156" y="-376.5" font-family="Cascadia Code NF" font-size="10.00">StackFrame()</text>
<text text-anchor="start" x="146" y="-360.5" font-family="Cascadia Code NF" font-size="10.00">+</text>
<text text-anchor="start" x="156" y="-360.5" font-family="Cascadia Code NF" font-size="10.00">is_entry()</text>
<text text-anchor="start" x="146" y="-344.5" font-family="Cascadia Code NF" font-size="10.00">+</text>
<text text-anchor="start" x="156" y="-344.5" font-family="Cascadia Code NF" font-size="10.00">is_construct_entry()</text>
<text text-anchor="start" x="146" y="-328.5" font-family="Cascadia Code NF" font-size="10.00">+</text>
<text text-anchor="start" x="156" y="-328.5" font-family="Cascadia Code NF" font-size="10.00">is_exit()</text>
<text text-anchor="start" x="146" y="-312.5" font-family="Cascadia Code NF" font-size="10.00">+</text>
<text text-anchor="start" x="156" y="-312.5" font-family="Cascadia Code NF" font-size="10.00">is_optimized()</text>
<text text-anchor="start" x="146" y="-296.5" font-family="Cascadia Code NF" font-size="10.00">+</text>
<text text-anchor="start" x="156" y="-296.5" font-family="Cascadia Code NF" font-size="10.00">is_unoptimized()</text>
<text text-anchor="start" x="146" y="-280.5" font-family="Cascadia Code NF" font-size="10.00">+</text>
<text text-anchor="start" x="156" y="-280.5" font-family="Cascadia Code NF" font-size="10.00">is_interpreted()</text>
<text text-anchor="start" x="146" y="-264.5" font-family="Cascadia Code NF" font-size="10.00">+</text>
<text text-anchor="start" x="156" y="-264.5" font-family="Cascadia Code NF" font-size="10.00">is_baseline()</text>
<text text-anchor="start" x="146" y="-248.5" font-family="Cascadia Code NF" font-size="10.00">+</text>
<text text-anchor="start" x="156" y="-248.5" font-family="Cascadia Code NF" font-size="10.00">is_maglev()</text>
<text text-anchor="start" x="146" y="-232.5" font-family="Cascadia Code NF" font-size="10.00">+</text>
<text text-anchor="start" x="156" y="-232.5" font-family="Cascadia Code NF" font-size="10.00">is_turbofan()</text>
<text text-anchor="start" x="156" y="-216.5" font-family="Cascadia Code NF" font-size="10.00">and 35 more...</text>
<text text-anchor="start" x="146" y="-200.5" font-family="Cascadia Code NF" font-size="10.00">+</text>
<text text-anchor="start" x="156" y="-200.5" font-family="Cascadia Code NF" font-size="10.00">TypeToMarker()</text>
<text text-anchor="start" x="146" y="-184.5" font-family="Cascadia Code NF" font-size="10.00">+</text>
<text text-anchor="start" x="156" y="-184.5" font-family="Cascadia Code NF" font-size="10.00">MarkerToType()</text>
<text text-anchor="start" x="146" y="-168.5" font-family="Cascadia Code NF" font-size="10.00">+</text>
<text text-anchor="start" x="156" y="-168.5" font-family="Cascadia Code NF" font-size="10.00">IsTypeMarker()</text>
<text text-anchor="start" x="146" y="-152.5" font-family="Cascadia Code NF" font-size="10.00">+</text>
<text text-anchor="start" x="156" y="-152.5" font-family="Cascadia Code NF" font-size="10.00">IsJavaScript()</text>
<text text-anchor="start" x="146" y="-136.5" font-family="Cascadia Code NF" font-size="10.00">+</text>
<text text-anchor="start" x="156" y="-136.5" font-family="Cascadia Code NF" font-size="10.00">unauthenticated_pc()</text>
<text text-anchor="start" x="146" y="-120.5" font-family="Cascadia Code NF" font-size="10.00">+</text>
<text text-anchor="start" x="156" y="-120.5" font-family="Cascadia Code NF" font-size="10.00">maybe_unauthenticated_pc()</text>
<text text-anchor="start" x="146" y="-104.5" font-family="Cascadia Code NF" font-size="10.00">+</text>
<text text-anchor="start" x="156" y="-104.5" font-family="Cascadia Code NF" font-size="10.00">SetReturnAddressLocation</text>
<text text-anchor="start" x="156" y="-91.75" font-family="Cascadia Code NF" font-size="10.00">Resolver()</text>
<text text-anchor="start" x="146" y="-75.5" font-family="Cascadia Code NF" font-size="10.00">+</text>
<text text-anchor="start" x="156" y="-75.5" font-family="Cascadia Code NF" font-size="10.00">ReadPC()</text>
<text text-anchor="start" x="146" y="-59.5" font-family="Cascadia Code NF" font-size="10.00">+</text>
<text text-anchor="start" x="156" y="-59.5" font-family="Cascadia Code NF" font-size="10.00">ResolveReturnAddressLocation()</text>
<text text-anchor="start" x="146" y="-43.5" font-family="Cascadia Code NF" font-size="10.00">#</text>
<text text-anchor="start" x="156" y="-43.5" font-family="Cascadia Code NF" font-size="10.00">StackFrame()</text>
<text text-anchor="start" x="146" y="-27.5" font-family="Cascadia Code NF" font-size="10.00">#</text>
<text text-anchor="start" x="156" y="-27.5" font-family="Cascadia Code NF" font-size="10.00">GetCallerStackPointer()</text>
<polygon fill="#bfbfbf" stroke="#bfbfbf" points="142,-404 142,-404 340,-404 340,-404 142,-404"/>
<polygon fill="#bfbfbf" stroke="#bfbfbf" points="142,-388 142,-388 340,-388 340,-388 142,-388"/>
<polygon fill="none" stroke="#bfbfbf" points="142,-21 142,-422 340,-422 340,-21 142,-21"/>
</a>
</g>
</g>
<!-- Node6&#45;&gt;Node5 -->
<g id="edge5_Node000005_Node000006" class="edge">
<title>Node6&#45;&gt;Node5</title>
<g id="a_edge5_Node000005_Node000006"><a xlink:title=" ">
<path fill="none" stroke="#63b8ff" d="M351.13,-221.5C359.52,-221.5 367.91,-221.5 376.09,-221.5"/>
<polygon fill="none" stroke="#63b8ff" points="351.22,-218 341.22,-221.5 351.22,-225 351.22,-218"/>
</a>
</g>
</g>
<!-- Node7 -->
<g id="Node000007" class="node">
<title>Node7</title>
<g id="a_Node000007"><a xlink:title=" ">
<polygon fill="white" stroke="none" points="40,-247.5 0,-247.5 0,-195.5 40,-195.5 40,-247.5"/>
<text text-anchor="start" x="5" y="-234" font-family="Cascadia Code NF" font-size="10.00">const</text>
<text text-anchor="start" x="17" y="-218" font-family="Cascadia Code NF" font-size="10.00"> </text>
<text text-anchor="start" x="17" y="-202" font-family="Cascadia Code NF" font-size="10.00"> </text>
<polygon fill="#bfbfbf" stroke="#bfbfbf" points="0,-229.5 0,-229.5 40,-229.5 40,-229.5 0,-229.5"/>
<polygon fill="#bfbfbf" stroke="#bfbfbf" points="0,-213.5 0,-213.5 40,-213.5 40,-213.5 0,-213.5"/>
<polygon fill="none" stroke="#bfbfbf" points="0,-195.5 0,-247.5 40,-247.5 40,-195.5 0,-195.5"/>
</a>
</g>
</g>
<!-- Node7&#45;&gt;Node6 -->
<g id="edge6_Node000006_Node000007" class="edge">
<title>Node7&#45;&gt;Node6</title>
<g id="a_edge6_Node000006_Node000007"><a xlink:title=" ">
<path fill="none" stroke="#63b8ff" d="M39.67,-221.5C60.12,-221.5 94.65,-221.5 129.34,-221.5"/>
<polygon fill="none" stroke="#63b8ff" points="129.2,-221.5 135.2,-217.5 141.2,-221.5 135.2,-225.5 129.2,-221.5"/>
</a>
</g>
<text text-anchor="middle" x="91" y="-224.75" font-family="Cascadia Code NF" font-size="10.00" fill="grey"> #iterator_</text>
</g>
</g>
</svg>

<g id="navigator" transform="translate(0 0)" fill="#404254">
  <rect fill="#f2f5e9" fill-opacity="0.5" stroke="#606060" stroke-width=".5" x="0" y="0" width="60" height="60"/>
  <use id="zoomplus" xlink:href="#zoomPlus" x="17" y="9" onmousedown="handleZoom(evt,'in')"/>
  <use id="zoomminus" xlink:href="#zoomMin" x="42" y="9" onmousedown="handleZoom(evt,'out')"/>
  <use id="reset" xlink:href="#resetDef" x="30" y="36" onmousedown="handleReset()"/>
   <use id="arrowup" xlink:href="#arrowUp" x="0" y="0" onmousedown="handlePan(0,-1)"/>
  <use id="arrowright" xlink:href="#arrowRight" x="0" y="0" onmousedown="handlePan(1,0)"/>
  <use id="arrowdown" xlink:href="#arrowDown" x="0" y="0" onmousedown="handlePan(0,1)"/>
  <use id="arrowleft" xlink:href="#arrowLeft" x="0" y="0" onmousedown="handlePan(-1,0)"/>
</g>
<svg viewBox="0 0 15 15" width="100%" height="30px" preserveAspectRatio="xMaxYMin meet">
 <g id="arrow_out" transform="scale(0.3 0.3)">
  <a xlink:href="classv8_1_1internal_1_1TurbofanFrame__coll__graph_org.svg" target="_base">
   <rect id="button" ry="5" rx="5" y="6" x="6" height="38" width="38"
        fill="#f2f5e9" fill-opacity="0.5" stroke="#606060" stroke-width="1.0"/>
   <path id="arrow"
     d="M 11.500037,31.436501 C 11.940474,20.09759 22.043105,11.32322 32.158766,21.979434 L 37.068811,17.246167 C 37.068811,17.246167 37.088388,32 37.088388,32 L 22.160133,31.978069 C 22.160133,31.978069 26.997745,27.140456 26.997745,27.140456 C 18.528582,18.264221 13.291696,25.230495 11.500037,31.436501 z"
     style="fill:#404040;"/>
  </a>
 </g>
</svg>

<style type='text/css'>
<![CDATA[
[data-mouse-over-selected='false'] { opacity: 0.7; }
[data-mouse-over-selected='true']  { opacity: 1.0; }
]]>
</style>
<script type="application/ecmascript"><![CDATA[
document.addEventListener('DOMContentLoaded', (event) => {
  highlightEdges();
  highlightAdjacentNodes();
});
]]></script>
</svg>
