<?xml version="1.0" encoding="UTF-8" standalone="no"?>
<!DOCTYPE svg PUBLIC "-//W3C//DTD SVG 1.1//EN"
 "http://www.w3.org/Graphics/SVG/1.1/DTD/svg11.dtd">
<!-- Generated by graphviz version 11.0.0 (20240428.1522)
 -->
<!-- Title: TorqueGeneratedJSReceiver&lt; D, P &gt; Pages: 1 -->
<svg width="414pt" height="185pt"
 viewBox="0.00 0.00 414.00 185.00" xmlns="http://www.w3.org/2000/svg" xmlns:xlink="http://www.w3.org/1999/xlink">

<svg id="main" version="1.1" xmlns="http://www.w3.org/2000/svg" xmlns:xlink="http://www.w3.org/1999/xlink" xml:space="preserve" onload="init(evt)">
<style type="text/css"><![CDATA[
.node, .edge {opacity: 0.7;}
.node.selected, .edge.selected {opacity: 1;}
.edge:hover path { stroke: red; }
.edge:hover polygon { stroke: red; fill: red; }
svg#main { background-color: #111; }
]]></style>
<script type="application/ecmascript" xlink:href="../../svg.min.js"/>
<svg id="graph" class="graph">
<g id="graph0" class="graph" transform="scale(1 1) rotate(0) translate(4 181)">
<title>TorqueGeneratedJSReceiver&lt; D, P &gt;</title>
<!-- Node1 -->
<g id="Node000001" class="node">
<title>Node1</title>
<g id="a_Node000001"><a xlink:title=" ">
<polygon fill="#999999" stroke="none" points="406,-177 226,-177 226,0 406,0 406,-177"/>
<text text-anchor="start" x="241" y="-163.5" font-family="Cascadia Code NF" font-size="10.00">TorqueGeneratedJSReceiver</text>
<text text-anchor="start" x="292" y="-150.75" font-family="Cascadia Code NF" font-size="10.00">&lt; D, P &gt;</text>
<text text-anchor="start" x="313" y="-134.5" font-family="Cascadia Code NF" font-size="10.00"> </text>
<text text-anchor="start" x="230" y="-118.5" font-family="Cascadia Code NF" font-size="10.00">+</text>
<text text-anchor="start" x="240" y="-118.5" font-family="Cascadia Code NF" font-size="10.00">properties_or_hash()</text>
<text text-anchor="start" x="230" y="-102.5" font-family="Cascadia Code NF" font-size="10.00">+</text>
<text text-anchor="start" x="240" y="-102.5" font-family="Cascadia Code NF" font-size="10.00">properties_or_hash()</text>
<text text-anchor="start" x="230" y="-86.5" font-family="Cascadia Code NF" font-size="10.00">+</text>
<text text-anchor="start" x="240" y="-86.5" font-family="Cascadia Code NF" font-size="10.00">set_properties_or_hash()</text>
<text text-anchor="start" x="230" y="-70.5" font-family="Cascadia Code NF" font-size="10.00">+</text>
<text text-anchor="start" x="240" y="-70.5" font-family="Cascadia Code NF" font-size="10.00">TorqueGeneratedJSReceiver()</text>
<text text-anchor="start" x="230" y="-54.5" font-family="Cascadia Code NF" font-size="10.00">+</text>
<text text-anchor="start" x="240" y="-54.5" font-family="Cascadia Code NF" font-size="10.00">cast()</text>
<text text-anchor="start" x="230" y="-38.5" font-family="Cascadia Code NF" font-size="10.00">+</text>
<text text-anchor="start" x="240" y="-38.5" font-family="Cascadia Code NF" font-size="10.00">unchecked_cast()</text>
<text text-anchor="start" x="230" y="-22.5" font-family="Cascadia Code NF" font-size="10.00">#</text>
<text text-anchor="start" x="240" y="-22.5" font-family="Cascadia Code NF" font-size="10.00">TorqueGeneratedJSReceiver()</text>
<text text-anchor="start" x="230" y="-6.5" font-family="Cascadia Code NF" font-size="10.00">#</text>
<text text-anchor="start" x="240" y="-6.5" font-family="Cascadia Code NF" font-size="10.00">TorqueGeneratedJSReceiver()</text>
<polygon fill="#666666" stroke="#666666" points="226,-146 226,-146 406,-146 406,-146 226,-146"/>
<polygon fill="#666666" stroke="#666666" points="226,-130 226,-130 406,-130 406,-130 226,-130"/>
<polygon fill="none" stroke="#666666" points="226,0 226,-177 406,-177 406,0 226,0"/>
</a>
</g>
</g>
<!-- Node2 -->
<g id="Node000002" class="node">
<title>Node2</title>
<g id="a_Node000002"><a xlink:href="../../db/d72/classP.html" target="_top" xlink:title=" ">
<polygon fill="white" stroke="none" points="22,-170.5 6,-170.5 6,-118.5 22,-118.5 22,-170.5"/>
<text text-anchor="start" x="11" y="-157" font-family="Cascadia Code NF" font-size="10.00">P</text>
<text text-anchor="start" x="11" y="-141" font-family="Cascadia Code NF" font-size="10.00"> </text>
<text text-anchor="start" x="11" y="-125" font-family="Cascadia Code NF" font-size="10.00"> </text>
<polygon fill="#bfbfbf" stroke="#bfbfbf" points="6,-152.5 6,-152.5 22,-152.5 22,-152.5 6,-152.5"/>
<polygon fill="#bfbfbf" stroke="#bfbfbf" points="6,-136.5 6,-136.5 22,-136.5 22,-136.5 6,-136.5"/>
<polygon fill="none" stroke="#bfbfbf" points="6,-118.5 6,-170.5 22,-170.5 22,-118.5 6,-118.5"/>
</a>
</g>
</g>
<!-- Node2&#45;&gt;Node1 -->
<g id="edge1_Node000001_Node000002" class="edge">
<title>Node2&#45;&gt;Node1</title>
<g id="a_edge1_Node000001_Node000002"><a xlink:title=" ">
<path fill="none" stroke="#63b8ff" d="M33.04,-143.61C67.41,-141.67 144.53,-136.07 208,-122.5 213.91,-121.24 219.96,-119.78 226.02,-118.2"/>
<polygon fill="none" stroke="#63b8ff" points="33.06,-140.11 23.25,-144.13 33.42,-147.1 33.06,-140.11"/>
</a>
</g>
</g>
<!-- Node3 -->
<g id="Node000003" class="node">
<title>Node3</title>
<g id="a_Node000003"><a xlink:href="../../d1/da0/classint.html" target="_top" xlink:title=" ">
<polygon fill="white" stroke="none" points="28,-58.5 0,-58.5 0,-6.5 28,-6.5 28,-58.5"/>
<text text-anchor="start" x="5" y="-45" font-family="Cascadia Code NF" font-size="10.00">int</text>
<text text-anchor="start" x="11" y="-29" font-family="Cascadia Code NF" font-size="10.00"> </text>
<text text-anchor="start" x="11" y="-13" font-family="Cascadia Code NF" font-size="10.00"> </text>
<polygon fill="#bfbfbf" stroke="#bfbfbf" points="0,-40.5 0,-40.5 28,-40.5 28,-40.5 0,-40.5"/>
<polygon fill="#bfbfbf" stroke="#bfbfbf" points="0,-24.5 0,-24.5 28,-24.5 28,-24.5 0,-24.5"/>
<polygon fill="none" stroke="#bfbfbf" points="0,-6.5 0,-58.5 28,-58.5 28,-6.5 0,-6.5"/>
</a>
</g>
</g>
<!-- Node3&#45;&gt;Node1 -->
<g id="edge2_Node000001_Node000003" class="edge">
<title>Node3&#45;&gt;Node1</title>
<g id="a_edge2_Node000001_Node000003"><a xlink:title=" ">
<path fill="none" stroke="#63b8ff" d="M27.92,-29.95C59.37,-24.25 142.13,-12.23 208,-29.25 209.99,-29.76 211.98,-30.32 213.97,-30.93"/>
<polygon fill="none" stroke="#63b8ff" points="213.97,-30.93 220.95,-29.09 225.33,-34.82 218.35,-36.66 213.97,-30.93"/>
</a>
</g>
<text text-anchor="middle" x="127" y="-109.25" font-family="Cascadia Code NF" font-size="10.00" fill="grey"> +kEndOfStrongFieldsOffset</text>
<text text-anchor="middle" x="127" y="-96.5" font-family="Cascadia Code NF" font-size="10.00" fill="grey">+kEndOfWeakFieldsOffset</text>
<text text-anchor="middle" x="127" y="-83.75" font-family="Cascadia Code NF" font-size="10.00" fill="grey">+kHeaderSize</text>
<text text-anchor="middle" x="127" y="-71" font-family="Cascadia Code NF" font-size="10.00" fill="grey">+kPropertiesOrHashOffset</text>
<text text-anchor="middle" x="127" y="-58.25" font-family="Cascadia Code NF" font-size="10.00" fill="grey">+kPropertiesOrHashOffsetEnd</text>
<text text-anchor="middle" x="127" y="-45.5" font-family="Cascadia Code NF" font-size="10.00" fill="grey">+kStartOfStrongFieldsOffset</text>
<text text-anchor="middle" x="127" y="-32.75" font-family="Cascadia Code NF" font-size="10.00" fill="grey">+kStartOfWeakFieldsOffset</text>
</g>
</g>
</svg>
</svg>

<style type='text/css'>
<![CDATA[
[data-mouse-over-selected='false'] { opacity: 0.7; }
[data-mouse-over-selected='true']  { opacity: 1.0; }
]]>
</style>
<script type="application/ecmascript"><![CDATA[
document.addEventListener('DOMContentLoaded', (event) => {
  highlightEdges();
  highlightAdjacentNodes();
});
]]></script>
</svg>
