<?xml version="1.0" encoding="UTF-8" standalone="no"?>
<!DOCTYPE svg PUBLIC "-//W3C//DTD SVG 1.1//EN"
 "http://www.w3.org/Graphics/SVG/1.1/DTD/svg11.dtd">
<!-- Generated by graphviz version 11.0.0 (20240428.1522)
 -->
<!-- Title: v8::internal::TurboshaftFloat64RangeType Pages: 1 -->
<svg width="590pt" height="493pt"
 viewBox="0.00 0.00 590.00 493.00" xmlns="http://www.w3.org/2000/svg" xmlns:xlink="http://www.w3.org/1999/xlink">
<g id="graph0" class="graph" transform="scale(1 1) rotate(0) translate(4 489)">
<title>v8::internal::TurboshaftFloat64RangeType</title>
<!-- Node1 -->
<g id="Node000001" class="node">
<title>Node1</title>
<g id="a_Node000001"><a xlink:title=" ">
<polygon fill="#999999" stroke="none" points="582,-275 428,-275 428,-210 582,-210 582,-275"/>
<text text-anchor="start" x="433" y="-261.5" font-family="Cascadia Code NF" font-size="10.00">v8::internal::Turboshaft</text>
<text text-anchor="start" x="457" y="-248.75" font-family="Cascadia Code NF" font-size="10.00">Float64RangeType</text>
<text text-anchor="start" x="502" y="-232.5" font-family="Cascadia Code NF" font-size="10.00"> </text>
<text text-anchor="start" x="502" y="-216.5" font-family="Cascadia Code NF" font-size="10.00"> </text>
<polygon fill="#666666" stroke="#666666" points="428,-244 428,-244 582,-244 582,-244 428,-244"/>
<polygon fill="#666666" stroke="#666666" points="428,-228 428,-228 582,-228 582,-228 428,-228"/>
<polygon fill="none" stroke="#666666" points="428,-210 428,-275 582,-275 582,-210 428,-210"/>
</a>
</g>
</g>
<!-- Node2 -->
<g id="Node000002" class="node">
<title>Node2</title>
<g id="a_Node000002"><a xlink:href="../../da/daf/classTorqueGeneratedTurboshaftFloat64RangeType.html" target="_top" xlink:title=" ">
<polygon fill="white" stroke="none" points="392,-485 172,-485 172,0 392,0 392,-485"/>
<text text-anchor="start" x="177" y="-471.5" font-family="Cascadia Code NF" font-size="10.00">TorqueGeneratedTurboshaft</text>
<text text-anchor="start" x="177" y="-458.75" font-family="Cascadia Code NF" font-size="10.00">Float64RangeType&lt; TurboshaftFloat64</text>
<text text-anchor="start" x="180" y="-446" font-family="Cascadia Code NF" font-size="10.00">RangeType, TurboshaftFloat64Type &gt;</text>
<text text-anchor="start" x="187.5" y="-429.5" font-family="Cascadia Code NF" font-size="10.00">+</text>
<text text-anchor="start" x="209" y="-429.5" font-family="Cascadia Code NF" font-size="10.00">kPaddingOffset</text>
<text text-anchor="start" x="187.5" y="-413.5" font-family="Cascadia Code NF" font-size="10.00">+</text>
<text text-anchor="start" x="209" y="-413.5" font-family="Cascadia Code NF" font-size="10.00">kPaddingOffsetEnd</text>
<text text-anchor="start" x="187.5" y="-397.5" font-family="Cascadia Code NF" font-size="10.00">+</text>
<text text-anchor="start" x="209" y="-397.5" font-family="Cascadia Code NF" font-size="10.00">kMinOffset</text>
<text text-anchor="start" x="187.5" y="-381.5" font-family="Cascadia Code NF" font-size="10.00">+</text>
<text text-anchor="start" x="209" y="-381.5" font-family="Cascadia Code NF" font-size="10.00">kMinOffsetEnd</text>
<text text-anchor="start" x="187.5" y="-365.5" font-family="Cascadia Code NF" font-size="10.00">+</text>
<text text-anchor="start" x="209" y="-365.5" font-family="Cascadia Code NF" font-size="10.00">kMaxOffset</text>
<text text-anchor="start" x="187.5" y="-349.5" font-family="Cascadia Code NF" font-size="10.00">+</text>
<text text-anchor="start" x="209" y="-349.5" font-family="Cascadia Code NF" font-size="10.00">kMaxOffsetEnd</text>
<text text-anchor="start" x="187.5" y="-333.5" font-family="Cascadia Code NF" font-size="10.00">+</text>
<text text-anchor="start" x="209" y="-333.5" font-family="Cascadia Code NF" font-size="10.00">kStartOfWeakFieldsOffset</text>
<text text-anchor="start" x="187.5" y="-317.5" font-family="Cascadia Code NF" font-size="10.00">+</text>
<text text-anchor="start" x="209" y="-317.5" font-family="Cascadia Code NF" font-size="10.00">kEndOfWeakFieldsOffset</text>
<text text-anchor="start" x="187.5" y="-301.5" font-family="Cascadia Code NF" font-size="10.00">+</text>
<text text-anchor="start" x="209" y="-301.5" font-family="Cascadia Code NF" font-size="10.00">kStartOfStrongFieldsOffset</text>
<text text-anchor="start" x="187.5" y="-285.5" font-family="Cascadia Code NF" font-size="10.00">+</text>
<text text-anchor="start" x="209" y="-285.5" font-family="Cascadia Code NF" font-size="10.00">kEndOfStrongFieldsOffset</text>
<text text-anchor="start" x="187.5" y="-269.5" font-family="Cascadia Code NF" font-size="10.00">+</text>
<text text-anchor="start" x="209" y="-269.5" font-family="Cascadia Code NF" font-size="10.00">kHeaderSize</text>
<text text-anchor="start" x="187.5" y="-253.5" font-family="Cascadia Code NF" font-size="10.00">+</text>
<text text-anchor="start" x="209" y="-253.5" font-family="Cascadia Code NF" font-size="10.00">kSize</text>
<text text-anchor="start" x="187.5" y="-237.5" font-family="Cascadia Code NF" font-size="10.00">+</text>
<text text-anchor="start" x="209" y="-237.5" font-family="Cascadia Code NF" font-size="10.00">_padding()</text>
<text text-anchor="start" x="187.5" y="-221.5" font-family="Cascadia Code NF" font-size="10.00">+</text>
<text text-anchor="start" x="209" y="-221.5" font-family="Cascadia Code NF" font-size="10.00">set__padding()</text>
<text text-anchor="start" x="187.5" y="-205.5" font-family="Cascadia Code NF" font-size="10.00">+</text>
<text text-anchor="start" x="209" y="-205.5" font-family="Cascadia Code NF" font-size="10.00">min()</text>
<text text-anchor="start" x="187.5" y="-189.5" font-family="Cascadia Code NF" font-size="10.00">+</text>
<text text-anchor="start" x="209" y="-189.5" font-family="Cascadia Code NF" font-size="10.00">set_min()</text>
<text text-anchor="start" x="187.5" y="-173.5" font-family="Cascadia Code NF" font-size="10.00">+</text>
<text text-anchor="start" x="209" y="-173.5" font-family="Cascadia Code NF" font-size="10.00">max()</text>
<text text-anchor="start" x="187.5" y="-157.5" font-family="Cascadia Code NF" font-size="10.00">+</text>
<text text-anchor="start" x="209" y="-157.5" font-family="Cascadia Code NF" font-size="10.00">set_max()</text>
<text text-anchor="start" x="187.5" y="-141.5" font-family="Cascadia Code NF" font-size="10.00">+</text>
<text text-anchor="start" x="209" y="-141.5" font-family="Cascadia Code NF" font-size="10.00">AllocatedSize()</text>
<text text-anchor="start" x="187.5" y="-125.5" font-family="Cascadia Code NF" font-size="10.00">+</text>
<text text-anchor="start" x="209" y="-125.5" font-family="Cascadia Code NF" font-size="10.00">TorqueGeneratedTurboshaft</text>
<text text-anchor="start" x="209" y="-112.75" font-family="Cascadia Code NF" font-size="10.00">Float64RangeType()</text>
<text text-anchor="start" x="187.5" y="-96.5" font-family="Cascadia Code NF" font-size="10.00">+</text>
<text text-anchor="start" x="209" y="-96.5" font-family="Cascadia Code NF" font-size="10.00">cast()</text>
<text text-anchor="start" x="187.5" y="-80.5" font-family="Cascadia Code NF" font-size="10.00">+</text>
<text text-anchor="start" x="209" y="-80.5" font-family="Cascadia Code NF" font-size="10.00">unchecked_cast()</text>
<text text-anchor="start" x="187.5" y="-64.5" font-family="Cascadia Code NF" font-size="10.00">+</text>
<text text-anchor="start" x="209" y="-64.5" font-family="Cascadia Code NF" font-size="10.00">SizeFor()</text>
<text text-anchor="start" x="187.5" y="-48.5" font-family="Cascadia Code NF" font-size="10.00">#</text>
<text text-anchor="start" x="209" y="-48.5" font-family="Cascadia Code NF" font-size="10.00">TorqueGeneratedTurboshaft</text>
<text text-anchor="start" x="209" y="-35.75" font-family="Cascadia Code NF" font-size="10.00">Float64RangeType()</text>
<text text-anchor="start" x="187.5" y="-19.5" font-family="Cascadia Code NF" font-size="10.00">#</text>
<text text-anchor="start" x="209" y="-19.5" font-family="Cascadia Code NF" font-size="10.00">TorqueGeneratedTurboshaft</text>
<text text-anchor="start" x="209" y="-6.75" font-family="Cascadia Code NF" font-size="10.00">Float64RangeType()</text>
<polygon fill="#bfbfbf" stroke="#bfbfbf" points="172,-441 172,-441 392,-441 392,-441 172,-441"/>
<polygon fill="#bfbfbf" stroke="#bfbfbf" points="172,-249 172,-249 207,-249 207,-249 172,-249"/>
<polygon fill="#bfbfbf" stroke="#bfbfbf" points="207,-249 207,-249 392,-249 392,-249 207,-249"/>
<polygon fill="none" stroke="#bfbfbf" points="172,0 172,-485 392,-485 392,0 172,0"/>
</a>
</g>
</g>
<!-- Node2&#45;&gt;Node1 -->
<g id="edge1_Node000001_Node000002" class="edge">
<title>Node2&#45;&gt;Node1</title>
<g id="a_edge1_Node000001_Node000002"><a xlink:title=" ">
<path fill="none" stroke="#63b8ff" d="M403.13,-242.5C411.66,-242.5 420.11,-242.5 428.29,-242.5"/>
<polygon fill="none" stroke="#63b8ff" points="403.39,-239 393.39,-242.5 403.39,-246 403.39,-239"/>
</a>
</g>
</g>
<!-- Node3 -->
<g id="Node000003" class="node">
<title>Node3</title>
<g id="a_Node000003"><a xlink:title=" ">
<polygon fill="white" stroke="none" points="136,-268.5 0,-268.5 0,-216.5 136,-216.5 136,-268.5"/>
<text text-anchor="start" x="5" y="-255" font-family="Cascadia Code NF" font-size="10.00">TurboshaftFloat64Type</text>
<text text-anchor="start" x="65" y="-239" font-family="Cascadia Code NF" font-size="10.00"> </text>
<text text-anchor="start" x="65" y="-223" font-family="Cascadia Code NF" font-size="10.00"> </text>
<polygon fill="#bfbfbf" stroke="#bfbfbf" points="0,-250.5 0,-250.5 136,-250.5 136,-250.5 0,-250.5"/>
<polygon fill="#bfbfbf" stroke="#bfbfbf" points="0,-234.5 0,-234.5 136,-234.5 136,-234.5 0,-234.5"/>
<polygon fill="none" stroke="#bfbfbf" points="0,-216.5 0,-268.5 136,-268.5 136,-216.5 0,-216.5"/>
</a>
</g>
</g>
<!-- Node3&#45;&gt;Node2 -->
<g id="edge2_Node000002_Node000003" class="edge">
<title>Node3&#45;&gt;Node2</title>
<g id="a_edge2_Node000002_Node000003"><a xlink:title=" ">
<path fill="none" stroke="#63b8ff" d="M147.19,-242.5C155.38,-242.5 163.81,-242.5 172.26,-242.5"/>
<polygon fill="none" stroke="#63b8ff" points="147.3,-239 137.3,-242.5 147.3,-246 147.3,-239"/>
</a>
</g>
</g>
</g>
</svg>
