<?xml version="1.0" encoding="UTF-8" standalone="no"?>
<!DOCTYPE svg PUBLIC "-//W3C//DTD SVG 1.1//EN"
 "http://www.w3.org/Graphics/SVG/1.1/DTD/svg11.dtd">
<!-- Generated by graphviz version 11.0.0 (20240428.1522)
 -->
<!-- Title: v8::internal::ZoneAbslFlatHashMap&lt; K, V, Hash, KeyEqual &gt; Pages: 1 -->
<svg width="466pt" height="150pt"
 viewBox="0.00 0.00 466.00 150.00" xmlns="http://www.w3.org/2000/svg" xmlns:xlink="http://www.w3.org/1999/xlink">
<g id="graph0" class="graph" transform="scale(1 1) rotate(0) translate(4 146)">
<title>v8::internal::ZoneAbslFlatHashMap&lt; K, V, Hash, KeyEqual &gt;</title>
<!-- Node1 -->
<g id="Node000001" class="node">
<title>Node1</title>
<g id="a_Node000001"><a xlink:title=" ">
<polygon fill="#999999" stroke="none" points="458,-103.5 262,-103.5 262,-38.5 458,-38.5 458,-103.5"/>
<text text-anchor="start" x="267" y="-90" font-family="Cascadia Code NF" font-size="10.00">v8::internal::ZoneAbslFlat</text>
<text text-anchor="start" x="267" y="-77.25" font-family="Cascadia Code NF" font-size="10.00">HashMap&lt; K, V, Hash, KeyEqual &gt;</text>
<text text-anchor="start" x="357" y="-61" font-family="Cascadia Code NF" font-size="10.00"> </text>
<text text-anchor="start" x="279" y="-45" font-family="Cascadia Code NF" font-size="10.00">+</text>
<text text-anchor="start" x="302" y="-45" font-family="Cascadia Code NF" font-size="10.00">ZoneAbslFlatHashMap()</text>
<polygon fill="#666666" stroke="#666666" points="262,-72.5 262,-72.5 458,-72.5 458,-72.5 262,-72.5"/>
<polygon fill="#666666" stroke="#666666" points="262,-56.5 262,-56.5 458,-56.5 458,-56.5 262,-56.5"/>
<polygon fill="none" stroke="#666666" points="262,-38.5 262,-103.5 458,-103.5 458,-38.5 262,-38.5"/>
</a>
</g>
</g>
<!-- Node2 -->
<g id="Node000002" class="node">
<title>Node2</title>
<g id="a_Node000002"><a xlink:title=" ">
<polygon fill="white" stroke="none" points="226,-142 0,-142 0,0 226,0 226,-142"/>
<text text-anchor="start" x="5" y="-128.5" font-family="Cascadia Code NF" font-size="10.00">absl::flat_hash_map</text>
<text text-anchor="start" x="5" y="-115.75" font-family="Cascadia Code NF" font-size="10.00">&lt; K, V, typename absl</text>
<text text-anchor="start" x="5" y="-103" font-family="Cascadia Code NF" font-size="10.00">::flat_hash_map&lt; K, V</text>
<text text-anchor="start" x="5" y="-90.25" font-family="Cascadia Code NF" font-size="10.00"> &gt;::hasher, typename absl</text>
<text text-anchor="start" x="5" y="-77.5" font-family="Cascadia Code NF" font-size="10.00">::flat_hash_map&lt; K, V, typename</text>
<text text-anchor="start" x="5" y="-64.75" font-family="Cascadia Code NF" font-size="10.00"> absl::flat_hash_map&lt; K, V &gt;</text>
<text text-anchor="start" x="5" y="-52" font-family="Cascadia Code NF" font-size="10.00">::hasher &gt;::key_equal, ZoneAllocator</text>
<text text-anchor="start" x="26" y="-39.25" font-family="Cascadia Code NF" font-size="10.00">&lt; std::pair&lt; const K, V &gt; &gt; &gt;</text>
<text text-anchor="start" x="110" y="-22.5" font-family="Cascadia Code NF" font-size="10.00"> </text>
<text text-anchor="start" x="110" y="-6.5" font-family="Cascadia Code NF" font-size="10.00"> </text>
<polygon fill="#bfbfbf" stroke="#bfbfbf" points="0,-34 0,-34 226,-34 226,-34 0,-34"/>
<polygon fill="#bfbfbf" stroke="#bfbfbf" points="0,-18 0,-18 226,-18 226,-18 0,-18"/>
<polygon fill="none" stroke="#bfbfbf" points="0,0 0,-142 226,-142 226,0 0,0"/>
</a>
</g>
</g>
<!-- Node2&#45;&gt;Node1 -->
<g id="edge1_Node000001_Node000002" class="edge">
<title>Node2&#45;&gt;Node1</title>
<g id="a_edge1_Node000001_Node000002"><a xlink:title=" ">
<path fill="none" stroke="#63b8ff" d="M237.13,-71C245.49,-71 253.84,-71 262.04,-71"/>
<polygon fill="none" stroke="#63b8ff" points="237.26,-67.5 227.26,-71 237.26,-74.5 237.26,-67.5"/>
</a>
</g>
</g>
</g>
</svg>
