<?xml version="1.0" encoding="UTF-8" standalone="no"?>
<!DOCTYPE svg PUBLIC "-//W3C//DTD SVG 1.1//EN"
 "http://www.w3.org/Graphics/SVG/1.1/DTD/svg11.dtd">
<!-- Generated by graphviz version 11.0.0 (20240428.1522)
 -->
<!-- Title: v8::internal::JSSpecialObject Pages: 1 -->
<svg width="580pt" height="317pt"
 viewBox="0.00 0.00 580.00 317.00" xmlns="http://www.w3.org/2000/svg" xmlns:xlink="http://www.w3.org/1999/xlink">
<g id="graph0" class="graph" transform="scale(1 1) rotate(0) translate(4 313)">
<title>v8::internal::JSSpecialObject</title>
<!-- Node1 -->
<g id="Node000001" class="node">
<title>Node1</title>
<g id="a_Node000001"><a xlink:title=" ">
<polygon fill="#999999" stroke="none" points="572,-180.5 388,-180.5 388,-128.5 572,-128.5 572,-180.5"/>
<text text-anchor="start" x="393" y="-167" font-family="Cascadia Code NF" font-size="10.00">v8::internal::JSSpecialObject</text>
<text text-anchor="start" x="477" y="-151" font-family="Cascadia Code NF" font-size="10.00"> </text>
<text text-anchor="start" x="477" y="-135" font-family="Cascadia Code NF" font-size="10.00"> </text>
<polygon fill="#666666" stroke="#666666" points="388,-162.5 388,-162.5 572,-162.5 572,-162.5 388,-162.5"/>
<polygon fill="#666666" stroke="#666666" points="388,-146.5 388,-146.5 572,-146.5 572,-146.5 388,-146.5"/>
<polygon fill="none" stroke="#666666" points="388,-128.5 388,-180.5 572,-180.5 572,-128.5 388,-128.5"/>
</a>
</g>
</g>
<!-- Node2 -->
<g id="Node000002" class="node">
<title>Node2</title>
<g id="a_Node000002"><a xlink:href="../../dc/dda/classTorqueGeneratedJSSpecialObject.html" target="_top" xlink:title=" ">
<polygon fill="white" stroke="none" points="352,-309 178,-309 178,0 352,0 352,-309"/>
<text text-anchor="start" x="190" y="-295.5" font-family="Cascadia Code NF" font-size="10.00">TorqueGeneratedJSSpecial</text>
<text text-anchor="start" x="190" y="-282.75" font-family="Cascadia Code NF" font-size="10.00">Object&lt; JSSpecialObject,</text>
<text text-anchor="start" x="190" y="-270" font-family="Cascadia Code NF" font-size="10.00"> JSCustomElementsObject &gt;</text>
<text text-anchor="start" x="182" y="-253.5" font-family="Cascadia Code NF" font-size="10.00">+</text>
<text text-anchor="start" x="192" y="-253.5" font-family="Cascadia Code NF" font-size="10.00">kCppHeapWrappableOffset</text>
<text text-anchor="start" x="182" y="-237.5" font-family="Cascadia Code NF" font-size="10.00">+</text>
<text text-anchor="start" x="192" y="-237.5" font-family="Cascadia Code NF" font-size="10.00">kCppHeapWrappableOffsetEnd</text>
<text text-anchor="start" x="182" y="-221.5" font-family="Cascadia Code NF" font-size="10.00">+</text>
<text text-anchor="start" x="192" y="-221.5" font-family="Cascadia Code NF" font-size="10.00">kStartOfWeakFieldsOffset</text>
<text text-anchor="start" x="182" y="-205.5" font-family="Cascadia Code NF" font-size="10.00">+</text>
<text text-anchor="start" x="192" y="-205.5" font-family="Cascadia Code NF" font-size="10.00">kEndOfWeakFieldsOffset</text>
<text text-anchor="start" x="182" y="-189.5" font-family="Cascadia Code NF" font-size="10.00">+</text>
<text text-anchor="start" x="192" y="-189.5" font-family="Cascadia Code NF" font-size="10.00">kStartOfStrongFieldsOffset</text>
<text text-anchor="start" x="182" y="-173.5" font-family="Cascadia Code NF" font-size="10.00">+</text>
<text text-anchor="start" x="192" y="-173.5" font-family="Cascadia Code NF" font-size="10.00">kEndOfStrongFieldsOffset</text>
<text text-anchor="start" x="182" y="-157.5" font-family="Cascadia Code NF" font-size="10.00">+</text>
<text text-anchor="start" x="192" y="-157.5" font-family="Cascadia Code NF" font-size="10.00">kHeaderSize</text>
<text text-anchor="start" x="182" y="-141.5" font-family="Cascadia Code NF" font-size="10.00">+</text>
<text text-anchor="start" x="192" y="-141.5" font-family="Cascadia Code NF" font-size="10.00">cpp_heap_wrappable()</text>
<text text-anchor="start" x="182" y="-125.5" font-family="Cascadia Code NF" font-size="10.00">+</text>
<text text-anchor="start" x="192" y="-125.5" font-family="Cascadia Code NF" font-size="10.00">set_cpp_heap_wrappable()</text>
<text text-anchor="start" x="182" y="-109.5" font-family="Cascadia Code NF" font-size="10.00">+</text>
<text text-anchor="start" x="192" y="-109.5" font-family="Cascadia Code NF" font-size="10.00">TorqueGeneratedJSSpecial</text>
<text text-anchor="start" x="192" y="-96.75" font-family="Cascadia Code NF" font-size="10.00">Object()</text>
<text text-anchor="start" x="182" y="-80.5" font-family="Cascadia Code NF" font-size="10.00">+</text>
<text text-anchor="start" x="192" y="-80.5" font-family="Cascadia Code NF" font-size="10.00">cast()</text>
<text text-anchor="start" x="182" y="-64.5" font-family="Cascadia Code NF" font-size="10.00">+</text>
<text text-anchor="start" x="192" y="-64.5" font-family="Cascadia Code NF" font-size="10.00">unchecked_cast()</text>
<text text-anchor="start" x="182" y="-48.5" font-family="Cascadia Code NF" font-size="10.00">#</text>
<text text-anchor="start" x="192" y="-48.5" font-family="Cascadia Code NF" font-size="10.00">TorqueGeneratedJSSpecial</text>
<text text-anchor="start" x="192" y="-35.75" font-family="Cascadia Code NF" font-size="10.00">Object()</text>
<text text-anchor="start" x="182" y="-19.5" font-family="Cascadia Code NF" font-size="10.00">#</text>
<text text-anchor="start" x="192" y="-19.5" font-family="Cascadia Code NF" font-size="10.00">TorqueGeneratedJSSpecial</text>
<text text-anchor="start" x="192" y="-6.75" font-family="Cascadia Code NF" font-size="10.00">Object()</text>
<polygon fill="#bfbfbf" stroke="#bfbfbf" points="178,-265 178,-265 352,-265 352,-265 178,-265"/>
<polygon fill="#bfbfbf" stroke="#bfbfbf" points="178,-153 178,-153 190,-153 190,-153 178,-153"/>
<polygon fill="#bfbfbf" stroke="#bfbfbf" points="190,-153 190,-153 352,-153 352,-153 190,-153"/>
<polygon fill="none" stroke="#bfbfbf" points="178,0 178,-309 352,-309 352,0 178,0"/>
</a>
</g>
</g>
<!-- Node2&#45;&gt;Node1 -->
<g id="edge1_Node000001_Node000002" class="edge">
<title>Node2&#45;&gt;Node1</title>
<g id="a_edge1_Node000001_Node000002"><a xlink:title=" ">
<path fill="none" stroke="#63b8ff" d="M363.07,-154.5C371.45,-154.5 379.91,-154.5 388.24,-154.5"/>
<polygon fill="none" stroke="#63b8ff" points="363.23,-151 353.23,-154.5 363.23,-158 363.23,-151"/>
</a>
</g>
</g>
<!-- Node3 -->
<g id="Node000003" class="node">
<title>Node3</title>
<g id="a_Node000003"><a xlink:title=" ">
<polygon fill="white" stroke="none" points="142,-180.5 0,-180.5 0,-128.5 142,-128.5 142,-180.5"/>
<text text-anchor="start" x="5" y="-167" font-family="Cascadia Code NF" font-size="10.00">JSCustomElementsObject</text>
<text text-anchor="start" x="68" y="-151" font-family="Cascadia Code NF" font-size="10.00"> </text>
<text text-anchor="start" x="68" y="-135" font-family="Cascadia Code NF" font-size="10.00"> </text>
<polygon fill="#bfbfbf" stroke="#bfbfbf" points="0,-162.5 0,-162.5 142,-162.5 142,-162.5 0,-162.5"/>
<polygon fill="#bfbfbf" stroke="#bfbfbf" points="0,-146.5 0,-146.5 142,-146.5 142,-146.5 0,-146.5"/>
<polygon fill="none" stroke="#bfbfbf" points="0,-128.5 0,-180.5 142,-180.5 142,-128.5 0,-128.5"/>
</a>
</g>
</g>
<!-- Node3&#45;&gt;Node2 -->
<g id="edge2_Node000002_Node000003" class="edge">
<title>Node3&#45;&gt;Node2</title>
<g id="a_edge2_Node000002_Node000003"><a xlink:title=" ">
<path fill="none" stroke="#63b8ff" d="M153.34,-154.5C161.55,-154.5 169.91,-154.5 178.16,-154.5"/>
<polygon fill="none" stroke="#63b8ff" points="153.37,-151 143.37,-154.5 153.37,-158 153.37,-151"/>
</a>
</g>
</g>
</g>
</svg>
