<?xml version="1.0" encoding="UTF-8" standalone="no"?>
<!DOCTYPE svg PUBLIC "-//W3C//DTD SVG 1.1//EN"
 "http://www.w3.org/Graphics/SVG/1.1/DTD/svg11.dtd">
<!-- Generated by graphviz version 11.0.0 (20240428.1522)
 -->
<!-- Title: v8::internal::JSV8BreakIterator Pages: 1 -->
<svg width="662pt" height="496pt"
 viewBox="0.00 0.00 662.00 496.00" xmlns="http://www.w3.org/2000/svg" xmlns:xlink="http://www.w3.org/1999/xlink">
<g id="graph0" class="graph" transform="scale(1 1) rotate(0) translate(4 492)">
<title>v8::internal::JSV8BreakIterator</title>
<!-- Node1 -->
<g id="Node000001" class="node">
<title>Node1</title>
<g id="a_Node000001"><a xlink:title=" ">
<polygon fill="#999999" stroke="none" points="654,-326 458,-326 458,-162 654,-162 654,-326"/>
<text text-anchor="start" x="463" y="-312.5" font-family="Cascadia Code NF" font-size="10.00">v8::internal::JSV8BreakIterator</text>
<text text-anchor="start" x="553" y="-296.5" font-family="Cascadia Code NF" font-size="10.00"> </text>
<text text-anchor="start" x="475" y="-280.5" font-family="Cascadia Code NF" font-size="10.00">+</text>
<text text-anchor="start" x="498" y="-280.5" font-family="Cascadia Code NF" font-size="10.00">New()</text>
<text text-anchor="start" x="475" y="-264.5" font-family="Cascadia Code NF" font-size="10.00">+</text>
<text text-anchor="start" x="498" y="-264.5" font-family="Cascadia Code NF" font-size="10.00">ResolvedOptions()</text>
<text text-anchor="start" x="475" y="-248.5" font-family="Cascadia Code NF" font-size="10.00">+</text>
<text text-anchor="start" x="498" y="-248.5" font-family="Cascadia Code NF" font-size="10.00">GetAvailableLocales()</text>
<text text-anchor="start" x="475" y="-232.5" font-family="Cascadia Code NF" font-size="10.00">+</text>
<text text-anchor="start" x="498" y="-232.5" font-family="Cascadia Code NF" font-size="10.00">AdoptText()</text>
<text text-anchor="start" x="475" y="-216.5" font-family="Cascadia Code NF" font-size="10.00">+</text>
<text text-anchor="start" x="498" y="-216.5" font-family="Cascadia Code NF" font-size="10.00">Current()</text>
<text text-anchor="start" x="475" y="-200.5" font-family="Cascadia Code NF" font-size="10.00">+</text>
<text text-anchor="start" x="498" y="-200.5" font-family="Cascadia Code NF" font-size="10.00">First()</text>
<text text-anchor="start" x="475" y="-184.5" font-family="Cascadia Code NF" font-size="10.00">+</text>
<text text-anchor="start" x="498" y="-184.5" font-family="Cascadia Code NF" font-size="10.00">Next()</text>
<text text-anchor="start" x="475" y="-168.5" font-family="Cascadia Code NF" font-size="10.00">+</text>
<text text-anchor="start" x="498" y="-168.5" font-family="Cascadia Code NF" font-size="10.00">BreakType()</text>
<polygon fill="#666666" stroke="#666666" points="458,-308 458,-308 654,-308 654,-308 458,-308"/>
<polygon fill="#666666" stroke="#666666" points="458,-292 458,-292 654,-292 654,-292 458,-292"/>
<polygon fill="none" stroke="#666666" points="458,-162 458,-326 654,-326 654,-162 458,-162"/>
</a>
</g>
</g>
<!-- Node2 -->
<g id="Node000002" class="node">
<title>Node2</title>
<g id="a_Node000002"><a xlink:href="$d6/d3a/classTorqueGeneratedJSV8BreakIterator.html" xlink:title=" ">
<polygon fill="white" stroke="none" points="422,-488 244,-488 244,0 422,0 422,-488"/>
<text text-anchor="start" x="249" y="-474.5" font-family="Cascadia Code NF" font-size="10.00">TorqueGeneratedJSV8Break</text>
<text text-anchor="start" x="249" y="-461.75" font-family="Cascadia Code NF" font-size="10.00">Iterator&lt; JSV8BreakIterator,</text>
<text text-anchor="start" x="300" y="-449" font-family="Cascadia Code NF" font-size="10.00"> JSObject &gt;</text>
<text text-anchor="start" x="249" y="-432.5" font-family="Cascadia Code NF" font-size="10.00">+</text>
<text text-anchor="start" x="260" y="-432.5" font-family="Cascadia Code NF" font-size="10.00">kStartOfStrongFieldsOffset</text>
<text text-anchor="start" x="249" y="-416.5" font-family="Cascadia Code NF" font-size="10.00">+</text>
<text text-anchor="start" x="260" y="-416.5" font-family="Cascadia Code NF" font-size="10.00">kLocaleOffset</text>
<text text-anchor="start" x="249" y="-400.5" font-family="Cascadia Code NF" font-size="10.00">+</text>
<text text-anchor="start" x="260" y="-400.5" font-family="Cascadia Code NF" font-size="10.00">kLocaleOffsetEnd</text>
<text text-anchor="start" x="249" y="-384.5" font-family="Cascadia Code NF" font-size="10.00">+</text>
<text text-anchor="start" x="260" y="-384.5" font-family="Cascadia Code NF" font-size="10.00">kBreakIteratorOffset</text>
<text text-anchor="start" x="249" y="-368.5" font-family="Cascadia Code NF" font-size="10.00">+</text>
<text text-anchor="start" x="260" y="-368.5" font-family="Cascadia Code NF" font-size="10.00">kBreakIteratorOffsetEnd</text>
<text text-anchor="start" x="249" y="-352.5" font-family="Cascadia Code NF" font-size="10.00">+</text>
<text text-anchor="start" x="260" y="-352.5" font-family="Cascadia Code NF" font-size="10.00">kUnicodeStringOffset</text>
<text text-anchor="start" x="249" y="-336.5" font-family="Cascadia Code NF" font-size="10.00">+</text>
<text text-anchor="start" x="260" y="-336.5" font-family="Cascadia Code NF" font-size="10.00">kUnicodeStringOffsetEnd</text>
<text text-anchor="start" x="249" y="-320.5" font-family="Cascadia Code NF" font-size="10.00">+</text>
<text text-anchor="start" x="260" y="-320.5" font-family="Cascadia Code NF" font-size="10.00">kEndOfStrongFieldsOffset</text>
<text text-anchor="start" x="249" y="-304.5" font-family="Cascadia Code NF" font-size="10.00">+</text>
<text text-anchor="start" x="260" y="-304.5" font-family="Cascadia Code NF" font-size="10.00">kStartOfWeakFieldsOffset</text>
<text text-anchor="start" x="249" y="-288.5" font-family="Cascadia Code NF" font-size="10.00">+</text>
<text text-anchor="start" x="260" y="-288.5" font-family="Cascadia Code NF" font-size="10.00">kEndOfWeakFieldsOffset</text>
<text text-anchor="start" x="249" y="-272.5" font-family="Cascadia Code NF" font-size="10.00">+</text>
<text text-anchor="start" x="260" y="-272.5" font-family="Cascadia Code NF" font-size="10.00">kHeaderSize</text>
<text text-anchor="start" x="249" y="-256.5" font-family="Cascadia Code NF" font-size="10.00">+</text>
<text text-anchor="start" x="260" y="-256.5" font-family="Cascadia Code NF" font-size="10.00">locale()</text>
<text text-anchor="start" x="249" y="-240.5" font-family="Cascadia Code NF" font-size="10.00">+</text>
<text text-anchor="start" x="260" y="-240.5" font-family="Cascadia Code NF" font-size="10.00">locale()</text>
<text text-anchor="start" x="249" y="-224.5" font-family="Cascadia Code NF" font-size="10.00">+</text>
<text text-anchor="start" x="260" y="-224.5" font-family="Cascadia Code NF" font-size="10.00">set_locale()</text>
<text text-anchor="start" x="249" y="-208.5" font-family="Cascadia Code NF" font-size="10.00">+</text>
<text text-anchor="start" x="260" y="-208.5" font-family="Cascadia Code NF" font-size="10.00">break_iterator()</text>
<text text-anchor="start" x="249" y="-192.5" font-family="Cascadia Code NF" font-size="10.00">+</text>
<text text-anchor="start" x="260" y="-192.5" font-family="Cascadia Code NF" font-size="10.00">break_iterator()</text>
<text text-anchor="start" x="249" y="-176.5" font-family="Cascadia Code NF" font-size="10.00">+</text>
<text text-anchor="start" x="260" y="-176.5" font-family="Cascadia Code NF" font-size="10.00">set_break_iterator()</text>
<text text-anchor="start" x="249" y="-160.5" font-family="Cascadia Code NF" font-size="10.00">+</text>
<text text-anchor="start" x="260" y="-160.5" font-family="Cascadia Code NF" font-size="10.00">unicode_string()</text>
<text text-anchor="start" x="249" y="-144.5" font-family="Cascadia Code NF" font-size="10.00">+</text>
<text text-anchor="start" x="260" y="-144.5" font-family="Cascadia Code NF" font-size="10.00">unicode_string()</text>
<text text-anchor="start" x="249" y="-128.5" font-family="Cascadia Code NF" font-size="10.00">+</text>
<text text-anchor="start" x="260" y="-128.5" font-family="Cascadia Code NF" font-size="10.00">set_unicode_string()</text>
<text text-anchor="start" x="249" y="-112.5" font-family="Cascadia Code NF" font-size="10.00">+</text>
<text text-anchor="start" x="260" y="-112.5" font-family="Cascadia Code NF" font-size="10.00">bound_adopt_text()</text>
<text text-anchor="start" x="260" y="-96.5" font-family="Cascadia Code NF" font-size="10.00">and 15 more...</text>
<text text-anchor="start" x="249" y="-80.5" font-family="Cascadia Code NF" font-size="10.00">+</text>
<text text-anchor="start" x="260" y="-80.5" font-family="Cascadia Code NF" font-size="10.00">cast()</text>
<text text-anchor="start" x="249" y="-64.5" font-family="Cascadia Code NF" font-size="10.00">+</text>
<text text-anchor="start" x="260" y="-64.5" font-family="Cascadia Code NF" font-size="10.00">unchecked_cast()</text>
<text text-anchor="start" x="249" y="-48.5" font-family="Cascadia Code NF" font-size="10.00">#</text>
<text text-anchor="start" x="260" y="-48.5" font-family="Cascadia Code NF" font-size="10.00">TorqueGeneratedJSV8Break</text>
<text text-anchor="start" x="260" y="-35.75" font-family="Cascadia Code NF" font-size="10.00">Iterator()</text>
<text text-anchor="start" x="249" y="-19.5" font-family="Cascadia Code NF" font-size="10.00">#</text>
<text text-anchor="start" x="260" y="-19.5" font-family="Cascadia Code NF" font-size="10.00">TorqueGeneratedJSV8Break</text>
<text text-anchor="start" x="260" y="-6.75" font-family="Cascadia Code NF" font-size="10.00">Iterator()</text>
<polygon fill="#bfbfbf" stroke="#bfbfbf" points="244,-444 244,-444 422,-444 422,-444 244,-444"/>
<polygon fill="#bfbfbf" stroke="#bfbfbf" points="244,-268 244,-268 258,-268 258,-268 244,-268"/>
<polygon fill="#bfbfbf" stroke="#bfbfbf" points="258,-268 258,-268 422,-268 422,-268 258,-268"/>
<polygon fill="none" stroke="#bfbfbf" points="244,0 244,-488 422,-488 422,0 244,0"/>
</a>
</g>
</g>
<!-- Node2&#45;&gt;Node1 -->
<g id="edge1_Node000001_Node000002" class="edge">
<title>Node2&#45;&gt;Node1</title>
<g id="a_edge1_Node000001_Node000002"><a xlink:title=" ">
<path fill="none" stroke="#63b8ff" d="M433.24,-244C441.55,-244 449.95,-244 458.24,-244"/>
<polygon fill="none" stroke="#63b8ff" points="433.49,-240.5 423.49,-244 433.49,-247.5 433.49,-240.5"/>
</a>
</g>
</g>
<!-- Node3 -->
<g id="Node000003" class="node">
<title>Node3</title>
<g id="a_Node000003"><a xlink:title=" ">
<polygon fill="white" stroke="none" points="58,-352 0,-352 0,-300 58,-300 58,-352"/>
<text text-anchor="start" x="5" y="-338.5" font-family="Cascadia Code NF" font-size="10.00">JSObject</text>
<text text-anchor="start" x="26" y="-322.5" font-family="Cascadia Code NF" font-size="10.00"> </text>
<text text-anchor="start" x="26" y="-306.5" font-family="Cascadia Code NF" font-size="10.00"> </text>
<polygon fill="#bfbfbf" stroke="#bfbfbf" points="0,-334 0,-334 58,-334 58,-334 0,-334"/>
<polygon fill="#bfbfbf" stroke="#bfbfbf" points="0,-318 0,-318 58,-318 58,-318 0,-318"/>
<polygon fill="none" stroke="#bfbfbf" points="0,-300 0,-352 58,-352 58,-300 0,-300"/>
</a>
</g>
</g>
<!-- Node3&#45;&gt;Node2 -->
<g id="edge2_Node000002_Node000003" class="edge">
<title>Node3&#45;&gt;Node2</title>
<g id="a_edge2_Node000002_Node000003"><a xlink:title=" ">
<path fill="none" stroke="#63b8ff" d="M69.12,-326.19C109.39,-325.33 173.49,-321.02 226,-304 232.03,-302.04 238.11,-299.72 244.14,-297.15"/>
<polygon fill="none" stroke="#63b8ff" points="69.14,-322.68 59.19,-326.33 69.24,-329.68 69.14,-322.68"/>
</a>
</g>
</g>
<!-- Node4 -->
<g id="Node000004" class="node">
<title>Node4</title>
<g id="a_Node000004"><a xlink:href="$d1/da0/classint.html" xlink:title=" ">
<polygon fill="white" stroke="none" points="43,-189 15,-189 15,-137 43,-137 43,-189"/>
<text text-anchor="start" x="20" y="-175.5" font-family="Cascadia Code NF" font-size="10.00">int</text>
<text text-anchor="start" x="26" y="-159.5" font-family="Cascadia Code NF" font-size="10.00"> </text>
<text text-anchor="start" x="26" y="-143.5" font-family="Cascadia Code NF" font-size="10.00"> </text>
<polygon fill="#bfbfbf" stroke="#bfbfbf" points="15,-171 15,-171 43,-171 43,-171 15,-171"/>
<polygon fill="#bfbfbf" stroke="#bfbfbf" points="15,-155 15,-155 43,-155 43,-155 15,-155"/>
<polygon fill="none" stroke="#bfbfbf" points="15,-137 15,-189 43,-189 43,-137 15,-137"/>
</a>
</g>
</g>
<!-- Node4&#45;&gt;Node2 -->
<g id="edge3_Node000002_Node000004" class="edge">
<title>Node4&#45;&gt;Node2</title>
<g id="a_edge3_Node000002_Node000004"><a xlink:title=" ">
<path fill="none" stroke="#63b8ff" d="M42.84,-160.33C74.82,-154.24 160.24,-141.52 226,-163.75 228.1,-164.46 230.2,-165.23 232.29,-166.06"/>
<polygon fill="none" stroke="#63b8ff" points="232.32,-166.07 239.43,-164.87 243.27,-170.98 236.16,-172.18 232.32,-166.07"/>
</a>
</g>
<text text-anchor="middle" x="151" y="-293.75" font-family="Cascadia Code NF" font-size="10.00" fill="grey"> +kBoundAdoptTextOffset</text>
<text text-anchor="middle" x="151" y="-281" font-family="Cascadia Code NF" font-size="10.00" fill="grey">+kBoundAdoptTextOffsetEnd</text>
<text text-anchor="middle" x="151" y="-268.25" font-family="Cascadia Code NF" font-size="10.00" fill="grey">+kBoundBreakTypeOffset</text>
<text text-anchor="middle" x="151" y="-255.5" font-family="Cascadia Code NF" font-size="10.00" fill="grey">+kBoundBreakTypeOffsetEnd</text>
<text text-anchor="middle" x="151" y="-242.75" font-family="Cascadia Code NF" font-size="10.00" fill="grey">+kBoundCurrentOffset</text>
<text text-anchor="middle" x="151" y="-230" font-family="Cascadia Code NF" font-size="10.00" fill="grey">+kBoundCurrentOffsetEnd</text>
<text text-anchor="middle" x="151" y="-217.25" font-family="Cascadia Code NF" font-size="10.00" fill="grey">+kBoundFirstOffset</text>
<text text-anchor="middle" x="151" y="-204.5" font-family="Cascadia Code NF" font-size="10.00" fill="grey">+kBoundFirstOffsetEnd</text>
<text text-anchor="middle" x="151" y="-191.75" font-family="Cascadia Code NF" font-size="10.00" fill="grey">+kBoundNextOffset</text>
<text text-anchor="middle" x="151" y="-179" font-family="Cascadia Code NF" font-size="10.00" fill="grey">+kBoundNextOffsetEnd</text>
<text text-anchor="middle" x="151" y="-166.25" font-family="Cascadia Code NF" font-size="10.00" fill="grey">...</text>
</g>
</g>
</svg>
