<?xml version="1.0" encoding="UTF-8" standalone="no"?>
<!DOCTYPE svg PUBLIC "-//W3C//DTD SVG 1.1//EN"
 "http://www.w3.org/Graphics/SVG/1.1/DTD/svg11.dtd">
<!-- Generated by graphviz version 11.0.0 (20240428.1522)
 -->
<!-- Title: v8::internal::torque::Namespace Pages: 1 -->
<svg width="536pt" height="249pt"
 viewBox="0.00 0.00 536.00 249.00" xmlns="http://www.w3.org/2000/svg" xmlns:xlink="http://www.w3.org/1999/xlink">
<g id="graph0" class="graph" transform="scale(1 1) rotate(0) translate(4 245)">
<title>v8::internal::torque::Namespace</title>
<!-- Node1 -->
<g id="Node000001" class="node">
<title>Node1</title>
<g id="a_Node000001"><a xlink:title=" ">
<polygon fill="#999999" stroke="none" points="528,-177 390,-177 390,-64 528,-64 528,-177"/>
<text text-anchor="start" x="399" y="-163.5" font-family="Cascadia Code NF" font-size="10.00">v8::internal::torque</text>
<text text-anchor="start" x="426" y="-150.75" font-family="Cascadia Code NF" font-size="10.00">::Namespace</text>
<text text-anchor="start" x="456" y="-134.5" font-family="Cascadia Code NF" font-size="10.00"> </text>
<text text-anchor="start" x="394" y="-118.5" font-family="Cascadia Code NF" font-size="10.00">+</text>
<text text-anchor="start" x="404" y="-118.5" font-family="Cascadia Code NF" font-size="10.00">Namespace()</text>
<text text-anchor="start" x="394" y="-102.5" font-family="Cascadia Code NF" font-size="10.00">+</text>
<text text-anchor="start" x="404" y="-102.5" font-family="Cascadia Code NF" font-size="10.00">name()</text>
<text text-anchor="start" x="394" y="-86.5" font-family="Cascadia Code NF" font-size="10.00">+</text>
<text text-anchor="start" x="404" y="-86.5" font-family="Cascadia Code NF" font-size="10.00">IsDefaultNamespace()</text>
<text text-anchor="start" x="394" y="-70.5" font-family="Cascadia Code NF" font-size="10.00">+</text>
<text text-anchor="start" x="404" y="-70.5" font-family="Cascadia Code NF" font-size="10.00">IsTestNamespace()</text>
<polygon fill="#666666" stroke="#666666" points="390,-146 390,-146 528,-146 528,-146 390,-146"/>
<polygon fill="#666666" stroke="#666666" points="390,-130 390,-130 528,-130 528,-130 390,-130"/>
<polygon fill="none" stroke="#666666" points="390,-64 390,-177 528,-177 528,-64 390,-64"/>
</a>
</g>
</g>
<!-- Node2 -->
<g id="Node000002" class="node">
<title>Node2</title>
<g id="a_Node000002"><a xlink:href="../../dc/dee/classv8_1_1internal_1_1torque_1_1Scope.html" target="_top" xlink:title=" ">
<polygon fill="white" stroke="none" points="354,-193 168,-193 168,-48 354,-48 354,-193"/>
<text text-anchor="start" x="201" y="-179.5" font-family="Cascadia Code NF" font-size="10.00">v8::internal::torque</text>
<text text-anchor="start" x="240" y="-166.75" font-family="Cascadia Code NF" font-size="10.00">::Scope</text>
<text text-anchor="start" x="258" y="-150.5" font-family="Cascadia Code NF" font-size="10.00"> </text>
<text text-anchor="start" x="172" y="-134.5" font-family="Cascadia Code NF" font-size="10.00">+</text>
<text text-anchor="start" x="182" y="-134.5" font-family="Cascadia Code NF" font-size="10.00">Scope()</text>
<text text-anchor="start" x="172" y="-118.5" font-family="Cascadia Code NF" font-size="10.00">+</text>
<text text-anchor="start" x="182" y="-118.5" font-family="Cascadia Code NF" font-size="10.00">LookupShallow()</text>
<text text-anchor="start" x="172" y="-102.5" font-family="Cascadia Code NF" font-size="10.00">+</text>
<text text-anchor="start" x="182" y="-102.5" font-family="Cascadia Code NF" font-size="10.00">Lookup()</text>
<text text-anchor="start" x="172" y="-86.5" font-family="Cascadia Code NF" font-size="10.00">+</text>
<text text-anchor="start" x="182" y="-86.5" font-family="Cascadia Code NF" font-size="10.00">AddDeclarable()</text>
<text text-anchor="start" x="172" y="-70.5" font-family="Cascadia Code NF" font-size="10.00">+</text>
<text text-anchor="start" x="182" y="-70.5" font-family="Cascadia Code NF" font-size="10.00">GetSpecializationRequester()</text>
<text text-anchor="start" x="172" y="-54.5" font-family="Cascadia Code NF" font-size="10.00">+</text>
<text text-anchor="start" x="182" y="-54.5" font-family="Cascadia Code NF" font-size="10.00">SetSpecializationRequester()</text>
<polygon fill="#bfbfbf" stroke="#bfbfbf" points="168,-162 168,-162 354,-162 354,-162 168,-162"/>
<polygon fill="#bfbfbf" stroke="#bfbfbf" points="168,-146 168,-146 354,-146 354,-146 168,-146"/>
<polygon fill="none" stroke="#bfbfbf" points="168,-48 168,-193 354,-193 354,-48 168,-48"/>
</a>
</g>
</g>
<!-- Node2&#45;&gt;Node1 -->
<g id="edge1_Node000001_Node000002" class="edge">
<title>Node2&#45;&gt;Node1</title>
<g id="a_edge1_Node000001_Node000002"><a xlink:title=" ">
<path fill="none" stroke="#63b8ff" d="M365.46,-120.5C373.87,-120.5 382.23,-120.5 390.29,-120.5"/>
<polygon fill="none" stroke="#63b8ff" points="365.49,-117 355.49,-120.5 365.49,-124 365.49,-117"/>
</a>
</g>
</g>
<!-- Node3 -->
<g id="Node000003" class="node">
<title>Node3</title>
<g id="a_Node000003"><a xlink:href="../../d4/d16/classv8_1_1internal_1_1torque_1_1Declarable.html" target="_top" xlink:title=" ">
<polygon fill="white" stroke="none" points="132,-241 0,-241 0,0 132,0 132,-241"/>
<text text-anchor="start" x="6" y="-227.5" font-family="Cascadia Code NF" font-size="10.00">v8::internal::torque</text>
<text text-anchor="start" x="30" y="-214.75" font-family="Cascadia Code NF" font-size="10.00">::Declarable</text>
<text text-anchor="start" x="63" y="-198.5" font-family="Cascadia Code NF" font-size="10.00"> </text>
<text text-anchor="start" x="4" y="-182.5" font-family="Cascadia Code NF" font-size="10.00">+</text>
<text text-anchor="start" x="14" y="-182.5" font-family="Cascadia Code NF" font-size="10.00">~Declarable()</text>
<text text-anchor="start" x="4" y="-166.5" font-family="Cascadia Code NF" font-size="10.00">+</text>
<text text-anchor="start" x="14" y="-166.5" font-family="Cascadia Code NF" font-size="10.00">kind()</text>
<text text-anchor="start" x="4" y="-150.5" font-family="Cascadia Code NF" font-size="10.00">+</text>
<text text-anchor="start" x="14" y="-150.5" font-family="Cascadia Code NF" font-size="10.00">IsNamespace()</text>
<text text-anchor="start" x="4" y="-134.5" font-family="Cascadia Code NF" font-size="10.00">+</text>
<text text-anchor="start" x="14" y="-134.5" font-family="Cascadia Code NF" font-size="10.00">IsMacro()</text>
<text text-anchor="start" x="4" y="-118.5" font-family="Cascadia Code NF" font-size="10.00">+</text>
<text text-anchor="start" x="14" y="-118.5" font-family="Cascadia Code NF" font-size="10.00">IsTorqueMacro()</text>
<text text-anchor="start" x="4" y="-102.5" font-family="Cascadia Code NF" font-size="10.00">+</text>
<text text-anchor="start" x="14" y="-102.5" font-family="Cascadia Code NF" font-size="10.00">IsMethod()</text>
<text text-anchor="start" x="4" y="-86.5" font-family="Cascadia Code NF" font-size="10.00">+</text>
<text text-anchor="start" x="14" y="-86.5" font-family="Cascadia Code NF" font-size="10.00">IsExternMacro()</text>
<text text-anchor="start" x="4" y="-70.5" font-family="Cascadia Code NF" font-size="10.00">+</text>
<text text-anchor="start" x="14" y="-70.5" font-family="Cascadia Code NF" font-size="10.00">IsIntrinsic()</text>
<text text-anchor="start" x="4" y="-54.5" font-family="Cascadia Code NF" font-size="10.00">+</text>
<text text-anchor="start" x="14" y="-54.5" font-family="Cascadia Code NF" font-size="10.00">IsBuiltin()</text>
<text text-anchor="start" x="4" y="-38.5" font-family="Cascadia Code NF" font-size="10.00">+</text>
<text text-anchor="start" x="14" y="-38.5" font-family="Cascadia Code NF" font-size="10.00">IsRuntimeFunction()</text>
<text text-anchor="start" x="14" y="-22.5" font-family="Cascadia Code NF" font-size="10.00">and 16 more...</text>
<text text-anchor="start" x="4" y="-6.5" font-family="Cascadia Code NF" font-size="10.00">#</text>
<text text-anchor="start" x="14" y="-6.5" font-family="Cascadia Code NF" font-size="10.00">Declarable()</text>
<polygon fill="#bfbfbf" stroke="#bfbfbf" points="0,-210 0,-210 132,-210 132,-210 0,-210"/>
<polygon fill="#bfbfbf" stroke="#bfbfbf" points="0,-194 0,-194 132,-194 132,-194 0,-194"/>
<polygon fill="none" stroke="#bfbfbf" points="0,0 0,-241 132,-241 132,0 0,0"/>
</a>
</g>
</g>
<!-- Node3&#45;&gt;Node2 -->
<g id="edge2_Node000002_Node000003" class="edge">
<title>Node3&#45;&gt;Node2</title>
<g id="a_edge2_Node000002_Node000003"><a xlink:title=" ">
<path fill="none" stroke="#63b8ff" d="M143.25,-120.5C151.47,-120.5 159.88,-120.5 168.25,-120.5"/>
<polygon fill="none" stroke="#63b8ff" points="143.32,-117 133.32,-120.5 143.32,-124 143.32,-117"/>
</a>
</g>
</g>
</g>
</svg>
