<?xml version="1.0" encoding="UTF-8" standalone="no"?>
<!DOCTYPE svg PUBLIC "-//W3C//DTD SVG 1.1//EN"
 "http://www.w3.org/Graphics/SVG/1.1/DTD/svg11.dtd">
<!-- Generated by graphviz version 11.0.0 (20240428.1522)
 -->
<!-- Title: v8::internal::FastKeyAccumulator Pages: 1 -->
<svg width="210pt" height="198pt"
 viewBox="0.00 0.00 210.00 198.00" xmlns="http://www.w3.org/2000/svg" xmlns:xlink="http://www.w3.org/1999/xlink">
<g id="graph0" class="graph" transform="scale(1 1) rotate(0) translate(4 194)">
<title>v8::internal::FastKeyAccumulator</title>
<!-- Node1 -->
<g id="Node000001" class="node">
<title>Node1</title>
<g id="a_Node000001"><a xlink:title=" ">
<polygon fill="#999999" stroke="none" points="202,-190 0,-190 0,0 202,0 202,-190"/>
<text text-anchor="start" x="5" y="-176.5" font-family="Cascadia Code NF" font-size="10.00">v8::internal::FastKeyAccumulator</text>
<text text-anchor="start" x="98" y="-160.5" font-family="Cascadia Code NF" font-size="10.00"> </text>
<text text-anchor="start" x="11" y="-144.5" font-family="Cascadia Code NF" font-size="10.00">+</text>
<text text-anchor="start" x="28" y="-144.5" font-family="Cascadia Code NF" font-size="10.00">FastKeyAccumulator()</text>
<text text-anchor="start" x="11" y="-128.5" font-family="Cascadia Code NF" font-size="10.00">+</text>
<text text-anchor="start" x="28" y="-128.5" font-family="Cascadia Code NF" font-size="10.00">FastKeyAccumulator()</text>
<text text-anchor="start" x="11" y="-112.5" font-family="Cascadia Code NF" font-size="10.00">+</text>
<text text-anchor="start" x="28" y="-112.5" font-family="Cascadia Code NF" font-size="10.00">operator=()</text>
<text text-anchor="start" x="11" y="-96.5" font-family="Cascadia Code NF" font-size="10.00">+</text>
<text text-anchor="start" x="28" y="-96.5" font-family="Cascadia Code NF" font-size="10.00">is_receiver_simple</text>
<text text-anchor="start" x="28" y="-83.75" font-family="Cascadia Code NF" font-size="10.00">_enum()</text>
<text text-anchor="start" x="11" y="-67.5" font-family="Cascadia Code NF" font-size="10.00">+</text>
<text text-anchor="start" x="28" y="-67.5" font-family="Cascadia Code NF" font-size="10.00">has_empty_prototype()</text>
<text text-anchor="start" x="11" y="-51.5" font-family="Cascadia Code NF" font-size="10.00">+</text>
<text text-anchor="start" x="28" y="-51.5" font-family="Cascadia Code NF" font-size="10.00">may_have_elements()</text>
<text text-anchor="start" x="11" y="-35.5" font-family="Cascadia Code NF" font-size="10.00">+</text>
<text text-anchor="start" x="28" y="-35.5" font-family="Cascadia Code NF" font-size="10.00">GetKeys()</text>
<text text-anchor="start" x="11" y="-19.5" font-family="Cascadia Code NF" font-size="10.00">+</text>
<text text-anchor="start" x="28" y="-19.5" font-family="Cascadia Code NF" font-size="10.00">InitializeFastPropertyEnum</text>
<text text-anchor="start" x="28" y="-6.75" font-family="Cascadia Code NF" font-size="10.00">Cache()</text>
<polygon fill="#666666" stroke="#666666" points="0,-172 0,-172 202,-172 202,-172 0,-172"/>
<polygon fill="#666666" stroke="#666666" points="0,-156 0,-156 202,-156 202,-156 0,-156"/>
<polygon fill="none" stroke="#666666" points="0,0 0,-190 202,-190 202,0 0,0"/>
</a>
</g>
</g>
</g>
</svg>
