<?xml version="1.0" encoding="UTF-8" standalone="no"?>
<!DOCTYPE svg PUBLIC "-//W3C//DTD SVG 1.1//EN"
 "http://www.w3.org/Graphics/SVG/1.1/DTD/svg11.dtd">
<!-- Generated by graphviz version 11.0.0 (20240428.1522)
 -->
<!-- Title: v8::Local&lt; T &gt; Pages: 1 -->
<svg width="662pt" height="325pt"
 viewBox="0.00 0.00 662.00 325.00" xmlns="http://www.w3.org/2000/svg" xmlns:xlink="http://www.w3.org/1999/xlink">
<g id="graph0" class="graph" transform="scale(1 1) rotate(0) translate(4 321)">
<title>v8::Local&lt; T &gt;</title>
<!-- Node1 -->
<g id="Node000001" class="node">
<title>Node1</title>
<g id="a_Node000001"><a xlink:title=" ">
<polygon fill="#999999" stroke="none" points="654,-248.5 560,-248.5 560,-4.5 654,-4.5 654,-248.5"/>
<text text-anchor="start" x="565" y="-235" font-family="Cascadia Code NF" font-size="10.00">v8::Local&lt; T &gt;</text>
<text text-anchor="start" x="604" y="-219" font-family="Cascadia Code NF" font-size="10.00"> </text>
<text text-anchor="start" x="565" y="-203" font-family="Cascadia Code NF" font-size="10.00">+</text>
<text text-anchor="start" x="576" y="-203" font-family="Cascadia Code NF" font-size="10.00">Local()</text>
<text text-anchor="start" x="565" y="-187" font-family="Cascadia Code NF" font-size="10.00">+</text>
<text text-anchor="start" x="576" y="-187" font-family="Cascadia Code NF" font-size="10.00">Local()</text>
<text text-anchor="start" x="565" y="-171" font-family="Cascadia Code NF" font-size="10.00">+</text>
<text text-anchor="start" x="576" y="-171" font-family="Cascadia Code NF" font-size="10.00">operator&#45;&gt;()</text>
<text text-anchor="start" x="565" y="-155" font-family="Cascadia Code NF" font-size="10.00">+</text>
<text text-anchor="start" x="576" y="-155" font-family="Cascadia Code NF" font-size="10.00">operator*()</text>
<text text-anchor="start" x="565" y="-139" font-family="Cascadia Code NF" font-size="10.00">+</text>
<text text-anchor="start" x="576" y="-139" font-family="Cascadia Code NF" font-size="10.00">operator==()</text>
<text text-anchor="start" x="565" y="-123" font-family="Cascadia Code NF" font-size="10.00">+</text>
<text text-anchor="start" x="576" y="-123" font-family="Cascadia Code NF" font-size="10.00">operator==()</text>
<text text-anchor="start" x="565" y="-107" font-family="Cascadia Code NF" font-size="10.00">+</text>
<text text-anchor="start" x="576" y="-107" font-family="Cascadia Code NF" font-size="10.00">operator!=()</text>
<text text-anchor="start" x="565" y="-91" font-family="Cascadia Code NF" font-size="10.00">+</text>
<text text-anchor="start" x="576" y="-91" font-family="Cascadia Code NF" font-size="10.00">operator!=()</text>
<text text-anchor="start" x="565" y="-75" font-family="Cascadia Code NF" font-size="10.00">+</text>
<text text-anchor="start" x="576" y="-75" font-family="Cascadia Code NF" font-size="10.00">As()</text>
<text text-anchor="start" x="565" y="-59" font-family="Cascadia Code NF" font-size="10.00">+</text>
<text text-anchor="start" x="576" y="-59" font-family="Cascadia Code NF" font-size="10.00">Cast()</text>
<text text-anchor="start" x="565" y="-43" font-family="Cascadia Code NF" font-size="10.00">+</text>
<text text-anchor="start" x="576" y="-43" font-family="Cascadia Code NF" font-size="10.00">New()</text>
<text text-anchor="start" x="565" y="-27" font-family="Cascadia Code NF" font-size="10.00">+</text>
<text text-anchor="start" x="576" y="-27" font-family="Cascadia Code NF" font-size="10.00">New()</text>
<text text-anchor="start" x="565" y="-11" font-family="Cascadia Code NF" font-size="10.00">+</text>
<text text-anchor="start" x="576" y="-11" font-family="Cascadia Code NF" font-size="10.00">New()</text>
<polygon fill="#666666" stroke="#666666" points="560,-230.5 560,-230.5 654,-230.5 654,-230.5 560,-230.5"/>
<polygon fill="#666666" stroke="#666666" points="560,-214.5 560,-214.5 654,-214.5 654,-214.5 560,-214.5"/>
<polygon fill="none" stroke="#666666" points="560,-4.5 560,-248.5 654,-248.5 654,-4.5 560,-4.5"/>
</a>
</g>
</g>
<!-- Node2 -->
<g id="Node000002" class="node">
<title>Node2</title>
<g id="a_Node000002"><a xlink:href="$de/d99/classv8_1_1LocalBase.html" xlink:title=" ">
<polygon fill="white" stroke="none" points="482,-273.5 364,-273.5 364,-141.5 482,-141.5 482,-273.5"/>
<text text-anchor="start" x="369" y="-260" font-family="Cascadia Code NF" font-size="10.00">v8::LocalBase&lt; T &gt;</text>
<text text-anchor="start" x="420" y="-244" font-family="Cascadia Code NF" font-size="10.00"> </text>
<text text-anchor="start" x="376.5" y="-228" font-family="Cascadia Code NF" font-size="10.00">#</text>
<text text-anchor="start" x="395" y="-228" font-family="Cascadia Code NF" font-size="10.00">LocalBase()</text>
<text text-anchor="start" x="376.5" y="-212" font-family="Cascadia Code NF" font-size="10.00">#</text>
<text text-anchor="start" x="395" y="-212" font-family="Cascadia Code NF" font-size="10.00">LocalBase()</text>
<text text-anchor="start" x="376.5" y="-196" font-family="Cascadia Code NF" font-size="10.00">#</text>
<text text-anchor="start" x="395" y="-196" font-family="Cascadia Code NF" font-size="10.00">LocalBase()</text>
<text text-anchor="start" x="376.5" y="-180" font-family="Cascadia Code NF" font-size="10.00">#</text>
<text text-anchor="start" x="395" y="-180" font-family="Cascadia Code NF" font-size="10.00">New()</text>
<text text-anchor="start" x="376.5" y="-164" font-family="Cascadia Code NF" font-size="10.00">#</text>
<text text-anchor="start" x="395" y="-164" font-family="Cascadia Code NF" font-size="10.00">New()</text>
<text text-anchor="start" x="376.5" y="-148" font-family="Cascadia Code NF" font-size="10.00">#</text>
<text text-anchor="start" x="395" y="-148" font-family="Cascadia Code NF" font-size="10.00">FromSlot()</text>
<polygon fill="#666666" stroke="#666666" points="364,-255.5 364,-255.5 482,-255.5 482,-255.5 364,-255.5"/>
<polygon fill="#666666" stroke="#666666" points="364,-239.5 364,-239.5 482,-239.5 482,-239.5 364,-239.5"/>
<polygon fill="none" stroke="#666666" points="364,-141.5 364,-273.5 482,-273.5 482,-141.5 364,-141.5"/>
</a>
</g>
</g>
<!-- Node2&#45;&gt;Node1 -->
<g id="edge1_Node000001_Node000002" class="edge">
<title>Node2&#45;&gt;Node1</title>
<g id="a_edge1_Node000001_Node000002"><a xlink:title=" ">
<path fill="none" stroke="#63b8ff" d="M492.1,-177.19C514.8,-167.09 539.54,-156.08 560.14,-146.91"/>
<polygon fill="none" stroke="#63b8ff" points="490.93,-173.88 483.22,-181.14 493.78,-180.28 490.93,-173.88"/>
</a>
</g>
</g>
<!-- Node3 -->
<g id="Node000003" class="node">
<title>Node3</title>
<g id="a_Node000003"><a xlink:href="$d4/d76/classv8_1_1api__internal_1_1IndirectHandleBase.html" xlink:title=" ">
<polygon fill="white" stroke="none" points="184,-317 18,-317 18,-108 184,-108 184,-317"/>
<text text-anchor="start" x="23" y="-303.5" font-family="Cascadia Code NF" font-size="10.00">v8::api_internal::Indirect</text>
<text text-anchor="start" x="71" y="-290.75" font-family="Cascadia Code NF" font-size="10.00">HandleBase</text>
<text text-anchor="start" x="98" y="-274.5" font-family="Cascadia Code NF" font-size="10.00"> </text>
<text text-anchor="start" x="29" y="-258.5" font-family="Cascadia Code NF" font-size="10.00">+</text>
<text text-anchor="start" x="46" y="-258.5" font-family="Cascadia Code NF" font-size="10.00">IsEmpty()</text>
<text text-anchor="start" x="29" y="-242.5" font-family="Cascadia Code NF" font-size="10.00">+</text>
<text text-anchor="start" x="46" y="-242.5" font-family="Cascadia Code NF" font-size="10.00">Clear()</text>
<text text-anchor="start" x="29" y="-226.5" font-family="Cascadia Code NF" font-size="10.00">#</text>
<text text-anchor="start" x="46" y="-226.5" font-family="Cascadia Code NF" font-size="10.00">IndirectHandleBase()</text>
<text text-anchor="start" x="29" y="-210.5" font-family="Cascadia Code NF" font-size="10.00">#</text>
<text text-anchor="start" x="46" y="-210.5" font-family="Cascadia Code NF" font-size="10.00">IndirectHandleBase()</text>
<text text-anchor="start" x="29" y="-194.5" font-family="Cascadia Code NF" font-size="10.00">#</text>
<text text-anchor="start" x="46" y="-194.5" font-family="Cascadia Code NF" font-size="10.00">operator=()</text>
<text text-anchor="start" x="29" y="-178.5" font-family="Cascadia Code NF" font-size="10.00">#</text>
<text text-anchor="start" x="46" y="-178.5" font-family="Cascadia Code NF" font-size="10.00">IndirectHandleBase()</text>
<text text-anchor="start" x="29" y="-162.5" font-family="Cascadia Code NF" font-size="10.00">#</text>
<text text-anchor="start" x="46" y="-162.5" font-family="Cascadia Code NF" font-size="10.00">ptr()</text>
<text text-anchor="start" x="29" y="-146.5" font-family="Cascadia Code NF" font-size="10.00">#</text>
<text text-anchor="start" x="46" y="-146.5" font-family="Cascadia Code NF" font-size="10.00">slot()</text>
<text text-anchor="start" x="29" y="-130.5" font-family="Cascadia Code NF" font-size="10.00">#</text>
<text text-anchor="start" x="46" y="-130.5" font-family="Cascadia Code NF" font-size="10.00">slot()</text>
<text text-anchor="start" x="29" y="-114.5" font-family="Cascadia Code NF" font-size="10.00">#</text>
<text text-anchor="start" x="46" y="-114.5" font-family="Cascadia Code NF" font-size="10.00">value()</text>
<polygon fill="#666666" stroke="#666666" points="18,-286 18,-286 184,-286 184,-286 18,-286"/>
<polygon fill="#666666" stroke="#666666" points="18,-270 18,-270 184,-270 184,-270 18,-270"/>
<polygon fill="none" stroke="#666666" points="18,-108 18,-317 184,-317 184,-108 18,-108"/>
</a>
</g>
</g>
<!-- Node3&#45;&gt;Node2 -->
<g id="edge2_Node000002_Node000003" class="edge">
<title>Node3&#45;&gt;Node2</title>
<g id="a_edge2_Node000002_Node000003"><a xlink:title=" ">
<path fill="none" stroke="#63b8ff" d="M195.46,-211.04C250.15,-210.19 317.46,-209.13 364.44,-208.4"/>
<polygon fill="none" stroke="#63b8ff" points="195.45,-207.54 185.51,-211.2 195.56,-214.54 195.45,-207.54"/>
</a>
</g>
</g>
<!-- Node4 -->
<g id="Node000004" class="node">
<title>Node4</title>
<g id="a_Node000004"><a xlink:href="$d1/d43/classv8_1_1api__internal_1_1StackAllocated.html" xlink:title=" ">
<polygon fill="white" stroke="none" points="524,-113 322,-113 322,0 524,0 524,-113"/>
<text text-anchor="start" x="327" y="-99.5" font-family="Cascadia Code NF" font-size="10.00">v8::api_internal::StackAllocated</text>
<text text-anchor="start" x="396" y="-86.75" font-family="Cascadia Code NF" font-size="10.00">&lt; false &gt;</text>
<text text-anchor="start" x="420" y="-70.5" font-family="Cascadia Code NF" font-size="10.00"> </text>
<text text-anchor="start" x="348" y="-54.5" font-family="Cascadia Code NF" font-size="10.00">+</text>
<text text-anchor="start" x="380" y="-54.5" font-family="Cascadia Code NF" font-size="10.00">StackAllocated()</text>
<text text-anchor="start" x="348" y="-38.5" font-family="Cascadia Code NF" font-size="10.00">#</text>
<text text-anchor="start" x="380" y="-38.5" font-family="Cascadia Code NF" font-size="10.00">StackAllocated()</text>
<text text-anchor="start" x="348" y="-22.5" font-family="Cascadia Code NF" font-size="10.00">#</text>
<text text-anchor="start" x="380" y="-22.5" font-family="Cascadia Code NF" font-size="10.00">StackAllocated()</text>
<text text-anchor="start" x="348" y="-6.5" font-family="Cascadia Code NF" font-size="10.00">#</text>
<text text-anchor="start" x="380" y="-6.5" font-family="Cascadia Code NF" font-size="10.00">VerifyOnStack()</text>
<polygon fill="#bfbfbf" stroke="#bfbfbf" points="322,-82 322,-82 524,-82 524,-82 322,-82"/>
<polygon fill="#bfbfbf" stroke="#bfbfbf" points="322,-66 322,-66 524,-66 524,-66 322,-66"/>
<polygon fill="none" stroke="#bfbfbf" points="322,0 322,-113 524,-113 524,0 322,0"/>
</a>
</g>
</g>
<!-- Node4&#45;&gt;Node1 -->
<g id="edge3_Node000001_Node000004" class="edge">
<title>Node4&#45;&gt;Node1</title>
<g id="a_edge3_Node000001_Node000004"><a xlink:title=" ">
<path fill="none" stroke="#63b8ff" d="M534.47,-98.99C543.48,-102.45 552.22,-105.82 560.33,-108.93"/>
<polygon fill="none" stroke="#63b8ff" points="535.79,-95.75 525.2,-95.42 533.28,-102.28 535.79,-95.75"/>
</a>
</g>
</g>
<!-- Node5 -->
<g id="Node000005" class="node">
<title>Node5</title>
<g id="a_Node000005"><a xlink:href="$d8/db5/structv8_1_1api__internal_1_1StackAllocated_1_1no__checking__tag.html" xlink:title=" ">
<polygon fill="white" stroke="none" points="202,-89.5 0,-89.5 0,-11.5 202,-11.5 202,-89.5"/>
<text text-anchor="start" x="5" y="-76" font-family="Cascadia Code NF" font-size="10.00">v8::api_internal::StackAllocated</text>
<text text-anchor="start" x="5" y="-63.25" font-family="Cascadia Code NF" font-size="10.00">&lt; check_statically_enabled</text>
<text text-anchor="start" x="44" y="-50.5" font-family="Cascadia Code NF" font-size="10.00"> &gt;::no_checking_tag</text>
<text text-anchor="start" x="98" y="-34" font-family="Cascadia Code NF" font-size="10.00"> </text>
<text text-anchor="start" x="98" y="-18" font-family="Cascadia Code NF" font-size="10.00"> </text>
<polygon fill="#bfbfbf" stroke="#bfbfbf" points="0,-45.5 0,-45.5 202,-45.5 202,-45.5 0,-45.5"/>
<polygon fill="#bfbfbf" stroke="#bfbfbf" points="0,-29.5 0,-29.5 202,-29.5 202,-29.5 0,-29.5"/>
<polygon fill="none" stroke="#bfbfbf" points="0,-11.5 0,-89.5 202,-89.5 202,-11.5 0,-11.5"/>
</a>
</g>
</g>
<!-- Node5&#45;&gt;Node4 -->
<g id="edge4_Node000004_Node000005" class="edge">
<title>Node5&#45;&gt;Node4</title>
<g id="a_edge4_Node000004_Node000005"><a xlink:title=" ">
<path fill="none" stroke="#63b8ff" d="M201.93,-52.37C236.07,-53.01 274.47,-53.73 309.52,-54.39"/>
<polygon fill="none" stroke="#63b8ff" points="309.38,-54.39 315.45,-50.5 321.37,-54.61 315.3,-58.5 309.38,-54.39"/>
</a>
</g>
<text text-anchor="middle" x="262" y="-56.75" font-family="Cascadia Code NF" font-size="10.00" fill="grey"> #do_not_check</text>
</g>
</g>
</svg>
