<?xml version="1.0" encoding="UTF-8" standalone="no"?>
<!DOCTYPE svg PUBLIC "-//W3C//DTD SVG 1.1//EN"
 "http://www.w3.org/Graphics/SVG/1.1/DTD/svg11.dtd">
<!-- Generated by graphviz version 11.0.0 (20240428.1522)
 -->
<!-- Title: v8::internal::QwNeonRegister Pages: 1 -->
<!--zoomable 198 -->

<svg id="main" version="1.1" xmlns="http://www.w3.org/2000/svg" xmlns:xlink="http://www.w3.org/1999/xlink" xml:space="preserve" onload="init(evt)">
<style type="text/css"><![CDATA[
.node, .edge {opacity: 0.7;}
.node.selected, .edge.selected {opacity: 1;}
.edge:hover path { stroke: red; }
.edge:hover polygon { stroke: red; fill: red; }
svg#main { background-color: #111; }
]]></style>

<defs>
  <circle id="rim" cx="0" cy="0" r="7"/>
  <circle id="rim2" cx="0" cy="0" r="3.5"/>
  <g id="zoomPlus">
    <use xlink:href="#rim" fill="#404040"><set attributeName="fill" to="#808080" begin="zoomplus.mouseover" end="zoomplus.mouseout"/></use>
    <path d="M-4,0h8M0,-4v8" fill="none" stroke="white" stroke-width="1.5" pointer-events="none"/>
  </g>
  <g id="zoomMin">
    <use xlink:href="#rim" fill="#404040"><set attributeName="fill" to="#808080" begin="zoomminus.mouseover" end="zoomminus.mouseout"/></use>
    <path d="M-4,0h8" fill="none" stroke="white" stroke-width="1.5" pointer-events="none"/>
  </g>
  <g id="arrowUp" transform="translate(30 24)">
    <use xlink:href="#rim"/>
    <path pointer-events="none" fill="none" stroke="white" stroke-width="1.5" d="M0,-3.0v7 M-2.5,-0.5L0,-3.0L2.5,-0.5"/>
  </g>
  <g id="arrowRight" transform="rotate(90) translate(36 -43)">
    <use xlink:href="#rim"/>
    <path pointer-events="none" fill="none" stroke="white" stroke-width="1.5" d="M0,-3.0v7 M-2.5,-0.5L0,-3.0L2.5,-0.5"/>
  </g>
  <g id="arrowDown" transform="rotate(180) translate(-30 -48)">
    <use xlink:href="#rim"/>
    <path pointer-events="none" fill="none" stroke="white" stroke-width="1.5" d="M0,-3.0v7 M-2.5,-0.5L0,-3.0L2.5,-0.5"/>
  </g>
  <g id="arrowLeft" transform="rotate(270) translate(-36 17)">
    <use xlink:href="#rim"/>
    <path pointer-events="none" fill="none" stroke="white" stroke-width="1.5" d="M0,-3.0v7 M-2.5,-0.5L0,-3.0L2.5,-0.5"/>
  </g>
  <g id="resetDef">
    <use xlink:href="#rim2" fill="#404040"><set attributeName="fill" to="#808080" begin="reset.mouseover" end="reset.mouseout"/></use>
  </g>
</defs>
<script type="application/ecmascript">
var viewWidth = 584;
var viewHeight = 198;
var sectionId = 'dynsection-1';
</script>
<script type="application/ecmascript" xlink:href="../../svg.min.js"/>
<svg id="graph" class="graph">
<g id="viewport">
<title>v8::internal::QwNeonRegister</title>
<!-- Node1 -->
<g id="Node000001" class="node">
<title>Node1</title>
<g id="a_Node000001"><a xlink:title=" ">
<polygon fill="#999999" stroke="none" points="576,-153 398,-153 398,-37 576,-37 576,-153"/>
<text text-anchor="start" x="403" y="-139.5" font-family="Cascadia Code NF" font-size="10.00">v8::internal::QwNeonRegister</text>
<text text-anchor="start" x="484" y="-123.5" font-family="Cascadia Code NF" font-size="10.00"> </text>
<text text-anchor="start" x="421" y="-107.5" font-family="Cascadia Code NF" font-size="10.00">+</text>
<text text-anchor="start" x="450" y="-107.5" font-family="Cascadia Code NF" font-size="10.00">split_code()</text>
<text text-anchor="start" x="421" y="-91.5" font-family="Cascadia Code NF" font-size="10.00">+</text>
<text text-anchor="start" x="450" y="-91.5" font-family="Cascadia Code NF" font-size="10.00">low()</text>
<text text-anchor="start" x="421" y="-75.5" font-family="Cascadia Code NF" font-size="10.00">+</text>
<text text-anchor="start" x="450" y="-75.5" font-family="Cascadia Code NF" font-size="10.00">high()</text>
<text text-anchor="start" x="421" y="-59.5" font-family="Cascadia Code NF" font-size="10.00">+</text>
<text text-anchor="start" x="450" y="-59.5" font-family="Cascadia Code NF" font-size="10.00">ToVfpRegList()</text>
<text text-anchor="start" x="421" y="-43.5" font-family="Cascadia Code NF" font-size="10.00">+</text>
<text text-anchor="start" x="450" y="-43.5" font-family="Cascadia Code NF" font-size="10.00">split_code()</text>
<polygon fill="#666666" stroke="#666666" points="398,-135 398,-135 576,-135 576,-135 398,-135"/>
<polygon fill="#666666" stroke="#666666" points="398,-119 398,-119 576,-119 576,-119 398,-119"/>
<polygon fill="none" stroke="#666666" points="398,-37 398,-153 576,-153 576,-37 398,-37"/>
</a>
</g>
</g>
<!-- Node2 -->
<g id="Node000002" class="node">
<title>Node2</title>
<g id="a_Node000002"><a xlink:href="../../da/d96/classv8_1_1internal_1_1RegisterBase.html" target="_top" xlink:title=" ">
<polygon fill="white" stroke="none" points="362,-190 166,-190 166,0 362,0 362,-190"/>
<text text-anchor="start" x="171" y="-176.5" font-family="Cascadia Code NF" font-size="10.00">v8::internal::RegisterBase</text>
<text text-anchor="start" x="171" y="-163.75" font-family="Cascadia Code NF" font-size="10.00">&lt; QwNeonRegister, kSimd128After</text>
<text text-anchor="start" x="246" y="-151" font-family="Cascadia Code NF" font-size="10.00">Last &gt;</text>
<text text-anchor="start" x="261" y="-134.5" font-family="Cascadia Code NF" font-size="10.00"> </text>
<text text-anchor="start" x="178.5" y="-118.5" font-family="Cascadia Code NF" font-size="10.00">+</text>
<text text-anchor="start" x="197" y="-118.5" font-family="Cascadia Code NF" font-size="10.00">is_valid()</text>
<text text-anchor="start" x="178.5" y="-102.5" font-family="Cascadia Code NF" font-size="10.00">+</text>
<text text-anchor="start" x="197" y="-102.5" font-family="Cascadia Code NF" font-size="10.00">code()</text>
<text text-anchor="start" x="178.5" y="-86.5" font-family="Cascadia Code NF" font-size="10.00">+</text>
<text text-anchor="start" x="197" y="-86.5" font-family="Cascadia Code NF" font-size="10.00">operator==()</text>
<text text-anchor="start" x="178.5" y="-70.5" font-family="Cascadia Code NF" font-size="10.00">+</text>
<text text-anchor="start" x="197" y="-70.5" font-family="Cascadia Code NF" font-size="10.00">operator!=()</text>
<text text-anchor="start" x="178.5" y="-54.5" font-family="Cascadia Code NF" font-size="10.00">+</text>
<text text-anchor="start" x="197" y="-54.5" font-family="Cascadia Code NF" font-size="10.00">no_reg()</text>
<text text-anchor="start" x="178.5" y="-38.5" font-family="Cascadia Code NF" font-size="10.00">+</text>
<text text-anchor="start" x="197" y="-38.5" font-family="Cascadia Code NF" font-size="10.00">from_code()</text>
<text text-anchor="start" x="178.5" y="-22.5" font-family="Cascadia Code NF" font-size="10.00">+</text>
<text text-anchor="start" x="197" y="-22.5" font-family="Cascadia Code NF" font-size="10.00">GetSpecialRegisterName()</text>
<text text-anchor="start" x="178.5" y="-6.5" font-family="Cascadia Code NF" font-size="10.00">#</text>
<text text-anchor="start" x="197" y="-6.5" font-family="Cascadia Code NF" font-size="10.00">RegisterBase()</text>
<polygon fill="#bfbfbf" stroke="#bfbfbf" points="166,-146 166,-146 362,-146 362,-146 166,-146"/>
<polygon fill="#bfbfbf" stroke="#bfbfbf" points="166,-130 166,-130 362,-130 362,-130 166,-130"/>
<polygon fill="none" stroke="#bfbfbf" points="166,0 166,-190 362,-190 362,0 166,0"/>
</a>
</g>
</g>
<!-- Node2&#45;&gt;Node1 -->
<g id="edge1_Node000001_Node000002" class="edge">
<title>Node2&#45;&gt;Node1</title>
<g id="a_edge1_Node000001_Node000002"><a xlink:title=" ">
<path fill="none" stroke="#63b8ff" d="M373.29,-95C381.63,-95 390,-95 398.19,-95"/>
<polygon fill="none" stroke="#63b8ff" points="373.45,-91.5 363.45,-95 373.45,-98.5 373.45,-91.5"/>
</a>
</g>
</g>
<!-- Node3 -->
<g id="Node000003" class="node">
<title>Node3</title>
<g id="a_Node000003"><a xlink:href="../../d9/df1/classint8__t.html" target="_top" xlink:title=" ">
<polygon fill="white" stroke="none" points="46,-121 0,-121 0,-69 46,-69 46,-121"/>
<text text-anchor="start" x="5" y="-107.5" font-family="Cascadia Code NF" font-size="10.00">int8_t</text>
<text text-anchor="start" x="20" y="-91.5" font-family="Cascadia Code NF" font-size="10.00"> </text>
<text text-anchor="start" x="20" y="-75.5" font-family="Cascadia Code NF" font-size="10.00"> </text>
<polygon fill="#bfbfbf" stroke="#bfbfbf" points="0,-103 0,-103 46,-103 46,-103 0,-103"/>
<polygon fill="#bfbfbf" stroke="#bfbfbf" points="0,-87 0,-87 46,-87 46,-87 0,-87"/>
<polygon fill="none" stroke="#bfbfbf" points="0,-69 0,-121 46,-121 46,-69 0,-69"/>
</a>
</g>
</g>
<!-- Node3&#45;&gt;Node2 -->
<g id="edge2_Node000002_Node000003" class="edge">
<title>Node3&#45;&gt;Node2</title>
<g id="a_edge2_Node000002_Node000003"><a xlink:title=" ">
<path fill="none" stroke="#63b8ff" d="M45.63,-95C70.31,-95 112.53,-95 153.24,-95"/>
<polygon fill="none" stroke="#63b8ff" points="153.19,-95 159.19,-91 165.19,-95 159.19,-99 153.19,-95"/>
</a>
</g>
<text text-anchor="middle" x="106" y="-111" font-family="Cascadia Code NF" font-size="10.00" fill="grey"> +kCode_no_reg</text>
<text text-anchor="middle" x="106" y="-98.25" font-family="Cascadia Code NF" font-size="10.00" fill="grey">+kNumRegisters</text>
</g>
</g>
</svg>

<g id="navigator" transform="translate(0 0)" fill="#404254">
  <rect fill="#f2f5e9" fill-opacity="0.5" stroke="#606060" stroke-width=".5" x="0" y="0" width="60" height="60"/>
  <use id="zoomplus" xlink:href="#zoomPlus" x="17" y="9" onmousedown="handleZoom(evt,'in')"/>
  <use id="zoomminus" xlink:href="#zoomMin" x="42" y="9" onmousedown="handleZoom(evt,'out')"/>
  <use id="reset" xlink:href="#resetDef" x="30" y="36" onmousedown="handleReset()"/>
   <use id="arrowup" xlink:href="#arrowUp" x="0" y="0" onmousedown="handlePan(0,-1)"/>
  <use id="arrowright" xlink:href="#arrowRight" x="0" y="0" onmousedown="handlePan(1,0)"/>
  <use id="arrowdown" xlink:href="#arrowDown" x="0" y="0" onmousedown="handlePan(0,1)"/>
  <use id="arrowleft" xlink:href="#arrowLeft" x="0" y="0" onmousedown="handlePan(-1,0)"/>
</g>
<svg viewBox="0 0 15 15" width="100%" height="30px" preserveAspectRatio="xMaxYMin meet">
 <g id="arrow_out" transform="scale(0.3 0.3)">
  <a xlink:href="classv8_1_1internal_1_1QwNeonRegister__coll__graph_org.svg" target="_base">
   <rect id="button" ry="5" rx="5" y="6" x="6" height="38" width="38"
        fill="#f2f5e9" fill-opacity="0.5" stroke="#606060" stroke-width="1.0"/>
   <path id="arrow"
     d="M 11.500037,31.436501 C 11.940474,20.09759 22.043105,11.32322 32.158766,21.979434 L 37.068811,17.246167 C 37.068811,17.246167 37.088388,32 37.088388,32 L 22.160133,31.978069 C 22.160133,31.978069 26.997745,27.140456 26.997745,27.140456 C 18.528582,18.264221 13.291696,25.230495 11.500037,31.436501 z"
     style="fill:#404040;"/>
  </a>
 </g>
</svg>

<style type='text/css'>
<![CDATA[
[data-mouse-over-selected='false'] { opacity: 0.7; }
[data-mouse-over-selected='true']  { opacity: 1.0; }
]]>
</style>
<script type="application/ecmascript"><![CDATA[
document.addEventListener('DOMContentLoaded', (event) => {
  highlightEdges();
  highlightAdjacentNodes();
});
]]></script>
</svg>
