<?xml version="1.0" encoding="UTF-8" standalone="no"?>
<!DOCTYPE svg PUBLIC "-//W3C//DTD SVG 1.1//EN"
 "http://www.w3.org/Graphics/SVG/1.1/DTD/svg11.dtd">
<!-- Generated by graphviz version 11.0.0 (20240428.1522)
 -->
<!-- Title: v8::internal::compiler::FeedbackSource Pages: 1 -->
<svg width="792pt" height="448pt"
 viewBox="0.00 0.00 792.00 447.50" xmlns="http://www.w3.org/2000/svg" xmlns:xlink="http://www.w3.org/1999/xlink">
<g id="graph0" class="graph" transform="scale(1 1) rotate(0) translate(4 443.5)">
<title>v8::internal::compiler::FeedbackSource</title>
<!-- Node1 -->
<g id="Node000001" class="node">
<title>Node1</title>
<g id="a_Node000001"><a xlink:title=" ">
<polygon fill="#999999" stroke="none" points="784,-164.5 642,-164.5 642,-35.5 784,-35.5 784,-164.5"/>
<text text-anchor="start" x="647" y="-151" font-family="Cascadia Code NF" font-size="10.00">v8::internal::compiler</text>
<text text-anchor="start" x="665" y="-138.25" font-family="Cascadia Code NF" font-size="10.00">::FeedbackSource</text>
<text text-anchor="start" x="710" y="-122" font-family="Cascadia Code NF" font-size="10.00"> </text>
<text text-anchor="start" x="653" y="-106" font-family="Cascadia Code NF" font-size="10.00">+</text>
<text text-anchor="start" x="670" y="-106" font-family="Cascadia Code NF" font-size="10.00">FeedbackSource()</text>
<text text-anchor="start" x="653" y="-90" font-family="Cascadia Code NF" font-size="10.00">+</text>
<text text-anchor="start" x="670" y="-90" font-family="Cascadia Code NF" font-size="10.00">FeedbackSource()</text>
<text text-anchor="start" x="653" y="-74" font-family="Cascadia Code NF" font-size="10.00">+</text>
<text text-anchor="start" x="670" y="-74" font-family="Cascadia Code NF" font-size="10.00">FeedbackSource()</text>
<text text-anchor="start" x="653" y="-58" font-family="Cascadia Code NF" font-size="10.00">+</text>
<text text-anchor="start" x="670" y="-58" font-family="Cascadia Code NF" font-size="10.00">IsValid()</text>
<text text-anchor="start" x="653" y="-42" font-family="Cascadia Code NF" font-size="10.00">+</text>
<text text-anchor="start" x="670" y="-42" font-family="Cascadia Code NF" font-size="10.00">index()</text>
<polygon fill="#666666" stroke="#666666" points="642,-133.5 642,-133.5 784,-133.5 784,-133.5 642,-133.5"/>
<polygon fill="#666666" stroke="#666666" points="642,-117.5 642,-117.5 784,-117.5 784,-117.5 642,-117.5"/>
<polygon fill="none" stroke="#666666" points="642,-35.5 642,-164.5 784,-164.5 784,-35.5 642,-35.5"/>
</a>
</g>
</g>
<!-- Node2 -->
<g id="Node000002" class="node">
<title>Node2</title>
<g id="a_Node000002"><a xlink:href="$d6/d22/classv8_1_1internal_1_1Handle.html" xlink:title=" ">
<polygon fill="white" stroke="none" points="558,-439.5 356,-439.5 356,-182.5 558,-182.5 558,-439.5"/>
<text text-anchor="start" x="361" y="-426" font-family="Cascadia Code NF" font-size="10.00">v8::internal::Handle</text>
<text text-anchor="start" x="361" y="-413.25" font-family="Cascadia Code NF" font-size="10.00">&lt; v8::internal::FeedbackVector &gt;</text>
<text text-anchor="start" x="454" y="-397" font-family="Cascadia Code NF" font-size="10.00"> </text>
<text text-anchor="start" x="388" y="-381" font-family="Cascadia Code NF" font-size="10.00">+</text>
<text text-anchor="start" x="426" y="-381" font-family="Cascadia Code NF" font-size="10.00">Handle()</text>
<text text-anchor="start" x="388" y="-365" font-family="Cascadia Code NF" font-size="10.00">+</text>
<text text-anchor="start" x="426" y="-365" font-family="Cascadia Code NF" font-size="10.00">Handle()</text>
<text text-anchor="start" x="388" y="-349" font-family="Cascadia Code NF" font-size="10.00">+</text>
<text text-anchor="start" x="426" y="-349" font-family="Cascadia Code NF" font-size="10.00">Handle()</text>
<text text-anchor="start" x="388" y="-333" font-family="Cascadia Code NF" font-size="10.00">+</text>
<text text-anchor="start" x="426" y="-333" font-family="Cascadia Code NF" font-size="10.00">Handle()</text>
<text text-anchor="start" x="388" y="-317" font-family="Cascadia Code NF" font-size="10.00">+</text>
<text text-anchor="start" x="426" y="-317" font-family="Cascadia Code NF" font-size="10.00">Handle()</text>
<text text-anchor="start" x="388" y="-301" font-family="Cascadia Code NF" font-size="10.00">+</text>
<text text-anchor="start" x="426" y="-301" font-family="Cascadia Code NF" font-size="10.00">Handle()</text>
<text text-anchor="start" x="388" y="-285" font-family="Cascadia Code NF" font-size="10.00">+</text>
<text text-anchor="start" x="426" y="-285" font-family="Cascadia Code NF" font-size="10.00">operator&#45;&gt;()</text>
<text text-anchor="start" x="388" y="-269" font-family="Cascadia Code NF" font-size="10.00">+</text>
<text text-anchor="start" x="426" y="-269" font-family="Cascadia Code NF" font-size="10.00">operator*()</text>
<text text-anchor="start" x="388" y="-253" font-family="Cascadia Code NF" font-size="10.00">+</text>
<text text-anchor="start" x="426" y="-253" font-family="Cascadia Code NF" font-size="10.00">equals()</text>
<text text-anchor="start" x="388" y="-237" font-family="Cascadia Code NF" font-size="10.00">+</text>
<text text-anchor="start" x="426" y="-237" font-family="Cascadia Code NF" font-size="10.00">PatchValue()</text>
<text text-anchor="start" x="388" y="-221" font-family="Cascadia Code NF" font-size="10.00">+</text>
<text text-anchor="start" x="426" y="-221" font-family="Cascadia Code NF" font-size="10.00">New()</text>
<text text-anchor="start" x="388" y="-205" font-family="Cascadia Code NF" font-size="10.00">+</text>
<text text-anchor="start" x="426" y="-205" font-family="Cascadia Code NF" font-size="10.00">cast()</text>
<text text-anchor="start" x="388" y="-189" font-family="Cascadia Code NF" font-size="10.00">+</text>
<text text-anchor="start" x="426" y="-189" font-family="Cascadia Code NF" font-size="10.00">null()</text>
<polygon fill="#bfbfbf" stroke="#bfbfbf" points="356,-408.5 356,-408.5 558,-408.5 558,-408.5 356,-408.5"/>
<polygon fill="#bfbfbf" stroke="#bfbfbf" points="356,-392.5 356,-392.5 558,-392.5 558,-392.5 356,-392.5"/>
<polygon fill="none" stroke="#bfbfbf" points="356,-182.5 356,-439.5 558,-439.5 558,-182.5 356,-182.5"/>
</a>
</g>
</g>
<!-- Node2&#45;&gt;Node1 -->
<g id="edge1_Node000001_Node000002" class="edge">
<title>Node2&#45;&gt;Node1</title>
<g id="a_edge1_Node000001_Node000002"><a xlink:title=" ">
<path fill="none" stroke="#63b8ff" d="M557.66,-228.21C582.35,-207.71 608.48,-186 632.09,-166.39"/>
<polygon fill="none" stroke="#63b8ff" points="632.11,-166.36 634.17,-159.45 641.34,-158.7 639.28,-165.61 632.11,-166.36"/>
</a>
</g>
<text text-anchor="middle" x="600" y="-214.25" font-family="Cascadia Code NF" font-size="10.00" fill="grey"> +vector</text>
</g>
<!-- Node3 -->
<g id="Node000003" class="node">
<title>Node3</title>
<g id="a_Node000003"><a xlink:href="$d7/d65/classv8_1_1internal_1_1HandleBase.html" xlink:title=" ">
<polygon fill="white" stroke="none" points="320,-401 166,-401 166,-221 320,-221 320,-401"/>
<text text-anchor="start" x="171" y="-387.5" font-family="Cascadia Code NF" font-size="10.00">v8::internal::HandleBase</text>
<text text-anchor="start" x="240" y="-371.5" font-family="Cascadia Code NF" font-size="10.00"> </text>
<text text-anchor="start" x="171" y="-355.5" font-family="Cascadia Code NF" font-size="10.00">+</text>
<text text-anchor="start" x="182" y="-355.5" font-family="Cascadia Code NF" font-size="10.00">is_identical_to()</text>
<text text-anchor="start" x="171" y="-339.5" font-family="Cascadia Code NF" font-size="10.00">+</text>
<text text-anchor="start" x="182" y="-339.5" font-family="Cascadia Code NF" font-size="10.00">is_null()</text>
<text text-anchor="start" x="171" y="-323.5" font-family="Cascadia Code NF" font-size="10.00">+</text>
<text text-anchor="start" x="182" y="-323.5" font-family="Cascadia Code NF" font-size="10.00">address()</text>
<text text-anchor="start" x="171" y="-307.5" font-family="Cascadia Code NF" font-size="10.00">+</text>
<text text-anchor="start" x="182" y="-307.5" font-family="Cascadia Code NF" font-size="10.00">location()</text>
<text text-anchor="start" x="171" y="-291.5" font-family="Cascadia Code NF" font-size="10.00">#</text>
<text text-anchor="start" x="182" y="-291.5" font-family="Cascadia Code NF" font-size="10.00">HandleBase()</text>
<text text-anchor="start" x="171" y="-275.5" font-family="Cascadia Code NF" font-size="10.00">#</text>
<text text-anchor="start" x="182" y="-275.5" font-family="Cascadia Code NF" font-size="10.00">HandleBase()</text>
<text text-anchor="start" x="171" y="-259.5" font-family="Cascadia Code NF" font-size="10.00">#</text>
<text text-anchor="start" x="182" y="-259.5" font-family="Cascadia Code NF" font-size="10.00">HandleBase()</text>
<text text-anchor="start" x="171" y="-243.5" font-family="Cascadia Code NF" font-size="10.00">#</text>
<text text-anchor="start" x="182" y="-243.5" font-family="Cascadia Code NF" font-size="10.00">HandleBase()</text>
<text text-anchor="start" x="171" y="-227.5" font-family="Cascadia Code NF" font-size="10.00">#</text>
<text text-anchor="start" x="182" y="-227.5" font-family="Cascadia Code NF" font-size="10.00">IsDereferenceAllowed()</text>
<polygon fill="#bfbfbf" stroke="#bfbfbf" points="166,-383 166,-383 320,-383 320,-383 166,-383"/>
<polygon fill="#bfbfbf" stroke="#bfbfbf" points="166,-367 166,-367 320,-367 320,-367 166,-367"/>
<polygon fill="none" stroke="#bfbfbf" points="166,-221 166,-401 320,-401 320,-221 166,-221"/>
</a>
</g>
</g>
<!-- Node3&#45;&gt;Node2 -->
<g id="edge2_Node000002_Node000003" class="edge">
<title>Node3&#45;&gt;Node2</title>
<g id="a_edge2_Node000002_Node000003"><a xlink:title=" ">
<path fill="none" stroke="#63b8ff" d="M331.39,-311C339.57,-311 347.91,-311 356.19,-311"/>
<polygon fill="none" stroke="#63b8ff" points="331.45,-307.5 321.45,-311 331.45,-314.5 331.45,-307.5"/>
</a>
</g>
</g>
<!-- Node4 -->
<g id="Node000004" class="node">
<title>Node4</title>
<g id="a_Node000004"><a xlink:href="$d0/d60/classuintptr__t.html" xlink:title=" ">
<polygon fill="white" stroke="none" points="64,-337 0,-337 0,-285 64,-285 64,-337"/>
<text text-anchor="start" x="5" y="-323.5" font-family="Cascadia Code NF" font-size="10.00">uintptr_t</text>
<text text-anchor="start" x="29" y="-307.5" font-family="Cascadia Code NF" font-size="10.00"> </text>
<text text-anchor="start" x="29" y="-291.5" font-family="Cascadia Code NF" font-size="10.00"> </text>
<polygon fill="#bfbfbf" stroke="#bfbfbf" points="0,-319 0,-319 64,-319 64,-319 0,-319"/>
<polygon fill="#bfbfbf" stroke="#bfbfbf" points="0,-303 0,-303 64,-303 64,-303 0,-303"/>
<polygon fill="none" stroke="#bfbfbf" points="0,-285 0,-337 64,-337 64,-285 0,-285"/>
</a>
</g>
</g>
<!-- Node4&#45;&gt;Node3 -->
<g id="edge3_Node000003_Node000004" class="edge">
<title>Node4&#45;&gt;Node3</title>
<g id="a_edge3_Node000003_Node000004"><a xlink:title=" ">
<path fill="none" stroke="#63b8ff" d="M63.84,-311C87.49,-311 121.39,-311 153.28,-311"/>
<polygon fill="none" stroke="#63b8ff" points="153.41,-311 159.41,-307 165.41,-311 159.41,-315 153.41,-311"/>
</a>
</g>
<text text-anchor="middle" x="115" y="-314.25" font-family="Cascadia Code NF" font-size="10.00" fill="grey"> #location_</text>
</g>
<!-- Node5 -->
<g id="Node000005" class="node">
<title>Node5</title>
<g id="a_Node000005"><a xlink:href="$d5/dc9/classv8_1_1internal_1_1FeedbackSlot.html" xlink:title=" ">
<polygon fill="white" stroke="none" points="540,-164 374,-164 374,0 540,0 540,-164"/>
<text text-anchor="start" x="379" y="-150.5" font-family="Cascadia Code NF" font-size="10.00">v8::internal::FeedbackSlot</text>
<text text-anchor="start" x="454" y="-134.5" font-family="Cascadia Code NF" font-size="10.00"> </text>
<text text-anchor="start" x="394" y="-118.5" font-family="Cascadia Code NF" font-size="10.00">+</text>
<text text-anchor="start" x="420" y="-118.5" font-family="Cascadia Code NF" font-size="10.00">FeedbackSlot()</text>
<text text-anchor="start" x="394" y="-102.5" font-family="Cascadia Code NF" font-size="10.00">+</text>
<text text-anchor="start" x="420" y="-102.5" font-family="Cascadia Code NF" font-size="10.00">FeedbackSlot()</text>
<text text-anchor="start" x="394" y="-86.5" font-family="Cascadia Code NF" font-size="10.00">+</text>
<text text-anchor="start" x="420" y="-86.5" font-family="Cascadia Code NF" font-size="10.00">ToInt()</text>
<text text-anchor="start" x="394" y="-70.5" font-family="Cascadia Code NF" font-size="10.00">+</text>
<text text-anchor="start" x="420" y="-70.5" font-family="Cascadia Code NF" font-size="10.00">IsInvalid()</text>
<text text-anchor="start" x="394" y="-54.5" font-family="Cascadia Code NF" font-size="10.00">+</text>
<text text-anchor="start" x="420" y="-54.5" font-family="Cascadia Code NF" font-size="10.00">operator==()</text>
<text text-anchor="start" x="394" y="-38.5" font-family="Cascadia Code NF" font-size="10.00">+</text>
<text text-anchor="start" x="420" y="-38.5" font-family="Cascadia Code NF" font-size="10.00">operator!=()</text>
<text text-anchor="start" x="394" y="-22.5" font-family="Cascadia Code NF" font-size="10.00">+</text>
<text text-anchor="start" x="420" y="-22.5" font-family="Cascadia Code NF" font-size="10.00">WithOffset()</text>
<text text-anchor="start" x="394" y="-6.5" font-family="Cascadia Code NF" font-size="10.00">+</text>
<text text-anchor="start" x="420" y="-6.5" font-family="Cascadia Code NF" font-size="10.00">Invalid()</text>
<polygon fill="#bfbfbf" stroke="#bfbfbf" points="374,-146 374,-146 540,-146 540,-146 374,-146"/>
<polygon fill="#bfbfbf" stroke="#bfbfbf" points="374,-130 374,-130 540,-130 540,-130 374,-130"/>
<polygon fill="none" stroke="#bfbfbf" points="374,0 374,-164 540,-164 540,0 374,0"/>
</a>
</g>
</g>
<!-- Node5&#45;&gt;Node1 -->
<g id="edge4_Node000001_Node000005" class="edge">
<title>Node5&#45;&gt;Node1</title>
<g id="a_edge4_Node000001_Node000005"><a xlink:title=" ">
<path fill="none" stroke="#63b8ff" d="M539.77,-87.79C568.44,-89.83 600.65,-92.11 629.39,-94.15"/>
<polygon fill="none" stroke="#63b8ff" points="629.46,-94.15 635.73,-90.58 641.43,-95 635.16,-98.56 629.46,-94.15"/>
</a>
</g>
<text text-anchor="middle" x="600" y="-96.25" font-family="Cascadia Code NF" font-size="10.00" fill="grey"> +slot</text>
</g>
</g>
</svg>
