<?xml version="1.0" encoding="UTF-8" standalone="no"?>
<!DOCTYPE svg PUBLIC "-//W3C//DTD SVG 1.1//EN"
 "http://www.w3.org/Graphics/SVG/1.1/DTD/svg11.dtd">
<!-- Generated by graphviz version 11.0.0 (20240428.1522)
 -->
<!-- Title: TorqueGeneratedStrongDescriptorArray&lt; D, P &gt; Pages: 1 -->
<svg width="264pt" height="272pt"
 viewBox="0.00 0.00 264.00 272.00" xmlns="http://www.w3.org/2000/svg" xmlns:xlink="http://www.w3.org/1999/xlink">
<g id="graph0" class="graph" transform="scale(1 1) rotate(0) translate(4 268)">
<title>TorqueGeneratedStrongDescriptorArray&lt; D, P &gt;</title>
<!-- Node1 -->
<g id="Node000001" class="node">
<title>Node1</title>
<g id="a_Node000001"><a xlink:title=" ">
<polygon fill="#999999" stroke="none" points="256,-264 52,-264 52,0 256,0 256,-264"/>
<text text-anchor="start" x="61" y="-250.5" font-family="Cascadia Code NF" font-size="10.00">TorqueGeneratedStrongDescriptor</text>
<text text-anchor="start" x="115" y="-237.75" font-family="Cascadia Code NF" font-size="10.00">Array&lt; D, P &gt;</text>
<text text-anchor="start" x="56" y="-221.5" font-family="Cascadia Code NF" font-size="10.00">+</text>
<text text-anchor="start" x="66" y="-221.5" font-family="Cascadia Code NF" font-size="10.00">kStartOfWeakFieldsOffset</text>
<text text-anchor="start" x="56" y="-205.5" font-family="Cascadia Code NF" font-size="10.00">+</text>
<text text-anchor="start" x="66" y="-205.5" font-family="Cascadia Code NF" font-size="10.00">kEndOfWeakFieldsOffset</text>
<text text-anchor="start" x="56" y="-189.5" font-family="Cascadia Code NF" font-size="10.00">+</text>
<text text-anchor="start" x="66" y="-189.5" font-family="Cascadia Code NF" font-size="10.00">kStartOfStrongFieldsOffset</text>
<text text-anchor="start" x="56" y="-173.5" font-family="Cascadia Code NF" font-size="10.00">+</text>
<text text-anchor="start" x="66" y="-173.5" font-family="Cascadia Code NF" font-size="10.00">kEndOfStrongFieldsOffset</text>
<text text-anchor="start" x="56" y="-157.5" font-family="Cascadia Code NF" font-size="10.00">+</text>
<text text-anchor="start" x="66" y="-157.5" font-family="Cascadia Code NF" font-size="10.00">kHeaderSize</text>
<text text-anchor="start" x="56" y="-141.5" font-family="Cascadia Code NF" font-size="10.00">+</text>
<text text-anchor="start" x="66" y="-141.5" font-family="Cascadia Code NF" font-size="10.00">AllocatedSize()</text>
<text text-anchor="start" x="56" y="-125.5" font-family="Cascadia Code NF" font-size="10.00">+</text>
<text text-anchor="start" x="66" y="-125.5" font-family="Cascadia Code NF" font-size="10.00">TorqueGeneratedStrongDescriptor</text>
<text text-anchor="start" x="66" y="-112.75" font-family="Cascadia Code NF" font-size="10.00">Array()</text>
<text text-anchor="start" x="56" y="-96.5" font-family="Cascadia Code NF" font-size="10.00">+</text>
<text text-anchor="start" x="66" y="-96.5" font-family="Cascadia Code NF" font-size="10.00">cast()</text>
<text text-anchor="start" x="56" y="-80.5" font-family="Cascadia Code NF" font-size="10.00">+</text>
<text text-anchor="start" x="66" y="-80.5" font-family="Cascadia Code NF" font-size="10.00">unchecked_cast()</text>
<text text-anchor="start" x="56" y="-64.5" font-family="Cascadia Code NF" font-size="10.00">+</text>
<text text-anchor="start" x="66" y="-64.5" font-family="Cascadia Code NF" font-size="10.00">SizeFor()</text>
<text text-anchor="start" x="56" y="-48.5" font-family="Cascadia Code NF" font-size="10.00">#</text>
<text text-anchor="start" x="66" y="-48.5" font-family="Cascadia Code NF" font-size="10.00">TorqueGeneratedStrongDescriptor</text>
<text text-anchor="start" x="66" y="-35.75" font-family="Cascadia Code NF" font-size="10.00">Array()</text>
<text text-anchor="start" x="56" y="-19.5" font-family="Cascadia Code NF" font-size="10.00">#</text>
<text text-anchor="start" x="66" y="-19.5" font-family="Cascadia Code NF" font-size="10.00">TorqueGeneratedStrongDescriptor</text>
<text text-anchor="start" x="66" y="-6.75" font-family="Cascadia Code NF" font-size="10.00">Array()</text>
<polygon fill="#666666" stroke="#666666" points="52,-233 52,-233 256,-233 256,-233 52,-233"/>
<polygon fill="#666666" stroke="#666666" points="52,-153 52,-153 64,-153 64,-153 52,-153"/>
<polygon fill="#666666" stroke="#666666" points="64,-153 64,-153 256,-153 256,-153 64,-153"/>
<polygon fill="none" stroke="#666666" points="52,0 52,-264 256,-264 256,0 52,0"/>
</a>
</g>
</g>
<!-- Node2 -->
<g id="Node000002" class="node">
<title>Node2</title>
<g id="a_Node000002"><a xlink:href="$db/d72/classP.html" xlink:title=" ">
<polygon fill="white" stroke="none" points="16,-158 0,-158 0,-106 16,-106 16,-158"/>
<text text-anchor="start" x="5" y="-144.5" font-family="Cascadia Code NF" font-size="10.00">P</text>
<text text-anchor="start" x="5" y="-128.5" font-family="Cascadia Code NF" font-size="10.00"> </text>
<text text-anchor="start" x="5" y="-112.5" font-family="Cascadia Code NF" font-size="10.00"> </text>
<polygon fill="#bfbfbf" stroke="#bfbfbf" points="0,-140 0,-140 16,-140 16,-140 0,-140"/>
<polygon fill="#bfbfbf" stroke="#bfbfbf" points="0,-124 0,-124 16,-124 16,-124 0,-124"/>
<polygon fill="none" stroke="#bfbfbf" points="0,-106 0,-158 16,-158 16,-106 0,-106"/>
</a>
</g>
</g>
<!-- Node2&#45;&gt;Node1 -->
<g id="edge1_Node000001_Node000002" class="edge">
<title>Node2&#45;&gt;Node1</title>
<g id="a_edge1_Node000001_Node000002"><a xlink:title=" ">
<path fill="none" stroke="#63b8ff" d="M27.26,-132C34.26,-132 42.83,-132 52.18,-132"/>
<polygon fill="none" stroke="#63b8ff" points="27.46,-128.5 17.46,-132 27.46,-135.5 27.46,-128.5"/>
</a>
</g>
</g>
</g>
</svg>
