<?xml version="1.0" encoding="UTF-8" standalone="no"?>
<!DOCTYPE svg PUBLIC "-//W3C//DTD SVG 1.1//EN"
 "http://www.w3.org/Graphics/SVG/1.1/DTD/svg11.dtd">
<!-- Generated by graphviz version 11.0.0 (20240428.1522)
 -->
<!-- Title: v8::internal::DependentCode Pages: 1 -->
<svg width="752pt" height="480pt"
 viewBox="0.00 0.00 752.00 480.00" xmlns="http://www.w3.org/2000/svg" xmlns:xlink="http://www.w3.org/1999/xlink">
<g id="graph0" class="graph" transform="scale(1 1) rotate(0) translate(4 476)">
<title>v8::internal::DependentCode</title>
<!-- Node1 -->
<g id="Node000001" class="node">
<title>Node1</title>
<g id="a_Node000001"><a xlink:title=" ">
<polygon fill="#999999" stroke="none" points="744,-326 558,-326 558,-146 744,-146 744,-326"/>
<text text-anchor="start" x="570" y="-312.5" font-family="Cascadia Code NF" font-size="10.00">v8::internal::DependentCode</text>
<text text-anchor="start" x="562" y="-296.5" font-family="Cascadia Code NF" font-size="10.00">+</text>
<text text-anchor="start" x="572" y="-296.5" font-family="Cascadia Code NF" font-size="10.00">kEmptyDependentCode</text>
<text text-anchor="start" x="562" y="-280.5" font-family="Cascadia Code NF" font-size="10.00">+</text>
<text text-anchor="start" x="572" y="-280.5" font-family="Cascadia Code NF" font-size="10.00">kSlotsPerEntry</text>
<text text-anchor="start" x="562" y="-264.5" font-family="Cascadia Code NF" font-size="10.00">+</text>
<text text-anchor="start" x="572" y="-264.5" font-family="Cascadia Code NF" font-size="10.00">kCodeSlotOffset</text>
<text text-anchor="start" x="562" y="-248.5" font-family="Cascadia Code NF" font-size="10.00">+</text>
<text text-anchor="start" x="572" y="-248.5" font-family="Cascadia Code NF" font-size="10.00">kGroupsSlotOffset</text>
<text text-anchor="start" x="562" y="-232.5" font-family="Cascadia Code NF" font-size="10.00">+</text>
<text text-anchor="start" x="572" y="-232.5" font-family="Cascadia Code NF" font-size="10.00">DependencyGroupName()</text>
<text text-anchor="start" x="562" y="-216.5" font-family="Cascadia Code NF" font-size="10.00">+</text>
<text text-anchor="start" x="572" y="-216.5" font-family="Cascadia Code NF" font-size="10.00">InstallDependency()</text>
<text text-anchor="start" x="562" y="-200.5" font-family="Cascadia Code NF" font-size="10.00">+</text>
<text text-anchor="start" x="572" y="-200.5" font-family="Cascadia Code NF" font-size="10.00">DeoptimizeDependencyGroups()</text>
<text text-anchor="start" x="562" y="-184.5" font-family="Cascadia Code NF" font-size="10.00">+</text>
<text text-anchor="start" x="572" y="-184.5" font-family="Cascadia Code NF" font-size="10.00">DeoptimizeDependencyGroups()</text>
<text text-anchor="start" x="562" y="-168.5" font-family="Cascadia Code NF" font-size="10.00">+</text>
<text text-anchor="start" x="572" y="-168.5" font-family="Cascadia Code NF" font-size="10.00">MarkCodeForDeoptimization()</text>
<text text-anchor="start" x="562" y="-152.5" font-family="Cascadia Code NF" font-size="10.00">+</text>
<text text-anchor="start" x="572" y="-152.5" font-family="Cascadia Code NF" font-size="10.00">empty_dependent_code()</text>
<polygon fill="#666666" stroke="#666666" points="558,-308 558,-308 744,-308 744,-308 558,-308"/>
<polygon fill="#666666" stroke="#666666" points="558,-244 558,-244 570,-244 570,-244 558,-244"/>
<polygon fill="#666666" stroke="#666666" points="570,-244 570,-244 744,-244 744,-244 570,-244"/>
<polygon fill="none" stroke="#666666" points="558,-146 558,-326 744,-326 744,-146 558,-146"/>
</a>
</g>
</g>
<!-- Node2 -->
<g id="Node000002" class="node">
<title>Node2</title>
<g id="a_Node000002"><a xlink:href="../../db/de3/classv8_1_1internal_1_1WeakArrayList.html" target="_top" xlink:title=" ">
<polygon fill="white" stroke="none" points="522,-414 350,-414 350,-58 522,-58 522,-414"/>
<text text-anchor="start" x="355" y="-400.5" font-family="Cascadia Code NF" font-size="10.00">v8::internal::WeakArrayList</text>
<text text-anchor="start" x="355" y="-384.5" font-family="Cascadia Code NF" font-size="10.00">+</text>
<text text-anchor="start" x="366" y="-384.5" font-family="Cascadia Code NF" font-size="10.00">kMaxCapacity</text>
<text text-anchor="start" x="355" y="-368.5" font-family="Cascadia Code NF" font-size="10.00">+</text>
<text text-anchor="start" x="366" y="-368.5" font-family="Cascadia Code NF" font-size="10.00">Compact()</text>
<text text-anchor="start" x="355" y="-352.5" font-family="Cascadia Code NF" font-size="10.00">+</text>
<text text-anchor="start" x="366" y="-352.5" font-family="Cascadia Code NF" font-size="10.00">Get()</text>
<text text-anchor="start" x="355" y="-336.5" font-family="Cascadia Code NF" font-size="10.00">+</text>
<text text-anchor="start" x="366" y="-336.5" font-family="Cascadia Code NF" font-size="10.00">Get()</text>
<text text-anchor="start" x="355" y="-320.5" font-family="Cascadia Code NF" font-size="10.00">+</text>
<text text-anchor="start" x="366" y="-320.5" font-family="Cascadia Code NF" font-size="10.00">get()</text>
<text text-anchor="start" x="355" y="-304.5" font-family="Cascadia Code NF" font-size="10.00">+</text>
<text text-anchor="start" x="366" y="-304.5" font-family="Cascadia Code NF" font-size="10.00">Set()</text>
<text text-anchor="start" x="355" y="-288.5" font-family="Cascadia Code NF" font-size="10.00">+</text>
<text text-anchor="start" x="366" y="-288.5" font-family="Cascadia Code NF" font-size="10.00">Set()</text>
<text text-anchor="start" x="355" y="-272.5" font-family="Cascadia Code NF" font-size="10.00">+</text>
<text text-anchor="start" x="366" y="-272.5" font-family="Cascadia Code NF" font-size="10.00">data_start()</text>
<text text-anchor="start" x="355" y="-256.5" font-family="Cascadia Code NF" font-size="10.00">+</text>
<text text-anchor="start" x="366" y="-256.5" font-family="Cascadia Code NF" font-size="10.00">CopyElements()</text>
<text text-anchor="start" x="355" y="-240.5" font-family="Cascadia Code NF" font-size="10.00">+</text>
<text text-anchor="start" x="366" y="-240.5" font-family="Cascadia Code NF" font-size="10.00">IsFull()</text>
<text text-anchor="start" x="355" y="-224.5" font-family="Cascadia Code NF" font-size="10.00">+</text>
<text text-anchor="start" x="366" y="-224.5" font-family="Cascadia Code NF" font-size="10.00">AllocatedSize()</text>
<text text-anchor="start" x="355" y="-208.5" font-family="Cascadia Code NF" font-size="10.00">+</text>
<text text-anchor="start" x="366" y="-208.5" font-family="Cascadia Code NF" font-size="10.00">CountLiveWeakReferences()</text>
<text text-anchor="start" x="355" y="-192.5" font-family="Cascadia Code NF" font-size="10.00">+</text>
<text text-anchor="start" x="366" y="-192.5" font-family="Cascadia Code NF" font-size="10.00">CountLiveElements()</text>
<text text-anchor="start" x="355" y="-176.5" font-family="Cascadia Code NF" font-size="10.00">+</text>
<text text-anchor="start" x="366" y="-176.5" font-family="Cascadia Code NF" font-size="10.00">RemoveOne()</text>
<text text-anchor="start" x="355" y="-160.5" font-family="Cascadia Code NF" font-size="10.00">+</text>
<text text-anchor="start" x="366" y="-160.5" font-family="Cascadia Code NF" font-size="10.00">Contains()</text>
<text text-anchor="start" x="355" y="-144.5" font-family="Cascadia Code NF" font-size="10.00">+</text>
<text text-anchor="start" x="366" y="-144.5" font-family="Cascadia Code NF" font-size="10.00">AddToEnd()</text>
<text text-anchor="start" x="355" y="-128.5" font-family="Cascadia Code NF" font-size="10.00">+</text>
<text text-anchor="start" x="366" y="-128.5" font-family="Cascadia Code NF" font-size="10.00">AddToEnd()</text>
<text text-anchor="start" x="355" y="-112.5" font-family="Cascadia Code NF" font-size="10.00">+</text>
<text text-anchor="start" x="366" y="-112.5" font-family="Cascadia Code NF" font-size="10.00">Append()</text>
<text text-anchor="start" x="355" y="-96.5" font-family="Cascadia Code NF" font-size="10.00">+</text>
<text text-anchor="start" x="366" y="-96.5" font-family="Cascadia Code NF" font-size="10.00">SizeForCapacity()</text>
<text text-anchor="start" x="355" y="-80.5" font-family="Cascadia Code NF" font-size="10.00">+</text>
<text text-anchor="start" x="366" y="-80.5" font-family="Cascadia Code NF" font-size="10.00">CapacityForLength()</text>
<text text-anchor="start" x="355" y="-64.5" font-family="Cascadia Code NF" font-size="10.00">+</text>
<text text-anchor="start" x="366" y="-64.5" font-family="Cascadia Code NF" font-size="10.00">EnsureSpace()</text>
<polygon fill="#bfbfbf" stroke="#bfbfbf" points="350,-396 350,-396 522,-396 522,-396 350,-396"/>
<polygon fill="#bfbfbf" stroke="#bfbfbf" points="350,-380 350,-380 364,-380 364,-380 350,-380"/>
<polygon fill="#bfbfbf" stroke="#bfbfbf" points="364,-380 364,-380 522,-380 522,-380 364,-380"/>
<polygon fill="none" stroke="#bfbfbf" points="350,-58 350,-414 522,-414 522,-58 350,-58"/>
</a>
</g>
</g>
<!-- Node2&#45;&gt;Node1 -->
<g id="edge1_Node000001_Node000002" class="edge">
<title>Node2&#45;&gt;Node1</title>
<g id="a_edge1_Node000001_Node000002"><a xlink:title=" ">
<path fill="none" stroke="#63b8ff" d="M533.09,-236C541.43,-236 549.85,-236 558.15,-236"/>
<polygon fill="none" stroke="#63b8ff" points="533.31,-232.5 523.31,-236 533.31,-239.5 533.31,-232.5"/>
</a>
</g>
</g>
<!-- Node3 -->
<g id="Node000003" class="node">
<title>Node3</title>
<g id="a_Node000003"><a xlink:href="../../db/d82/classTorqueGeneratedWeakArrayList.html" target="_top" xlink:title=" ">
<polygon fill="white" stroke="none" points="314,-472 106,-472 106,0 314,0 314,-472"/>
<text text-anchor="start" x="111" y="-458.5" font-family="Cascadia Code NF" font-size="10.00">TorqueGeneratedWeakArray</text>
<text text-anchor="start" x="111" y="-445.75" font-family="Cascadia Code NF" font-size="10.00">List&lt; WeakArrayList, HeapObject &gt;</text>
<text text-anchor="start" x="118.5" y="-429.5" font-family="Cascadia Code NF" font-size="10.00">+</text>
<text text-anchor="start" x="137" y="-429.5" font-family="Cascadia Code NF" font-size="10.00">kStartOfStrongFieldsOffset</text>
<text text-anchor="start" x="118.5" y="-413.5" font-family="Cascadia Code NF" font-size="10.00">+</text>
<text text-anchor="start" x="137" y="-413.5" font-family="Cascadia Code NF" font-size="10.00">kCapacityOffset</text>
<text text-anchor="start" x="118.5" y="-397.5" font-family="Cascadia Code NF" font-size="10.00">+</text>
<text text-anchor="start" x="137" y="-397.5" font-family="Cascadia Code NF" font-size="10.00">kCapacityOffsetEnd</text>
<text text-anchor="start" x="118.5" y="-381.5" font-family="Cascadia Code NF" font-size="10.00">+</text>
<text text-anchor="start" x="137" y="-381.5" font-family="Cascadia Code NF" font-size="10.00">kLengthOffset</text>
<text text-anchor="start" x="118.5" y="-365.5" font-family="Cascadia Code NF" font-size="10.00">+</text>
<text text-anchor="start" x="137" y="-365.5" font-family="Cascadia Code NF" font-size="10.00">kLengthOffsetEnd</text>
<text text-anchor="start" x="118.5" y="-349.5" font-family="Cascadia Code NF" font-size="10.00">+</text>
<text text-anchor="start" x="137" y="-349.5" font-family="Cascadia Code NF" font-size="10.00">kEndOfStrongFieldsOffset</text>
<text text-anchor="start" x="118.5" y="-333.5" font-family="Cascadia Code NF" font-size="10.00">+</text>
<text text-anchor="start" x="137" y="-333.5" font-family="Cascadia Code NF" font-size="10.00">kStartOfWeakFieldsOffset</text>
<text text-anchor="start" x="118.5" y="-317.5" font-family="Cascadia Code NF" font-size="10.00">+</text>
<text text-anchor="start" x="137" y="-317.5" font-family="Cascadia Code NF" font-size="10.00">kHeaderSize</text>
<text text-anchor="start" x="118.5" y="-301.5" font-family="Cascadia Code NF" font-size="10.00">+</text>
<text text-anchor="start" x="137" y="-301.5" font-family="Cascadia Code NF" font-size="10.00">kObjectsOffset</text>
<text text-anchor="start" x="118.5" y="-285.5" font-family="Cascadia Code NF" font-size="10.00">+</text>
<text text-anchor="start" x="137" y="-285.5" font-family="Cascadia Code NF" font-size="10.00">kObjectsOffsetEnd</text>
<text text-anchor="start" x="118.5" y="-269.5" font-family="Cascadia Code NF" font-size="10.00">+</text>
<text text-anchor="start" x="137" y="-269.5" font-family="Cascadia Code NF" font-size="10.00">kEndOfWeakFieldsOffset</text>
<text text-anchor="start" x="118.5" y="-253.5" font-family="Cascadia Code NF" font-size="10.00">+</text>
<text text-anchor="start" x="137" y="-253.5" font-family="Cascadia Code NF" font-size="10.00">capacity()</text>
<text text-anchor="start" x="118.5" y="-237.5" font-family="Cascadia Code NF" font-size="10.00">+</text>
<text text-anchor="start" x="137" y="-237.5" font-family="Cascadia Code NF" font-size="10.00">set_capacity()</text>
<text text-anchor="start" x="118.5" y="-221.5" font-family="Cascadia Code NF" font-size="10.00">+</text>
<text text-anchor="start" x="137" y="-221.5" font-family="Cascadia Code NF" font-size="10.00">length()</text>
<text text-anchor="start" x="118.5" y="-205.5" font-family="Cascadia Code NF" font-size="10.00">+</text>
<text text-anchor="start" x="137" y="-205.5" font-family="Cascadia Code NF" font-size="10.00">set_length()</text>
<text text-anchor="start" x="118.5" y="-189.5" font-family="Cascadia Code NF" font-size="10.00">+</text>
<text text-anchor="start" x="137" y="-189.5" font-family="Cascadia Code NF" font-size="10.00">objects()</text>
<text text-anchor="start" x="118.5" y="-173.5" font-family="Cascadia Code NF" font-size="10.00">+</text>
<text text-anchor="start" x="137" y="-173.5" font-family="Cascadia Code NF" font-size="10.00">objects()</text>
<text text-anchor="start" x="118.5" y="-157.5" font-family="Cascadia Code NF" font-size="10.00">+</text>
<text text-anchor="start" x="137" y="-157.5" font-family="Cascadia Code NF" font-size="10.00">set_objects()</text>
<text text-anchor="start" x="118.5" y="-141.5" font-family="Cascadia Code NF" font-size="10.00">+</text>
<text text-anchor="start" x="137" y="-141.5" font-family="Cascadia Code NF" font-size="10.00">AllocatedSize()</text>
<text text-anchor="start" x="118.5" y="-125.5" font-family="Cascadia Code NF" font-size="10.00">+</text>
<text text-anchor="start" x="137" y="-125.5" font-family="Cascadia Code NF" font-size="10.00">TorqueGeneratedWeakArray</text>
<text text-anchor="start" x="137" y="-112.75" font-family="Cascadia Code NF" font-size="10.00">List()</text>
<text text-anchor="start" x="118.5" y="-96.5" font-family="Cascadia Code NF" font-size="10.00">+</text>
<text text-anchor="start" x="137" y="-96.5" font-family="Cascadia Code NF" font-size="10.00">cast()</text>
<text text-anchor="start" x="118.5" y="-80.5" font-family="Cascadia Code NF" font-size="10.00">+</text>
<text text-anchor="start" x="137" y="-80.5" font-family="Cascadia Code NF" font-size="10.00">unchecked_cast()</text>
<text text-anchor="start" x="118.5" y="-64.5" font-family="Cascadia Code NF" font-size="10.00">+</text>
<text text-anchor="start" x="137" y="-64.5" font-family="Cascadia Code NF" font-size="10.00">SizeFor()</text>
<text text-anchor="start" x="118.5" y="-48.5" font-family="Cascadia Code NF" font-size="10.00">#</text>
<text text-anchor="start" x="137" y="-48.5" font-family="Cascadia Code NF" font-size="10.00">TorqueGeneratedWeakArray</text>
<text text-anchor="start" x="137" y="-35.75" font-family="Cascadia Code NF" font-size="10.00">List()</text>
<text text-anchor="start" x="118.5" y="-19.5" font-family="Cascadia Code NF" font-size="10.00">#</text>
<text text-anchor="start" x="137" y="-19.5" font-family="Cascadia Code NF" font-size="10.00">TorqueGeneratedWeakArray</text>
<text text-anchor="start" x="137" y="-6.75" font-family="Cascadia Code NF" font-size="10.00">List()</text>
<polygon fill="#bfbfbf" stroke="#bfbfbf" points="106,-441 106,-441 314,-441 314,-441 106,-441"/>
<polygon fill="#bfbfbf" stroke="#bfbfbf" points="106,-265 106,-265 135,-265 135,-265 106,-265"/>
<polygon fill="#bfbfbf" stroke="#bfbfbf" points="135,-265 135,-265 314,-265 314,-265 135,-265"/>
<polygon fill="none" stroke="#bfbfbf" points="106,0 106,-472 314,-472 314,0 106,0"/>
</a>
</g>
</g>
<!-- Node3&#45;&gt;Node2 -->
<g id="edge2_Node000002_Node000003" class="edge">
<title>Node3&#45;&gt;Node2</title>
<g id="a_edge2_Node000002_Node000003"><a xlink:title=" ">
<path fill="none" stroke="#63b8ff" d="M325.28,-236C333.68,-236 342.07,-236 350.25,-236"/>
<polygon fill="none" stroke="#63b8ff" points="325.34,-232.5 315.34,-236 325.34,-239.5 325.34,-232.5"/>
</a>
</g>
</g>
<!-- Node4 -->
<g id="Node000004" class="node">
<title>Node4</title>
<g id="a_Node000004"><a xlink:title=" ">
<polygon fill="white" stroke="none" points="70,-262 0,-262 0,-210 70,-210 70,-262"/>
<text text-anchor="start" x="5" y="-248.5" font-family="Cascadia Code NF" font-size="10.00">HeapObject</text>
<text text-anchor="start" x="32" y="-232.5" font-family="Cascadia Code NF" font-size="10.00"> </text>
<text text-anchor="start" x="32" y="-216.5" font-family="Cascadia Code NF" font-size="10.00"> </text>
<polygon fill="#bfbfbf" stroke="#bfbfbf" points="0,-244 0,-244 70,-244 70,-244 0,-244"/>
<polygon fill="#bfbfbf" stroke="#bfbfbf" points="0,-228 0,-228 70,-228 70,-228 0,-228"/>
<polygon fill="none" stroke="#bfbfbf" points="0,-210 0,-262 70,-262 70,-210 0,-210"/>
</a>
</g>
</g>
<!-- Node4&#45;&gt;Node3 -->
<g id="edge3_Node000003_Node000004" class="edge">
<title>Node4&#45;&gt;Node3</title>
<g id="a_edge3_Node000003_Node000004"><a xlink:title=" ">
<path fill="none" stroke="#63b8ff" d="M81.22,-236C89.1,-236 97.58,-236 106.29,-236"/>
<polygon fill="none" stroke="#63b8ff" points="81.28,-232.5 71.28,-236 81.28,-239.5 81.28,-232.5"/>
</a>
</g>
</g>
</g>
</svg>
