<?xml version="1.0" encoding="UTF-8" standalone="no"?>
<!DOCTYPE svg PUBLIC "-//W3C//DTD SVG 1.1//EN"
 "http://www.w3.org/Graphics/SVG/1.1/DTD/svg11.dtd">
<!-- Generated by graphviz version 11.0.0 (20240428.1522)
 -->
<!-- Title: v8::internal::compiler::FinalAssessment Pages: 1 -->
<svg width="560pt" height="178pt"
 viewBox="0.00 0.00 560.00 178.00" xmlns="http://www.w3.org/2000/svg" xmlns:xlink="http://www.w3.org/1999/xlink">
<g id="graph0" class="graph" transform="scale(1 1) rotate(0) translate(4 174)">
<title>v8::internal::compiler::FinalAssessment</title>
<!-- Node1 -->
<g id="Node000001" class="node">
<title>Node1</title>
<g id="a_Node000001"><a xlink:title=" ">
<polygon fill="#999999" stroke="none" points="552,-137.5 410,-137.5 410,-8.5 552,-8.5 552,-137.5"/>
<text text-anchor="start" x="415" y="-124" font-family="Cascadia Code NF" font-size="10.00">v8::internal::compiler</text>
<text text-anchor="start" x="430" y="-111.25" font-family="Cascadia Code NF" font-size="10.00">::FinalAssessment</text>
<text text-anchor="start" x="478" y="-95" font-family="Cascadia Code NF" font-size="10.00"> </text>
<text text-anchor="start" x="418" y="-79" font-family="Cascadia Code NF" font-size="10.00">+</text>
<text text-anchor="start" x="432" y="-79" font-family="Cascadia Code NF" font-size="10.00">FinalAssessment()</text>
<text text-anchor="start" x="418" y="-63" font-family="Cascadia Code NF" font-size="10.00">+</text>
<text text-anchor="start" x="432" y="-63" font-family="Cascadia Code NF" font-size="10.00">FinalAssessment()</text>
<text text-anchor="start" x="418" y="-47" font-family="Cascadia Code NF" font-size="10.00">+</text>
<text text-anchor="start" x="432" y="-47" font-family="Cascadia Code NF" font-size="10.00">operator=()</text>
<text text-anchor="start" x="418" y="-31" font-family="Cascadia Code NF" font-size="10.00">+</text>
<text text-anchor="start" x="432" y="-31" font-family="Cascadia Code NF" font-size="10.00">virtual_register()</text>
<text text-anchor="start" x="418" y="-15" font-family="Cascadia Code NF" font-size="10.00">+</text>
<text text-anchor="start" x="432" y="-15" font-family="Cascadia Code NF" font-size="10.00">cast()</text>
<polygon fill="#666666" stroke="#666666" points="410,-106.5 410,-106.5 552,-106.5 552,-106.5 410,-106.5"/>
<polygon fill="#666666" stroke="#666666" points="410,-90.5 410,-90.5 552,-90.5 552,-90.5 410,-90.5"/>
<polygon fill="none" stroke="#666666" points="410,-8.5 410,-137.5 552,-137.5 552,-8.5 410,-8.5"/>
</a>
</g>
</g>
<!-- Node2 -->
<g id="Node000002" class="node">
<title>Node2</title>
<g id="a_Node000002"><a xlink:href="$de/dc4/classv8_1_1internal_1_1compiler_1_1Assessment.html" xlink:title=" ">
<polygon fill="white" stroke="none" points="374,-129.5 232,-129.5 232,-16.5 374,-16.5 374,-129.5"/>
<text text-anchor="start" x="237" y="-116" font-family="Cascadia Code NF" font-size="10.00">v8::internal::compiler</text>
<text text-anchor="start" x="267" y="-103.25" font-family="Cascadia Code NF" font-size="10.00">::Assessment</text>
<text text-anchor="start" x="300" y="-87" font-family="Cascadia Code NF" font-size="10.00"> </text>
<text text-anchor="start" x="249" y="-71" font-family="Cascadia Code NF" font-size="10.00">+</text>
<text text-anchor="start" x="272" y="-71" font-family="Cascadia Code NF" font-size="10.00">Assessment()</text>
<text text-anchor="start" x="249" y="-55" font-family="Cascadia Code NF" font-size="10.00">+</text>
<text text-anchor="start" x="272" y="-55" font-family="Cascadia Code NF" font-size="10.00">operator=()</text>
<text text-anchor="start" x="249" y="-39" font-family="Cascadia Code NF" font-size="10.00">+</text>
<text text-anchor="start" x="272" y="-39" font-family="Cascadia Code NF" font-size="10.00">kind()</text>
<text text-anchor="start" x="249" y="-23" font-family="Cascadia Code NF" font-size="10.00">#</text>
<text text-anchor="start" x="272" y="-23" font-family="Cascadia Code NF" font-size="10.00">Assessment()</text>
<polygon fill="#bfbfbf" stroke="#bfbfbf" points="232,-98.5 232,-98.5 374,-98.5 374,-98.5 232,-98.5"/>
<polygon fill="#bfbfbf" stroke="#bfbfbf" points="232,-82.5 232,-82.5 374,-82.5 374,-82.5 232,-82.5"/>
<polygon fill="none" stroke="#bfbfbf" points="232,-16.5 232,-129.5 374,-129.5 374,-16.5 232,-16.5"/>
</a>
</g>
</g>
<!-- Node2&#45;&gt;Node1 -->
<g id="edge1_Node000001_Node000002" class="edge">
<title>Node2&#45;&gt;Node1</title>
<g id="a_edge1_Node000001_Node000002"><a xlink:title=" ">
<path fill="none" stroke="#63b8ff" d="M385.17,-73C393.56,-73 402.03,-73 410.27,-73"/>
<polygon fill="none" stroke="#63b8ff" points="385.33,-69.5 375.33,-73 385.33,-76.5 385.33,-69.5"/>
</a>
</g>
</g>
<!-- Node3 -->
<g id="Node000003" class="node">
<title>Node3</title>
<g id="a_Node000003"><a xlink:href="$dc/dca/classv8_1_1internal_1_1ZoneObject.html" xlink:title=" ">
<polygon fill="white" stroke="none" points="154,-170 0,-170 0,-70 154,-70 154,-170"/>
<text text-anchor="start" x="5" y="-156.5" font-family="Cascadia Code NF" font-size="10.00">v8::internal::ZoneObject</text>
<text text-anchor="start" x="74" y="-140.5" font-family="Cascadia Code NF" font-size="10.00"> </text>
<text text-anchor="start" x="12.5" y="-124.5" font-family="Cascadia Code NF" font-size="10.00">+</text>
<text text-anchor="start" x="31" y="-124.5" font-family="Cascadia Code NF" font-size="10.00">operator new()</text>
<text text-anchor="start" x="12.5" y="-108.5" font-family="Cascadia Code NF" font-size="10.00">+</text>
<text text-anchor="start" x="31" y="-108.5" font-family="Cascadia Code NF" font-size="10.00">operator new()</text>
<text text-anchor="start" x="12.5" y="-92.5" font-family="Cascadia Code NF" font-size="10.00">+</text>
<text text-anchor="start" x="31" y="-92.5" font-family="Cascadia Code NF" font-size="10.00">operator delete()</text>
<text text-anchor="start" x="12.5" y="-76.5" font-family="Cascadia Code NF" font-size="10.00">+</text>
<text text-anchor="start" x="31" y="-76.5" font-family="Cascadia Code NF" font-size="10.00">operator delete()</text>
<polygon fill="#bfbfbf" stroke="#bfbfbf" points="0,-152 0,-152 154,-152 154,-152 0,-152"/>
<polygon fill="#bfbfbf" stroke="#bfbfbf" points="0,-136 0,-136 154,-136 154,-136 0,-136"/>
<polygon fill="none" stroke="#bfbfbf" points="0,-70 0,-170 154,-170 154,-70 0,-70"/>
</a>
</g>
</g>
<!-- Node3&#45;&gt;Node2 -->
<g id="edge2_Node000002_Node000003" class="edge">
<title>Node3&#45;&gt;Node2</title>
<g id="a_edge2_Node000002_Node000003"><a xlink:title=" ">
<path fill="none" stroke="#63b8ff" d="M165,-101.75C187.29,-97.07 210.98,-92.1 232.28,-87.63"/>
<polygon fill="none" stroke="#63b8ff" points="164.39,-98.3 155.32,-103.78 165.82,-105.15 164.39,-98.3"/>
</a>
</g>
</g>
<!-- Node4 -->
<g id="Node000004" class="node">
<title>Node4</title>
<g id="a_Node000004"><a xlink:title=" ">
<polygon fill="white" stroke="none" points="124,-52 30,-52 30,0 124,0 124,-52"/>
<text text-anchor="start" x="35" y="-38.5" font-family="Cascadia Code NF" font-size="10.00">AssessmentKind</text>
<text text-anchor="start" x="74" y="-22.5" font-family="Cascadia Code NF" font-size="10.00"> </text>
<text text-anchor="start" x="74" y="-6.5" font-family="Cascadia Code NF" font-size="10.00"> </text>
<polygon fill="#bfbfbf" stroke="#bfbfbf" points="30,-34 30,-34 124,-34 124,-34 30,-34"/>
<polygon fill="#bfbfbf" stroke="#bfbfbf" points="30,-18 30,-18 124,-18 124,-18 30,-18"/>
<polygon fill="none" stroke="#bfbfbf" points="30,0 30,-52 124,-52 124,0 30,0"/>
</a>
</g>
</g>
<!-- Node4&#45;&gt;Node2 -->
<g id="edge3_Node000002_Node000004" class="edge">
<title>Node4&#45;&gt;Node2</title>
<g id="a_edge3_Node000002_Node000004"><a xlink:title=" ">
<path fill="none" stroke="#63b8ff" d="M123.87,-35.62C151.44,-41.41 187.34,-48.94 219.68,-55.73"/>
<polygon fill="none" stroke="#63b8ff" points="219.72,-55.74 226.42,-53.05 231.47,-58.2 224.77,-60.88 219.72,-55.74"/>
</a>
</g>
<text text-anchor="middle" x="193" y="-56.25" font-family="Cascadia Code NF" font-size="10.00" fill="grey"> #kind_</text>
</g>
</g>
</svg>
