<?xml version="1.0" encoding="UTF-8" standalone="no"?>
<!DOCTYPE svg PUBLIC "-//W3C//DTD SVG 1.1//EN"
 "http://www.w3.org/Graphics/SVG/1.1/DTD/svg11.dtd">
<!-- Generated by graphviz version 11.0.0 (20240428.1522)
 -->
<!-- Title: v8::internal::debug_helper_internal::TqSharedFunctionInfo Pages: 1 -->
<svg width="532pt" height="246pt"
 viewBox="0.00 0.00 532.00 246.00" xmlns="http://www.w3.org/2000/svg" xmlns:xlink="http://www.w3.org/1999/xlink">
<g id="graph0" class="graph" transform="scale(1 1) rotate(0) translate(4 242)">
<title>v8::internal::debug_helper_internal::TqSharedFunctionInfo</title>
<!-- Node1 -->
<g id="Node000001" class="node">
<title>Node1</title>
<g id="a_Node000001"><a xlink:title=" ">
<polygon fill="#999999" stroke="none" points="524,-238 320,-238 320,0 524,0 524,-238"/>
<text text-anchor="start" x="344" y="-224.5" font-family="Cascadia Code NF" font-size="10.00">v8::internal::debug</text>
<text text-anchor="start" x="344" y="-211.75" font-family="Cascadia Code NF" font-size="10.00">_helper_internal::TqShared</text>
<text text-anchor="start" x="386" y="-199" font-family="Cascadia Code NF" font-size="10.00">FunctionInfo</text>
<text text-anchor="start" x="419" y="-182.5" font-family="Cascadia Code NF" font-size="10.00"> </text>
<text text-anchor="start" x="324" y="-166.5" font-family="Cascadia Code NF" font-size="10.00">+</text>
<text text-anchor="start" x="334" y="-166.5" font-family="Cascadia Code NF" font-size="10.00">TqSharedFunctionInfo()</text>
<text text-anchor="start" x="324" y="-150.5" font-family="Cascadia Code NF" font-size="10.00">+</text>
<text text-anchor="start" x="334" y="-150.5" font-family="Cascadia Code NF" font-size="10.00">GetProperties()</text>
<text text-anchor="start" x="324" y="-134.5" font-family="Cascadia Code NF" font-size="10.00">+</text>
<text text-anchor="start" x="334" y="-134.5" font-family="Cascadia Code NF" font-size="10.00">GetName()</text>
<text text-anchor="start" x="324" y="-118.5" font-family="Cascadia Code NF" font-size="10.00">+</text>
<text text-anchor="start" x="334" y="-118.5" font-family="Cascadia Code NF" font-size="10.00">Visit()</text>
<text text-anchor="start" x="324" y="-102.5" font-family="Cascadia Code NF" font-size="10.00">+</text>
<text text-anchor="start" x="334" y="-102.5" font-family="Cascadia Code NF" font-size="10.00">IsSuperclassOf()</text>
<text text-anchor="start" x="324" y="-86.5" font-family="Cascadia Code NF" font-size="10.00">+</text>
<text text-anchor="start" x="334" y="-86.5" font-family="Cascadia Code NF" font-size="10.00">GetTrustedFunctionDataAddress()</text>
<text text-anchor="start" x="324" y="-70.5" font-family="Cascadia Code NF" font-size="10.00">+</text>
<text text-anchor="start" x="334" y="-70.5" font-family="Cascadia Code NF" font-size="10.00">GetTrustedFunctionDataValue()</text>
<text text-anchor="start" x="324" y="-54.5" font-family="Cascadia Code NF" font-size="10.00">+</text>
<text text-anchor="start" x="334" y="-54.5" font-family="Cascadia Code NF" font-size="10.00">GetFunctionDataAddress()</text>
<text text-anchor="start" x="324" y="-38.5" font-family="Cascadia Code NF" font-size="10.00">+</text>
<text text-anchor="start" x="334" y="-38.5" font-family="Cascadia Code NF" font-size="10.00">GetFunctionDataValue()</text>
<text text-anchor="start" x="324" y="-22.5" font-family="Cascadia Code NF" font-size="10.00">+</text>
<text text-anchor="start" x="334" y="-22.5" font-family="Cascadia Code NF" font-size="10.00">GetNameOrScopeInfoAddress()</text>
<text text-anchor="start" x="334" y="-6.5" font-family="Cascadia Code NF" font-size="10.00">and 25 more...</text>
<polygon fill="#666666" stroke="#666666" points="320,-194 320,-194 524,-194 524,-194 320,-194"/>
<polygon fill="#666666" stroke="#666666" points="320,-178 320,-178 524,-178 524,-178 320,-178"/>
<polygon fill="none" stroke="#666666" points="320,0 320,-238 524,-238 524,0 320,0"/>
</a>
</g>
</g>
<!-- Node2 -->
<g id="Node000002" class="node">
<title>Node2</title>
<g id="a_Node000002"><a xlink:href="$db/deb/classv8_1_1internal_1_1debug__helper__internal_1_1TqHeapObject.html" xlink:title=" ">
<polygon fill="white" stroke="none" points="284,-199.5 94,-199.5 94,-38.5 284,-38.5 284,-199.5"/>
<text text-anchor="start" x="99" y="-186" font-family="Cascadia Code NF" font-size="10.00">v8::internal::debug</text>
<text text-anchor="start" x="99" y="-173.25" font-family="Cascadia Code NF" font-size="10.00">_helper_internal::TqHeapObject</text>
<text text-anchor="start" x="186" y="-157" font-family="Cascadia Code NF" font-size="10.00"> </text>
<text text-anchor="start" x="117" y="-141" font-family="Cascadia Code NF" font-size="10.00">+</text>
<text text-anchor="start" x="146" y="-141" font-family="Cascadia Code NF" font-size="10.00">TqHeapObject()</text>
<text text-anchor="start" x="117" y="-125" font-family="Cascadia Code NF" font-size="10.00">+</text>
<text text-anchor="start" x="146" y="-125" font-family="Cascadia Code NF" font-size="10.00">GetProperties()</text>
<text text-anchor="start" x="117" y="-109" font-family="Cascadia Code NF" font-size="10.00">+</text>
<text text-anchor="start" x="146" y="-109" font-family="Cascadia Code NF" font-size="10.00">GetName()</text>
<text text-anchor="start" x="117" y="-93" font-family="Cascadia Code NF" font-size="10.00">+</text>
<text text-anchor="start" x="146" y="-93" font-family="Cascadia Code NF" font-size="10.00">Visit()</text>
<text text-anchor="start" x="117" y="-77" font-family="Cascadia Code NF" font-size="10.00">+</text>
<text text-anchor="start" x="146" y="-77" font-family="Cascadia Code NF" font-size="10.00">IsSuperclassOf()</text>
<text text-anchor="start" x="117" y="-61" font-family="Cascadia Code NF" font-size="10.00">+</text>
<text text-anchor="start" x="146" y="-61" font-family="Cascadia Code NF" font-size="10.00">GetMapAddress()</text>
<text text-anchor="start" x="117" y="-45" font-family="Cascadia Code NF" font-size="10.00">+</text>
<text text-anchor="start" x="146" y="-45" font-family="Cascadia Code NF" font-size="10.00">GetMapValue()</text>
<polygon fill="#bfbfbf" stroke="#bfbfbf" points="94,-168.5 94,-168.5 284,-168.5 284,-168.5 94,-168.5"/>
<polygon fill="#bfbfbf" stroke="#bfbfbf" points="94,-152.5 94,-152.5 284,-152.5 284,-152.5 94,-152.5"/>
<polygon fill="none" stroke="#bfbfbf" points="94,-38.5 94,-199.5 284,-199.5 284,-38.5 94,-38.5"/>
</a>
</g>
</g>
<!-- Node2&#45;&gt;Node1 -->
<g id="edge1_Node000001_Node000002" class="edge">
<title>Node2&#45;&gt;Node1</title>
<g id="a_edge1_Node000001_Node000002"><a xlink:title=" ">
<path fill="none" stroke="#63b8ff" d="M295.28,-119C303.62,-119 312.04,-119 320.35,-119"/>
<polygon fill="none" stroke="#63b8ff" points="295.47,-115.5 285.47,-119 295.47,-122.5 295.47,-115.5"/>
</a>
</g>
</g>
<!-- Node3 -->
<g id="Node000003" class="node">
<title>Node3</title>
<g id="a_Node000003"><a xlink:href="$dd/d42/classTqObject.html" xlink:title=" ">
<polygon fill="white" stroke="none" points="58,-145 0,-145 0,-93 58,-93 58,-145"/>
<text text-anchor="start" x="5" y="-131.5" font-family="Cascadia Code NF" font-size="10.00">TqObject</text>
<text text-anchor="start" x="26" y="-115.5" font-family="Cascadia Code NF" font-size="10.00"> </text>
<text text-anchor="start" x="26" y="-99.5" font-family="Cascadia Code NF" font-size="10.00"> </text>
<polygon fill="#bfbfbf" stroke="#bfbfbf" points="0,-127 0,-127 58,-127 58,-127 0,-127"/>
<polygon fill="#bfbfbf" stroke="#bfbfbf" points="0,-111 0,-111 58,-111 58,-111 0,-111"/>
<polygon fill="none" stroke="#bfbfbf" points="0,-93 0,-145 58,-145 58,-93 0,-93"/>
</a>
</g>
</g>
<!-- Node3&#45;&gt;Node2 -->
<g id="edge2_Node000002_Node000003" class="edge">
<title>Node3&#45;&gt;Node2</title>
<g id="a_edge2_Node000002_Node000003"><a xlink:title=" ">
<path fill="none" stroke="#63b8ff" d="M69.34,-119C77.03,-119 85.39,-119 94,-119"/>
<polygon fill="none" stroke="#63b8ff" points="69.4,-115.5 59.4,-119 69.4,-122.5 69.4,-115.5"/>
</a>
</g>
</g>
</g>
</svg>
