<?xml version="1.0" encoding="UTF-8" standalone="no"?>
<!DOCTYPE svg PUBLIC "-//W3C//DTD SVG 1.1//EN"
 "http://www.w3.org/Graphics/SVG/1.1/DTD/svg11.dtd">
<!-- Generated by graphviz version 11.0.0 (20240428.1522)
 -->
<!-- Title: v8::internal::maglev::CheckedTruncateFloat64ToUint32 Pages: 1 -->
<svg width="708pt" height="166pt"
 viewBox="0.00 0.00 708.00 166.00" xmlns="http://www.w3.org/2000/svg" xmlns:xlink="http://www.w3.org/1999/xlink">
<g id="graph0" class="graph" transform="scale(1 1) rotate(0) translate(4 162)">
<title>v8::internal::maglev::CheckedTruncateFloat64ToUint32</title>
<!-- Node1 -->
<g id="Node000001" class="node">
<title>Node1</title>
<g id="a_Node000001"><a xlink:title=" ">
<polygon fill="#999999" stroke="none" points="700,-158 498,-158 498,0 700,0 700,-158"/>
<text text-anchor="start" x="503" y="-144.5" font-family="Cascadia Code NF" font-size="10.00">v8::internal::maglev</text>
<text text-anchor="start" x="503" y="-131.75" font-family="Cascadia Code NF" font-size="10.00">::CheckedTruncateFloat64ToUint32</text>
<text text-anchor="start" x="504.5" y="-115.5" font-family="Cascadia Code NF" font-size="10.00">+</text>
<text text-anchor="start" x="517" y="-115.5" font-family="Cascadia Code NF" font-size="10.00">kInputTypes</text>
<text text-anchor="start" x="504.5" y="-99.5" font-family="Cascadia Code NF" font-size="10.00">+</text>
<text text-anchor="start" x="517" y="-99.5" font-family="Cascadia Code NF" font-size="10.00">kProperties</text>
<text text-anchor="start" x="504.5" y="-83.5" font-family="Cascadia Code NF" font-size="10.00">+</text>
<text text-anchor="start" x="517" y="-83.5" font-family="Cascadia Code NF" font-size="10.00">CheckedTruncateFloat64To</text>
<text text-anchor="start" x="517" y="-70.75" font-family="Cascadia Code NF" font-size="10.00">Uint32()</text>
<text text-anchor="start" x="504.5" y="-54.5" font-family="Cascadia Code NF" font-size="10.00">+</text>
<text text-anchor="start" x="517" y="-54.5" font-family="Cascadia Code NF" font-size="10.00">input()</text>
<text text-anchor="start" x="504.5" y="-38.5" font-family="Cascadia Code NF" font-size="10.00">+</text>
<text text-anchor="start" x="517" y="-38.5" font-family="Cascadia Code NF" font-size="10.00">SetValueLocationConstraints()</text>
<text text-anchor="start" x="504.5" y="-22.5" font-family="Cascadia Code NF" font-size="10.00">+</text>
<text text-anchor="start" x="517" y="-22.5" font-family="Cascadia Code NF" font-size="10.00">GenerateCode()</text>
<text text-anchor="start" x="504.5" y="-6.5" font-family="Cascadia Code NF" font-size="10.00">+</text>
<text text-anchor="start" x="517" y="-6.5" font-family="Cascadia Code NF" font-size="10.00">PrintParams()</text>
<polygon fill="#666666" stroke="#666666" points="498,-127 498,-127 700,-127 700,-127 498,-127"/>
<polygon fill="#666666" stroke="#666666" points="498,-95 498,-95 515,-95 515,-95 498,-95"/>
<polygon fill="#666666" stroke="#666666" points="515,-95 515,-95 700,-95 700,-95 515,-95"/>
<polygon fill="none" stroke="#666666" points="498,0 498,-158 700,-158 700,0 498,0"/>
</a>
</g>
</g>
<!-- Node2 -->
<g id="Node000002" class="node">
<title>Node2</title>
<g id="a_Node000002"><a xlink:href="$df/d36/classv8_1_1internal_1_1maglev_1_1FixedInputNodeTMixin.html" xlink:title=" ">
<polygon fill="white" stroke="none" points="462,-150 290,-150 290,-8 462,-8 462,-150"/>
<text text-anchor="start" x="295" y="-136.5" font-family="Cascadia Code NF" font-size="10.00">FixedInputValueNodeT</text>
<text text-anchor="start" x="295" y="-123.75" font-family="Cascadia Code NF" font-size="10.00">&lt; 1, CheckedTruncateFloat64</text>
<text text-anchor="start" x="346" y="-111" font-family="Cascadia Code NF" font-size="10.00">ToUint32 &gt;</text>
<text text-anchor="start" x="299.5" y="-94.5" font-family="Cascadia Code NF" font-size="10.00">#</text>
<text text-anchor="start" x="315" y="-94.5" font-family="Cascadia Code NF" font-size="10.00">kInputTypes</text>
<text text-anchor="start" x="299.5" y="-78.5" font-family="Cascadia Code NF" font-size="10.00">+</text>
<text text-anchor="start" x="315" y="-78.5" font-family="Cascadia Code NF" font-size="10.00">has_inputs()</text>
<text text-anchor="start" x="299.5" y="-62.5" font-family="Cascadia Code NF" font-size="10.00">+</text>
<text text-anchor="start" x="315" y="-62.5" font-family="Cascadia Code NF" font-size="10.00">input_count()</text>
<text text-anchor="start" x="299.5" y="-46.5" font-family="Cascadia Code NF" font-size="10.00">+</text>
<text text-anchor="start" x="315" y="-46.5" font-family="Cascadia Code NF" font-size="10.00">end()</text>
<text text-anchor="start" x="299.5" y="-30.5" font-family="Cascadia Code NF" font-size="10.00">+</text>
<text text-anchor="start" x="315" y="-30.5" font-family="Cascadia Code NF" font-size="10.00">VerifyInputs()</text>
<text text-anchor="start" x="299.5" y="-14.5" font-family="Cascadia Code NF" font-size="10.00">#</text>
<text text-anchor="start" x="315" y="-14.5" font-family="Cascadia Code NF" font-size="10.00">FixedInputNodeTMixin()</text>
<polygon fill="#bfbfbf" stroke="#bfbfbf" points="290,-106 290,-106 462,-106 462,-106 290,-106"/>
<polygon fill="#bfbfbf" stroke="#bfbfbf" points="290,-90 290,-90 313,-90 313,-90 290,-90"/>
<polygon fill="#bfbfbf" stroke="#bfbfbf" points="313,-90 313,-90 462,-90 462,-90 313,-90"/>
<polygon fill="none" stroke="#bfbfbf" points="290,-8 290,-150 462,-150 462,-8 290,-8"/>
</a>
</g>
</g>
<!-- Node2&#45;&gt;Node1 -->
<g id="edge1_Node000001_Node000002" class="edge">
<title>Node2&#45;&gt;Node1</title>
<g id="a_edge1_Node000001_Node000002"><a xlink:title=" ">
<path fill="none" stroke="#63b8ff" d="M473.1,-79C481.44,-79 489.9,-79 498.27,-79"/>
<polygon fill="none" stroke="#63b8ff" points="473.33,-75.5 463.33,-79 473.33,-82.5 473.33,-75.5"/>
</a>
</g>
</g>
<!-- Node3 -->
<g id="Node000003" class="node">
<title>Node3</title>
<g id="a_Node000003"><a xlink:href="$dc/d85/classv8_1_1internal_1_1maglev_1_1NodeTMixin.html" xlink:title=" ">
<polygon fill="white" stroke="none" points="254,-143.5 70,-143.5 70,-14.5 254,-14.5 254,-143.5"/>
<text text-anchor="start" x="75" y="-130" font-family="Cascadia Code NF" font-size="10.00">v8::internal::maglev</text>
<text text-anchor="start" x="75" y="-117.25" font-family="Cascadia Code NF" font-size="10.00">::NodeTMixin&lt; Base, Derived &gt;</text>
<text text-anchor="start" x="159" y="-101" font-family="Cascadia Code NF" font-size="10.00"> </text>
<text text-anchor="start" x="97.5" y="-85" font-family="Cascadia Code NF" font-size="10.00">+</text>
<text text-anchor="start" x="131" y="-85" font-family="Cascadia Code NF" font-size="10.00">opcode()</text>
<text text-anchor="start" x="97.5" y="-69" font-family="Cascadia Code NF" font-size="10.00">+</text>
<text text-anchor="start" x="131" y="-69" font-family="Cascadia Code NF" font-size="10.00">properties()</text>
<text text-anchor="start" x="97.5" y="-53" font-family="Cascadia Code NF" font-size="10.00">+</text>
<text text-anchor="start" x="131" y="-53" font-family="Cascadia Code NF" font-size="10.00">New()</text>
<text text-anchor="start" x="97.5" y="-37" font-family="Cascadia Code NF" font-size="10.00">+</text>
<text text-anchor="start" x="131" y="-37" font-family="Cascadia Code NF" font-size="10.00">New()</text>
<text text-anchor="start" x="97.5" y="-21" font-family="Cascadia Code NF" font-size="10.00">#</text>
<text text-anchor="start" x="131" y="-21" font-family="Cascadia Code NF" font-size="10.00">NodeTMixin()</text>
<polygon fill="#bfbfbf" stroke="#bfbfbf" points="70,-112.5 70,-112.5 254,-112.5 254,-112.5 70,-112.5"/>
<polygon fill="#bfbfbf" stroke="#bfbfbf" points="70,-96.5 70,-96.5 254,-96.5 254,-96.5 70,-96.5"/>
<polygon fill="none" stroke="#bfbfbf" points="70,-14.5 70,-143.5 254,-143.5 254,-14.5 70,-14.5"/>
</a>
</g>
</g>
<!-- Node3&#45;&gt;Node2 -->
<g id="edge2_Node000002_Node000003" class="edge">
<title>Node3&#45;&gt;Node2</title>
<g id="a_edge2_Node000002_Node000003"><a xlink:title=" ">
<path fill="none" stroke="#63b8ff" d="M265.16,-79C273.5,-79 281.87,-79 290.07,-79"/>
<polygon fill="none" stroke="#63b8ff" points="265.34,-75.5 255.34,-79 265.34,-82.5 265.34,-75.5"/>
</a>
</g>
</g>
<!-- Node4 -->
<g id="Node000004" class="node">
<title>Node4</title>
<g id="a_Node000004"><a xlink:title=" ">
<polygon fill="white" stroke="none" points="34,-105 0,-105 0,-53 34,-53 34,-105"/>
<text text-anchor="start" x="5" y="-91.5" font-family="Cascadia Code NF" font-size="10.00">Base</text>
<text text-anchor="start" x="14" y="-75.5" font-family="Cascadia Code NF" font-size="10.00"> </text>
<text text-anchor="start" x="14" y="-59.5" font-family="Cascadia Code NF" font-size="10.00"> </text>
<polygon fill="#bfbfbf" stroke="#bfbfbf" points="0,-87 0,-87 34,-87 34,-87 0,-87"/>
<polygon fill="#bfbfbf" stroke="#bfbfbf" points="0,-71 0,-71 34,-71 34,-71 0,-71"/>
<polygon fill="none" stroke="#bfbfbf" points="0,-53 0,-105 34,-105 34,-53 0,-53"/>
</a>
</g>
</g>
<!-- Node4&#45;&gt;Node3 -->
<g id="edge3_Node000003_Node000004" class="edge">
<title>Node4&#45;&gt;Node3</title>
<g id="a_edge3_Node000003_Node000004"><a xlink:title=" ">
<path fill="none" stroke="#63b8ff" d="M45.25,-79C52.68,-79 61.15,-79 70.07,-79"/>
<polygon fill="none" stroke="#63b8ff" points="45.36,-75.5 35.36,-79 45.36,-82.5 45.36,-75.5"/>
</a>
</g>
</g>
</g>
</svg>
