<?xml version="1.0" encoding="UTF-8" standalone="no"?>
<!DOCTYPE svg PUBLIC "-//W3C//DTD SVG 1.1//EN"
 "http://www.w3.org/Graphics/SVG/1.1/DTD/svg11.dtd">
<!-- Generated by graphviz version 11.0.0 (20240428.1522)
 -->
<!-- Title: TorqueGeneratedCallSiteInfo&lt; D, P &gt; Pages: 1 -->
<svg width="252pt" height="589pt"
 viewBox="0.00 0.00 252.00 589.00" xmlns="http://www.w3.org/2000/svg" xmlns:xlink="http://www.w3.org/1999/xlink">
<g id="graph0" class="graph" transform="scale(1 1) rotate(0) translate(4 585)">
<title>TorqueGeneratedCallSiteInfo&lt; D, P &gt;</title>
<!-- Node1 -->
<g id="Node000001" class="node">
<title>Node1</title>
<g id="a_Node000001"><a xlink:title=" ">
<polygon fill="#999999" stroke="none" points="244,-581 52,-581 52,0 244,0 244,-581"/>
<text text-anchor="start" x="67" y="-567.5" font-family="Cascadia Code NF" font-size="10.00">TorqueGeneratedCallSiteInfo</text>
<text text-anchor="start" x="124" y="-554.75" font-family="Cascadia Code NF" font-size="10.00">&lt; D, P &gt;</text>
<text text-anchor="start" x="56" y="-538.5" font-family="Cascadia Code NF" font-size="10.00">+</text>
<text text-anchor="start" x="66" y="-538.5" font-family="Cascadia Code NF" font-size="10.00">kCodeObjectOffset</text>
<text text-anchor="start" x="56" y="-522.5" font-family="Cascadia Code NF" font-size="10.00">+</text>
<text text-anchor="start" x="66" y="-522.5" font-family="Cascadia Code NF" font-size="10.00">kCodeObjectOffsetEnd</text>
<text text-anchor="start" x="56" y="-506.5" font-family="Cascadia Code NF" font-size="10.00">+</text>
<text text-anchor="start" x="66" y="-506.5" font-family="Cascadia Code NF" font-size="10.00">kStartOfStrongFieldsOffset</text>
<text text-anchor="start" x="56" y="-490.5" font-family="Cascadia Code NF" font-size="10.00">+</text>
<text text-anchor="start" x="66" y="-490.5" font-family="Cascadia Code NF" font-size="10.00">kReceiverOrInstanceOffset</text>
<text text-anchor="start" x="56" y="-474.5" font-family="Cascadia Code NF" font-size="10.00">+</text>
<text text-anchor="start" x="66" y="-474.5" font-family="Cascadia Code NF" font-size="10.00">kReceiverOrInstanceOffsetEnd</text>
<text text-anchor="start" x="56" y="-458.5" font-family="Cascadia Code NF" font-size="10.00">+</text>
<text text-anchor="start" x="66" y="-458.5" font-family="Cascadia Code NF" font-size="10.00">kFunctionOffset</text>
<text text-anchor="start" x="56" y="-442.5" font-family="Cascadia Code NF" font-size="10.00">+</text>
<text text-anchor="start" x="66" y="-442.5" font-family="Cascadia Code NF" font-size="10.00">kFunctionOffsetEnd</text>
<text text-anchor="start" x="56" y="-426.5" font-family="Cascadia Code NF" font-size="10.00">+</text>
<text text-anchor="start" x="66" y="-426.5" font-family="Cascadia Code NF" font-size="10.00">kCodeOffsetOrSourcePosition</text>
<text text-anchor="start" x="66" y="-413.75" font-family="Cascadia Code NF" font-size="10.00">Offset</text>
<text text-anchor="start" x="56" y="-397.5" font-family="Cascadia Code NF" font-size="10.00">+</text>
<text text-anchor="start" x="66" y="-397.5" font-family="Cascadia Code NF" font-size="10.00">kCodeOffsetOrSourcePosition</text>
<text text-anchor="start" x="66" y="-384.75" font-family="Cascadia Code NF" font-size="10.00">OffsetEnd</text>
<text text-anchor="start" x="56" y="-368.5" font-family="Cascadia Code NF" font-size="10.00">+</text>
<text text-anchor="start" x="66" y="-368.5" font-family="Cascadia Code NF" font-size="10.00">kFlagsOffset</text>
<text text-anchor="start" x="66" y="-352.5" font-family="Cascadia Code NF" font-size="10.00">and 8 more...</text>
<text text-anchor="start" x="56" y="-336.5" font-family="Cascadia Code NF" font-size="10.00">+</text>
<text text-anchor="start" x="66" y="-336.5" font-family="Cascadia Code NF" font-size="10.00">receiver_or_instance()</text>
<text text-anchor="start" x="56" y="-320.5" font-family="Cascadia Code NF" font-size="10.00">+</text>
<text text-anchor="start" x="66" y="-320.5" font-family="Cascadia Code NF" font-size="10.00">receiver_or_instance()</text>
<text text-anchor="start" x="56" y="-304.5" font-family="Cascadia Code NF" font-size="10.00">+</text>
<text text-anchor="start" x="66" y="-304.5" font-family="Cascadia Code NF" font-size="10.00">set_receiver_or_instance()</text>
<text text-anchor="start" x="56" y="-288.5" font-family="Cascadia Code NF" font-size="10.00">+</text>
<text text-anchor="start" x="66" y="-288.5" font-family="Cascadia Code NF" font-size="10.00">function()</text>
<text text-anchor="start" x="56" y="-272.5" font-family="Cascadia Code NF" font-size="10.00">+</text>
<text text-anchor="start" x="66" y="-272.5" font-family="Cascadia Code NF" font-size="10.00">function()</text>
<text text-anchor="start" x="56" y="-256.5" font-family="Cascadia Code NF" font-size="10.00">+</text>
<text text-anchor="start" x="66" y="-256.5" font-family="Cascadia Code NF" font-size="10.00">set_function()</text>
<text text-anchor="start" x="56" y="-240.5" font-family="Cascadia Code NF" font-size="10.00">+</text>
<text text-anchor="start" x="66" y="-240.5" font-family="Cascadia Code NF" font-size="10.00">code_offset_or_source</text>
<text text-anchor="start" x="66" y="-227.75" font-family="Cascadia Code NF" font-size="10.00">_position()</text>
<text text-anchor="start" x="56" y="-211.5" font-family="Cascadia Code NF" font-size="10.00">+</text>
<text text-anchor="start" x="66" y="-211.5" font-family="Cascadia Code NF" font-size="10.00">set_code_offset_or</text>
<text text-anchor="start" x="66" y="-198.75" font-family="Cascadia Code NF" font-size="10.00">_source_position()</text>
<text text-anchor="start" x="56" y="-182.5" font-family="Cascadia Code NF" font-size="10.00">+</text>
<text text-anchor="start" x="66" y="-182.5" font-family="Cascadia Code NF" font-size="10.00">flags()</text>
<text text-anchor="start" x="56" y="-166.5" font-family="Cascadia Code NF" font-size="10.00">+</text>
<text text-anchor="start" x="66" y="-166.5" font-family="Cascadia Code NF" font-size="10.00">set_flags()</text>
<text text-anchor="start" x="56" y="-150.5" font-family="Cascadia Code NF" font-size="10.00">+</text>
<text text-anchor="start" x="66" y="-150.5" font-family="Cascadia Code NF" font-size="10.00">parameters()</text>
<text text-anchor="start" x="56" y="-134.5" font-family="Cascadia Code NF" font-size="10.00">+</text>
<text text-anchor="start" x="66" y="-134.5" font-family="Cascadia Code NF" font-size="10.00">parameters()</text>
<text text-anchor="start" x="56" y="-118.5" font-family="Cascadia Code NF" font-size="10.00">+</text>
<text text-anchor="start" x="66" y="-118.5" font-family="Cascadia Code NF" font-size="10.00">set_parameters()</text>
<text text-anchor="start" x="56" y="-102.5" font-family="Cascadia Code NF" font-size="10.00">+</text>
<text text-anchor="start" x="66" y="-102.5" font-family="Cascadia Code NF" font-size="10.00">AllocatedSize()</text>
<text text-anchor="start" x="56" y="-86.5" font-family="Cascadia Code NF" font-size="10.00">+</text>
<text text-anchor="start" x="66" y="-86.5" font-family="Cascadia Code NF" font-size="10.00">TorqueGeneratedCallSiteInfo()</text>
<text text-anchor="start" x="56" y="-70.5" font-family="Cascadia Code NF" font-size="10.00">+</text>
<text text-anchor="start" x="66" y="-70.5" font-family="Cascadia Code NF" font-size="10.00">cast()</text>
<text text-anchor="start" x="56" y="-54.5" font-family="Cascadia Code NF" font-size="10.00">+</text>
<text text-anchor="start" x="66" y="-54.5" font-family="Cascadia Code NF" font-size="10.00">unchecked_cast()</text>
<text text-anchor="start" x="56" y="-38.5" font-family="Cascadia Code NF" font-size="10.00">+</text>
<text text-anchor="start" x="66" y="-38.5" font-family="Cascadia Code NF" font-size="10.00">SizeFor()</text>
<text text-anchor="start" x="56" y="-22.5" font-family="Cascadia Code NF" font-size="10.00">#</text>
<text text-anchor="start" x="66" y="-22.5" font-family="Cascadia Code NF" font-size="10.00">TorqueGeneratedCallSiteInfo()</text>
<text text-anchor="start" x="56" y="-6.5" font-family="Cascadia Code NF" font-size="10.00">#</text>
<text text-anchor="start" x="66" y="-6.5" font-family="Cascadia Code NF" font-size="10.00">TorqueGeneratedCallSiteInfo()</text>
<polygon fill="#666666" stroke="#666666" points="52,-550 52,-550 244,-550 244,-550 52,-550"/>
<polygon fill="#666666" stroke="#666666" points="52,-348 52,-348 64,-348 64,-348 52,-348"/>
<polygon fill="#666666" stroke="#666666" points="64,-348 64,-348 244,-348 244,-348 64,-348"/>
<polygon fill="none" stroke="#666666" points="52,0 52,-581 244,-581 244,0 52,0"/>
</a>
</g>
</g>
<!-- Node2 -->
<g id="Node000002" class="node">
<title>Node2</title>
<g id="a_Node000002"><a xlink:href="../../db/d72/classP.html" target="_top" xlink:title=" ">
<polygon fill="white" stroke="none" points="16,-316.5 0,-316.5 0,-264.5 16,-264.5 16,-316.5"/>
<text text-anchor="start" x="5" y="-303" font-family="Cascadia Code NF" font-size="10.00">P</text>
<text text-anchor="start" x="5" y="-287" font-family="Cascadia Code NF" font-size="10.00"> </text>
<text text-anchor="start" x="5" y="-271" font-family="Cascadia Code NF" font-size="10.00"> </text>
<polygon fill="#bfbfbf" stroke="#bfbfbf" points="0,-298.5 0,-298.5 16,-298.5 16,-298.5 0,-298.5"/>
<polygon fill="#bfbfbf" stroke="#bfbfbf" points="0,-282.5 0,-282.5 16,-282.5 16,-282.5 0,-282.5"/>
<polygon fill="none" stroke="#bfbfbf" points="0,-264.5 0,-316.5 16,-316.5 16,-264.5 0,-264.5"/>
</a>
</g>
</g>
<!-- Node2&#45;&gt;Node1 -->
<g id="edge1_Node000001_Node000002" class="edge">
<title>Node2&#45;&gt;Node1</title>
<g id="a_edge1_Node000001_Node000002"><a xlink:title=" ">
<path fill="none" stroke="#63b8ff" d="M26.97,-290.5C34,-290.5 42.63,-290.5 52.01,-290.5"/>
<polygon fill="none" stroke="#63b8ff" points="27.17,-287 17.17,-290.5 27.17,-294 27.17,-287"/>
</a>
</g>
</g>
</g>
</svg>
