<?xml version="1.0" encoding="UTF-8" standalone="no"?>
<!DOCTYPE svg PUBLIC "-//W3C//DTD SVG 1.1//EN"
 "http://www.w3.org/Graphics/SVG/1.1/DTD/svg11.dtd">
<!-- Generated by graphviz version 11.0.0 (20240428.1522)
 -->
<!-- Title: v8::internal::JSObjectWithEmbedderSlots Pages: 1 -->
<!--zoomable 189 -->

<svg id="main" version="1.1" xmlns="http://www.w3.org/2000/svg" xmlns:xlink="http://www.w3.org/1999/xlink" xml:space="preserve" onload="init(evt)">
<style type="text/css"><![CDATA[
.node, .edge {opacity: 0.7;}
.node.selected, .edge.selected {opacity: 1;}
.edge:hover path { stroke: red; }
.edge:hover polygon { stroke: red; fill: red; }
svg#main { background-color: #111; }
]]></style>

<defs>
  <circle id="rim" cx="0" cy="0" r="7"/>
  <circle id="rim2" cx="0" cy="0" r="3.5"/>
  <g id="zoomPlus">
    <use xlink:href="#rim" fill="#404040"><set attributeName="fill" to="#808080" begin="zoomplus.mouseover" end="zoomplus.mouseout"/></use>
    <path d="M-4,0h8M0,-4v8" fill="none" stroke="white" stroke-width="1.5" pointer-events="none"/>
  </g>
  <g id="zoomMin">
    <use xlink:href="#rim" fill="#404040"><set attributeName="fill" to="#808080" begin="zoomminus.mouseover" end="zoomminus.mouseout"/></use>
    <path d="M-4,0h8" fill="none" stroke="white" stroke-width="1.5" pointer-events="none"/>
  </g>
  <g id="arrowUp" transform="translate(30 24)">
    <use xlink:href="#rim"/>
    <path pointer-events="none" fill="none" stroke="white" stroke-width="1.5" d="M0,-3.0v7 M-2.5,-0.5L0,-3.0L2.5,-0.5"/>
  </g>
  <g id="arrowRight" transform="rotate(90) translate(36 -43)">
    <use xlink:href="#rim"/>
    <path pointer-events="none" fill="none" stroke="white" stroke-width="1.5" d="M0,-3.0v7 M-2.5,-0.5L0,-3.0L2.5,-0.5"/>
  </g>
  <g id="arrowDown" transform="rotate(180) translate(-30 -48)">
    <use xlink:href="#rim"/>
    <path pointer-events="none" fill="none" stroke="white" stroke-width="1.5" d="M0,-3.0v7 M-2.5,-0.5L0,-3.0L2.5,-0.5"/>
  </g>
  <g id="arrowLeft" transform="rotate(270) translate(-36 17)">
    <use xlink:href="#rim"/>
    <path pointer-events="none" fill="none" stroke="white" stroke-width="1.5" d="M0,-3.0v7 M-2.5,-0.5L0,-3.0L2.5,-0.5"/>
  </g>
  <g id="resetDef">
    <use xlink:href="#rim2" fill="#404040"><set attributeName="fill" to="#808080" begin="reset.mouseover" end="reset.mouseout"/></use>
  </g>
</defs>
<script type="application/ecmascript">
var viewWidth = 686;
var viewHeight = 189;
var sectionId = 'dynsection-1';
</script>
<script type="application/ecmascript" xlink:href="../../svg.min.js"/>
<svg id="graph" class="graph">
<g id="viewport">
<title>v8::internal::JSObjectWithEmbedderSlots</title>
<!-- Node1 -->
<g id="Node000001" class="node">
<title>Node1</title>
<g id="a_Node000001"><a xlink:title=" ">
<polygon fill="#999999" stroke="none" points="678,-123 512,-123 512,-58 678,-58 678,-123"/>
<text text-anchor="start" x="517" y="-109.5" font-family="Cascadia Code NF" font-size="10.00">v8::internal::JSObjectWith</text>
<text text-anchor="start" x="556" y="-96.75" font-family="Cascadia Code NF" font-size="10.00">EmbedderSlots</text>
<text text-anchor="start" x="592" y="-80.5" font-family="Cascadia Code NF" font-size="10.00"> </text>
<text text-anchor="start" x="592" y="-64.5" font-family="Cascadia Code NF" font-size="10.00"> </text>
<polygon fill="#666666" stroke="#666666" points="512,-92 512,-92 678,-92 678,-92 512,-92"/>
<polygon fill="#666666" stroke="#666666" points="512,-76 512,-76 678,-76 678,-76 512,-76"/>
<polygon fill="none" stroke="#666666" points="512,-58 512,-123 678,-123 678,-58 512,-58"/>
</a>
</g>
</g>
<!-- Node2 -->
<g id="Node000002" class="node">
<title>Node2</title>
<g id="a_Node000002"><a xlink:href="../../d5/dda/classTorqueGeneratedJSObjectWithEmbedderSlots.html" target="_top" xlink:title=" ">
<polygon fill="white" stroke="none" points="476,-181 256,-181 256,0 476,0 476,-181"/>
<text text-anchor="start" x="261" y="-167.5" font-family="Cascadia Code NF" font-size="10.00">TorqueGeneratedJSObjectWith</text>
<text text-anchor="start" x="261" y="-154.75" font-family="Cascadia Code NF" font-size="10.00">EmbedderSlots&lt; JSObjectWithEmbedder</text>
<text text-anchor="start" x="315" y="-142" font-family="Cascadia Code NF" font-size="10.00">Slots, JSObject &gt;</text>
<text text-anchor="start" x="363" y="-125.5" font-family="Cascadia Code NF" font-size="10.00"> </text>
<text text-anchor="start" x="270" y="-109.5" font-family="Cascadia Code NF" font-size="10.00">+</text>
<text text-anchor="start" x="290" y="-109.5" font-family="Cascadia Code NF" font-size="10.00">TorqueGeneratedJSObjectWith</text>
<text text-anchor="start" x="290" y="-96.75" font-family="Cascadia Code NF" font-size="10.00">EmbedderSlots()</text>
<text text-anchor="start" x="270" y="-80.5" font-family="Cascadia Code NF" font-size="10.00">+</text>
<text text-anchor="start" x="290" y="-80.5" font-family="Cascadia Code NF" font-size="10.00">cast()</text>
<text text-anchor="start" x="270" y="-64.5" font-family="Cascadia Code NF" font-size="10.00">+</text>
<text text-anchor="start" x="290" y="-64.5" font-family="Cascadia Code NF" font-size="10.00">unchecked_cast()</text>
<text text-anchor="start" x="270" y="-48.5" font-family="Cascadia Code NF" font-size="10.00">#</text>
<text text-anchor="start" x="290" y="-48.5" font-family="Cascadia Code NF" font-size="10.00">TorqueGeneratedJSObjectWith</text>
<text text-anchor="start" x="290" y="-35.75" font-family="Cascadia Code NF" font-size="10.00">EmbedderSlots()</text>
<text text-anchor="start" x="270" y="-19.5" font-family="Cascadia Code NF" font-size="10.00">#</text>
<text text-anchor="start" x="290" y="-19.5" font-family="Cascadia Code NF" font-size="10.00">TorqueGeneratedJSObjectWith</text>
<text text-anchor="start" x="290" y="-6.75" font-family="Cascadia Code NF" font-size="10.00">EmbedderSlots()</text>
<polygon fill="#bfbfbf" stroke="#bfbfbf" points="256,-137 256,-137 476,-137 476,-137 256,-137"/>
<polygon fill="#bfbfbf" stroke="#bfbfbf" points="256,-121 256,-121 476,-121 476,-121 256,-121"/>
<polygon fill="none" stroke="#bfbfbf" points="256,0 256,-181 476,-181 476,0 256,0"/>
</a>
</g>
</g>
<!-- Node2&#45;&gt;Node1 -->
<g id="edge1_Node000001_Node000002" class="edge">
<title>Node2&#45;&gt;Node1</title>
<g id="a_edge1_Node000001_Node000002"><a xlink:title=" ">
<path fill="none" stroke="#63b8ff" d="M487.26,-90.5C495.63,-90.5 503.94,-90.5 512.02,-90.5"/>
<polygon fill="none" stroke="#63b8ff" points="487.36,-87 477.36,-90.5 487.36,-94 487.36,-87"/>
</a>
</g>
</g>
<!-- Node3 -->
<g id="Node000003" class="node">
<title>Node3</title>
<g id="a_Node000003"><a xlink:title=" ">
<polygon fill="white" stroke="none" points="58,-160.5 0,-160.5 0,-108.5 58,-108.5 58,-160.5"/>
<text text-anchor="start" x="5" y="-147" font-family="Cascadia Code NF" font-size="10.00">JSObject</text>
<text text-anchor="start" x="26" y="-131" font-family="Cascadia Code NF" font-size="10.00"> </text>
<text text-anchor="start" x="26" y="-115" font-family="Cascadia Code NF" font-size="10.00"> </text>
<polygon fill="#bfbfbf" stroke="#bfbfbf" points="0,-142.5 0,-142.5 58,-142.5 58,-142.5 0,-142.5"/>
<polygon fill="#bfbfbf" stroke="#bfbfbf" points="0,-126.5 0,-126.5 58,-126.5 58,-126.5 0,-126.5"/>
<polygon fill="none" stroke="#bfbfbf" points="0,-108.5 0,-160.5 58,-160.5 58,-108.5 0,-108.5"/>
</a>
</g>
</g>
<!-- Node3&#45;&gt;Node2 -->
<g id="edge2_Node000002_Node000003" class="edge">
<title>Node3&#45;&gt;Node2</title>
<g id="a_edge2_Node000002_Node000003"><a xlink:title=" ">
<path fill="none" stroke="#63b8ff" d="M69.34,-131.12C111.24,-127.34 179.44,-120.66 238,-112.5 243.98,-111.67 250.12,-110.76 256.3,-109.82"/>
<polygon fill="none" stroke="#63b8ff" points="69.15,-127.62 59.5,-132 69.77,-134.6 69.15,-127.62"/>
</a>
</g>
</g>
<!-- Node4 -->
<g id="Node000004" class="node">
<title>Node4</title>
<g id="a_Node000004"><a xlink:href="../../d1/da0/classint.html" target="_top" xlink:title=" ">
<polygon fill="white" stroke="none" points="43,-73.5 15,-73.5 15,-21.5 43,-21.5 43,-73.5"/>
<text text-anchor="start" x="20" y="-60" font-family="Cascadia Code NF" font-size="10.00">int</text>
<text text-anchor="start" x="26" y="-44" font-family="Cascadia Code NF" font-size="10.00"> </text>
<text text-anchor="start" x="26" y="-28" font-family="Cascadia Code NF" font-size="10.00"> </text>
<polygon fill="#bfbfbf" stroke="#bfbfbf" points="15,-55.5 15,-55.5 43,-55.5 43,-55.5 15,-55.5"/>
<polygon fill="#bfbfbf" stroke="#bfbfbf" points="15,-39.5 15,-39.5 43,-39.5 43,-39.5 15,-39.5"/>
<polygon fill="none" stroke="#bfbfbf" points="15,-21.5 15,-73.5 43,-73.5 43,-21.5 15,-21.5"/>
</a>
</g>
</g>
<!-- Node4&#45;&gt;Node2 -->
<g id="edge3_Node000002_Node000004" class="edge">
<title>Node4&#45;&gt;Node2</title>
<g id="a_edge3_Node000002_Node000004"><a xlink:title=" ">
<path fill="none" stroke="#63b8ff" d="M42.78,-46.21C75.51,-43.2 164.94,-36.82 238,-48.75 239.77,-49.04 241.54,-49.35 243.33,-49.68"/>
<polygon fill="none" stroke="#63b8ff" points="243.45,-49.7 250.14,-47 255.2,-52.13 248.52,-54.83 243.45,-49.7"/>
</a>
</g>
<text text-anchor="middle" x="157" y="-102.75" font-family="Cascadia Code NF" font-size="10.00" fill="grey"> +kEndOfStrongFieldsOffset</text>
<text text-anchor="middle" x="157" y="-90" font-family="Cascadia Code NF" font-size="10.00" fill="grey">+kEndOfWeakFieldsOffset</text>
<text text-anchor="middle" x="157" y="-77.25" font-family="Cascadia Code NF" font-size="10.00" fill="grey">+kHeaderSize</text>
<text text-anchor="middle" x="157" y="-64.5" font-family="Cascadia Code NF" font-size="10.00" fill="grey">+kStartOfStrongFieldsOffset</text>
<text text-anchor="middle" x="157" y="-51.75" font-family="Cascadia Code NF" font-size="10.00" fill="grey">+kStartOfWeakFieldsOffset</text>
</g>
</g>
</svg>

<g id="navigator" transform="translate(0 0)" fill="#404254">
  <rect fill="#f2f5e9" fill-opacity="0.5" stroke="#606060" stroke-width=".5" x="0" y="0" width="60" height="60"/>
  <use id="zoomplus" xlink:href="#zoomPlus" x="17" y="9" onmousedown="handleZoom(evt,'in')"/>
  <use id="zoomminus" xlink:href="#zoomMin" x="42" y="9" onmousedown="handleZoom(evt,'out')"/>
  <use id="reset" xlink:href="#resetDef" x="30" y="36" onmousedown="handleReset()"/>
   <use id="arrowup" xlink:href="#arrowUp" x="0" y="0" onmousedown="handlePan(0,-1)"/>
  <use id="arrowright" xlink:href="#arrowRight" x="0" y="0" onmousedown="handlePan(1,0)"/>
  <use id="arrowdown" xlink:href="#arrowDown" x="0" y="0" onmousedown="handlePan(0,1)"/>
  <use id="arrowleft" xlink:href="#arrowLeft" x="0" y="0" onmousedown="handlePan(-1,0)"/>
</g>
<svg viewBox="0 0 15 15" width="100%" height="30px" preserveAspectRatio="xMaxYMin meet">
 <g id="arrow_out" transform="scale(0.3 0.3)">
  <a xlink:href="classv8_1_1internal_1_1JSObjectWithEmbedderSlots__coll__graph_org.svg" target="_base">
   <rect id="button" ry="5" rx="5" y="6" x="6" height="38" width="38"
        fill="#f2f5e9" fill-opacity="0.5" stroke="#606060" stroke-width="1.0"/>
   <path id="arrow"
     d="M 11.500037,31.436501 C 11.940474,20.09759 22.043105,11.32322 32.158766,21.979434 L 37.068811,17.246167 C 37.068811,17.246167 37.088388,32 37.088388,32 L 22.160133,31.978069 C 22.160133,31.978069 26.997745,27.140456 26.997745,27.140456 C 18.528582,18.264221 13.291696,25.230495 11.500037,31.436501 z"
     style="fill:#404040;"/>
  </a>
 </g>
</svg>

<style type='text/css'>
<![CDATA[
[data-mouse-over-selected='false'] { opacity: 0.7; }
[data-mouse-over-selected='true']  { opacity: 1.0; }
]]>
</style>
<script type="application/ecmascript"><![CDATA[
document.addEventListener('DOMContentLoaded', (event) => {
  highlightEdges();
  highlightAdjacentNodes();
});
]]></script>
</svg>
