<?xml version="1.0" encoding="UTF-8" standalone="no"?>
<!DOCTYPE svg PUBLIC "-//W3C//DTD SVG 1.1//EN"
 "http://www.w3.org/Graphics/SVG/1.1/DTD/svg11.dtd">
<!-- Generated by graphviz version 11.0.0 (20240428.1522)
 -->
<!-- Title: v8::internal::torque::TypeExpression Pages: 1 -->
<svg width="520pt" height="418pt"
 viewBox="0.00 0.00 520.00 418.00" xmlns="http://www.w3.org/2000/svg" xmlns:xlink="http://www.w3.org/1999/xlink">
<g id="graph0" class="graph" transform="scale(1 1) rotate(0) translate(4 414)">
<title>v8::internal::torque::TypeExpression</title>
<!-- Node1 -->
<g id="Node000001" class="node">
<title>Node1</title>
<g id="a_Node000001"><a xlink:title=" ">
<polygon fill="#999999" stroke="none" points="296,-209 166,-209 166,-144 296,-144 296,-209"/>
<text text-anchor="start" x="171" y="-195.5" font-family="Cascadia Code NF" font-size="10.00">v8::internal::torque</text>
<text text-anchor="start" x="183" y="-182.75" font-family="Cascadia Code NF" font-size="10.00">::TypeExpression</text>
<text text-anchor="start" x="228" y="-166.5" font-family="Cascadia Code NF" font-size="10.00"> </text>
<text text-anchor="start" x="174" y="-150.5" font-family="Cascadia Code NF" font-size="10.00">+</text>
<text text-anchor="start" x="188" y="-150.5" font-family="Cascadia Code NF" font-size="10.00">TypeExpression()</text>
<polygon fill="#666666" stroke="#666666" points="166,-178 166,-178 296,-178 296,-178 166,-178"/>
<polygon fill="#666666" stroke="#666666" points="166,-162 166,-162 296,-162 296,-162 166,-162"/>
<polygon fill="none" stroke="#666666" points="166,-144 166,-209 296,-209 296,-144 166,-144"/>
</a>
</g>
</g>
<!-- Node3 -->
<g id="Node000003" class="node">
<title>Node3</title>
<g id="a_Node000003"><a xlink:href="../../d3/d13/structv8_1_1internal_1_1torque_1_1BasicTypeExpression.html" target="_top" xlink:title=" ">
<polygon fill="white" stroke="none" points="500,-410 344,-410 344,-281 500,-281 500,-410"/>
<text text-anchor="start" x="359" y="-396.5" font-family="Cascadia Code NF" font-size="10.00">v8::internal::torque</text>
<text text-anchor="start" x="359" y="-383.75" font-family="Cascadia Code NF" font-size="10.00">::BasicTypeExpression</text>
<text text-anchor="start" x="348" y="-367.5" font-family="Cascadia Code NF" font-size="10.00">+</text>
<text text-anchor="start" x="358" y="-367.5" font-family="Cascadia Code NF" font-size="10.00">namespace_qualification</text>
<text text-anchor="start" x="348" y="-351.5" font-family="Cascadia Code NF" font-size="10.00">+</text>
<text text-anchor="start" x="358" y="-351.5" font-family="Cascadia Code NF" font-size="10.00">is_constexpr</text>
<text text-anchor="start" x="348" y="-335.5" font-family="Cascadia Code NF" font-size="10.00">+</text>
<text text-anchor="start" x="358" y="-335.5" font-family="Cascadia Code NF" font-size="10.00">name</text>
<text text-anchor="start" x="348" y="-319.5" font-family="Cascadia Code NF" font-size="10.00">+</text>
<text text-anchor="start" x="358" y="-319.5" font-family="Cascadia Code NF" font-size="10.00">generic_arguments</text>
<text text-anchor="start" x="348" y="-303.5" font-family="Cascadia Code NF" font-size="10.00">+</text>
<text text-anchor="start" x="358" y="-303.5" font-family="Cascadia Code NF" font-size="10.00">BasicTypeExpression()</text>
<text text-anchor="start" x="348" y="-287.5" font-family="Cascadia Code NF" font-size="10.00">+</text>
<text text-anchor="start" x="358" y="-287.5" font-family="Cascadia Code NF" font-size="10.00">BasicTypeExpression()</text>
<polygon fill="#bfbfbf" stroke="#bfbfbf" points="344,-379 344,-379 500,-379 500,-379 344,-379"/>
<polygon fill="#bfbfbf" stroke="#bfbfbf" points="344,-315 344,-315 356,-315 356,-315 344,-315"/>
<polygon fill="#bfbfbf" stroke="#bfbfbf" points="356,-315 356,-315 500,-315 500,-315 356,-315"/>
<polygon fill="none" stroke="#bfbfbf" points="344,-281 344,-410 500,-410 500,-281 344,-281"/>
</a>
</g>
</g>
<!-- Node1&#45;&gt;Node3 -->
<g id="edge2_Node000001_Node000003" class="edge">
<title>Node1&#45;&gt;Node3</title>
<g id="a_edge2_Node000001_Node000003"><a xlink:title=" ">
<path fill="none" stroke="#63b8ff" d="M272.26,-216.53C290.23,-234.04 311.87,-254.63 332,-272.5 336.04,-276.08 340.21,-279.72 344.45,-283.36"/>
<polygon fill="none" stroke="#63b8ff" points="274.95,-214.27 265.35,-209.78 270.06,-219.27 274.95,-214.27"/>
</a>
</g>
</g>
<!-- Node4 -->
<g id="Node000004" class="node">
<title>Node4</title>
<g id="a_Node000004"><a xlink:href="../../da/de3/structv8_1_1internal_1_1torque_1_1FunctionTypeExpression.html" target="_top" xlink:title=" ">
<polygon fill="white" stroke="none" points="503,-263 341,-263 341,-182 503,-182 503,-263"/>
<text text-anchor="start" x="350" y="-249.5" font-family="Cascadia Code NF" font-size="10.00">v8::internal::torque</text>
<text text-anchor="start" x="350" y="-236.75" font-family="Cascadia Code NF" font-size="10.00">::FunctionTypeExpression</text>
<text text-anchor="start" x="345" y="-220.5" font-family="Cascadia Code NF" font-size="10.00">+</text>
<text text-anchor="start" x="355" y="-220.5" font-family="Cascadia Code NF" font-size="10.00">parameters</text>
<text text-anchor="start" x="345" y="-204.5" font-family="Cascadia Code NF" font-size="10.00">+</text>
<text text-anchor="start" x="355" y="-204.5" font-family="Cascadia Code NF" font-size="10.00">return_type</text>
<text text-anchor="start" x="345" y="-188.5" font-family="Cascadia Code NF" font-size="10.00">+</text>
<text text-anchor="start" x="355" y="-188.5" font-family="Cascadia Code NF" font-size="10.00">FunctionTypeExpression()</text>
<polygon fill="#bfbfbf" stroke="#bfbfbf" points="341,-232 341,-232 503,-232 503,-232 341,-232"/>
<polygon fill="#bfbfbf" stroke="#bfbfbf" points="341,-200 341,-200 353,-200 353,-200 341,-200"/>
<polygon fill="#bfbfbf" stroke="#bfbfbf" points="353,-200 353,-200 503,-200 503,-200 353,-200"/>
<polygon fill="none" stroke="#bfbfbf" points="341,-182 341,-263 503,-263 503,-182 341,-182"/>
</a>
</g>
</g>
<!-- Node1&#45;&gt;Node4 -->
<g id="edge3_Node000001_Node000004" class="edge">
<title>Node1&#45;&gt;Node4</title>
<g id="a_edge3_Node000001_Node000004"><a xlink:title=" ">
<path fill="none" stroke="#63b8ff" d="M307.09,-194.78C318.34,-197.51 329.98,-200.35 341.33,-203.11"/>
<polygon fill="none" stroke="#63b8ff" points="308,-191.4 297.46,-192.43 306.35,-198.2 308,-191.4"/>
</a>
</g>
</g>
<!-- Node5 -->
<g id="Node000005" class="node">
<title>Node5</title>
<g id="a_Node000005"><a xlink:href="../../d6/daf/structv8_1_1internal_1_1torque_1_1PrecomputedTypeExpression.html" target="_top" xlink:title=" ">
<polygon fill="white" stroke="none" points="512,-164 332,-164 332,-99 512,-99 512,-164"/>
<text text-anchor="start" x="341" y="-150.5" font-family="Cascadia Code NF" font-size="10.00">v8::internal::torque</text>
<text text-anchor="start" x="341" y="-137.75" font-family="Cascadia Code NF" font-size="10.00">::PrecomputedTypeExpression</text>
<text text-anchor="start" x="336" y="-121.5" font-family="Cascadia Code NF" font-size="10.00">+</text>
<text text-anchor="start" x="346" y="-121.5" font-family="Cascadia Code NF" font-size="10.00">type</text>
<text text-anchor="start" x="336" y="-105.5" font-family="Cascadia Code NF" font-size="10.00">+</text>
<text text-anchor="start" x="346" y="-105.5" font-family="Cascadia Code NF" font-size="10.00">PrecomputedTypeExpression()</text>
<polygon fill="#bfbfbf" stroke="#bfbfbf" points="332,-133 332,-133 512,-133 512,-133 332,-133"/>
<polygon fill="#bfbfbf" stroke="#bfbfbf" points="332,-117 332,-117 344,-117 344,-117 332,-117"/>
<polygon fill="#bfbfbf" stroke="#bfbfbf" points="344,-117 344,-117 512,-117 512,-117 344,-117"/>
<polygon fill="none" stroke="#bfbfbf" points="332,-99 332,-164 512,-164 512,-99 332,-99"/>
</a>
</g>
</g>
<!-- Node1&#45;&gt;Node5 -->
<g id="edge4_Node000001_Node000005" class="edge">
<title>Node1&#45;&gt;Node5</title>
<g id="a_edge4_Node000001_Node000005"><a xlink:title=" ">
<path fill="none" stroke="#63b8ff" d="M307.11,-158.62C315.38,-156.65 323.85,-154.63 332.27,-152.63"/>
<polygon fill="none" stroke="#63b8ff" points="306.38,-155.19 297.46,-160.91 308,-162 306.38,-155.19"/>
</a>
</g>
</g>
<!-- Node6 -->
<g id="Node000006" class="node">
<title>Node6</title>
<g id="a_Node000006"><a xlink:href="../../d3/d12/structv8_1_1internal_1_1torque_1_1UnionTypeExpression.html" target="_top" xlink:title=" ">
<polygon fill="white" stroke="none" points="494,-81 350,-81 350,0 494,0 494,-81"/>
<text text-anchor="start" x="359" y="-67.5" font-family="Cascadia Code NF" font-size="10.00">v8::internal::torque</text>
<text text-anchor="start" x="359" y="-54.75" font-family="Cascadia Code NF" font-size="10.00">::UnionTypeExpression</text>
<text text-anchor="start" x="354" y="-38.5" font-family="Cascadia Code NF" font-size="10.00">+</text>
<text text-anchor="start" x="364" y="-38.5" font-family="Cascadia Code NF" font-size="10.00">a</text>
<text text-anchor="start" x="354" y="-22.5" font-family="Cascadia Code NF" font-size="10.00">+</text>
<text text-anchor="start" x="364" y="-22.5" font-family="Cascadia Code NF" font-size="10.00">b</text>
<text text-anchor="start" x="354" y="-6.5" font-family="Cascadia Code NF" font-size="10.00">+</text>
<text text-anchor="start" x="364" y="-6.5" font-family="Cascadia Code NF" font-size="10.00">UnionTypeExpression()</text>
<polygon fill="#bfbfbf" stroke="#bfbfbf" points="350,-50 350,-50 494,-50 494,-50 350,-50"/>
<polygon fill="#bfbfbf" stroke="#bfbfbf" points="350,-18 350,-18 362,-18 362,-18 350,-18"/>
<polygon fill="#bfbfbf" stroke="#bfbfbf" points="362,-18 362,-18 494,-18 494,-18 362,-18"/>
<polygon fill="none" stroke="#bfbfbf" points="350,0 350,-81 494,-81 494,0 350,0"/>
</a>
</g>
</g>
<!-- Node1&#45;&gt;Node6 -->
<g id="edge5_Node000001_Node000006" class="edge">
<title>Node1&#45;&gt;Node6</title>
<g id="a_edge5_Node000001_Node000006"><a xlink:title=" ">
<path fill="none" stroke="#63b8ff" d="M273.47,-136.9C290.87,-121.25 311.73,-103.65 332,-89.5 337.78,-85.46 343.93,-81.49 350.19,-77.66"/>
<polygon fill="none" stroke="#63b8ff" points="271.39,-134.07 266.35,-143.39 276.1,-139.24 271.39,-134.07"/>
</a>
</g>
</g>
<!-- Node2 -->
<g id="Node000002" class="node">
<title>Node2</title>
<g id="a_Node000002"><a xlink:href="../../df/de2/structv8_1_1internal_1_1torque_1_1AstNode.html" target="_top" xlink:title=" ">
<polygon fill="white" stroke="none" points="130,-225 0,-225 0,-128 130,-128 130,-225"/>
<text text-anchor="start" x="5" y="-211.5" font-family="Cascadia Code NF" font-size="10.00">v8::internal::torque</text>
<text text-anchor="start" x="38" y="-198.75" font-family="Cascadia Code NF" font-size="10.00">::AstNode</text>
<text text-anchor="start" x="17" y="-182.5" font-family="Cascadia Code NF" font-size="10.00">+</text>
<text text-anchor="start" x="40" y="-182.5" font-family="Cascadia Code NF" font-size="10.00">kind</text>
<text text-anchor="start" x="17" y="-166.5" font-family="Cascadia Code NF" font-size="10.00">+</text>
<text text-anchor="start" x="40" y="-166.5" font-family="Cascadia Code NF" font-size="10.00">pos</text>
<text text-anchor="start" x="17" y="-150.5" font-family="Cascadia Code NF" font-size="10.00">+</text>
<text text-anchor="start" x="40" y="-150.5" font-family="Cascadia Code NF" font-size="10.00">AstNode()</text>
<text text-anchor="start" x="17" y="-134.5" font-family="Cascadia Code NF" font-size="10.00">+</text>
<text text-anchor="start" x="40" y="-134.5" font-family="Cascadia Code NF" font-size="10.00">~AstNode()</text>
<polygon fill="#bfbfbf" stroke="#bfbfbf" points="0,-194 0,-194 130,-194 130,-194 0,-194"/>
<polygon fill="#bfbfbf" stroke="#bfbfbf" points="0,-162 0,-162 38,-162 38,-162 0,-162"/>
<polygon fill="#bfbfbf" stroke="#bfbfbf" points="38,-162 38,-162 130,-162 130,-162 38,-162"/>
<polygon fill="none" stroke="#bfbfbf" points="0,-128 0,-225 130,-225 130,-128 0,-128"/>
</a>
</g>
</g>
<!-- Node2&#45;&gt;Node1 -->
<g id="edge1_Node000001_Node000002" class="edge">
<title>Node2&#45;&gt;Node1</title>
<g id="a_edge1_Node000001_Node000002"><a xlink:title=" ">
<path fill="none" stroke="#63b8ff" d="M141.13,-176.5C149.45,-176.5 157.86,-176.5 166.03,-176.5"/>
<polygon fill="none" stroke="#63b8ff" points="141.39,-173 131.39,-176.5 141.39,-180 141.39,-173"/>
</a>
</g>
</g>
</g>
</svg>
