<?xml version="1.0" encoding="UTF-8" standalone="no"?>
<!DOCTYPE svg PUBLIC "-//W3C//DTD SVG 1.1//EN"
 "http://www.w3.org/Graphics/SVG/1.1/DTD/svg11.dtd">
<!-- Generated by graphviz version 11.0.0 (20240428.1522)
 -->
<!-- Title: v8::internal::ContextSerializer Pages: 1 -->
<svg width="850pt" height="364pt"
 viewBox="0.00 0.00 850.00 364.00" xmlns="http://www.w3.org/2000/svg" xmlns:xlink="http://www.w3.org/1999/xlink">
<g id="graph0" class="graph" transform="scale(1 1) rotate(0) translate(4 360)">
<title>v8::internal::ContextSerializer</title>
<!-- Node1 -->
<g id="Node000001" class="node">
<title>Node1</title>
<g id="a_Node000001"><a xlink:title=" ">
<polygon fill="#999999" stroke="none" points="842,-244 646,-244 646,-112 842,-112 842,-244"/>
<text text-anchor="start" x="651" y="-230.5" font-family="Cascadia Code NF" font-size="10.00">v8::internal::ContextSerializer</text>
<text text-anchor="start" x="741" y="-214.5" font-family="Cascadia Code NF" font-size="10.00"> </text>
<text text-anchor="start" x="664.5" y="-198.5" font-family="Cascadia Code NF" font-size="10.00">+</text>
<text text-anchor="start" x="689" y="-198.5" font-family="Cascadia Code NF" font-size="10.00">ContextSerializer()</text>
<text text-anchor="start" x="664.5" y="-182.5" font-family="Cascadia Code NF" font-size="10.00">+</text>
<text text-anchor="start" x="689" y="-182.5" font-family="Cascadia Code NF" font-size="10.00">~ContextSerializer()</text>
<text text-anchor="start" x="664.5" y="-166.5" font-family="Cascadia Code NF" font-size="10.00">+</text>
<text text-anchor="start" x="689" y="-166.5" font-family="Cascadia Code NF" font-size="10.00">ContextSerializer()</text>
<text text-anchor="start" x="664.5" y="-150.5" font-family="Cascadia Code NF" font-size="10.00">+</text>
<text text-anchor="start" x="689" y="-150.5" font-family="Cascadia Code NF" font-size="10.00">operator=()</text>
<text text-anchor="start" x="664.5" y="-134.5" font-family="Cascadia Code NF" font-size="10.00">+</text>
<text text-anchor="start" x="689" y="-134.5" font-family="Cascadia Code NF" font-size="10.00">Serialize()</text>
<text text-anchor="start" x="664.5" y="-118.5" font-family="Cascadia Code NF" font-size="10.00">+</text>
<text text-anchor="start" x="689" y="-118.5" font-family="Cascadia Code NF" font-size="10.00">can_be_rehashed()</text>
<polygon fill="#666666" stroke="#666666" points="646,-226 646,-226 842,-226 842,-226 646,-226"/>
<polygon fill="#666666" stroke="#666666" points="646,-210 646,-210 842,-210 842,-210 646,-210"/>
<polygon fill="none" stroke="#666666" points="646,-112 646,-244 842,-244 842,-112 646,-112"/>
</a>
</g>
</g>
<!-- Node2 -->
<g id="Node000002" class="node">
<title>Node2</title>
<g id="a_Node000002"><a xlink:href="$d2/d2a/classv8_1_1internal_1_1Serializer.html" xlink:title=" ">
<polygon fill="white" stroke="none" points="610,-356 436,-356 436,0 610,0 610,-356"/>
<text text-anchor="start" x="451" y="-342.5" font-family="Cascadia Code NF" font-size="10.00">v8::internal::Serializer</text>
<text text-anchor="start" x="440" y="-326.5" font-family="Cascadia Code NF" font-size="10.00">#</text>
<text text-anchor="start" x="450" y="-326.5" font-family="Cascadia Code NF" font-size="10.00">sink_</text>
<text text-anchor="start" x="440" y="-310.5" font-family="Cascadia Code NF" font-size="10.00">+</text>
<text text-anchor="start" x="450" y="-310.5" font-family="Cascadia Code NF" font-size="10.00">Serializer()</text>
<text text-anchor="start" x="440" y="-294.5" font-family="Cascadia Code NF" font-size="10.00">+</text>
<text text-anchor="start" x="450" y="-294.5" font-family="Cascadia Code NF" font-size="10.00">~Serializer()</text>
<text text-anchor="start" x="440" y="-278.5" font-family="Cascadia Code NF" font-size="10.00">+</text>
<text text-anchor="start" x="450" y="-278.5" font-family="Cascadia Code NF" font-size="10.00">Serializer()</text>
<text text-anchor="start" x="440" y="-262.5" font-family="Cascadia Code NF" font-size="10.00">+</text>
<text text-anchor="start" x="450" y="-262.5" font-family="Cascadia Code NF" font-size="10.00">operator=()</text>
<text text-anchor="start" x="440" y="-246.5" font-family="Cascadia Code NF" font-size="10.00">+</text>
<text text-anchor="start" x="450" y="-246.5" font-family="Cascadia Code NF" font-size="10.00">Payload()</text>
<text text-anchor="start" x="440" y="-230.5" font-family="Cascadia Code NF" font-size="10.00">+</text>
<text text-anchor="start" x="450" y="-230.5" font-family="Cascadia Code NF" font-size="10.00">ReferenceMapContains()</text>
<text text-anchor="start" x="440" y="-214.5" font-family="Cascadia Code NF" font-size="10.00">+</text>
<text text-anchor="start" x="450" y="-214.5" font-family="Cascadia Code NF" font-size="10.00">isolate()</text>
<text text-anchor="start" x="440" y="-198.5" font-family="Cascadia Code NF" font-size="10.00">+</text>
<text text-anchor="start" x="450" y="-198.5" font-family="Cascadia Code NF" font-size="10.00">cage_base()</text>
<text text-anchor="start" x="440" y="-182.5" font-family="Cascadia Code NF" font-size="10.00">+</text>
<text text-anchor="start" x="450" y="-182.5" font-family="Cascadia Code NF" font-size="10.00">TotalAllocationSize()</text>
<text text-anchor="start" x="440" y="-166.5" font-family="Cascadia Code NF" font-size="10.00">#</text>
<text text-anchor="start" x="450" y="-166.5" font-family="Cascadia Code NF" font-size="10.00">IsNotMappedSymbol()</text>
<text text-anchor="start" x="440" y="-150.5" font-family="Cascadia Code NF" font-size="10.00">#</text>
<text text-anchor="start" x="450" y="-150.5" font-family="Cascadia Code NF" font-size="10.00">SerializeDeferredObjects()</text>
<text text-anchor="start" x="440" y="-134.5" font-family="Cascadia Code NF" font-size="10.00">#</text>
<text text-anchor="start" x="450" y="-134.5" font-family="Cascadia Code NF" font-size="10.00">SerializeObject()</text>
<text text-anchor="start" x="440" y="-118.5" font-family="Cascadia Code NF" font-size="10.00">#</text>
<text text-anchor="start" x="450" y="-118.5" font-family="Cascadia Code NF" font-size="10.00">SerializeObjectImpl()</text>
<text text-anchor="start" x="440" y="-102.5" font-family="Cascadia Code NF" font-size="10.00">#</text>
<text text-anchor="start" x="450" y="-102.5" font-family="Cascadia Code NF" font-size="10.00">MustBeDeferred()</text>
<text text-anchor="start" x="440" y="-86.5" font-family="Cascadia Code NF" font-size="10.00">#</text>
<text text-anchor="start" x="450" y="-86.5" font-family="Cascadia Code NF" font-size="10.00">VisitRootPointers()</text>
<text text-anchor="start" x="440" y="-70.5" font-family="Cascadia Code NF" font-size="10.00">#</text>
<text text-anchor="start" x="450" y="-70.5" font-family="Cascadia Code NF" font-size="10.00">SerializeRootObject()</text>
<text text-anchor="start" x="440" y="-54.5" font-family="Cascadia Code NF" font-size="10.00">#</text>
<text text-anchor="start" x="450" y="-54.5" font-family="Cascadia Code NF" font-size="10.00">PutRoot()</text>
<text text-anchor="start" x="440" y="-38.5" font-family="Cascadia Code NF" font-size="10.00">#</text>
<text text-anchor="start" x="450" y="-38.5" font-family="Cascadia Code NF" font-size="10.00">PutSmiRoot()</text>
<text text-anchor="start" x="440" y="-22.5" font-family="Cascadia Code NF" font-size="10.00">#</text>
<text text-anchor="start" x="450" y="-22.5" font-family="Cascadia Code NF" font-size="10.00">PutBackReference()</text>
<text text-anchor="start" x="450" y="-6.5" font-family="Cascadia Code NF" font-size="10.00">and 29 more...</text>
<polygon fill="#bfbfbf" stroke="#bfbfbf" points="436,-338 436,-338 610,-338 610,-338 436,-338"/>
<polygon fill="#bfbfbf" stroke="#bfbfbf" points="436,-322 436,-322 448,-322 448,-322 436,-322"/>
<polygon fill="#bfbfbf" stroke="#bfbfbf" points="448,-322 448,-322 610,-322 610,-322 448,-322"/>
<polygon fill="none" stroke="#bfbfbf" points="436,0 436,-356 610,-356 610,0 436,0"/>
</a>
</g>
</g>
<!-- Node2&#45;&gt;Node1 -->
<g id="edge1_Node000001_Node000002" class="edge">
<title>Node2&#45;&gt;Node1</title>
<g id="a_edge1_Node000001_Node000002"><a xlink:title=" ">
<path fill="none" stroke="#63b8ff" d="M621.43,-178C629.62,-178 637.9,-178 646.09,-178"/>
<polygon fill="none" stroke="#63b8ff" points="621.44,-174.5 611.44,-178 621.44,-181.5 621.44,-174.5"/>
</a>
</g>
</g>
<!-- Node3 -->
<g id="Node000003" class="node">
<title>Node3</title>
<g id="a_Node000003"><a xlink:href="$d4/dbe/classv8_1_1internal_1_1SerializerDeserializer.html" xlink:title=" ">
<polygon fill="white" stroke="none" points="400,-348.5 196,-348.5 196,-7.5 400,-7.5 400,-348.5"/>
<text text-anchor="start" x="226" y="-335" font-family="Cascadia Code NF" font-size="10.00">v8::internal::Serializer</text>
<text text-anchor="start" x="262" y="-322.25" font-family="Cascadia Code NF" font-size="10.00">Deserializer</text>
<text text-anchor="start" x="200" y="-306" font-family="Cascadia Code NF" font-size="10.00">#</text>
<text text-anchor="start" x="210" y="-306" font-family="Cascadia Code NF" font-size="10.00">kRootArrayConstantsCount</text>
<text text-anchor="start" x="200" y="-290" font-family="Cascadia Code NF" font-size="10.00">#</text>
<text text-anchor="start" x="210" y="-290" font-family="Cascadia Code NF" font-size="10.00">kFixedRawDataCount</text>
<text text-anchor="start" x="200" y="-274" font-family="Cascadia Code NF" font-size="10.00">#</text>
<text text-anchor="start" x="210" y="-274" font-family="Cascadia Code NF" font-size="10.00">kFixedRepeatCount</text>
<text text-anchor="start" x="200" y="-258" font-family="Cascadia Code NF" font-size="10.00">#</text>
<text text-anchor="start" x="210" y="-258" font-family="Cascadia Code NF" font-size="10.00">kHotObjectCount</text>
<text text-anchor="start" x="200" y="-242" font-family="Cascadia Code NF" font-size="10.00">#</text>
<text text-anchor="start" x="210" y="-242" font-family="Cascadia Code NF" font-size="10.00">kDoubleAlignmentSentinel</text>
<text text-anchor="start" x="200" y="-226" font-family="Cascadia Code NF" font-size="10.00">#</text>
<text text-anchor="start" x="210" y="-226" font-family="Cascadia Code NF" font-size="10.00">kFirstEncodableFixedRawDataSize</text>
<text text-anchor="start" x="200" y="-210" font-family="Cascadia Code NF" font-size="10.00">#</text>
<text text-anchor="start" x="210" y="-210" font-family="Cascadia Code NF" font-size="10.00">kLastEncodableFixedRawDataSize</text>
<text text-anchor="start" x="200" y="-194" font-family="Cascadia Code NF" font-size="10.00">#</text>
<text text-anchor="start" x="210" y="-194" font-family="Cascadia Code NF" font-size="10.00">kFirstEncodableRepeatCount</text>
<text text-anchor="start" x="200" y="-178" font-family="Cascadia Code NF" font-size="10.00">#</text>
<text text-anchor="start" x="210" y="-178" font-family="Cascadia Code NF" font-size="10.00">kLastEncodableFixedRepeat</text>
<text text-anchor="start" x="210" y="-165.25" font-family="Cascadia Code NF" font-size="10.00">Count</text>
<text text-anchor="start" x="200" y="-149" font-family="Cascadia Code NF" font-size="10.00">#</text>
<text text-anchor="start" x="210" y="-149" font-family="Cascadia Code NF" font-size="10.00">kFirstEncodableVariableRepeat</text>
<text text-anchor="start" x="210" y="-136.25" font-family="Cascadia Code NF" font-size="10.00">Count</text>
<text text-anchor="start" x="200" y="-120" font-family="Cascadia Code NF" font-size="10.00">#</text>
<text text-anchor="start" x="210" y="-120" font-family="Cascadia Code NF" font-size="10.00">kEmptyBackingStoreRefSentinel</text>
<text text-anchor="start" x="200" y="-104" font-family="Cascadia Code NF" font-size="10.00">+</text>
<text text-anchor="start" x="210" y="-104" font-family="Cascadia Code NF" font-size="10.00">IterateStartupObjectCache()</text>
<text text-anchor="start" x="200" y="-88" font-family="Cascadia Code NF" font-size="10.00">+</text>
<text text-anchor="start" x="210" y="-88" font-family="Cascadia Code NF" font-size="10.00">IterateSharedHeapObjectCache()</text>
<text text-anchor="start" x="200" y="-72" font-family="Cascadia Code NF" font-size="10.00">#</text>
<text text-anchor="start" x="210" y="-72" font-family="Cascadia Code NF" font-size="10.00">RestoreExternalReference</text>
<text text-anchor="start" x="210" y="-59.25" font-family="Cascadia Code NF" font-size="10.00">Redirector()</text>
<text text-anchor="start" x="200" y="-43" font-family="Cascadia Code NF" font-size="10.00">#</text>
<text text-anchor="start" x="210" y="-43" font-family="Cascadia Code NF" font-size="10.00">RestoreExternalReference</text>
<text text-anchor="start" x="210" y="-30.25" font-family="Cascadia Code NF" font-size="10.00">Redirector()</text>
<text text-anchor="start" x="200" y="-14" font-family="Cascadia Code NF" font-size="10.00">#</text>
<text text-anchor="start" x="210" y="-14" font-family="Cascadia Code NF" font-size="10.00">CanBeDeferred()</text>
<polygon fill="#bfbfbf" stroke="#bfbfbf" points="196,-317.5 196,-317.5 400,-317.5 400,-317.5 196,-317.5"/>
<polygon fill="#bfbfbf" stroke="#bfbfbf" points="196,-115.5 196,-115.5 208,-115.5 208,-115.5 196,-115.5"/>
<polygon fill="#bfbfbf" stroke="#bfbfbf" points="208,-115.5 208,-115.5 400,-115.5 400,-115.5 208,-115.5"/>
<polygon fill="none" stroke="#bfbfbf" points="196,-7.5 196,-348.5 400,-348.5 400,-7.5 196,-7.5"/>
</a>
</g>
</g>
<!-- Node3&#45;&gt;Node2 -->
<g id="edge2_Node000002_Node000003" class="edge">
<title>Node3&#45;&gt;Node2</title>
<g id="a_edge2_Node000002_Node000003"><a xlink:title=" ">
<path fill="none" stroke="#63b8ff" d="M411.13,-178C419.5,-178 427.86,-178 436.03,-178"/>
<polygon fill="none" stroke="#63b8ff" points="411.25,-174.5 401.25,-178 411.25,-181.5 411.25,-174.5"/>
</a>
</g>
</g>
<!-- Node4 -->
<g id="Node000004" class="node">
<title>Node4</title>
<g id="a_Node000004"><a xlink:href="$de/d03/classv8_1_1internal_1_1RootVisitor.html" xlink:title=" ">
<polygon fill="white" stroke="none" points="160,-260 0,-260 0,-96 160,-96 160,-260"/>
<text text-anchor="start" x="5" y="-246.5" font-family="Cascadia Code NF" font-size="10.00">v8::internal::RootVisitor</text>
<text text-anchor="start" x="77" y="-230.5" font-family="Cascadia Code NF" font-size="10.00"> </text>
<text text-anchor="start" x="11" y="-214.5" font-family="Cascadia Code NF" font-size="10.00">+</text>
<text text-anchor="start" x="28" y="-214.5" font-family="Cascadia Code NF" font-size="10.00">~RootVisitor()</text>
<text text-anchor="start" x="11" y="-198.5" font-family="Cascadia Code NF" font-size="10.00">+</text>
<text text-anchor="start" x="28" y="-198.5" font-family="Cascadia Code NF" font-size="10.00">VisitRootPointers()</text>
<text text-anchor="start" x="11" y="-182.5" font-family="Cascadia Code NF" font-size="10.00">+</text>
<text text-anchor="start" x="28" y="-182.5" font-family="Cascadia Code NF" font-size="10.00">VisitRootPointer()</text>
<text text-anchor="start" x="11" y="-166.5" font-family="Cascadia Code NF" font-size="10.00">+</text>
<text text-anchor="start" x="28" y="-166.5" font-family="Cascadia Code NF" font-size="10.00">VisitRootPointers()</text>
<text text-anchor="start" x="11" y="-150.5" font-family="Cascadia Code NF" font-size="10.00">+</text>
<text text-anchor="start" x="28" y="-150.5" font-family="Cascadia Code NF" font-size="10.00">VisitRunningCode()</text>
<text text-anchor="start" x="11" y="-134.5" font-family="Cascadia Code NF" font-size="10.00">+</text>
<text text-anchor="start" x="28" y="-134.5" font-family="Cascadia Code NF" font-size="10.00">Synchronize()</text>
<text text-anchor="start" x="11" y="-118.5" font-family="Cascadia Code NF" font-size="10.00">+</text>
<text text-anchor="start" x="28" y="-118.5" font-family="Cascadia Code NF" font-size="10.00">collector()</text>
<text text-anchor="start" x="11" y="-102.5" font-family="Cascadia Code NF" font-size="10.00">+</text>
<text text-anchor="start" x="28" y="-102.5" font-family="Cascadia Code NF" font-size="10.00">RootName()</text>
<polygon fill="#bfbfbf" stroke="#bfbfbf" points="0,-242 0,-242 160,-242 160,-242 0,-242"/>
<polygon fill="#bfbfbf" stroke="#bfbfbf" points="0,-226 0,-226 160,-226 160,-226 0,-226"/>
<polygon fill="none" stroke="#bfbfbf" points="0,-96 0,-260 160,-260 160,-96 0,-96"/>
</a>
</g>
</g>
<!-- Node4&#45;&gt;Node3 -->
<g id="edge3_Node000003_Node000004" class="edge">
<title>Node4&#45;&gt;Node3</title>
<g id="a_edge3_Node000003_Node000004"><a xlink:title=" ">
<path fill="none" stroke="#63b8ff" d="M171.38,-178C179.58,-178 187.92,-178 196.21,-178"/>
<polygon fill="none" stroke="#63b8ff" points="171.41,-174.5 161.41,-178 171.41,-181.5 171.41,-174.5"/>
</a>
</g>
</g>
</g>
</svg>
