<?xml version="1.0" encoding="UTF-8" standalone="no"?>
<!DOCTYPE svg PUBLIC "-//W3C//DTD SVG 1.1//EN"
 "http://www.w3.org/Graphics/SVG/1.1/DTD/svg11.dtd">
<!-- Generated by graphviz version 11.0.0 (20240428.1522)
 -->
<!-- Title: v8::internal::debug_helper_internal::TqInternalClassWithStructElements Pages: 1 -->
<svg width="506pt" height="259pt"
 viewBox="0.00 0.00 506.00 259.00" xmlns="http://www.w3.org/2000/svg" xmlns:xlink="http://www.w3.org/1999/xlink">
<g id="graph0" class="graph" transform="scale(1 1) rotate(0) translate(4 255)">
<title>v8::internal::debug_helper_internal::TqInternalClassWithStructElements</title>
<!-- Node1 -->
<g id="Node000001" class="node">
<title>Node1</title>
<g id="a_Node000001"><a xlink:title=" ">
<polygon fill="#999999" stroke="none" points="498,-251 320,-251 320,0 498,0 498,-251"/>
<text text-anchor="start" x="325" y="-237.5" font-family="Cascadia Code NF" font-size="10.00">v8::internal::debug</text>
<text text-anchor="start" x="325" y="-224.75" font-family="Cascadia Code NF" font-size="10.00">_helper_internal::TqInternal</text>
<text text-anchor="start" x="340" y="-212" font-family="Cascadia Code NF" font-size="10.00">ClassWithStructElements</text>
<text text-anchor="start" x="406" y="-195.5" font-family="Cascadia Code NF" font-size="10.00"> </text>
<text text-anchor="start" x="326.5" y="-179.5" font-family="Cascadia Code NF" font-size="10.00">+</text>
<text text-anchor="start" x="339" y="-179.5" font-family="Cascadia Code NF" font-size="10.00">TqInternalClassWithStruct</text>
<text text-anchor="start" x="339" y="-166.75" font-family="Cascadia Code NF" font-size="10.00">Elements()</text>
<text text-anchor="start" x="326.5" y="-150.5" font-family="Cascadia Code NF" font-size="10.00">+</text>
<text text-anchor="start" x="339" y="-150.5" font-family="Cascadia Code NF" font-size="10.00">GetProperties()</text>
<text text-anchor="start" x="326.5" y="-134.5" font-family="Cascadia Code NF" font-size="10.00">+</text>
<text text-anchor="start" x="339" y="-134.5" font-family="Cascadia Code NF" font-size="10.00">GetName()</text>
<text text-anchor="start" x="326.5" y="-118.5" font-family="Cascadia Code NF" font-size="10.00">+</text>
<text text-anchor="start" x="339" y="-118.5" font-family="Cascadia Code NF" font-size="10.00">Visit()</text>
<text text-anchor="start" x="326.5" y="-102.5" font-family="Cascadia Code NF" font-size="10.00">+</text>
<text text-anchor="start" x="339" y="-102.5" font-family="Cascadia Code NF" font-size="10.00">IsSuperclassOf()</text>
<text text-anchor="start" x="326.5" y="-86.5" font-family="Cascadia Code NF" font-size="10.00">+</text>
<text text-anchor="start" x="339" y="-86.5" font-family="Cascadia Code NF" font-size="10.00">GetDummy1Address()</text>
<text text-anchor="start" x="326.5" y="-70.5" font-family="Cascadia Code NF" font-size="10.00">+</text>
<text text-anchor="start" x="339" y="-70.5" font-family="Cascadia Code NF" font-size="10.00">GetDummy1Value()</text>
<text text-anchor="start" x="326.5" y="-54.5" font-family="Cascadia Code NF" font-size="10.00">+</text>
<text text-anchor="start" x="339" y="-54.5" font-family="Cascadia Code NF" font-size="10.00">GetDummy2Address()</text>
<text text-anchor="start" x="326.5" y="-38.5" font-family="Cascadia Code NF" font-size="10.00">+</text>
<text text-anchor="start" x="339" y="-38.5" font-family="Cascadia Code NF" font-size="10.00">GetDummy2Value()</text>
<text text-anchor="start" x="326.5" y="-22.5" font-family="Cascadia Code NF" font-size="10.00">+</text>
<text text-anchor="start" x="339" y="-22.5" font-family="Cascadia Code NF" font-size="10.00">GetCountAddress()</text>
<text text-anchor="start" x="339" y="-6.5" font-family="Cascadia Code NF" font-size="10.00">and 7 more...</text>
<polygon fill="#666666" stroke="#666666" points="320,-207 320,-207 498,-207 498,-207 320,-207"/>
<polygon fill="#666666" stroke="#666666" points="320,-191 320,-191 498,-191 498,-191 320,-191"/>
<polygon fill="none" stroke="#666666" points="320,0 320,-251 498,-251 498,0 320,0"/>
</a>
</g>
</g>
<!-- Node2 -->
<g id="Node000002" class="node">
<title>Node2</title>
<g id="a_Node000002"><a xlink:href="../../db/deb/classv8_1_1internal_1_1debug__helper__internal_1_1TqHeapObject.html" target="_top" xlink:title=" ">
<polygon fill="white" stroke="none" points="284,-206 94,-206 94,-45 284,-45 284,-206"/>
<text text-anchor="start" x="99" y="-192.5" font-family="Cascadia Code NF" font-size="10.00">v8::internal::debug</text>
<text text-anchor="start" x="99" y="-179.75" font-family="Cascadia Code NF" font-size="10.00">_helper_internal::TqHeapObject</text>
<text text-anchor="start" x="186" y="-163.5" font-family="Cascadia Code NF" font-size="10.00"> </text>
<text text-anchor="start" x="117" y="-147.5" font-family="Cascadia Code NF" font-size="10.00">+</text>
<text text-anchor="start" x="146" y="-147.5" font-family="Cascadia Code NF" font-size="10.00">TqHeapObject()</text>
<text text-anchor="start" x="117" y="-131.5" font-family="Cascadia Code NF" font-size="10.00">+</text>
<text text-anchor="start" x="146" y="-131.5" font-family="Cascadia Code NF" font-size="10.00">GetProperties()</text>
<text text-anchor="start" x="117" y="-115.5" font-family="Cascadia Code NF" font-size="10.00">+</text>
<text text-anchor="start" x="146" y="-115.5" font-family="Cascadia Code NF" font-size="10.00">GetName()</text>
<text text-anchor="start" x="117" y="-99.5" font-family="Cascadia Code NF" font-size="10.00">+</text>
<text text-anchor="start" x="146" y="-99.5" font-family="Cascadia Code NF" font-size="10.00">Visit()</text>
<text text-anchor="start" x="117" y="-83.5" font-family="Cascadia Code NF" font-size="10.00">+</text>
<text text-anchor="start" x="146" y="-83.5" font-family="Cascadia Code NF" font-size="10.00">IsSuperclassOf()</text>
<text text-anchor="start" x="117" y="-67.5" font-family="Cascadia Code NF" font-size="10.00">+</text>
<text text-anchor="start" x="146" y="-67.5" font-family="Cascadia Code NF" font-size="10.00">GetMapAddress()</text>
<text text-anchor="start" x="117" y="-51.5" font-family="Cascadia Code NF" font-size="10.00">+</text>
<text text-anchor="start" x="146" y="-51.5" font-family="Cascadia Code NF" font-size="10.00">GetMapValue()</text>
<polygon fill="#bfbfbf" stroke="#bfbfbf" points="94,-175 94,-175 284,-175 284,-175 94,-175"/>
<polygon fill="#bfbfbf" stroke="#bfbfbf" points="94,-159 94,-159 284,-159 284,-159 94,-159"/>
<polygon fill="none" stroke="#bfbfbf" points="94,-45 94,-206 284,-206 284,-45 94,-45"/>
</a>
</g>
</g>
<!-- Node2&#45;&gt;Node1 -->
<g id="edge1_Node000001_Node000002" class="edge">
<title>Node2&#45;&gt;Node1</title>
<g id="a_edge1_Node000001_Node000002"><a xlink:title=" ">
<path fill="none" stroke="#63b8ff" d="M295.13,-125.5C303.53,-125.5 311.96,-125.5 320.22,-125.5"/>
<polygon fill="none" stroke="#63b8ff" points="295.23,-122 285.23,-125.5 295.23,-129 295.23,-122"/>
</a>
</g>
</g>
<!-- Node3 -->
<g id="Node000003" class="node">
<title>Node3</title>
<g id="a_Node000003"><a xlink:href="../../dd/d42/classTqObject.html" target="_top" xlink:title=" ">
<polygon fill="white" stroke="none" points="58,-151.5 0,-151.5 0,-99.5 58,-99.5 58,-151.5"/>
<text text-anchor="start" x="5" y="-138" font-family="Cascadia Code NF" font-size="10.00">TqObject</text>
<text text-anchor="start" x="26" y="-122" font-family="Cascadia Code NF" font-size="10.00"> </text>
<text text-anchor="start" x="26" y="-106" font-family="Cascadia Code NF" font-size="10.00"> </text>
<polygon fill="#bfbfbf" stroke="#bfbfbf" points="0,-133.5 0,-133.5 58,-133.5 58,-133.5 0,-133.5"/>
<polygon fill="#bfbfbf" stroke="#bfbfbf" points="0,-117.5 0,-117.5 58,-117.5 58,-117.5 0,-117.5"/>
<polygon fill="none" stroke="#bfbfbf" points="0,-99.5 0,-151.5 58,-151.5 58,-99.5 0,-99.5"/>
</a>
</g>
</g>
<!-- Node3&#45;&gt;Node2 -->
<g id="edge2_Node000002_Node000003" class="edge">
<title>Node3&#45;&gt;Node2</title>
<g id="a_edge2_Node000002_Node000003"><a xlink:title=" ">
<path fill="none" stroke="#63b8ff" d="M69.34,-125.5C77.03,-125.5 85.39,-125.5 94,-125.5"/>
<polygon fill="none" stroke="#63b8ff" points="69.4,-122 59.4,-125.5 69.4,-129 69.4,-122"/>
</a>
</g>
</g>
</g>
</svg>
