<?xml version="1.0" encoding="UTF-8" standalone="no"?>
<!DOCTYPE svg PUBLIC "-//W3C//DTD SVG 1.1//EN"
 "http://www.w3.org/Graphics/SVG/1.1/DTD/svg11.dtd">
<!-- Generated by graphviz version 11.0.0 (20240428.1522)
 -->
<!-- Title: v8::internal::JSSegmentDataObjectWithIsWordLike Pages: 1 -->
<svg width="734pt" height="250pt"
 viewBox="0.00 0.00 734.00 250.00" xmlns="http://www.w3.org/2000/svg" xmlns:xlink="http://www.w3.org/1999/xlink">
<g id="graph0" class="graph" transform="scale(1 1) rotate(0) translate(4 246)">
<title>v8::internal::JSSegmentDataObjectWithIsWordLike</title>
<!-- Node1 -->
<g id="Node000001" class="node">
<title>Node1</title>
<g id="a_Node000001"><a xlink:title=" ">
<polygon fill="#999999" stroke="none" points="726,-153.5 554,-153.5 554,-88.5 726,-88.5 726,-153.5"/>
<text text-anchor="start" x="559" y="-140" font-family="Cascadia Code NF" font-size="10.00">v8::internal::JSSegmentData</text>
<text text-anchor="start" x="580" y="-127.25" font-family="Cascadia Code NF" font-size="10.00">ObjectWithIsWordLike</text>
<text text-anchor="start" x="637" y="-111" font-family="Cascadia Code NF" font-size="10.00"> </text>
<text text-anchor="start" x="637" y="-95" font-family="Cascadia Code NF" font-size="10.00"> </text>
<polygon fill="#666666" stroke="#666666" points="554,-122.5 554,-122.5 726,-122.5 726,-122.5 554,-122.5"/>
<polygon fill="#666666" stroke="#666666" points="554,-106.5 554,-106.5 726,-106.5 726,-106.5 554,-106.5"/>
<polygon fill="none" stroke="#666666" points="554,-88.5 554,-153.5 726,-153.5 726,-88.5 554,-88.5"/>
</a>
</g>
</g>
<!-- Node2 -->
<g id="Node000002" class="node">
<title>Node2</title>
<g id="a_Node000002"><a xlink:href="$dd/dc6/classTorqueGeneratedJSSegmentDataObjectWithIsWordLike.html" xlink:title=" ">
<polygon fill="white" stroke="none" points="518,-242 322,-242 322,0 518,0 518,-242"/>
<text text-anchor="start" x="327" y="-228.5" font-family="Cascadia Code NF" font-size="10.00">TorqueGeneratedJSSegment</text>
<text text-anchor="start" x="327" y="-215.75" font-family="Cascadia Code NF" font-size="10.00">DataObjectWithIsWordLike</text>
<text text-anchor="start" x="327" y="-203" font-family="Cascadia Code NF" font-size="10.00">&lt; JSSegmentDataObjectWithIsWord</text>
<text text-anchor="start" x="339" y="-190.25" font-family="Cascadia Code NF" font-size="10.00">Like, JSSegmentDataObject &gt;</text>
<text text-anchor="start" x="417" y="-173.5" font-family="Cascadia Code NF" font-size="10.00"> </text>
<text text-anchor="start" x="331.5" y="-157.5" font-family="Cascadia Code NF" font-size="10.00">+</text>
<text text-anchor="start" x="347" y="-157.5" font-family="Cascadia Code NF" font-size="10.00">is_word_like()</text>
<text text-anchor="start" x="331.5" y="-141.5" font-family="Cascadia Code NF" font-size="10.00">+</text>
<text text-anchor="start" x="347" y="-141.5" font-family="Cascadia Code NF" font-size="10.00">is_word_like()</text>
<text text-anchor="start" x="331.5" y="-125.5" font-family="Cascadia Code NF" font-size="10.00">+</text>
<text text-anchor="start" x="347" y="-125.5" font-family="Cascadia Code NF" font-size="10.00">set_is_word_like()</text>
<text text-anchor="start" x="331.5" y="-109.5" font-family="Cascadia Code NF" font-size="10.00">+</text>
<text text-anchor="start" x="347" y="-109.5" font-family="Cascadia Code NF" font-size="10.00">TorqueGeneratedJSSegment</text>
<text text-anchor="start" x="347" y="-96.75" font-family="Cascadia Code NF" font-size="10.00">DataObjectWithIsWordLike()</text>
<text text-anchor="start" x="331.5" y="-80.5" font-family="Cascadia Code NF" font-size="10.00">+</text>
<text text-anchor="start" x="347" y="-80.5" font-family="Cascadia Code NF" font-size="10.00">cast()</text>
<text text-anchor="start" x="331.5" y="-64.5" font-family="Cascadia Code NF" font-size="10.00">+</text>
<text text-anchor="start" x="347" y="-64.5" font-family="Cascadia Code NF" font-size="10.00">unchecked_cast()</text>
<text text-anchor="start" x="331.5" y="-48.5" font-family="Cascadia Code NF" font-size="10.00">#</text>
<text text-anchor="start" x="347" y="-48.5" font-family="Cascadia Code NF" font-size="10.00">TorqueGeneratedJSSegment</text>
<text text-anchor="start" x="347" y="-35.75" font-family="Cascadia Code NF" font-size="10.00">DataObjectWithIsWordLike()</text>
<text text-anchor="start" x="331.5" y="-19.5" font-family="Cascadia Code NF" font-size="10.00">#</text>
<text text-anchor="start" x="347" y="-19.5" font-family="Cascadia Code NF" font-size="10.00">TorqueGeneratedJSSegment</text>
<text text-anchor="start" x="347" y="-6.75" font-family="Cascadia Code NF" font-size="10.00">DataObjectWithIsWordLike()</text>
<polygon fill="#bfbfbf" stroke="#bfbfbf" points="322,-185 322,-185 518,-185 518,-185 322,-185"/>
<polygon fill="#bfbfbf" stroke="#bfbfbf" points="322,-169 322,-169 518,-169 518,-169 322,-169"/>
<polygon fill="none" stroke="#bfbfbf" points="322,0 322,-242 518,-242 518,0 322,0"/>
</a>
</g>
</g>
<!-- Node2&#45;&gt;Node1 -->
<g id="edge1_Node000001_Node000002" class="edge">
<title>Node2&#45;&gt;Node1</title>
<g id="a_edge1_Node000001_Node000002"><a xlink:title=" ">
<path fill="none" stroke="#63b8ff" d="M529.23,-121C537.56,-121 545.9,-121 554.05,-121"/>
<polygon fill="none" stroke="#63b8ff" points="529.4,-117.5 519.4,-121 529.4,-124.5 529.4,-117.5"/>
</a>
</g>
</g>
<!-- Node3 -->
<g id="Node000003" class="node">
<title>Node3</title>
<g id="a_Node000003"><a xlink:title=" ">
<polygon fill="white" stroke="none" points="124,-203 0,-203 0,-151 124,-151 124,-203"/>
<text text-anchor="start" x="5" y="-189.5" font-family="Cascadia Code NF" font-size="10.00">JSSegmentDataObject</text>
<text text-anchor="start" x="59" y="-173.5" font-family="Cascadia Code NF" font-size="10.00"> </text>
<text text-anchor="start" x="59" y="-157.5" font-family="Cascadia Code NF" font-size="10.00"> </text>
<polygon fill="#bfbfbf" stroke="#bfbfbf" points="0,-185 0,-185 124,-185 124,-185 0,-185"/>
<polygon fill="#bfbfbf" stroke="#bfbfbf" points="0,-169 0,-169 124,-169 124,-169 0,-169"/>
<polygon fill="none" stroke="#bfbfbf" points="0,-151 0,-203 124,-203 124,-151 0,-151"/>
</a>
</g>
</g>
<!-- Node3&#45;&gt;Node2 -->
<g id="edge2_Node000002_Node000003" class="edge">
<title>Node3&#45;&gt;Node2</title>
<g id="a_edge2_Node000002_Node000003"><a xlink:title=" ">
<path fill="none" stroke="#63b8ff" d="M135.13,-174.12C183.29,-171.29 247.84,-165.76 304,-155 309.93,-153.86 315.99,-152.55 322.08,-151.11"/>
<polygon fill="none" stroke="#63b8ff" points="135.18,-170.61 125.39,-174.67 135.57,-177.6 135.18,-170.61"/>
</a>
</g>
</g>
<!-- Node4 -->
<g id="Node000004" class="node">
<title>Node4</title>
<g id="a_Node000004"><a xlink:href="$d1/da0/classint.html" xlink:title=" ">
<polygon fill="white" stroke="none" points="76,-91 48,-91 48,-39 76,-39 76,-91"/>
<text text-anchor="start" x="53" y="-77.5" font-family="Cascadia Code NF" font-size="10.00">int</text>
<text text-anchor="start" x="59" y="-61.5" font-family="Cascadia Code NF" font-size="10.00"> </text>
<text text-anchor="start" x="59" y="-45.5" font-family="Cascadia Code NF" font-size="10.00"> </text>
<polygon fill="#bfbfbf" stroke="#bfbfbf" points="48,-73 48,-73 76,-73 76,-73 48,-73"/>
<polygon fill="#bfbfbf" stroke="#bfbfbf" points="48,-57 48,-57 76,-57 76,-57 48,-57"/>
<polygon fill="none" stroke="#bfbfbf" points="48,-39 48,-91 76,-91 76,-39 48,-39"/>
</a>
</g>
</g>
<!-- Node4&#45;&gt;Node2 -->
<g id="edge3_Node000002_Node000004" class="edge">
<title>Node4&#45;&gt;Node2</title>
<g id="a_edge3_Node000002_Node000004"><a xlink:title=" ">
<path fill="none" stroke="#63b8ff" d="M75.79,-62.63C112.16,-56.35 219.01,-41.14 304,-61.75 305.88,-62.2 307.76,-62.7 309.64,-63.22"/>
<polygon fill="none" stroke="#63b8ff" points="309.74,-63.25 316.66,-61.24 321.18,-66.86 314.26,-68.87 309.74,-63.25"/>
</a>
</g>
<text text-anchor="middle" x="223" y="-141.75" font-family="Cascadia Code NF" font-size="10.00" fill="grey"> +kEndOfStrongFieldsOffset</text>
<text text-anchor="middle" x="223" y="-129" font-family="Cascadia Code NF" font-size="10.00" fill="grey">+kEndOfWeakFieldsOffset</text>
<text text-anchor="middle" x="223" y="-116.25" font-family="Cascadia Code NF" font-size="10.00" fill="grey">+kHeaderSize</text>
<text text-anchor="middle" x="223" y="-103.5" font-family="Cascadia Code NF" font-size="10.00" fill="grey">+kIsWordLikeOffset</text>
<text text-anchor="middle" x="223" y="-90.75" font-family="Cascadia Code NF" font-size="10.00" fill="grey">+kIsWordLikeOffsetEnd</text>
<text text-anchor="middle" x="223" y="-78" font-family="Cascadia Code NF" font-size="10.00" fill="grey">+kStartOfStrongFieldsOffset</text>
<text text-anchor="middle" x="223" y="-65.25" font-family="Cascadia Code NF" font-size="10.00" fill="grey">+kStartOfWeakFieldsOffset</text>
</g>
</g>
</svg>
