<?xml version="1.0" encoding="UTF-8" standalone="no"?>
<!DOCTYPE svg PUBLIC "-//W3C//DTD SVG 1.1//EN"
 "http://www.w3.org/Graphics/SVG/1.1/DTD/svg11.dtd">
<!-- Generated by graphviz version 11.0.0 (20240428.1522)
 -->
<!-- Title: v8::internal::DeclarationScope Pages: 1 -->
<svg width="582pt" height="291pt"
 viewBox="0.00 0.00 582.00 291.00" xmlns="http://www.w3.org/2000/svg" xmlns:xlink="http://www.w3.org/1999/xlink">
<g id="graph0" class="graph" transform="scale(1 1) rotate(0) translate(4 287)">
<title>v8::internal::DeclarationScope</title>
<!-- Node1 -->
<g id="Node000001" class="node">
<title>Node1</title>
<g id="a_Node000001"><a xlink:title=" ">
<polygon fill="#999999" stroke="none" points="574,-283 400,-283 400,0 574,0 574,-283"/>
<text text-anchor="start" x="412" y="-269.5" font-family="Cascadia Code NF" font-size="10.00">v8::internal::Declaration</text>
<text text-anchor="start" x="472" y="-256.75" font-family="Cascadia Code NF" font-size="10.00">Scope</text>
<text text-anchor="start" x="484" y="-240.5" font-family="Cascadia Code NF" font-size="10.00"> </text>
<text text-anchor="start" x="404" y="-224.5" font-family="Cascadia Code NF" font-size="10.00">+</text>
<text text-anchor="start" x="414" y="-224.5" font-family="Cascadia Code NF" font-size="10.00">DeclarationScope()</text>
<text text-anchor="start" x="404" y="-208.5" font-family="Cascadia Code NF" font-size="10.00">+</text>
<text text-anchor="start" x="414" y="-208.5" font-family="Cascadia Code NF" font-size="10.00">DeclarationScope()</text>
<text text-anchor="start" x="404" y="-192.5" font-family="Cascadia Code NF" font-size="10.00">+</text>
<text text-anchor="start" x="414" y="-192.5" font-family="Cascadia Code NF" font-size="10.00">DeclarationScope()</text>
<text text-anchor="start" x="404" y="-176.5" font-family="Cascadia Code NF" font-size="10.00">+</text>
<text text-anchor="start" x="414" y="-176.5" font-family="Cascadia Code NF" font-size="10.00">function_kind()</text>
<text text-anchor="start" x="404" y="-160.5" font-family="Cascadia Code NF" font-size="10.00">+</text>
<text text-anchor="start" x="414" y="-160.5" font-family="Cascadia Code NF" font-size="10.00">RecordSuperPropertyUsage()</text>
<text text-anchor="start" x="404" y="-144.5" font-family="Cascadia Code NF" font-size="10.00">+</text>
<text text-anchor="start" x="414" y="-144.5" font-family="Cascadia Code NF" font-size="10.00">uses_super_property()</text>
<text text-anchor="start" x="404" y="-128.5" font-family="Cascadia Code NF" font-size="10.00">+</text>
<text text-anchor="start" x="414" y="-128.5" font-family="Cascadia Code NF" font-size="10.00">is_arrow_scope()</text>
<text text-anchor="start" x="404" y="-112.5" font-family="Cascadia Code NF" font-size="10.00">+</text>
<text text-anchor="start" x="414" y="-112.5" font-family="Cascadia Code NF" font-size="10.00">RecordDeclarationScopeEval</text>
<text text-anchor="start" x="414" y="-99.75" font-family="Cascadia Code NF" font-size="10.00">Call()</text>
<text text-anchor="start" x="404" y="-83.5" font-family="Cascadia Code NF" font-size="10.00">+</text>
<text text-anchor="start" x="414" y="-83.5" font-family="Cascadia Code NF" font-size="10.00">sloppy_eval_can_extend</text>
<text text-anchor="start" x="414" y="-70.75" font-family="Cascadia Code NF" font-size="10.00">_vars()</text>
<text text-anchor="start" x="404" y="-54.5" font-family="Cascadia Code NF" font-size="10.00">+</text>
<text text-anchor="start" x="414" y="-54.5" font-family="Cascadia Code NF" font-size="10.00">was_lazily_parsed()</text>
<text text-anchor="start" x="414" y="-38.5" font-family="Cascadia Code NF" font-size="10.00">and 59 more...</text>
<text text-anchor="start" x="404" y="-22.5" font-family="Cascadia Code NF" font-size="10.00">+</text>
<text text-anchor="start" x="414" y="-22.5" font-family="Cascadia Code NF" font-size="10.00">Analyze()</text>
<text text-anchor="start" x="404" y="-6.5" font-family="Cascadia Code NF" font-size="10.00">+</text>
<text text-anchor="start" x="414" y="-6.5" font-family="Cascadia Code NF" font-size="10.00">AllocateScopeInfos()</text>
<polygon fill="#666666" stroke="#666666" points="400,-252 400,-252 574,-252 574,-252 400,-252"/>
<polygon fill="#666666" stroke="#666666" points="400,-236 400,-236 574,-236 574,-236 400,-236"/>
<polygon fill="none" stroke="#666666" points="400,0 400,-283 574,-283 574,0 400,0"/>
</a>
</g>
</g>
<!-- Node2 -->
<g id="Node000002" class="node">
<title>Node2</title>
<g id="a_Node000002"><a xlink:href="$db/db4/classv8_1_1internal_1_1Scope.html" xlink:title=" ">
<polygon fill="white" stroke="none" points="364,-279.5 208,-279.5 208,-3.5 364,-3.5 364,-279.5"/>
<text text-anchor="start" x="229" y="-266" font-family="Cascadia Code NF" font-size="10.00">v8::internal::Scope</text>
<text text-anchor="start" x="283" y="-250" font-family="Cascadia Code NF" font-size="10.00"> </text>
<text text-anchor="start" x="212" y="-234" font-family="Cascadia Code NF" font-size="10.00">+</text>
<text text-anchor="start" x="222" y="-234" font-family="Cascadia Code NF" font-size="10.00">Scope()</text>
<text text-anchor="start" x="212" y="-218" font-family="Cascadia Code NF" font-size="10.00">+</text>
<text text-anchor="start" x="222" y="-218" font-family="Cascadia Code NF" font-size="10.00">AsDeclarationScope()</text>
<text text-anchor="start" x="212" y="-202" font-family="Cascadia Code NF" font-size="10.00">+</text>
<text text-anchor="start" x="222" y="-202" font-family="Cascadia Code NF" font-size="10.00">AsDeclarationScope()</text>
<text text-anchor="start" x="212" y="-186" font-family="Cascadia Code NF" font-size="10.00">+</text>
<text text-anchor="start" x="222" y="-186" font-family="Cascadia Code NF" font-size="10.00">AsModuleScope()</text>
<text text-anchor="start" x="212" y="-170" font-family="Cascadia Code NF" font-size="10.00">+</text>
<text text-anchor="start" x="222" y="-170" font-family="Cascadia Code NF" font-size="10.00">AsModuleScope()</text>
<text text-anchor="start" x="212" y="-154" font-family="Cascadia Code NF" font-size="10.00">+</text>
<text text-anchor="start" x="222" y="-154" font-family="Cascadia Code NF" font-size="10.00">AsClassScope()</text>
<text text-anchor="start" x="212" y="-138" font-family="Cascadia Code NF" font-size="10.00">+</text>
<text text-anchor="start" x="222" y="-138" font-family="Cascadia Code NF" font-size="10.00">AsClassScope()</text>
<text text-anchor="start" x="212" y="-122" font-family="Cascadia Code NF" font-size="10.00">+</text>
<text text-anchor="start" x="222" y="-122" font-family="Cascadia Code NF" font-size="10.00">FinalizeBlockScope()</text>
<text text-anchor="start" x="212" y="-106" font-family="Cascadia Code NF" font-size="10.00">+</text>
<text text-anchor="start" x="222" y="-106" font-family="Cascadia Code NF" font-size="10.00">ReplaceOuterScope()</text>
<text text-anchor="start" x="212" y="-90" font-family="Cascadia Code NF" font-size="10.00">+</text>
<text text-anchor="start" x="222" y="-90" font-family="Cascadia Code NF" font-size="10.00">zone()</text>
<text text-anchor="start" x="222" y="-74" font-family="Cascadia Code NF" font-size="10.00">and 92 more...</text>
<text text-anchor="start" x="212" y="-58" font-family="Cascadia Code NF" font-size="10.00">+</text>
<text text-anchor="start" x="222" y="-58" font-family="Cascadia Code NF" font-size="10.00">DeserializeScopeChain()</text>
<text text-anchor="start" x="212" y="-42" font-family="Cascadia Code NF" font-size="10.00">+</text>
<text text-anchor="start" x="222" y="-42" font-family="Cascadia Code NF" font-size="10.00">SetScriptScopeInfo()</text>
<text text-anchor="start" x="212" y="-26" font-family="Cascadia Code NF" font-size="10.00">#</text>
<text text-anchor="start" x="222" y="-26" font-family="Cascadia Code NF" font-size="10.00">Scope()</text>
<text text-anchor="start" x="212" y="-10" font-family="Cascadia Code NF" font-size="10.00">#</text>
<text text-anchor="start" x="222" y="-10" font-family="Cascadia Code NF" font-size="10.00">set_language_mode()</text>
<polygon fill="#bfbfbf" stroke="#bfbfbf" points="208,-261.5 208,-261.5 364,-261.5 364,-261.5 208,-261.5"/>
<polygon fill="#bfbfbf" stroke="#bfbfbf" points="208,-245.5 208,-245.5 364,-245.5 364,-245.5 208,-245.5"/>
<polygon fill="none" stroke="#bfbfbf" points="208,-3.5 208,-279.5 364,-279.5 364,-3.5 208,-3.5"/>
</a>
</g>
</g>
<!-- Node2&#45;&gt;Node1 -->
<g id="edge1_Node000001_Node000002" class="edge">
<title>Node2&#45;&gt;Node1</title>
<g id="a_edge1_Node000001_Node000002"><a xlink:title=" ">
<path fill="none" stroke="#63b8ff" d="M375.4,-141.5C383.58,-141.5 391.85,-141.5 400,-141.5"/>
<polygon fill="none" stroke="#63b8ff" points="375.45,-138 365.45,-141.5 375.45,-145 375.45,-138"/>
</a>
</g>
</g>
<!-- Node3 -->
<g id="Node000003" class="node">
<title>Node3</title>
<g id="a_Node000003"><a xlink:href="$d2/dca/classNON__EXPORTED__BASEZoneObject.html" xlink:title=" ">
<polygon fill="white" stroke="none" points="172,-167.5 0,-167.5 0,-115.5 172,-115.5 172,-167.5"/>
<text text-anchor="start" x="5" y="-154" font-family="Cascadia Code NF" font-size="10.00">NON_EXPORTED_BASEZoneObject</text>
<text text-anchor="start" x="83" y="-138" font-family="Cascadia Code NF" font-size="10.00"> </text>
<text text-anchor="start" x="83" y="-122" font-family="Cascadia Code NF" font-size="10.00"> </text>
<polygon fill="#bfbfbf" stroke="#bfbfbf" points="0,-149.5 0,-149.5 172,-149.5 172,-149.5 0,-149.5"/>
<polygon fill="#bfbfbf" stroke="#bfbfbf" points="0,-133.5 0,-133.5 172,-133.5 172,-133.5 0,-133.5"/>
<polygon fill="none" stroke="#bfbfbf" points="0,-115.5 0,-167.5 172,-167.5 172,-115.5 0,-115.5"/>
</a>
</g>
</g>
<!-- Node3&#45;&gt;Node2 -->
<g id="edge2_Node000002_Node000003" class="edge">
<title>Node3&#45;&gt;Node2</title>
<g id="a_edge2_Node000002_Node000003"><a xlink:title=" ">
<path fill="none" stroke="#63b8ff" d="M183.21,-141.5C191.58,-141.5 199.98,-141.5 208.17,-141.5"/>
<polygon fill="none" stroke="#63b8ff" points="183.35,-138 173.35,-141.5 183.34,-145 183.35,-138"/>
</a>
</g>
</g>
</g>
</svg>
