<?xml version="1.0" encoding="UTF-8" standalone="no"?>
<!DOCTYPE svg PUBLIC "-//W3C//DTD SVG 1.1//EN"
 "http://www.w3.org/Graphics/SVG/1.1/DTD/svg11.dtd">
<!-- Generated by graphviz version 11.0.0 (20240428.1522)
 -->
<!-- Title: v8::internal::ro::EncodedTagged Pages: 1 -->
<svg width="322pt" height="120pt"
 viewBox="0.00 0.00 322.00 120.25" xmlns="http://www.w3.org/2000/svg" xmlns:xlink="http://www.w3.org/1999/xlink">
<g id="graph0" class="graph" transform="scale(1 1) rotate(0) translate(4 116.25)">
<title>v8::internal::ro::EncodedTagged</title>
<!-- Node1 -->
<g id="Node000001" class="node">
<title>Node1</title>
<g id="a_Node000001"><a xlink:title=" ">
<polygon fill="#999999" stroke="none" points="314,-97 154,-97 154,0 314,0 314,-97"/>
<text text-anchor="start" x="159" y="-83.5" font-family="Cascadia Code NF" font-size="10.00">v8::internal::ro::Encoded</text>
<text text-anchor="start" x="216" y="-70.75" font-family="Cascadia Code NF" font-size="10.00">Tagged</text>
<text text-anchor="start" x="231" y="-54.5" font-family="Cascadia Code NF" font-size="10.00"> </text>
<text text-anchor="start" x="174" y="-38.5" font-family="Cascadia Code NF" font-size="10.00">+</text>
<text text-anchor="start" x="200" y="-38.5" font-family="Cascadia Code NF" font-size="10.00">ToUint32()</text>
<text text-anchor="start" x="174" y="-22.5" font-family="Cascadia Code NF" font-size="10.00">+</text>
<text text-anchor="start" x="200" y="-22.5" font-family="Cascadia Code NF" font-size="10.00">FromUint32()</text>
<text text-anchor="start" x="174" y="-6.5" font-family="Cascadia Code NF" font-size="10.00">+</text>
<text text-anchor="start" x="200" y="-6.5" font-family="Cascadia Code NF" font-size="10.00">FromAddress()</text>
<polygon fill="#666666" stroke="#666666" points="154,-66 154,-66 314,-66 314,-66 154,-66"/>
<polygon fill="#666666" stroke="#666666" points="154,-50 154,-50 314,-50 314,-50 154,-50"/>
<polygon fill="none" stroke="#666666" points="154,0 154,-97 314,-97 314,0 154,0"/>
</a>
</g>
</g>
<!-- Node2 -->
<g id="Node000002" class="node">
<title>Node2</title>
<g id="a_Node000002"><a xlink:href="../../d1/da0/classint.html" target="_top" xlink:title=" ">
<polygon fill="white" stroke="none" points="28,-74.5 0,-74.5 0,-22.5 28,-22.5 28,-74.5"/>
<text text-anchor="start" x="5" y="-61" font-family="Cascadia Code NF" font-size="10.00">int</text>
<text text-anchor="start" x="11" y="-45" font-family="Cascadia Code NF" font-size="10.00"> </text>
<text text-anchor="start" x="11" y="-29" font-family="Cascadia Code NF" font-size="10.00"> </text>
<polygon fill="#bfbfbf" stroke="#bfbfbf" points="0,-56.5 0,-56.5 28,-56.5 28,-56.5 0,-56.5"/>
<polygon fill="#bfbfbf" stroke="#bfbfbf" points="0,-40.5 0,-40.5 28,-40.5 28,-40.5 0,-40.5"/>
<polygon fill="none" stroke="#bfbfbf" points="0,-22.5 0,-74.5 28,-74.5 28,-22.5 0,-22.5"/>
</a>
</g>
</g>
<!-- Node2&#45;&gt;Node1 -->
<g id="edge1_Node000001_Node000002" class="edge">
<title>Node2&#45;&gt;Node1</title>
<g id="a_edge1_Node000001_Node000002"><a xlink:title=" ">
<path fill="none" stroke="#63b8ff" d="M27.98,-48.5C50.3,-48.5 97.75,-48.5 141.39,-48.5"/>
<polygon fill="none" stroke="#63b8ff" points="141.27,-48.5 147.27,-44.5 153.27,-48.5 147.27,-52.5 141.27,-48.5"/>
</a>
</g>
<text text-anchor="middle" x="91" y="-102.75" font-family="Cascadia Code NF" font-size="10.00" fill="grey"> +kOffsetBits</text>
<text text-anchor="middle" x="91" y="-90" font-family="Cascadia Code NF" font-size="10.00" fill="grey">+kPageIndexBits</text>
<text text-anchor="middle" x="91" y="-77.25" font-family="Cascadia Code NF" font-size="10.00" fill="grey">+kSize</text>
<text text-anchor="middle" x="91" y="-64.5" font-family="Cascadia Code NF" font-size="10.00" fill="grey">+offset</text>
<text text-anchor="middle" x="91" y="-51.75" font-family="Cascadia Code NF" font-size="10.00" fill="grey">+page_index</text>
</g>
</g>
</svg>
