<?xml version="1.0" encoding="UTF-8" standalone="no"?>
<!DOCTYPE svg PUBLIC "-//W3C//DTD SVG 1.1//EN"
 "http://www.w3.org/Graphics/SVG/1.1/DTD/svg11.dtd">
<!-- Generated by graphviz version 11.0.0 (20240428.1522)
 -->
<!-- Title: v8::internal::StringSetShape Pages: 1 -->
<svg width="496pt" height="144pt"
 viewBox="0.00 0.00 496.00 143.50" xmlns="http://www.w3.org/2000/svg" xmlns:xlink="http://www.w3.org/1999/xlink">
<g id="graph0" class="graph" transform="scale(1 1) rotate(0) translate(4 139.5)">
<title>v8::internal::StringSetShape</title>
<!-- Node1 -->
<g id="Node000001" class="node">
<title>Node1</title>
<g id="a_Node000001"><a xlink:title=" ">
<polygon fill="#999999" stroke="none" points="488,-106 310,-106 310,-22 488,-22 488,-106"/>
<text text-anchor="start" x="315" y="-92.5" font-family="Cascadia Code NF" font-size="10.00">v8::internal::StringSetShape</text>
<text text-anchor="start" x="396" y="-76.5" font-family="Cascadia Code NF" font-size="10.00"> </text>
<text text-anchor="start" x="331.5" y="-60.5" font-family="Cascadia Code NF" font-size="10.00">+</text>
<text text-anchor="start" x="359" y="-60.5" font-family="Cascadia Code NF" font-size="10.00">IsMatch()</text>
<text text-anchor="start" x="331.5" y="-44.5" font-family="Cascadia Code NF" font-size="10.00">+</text>
<text text-anchor="start" x="359" y="-44.5" font-family="Cascadia Code NF" font-size="10.00">Hash()</text>
<text text-anchor="start" x="331.5" y="-28.5" font-family="Cascadia Code NF" font-size="10.00">+</text>
<text text-anchor="start" x="359" y="-28.5" font-family="Cascadia Code NF" font-size="10.00">HashForObject()</text>
<polygon fill="#666666" stroke="#666666" points="310,-88 310,-88 488,-88 488,-88 310,-88"/>
<polygon fill="#666666" stroke="#666666" points="310,-72 310,-72 488,-72 488,-72 310,-72"/>
<polygon fill="none" stroke="#666666" points="310,-22 310,-106 488,-106 488,-22 310,-22"/>
</a>
</g>
</g>
<!-- Node2 -->
<g id="Node000002" class="node">
<title>Node2</title>
<g id="a_Node000002"><a xlink:href="$de/dd8/classv8_1_1internal_1_1BaseShape.html" xlink:title=" ">
<polygon fill="white" stroke="none" points="148,-135.5 0,-135.5 0,-70.5 148,-70.5 148,-135.5"/>
<text text-anchor="start" x="5" y="-122" font-family="Cascadia Code NF" font-size="10.00">v8::internal::BaseShape</text>
<text text-anchor="start" x="14" y="-109.25" font-family="Cascadia Code NF" font-size="10.00">&lt; Tagged&lt; String &gt; &gt;</text>
<text text-anchor="start" x="71" y="-93" font-family="Cascadia Code NF" font-size="10.00"> </text>
<text text-anchor="start" x="24.5" y="-77" font-family="Cascadia Code NF" font-size="10.00">+</text>
<text text-anchor="start" x="55" y="-77" font-family="Cascadia Code NF" font-size="10.00">Unwrap()</text>
<polygon fill="#bfbfbf" stroke="#bfbfbf" points="0,-104.5 0,-104.5 148,-104.5 148,-104.5 0,-104.5"/>
<polygon fill="#bfbfbf" stroke="#bfbfbf" points="0,-88.5 0,-88.5 148,-88.5 148,-88.5 0,-88.5"/>
<polygon fill="none" stroke="#bfbfbf" points="0,-70.5 0,-135.5 148,-135.5 148,-70.5 0,-70.5"/>
</a>
</g>
</g>
<!-- Node2&#45;&gt;Node1 -->
<g id="edge1_Node000001_Node000002" class="edge">
<title>Node2&#45;&gt;Node1</title>
<g id="a_edge1_Node000001_Node000002"><a xlink:title=" ">
<path fill="none" stroke="#63b8ff" d="M159.33,-95.6C199.56,-91.77 248.34,-86.71 292,-81 297.91,-80.23 304.01,-79.38 310.14,-78.49"/>
<polygon fill="none" stroke="#63b8ff" points="159.09,-92.1 149.46,-96.53 159.74,-99.07 159.09,-92.1"/>
</a>
</g>
</g>
<!-- Node3 -->
<g id="Node000003" class="node">
<title>Node3</title>
<g id="a_Node000003"><a xlink:title=" ">
<polygon fill="white" stroke="none" points="94,-52 54,-52 54,0 94,0 94,-52"/>
<text text-anchor="start" x="59" y="-38.5" font-family="Cascadia Code NF" font-size="10.00">const</text>
<text text-anchor="start" x="71" y="-22.5" font-family="Cascadia Code NF" font-size="10.00"> </text>
<text text-anchor="start" x="71" y="-6.5" font-family="Cascadia Code NF" font-size="10.00"> </text>
<polygon fill="#bfbfbf" stroke="#bfbfbf" points="54,-34 54,-34 94,-34 94,-34 54,-34"/>
<polygon fill="#bfbfbf" stroke="#bfbfbf" points="54,-18 54,-18 94,-18 94,-18 54,-18"/>
<polygon fill="none" stroke="#bfbfbf" points="54,0 54,-52 94,-52 94,0 54,0"/>
</a>
</g>
</g>
<!-- Node3&#45;&gt;Node1 -->
<g id="edge2_Node000001_Node000003" class="edge">
<title>Node3&#45;&gt;Node1</title>
<g id="a_edge2_Node000001_Node000003"><a xlink:title=" ">
<path fill="none" stroke="#63b8ff" d="M93.95,-26.69C131.76,-28.24 219.2,-32.68 292,-42.75 293.77,-42.99 295.55,-43.25 297.34,-43.52"/>
<polygon fill="none" stroke="#63b8ff" points="297.48,-43.54 304.03,-40.52 309.33,-45.41 302.78,-48.43 297.48,-43.54"/>
</a>
</g>
<text text-anchor="middle" x="229" y="-70.75" font-family="Cascadia Code NF" font-size="10.00" fill="grey"> +kEntrySize</text>
<text text-anchor="middle" x="229" y="-58" font-family="Cascadia Code NF" font-size="10.00" fill="grey">+kMatchNeedsHoleCheck</text>
<text text-anchor="middle" x="229" y="-45.25" font-family="Cascadia Code NF" font-size="10.00" fill="grey">+kPrefixSize</text>
</g>
</g>
</svg>
