<?xml version="1.0" encoding="UTF-8" standalone="no"?>
<!DOCTYPE svg PUBLIC "-//W3C//DTD SVG 1.1//EN"
 "http://www.w3.org/Graphics/SVG/1.1/DTD/svg11.dtd">
<!-- Generated by graphviz version 11.0.0 (20240428.1522)
 -->
<!-- Title: v8::internal::compiler::EscapeAnalysis Pages: 1 -->
<svg width="364pt" height="89pt"
 viewBox="0.00 0.00 364.00 89.00" xmlns="http://www.w3.org/2000/svg" xmlns:xlink="http://www.w3.org/1999/xlink">
<g id="graph0" class="graph" transform="scale(1 1) rotate(0) translate(4 85)">
<title>v8::internal::compiler::EscapeAnalysis</title>
<!-- Node1 -->
<g id="Node000001" class="node">
<title>Node1</title>
<g id="a_Node000001"><a xlink:title=" ">
<polygon fill="#999999" stroke="none" points="356,-81 214,-81 214,0 356,0 356,-81"/>
<text text-anchor="start" x="219" y="-67.5" font-family="Cascadia Code NF" font-size="10.00">v8::internal::compiler</text>
<text text-anchor="start" x="237" y="-54.75" font-family="Cascadia Code NF" font-size="10.00">::EscapeAnalysis</text>
<text text-anchor="start" x="282" y="-38.5" font-family="Cascadia Code NF" font-size="10.00"> </text>
<text text-anchor="start" x="223.5" y="-22.5" font-family="Cascadia Code NF" font-size="10.00">+</text>
<text text-anchor="start" x="239" y="-22.5" font-family="Cascadia Code NF" font-size="10.00">EscapeAnalysis()</text>
<text text-anchor="start" x="223.5" y="-6.5" font-family="Cascadia Code NF" font-size="10.00">+</text>
<text text-anchor="start" x="239" y="-6.5" font-family="Cascadia Code NF" font-size="10.00">analysis_result()</text>
<polygon fill="#666666" stroke="#666666" points="214,-50 214,-50 356,-50 356,-50 214,-50"/>
<polygon fill="#666666" stroke="#666666" points="214,-34 214,-34 356,-34 356,-34 214,-34"/>
<polygon fill="none" stroke="#666666" points="214,0 214,-81 356,-81 356,0 214,0"/>
</a>
</g>
</g>
<!-- Node2 -->
<g id="Node000002" class="node">
<title>Node2</title>
<g id="a_Node000002"><a xlink:href="$d9/d27/classNON__EXPORTED__BASEEffectGraphReducer.html" xlink:title=" ">
<polygon fill="white" stroke="none" points="178,-73 0,-73 0,-8 178,-8 178,-73"/>
<text text-anchor="start" x="5" y="-59.5" font-family="Cascadia Code NF" font-size="10.00">NON_EXPORTED_BASEEffectGraph</text>
<text text-anchor="start" x="68" y="-46.75" font-family="Cascadia Code NF" font-size="10.00">Reducer</text>
<text text-anchor="start" x="86" y="-30.5" font-family="Cascadia Code NF" font-size="10.00"> </text>
<text text-anchor="start" x="86" y="-14.5" font-family="Cascadia Code NF" font-size="10.00"> </text>
<polygon fill="#bfbfbf" stroke="#bfbfbf" points="0,-42 0,-42 178,-42 178,-42 0,-42"/>
<polygon fill="#bfbfbf" stroke="#bfbfbf" points="0,-26 0,-26 178,-26 178,-26 0,-26"/>
<polygon fill="none" stroke="#bfbfbf" points="0,-8 0,-73 178,-73 178,-8 0,-8"/>
</a>
</g>
</g>
<!-- Node2&#45;&gt;Node1 -->
<g id="edge1_Node000001_Node000002" class="edge">
<title>Node2&#45;&gt;Node1</title>
<g id="a_edge1_Node000001_Node000002"><a xlink:title=" ">
<path fill="none" stroke="#63b8ff" d="M189.32,-40.5C197.69,-40.5 206.04,-40.5 214.12,-40.5"/>
<polygon fill="none" stroke="#63b8ff" points="189.43,-37 179.43,-40.5 189.43,-44 189.43,-37"/>
</a>
</g>
</g>
</g>
</svg>
