<?xml version="1.0" encoding="UTF-8" standalone="no"?>
<!DOCTYPE svg PUBLIC "-//W3C//DTD SVG 1.1//EN"
 "http://www.w3.org/Graphics/SVG/1.1/DTD/svg11.dtd">
<!-- Generated by graphviz version 11.0.0 (20240428.1522)
 -->
<!-- Title: v8::internal::debug_helper_internal::TqOddball Pages: 1 -->
<svg width="1136pt" height="504pt"
 viewBox="0.00 0.00 1136.00 504.00" xmlns="http://www.w3.org/2000/svg" xmlns:xlink="http://www.w3.org/1999/xlink">
<g id="graph0" class="graph" transform="scale(1 1) rotate(0) translate(4 500)">
<title>v8::internal::debug_helper_internal::TqOddball</title>
<!-- Node1 -->
<g id="Node000001" class="node">
<title>Node1</title>
<g id="a_Node000001"><a xlink:title=" ">
<polygon fill="#999999" stroke="none" points="712,-356 540,-356 540,-67 712,-67 712,-356"/>
<text text-anchor="start" x="545" y="-342.5" font-family="Cascadia Code NF" font-size="10.00">v8::internal::debug</text>
<text text-anchor="start" x="545" y="-329.75" font-family="Cascadia Code NF" font-size="10.00">_helper_internal::TqOddball</text>
<text text-anchor="start" x="623" y="-313.5" font-family="Cascadia Code NF" font-size="10.00"> </text>
<text text-anchor="start" x="548" y="-297.5" font-family="Cascadia Code NF" font-size="10.00">+</text>
<text text-anchor="start" x="562" y="-297.5" font-family="Cascadia Code NF" font-size="10.00">TqOddball()</text>
<text text-anchor="start" x="548" y="-281.5" font-family="Cascadia Code NF" font-size="10.00">+</text>
<text text-anchor="start" x="562" y="-281.5" font-family="Cascadia Code NF" font-size="10.00">GetProperties()</text>
<text text-anchor="start" x="548" y="-265.5" font-family="Cascadia Code NF" font-size="10.00">+</text>
<text text-anchor="start" x="562" y="-265.5" font-family="Cascadia Code NF" font-size="10.00">GetName()</text>
<text text-anchor="start" x="548" y="-249.5" font-family="Cascadia Code NF" font-size="10.00">+</text>
<text text-anchor="start" x="562" y="-249.5" font-family="Cascadia Code NF" font-size="10.00">Visit()</text>
<text text-anchor="start" x="548" y="-233.5" font-family="Cascadia Code NF" font-size="10.00">+</text>
<text text-anchor="start" x="562" y="-233.5" font-family="Cascadia Code NF" font-size="10.00">IsSuperclassOf()</text>
<text text-anchor="start" x="548" y="-217.5" font-family="Cascadia Code NF" font-size="10.00">+</text>
<text text-anchor="start" x="562" y="-217.5" font-family="Cascadia Code NF" font-size="10.00">GetToNumberRawAddress()</text>
<text text-anchor="start" x="548" y="-201.5" font-family="Cascadia Code NF" font-size="10.00">+</text>
<text text-anchor="start" x="562" y="-201.5" font-family="Cascadia Code NF" font-size="10.00">GetToNumberRawValue()</text>
<text text-anchor="start" x="548" y="-185.5" font-family="Cascadia Code NF" font-size="10.00">+</text>
<text text-anchor="start" x="562" y="-185.5" font-family="Cascadia Code NF" font-size="10.00">GetToStringAddress()</text>
<text text-anchor="start" x="548" y="-169.5" font-family="Cascadia Code NF" font-size="10.00">+</text>
<text text-anchor="start" x="562" y="-169.5" font-family="Cascadia Code NF" font-size="10.00">GetToStringValue()</text>
<text text-anchor="start" x="548" y="-153.5" font-family="Cascadia Code NF" font-size="10.00">+</text>
<text text-anchor="start" x="562" y="-153.5" font-family="Cascadia Code NF" font-size="10.00">GetToNumberAddress()</text>
<text text-anchor="start" x="548" y="-137.5" font-family="Cascadia Code NF" font-size="10.00">+</text>
<text text-anchor="start" x="562" y="-137.5" font-family="Cascadia Code NF" font-size="10.00">GetToNumberValue()</text>
<text text-anchor="start" x="548" y="-121.5" font-family="Cascadia Code NF" font-size="10.00">+</text>
<text text-anchor="start" x="562" y="-121.5" font-family="Cascadia Code NF" font-size="10.00">GetTypeOfAddress()</text>
<text text-anchor="start" x="548" y="-105.5" font-family="Cascadia Code NF" font-size="10.00">+</text>
<text text-anchor="start" x="562" y="-105.5" font-family="Cascadia Code NF" font-size="10.00">GetTypeOfValue()</text>
<text text-anchor="start" x="548" y="-89.5" font-family="Cascadia Code NF" font-size="10.00">+</text>
<text text-anchor="start" x="562" y="-89.5" font-family="Cascadia Code NF" font-size="10.00">GetKindAddress()</text>
<text text-anchor="start" x="548" y="-73.5" font-family="Cascadia Code NF" font-size="10.00">+</text>
<text text-anchor="start" x="562" y="-73.5" font-family="Cascadia Code NF" font-size="10.00">GetKindValue()</text>
<polygon fill="#666666" stroke="#666666" points="540,-325 540,-325 712,-325 712,-325 540,-325"/>
<polygon fill="#666666" stroke="#666666" points="540,-309 540,-309 712,-309 712,-309 540,-309"/>
<polygon fill="none" stroke="#666666" points="540,-67 540,-356 712,-356 712,-67 540,-67"/>
</a>
</g>
</g>
<!-- Node5 -->
<g id="Node000005" class="node">
<title>Node5</title>
<g id="a_Node000005"><a xlink:href="$d5/d11/classv8_1_1internal_1_1debug__helper__internal_1_1TqBoolean.html" xlink:title=" ">
<polygon fill="white" stroke="none" points="926,-423 754,-423 754,-294 926,-294 926,-423"/>
<text text-anchor="start" x="759" y="-409.5" font-family="Cascadia Code NF" font-size="10.00">v8::internal::debug</text>
<text text-anchor="start" x="759" y="-396.75" font-family="Cascadia Code NF" font-size="10.00">_helper_internal::TqBoolean</text>
<text text-anchor="start" x="837" y="-380.5" font-family="Cascadia Code NF" font-size="10.00"> </text>
<text text-anchor="start" x="772.5" y="-364.5" font-family="Cascadia Code NF" font-size="10.00">+</text>
<text text-anchor="start" x="797" y="-364.5" font-family="Cascadia Code NF" font-size="10.00">TqBoolean()</text>
<text text-anchor="start" x="772.5" y="-348.5" font-family="Cascadia Code NF" font-size="10.00">+</text>
<text text-anchor="start" x="797" y="-348.5" font-family="Cascadia Code NF" font-size="10.00">GetProperties()</text>
<text text-anchor="start" x="772.5" y="-332.5" font-family="Cascadia Code NF" font-size="10.00">+</text>
<text text-anchor="start" x="797" y="-332.5" font-family="Cascadia Code NF" font-size="10.00">GetName()</text>
<text text-anchor="start" x="772.5" y="-316.5" font-family="Cascadia Code NF" font-size="10.00">+</text>
<text text-anchor="start" x="797" y="-316.5" font-family="Cascadia Code NF" font-size="10.00">Visit()</text>
<text text-anchor="start" x="772.5" y="-300.5" font-family="Cascadia Code NF" font-size="10.00">+</text>
<text text-anchor="start" x="797" y="-300.5" font-family="Cascadia Code NF" font-size="10.00">IsSuperclassOf()</text>
<polygon fill="#bfbfbf" stroke="#bfbfbf" points="754,-392 754,-392 926,-392 926,-392 754,-392"/>
<polygon fill="#bfbfbf" stroke="#bfbfbf" points="754,-376 754,-376 926,-376 926,-376 754,-376"/>
<polygon fill="none" stroke="#bfbfbf" points="754,-294 754,-423 926,-423 926,-294 754,-294"/>
</a>
</g>
</g>
<!-- Node1&#45;&gt;Node5 -->
<g id="edge4_Node000001_Node000005" class="edge">
<title>Node1&#45;&gt;Node5</title>
<g id="a_edge4_Node000001_Node000005"><a xlink:title=" ">
<path fill="none" stroke="#63b8ff" d="M720.92,-276.63C731.96,-284.28 743.18,-292.06 754.09,-299.62"/>
<polygon fill="none" stroke="#63b8ff" points="723.16,-273.92 712.95,-271.09 719.17,-279.67 723.16,-273.92"/>
</a>
</g>
</g>
<!-- Node8 -->
<g id="Node000008" class="node">
<title>Node8</title>
<g id="a_Node000008"><a xlink:href="$de/d4c/classv8_1_1internal_1_1debug__helper__internal_1_1TqNull.html" xlink:title=" ">
<polygon fill="white" stroke="none" points="917,-276 763,-276 763,-147 917,-147 917,-276"/>
<text text-anchor="start" x="768" y="-262.5" font-family="Cascadia Code NF" font-size="10.00">v8::internal::debug</text>
<text text-anchor="start" x="768" y="-249.75" font-family="Cascadia Code NF" font-size="10.00">_helper_internal::TqNull</text>
<text text-anchor="start" x="837" y="-233.5" font-family="Cascadia Code NF" font-size="10.00"> </text>
<text text-anchor="start" x="777" y="-217.5" font-family="Cascadia Code NF" font-size="10.00">+</text>
<text text-anchor="start" x="797" y="-217.5" font-family="Cascadia Code NF" font-size="10.00">TqNull()</text>
<text text-anchor="start" x="777" y="-201.5" font-family="Cascadia Code NF" font-size="10.00">+</text>
<text text-anchor="start" x="797" y="-201.5" font-family="Cascadia Code NF" font-size="10.00">GetProperties()</text>
<text text-anchor="start" x="777" y="-185.5" font-family="Cascadia Code NF" font-size="10.00">+</text>
<text text-anchor="start" x="797" y="-185.5" font-family="Cascadia Code NF" font-size="10.00">GetName()</text>
<text text-anchor="start" x="777" y="-169.5" font-family="Cascadia Code NF" font-size="10.00">+</text>
<text text-anchor="start" x="797" y="-169.5" font-family="Cascadia Code NF" font-size="10.00">Visit()</text>
<text text-anchor="start" x="777" y="-153.5" font-family="Cascadia Code NF" font-size="10.00">+</text>
<text text-anchor="start" x="797" y="-153.5" font-family="Cascadia Code NF" font-size="10.00">IsSuperclassOf()</text>
<polygon fill="#bfbfbf" stroke="#bfbfbf" points="763,-245 763,-245 917,-245 917,-245 763,-245"/>
<polygon fill="#bfbfbf" stroke="#bfbfbf" points="763,-229 763,-229 917,-229 917,-229 763,-229"/>
<polygon fill="none" stroke="#bfbfbf" points="763,-147 763,-276 917,-276 917,-147 763,-147"/>
</a>
</g>
</g>
<!-- Node1&#45;&gt;Node8 -->
<g id="edge7_Node000001_Node000008" class="edge">
<title>Node1&#45;&gt;Node8</title>
<g id="a_edge7_Node000001_Node000008"><a xlink:title=" ">
<path fill="none" stroke="#63b8ff" d="M722.92,-211.5C736.35,-211.5 750.01,-211.5 763.01,-211.5"/>
<polygon fill="none" stroke="#63b8ff" points="723.22,-208 713.22,-211.5 723.22,-215 723.22,-208"/>
</a>
</g>
</g>
<!-- Node9 -->
<g id="Node000009" class="node">
<title>Node9</title>
<g id="a_Node000009"><a xlink:href="$d3/d94/classv8_1_1internal_1_1debug__helper__internal_1_1TqUndefined.html" xlink:title=" ">
<polygon fill="white" stroke="none" points="932,-129 748,-129 748,0 932,0 932,-129"/>
<text text-anchor="start" x="753" y="-115.5" font-family="Cascadia Code NF" font-size="10.00">v8::internal::debug</text>
<text text-anchor="start" x="753" y="-102.75" font-family="Cascadia Code NF" font-size="10.00">_helper_internal::TqUndefined</text>
<text text-anchor="start" x="837" y="-86.5" font-family="Cascadia Code NF" font-size="10.00"> </text>
<text text-anchor="start" x="769.5" y="-70.5" font-family="Cascadia Code NF" font-size="10.00">+</text>
<text text-anchor="start" x="797" y="-70.5" font-family="Cascadia Code NF" font-size="10.00">TqUndefined()</text>
<text text-anchor="start" x="769.5" y="-54.5" font-family="Cascadia Code NF" font-size="10.00">+</text>
<text text-anchor="start" x="797" y="-54.5" font-family="Cascadia Code NF" font-size="10.00">GetProperties()</text>
<text text-anchor="start" x="769.5" y="-38.5" font-family="Cascadia Code NF" font-size="10.00">+</text>
<text text-anchor="start" x="797" y="-38.5" font-family="Cascadia Code NF" font-size="10.00">GetName()</text>
<text text-anchor="start" x="769.5" y="-22.5" font-family="Cascadia Code NF" font-size="10.00">+</text>
<text text-anchor="start" x="797" y="-22.5" font-family="Cascadia Code NF" font-size="10.00">Visit()</text>
<text text-anchor="start" x="769.5" y="-6.5" font-family="Cascadia Code NF" font-size="10.00">+</text>
<text text-anchor="start" x="797" y="-6.5" font-family="Cascadia Code NF" font-size="10.00">IsSuperclassOf()</text>
<polygon fill="#bfbfbf" stroke="#bfbfbf" points="748,-98 748,-98 932,-98 932,-98 748,-98"/>
<polygon fill="#bfbfbf" stroke="#bfbfbf" points="748,-82 748,-82 932,-82 932,-82 748,-82"/>
<polygon fill="none" stroke="#bfbfbf" points="748,0 748,-129 932,-129 932,0 748,0"/>
</a>
</g>
</g>
<!-- Node1&#45;&gt;Node9 -->
<g id="edge8_Node000001_Node000009" class="edge">
<title>Node1&#45;&gt;Node9</title>
<g id="a_edge8_Node000001_Node000009"><a xlink:title=" ">
<path fill="none" stroke="#63b8ff" d="M721.04,-146.29C730.06,-140.04 739.19,-133.71 748.18,-127.48"/>
<polygon fill="none" stroke="#63b8ff" points="719.17,-143.33 712.95,-151.91 723.16,-149.08 719.17,-143.33"/>
</a>
</g>
</g>
<!-- Node2 -->
<g id="Node000002" class="node">
<title>Node2</title>
<g id="a_Node000002"><a xlink:href="$d6/d47/classv8_1_1internal_1_1debug__helper__internal_1_1TqPrimitiveHeapObject.html" xlink:title=" ">
<polygon fill="white" stroke="none" points="504,-282.5 320,-282.5 320,-140.5 504,-140.5 504,-282.5"/>
<text text-anchor="start" x="325" y="-269" font-family="Cascadia Code NF" font-size="10.00">v8::internal::debug</text>
<text text-anchor="start" x="325" y="-256.25" font-family="Cascadia Code NF" font-size="10.00">_helper_internal::TqPrimitive</text>
<text text-anchor="start" x="382" y="-243.5" font-family="Cascadia Code NF" font-size="10.00">HeapObject</text>
<text text-anchor="start" x="409" y="-227" font-family="Cascadia Code NF" font-size="10.00"> </text>
<text text-anchor="start" x="331" y="-211" font-family="Cascadia Code NF" font-size="10.00">+</text>
<text text-anchor="start" x="348" y="-211" font-family="Cascadia Code NF" font-size="10.00">TqPrimitiveHeapObject()</text>
<text text-anchor="start" x="331" y="-195" font-family="Cascadia Code NF" font-size="10.00">+</text>
<text text-anchor="start" x="348" y="-195" font-family="Cascadia Code NF" font-size="10.00">GetProperties()</text>
<text text-anchor="start" x="331" y="-179" font-family="Cascadia Code NF" font-size="10.00">+</text>
<text text-anchor="start" x="348" y="-179" font-family="Cascadia Code NF" font-size="10.00">GetName()</text>
<text text-anchor="start" x="331" y="-163" font-family="Cascadia Code NF" font-size="10.00">+</text>
<text text-anchor="start" x="348" y="-163" font-family="Cascadia Code NF" font-size="10.00">Visit()</text>
<text text-anchor="start" x="331" y="-147" font-family="Cascadia Code NF" font-size="10.00">+</text>
<text text-anchor="start" x="348" y="-147" font-family="Cascadia Code NF" font-size="10.00">IsSuperclassOf()</text>
<polygon fill="#bfbfbf" stroke="#bfbfbf" points="320,-238.5 320,-238.5 504,-238.5 504,-238.5 320,-238.5"/>
<polygon fill="#bfbfbf" stroke="#bfbfbf" points="320,-222.5 320,-222.5 504,-222.5 504,-222.5 320,-222.5"/>
<polygon fill="none" stroke="#bfbfbf" points="320,-140.5 320,-282.5 504,-282.5 504,-140.5 320,-140.5"/>
</a>
</g>
</g>
<!-- Node2&#45;&gt;Node1 -->
<g id="edge1_Node000001_Node000002" class="edge">
<title>Node2&#45;&gt;Node1</title>
<g id="a_edge1_Node000001_Node000002"><a xlink:title=" ">
<path fill="none" stroke="#63b8ff" d="M515.16,-211.5C523.5,-211.5 531.87,-211.5 540.07,-211.5"/>
<polygon fill="none" stroke="#63b8ff" points="515.34,-208 505.34,-211.5 515.34,-215 515.34,-208"/>
</a>
</g>
</g>
<!-- Node3 -->
<g id="Node000003" class="node">
<title>Node3</title>
<g id="a_Node000003"><a xlink:href="$db/deb/classv8_1_1internal_1_1debug__helper__internal_1_1TqHeapObject.html" xlink:title=" ">
<polygon fill="white" stroke="none" points="284,-292 94,-292 94,-131 284,-131 284,-292"/>
<text text-anchor="start" x="99" y="-278.5" font-family="Cascadia Code NF" font-size="10.00">v8::internal::debug</text>
<text text-anchor="start" x="99" y="-265.75" font-family="Cascadia Code NF" font-size="10.00">_helper_internal::TqHeapObject</text>
<text text-anchor="start" x="186" y="-249.5" font-family="Cascadia Code NF" font-size="10.00"> </text>
<text text-anchor="start" x="117" y="-233.5" font-family="Cascadia Code NF" font-size="10.00">+</text>
<text text-anchor="start" x="146" y="-233.5" font-family="Cascadia Code NF" font-size="10.00">TqHeapObject()</text>
<text text-anchor="start" x="117" y="-217.5" font-family="Cascadia Code NF" font-size="10.00">+</text>
<text text-anchor="start" x="146" y="-217.5" font-family="Cascadia Code NF" font-size="10.00">GetProperties()</text>
<text text-anchor="start" x="117" y="-201.5" font-family="Cascadia Code NF" font-size="10.00">+</text>
<text text-anchor="start" x="146" y="-201.5" font-family="Cascadia Code NF" font-size="10.00">GetName()</text>
<text text-anchor="start" x="117" y="-185.5" font-family="Cascadia Code NF" font-size="10.00">+</text>
<text text-anchor="start" x="146" y="-185.5" font-family="Cascadia Code NF" font-size="10.00">Visit()</text>
<text text-anchor="start" x="117" y="-169.5" font-family="Cascadia Code NF" font-size="10.00">+</text>
<text text-anchor="start" x="146" y="-169.5" font-family="Cascadia Code NF" font-size="10.00">IsSuperclassOf()</text>
<text text-anchor="start" x="117" y="-153.5" font-family="Cascadia Code NF" font-size="10.00">+</text>
<text text-anchor="start" x="146" y="-153.5" font-family="Cascadia Code NF" font-size="10.00">GetMapAddress()</text>
<text text-anchor="start" x="117" y="-137.5" font-family="Cascadia Code NF" font-size="10.00">+</text>
<text text-anchor="start" x="146" y="-137.5" font-family="Cascadia Code NF" font-size="10.00">GetMapValue()</text>
<polygon fill="#bfbfbf" stroke="#bfbfbf" points="94,-261 94,-261 284,-261 284,-261 94,-261"/>
<polygon fill="#bfbfbf" stroke="#bfbfbf" points="94,-245 94,-245 284,-245 284,-245 94,-245"/>
<polygon fill="none" stroke="#bfbfbf" points="94,-131 94,-292 284,-292 284,-131 94,-131"/>
</a>
</g>
</g>
<!-- Node3&#45;&gt;Node2 -->
<g id="edge2_Node000002_Node000003" class="edge">
<title>Node3&#45;&gt;Node2</title>
<g id="a_edge2_Node000002_Node000003"><a xlink:title=" ">
<path fill="none" stroke="#63b8ff" d="M295.15,-211.5C303.55,-211.5 312.01,-211.5 320.3,-211.5"/>
<polygon fill="none" stroke="#63b8ff" points="295.24,-208 285.24,-211.5 295.24,-215 295.24,-208"/>
</a>
</g>
</g>
<!-- Node4 -->
<g id="Node000004" class="node">
<title>Node4</title>
<g id="a_Node000004"><a xlink:href="$dd/d42/classTqObject.html" xlink:title=" ">
<polygon fill="white" stroke="none" points="58,-237.5 0,-237.5 0,-185.5 58,-185.5 58,-237.5"/>
<text text-anchor="start" x="5" y="-224" font-family="Cascadia Code NF" font-size="10.00">TqObject</text>
<text text-anchor="start" x="26" y="-208" font-family="Cascadia Code NF" font-size="10.00"> </text>
<text text-anchor="start" x="26" y="-192" font-family="Cascadia Code NF" font-size="10.00"> </text>
<polygon fill="#bfbfbf" stroke="#bfbfbf" points="0,-219.5 0,-219.5 58,-219.5 58,-219.5 0,-219.5"/>
<polygon fill="#bfbfbf" stroke="#bfbfbf" points="0,-203.5 0,-203.5 58,-203.5 58,-203.5 0,-203.5"/>
<polygon fill="none" stroke="#bfbfbf" points="0,-185.5 0,-237.5 58,-237.5 58,-185.5 0,-185.5"/>
</a>
</g>
</g>
<!-- Node4&#45;&gt;Node3 -->
<g id="edge3_Node000003_Node000004" class="edge">
<title>Node4&#45;&gt;Node3</title>
<g id="a_edge3_Node000003_Node000004"><a xlink:title=" ">
<path fill="none" stroke="#63b8ff" d="M69.34,-211.5C77.03,-211.5 85.39,-211.5 94,-211.5"/>
<polygon fill="none" stroke="#63b8ff" points="69.4,-208 59.4,-211.5 69.4,-215 69.4,-208"/>
</a>
</g>
</g>
<!-- Node6 -->
<g id="Node000006" class="node">
<title>Node6</title>
<g id="a_Node000006"><a xlink:href="$d9/d6f/classv8_1_1internal_1_1debug__helper__internal_1_1TqFalse.html" xlink:title=" ">
<polygon fill="white" stroke="none" points="1128,-496 968,-496 968,-367 1128,-367 1128,-496"/>
<text text-anchor="start" x="973" y="-482.5" font-family="Cascadia Code NF" font-size="10.00">v8::internal::debug</text>
<text text-anchor="start" x="973" y="-469.75" font-family="Cascadia Code NF" font-size="10.00">_helper_internal::TqFalse</text>
<text text-anchor="start" x="1045" y="-453.5" font-family="Cascadia Code NF" font-size="10.00"> </text>
<text text-anchor="start" x="983.5" y="-437.5" font-family="Cascadia Code NF" font-size="10.00">+</text>
<text text-anchor="start" x="1005" y="-437.5" font-family="Cascadia Code NF" font-size="10.00">TqFalse()</text>
<text text-anchor="start" x="983.5" y="-421.5" font-family="Cascadia Code NF" font-size="10.00">+</text>
<text text-anchor="start" x="1005" y="-421.5" font-family="Cascadia Code NF" font-size="10.00">GetProperties()</text>
<text text-anchor="start" x="983.5" y="-405.5" font-family="Cascadia Code NF" font-size="10.00">+</text>
<text text-anchor="start" x="1005" y="-405.5" font-family="Cascadia Code NF" font-size="10.00">GetName()</text>
<text text-anchor="start" x="983.5" y="-389.5" font-family="Cascadia Code NF" font-size="10.00">+</text>
<text text-anchor="start" x="1005" y="-389.5" font-family="Cascadia Code NF" font-size="10.00">Visit()</text>
<text text-anchor="start" x="983.5" y="-373.5" font-family="Cascadia Code NF" font-size="10.00">+</text>
<text text-anchor="start" x="1005" y="-373.5" font-family="Cascadia Code NF" font-size="10.00">IsSuperclassOf()</text>
<polygon fill="#bfbfbf" stroke="#bfbfbf" points="968,-465 968,-465 1128,-465 1128,-465 968,-465"/>
<polygon fill="#bfbfbf" stroke="#bfbfbf" points="968,-449 968,-449 1128,-449 1128,-449 968,-449"/>
<polygon fill="none" stroke="#bfbfbf" points="968,-367 968,-496 1128,-496 1128,-367 968,-367"/>
</a>
</g>
</g>
<!-- Node5&#45;&gt;Node6 -->
<g id="edge5_Node000005_Node000006" class="edge">
<title>Node5&#45;&gt;Node6</title>
<g id="a_edge5_Node000005_Node000006"><a xlink:title=" ">
<path fill="none" stroke="#63b8ff" d="M936.52,-392.35C947.11,-396.1 957.81,-399.9 968.17,-403.56"/>
<polygon fill="none" stroke="#63b8ff" points="938,-389.16 927.4,-389.12 935.66,-395.76 938,-389.16"/>
</a>
</g>
</g>
<!-- Node7 -->
<g id="Node000007" class="node">
<title>Node7</title>
<g id="a_Node000007"><a xlink:href="$d9/dc0/classv8_1_1internal_1_1debug__helper__internal_1_1TqTrue.html" xlink:title=" ">
<polygon fill="white" stroke="none" points="1125,-349 971,-349 971,-220 1125,-220 1125,-349"/>
<text text-anchor="start" x="976" y="-335.5" font-family="Cascadia Code NF" font-size="10.00">v8::internal::debug</text>
<text text-anchor="start" x="976" y="-322.75" font-family="Cascadia Code NF" font-size="10.00">_helper_internal::TqTrue</text>
<text text-anchor="start" x="1045" y="-306.5" font-family="Cascadia Code NF" font-size="10.00"> </text>
<text text-anchor="start" x="985" y="-290.5" font-family="Cascadia Code NF" font-size="10.00">+</text>
<text text-anchor="start" x="1005" y="-290.5" font-family="Cascadia Code NF" font-size="10.00">TqTrue()</text>
<text text-anchor="start" x="985" y="-274.5" font-family="Cascadia Code NF" font-size="10.00">+</text>
<text text-anchor="start" x="1005" y="-274.5" font-family="Cascadia Code NF" font-size="10.00">GetProperties()</text>
<text text-anchor="start" x="985" y="-258.5" font-family="Cascadia Code NF" font-size="10.00">+</text>
<text text-anchor="start" x="1005" y="-258.5" font-family="Cascadia Code NF" font-size="10.00">GetName()</text>
<text text-anchor="start" x="985" y="-242.5" font-family="Cascadia Code NF" font-size="10.00">+</text>
<text text-anchor="start" x="1005" y="-242.5" font-family="Cascadia Code NF" font-size="10.00">Visit()</text>
<text text-anchor="start" x="985" y="-226.5" font-family="Cascadia Code NF" font-size="10.00">+</text>
<text text-anchor="start" x="1005" y="-226.5" font-family="Cascadia Code NF" font-size="10.00">IsSuperclassOf()</text>
<polygon fill="#bfbfbf" stroke="#bfbfbf" points="971,-318 971,-318 1125,-318 1125,-318 971,-318"/>
<polygon fill="#bfbfbf" stroke="#bfbfbf" points="971,-302 971,-302 1125,-302 1125,-302 971,-302"/>
<polygon fill="none" stroke="#bfbfbf" points="971,-220 971,-349 1125,-349 1125,-220 971,-220"/>
</a>
</g>
</g>
<!-- Node5&#45;&gt;Node7 -->
<g id="edge6_Node000005_Node000007" class="edge">
<title>Node5&#45;&gt;Node7</title>
<g id="a_edge6_Node000005_Node000007"><a xlink:title=" ">
<path fill="none" stroke="#63b8ff" d="M936.57,-324.17C948.15,-320.01 959.87,-315.8 971.12,-311.76"/>
<polygon fill="none" stroke="#63b8ff" points="935.63,-320.79 927.4,-327.46 938,-327.38 935.63,-320.79"/>
</a>
</g>
</g>
</g>
</svg>
