<?xml version="1.0" encoding="UTF-8" standalone="no"?>
<!DOCTYPE svg PUBLIC "-//W3C//DTD SVG 1.1//EN"
 "http://www.w3.org/Graphics/SVG/1.1/DTD/svg11.dtd">
<!-- Generated by graphviz version 11.0.0 (20240428.1522)
 -->
<!-- Title: v8::internal::torque::Stack&lt; T &gt; Pages: 1 -->
<svg width="138pt" height="233pt"
 viewBox="0.00 0.00 138.00 233.00" xmlns="http://www.w3.org/2000/svg" xmlns:xlink="http://www.w3.org/1999/xlink">
<g id="graph0" class="graph" transform="scale(1 1) rotate(0) translate(4 229)">
<title>v8::internal::torque::Stack&lt; T &gt;</title>
<!-- Node1 -->
<g id="Node000001" class="node">
<title>Node1</title>
<g id="a_Node000001"><a xlink:title=" ">
<polygon fill="#999999" stroke="none" points="130,-225 0,-225 0,0 130,0 130,-225"/>
<text text-anchor="start" x="5" y="-211.5" font-family="Cascadia Code NF" font-size="10.00">v8::internal::torque</text>
<text text-anchor="start" x="29" y="-198.75" font-family="Cascadia Code NF" font-size="10.00">::Stack&lt; T &gt;</text>
<text text-anchor="start" x="62" y="-182.5" font-family="Cascadia Code NF" font-size="10.00"> </text>
<text text-anchor="start" x="11" y="-166.5" font-family="Cascadia Code NF" font-size="10.00">+</text>
<text text-anchor="start" x="28" y="-166.5" font-family="Cascadia Code NF" font-size="10.00">Stack()</text>
<text text-anchor="start" x="11" y="-150.5" font-family="Cascadia Code NF" font-size="10.00">+</text>
<text text-anchor="start" x="28" y="-150.5" font-family="Cascadia Code NF" font-size="10.00">Stack()</text>
<text text-anchor="start" x="11" y="-134.5" font-family="Cascadia Code NF" font-size="10.00">+</text>
<text text-anchor="start" x="28" y="-134.5" font-family="Cascadia Code NF" font-size="10.00">Stack()</text>
<text text-anchor="start" x="11" y="-118.5" font-family="Cascadia Code NF" font-size="10.00">+</text>
<text text-anchor="start" x="28" y="-118.5" font-family="Cascadia Code NF" font-size="10.00">Size()</text>
<text text-anchor="start" x="11" y="-102.5" font-family="Cascadia Code NF" font-size="10.00">+</text>
<text text-anchor="start" x="28" y="-102.5" font-family="Cascadia Code NF" font-size="10.00">Peek()</text>
<text text-anchor="start" x="11" y="-86.5" font-family="Cascadia Code NF" font-size="10.00">+</text>
<text text-anchor="start" x="28" y="-86.5" font-family="Cascadia Code NF" font-size="10.00">Poke()</text>
<text text-anchor="start" x="11" y="-70.5" font-family="Cascadia Code NF" font-size="10.00">+</text>
<text text-anchor="start" x="28" y="-70.5" font-family="Cascadia Code NF" font-size="10.00">Push()</text>
<text text-anchor="start" x="11" y="-54.5" font-family="Cascadia Code NF" font-size="10.00">+</text>
<text text-anchor="start" x="28" y="-54.5" font-family="Cascadia Code NF" font-size="10.00">TopRange()</text>
<text text-anchor="start" x="11" y="-38.5" font-family="Cascadia Code NF" font-size="10.00">+</text>
<text text-anchor="start" x="28" y="-38.5" font-family="Cascadia Code NF" font-size="10.00">PushMany()</text>
<text text-anchor="start" x="11" y="-22.5" font-family="Cascadia Code NF" font-size="10.00">+</text>
<text text-anchor="start" x="28" y="-22.5" font-family="Cascadia Code NF" font-size="10.00">Top()</text>
<text text-anchor="start" x="28" y="-6.5" font-family="Cascadia Code NF" font-size="10.00">and 10 more...</text>
<polygon fill="#666666" stroke="#666666" points="0,-194 0,-194 130,-194 130,-194 0,-194"/>
<polygon fill="#666666" stroke="#666666" points="0,-178 0,-178 130,-178 130,-178 0,-178"/>
<polygon fill="none" stroke="#666666" points="0,0 0,-225 130,-225 130,0 0,0"/>
</a>
</g>
</g>
</g>
</svg>
