<?xml version="1.0" encoding="UTF-8" standalone="no"?>
<!DOCTYPE svg PUBLIC "-//W3C//DTD SVG 1.1//EN"
 "http://www.w3.org/Graphics/SVG/1.1/DTD/svg11.dtd">
<!-- Generated by graphviz version 11.0.0 (20240428.1522)
 -->
<!-- Title: TurboshaftWord64SetType::BodyDescriptor Pages: 1 -->
<svg width="334pt" height="73pt"
 viewBox="0.00 0.00 334.00 73.00" xmlns="http://www.w3.org/2000/svg" xmlns:xlink="http://www.w3.org/1999/xlink">
<g id="graph0" class="graph" transform="scale(1 1) rotate(0) translate(4 69)">
<title>TurboshaftWord64SetType::BodyDescriptor</title>
<!-- Node1 -->
<g id="Node000001" class="node">
<title>Node1</title>
<g id="a_Node000001"><a xlink:title=" ">
<polygon fill="#999999" stroke="none" points="326,-65 178,-65 178,0 326,0 326,-65"/>
<text text-anchor="start" x="183" y="-51.5" font-family="Cascadia Code NF" font-size="10.00">TurboshaftWord64SetType</text>
<text text-anchor="start" x="204" y="-38.75" font-family="Cascadia Code NF" font-size="10.00">::BodyDescriptor</text>
<text text-anchor="start" x="249" y="-22.5" font-family="Cascadia Code NF" font-size="10.00"> </text>
<text text-anchor="start" x="202.5" y="-6.5" font-family="Cascadia Code NF" font-size="10.00">+</text>
<text text-anchor="start" x="233" y="-6.5" font-family="Cascadia Code NF" font-size="10.00">SizeOf()</text>
<polygon fill="#666666" stroke="#666666" points="178,-34 178,-34 326,-34 326,-34 178,-34"/>
<polygon fill="#666666" stroke="#666666" points="178,-18 178,-18 326,-18 326,-18 178,-18"/>
<polygon fill="none" stroke="#666666" points="178,0 178,-65 326,-65 326,0 178,0"/>
</a>
</g>
</g>
<!-- Node2 -->
<g id="Node000002" class="node">
<title>Node2</title>
<g id="a_Node000002"><a xlink:href="../../df/d39/classDataOnlyBodyDescriptor.html" target="_top" xlink:title=" ">
<polygon fill="white" stroke="none" points="142,-58.5 0,-58.5 0,-6.5 142,-6.5 142,-58.5"/>
<text text-anchor="start" x="5" y="-45" font-family="Cascadia Code NF" font-size="10.00">DataOnlyBodyDescriptor</text>
<text text-anchor="start" x="68" y="-29" font-family="Cascadia Code NF" font-size="10.00"> </text>
<text text-anchor="start" x="68" y="-13" font-family="Cascadia Code NF" font-size="10.00"> </text>
<polygon fill="#bfbfbf" stroke="#bfbfbf" points="0,-40.5 0,-40.5 142,-40.5 142,-40.5 0,-40.5"/>
<polygon fill="#bfbfbf" stroke="#bfbfbf" points="0,-24.5 0,-24.5 142,-24.5 142,-24.5 0,-24.5"/>
<polygon fill="none" stroke="#bfbfbf" points="0,-6.5 0,-58.5 142,-58.5 142,-6.5 0,-6.5"/>
</a>
</g>
</g>
<!-- Node2&#45;&gt;Node1 -->
<g id="edge1_Node000001_Node000002" class="edge">
<title>Node2&#45;&gt;Node1</title>
<g id="a_edge1_Node000001_Node000002"><a xlink:title=" ">
<path fill="none" stroke="#63b8ff" d="M153.21,-32.5C161.52,-32.5 169.92,-32.5 178.12,-32.5"/>
<polygon fill="none" stroke="#63b8ff" points="153.49,-29 143.49,-32.5 153.49,-36 153.49,-29"/>
</a>
</g>
</g>
</g>
</svg>
