<?xml version="1.0" encoding="UTF-8" standalone="no"?>
<!DOCTYPE svg PUBLIC "-//W3C//DTD SVG 1.1//EN"
 "http://www.w3.org/Graphics/SVG/1.1/DTD/svg11.dtd">
<!-- Generated by graphviz version 11.0.0 (20240428.1522)
 -->
<!-- Title: v8::internal::torque::NullOStream Pages: 1 -->
<svg width="712pt" height="73pt"
 viewBox="0.00 0.00 712.00 73.00" xmlns="http://www.w3.org/2000/svg" xmlns:xlink="http://www.w3.org/1999/xlink">
<g id="graph0" class="graph" transform="scale(1 1) rotate(0) translate(4 69)">
<title>v8::internal::torque::NullOStream</title>
<!-- Node1 -->
<g id="Node000001" class="node">
<title>Node1</title>
<g id="a_Node000001"><a xlink:title=" ">
<polygon fill="#999999" stroke="none" points="704,-65 574,-65 574,0 704,0 704,-65"/>
<text text-anchor="start" x="579" y="-51.5" font-family="Cascadia Code NF" font-size="10.00">v8::internal::torque</text>
<text text-anchor="start" x="600" y="-38.75" font-family="Cascadia Code NF" font-size="10.00">::NullOStream</text>
<text text-anchor="start" x="636" y="-22.5" font-family="Cascadia Code NF" font-size="10.00"> </text>
<text text-anchor="start" x="586.5" y="-6.5" font-family="Cascadia Code NF" font-size="10.00">+</text>
<text text-anchor="start" x="605" y="-6.5" font-family="Cascadia Code NF" font-size="10.00">NullOStream()</text>
<polygon fill="#666666" stroke="#666666" points="574,-34 574,-34 704,-34 704,-34 574,-34"/>
<polygon fill="#666666" stroke="#666666" points="574,-18 574,-18 704,-18 704,-18 574,-18"/>
<polygon fill="none" stroke="#666666" points="574,0 574,-65 704,-65 704,0 574,0"/>
</a>
</g>
</g>
<!-- Node2 -->
<g id="Node000002" class="node">
<title>Node2</title>
<g id="a_Node000002"><a xlink:title=" ">
<polygon fill="white" stroke="none" points="538,-58.5 456,-58.5 456,-6.5 538,-6.5 538,-58.5"/>
<text text-anchor="start" x="461" y="-45" font-family="Cascadia Code NF" font-size="10.00">std::ostream</text>
<text text-anchor="start" x="494" y="-29" font-family="Cascadia Code NF" font-size="10.00"> </text>
<text text-anchor="start" x="494" y="-13" font-family="Cascadia Code NF" font-size="10.00"> </text>
<polygon fill="#666666" stroke="#666666" points="456,-40.5 456,-40.5 538,-40.5 538,-40.5 456,-40.5"/>
<polygon fill="#666666" stroke="#666666" points="456,-24.5 456,-24.5 538,-24.5 538,-24.5 456,-24.5"/>
<polygon fill="none" stroke="#666666" points="456,-6.5 456,-58.5 538,-58.5 538,-6.5 456,-6.5"/>
</a>
</g>
</g>
<!-- Node2&#45;&gt;Node1 -->
<g id="edge1_Node000001_Node000002" class="edge">
<title>Node2&#45;&gt;Node1</title>
<g id="a_edge1_Node000001_Node000002"><a xlink:title=" ">
<path fill="none" stroke="#63b8ff" d="M549.25,-32.5C557.32,-32.5 565.74,-32.5 574.06,-32.5"/>
<polygon fill="none" stroke="#63b8ff" points="549.26,-29 539.26,-32.5 549.26,-36 549.26,-29"/>
</a>
</g>
</g>
<!-- Node3 -->
<g id="Node000003" class="node">
<title>Node3</title>
<g id="a_Node000003"><a xlink:title=" ">
<polygon fill="white" stroke="none" points="420,-65 302,-65 302,0 420,0 420,-65"/>
<text text-anchor="start" x="307" y="-51.5" font-family="Cascadia Code NF" font-size="10.00">std::basic_ostream</text>
<text text-anchor="start" x="337" y="-38.75" font-family="Cascadia Code NF" font-size="10.00">&lt; Char &gt;</text>
<text text-anchor="start" x="358" y="-22.5" font-family="Cascadia Code NF" font-size="10.00"> </text>
<text text-anchor="start" x="358" y="-6.5" font-family="Cascadia Code NF" font-size="10.00"> </text>
<polygon fill="#666666" stroke="#666666" points="302,-34 302,-34 420,-34 420,-34 302,-34"/>
<polygon fill="#666666" stroke="#666666" points="302,-18 302,-18 420,-18 420,-18 302,-18"/>
<polygon fill="none" stroke="#666666" points="302,0 302,-65 420,-65 420,0 302,0"/>
</a>
</g>
</g>
<!-- Node3&#45;&gt;Node2 -->
<g id="edge2_Node000002_Node000003" class="edge">
<title>Node3&#45;&gt;Node2</title>
<g id="a_edge2_Node000002_Node000003"><a xlink:title=" ">
<path fill="none" stroke="#63b8ff" d="M431.47,-32.5C439.9,-32.5 448.27,-32.5 456.06,-32.5"/>
<polygon fill="none" stroke="#63b8ff" points="431.51,-29 421.51,-32.5 431.51,-36 431.51,-29"/>
</a>
</g>
</g>
<!-- Node4 -->
<g id="Node000004" class="node">
<title>Node4</title>
<g id="a_Node000004"><a xlink:title=" ">
<polygon fill="white" stroke="none" points="266,-58.5 124,-58.5 124,-6.5 266,-6.5 266,-58.5"/>
<text text-anchor="start" x="129" y="-45" font-family="Cascadia Code NF" font-size="10.00">std::basic_ios&lt; Char &gt;</text>
<text text-anchor="start" x="192" y="-29" font-family="Cascadia Code NF" font-size="10.00"> </text>
<text text-anchor="start" x="192" y="-13" font-family="Cascadia Code NF" font-size="10.00"> </text>
<polygon fill="#666666" stroke="#666666" points="124,-40.5 124,-40.5 266,-40.5 266,-40.5 124,-40.5"/>
<polygon fill="#666666" stroke="#666666" points="124,-24.5 124,-24.5 266,-24.5 266,-24.5 124,-24.5"/>
<polygon fill="none" stroke="#666666" points="124,-6.5 124,-58.5 266,-58.5 266,-6.5 124,-6.5"/>
</a>
</g>
</g>
<!-- Node4&#45;&gt;Node3 -->
<g id="edge3_Node000003_Node000004" class="edge">
<title>Node4&#45;&gt;Node3</title>
<g id="a_edge3_Node000003_Node000004"><a xlink:title=" ">
<path fill="none" stroke="#63b8ff" d="M276.8,-32.5C285.38,-32.5 293.99,-32.5 302.23,-32.5"/>
<polygon fill="none" stroke="#63b8ff" points="277.06,-29 267.06,-32.5 277.06,-36 277.06,-29"/>
</a>
</g>
</g>
<!-- Node5 -->
<g id="Node000005" class="node">
<title>Node5</title>
<g id="a_Node000005"><a xlink:title=" ">
<polygon fill="white" stroke="none" points="88,-58.5 0,-58.5 0,-6.5 88,-6.5 88,-58.5"/>
<text text-anchor="start" x="5" y="-45" font-family="Cascadia Code NF" font-size="10.00">std::ios_base</text>
<text text-anchor="start" x="41" y="-29" font-family="Cascadia Code NF" font-size="10.00"> </text>
<text text-anchor="start" x="41" y="-13" font-family="Cascadia Code NF" font-size="10.00"> </text>
<polygon fill="#666666" stroke="#666666" points="0,-40.5 0,-40.5 88,-40.5 88,-40.5 0,-40.5"/>
<polygon fill="#666666" stroke="#666666" points="0,-24.5 0,-24.5 88,-24.5 88,-24.5 0,-24.5"/>
<polygon fill="none" stroke="#666666" points="0,-6.5 0,-58.5 88,-58.5 88,-6.5 0,-6.5"/>
</a>
</g>
</g>
<!-- Node5&#45;&gt;Node4 -->
<g id="edge4_Node000004_Node000005" class="edge">
<title>Node5&#45;&gt;Node4</title>
<g id="a_edge4_Node000004_Node000005"><a xlink:title=" ">
<path fill="none" stroke="#63b8ff" d="M98.93,-32.5C107.08,-32.5 115.58,-32.5 124.01,-32.5"/>
<polygon fill="none" stroke="#63b8ff" points="99.21,-29 89.21,-32.5 99.21,-36 99.21,-29"/>
</a>
</g>
</g>
</g>
</svg>
