<?xml version="1.0" encoding="UTF-8" standalone="no"?>
<!DOCTYPE svg PUBLIC "-//W3C//DTD SVG 1.1//EN"
 "http://www.w3.org/Graphics/SVG/1.1/DTD/svg11.dtd">
<!-- Generated by graphviz version 11.0.0 (20240428.1522)
 -->
<!-- Title: v8::internal::JSDurationFormat Pages: 1 -->
<svg width="498pt" height="541pt"
 viewBox="0.00 0.00 498.00 541.00" xmlns="http://www.w3.org/2000/svg" xmlns:xlink="http://www.w3.org/1999/xlink">
<g id="graph0" class="graph" transform="scale(1 1) rotate(0) translate(4 537)">
<title>v8::internal::JSDurationFormat</title>
<!-- Node1 -->
<g id="Node000001" class="node">
<title>Node1</title>
<g id="a_Node000001"><a xlink:title=" ">
<polygon fill="#999999" stroke="none" points="490,-347 316,-347 316,-186 490,-186 490,-347"/>
<text text-anchor="start" x="331" y="-333.5" font-family="Cascadia Code NF" font-size="10.00">v8::internal::JSDuration</text>
<text text-anchor="start" x="385" y="-320.75" font-family="Cascadia Code NF" font-size="10.00">Format</text>
<text text-anchor="start" x="320" y="-304.5" font-family="Cascadia Code NF" font-size="10.00">+</text>
<text text-anchor="start" x="330" y="-304.5" font-family="Cascadia Code NF" font-size="10.00">kUndefinedFractionalDigits</text>
<text text-anchor="start" x="320" y="-288.5" font-family="Cascadia Code NF" font-size="10.00">+</text>
<text text-anchor="start" x="330" y="-288.5" font-family="Cascadia Code NF" font-size="10.00">set_fractional_digits()</text>
<text text-anchor="start" x="320" y="-272.5" font-family="Cascadia Code NF" font-size="10.00">+</text>
<text text-anchor="start" x="330" y="-272.5" font-family="Cascadia Code NF" font-size="10.00">fractional_digits()</text>
<text text-anchor="start" x="320" y="-256.5" font-family="Cascadia Code NF" font-size="10.00">+</text>
<text text-anchor="start" x="330" y="-256.5" font-family="Cascadia Code NF" font-size="10.00">New()</text>
<text text-anchor="start" x="320" y="-240.5" font-family="Cascadia Code NF" font-size="10.00">+</text>
<text text-anchor="start" x="330" y="-240.5" font-family="Cascadia Code NF" font-size="10.00">ResolvedOptions()</text>
<text text-anchor="start" x="320" y="-224.5" font-family="Cascadia Code NF" font-size="10.00">+</text>
<text text-anchor="start" x="330" y="-224.5" font-family="Cascadia Code NF" font-size="10.00">Format()</text>
<text text-anchor="start" x="320" y="-208.5" font-family="Cascadia Code NF" font-size="10.00">+</text>
<text text-anchor="start" x="330" y="-208.5" font-family="Cascadia Code NF" font-size="10.00">FormatToParts()</text>
<text text-anchor="start" x="320" y="-192.5" font-family="Cascadia Code NF" font-size="10.00">+</text>
<text text-anchor="start" x="330" y="-192.5" font-family="Cascadia Code NF" font-size="10.00">GetAvailableLocales()</text>
<polygon fill="#666666" stroke="#666666" points="316,-316 316,-316 490,-316 490,-316 316,-316"/>
<polygon fill="#666666" stroke="#666666" points="316,-300 316,-300 328,-300 328,-300 316,-300"/>
<polygon fill="#666666" stroke="#666666" points="328,-300 328,-300 490,-300 490,-300 328,-300"/>
<polygon fill="none" stroke="#666666" points="316,-186 316,-347 490,-347 490,-186 316,-186"/>
</a>
</g>
</g>
<!-- Node2 -->
<g id="Node000002" class="node">
<title>Node2</title>
<g id="a_Node000002"><a xlink:href="$d1/d0b/classTorqueGeneratedJSDurationFormat.html" xlink:title=" ">
<polygon fill="white" stroke="none" points="280,-533 94,-533 94,0 280,0 280,-533"/>
<text text-anchor="start" x="112" y="-519.5" font-family="Cascadia Code NF" font-size="10.00">TorqueGeneratedJSDuration</text>
<text text-anchor="start" x="112" y="-506.75" font-family="Cascadia Code NF" font-size="10.00">Format&lt; JSDurationFormat,</text>
<text text-anchor="start" x="154" y="-494" font-family="Cascadia Code NF" font-size="10.00"> JSObject &gt;</text>
<text text-anchor="start" x="98" y="-477.5" font-family="Cascadia Code NF" font-size="10.00">+</text>
<text text-anchor="start" x="108" y="-477.5" font-family="Cascadia Code NF" font-size="10.00">kStartOfStrongFieldsOffset</text>
<text text-anchor="start" x="98" y="-461.5" font-family="Cascadia Code NF" font-size="10.00">+</text>
<text text-anchor="start" x="108" y="-461.5" font-family="Cascadia Code NF" font-size="10.00">kStyleFlagsOffset</text>
<text text-anchor="start" x="98" y="-445.5" font-family="Cascadia Code NF" font-size="10.00">+</text>
<text text-anchor="start" x="108" y="-445.5" font-family="Cascadia Code NF" font-size="10.00">kStyleFlagsOffsetEnd</text>
<text text-anchor="start" x="98" y="-429.5" font-family="Cascadia Code NF" font-size="10.00">+</text>
<text text-anchor="start" x="108" y="-429.5" font-family="Cascadia Code NF" font-size="10.00">kDisplayFlagsOffset</text>
<text text-anchor="start" x="98" y="-413.5" font-family="Cascadia Code NF" font-size="10.00">+</text>
<text text-anchor="start" x="108" y="-413.5" font-family="Cascadia Code NF" font-size="10.00">kDisplayFlagsOffsetEnd</text>
<text text-anchor="start" x="98" y="-397.5" font-family="Cascadia Code NF" font-size="10.00">+</text>
<text text-anchor="start" x="108" y="-397.5" font-family="Cascadia Code NF" font-size="10.00">kIcuLocaleOffset</text>
<text text-anchor="start" x="98" y="-381.5" font-family="Cascadia Code NF" font-size="10.00">+</text>
<text text-anchor="start" x="108" y="-381.5" font-family="Cascadia Code NF" font-size="10.00">kIcuLocaleOffsetEnd</text>
<text text-anchor="start" x="98" y="-365.5" font-family="Cascadia Code NF" font-size="10.00">+</text>
<text text-anchor="start" x="108" y="-365.5" font-family="Cascadia Code NF" font-size="10.00">kIcuNumberFormatterOffset</text>
<text text-anchor="start" x="98" y="-349.5" font-family="Cascadia Code NF" font-size="10.00">+</text>
<text text-anchor="start" x="108" y="-349.5" font-family="Cascadia Code NF" font-size="10.00">kIcuNumberFormatterOffsetEnd</text>
<text text-anchor="start" x="98" y="-333.5" font-family="Cascadia Code NF" font-size="10.00">+</text>
<text text-anchor="start" x="108" y="-333.5" font-family="Cascadia Code NF" font-size="10.00">kEndOfStrongFieldsOffset</text>
<text text-anchor="start" x="98" y="-317.5" font-family="Cascadia Code NF" font-size="10.00">+</text>
<text text-anchor="start" x="108" y="-317.5" font-family="Cascadia Code NF" font-size="10.00">kStartOfWeakFieldsOffset</text>
<text text-anchor="start" x="98" y="-301.5" font-family="Cascadia Code NF" font-size="10.00">+</text>
<text text-anchor="start" x="108" y="-301.5" font-family="Cascadia Code NF" font-size="10.00">kEndOfWeakFieldsOffset</text>
<text text-anchor="start" x="98" y="-285.5" font-family="Cascadia Code NF" font-size="10.00">+</text>
<text text-anchor="start" x="108" y="-285.5" font-family="Cascadia Code NF" font-size="10.00">kHeaderSize</text>
<text text-anchor="start" x="98" y="-269.5" font-family="Cascadia Code NF" font-size="10.00">+</text>
<text text-anchor="start" x="108" y="-269.5" font-family="Cascadia Code NF" font-size="10.00">style_flags()</text>
<text text-anchor="start" x="98" y="-253.5" font-family="Cascadia Code NF" font-size="10.00">+</text>
<text text-anchor="start" x="108" y="-253.5" font-family="Cascadia Code NF" font-size="10.00">set_style_flags()</text>
<text text-anchor="start" x="98" y="-237.5" font-family="Cascadia Code NF" font-size="10.00">+</text>
<text text-anchor="start" x="108" y="-237.5" font-family="Cascadia Code NF" font-size="10.00">display_flags()</text>
<text text-anchor="start" x="98" y="-221.5" font-family="Cascadia Code NF" font-size="10.00">+</text>
<text text-anchor="start" x="108" y="-221.5" font-family="Cascadia Code NF" font-size="10.00">set_display_flags()</text>
<text text-anchor="start" x="98" y="-205.5" font-family="Cascadia Code NF" font-size="10.00">+</text>
<text text-anchor="start" x="108" y="-205.5" font-family="Cascadia Code NF" font-size="10.00">icu_locale()</text>
<text text-anchor="start" x="98" y="-189.5" font-family="Cascadia Code NF" font-size="10.00">+</text>
<text text-anchor="start" x="108" y="-189.5" font-family="Cascadia Code NF" font-size="10.00">icu_locale()</text>
<text text-anchor="start" x="98" y="-173.5" font-family="Cascadia Code NF" font-size="10.00">+</text>
<text text-anchor="start" x="108" y="-173.5" font-family="Cascadia Code NF" font-size="10.00">set_icu_locale()</text>
<text text-anchor="start" x="98" y="-157.5" font-family="Cascadia Code NF" font-size="10.00">+</text>
<text text-anchor="start" x="108" y="-157.5" font-family="Cascadia Code NF" font-size="10.00">icu_number_formatter()</text>
<text text-anchor="start" x="98" y="-141.5" font-family="Cascadia Code NF" font-size="10.00">+</text>
<text text-anchor="start" x="108" y="-141.5" font-family="Cascadia Code NF" font-size="10.00">icu_number_formatter()</text>
<text text-anchor="start" x="98" y="-125.5" font-family="Cascadia Code NF" font-size="10.00">+</text>
<text text-anchor="start" x="108" y="-125.5" font-family="Cascadia Code NF" font-size="10.00">set_icu_number_formatter()</text>
<text text-anchor="start" x="98" y="-109.5" font-family="Cascadia Code NF" font-size="10.00">+</text>
<text text-anchor="start" x="108" y="-109.5" font-family="Cascadia Code NF" font-size="10.00">TorqueGeneratedJSDuration</text>
<text text-anchor="start" x="108" y="-96.75" font-family="Cascadia Code NF" font-size="10.00">Format()</text>
<text text-anchor="start" x="98" y="-80.5" font-family="Cascadia Code NF" font-size="10.00">+</text>
<text text-anchor="start" x="108" y="-80.5" font-family="Cascadia Code NF" font-size="10.00">cast()</text>
<text text-anchor="start" x="98" y="-64.5" font-family="Cascadia Code NF" font-size="10.00">+</text>
<text text-anchor="start" x="108" y="-64.5" font-family="Cascadia Code NF" font-size="10.00">unchecked_cast()</text>
<text text-anchor="start" x="98" y="-48.5" font-family="Cascadia Code NF" font-size="10.00">#</text>
<text text-anchor="start" x="108" y="-48.5" font-family="Cascadia Code NF" font-size="10.00">TorqueGeneratedJSDuration</text>
<text text-anchor="start" x="108" y="-35.75" font-family="Cascadia Code NF" font-size="10.00">Format()</text>
<text text-anchor="start" x="98" y="-19.5" font-family="Cascadia Code NF" font-size="10.00">#</text>
<text text-anchor="start" x="108" y="-19.5" font-family="Cascadia Code NF" font-size="10.00">TorqueGeneratedJSDuration</text>
<text text-anchor="start" x="108" y="-6.75" font-family="Cascadia Code NF" font-size="10.00">Format()</text>
<polygon fill="#bfbfbf" stroke="#bfbfbf" points="94,-489 94,-489 280,-489 280,-489 94,-489"/>
<polygon fill="#bfbfbf" stroke="#bfbfbf" points="94,-281 94,-281 106,-281 106,-281 94,-281"/>
<polygon fill="#bfbfbf" stroke="#bfbfbf" points="106,-281 106,-281 280,-281 280,-281 106,-281"/>
<polygon fill="none" stroke="#bfbfbf" points="94,0 94,-533 280,-533 280,0 94,0"/>
</a>
</g>
</g>
<!-- Node2&#45;&gt;Node1 -->
<g id="edge1_Node000001_Node000002" class="edge">
<title>Node2&#45;&gt;Node1</title>
<g id="a_edge1_Node000001_Node000002"><a xlink:title=" ">
<path fill="none" stroke="#63b8ff" d="M291.31,-266.5C299.64,-266.5 307.99,-266.5 316.17,-266.5"/>
<polygon fill="none" stroke="#63b8ff" points="291.51,-263 281.51,-266.5 291.51,-270 291.51,-263"/>
</a>
</g>
</g>
<!-- Node3 -->
<g id="Node000003" class="node">
<title>Node3</title>
<g id="a_Node000003"><a xlink:title=" ">
<polygon fill="white" stroke="none" points="58,-292.5 0,-292.5 0,-240.5 58,-240.5 58,-292.5"/>
<text text-anchor="start" x="5" y="-279" font-family="Cascadia Code NF" font-size="10.00">JSObject</text>
<text text-anchor="start" x="26" y="-263" font-family="Cascadia Code NF" font-size="10.00"> </text>
<text text-anchor="start" x="26" y="-247" font-family="Cascadia Code NF" font-size="10.00"> </text>
<polygon fill="#bfbfbf" stroke="#bfbfbf" points="0,-274.5 0,-274.5 58,-274.5 58,-274.5 0,-274.5"/>
<polygon fill="#bfbfbf" stroke="#bfbfbf" points="0,-258.5 0,-258.5 58,-258.5 58,-258.5 0,-258.5"/>
<polygon fill="none" stroke="#bfbfbf" points="0,-240.5 0,-292.5 58,-292.5 58,-240.5 0,-240.5"/>
</a>
</g>
</g>
<!-- Node3&#45;&gt;Node2 -->
<g id="edge2_Node000002_Node000003" class="edge">
<title>Node3&#45;&gt;Node2</title>
<g id="a_edge2_Node000002_Node000003"><a xlink:title=" ">
<path fill="none" stroke="#63b8ff" d="M69.14,-266.5C76.95,-266.5 85.45,-266.5 94.2,-266.5"/>
<polygon fill="none" stroke="#63b8ff" points="69.4,-263 59.4,-266.5 69.4,-270 69.4,-263"/>
</a>
</g>
</g>
</g>
</svg>
