<?xml version="1.0" encoding="UTF-8" standalone="no"?>
<!DOCTYPE svg PUBLIC "-//W3C//DTD SVG 1.1//EN"
 "http://www.w3.org/Graphics/SVG/1.1/DTD/svg11.dtd">
<!-- Generated by graphviz version 11.0.0 (20240428.1522)
 -->
<!-- Title: v8::internal::debug_helper_internal::TqJSTemporalTimeZone Pages: 1 -->
<svg width="958pt" height="214pt"
 viewBox="0.00 0.00 958.00 214.00" xmlns="http://www.w3.org/2000/svg" xmlns:xlink="http://www.w3.org/1999/xlink">
<g id="graph0" class="graph" transform="scale(1 1) rotate(0) translate(4 210)">
<title>v8::internal::debug_helper_internal::TqJSTemporalTimeZone</title>
<!-- Node1 -->
<g id="Node000001" class="node">
<title>Node1</title>
<g id="a_Node000001"><a xlink:title=" ">
<polygon fill="#999999" stroke="none" points="950,-206 760,-206 760,0 950,0 950,-206"/>
<text text-anchor="start" x="765" y="-192.5" font-family="Cascadia Code NF" font-size="10.00">v8::internal::debug</text>
<text text-anchor="start" x="765" y="-179.75" font-family="Cascadia Code NF" font-size="10.00">_helper_internal::TqJSTemporal</text>
<text text-anchor="start" x="831" y="-167" font-family="Cascadia Code NF" font-size="10.00">TimeZone</text>
<text text-anchor="start" x="852" y="-150.5" font-family="Cascadia Code NF" font-size="10.00"> </text>
<text text-anchor="start" x="774" y="-134.5" font-family="Cascadia Code NF" font-size="10.00">+</text>
<text text-anchor="start" x="794" y="-134.5" font-family="Cascadia Code NF" font-size="10.00">TqJSTemporalTimeZone()</text>
<text text-anchor="start" x="774" y="-118.5" font-family="Cascadia Code NF" font-size="10.00">+</text>
<text text-anchor="start" x="794" y="-118.5" font-family="Cascadia Code NF" font-size="10.00">GetProperties()</text>
<text text-anchor="start" x="774" y="-102.5" font-family="Cascadia Code NF" font-size="10.00">+</text>
<text text-anchor="start" x="794" y="-102.5" font-family="Cascadia Code NF" font-size="10.00">GetName()</text>
<text text-anchor="start" x="774" y="-86.5" font-family="Cascadia Code NF" font-size="10.00">+</text>
<text text-anchor="start" x="794" y="-86.5" font-family="Cascadia Code NF" font-size="10.00">Visit()</text>
<text text-anchor="start" x="774" y="-70.5" font-family="Cascadia Code NF" font-size="10.00">+</text>
<text text-anchor="start" x="794" y="-70.5" font-family="Cascadia Code NF" font-size="10.00">IsSuperclassOf()</text>
<text text-anchor="start" x="774" y="-54.5" font-family="Cascadia Code NF" font-size="10.00">+</text>
<text text-anchor="start" x="794" y="-54.5" font-family="Cascadia Code NF" font-size="10.00">GetFlagsAddress()</text>
<text text-anchor="start" x="774" y="-38.5" font-family="Cascadia Code NF" font-size="10.00">+</text>
<text text-anchor="start" x="794" y="-38.5" font-family="Cascadia Code NF" font-size="10.00">GetFlagsValue()</text>
<text text-anchor="start" x="774" y="-22.5" font-family="Cascadia Code NF" font-size="10.00">+</text>
<text text-anchor="start" x="794" y="-22.5" font-family="Cascadia Code NF" font-size="10.00">GetDetailsAddress()</text>
<text text-anchor="start" x="774" y="-6.5" font-family="Cascadia Code NF" font-size="10.00">+</text>
<text text-anchor="start" x="794" y="-6.5" font-family="Cascadia Code NF" font-size="10.00">GetDetailsValue()</text>
<polygon fill="#666666" stroke="#666666" points="760,-162 760,-162 950,-162 950,-162 760,-162"/>
<polygon fill="#666666" stroke="#666666" points="760,-146 760,-146 950,-146 950,-146 760,-146"/>
<polygon fill="none" stroke="#666666" points="760,0 760,-206 950,-206 950,0 760,0"/>
</a>
</g>
</g>
<!-- Node2 -->
<g id="Node000002" class="node">
<title>Node2</title>
<g id="a_Node000002"><a xlink:href="../../d9/dd7/classv8_1_1internal_1_1debug__helper__internal_1_1TqJSObject.html" target="_top" xlink:title=" ">
<polygon fill="white" stroke="none" points="724,-183.5 546,-183.5 546,-22.5 724,-22.5 724,-183.5"/>
<text text-anchor="start" x="551" y="-170" font-family="Cascadia Code NF" font-size="10.00">v8::internal::debug</text>
<text text-anchor="start" x="551" y="-157.25" font-family="Cascadia Code NF" font-size="10.00">_helper_internal::TqJSObject</text>
<text text-anchor="start" x="632" y="-141" font-family="Cascadia Code NF" font-size="10.00"> </text>
<text text-anchor="start" x="560" y="-125" font-family="Cascadia Code NF" font-size="10.00">+</text>
<text text-anchor="start" x="580" y="-125" font-family="Cascadia Code NF" font-size="10.00">TqJSObject()</text>
<text text-anchor="start" x="560" y="-109" font-family="Cascadia Code NF" font-size="10.00">+</text>
<text text-anchor="start" x="580" y="-109" font-family="Cascadia Code NF" font-size="10.00">GetProperties()</text>
<text text-anchor="start" x="560" y="-93" font-family="Cascadia Code NF" font-size="10.00">+</text>
<text text-anchor="start" x="580" y="-93" font-family="Cascadia Code NF" font-size="10.00">GetName()</text>
<text text-anchor="start" x="560" y="-77" font-family="Cascadia Code NF" font-size="10.00">+</text>
<text text-anchor="start" x="580" y="-77" font-family="Cascadia Code NF" font-size="10.00">Visit()</text>
<text text-anchor="start" x="560" y="-61" font-family="Cascadia Code NF" font-size="10.00">+</text>
<text text-anchor="start" x="580" y="-61" font-family="Cascadia Code NF" font-size="10.00">IsSuperclassOf()</text>
<text text-anchor="start" x="560" y="-45" font-family="Cascadia Code NF" font-size="10.00">+</text>
<text text-anchor="start" x="580" y="-45" font-family="Cascadia Code NF" font-size="10.00">GetElementsAddress()</text>
<text text-anchor="start" x="560" y="-29" font-family="Cascadia Code NF" font-size="10.00">+</text>
<text text-anchor="start" x="580" y="-29" font-family="Cascadia Code NF" font-size="10.00">GetElementsValue()</text>
<polygon fill="#bfbfbf" stroke="#bfbfbf" points="546,-152.5 546,-152.5 724,-152.5 724,-152.5 546,-152.5"/>
<polygon fill="#bfbfbf" stroke="#bfbfbf" points="546,-136.5 546,-136.5 724,-136.5 724,-136.5 546,-136.5"/>
<polygon fill="none" stroke="#bfbfbf" points="546,-22.5 546,-183.5 724,-183.5 724,-22.5 546,-22.5"/>
</a>
</g>
</g>
<!-- Node2&#45;&gt;Node1 -->
<g id="edge1_Node000001_Node000002" class="edge">
<title>Node2&#45;&gt;Node1</title>
<g id="a_edge1_Node000001_Node000002"><a xlink:title=" ">
<path fill="none" stroke="#63b8ff" d="M735.01,-103C743.34,-103 751.75,-103 760.04,-103"/>
<polygon fill="none" stroke="#63b8ff" points="735.24,-99.5 725.24,-103 735.24,-106.5 735.24,-99.5"/>
</a>
</g>
</g>
<!-- Node3 -->
<g id="Node000003" class="node">
<title>Node3</title>
<g id="a_Node000003"><a xlink:href="../../df/d7b/classv8_1_1internal_1_1debug__helper__internal_1_1TqJSReceiver.html" target="_top" xlink:title=" ">
<polygon fill="white" stroke="none" points="510,-183.5 320,-183.5 320,-22.5 510,-22.5 510,-183.5"/>
<text text-anchor="start" x="325" y="-170" font-family="Cascadia Code NF" font-size="10.00">v8::internal::debug</text>
<text text-anchor="start" x="325" y="-157.25" font-family="Cascadia Code NF" font-size="10.00">_helper_internal::TqJSReceiver</text>
<text text-anchor="start" x="412" y="-141" font-family="Cascadia Code NF" font-size="10.00"> </text>
<text text-anchor="start" x="325" y="-125" font-family="Cascadia Code NF" font-size="10.00">+</text>
<text text-anchor="start" x="336" y="-125" font-family="Cascadia Code NF" font-size="10.00">TqJSReceiver()</text>
<text text-anchor="start" x="325" y="-109" font-family="Cascadia Code NF" font-size="10.00">+</text>
<text text-anchor="start" x="336" y="-109" font-family="Cascadia Code NF" font-size="10.00">GetProperties()</text>
<text text-anchor="start" x="325" y="-93" font-family="Cascadia Code NF" font-size="10.00">+</text>
<text text-anchor="start" x="336" y="-93" font-family="Cascadia Code NF" font-size="10.00">GetName()</text>
<text text-anchor="start" x="325" y="-77" font-family="Cascadia Code NF" font-size="10.00">+</text>
<text text-anchor="start" x="336" y="-77" font-family="Cascadia Code NF" font-size="10.00">Visit()</text>
<text text-anchor="start" x="325" y="-61" font-family="Cascadia Code NF" font-size="10.00">+</text>
<text text-anchor="start" x="336" y="-61" font-family="Cascadia Code NF" font-size="10.00">IsSuperclassOf()</text>
<text text-anchor="start" x="325" y="-45" font-family="Cascadia Code NF" font-size="10.00">+</text>
<text text-anchor="start" x="336" y="-45" font-family="Cascadia Code NF" font-size="10.00">GetPropertiesOrHashAddress()</text>
<text text-anchor="start" x="325" y="-29" font-family="Cascadia Code NF" font-size="10.00">+</text>
<text text-anchor="start" x="336" y="-29" font-family="Cascadia Code NF" font-size="10.00">GetPropertiesOrHashValue()</text>
<polygon fill="#bfbfbf" stroke="#bfbfbf" points="320,-152.5 320,-152.5 510,-152.5 510,-152.5 320,-152.5"/>
<polygon fill="#bfbfbf" stroke="#bfbfbf" points="320,-136.5 320,-136.5 510,-136.5 510,-136.5 320,-136.5"/>
<polygon fill="none" stroke="#bfbfbf" points="320,-22.5 320,-183.5 510,-183.5 510,-22.5 320,-22.5"/>
</a>
</g>
</g>
<!-- Node3&#45;&gt;Node2 -->
<g id="edge2_Node000002_Node000003" class="edge">
<title>Node3&#45;&gt;Node2</title>
<g id="a_edge2_Node000002_Node000003"><a xlink:title=" ">
<path fill="none" stroke="#63b8ff" d="M521.13,-103C529.53,-103 537.96,-103 546.22,-103"/>
<polygon fill="none" stroke="#63b8ff" points="521.23,-99.5 511.23,-103 521.23,-106.5 521.23,-99.5"/>
</a>
</g>
</g>
<!-- Node4 -->
<g id="Node000004" class="node">
<title>Node4</title>
<g id="a_Node000004"><a xlink:href="../../db/deb/classv8_1_1internal_1_1debug__helper__internal_1_1TqHeapObject.html" target="_top" xlink:title=" ">
<polygon fill="white" stroke="none" points="284,-183.5 94,-183.5 94,-22.5 284,-22.5 284,-183.5"/>
<text text-anchor="start" x="99" y="-170" font-family="Cascadia Code NF" font-size="10.00">v8::internal::debug</text>
<text text-anchor="start" x="99" y="-157.25" font-family="Cascadia Code NF" font-size="10.00">_helper_internal::TqHeapObject</text>
<text text-anchor="start" x="186" y="-141" font-family="Cascadia Code NF" font-size="10.00"> </text>
<text text-anchor="start" x="117" y="-125" font-family="Cascadia Code NF" font-size="10.00">+</text>
<text text-anchor="start" x="146" y="-125" font-family="Cascadia Code NF" font-size="10.00">TqHeapObject()</text>
<text text-anchor="start" x="117" y="-109" font-family="Cascadia Code NF" font-size="10.00">+</text>
<text text-anchor="start" x="146" y="-109" font-family="Cascadia Code NF" font-size="10.00">GetProperties()</text>
<text text-anchor="start" x="117" y="-93" font-family="Cascadia Code NF" font-size="10.00">+</text>
<text text-anchor="start" x="146" y="-93" font-family="Cascadia Code NF" font-size="10.00">GetName()</text>
<text text-anchor="start" x="117" y="-77" font-family="Cascadia Code NF" font-size="10.00">+</text>
<text text-anchor="start" x="146" y="-77" font-family="Cascadia Code NF" font-size="10.00">Visit()</text>
<text text-anchor="start" x="117" y="-61" font-family="Cascadia Code NF" font-size="10.00">+</text>
<text text-anchor="start" x="146" y="-61" font-family="Cascadia Code NF" font-size="10.00">IsSuperclassOf()</text>
<text text-anchor="start" x="117" y="-45" font-family="Cascadia Code NF" font-size="10.00">+</text>
<text text-anchor="start" x="146" y="-45" font-family="Cascadia Code NF" font-size="10.00">GetMapAddress()</text>
<text text-anchor="start" x="117" y="-29" font-family="Cascadia Code NF" font-size="10.00">+</text>
<text text-anchor="start" x="146" y="-29" font-family="Cascadia Code NF" font-size="10.00">GetMapValue()</text>
<polygon fill="#bfbfbf" stroke="#bfbfbf" points="94,-152.5 94,-152.5 284,-152.5 284,-152.5 94,-152.5"/>
<polygon fill="#bfbfbf" stroke="#bfbfbf" points="94,-136.5 94,-136.5 284,-136.5 284,-136.5 94,-136.5"/>
<polygon fill="none" stroke="#bfbfbf" points="94,-22.5 94,-183.5 284,-183.5 284,-22.5 94,-22.5"/>
</a>
</g>
</g>
<!-- Node4&#45;&gt;Node3 -->
<g id="edge3_Node000003_Node000004" class="edge">
<title>Node4&#45;&gt;Node3</title>
<g id="a_edge3_Node000003_Node000004"><a xlink:title=" ">
<path fill="none" stroke="#63b8ff" d="M295.12,-103C303.53,-103 311.99,-103 320.32,-103"/>
<polygon fill="none" stroke="#63b8ff" points="295.21,-99.5 285.21,-103 295.21,-106.5 295.21,-99.5"/>
</a>
</g>
</g>
<!-- Node5 -->
<g id="Node000005" class="node">
<title>Node5</title>
<g id="a_Node000005"><a xlink:href="../../dd/d42/classTqObject.html" target="_top" xlink:title=" ">
<polygon fill="white" stroke="none" points="58,-129 0,-129 0,-77 58,-77 58,-129"/>
<text text-anchor="start" x="5" y="-115.5" font-family="Cascadia Code NF" font-size="10.00">TqObject</text>
<text text-anchor="start" x="26" y="-99.5" font-family="Cascadia Code NF" font-size="10.00"> </text>
<text text-anchor="start" x="26" y="-83.5" font-family="Cascadia Code NF" font-size="10.00"> </text>
<polygon fill="#bfbfbf" stroke="#bfbfbf" points="0,-111 0,-111 58,-111 58,-111 0,-111"/>
<polygon fill="#bfbfbf" stroke="#bfbfbf" points="0,-95 0,-95 58,-95 58,-95 0,-95"/>
<polygon fill="none" stroke="#bfbfbf" points="0,-77 0,-129 58,-129 58,-77 0,-77"/>
</a>
</g>
</g>
<!-- Node5&#45;&gt;Node4 -->
<g id="edge4_Node000004_Node000005" class="edge">
<title>Node5&#45;&gt;Node4</title>
<g id="a_edge4_Node000004_Node000005"><a xlink:title=" ">
<path fill="none" stroke="#63b8ff" d="M69.34,-103C77.03,-103 85.39,-103 94,-103"/>
<polygon fill="none" stroke="#63b8ff" points="69.4,-99.5 59.4,-103 69.4,-106.5 69.4,-99.5"/>
</a>
</g>
</g>
</g>
</svg>
