<?xml version="1.0" encoding="UTF-8" standalone="no"?>
<!DOCTYPE svg PUBLIC "-//W3C//DTD SVG 1.1//EN"
 "http://www.w3.org/Graphics/SVG/1.1/DTD/svg11.dtd">
<!-- Generated by graphviz version 11.0.0 (20240428.1522)
 -->
<!-- Title: TorqueGeneratedSourceTextModule&lt; D, P &gt; Pages: 1 -->
<svg width="408pt" height="512pt"
 viewBox="0.00 0.00 408.00 512.00" xmlns="http://www.w3.org/2000/svg" xmlns:xlink="http://www.w3.org/1999/xlink">
<g id="graph0" class="graph" transform="scale(1 1) rotate(0) translate(4 508)">
<title>TorqueGeneratedSourceTextModule&lt; D, P &gt;</title>
<!-- Node1 -->
<g id="Node000001" class="node">
<title>Node1</title>
<g id="a_Node000001"><a xlink:title=" ">
<polygon fill="#999999" stroke="none" points="400,-504 226,-504 226,0 400,0 400,-504"/>
<text text-anchor="start" x="238" y="-490.5" font-family="Cascadia Code NF" font-size="10.00">TorqueGeneratedSourceText</text>
<text text-anchor="start" x="271" y="-477.75" font-family="Cascadia Code NF" font-size="10.00">Module&lt; D, P &gt;</text>
<text text-anchor="start" x="230" y="-461.5" font-family="Cascadia Code NF" font-size="10.00">+</text>
<text text-anchor="start" x="240" y="-461.5" font-family="Cascadia Code NF" font-size="10.00">kStartOfStrongFieldsOffset</text>
<text text-anchor="start" x="230" y="-445.5" font-family="Cascadia Code NF" font-size="10.00">+</text>
<text text-anchor="start" x="240" y="-445.5" font-family="Cascadia Code NF" font-size="10.00">kRegularExportsOffset</text>
<text text-anchor="start" x="230" y="-429.5" font-family="Cascadia Code NF" font-size="10.00">+</text>
<text text-anchor="start" x="240" y="-429.5" font-family="Cascadia Code NF" font-size="10.00">kRegularExportsOffsetEnd</text>
<text text-anchor="start" x="230" y="-413.5" font-family="Cascadia Code NF" font-size="10.00">+</text>
<text text-anchor="start" x="240" y="-413.5" font-family="Cascadia Code NF" font-size="10.00">kRegularImportsOffset</text>
<text text-anchor="start" x="230" y="-397.5" font-family="Cascadia Code NF" font-size="10.00">+</text>
<text text-anchor="start" x="240" y="-397.5" font-family="Cascadia Code NF" font-size="10.00">kRegularImportsOffsetEnd</text>
<text text-anchor="start" x="230" y="-381.5" font-family="Cascadia Code NF" font-size="10.00">+</text>
<text text-anchor="start" x="240" y="-381.5" font-family="Cascadia Code NF" font-size="10.00">kRequestedModulesOffset</text>
<text text-anchor="start" x="230" y="-365.5" font-family="Cascadia Code NF" font-size="10.00">+</text>
<text text-anchor="start" x="240" y="-365.5" font-family="Cascadia Code NF" font-size="10.00">kRequestedModulesOffsetEnd</text>
<text text-anchor="start" x="230" y="-349.5" font-family="Cascadia Code NF" font-size="10.00">+</text>
<text text-anchor="start" x="240" y="-349.5" font-family="Cascadia Code NF" font-size="10.00">kImportMetaOffset</text>
<text text-anchor="start" x="230" y="-333.5" font-family="Cascadia Code NF" font-size="10.00">+</text>
<text text-anchor="start" x="240" y="-333.5" font-family="Cascadia Code NF" font-size="10.00">kImportMetaOffsetEnd</text>
<text text-anchor="start" x="230" y="-317.5" font-family="Cascadia Code NF" font-size="10.00">+</text>
<text text-anchor="start" x="240" y="-317.5" font-family="Cascadia Code NF" font-size="10.00">kPendingAsyncDependencies</text>
<text text-anchor="start" x="240" y="-304.75" font-family="Cascadia Code NF" font-size="10.00">Offset</text>
<text text-anchor="start" x="240" y="-288.5" font-family="Cascadia Code NF" font-size="10.00">and 8 more...</text>
<text text-anchor="start" x="230" y="-272.5" font-family="Cascadia Code NF" font-size="10.00">+</text>
<text text-anchor="start" x="240" y="-272.5" font-family="Cascadia Code NF" font-size="10.00">code()</text>
<text text-anchor="start" x="230" y="-256.5" font-family="Cascadia Code NF" font-size="10.00">+</text>
<text text-anchor="start" x="240" y="-256.5" font-family="Cascadia Code NF" font-size="10.00">code()</text>
<text text-anchor="start" x="230" y="-240.5" font-family="Cascadia Code NF" font-size="10.00">+</text>
<text text-anchor="start" x="240" y="-240.5" font-family="Cascadia Code NF" font-size="10.00">set_code()</text>
<text text-anchor="start" x="230" y="-224.5" font-family="Cascadia Code NF" font-size="10.00">+</text>
<text text-anchor="start" x="240" y="-224.5" font-family="Cascadia Code NF" font-size="10.00">regular_exports()</text>
<text text-anchor="start" x="230" y="-208.5" font-family="Cascadia Code NF" font-size="10.00">+</text>
<text text-anchor="start" x="240" y="-208.5" font-family="Cascadia Code NF" font-size="10.00">regular_exports()</text>
<text text-anchor="start" x="230" y="-192.5" font-family="Cascadia Code NF" font-size="10.00">+</text>
<text text-anchor="start" x="240" y="-192.5" font-family="Cascadia Code NF" font-size="10.00">set_regular_exports()</text>
<text text-anchor="start" x="230" y="-176.5" font-family="Cascadia Code NF" font-size="10.00">+</text>
<text text-anchor="start" x="240" y="-176.5" font-family="Cascadia Code NF" font-size="10.00">regular_imports()</text>
<text text-anchor="start" x="230" y="-160.5" font-family="Cascadia Code NF" font-size="10.00">+</text>
<text text-anchor="start" x="240" y="-160.5" font-family="Cascadia Code NF" font-size="10.00">regular_imports()</text>
<text text-anchor="start" x="230" y="-144.5" font-family="Cascadia Code NF" font-size="10.00">+</text>
<text text-anchor="start" x="240" y="-144.5" font-family="Cascadia Code NF" font-size="10.00">set_regular_imports()</text>
<text text-anchor="start" x="230" y="-128.5" font-family="Cascadia Code NF" font-size="10.00">+</text>
<text text-anchor="start" x="240" y="-128.5" font-family="Cascadia Code NF" font-size="10.00">requested_modules()</text>
<text text-anchor="start" x="240" y="-112.5" font-family="Cascadia Code NF" font-size="10.00">and 21 more...</text>
<text text-anchor="start" x="230" y="-96.5" font-family="Cascadia Code NF" font-size="10.00">+</text>
<text text-anchor="start" x="240" y="-96.5" font-family="Cascadia Code NF" font-size="10.00">cast()</text>
<text text-anchor="start" x="230" y="-80.5" font-family="Cascadia Code NF" font-size="10.00">+</text>
<text text-anchor="start" x="240" y="-80.5" font-family="Cascadia Code NF" font-size="10.00">unchecked_cast()</text>
<text text-anchor="start" x="230" y="-64.5" font-family="Cascadia Code NF" font-size="10.00">+</text>
<text text-anchor="start" x="240" y="-64.5" font-family="Cascadia Code NF" font-size="10.00">SizeFor()</text>
<text text-anchor="start" x="230" y="-48.5" font-family="Cascadia Code NF" font-size="10.00">#</text>
<text text-anchor="start" x="240" y="-48.5" font-family="Cascadia Code NF" font-size="10.00">TorqueGeneratedSourceText</text>
<text text-anchor="start" x="240" y="-35.75" font-family="Cascadia Code NF" font-size="10.00">Module()</text>
<text text-anchor="start" x="230" y="-19.5" font-family="Cascadia Code NF" font-size="10.00">#</text>
<text text-anchor="start" x="240" y="-19.5" font-family="Cascadia Code NF" font-size="10.00">TorqueGeneratedSourceText</text>
<text text-anchor="start" x="240" y="-6.75" font-family="Cascadia Code NF" font-size="10.00">Module()</text>
<polygon fill="#666666" stroke="#666666" points="226,-473 226,-473 400,-473 400,-473 226,-473"/>
<polygon fill="#666666" stroke="#666666" points="226,-284 226,-284 238,-284 238,-284 226,-284"/>
<polygon fill="#666666" stroke="#666666" points="238,-284 238,-284 400,-284 400,-284 238,-284"/>
<polygon fill="none" stroke="#666666" points="226,0 226,-504 400,-504 400,0 226,0"/>
</a>
</g>
</g>
<!-- Node2 -->
<g id="Node000002" class="node">
<title>Node2</title>
<g id="a_Node000002"><a xlink:href="$db/d72/classP.html" xlink:title=" ">
<polygon fill="white" stroke="none" points="22,-366 6,-366 6,-314 22,-314 22,-366"/>
<text text-anchor="start" x="11" y="-352.5" font-family="Cascadia Code NF" font-size="10.00">P</text>
<text text-anchor="start" x="11" y="-336.5" font-family="Cascadia Code NF" font-size="10.00"> </text>
<text text-anchor="start" x="11" y="-320.5" font-family="Cascadia Code NF" font-size="10.00"> </text>
<polygon fill="#bfbfbf" stroke="#bfbfbf" points="6,-348 6,-348 22,-348 22,-348 6,-348"/>
<polygon fill="#bfbfbf" stroke="#bfbfbf" points="6,-332 6,-332 22,-332 22,-332 6,-332"/>
<polygon fill="none" stroke="#bfbfbf" points="6,-314 6,-366 22,-366 22,-314 6,-314"/>
</a>
</g>
</g>
<!-- Node2&#45;&gt;Node1 -->
<g id="edge1_Node000001_Node000002" class="edge">
<title>Node2&#45;&gt;Node1</title>
<g id="a_edge1_Node000001_Node000002"><a xlink:title=" ">
<path fill="none" stroke="#63b8ff" d="M33,-340.59C67.85,-341.18 146.53,-339.71 208,-318 214.05,-315.86 220.11,-313.32 226.09,-310.5"/>
<polygon fill="none" stroke="#63b8ff" points="33.51,-337.11 23.43,-340.35 33.33,-344.1 33.51,-337.11"/>
</a>
</g>
</g>
<!-- Node3 -->
<g id="Node000003" class="node">
<title>Node3</title>
<g id="a_Node000003"><a xlink:href="$d1/da0/classint.html" xlink:title=" ">
<polygon fill="white" stroke="none" points="28,-190 0,-190 0,-138 28,-138 28,-190"/>
<text text-anchor="start" x="5" y="-176.5" font-family="Cascadia Code NF" font-size="10.00">int</text>
<text text-anchor="start" x="11" y="-160.5" font-family="Cascadia Code NF" font-size="10.00"> </text>
<text text-anchor="start" x="11" y="-144.5" font-family="Cascadia Code NF" font-size="10.00"> </text>
<polygon fill="#bfbfbf" stroke="#bfbfbf" points="0,-172 0,-172 28,-172 28,-172 0,-172"/>
<polygon fill="#bfbfbf" stroke="#bfbfbf" points="0,-156 0,-156 28,-156 28,-156 0,-156"/>
<polygon fill="none" stroke="#bfbfbf" points="0,-138 0,-190 28,-190 28,-138 0,-138"/>
</a>
</g>
</g>
<!-- Node3&#45;&gt;Node1 -->
<g id="edge2_Node000001_Node000003" class="edge">
<title>Node3&#45;&gt;Node1</title>
<g id="a_edge2_Node000001_Node000003"><a xlink:title=" ">
<path fill="none" stroke="#63b8ff" d="M27.73,-160.7C59.45,-153.14 144.01,-136.96 208,-161 210.22,-161.83 212.42,-162.74 214.61,-163.71"/>
<polygon fill="none" stroke="#63b8ff" points="214.57,-163.69 221.73,-162.8 225.3,-169.07 218.14,-169.95 214.57,-163.69"/>
</a>
</g>
<text text-anchor="middle" x="127" y="-304.5" font-family="Cascadia Code NF" font-size="10.00" fill="grey"> +kAsyncParentModulesOffset</text>
<text text-anchor="start" x="46" y="-291.75" font-family="Cascadia Code NF" font-size="10.00" fill="grey">+kAsyncParentModulesOffset</text>
<text text-anchor="middle" x="127" y="-279" font-family="Cascadia Code NF" font-size="10.00" fill="grey">End</text>
<text text-anchor="middle" x="127" y="-266.25" font-family="Cascadia Code NF" font-size="10.00" fill="grey">+kCodeOffset</text>
<text text-anchor="middle" x="127" y="-253.5" font-family="Cascadia Code NF" font-size="10.00" fill="grey">+kCodeOffsetEnd</text>
<text text-anchor="middle" x="127" y="-240.75" font-family="Cascadia Code NF" font-size="10.00" fill="grey">+kCycleRootOffset</text>
<text text-anchor="middle" x="127" y="-228" font-family="Cascadia Code NF" font-size="10.00" fill="grey">+kCycleRootOffsetEnd</text>
<text text-anchor="middle" x="127" y="-215.25" font-family="Cascadia Code NF" font-size="10.00" fill="grey">+kDfsAncestorIndexOffset</text>
<text text-anchor="middle" x="127" y="-202.5" font-family="Cascadia Code NF" font-size="10.00" fill="grey">+kDfsAncestorIndexOffsetEnd</text>
<text text-anchor="middle" x="127" y="-189.75" font-family="Cascadia Code NF" font-size="10.00" fill="grey">+kDfsIndexOffset</text>
<text text-anchor="middle" x="127" y="-177" font-family="Cascadia Code NF" font-size="10.00" fill="grey">+kDfsIndexOffsetEnd</text>
<text text-anchor="middle" x="127" y="-164.25" font-family="Cascadia Code NF" font-size="10.00" fill="grey">...</text>
</g>
</g>
</svg>
