<?xml version="1.0" encoding="UTF-8" standalone="no"?>
<!DOCTYPE svg PUBLIC "-//W3C//DTD SVG 1.1//EN"
 "http://www.w3.org/Graphics/SVG/1.1/DTD/svg11.dtd">
<!-- Generated by graphviz version 11.0.0 (20240428.1522)
 -->
<!-- Title: v8::internal::compiler::turboshaft::NodeGroup::Iterator&lt; T &gt; Pages: 1 -->
<svg width="226pt" height="118pt"
 viewBox="0.00 0.00 226.00 118.00" xmlns="http://www.w3.org/2000/svg" xmlns:xlink="http://www.w3.org/1999/xlink">
<g id="graph0" class="graph" transform="scale(1 1) rotate(0) translate(4 114)">
<title>v8::internal::compiler::turboshaft::NodeGroup::Iterator&lt; T &gt;</title>
<!-- Node1 -->
<g id="Node000001" class="node">
<title>Node1</title>
<g id="a_Node000001"><a xlink:title=" ">
<polygon fill="#999999" stroke="none" points="218,-110 70,-110 70,0 218,0 218,-110"/>
<text text-anchor="start" x="75" y="-96.5" font-family="Cascadia Code NF" font-size="10.00">v8::internal::compiler</text>
<text text-anchor="start" x="75" y="-83.75" font-family="Cascadia Code NF" font-size="10.00">::turboshaft::NodeGroup</text>
<text text-anchor="start" x="99" y="-71" font-family="Cascadia Code NF" font-size="10.00">::Iterator&lt; T &gt;</text>
<text text-anchor="start" x="141" y="-54.5" font-family="Cascadia Code NF" font-size="10.00"> </text>
<text text-anchor="start" x="88.5" y="-38.5" font-family="Cascadia Code NF" font-size="10.00">+</text>
<text text-anchor="start" x="113" y="-38.5" font-family="Cascadia Code NF" font-size="10.00">operator*()</text>
<text text-anchor="start" x="88.5" y="-22.5" font-family="Cascadia Code NF" font-size="10.00">+</text>
<text text-anchor="start" x="113" y="-22.5" font-family="Cascadia Code NF" font-size="10.00">operator!=()</text>
<text text-anchor="start" x="88.5" y="-6.5" font-family="Cascadia Code NF" font-size="10.00">+</text>
<text text-anchor="start" x="113" y="-6.5" font-family="Cascadia Code NF" font-size="10.00">operator++()</text>
<polygon fill="#666666" stroke="#666666" points="70,-66 70,-66 218,-66 218,-66 70,-66"/>
<polygon fill="#666666" stroke="#666666" points="70,-50 70,-50 218,-50 218,-50 70,-50"/>
<polygon fill="none" stroke="#666666" points="70,0 70,-110 218,-110 218,0 70,0"/>
</a>
</g>
</g>
<!-- Node2 -->
<g id="Node000002" class="node">
<title>Node2</title>
<g id="a_Node000002"><a xlink:title=" ">
<polygon fill="white" stroke="none" points="16,-81 0,-81 0,-29 16,-29 16,-81"/>
<text text-anchor="start" x="5" y="-67.5" font-family="Cascadia Code NF" font-size="10.00">T</text>
<text text-anchor="start" x="5" y="-51.5" font-family="Cascadia Code NF" font-size="10.00"> </text>
<text text-anchor="start" x="5" y="-35.5" font-family="Cascadia Code NF" font-size="10.00"> </text>
<polygon fill="#bfbfbf" stroke="#bfbfbf" points="0,-63 0,-63 16,-63 16,-63 0,-63"/>
<polygon fill="#bfbfbf" stroke="#bfbfbf" points="0,-47 0,-47 16,-47 16,-47 0,-47"/>
<polygon fill="none" stroke="#bfbfbf" points="0,-29 0,-81 16,-81 16,-29 0,-29"/>
</a>
</g>
</g>
<!-- Node2&#45;&gt;Node1 -->
<g id="edge1_Node000001_Node000002" class="edge">
<title>Node2&#45;&gt;Node1</title>
<g id="a_edge1_Node000001_Node000002"><a xlink:title=" ">
<path fill="none" stroke="#63b8ff" d="M15.83,-55C24.33,-55 39.85,-55 57.2,-55"/>
<polygon fill="none" stroke="#63b8ff" points="57.19,-55 63.19,-51 69.19,-55 63.19,-59 57.19,-55"/>
</a>
</g>
<text text-anchor="middle" x="43" y="-58.25" font-family="Cascadia Code NF" font-size="10.00" fill="grey"> +p</text>
</g>
</g>
</svg>
