<?xml version="1.0" encoding="UTF-8" standalone="no"?>
<!DOCTYPE svg PUBLIC "-//W3C//DTD SVG 1.1//EN"
 "http://www.w3.org/Graphics/SVG/1.1/DTD/svg11.dtd">
<!-- Generated by graphviz version 11.0.0 (20240428.1522)
 -->
<!-- Title: v8::internal::DeoptimizationData Pages: 1 -->
<svg width="1854pt" height="934pt"
 viewBox="0.00 0.00 1854.00 934.00" xmlns="http://www.w3.org/2000/svg" xmlns:xlink="http://www.w3.org/1999/xlink">
<g id="graph0" class="graph" transform="scale(1 1) rotate(0) translate(4 930)">
<title>v8::internal::DeoptimizationData</title>
<!-- Node1 -->
<g id="Node000001" class="node">
<title>Node1</title>
<g id="a_Node000001"><a xlink:title=" ">
<polygon fill="#999999" stroke="none" points="1846,-318 1644,-318 1644,0 1846,0 1846,-318"/>
<text text-anchor="start" x="1649" y="-304.5" font-family="Cascadia Code NF" font-size="10.00">v8::internal::DeoptimizationData</text>
<text text-anchor="start" x="1655" y="-288.5" font-family="Cascadia Code NF" font-size="10.00">+</text>
<text text-anchor="start" x="1672" y="-288.5" font-family="Cascadia Code NF" font-size="10.00">kOsrBytecodeOffsetIndex</text>
<text text-anchor="start" x="1655" y="-272.5" font-family="Cascadia Code NF" font-size="10.00">+</text>
<text text-anchor="start" x="1672" y="-272.5" font-family="Cascadia Code NF" font-size="10.00">kOsrPcOffsetIndex</text>
<text text-anchor="start" x="1655" y="-256.5" font-family="Cascadia Code NF" font-size="10.00">+</text>
<text text-anchor="start" x="1672" y="-256.5" font-family="Cascadia Code NF" font-size="10.00">kOptimizationIdIndex</text>
<text text-anchor="start" x="1655" y="-240.5" font-family="Cascadia Code NF" font-size="10.00">+</text>
<text text-anchor="start" x="1672" y="-240.5" font-family="Cascadia Code NF" font-size="10.00">kSharedFunctionInfoWrapper</text>
<text text-anchor="start" x="1672" y="-227.75" font-family="Cascadia Code NF" font-size="10.00">Index</text>
<text text-anchor="start" x="1655" y="-211.5" font-family="Cascadia Code NF" font-size="10.00">+</text>
<text text-anchor="start" x="1672" y="-211.5" font-family="Cascadia Code NF" font-size="10.00">kTranslationIndexOffset</text>
<text text-anchor="start" x="1655" y="-195.5" font-family="Cascadia Code NF" font-size="10.00">+</text>
<text text-anchor="start" x="1672" y="-195.5" font-family="Cascadia Code NF" font-size="10.00">kPcOffset</text>
<text text-anchor="start" x="1655" y="-179.5" font-family="Cascadia Code NF" font-size="10.00">+</text>
<text text-anchor="start" x="1672" y="-179.5" font-family="Cascadia Code NF" font-size="10.00">kNotInlinedIndex</text>
<text text-anchor="start" x="1655" y="-163.5" font-family="Cascadia Code NF" font-size="10.00">+</text>
<text text-anchor="start" x="1672" y="-163.5" font-family="Cascadia Code NF" font-size="10.00">DECL_ELEMENT_ACCESSORS()</text>
<text text-anchor="start" x="1655" y="-147.5" font-family="Cascadia Code NF" font-size="10.00">+</text>
<text text-anchor="start" x="1672" y="-147.5" font-family="Cascadia Code NF" font-size="10.00">SharedFunctionInfo()</text>
<text text-anchor="start" x="1655" y="-131.5" font-family="Cascadia Code NF" font-size="10.00">+</text>
<text text-anchor="start" x="1672" y="-131.5" font-family="Cascadia Code NF" font-size="10.00">GetBytecodeOffsetOrBuiltin</text>
<text text-anchor="start" x="1672" y="-118.75" font-family="Cascadia Code NF" font-size="10.00">ContinuationId()</text>
<text text-anchor="start" x="1655" y="-102.5" font-family="Cascadia Code NF" font-size="10.00">+</text>
<text text-anchor="start" x="1672" y="-102.5" font-family="Cascadia Code NF" font-size="10.00">SetBytecodeOffset()</text>
<text text-anchor="start" x="1655" y="-86.5" font-family="Cascadia Code NF" font-size="10.00">+</text>
<text text-anchor="start" x="1672" y="-86.5" font-family="Cascadia Code NF" font-size="10.00">DeoptCount()</text>
<text text-anchor="start" x="1655" y="-70.5" font-family="Cascadia Code NF" font-size="10.00">+</text>
<text text-anchor="start" x="1672" y="-70.5" font-family="Cascadia Code NF" font-size="10.00">GetInlinedFunction()</text>
<text text-anchor="start" x="1655" y="-54.5" font-family="Cascadia Code NF" font-size="10.00">+</text>
<text text-anchor="start" x="1672" y="-54.5" font-family="Cascadia Code NF" font-size="10.00">New()</text>
<text text-anchor="start" x="1655" y="-38.5" font-family="Cascadia Code NF" font-size="10.00">+</text>
<text text-anchor="start" x="1672" y="-38.5" font-family="Cascadia Code NF" font-size="10.00">New()</text>
<text text-anchor="start" x="1655" y="-22.5" font-family="Cascadia Code NF" font-size="10.00">+</text>
<text text-anchor="start" x="1672" y="-22.5" font-family="Cascadia Code NF" font-size="10.00">Empty()</text>
<text text-anchor="start" x="1655" y="-6.5" font-family="Cascadia Code NF" font-size="10.00">+</text>
<text text-anchor="start" x="1672" y="-6.5" font-family="Cascadia Code NF" font-size="10.00">Empty()</text>
<polygon fill="#666666" stroke="#666666" points="1644,-300 1644,-300 1846,-300 1846,-300 1644,-300"/>
<polygon fill="#666666" stroke="#666666" points="1644,-175 1644,-175 1670,-175 1670,-175 1644,-175"/>
<polygon fill="#666666" stroke="#666666" points="1670,-175 1670,-175 1846,-175 1846,-175 1670,-175"/>
<polygon fill="none" stroke="#666666" points="1644,0 1644,-318 1846,-318 1846,0 1644,0"/>
</a>
</g>
</g>
<!-- Node2 -->
<g id="Node000002" class="node">
<title>Node2</title>
<g id="a_Node000002"><a xlink:href="$d7/d91/classv8_1_1internal_1_1ProtectedFixedArray.html" xlink:title=" ">
<polygon fill="white" stroke="none" points="1607,-315.5 1429,-315.5 1429,-250.5 1607,-250.5 1607,-315.5"/>
<text text-anchor="start" x="1434" y="-302" font-family="Cascadia Code NF" font-size="10.00">v8::internal::ProtectedFixed</text>
<text text-anchor="start" x="1503" y="-289.25" font-family="Cascadia Code NF" font-size="10.00">Array</text>
<text text-anchor="start" x="1515" y="-273" font-family="Cascadia Code NF" font-size="10.00"> </text>
<text text-anchor="start" x="1465.5" y="-257" font-family="Cascadia Code NF" font-size="10.00">+</text>
<text text-anchor="start" x="1508" y="-257" font-family="Cascadia Code NF" font-size="10.00">New()</text>
<polygon fill="#bfbfbf" stroke="#bfbfbf" points="1429,-284.5 1429,-284.5 1607,-284.5 1607,-284.5 1429,-284.5"/>
<polygon fill="#bfbfbf" stroke="#bfbfbf" points="1429,-268.5 1429,-268.5 1607,-268.5 1607,-268.5 1429,-268.5"/>
<polygon fill="none" stroke="#bfbfbf" points="1429,-250.5 1429,-315.5 1607,-315.5 1607,-250.5 1429,-250.5"/>
</a>
</g>
</g>
<!-- Node2&#45;&gt;Node1 -->
<g id="edge1_Node000001_Node000002" class="edge">
<title>Node2&#45;&gt;Node1</title>
<g id="a_edge1_Node000001_Node000002"><a xlink:title=" ">
<path fill="none" stroke="#63b8ff" d="M1587.55,-245.22C1605.42,-235.37 1625.04,-224.56 1644.16,-214.02"/>
<polygon fill="none" stroke="#63b8ff" points="1586.22,-241.96 1579.15,-249.85 1589.6,-248.09 1586.22,-241.96"/>
</a>
</g>
</g>
<!-- Node3 -->
<g id="Node000003" class="node">
<title>Node3</title>
<g id="a_Node000003"><a xlink:href="$d6/dac/classv8_1_1internal_1_1TaggedArrayBase.html" xlink:title=" ">
<polygon fill="white" stroke="none" points="1392,-693 1160,-693 1160,-311 1392,-311 1392,-693"/>
<text text-anchor="start" x="1165" y="-679.5" font-family="Cascadia Code NF" font-size="10.00">v8::internal::TaggedArray</text>
<text text-anchor="start" x="1165" y="-666.75" font-family="Cascadia Code NF" font-size="10.00">Base&lt; ProtectedFixedArray,</text>
<text text-anchor="start" x="1165" y="-654" font-family="Cascadia Code NF" font-size="10.00"> ProtectedArrayShape, TrustedObject &gt;</text>
<text text-anchor="start" x="1273" y="-637.5" font-family="Cascadia Code NF" font-size="10.00"> </text>
<text text-anchor="start" x="1180" y="-621.5" font-family="Cascadia Code NF" font-size="10.00">+</text>
<text text-anchor="start" x="1206" y="-621.5" font-family="Cascadia Code NF" font-size="10.00">capacity()</text>
<text text-anchor="start" x="1180" y="-605.5" font-family="Cascadia Code NF" font-size="10.00">+</text>
<text text-anchor="start" x="1206" y="-605.5" font-family="Cascadia Code NF" font-size="10.00">capacity()</text>
<text text-anchor="start" x="1180" y="-589.5" font-family="Cascadia Code NF" font-size="10.00">+</text>
<text text-anchor="start" x="1206" y="-589.5" font-family="Cascadia Code NF" font-size="10.00">set_capacity()</text>
<text text-anchor="start" x="1180" y="-573.5" font-family="Cascadia Code NF" font-size="10.00">+</text>
<text text-anchor="start" x="1206" y="-573.5" font-family="Cascadia Code NF" font-size="10.00">set_capacity()</text>
<text text-anchor="start" x="1180" y="-557.5" font-family="Cascadia Code NF" font-size="10.00">+</text>
<text text-anchor="start" x="1206" y="-557.5" font-family="Cascadia Code NF" font-size="10.00">length()</text>
<text text-anchor="start" x="1180" y="-541.5" font-family="Cascadia Code NF" font-size="10.00">+</text>
<text text-anchor="start" x="1206" y="-541.5" font-family="Cascadia Code NF" font-size="10.00">length()</text>
<text text-anchor="start" x="1180" y="-525.5" font-family="Cascadia Code NF" font-size="10.00">+</text>
<text text-anchor="start" x="1206" y="-525.5" font-family="Cascadia Code NF" font-size="10.00">set_length()</text>
<text text-anchor="start" x="1180" y="-509.5" font-family="Cascadia Code NF" font-size="10.00">+</text>
<text text-anchor="start" x="1206" y="-509.5" font-family="Cascadia Code NF" font-size="10.00">set_length()</text>
<text text-anchor="start" x="1180" y="-493.5" font-family="Cascadia Code NF" font-size="10.00">+</text>
<text text-anchor="start" x="1206" y="-493.5" font-family="Cascadia Code NF" font-size="10.00">get()</text>
<text text-anchor="start" x="1180" y="-477.5" font-family="Cascadia Code NF" font-size="10.00">+</text>
<text text-anchor="start" x="1206" y="-477.5" font-family="Cascadia Code NF" font-size="10.00">get()</text>
<text text-anchor="start" x="1206" y="-461.5" font-family="Cascadia Code NF" font-size="10.00">and 17 more...</text>
<text text-anchor="start" x="1180" y="-445.5" font-family="Cascadia Code NF" font-size="10.00">+</text>
<text text-anchor="start" x="1206" y="-445.5" font-family="Cascadia Code NF" font-size="10.00">MoveElements()</text>
<text text-anchor="start" x="1180" y="-429.5" font-family="Cascadia Code NF" font-size="10.00">+</text>
<text text-anchor="start" x="1206" y="-429.5" font-family="Cascadia Code NF" font-size="10.00">CopyElements()</text>
<text text-anchor="start" x="1180" y="-413.5" font-family="Cascadia Code NF" font-size="10.00">+</text>
<text text-anchor="start" x="1206" y="-413.5" font-family="Cascadia Code NF" font-size="10.00">SizeFor()</text>
<text text-anchor="start" x="1180" y="-397.5" font-family="Cascadia Code NF" font-size="10.00">+</text>
<text text-anchor="start" x="1206" y="-397.5" font-family="Cascadia Code NF" font-size="10.00">OffsetOfElementAt()</text>
<text text-anchor="start" x="1180" y="-381.5" font-family="Cascadia Code NF" font-size="10.00">#</text>
<text text-anchor="start" x="1206" y="-381.5" font-family="Cascadia Code NF" font-size="10.00">ConditionalWriteBarrier()</text>
<text text-anchor="start" x="1180" y="-365.5" font-family="Cascadia Code NF" font-size="10.00">#</text>
<text text-anchor="start" x="1206" y="-365.5" font-family="Cascadia Code NF" font-size="10.00">IsInBounds()</text>
<text text-anchor="start" x="1180" y="-349.5" font-family="Cascadia Code NF" font-size="10.00">#</text>
<text text-anchor="start" x="1206" y="-349.5" font-family="Cascadia Code NF" font-size="10.00">IsCowArray()</text>
<text text-anchor="start" x="1180" y="-333.5" font-family="Cascadia Code NF" font-size="10.00">#</text>
<text text-anchor="start" x="1206" y="-333.5" font-family="Cascadia Code NF" font-size="10.00">Allocate()</text>
<text text-anchor="start" x="1180" y="-317.5" font-family="Cascadia Code NF" font-size="10.00">#</text>
<text text-anchor="start" x="1206" y="-317.5" font-family="Cascadia Code NF" font-size="10.00">NewCapacityForIndex()</text>
<polygon fill="#bfbfbf" stroke="#bfbfbf" points="1160,-649 1160,-649 1392,-649 1392,-649 1160,-649"/>
<polygon fill="#bfbfbf" stroke="#bfbfbf" points="1160,-633 1160,-633 1392,-633 1392,-633 1160,-633"/>
<polygon fill="none" stroke="#bfbfbf" points="1160,-311 1160,-693 1392,-693 1392,-311 1160,-311"/>
</a>
</g>
</g>
<!-- Node3&#45;&gt;Node2 -->
<g id="edge2_Node000002_Node000003" class="edge">
<title>Node3&#45;&gt;Node2</title>
<g id="a_edge2_Node000002_Node000003"><a xlink:title=" ">
<path fill="none" stroke="#63b8ff" d="M1400.15,-389.62C1430.02,-362.37 1459.63,-335.35 1481.57,-315.33"/>
<polygon fill="none" stroke="#63b8ff" points="1397.87,-386.96 1392.85,-396.29 1402.59,-392.14 1397.87,-386.96"/>
</a>
</g>
</g>
<!-- Node4 -->
<g id="Node000004" class="node">
<title>Node4</title>
<g id="a_Node000004"><a xlink:href="$d6/d80/classv8_1_1internal_1_1TrustedObject.html" xlink:title=" ">
<polygon fill="white" stroke="none" points="974,-643 764,-643 764,-447 974,-447 974,-643"/>
<text text-anchor="start" x="788" y="-629.5" font-family="Cascadia Code NF" font-size="10.00">v8::internal::TrustedObject</text>
<text text-anchor="start" x="866" y="-613.5" font-family="Cascadia Code NF" font-size="10.00"> </text>
<text text-anchor="start" x="768" y="-597.5" font-family="Cascadia Code NF" font-size="10.00">+</text>
<text text-anchor="start" x="778" y="-597.5" font-family="Cascadia Code NF" font-size="10.00">ReadProtectedPointerField()</text>
<text text-anchor="start" x="768" y="-581.5" font-family="Cascadia Code NF" font-size="10.00">+</text>
<text text-anchor="start" x="778" y="-581.5" font-family="Cascadia Code NF" font-size="10.00">ReadProtectedPointerField()</text>
<text text-anchor="start" x="768" y="-565.5" font-family="Cascadia Code NF" font-size="10.00">+</text>
<text text-anchor="start" x="778" y="-565.5" font-family="Cascadia Code NF" font-size="10.00">WriteProtectedPointerField()</text>
<text text-anchor="start" x="768" y="-549.5" font-family="Cascadia Code NF" font-size="10.00">+</text>
<text text-anchor="start" x="778" y="-549.5" font-family="Cascadia Code NF" font-size="10.00">WriteProtectedPointerField()</text>
<text text-anchor="start" x="768" y="-533.5" font-family="Cascadia Code NF" font-size="10.00">+</text>
<text text-anchor="start" x="778" y="-533.5" font-family="Cascadia Code NF" font-size="10.00">IsProtectedPointerFieldCleared()</text>
<text text-anchor="start" x="768" y="-517.5" font-family="Cascadia Code NF" font-size="10.00">+</text>
<text text-anchor="start" x="778" y="-517.5" font-family="Cascadia Code NF" font-size="10.00">IsProtectedPointerFieldCleared()</text>
<text text-anchor="start" x="768" y="-501.5" font-family="Cascadia Code NF" font-size="10.00">+</text>
<text text-anchor="start" x="778" y="-501.5" font-family="Cascadia Code NF" font-size="10.00">ClearProtectedPointerField()</text>
<text text-anchor="start" x="768" y="-485.5" font-family="Cascadia Code NF" font-size="10.00">+</text>
<text text-anchor="start" x="778" y="-485.5" font-family="Cascadia Code NF" font-size="10.00">ClearProtectedPointerField()</text>
<text text-anchor="start" x="768" y="-469.5" font-family="Cascadia Code NF" font-size="10.00">+</text>
<text text-anchor="start" x="778" y="-469.5" font-family="Cascadia Code NF" font-size="10.00">RawProtectedPointerField()</text>
<text text-anchor="start" x="768" y="-453.5" font-family="Cascadia Code NF" font-size="10.00">+</text>
<text text-anchor="start" x="778" y="-453.5" font-family="Cascadia Code NF" font-size="10.00">OBJECT_CONSTRUCTORS()</text>
<polygon fill="#bfbfbf" stroke="#bfbfbf" points="764,-625 764,-625 974,-625 974,-625 764,-625"/>
<polygon fill="#bfbfbf" stroke="#bfbfbf" points="764,-609 764,-609 974,-609 974,-609 764,-609"/>
<polygon fill="none" stroke="#bfbfbf" points="764,-447 764,-643 974,-643 974,-447 764,-447"/>
</a>
</g>
</g>
<!-- Node4&#45;&gt;Node3 -->
<g id="edge3_Node000003_Node000004" class="edge">
<title>Node4&#45;&gt;Node3</title>
<g id="a_edge3_Node000003_Node000004"><a xlink:title=" ">
<path fill="none" stroke="#63b8ff" d="M984.95,-532.8C1039.79,-526.97 1105.25,-520.02 1160.08,-514.2"/>
<polygon fill="none" stroke="#63b8ff" points="984.85,-529.29 975.28,-533.82 985.59,-536.25 984.85,-529.29"/>
</a>
</g>
</g>
<!-- Node5 -->
<g id="Node000005" class="node">
<title>Node5</title>
<g id="a_Node000005"><a xlink:href="$d0/d31/classv8_1_1internal_1_1HeapObject.html" xlink:title=" ">
<polygon fill="white" stroke="none" points="608,-926 422,-926 422,-512 608,-512 608,-926"/>
<text text-anchor="start" x="443" y="-912.5" font-family="Cascadia Code NF" font-size="10.00">v8::internal::HeapObject</text>
<text text-anchor="start" x="512" y="-896.5" font-family="Cascadia Code NF" font-size="10.00"> </text>
<text text-anchor="start" x="426" y="-880.5" font-family="Cascadia Code NF" font-size="10.00">+</text>
<text text-anchor="start" x="436" y="-880.5" font-family="Cascadia Code NF" font-size="10.00">HeapObject()</text>
<text text-anchor="start" x="426" y="-864.5" font-family="Cascadia Code NF" font-size="10.00">+</text>
<text text-anchor="start" x="436" y="-864.5" font-family="Cascadia Code NF" font-size="10.00">set_map()</text>
<text text-anchor="start" x="426" y="-848.5" font-family="Cascadia Code NF" font-size="10.00">+</text>
<text text-anchor="start" x="436" y="-848.5" font-family="Cascadia Code NF" font-size="10.00">set_map_safe_transition()</text>
<text text-anchor="start" x="426" y="-832.5" font-family="Cascadia Code NF" font-size="10.00">+</text>
<text text-anchor="start" x="436" y="-832.5" font-family="Cascadia Code NF" font-size="10.00">map_slot()</text>
<text text-anchor="start" x="426" y="-816.5" font-family="Cascadia Code NF" font-size="10.00">+</text>
<text text-anchor="start" x="436" y="-816.5" font-family="Cascadia Code NF" font-size="10.00">set_map_no_write_barrier()</text>
<text text-anchor="start" x="426" y="-800.5" font-family="Cascadia Code NF" font-size="10.00">+</text>
<text text-anchor="start" x="436" y="-800.5" font-family="Cascadia Code NF" font-size="10.00">set_map_no_write_barrier()</text>
<text text-anchor="start" x="426" y="-784.5" font-family="Cascadia Code NF" font-size="10.00">+</text>
<text text-anchor="start" x="436" y="-784.5" font-family="Cascadia Code NF" font-size="10.00">set_map_safe_transition</text>
<text text-anchor="start" x="436" y="-771.75" font-family="Cascadia Code NF" font-size="10.00">_no_write_barrier()</text>
<text text-anchor="start" x="426" y="-755.5" font-family="Cascadia Code NF" font-size="10.00">+</text>
<text text-anchor="start" x="436" y="-755.5" font-family="Cascadia Code NF" font-size="10.00">set_map_safe_transition</text>
<text text-anchor="start" x="436" y="-742.75" font-family="Cascadia Code NF" font-size="10.00">_no_write_barrier()</text>
<text text-anchor="start" x="426" y="-726.5" font-family="Cascadia Code NF" font-size="10.00">+</text>
<text text-anchor="start" x="436" y="-726.5" font-family="Cascadia Code NF" font-size="10.00">set_map()</text>
<text text-anchor="start" x="426" y="-710.5" font-family="Cascadia Code NF" font-size="10.00">+</text>
<text text-anchor="start" x="436" y="-710.5" font-family="Cascadia Code NF" font-size="10.00">set_map_safe_transition()</text>
<text text-anchor="start" x="436" y="-694.5" font-family="Cascadia Code NF" font-size="10.00">and 69 more...</text>
<text text-anchor="start" x="426" y="-678.5" font-family="Cascadia Code NF" font-size="10.00">+</text>
<text text-anchor="start" x="436" y="-678.5" font-family="Cascadia Code NF" font-size="10.00">SetFillerMap()</text>
<text text-anchor="start" x="426" y="-662.5" font-family="Cascadia Code NF" font-size="10.00">+</text>
<text text-anchor="start" x="436" y="-662.5" font-family="Cascadia Code NF" font-size="10.00">FromAddress()</text>
<text text-anchor="start" x="426" y="-646.5" font-family="Cascadia Code NF" font-size="10.00">+</text>
<text text-anchor="start" x="436" y="-646.5" font-family="Cascadia Code NF" font-size="10.00">SeqCst_CompareAndSwapField()</text>
<text text-anchor="start" x="426" y="-630.5" font-family="Cascadia Code NF" font-size="10.00">+</text>
<text text-anchor="start" x="436" y="-630.5" font-family="Cascadia Code NF" font-size="10.00">Print()</text>
<text text-anchor="start" x="426" y="-614.5" font-family="Cascadia Code NF" font-size="10.00">+</text>
<text text-anchor="start" x="436" y="-614.5" font-family="Cascadia Code NF" font-size="10.00">Print()</text>
<text text-anchor="start" x="426" y="-598.5" font-family="Cascadia Code NF" font-size="10.00">+</text>
<text text-anchor="start" x="436" y="-598.5" font-family="Cascadia Code NF" font-size="10.00">RequiredAlignment()</text>
<text text-anchor="start" x="426" y="-582.5" font-family="Cascadia Code NF" font-size="10.00">#</text>
<text text-anchor="start" x="436" y="-582.5" font-family="Cascadia Code NF" font-size="10.00">HeapObject()</text>
<text text-anchor="start" x="426" y="-566.5" font-family="Cascadia Code NF" font-size="10.00">#</text>
<text text-anchor="start" x="436" y="-566.5" font-family="Cascadia Code NF" font-size="10.00">HeapObject()</text>
<text text-anchor="start" x="426" y="-550.5" font-family="Cascadia Code NF" font-size="10.00">#</text>
<text text-anchor="start" x="436" y="-550.5" font-family="Cascadia Code NF" font-size="10.00">field_address()</text>
<text text-anchor="start" x="426" y="-534.5" font-family="Cascadia Code NF" font-size="10.00">#</text>
<text text-anchor="start" x="436" y="-534.5" font-family="Cascadia Code NF" font-size="10.00">IsSmi()</text>
<text text-anchor="start" x="426" y="-518.5" font-family="Cascadia Code NF" font-size="10.00">#</text>
<text text-anchor="start" x="436" y="-518.5" font-family="Cascadia Code NF" font-size="10.00">IsHeapObject()</text>
<polygon fill="#bfbfbf" stroke="#bfbfbf" points="422,-908 422,-908 608,-908 608,-908 422,-908"/>
<polygon fill="#bfbfbf" stroke="#bfbfbf" points="422,-892 422,-892 608,-892 608,-892 422,-892"/>
<polygon fill="none" stroke="#bfbfbf" points="422,-512 422,-926 608,-926 608,-512 422,-512"/>
</a>
</g>
</g>
<!-- Node5&#45;&gt;Node4 -->
<g id="edge4_Node000004_Node000005" class="edge">
<title>Node5&#45;&gt;Node4</title>
<g id="a_edge4_Node000004_Node000005"><a xlink:title=" ">
<path fill="none" stroke="#63b8ff" d="M617.84,-668.66C663.78,-645.95 717.97,-619.16 764.15,-596.34"/>
<polygon fill="none" stroke="#63b8ff" points="616.34,-665.5 608.92,-673.07 619.44,-671.77 616.34,-665.5"/>
</a>
</g>
</g>
<!-- Node6 -->
<g id="Node000006" class="node">
<title>Node6</title>
<g id="a_Node000006"><a xlink:href="$df/d94/classv8_1_1internal_1_1TaggedImpl.html" xlink:title=" ">
<polygon fill="white" stroke="none" points="308,-808 148,-808 148,-538 308,-538 308,-808"/>
<text text-anchor="start" x="153" y="-794.5" font-family="Cascadia Code NF" font-size="10.00">v8::internal::TaggedImpl</text>
<text text-anchor="start" x="153" y="-781.75" font-family="Cascadia Code NF" font-size="10.00">&lt; HeapObjectReferenceType</text>
<text text-anchor="start" x="171" y="-769" font-family="Cascadia Code NF" font-size="10.00">::STRONG, Address &gt;</text>
<text text-anchor="start" x="225" y="-752.5" font-family="Cascadia Code NF" font-size="10.00"> </text>
<text text-anchor="start" x="165" y="-736.5" font-family="Cascadia Code NF" font-size="10.00">+</text>
<text text-anchor="start" x="188" y="-736.5" font-family="Cascadia Code NF" font-size="10.00">TaggedImpl()</text>
<text text-anchor="start" x="165" y="-720.5" font-family="Cascadia Code NF" font-size="10.00">+</text>
<text text-anchor="start" x="188" y="-720.5" font-family="Cascadia Code NF" font-size="10.00">TaggedImpl()</text>
<text text-anchor="start" x="165" y="-704.5" font-family="Cascadia Code NF" font-size="10.00">+</text>
<text text-anchor="start" x="188" y="-704.5" font-family="Cascadia Code NF" font-size="10.00">operator bool()</text>
<text text-anchor="start" x="165" y="-688.5" font-family="Cascadia Code NF" font-size="10.00">+</text>
<text text-anchor="start" x="188" y="-688.5" font-family="Cascadia Code NF" font-size="10.00">operator==()</text>
<text text-anchor="start" x="165" y="-672.5" font-family="Cascadia Code NF" font-size="10.00">+</text>
<text text-anchor="start" x="188" y="-672.5" font-family="Cascadia Code NF" font-size="10.00">operator!=()</text>
<text text-anchor="start" x="165" y="-656.5" font-family="Cascadia Code NF" font-size="10.00">+</text>
<text text-anchor="start" x="188" y="-656.5" font-family="Cascadia Code NF" font-size="10.00">SafeEquals()</text>
<text text-anchor="start" x="165" y="-640.5" font-family="Cascadia Code NF" font-size="10.00">+</text>
<text text-anchor="start" x="188" y="-640.5" font-family="Cascadia Code NF" font-size="10.00">operator&lt;()</text>
<text text-anchor="start" x="165" y="-624.5" font-family="Cascadia Code NF" font-size="10.00">+</text>
<text text-anchor="start" x="188" y="-624.5" font-family="Cascadia Code NF" font-size="10.00">ptr()</text>
<text text-anchor="start" x="165" y="-608.5" font-family="Cascadia Code NF" font-size="10.00">+</text>
<text text-anchor="start" x="188" y="-608.5" font-family="Cascadia Code NF" font-size="10.00">IsObject()</text>
<text text-anchor="start" x="165" y="-592.5" font-family="Cascadia Code NF" font-size="10.00">+</text>
<text text-anchor="start" x="188" y="-592.5" font-family="Cascadia Code NF" font-size="10.00">IsSmi()</text>
<text text-anchor="start" x="188" y="-576.5" font-family="Cascadia Code NF" font-size="10.00">and 25 more...</text>
<text text-anchor="start" x="165" y="-560.5" font-family="Cascadia Code NF" font-size="10.00">#</text>
<text text-anchor="start" x="188" y="-560.5" font-family="Cascadia Code NF" font-size="10.00">ptr_location()</text>
<text text-anchor="start" x="165" y="-544.5" font-family="Cascadia Code NF" font-size="10.00">#</text>
<text text-anchor="start" x="188" y="-544.5" font-family="Cascadia Code NF" font-size="10.00">ptr_location()</text>
<polygon fill="#bfbfbf" stroke="#bfbfbf" points="148,-764 148,-764 308,-764 308,-764 148,-764"/>
<polygon fill="#bfbfbf" stroke="#bfbfbf" points="148,-748 148,-748 308,-748 308,-748 148,-748"/>
<polygon fill="none" stroke="#bfbfbf" points="148,-538 148,-808 308,-808 308,-538 148,-538"/>
</a>
</g>
</g>
<!-- Node6&#45;&gt;Node5 -->
<g id="edge5_Node000005_Node000006" class="edge">
<title>Node6&#45;&gt;Node5</title>
<g id="a_edge5_Node000005_Node000006"><a xlink:title=" ">
<path fill="none" stroke="#63b8ff" d="M318.64,-687.47C351.65,-692.8 389.07,-698.84 422.26,-704.19"/>
<polygon fill="none" stroke="#63b8ff" points="319.56,-684.07 309.13,-685.93 318.44,-690.98 319.56,-684.07"/>
</a>
</g>
</g>
<!-- Node7 -->
<g id="Node000007" class="node">
<title>Node7</title>
<g id="a_Node000007"><a xlink:title=" ">
<polygon fill="white" stroke="none" points="40,-149 0,-149 0,-97 40,-97 40,-149"/>
<text text-anchor="start" x="5" y="-135.5" font-family="Cascadia Code NF" font-size="10.00">const</text>
<text text-anchor="start" x="17" y="-119.5" font-family="Cascadia Code NF" font-size="10.00"> </text>
<text text-anchor="start" x="17" y="-103.5" font-family="Cascadia Code NF" font-size="10.00"> </text>
<polygon fill="#bfbfbf" stroke="#bfbfbf" points="0,-131 0,-131 40,-131 40,-131 0,-131"/>
<polygon fill="#bfbfbf" stroke="#bfbfbf" points="0,-115 0,-115 40,-115 40,-115 0,-115"/>
<polygon fill="none" stroke="#bfbfbf" points="0,-97 0,-149 40,-149 40,-97 0,-97"/>
</a>
</g>
</g>
<!-- Node7&#45;&gt;Node1 -->
<g id="edge12_Node000001_Node000007" class="edge">
<title>Node7&#45;&gt;Node1</title>
<g id="a_edge12_Node000001_Node000007"><a xlink:title=" ">
<path fill="none" stroke="#63b8ff" d="M39.99,-120.54C76.26,-116.05 157.95,-107 227,-107 227,-107 227,-107 1519,-107 1556.21,-107 1596.01,-113.83 1631.63,-122.55"/>
<polygon fill="none" stroke="#63b8ff" points="1631.54,-122.52 1638.34,-120.12 1643.18,-125.48 1636.38,-127.88 1631.54,-122.52"/>
</a>
</g>
<text text-anchor="middle" x="869" y="-237.75" font-family="Cascadia Code NF" font-size="10.00" fill="grey"> +kBytecodeOffsetRawOffset</text>
<text text-anchor="middle" x="869" y="-225" font-family="Cascadia Code NF" font-size="10.00" fill="grey">+kDeoptEntrySize</text>
<text text-anchor="middle" x="869" y="-212.25" font-family="Cascadia Code NF" font-size="10.00" fill="grey">+kDeoptExitStartIndex</text>
<text text-anchor="middle" x="869" y="-199.5" font-family="Cascadia Code NF" font-size="10.00" fill="grey">+kEagerDeoptCountIndex</text>
<text text-anchor="middle" x="869" y="-186.75" font-family="Cascadia Code NF" font-size="10.00" fill="grey">+kFirstDeoptEntryIndex</text>
<text text-anchor="middle" x="869" y="-174" font-family="Cascadia Code NF" font-size="10.00" fill="grey">+kFrameTranslationIndex</text>
<text text-anchor="middle" x="869" y="-161.25" font-family="Cascadia Code NF" font-size="10.00" fill="grey">+kInlinedFunctionCountIndex</text>
<text text-anchor="middle" x="869" y="-148.5" font-family="Cascadia Code NF" font-size="10.00" fill="grey">+kInliningPositionsIndex</text>
<text text-anchor="middle" x="869" y="-135.75" font-family="Cascadia Code NF" font-size="10.00" fill="grey">+kLazyDeoptCountIndex</text>
<text text-anchor="middle" x="869" y="-123" font-family="Cascadia Code NF" font-size="10.00" fill="grey">+kLiteralArrayIndex</text>
<text text-anchor="middle" x="869" y="-110.25" font-family="Cascadia Code NF" font-size="10.00" fill="grey">...</text>
</g>
<!-- Node7&#45;&gt;Node6 -->
<g id="edge6_Node000006_Node000007" class="edge">
<title>Node7&#45;&gt;Node6</title>
<g id="a_edge6_Node000006_Node000007"><a xlink:title=" ">
<path fill="none" stroke="#63b8ff" d="M29.9,-148.89C50.16,-207.54 101.53,-354.96 148,-477 154.07,-492.93 160.53,-509.54 167.06,-526.05"/>
<polygon fill="none" stroke="#63b8ff" points="167.06,-526.05 172.99,-530.16 171.48,-537.21 165.55,-533.1 167.06,-526.05"/>
</a>
</g>
<text text-anchor="middle" x="94" y="-445" font-family="Cascadia Code NF" font-size="10.00" fill="grey"> +kCanBeWeak</text>
<text text-anchor="middle" x="94" y="-432.25" font-family="Cascadia Code NF" font-size="10.00" fill="grey">+kIsFull</text>
</g>
<!-- Node8 -->
<g id="Node000008" class="node">
<title>Node8</title>
<g id="a_Node000008"><a xlink:href="$d1/da0/classint.html" xlink:title=" ">
<polygon fill="white" stroke="none" points="242,-468 214,-468 214,-416 242,-416 242,-468"/>
<text text-anchor="start" x="219" y="-454.5" font-family="Cascadia Code NF" font-size="10.00">int</text>
<text text-anchor="start" x="225" y="-438.5" font-family="Cascadia Code NF" font-size="10.00"> </text>
<text text-anchor="start" x="225" y="-422.5" font-family="Cascadia Code NF" font-size="10.00"> </text>
<polygon fill="#bfbfbf" stroke="#bfbfbf" points="214,-450 214,-450 242,-450 242,-450 214,-450"/>
<polygon fill="#bfbfbf" stroke="#bfbfbf" points="214,-434 214,-434 242,-434 242,-434 214,-434"/>
<polygon fill="none" stroke="#bfbfbf" points="214,-416 214,-468 242,-468 242,-416 214,-416"/>
</a>
</g>
</g>
<!-- Node8&#45;&gt;Node2 -->
<g id="edge11_Node000002_Node000008" class="edge">
<title>Node8&#45;&gt;Node2</title>
<g id="a_edge11_Node000002_Node000008"><a xlink:title=" ">
<path fill="none" stroke="#63b8ff" d="M241.77,-428.44C279.46,-389.99 395.02,-283 514,-283 514,-283 514,-283 1277,-283 1322.79,-283 1373.49,-283 1416.45,-283"/>
<polygon fill="none" stroke="#63b8ff" points="1416.33,-283 1422.33,-279 1428.33,-283 1422.33,-287 1416.33,-283"/>
</a>
</g>
<text text-anchor="middle" x="869" y="-311.75" font-family="Cascadia Code NF" font-size="10.00" fill="grey"> +kLengthOffset</text>
<text text-anchor="middle" x="869" y="-299" font-family="Cascadia Code NF" font-size="10.00" fill="grey">+kMaxLength</text>
<text text-anchor="middle" x="869" y="-286.25" font-family="Cascadia Code NF" font-size="10.00" fill="grey">+kMaxRegularLength</text>
</g>
<!-- Node8&#45;&gt;Node3 -->
<g id="edge10_Node000003_Node000008" class="edge">
<title>Node8&#45;&gt;Node3</title>
<g id="a_edge10_Node000003_Node000008"><a xlink:title=" ">
<path fill="none" stroke="#63b8ff" d="M241.84,-440.62C314.34,-433.08 679.77,-398.73 974,-438 1031.48,-445.67 1094.33,-458.34 1147.67,-470.4"/>
<polygon fill="none" stroke="#63b8ff" points="1147.73,-470.41 1154.47,-467.85 1159.42,-473.08 1152.68,-475.65 1147.73,-470.41"/>
</a>
</g>
<text text-anchor="middle" x="686" y="-474.25" font-family="Cascadia Code NF" font-size="10.00" fill="grey"> +kCapacityOffset</text>
<text text-anchor="middle" x="686" y="-461.5" font-family="Cascadia Code NF" font-size="10.00" fill="grey">+kHeaderSize</text>
<text text-anchor="middle" x="686" y="-448.75" font-family="Cascadia Code NF" font-size="10.00" fill="grey">+kMaxCapacity</text>
<text text-anchor="middle" x="686" y="-436" font-family="Cascadia Code NF" font-size="10.00" fill="grey">+kMaxRegularCapacity</text>
<text text-anchor="middle" x="686" y="-423.25" font-family="Cascadia Code NF" font-size="10.00" fill="grey">+kObjectsOffset</text>
</g>
<!-- Node8&#45;&gt;Node4 -->
<g id="edge8_Node000004_Node000008" class="edge">
<title>Node8&#45;&gt;Node4</title>
<g id="a_edge8_Node000004_Node000008"><a xlink:title=" ">
<path fill="none" stroke="#63b8ff" d="M241.82,-443.25C290.03,-448.04 465.09,-466.15 608,-490.25 655.19,-498.21 706.84,-508.71 751.58,-518.39"/>
<polygon fill="none" stroke="#63b8ff" points="751.7,-518.41 758.41,-515.78 763.43,-520.96 756.71,-523.6 751.7,-518.41"/>
</a>
</g>
<text text-anchor="middle" x="515" y="-493.25" font-family="Cascadia Code NF" font-size="10.00" fill="grey"> +kHeaderSize</text>
</g>
<!-- Node8&#45;&gt;Node5 -->
<g id="edge7_Node000005_Node000008" class="edge">
<title>Node8&#45;&gt;Node5</title>
<g id="a_edge7_Node000005_Node000008"><a xlink:title=" ">
<path fill="none" stroke="#63b8ff" d="M241.99,-454.62C272.04,-483.84 348.75,-558.39 413.07,-620.9"/>
<polygon fill="none" stroke="#63b8ff" points="412.8,-620.64 419.89,-621.96 421.41,-629.01 414.32,-627.7 412.8,-620.64"/>
</a>
</g>
<text text-anchor="middle" x="365" y="-621" font-family="Cascadia Code NF" font-size="10.00" fill="grey"> +kHeaderSize</text>
<text text-anchor="middle" x="365" y="-608.25" font-family="Cascadia Code NF" font-size="10.00" fill="grey">+kMapOffset</text>
</g>
<!-- Node9 -->
<g id="Node000009" class="node">
<title>Node9</title>
<g id="a_Node000009"><a xlink:title=" ">
<polygon fill="white" stroke="none" points="886,-391 852,-391 852,-339 886,-339 886,-391"/>
<text text-anchor="start" x="857" y="-377.5" font-family="Cascadia Code NF" font-size="10.00">bool</text>
<text text-anchor="start" x="866" y="-361.5" font-family="Cascadia Code NF" font-size="10.00"> </text>
<text text-anchor="start" x="866" y="-345.5" font-family="Cascadia Code NF" font-size="10.00"> </text>
<polygon fill="#bfbfbf" stroke="#bfbfbf" points="852,-373 852,-373 886,-373 886,-373 852,-373"/>
<polygon fill="#bfbfbf" stroke="#bfbfbf" points="852,-357 852,-357 886,-357 886,-357 852,-357"/>
<polygon fill="none" stroke="#bfbfbf" points="852,-339 852,-391 886,-391 886,-339 852,-339"/>
</a>
</g>
</g>
<!-- Node9&#45;&gt;Node3 -->
<g id="edge9_Node000003_Node000009" class="edge">
<title>Node9&#45;&gt;Node3</title>
<g id="a_edge9_Node000003_Node000009"><a xlink:title=" ">
<path fill="none" stroke="#63b8ff" d="M885.8,-363.48C928.86,-359.99 1051.1,-354.37 1142,-392.25 1144.18,-393.16 1146.36,-394.12 1148.53,-395.12"/>
<polygon fill="none" stroke="#63b8ff" points="1148.49,-395.1 1155.64,-394.22 1159.21,-400.49 1152.05,-401.37 1148.49,-395.1"/>
</a>
</g>
<text text-anchor="middle" x="1067" y="-395.25" font-family="Cascadia Code NF" font-size="10.00" fill="grey"> +kElementsAreMaybeObject</text>
</g>
</g>
</svg>
