<?xml version="1.0" encoding="UTF-8" standalone="no"?>
<!DOCTYPE svg PUBLIC "-//W3C//DTD SVG 1.1//EN"
 "http://www.w3.org/Graphics/SVG/1.1/DTD/svg11.dtd">
<!-- Generated by graphviz version 11.0.0 (20240428.1522)
 -->
<!-- Title: v8::internal::ScopeInfo::LocalNamesRange&lt; ScopeInfoPtr &gt;::Iterator Pages: 1 -->
<svg width="186pt" height="166pt"
 viewBox="0.00 0.00 186.00 166.00" xmlns="http://www.w3.org/2000/svg" xmlns:xlink="http://www.w3.org/1999/xlink">
<g id="graph0" class="graph" transform="scale(1 1) rotate(0) translate(4 162)">
<title>v8::internal::ScopeInfo::LocalNamesRange&lt; ScopeInfoPtr &gt;::Iterator</title>
<!-- Node1 -->
<g id="Node000001" class="node">
<title>Node1</title>
<g id="a_Node000001"><a xlink:title=" ">
<polygon fill="#999999" stroke="none" points="178,-158 0,-158 0,0 178,0 178,-158"/>
<text text-anchor="start" x="5" y="-144.5" font-family="Cascadia Code NF" font-size="10.00">v8::internal::ScopeInfo</text>
<text text-anchor="start" x="5" y="-131.75" font-family="Cascadia Code NF" font-size="10.00">::LocalNamesRange&lt; ScopeInfo</text>
<text text-anchor="start" x="44" y="-119" font-family="Cascadia Code NF" font-size="10.00">Ptr &gt;::Iterator</text>
<text text-anchor="start" x="86" y="-102.5" font-family="Cascadia Code NF" font-size="10.00"> </text>
<text text-anchor="start" x="26" y="-86.5" font-family="Cascadia Code NF" font-size="10.00">+</text>
<text text-anchor="start" x="58" y="-86.5" font-family="Cascadia Code NF" font-size="10.00">Iterator()</text>
<text text-anchor="start" x="26" y="-70.5" font-family="Cascadia Code NF" font-size="10.00">+</text>
<text text-anchor="start" x="58" y="-70.5" font-family="Cascadia Code NF" font-size="10.00">operator++()</text>
<text text-anchor="start" x="26" y="-54.5" font-family="Cascadia Code NF" font-size="10.00">+</text>
<text text-anchor="start" x="58" y="-54.5" font-family="Cascadia Code NF" font-size="10.00">name()</text>
<text text-anchor="start" x="26" y="-38.5" font-family="Cascadia Code NF" font-size="10.00">+</text>
<text text-anchor="start" x="58" y="-38.5" font-family="Cascadia Code NF" font-size="10.00">name()</text>
<text text-anchor="start" x="26" y="-22.5" font-family="Cascadia Code NF" font-size="10.00">+</text>
<text text-anchor="start" x="58" y="-22.5" font-family="Cascadia Code NF" font-size="10.00">operator*()</text>
<text text-anchor="start" x="26" y="-6.5" font-family="Cascadia Code NF" font-size="10.00">+</text>
<text text-anchor="start" x="58" y="-6.5" font-family="Cascadia Code NF" font-size="10.00">index()</text>
<polygon fill="#666666" stroke="#666666" points="0,-114 0,-114 178,-114 178,-114 0,-114"/>
<polygon fill="#666666" stroke="#666666" points="0,-98 0,-98 178,-98 178,-98 0,-98"/>
<polygon fill="none" stroke="#666666" points="0,0 0,-158 178,-158 178,0 0,0"/>
</a>
</g>
</g>
</g>
</svg>
