<?xml version="1.0" encoding="UTF-8" standalone="no"?>
<!DOCTYPE svg PUBLIC "-//W3C//DTD SVG 1.1//EN"
 "http://www.w3.org/Graphics/SVG/1.1/DTD/svg11.dtd">
<!-- Generated by graphviz version 11.0.0 (20240428.1522)
 -->
<!-- Title: v8::internal::CountOperation Pages: 1 -->
<!--zoomable 236 -->

<svg id="main" version="1.1" xmlns="http://www.w3.org/2000/svg" xmlns:xlink="http://www.w3.org/1999/xlink" xml:space="preserve" onload="init(evt)">
<style type="text/css"><![CDATA[
.node, .edge {opacity: 0.7;}
.node.selected, .edge.selected {opacity: 1;}
.edge:hover path { stroke: red; }
.edge:hover polygon { stroke: red; fill: red; }
svg#main { background-color: #111; }
]]></style>

<defs>
  <circle id="rim" cx="0" cy="0" r="7"/>
  <circle id="rim2" cx="0" cy="0" r="3.5"/>
  <g id="zoomPlus">
    <use xlink:href="#rim" fill="#404040"><set attributeName="fill" to="#808080" begin="zoomplus.mouseover" end="zoomplus.mouseout"/></use>
    <path d="M-4,0h8M0,-4v8" fill="none" stroke="white" stroke-width="1.5" pointer-events="none"/>
  </g>
  <g id="zoomMin">
    <use xlink:href="#rim" fill="#404040"><set attributeName="fill" to="#808080" begin="zoomminus.mouseover" end="zoomminus.mouseout"/></use>
    <path d="M-4,0h8" fill="none" stroke="white" stroke-width="1.5" pointer-events="none"/>
  </g>
  <g id="arrowUp" transform="translate(30 24)">
    <use xlink:href="#rim"/>
    <path pointer-events="none" fill="none" stroke="white" stroke-width="1.5" d="M0,-3.0v7 M-2.5,-0.5L0,-3.0L2.5,-0.5"/>
  </g>
  <g id="arrowRight" transform="rotate(90) translate(36 -43)">
    <use xlink:href="#rim"/>
    <path pointer-events="none" fill="none" stroke="white" stroke-width="1.5" d="M0,-3.0v7 M-2.5,-0.5L0,-3.0L2.5,-0.5"/>
  </g>
  <g id="arrowDown" transform="rotate(180) translate(-30 -48)">
    <use xlink:href="#rim"/>
    <path pointer-events="none" fill="none" stroke="white" stroke-width="1.5" d="M0,-3.0v7 M-2.5,-0.5L0,-3.0L2.5,-0.5"/>
  </g>
  <g id="arrowLeft" transform="rotate(270) translate(-36 17)">
    <use xlink:href="#rim"/>
    <path pointer-events="none" fill="none" stroke="white" stroke-width="1.5" d="M0,-3.0v7 M-2.5,-0.5L0,-3.0L2.5,-0.5"/>
  </g>
  <g id="resetDef">
    <use xlink:href="#rim2" fill="#404040"><set attributeName="fill" to="#808080" begin="reset.mouseover" end="reset.mouseout"/></use>
  </g>
</defs>
<script type="application/ecmascript">
var viewWidth = 880;
var viewHeight = 236;
var sectionId = 'dynsection-1';
</script>
<script type="application/ecmascript" xlink:href="../../svg.min.js"/>
<svg id="graph" class="graph">
<g id="viewport">
<title>v8::internal::CountOperation</title>
<!-- Node1 -->
<g id="Node000001" class="node">
<title>Node1</title>
<g id="a_Node000001"><a xlink:title=" ">
<polygon fill="#999999" stroke="none" points="872,-164 694,-164 694,-64 872,-64 872,-164"/>
<text text-anchor="start" x="699" y="-150.5" font-family="Cascadia Code NF" font-size="10.00">v8::internal::CountOperation</text>
<text text-anchor="start" x="780" y="-134.5" font-family="Cascadia Code NF" font-size="10.00"> </text>
<text text-anchor="start" x="720" y="-118.5" font-family="Cascadia Code NF" font-size="10.00">+</text>
<text text-anchor="start" x="752" y="-118.5" font-family="Cascadia Code NF" font-size="10.00">is_prefix()</text>
<text text-anchor="start" x="720" y="-102.5" font-family="Cascadia Code NF" font-size="10.00">+</text>
<text text-anchor="start" x="752" y="-102.5" font-family="Cascadia Code NF" font-size="10.00">is_postfix()</text>
<text text-anchor="start" x="720" y="-86.5" font-family="Cascadia Code NF" font-size="10.00">+</text>
<text text-anchor="start" x="752" y="-86.5" font-family="Cascadia Code NF" font-size="10.00">op()</text>
<text text-anchor="start" x="720" y="-70.5" font-family="Cascadia Code NF" font-size="10.00">+</text>
<text text-anchor="start" x="752" y="-70.5" font-family="Cascadia Code NF" font-size="10.00">expression()</text>
<polygon fill="#666666" stroke="#666666" points="694,-146 694,-146 872,-146 872,-146 694,-146"/>
<polygon fill="#666666" stroke="#666666" points="694,-130 694,-130 872,-130 872,-130 694,-130"/>
<polygon fill="none" stroke="#666666" points="694,-64 694,-164 872,-164 872,-64 694,-64"/>
</a>
</g>
</g>
<!-- Node2 -->
<g id="Node000002" class="node">
<title>Node2</title>
<g id="a_Node000002"><a xlink:href="../../df/d1f/classv8_1_1internal_1_1Expression.html" target="_top" xlink:title=" ">
<polygon fill="white" stroke="none" points="658,-228 454,-228 454,0 658,0 658,-228"/>
<text text-anchor="start" x="484" y="-214.5" font-family="Cascadia Code NF" font-size="10.00">v8::internal::Expression</text>
<text text-anchor="start" x="553" y="-198.5" font-family="Cascadia Code NF" font-size="10.00"> </text>
<text text-anchor="start" x="458" y="-182.5" font-family="Cascadia Code NF" font-size="10.00">+</text>
<text text-anchor="start" x="468" y="-182.5" font-family="Cascadia Code NF" font-size="10.00">IsValidReferenceExpression()</text>
<text text-anchor="start" x="458" y="-166.5" font-family="Cascadia Code NF" font-size="10.00">+</text>
<text text-anchor="start" x="468" y="-166.5" font-family="Cascadia Code NF" font-size="10.00">IsPrivateName()</text>
<text text-anchor="start" x="458" y="-150.5" font-family="Cascadia Code NF" font-size="10.00">+</text>
<text text-anchor="start" x="468" y="-150.5" font-family="Cascadia Code NF" font-size="10.00">ToBooleanIsTrue()</text>
<text text-anchor="start" x="458" y="-134.5" font-family="Cascadia Code NF" font-size="10.00">+</text>
<text text-anchor="start" x="468" y="-134.5" font-family="Cascadia Code NF" font-size="10.00">ToBooleanIsFalse()</text>
<text text-anchor="start" x="458" y="-118.5" font-family="Cascadia Code NF" font-size="10.00">+</text>
<text text-anchor="start" x="468" y="-118.5" font-family="Cascadia Code NF" font-size="10.00">IsPropertyName()</text>
<text text-anchor="start" x="458" y="-102.5" font-family="Cascadia Code NF" font-size="10.00">+</text>
<text text-anchor="start" x="468" y="-102.5" font-family="Cascadia Code NF" font-size="10.00">IsAnonymousFunctionDefinition()</text>
<text text-anchor="start" x="458" y="-86.5" font-family="Cascadia Code NF" font-size="10.00">+</text>
<text text-anchor="start" x="468" y="-86.5" font-family="Cascadia Code NF" font-size="10.00">IsConciseMethodDefinition()</text>
<text text-anchor="start" x="458" y="-70.5" font-family="Cascadia Code NF" font-size="10.00">+</text>
<text text-anchor="start" x="468" y="-70.5" font-family="Cascadia Code NF" font-size="10.00">IsAccessorFunctionDefinition()</text>
<text text-anchor="start" x="458" y="-54.5" font-family="Cascadia Code NF" font-size="10.00">+</text>
<text text-anchor="start" x="468" y="-54.5" font-family="Cascadia Code NF" font-size="10.00">IsSmiLiteral()</text>
<text text-anchor="start" x="458" y="-38.5" font-family="Cascadia Code NF" font-size="10.00">+</text>
<text text-anchor="start" x="468" y="-38.5" font-family="Cascadia Code NF" font-size="10.00">IsNumberLiteral()</text>
<text text-anchor="start" x="468" y="-22.5" font-family="Cascadia Code NF" font-size="10.00">and 12 more...</text>
<text text-anchor="start" x="458" y="-6.5" font-family="Cascadia Code NF" font-size="10.00">#</text>
<text text-anchor="start" x="468" y="-6.5" font-family="Cascadia Code NF" font-size="10.00">Expression()</text>
<polygon fill="#bfbfbf" stroke="#bfbfbf" points="454,-210 454,-210 658,-210 658,-210 454,-210"/>
<polygon fill="#bfbfbf" stroke="#bfbfbf" points="454,-194 454,-194 658,-194 658,-194 454,-194"/>
<polygon fill="none" stroke="#bfbfbf" points="454,0 454,-228 658,-228 658,0 454,0"/>
</a>
</g>
</g>
<!-- Node2&#45;&gt;Node1 -->
<g id="edge1_Node000001_Node000002" class="edge">
<title>Node2&#45;&gt;Node1</title>
<g id="a_edge1_Node000001_Node000002"><a xlink:title=" ">
<path fill="none" stroke="#63b8ff" d="M669.3,-114C677.61,-114 685.92,-114 694.06,-114"/>
<polygon fill="none" stroke="#63b8ff" points="669.5,-110.5 659.5,-114 669.5,-117.5 669.5,-110.5"/>
</a>
</g>
</g>
<!-- Node3 -->
<g id="Node000003" class="node">
<title>Node3</title>
<g id="a_Node000003"><a xlink:href="../../de/d53/classv8_1_1internal_1_1AstNode.html" target="_top" xlink:title=" ">
<polygon fill="white" stroke="none" points="418,-172 262,-172 262,-56 418,-56 418,-172"/>
<text text-anchor="start" x="277" y="-158.5" font-family="Cascadia Code NF" font-size="10.00">v8::internal::AstNode</text>
<text text-anchor="start" x="337" y="-142.5" font-family="Cascadia Code NF" font-size="10.00"> </text>
<text text-anchor="start" x="266" y="-126.5" font-family="Cascadia Code NF" font-size="10.00">+</text>
<text text-anchor="start" x="276" y="-126.5" font-family="Cascadia Code NF" font-size="10.00">node_type()</text>
<text text-anchor="start" x="266" y="-110.5" font-family="Cascadia Code NF" font-size="10.00">+</text>
<text text-anchor="start" x="276" y="-110.5" font-family="Cascadia Code NF" font-size="10.00">position()</text>
<text text-anchor="start" x="266" y="-94.5" font-family="Cascadia Code NF" font-size="10.00">+</text>
<text text-anchor="start" x="276" y="-94.5" font-family="Cascadia Code NF" font-size="10.00">AsIterationStatement()</text>
<text text-anchor="start" x="266" y="-78.5" font-family="Cascadia Code NF" font-size="10.00">+</text>
<text text-anchor="start" x="276" y="-78.5" font-family="Cascadia Code NF" font-size="10.00">AsMaterializedLiteral()</text>
<text text-anchor="start" x="266" y="-62.5" font-family="Cascadia Code NF" font-size="10.00">#</text>
<text text-anchor="start" x="276" y="-62.5" font-family="Cascadia Code NF" font-size="10.00">AstNode()</text>
<polygon fill="#bfbfbf" stroke="#bfbfbf" points="262,-154 262,-154 418,-154 418,-154 262,-154"/>
<polygon fill="#bfbfbf" stroke="#bfbfbf" points="262,-138 262,-138 418,-138 418,-138 262,-138"/>
<polygon fill="none" stroke="#bfbfbf" points="262,-56 262,-172 418,-172 418,-56 262,-56"/>
</a>
</g>
</g>
<!-- Node3&#45;&gt;Node2 -->
<g id="edge2_Node000002_Node000003" class="edge">
<title>Node3&#45;&gt;Node2</title>
<g id="a_edge2_Node000002_Node000003"><a xlink:title=" ">
<path fill="none" stroke="#63b8ff" d="M429.38,-114C437.55,-114 445.86,-114 454.13,-114"/>
<polygon fill="none" stroke="#63b8ff" points="429.47,-110.5 419.47,-114 429.47,-117.5 429.47,-110.5"/>
</a>
</g>
</g>
<!-- Node4 -->
<g id="Node000004" class="node">
<title>Node4</title>
<g id="a_Node000004"><a xlink:href="../../dc/dca/classv8_1_1internal_1_1ZoneObject.html" target="_top" xlink:title=" ">
<polygon fill="white" stroke="none" points="154,-211 0,-211 0,-111 154,-111 154,-211"/>
<text text-anchor="start" x="5" y="-197.5" font-family="Cascadia Code NF" font-size="10.00">v8::internal::ZoneObject</text>
<text text-anchor="start" x="74" y="-181.5" font-family="Cascadia Code NF" font-size="10.00"> </text>
<text text-anchor="start" x="12.5" y="-165.5" font-family="Cascadia Code NF" font-size="10.00">+</text>
<text text-anchor="start" x="31" y="-165.5" font-family="Cascadia Code NF" font-size="10.00">operator new()</text>
<text text-anchor="start" x="12.5" y="-149.5" font-family="Cascadia Code NF" font-size="10.00">+</text>
<text text-anchor="start" x="31" y="-149.5" font-family="Cascadia Code NF" font-size="10.00">operator new()</text>
<text text-anchor="start" x="12.5" y="-133.5" font-family="Cascadia Code NF" font-size="10.00">+</text>
<text text-anchor="start" x="31" y="-133.5" font-family="Cascadia Code NF" font-size="10.00">operator delete()</text>
<text text-anchor="start" x="12.5" y="-117.5" font-family="Cascadia Code NF" font-size="10.00">+</text>
<text text-anchor="start" x="31" y="-117.5" font-family="Cascadia Code NF" font-size="10.00">operator delete()</text>
<polygon fill="#bfbfbf" stroke="#bfbfbf" points="0,-193 0,-193 154,-193 154,-193 0,-193"/>
<polygon fill="#bfbfbf" stroke="#bfbfbf" points="0,-177 0,-177 154,-177 154,-177 0,-177"/>
<polygon fill="none" stroke="#bfbfbf" points="0,-111 0,-211 154,-211 154,-111 0,-111"/>
</a>
</g>
</g>
<!-- Node4&#45;&gt;Node3 -->
<g id="edge3_Node000003_Node000004" class="edge">
<title>Node4&#45;&gt;Node3</title>
<g id="a_edge3_Node000003_Node000004"><a xlink:title=" ">
<path fill="none" stroke="#63b8ff" d="M164.79,-145.37C196.24,-139.71 231.52,-133.35 262.06,-127.85"/>
<polygon fill="none" stroke="#63b8ff" points="164.55,-141.86 155.33,-147.07 165.79,-148.75 164.55,-141.86"/>
</a>
</g>
</g>
<!-- Node5 -->
<g id="Node000005" class="node">
<title>Node5</title>
<g id="a_Node000005"><a xlink:href="../../d3/d87/classuint32__t.html" target="_top" xlink:title=" ">
<polygon fill="white" stroke="none" points="106,-93 48,-93 48,-41 106,-41 106,-93"/>
<text text-anchor="start" x="53" y="-79.5" font-family="Cascadia Code NF" font-size="10.00">uint32_t</text>
<text text-anchor="start" x="74" y="-63.5" font-family="Cascadia Code NF" font-size="10.00"> </text>
<text text-anchor="start" x="74" y="-47.5" font-family="Cascadia Code NF" font-size="10.00"> </text>
<polygon fill="#bfbfbf" stroke="#bfbfbf" points="48,-75 48,-75 106,-75 106,-75 48,-75"/>
<polygon fill="#bfbfbf" stroke="#bfbfbf" points="48,-59 48,-59 106,-59 106,-59 48,-59"/>
<polygon fill="none" stroke="#bfbfbf" points="48,-41 48,-93 106,-93 106,-41 48,-41"/>
</a>
</g>
</g>
<!-- Node5&#45;&gt;Node3 -->
<g id="edge4_Node000003_Node000005" class="edge">
<title>Node5&#45;&gt;Node3</title>
<g id="a_edge4_Node000003_Node000005"><a xlink:title=" ">
<path fill="none" stroke="#63b8ff" d="M105.93,-72.03C140,-78.16 199.25,-88.84 249.49,-97.88"/>
<polygon fill="none" stroke="#63b8ff" points="249.35,-97.86 255.96,-94.98 261.16,-99.98 254.55,-102.86 249.35,-97.86"/>
</a>
</g>
<text text-anchor="middle" x="208" y="-99.25" font-family="Cascadia Code NF" font-size="10.00" fill="grey"> #bit_field_</text>
</g>
</g>
</svg>

<g id="navigator" transform="translate(0 0)" fill="#404254">
  <rect fill="#f2f5e9" fill-opacity="0.5" stroke="#606060" stroke-width=".5" x="0" y="0" width="60" height="60"/>
  <use id="zoomplus" xlink:href="#zoomPlus" x="17" y="9" onmousedown="handleZoom(evt,'in')"/>
  <use id="zoomminus" xlink:href="#zoomMin" x="42" y="9" onmousedown="handleZoom(evt,'out')"/>
  <use id="reset" xlink:href="#resetDef" x="30" y="36" onmousedown="handleReset()"/>
   <use id="arrowup" xlink:href="#arrowUp" x="0" y="0" onmousedown="handlePan(0,-1)"/>
  <use id="arrowright" xlink:href="#arrowRight" x="0" y="0" onmousedown="handlePan(1,0)"/>
  <use id="arrowdown" xlink:href="#arrowDown" x="0" y="0" onmousedown="handlePan(0,1)"/>
  <use id="arrowleft" xlink:href="#arrowLeft" x="0" y="0" onmousedown="handlePan(-1,0)"/>
</g>
<svg viewBox="0 0 15 15" width="100%" height="30px" preserveAspectRatio="xMaxYMin meet">
 <g id="arrow_out" transform="scale(0.3 0.3)">
  <a xlink:href="classv8_1_1internal_1_1CountOperation__coll__graph_org.svg" target="_base">
   <rect id="button" ry="5" rx="5" y="6" x="6" height="38" width="38"
        fill="#f2f5e9" fill-opacity="0.5" stroke="#606060" stroke-width="1.0"/>
   <path id="arrow"
     d="M 11.500037,31.436501 C 11.940474,20.09759 22.043105,11.32322 32.158766,21.979434 L 37.068811,17.246167 C 37.068811,17.246167 37.088388,32 37.088388,32 L 22.160133,31.978069 C 22.160133,31.978069 26.997745,27.140456 26.997745,27.140456 C 18.528582,18.264221 13.291696,25.230495 11.500037,31.436501 z"
     style="fill:#404040;"/>
  </a>
 </g>
</svg>

<style type='text/css'>
<![CDATA[
[data-mouse-over-selected='false'] { opacity: 0.7; }
[data-mouse-over-selected='true']  { opacity: 1.0; }
]]>
</style>
<script type="application/ecmascript"><![CDATA[
document.addEventListener('DOMContentLoaded', (event) => {
  highlightEdges();
  highlightAdjacentNodes();
});
]]></script>
</svg>
