<?xml version="1.0" encoding="UTF-8" standalone="no"?>
<!DOCTYPE svg PUBLIC "-//W3C//DTD SVG 1.1//EN"
 "http://www.w3.org/Graphics/SVG/1.1/DTD/svg11.dtd">
<!-- Generated by graphviz version 11.0.0 (20240428.1522)
 -->
<!-- Title: v8::internal::CppGraphBuilderImpl::WorkstackItemBase Pages: 1 -->
<svg width="412pt" height="188pt"
 viewBox="0.00 0.00 412.00 188.00" xmlns="http://www.w3.org/2000/svg" xmlns:xlink="http://www.w3.org/1999/xlink">
<g id="graph0" class="graph" transform="scale(1 1) rotate(0) translate(4 184)">
<title>v8::internal::CppGraphBuilderImpl::WorkstackItemBase</title>
<!-- Node1 -->
<g id="Node000001" class="node">
<title>Node1</title>
<g id="a_Node000001"><a xlink:title=" ">
<polygon fill="#999999" stroke="none" points="184,-146 0,-146 0,-33 184,-33 184,-146"/>
<text text-anchor="start" x="5" y="-132.5" font-family="Cascadia Code NF" font-size="10.00">v8::internal::CppGraphBuilder</text>
<text text-anchor="start" x="23" y="-119.75" font-family="Cascadia Code NF" font-size="10.00">Impl::WorkstackItemBase</text>
<text text-anchor="start" x="15.5" y="-103.5" font-family="Cascadia Code NF" font-size="10.00">#</text>
<text text-anchor="start" x="37" y="-103.5" font-family="Cascadia Code NF" font-size="10.00">parent_</text>
<text text-anchor="start" x="15.5" y="-87.5" font-family="Cascadia Code NF" font-size="10.00">#</text>
<text text-anchor="start" x="37" y="-87.5" font-family="Cascadia Code NF" font-size="10.00">current_</text>
<text text-anchor="start" x="15.5" y="-71.5" font-family="Cascadia Code NF" font-size="10.00">+</text>
<text text-anchor="start" x="37" y="-71.5" font-family="Cascadia Code NF" font-size="10.00">WorkstackItemBase()</text>
<text text-anchor="start" x="15.5" y="-55.5" font-family="Cascadia Code NF" font-size="10.00">+</text>
<text text-anchor="start" x="37" y="-55.5" font-family="Cascadia Code NF" font-size="10.00">~WorkstackItemBase()</text>
<text text-anchor="start" x="15.5" y="-39.5" font-family="Cascadia Code NF" font-size="10.00">+</text>
<text text-anchor="start" x="37" y="-39.5" font-family="Cascadia Code NF" font-size="10.00">Process()</text>
<polygon fill="#666666" stroke="#666666" points="0,-115 0,-115 184,-115 184,-115 0,-115"/>
<polygon fill="#666666" stroke="#666666" points="0,-83 0,-83 35,-83 35,-83 0,-83"/>
<polygon fill="#666666" stroke="#666666" points="35,-83 35,-83 184,-83 184,-83 35,-83"/>
<polygon fill="none" stroke="#666666" points="0,-33 0,-146 184,-146 184,-33 0,-33"/>
</a>
</g>
</g>
<!-- Node2 -->
<g id="Node000002" class="node">
<title>Node2</title>
<g id="a_Node000002"><a xlink:href="../../de/d7f/classv8_1_1internal_1_1CppGraphBuilderImpl_1_1VisitationDoneItem.html" target="_top" xlink:title=" ">
<polygon fill="white" stroke="none" points="404,-180 220,-180 220,-99 404,-99 404,-180"/>
<text text-anchor="start" x="225" y="-166.5" font-family="Cascadia Code NF" font-size="10.00">v8::internal::CppGraphBuilder</text>
<text text-anchor="start" x="240" y="-153.75" font-family="Cascadia Code NF" font-size="10.00">Impl::VisitationDoneItem</text>
<text text-anchor="start" x="309" y="-137.5" font-family="Cascadia Code NF" font-size="10.00"> </text>
<text text-anchor="start" x="235.5" y="-121.5" font-family="Cascadia Code NF" font-size="10.00">+</text>
<text text-anchor="start" x="257" y="-121.5" font-family="Cascadia Code NF" font-size="10.00">VisitationDoneItem()</text>
<text text-anchor="start" x="235.5" y="-105.5" font-family="Cascadia Code NF" font-size="10.00">+</text>
<text text-anchor="start" x="257" y="-105.5" font-family="Cascadia Code NF" font-size="10.00">Process()</text>
<polygon fill="#bfbfbf" stroke="#bfbfbf" points="220,-149 220,-149 404,-149 404,-149 220,-149"/>
<polygon fill="#bfbfbf" stroke="#bfbfbf" points="220,-133 220,-133 404,-133 404,-133 220,-133"/>
<polygon fill="none" stroke="#bfbfbf" points="220,-99 220,-180 404,-180 404,-99 220,-99"/>
</a>
</g>
</g>
<!-- Node1&#45;&gt;Node2 -->
<g id="edge1_Node000001_Node000002" class="edge">
<title>Node1&#45;&gt;Node2</title>
<g id="a_edge1_Node000001_Node000002"><a xlink:title=" ">
<path fill="none" stroke="#63b8ff" d="M194.94,-112.88C203.4,-114.82 211.91,-116.77 220.27,-118.69"/>
<polygon fill="none" stroke="#63b8ff" points="195.88,-109.5 185.35,-110.68 194.31,-116.33 195.88,-109.5"/>
</a>
</g>
</g>
<!-- Node3 -->
<g id="Node000003" class="node">
<title>Node3</title>
<g id="a_Node000003"><a xlink:href="../../d1/d51/classv8_1_1internal_1_1CppGraphBuilderImpl_1_1VisitationItem.html" target="_top" xlink:title=" ">
<polygon fill="white" stroke="none" points="404,-81 220,-81 220,0 404,0 404,-81"/>
<text text-anchor="start" x="225" y="-67.5" font-family="Cascadia Code NF" font-size="10.00">v8::internal::CppGraphBuilder</text>
<text text-anchor="start" x="252" y="-54.75" font-family="Cascadia Code NF" font-size="10.00">Impl::VisitationItem</text>
<text text-anchor="start" x="309" y="-38.5" font-family="Cascadia Code NF" font-size="10.00"> </text>
<text text-anchor="start" x="241.5" y="-22.5" font-family="Cascadia Code NF" font-size="10.00">+</text>
<text text-anchor="start" x="269" y="-22.5" font-family="Cascadia Code NF" font-size="10.00">VisitationItem()</text>
<text text-anchor="start" x="241.5" y="-6.5" font-family="Cascadia Code NF" font-size="10.00">+</text>
<text text-anchor="start" x="269" y="-6.5" font-family="Cascadia Code NF" font-size="10.00">Process()</text>
<polygon fill="#bfbfbf" stroke="#bfbfbf" points="220,-50 220,-50 404,-50 404,-50 220,-50"/>
<polygon fill="#bfbfbf" stroke="#bfbfbf" points="220,-34 220,-34 404,-34 404,-34 220,-34"/>
<polygon fill="none" stroke="#bfbfbf" points="220,0 220,-81 404,-81 404,0 220,0"/>
</a>
</g>
</g>
<!-- Node1&#45;&gt;Node3 -->
<g id="edge2_Node000001_Node000003" class="edge">
<title>Node1&#45;&gt;Node3</title>
<g id="a_edge2_Node000001_Node000003"><a xlink:title=" ">
<path fill="none" stroke="#63b8ff" d="M194.94,-66.59C203.4,-64.69 211.91,-62.77 220.27,-60.89"/>
<polygon fill="none" stroke="#63b8ff" points="194.34,-63.13 185.35,-68.74 195.87,-69.96 194.34,-63.13"/>
</a>
</g>
</g>
</g>
</svg>
