<?xml version="1.0" encoding="UTF-8" standalone="no"?>
<!DOCTYPE svg PUBLIC "-//W3C//DTD SVG 1.1//EN"
 "http://www.w3.org/Graphics/SVG/1.1/DTD/svg11.dtd">
<!-- Generated by graphviz version 11.0.0 (20240428.1522)
 -->
<!-- Title: v8::internal::OptimizedCompilationJob Pages: 1 -->
<!--zoomable 641 -->

<svg id="main" version="1.1" xmlns="http://www.w3.org/2000/svg" xmlns:xlink="http://www.w3.org/1999/xlink" xml:space="preserve" onload="init(evt)">
<style type="text/css"><![CDATA[
.node, .edge {opacity: 0.7;}
.node.selected, .edge.selected {opacity: 1;}
.edge:hover path { stroke: red; }
.edge:hover polygon { stroke: red; fill: red; }
svg#main { background-color: #111; }
]]></style>

<defs>
  <circle id="rim" cx="0" cy="0" r="7"/>
  <circle id="rim2" cx="0" cy="0" r="3.5"/>
  <g id="zoomPlus">
    <use xlink:href="#rim" fill="#404040"><set attributeName="fill" to="#808080" begin="zoomplus.mouseover" end="zoomplus.mouseout"/></use>
    <path d="M-4,0h8M0,-4v8" fill="none" stroke="white" stroke-width="1.5" pointer-events="none"/>
  </g>
  <g id="zoomMin">
    <use xlink:href="#rim" fill="#404040"><set attributeName="fill" to="#808080" begin="zoomminus.mouseover" end="zoomminus.mouseout"/></use>
    <path d="M-4,0h8" fill="none" stroke="white" stroke-width="1.5" pointer-events="none"/>
  </g>
  <g id="arrowUp" transform="translate(30 24)">
    <use xlink:href="#rim"/>
    <path pointer-events="none" fill="none" stroke="white" stroke-width="1.5" d="M0,-3.0v7 M-2.5,-0.5L0,-3.0L2.5,-0.5"/>
  </g>
  <g id="arrowRight" transform="rotate(90) translate(36 -43)">
    <use xlink:href="#rim"/>
    <path pointer-events="none" fill="none" stroke="white" stroke-width="1.5" d="M0,-3.0v7 M-2.5,-0.5L0,-3.0L2.5,-0.5"/>
  </g>
  <g id="arrowDown" transform="rotate(180) translate(-30 -48)">
    <use xlink:href="#rim"/>
    <path pointer-events="none" fill="none" stroke="white" stroke-width="1.5" d="M0,-3.0v7 M-2.5,-0.5L0,-3.0L2.5,-0.5"/>
  </g>
  <g id="arrowLeft" transform="rotate(270) translate(-36 17)">
    <use xlink:href="#rim"/>
    <path pointer-events="none" fill="none" stroke="white" stroke-width="1.5" d="M0,-3.0v7 M-2.5,-0.5L0,-3.0L2.5,-0.5"/>
  </g>
  <g id="resetDef">
    <use xlink:href="#rim2" fill="#404040"><set attributeName="fill" to="#808080" begin="reset.mouseover" end="reset.mouseout"/></use>
  </g>
</defs>
<script type="application/ecmascript">
var viewWidth = 1421;
var viewHeight = 641;
var sectionId = 'dynsection-1';
</script>
<script type="application/ecmascript" xlink:href="../../svg.min.js"/>
<svg id="graph" class="graph">
<g id="viewport">
<title>v8::internal::OptimizedCompilationJob</title>
<!-- Node1 -->
<g id="Node000001" class="node">
<title>Node1</title>
<g id="a_Node000001"><a xlink:title=" ">
<polygon fill="#999999" stroke="none" points="1413,-559 1181,-559 1181,-286 1413,-286 1413,-559"/>
<text text-anchor="start" x="1186" y="-545.5" font-family="Cascadia Code NF" font-size="10.00">v8::internal::OptimizedCompilationJob</text>
<text text-anchor="start" x="1294" y="-529.5" font-family="Cascadia Code NF" font-size="10.00"> </text>
<text text-anchor="start" x="1193.5" y="-513.5" font-family="Cascadia Code NF" font-size="10.00">+</text>
<text text-anchor="start" x="1212" y="-513.5" font-family="Cascadia Code NF" font-size="10.00">OptimizedCompilationJob()</text>
<text text-anchor="start" x="1193.5" y="-497.5" font-family="Cascadia Code NF" font-size="10.00">+</text>
<text text-anchor="start" x="1212" y="-497.5" font-family="Cascadia Code NF" font-size="10.00">PrepareJob()</text>
<text text-anchor="start" x="1193.5" y="-481.5" font-family="Cascadia Code NF" font-size="10.00">+</text>
<text text-anchor="start" x="1212" y="-481.5" font-family="Cascadia Code NF" font-size="10.00">ExecuteJob()</text>
<text text-anchor="start" x="1193.5" y="-465.5" font-family="Cascadia Code NF" font-size="10.00">+</text>
<text text-anchor="start" x="1212" y="-465.5" font-family="Cascadia Code NF" font-size="10.00">FinalizeJob()</text>
<text text-anchor="start" x="1193.5" y="-449.5" font-family="Cascadia Code NF" font-size="10.00">+</text>
<text text-anchor="start" x="1212" y="-449.5" font-family="Cascadia Code NF" font-size="10.00">compiler_name()</text>
<text text-anchor="start" x="1193.5" y="-433.5" font-family="Cascadia Code NF" font-size="10.00">+</text>
<text text-anchor="start" x="1212" y="-433.5" font-family="Cascadia Code NF" font-size="10.00">prepare_in_ms()</text>
<text text-anchor="start" x="1193.5" y="-417.5" font-family="Cascadia Code NF" font-size="10.00">+</text>
<text text-anchor="start" x="1212" y="-417.5" font-family="Cascadia Code NF" font-size="10.00">execute_in_ms()</text>
<text text-anchor="start" x="1193.5" y="-401.5" font-family="Cascadia Code NF" font-size="10.00">+</text>
<text text-anchor="start" x="1212" y="-401.5" font-family="Cascadia Code NF" font-size="10.00">finalize_in_ms()</text>
<text text-anchor="start" x="1193.5" y="-385.5" font-family="Cascadia Code NF" font-size="10.00">+</text>
<text text-anchor="start" x="1212" y="-385.5" font-family="Cascadia Code NF" font-size="10.00">ElapsedTime()</text>
<text text-anchor="start" x="1193.5" y="-369.5" font-family="Cascadia Code NF" font-size="10.00">#</text>
<text text-anchor="start" x="1212" y="-369.5" font-family="Cascadia Code NF" font-size="10.00">PrepareJobImpl()</text>
<text text-anchor="start" x="1193.5" y="-353.5" font-family="Cascadia Code NF" font-size="10.00">#</text>
<text text-anchor="start" x="1212" y="-353.5" font-family="Cascadia Code NF" font-size="10.00">ExecuteJobImpl()</text>
<text text-anchor="start" x="1193.5" y="-337.5" font-family="Cascadia Code NF" font-size="10.00">#</text>
<text text-anchor="start" x="1212" y="-337.5" font-family="Cascadia Code NF" font-size="10.00">FinalizeJobImpl()</text>
<text text-anchor="start" x="1193.5" y="-321.5" font-family="Cascadia Code NF" font-size="10.00">#</text>
<text text-anchor="start" x="1212" y="-321.5" font-family="Cascadia Code NF" font-size="10.00">CollectRetainedMaps()</text>
<text text-anchor="start" x="1193.5" y="-305.5" font-family="Cascadia Code NF" font-size="10.00">#</text>
<text text-anchor="start" x="1212" y="-305.5" font-family="Cascadia Code NF" font-size="10.00">RegisterWeakObjectsInOptimized</text>
<text text-anchor="start" x="1212" y="-292.75" font-family="Cascadia Code NF" font-size="10.00">Code()</text>
<polygon fill="#666666" stroke="#666666" points="1181,-541 1181,-541 1413,-541 1413,-541 1181,-541"/>
<polygon fill="#666666" stroke="#666666" points="1181,-525 1181,-525 1413,-525 1413,-525 1181,-525"/>
<polygon fill="none" stroke="#666666" points="1181,-286 1181,-559 1413,-559 1413,-286 1181,-286"/>
</a>
</g>
</g>
<!-- Node2 -->
<g id="Node000002" class="node">
<title>Node2</title>
<g id="a_Node000002"><a xlink:href="../../da/d7d/classv8_1_1internal_1_1CompilationJob.html" target="_top" xlink:title=" ">
<polygon fill="white" stroke="none" points="1097,-604.5 919,-604.5 919,-504.5 1097,-504.5 1097,-604.5"/>
<text text-anchor="start" x="924" y="-591" font-family="Cascadia Code NF" font-size="10.00">v8::internal::CompilationJob</text>
<text text-anchor="start" x="1005" y="-575" font-family="Cascadia Code NF" font-size="10.00"> </text>
<text text-anchor="start" x="937.5" y="-559" font-family="Cascadia Code NF" font-size="10.00">+</text>
<text text-anchor="start" x="962" y="-559" font-family="Cascadia Code NF" font-size="10.00">CompilationJob()</text>
<text text-anchor="start" x="937.5" y="-543" font-family="Cascadia Code NF" font-size="10.00">+</text>
<text text-anchor="start" x="962" y="-543" font-family="Cascadia Code NF" font-size="10.00">~CompilationJob()</text>
<text text-anchor="start" x="937.5" y="-527" font-family="Cascadia Code NF" font-size="10.00">+</text>
<text text-anchor="start" x="962" y="-527" font-family="Cascadia Code NF" font-size="10.00">state()</text>
<text text-anchor="start" x="937.5" y="-511" font-family="Cascadia Code NF" font-size="10.00">#</text>
<text text-anchor="start" x="962" y="-511" font-family="Cascadia Code NF" font-size="10.00">UpdateState()</text>
<polygon fill="#bfbfbf" stroke="#bfbfbf" points="919,-586.5 919,-586.5 1097,-586.5 1097,-586.5 919,-586.5"/>
<polygon fill="#bfbfbf" stroke="#bfbfbf" points="919,-570.5 919,-570.5 1097,-570.5 1097,-570.5 919,-570.5"/>
<polygon fill="none" stroke="#bfbfbf" points="919,-504.5 919,-604.5 1097,-604.5 1097,-504.5 919,-504.5"/>
</a>
</g>
</g>
<!-- Node2&#45;&gt;Node1 -->
<g id="edge1_Node000001_Node000002" class="edge">
<title>Node2&#45;&gt;Node1</title>
<g id="a_edge1_Node000001_Node000002"><a xlink:title=" ">
<path fill="none" stroke="#63b8ff" d="M1107.11,-509.38C1130.91,-498.43 1156.58,-486.62 1181.08,-475.35"/>
<polygon fill="none" stroke="#63b8ff" points="1105.67,-506.19 1098.04,-513.55 1108.59,-512.55 1105.67,-506.19"/>
</a>
</g>
</g>
<!-- Node3 -->
<g id="Node000003" class="node">
<title>Node3</title>
<g id="a_Node000003"><a xlink:href="../../dc/deb/classv8_1_1base_1_1TimeDelta.html" target="_top" xlink:title=" ">
<polygon fill="white" stroke="none" points="769,-632.5 637,-632.5 637,-212.5 769,-212.5 769,-632.5"/>
<text text-anchor="start" x="646" y="-619" font-family="Cascadia Code NF" font-size="10.00">v8::base::TimeDelta</text>
<text text-anchor="start" x="700" y="-603" font-family="Cascadia Code NF" font-size="10.00"> </text>
<text text-anchor="start" x="641" y="-587" font-family="Cascadia Code NF" font-size="10.00">+</text>
<text text-anchor="start" x="651" y="-587" font-family="Cascadia Code NF" font-size="10.00">TimeDelta()</text>
<text text-anchor="start" x="641" y="-571" font-family="Cascadia Code NF" font-size="10.00">+</text>
<text text-anchor="start" x="651" y="-571" font-family="Cascadia Code NF" font-size="10.00">IsZero()</text>
<text text-anchor="start" x="641" y="-555" font-family="Cascadia Code NF" font-size="10.00">+</text>
<text text-anchor="start" x="651" y="-555" font-family="Cascadia Code NF" font-size="10.00">IsMax()</text>
<text text-anchor="start" x="641" y="-539" font-family="Cascadia Code NF" font-size="10.00">+</text>
<text text-anchor="start" x="651" y="-539" font-family="Cascadia Code NF" font-size="10.00">IsMin()</text>
<text text-anchor="start" x="641" y="-523" font-family="Cascadia Code NF" font-size="10.00">+</text>
<text text-anchor="start" x="651" y="-523" font-family="Cascadia Code NF" font-size="10.00">InDays()</text>
<text text-anchor="start" x="641" y="-507" font-family="Cascadia Code NF" font-size="10.00">+</text>
<text text-anchor="start" x="651" y="-507" font-family="Cascadia Code NF" font-size="10.00">InHours()</text>
<text text-anchor="start" x="641" y="-491" font-family="Cascadia Code NF" font-size="10.00">+</text>
<text text-anchor="start" x="651" y="-491" font-family="Cascadia Code NF" font-size="10.00">InMinutes()</text>
<text text-anchor="start" x="641" y="-475" font-family="Cascadia Code NF" font-size="10.00">+</text>
<text text-anchor="start" x="651" y="-475" font-family="Cascadia Code NF" font-size="10.00">InSecondsF()</text>
<text text-anchor="start" x="641" y="-459" font-family="Cascadia Code NF" font-size="10.00">+</text>
<text text-anchor="start" x="651" y="-459" font-family="Cascadia Code NF" font-size="10.00">InSeconds()</text>
<text text-anchor="start" x="641" y="-443" font-family="Cascadia Code NF" font-size="10.00">+</text>
<text text-anchor="start" x="651" y="-443" font-family="Cascadia Code NF" font-size="10.00">InMillisecondsF()</text>
<text text-anchor="start" x="651" y="-427" font-family="Cascadia Code NF" font-size="10.00">and 24 more...</text>
<text text-anchor="start" x="641" y="-411" font-family="Cascadia Code NF" font-size="10.00">+</text>
<text text-anchor="start" x="651" y="-411" font-family="Cascadia Code NF" font-size="10.00">FromDays()</text>
<text text-anchor="start" x="641" y="-395" font-family="Cascadia Code NF" font-size="10.00">+</text>
<text text-anchor="start" x="651" y="-395" font-family="Cascadia Code NF" font-size="10.00">FromHours()</text>
<text text-anchor="start" x="641" y="-379" font-family="Cascadia Code NF" font-size="10.00">+</text>
<text text-anchor="start" x="651" y="-379" font-family="Cascadia Code NF" font-size="10.00">FromMinutes()</text>
<text text-anchor="start" x="641" y="-363" font-family="Cascadia Code NF" font-size="10.00">+</text>
<text text-anchor="start" x="651" y="-363" font-family="Cascadia Code NF" font-size="10.00">FromSeconds()</text>
<text text-anchor="start" x="641" y="-347" font-family="Cascadia Code NF" font-size="10.00">+</text>
<text text-anchor="start" x="651" y="-347" font-family="Cascadia Code NF" font-size="10.00">FromMilliseconds()</text>
<text text-anchor="start" x="641" y="-331" font-family="Cascadia Code NF" font-size="10.00">+</text>
<text text-anchor="start" x="651" y="-331" font-family="Cascadia Code NF" font-size="10.00">FromMicroseconds()</text>
<text text-anchor="start" x="641" y="-315" font-family="Cascadia Code NF" font-size="10.00">+</text>
<text text-anchor="start" x="651" y="-315" font-family="Cascadia Code NF" font-size="10.00">FromNanoseconds()</text>
<text text-anchor="start" x="641" y="-299" font-family="Cascadia Code NF" font-size="10.00">+</text>
<text text-anchor="start" x="651" y="-299" font-family="Cascadia Code NF" font-size="10.00">FromSecondsD()</text>
<text text-anchor="start" x="641" y="-283" font-family="Cascadia Code NF" font-size="10.00">+</text>
<text text-anchor="start" x="651" y="-283" font-family="Cascadia Code NF" font-size="10.00">FromMillisecondsD()</text>
<text text-anchor="start" x="641" y="-267" font-family="Cascadia Code NF" font-size="10.00">+</text>
<text text-anchor="start" x="651" y="-267" font-family="Cascadia Code NF" font-size="10.00">Max()</text>
<text text-anchor="start" x="641" y="-251" font-family="Cascadia Code NF" font-size="10.00">+</text>
<text text-anchor="start" x="651" y="-251" font-family="Cascadia Code NF" font-size="10.00">Min()</text>
<text text-anchor="start" x="641" y="-235" font-family="Cascadia Code NF" font-size="10.00">+</text>
<text text-anchor="start" x="651" y="-235" font-family="Cascadia Code NF" font-size="10.00">FromMachTimespec()</text>
<text text-anchor="start" x="641" y="-219" font-family="Cascadia Code NF" font-size="10.00">+</text>
<text text-anchor="start" x="651" y="-219" font-family="Cascadia Code NF" font-size="10.00">FromTimespec()</text>
<polygon fill="#bfbfbf" stroke="#bfbfbf" points="637,-614.5 637,-614.5 769,-614.5 769,-614.5 637,-614.5"/>
<polygon fill="#bfbfbf" stroke="#bfbfbf" points="637,-598.5 637,-598.5 769,-598.5 769,-598.5 637,-598.5"/>
<polygon fill="none" stroke="#bfbfbf" points="637,-212.5 637,-632.5 769,-632.5 769,-212.5 637,-212.5"/>
</a>
</g>
</g>
<!-- Node3&#45;&gt;Node1 -->
<g id="edge2_Node000001_Node000003" class="edge">
<title>Node3&#45;&gt;Node1</title>
<g id="a_edge2_Node000001_Node000003"><a xlink:title=" ">
<path fill="none" stroke="#63b8ff" d="M768.76,-422.5C864.39,-422.5 1045.27,-422.5 1168.2,-422.5"/>
<polygon fill="none" stroke="#63b8ff" points="1168.13,-422.5 1174.13,-418.5 1180.13,-422.5 1174.13,-426.5 1168.13,-422.5"/>
</a>
</g>
<text text-anchor="start" x="939" y="-476.75" font-family="Cascadia Code NF" font-size="10.00" fill="grey"> #time_taken_to_execute</text>
<text text-anchor="middle" x="1008" y="-464" font-family="Cascadia Code NF" font-size="10.00" fill="grey">_</text>
<text text-anchor="start" x="939" y="-451.25" font-family="Cascadia Code NF" font-size="10.00" fill="grey">#time_taken_to_finalize</text>
<text text-anchor="middle" x="1008" y="-438.5" font-family="Cascadia Code NF" font-size="10.00" fill="grey">_</text>
<text text-anchor="middle" x="1008" y="-425.75" font-family="Cascadia Code NF" font-size="10.00" fill="grey">#time_taken_to_prepare_</text>
</g>
<!-- Node4 -->
<g id="Node000004" class="node">
<title>Node4</title>
<g id="a_Node000004"><a xlink:href="../../d2/d2f/classv8_1_1base_1_1ElapsedTimer.html" target="_top" xlink:title=" ">
<polygon fill="white" stroke="none" points="1079,-386.5 937,-386.5 937,-126.5 1079,-126.5 1079,-386.5"/>
<text text-anchor="start" x="942" y="-373" font-family="Cascadia Code NF" font-size="10.00">v8::base::ElapsedTimer</text>
<text text-anchor="start" x="1005" y="-357" font-family="Cascadia Code NF" font-size="10.00"> </text>
<text text-anchor="start" x="951" y="-341" font-family="Cascadia Code NF" font-size="10.00">+</text>
<text text-anchor="start" x="971" y="-341" font-family="Cascadia Code NF" font-size="10.00">ElapsedTimer()</text>
<text text-anchor="start" x="951" y="-325" font-family="Cascadia Code NF" font-size="10.00">+</text>
<text text-anchor="start" x="971" y="-325" font-family="Cascadia Code NF" font-size="10.00">Start()</text>
<text text-anchor="start" x="951" y="-309" font-family="Cascadia Code NF" font-size="10.00">+</text>
<text text-anchor="start" x="971" y="-309" font-family="Cascadia Code NF" font-size="10.00">Start()</text>
<text text-anchor="start" x="951" y="-293" font-family="Cascadia Code NF" font-size="10.00">+</text>
<text text-anchor="start" x="971" y="-293" font-family="Cascadia Code NF" font-size="10.00">Stop()</text>
<text text-anchor="start" x="951" y="-277" font-family="Cascadia Code NF" font-size="10.00">+</text>
<text text-anchor="start" x="971" y="-277" font-family="Cascadia Code NF" font-size="10.00">IsStarted()</text>
<text text-anchor="start" x="951" y="-261" font-family="Cascadia Code NF" font-size="10.00">+</text>
<text text-anchor="start" x="971" y="-261" font-family="Cascadia Code NF" font-size="10.00">Restart()</text>
<text text-anchor="start" x="951" y="-245" font-family="Cascadia Code NF" font-size="10.00">+</text>
<text text-anchor="start" x="971" y="-245" font-family="Cascadia Code NF" font-size="10.00">Restart()</text>
<text text-anchor="start" x="951" y="-229" font-family="Cascadia Code NF" font-size="10.00">+</text>
<text text-anchor="start" x="971" y="-229" font-family="Cascadia Code NF" font-size="10.00">Pause()</text>
<text text-anchor="start" x="951" y="-213" font-family="Cascadia Code NF" font-size="10.00">+</text>
<text text-anchor="start" x="971" y="-213" font-family="Cascadia Code NF" font-size="10.00">Pause()</text>
<text text-anchor="start" x="951" y="-197" font-family="Cascadia Code NF" font-size="10.00">+</text>
<text text-anchor="start" x="971" y="-197" font-family="Cascadia Code NF" font-size="10.00">Resume()</text>
<text text-anchor="start" x="951" y="-181" font-family="Cascadia Code NF" font-size="10.00">+</text>
<text text-anchor="start" x="971" y="-181" font-family="Cascadia Code NF" font-size="10.00">Resume()</text>
<text text-anchor="start" x="951" y="-165" font-family="Cascadia Code NF" font-size="10.00">+</text>
<text text-anchor="start" x="971" y="-165" font-family="Cascadia Code NF" font-size="10.00">Elapsed()</text>
<text text-anchor="start" x="951" y="-149" font-family="Cascadia Code NF" font-size="10.00">+</text>
<text text-anchor="start" x="971" y="-149" font-family="Cascadia Code NF" font-size="10.00">Elapsed()</text>
<text text-anchor="start" x="951" y="-133" font-family="Cascadia Code NF" font-size="10.00">+</text>
<text text-anchor="start" x="971" y="-133" font-family="Cascadia Code NF" font-size="10.00">HasExpired()</text>
<polygon fill="#bfbfbf" stroke="#bfbfbf" points="937,-368.5 937,-368.5 1079,-368.5 1079,-368.5 937,-368.5"/>
<polygon fill="#bfbfbf" stroke="#bfbfbf" points="937,-352.5 937,-352.5 1079,-352.5 1079,-352.5 937,-352.5"/>
<polygon fill="none" stroke="#bfbfbf" points="937,-126.5 937,-386.5 1079,-386.5 1079,-126.5 937,-126.5"/>
</a>
</g>
</g>
<!-- Node3&#45;&gt;Node4 -->
<g id="edge9_Node000004_Node000003" class="edge">
<title>Node3&#45;&gt;Node4</title>
<g id="a_edge9_Node000004_Node000003"><a xlink:title=" ">
<path fill="none" stroke="#63b8ff" d="M768.63,-387.09C814.58,-361.92 876.65,-327.92 925.92,-300.92"/>
<polygon fill="none" stroke="#63b8ff" points="925.88,-300.94 929.22,-294.55 936.4,-295.18 933.06,-301.57 925.88,-300.94"/>
</a>
</g>
<text text-anchor="middle" x="850" y="-371.75" font-family="Cascadia Code NF" font-size="10.00" fill="grey"> +paused_elapsed_</text>
</g>
<!-- Node4&#45;&gt;Node1 -->
<g id="edge3_Node000001_Node000004" class="edge">
<title>Node4&#45;&gt;Node1</title>
<g id="a_edge3_Node000001_Node000004"><a xlink:title=" ">
<path fill="none" stroke="#63b8ff" d="M1078.84,-296.9C1106.37,-312.82 1138.87,-331.62 1170.22,-349.75"/>
<polygon fill="none" stroke="#63b8ff" points="1170.08,-349.67 1177.28,-349.21 1180.47,-355.68 1173.27,-356.14 1170.08,-349.67"/>
</a>
</g>
<text text-anchor="middle" x="1139" y="-346.75" font-family="Cascadia Code NF" font-size="10.00" fill="grey"> #timer_</text>
</g>
<!-- Node5 -->
<g id="Node000005" class="node">
<title>Node5</title>
<g id="a_Node000005"><a xlink:href="../../db/dd5/classv8_1_1base_1_1TimeTicks.html" target="_top" xlink:title=" ">
<polygon fill="white" stroke="none" points="781,-194.5 625,-194.5 625,-94.5 781,-94.5 781,-194.5"/>
<text text-anchor="start" x="646" y="-181" font-family="Cascadia Code NF" font-size="10.00">v8::base::TimeTicks</text>
<text text-anchor="start" x="700" y="-165" font-family="Cascadia Code NF" font-size="10.00"> </text>
<text text-anchor="start" x="629" y="-149" font-family="Cascadia Code NF" font-size="10.00">+</text>
<text text-anchor="start" x="639" y="-149" font-family="Cascadia Code NF" font-size="10.00">TimeTicks()</text>
<text text-anchor="start" x="629" y="-133" font-family="Cascadia Code NF" font-size="10.00">+</text>
<text text-anchor="start" x="639" y="-133" font-family="Cascadia Code NF" font-size="10.00">Now()</text>
<text text-anchor="start" x="629" y="-117" font-family="Cascadia Code NF" font-size="10.00">+</text>
<text text-anchor="start" x="639" y="-117" font-family="Cascadia Code NF" font-size="10.00">IsHighResolution()</text>
<text text-anchor="start" x="629" y="-101" font-family="Cascadia Code NF" font-size="10.00">+</text>
<text text-anchor="start" x="639" y="-101" font-family="Cascadia Code NF" font-size="10.00">FromMsTicksForTesting()</text>
<polygon fill="#bfbfbf" stroke="#bfbfbf" points="625,-176.5 625,-176.5 781,-176.5 781,-176.5 625,-176.5"/>
<polygon fill="#bfbfbf" stroke="#bfbfbf" points="625,-160.5 625,-160.5 781,-160.5 781,-160.5 625,-160.5"/>
<polygon fill="none" stroke="#bfbfbf" points="625,-94.5 625,-194.5 781,-194.5 781,-94.5 625,-94.5"/>
</a>
</g>
</g>
<!-- Node5&#45;&gt;Node4 -->
<g id="edge4_Node000004_Node000005" class="edge">
<title>Node5&#45;&gt;Node4</title>
<g id="a_edge4_Node000004_Node000005"><a xlink:title=" ">
<path fill="none" stroke="#63b8ff" d="M780.85,-172.91C824.94,-189.2 880.26,-209.65 925.16,-226.25"/>
<polygon fill="none" stroke="#63b8ff" points="925.13,-226.24 932.14,-224.57 936.38,-230.4 929.37,-232.07 925.13,-226.24"/>
</a>
</g>
<text text-anchor="middle" x="850" y="-219.75" font-family="Cascadia Code NF" font-size="10.00" fill="grey"> +start_ticks_</text>
</g>
<!-- Node6 -->
<g id="Node000006" class="node">
<title>Node6</title>
<g id="a_Node000006"><a xlink:href="../../d0/d53/classv8_1_1base_1_1time__internal_1_1TimeBase.html" target="_top" xlink:title=" ">
<polygon fill="white" stroke="none" points="589,-289 441,-289 441,0 589,0 589,-289"/>
<text text-anchor="start" x="446" y="-275.5" font-family="Cascadia Code NF" font-size="10.00">v8::base::time_internal</text>
<text text-anchor="start" x="446" y="-262.75" font-family="Cascadia Code NF" font-size="10.00">::TimeBase&lt; TimeTicks &gt;</text>
<text text-anchor="start" x="512" y="-246.5" font-family="Cascadia Code NF" font-size="10.00"> </text>
<text text-anchor="start" x="449" y="-230.5" font-family="Cascadia Code NF" font-size="10.00">+</text>
<text text-anchor="start" x="463" y="-230.5" font-family="Cascadia Code NF" font-size="10.00">IsNull()</text>
<text text-anchor="start" x="449" y="-214.5" font-family="Cascadia Code NF" font-size="10.00">+</text>
<text text-anchor="start" x="463" y="-214.5" font-family="Cascadia Code NF" font-size="10.00">IsMax()</text>
<text text-anchor="start" x="449" y="-198.5" font-family="Cascadia Code NF" font-size="10.00">+</text>
<text text-anchor="start" x="463" y="-198.5" font-family="Cascadia Code NF" font-size="10.00">IsMin()</text>
<text text-anchor="start" x="449" y="-182.5" font-family="Cascadia Code NF" font-size="10.00">+</text>
<text text-anchor="start" x="463" y="-182.5" font-family="Cascadia Code NF" font-size="10.00">ToInternalValue()</text>
<text text-anchor="start" x="449" y="-166.5" font-family="Cascadia Code NF" font-size="10.00">+</text>
<text text-anchor="start" x="463" y="-166.5" font-family="Cascadia Code NF" font-size="10.00">since_origin()</text>
<text text-anchor="start" x="449" y="-150.5" font-family="Cascadia Code NF" font-size="10.00">+</text>
<text text-anchor="start" x="463" y="-150.5" font-family="Cascadia Code NF" font-size="10.00">operator=()</text>
<text text-anchor="start" x="449" y="-134.5" font-family="Cascadia Code NF" font-size="10.00">+</text>
<text text-anchor="start" x="463" y="-134.5" font-family="Cascadia Code NF" font-size="10.00">operator&#45;()</text>
<text text-anchor="start" x="449" y="-118.5" font-family="Cascadia Code NF" font-size="10.00">+</text>
<text text-anchor="start" x="463" y="-118.5" font-family="Cascadia Code NF" font-size="10.00">operator&#45;()</text>
<text text-anchor="start" x="449" y="-102.5" font-family="Cascadia Code NF" font-size="10.00">+</text>
<text text-anchor="start" x="463" y="-102.5" font-family="Cascadia Code NF" font-size="10.00">operator+()</text>
<text text-anchor="start" x="449" y="-86.5" font-family="Cascadia Code NF" font-size="10.00">+</text>
<text text-anchor="start" x="463" y="-86.5" font-family="Cascadia Code NF" font-size="10.00">operator+=()</text>
<text text-anchor="start" x="463" y="-70.5" font-family="Cascadia Code NF" font-size="10.00">and 7 more...</text>
<text text-anchor="start" x="449" y="-54.5" font-family="Cascadia Code NF" font-size="10.00">+</text>
<text text-anchor="start" x="463" y="-54.5" font-family="Cascadia Code NF" font-size="10.00">Max()</text>
<text text-anchor="start" x="449" y="-38.5" font-family="Cascadia Code NF" font-size="10.00">+</text>
<text text-anchor="start" x="463" y="-38.5" font-family="Cascadia Code NF" font-size="10.00">Min()</text>
<text text-anchor="start" x="449" y="-22.5" font-family="Cascadia Code NF" font-size="10.00">+</text>
<text text-anchor="start" x="463" y="-22.5" font-family="Cascadia Code NF" font-size="10.00">FromInternalValue()</text>
<text text-anchor="start" x="449" y="-6.5" font-family="Cascadia Code NF" font-size="10.00">#</text>
<text text-anchor="start" x="463" y="-6.5" font-family="Cascadia Code NF" font-size="10.00">TimeBase()</text>
<polygon fill="#bfbfbf" stroke="#bfbfbf" points="441,-258 441,-258 589,-258 589,-258 441,-258"/>
<polygon fill="#bfbfbf" stroke="#bfbfbf" points="441,-242 441,-242 589,-242 589,-242 441,-242"/>
<polygon fill="none" stroke="#bfbfbf" points="441,0 441,-289 589,-289 589,0 441,0"/>
</a>
</g>
</g>
<!-- Node6&#45;&gt;Node5 -->
<g id="edge5_Node000005_Node000006" class="edge">
<title>Node6&#45;&gt;Node5</title>
<g id="a_edge5_Node000005_Node000006"><a xlink:title=" ">
<path fill="none" stroke="#63b8ff" d="M600.25,-144.5C608.58,-144.5 617,-144.5 625.25,-144.5"/>
<polygon fill="none" stroke="#63b8ff" points="600.49,-141 590.49,-144.5 600.49,-148 600.49,-141"/>
</a>
</g>
</g>
<!-- Node7 -->
<g id="Node000007" class="node">
<title>Node7</title>
<g id="a_Node000007"><a xlink:href="../../d1/d60/classv8_1_1base_1_1TimeConstants.html" target="_top" xlink:title=" ">
<polygon fill="white" stroke="none" points="404,-116.5 256,-116.5 256,-64.5 404,-64.5 404,-116.5"/>
<text text-anchor="start" x="261" y="-103" font-family="Cascadia Code NF" font-size="10.00">v8::base::TimeConstants</text>
<text text-anchor="start" x="261" y="-87" font-family="Cascadia Code NF" font-size="10.00">+</text>
<text text-anchor="start" x="272" y="-87" font-family="Cascadia Code NF" font-size="10.00">kNanosecondsPerSecond</text>
<text text-anchor="start" x="327" y="-71" font-family="Cascadia Code NF" font-size="10.00"> </text>
<polygon fill="#bfbfbf" stroke="#bfbfbf" points="256,-98.5 256,-98.5 404,-98.5 404,-98.5 256,-98.5"/>
<polygon fill="#bfbfbf" stroke="#bfbfbf" points="256,-82.5 256,-82.5 270,-82.5 270,-82.5 256,-82.5"/>
<polygon fill="#bfbfbf" stroke="#bfbfbf" points="270,-82.5 270,-82.5 404,-82.5 404,-82.5 270,-82.5"/>
<polygon fill="none" stroke="#bfbfbf" points="256,-64.5 256,-116.5 404,-116.5 404,-64.5 256,-64.5"/>
</a>
</g>
</g>
<!-- Node7&#45;&gt;Node6 -->
<g id="edge6_Node000006_Node000007" class="edge">
<title>Node7&#45;&gt;Node6</title>
<g id="a_edge6_Node000006_Node000007"><a xlink:title=" ">
<path fill="none" stroke="#63b8ff" d="M414.87,-115.25C423.63,-117.83 432.48,-120.44 441.1,-122.99"/>
<polygon fill="none" stroke="#63b8ff" points="415.89,-111.9 405.3,-112.43 413.9,-118.61 415.89,-111.9"/>
</a>
</g>
</g>
<!-- Node8 -->
<g id="Node000008" class="node">
<title>Node8</title>
<g id="a_Node000008"><a xlink:href="../../d8/d3f/classint64__t.html" target="_top" xlink:title=" ">
<polygon fill="white" stroke="none" points="52,-146.5 0,-146.5 0,-94.5 52,-94.5 52,-146.5"/>
<text text-anchor="start" x="5" y="-133" font-family="Cascadia Code NF" font-size="10.00">int64_t</text>
<text text-anchor="start" x="23" y="-117" font-family="Cascadia Code NF" font-size="10.00"> </text>
<text text-anchor="start" x="23" y="-101" font-family="Cascadia Code NF" font-size="10.00"> </text>
<polygon fill="#bfbfbf" stroke="#bfbfbf" points="0,-128.5 0,-128.5 52,-128.5 52,-128.5 0,-128.5"/>
<polygon fill="#bfbfbf" stroke="#bfbfbf" points="0,-112.5 0,-112.5 52,-112.5 52,-112.5 0,-112.5"/>
<polygon fill="none" stroke="#bfbfbf" points="0,-94.5 0,-146.5 52,-146.5 52,-94.5 0,-94.5"/>
</a>
</g>
</g>
<!-- Node8&#45;&gt;Node6 -->
<g id="edge8_Node000006_Node000008" class="edge">
<title>Node8&#45;&gt;Node6</title>
<g id="a_edge8_Node000006_Node000008"><a xlink:title=" ">
<path fill="none" stroke="#63b8ff" d="M37.16,-146.46C44.13,-160.44 54.88,-176.44 70,-184.5 182.92,-244.67 335.17,-210.44 428.86,-178.65"/>
<polygon fill="none" stroke="#63b8ff" points="428.92,-178.62 433.28,-172.87 440.26,-174.68 435.91,-180.43 428.92,-178.62"/>
</a>
</g>
<text text-anchor="middle" x="330" y="-218.75" font-family="Cascadia Code NF" font-size="10.00" fill="grey"> #us_</text>
</g>
<!-- Node8&#45;&gt;Node7 -->
<g id="edge7_Node000007_Node000008" class="edge">
<title>Node8&#45;&gt;Node7</title>
<g id="a_edge7_Node000007_Node000008"><a xlink:title=" ">
<path fill="none" stroke="#63b8ff" d="M34.03,-94.71C40.33,-77.09 51.5,-55.06 70,-44.25 134.47,-6.59 165.39,-26.86 238,-44.25 251.06,-47.38 264.36,-52.71 276.62,-58.66"/>
<polygon fill="none" stroke="#63b8ff" points="276.53,-58.61 283.7,-57.8 287.21,-64.1 280.04,-64.91 276.53,-58.61"/>
</a>
</g>
<text text-anchor="middle" x="154" y="-175.25" font-family="Cascadia Code NF" font-size="10.00" fill="grey"> +kHoursPerDay</text>
<text text-anchor="middle" x="154" y="-162.5" font-family="Cascadia Code NF" font-size="10.00" fill="grey">+kMicrosecondsPerDay</text>
<text text-anchor="middle" x="154" y="-149.75" font-family="Cascadia Code NF" font-size="10.00" fill="grey">+kMicrosecondsPerHour</text>
<text text-anchor="middle" x="154" y="-137" font-family="Cascadia Code NF" font-size="10.00" fill="grey">+kMicrosecondsPerMillisecond</text>
<text text-anchor="middle" x="154" y="-124.25" font-family="Cascadia Code NF" font-size="10.00" fill="grey">+kMicrosecondsPerMinute</text>
<text text-anchor="middle" x="154" y="-111.5" font-family="Cascadia Code NF" font-size="10.00" fill="grey">+kMicrosecondsPerSecond</text>
<text text-anchor="middle" x="154" y="-98.75" font-family="Cascadia Code NF" font-size="10.00" fill="grey">+kMicrosecondsPerWeek</text>
<text text-anchor="middle" x="154" y="-86" font-family="Cascadia Code NF" font-size="10.00" fill="grey">+kMillisecondsPerDay</text>
<text text-anchor="middle" x="154" y="-73.25" font-family="Cascadia Code NF" font-size="10.00" fill="grey">+kMillisecondsPerSecond</text>
<text text-anchor="middle" x="154" y="-60.5" font-family="Cascadia Code NF" font-size="10.00" fill="grey">+kNanosecondsPerMicrosecond</text>
<text text-anchor="middle" x="154" y="-47.75" font-family="Cascadia Code NF" font-size="10.00" fill="grey">...</text>
</g>
</g>
</svg>

<g id="navigator" transform="translate(0 0)" fill="#404254">
  <rect fill="#f2f5e9" fill-opacity="0.5" stroke="#606060" stroke-width=".5" x="0" y="0" width="60" height="60"/>
  <use id="zoomplus" xlink:href="#zoomPlus" x="17" y="9" onmousedown="handleZoom(evt,'in')"/>
  <use id="zoomminus" xlink:href="#zoomMin" x="42" y="9" onmousedown="handleZoom(evt,'out')"/>
  <use id="reset" xlink:href="#resetDef" x="30" y="36" onmousedown="handleReset()"/>
   <use id="arrowup" xlink:href="#arrowUp" x="0" y="0" onmousedown="handlePan(0,-1)"/>
  <use id="arrowright" xlink:href="#arrowRight" x="0" y="0" onmousedown="handlePan(1,0)"/>
  <use id="arrowdown" xlink:href="#arrowDown" x="0" y="0" onmousedown="handlePan(0,1)"/>
  <use id="arrowleft" xlink:href="#arrowLeft" x="0" y="0" onmousedown="handlePan(-1,0)"/>
</g>
<svg viewBox="0 0 15 15" width="100%" height="30px" preserveAspectRatio="xMaxYMin meet">
 <g id="arrow_out" transform="scale(0.3 0.3)">
  <a xlink:href="classv8_1_1internal_1_1OptimizedCompilationJob__coll__graph_org.svg" target="_base">
   <rect id="button" ry="5" rx="5" y="6" x="6" height="38" width="38"
        fill="#f2f5e9" fill-opacity="0.5" stroke="#606060" stroke-width="1.0"/>
   <path id="arrow"
     d="M 11.500037,31.436501 C 11.940474,20.09759 22.043105,11.32322 32.158766,21.979434 L 37.068811,17.246167 C 37.068811,17.246167 37.088388,32 37.088388,32 L 22.160133,31.978069 C 22.160133,31.978069 26.997745,27.140456 26.997745,27.140456 C 18.528582,18.264221 13.291696,25.230495 11.500037,31.436501 z"
     style="fill:#404040;"/>
  </a>
 </g>
</svg>

<style type='text/css'>
<![CDATA[
[data-mouse-over-selected='false'] { opacity: 0.7; }
[data-mouse-over-selected='true']  { opacity: 1.0; }
]]>
</style>
<script type="application/ecmascript"><![CDATA[
document.addEventListener('DOMContentLoaded', (event) => {
  highlightEdges();
  highlightAdjacentNodes();
});
]]></script>
</svg>
