<?xml version="1.0" encoding="UTF-8" standalone="no"?>
<!DOCTYPE svg PUBLIC "-//W3C//DTD SVG 1.1//EN"
 "http://www.w3.org/Graphics/SVG/1.1/DTD/svg11.dtd">
<!-- Generated by graphviz version 11.0.0 (20240428.1522)
 -->
<!-- Title: v8::internal::WeakFixedArray::BodyDescriptor Pages: 1 -->
<svg width="734pt" height="400pt"
 viewBox="0.00 0.00 734.00 399.50" xmlns="http://www.w3.org/2000/svg" xmlns:xlink="http://www.w3.org/1999/xlink">
<g id="graph0" class="graph" transform="scale(1 1) rotate(0) translate(4 395.5)">
<title>v8::internal::WeakFixedArray::BodyDescriptor</title>
<!-- Node1 -->
<g id="Node000001" class="node">
<title>Node1</title>
<g id="a_Node000001"><a xlink:title=" ">
<polygon fill="#999999" stroke="none" points="726,-160.5 548,-160.5 548,-95.5 726,-95.5 726,-160.5"/>
<text text-anchor="start" x="553" y="-147" font-family="Cascadia Code NF" font-size="10.00">v8::internal::WeakFixedArray</text>
<text text-anchor="start" x="589" y="-134.25" font-family="Cascadia Code NF" font-size="10.00">::BodyDescriptor</text>
<text text-anchor="start" x="634" y="-118" font-family="Cascadia Code NF" font-size="10.00"> </text>
<text text-anchor="start" x="580" y="-102" font-family="Cascadia Code NF" font-size="10.00">+</text>
<text text-anchor="start" x="618" y="-102" font-family="Cascadia Code NF" font-size="10.00">SizeOf()</text>
<polygon fill="#666666" stroke="#666666" points="548,-129.5 548,-129.5 726,-129.5 726,-129.5 548,-129.5"/>
<polygon fill="#666666" stroke="#666666" points="548,-113.5 548,-113.5 726,-113.5 726,-113.5 548,-113.5"/>
<polygon fill="none" stroke="#666666" points="548,-95.5 548,-160.5 726,-160.5 726,-95.5 548,-95.5"/>
</a>
</g>
</g>
<!-- Node2 -->
<g id="Node000002" class="node">
<title>Node2</title>
<g id="a_Node000002"><a xlink:href="../../d3/d37/classv8_1_1internal_1_1SuffixRangeWeakBodyDescriptor.html" target="_top" xlink:title=" ">
<polygon fill="white" stroke="none" points="512,-167 322,-167 322,-89 512,-89 512,-167"/>
<text text-anchor="start" x="327" y="-153.5" font-family="Cascadia Code NF" font-size="10.00">v8::internal::SuffixRange</text>
<text text-anchor="start" x="327" y="-140.75" font-family="Cascadia Code NF" font-size="10.00">WeakBodyDescriptor&lt; HeapObject</text>
<text text-anchor="start" x="372" y="-128" font-family="Cascadia Code NF" font-size="10.00">::kHeaderSize &gt;</text>
<text text-anchor="start" x="414" y="-111.5" font-family="Cascadia Code NF" font-size="10.00"> </text>
<text text-anchor="start" x="349.5" y="-95.5" font-family="Cascadia Code NF" font-size="10.00">+</text>
<text text-anchor="start" x="383" y="-95.5" font-family="Cascadia Code NF" font-size="10.00">IterateBody()</text>
<polygon fill="#bfbfbf" stroke="#bfbfbf" points="322,-123 322,-123 512,-123 512,-123 322,-123"/>
<polygon fill="#bfbfbf" stroke="#bfbfbf" points="322,-107 322,-107 512,-107 512,-107 322,-107"/>
<polygon fill="none" stroke="#bfbfbf" points="322,-89 322,-167 512,-167 512,-89 322,-89"/>
</a>
</g>
</g>
<!-- Node2&#45;&gt;Node1 -->
<g id="edge1_Node000001_Node000002" class="edge">
<title>Node2&#45;&gt;Node1</title>
<g id="a_edge1_Node000001_Node000002"><a xlink:title=" ">
<path fill="none" stroke="#63b8ff" d="M523.13,-128C531.53,-128 539.96,-128 548.22,-128"/>
<polygon fill="none" stroke="#63b8ff" points="523.23,-124.5 513.23,-128 523.23,-131.5 523.23,-124.5"/>
</a>
</g>
</g>
<!-- Node3 -->
<g id="Node000003" class="node">
<title>Node3</title>
<g id="a_Node000003"><a xlink:href="../../d3/dde/classv8_1_1internal_1_1BodyDescriptorBase.html" target="_top" xlink:title=" ">
<polygon fill="white" stroke="none" points="202,-391.5 0,-391.5 0,-70.5 202,-70.5 202,-391.5"/>
<text text-anchor="start" x="5" y="-378" font-family="Cascadia Code NF" font-size="10.00">v8::internal::BodyDescriptorBase</text>
<text text-anchor="start" x="98" y="-362" font-family="Cascadia Code NF" font-size="10.00"> </text>
<text text-anchor="start" x="8" y="-346" font-family="Cascadia Code NF" font-size="10.00">+</text>
<text text-anchor="start" x="22" y="-346" font-family="Cascadia Code NF" font-size="10.00">IteratePointers()</text>
<text text-anchor="start" x="8" y="-330" font-family="Cascadia Code NF" font-size="10.00">+</text>
<text text-anchor="start" x="22" y="-330" font-family="Cascadia Code NF" font-size="10.00">IterateMaybeWeakPointers()</text>
<text text-anchor="start" x="8" y="-314" font-family="Cascadia Code NF" font-size="10.00">+</text>
<text text-anchor="start" x="22" y="-314" font-family="Cascadia Code NF" font-size="10.00">IterateCustomWeakPointers()</text>
<text text-anchor="start" x="8" y="-298" font-family="Cascadia Code NF" font-size="10.00">+</text>
<text text-anchor="start" x="22" y="-298" font-family="Cascadia Code NF" font-size="10.00">IterateEphemeron()</text>
<text text-anchor="start" x="8" y="-282" font-family="Cascadia Code NF" font-size="10.00">+</text>
<text text-anchor="start" x="22" y="-282" font-family="Cascadia Code NF" font-size="10.00">IteratePointers()</text>
<text text-anchor="start" x="8" y="-266" font-family="Cascadia Code NF" font-size="10.00">+</text>
<text text-anchor="start" x="22" y="-266" font-family="Cascadia Code NF" font-size="10.00">IteratePointer()</text>
<text text-anchor="start" x="8" y="-250" font-family="Cascadia Code NF" font-size="10.00">+</text>
<text text-anchor="start" x="22" y="-250" font-family="Cascadia Code NF" font-size="10.00">IterateCustomWeakPointers()</text>
<text text-anchor="start" x="8" y="-234" font-family="Cascadia Code NF" font-size="10.00">+</text>
<text text-anchor="start" x="22" y="-234" font-family="Cascadia Code NF" font-size="10.00">IterateCustomWeakPointer()</text>
<text text-anchor="start" x="8" y="-218" font-family="Cascadia Code NF" font-size="10.00">+</text>
<text text-anchor="start" x="22" y="-218" font-family="Cascadia Code NF" font-size="10.00">IterateEphemeron()</text>
<text text-anchor="start" x="8" y="-202" font-family="Cascadia Code NF" font-size="10.00">+</text>
<text text-anchor="start" x="22" y="-202" font-family="Cascadia Code NF" font-size="10.00">IterateMaybeWeakPointers()</text>
<text text-anchor="start" x="8" y="-186" font-family="Cascadia Code NF" font-size="10.00">+</text>
<text text-anchor="start" x="22" y="-186" font-family="Cascadia Code NF" font-size="10.00">IterateMaybeWeakPointer()</text>
<text text-anchor="start" x="8" y="-170" font-family="Cascadia Code NF" font-size="10.00">+</text>
<text text-anchor="start" x="22" y="-170" font-family="Cascadia Code NF" font-size="10.00">IterateTrustedPointer()</text>
<text text-anchor="start" x="8" y="-154" font-family="Cascadia Code NF" font-size="10.00">+</text>
<text text-anchor="start" x="22" y="-154" font-family="Cascadia Code NF" font-size="10.00">IterateCodePointer()</text>
<text text-anchor="start" x="8" y="-138" font-family="Cascadia Code NF" font-size="10.00">+</text>
<text text-anchor="start" x="22" y="-138" font-family="Cascadia Code NF" font-size="10.00">IterateSelfIndirectPointer()</text>
<text text-anchor="start" x="8" y="-122" font-family="Cascadia Code NF" font-size="10.00">+</text>
<text text-anchor="start" x="22" y="-122" font-family="Cascadia Code NF" font-size="10.00">IterateProtectedPointer()</text>
<text text-anchor="start" x="8" y="-106" font-family="Cascadia Code NF" font-size="10.00">#</text>
<text text-anchor="start" x="22" y="-106" font-family="Cascadia Code NF" font-size="10.00">IsValidEmbedderJSObjectSlot</text>
<text text-anchor="start" x="22" y="-93.25" font-family="Cascadia Code NF" font-size="10.00">Impl()</text>
<text text-anchor="start" x="8" y="-77" font-family="Cascadia Code NF" font-size="10.00">#</text>
<text text-anchor="start" x="22" y="-77" font-family="Cascadia Code NF" font-size="10.00">IterateJSObjectBodyImpl()</text>
<polygon fill="#bfbfbf" stroke="#bfbfbf" points="0,-373.5 0,-373.5 202,-373.5 202,-373.5 0,-373.5"/>
<polygon fill="#bfbfbf" stroke="#bfbfbf" points="0,-357.5 0,-357.5 202,-357.5 202,-357.5 0,-357.5"/>
<polygon fill="none" stroke="#bfbfbf" points="0,-70.5 0,-391.5 202,-391.5 202,-70.5 0,-70.5"/>
</a>
</g>
</g>
<!-- Node3&#45;&gt;Node2 -->
<g id="edge2_Node000002_Node000003" class="edge">
<title>Node3&#45;&gt;Node2</title>
<g id="a_edge2_Node000002_Node000003"><a xlink:title=" ">
<path fill="none" stroke="#63b8ff" d="M212.29,-194.82C248.13,-183.06 287.55,-170.13 322.09,-158.8"/>
<polygon fill="none" stroke="#63b8ff" points="211.63,-191.35 203.22,-197.8 213.81,-198.01 211.63,-191.35"/>
</a>
</g>
</g>
<!-- Node4 -->
<g id="Node000004" class="node">
<title>Node4</title>
<g id="a_Node000004"><a xlink:title=" ">
<polygon fill="white" stroke="none" points="121,-52 81,-52 81,0 121,0 121,-52"/>
<text text-anchor="start" x="86" y="-38.5" font-family="Cascadia Code NF" font-size="10.00">const</text>
<text text-anchor="start" x="98" y="-22.5" font-family="Cascadia Code NF" font-size="10.00"> </text>
<text text-anchor="start" x="98" y="-6.5" font-family="Cascadia Code NF" font-size="10.00"> </text>
<polygon fill="#bfbfbf" stroke="#bfbfbf" points="81,-34 81,-34 121,-34 121,-34 81,-34"/>
<polygon fill="#bfbfbf" stroke="#bfbfbf" points="81,-18 81,-18 121,-18 121,-18 81,-18"/>
<polygon fill="none" stroke="#bfbfbf" points="81,0 81,-52 121,-52 121,0 81,0"/>
</a>
</g>
</g>
<!-- Node4&#45;&gt;Node2 -->
<g id="edge3_Node000002_Node000004" class="edge">
<title>Node4&#45;&gt;Node2</title>
<g id="a_edge3_Node000002_Node000004"><a xlink:title=" ">
<path fill="none" stroke="#63b8ff" d="M120.7,-32.08C157.32,-43.97 240.92,-71.13 309.85,-93.52"/>
<polygon fill="none" stroke="#63b8ff" points="309.83,-93.51 316.77,-91.56 321.24,-97.22 314.3,-99.17 309.83,-93.51"/>
</a>
</g>
<text text-anchor="middle" x="262" y="-92.25" font-family="Cascadia Code NF" font-size="10.00" fill="grey"> +kStartOffset</text>
</g>
</g>
</svg>
