<?xml version="1.0" encoding="UTF-8" standalone="no"?>
<!DOCTYPE svg PUBLIC "-//W3C//DTD SVG 1.1//EN"
 "http://www.w3.org/Graphics/SVG/1.1/DTD/svg11.dtd">
<!-- Generated by graphviz version 11.0.0 (20240428.1522)
 -->
<!-- Title: v8::internal::wasm::ControlBase&lt; Value, ValidationTag &gt; Pages: 1 -->
<svg width="610pt" height="387pt"
 viewBox="0.00 0.00 610.00 387.00" xmlns="http://www.w3.org/2000/svg" xmlns:xlink="http://www.w3.org/1999/xlink">
<g id="graph0" class="graph" transform="scale(1 1) rotate(0) translate(4 383)">
<title>v8::internal::wasm::ControlBase&lt; Value, ValidationTag &gt;</title>
<!-- Node1 -->
<g id="Node000001" class="node">
<title>Node1</title>
<g id="a_Node000001"><a xlink:title=" ">
<polygon fill="#999999" stroke="none" points="352,-379 214,-379 214,0 352,0 352,-379"/>
<text text-anchor="start" x="220" y="-365.5" font-family="Cascadia Code NF" font-size="10.00">v8::internal::wasm</text>
<text text-anchor="start" x="220" y="-352.75" font-family="Cascadia Code NF" font-size="10.00">::ControlBase&lt; Value,</text>
<text text-anchor="start" x="235" y="-340" font-family="Cascadia Code NF" font-size="10.00"> ValidationTag &gt;</text>
<text text-anchor="start" x="218" y="-323.5" font-family="Cascadia Code NF" font-size="10.00">+</text>
<text text-anchor="start" x="228" y="-323.5" font-family="Cascadia Code NF" font-size="10.00">kind</text>
<text text-anchor="start" x="218" y="-307.5" font-family="Cascadia Code NF" font-size="10.00">+</text>
<text text-anchor="start" x="228" y="-307.5" font-family="Cascadia Code NF" font-size="10.00">reachability</text>
<text text-anchor="start" x="218" y="-291.5" font-family="Cascadia Code NF" font-size="10.00">+</text>
<text text-anchor="start" x="228" y="-291.5" font-family="Cascadia Code NF" font-size="10.00">catch_cases</text>
<text text-anchor="start" x="218" y="-275.5" font-family="Cascadia Code NF" font-size="10.00">+</text>
<text text-anchor="start" x="228" y="-275.5" font-family="Cascadia Code NF" font-size="10.00">stack_depth</text>
<text text-anchor="start" x="218" y="-259.5" font-family="Cascadia Code NF" font-size="10.00">+</text>
<text text-anchor="start" x="228" y="-259.5" font-family="Cascadia Code NF" font-size="10.00">init_stack_depth</text>
<text text-anchor="start" x="218" y="-243.5" font-family="Cascadia Code NF" font-size="10.00">+</text>
<text text-anchor="start" x="228" y="-243.5" font-family="Cascadia Code NF" font-size="10.00">previous_catch</text>
<text text-anchor="start" x="218" y="-227.5" font-family="Cascadia Code NF" font-size="10.00">+</text>
<text text-anchor="start" x="228" y="-227.5" font-family="Cascadia Code NF" font-size="10.00">start_merge</text>
<text text-anchor="start" x="218" y="-211.5" font-family="Cascadia Code NF" font-size="10.00">+</text>
<text text-anchor="start" x="228" y="-211.5" font-family="Cascadia Code NF" font-size="10.00">end_merge</text>
<text text-anchor="start" x="218" y="-195.5" font-family="Cascadia Code NF" font-size="10.00">+</text>
<text text-anchor="start" x="228" y="-195.5" font-family="Cascadia Code NF" font-size="10.00">might_throw</text>
<text text-anchor="start" x="218" y="-179.5" font-family="Cascadia Code NF" font-size="10.00">+</text>
<text text-anchor="start" x="228" y="-179.5" font-family="Cascadia Code NF" font-size="10.00">MOVE_ONLY_NO_DEFAULT</text>
<text text-anchor="start" x="228" y="-166.75" font-family="Cascadia Code NF" font-size="10.00">_CONSTRUCTOR()</text>
<text text-anchor="start" x="218" y="-150.5" font-family="Cascadia Code NF" font-size="10.00">+</text>
<text text-anchor="start" x="228" y="-150.5" font-family="Cascadia Code NF" font-size="10.00">ControlBase()</text>
<text text-anchor="start" x="218" y="-134.5" font-family="Cascadia Code NF" font-size="10.00">+</text>
<text text-anchor="start" x="228" y="-134.5" font-family="Cascadia Code NF" font-size="10.00">reachable()</text>
<text text-anchor="start" x="218" y="-118.5" font-family="Cascadia Code NF" font-size="10.00">+</text>
<text text-anchor="start" x="228" y="-118.5" font-family="Cascadia Code NF" font-size="10.00">unreachable()</text>
<text text-anchor="start" x="218" y="-102.5" font-family="Cascadia Code NF" font-size="10.00">+</text>
<text text-anchor="start" x="228" y="-102.5" font-family="Cascadia Code NF" font-size="10.00">innerReachability()</text>
<text text-anchor="start" x="218" y="-86.5" font-family="Cascadia Code NF" font-size="10.00">+</text>
<text text-anchor="start" x="228" y="-86.5" font-family="Cascadia Code NF" font-size="10.00">is_if()</text>
<text text-anchor="start" x="218" y="-70.5" font-family="Cascadia Code NF" font-size="10.00">+</text>
<text text-anchor="start" x="228" y="-70.5" font-family="Cascadia Code NF" font-size="10.00">is_onearmed_if()</text>
<text text-anchor="start" x="218" y="-54.5" font-family="Cascadia Code NF" font-size="10.00">+</text>
<text text-anchor="start" x="228" y="-54.5" font-family="Cascadia Code NF" font-size="10.00">is_if_else()</text>
<text text-anchor="start" x="218" y="-38.5" font-family="Cascadia Code NF" font-size="10.00">+</text>
<text text-anchor="start" x="228" y="-38.5" font-family="Cascadia Code NF" font-size="10.00">is_block()</text>
<text text-anchor="start" x="218" y="-22.5" font-family="Cascadia Code NF" font-size="10.00">+</text>
<text text-anchor="start" x="228" y="-22.5" font-family="Cascadia Code NF" font-size="10.00">is_loop()</text>
<text text-anchor="start" x="228" y="-6.5" font-family="Cascadia Code NF" font-size="10.00">and 6 more...</text>
<polygon fill="#666666" stroke="#666666" points="214,-335 214,-335 352,-335 352,-335 214,-335"/>
<polygon fill="#666666" stroke="#666666" points="214,-191 214,-191 226,-191 226,-191 214,-191"/>
<polygon fill="#666666" stroke="#666666" points="226,-191 226,-191 352,-191 352,-191 226,-191"/>
<polygon fill="none" stroke="#666666" points="214,0 214,-379 352,-379 352,0 214,0"/>
</a>
</g>
</g>
<!-- Node3 -->
<g id="Node000003" class="node">
<title>Node3</title>
<g id="a_Node000003"><a xlink:href="$d1/d70/structv8_1_1internal_1_1wasm_1_1TurboshaftGraphBuildingInterface_1_1Control.html" xlink:title=" ">
<polygon fill="white" stroke="none" points="602,-259 388,-259 388,-120 602,-120 602,-259"/>
<text text-anchor="start" x="393" y="-245.5" font-family="Cascadia Code NF" font-size="10.00">v8::internal::wasm</text>
<text text-anchor="start" x="393" y="-232.75" font-family="Cascadia Code NF" font-size="10.00">::TurboshaftGraphBuildingInterface</text>
<text text-anchor="start" x="396" y="-220" font-family="Cascadia Code NF" font-size="10.00">::Control&lt; Value, ValidationTag &gt;</text>
<text text-anchor="start" x="408" y="-203.5" font-family="Cascadia Code NF" font-size="10.00">+</text>
<text text-anchor="start" x="434" y="-203.5" font-family="Cascadia Code NF" font-size="10.00">merge_block</text>
<text text-anchor="start" x="408" y="-187.5" font-family="Cascadia Code NF" font-size="10.00">+</text>
<text text-anchor="start" x="434" y="-187.5" font-family="Cascadia Code NF" font-size="10.00">false_or_loop_or_catch</text>
<text text-anchor="start" x="434" y="-174.75" font-family="Cascadia Code NF" font-size="10.00">_block</text>
<text text-anchor="start" x="408" y="-158.5" font-family="Cascadia Code NF" font-size="10.00">+</text>
<text text-anchor="start" x="434" y="-158.5" font-family="Cascadia Code NF" font-size="10.00">assigned</text>
<text text-anchor="start" x="408" y="-142.5" font-family="Cascadia Code NF" font-size="10.00">+</text>
<text text-anchor="start" x="434" y="-142.5" font-family="Cascadia Code NF" font-size="10.00">exception</text>
<text text-anchor="start" x="408" y="-126.5" font-family="Cascadia Code NF" font-size="10.00">+</text>
<text text-anchor="start" x="434" y="-126.5" font-family="Cascadia Code NF" font-size="10.00">Control()</text>
<polygon fill="#bfbfbf" stroke="#bfbfbf" points="388,-215 388,-215 602,-215 602,-215 388,-215"/>
<polygon fill="#bfbfbf" stroke="#bfbfbf" points="388,-138 388,-138 432,-138 432,-138 388,-138"/>
<polygon fill="#bfbfbf" stroke="#bfbfbf" points="432,-138 432,-138 602,-138 602,-138 432,-138"/>
<polygon fill="none" stroke="#bfbfbf" points="388,-120 388,-259 602,-259 602,-120 388,-120"/>
</a>
</g>
</g>
<!-- Node1&#45;&gt;Node3 -->
<g id="edge2_Node000001_Node000003" class="edge">
<title>Node1&#45;&gt;Node3</title>
<g id="a_edge2_Node000001_Node000003"><a xlink:title=" ">
<path fill="none" stroke="#63b8ff" d="M363.25,-189.5C371.41,-189.5 379.79,-189.5 388.17,-189.5"/>
<polygon fill="none" stroke="#63b8ff" points="363.4,-186 353.4,-189.5 363.4,-193 363.4,-186"/>
</a>
</g>
</g>
<!-- Node2 -->
<g id="Node000002" class="node">
<title>Node2</title>
<g id="a_Node000002"><a xlink:href="$d5/da9/structv8_1_1internal_1_1wasm_1_1PcForErrors.html" xlink:title=" ">
<polygon fill="white" stroke="none" points="178,-236.5 0,-236.5 0,-142.5 178,-142.5 178,-236.5"/>
<text text-anchor="start" x="5" y="-223" font-family="Cascadia Code NF" font-size="10.00">v8::internal::wasm</text>
<text text-anchor="start" x="5" y="-210.25" font-family="Cascadia Code NF" font-size="10.00">::PcForErrors&lt; ValidationTag</text>
<text text-anchor="start" x="32" y="-197.5" font-family="Cascadia Code NF" font-size="10.00">::full_validation &gt;</text>
<text text-anchor="start" x="86" y="-181" font-family="Cascadia Code NF" font-size="10.00"> </text>
<text text-anchor="start" x="24.5" y="-165" font-family="Cascadia Code NF" font-size="10.00">+</text>
<text text-anchor="start" x="55" y="-165" font-family="Cascadia Code NF" font-size="10.00">PcForErrors()</text>
<text text-anchor="start" x="24.5" y="-149" font-family="Cascadia Code NF" font-size="10.00">+</text>
<text text-anchor="start" x="55" y="-149" font-family="Cascadia Code NF" font-size="10.00">pc()</text>
<polygon fill="#bfbfbf" stroke="#bfbfbf" points="0,-192.5 0,-192.5 178,-192.5 178,-192.5 0,-192.5"/>
<polygon fill="#bfbfbf" stroke="#bfbfbf" points="0,-176.5 0,-176.5 178,-176.5 178,-176.5 0,-176.5"/>
<polygon fill="none" stroke="#bfbfbf" points="0,-142.5 0,-236.5 178,-236.5 178,-142.5 0,-142.5"/>
</a>
</g>
</g>
<!-- Node2&#45;&gt;Node1 -->
<g id="edge1_Node000001_Node000002" class="edge">
<title>Node2&#45;&gt;Node1</title>
<g id="a_edge1_Node000001_Node000002"><a xlink:title=" ">
<path fill="none" stroke="#63b8ff" d="M189.27,-189.5C197.64,-189.5 205.98,-189.5 214.03,-189.5"/>
<polygon fill="none" stroke="#63b8ff" points="189.37,-186 179.37,-189.5 189.37,-193 189.37,-186"/>
</a>
</g>
</g>
</g>
</svg>
