<?xml version="1.0" encoding="UTF-8" standalone="no"?>
<!DOCTYPE svg PUBLIC "-//W3C//DTD SVG 1.1//EN"
 "http://www.w3.org/Graphics/SVG/1.1/DTD/svg11.dtd">
<!-- Generated by graphviz version 11.0.0 (20240428.1522)
 -->
<!-- Title: v8::internal::torque::BlockStatement Pages: 1 -->
<svg width="1414pt" height="265pt"
 viewBox="0.00 0.00 1414.00 264.50" xmlns="http://www.w3.org/2000/svg" xmlns:xlink="http://www.w3.org/1999/xlink">
<g id="graph0" class="graph" transform="scale(1 1) rotate(0) translate(4 260.5)">
<title>v8::internal::torque::BlockStatement</title>
<!-- Node1 -->
<g id="Node000001" class="node">
<title>Node1</title>
<g id="a_Node000001"><a xlink:title=" ">
<polygon fill="#999999" stroke="none" points="1406,-174 1276,-174 1276,-109 1406,-109 1406,-174"/>
<text text-anchor="start" x="1281" y="-160.5" font-family="Cascadia Code NF" font-size="10.00">v8::internal::torque</text>
<text text-anchor="start" x="1293" y="-147.75" font-family="Cascadia Code NF" font-size="10.00">::BlockStatement</text>
<text text-anchor="start" x="1338" y="-131.5" font-family="Cascadia Code NF" font-size="10.00"> </text>
<text text-anchor="start" x="1284" y="-115.5" font-family="Cascadia Code NF" font-size="10.00">+</text>
<text text-anchor="start" x="1298" y="-115.5" font-family="Cascadia Code NF" font-size="10.00">BlockStatement()</text>
<polygon fill="#666666" stroke="#666666" points="1276,-143 1276,-143 1406,-143 1406,-143 1276,-143"/>
<polygon fill="#666666" stroke="#666666" points="1276,-127 1276,-127 1406,-127 1406,-127 1276,-127"/>
<polygon fill="none" stroke="#666666" points="1276,-109 1276,-174 1406,-174 1406,-109 1276,-109"/>
</a>
</g>
</g>
<!-- Node2 -->
<g id="Node000002" class="node">
<title>Node2</title>
<g id="a_Node000002"><a xlink:href="$db/d79/structv8_1_1internal_1_1torque_1_1Statement.html" xlink:title=" ">
<polygon fill="white" stroke="none" points="912,-209 782,-209 782,-144 912,-144 912,-209"/>
<text text-anchor="start" x="787" y="-195.5" font-family="Cascadia Code NF" font-size="10.00">v8::internal::torque</text>
<text text-anchor="start" x="814" y="-182.75" font-family="Cascadia Code NF" font-size="10.00">::Statement</text>
<text text-anchor="start" x="844" y="-166.5" font-family="Cascadia Code NF" font-size="10.00"> </text>
<text text-anchor="start" x="797.5" y="-150.5" font-family="Cascadia Code NF" font-size="10.00">+</text>
<text text-anchor="start" x="819" y="-150.5" font-family="Cascadia Code NF" font-size="10.00">Statement()</text>
<polygon fill="#bfbfbf" stroke="#bfbfbf" points="782,-178 782,-178 912,-178 912,-178 782,-178"/>
<polygon fill="#bfbfbf" stroke="#bfbfbf" points="782,-162 782,-162 912,-162 912,-162 782,-162"/>
<polygon fill="none" stroke="#bfbfbf" points="782,-144 782,-209 912,-209 912,-144 782,-144"/>
</a>
</g>
</g>
<!-- Node2&#45;&gt;Node1 -->
<g id="edge1_Node000001_Node000002" class="edge">
<title>Node2&#45;&gt;Node1</title>
<g id="a_edge1_Node000001_Node000002"><a xlink:title=" ">
<path fill="none" stroke="#63b8ff" d="M922.89,-180.19C925.29,-180.29 927.66,-180.4 930,-180.5 1035.69,-185.11 1062.97,-196.14 1168,-183.5 1204.32,-179.13 1244.04,-169.75 1276.15,-160.96"/>
<polygon fill="none" stroke="#63b8ff" points="923.23,-176.7 913.08,-179.73 922.91,-183.69 923.23,-176.7"/>
</a>
</g>
</g>
<!-- Node10 -->
<g id="Node000010" class="node">
<title>Node10</title>
<g id="a_Node000010"><a xlink:title=" ">
<polygon fill="white" stroke="none" points="1168,-174 1008,-174 1008,-109 1168,-109 1168,-174"/>
<text text-anchor="start" x="1013" y="-160.5" font-family="Cascadia Code NF" font-size="10.00">std::vector&lt; v8::internal</text>
<text text-anchor="start" x="1019" y="-147.75" font-family="Cascadia Code NF" font-size="10.00">::torque::Statement * &gt;</text>
<text text-anchor="start" x="1085" y="-131.5" font-family="Cascadia Code NF" font-size="10.00"> </text>
<text text-anchor="start" x="1085" y="-115.5" font-family="Cascadia Code NF" font-size="10.00"> </text>
<polygon fill="#666666" stroke="#666666" points="1008,-143 1008,-143 1168,-143 1168,-143 1008,-143"/>
<polygon fill="#666666" stroke="#666666" points="1008,-127 1008,-127 1168,-127 1168,-127 1008,-127"/>
<polygon fill="none" stroke="#666666" points="1008,-109 1008,-174 1168,-174 1168,-109 1008,-109"/>
</a>
</g>
</g>
<!-- Node2&#45;&gt;Node10 -->
<g id="edge10_Node000010_Node000002" class="edge">
<title>Node2&#45;&gt;Node10</title>
<g id="a_edge10_Node000010_Node000002"><a xlink:title=" ">
<path fill="none" stroke="#63b8ff" d="M911.73,-167.17C937.4,-163.41 967.48,-159 995.41,-154.91"/>
<polygon fill="none" stroke="#63b8ff" points="995.3,-154.93 1000.66,-150.1 1007.18,-153.19 1001.82,-158.02 995.3,-154.93"/>
</a>
</g>
<text text-anchor="middle" x="960" y="-166.75" font-family="Cascadia Code NF" font-size="10.00" fill="grey"> +elements</text>
</g>
<!-- Node3 -->
<g id="Node000003" class="node">
<title>Node3</title>
<g id="a_Node000003"><a xlink:href="$df/de2/structv8_1_1internal_1_1torque_1_1AstNode.html" xlink:title=" ">
<polygon fill="white" stroke="none" points="746,-217 616,-217 616,-136 746,-136 746,-217"/>
<text text-anchor="start" x="621" y="-203.5" font-family="Cascadia Code NF" font-size="10.00">v8::internal::torque</text>
<text text-anchor="start" x="654" y="-190.75" font-family="Cascadia Code NF" font-size="10.00">::AstNode</text>
<text text-anchor="start" x="678" y="-174.5" font-family="Cascadia Code NF" font-size="10.00"> </text>
<text text-anchor="start" x="633" y="-158.5" font-family="Cascadia Code NF" font-size="10.00">+</text>
<text text-anchor="start" x="656" y="-158.5" font-family="Cascadia Code NF" font-size="10.00">AstNode()</text>
<text text-anchor="start" x="633" y="-142.5" font-family="Cascadia Code NF" font-size="10.00">+</text>
<text text-anchor="start" x="656" y="-142.5" font-family="Cascadia Code NF" font-size="10.00">~AstNode()</text>
<polygon fill="#bfbfbf" stroke="#bfbfbf" points="616,-186 616,-186 746,-186 746,-186 616,-186"/>
<polygon fill="#bfbfbf" stroke="#bfbfbf" points="616,-170 616,-170 746,-170 746,-170 616,-170"/>
<polygon fill="none" stroke="#bfbfbf" points="616,-136 616,-217 746,-217 746,-136 616,-136"/>
</a>
</g>
</g>
<!-- Node3&#45;&gt;Node2 -->
<g id="edge2_Node000002_Node000003" class="edge">
<title>Node3&#45;&gt;Node2</title>
<g id="a_edge2_Node000002_Node000003"><a xlink:title=" ">
<path fill="none" stroke="#63b8ff" d="M757.13,-176.5C765.45,-176.5 773.86,-176.5 782.03,-176.5"/>
<polygon fill="none" stroke="#63b8ff" points="757.39,-173 747.39,-176.5 757.39,-180 757.39,-173"/>
</a>
</g>
</g>
<!-- Node4 -->
<g id="Node000004" class="node">
<title>Node4</title>
<g id="a_Node000004"><a xlink:title=" ">
<polygon fill="white" stroke="none" points="477,-256.5 437,-256.5 437,-204.5 477,-204.5 477,-256.5"/>
<text text-anchor="start" x="442" y="-243" font-family="Cascadia Code NF" font-size="10.00">const</text>
<text text-anchor="start" x="454" y="-227" font-family="Cascadia Code NF" font-size="10.00"> </text>
<text text-anchor="start" x="454" y="-211" font-family="Cascadia Code NF" font-size="10.00"> </text>
<polygon fill="#bfbfbf" stroke="#bfbfbf" points="437,-238.5 437,-238.5 477,-238.5 477,-238.5 437,-238.5"/>
<polygon fill="#bfbfbf" stroke="#bfbfbf" points="437,-222.5 437,-222.5 477,-222.5 477,-222.5 437,-222.5"/>
<polygon fill="none" stroke="#bfbfbf" points="437,-204.5 437,-256.5 477,-256.5 477,-204.5 437,-204.5"/>
</a>
</g>
</g>
<!-- Node4&#45;&gt;Node3 -->
<g id="edge3_Node000003_Node000004" class="edge">
<title>Node4&#45;&gt;Node3</title>
<g id="a_edge3_Node000003_Node000004"><a xlink:title=" ">
<path fill="none" stroke="#63b8ff" d="M476.93,-225.9C504.82,-219.11 558.54,-206.04 603.72,-195.05"/>
<polygon fill="none" stroke="#63b8ff" points="603.68,-195.07 608.56,-189.76 615.34,-192.23 610.45,-197.53 603.68,-195.07"/>
</a>
</g>
<text text-anchor="middle" x="580" y="-207.75" font-family="Cascadia Code NF" font-size="10.00" fill="grey"> +kind</text>
</g>
<!-- Node5 -->
<g id="Node000005" class="node">
<title>Node5</title>
<g id="a_Node000005"><a xlink:href="$d6/d85/structv8_1_1internal_1_1torque_1_1SourcePosition.html" xlink:title=" ">
<polygon fill="white" stroke="none" points="544,-186 370,-186 370,-57 544,-57 544,-186"/>
<text text-anchor="start" x="397" y="-172.5" font-family="Cascadia Code NF" font-size="10.00">v8::internal::torque</text>
<text text-anchor="start" x="409" y="-159.75" font-family="Cascadia Code NF" font-size="10.00">::SourcePosition</text>
<text text-anchor="start" x="454" y="-143.5" font-family="Cascadia Code NF" font-size="10.00"> </text>
<text text-anchor="start" x="374" y="-127.5" font-family="Cascadia Code NF" font-size="10.00">+</text>
<text text-anchor="start" x="384" y="-127.5" font-family="Cascadia Code NF" font-size="10.00">CompareStartIgnoreColumn()</text>
<text text-anchor="start" x="374" y="-111.5" font-family="Cascadia Code NF" font-size="10.00">+</text>
<text text-anchor="start" x="384" y="-111.5" font-family="Cascadia Code NF" font-size="10.00">Contains()</text>
<text text-anchor="start" x="374" y="-95.5" font-family="Cascadia Code NF" font-size="10.00">+</text>
<text text-anchor="start" x="384" y="-95.5" font-family="Cascadia Code NF" font-size="10.00">operator==()</text>
<text text-anchor="start" x="374" y="-79.5" font-family="Cascadia Code NF" font-size="10.00">+</text>
<text text-anchor="start" x="384" y="-79.5" font-family="Cascadia Code NF" font-size="10.00">operator!=()</text>
<text text-anchor="start" x="374" y="-63.5" font-family="Cascadia Code NF" font-size="10.00">+</text>
<text text-anchor="start" x="384" y="-63.5" font-family="Cascadia Code NF" font-size="10.00">Invalid()</text>
<polygon fill="#bfbfbf" stroke="#bfbfbf" points="370,-155 370,-155 544,-155 544,-155 370,-155"/>
<polygon fill="#bfbfbf" stroke="#bfbfbf" points="370,-139 370,-139 544,-139 544,-139 370,-139"/>
<polygon fill="none" stroke="#bfbfbf" points="370,-57 370,-186 544,-186 544,-57 370,-57"/>
</a>
</g>
</g>
<!-- Node5&#45;&gt;Node3 -->
<g id="edge4_Node000003_Node000005" class="edge">
<title>Node5&#45;&gt;Node3</title>
<g id="a_edge4_Node000003_Node000005"><a xlink:title=" ">
<path fill="none" stroke="#63b8ff" d="M543.83,-142.76C563.55,-147.65 584.38,-152.81 603.67,-157.59"/>
<polygon fill="none" stroke="#63b8ff" points="603.57,-157.56 610.35,-155.12 615.21,-160.45 608.43,-162.89 603.57,-157.56"/>
</a>
</g>
<text text-anchor="middle" x="580" y="-158.75" font-family="Cascadia Code NF" font-size="10.00" fill="grey"> +pos</text>
</g>
<!-- Node6 -->
<g id="Node000006" class="node">
<title>Node6</title>
<g id="a_Node000006"><a xlink:href="$d7/d9f/classv8_1_1internal_1_1torque_1_1SourceId.html" xlink:title=" ">
<polygon fill="white" stroke="none" points="285,-244 155,-244 155,-131 285,-131 285,-244"/>
<text text-anchor="start" x="160" y="-230.5" font-family="Cascadia Code NF" font-size="10.00">v8::internal::torque</text>
<text text-anchor="start" x="190" y="-217.75" font-family="Cascadia Code NF" font-size="10.00">::SourceId</text>
<text text-anchor="start" x="217" y="-201.5" font-family="Cascadia Code NF" font-size="10.00"> </text>
<text text-anchor="start" x="169" y="-185.5" font-family="Cascadia Code NF" font-size="10.00">+</text>
<text text-anchor="start" x="189" y="-185.5" font-family="Cascadia Code NF" font-size="10.00">IsValid()</text>
<text text-anchor="start" x="169" y="-169.5" font-family="Cascadia Code NF" font-size="10.00">+</text>
<text text-anchor="start" x="189" y="-169.5" font-family="Cascadia Code NF" font-size="10.00">operator==()</text>
<text text-anchor="start" x="169" y="-153.5" font-family="Cascadia Code NF" font-size="10.00">+</text>
<text text-anchor="start" x="189" y="-153.5" font-family="Cascadia Code NF" font-size="10.00">operator&lt;()</text>
<text text-anchor="start" x="169" y="-137.5" font-family="Cascadia Code NF" font-size="10.00">+</text>
<text text-anchor="start" x="189" y="-137.5" font-family="Cascadia Code NF" font-size="10.00">Invalid()</text>
<polygon fill="#bfbfbf" stroke="#bfbfbf" points="155,-213 155,-213 285,-213 285,-213 155,-213"/>
<polygon fill="#bfbfbf" stroke="#bfbfbf" points="155,-197 155,-197 285,-197 285,-197 155,-197"/>
<polygon fill="none" stroke="#bfbfbf" points="155,-131 155,-244 285,-244 285,-131 155,-131"/>
</a>
</g>
</g>
<!-- Node6&#45;&gt;Node5 -->
<g id="edge5_Node000005_Node000006" class="edge">
<title>Node6&#45;&gt;Node5</title>
<g id="a_edge5_Node000005_Node000006"><a xlink:title=" ">
<path fill="none" stroke="#63b8ff" d="M284.9,-169.55C307.34,-163.25 333.1,-156.02 357.71,-149.11"/>
<polygon fill="none" stroke="#63b8ff" points="357.64,-149.13 362.33,-143.65 369.19,-145.88 364.5,-151.35 357.64,-149.13"/>
</a>
</g>
<text text-anchor="middle" x="328" y="-164.75" font-family="Cascadia Code NF" font-size="10.00" fill="grey"> +source</text>
</g>
<!-- Node7 -->
<g id="Node000007" class="node">
<title>Node7</title>
<g id="a_Node000007"><a xlink:href="$db/dd4/structv8_1_1internal_1_1torque_1_1LineAndColumn.html" xlink:title=" ">
<polygon fill="white" stroke="none" points="286,-113 154,-113 154,0 286,0 286,-113"/>
<text text-anchor="start" x="160" y="-99.5" font-family="Cascadia Code NF" font-size="10.00">v8::internal::torque</text>
<text text-anchor="start" x="175" y="-86.75" font-family="Cascadia Code NF" font-size="10.00">::LineAndColumn</text>
<text text-anchor="start" x="217" y="-70.5" font-family="Cascadia Code NF" font-size="10.00"> </text>
<text text-anchor="start" x="158" y="-54.5" font-family="Cascadia Code NF" font-size="10.00">+</text>
<text text-anchor="start" x="168" y="-54.5" font-family="Cascadia Code NF" font-size="10.00">operator==()</text>
<text text-anchor="start" x="158" y="-38.5" font-family="Cascadia Code NF" font-size="10.00">+</text>
<text text-anchor="start" x="168" y="-38.5" font-family="Cascadia Code NF" font-size="10.00">operator!=()</text>
<text text-anchor="start" x="158" y="-22.5" font-family="Cascadia Code NF" font-size="10.00">+</text>
<text text-anchor="start" x="168" y="-22.5" font-family="Cascadia Code NF" font-size="10.00">Invalid()</text>
<text text-anchor="start" x="158" y="-6.5" font-family="Cascadia Code NF" font-size="10.00">+</text>
<text text-anchor="start" x="168" y="-6.5" font-family="Cascadia Code NF" font-size="10.00">WithUnknownOffset()</text>
<polygon fill="#bfbfbf" stroke="#bfbfbf" points="154,-82 154,-82 286,-82 286,-82 154,-82"/>
<polygon fill="#bfbfbf" stroke="#bfbfbf" points="154,-66 154,-66 286,-66 286,-66 154,-66"/>
<polygon fill="none" stroke="#bfbfbf" points="154,0 154,-113 286,-113 286,0 154,0"/>
</a>
</g>
</g>
<!-- Node7&#45;&gt;Node5 -->
<g id="edge6_Node000005_Node000007" class="edge">
<title>Node7&#45;&gt;Node5</title>
<g id="a_edge6_Node000005_Node000007"><a xlink:title=" ">
<path fill="none" stroke="#63b8ff" d="M285.84,-74.43C308.05,-80.58 333.43,-87.6 357.69,-94.31"/>
<polygon fill="none" stroke="#63b8ff" points="357.81,-94.34 364.66,-92.09 369.38,-97.54 362.53,-99.8 357.81,-94.34"/>
</a>
</g>
<text text-anchor="middle" x="328" y="-107.5" font-family="Cascadia Code NF" font-size="10.00" fill="grey"> +end</text>
<text text-anchor="middle" x="328" y="-94.75" font-family="Cascadia Code NF" font-size="10.00" fill="grey">+start</text>
</g>
<!-- Node8 -->
<g id="Node000008" class="node">
<title>Node8</title>
<g id="a_Node000008"><a xlink:href="$d1/da0/classint.html" xlink:title=" ">
<polygon fill="white" stroke="none" points="28,-82.5 0,-82.5 0,-30.5 28,-30.5 28,-82.5"/>
<text text-anchor="start" x="5" y="-69" font-family="Cascadia Code NF" font-size="10.00">int</text>
<text text-anchor="start" x="11" y="-53" font-family="Cascadia Code NF" font-size="10.00"> </text>
<text text-anchor="start" x="11" y="-37" font-family="Cascadia Code NF" font-size="10.00"> </text>
<polygon fill="#bfbfbf" stroke="#bfbfbf" points="0,-64.5 0,-64.5 28,-64.5 28,-64.5 0,-64.5"/>
<polygon fill="#bfbfbf" stroke="#bfbfbf" points="0,-48.5 0,-48.5 28,-48.5 28,-48.5 0,-48.5"/>
<polygon fill="none" stroke="#bfbfbf" points="0,-30.5 0,-82.5 28,-82.5 28,-30.5 0,-30.5"/>
</a>
</g>
</g>
<!-- Node8&#45;&gt;Node7 -->
<g id="edge7_Node000007_Node000008" class="edge">
<title>Node8&#45;&gt;Node7</title>
<g id="a_edge7_Node000007_Node000008"><a xlink:title=" ">
<path fill="none" stroke="#63b8ff" d="M27.76,-56.5C50.29,-56.5 98.76,-56.5 141.26,-56.5"/>
<polygon fill="none" stroke="#63b8ff" points="141.32,-56.5 147.32,-52.5 153.32,-56.5 147.32,-60.5 141.32,-56.5"/>
</a>
</g>
<text text-anchor="middle" x="91" y="-98" font-family="Cascadia Code NF" font-size="10.00" fill="grey"> +column</text>
<text text-anchor="middle" x="91" y="-85.25" font-family="Cascadia Code NF" font-size="10.00" fill="grey">+kUnknownOffset</text>
<text text-anchor="middle" x="91" y="-72.5" font-family="Cascadia Code NF" font-size="10.00" fill="grey">+line</text>
<text text-anchor="middle" x="91" y="-59.75" font-family="Cascadia Code NF" font-size="10.00" fill="grey">+offset</text>
</g>
<!-- Node9 -->
<g id="Node000009" class="node">
<title>Node9</title>
<g id="a_Node000009"><a xlink:title=" ">
<polygon fill="white" stroke="none" points="1105,-90.5 1071,-90.5 1071,-38.5 1105,-38.5 1105,-90.5"/>
<text text-anchor="start" x="1076" y="-77" font-family="Cascadia Code NF" font-size="10.00">bool</text>
<text text-anchor="start" x="1085" y="-61" font-family="Cascadia Code NF" font-size="10.00"> </text>
<text text-anchor="start" x="1085" y="-45" font-family="Cascadia Code NF" font-size="10.00"> </text>
<polygon fill="#bfbfbf" stroke="#bfbfbf" points="1071,-72.5 1071,-72.5 1105,-72.5 1105,-72.5 1071,-72.5"/>
<polygon fill="#bfbfbf" stroke="#bfbfbf" points="1071,-56.5 1071,-56.5 1105,-56.5 1105,-56.5 1071,-56.5"/>
<polygon fill="none" stroke="#bfbfbf" points="1071,-38.5 1071,-90.5 1105,-90.5 1105,-38.5 1071,-38.5"/>
</a>
</g>
</g>
<!-- Node9&#45;&gt;Node1 -->
<g id="edge8_Node000001_Node000009" class="edge">
<title>Node9&#45;&gt;Node1</title>
<g id="a_edge8_Node000001_Node000009"><a xlink:title=" ">
<path fill="none" stroke="#63b8ff" d="M1104.7,-69.32C1135.93,-78.9 1207.67,-100.9 1263.78,-118.12"/>
<polygon fill="none" stroke="#63b8ff" points="1263.88,-118.15 1270.79,-116.09 1275.36,-121.67 1268.45,-123.73 1263.88,-118.15"/>
</a>
</g>
<text text-anchor="middle" x="1222" y="-117.75" font-family="Cascadia Code NF" font-size="10.00" fill="grey"> +deferred</text>
</g>
<!-- Node10&#45;&gt;Node1 -->
<g id="edge9_Node000001_Node000010" class="edge">
<title>Node10&#45;&gt;Node1</title>
<g id="a_edge9_Node000001_Node000010"><a xlink:title=" ">
<path fill="none" stroke="#63b8ff" d="M1167.73,-141.5C1198.3,-141.5 1233.19,-141.5 1263.54,-141.5"/>
<polygon fill="none" stroke="#63b8ff" points="1263.34,-141.5 1269.34,-137.5 1275.34,-141.5 1269.34,-145.5 1263.34,-141.5"/>
</a>
</g>
<text text-anchor="middle" x="1222" y="-144.75" font-family="Cascadia Code NF" font-size="10.00" fill="grey"> +statements</text>
</g>
</g>
</svg>
