<?xml version="1.0" encoding="UTF-8" standalone="no"?>
<!DOCTYPE svg PUBLIC "-//W3C//DTD SVG 1.1//EN"
 "http://www.w3.org/Graphics/SVG/1.1/DTD/svg11.dtd">
<!-- Generated by graphviz version 11.0.0 (20240428.1522)
 -->
<!-- Title: v8_inspector::protocol::Runtime::DomainDispatcherImpl Pages: 1 -->
<svg width="472pt" height="311pt"
 viewBox="0.00 0.00 472.00 311.00" xmlns="http://www.w3.org/2000/svg" xmlns:xlink="http://www.w3.org/1999/xlink">

<svg id="main" version="1.1" xmlns="http://www.w3.org/2000/svg" xmlns:xlink="http://www.w3.org/1999/xlink" xml:space="preserve" onload="init(evt)">
<style type="text/css"><![CDATA[
.node, .edge {opacity: 0.7;}
.node.selected, .edge.selected {opacity: 1;}
.edge:hover path { stroke: red; }
.edge:hover polygon { stroke: red; fill: red; }
svg#main { background-color: #111; }
]]></style>
<script type="application/ecmascript" xlink:href="../../svg.min.js"/>
<svg id="graph" class="graph">
<g id="graph0" class="graph" transform="scale(1 1) rotate(0) translate(4 307)">
<title>v8_inspector::protocol::Runtime::DomainDispatcherImpl</title>
<!-- Node1 -->
<g id="Node000001" class="node">
<title>Node1</title>
<g id="a_Node000001"><a xlink:title=" ">
<polygon fill="#999999" stroke="none" points="464,-303 268,-303 268,-78 464,-78 464,-303"/>
<text text-anchor="start" x="273" y="-289.5" font-family="Cascadia Code NF" font-size="10.00">v8_inspector::protocol</text>
<text text-anchor="start" x="273" y="-276.75" font-family="Cascadia Code NF" font-size="10.00">::Runtime::DomainDispatcherImpl</text>
<text text-anchor="start" x="363" y="-260.5" font-family="Cascadia Code NF" font-size="10.00"> </text>
<text text-anchor="start" x="282" y="-244.5" font-family="Cascadia Code NF" font-size="10.00">+</text>
<text text-anchor="start" x="302" y="-244.5" font-family="Cascadia Code NF" font-size="10.00">DomainDispatcherImpl()</text>
<text text-anchor="start" x="282" y="-228.5" font-family="Cascadia Code NF" font-size="10.00">+</text>
<text text-anchor="start" x="302" y="-228.5" font-family="Cascadia Code NF" font-size="10.00">~DomainDispatcherImpl()</text>
<text text-anchor="start" x="282" y="-212.5" font-family="Cascadia Code NF" font-size="10.00">+</text>
<text text-anchor="start" x="302" y="-212.5" font-family="Cascadia Code NF" font-size="10.00">Dispatch()</text>
<text text-anchor="start" x="282" y="-196.5" font-family="Cascadia Code NF" font-size="10.00">+</text>
<text text-anchor="start" x="302" y="-196.5" font-family="Cascadia Code NF" font-size="10.00">awaitPromise()</text>
<text text-anchor="start" x="282" y="-180.5" font-family="Cascadia Code NF" font-size="10.00">+</text>
<text text-anchor="start" x="302" y="-180.5" font-family="Cascadia Code NF" font-size="10.00">callFunctionOn()</text>
<text text-anchor="start" x="282" y="-164.5" font-family="Cascadia Code NF" font-size="10.00">+</text>
<text text-anchor="start" x="302" y="-164.5" font-family="Cascadia Code NF" font-size="10.00">compileScript()</text>
<text text-anchor="start" x="282" y="-148.5" font-family="Cascadia Code NF" font-size="10.00">+</text>
<text text-anchor="start" x="302" y="-148.5" font-family="Cascadia Code NF" font-size="10.00">disable()</text>
<text text-anchor="start" x="282" y="-132.5" font-family="Cascadia Code NF" font-size="10.00">+</text>
<text text-anchor="start" x="302" y="-132.5" font-family="Cascadia Code NF" font-size="10.00">discardConsoleEntries()</text>
<text text-anchor="start" x="282" y="-116.5" font-family="Cascadia Code NF" font-size="10.00">+</text>
<text text-anchor="start" x="302" y="-116.5" font-family="Cascadia Code NF" font-size="10.00">enable()</text>
<text text-anchor="start" x="282" y="-100.5" font-family="Cascadia Code NF" font-size="10.00">+</text>
<text text-anchor="start" x="302" y="-100.5" font-family="Cascadia Code NF" font-size="10.00">evaluate()</text>
<text text-anchor="start" x="302" y="-84.5" font-family="Cascadia Code NF" font-size="10.00">and 15 more...</text>
<polygon fill="#666666" stroke="#666666" points="268,-272 268,-272 464,-272 464,-272 268,-272"/>
<polygon fill="#666666" stroke="#666666" points="268,-256 268,-256 464,-256 464,-256 268,-256"/>
<polygon fill="none" stroke="#666666" points="268,-78 268,-303 464,-303 464,-78 268,-78"/>
</a>
</g>
</g>
<!-- Node2 -->
<g id="Node000002" class="node">
<title>Node2</title>
<g id="a_Node000002"><a xlink:title=" ">
<polygon fill="white" stroke="none" points="166,-295.5 0,-295.5 0,-243.5 166,-243.5 166,-295.5"/>
<text text-anchor="start" x="5" y="-282" font-family="Cascadia Code NF" font-size="10.00">protocol::DomainDispatcher</text>
<text text-anchor="start" x="80" y="-266" font-family="Cascadia Code NF" font-size="10.00"> </text>
<text text-anchor="start" x="80" y="-250" font-family="Cascadia Code NF" font-size="10.00"> </text>
<polygon fill="#bfbfbf" stroke="#bfbfbf" points="0,-277.5 0,-277.5 166,-277.5 166,-277.5 0,-277.5"/>
<polygon fill="#bfbfbf" stroke="#bfbfbf" points="0,-261.5 0,-261.5 166,-261.5 166,-261.5 0,-261.5"/>
<polygon fill="none" stroke="#bfbfbf" points="0,-243.5 0,-295.5 166,-295.5 166,-243.5 0,-243.5"/>
</a>
</g>
</g>
<!-- Node2&#45;&gt;Node1 -->
<g id="edge1_Node000001_Node000002" class="edge">
<title>Node2&#45;&gt;Node1</title>
<g id="a_edge1_Node000001_Node000002"><a xlink:title=" ">
<path fill="none" stroke="#63b8ff" d="M176.74,-243.43C206.09,-235.17 238.61,-226.03 268.24,-217.7"/>
<polygon fill="none" stroke="#63b8ff" points="175.79,-240.06 167.11,-246.13 177.69,-246.8 175.79,-240.06"/>
</a>
</g>
</g>
<!-- Node3 -->
<g id="Node000003" class="node">
<title>Node3</title>
<g id="a_Node000003"><a xlink:href="../../dd/d88/classv8__inspector_1_1protocol_1_1Runtime_1_1Backend.html" target="_top" xlink:title=" ">
<polygon fill="white" stroke="none" points="161,-225 5,-225 5,0 161,0 161,-225"/>
<text text-anchor="start" x="17" y="-211.5" font-family="Cascadia Code NF" font-size="10.00">v8_inspector::protocol</text>
<text text-anchor="start" x="29" y="-198.75" font-family="Cascadia Code NF" font-size="10.00">::Runtime::Backend</text>
<text text-anchor="start" x="80" y="-182.5" font-family="Cascadia Code NF" font-size="10.00"> </text>
<text text-anchor="start" x="9" y="-166.5" font-family="Cascadia Code NF" font-size="10.00">+</text>
<text text-anchor="start" x="19" y="-166.5" font-family="Cascadia Code NF" font-size="10.00">~Backend()</text>
<text text-anchor="start" x="9" y="-150.5" font-family="Cascadia Code NF" font-size="10.00">+</text>
<text text-anchor="start" x="19" y="-150.5" font-family="Cascadia Code NF" font-size="10.00">awaitPromise()</text>
<text text-anchor="start" x="9" y="-134.5" font-family="Cascadia Code NF" font-size="10.00">+</text>
<text text-anchor="start" x="19" y="-134.5" font-family="Cascadia Code NF" font-size="10.00">callFunctionOn()</text>
<text text-anchor="start" x="9" y="-118.5" font-family="Cascadia Code NF" font-size="10.00">+</text>
<text text-anchor="start" x="19" y="-118.5" font-family="Cascadia Code NF" font-size="10.00">compileScript()</text>
<text text-anchor="start" x="9" y="-102.5" font-family="Cascadia Code NF" font-size="10.00">+</text>
<text text-anchor="start" x="19" y="-102.5" font-family="Cascadia Code NF" font-size="10.00">disable()</text>
<text text-anchor="start" x="9" y="-86.5" font-family="Cascadia Code NF" font-size="10.00">+</text>
<text text-anchor="start" x="19" y="-86.5" font-family="Cascadia Code NF" font-size="10.00">discardConsoleEntries()</text>
<text text-anchor="start" x="9" y="-70.5" font-family="Cascadia Code NF" font-size="10.00">+</text>
<text text-anchor="start" x="19" y="-70.5" font-family="Cascadia Code NF" font-size="10.00">enable()</text>
<text text-anchor="start" x="9" y="-54.5" font-family="Cascadia Code NF" font-size="10.00">+</text>
<text text-anchor="start" x="19" y="-54.5" font-family="Cascadia Code NF" font-size="10.00">evaluate()</text>
<text text-anchor="start" x="9" y="-38.5" font-family="Cascadia Code NF" font-size="10.00">+</text>
<text text-anchor="start" x="19" y="-38.5" font-family="Cascadia Code NF" font-size="10.00">getIsolateId()</text>
<text text-anchor="start" x="9" y="-22.5" font-family="Cascadia Code NF" font-size="10.00">+</text>
<text text-anchor="start" x="19" y="-22.5" font-family="Cascadia Code NF" font-size="10.00">getHeapUsage()</text>
<text text-anchor="start" x="19" y="-6.5" font-family="Cascadia Code NF" font-size="10.00">and 13 more...</text>
<polygon fill="#bfbfbf" stroke="#bfbfbf" points="5,-194 5,-194 161,-194 161,-194 5,-194"/>
<polygon fill="#bfbfbf" stroke="#bfbfbf" points="5,-178 5,-178 161,-178 161,-178 5,-178"/>
<polygon fill="none" stroke="#bfbfbf" points="5,0 5,-225 161,-225 161,0 5,0"/>
</a>
</g>
</g>
<!-- Node3&#45;&gt;Node1 -->
<g id="edge2_Node000001_Node000003" class="edge">
<title>Node3&#45;&gt;Node1</title>
<g id="a_edge2_Node000001_Node000003"><a xlink:title=" ">
<path fill="none" stroke="#63b8ff" d="M160.78,-133.81C190.05,-141.94 223.99,-151.36 255.7,-160.16"/>
<polygon fill="none" stroke="#63b8ff" points="255.77,-160.18 262.62,-157.93 267.33,-163.39 260.48,-165.64 255.77,-160.18"/>
</a>
</g>
<text text-anchor="middle" x="217" y="-160.75" font-family="Cascadia Code NF" font-size="10.00" fill="grey"> #m_backend</text>
</g>
</g>
</svg>
</svg>

<style type='text/css'>
<![CDATA[
[data-mouse-over-selected='false'] { opacity: 0.7; }
[data-mouse-over-selected='true']  { opacity: 1.0; }
]]>
</style>
<script type="application/ecmascript"><![CDATA[
document.addEventListener('DOMContentLoaded', (event) => {
  highlightEdges();
  highlightAdjacentNodes();
});
]]></script>
</svg>
