<?xml version="1.0" encoding="UTF-8" standalone="no"?>
<!DOCTYPE svg PUBLIC "-//W3C//DTD SVG 1.1//EN"
 "http://www.w3.org/Graphics/SVG/1.1/DTD/svg11.dtd">
<!-- Generated by graphviz version 11.0.0 (20240428.1522)
 -->
<!-- Title: v8::internal::compiler::FixedArrayBaseData Pages: 1 -->
<!--zoomable 156 -->

<svg id="main" version="1.1" xmlns="http://www.w3.org/2000/svg" xmlns:xlink="http://www.w3.org/1999/xlink" xml:space="preserve" onload="init(evt)">
<style type="text/css"><![CDATA[
.node, .edge {opacity: 0.7;}
.node.selected, .edge.selected {opacity: 1;}
.edge:hover path { stroke: red; }
.edge:hover polygon { stroke: red; fill: red; }
svg#main { background-color: #111; }
]]></style>

<defs>
  <circle id="rim" cx="0" cy="0" r="7"/>
  <circle id="rim2" cx="0" cy="0" r="3.5"/>
  <g id="zoomPlus">
    <use xlink:href="#rim" fill="#404040"><set attributeName="fill" to="#808080" begin="zoomplus.mouseover" end="zoomplus.mouseout"/></use>
    <path d="M-4,0h8M0,-4v8" fill="none" stroke="white" stroke-width="1.5" pointer-events="none"/>
  </g>
  <g id="zoomMin">
    <use xlink:href="#rim" fill="#404040"><set attributeName="fill" to="#808080" begin="zoomminus.mouseover" end="zoomminus.mouseout"/></use>
    <path d="M-4,0h8" fill="none" stroke="white" stroke-width="1.5" pointer-events="none"/>
  </g>
  <g id="arrowUp" transform="translate(30 24)">
    <use xlink:href="#rim"/>
    <path pointer-events="none" fill="none" stroke="white" stroke-width="1.5" d="M0,-3.0v7 M-2.5,-0.5L0,-3.0L2.5,-0.5"/>
  </g>
  <g id="arrowRight" transform="rotate(90) translate(36 -43)">
    <use xlink:href="#rim"/>
    <path pointer-events="none" fill="none" stroke="white" stroke-width="1.5" d="M0,-3.0v7 M-2.5,-0.5L0,-3.0L2.5,-0.5"/>
  </g>
  <g id="arrowDown" transform="rotate(180) translate(-30 -48)">
    <use xlink:href="#rim"/>
    <path pointer-events="none" fill="none" stroke="white" stroke-width="1.5" d="M0,-3.0v7 M-2.5,-0.5L0,-3.0L2.5,-0.5"/>
  </g>
  <g id="arrowLeft" transform="rotate(270) translate(-36 17)">
    <use xlink:href="#rim"/>
    <path pointer-events="none" fill="none" stroke="white" stroke-width="1.5" d="M0,-3.0v7 M-2.5,-0.5L0,-3.0L2.5,-0.5"/>
  </g>
  <g id="resetDef">
    <use xlink:href="#rim2" fill="#404040"><set attributeName="fill" to="#808080" begin="reset.mouseover" end="reset.mouseout"/></use>
  </g>
</defs>
<script type="application/ecmascript">
var viewWidth = 894;
var viewHeight = 156;
var sectionId = 'dynsection-0';
</script>
<script type="application/ecmascript" xlink:href="../../svg.min.js"/>
<svg id="graph" class="graph">
<g id="viewport">
<title>v8::internal::compiler::FixedArrayBaseData</title>
<!-- Node1 -->
<g id="Node000001" class="node">
<title>Node1</title>
<g id="a_Node000001"><a xlink:title=" ">
<polygon fill="#999999" stroke="none" points="688,-114 546,-114 546,-33 688,-33 688,-114"/>
<text text-anchor="start" x="551" y="-100.5" font-family="Cascadia Code NF" font-size="10.00">v8::internal::compiler</text>
<text text-anchor="start" x="557" y="-87.75" font-family="Cascadia Code NF" font-size="10.00">::FixedArrayBaseData</text>
<text text-anchor="start" x="614" y="-71.5" font-family="Cascadia Code NF" font-size="10.00"> </text>
<text text-anchor="start" x="551" y="-55.5" font-family="Cascadia Code NF" font-size="10.00">+</text>
<text text-anchor="start" x="562" y="-55.5" font-family="Cascadia Code NF" font-size="10.00">FixedArrayBaseData()</text>
<text text-anchor="start" x="551" y="-39.5" font-family="Cascadia Code NF" font-size="10.00">+</text>
<text text-anchor="start" x="562" y="-39.5" font-family="Cascadia Code NF" font-size="10.00">length()</text>
<polygon fill="#666666" stroke="#666666" points="546,-83 546,-83 688,-83 688,-83 546,-83"/>
<polygon fill="#666666" stroke="#666666" points="546,-67 546,-67 688,-67 688,-67 546,-67"/>
<polygon fill="none" stroke="#666666" points="546,-33 546,-114 688,-114 688,-33 546,-33"/>
</a>
</g>
</g>
<!-- Node5 -->
<g id="Node000005" class="node">
<title>Node5</title>
<g id="a_Node000005"><a xlink:href="../../d5/dab/classv8_1_1internal_1_1compiler_1_1FixedArrayData.html" target="_top" xlink:title=" ">
<polygon fill="white" stroke="none" points="876,-148 734,-148 734,-83 876,-83 876,-148"/>
<text text-anchor="start" x="739" y="-134.5" font-family="Cascadia Code NF" font-size="10.00">v8::internal::compiler</text>
<text text-anchor="start" x="757" y="-121.75" font-family="Cascadia Code NF" font-size="10.00">::FixedArrayData</text>
<text text-anchor="start" x="802" y="-105.5" font-family="Cascadia Code NF" font-size="10.00"> </text>
<text text-anchor="start" x="745" y="-89.5" font-family="Cascadia Code NF" font-size="10.00">+</text>
<text text-anchor="start" x="762" y="-89.5" font-family="Cascadia Code NF" font-size="10.00">FixedArrayData()</text>
<polygon fill="#bfbfbf" stroke="#bfbfbf" points="734,-117 734,-117 876,-117 876,-117 734,-117"/>
<polygon fill="#bfbfbf" stroke="#bfbfbf" points="734,-101 734,-101 876,-101 876,-101 734,-101"/>
<polygon fill="none" stroke="#bfbfbf" points="734,-83 734,-148 876,-148 876,-83 734,-83"/>
</a>
</g>
</g>
<!-- Node1&#45;&gt;Node5 -->
<g id="edge4_Node000001_Node000005" class="edge">
<title>Node1&#45;&gt;Node5</title>
<g id="a_edge4_Node000001_Node000005"><a xlink:title=" ">
<path fill="none" stroke="#63b8ff" d="M698.93,-91.77C710.66,-94.42 722.64,-97.13 734.13,-99.72"/>
<polygon fill="none" stroke="#63b8ff" points="699.79,-88.38 689.27,-89.59 698.25,-95.21 699.79,-88.38"/>
</a>
</g>
</g>
<!-- Node6 -->
<g id="Node000006" class="node">
<title>Node6</title>
<g id="a_Node000006"><a xlink:href="../../d6/de6/classv8_1_1internal_1_1compiler_1_1ScriptContextTableData.html" target="_top" xlink:title=" ">
<polygon fill="white" stroke="none" points="886,-65 724,-65 724,0 886,0 886,-65"/>
<text text-anchor="start" x="733" y="-51.5" font-family="Cascadia Code NF" font-size="10.00">v8::internal::compiler</text>
<text text-anchor="start" x="733" y="-38.75" font-family="Cascadia Code NF" font-size="10.00">::ScriptContextTableData</text>
<text text-anchor="start" x="802" y="-22.5" font-family="Cascadia Code NF" font-size="10.00"> </text>
<text text-anchor="start" x="728" y="-6.5" font-family="Cascadia Code NF" font-size="10.00">+</text>
<text text-anchor="start" x="738" y="-6.5" font-family="Cascadia Code NF" font-size="10.00">ScriptContextTableData()</text>
<polygon fill="#bfbfbf" stroke="#bfbfbf" points="724,-34 724,-34 886,-34 886,-34 724,-34"/>
<polygon fill="#bfbfbf" stroke="#bfbfbf" points="724,-18 724,-18 886,-18 886,-18 724,-18"/>
<polygon fill="none" stroke="#bfbfbf" points="724,0 724,-65 886,-65 886,0 724,0"/>
</a>
</g>
</g>
<!-- Node1&#45;&gt;Node6 -->
<g id="edge5_Node000001_Node000006" class="edge">
<title>Node1&#45;&gt;Node6</title>
<g id="a_edge5_Node000001_Node000006"><a xlink:title=" ">
<path fill="none" stroke="#63b8ff" d="M698.75,-55.7C707.17,-53.85 715.72,-51.96 724.13,-50.11"/>
<polygon fill="none" stroke="#63b8ff" points="698.28,-52.22 689.27,-57.79 699.79,-59.06 698.28,-52.22"/>
</a>
</g>
</g>
<!-- Node2 -->
<g id="Node000002" class="node">
<title>Node2</title>
<g id="a_Node000002"><a xlink:href="../../d1/ddd/classv8_1_1internal_1_1compiler_1_1HeapObjectData.html" target="_top" xlink:title=" ">
<polygon fill="white" stroke="none" points="510,-130 368,-130 368,-17 510,-17 510,-130"/>
<text text-anchor="start" x="373" y="-116.5" font-family="Cascadia Code NF" font-size="10.00">v8::internal::compiler</text>
<text text-anchor="start" x="391" y="-103.75" font-family="Cascadia Code NF" font-size="10.00">::HeapObjectData</text>
<text text-anchor="start" x="436" y="-87.5" font-family="Cascadia Code NF" font-size="10.00"> </text>
<text text-anchor="start" x="373" y="-71.5" font-family="Cascadia Code NF" font-size="10.00">+</text>
<text text-anchor="start" x="384" y="-71.5" font-family="Cascadia Code NF" font-size="10.00">HeapObjectData()</text>
<text text-anchor="start" x="373" y="-55.5" font-family="Cascadia Code NF" font-size="10.00">+</text>
<text text-anchor="start" x="384" y="-55.5" font-family="Cascadia Code NF" font-size="10.00">TryGetBooleanValue()</text>
<text text-anchor="start" x="373" y="-39.5" font-family="Cascadia Code NF" font-size="10.00">+</text>
<text text-anchor="start" x="384" y="-39.5" font-family="Cascadia Code NF" font-size="10.00">map()</text>
<text text-anchor="start" x="373" y="-23.5" font-family="Cascadia Code NF" font-size="10.00">+</text>
<text text-anchor="start" x="384" y="-23.5" font-family="Cascadia Code NF" font-size="10.00">GetMapInstanceType()</text>
<polygon fill="#bfbfbf" stroke="#bfbfbf" points="368,-99 368,-99 510,-99 510,-99 368,-99"/>
<polygon fill="#bfbfbf" stroke="#bfbfbf" points="368,-83 368,-83 510,-83 510,-83 368,-83"/>
<polygon fill="none" stroke="#bfbfbf" points="368,-17 368,-130 510,-130 510,-17 368,-17"/>
</a>
</g>
</g>
<!-- Node2&#45;&gt;Node1 -->
<g id="edge1_Node000001_Node000002" class="edge">
<title>Node2&#45;&gt;Node1</title>
<g id="a_edge1_Node000001_Node000002"><a xlink:title=" ">
<path fill="none" stroke="#63b8ff" d="M521.17,-73.5C529.56,-73.5 538.03,-73.5 546.27,-73.5"/>
<polygon fill="none" stroke="#63b8ff" points="521.33,-70 511.33,-73.5 521.33,-77 521.33,-70"/>
</a>
</g>
</g>
<!-- Node3 -->
<g id="Node000003" class="node">
<title>Node3</title>
<g id="a_Node000003"><a xlink:href="../../d6/d55/classv8_1_1internal_1_1compiler_1_1ObjectData.html" target="_top" xlink:title=" ">
<polygon fill="white" stroke="none" points="332,-146 190,-146 190,-1 332,-1 332,-146"/>
<text text-anchor="start" x="195" y="-132.5" font-family="Cascadia Code NF" font-size="10.00">v8::internal::compiler</text>
<text text-anchor="start" x="225" y="-119.75" font-family="Cascadia Code NF" font-size="10.00">::ObjectData</text>
<text text-anchor="start" x="258" y="-103.5" font-family="Cascadia Code NF" font-size="10.00"> </text>
<text text-anchor="start" x="195" y="-87.5" font-family="Cascadia Code NF" font-size="10.00">+</text>
<text text-anchor="start" x="206" y="-87.5" font-family="Cascadia Code NF" font-size="10.00">ObjectData()</text>
<text text-anchor="start" x="195" y="-71.5" font-family="Cascadia Code NF" font-size="10.00">+</text>
<text text-anchor="start" x="206" y="-71.5" font-family="Cascadia Code NF" font-size="10.00">object()</text>
<text text-anchor="start" x="195" y="-55.5" font-family="Cascadia Code NF" font-size="10.00">+</text>
<text text-anchor="start" x="206" y="-55.5" font-family="Cascadia Code NF" font-size="10.00">kind()</text>
<text text-anchor="start" x="195" y="-39.5" font-family="Cascadia Code NF" font-size="10.00">+</text>
<text text-anchor="start" x="206" y="-39.5" font-family="Cascadia Code NF" font-size="10.00">is_smi()</text>
<text text-anchor="start" x="195" y="-23.5" font-family="Cascadia Code NF" font-size="10.00">+</text>
<text text-anchor="start" x="206" y="-23.5" font-family="Cascadia Code NF" font-size="10.00">should_access_heap()</text>
<text text-anchor="start" x="195" y="-7.5" font-family="Cascadia Code NF" font-size="10.00">+</text>
<text text-anchor="start" x="206" y="-7.5" font-family="Cascadia Code NF" font-size="10.00">IsNull()</text>
<polygon fill="#bfbfbf" stroke="#bfbfbf" points="190,-115 190,-115 332,-115 332,-115 190,-115"/>
<polygon fill="#bfbfbf" stroke="#bfbfbf" points="190,-99 190,-99 332,-99 332,-99 190,-99"/>
<polygon fill="none" stroke="#bfbfbf" points="190,-1 190,-146 332,-146 332,-1 190,-1"/>
</a>
</g>
</g>
<!-- Node3&#45;&gt;Node2 -->
<g id="edge2_Node000002_Node000003" class="edge">
<title>Node3&#45;&gt;Node2</title>
<g id="a_edge2_Node000002_Node000003"><a xlink:title=" ">
<path fill="none" stroke="#63b8ff" d="M343.17,-73.5C351.56,-73.5 360.03,-73.5 368.27,-73.5"/>
<polygon fill="none" stroke="#63b8ff" points="343.33,-70 333.33,-73.5 343.33,-77 343.33,-70"/>
</a>
</g>
</g>
<!-- Node4 -->
<g id="Node000004" class="node">
<title>Node4</title>
<g id="a_Node000004"><a xlink:href="../../dc/dca/classv8_1_1internal_1_1ZoneObject.html" target="_top" xlink:title=" ">
<polygon fill="white" stroke="none" points="154,-123.5 0,-123.5 0,-23.5 154,-23.5 154,-123.5"/>
<text text-anchor="start" x="5" y="-110" font-family="Cascadia Code NF" font-size="10.00">v8::internal::ZoneObject</text>
<text text-anchor="start" x="74" y="-94" font-family="Cascadia Code NF" font-size="10.00"> </text>
<text text-anchor="start" x="12.5" y="-78" font-family="Cascadia Code NF" font-size="10.00">+</text>
<text text-anchor="start" x="31" y="-78" font-family="Cascadia Code NF" font-size="10.00">operator new()</text>
<text text-anchor="start" x="12.5" y="-62" font-family="Cascadia Code NF" font-size="10.00">+</text>
<text text-anchor="start" x="31" y="-62" font-family="Cascadia Code NF" font-size="10.00">operator new()</text>
<text text-anchor="start" x="12.5" y="-46" font-family="Cascadia Code NF" font-size="10.00">+</text>
<text text-anchor="start" x="31" y="-46" font-family="Cascadia Code NF" font-size="10.00">operator delete()</text>
<text text-anchor="start" x="12.5" y="-30" font-family="Cascadia Code NF" font-size="10.00">+</text>
<text text-anchor="start" x="31" y="-30" font-family="Cascadia Code NF" font-size="10.00">operator delete()</text>
<polygon fill="#bfbfbf" stroke="#bfbfbf" points="0,-105.5 0,-105.5 154,-105.5 154,-105.5 0,-105.5"/>
<polygon fill="#bfbfbf" stroke="#bfbfbf" points="0,-89.5 0,-89.5 154,-89.5 154,-89.5 0,-89.5"/>
<polygon fill="none" stroke="#bfbfbf" points="0,-23.5 0,-123.5 154,-123.5 154,-23.5 0,-23.5"/>
</a>
</g>
</g>
<!-- Node4&#45;&gt;Node3 -->
<g id="edge3_Node000003_Node000004" class="edge">
<title>Node4&#45;&gt;Node3</title>
<g id="a_edge3_Node000003_Node000004"><a xlink:title=" ">
<path fill="none" stroke="#63b8ff" d="M165.19,-73.5C173.54,-73.5 181.93,-73.5 190.07,-73.5"/>
<polygon fill="none" stroke="#63b8ff" points="165.38,-70 155.38,-73.5 165.38,-77 165.38,-70"/>
</a>
</g>
</g>
</g>
</svg>

<g id="navigator" transform="translate(0 0)" fill="#404254">
  <rect fill="#f2f5e9" fill-opacity="0.5" stroke="#606060" stroke-width=".5" x="0" y="0" width="60" height="60"/>
  <use id="zoomplus" xlink:href="#zoomPlus" x="17" y="9" onmousedown="handleZoom(evt,'in')"/>
  <use id="zoomminus" xlink:href="#zoomMin" x="42" y="9" onmousedown="handleZoom(evt,'out')"/>
  <use id="reset" xlink:href="#resetDef" x="30" y="36" onmousedown="handleReset()"/>
   <use id="arrowup" xlink:href="#arrowUp" x="0" y="0" onmousedown="handlePan(0,-1)"/>
  <use id="arrowright" xlink:href="#arrowRight" x="0" y="0" onmousedown="handlePan(1,0)"/>
  <use id="arrowdown" xlink:href="#arrowDown" x="0" y="0" onmousedown="handlePan(0,1)"/>
  <use id="arrowleft" xlink:href="#arrowLeft" x="0" y="0" onmousedown="handlePan(-1,0)"/>
</g>
<svg viewBox="0 0 15 15" width="100%" height="30px" preserveAspectRatio="xMaxYMin meet">
 <g id="arrow_out" transform="scale(0.3 0.3)">
  <a xlink:href="classv8_1_1internal_1_1compiler_1_1FixedArrayBaseData__inherit__graph_org.svg" target="_base">
   <rect id="button" ry="5" rx="5" y="6" x="6" height="38" width="38"
        fill="#f2f5e9" fill-opacity="0.5" stroke="#606060" stroke-width="1.0"/>
   <path id="arrow"
     d="M 11.500037,31.436501 C 11.940474,20.09759 22.043105,11.32322 32.158766,21.979434 L 37.068811,17.246167 C 37.068811,17.246167 37.088388,32 37.088388,32 L 22.160133,31.978069 C 22.160133,31.978069 26.997745,27.140456 26.997745,27.140456 C 18.528582,18.264221 13.291696,25.230495 11.500037,31.436501 z"
     style="fill:#404040;"/>
  </a>
 </g>
</svg>

<style type='text/css'>
<![CDATA[
[data-mouse-over-selected='false'] { opacity: 0.7; }
[data-mouse-over-selected='true']  { opacity: 1.0; }
]]>
</style>
<script type="application/ecmascript"><![CDATA[
document.addEventListener('DOMContentLoaded', (event) => {
  highlightEdges();
  highlightAdjacentNodes();
});
]]></script>
</svg>
