<?xml version="1.0" encoding="UTF-8" standalone="no"?>
<!DOCTYPE svg PUBLIC "-//W3C//DTD SVG 1.1//EN"
 "http://www.w3.org/Graphics/SVG/1.1/DTD/svg11.dtd">
<!-- Generated by graphviz version 11.0.0 (20240428.1522)
 -->
<!-- Title: v8::internal::wasm::Decoder Pages: 1 -->
<!--zoomable 1546 -->

<svg id="main" version="1.1" xmlns="http://www.w3.org/2000/svg" xmlns:xlink="http://www.w3.org/1999/xlink" xml:space="preserve" onload="init(evt)">
<style type="text/css"><![CDATA[
.node, .edge {opacity: 0.7;}
.node.selected, .edge.selected {opacity: 1;}
.edge:hover path { stroke: red; }
.edge:hover polygon { stroke: red; fill: red; }
svg#main { background-color: #111; }
]]></style>

<defs>
  <circle id="rim" cx="0" cy="0" r="7"/>
  <circle id="rim2" cx="0" cy="0" r="3.5"/>
  <g id="zoomPlus">
    <use xlink:href="#rim" fill="#404040"><set attributeName="fill" to="#808080" begin="zoomplus.mouseover" end="zoomplus.mouseout"/></use>
    <path d="M-4,0h8M0,-4v8" fill="none" stroke="white" stroke-width="1.5" pointer-events="none"/>
  </g>
  <g id="zoomMin">
    <use xlink:href="#rim" fill="#404040"><set attributeName="fill" to="#808080" begin="zoomminus.mouseover" end="zoomminus.mouseout"/></use>
    <path d="M-4,0h8" fill="none" stroke="white" stroke-width="1.5" pointer-events="none"/>
  </g>
  <g id="arrowUp" transform="translate(30 24)">
    <use xlink:href="#rim"/>
    <path pointer-events="none" fill="none" stroke="white" stroke-width="1.5" d="M0,-3.0v7 M-2.5,-0.5L0,-3.0L2.5,-0.5"/>
  </g>
  <g id="arrowRight" transform="rotate(90) translate(36 -43)">
    <use xlink:href="#rim"/>
    <path pointer-events="none" fill="none" stroke="white" stroke-width="1.5" d="M0,-3.0v7 M-2.5,-0.5L0,-3.0L2.5,-0.5"/>
  </g>
  <g id="arrowDown" transform="rotate(180) translate(-30 -48)">
    <use xlink:href="#rim"/>
    <path pointer-events="none" fill="none" stroke="white" stroke-width="1.5" d="M0,-3.0v7 M-2.5,-0.5L0,-3.0L2.5,-0.5"/>
  </g>
  <g id="arrowLeft" transform="rotate(270) translate(-36 17)">
    <use xlink:href="#rim"/>
    <path pointer-events="none" fill="none" stroke="white" stroke-width="1.5" d="M0,-3.0v7 M-2.5,-0.5L0,-3.0L2.5,-0.5"/>
  </g>
  <g id="resetDef">
    <use xlink:href="#rim2" fill="#404040"><set attributeName="fill" to="#808080" begin="reset.mouseover" end="reset.mouseout"/></use>
  </g>
</defs>
<script type="application/ecmascript">
var viewWidth = 600;
var viewHeight = 1546;
var sectionId = 'dynsection-0';
</script>
<script type="application/ecmascript" xlink:href="../../svg.min.js"/>
<svg id="graph" class="graph">
<g id="viewport">
<title>v8::internal::wasm::Decoder</title>
<!-- Node1 -->
<g id="Node000001" class="node">
<title>Node1</title>
<g id="a_Node000001"><a xlink:title=" ">
<polygon fill="#999999" stroke="none" points="126,-894.5 0,-894.5 0,-557.5 126,-557.5 126,-894.5"/>
<text text-anchor="start" x="9" y="-881" font-family="Cascadia Code NF" font-size="10.00">v8::internal::wasm</text>
<text text-anchor="start" x="36" y="-868.25" font-family="Cascadia Code NF" font-size="10.00">::Decoder</text>
<text text-anchor="start" x="4" y="-852" font-family="Cascadia Code NF" font-size="10.00">+</text>
<text text-anchor="start" x="14" y="-852" font-family="Cascadia Code NF" font-size="10.00">kNoValidation</text>
<text text-anchor="start" x="4" y="-836" font-family="Cascadia Code NF" font-size="10.00">+</text>
<text text-anchor="start" x="14" y="-836" font-family="Cascadia Code NF" font-size="10.00">kBooleanValidation</text>
<text text-anchor="start" x="4" y="-820" font-family="Cascadia Code NF" font-size="10.00">+</text>
<text text-anchor="start" x="14" y="-820" font-family="Cascadia Code NF" font-size="10.00">kFullValidation</text>
<text text-anchor="start" x="4" y="-804" font-family="Cascadia Code NF" font-size="10.00">#</text>
<text text-anchor="start" x="14" y="-804" font-family="Cascadia Code NF" font-size="10.00">start_</text>
<text text-anchor="start" x="4" y="-788" font-family="Cascadia Code NF" font-size="10.00">#</text>
<text text-anchor="start" x="14" y="-788" font-family="Cascadia Code NF" font-size="10.00">pc_</text>
<text text-anchor="start" x="4" y="-772" font-family="Cascadia Code NF" font-size="10.00">#</text>
<text text-anchor="start" x="14" y="-772" font-family="Cascadia Code NF" font-size="10.00">end_</text>
<text text-anchor="start" x="4" y="-756" font-family="Cascadia Code NF" font-size="10.00">#</text>
<text text-anchor="start" x="14" y="-756" font-family="Cascadia Code NF" font-size="10.00">buffer_offset_</text>
<text text-anchor="start" x="4" y="-740" font-family="Cascadia Code NF" font-size="10.00">#</text>
<text text-anchor="start" x="14" y="-740" font-family="Cascadia Code NF" font-size="10.00">error_</text>
<text text-anchor="start" x="4" y="-724" font-family="Cascadia Code NF" font-size="10.00">+</text>
<text text-anchor="start" x="14" y="-724" font-family="Cascadia Code NF" font-size="10.00">Decoder()</text>
<text text-anchor="start" x="4" y="-708" font-family="Cascadia Code NF" font-size="10.00">+</text>
<text text-anchor="start" x="14" y="-708" font-family="Cascadia Code NF" font-size="10.00">Decoder()</text>
<text text-anchor="start" x="4" y="-692" font-family="Cascadia Code NF" font-size="10.00">+</text>
<text text-anchor="start" x="14" y="-692" font-family="Cascadia Code NF" font-size="10.00">Decoder()</text>
<text text-anchor="start" x="4" y="-676" font-family="Cascadia Code NF" font-size="10.00">+</text>
<text text-anchor="start" x="14" y="-676" font-family="Cascadia Code NF" font-size="10.00">~Decoder()</text>
<text text-anchor="start" x="4" y="-660" font-family="Cascadia Code NF" font-size="10.00">+</text>
<text text-anchor="start" x="14" y="-660" font-family="Cascadia Code NF" font-size="10.00">read_u8()</text>
<text text-anchor="start" x="4" y="-644" font-family="Cascadia Code NF" font-size="10.00">+</text>
<text text-anchor="start" x="14" y="-644" font-family="Cascadia Code NF" font-size="10.00">read_u16()</text>
<text text-anchor="start" x="4" y="-628" font-family="Cascadia Code NF" font-size="10.00">+</text>
<text text-anchor="start" x="14" y="-628" font-family="Cascadia Code NF" font-size="10.00">read_u32()</text>
<text text-anchor="start" x="4" y="-612" font-family="Cascadia Code NF" font-size="10.00">+</text>
<text text-anchor="start" x="14" y="-612" font-family="Cascadia Code NF" font-size="10.00">read_u64()</text>
<text text-anchor="start" x="4" y="-596" font-family="Cascadia Code NF" font-size="10.00">+</text>
<text text-anchor="start" x="14" y="-596" font-family="Cascadia Code NF" font-size="10.00">read_u32v()</text>
<text text-anchor="start" x="4" y="-580" font-family="Cascadia Code NF" font-size="10.00">+</text>
<text text-anchor="start" x="14" y="-580" font-family="Cascadia Code NF" font-size="10.00">read_i32v()</text>
<text text-anchor="start" x="14" y="-564" font-family="Cascadia Code NF" font-size="10.00">and 44 more...</text>
<polygon fill="#666666" stroke="#666666" points="0,-863.5 0,-863.5 126,-863.5 126,-863.5 0,-863.5"/>
<polygon fill="#666666" stroke="#666666" points="0,-735.5 0,-735.5 12,-735.5 12,-735.5 0,-735.5"/>
<polygon fill="#666666" stroke="#666666" points="12,-735.5 12,-735.5 126,-735.5 126,-735.5 12,-735.5"/>
<polygon fill="none" stroke="#666666" points="0,-557.5 0,-894.5 126,-894.5 126,-557.5 0,-557.5"/>
</a>
</g>
</g>
<!-- Node2 -->
<g id="Node000002" class="node">
<title>Node2</title>
<g id="a_Node000002"><a xlink:href="../../de/d8e/classv8_1_1internal_1_1wasm_1_1WasmDecoder.html" target="_top" xlink:title=" ">
<polygon fill="white" stroke="none" points="339,-1538 183,-1538 183,-1124 339,-1124 339,-1538"/>
<text text-anchor="start" x="195" y="-1524.5" font-family="Cascadia Code NF" font-size="10.00">v8::internal::wasm</text>
<text text-anchor="start" x="195" y="-1511.75" font-family="Cascadia Code NF" font-size="10.00">::WasmDecoder&lt; Decoder</text>
<text text-anchor="start" x="198" y="-1499" font-family="Cascadia Code NF" font-size="10.00">::FullValidationTag &gt;</text>
<text text-anchor="start" x="187" y="-1482.5" font-family="Cascadia Code NF" font-size="10.00">+</text>
<text text-anchor="start" x="197" y="-1482.5" font-family="Cascadia Code NF" font-size="10.00">zone_</text>
<text text-anchor="start" x="187" y="-1466.5" font-family="Cascadia Code NF" font-size="10.00">+</text>
<text text-anchor="start" x="197" y="-1466.5" font-family="Cascadia Code NF" font-size="10.00">local_types_</text>
<text text-anchor="start" x="187" y="-1450.5" font-family="Cascadia Code NF" font-size="10.00">+</text>
<text text-anchor="start" x="197" y="-1450.5" font-family="Cascadia Code NF" font-size="10.00">num_locals_</text>
<text text-anchor="start" x="187" y="-1434.5" font-family="Cascadia Code NF" font-size="10.00">+</text>
<text text-anchor="start" x="197" y="-1434.5" font-family="Cascadia Code NF" font-size="10.00">module_</text>
<text text-anchor="start" x="187" y="-1418.5" font-family="Cascadia Code NF" font-size="10.00">+</text>
<text text-anchor="start" x="197" y="-1418.5" font-family="Cascadia Code NF" font-size="10.00">enabled_</text>
<text text-anchor="start" x="187" y="-1402.5" font-family="Cascadia Code NF" font-size="10.00">+</text>
<text text-anchor="start" x="197" y="-1402.5" font-family="Cascadia Code NF" font-size="10.00">detected_</text>
<text text-anchor="start" x="187" y="-1386.5" font-family="Cascadia Code NF" font-size="10.00">+</text>
<text text-anchor="start" x="197" y="-1386.5" font-family="Cascadia Code NF" font-size="10.00">sig_</text>
<text text-anchor="start" x="187" y="-1370.5" font-family="Cascadia Code NF" font-size="10.00">+</text>
<text text-anchor="start" x="197" y="-1370.5" font-family="Cascadia Code NF" font-size="10.00">is_shared_</text>
<text text-anchor="start" x="187" y="-1354.5" font-family="Cascadia Code NF" font-size="10.00">+</text>
<text text-anchor="start" x="197" y="-1354.5" font-family="Cascadia Code NF" font-size="10.00">current_inst_trace_</text>
<text text-anchor="start" x="187" y="-1338.5" font-family="Cascadia Code NF" font-size="10.00">+</text>
<text text-anchor="start" x="197" y="-1338.5" font-family="Cascadia Code NF" font-size="10.00">validate</text>
<text text-anchor="start" x="187" y="-1322.5" font-family="Cascadia Code NF" font-size="10.00">+</text>
<text text-anchor="start" x="197" y="-1322.5" font-family="Cascadia Code NF" font-size="10.00">WasmDecoder()</text>
<text text-anchor="start" x="187" y="-1306.5" font-family="Cascadia Code NF" font-size="10.00">+</text>
<text text-anchor="start" x="197" y="-1306.5" font-family="Cascadia Code NF" font-size="10.00">zone()</text>
<text text-anchor="start" x="187" y="-1290.5" font-family="Cascadia Code NF" font-size="10.00">+</text>
<text text-anchor="start" x="197" y="-1290.5" font-family="Cascadia Code NF" font-size="10.00">num_locals()</text>
<text text-anchor="start" x="187" y="-1274.5" font-family="Cascadia Code NF" font-size="10.00">+</text>
<text text-anchor="start" x="197" y="-1274.5" font-family="Cascadia Code NF" font-size="10.00">local_types()</text>
<text text-anchor="start" x="187" y="-1258.5" font-family="Cascadia Code NF" font-size="10.00">+</text>
<text text-anchor="start" x="197" y="-1258.5" font-family="Cascadia Code NF" font-size="10.00">local_type()</text>
<text text-anchor="start" x="187" y="-1242.5" font-family="Cascadia Code NF" font-size="10.00">+</text>
<text text-anchor="start" x="197" y="-1242.5" font-family="Cascadia Code NF" font-size="10.00">DecodeLocals()</text>
<text text-anchor="start" x="187" y="-1226.5" font-family="Cascadia Code NF" font-size="10.00">+</text>
<text text-anchor="start" x="197" y="-1226.5" font-family="Cascadia Code NF" font-size="10.00">DecodeError()</text>
<text text-anchor="start" x="187" y="-1210.5" font-family="Cascadia Code NF" font-size="10.00">+</text>
<text text-anchor="start" x="197" y="-1210.5" font-family="Cascadia Code NF" font-size="10.00">Validate()</text>
<text text-anchor="start" x="187" y="-1194.5" font-family="Cascadia Code NF" font-size="10.00">+</text>
<text text-anchor="start" x="197" y="-1194.5" font-family="Cascadia Code NF" font-size="10.00">Validate()</text>
<text text-anchor="start" x="187" y="-1178.5" font-family="Cascadia Code NF" font-size="10.00">+</text>
<text text-anchor="start" x="197" y="-1178.5" font-family="Cascadia Code NF" font-size="10.00">Validate()</text>
<text text-anchor="start" x="197" y="-1162.5" font-family="Cascadia Code NF" font-size="10.00">and 29 more...</text>
<text text-anchor="start" x="187" y="-1146.5" font-family="Cascadia Code NF" font-size="10.00">+</text>
<text text-anchor="start" x="197" y="-1146.5" font-family="Cascadia Code NF" font-size="10.00">AnalyzeLoopAssignment()</text>
<text text-anchor="start" x="187" y="-1130.5" font-family="Cascadia Code NF" font-size="10.00">+</text>
<text text-anchor="start" x="197" y="-1130.5" font-family="Cascadia Code NF" font-size="10.00">OpcodeLength()</text>
<polygon fill="#bfbfbf" stroke="#bfbfbf" points="183,-1494 183,-1494 339,-1494 339,-1494 183,-1494"/>
<polygon fill="#bfbfbf" stroke="#bfbfbf" points="183,-1334 183,-1334 195,-1334 195,-1334 183,-1334"/>
<polygon fill="#bfbfbf" stroke="#bfbfbf" points="195,-1334 195,-1334 339,-1334 339,-1334 195,-1334"/>
<polygon fill="none" stroke="#bfbfbf" points="183,-1124 183,-1538 339,-1538 339,-1124 183,-1124"/>
</a>
</g>
</g>
<!-- Node1&#45;&gt;Node2 -->
<g id="edge1_Node000001_Node000002" class="edge">
<title>Node1&#45;&gt;Node2</title>
<g id="a_edge1_Node000001_Node000002"><a xlink:title=" ">
<path fill="none" stroke="#63b8ff" d="M102.02,-905.09C118.02,-971.77 138.43,-1047.59 162,-1115 168.29,-1132.98 175.5,-1151.51 183.1,-1169.81"/>
<polygon fill="none" stroke="#63b8ff" points="105.46,-904.43 99.74,-895.52 98.65,-906.05 105.46,-904.43"/>
</a>
</g>
</g>
<!-- Node4 -->
<g id="Node000004" class="node">
<title>Node4</title>
<g id="a_Node000004"><a xlink:href="../../de/d8e/classv8_1_1internal_1_1wasm_1_1WasmDecoder.html" target="_top" xlink:title=" ">
<polygon fill="white" stroke="none" points="353,-1106 169,-1106 169,-692 353,-692 353,-1106"/>
<text text-anchor="start" x="174" y="-1092.5" font-family="Cascadia Code NF" font-size="10.00">v8::internal::wasm</text>
<text text-anchor="start" x="174" y="-1079.75" font-family="Cascadia Code NF" font-size="10.00">::WasmDecoder&lt; ValidationTag,</text>
<text text-anchor="start" x="213" y="-1067" font-family="Cascadia Code NF" font-size="10.00"> kFunctionBody &gt;</text>
<text text-anchor="start" x="180" y="-1050.5" font-family="Cascadia Code NF" font-size="10.00">+</text>
<text text-anchor="start" x="197" y="-1050.5" font-family="Cascadia Code NF" font-size="10.00">zone_</text>
<text text-anchor="start" x="180" y="-1034.5" font-family="Cascadia Code NF" font-size="10.00">+</text>
<text text-anchor="start" x="197" y="-1034.5" font-family="Cascadia Code NF" font-size="10.00">local_types_</text>
<text text-anchor="start" x="180" y="-1018.5" font-family="Cascadia Code NF" font-size="10.00">+</text>
<text text-anchor="start" x="197" y="-1018.5" font-family="Cascadia Code NF" font-size="10.00">num_locals_</text>
<text text-anchor="start" x="180" y="-1002.5" font-family="Cascadia Code NF" font-size="10.00">+</text>
<text text-anchor="start" x="197" y="-1002.5" font-family="Cascadia Code NF" font-size="10.00">module_</text>
<text text-anchor="start" x="180" y="-986.5" font-family="Cascadia Code NF" font-size="10.00">+</text>
<text text-anchor="start" x="197" y="-986.5" font-family="Cascadia Code NF" font-size="10.00">enabled_</text>
<text text-anchor="start" x="180" y="-970.5" font-family="Cascadia Code NF" font-size="10.00">+</text>
<text text-anchor="start" x="197" y="-970.5" font-family="Cascadia Code NF" font-size="10.00">detected_</text>
<text text-anchor="start" x="180" y="-954.5" font-family="Cascadia Code NF" font-size="10.00">+</text>
<text text-anchor="start" x="197" y="-954.5" font-family="Cascadia Code NF" font-size="10.00">sig_</text>
<text text-anchor="start" x="180" y="-938.5" font-family="Cascadia Code NF" font-size="10.00">+</text>
<text text-anchor="start" x="197" y="-938.5" font-family="Cascadia Code NF" font-size="10.00">is_shared_</text>
<text text-anchor="start" x="180" y="-922.5" font-family="Cascadia Code NF" font-size="10.00">+</text>
<text text-anchor="start" x="197" y="-922.5" font-family="Cascadia Code NF" font-size="10.00">current_inst_trace_</text>
<text text-anchor="start" x="180" y="-906.5" font-family="Cascadia Code NF" font-size="10.00">+</text>
<text text-anchor="start" x="197" y="-906.5" font-family="Cascadia Code NF" font-size="10.00">validate</text>
<text text-anchor="start" x="180" y="-890.5" font-family="Cascadia Code NF" font-size="10.00">+</text>
<text text-anchor="start" x="197" y="-890.5" font-family="Cascadia Code NF" font-size="10.00">WasmDecoder()</text>
<text text-anchor="start" x="180" y="-874.5" font-family="Cascadia Code NF" font-size="10.00">+</text>
<text text-anchor="start" x="197" y="-874.5" font-family="Cascadia Code NF" font-size="10.00">zone()</text>
<text text-anchor="start" x="180" y="-858.5" font-family="Cascadia Code NF" font-size="10.00">+</text>
<text text-anchor="start" x="197" y="-858.5" font-family="Cascadia Code NF" font-size="10.00">num_locals()</text>
<text text-anchor="start" x="180" y="-842.5" font-family="Cascadia Code NF" font-size="10.00">+</text>
<text text-anchor="start" x="197" y="-842.5" font-family="Cascadia Code NF" font-size="10.00">local_types()</text>
<text text-anchor="start" x="180" y="-826.5" font-family="Cascadia Code NF" font-size="10.00">+</text>
<text text-anchor="start" x="197" y="-826.5" font-family="Cascadia Code NF" font-size="10.00">local_type()</text>
<text text-anchor="start" x="180" y="-810.5" font-family="Cascadia Code NF" font-size="10.00">+</text>
<text text-anchor="start" x="197" y="-810.5" font-family="Cascadia Code NF" font-size="10.00">DecodeLocals()</text>
<text text-anchor="start" x="180" y="-794.5" font-family="Cascadia Code NF" font-size="10.00">+</text>
<text text-anchor="start" x="197" y="-794.5" font-family="Cascadia Code NF" font-size="10.00">DecodeError()</text>
<text text-anchor="start" x="180" y="-778.5" font-family="Cascadia Code NF" font-size="10.00">+</text>
<text text-anchor="start" x="197" y="-778.5" font-family="Cascadia Code NF" font-size="10.00">Validate()</text>
<text text-anchor="start" x="180" y="-762.5" font-family="Cascadia Code NF" font-size="10.00">+</text>
<text text-anchor="start" x="197" y="-762.5" font-family="Cascadia Code NF" font-size="10.00">Validate()</text>
<text text-anchor="start" x="180" y="-746.5" font-family="Cascadia Code NF" font-size="10.00">+</text>
<text text-anchor="start" x="197" y="-746.5" font-family="Cascadia Code NF" font-size="10.00">Validate()</text>
<text text-anchor="start" x="197" y="-730.5" font-family="Cascadia Code NF" font-size="10.00">and 29 more...</text>
<text text-anchor="start" x="180" y="-714.5" font-family="Cascadia Code NF" font-size="10.00">+</text>
<text text-anchor="start" x="197" y="-714.5" font-family="Cascadia Code NF" font-size="10.00">AnalyzeLoopAssignment()</text>
<text text-anchor="start" x="180" y="-698.5" font-family="Cascadia Code NF" font-size="10.00">+</text>
<text text-anchor="start" x="197" y="-698.5" font-family="Cascadia Code NF" font-size="10.00">OpcodeLength()</text>
<polygon fill="#bfbfbf" stroke="#bfbfbf" points="169,-1062 169,-1062 353,-1062 353,-1062 169,-1062"/>
<polygon fill="#bfbfbf" stroke="#bfbfbf" points="169,-902 169,-902 195,-902 195,-902 169,-902"/>
<polygon fill="#bfbfbf" stroke="#bfbfbf" points="195,-902 195,-902 353,-902 353,-902 195,-902"/>
<polygon fill="none" stroke="#bfbfbf" points="169,-692 169,-1106 353,-1106 353,-692 169,-692"/>
</a>
</g>
</g>
<!-- Node1&#45;&gt;Node4 -->
<g id="edge3_Node000001_Node000004" class="edge">
<title>Node1&#45;&gt;Node4</title>
<g id="a_edge3_Node000001_Node000004"><a xlink:title=" ">
<path fill="none" stroke="#63b8ff" d="M134.28,-788.04C145.6,-798.02 157.45,-808.49 169.17,-818.83"/>
<polygon fill="none" stroke="#63b8ff" points="136.69,-785.5 126.88,-781.5 132.06,-790.74 136.69,-785.5"/>
</a>
</g>
</g>
<!-- Node6 -->
<g id="Node000006" class="node">
<title>Node6</title>
<g id="a_Node000006"><a xlink:href="../../df/dcb/classv8_1_1internal_1_1wasm_1_1ModuleDecoderImpl.html" target="_top" xlink:title=" ">
<polygon fill="white" stroke="none" points="360,-673.5 162,-673.5 162,-432.5 360,-432.5 360,-673.5"/>
<text text-anchor="start" x="204" y="-660" font-family="Cascadia Code NF" font-size="10.00">v8::internal::wasm</text>
<text text-anchor="start" x="204" y="-647.25" font-family="Cascadia Code NF" font-size="10.00">::ModuleDecoderImpl</text>
<text text-anchor="start" x="258" y="-631" font-family="Cascadia Code NF" font-size="10.00"> </text>
<text text-anchor="start" x="166" y="-615" font-family="Cascadia Code NF" font-size="10.00">+</text>
<text text-anchor="start" x="176" y="-615" font-family="Cascadia Code NF" font-size="10.00">ModuleDecoderImpl()</text>
<text text-anchor="start" x="166" y="-599" font-family="Cascadia Code NF" font-size="10.00">+</text>
<text text-anchor="start" x="176" y="-599" font-family="Cascadia Code NF" font-size="10.00">onFirstError()</text>
<text text-anchor="start" x="166" y="-583" font-family="Cascadia Code NF" font-size="10.00">+</text>
<text text-anchor="start" x="176" y="-583" font-family="Cascadia Code NF" font-size="10.00">DecodeModuleHeader()</text>
<text text-anchor="start" x="166" y="-567" font-family="Cascadia Code NF" font-size="10.00">+</text>
<text text-anchor="start" x="176" y="-567" font-family="Cascadia Code NF" font-size="10.00">CheckSectionOrder()</text>
<text text-anchor="start" x="166" y="-551" font-family="Cascadia Code NF" font-size="10.00">+</text>
<text text-anchor="start" x="176" y="-551" font-family="Cascadia Code NF" font-size="10.00">DecodeSection()</text>
<text text-anchor="start" x="166" y="-535" font-family="Cascadia Code NF" font-size="10.00">+</text>
<text text-anchor="start" x="176" y="-535" font-family="Cascadia Code NF" font-size="10.00">consume_base_type_definition()</text>
<text text-anchor="start" x="166" y="-519" font-family="Cascadia Code NF" font-size="10.00">+</text>
<text text-anchor="start" x="176" y="-519" font-family="Cascadia Code NF" font-size="10.00">consume_subtype_definition()</text>
<text text-anchor="start" x="166" y="-503" font-family="Cascadia Code NF" font-size="10.00">+</text>
<text text-anchor="start" x="176" y="-503" font-family="Cascadia Code NF" font-size="10.00">DecodeTypeSection()</text>
<text text-anchor="start" x="166" y="-487" font-family="Cascadia Code NF" font-size="10.00">+</text>
<text text-anchor="start" x="176" y="-487" font-family="Cascadia Code NF" font-size="10.00">DecodeImportSection()</text>
<text text-anchor="start" x="166" y="-471" font-family="Cascadia Code NF" font-size="10.00">+</text>
<text text-anchor="start" x="176" y="-471" font-family="Cascadia Code NF" font-size="10.00">DecodeFunctionSection()</text>
<text text-anchor="start" x="176" y="-455" font-family="Cascadia Code NF" font-size="10.00">and 30 more...</text>
<text text-anchor="start" x="166" y="-439" font-family="Cascadia Code NF" font-size="10.00">+</text>
<text text-anchor="start" x="176" y="-439" font-family="Cascadia Code NF" font-size="10.00">TypeKindName()</text>
<polygon fill="#bfbfbf" stroke="#bfbfbf" points="162,-642.5 162,-642.5 360,-642.5 360,-642.5 162,-642.5"/>
<polygon fill="#bfbfbf" stroke="#bfbfbf" points="162,-626.5 162,-626.5 360,-626.5 360,-626.5 162,-626.5"/>
<polygon fill="none" stroke="#bfbfbf" points="162,-432.5 162,-673.5 360,-673.5 360,-432.5 162,-432.5"/>
</a>
</g>
</g>
<!-- Node1&#45;&gt;Node6 -->
<g id="edge5_Node000001_Node000006" class="edge">
<title>Node1&#45;&gt;Node6</title>
<g id="a_edge5_Node000001_Node000006"><a xlink:title=" ">
<path fill="none" stroke="#63b8ff" d="M134.35,-663.9C143.46,-655.87 152.9,-647.53 162.35,-639.2"/>
<polygon fill="none" stroke="#63b8ff" points="132.06,-661.26 126.88,-670.5 136.69,-666.5 132.06,-661.26"/>
</a>
</g>
</g>
<!-- Node7 -->
<g id="Node000007" class="node">
<title>Node7</title>
<g id="a_Node000007"><a xlink:href="../../de/d8e/classv8_1_1internal_1_1wasm_1_1WasmDecoder.html" target="_top" xlink:title=" ">
<polygon fill="white" stroke="none" points="353,-414 169,-414 169,0 353,0 353,-414"/>
<text text-anchor="start" x="174" y="-400.5" font-family="Cascadia Code NF" font-size="10.00">v8::internal::wasm</text>
<text text-anchor="start" x="174" y="-387.75" font-family="Cascadia Code NF" font-size="10.00">::WasmDecoder&lt; ValidationTag,</text>
<text text-anchor="start" x="213" y="-375" font-family="Cascadia Code NF" font-size="10.00"> decoding_mode &gt;</text>
<text text-anchor="start" x="180" y="-358.5" font-family="Cascadia Code NF" font-size="10.00">+</text>
<text text-anchor="start" x="197" y="-358.5" font-family="Cascadia Code NF" font-size="10.00">zone_</text>
<text text-anchor="start" x="180" y="-342.5" font-family="Cascadia Code NF" font-size="10.00">+</text>
<text text-anchor="start" x="197" y="-342.5" font-family="Cascadia Code NF" font-size="10.00">local_types_</text>
<text text-anchor="start" x="180" y="-326.5" font-family="Cascadia Code NF" font-size="10.00">+</text>
<text text-anchor="start" x="197" y="-326.5" font-family="Cascadia Code NF" font-size="10.00">num_locals_</text>
<text text-anchor="start" x="180" y="-310.5" font-family="Cascadia Code NF" font-size="10.00">+</text>
<text text-anchor="start" x="197" y="-310.5" font-family="Cascadia Code NF" font-size="10.00">module_</text>
<text text-anchor="start" x="180" y="-294.5" font-family="Cascadia Code NF" font-size="10.00">+</text>
<text text-anchor="start" x="197" y="-294.5" font-family="Cascadia Code NF" font-size="10.00">enabled_</text>
<text text-anchor="start" x="180" y="-278.5" font-family="Cascadia Code NF" font-size="10.00">+</text>
<text text-anchor="start" x="197" y="-278.5" font-family="Cascadia Code NF" font-size="10.00">detected_</text>
<text text-anchor="start" x="180" y="-262.5" font-family="Cascadia Code NF" font-size="10.00">+</text>
<text text-anchor="start" x="197" y="-262.5" font-family="Cascadia Code NF" font-size="10.00">sig_</text>
<text text-anchor="start" x="180" y="-246.5" font-family="Cascadia Code NF" font-size="10.00">+</text>
<text text-anchor="start" x="197" y="-246.5" font-family="Cascadia Code NF" font-size="10.00">is_shared_</text>
<text text-anchor="start" x="180" y="-230.5" font-family="Cascadia Code NF" font-size="10.00">+</text>
<text text-anchor="start" x="197" y="-230.5" font-family="Cascadia Code NF" font-size="10.00">current_inst_trace_</text>
<text text-anchor="start" x="180" y="-214.5" font-family="Cascadia Code NF" font-size="10.00">+</text>
<text text-anchor="start" x="197" y="-214.5" font-family="Cascadia Code NF" font-size="10.00">validate</text>
<text text-anchor="start" x="180" y="-198.5" font-family="Cascadia Code NF" font-size="10.00">+</text>
<text text-anchor="start" x="197" y="-198.5" font-family="Cascadia Code NF" font-size="10.00">WasmDecoder()</text>
<text text-anchor="start" x="180" y="-182.5" font-family="Cascadia Code NF" font-size="10.00">+</text>
<text text-anchor="start" x="197" y="-182.5" font-family="Cascadia Code NF" font-size="10.00">zone()</text>
<text text-anchor="start" x="180" y="-166.5" font-family="Cascadia Code NF" font-size="10.00">+</text>
<text text-anchor="start" x="197" y="-166.5" font-family="Cascadia Code NF" font-size="10.00">num_locals()</text>
<text text-anchor="start" x="180" y="-150.5" font-family="Cascadia Code NF" font-size="10.00">+</text>
<text text-anchor="start" x="197" y="-150.5" font-family="Cascadia Code NF" font-size="10.00">local_types()</text>
<text text-anchor="start" x="180" y="-134.5" font-family="Cascadia Code NF" font-size="10.00">+</text>
<text text-anchor="start" x="197" y="-134.5" font-family="Cascadia Code NF" font-size="10.00">local_type()</text>
<text text-anchor="start" x="180" y="-118.5" font-family="Cascadia Code NF" font-size="10.00">+</text>
<text text-anchor="start" x="197" y="-118.5" font-family="Cascadia Code NF" font-size="10.00">DecodeLocals()</text>
<text text-anchor="start" x="180" y="-102.5" font-family="Cascadia Code NF" font-size="10.00">+</text>
<text text-anchor="start" x="197" y="-102.5" font-family="Cascadia Code NF" font-size="10.00">DecodeError()</text>
<text text-anchor="start" x="180" y="-86.5" font-family="Cascadia Code NF" font-size="10.00">+</text>
<text text-anchor="start" x="197" y="-86.5" font-family="Cascadia Code NF" font-size="10.00">Validate()</text>
<text text-anchor="start" x="180" y="-70.5" font-family="Cascadia Code NF" font-size="10.00">+</text>
<text text-anchor="start" x="197" y="-70.5" font-family="Cascadia Code NF" font-size="10.00">Validate()</text>
<text text-anchor="start" x="180" y="-54.5" font-family="Cascadia Code NF" font-size="10.00">+</text>
<text text-anchor="start" x="197" y="-54.5" font-family="Cascadia Code NF" font-size="10.00">Validate()</text>
<text text-anchor="start" x="197" y="-38.5" font-family="Cascadia Code NF" font-size="10.00">and 29 more...</text>
<text text-anchor="start" x="180" y="-22.5" font-family="Cascadia Code NF" font-size="10.00">+</text>
<text text-anchor="start" x="197" y="-22.5" font-family="Cascadia Code NF" font-size="10.00">AnalyzeLoopAssignment()</text>
<text text-anchor="start" x="180" y="-6.5" font-family="Cascadia Code NF" font-size="10.00">+</text>
<text text-anchor="start" x="197" y="-6.5" font-family="Cascadia Code NF" font-size="10.00">OpcodeLength()</text>
<polygon fill="#bfbfbf" stroke="#bfbfbf" points="169,-370 169,-370 353,-370 353,-370 169,-370"/>
<polygon fill="#bfbfbf" stroke="#bfbfbf" points="169,-210 169,-210 195,-210 195,-210 169,-210"/>
<polygon fill="#bfbfbf" stroke="#bfbfbf" points="195,-210 195,-210 353,-210 353,-210 195,-210"/>
<polygon fill="none" stroke="#bfbfbf" points="169,0 169,-414 353,-414 353,0 169,0"/>
</a>
</g>
</g>
<!-- Node1&#45;&gt;Node7 -->
<g id="edge6_Node000001_Node000007" class="edge">
<title>Node1&#45;&gt;Node7</title>
<g id="a_edge6_Node000001_Node000007"><a xlink:title=" ">
<path fill="none" stroke="#63b8ff" d="M118.59,-546.67C131.95,-506.03 146.81,-463.29 162,-424 164.27,-418.12 166.62,-412.17 169.03,-406.18"/>
<polygon fill="none" stroke="#63b8ff" points="115.29,-545.48 115.51,-556.07 121.95,-547.65 115.29,-545.48"/>
</a>
</g>
</g>
<!-- Node3 -->
<g id="Node000003" class="node">
<title>Node3</title>
<g id="a_Node000003"><a xlink:href="../../da/d81/classv8_1_1internal_1_1wasm_1_1FunctionBodyDisassembler.html" target="_top" xlink:title=" ">
<polygon fill="white" stroke="none" points="590,-1483.5 398,-1483.5 398,-1178.5 590,-1178.5 590,-1483.5"/>
<text text-anchor="start" x="416" y="-1470" font-family="Cascadia Code NF" font-size="10.00">v8::internal::wasm</text>
<text text-anchor="start" x="416" y="-1457.25" font-family="Cascadia Code NF" font-size="10.00">::FunctionBodyDisassembler</text>
<text text-anchor="start" x="402" y="-1441" font-family="Cascadia Code NF" font-size="10.00">#</text>
<text text-anchor="start" x="412" y="-1441" font-family="Cascadia Code NF" font-size="10.00">func_index_</text>
<text text-anchor="start" x="402" y="-1425" font-family="Cascadia Code NF" font-size="10.00">#</text>
<text text-anchor="start" x="412" y="-1425" font-family="Cascadia Code NF" font-size="10.00">current_opcode_</text>
<text text-anchor="start" x="402" y="-1409" font-family="Cascadia Code NF" font-size="10.00">#</text>
<text text-anchor="start" x="412" y="-1409" font-family="Cascadia Code NF" font-size="10.00">wire_bytes_</text>
<text text-anchor="start" x="402" y="-1393" font-family="Cascadia Code NF" font-size="10.00">#</text>
<text text-anchor="start" x="412" y="-1393" font-family="Cascadia Code NF" font-size="10.00">names_</text>
<text text-anchor="start" x="402" y="-1377" font-family="Cascadia Code NF" font-size="10.00">#</text>
<text text-anchor="start" x="412" y="-1377" font-family="Cascadia Code NF" font-size="10.00">used_types_</text>
<text text-anchor="start" x="402" y="-1361" font-family="Cascadia Code NF" font-size="10.00">#</text>
<text text-anchor="start" x="412" y="-1361" font-family="Cascadia Code NF" font-size="10.00">label_stack_</text>
<text text-anchor="start" x="402" y="-1345" font-family="Cascadia Code NF" font-size="10.00">#</text>
<text text-anchor="start" x="412" y="-1345" font-family="Cascadia Code NF" font-size="10.00">out_</text>
<text text-anchor="start" x="402" y="-1329" font-family="Cascadia Code NF" font-size="10.00">#</text>
<text text-anchor="start" x="412" y="-1329" font-family="Cascadia Code NF" font-size="10.00">label_occurrence_index_</text>
<text text-anchor="start" x="402" y="-1313" font-family="Cascadia Code NF" font-size="10.00">#</text>
<text text-anchor="start" x="412" y="-1313" font-family="Cascadia Code NF" font-size="10.00">label_generation_index_</text>
<text text-anchor="start" x="402" y="-1297" font-family="Cascadia Code NF" font-size="10.00">+</text>
<text text-anchor="start" x="412" y="-1297" font-family="Cascadia Code NF" font-size="10.00">FunctionBodyDisassembler()</text>
<text text-anchor="start" x="402" y="-1281" font-family="Cascadia Code NF" font-size="10.00">+</text>
<text text-anchor="start" x="412" y="-1281" font-family="Cascadia Code NF" font-size="10.00">DecodeAsWat()</text>
<text text-anchor="start" x="402" y="-1265" font-family="Cascadia Code NF" font-size="10.00">+</text>
<text text-anchor="start" x="412" y="-1265" font-family="Cascadia Code NF" font-size="10.00">DecodeGlobalInitializer()</text>
<text text-anchor="start" x="402" y="-1249" font-family="Cascadia Code NF" font-size="10.00">+</text>
<text text-anchor="start" x="412" y="-1249" font-family="Cascadia Code NF" font-size="10.00">used_types()</text>
<text text-anchor="start" x="402" y="-1233" font-family="Cascadia Code NF" font-size="10.00">#</text>
<text text-anchor="start" x="412" y="-1233" font-family="Cascadia Code NF" font-size="10.00">GetOpcode()</text>
<text text-anchor="start" x="402" y="-1217" font-family="Cascadia Code NF" font-size="10.00">#</text>
<text text-anchor="start" x="412" y="-1217" font-family="Cascadia Code NF" font-size="10.00">PrintImmediatesAndGetLength()</text>
<text text-anchor="start" x="402" y="-1201" font-family="Cascadia Code NF" font-size="10.00">#</text>
<text text-anchor="start" x="412" y="-1201" font-family="Cascadia Code NF" font-size="10.00">PrintHexNumber()</text>
<text text-anchor="start" x="402" y="-1185" font-family="Cascadia Code NF" font-size="10.00">#</text>
<text text-anchor="start" x="412" y="-1185" font-family="Cascadia Code NF" font-size="10.00">label_info()</text>
<polygon fill="#bfbfbf" stroke="#bfbfbf" points="398,-1452.5 398,-1452.5 590,-1452.5 590,-1452.5 398,-1452.5"/>
<polygon fill="#bfbfbf" stroke="#bfbfbf" points="398,-1308.5 398,-1308.5 410,-1308.5 410,-1308.5 398,-1308.5"/>
<polygon fill="#bfbfbf" stroke="#bfbfbf" points="410,-1308.5 410,-1308.5 590,-1308.5 590,-1308.5 410,-1308.5"/>
<polygon fill="none" stroke="#bfbfbf" points="398,-1178.5 398,-1483.5 590,-1483.5 590,-1178.5 398,-1178.5"/>
</a>
</g>
</g>
<!-- Node2&#45;&gt;Node3 -->
<g id="edge2_Node000002_Node000003" class="edge">
<title>Node2&#45;&gt;Node3</title>
<g id="a_edge2_Node000002_Node000003"><a xlink:title=" ">
<path fill="none" stroke="#63b8ff" d="M350.23,-1331C365.97,-1331 382.42,-1331 398.33,-1331"/>
<polygon fill="none" stroke="#63b8ff" points="350.43,-1327.5 340.43,-1331 350.43,-1334.5 350.43,-1327.5"/>
</a>
</g>
</g>
<!-- Node5 -->
<g id="Node000005" class="node">
<title>Node5</title>
<g id="a_Node000005"><a xlink:href="../../de/db1/classv8_1_1internal_1_1wasm_1_1WasmFullDecoder.html" target="_top" xlink:title=" ">
<polygon fill="white" stroke="none" points="592,-1018 396,-1018 396,-780 592,-780 592,-1018"/>
<text text-anchor="start" x="401" y="-1004.5" font-family="Cascadia Code NF" font-size="10.00">v8::internal::wasm</text>
<text text-anchor="start" x="401" y="-991.75" font-family="Cascadia Code NF" font-size="10.00">::WasmFullDecoder&lt; Validation</text>
<text text-anchor="start" x="401" y="-979" font-family="Cascadia Code NF" font-size="10.00">Tag, Interface, decoding_mode &gt;</text>
<text text-anchor="start" x="491" y="-962.5" font-family="Cascadia Code NF" font-size="10.00"> </text>
<text text-anchor="start" x="417.5" y="-946.5" font-family="Cascadia Code NF" font-size="10.00">+</text>
<text text-anchor="start" x="445" y="-946.5" font-family="Cascadia Code NF" font-size="10.00">WasmFullDecoder()</text>
<text text-anchor="start" x="417.5" y="-930.5" font-family="Cascadia Code NF" font-size="10.00">+</text>
<text text-anchor="start" x="445" y="-930.5" font-family="Cascadia Code NF" font-size="10.00">~WasmFullDecoder()</text>
<text text-anchor="start" x="417.5" y="-914.5" font-family="Cascadia Code NF" font-size="10.00">+</text>
<text text-anchor="start" x="445" y="-914.5" font-family="Cascadia Code NF" font-size="10.00">interface()</text>
<text text-anchor="start" x="417.5" y="-898.5" font-family="Cascadia Code NF" font-size="10.00">+</text>
<text text-anchor="start" x="445" y="-898.5" font-family="Cascadia Code NF" font-size="10.00">Decode()</text>
<text text-anchor="start" x="417.5" y="-882.5" font-family="Cascadia Code NF" font-size="10.00">+</text>
<text text-anchor="start" x="445" y="-882.5" font-family="Cascadia Code NF" font-size="10.00">TraceFailed()</text>
<text text-anchor="start" x="417.5" y="-866.5" font-family="Cascadia Code NF" font-size="10.00">+</text>
<text text-anchor="start" x="445" y="-866.5" font-family="Cascadia Code NF" font-size="10.00">SafeOpcodeNameAt()</text>
<text text-anchor="start" x="417.5" y="-850.5" font-family="Cascadia Code NF" font-size="10.00">+</text>
<text text-anchor="start" x="445" y="-850.5" font-family="Cascadia Code NF" font-size="10.00">position()</text>
<text text-anchor="start" x="417.5" y="-834.5" font-family="Cascadia Code NF" font-size="10.00">+</text>
<text text-anchor="start" x="445" y="-834.5" font-family="Cascadia Code NF" font-size="10.00">control_depth()</text>
<text text-anchor="start" x="417.5" y="-818.5" font-family="Cascadia Code NF" font-size="10.00">+</text>
<text text-anchor="start" x="445" y="-818.5" font-family="Cascadia Code NF" font-size="10.00">control_at()</text>
<text text-anchor="start" x="417.5" y="-802.5" font-family="Cascadia Code NF" font-size="10.00">+</text>
<text text-anchor="start" x="445" y="-802.5" font-family="Cascadia Code NF" font-size="10.00">stack_size()</text>
<text text-anchor="start" x="445" y="-786.5" font-family="Cascadia Code NF" font-size="10.00">and 11 more...</text>
<polygon fill="#bfbfbf" stroke="#bfbfbf" points="396,-974 396,-974 592,-974 592,-974 396,-974"/>
<polygon fill="#bfbfbf" stroke="#bfbfbf" points="396,-958 396,-958 592,-958 592,-958 396,-958"/>
<polygon fill="none" stroke="#bfbfbf" points="396,-780 396,-1018 592,-1018 592,-780 396,-780"/>
</a>
</g>
</g>
<!-- Node4&#45;&gt;Node5 -->
<g id="edge4_Node000004_Node000005" class="edge">
<title>Node4&#45;&gt;Node5</title>
<g id="a_edge4_Node000004_Node000005"><a xlink:title=" ">
<path fill="none" stroke="#63b8ff" d="M364.33,-899C374.86,-899 385.55,-899 396.03,-899"/>
<polygon fill="none" stroke="#63b8ff" points="364.48,-895.5 354.48,-899 364.48,-902.5 364.48,-895.5"/>
</a>
</g>
</g>
</g>
</svg>

<g id="navigator" transform="translate(0 0)" fill="#404254">
  <rect fill="#f2f5e9" fill-opacity="0.5" stroke="#606060" stroke-width=".5" x="0" y="0" width="60" height="60"/>
  <use id="zoomplus" xlink:href="#zoomPlus" x="17" y="9" onmousedown="handleZoom(evt,'in')"/>
  <use id="zoomminus" xlink:href="#zoomMin" x="42" y="9" onmousedown="handleZoom(evt,'out')"/>
  <use id="reset" xlink:href="#resetDef" x="30" y="36" onmousedown="handleReset()"/>
   <use id="arrowup" xlink:href="#arrowUp" x="0" y="0" onmousedown="handlePan(0,-1)"/>
  <use id="arrowright" xlink:href="#arrowRight" x="0" y="0" onmousedown="handlePan(1,0)"/>
  <use id="arrowdown" xlink:href="#arrowDown" x="0" y="0" onmousedown="handlePan(0,1)"/>
  <use id="arrowleft" xlink:href="#arrowLeft" x="0" y="0" onmousedown="handlePan(-1,0)"/>
</g>
<svg viewBox="0 0 15 15" width="100%" height="30px" preserveAspectRatio="xMaxYMin meet">
 <g id="arrow_out" transform="scale(0.3 0.3)">
  <a xlink:href="classv8_1_1internal_1_1wasm_1_1Decoder__inherit__graph_org.svg" target="_base">
   <rect id="button" ry="5" rx="5" y="6" x="6" height="38" width="38"
        fill="#f2f5e9" fill-opacity="0.5" stroke="#606060" stroke-width="1.0"/>
   <path id="arrow"
     d="M 11.500037,31.436501 C 11.940474,20.09759 22.043105,11.32322 32.158766,21.979434 L 37.068811,17.246167 C 37.068811,17.246167 37.088388,32 37.088388,32 L 22.160133,31.978069 C 22.160133,31.978069 26.997745,27.140456 26.997745,27.140456 C 18.528582,18.264221 13.291696,25.230495 11.500037,31.436501 z"
     style="fill:#404040;"/>
  </a>
 </g>
</svg>

<style type='text/css'>
<![CDATA[
[data-mouse-over-selected='false'] { opacity: 0.7; }
[data-mouse-over-selected='true']  { opacity: 1.0; }
]]>
</style>
<script type="application/ecmascript"><![CDATA[
document.addEventListener('DOMContentLoaded', (event) => {
  highlightEdges();
  highlightAdjacentNodes();
});
]]></script>
</svg>
