<?xml version="1.0" encoding="UTF-8" standalone="no"?>
<!DOCTYPE svg PUBLIC "-//W3C//DTD SVG 1.1//EN"
 "http://www.w3.org/Graphics/SVG/1.1/DTD/svg11.dtd">
<!-- Generated by graphviz version 11.0.0 (20240428.1522)
 -->
<!-- Title: v8::HeapGraphEdge Pages: 1 -->
<svg width="120pt" height="108pt"
 viewBox="0.00 0.00 120.00 108.00" xmlns="http://www.w3.org/2000/svg" xmlns:xlink="http://www.w3.org/1999/xlink">
<g id="graph0" class="graph" transform="scale(1 1) rotate(0) translate(4 104)">
<title>v8::HeapGraphEdge</title>
<!-- Node1 -->
<g id="Node000001" class="node">
<title>Node1</title>
<g id="a_Node000001"><a xlink:title=" ">
<polygon fill="#999999" stroke="none" points="112,-100 0,-100 0,0 112,0 112,-100"/>
<text text-anchor="start" x="5" y="-86.5" font-family="Cascadia Code NF" font-size="10.00">v8::HeapGraphEdge</text>
<text text-anchor="start" x="53" y="-70.5" font-family="Cascadia Code NF" font-size="10.00"> </text>
<text text-anchor="start" x="8" y="-54.5" font-family="Cascadia Code NF" font-size="10.00">+</text>
<text text-anchor="start" x="22" y="-54.5" font-family="Cascadia Code NF" font-size="10.00">GetType()</text>
<text text-anchor="start" x="8" y="-38.5" font-family="Cascadia Code NF" font-size="10.00">+</text>
<text text-anchor="start" x="22" y="-38.5" font-family="Cascadia Code NF" font-size="10.00">GetName()</text>
<text text-anchor="start" x="8" y="-22.5" font-family="Cascadia Code NF" font-size="10.00">+</text>
<text text-anchor="start" x="22" y="-22.5" font-family="Cascadia Code NF" font-size="10.00">GetFromNode()</text>
<text text-anchor="start" x="8" y="-6.5" font-family="Cascadia Code NF" font-size="10.00">+</text>
<text text-anchor="start" x="22" y="-6.5" font-family="Cascadia Code NF" font-size="10.00">GetToNode()</text>
<polygon fill="#666666" stroke="#666666" points="0,-82 0,-82 112,-82 112,-82 0,-82"/>
<polygon fill="#666666" stroke="#666666" points="0,-66 0,-66 112,-66 112,-66 0,-66"/>
<polygon fill="none" stroke="#666666" points="0,0 0,-100 112,-100 112,0 0,0"/>
</a>
</g>
</g>
</g>
</svg>
