<?xml version="1.0" encoding="UTF-8" standalone="no"?>
<!DOCTYPE svg PUBLIC "-//W3C//DTD SVG 1.1//EN"
 "http://www.w3.org/Graphics/SVG/1.1/DTD/svg11.dtd">
<!-- Generated by graphviz version 11.0.0 (20240428.1522)
 -->
<!-- Title: v8::internal::JSPrimitiveWrapper Pages: 1 -->
<!--zoomable 237 -->

<svg id="main" version="1.1" xmlns="http://www.w3.org/2000/svg" xmlns:xlink="http://www.w3.org/1999/xlink" xml:space="preserve" onload="init(evt)">
<style type="text/css"><![CDATA[
.node, .edge {opacity: 0.7;}
.node.selected, .edge.selected {opacity: 1;}
.edge:hover path { stroke: red; }
.edge:hover polygon { stroke: red; fill: red; }
svg#main { background-color: #111; }
]]></style>

<defs>
  <circle id="rim" cx="0" cy="0" r="7"/>
  <circle id="rim2" cx="0" cy="0" r="3.5"/>
  <g id="zoomPlus">
    <use xlink:href="#rim" fill="#404040"><set attributeName="fill" to="#808080" begin="zoomplus.mouseover" end="zoomplus.mouseout"/></use>
    <path d="M-4,0h8M0,-4v8" fill="none" stroke="white" stroke-width="1.5" pointer-events="none"/>
  </g>
  <g id="zoomMin">
    <use xlink:href="#rim" fill="#404040"><set attributeName="fill" to="#808080" begin="zoomminus.mouseover" end="zoomminus.mouseout"/></use>
    <path d="M-4,0h8" fill="none" stroke="white" stroke-width="1.5" pointer-events="none"/>
  </g>
  <g id="arrowUp" transform="translate(30 24)">
    <use xlink:href="#rim"/>
    <path pointer-events="none" fill="none" stroke="white" stroke-width="1.5" d="M0,-3.0v7 M-2.5,-0.5L0,-3.0L2.5,-0.5"/>
  </g>
  <g id="arrowRight" transform="rotate(90) translate(36 -43)">
    <use xlink:href="#rim"/>
    <path pointer-events="none" fill="none" stroke="white" stroke-width="1.5" d="M0,-3.0v7 M-2.5,-0.5L0,-3.0L2.5,-0.5"/>
  </g>
  <g id="arrowDown" transform="rotate(180) translate(-30 -48)">
    <use xlink:href="#rim"/>
    <path pointer-events="none" fill="none" stroke="white" stroke-width="1.5" d="M0,-3.0v7 M-2.5,-0.5L0,-3.0L2.5,-0.5"/>
  </g>
  <g id="arrowLeft" transform="rotate(270) translate(-36 17)">
    <use xlink:href="#rim"/>
    <path pointer-events="none" fill="none" stroke="white" stroke-width="1.5" d="M0,-3.0v7 M-2.5,-0.5L0,-3.0L2.5,-0.5"/>
  </g>
  <g id="resetDef">
    <use xlink:href="#rim2" fill="#404040"><set attributeName="fill" to="#808080" begin="reset.mouseover" end="reset.mouseout"/></use>
  </g>
</defs>
<script type="application/ecmascript">
var viewWidth = 722;
var viewHeight = 237;
var sectionId = 'dynsection-1';
</script>
<script type="application/ecmascript" xlink:href="../../svg.min.js"/>
<svg id="graph" class="graph">
<g id="viewport">
<title>v8::internal::JSPrimitiveWrapper</title>
<!-- Node1 -->
<g id="Node000001" class="node">
<title>Node1</title>
<g id="a_Node000001"><a xlink:title=" ">
<polygon fill="#999999" stroke="none" points="714,-147 554,-147 554,-82 714,-82 714,-147"/>
<text text-anchor="start" x="559" y="-133.5" font-family="Cascadia Code NF" font-size="10.00">v8::internal::JSPrimitive</text>
<text text-anchor="start" x="613" y="-120.75" font-family="Cascadia Code NF" font-size="10.00">Wrapper</text>
<text text-anchor="start" x="631" y="-104.5" font-family="Cascadia Code NF" font-size="10.00"> </text>
<text text-anchor="start" x="631" y="-88.5" font-family="Cascadia Code NF" font-size="10.00"> </text>
<polygon fill="#666666" stroke="#666666" points="554,-116 554,-116 714,-116 714,-116 554,-116"/>
<polygon fill="#666666" stroke="#666666" points="554,-100 554,-100 714,-100 714,-100 554,-100"/>
<polygon fill="none" stroke="#666666" points="554,-82 554,-147 714,-147 714,-82 554,-82"/>
</a>
</g>
</g>
<!-- Node2 -->
<g id="Node000002" class="node">
<title>Node2</title>
<g id="a_Node000002"><a xlink:href="../../d4/dfa/classTorqueGeneratedJSPrimitiveWrapper.html" target="_top" xlink:title=" ">
<polygon fill="white" stroke="none" points="518,-229 340,-229 340,0 518,0 518,-229"/>
<text text-anchor="start" x="345" y="-215.5" font-family="Cascadia Code NF" font-size="10.00">TorqueGeneratedJSPrimitive</text>
<text text-anchor="start" x="345" y="-202.75" font-family="Cascadia Code NF" font-size="10.00">Wrapper&lt; JSPrimitiveWrapper,</text>
<text text-anchor="start" x="354" y="-190" font-family="Cascadia Code NF" font-size="10.00"> JSCustomElementsObject &gt;</text>
<text text-anchor="start" x="426" y="-173.5" font-family="Cascadia Code NF" font-size="10.00"> </text>
<text text-anchor="start" x="345" y="-157.5" font-family="Cascadia Code NF" font-size="10.00">+</text>
<text text-anchor="start" x="356" y="-157.5" font-family="Cascadia Code NF" font-size="10.00">value()</text>
<text text-anchor="start" x="345" y="-141.5" font-family="Cascadia Code NF" font-size="10.00">+</text>
<text text-anchor="start" x="356" y="-141.5" font-family="Cascadia Code NF" font-size="10.00">value()</text>
<text text-anchor="start" x="345" y="-125.5" font-family="Cascadia Code NF" font-size="10.00">+</text>
<text text-anchor="start" x="356" y="-125.5" font-family="Cascadia Code NF" font-size="10.00">set_value()</text>
<text text-anchor="start" x="345" y="-109.5" font-family="Cascadia Code NF" font-size="10.00">+</text>
<text text-anchor="start" x="356" y="-109.5" font-family="Cascadia Code NF" font-size="10.00">TorqueGeneratedJSPrimitive</text>
<text text-anchor="start" x="356" y="-96.75" font-family="Cascadia Code NF" font-size="10.00">Wrapper()</text>
<text text-anchor="start" x="345" y="-80.5" font-family="Cascadia Code NF" font-size="10.00">+</text>
<text text-anchor="start" x="356" y="-80.5" font-family="Cascadia Code NF" font-size="10.00">cast()</text>
<text text-anchor="start" x="345" y="-64.5" font-family="Cascadia Code NF" font-size="10.00">+</text>
<text text-anchor="start" x="356" y="-64.5" font-family="Cascadia Code NF" font-size="10.00">unchecked_cast()</text>
<text text-anchor="start" x="345" y="-48.5" font-family="Cascadia Code NF" font-size="10.00">#</text>
<text text-anchor="start" x="356" y="-48.5" font-family="Cascadia Code NF" font-size="10.00">TorqueGeneratedJSPrimitive</text>
<text text-anchor="start" x="356" y="-35.75" font-family="Cascadia Code NF" font-size="10.00">Wrapper()</text>
<text text-anchor="start" x="345" y="-19.5" font-family="Cascadia Code NF" font-size="10.00">#</text>
<text text-anchor="start" x="356" y="-19.5" font-family="Cascadia Code NF" font-size="10.00">TorqueGeneratedJSPrimitive</text>
<text text-anchor="start" x="356" y="-6.75" font-family="Cascadia Code NF" font-size="10.00">Wrapper()</text>
<polygon fill="#bfbfbf" stroke="#bfbfbf" points="340,-185 340,-185 518,-185 518,-185 340,-185"/>
<polygon fill="#bfbfbf" stroke="#bfbfbf" points="340,-169 340,-169 518,-169 518,-169 340,-169"/>
<polygon fill="none" stroke="#bfbfbf" points="340,0 340,-229 518,-229 518,0 340,0"/>
</a>
</g>
</g>
<!-- Node2&#45;&gt;Node1 -->
<g id="edge1_Node000001_Node000002" class="edge">
<title>Node2&#45;&gt;Node1</title>
<g id="a_edge1_Node000001_Node000002"><a xlink:title=" ">
<path fill="none" stroke="#63b8ff" d="M529.27,-114.5C537.66,-114.5 546.07,-114.5 554.27,-114.5"/>
<polygon fill="none" stroke="#63b8ff" points="529.37,-111 519.37,-114.5 529.37,-118 529.37,-111"/>
</a>
</g>
</g>
<!-- Node3 -->
<g id="Node000003" class="node">
<title>Node3</title>
<g id="a_Node000003"><a xlink:title=" ">
<polygon fill="white" stroke="none" points="142,-196.5 0,-196.5 0,-144.5 142,-144.5 142,-196.5"/>
<text text-anchor="start" x="5" y="-183" font-family="Cascadia Code NF" font-size="10.00">JSCustomElementsObject</text>
<text text-anchor="start" x="68" y="-167" font-family="Cascadia Code NF" font-size="10.00"> </text>
<text text-anchor="start" x="68" y="-151" font-family="Cascadia Code NF" font-size="10.00"> </text>
<polygon fill="#bfbfbf" stroke="#bfbfbf" points="0,-178.5 0,-178.5 142,-178.5 142,-178.5 0,-178.5"/>
<polygon fill="#bfbfbf" stroke="#bfbfbf" points="0,-162.5 0,-162.5 142,-162.5 142,-162.5 0,-162.5"/>
<polygon fill="none" stroke="#bfbfbf" points="0,-144.5 0,-196.5 142,-196.5 142,-144.5 0,-144.5"/>
</a>
</g>
</g>
<!-- Node3&#45;&gt;Node2 -->
<g id="edge2_Node000002_Node000003" class="edge">
<title>Node3&#45;&gt;Node2</title>
<g id="a_edge2_Node000002_Node000003"><a xlink:title=" ">
<path fill="none" stroke="#63b8ff" d="M153.06,-167.93C202.31,-165.25 266.23,-159.75 322,-148.5 327.97,-147.3 334.07,-145.87 340.19,-144.3"/>
<polygon fill="none" stroke="#63b8ff" points="153.15,-164.43 143.35,-168.43 153.51,-171.42 153.15,-164.43"/>
</a>
</g>
</g>
<!-- Node4 -->
<g id="Node000004" class="node">
<title>Node4</title>
<g id="a_Node000004"><a xlink:href="../../d1/da0/classint.html" target="_top" xlink:title=" ">
<polygon fill="white" stroke="none" points="85,-84.5 57,-84.5 57,-32.5 85,-32.5 85,-84.5"/>
<text text-anchor="start" x="62" y="-71" font-family="Cascadia Code NF" font-size="10.00">int</text>
<text text-anchor="start" x="68" y="-55" font-family="Cascadia Code NF" font-size="10.00"> </text>
<text text-anchor="start" x="68" y="-39" font-family="Cascadia Code NF" font-size="10.00"> </text>
<polygon fill="#bfbfbf" stroke="#bfbfbf" points="57,-66.5 57,-66.5 85,-66.5 85,-66.5 57,-66.5"/>
<polygon fill="#bfbfbf" stroke="#bfbfbf" points="57,-50.5 57,-50.5 85,-50.5 85,-50.5 57,-50.5"/>
<polygon fill="none" stroke="#bfbfbf" points="57,-32.5 57,-84.5 85,-84.5 85,-32.5 57,-32.5"/>
</a>
</g>
</g>
<!-- Node4&#45;&gt;Node2 -->
<g id="edge3_Node000002_Node000004" class="edge">
<title>Node4&#45;&gt;Node2</title>
<g id="a_edge3_Node000002_Node000004"><a xlink:title=" ">
<path fill="none" stroke="#63b8ff" d="M84.77,-56C122.07,-49.18 233.79,-32.27 322,-55.25 323.97,-55.76 325.95,-56.32 327.93,-56.93"/>
<polygon fill="none" stroke="#63b8ff" points="327.84,-56.9 334.82,-55.08 339.18,-60.82 332.2,-62.64 327.84,-56.9"/>
</a>
</g>
<text text-anchor="middle" x="241" y="-135.25" font-family="Cascadia Code NF" font-size="10.00" fill="grey"> +kEndOfStrongFieldsOffset</text>
<text text-anchor="middle" x="241" y="-122.5" font-family="Cascadia Code NF" font-size="10.00" fill="grey">+kEndOfWeakFieldsOffset</text>
<text text-anchor="middle" x="241" y="-109.75" font-family="Cascadia Code NF" font-size="10.00" fill="grey">+kHeaderSize</text>
<text text-anchor="middle" x="241" y="-97" font-family="Cascadia Code NF" font-size="10.00" fill="grey">+kStartOfStrongFieldsOffset</text>
<text text-anchor="middle" x="241" y="-84.25" font-family="Cascadia Code NF" font-size="10.00" fill="grey">+kStartOfWeakFieldsOffset</text>
<text text-anchor="middle" x="241" y="-71.5" font-family="Cascadia Code NF" font-size="10.00" fill="grey">+kValueOffset</text>
<text text-anchor="middle" x="241" y="-58.75" font-family="Cascadia Code NF" font-size="10.00" fill="grey">+kValueOffsetEnd</text>
</g>
</g>
</svg>

<g id="navigator" transform="translate(0 0)" fill="#404254">
  <rect fill="#f2f5e9" fill-opacity="0.5" stroke="#606060" stroke-width=".5" x="0" y="0" width="60" height="60"/>
  <use id="zoomplus" xlink:href="#zoomPlus" x="17" y="9" onmousedown="handleZoom(evt,'in')"/>
  <use id="zoomminus" xlink:href="#zoomMin" x="42" y="9" onmousedown="handleZoom(evt,'out')"/>
  <use id="reset" xlink:href="#resetDef" x="30" y="36" onmousedown="handleReset()"/>
   <use id="arrowup" xlink:href="#arrowUp" x="0" y="0" onmousedown="handlePan(0,-1)"/>
  <use id="arrowright" xlink:href="#arrowRight" x="0" y="0" onmousedown="handlePan(1,0)"/>
  <use id="arrowdown" xlink:href="#arrowDown" x="0" y="0" onmousedown="handlePan(0,1)"/>
  <use id="arrowleft" xlink:href="#arrowLeft" x="0" y="0" onmousedown="handlePan(-1,0)"/>
</g>
<svg viewBox="0 0 15 15" width="100%" height="30px" preserveAspectRatio="xMaxYMin meet">
 <g id="arrow_out" transform="scale(0.3 0.3)">
  <a xlink:href="classv8_1_1internal_1_1JSPrimitiveWrapper__coll__graph_org.svg" target="_base">
   <rect id="button" ry="5" rx="5" y="6" x="6" height="38" width="38"
        fill="#f2f5e9" fill-opacity="0.5" stroke="#606060" stroke-width="1.0"/>
   <path id="arrow"
     d="M 11.500037,31.436501 C 11.940474,20.09759 22.043105,11.32322 32.158766,21.979434 L 37.068811,17.246167 C 37.068811,17.246167 37.088388,32 37.088388,32 L 22.160133,31.978069 C 22.160133,31.978069 26.997745,27.140456 26.997745,27.140456 C 18.528582,18.264221 13.291696,25.230495 11.500037,31.436501 z"
     style="fill:#404040;"/>
  </a>
 </g>
</svg>

<style type='text/css'>
<![CDATA[
[data-mouse-over-selected='false'] { opacity: 0.7; }
[data-mouse-over-selected='true']  { opacity: 1.0; }
]]>
</style>
<script type="application/ecmascript"><![CDATA[
document.addEventListener('DOMContentLoaded', (event) => {
  highlightEdges();
  highlightAdjacentNodes();
});
]]></script>
</svg>
