<?xml version="1.0" encoding="UTF-8" standalone="no"?>
<!DOCTYPE svg PUBLIC "-//W3C//DTD SVG 1.1//EN"
 "http://www.w3.org/Graphics/SVG/1.1/DTD/svg11.dtd">
<!-- Generated by graphviz version 11.0.0 (20240428.1522)
 -->
<!-- Title: v8_inspector::protocol::Profiler::ScriptCoverage Pages: 1 -->
<svg width="364pt" height="185pt"
 viewBox="0.00 0.00 364.00 185.00" xmlns="http://www.w3.org/2000/svg" xmlns:xlink="http://www.w3.org/1999/xlink">

<svg id="main" version="1.1" xmlns="http://www.w3.org/2000/svg" xmlns:xlink="http://www.w3.org/1999/xlink" xml:space="preserve" onload="init(evt)">
<style type="text/css"><![CDATA[
.node, .edge {opacity: 0.7;}
.node.selected, .edge.selected {opacity: 1;}
.edge:hover path { stroke: red; }
.edge:hover polygon { stroke: red; fill: red; }
svg#main { background-color: #111; }
]]></style>
<script type="application/ecmascript" xlink:href="../../svg.min.js"/>
<svg id="graph" class="graph">
<g id="graph0" class="graph" transform="scale(1 1) rotate(0) translate(4 181)">
<title>v8_inspector::protocol::Profiler::ScriptCoverage</title>
<!-- Node1 -->
<g id="Node000001" class="node">
<title>Node1</title>
<g id="a_Node000001"><a xlink:title=" ">
<polygon fill="#999999" stroke="none" points="356,-177 190,-177 190,0 356,0 356,-177"/>
<text text-anchor="start" x="195" y="-163.5" font-family="Cascadia Code NF" font-size="10.00">v8_inspector::protocol</text>
<text text-anchor="start" x="195" y="-150.75" font-family="Cascadia Code NF" font-size="10.00">::Profiler::ScriptCoverage</text>
<text text-anchor="start" x="270" y="-134.5" font-family="Cascadia Code NF" font-size="10.00"> </text>
<text text-anchor="start" x="205.5" y="-118.5" font-family="Cascadia Code NF" font-size="10.00">+</text>
<text text-anchor="start" x="227" y="-118.5" font-family="Cascadia Code NF" font-size="10.00">~ScriptCoverage()</text>
<text text-anchor="start" x="205.5" y="-102.5" font-family="Cascadia Code NF" font-size="10.00">+</text>
<text text-anchor="start" x="227" y="-102.5" font-family="Cascadia Code NF" font-size="10.00">getScriptId()</text>
<text text-anchor="start" x="205.5" y="-86.5" font-family="Cascadia Code NF" font-size="10.00">+</text>
<text text-anchor="start" x="227" y="-86.5" font-family="Cascadia Code NF" font-size="10.00">setScriptId()</text>
<text text-anchor="start" x="205.5" y="-70.5" font-family="Cascadia Code NF" font-size="10.00">+</text>
<text text-anchor="start" x="227" y="-70.5" font-family="Cascadia Code NF" font-size="10.00">getUrl()</text>
<text text-anchor="start" x="205.5" y="-54.5" font-family="Cascadia Code NF" font-size="10.00">+</text>
<text text-anchor="start" x="227" y="-54.5" font-family="Cascadia Code NF" font-size="10.00">setUrl()</text>
<text text-anchor="start" x="205.5" y="-38.5" font-family="Cascadia Code NF" font-size="10.00">+</text>
<text text-anchor="start" x="227" y="-38.5" font-family="Cascadia Code NF" font-size="10.00">getFunctions()</text>
<text text-anchor="start" x="205.5" y="-22.5" font-family="Cascadia Code NF" font-size="10.00">+</text>
<text text-anchor="start" x="227" y="-22.5" font-family="Cascadia Code NF" font-size="10.00">setFunctions()</text>
<text text-anchor="start" x="205.5" y="-6.5" font-family="Cascadia Code NF" font-size="10.00">+</text>
<text text-anchor="start" x="227" y="-6.5" font-family="Cascadia Code NF" font-size="10.00">create()</text>
<polygon fill="#666666" stroke="#666666" points="190,-146 190,-146 356,-146 356,-146 190,-146"/>
<polygon fill="#666666" stroke="#666666" points="190,-130 190,-130 356,-130 356,-130 190,-130"/>
<polygon fill="none" stroke="#666666" points="190,0 190,-177 356,-177 356,0 190,0"/>
</a>
</g>
</g>
<!-- Node2 -->
<g id="Node000002" class="node">
<title>Node2</title>
<g id="a_Node000002"><a xlink:title=" ">
<polygon fill="white" stroke="none" points="154,-121 0,-121 0,-56 154,-56 154,-121"/>
<text text-anchor="start" x="5" y="-107.5" font-family="Cascadia Code NF" font-size="10.00">v8_crdtp::ProtocolObject</text>
<text text-anchor="start" x="23" y="-94.75" font-family="Cascadia Code NF" font-size="10.00">&lt; ScriptCoverage &gt;</text>
<text text-anchor="start" x="74" y="-78.5" font-family="Cascadia Code NF" font-size="10.00"> </text>
<text text-anchor="start" x="74" y="-62.5" font-family="Cascadia Code NF" font-size="10.00"> </text>
<polygon fill="#bfbfbf" stroke="#bfbfbf" points="0,-90 0,-90 154,-90 154,-90 0,-90"/>
<polygon fill="#bfbfbf" stroke="#bfbfbf" points="0,-74 0,-74 154,-74 154,-74 0,-74"/>
<polygon fill="none" stroke="#bfbfbf" points="0,-56 0,-121 154,-121 154,-56 0,-56"/>
</a>
</g>
</g>
<!-- Node2&#45;&gt;Node1 -->
<g id="edge1_Node000001_Node000002" class="edge">
<title>Node2&#45;&gt;Node1</title>
<g id="a_edge1_Node000001_Node000002"><a xlink:title=" ">
<path fill="none" stroke="#63b8ff" d="M165.11,-88.5C173.43,-88.5 181.85,-88.5 190.12,-88.5"/>
<polygon fill="none" stroke="#63b8ff" points="165.35,-85 155.35,-88.5 165.35,-92 165.35,-85"/>
</a>
</g>
</g>
</g>
</svg>
</svg>

<style type='text/css'>
<![CDATA[
[data-mouse-over-selected='false'] { opacity: 0.7; }
[data-mouse-over-selected='true']  { opacity: 1.0; }
]]>
</style>
<script type="application/ecmascript"><![CDATA[
document.addEventListener('DOMContentLoaded', (event) => {
  highlightEdges();
  highlightAdjacentNodes();
});
]]></script>
</svg>
