<?xml version="1.0" encoding="UTF-8" standalone="no"?>
<!DOCTYPE svg PUBLIC "-//W3C//DTD SVG 1.1//EN"
 "http://www.w3.org/Graphics/SVG/1.1/DTD/svg11.dtd">
<!-- Generated by graphviz version 11.0.0 (20240428.1522)
 -->
<!-- Title: v8::internal::JSRawJson Pages: 1 -->
<svg width="460pt" height="201pt"
 viewBox="0.00 0.00 460.00 201.00" xmlns="http://www.w3.org/2000/svg" xmlns:xlink="http://www.w3.org/1999/xlink">
<g id="graph0" class="graph" transform="scale(1 1) rotate(0) translate(4 197)">
<title>v8::internal::JSRawJson</title>
<!-- Node1 -->
<g id="Node000001" class="node">
<title>Node1</title>
<g id="a_Node000001"><a xlink:title=" ">
<polygon fill="#999999" stroke="none" points="452,-130.5 304,-130.5 304,-62.5 452,-62.5 452,-130.5"/>
<text text-anchor="start" x="309" y="-117" font-family="Cascadia Code NF" font-size="10.00">v8::internal::JSRawJson</text>
<text text-anchor="start" x="310.5" y="-101" font-family="Cascadia Code NF" font-size="10.00">+</text>
<text text-anchor="start" x="323" y="-101" font-family="Cascadia Code NF" font-size="10.00">kRawJsonInitialIndex</text>
<text text-anchor="start" x="310.5" y="-85" font-family="Cascadia Code NF" font-size="10.00">+</text>
<text text-anchor="start" x="323" y="-85" font-family="Cascadia Code NF" font-size="10.00">HasInitialLayout()</text>
<text text-anchor="start" x="310.5" y="-69" font-family="Cascadia Code NF" font-size="10.00">+</text>
<text text-anchor="start" x="323" y="-69" font-family="Cascadia Code NF" font-size="10.00">Create()</text>
<polygon fill="#666666" stroke="#666666" points="304,-112.5 304,-112.5 452,-112.5 452,-112.5 304,-112.5"/>
<polygon fill="#666666" stroke="#666666" points="304,-96.5 304,-96.5 321,-96.5 321,-96.5 304,-96.5"/>
<polygon fill="#666666" stroke="#666666" points="321,-96.5 321,-96.5 452,-96.5 452,-96.5 321,-96.5"/>
<polygon fill="none" stroke="#666666" points="304,-62.5 304,-130.5 452,-130.5 452,-62.5 304,-62.5"/>
</a>
</g>
</g>
<!-- Node2 -->
<g id="Node000002" class="node">
<title>Node2</title>
<g id="a_Node000002"><a xlink:href="../../d3/dd9/classTorqueGeneratedJSRawJson.html" target="_top" xlink:title=" ">
<polygon fill="white" stroke="none" points="268,-193 94,-193 94,0 268,0 268,-193"/>
<text text-anchor="start" x="109" y="-179.5" font-family="Cascadia Code NF" font-size="10.00">TorqueGeneratedJSRawJson</text>
<text text-anchor="start" x="112" y="-166.75" font-family="Cascadia Code NF" font-size="10.00">&lt; JSRawJson, JSObject &gt;</text>
<text text-anchor="start" x="98" y="-150.5" font-family="Cascadia Code NF" font-size="10.00">+</text>
<text text-anchor="start" x="108" y="-150.5" font-family="Cascadia Code NF" font-size="10.00">kStartOfWeakFieldsOffset</text>
<text text-anchor="start" x="98" y="-134.5" font-family="Cascadia Code NF" font-size="10.00">+</text>
<text text-anchor="start" x="108" y="-134.5" font-family="Cascadia Code NF" font-size="10.00">kEndOfWeakFieldsOffset</text>
<text text-anchor="start" x="98" y="-118.5" font-family="Cascadia Code NF" font-size="10.00">+</text>
<text text-anchor="start" x="108" y="-118.5" font-family="Cascadia Code NF" font-size="10.00">kStartOfStrongFieldsOffset</text>
<text text-anchor="start" x="98" y="-102.5" font-family="Cascadia Code NF" font-size="10.00">+</text>
<text text-anchor="start" x="108" y="-102.5" font-family="Cascadia Code NF" font-size="10.00">kEndOfStrongFieldsOffset</text>
<text text-anchor="start" x="98" y="-86.5" font-family="Cascadia Code NF" font-size="10.00">+</text>
<text text-anchor="start" x="108" y="-86.5" font-family="Cascadia Code NF" font-size="10.00">kHeaderSize</text>
<text text-anchor="start" x="98" y="-70.5" font-family="Cascadia Code NF" font-size="10.00">+</text>
<text text-anchor="start" x="108" y="-70.5" font-family="Cascadia Code NF" font-size="10.00">TorqueGeneratedJSRawJson()</text>
<text text-anchor="start" x="98" y="-54.5" font-family="Cascadia Code NF" font-size="10.00">+</text>
<text text-anchor="start" x="108" y="-54.5" font-family="Cascadia Code NF" font-size="10.00">cast()</text>
<text text-anchor="start" x="98" y="-38.5" font-family="Cascadia Code NF" font-size="10.00">+</text>
<text text-anchor="start" x="108" y="-38.5" font-family="Cascadia Code NF" font-size="10.00">unchecked_cast()</text>
<text text-anchor="start" x="98" y="-22.5" font-family="Cascadia Code NF" font-size="10.00">#</text>
<text text-anchor="start" x="108" y="-22.5" font-family="Cascadia Code NF" font-size="10.00">TorqueGeneratedJSRawJson()</text>
<text text-anchor="start" x="98" y="-6.5" font-family="Cascadia Code NF" font-size="10.00">#</text>
<text text-anchor="start" x="108" y="-6.5" font-family="Cascadia Code NF" font-size="10.00">TorqueGeneratedJSRawJson()</text>
<polygon fill="#bfbfbf" stroke="#bfbfbf" points="94,-162 94,-162 268,-162 268,-162 94,-162"/>
<polygon fill="#bfbfbf" stroke="#bfbfbf" points="94,-82 94,-82 106,-82 106,-82 94,-82"/>
<polygon fill="#bfbfbf" stroke="#bfbfbf" points="106,-82 106,-82 268,-82 268,-82 106,-82"/>
<polygon fill="none" stroke="#bfbfbf" points="94,0 94,-193 268,-193 268,0 94,0"/>
</a>
</g>
</g>
<!-- Node2&#45;&gt;Node1 -->
<g id="edge1_Node000001_Node000002" class="edge">
<title>Node2&#45;&gt;Node1</title>
<g id="a_edge1_Node000001_Node000002"><a xlink:title=" ">
<path fill="none" stroke="#63b8ff" d="M279.26,-96.5C287.68,-96.5 296.09,-96.5 304.26,-96.5"/>
<polygon fill="none" stroke="#63b8ff" points="279.33,-93 269.33,-96.5 279.33,-100 279.33,-93"/>
</a>
</g>
</g>
<!-- Node3 -->
<g id="Node000003" class="node">
<title>Node3</title>
<g id="a_Node000003"><a xlink:title=" ">
<polygon fill="white" stroke="none" points="58,-122.5 0,-122.5 0,-70.5 58,-70.5 58,-122.5"/>
<text text-anchor="start" x="5" y="-109" font-family="Cascadia Code NF" font-size="10.00">JSObject</text>
<text text-anchor="start" x="26" y="-93" font-family="Cascadia Code NF" font-size="10.00"> </text>
<text text-anchor="start" x="26" y="-77" font-family="Cascadia Code NF" font-size="10.00"> </text>
<polygon fill="#bfbfbf" stroke="#bfbfbf" points="0,-104.5 0,-104.5 58,-104.5 58,-104.5 0,-104.5"/>
<polygon fill="#bfbfbf" stroke="#bfbfbf" points="0,-88.5 0,-88.5 58,-88.5 58,-88.5 0,-88.5"/>
<polygon fill="none" stroke="#bfbfbf" points="0,-70.5 0,-122.5 58,-122.5 58,-70.5 0,-70.5"/>
</a>
</g>
</g>
<!-- Node3&#45;&gt;Node2 -->
<g id="edge2_Node000002_Node000003" class="edge">
<title>Node3&#45;&gt;Node2</title>
<g id="a_edge2_Node000002_Node000003"><a xlink:title=" ">
<path fill="none" stroke="#63b8ff" d="M69.19,-96.5C77.04,-96.5 85.57,-96.5 94.3,-96.5"/>
<polygon fill="none" stroke="#63b8ff" points="69.38,-93 59.38,-96.5 69.38,-100 69.38,-93"/>
</a>
</g>
</g>
</g>
</svg>
