<?xml version="1.0" encoding="UTF-8" standalone="no"?>
<!DOCTYPE svg PUBLIC "-//W3C//DTD SVG 1.1//EN"
 "http://www.w3.org/Graphics/SVG/1.1/DTD/svg11.dtd">
<!-- Generated by graphviz version 11.0.0 (20240428.1522)
 -->
<!-- Title: Store_FastSmiElements_0Descriptor Pages: 1 -->
<svg width="412pt" height="73pt"
 viewBox="0.00 0.00 412.00 73.00" xmlns="http://www.w3.org/2000/svg" xmlns:xlink="http://www.w3.org/1999/xlink">

<svg id="main" version="1.1" xmlns="http://www.w3.org/2000/svg" xmlns:xlink="http://www.w3.org/1999/xlink" xml:space="preserve" onload="init(evt)">
<style type="text/css"><![CDATA[
.node, .edge {opacity: 0.7;}
.node.selected, .edge.selected {opacity: 1;}
.edge:hover path { stroke: red; }
.edge:hover polygon { stroke: red; fill: red; }
svg#main { background-color: #111; }
]]></style>
<script type="application/ecmascript" xlink:href="../../svg.min.js"/>
<svg id="graph" class="graph">
<g id="graph0" class="graph" transform="scale(1 1) rotate(0) translate(4 69)">
<title>Store_FastSmiElements_0Descriptor</title>
<!-- Node1 -->
<g id="Node000001" class="node">
<title>Node1</title>
<g id="a_Node000001"><a xlink:title=" ">
<polygon fill="#999999" stroke="none" points="404,-65 268,-65 268,0 404,0 404,-65"/>
<text text-anchor="start" x="273" y="-51.5" font-family="Cascadia Code NF" font-size="10.00">Store_FastSmiElements</text>
<text text-anchor="start" x="300" y="-38.75" font-family="Cascadia Code NF" font-size="10.00">_0Descriptor</text>
<text text-anchor="start" x="333" y="-22.5" font-family="Cascadia Code NF" font-size="10.00"> </text>
<text text-anchor="start" x="333" y="-6.5" font-family="Cascadia Code NF" font-size="10.00"> </text>
<polygon fill="#666666" stroke="#666666" points="268,-34 268,-34 404,-34 404,-34 268,-34"/>
<polygon fill="#666666" stroke="#666666" points="268,-18 268,-18 404,-18 404,-18 268,-18"/>
<polygon fill="none" stroke="#666666" points="268,0 268,-65 404,-65 404,0 268,0"/>
</a>
</g>
</g>
<!-- Node2 -->
<g id="Node000002" class="node">
<title>Node2</title>
<g id="a_Node000002"><a xlink:href="../../d8/db7/classStaticCallInterfaceDescriptor.html" target="_top" xlink:title=" ">
<polygon fill="white" stroke="none" points="232,-65 0,-65 0,0 232,0 232,-65"/>
<text text-anchor="start" x="5" y="-51.5" font-family="Cascadia Code NF" font-size="10.00">StaticCallInterfaceDescriptor</text>
<text text-anchor="start" x="5" y="-38.75" font-family="Cascadia Code NF" font-size="10.00">&lt; Store_FastSmiElements_0Descriptor &gt;</text>
<text text-anchor="start" x="113" y="-22.5" font-family="Cascadia Code NF" font-size="10.00"> </text>
<text text-anchor="start" x="113" y="-6.5" font-family="Cascadia Code NF" font-size="10.00"> </text>
<polygon fill="#bfbfbf" stroke="#bfbfbf" points="0,-34 0,-34 232,-34 232,-34 0,-34"/>
<polygon fill="#bfbfbf" stroke="#bfbfbf" points="0,-18 0,-18 232,-18 232,-18 0,-18"/>
<polygon fill="none" stroke="#bfbfbf" points="0,0 0,-65 232,-65 232,0 0,0"/>
</a>
</g>
</g>
<!-- Node2&#45;&gt;Node1 -->
<g id="edge1_Node000001_Node000002" class="edge">
<title>Node2&#45;&gt;Node1</title>
<g id="a_edge1_Node000001_Node000002"><a xlink:title=" ">
<path fill="none" stroke="#63b8ff" d="M243.04,-32.5C251.59,-32.5 259.99,-32.5 268.04,-32.5"/>
<polygon fill="none" stroke="#63b8ff" points="243.26,-29 233.26,-32.5 243.26,-36 243.26,-29"/>
</a>
</g>
</g>
</g>
</svg>
</svg>

<style type='text/css'>
<![CDATA[
[data-mouse-over-selected='false'] { opacity: 0.7; }
[data-mouse-over-selected='true']  { opacity: 1.0; }
]]>
</style>
<script type="application/ecmascript"><![CDATA[
document.addEventListener('DOMContentLoaded', (event) => {
  highlightEdges();
  highlightAdjacentNodes();
});
]]></script>
</svg>
