<?xml version="1.0" encoding="UTF-8" standalone="no"?>
<!DOCTYPE svg PUBLIC "-//W3C//DTD SVG 1.1//EN"
 "http://www.w3.org/Graphics/SVG/1.1/DTD/svg11.dtd">
<!-- Generated by graphviz version 11.0.0 (20240428.1522)
 -->
<!-- Title: v8::internal::ExpressionSourceRanges Pages: 1 -->
<svg width="568pt" height="121pt"
 viewBox="0.00 0.00 568.00 121.00" xmlns="http://www.w3.org/2000/svg" xmlns:xlink="http://www.w3.org/1999/xlink">
<g id="graph0" class="graph" transform="scale(1 1) rotate(0) translate(4 117)">
<title>v8::internal::ExpressionSourceRanges</title>
<!-- Node1 -->
<g id="Node000001" class="node">
<title>Node1</title>
<g id="a_Node000001"><a xlink:title=" ">
<polygon fill="#999999" stroke="none" points="560,-105 398,-105 398,-8 560,-8 560,-105"/>
<text text-anchor="start" x="407" y="-91.5" font-family="Cascadia Code NF" font-size="10.00">v8::internal::Expression</text>
<text text-anchor="start" x="443" y="-78.75" font-family="Cascadia Code NF" font-size="10.00">SourceRanges</text>
<text text-anchor="start" x="476" y="-62.5" font-family="Cascadia Code NF" font-size="10.00"> </text>
<text text-anchor="start" x="402" y="-46.5" font-family="Cascadia Code NF" font-size="10.00">+</text>
<text text-anchor="start" x="412" y="-46.5" font-family="Cascadia Code NF" font-size="10.00">ExpressionSourceRanges()</text>
<text text-anchor="start" x="402" y="-30.5" font-family="Cascadia Code NF" font-size="10.00">+</text>
<text text-anchor="start" x="412" y="-30.5" font-family="Cascadia Code NF" font-size="10.00">GetRange()</text>
<text text-anchor="start" x="402" y="-14.5" font-family="Cascadia Code NF" font-size="10.00">+</text>
<text text-anchor="start" x="412" y="-14.5" font-family="Cascadia Code NF" font-size="10.00">HasRange()</text>
<polygon fill="#666666" stroke="#666666" points="398,-74 398,-74 560,-74 560,-74 398,-74"/>
<polygon fill="#666666" stroke="#666666" points="398,-58 398,-58 560,-58 560,-58 398,-58"/>
<polygon fill="none" stroke="#666666" points="398,-8 398,-105 560,-105 560,-8 398,-8"/>
</a>
</g>
</g>
<!-- Node2 -->
<g id="Node000002" class="node">
<title>Node2</title>
<g id="a_Node000002"><a xlink:href="../../de/d78/classv8_1_1internal_1_1AstNodeSourceRanges.html" target="_top" xlink:title=" ">
<polygon fill="white" stroke="none" points="362,-113 190,-113 190,0 362,0 362,-113"/>
<text text-anchor="start" x="195" y="-99.5" font-family="Cascadia Code NF" font-size="10.00">v8::internal::AstNodeSource</text>
<text text-anchor="start" x="258" y="-86.75" font-family="Cascadia Code NF" font-size="10.00">Ranges</text>
<text text-anchor="start" x="273" y="-70.5" font-family="Cascadia Code NF" font-size="10.00"> </text>
<text text-anchor="start" x="195" y="-54.5" font-family="Cascadia Code NF" font-size="10.00">+</text>
<text text-anchor="start" x="206" y="-54.5" font-family="Cascadia Code NF" font-size="10.00">~AstNodeSourceRanges()</text>
<text text-anchor="start" x="195" y="-38.5" font-family="Cascadia Code NF" font-size="10.00">+</text>
<text text-anchor="start" x="206" y="-38.5" font-family="Cascadia Code NF" font-size="10.00">GetRange()</text>
<text text-anchor="start" x="195" y="-22.5" font-family="Cascadia Code NF" font-size="10.00">+</text>
<text text-anchor="start" x="206" y="-22.5" font-family="Cascadia Code NF" font-size="10.00">HasRange()</text>
<text text-anchor="start" x="195" y="-6.5" font-family="Cascadia Code NF" font-size="10.00">+</text>
<text text-anchor="start" x="206" y="-6.5" font-family="Cascadia Code NF" font-size="10.00">RemoveContinuationRange()</text>
<polygon fill="#bfbfbf" stroke="#bfbfbf" points="190,-82 190,-82 362,-82 362,-82 190,-82"/>
<polygon fill="#bfbfbf" stroke="#bfbfbf" points="190,-66 190,-66 362,-66 362,-66 190,-66"/>
<polygon fill="none" stroke="#bfbfbf" points="190,0 190,-113 362,-113 362,0 190,0"/>
</a>
</g>
</g>
<!-- Node2&#45;&gt;Node1 -->
<g id="edge1_Node000001_Node000002" class="edge">
<title>Node2&#45;&gt;Node1</title>
<g id="a_edge1_Node000001_Node000002"><a xlink:title=" ">
<path fill="none" stroke="#63b8ff" d="M373.27,-56.5C381.6,-56.5 389.97,-56.5 398.15,-56.5"/>
<polygon fill="none" stroke="#63b8ff" points="373.46,-53 363.46,-56.5 373.46,-60 373.46,-53"/>
</a>
</g>
</g>
<!-- Node3 -->
<g id="Node000003" class="node">
<title>Node3</title>
<g id="a_Node000003"><a xlink:href="../../dc/dca/classv8_1_1internal_1_1ZoneObject.html" target="_top" xlink:title=" ">
<polygon fill="white" stroke="none" points="154,-106.5 0,-106.5 0,-6.5 154,-6.5 154,-106.5"/>
<text text-anchor="start" x="5" y="-93" font-family="Cascadia Code NF" font-size="10.00">v8::internal::ZoneObject</text>
<text text-anchor="start" x="74" y="-77" font-family="Cascadia Code NF" font-size="10.00"> </text>
<text text-anchor="start" x="12.5" y="-61" font-family="Cascadia Code NF" font-size="10.00">+</text>
<text text-anchor="start" x="31" y="-61" font-family="Cascadia Code NF" font-size="10.00">operator new()</text>
<text text-anchor="start" x="12.5" y="-45" font-family="Cascadia Code NF" font-size="10.00">+</text>
<text text-anchor="start" x="31" y="-45" font-family="Cascadia Code NF" font-size="10.00">operator new()</text>
<text text-anchor="start" x="12.5" y="-29" font-family="Cascadia Code NF" font-size="10.00">+</text>
<text text-anchor="start" x="31" y="-29" font-family="Cascadia Code NF" font-size="10.00">operator delete()</text>
<text text-anchor="start" x="12.5" y="-13" font-family="Cascadia Code NF" font-size="10.00">+</text>
<text text-anchor="start" x="31" y="-13" font-family="Cascadia Code NF" font-size="10.00">operator delete()</text>
<polygon fill="#bfbfbf" stroke="#bfbfbf" points="0,-88.5 0,-88.5 154,-88.5 154,-88.5 0,-88.5"/>
<polygon fill="#bfbfbf" stroke="#bfbfbf" points="0,-72.5 0,-72.5 154,-72.5 154,-72.5 0,-72.5"/>
<polygon fill="none" stroke="#bfbfbf" points="0,-6.5 0,-106.5 154,-106.5 154,-6.5 0,-6.5"/>
</a>
</g>
</g>
<!-- Node3&#45;&gt;Node2 -->
<g id="edge2_Node000002_Node000003" class="edge">
<title>Node3&#45;&gt;Node2</title>
<g id="a_edge2_Node000002_Node000003"><a xlink:title=" ">
<path fill="none" stroke="#63b8ff" d="M165.18,-56.5C173.52,-56.5 181.98,-56.5 190.3,-56.5"/>
<polygon fill="none" stroke="#63b8ff" points="165.4,-53 155.4,-56.5 165.4,-60 165.4,-53"/>
</a>
</g>
</g>
</g>
</svg>
