<?xml version="1.0" encoding="UTF-8" standalone="no"?>
<!DOCTYPE svg PUBLIC "-//W3C//DTD SVG 1.1//EN"
 "http://www.w3.org/Graphics/SVG/1.1/DTD/svg11.dtd">
<!-- Generated by graphviz version 11.0.0 (20240428.1522)
 -->
<!-- Title: v8::internal::debug_helper_internal::TqWasmJSFunctionData Pages: 1 -->
<!--zoomable 265 -->

<svg id="main" version="1.1" xmlns="http://www.w3.org/2000/svg" xmlns:xlink="http://www.w3.org/1999/xlink" xml:space="preserve" onload="init(evt)">
<style type="text/css"><![CDATA[
.node, .edge {opacity: 0.7;}
.node.selected, .edge.selected {opacity: 1;}
.edge:hover path { stroke: red; }
.edge:hover polygon { stroke: red; fill: red; }
svg#main { background-color: #111; }
]]></style>

<defs>
  <circle id="rim" cx="0" cy="0" r="7"/>
  <circle id="rim2" cx="0" cy="0" r="3.5"/>
  <g id="zoomPlus">
    <use xlink:href="#rim" fill="#404040"><set attributeName="fill" to="#808080" begin="zoomplus.mouseover" end="zoomplus.mouseout"/></use>
    <path d="M-4,0h8M0,-4v8" fill="none" stroke="white" stroke-width="1.5" pointer-events="none"/>
  </g>
  <g id="zoomMin">
    <use xlink:href="#rim" fill="#404040"><set attributeName="fill" to="#808080" begin="zoomminus.mouseover" end="zoomminus.mouseout"/></use>
    <path d="M-4,0h8" fill="none" stroke="white" stroke-width="1.5" pointer-events="none"/>
  </g>
  <g id="arrowUp" transform="translate(30 24)">
    <use xlink:href="#rim"/>
    <path pointer-events="none" fill="none" stroke="white" stroke-width="1.5" d="M0,-3.0v7 M-2.5,-0.5L0,-3.0L2.5,-0.5"/>
  </g>
  <g id="arrowRight" transform="rotate(90) translate(36 -43)">
    <use xlink:href="#rim"/>
    <path pointer-events="none" fill="none" stroke="white" stroke-width="1.5" d="M0,-3.0v7 M-2.5,-0.5L0,-3.0L2.5,-0.5"/>
  </g>
  <g id="arrowDown" transform="rotate(180) translate(-30 -48)">
    <use xlink:href="#rim"/>
    <path pointer-events="none" fill="none" stroke="white" stroke-width="1.5" d="M0,-3.0v7 M-2.5,-0.5L0,-3.0L2.5,-0.5"/>
  </g>
  <g id="arrowLeft" transform="rotate(270) translate(-36 17)">
    <use xlink:href="#rim"/>
    <path pointer-events="none" fill="none" stroke="white" stroke-width="1.5" d="M0,-3.0v7 M-2.5,-0.5L0,-3.0L2.5,-0.5"/>
  </g>
  <g id="resetDef">
    <use xlink:href="#rim2" fill="#404040"><set attributeName="fill" to="#808080" begin="reset.mouseover" end="reset.mouseout"/></use>
  </g>
</defs>
<script type="application/ecmascript">
var viewWidth = 1276;
var viewHeight = 265;
var sectionId = 'dynsection-1';
</script>
<script type="application/ecmascript" xlink:href="../../svg.min.js"/>
<svg id="graph" class="graph">
<g id="viewport">
<title>v8::internal::debug_helper_internal::TqWasmJSFunctionData</title>
<!-- Node1 -->
<g id="Node000001" class="node">
<title>Node1</title>
<g id="a_Node000001"><a xlink:title=" ">
<polygon fill="#999999" stroke="none" points="1268,-209 1030,-209 1030,-48 1268,-48 1268,-209"/>
<text text-anchor="start" x="1035" y="-195.5" font-family="Cascadia Code NF" font-size="10.00">v8::internal::debug</text>
<text text-anchor="start" x="1035" y="-182.75" font-family="Cascadia Code NF" font-size="10.00">_helper_internal::TqWasmJSFunctionData</text>
<text text-anchor="start" x="1146" y="-166.5" font-family="Cascadia Code NF" font-size="10.00"> </text>
<text text-anchor="start" x="1042.5" y="-150.5" font-family="Cascadia Code NF" font-size="10.00">+</text>
<text text-anchor="start" x="1061" y="-150.5" font-family="Cascadia Code NF" font-size="10.00">TqWasmJSFunctionData()</text>
<text text-anchor="start" x="1042.5" y="-134.5" font-family="Cascadia Code NF" font-size="10.00">+</text>
<text text-anchor="start" x="1061" y="-134.5" font-family="Cascadia Code NF" font-size="10.00">GetProperties()</text>
<text text-anchor="start" x="1042.5" y="-118.5" font-family="Cascadia Code NF" font-size="10.00">+</text>
<text text-anchor="start" x="1061" y="-118.5" font-family="Cascadia Code NF" font-size="10.00">GetName()</text>
<text text-anchor="start" x="1042.5" y="-102.5" font-family="Cascadia Code NF" font-size="10.00">+</text>
<text text-anchor="start" x="1061" y="-102.5" font-family="Cascadia Code NF" font-size="10.00">Visit()</text>
<text text-anchor="start" x="1042.5" y="-86.5" font-family="Cascadia Code NF" font-size="10.00">+</text>
<text text-anchor="start" x="1061" y="-86.5" font-family="Cascadia Code NF" font-size="10.00">IsSuperclassOf()</text>
<text text-anchor="start" x="1042.5" y="-70.5" font-family="Cascadia Code NF" font-size="10.00">+</text>
<text text-anchor="start" x="1061" y="-70.5" font-family="Cascadia Code NF" font-size="10.00">GetSerializedSignatureAddress()</text>
<text text-anchor="start" x="1042.5" y="-54.5" font-family="Cascadia Code NF" font-size="10.00">+</text>
<text text-anchor="start" x="1061" y="-54.5" font-family="Cascadia Code NF" font-size="10.00">GetSerializedSignatureValue()</text>
<polygon fill="#666666" stroke="#666666" points="1030,-178 1030,-178 1268,-178 1268,-178 1030,-178"/>
<polygon fill="#666666" stroke="#666666" points="1030,-162 1030,-162 1268,-162 1268,-162 1030,-162"/>
<polygon fill="none" stroke="#666666" points="1030,-48 1030,-209 1268,-209 1268,-48 1030,-48"/>
</a>
</g>
</g>
<!-- Node2 -->
<g id="Node000002" class="node">
<title>Node2</title>
<g id="a_Node000002"><a xlink:href="../../d7/dc8/classv8_1_1internal_1_1debug__helper__internal_1_1TqWasmFunctionData.html" target="_top" xlink:title=" ">
<polygon fill="white" stroke="none" points="994,-257 768,-257 768,0 994,0 994,-257"/>
<text text-anchor="start" x="773" y="-243.5" font-family="Cascadia Code NF" font-size="10.00">v8::internal::debug</text>
<text text-anchor="start" x="773" y="-230.75" font-family="Cascadia Code NF" font-size="10.00">_helper_internal::TqWasmFunctionData</text>
<text text-anchor="start" x="878" y="-214.5" font-family="Cascadia Code NF" font-size="10.00"> </text>
<text text-anchor="start" x="780.5" y="-198.5" font-family="Cascadia Code NF" font-size="10.00">+</text>
<text text-anchor="start" x="799" y="-198.5" font-family="Cascadia Code NF" font-size="10.00">TqWasmFunctionData()</text>
<text text-anchor="start" x="780.5" y="-182.5" font-family="Cascadia Code NF" font-size="10.00">+</text>
<text text-anchor="start" x="799" y="-182.5" font-family="Cascadia Code NF" font-size="10.00">GetProperties()</text>
<text text-anchor="start" x="780.5" y="-166.5" font-family="Cascadia Code NF" font-size="10.00">+</text>
<text text-anchor="start" x="799" y="-166.5" font-family="Cascadia Code NF" font-size="10.00">GetName()</text>
<text text-anchor="start" x="780.5" y="-150.5" font-family="Cascadia Code NF" font-size="10.00">+</text>
<text text-anchor="start" x="799" y="-150.5" font-family="Cascadia Code NF" font-size="10.00">Visit()</text>
<text text-anchor="start" x="780.5" y="-134.5" font-family="Cascadia Code NF" font-size="10.00">+</text>
<text text-anchor="start" x="799" y="-134.5" font-family="Cascadia Code NF" font-size="10.00">IsSuperclassOf()</text>
<text text-anchor="start" x="780.5" y="-118.5" font-family="Cascadia Code NF" font-size="10.00">+</text>
<text text-anchor="start" x="799" y="-118.5" font-family="Cascadia Code NF" font-size="10.00">GetWrapperCodeAddress()</text>
<text text-anchor="start" x="780.5" y="-102.5" font-family="Cascadia Code NF" font-size="10.00">+</text>
<text text-anchor="start" x="799" y="-102.5" font-family="Cascadia Code NF" font-size="10.00">GetWrapperCodeValue()</text>
<text text-anchor="start" x="780.5" y="-86.5" font-family="Cascadia Code NF" font-size="10.00">+</text>
<text text-anchor="start" x="799" y="-86.5" font-family="Cascadia Code NF" font-size="10.00">GetFuncRefAddress()</text>
<text text-anchor="start" x="780.5" y="-70.5" font-family="Cascadia Code NF" font-size="10.00">+</text>
<text text-anchor="start" x="799" y="-70.5" font-family="Cascadia Code NF" font-size="10.00">GetFuncRefValue()</text>
<text text-anchor="start" x="780.5" y="-54.5" font-family="Cascadia Code NF" font-size="10.00">+</text>
<text text-anchor="start" x="799" y="-54.5" font-family="Cascadia Code NF" font-size="10.00">GetJsPromiseFlagsAddress()</text>
<text text-anchor="start" x="780.5" y="-38.5" font-family="Cascadia Code NF" font-size="10.00">+</text>
<text text-anchor="start" x="799" y="-38.5" font-family="Cascadia Code NF" font-size="10.00">GetJsPromiseFlagsValue()</text>
<text text-anchor="start" x="780.5" y="-22.5" font-family="Cascadia Code NF" font-size="10.00">+</text>
<text text-anchor="start" x="799" y="-22.5" font-family="Cascadia Code NF" font-size="10.00">GetProtectedInternalAddress()</text>
<text text-anchor="start" x="780.5" y="-6.5" font-family="Cascadia Code NF" font-size="10.00">+</text>
<text text-anchor="start" x="799" y="-6.5" font-family="Cascadia Code NF" font-size="10.00">GetProtectedInternalValue()</text>
<polygon fill="#bfbfbf" stroke="#bfbfbf" points="768,-226 768,-226 994,-226 994,-226 768,-226"/>
<polygon fill="#bfbfbf" stroke="#bfbfbf" points="768,-210 768,-210 994,-210 994,-210 768,-210"/>
<polygon fill="none" stroke="#bfbfbf" points="768,0 768,-257 994,-257 994,0 768,0"/>
</a>
</g>
</g>
<!-- Node2&#45;&gt;Node1 -->
<g id="edge1_Node000001_Node000002" class="edge">
<title>Node2&#45;&gt;Node1</title>
<g id="a_edge1_Node000001_Node000002"><a xlink:title=" ">
<path fill="none" stroke="#63b8ff" d="M1005.04,-128.5C1013.42,-128.5 1021.86,-128.5 1030.22,-128.5"/>
<polygon fill="none" stroke="#63b8ff" points="1005.17,-125 995.17,-128.5 1005.17,-132 1005.17,-125"/>
</a>
</g>
</g>
<!-- Node3 -->
<g id="Node000003" class="node">
<title>Node3</title>
<g id="a_Node000003"><a xlink:href="../../df/d8d/classv8_1_1internal_1_1debug__helper__internal_1_1TqExposedTrustedObject.html" target="_top" xlink:title=" ">
<polygon fill="white" stroke="none" points="732,-215.5 528,-215.5 528,-41.5 732,-41.5 732,-215.5"/>
<text text-anchor="start" x="549" y="-202" font-family="Cascadia Code NF" font-size="10.00">v8::internal::debug</text>
<text text-anchor="start" x="549" y="-189.25" font-family="Cascadia Code NF" font-size="10.00">_helper_internal::TqExposed</text>
<text text-anchor="start" x="591" y="-176.5" font-family="Cascadia Code NF" font-size="10.00">TrustedObject</text>
<text text-anchor="start" x="627" y="-160" font-family="Cascadia Code NF" font-size="10.00"> </text>
<text text-anchor="start" x="532" y="-144" font-family="Cascadia Code NF" font-size="10.00">+</text>
<text text-anchor="start" x="542" y="-144" font-family="Cascadia Code NF" font-size="10.00">TqExposedTrustedObject()</text>
<text text-anchor="start" x="532" y="-128" font-family="Cascadia Code NF" font-size="10.00">+</text>
<text text-anchor="start" x="542" y="-128" font-family="Cascadia Code NF" font-size="10.00">GetProperties()</text>
<text text-anchor="start" x="532" y="-112" font-family="Cascadia Code NF" font-size="10.00">+</text>
<text text-anchor="start" x="542" y="-112" font-family="Cascadia Code NF" font-size="10.00">GetName()</text>
<text text-anchor="start" x="532" y="-96" font-family="Cascadia Code NF" font-size="10.00">+</text>
<text text-anchor="start" x="542" y="-96" font-family="Cascadia Code NF" font-size="10.00">Visit()</text>
<text text-anchor="start" x="532" y="-80" font-family="Cascadia Code NF" font-size="10.00">+</text>
<text text-anchor="start" x="542" y="-80" font-family="Cascadia Code NF" font-size="10.00">IsSuperclassOf()</text>
<text text-anchor="start" x="532" y="-64" font-family="Cascadia Code NF" font-size="10.00">+</text>
<text text-anchor="start" x="542" y="-64" font-family="Cascadia Code NF" font-size="10.00">GetSelfIndirectPointerAddress()</text>
<text text-anchor="start" x="532" y="-48" font-family="Cascadia Code NF" font-size="10.00">+</text>
<text text-anchor="start" x="542" y="-48" font-family="Cascadia Code NF" font-size="10.00">GetSelfIndirectPointerValue()</text>
<polygon fill="#bfbfbf" stroke="#bfbfbf" points="528,-171.5 528,-171.5 732,-171.5 732,-171.5 528,-171.5"/>
<polygon fill="#bfbfbf" stroke="#bfbfbf" points="528,-155.5 528,-155.5 732,-155.5 732,-155.5 528,-155.5"/>
<polygon fill="none" stroke="#bfbfbf" points="528,-41.5 528,-215.5 732,-215.5 732,-41.5 528,-41.5"/>
</a>
</g>
</g>
<!-- Node3&#45;&gt;Node2 -->
<g id="edge2_Node000002_Node000003" class="edge">
<title>Node3&#45;&gt;Node2</title>
<g id="a_edge2_Node000002_Node000003"><a xlink:title=" ">
<path fill="none" stroke="#63b8ff" d="M743.24,-128.5C751.59,-128.5 760.01,-128.5 768.35,-128.5"/>
<polygon fill="none" stroke="#63b8ff" points="743.43,-125 733.43,-128.5 743.43,-132 743.43,-125"/>
</a>
</g>
</g>
<!-- Node4 -->
<g id="Node000004" class="node">
<title>Node4</title>
<g id="a_Node000004"><a xlink:href="../../d4/d53/classv8_1_1internal_1_1debug__helper__internal_1_1TqTrustedObject.html" target="_top" xlink:title=" ">
<polygon fill="white" stroke="none" points="492,-199.5 320,-199.5 320,-57.5 492,-57.5 492,-199.5"/>
<text text-anchor="start" x="325" y="-186" font-family="Cascadia Code NF" font-size="10.00">v8::internal::debug</text>
<text text-anchor="start" x="325" y="-173.25" font-family="Cascadia Code NF" font-size="10.00">_helper_internal::TqTrusted</text>
<text text-anchor="start" x="388" y="-160.5" font-family="Cascadia Code NF" font-size="10.00">Object</text>
<text text-anchor="start" x="403" y="-144" font-family="Cascadia Code NF" font-size="10.00"> </text>
<text text-anchor="start" x="337" y="-128" font-family="Cascadia Code NF" font-size="10.00">+</text>
<text text-anchor="start" x="360" y="-128" font-family="Cascadia Code NF" font-size="10.00">TqTrustedObject()</text>
<text text-anchor="start" x="337" y="-112" font-family="Cascadia Code NF" font-size="10.00">+</text>
<text text-anchor="start" x="360" y="-112" font-family="Cascadia Code NF" font-size="10.00">GetProperties()</text>
<text text-anchor="start" x="337" y="-96" font-family="Cascadia Code NF" font-size="10.00">+</text>
<text text-anchor="start" x="360" y="-96" font-family="Cascadia Code NF" font-size="10.00">GetName()</text>
<text text-anchor="start" x="337" y="-80" font-family="Cascadia Code NF" font-size="10.00">+</text>
<text text-anchor="start" x="360" y="-80" font-family="Cascadia Code NF" font-size="10.00">Visit()</text>
<text text-anchor="start" x="337" y="-64" font-family="Cascadia Code NF" font-size="10.00">+</text>
<text text-anchor="start" x="360" y="-64" font-family="Cascadia Code NF" font-size="10.00">IsSuperclassOf()</text>
<polygon fill="#bfbfbf" stroke="#bfbfbf" points="320,-155.5 320,-155.5 492,-155.5 492,-155.5 320,-155.5"/>
<polygon fill="#bfbfbf" stroke="#bfbfbf" points="320,-139.5 320,-139.5 492,-139.5 492,-139.5 320,-139.5"/>
<polygon fill="none" stroke="#bfbfbf" points="320,-57.5 320,-199.5 492,-199.5 492,-57.5 320,-57.5"/>
</a>
</g>
</g>
<!-- Node4&#45;&gt;Node3 -->
<g id="edge3_Node000003_Node000004" class="edge">
<title>Node4&#45;&gt;Node3</title>
<g id="a_edge3_Node000003_Node000004"><a xlink:title=" ">
<path fill="none" stroke="#63b8ff" d="M503.12,-128.5C511.42,-128.5 519.84,-128.5 528.18,-128.5"/>
<polygon fill="none" stroke="#63b8ff" points="503.39,-125 493.39,-128.5 503.39,-132 503.39,-125"/>
</a>
</g>
</g>
<!-- Node5 -->
<g id="Node000005" class="node">
<title>Node5</title>
<g id="a_Node000005"><a xlink:href="../../db/deb/classv8_1_1internal_1_1debug__helper__internal_1_1TqHeapObject.html" target="_top" xlink:title=" ">
<polygon fill="white" stroke="none" points="284,-209 94,-209 94,-48 284,-48 284,-209"/>
<text text-anchor="start" x="99" y="-195.5" font-family="Cascadia Code NF" font-size="10.00">v8::internal::debug</text>
<text text-anchor="start" x="99" y="-182.75" font-family="Cascadia Code NF" font-size="10.00">_helper_internal::TqHeapObject</text>
<text text-anchor="start" x="186" y="-166.5" font-family="Cascadia Code NF" font-size="10.00"> </text>
<text text-anchor="start" x="117" y="-150.5" font-family="Cascadia Code NF" font-size="10.00">+</text>
<text text-anchor="start" x="146" y="-150.5" font-family="Cascadia Code NF" font-size="10.00">TqHeapObject()</text>
<text text-anchor="start" x="117" y="-134.5" font-family="Cascadia Code NF" font-size="10.00">+</text>
<text text-anchor="start" x="146" y="-134.5" font-family="Cascadia Code NF" font-size="10.00">GetProperties()</text>
<text text-anchor="start" x="117" y="-118.5" font-family="Cascadia Code NF" font-size="10.00">+</text>
<text text-anchor="start" x="146" y="-118.5" font-family="Cascadia Code NF" font-size="10.00">GetName()</text>
<text text-anchor="start" x="117" y="-102.5" font-family="Cascadia Code NF" font-size="10.00">+</text>
<text text-anchor="start" x="146" y="-102.5" font-family="Cascadia Code NF" font-size="10.00">Visit()</text>
<text text-anchor="start" x="117" y="-86.5" font-family="Cascadia Code NF" font-size="10.00">+</text>
<text text-anchor="start" x="146" y="-86.5" font-family="Cascadia Code NF" font-size="10.00">IsSuperclassOf()</text>
<text text-anchor="start" x="117" y="-70.5" font-family="Cascadia Code NF" font-size="10.00">+</text>
<text text-anchor="start" x="146" y="-70.5" font-family="Cascadia Code NF" font-size="10.00">GetMapAddress()</text>
<text text-anchor="start" x="117" y="-54.5" font-family="Cascadia Code NF" font-size="10.00">+</text>
<text text-anchor="start" x="146" y="-54.5" font-family="Cascadia Code NF" font-size="10.00">GetMapValue()</text>
<polygon fill="#bfbfbf" stroke="#bfbfbf" points="94,-178 94,-178 284,-178 284,-178 94,-178"/>
<polygon fill="#bfbfbf" stroke="#bfbfbf" points="94,-162 94,-162 284,-162 284,-162 94,-162"/>
<polygon fill="none" stroke="#bfbfbf" points="94,-48 94,-209 284,-209 284,-48 94,-48"/>
</a>
</g>
</g>
<!-- Node5&#45;&gt;Node4 -->
<g id="edge4_Node000004_Node000005" class="edge">
<title>Node5&#45;&gt;Node4</title>
<g id="a_edge4_Node000004_Node000005"><a xlink:title=" ">
<path fill="none" stroke="#63b8ff" d="M295.37,-128.5C303.74,-128.5 312.13,-128.5 320.33,-128.5"/>
<polygon fill="none" stroke="#63b8ff" points="295.5,-125 285.5,-128.5 295.5,-132 295.5,-125"/>
</a>
</g>
</g>
<!-- Node6 -->
<g id="Node000006" class="node">
<title>Node6</title>
<g id="a_Node000006"><a xlink:href="../../dd/d42/classTqObject.html" target="_top" xlink:title=" ">
<polygon fill="white" stroke="none" points="58,-154.5 0,-154.5 0,-102.5 58,-102.5 58,-154.5"/>
<text text-anchor="start" x="5" y="-141" font-family="Cascadia Code NF" font-size="10.00">TqObject</text>
<text text-anchor="start" x="26" y="-125" font-family="Cascadia Code NF" font-size="10.00"> </text>
<text text-anchor="start" x="26" y="-109" font-family="Cascadia Code NF" font-size="10.00"> </text>
<polygon fill="#bfbfbf" stroke="#bfbfbf" points="0,-136.5 0,-136.5 58,-136.5 58,-136.5 0,-136.5"/>
<polygon fill="#bfbfbf" stroke="#bfbfbf" points="0,-120.5 0,-120.5 58,-120.5 58,-120.5 0,-120.5"/>
<polygon fill="none" stroke="#bfbfbf" points="0,-102.5 0,-154.5 58,-154.5 58,-102.5 0,-102.5"/>
</a>
</g>
</g>
<!-- Node6&#45;&gt;Node5 -->
<g id="edge5_Node000005_Node000006" class="edge">
<title>Node6&#45;&gt;Node5</title>
<g id="a_edge5_Node000005_Node000006"><a xlink:title=" ">
<path fill="none" stroke="#63b8ff" d="M69.34,-128.5C77.03,-128.5 85.39,-128.5 94,-128.5"/>
<polygon fill="none" stroke="#63b8ff" points="69.4,-125 59.4,-128.5 69.4,-132 69.4,-125"/>
</a>
</g>
</g>
</g>
</svg>

<g id="navigator" transform="translate(0 0)" fill="#404254">
  <rect fill="#f2f5e9" fill-opacity="0.5" stroke="#606060" stroke-width=".5" x="0" y="0" width="60" height="60"/>
  <use id="zoomplus" xlink:href="#zoomPlus" x="17" y="9" onmousedown="handleZoom(evt,'in')"/>
  <use id="zoomminus" xlink:href="#zoomMin" x="42" y="9" onmousedown="handleZoom(evt,'out')"/>
  <use id="reset" xlink:href="#resetDef" x="30" y="36" onmousedown="handleReset()"/>
   <use id="arrowup" xlink:href="#arrowUp" x="0" y="0" onmousedown="handlePan(0,-1)"/>
  <use id="arrowright" xlink:href="#arrowRight" x="0" y="0" onmousedown="handlePan(1,0)"/>
  <use id="arrowdown" xlink:href="#arrowDown" x="0" y="0" onmousedown="handlePan(0,1)"/>
  <use id="arrowleft" xlink:href="#arrowLeft" x="0" y="0" onmousedown="handlePan(-1,0)"/>
</g>
<svg viewBox="0 0 15 15" width="100%" height="30px" preserveAspectRatio="xMaxYMin meet">
 <g id="arrow_out" transform="scale(0.3 0.3)">
  <a xlink:href="classv8_1_1internal_1_1debug__helper__internal_1_1TqWasmJSFunctionData__coll__graph_org.svg" target="_base">
   <rect id="button" ry="5" rx="5" y="6" x="6" height="38" width="38"
        fill="#f2f5e9" fill-opacity="0.5" stroke="#606060" stroke-width="1.0"/>
   <path id="arrow"
     d="M 11.500037,31.436501 C 11.940474,20.09759 22.043105,11.32322 32.158766,21.979434 L 37.068811,17.246167 C 37.068811,17.246167 37.088388,32 37.088388,32 L 22.160133,31.978069 C 22.160133,31.978069 26.997745,27.140456 26.997745,27.140456 C 18.528582,18.264221 13.291696,25.230495 11.500037,31.436501 z"
     style="fill:#404040;"/>
  </a>
 </g>
</svg>

<style type='text/css'>
<![CDATA[
[data-mouse-over-selected='false'] { opacity: 0.7; }
[data-mouse-over-selected='true']  { opacity: 1.0; }
]]>
</style>
<script type="application/ecmascript"><![CDATA[
document.addEventListener('DOMContentLoaded', (event) => {
  highlightEdges();
  highlightAdjacentNodes();
});
]]></script>
</svg>
