<?xml version="1.0" encoding="UTF-8" standalone="no"?>
<!DOCTYPE svg PUBLIC "-//W3C//DTD SVG 1.1//EN"
 "http://www.w3.org/Graphics/SVG/1.1/DTD/svg11.dtd">
<!-- Generated by graphviz version 11.0.0 (20240428.1522)
 -->
<!-- Title: v8::internal::torque::ls::Response&lt; T &gt; Pages: 1 -->
<svg width="556pt" height="201pt"
 viewBox="0.00 0.00 556.00 201.00" xmlns="http://www.w3.org/2000/svg" xmlns:xlink="http://www.w3.org/1999/xlink">
<g id="graph0" class="graph" transform="scale(1 1) rotate(0) translate(4 197)">
<title>v8::internal::torque::ls::Response&lt; T &gt;</title>
<!-- Node1 -->
<g id="Node000001" class="node">
<title>Node1</title>
<g id="a_Node000001"><a xlink:title=" ">
<polygon fill="#999999" stroke="none" points="548,-137 418,-137 418,-56 548,-56 548,-137"/>
<text text-anchor="start" x="423" y="-123.5" font-family="Cascadia Code NF" font-size="10.00">v8::internal::torque</text>
<text text-anchor="start" x="426" y="-110.75" font-family="Cascadia Code NF" font-size="10.00">::ls::Response&lt; T &gt;</text>
<text text-anchor="start" x="480" y="-94.5" font-family="Cascadia Code NF" font-size="10.00"> </text>
<text text-anchor="start" x="435" y="-78.5" font-family="Cascadia Code NF" font-size="10.00">+</text>
<text text-anchor="start" x="458" y="-78.5" font-family="Cascadia Code NF" font-size="10.00">Response()</text>
<text text-anchor="start" x="435" y="-62.5" font-family="Cascadia Code NF" font-size="10.00">+</text>
<text text-anchor="start" x="458" y="-62.5" font-family="Cascadia Code NF" font-size="10.00">Response()</text>
<polygon fill="#666666" stroke="#666666" points="418,-106 418,-106 548,-106 548,-106 418,-106"/>
<polygon fill="#666666" stroke="#666666" points="418,-90 418,-90 548,-90 548,-90 418,-90"/>
<polygon fill="none" stroke="#666666" points="418,-56 418,-137 548,-137 548,-56 418,-56"/>
</a>
</g>
</g>
<!-- Node2 -->
<g id="Node000002" class="node">
<title>Node2</title>
<g id="a_Node000002"><a xlink:href="../../de/d8f/classv8_1_1internal_1_1torque_1_1ls_1_1Message.html" target="_top" xlink:title=" ">
<polygon fill="white" stroke="none" points="382,-161 252,-161 252,-32 382,-32 382,-161"/>
<text text-anchor="start" x="257" y="-147.5" font-family="Cascadia Code NF" font-size="10.00">v8::internal::torque</text>
<text text-anchor="start" x="278" y="-134.75" font-family="Cascadia Code NF" font-size="10.00">::ls::Message</text>
<text text-anchor="start" x="314" y="-118.5" font-family="Cascadia Code NF" font-size="10.00"> </text>
<text text-anchor="start" x="263" y="-102.5" font-family="Cascadia Code NF" font-size="10.00">+</text>
<text text-anchor="start" x="280" y="-102.5" font-family="Cascadia Code NF" font-size="10.00">Message()</text>
<text text-anchor="start" x="263" y="-86.5" font-family="Cascadia Code NF" font-size="10.00">+</text>
<text text-anchor="start" x="280" y="-86.5" font-family="Cascadia Code NF" font-size="10.00">Message()</text>
<text text-anchor="start" x="263" y="-70.5" font-family="Cascadia Code NF" font-size="10.00">+</text>
<text text-anchor="start" x="280" y="-70.5" font-family="Cascadia Code NF" font-size="10.00">GetJsonValue()</text>
<text text-anchor="start" x="263" y="-54.5" font-family="Cascadia Code NF" font-size="10.00">#</text>
<text text-anchor="start" x="280" y="-54.5" font-family="Cascadia Code NF" font-size="10.00">object()</text>
<text text-anchor="start" x="263" y="-38.5" font-family="Cascadia Code NF" font-size="10.00">#</text>
<text text-anchor="start" x="280" y="-38.5" font-family="Cascadia Code NF" font-size="10.00">object()</text>
<polygon fill="#bfbfbf" stroke="#bfbfbf" points="252,-130 252,-130 382,-130 382,-130 252,-130"/>
<polygon fill="#bfbfbf" stroke="#bfbfbf" points="252,-114 252,-114 382,-114 382,-114 252,-114"/>
<polygon fill="none" stroke="#bfbfbf" points="252,-32 252,-161 382,-161 382,-32 252,-32"/>
</a>
</g>
</g>
<!-- Node2&#45;&gt;Node1 -->
<g id="edge1_Node000001_Node000002" class="edge">
<title>Node2&#45;&gt;Node1</title>
<g id="a_edge1_Node000001_Node000002"><a xlink:title=" ">
<path fill="none" stroke="#63b8ff" d="M393.13,-96.5C401.45,-96.5 409.86,-96.5 418.03,-96.5"/>
<polygon fill="none" stroke="#63b8ff" points="393.39,-93 383.39,-96.5 393.39,-100 393.39,-93"/>
</a>
</g>
</g>
<!-- Node3 -->
<g id="Node000003" class="node">
<title>Node3</title>
<g id="a_Node000003"><a xlink:href="../../de/d67/classv8_1_1internal_1_1torque_1_1ls_1_1BaseJsonAccessor.html" target="_top" xlink:title=" ">
<polygon fill="white" stroke="none" points="216,-193 0,-193 0,0 216,0 216,-193"/>
<text text-anchor="start" x="42" y="-179.5" font-family="Cascadia Code NF" font-size="10.00">v8::internal::torque</text>
<text text-anchor="start" x="42" y="-166.75" font-family="Cascadia Code NF" font-size="10.00">::ls::BaseJsonAccessor</text>
<text text-anchor="start" x="105" y="-150.5" font-family="Cascadia Code NF" font-size="10.00"> </text>
<text text-anchor="start" x="4" y="-134.5" font-family="Cascadia Code NF" font-size="10.00">+</text>
<text text-anchor="start" x="14" y="-134.5" font-family="Cascadia Code NF" font-size="10.00">GetObject()</text>
<text text-anchor="start" x="4" y="-118.5" font-family="Cascadia Code NF" font-size="10.00">+</text>
<text text-anchor="start" x="14" y="-118.5" font-family="Cascadia Code NF" font-size="10.00">HasProperty()</text>
<text text-anchor="start" x="4" y="-102.5" font-family="Cascadia Code NF" font-size="10.00">+</text>
<text text-anchor="start" x="14" y="-102.5" font-family="Cascadia Code NF" font-size="10.00">SetNull()</text>
<text text-anchor="start" x="4" y="-86.5" font-family="Cascadia Code NF" font-size="10.00">+</text>
<text text-anchor="start" x="14" y="-86.5" font-family="Cascadia Code NF" font-size="10.00">IsNull()</text>
<text text-anchor="start" x="4" y="-70.5" font-family="Cascadia Code NF" font-size="10.00">#</text>
<text text-anchor="start" x="14" y="-70.5" font-family="Cascadia Code NF" font-size="10.00">object()</text>
<text text-anchor="start" x="4" y="-54.5" font-family="Cascadia Code NF" font-size="10.00">#</text>
<text text-anchor="start" x="14" y="-54.5" font-family="Cascadia Code NF" font-size="10.00">object()</text>
<text text-anchor="start" x="4" y="-38.5" font-family="Cascadia Code NF" font-size="10.00">#</text>
<text text-anchor="start" x="14" y="-38.5" font-family="Cascadia Code NF" font-size="10.00">GetObjectProperty()</text>
<text text-anchor="start" x="4" y="-22.5" font-family="Cascadia Code NF" font-size="10.00">#</text>
<text text-anchor="start" x="14" y="-22.5" font-family="Cascadia Code NF" font-size="10.00">GetArrayProperty()</text>
<text text-anchor="start" x="4" y="-6.5" font-family="Cascadia Code NF" font-size="10.00">#</text>
<text text-anchor="start" x="14" y="-6.5" font-family="Cascadia Code NF" font-size="10.00">AddObjectElementToArrayProperty()</text>
<polygon fill="#bfbfbf" stroke="#bfbfbf" points="0,-162 0,-162 216,-162 216,-162 0,-162"/>
<polygon fill="#bfbfbf" stroke="#bfbfbf" points="0,-146 0,-146 216,-146 216,-146 0,-146"/>
<polygon fill="none" stroke="#bfbfbf" points="0,0 0,-193 216,-193 216,0 0,0"/>
</a>
</g>
</g>
<!-- Node3&#45;&gt;Node2 -->
<g id="edge2_Node000002_Node000003" class="edge">
<title>Node3&#45;&gt;Node2</title>
<g id="a_edge2_Node000002_Node000003"><a xlink:title=" ">
<path fill="none" stroke="#63b8ff" d="M227.09,-96.5C235.61,-96.5 244,-96.5 252.01,-96.5"/>
<polygon fill="none" stroke="#63b8ff" points="227.35,-93 217.35,-96.5 227.35,-100 227.35,-93"/>
</a>
</g>
</g>
</g>
</svg>
