<?xml version="1.0" encoding="UTF-8" standalone="no"?>
<!DOCTYPE svg PUBLIC "-//W3C//DTD SVG 1.1//EN"
 "http://www.w3.org/Graphics/SVG/1.1/DTD/svg11.dtd">
<!-- Generated by graphviz version 11.0.0 (20240428.1522)
 -->
<!-- Title: v8::debug::LiveEditResult Pages: 1 -->
<!--zoomable 738 -->

<svg id="main" version="1.1" xmlns="http://www.w3.org/2000/svg" xmlns:xlink="http://www.w3.org/1999/xlink" xml:space="preserve" onload="init(evt)">
<style type="text/css"><![CDATA[
.node, .edge {opacity: 0.7;}
.node.selected, .edge.selected {opacity: 1;}
.edge:hover path { stroke: red; }
.edge:hover polygon { stroke: red; fill: red; }
svg#main { background-color: #111; }
]]></style>

<defs>
  <circle id="rim" cx="0" cy="0" r="7"/>
  <circle id="rim2" cx="0" cy="0" r="3.5"/>
  <g id="zoomPlus">
    <use xlink:href="#rim" fill="#404040"><set attributeName="fill" to="#808080" begin="zoomplus.mouseover" end="zoomplus.mouseout"/></use>
    <path d="M-4,0h8M0,-4v8" fill="none" stroke="white" stroke-width="1.5" pointer-events="none"/>
  </g>
  <g id="zoomMin">
    <use xlink:href="#rim" fill="#404040"><set attributeName="fill" to="#808080" begin="zoomminus.mouseover" end="zoomminus.mouseout"/></use>
    <path d="M-4,0h8" fill="none" stroke="white" stroke-width="1.5" pointer-events="none"/>
  </g>
  <g id="arrowUp" transform="translate(30 24)">
    <use xlink:href="#rim"/>
    <path pointer-events="none" fill="none" stroke="white" stroke-width="1.5" d="M0,-3.0v7 M-2.5,-0.5L0,-3.0L2.5,-0.5"/>
  </g>
  <g id="arrowRight" transform="rotate(90) translate(36 -43)">
    <use xlink:href="#rim"/>
    <path pointer-events="none" fill="none" stroke="white" stroke-width="1.5" d="M0,-3.0v7 M-2.5,-0.5L0,-3.0L2.5,-0.5"/>
  </g>
  <g id="arrowDown" transform="rotate(180) translate(-30 -48)">
    <use xlink:href="#rim"/>
    <path pointer-events="none" fill="none" stroke="white" stroke-width="1.5" d="M0,-3.0v7 M-2.5,-0.5L0,-3.0L2.5,-0.5"/>
  </g>
  <g id="arrowLeft" transform="rotate(270) translate(-36 17)">
    <use xlink:href="#rim"/>
    <path pointer-events="none" fill="none" stroke="white" stroke-width="1.5" d="M0,-3.0v7 M-2.5,-0.5L0,-3.0L2.5,-0.5"/>
  </g>
  <g id="resetDef">
    <use xlink:href="#rim2" fill="#404040"><set attributeName="fill" to="#808080" begin="reset.mouseover" end="reset.mouseout"/></use>
  </g>
</defs>
<script type="application/ecmascript">
var viewWidth = 1026;
var viewHeight = 738;
var sectionId = 'dynsection-0';
</script>
<script type="application/ecmascript" xlink:href="../../svg.min.js"/>
<svg id="graph" class="graph">
<g id="viewport">
<title>v8::debug::LiveEditResult</title>
<!-- Node1 -->
<g id="Node000001" class="node">
<title>Node1</title>
<g id="a_Node000001"><a xlink:title=" ">
<polygon fill="#999999" stroke="none" points="1018,-494 858,-494 858,-442 1018,-442 1018,-494"/>
<text text-anchor="start" x="863" y="-480.5" font-family="Cascadia Code NF" font-size="10.00">v8::debug::LiveEditResult</text>
<text text-anchor="start" x="935" y="-464.5" font-family="Cascadia Code NF" font-size="10.00"> </text>
<text text-anchor="start" x="935" y="-448.5" font-family="Cascadia Code NF" font-size="10.00"> </text>
<polygon fill="#666666" stroke="#666666" points="858,-476 858,-476 1018,-476 1018,-476 858,-476"/>
<polygon fill="#666666" stroke="#666666" points="858,-460 858,-460 1018,-460 1018,-460 858,-460"/>
<polygon fill="none" stroke="#666666" points="858,-442 858,-494 1018,-494 1018,-442 858,-442"/>
</a>
</g>
</g>
<!-- Node2 -->
<g id="Node000002" class="node">
<title>Node2</title>
<g id="a_Node000002"><a xlink:title=" ">
<polygon fill="white" stroke="none" points="657,-730 611,-730 611,-678 657,-678 657,-730"/>
<text text-anchor="start" x="616" y="-716.5" font-family="Cascadia Code NF" font-size="10.00">Status</text>
<text text-anchor="start" x="631" y="-700.5" font-family="Cascadia Code NF" font-size="10.00"> </text>
<text text-anchor="start" x="631" y="-684.5" font-family="Cascadia Code NF" font-size="10.00"> </text>
<polygon fill="#bfbfbf" stroke="#bfbfbf" points="611,-712 611,-712 657,-712 657,-712 611,-712"/>
<polygon fill="#bfbfbf" stroke="#bfbfbf" points="611,-696 611,-696 657,-696 657,-696 611,-696"/>
<polygon fill="none" stroke="#bfbfbf" points="611,-678 611,-730 657,-730 657,-678 611,-678"/>
</a>
</g>
</g>
<!-- Node2&#45;&gt;Node1 -->
<g id="edge1_Node000001_Node000002" class="edge">
<title>Node2&#45;&gt;Node1</title>
<g id="a_edge1_Node000001_Node000002"><a xlink:title=" ">
<path fill="none" stroke="#63b8ff" d="M656.83,-701.05C697.1,-694.62 784.06,-676.06 840,-630 880.18,-596.91 907.83,-542.55 923.04,-506.03"/>
<polygon fill="none" stroke="#63b8ff" points="923.1,-505.9 921.62,-498.84 927.57,-494.76 929.04,-501.82 923.1,-505.9"/>
</a>
</g>
<text text-anchor="middle" x="783" y="-687.25" font-family="Cascadia Code NF" font-size="10.00" fill="grey"> +status</text>
</g>
<!-- Node3 -->
<g id="Node000003" class="node">
<title>Node3</title>
<g id="a_Node000003"><a xlink:title=" ">
<polygon fill="white" stroke="none" points="651,-660 617,-660 617,-608 651,-608 651,-660"/>
<text text-anchor="start" x="622" y="-646.5" font-family="Cascadia Code NF" font-size="10.00">bool</text>
<text text-anchor="start" x="631" y="-630.5" font-family="Cascadia Code NF" font-size="10.00"> </text>
<text text-anchor="start" x="631" y="-614.5" font-family="Cascadia Code NF" font-size="10.00"> </text>
<polygon fill="#bfbfbf" stroke="#bfbfbf" points="617,-642 617,-642 651,-642 651,-642 617,-642"/>
<polygon fill="#bfbfbf" stroke="#bfbfbf" points="617,-626 617,-626 651,-626 651,-626 617,-626"/>
<polygon fill="none" stroke="#bfbfbf" points="617,-608 617,-660 651,-660 651,-608 617,-608"/>
</a>
</g>
</g>
<!-- Node3&#45;&gt;Node1 -->
<g id="edge2_Node000001_Node000003" class="edge">
<title>Node3&#45;&gt;Node1</title>
<g id="a_edge2_Node000001_Node000003"><a xlink:title=" ">
<path fill="none" stroke="#63b8ff" d="M650.83,-626.82C665.73,-619.96 688.59,-609.19 708,-599 768.75,-567.11 836.82,-527.69 882.84,-500.46"/>
<polygon fill="none" stroke="#63b8ff" points="882.95,-500.4 886.07,-493.9 893.27,-494.28 890.15,-500.78 882.95,-500.4"/>
</a>
</g>
<text text-anchor="start" x="726" y="-616.75" font-family="Cascadia Code NF" font-size="10.00" fill="grey"> +restart_top_frame</text>
<text text-anchor="middle" x="783" y="-604" font-family="Cascadia Code NF" font-size="10.00" fill="grey">_required</text>
<text text-anchor="middle" x="783" y="-591.25" font-family="Cascadia Code NF" font-size="10.00" fill="grey">+stack_changed</text>
</g>
<!-- Node4 -->
<g id="Node000004" class="node">
<title>Node4</title>
<g id="a_Node000004"><a xlink:href="../../d3/df9/classv8_1_1Local.html" target="_top" xlink:title=" ">
<polygon fill="white" stroke="none" points="699,-327.5 569,-327.5 569,-70.5 699,-70.5 699,-327.5"/>
<text text-anchor="start" x="574" y="-314" font-family="Cascadia Code NF" font-size="10.00">v8::Local&lt; v8::debug</text>
<text text-anchor="start" x="604" y="-301.25" font-family="Cascadia Code NF" font-size="10.00">::Script &gt;</text>
<text text-anchor="start" x="631" y="-285" font-family="Cascadia Code NF" font-size="10.00"> </text>
<text text-anchor="start" x="583" y="-269" font-family="Cascadia Code NF" font-size="10.00">+</text>
<text text-anchor="start" x="603" y="-269" font-family="Cascadia Code NF" font-size="10.00">Local()</text>
<text text-anchor="start" x="583" y="-253" font-family="Cascadia Code NF" font-size="10.00">+</text>
<text text-anchor="start" x="603" y="-253" font-family="Cascadia Code NF" font-size="10.00">Local()</text>
<text text-anchor="start" x="583" y="-237" font-family="Cascadia Code NF" font-size="10.00">+</text>
<text text-anchor="start" x="603" y="-237" font-family="Cascadia Code NF" font-size="10.00">operator&#45;&gt;()</text>
<text text-anchor="start" x="583" y="-221" font-family="Cascadia Code NF" font-size="10.00">+</text>
<text text-anchor="start" x="603" y="-221" font-family="Cascadia Code NF" font-size="10.00">operator*()</text>
<text text-anchor="start" x="583" y="-205" font-family="Cascadia Code NF" font-size="10.00">+</text>
<text text-anchor="start" x="603" y="-205" font-family="Cascadia Code NF" font-size="10.00">operator==()</text>
<text text-anchor="start" x="583" y="-189" font-family="Cascadia Code NF" font-size="10.00">+</text>
<text text-anchor="start" x="603" y="-189" font-family="Cascadia Code NF" font-size="10.00">operator==()</text>
<text text-anchor="start" x="583" y="-173" font-family="Cascadia Code NF" font-size="10.00">+</text>
<text text-anchor="start" x="603" y="-173" font-family="Cascadia Code NF" font-size="10.00">operator!=()</text>
<text text-anchor="start" x="583" y="-157" font-family="Cascadia Code NF" font-size="10.00">+</text>
<text text-anchor="start" x="603" y="-157" font-family="Cascadia Code NF" font-size="10.00">operator!=()</text>
<text text-anchor="start" x="583" y="-141" font-family="Cascadia Code NF" font-size="10.00">+</text>
<text text-anchor="start" x="603" y="-141" font-family="Cascadia Code NF" font-size="10.00">As()</text>
<text text-anchor="start" x="583" y="-125" font-family="Cascadia Code NF" font-size="10.00">+</text>
<text text-anchor="start" x="603" y="-125" font-family="Cascadia Code NF" font-size="10.00">Cast()</text>
<text text-anchor="start" x="583" y="-109" font-family="Cascadia Code NF" font-size="10.00">+</text>
<text text-anchor="start" x="603" y="-109" font-family="Cascadia Code NF" font-size="10.00">New()</text>
<text text-anchor="start" x="583" y="-93" font-family="Cascadia Code NF" font-size="10.00">+</text>
<text text-anchor="start" x="603" y="-93" font-family="Cascadia Code NF" font-size="10.00">New()</text>
<text text-anchor="start" x="583" y="-77" font-family="Cascadia Code NF" font-size="10.00">+</text>
<text text-anchor="start" x="603" y="-77" font-family="Cascadia Code NF" font-size="10.00">New()</text>
<polygon fill="#666666" stroke="#666666" points="569,-296.5 569,-296.5 699,-296.5 699,-296.5 569,-296.5"/>
<polygon fill="#666666" stroke="#666666" points="569,-280.5 569,-280.5 699,-280.5 699,-280.5 569,-280.5"/>
<polygon fill="none" stroke="#666666" points="569,-70.5 569,-327.5 699,-327.5 699,-70.5 569,-70.5"/>
</a>
</g>
</g>
<!-- Node4&#45;&gt;Node1 -->
<g id="edge3_Node000001_Node000004" class="edge">
<title>Node4&#45;&gt;Node1</title>
<g id="a_edge3_Node000001_Node000004"><a xlink:title=" ">
<path fill="none" stroke="#63b8ff" d="M698.68,-255.72C759.19,-309.62 848.22,-388.92 898.58,-433.78"/>
<polygon fill="none" stroke="#63b8ff" points="898.48,-433.69 905.62,-434.69 907.44,-441.67 900.3,-440.67 898.48,-433.69"/>
</a>
</g>
<text text-anchor="middle" x="783" y="-383.25" font-family="Cascadia Code NF" font-size="10.00" fill="grey"> +script</text>
</g>
<!-- Node5 -->
<g id="Node000005" class="node">
<title>Node5</title>
<g id="a_Node000005"><a xlink:href="../../de/d99/classv8_1_1LocalBase.html" target="_top" xlink:title=" ">
<polygon fill="white" stroke="none" points="485,-392.5 361,-392.5 361,-247.5 485,-247.5 485,-392.5"/>
<text text-anchor="start" x="366" y="-379" font-family="Cascadia Code NF" font-size="10.00">v8::LocalBase&lt; v8::</text>
<text text-anchor="start" x="378" y="-366.25" font-family="Cascadia Code NF" font-size="10.00">debug::Script &gt;</text>
<text text-anchor="start" x="420" y="-350" font-family="Cascadia Code NF" font-size="10.00"> </text>
<text text-anchor="start" x="375" y="-334" font-family="Cascadia Code NF" font-size="10.00">#</text>
<text text-anchor="start" x="395" y="-334" font-family="Cascadia Code NF" font-size="10.00">LocalBase()</text>
<text text-anchor="start" x="375" y="-318" font-family="Cascadia Code NF" font-size="10.00">#</text>
<text text-anchor="start" x="395" y="-318" font-family="Cascadia Code NF" font-size="10.00">LocalBase()</text>
<text text-anchor="start" x="375" y="-302" font-family="Cascadia Code NF" font-size="10.00">#</text>
<text text-anchor="start" x="395" y="-302" font-family="Cascadia Code NF" font-size="10.00">LocalBase()</text>
<text text-anchor="start" x="375" y="-286" font-family="Cascadia Code NF" font-size="10.00">#</text>
<text text-anchor="start" x="395" y="-286" font-family="Cascadia Code NF" font-size="10.00">New()</text>
<text text-anchor="start" x="375" y="-270" font-family="Cascadia Code NF" font-size="10.00">#</text>
<text text-anchor="start" x="395" y="-270" font-family="Cascadia Code NF" font-size="10.00">New()</text>
<text text-anchor="start" x="375" y="-254" font-family="Cascadia Code NF" font-size="10.00">#</text>
<text text-anchor="start" x="395" y="-254" font-family="Cascadia Code NF" font-size="10.00">FromSlot()</text>
<polygon fill="#666666" stroke="#666666" points="361,-361.5 361,-361.5 485,-361.5 485,-361.5 361,-361.5"/>
<polygon fill="#666666" stroke="#666666" points="361,-345.5 361,-345.5 485,-345.5 485,-345.5 361,-345.5"/>
<polygon fill="none" stroke="#666666" points="361,-247.5 361,-392.5 485,-392.5 485,-247.5 361,-247.5"/>
</a>
</g>
</g>
<!-- Node5&#45;&gt;Node4 -->
<g id="edge4_Node000004_Node000005" class="edge">
<title>Node5&#45;&gt;Node4</title>
<g id="a_edge4_Node000004_Node000005"><a xlink:title=" ">
<path fill="none" stroke="#63b8ff" d="M494.55,-279.15C518.72,-265.16 545.6,-249.6 569.2,-235.93"/>
<polygon fill="none" stroke="#63b8ff" points="492.94,-276.04 486.04,-284.08 496.45,-282.1 492.94,-276.04"/>
</a>
</g>
</g>
<!-- Node6 -->
<g id="Node000006" class="node">
<title>Node6</title>
<g id="a_Node000006"><a xlink:href="../../d4/d76/classv8_1_1api__internal_1_1IndirectHandleBase.html" target="_top" xlink:title=" ">
<polygon fill="white" stroke="none" points="184,-506.5 18,-506.5 18,-297.5 184,-297.5 184,-506.5"/>
<text text-anchor="start" x="23" y="-493" font-family="Cascadia Code NF" font-size="10.00">v8::api_internal::Indirect</text>
<text text-anchor="start" x="71" y="-480.25" font-family="Cascadia Code NF" font-size="10.00">HandleBase</text>
<text text-anchor="start" x="98" y="-464" font-family="Cascadia Code NF" font-size="10.00"> </text>
<text text-anchor="start" x="29" y="-448" font-family="Cascadia Code NF" font-size="10.00">+</text>
<text text-anchor="start" x="46" y="-448" font-family="Cascadia Code NF" font-size="10.00">IsEmpty()</text>
<text text-anchor="start" x="29" y="-432" font-family="Cascadia Code NF" font-size="10.00">+</text>
<text text-anchor="start" x="46" y="-432" font-family="Cascadia Code NF" font-size="10.00">Clear()</text>
<text text-anchor="start" x="29" y="-416" font-family="Cascadia Code NF" font-size="10.00">#</text>
<text text-anchor="start" x="46" y="-416" font-family="Cascadia Code NF" font-size="10.00">IndirectHandleBase()</text>
<text text-anchor="start" x="29" y="-400" font-family="Cascadia Code NF" font-size="10.00">#</text>
<text text-anchor="start" x="46" y="-400" font-family="Cascadia Code NF" font-size="10.00">IndirectHandleBase()</text>
<text text-anchor="start" x="29" y="-384" font-family="Cascadia Code NF" font-size="10.00">#</text>
<text text-anchor="start" x="46" y="-384" font-family="Cascadia Code NF" font-size="10.00">operator=()</text>
<text text-anchor="start" x="29" y="-368" font-family="Cascadia Code NF" font-size="10.00">#</text>
<text text-anchor="start" x="46" y="-368" font-family="Cascadia Code NF" font-size="10.00">IndirectHandleBase()</text>
<text text-anchor="start" x="29" y="-352" font-family="Cascadia Code NF" font-size="10.00">#</text>
<text text-anchor="start" x="46" y="-352" font-family="Cascadia Code NF" font-size="10.00">ptr()</text>
<text text-anchor="start" x="29" y="-336" font-family="Cascadia Code NF" font-size="10.00">#</text>
<text text-anchor="start" x="46" y="-336" font-family="Cascadia Code NF" font-size="10.00">slot()</text>
<text text-anchor="start" x="29" y="-320" font-family="Cascadia Code NF" font-size="10.00">#</text>
<text text-anchor="start" x="46" y="-320" font-family="Cascadia Code NF" font-size="10.00">slot()</text>
<text text-anchor="start" x="29" y="-304" font-family="Cascadia Code NF" font-size="10.00">#</text>
<text text-anchor="start" x="46" y="-304" font-family="Cascadia Code NF" font-size="10.00">value()</text>
<polygon fill="#666666" stroke="#666666" points="18,-475.5 18,-475.5 184,-475.5 184,-475.5 18,-475.5"/>
<polygon fill="#666666" stroke="#666666" points="18,-459.5 18,-459.5 184,-459.5 184,-459.5 18,-459.5"/>
<polygon fill="none" stroke="#666666" points="18,-297.5 18,-506.5 184,-506.5 184,-297.5 18,-297.5"/>
</a>
</g>
</g>
<!-- Node6&#45;&gt;Node5 -->
<g id="edge5_Node000005_Node000006" class="edge">
<title>Node6&#45;&gt;Node5</title>
<g id="a_edge5_Node000005_Node000006"><a xlink:title=" ">
<path fill="none" stroke="#63b8ff" d="M194.88,-378.2C248.42,-364.48 314.23,-347.62 361.19,-335.58"/>
<polygon fill="none" stroke="#63b8ff" points="194.28,-374.74 185.46,-380.61 196.01,-381.52 194.28,-374.74"/>
</a>
</g>
</g>
<!-- Node10 -->
<g id="Node000010" class="node">
<title>Node10</title>
<g id="a_Node000010"><a xlink:href="../../de/d99/classv8_1_1LocalBase.html" target="_top" xlink:title=" ">
<polygon fill="white" stroke="none" points="485,-555.5 361,-555.5 361,-410.5 485,-410.5 485,-555.5"/>
<text text-anchor="start" x="366" y="-542" font-family="Cascadia Code NF" font-size="10.00">v8::LocalBase&lt; v8::</text>
<text text-anchor="start" x="399" y="-529.25" font-family="Cascadia Code NF" font-size="10.00">String &gt;</text>
<text text-anchor="start" x="420" y="-513" font-family="Cascadia Code NF" font-size="10.00"> </text>
<text text-anchor="start" x="375" y="-497" font-family="Cascadia Code NF" font-size="10.00">#</text>
<text text-anchor="start" x="395" y="-497" font-family="Cascadia Code NF" font-size="10.00">LocalBase()</text>
<text text-anchor="start" x="375" y="-481" font-family="Cascadia Code NF" font-size="10.00">#</text>
<text text-anchor="start" x="395" y="-481" font-family="Cascadia Code NF" font-size="10.00">LocalBase()</text>
<text text-anchor="start" x="375" y="-465" font-family="Cascadia Code NF" font-size="10.00">#</text>
<text text-anchor="start" x="395" y="-465" font-family="Cascadia Code NF" font-size="10.00">LocalBase()</text>
<text text-anchor="start" x="375" y="-449" font-family="Cascadia Code NF" font-size="10.00">#</text>
<text text-anchor="start" x="395" y="-449" font-family="Cascadia Code NF" font-size="10.00">New()</text>
<text text-anchor="start" x="375" y="-433" font-family="Cascadia Code NF" font-size="10.00">#</text>
<text text-anchor="start" x="395" y="-433" font-family="Cascadia Code NF" font-size="10.00">New()</text>
<text text-anchor="start" x="375" y="-417" font-family="Cascadia Code NF" font-size="10.00">#</text>
<text text-anchor="start" x="395" y="-417" font-family="Cascadia Code NF" font-size="10.00">FromSlot()</text>
<polygon fill="#666666" stroke="#666666" points="361,-524.5 361,-524.5 485,-524.5 485,-524.5 361,-524.5"/>
<polygon fill="#666666" stroke="#666666" points="361,-508.5 361,-508.5 485,-508.5 485,-508.5 361,-508.5"/>
<polygon fill="none" stroke="#666666" points="361,-410.5 361,-555.5 485,-555.5 485,-410.5 361,-410.5"/>
</a>
</g>
</g>
<!-- Node6&#45;&gt;Node10 -->
<g id="edge10_Node000010_Node000006" class="edge">
<title>Node6&#45;&gt;Node10</title>
<g id="a_edge10_Node000010_Node000006"><a xlink:title=" ">
<path fill="none" stroke="#63b8ff" d="M194.88,-425.51C248.42,-439.06 314.23,-455.72 361.19,-467.61"/>
<polygon fill="none" stroke="#63b8ff" points="196.01,-422.19 185.46,-423.13 194.3,-428.97 196.01,-422.19"/>
</a>
</g>
</g>
<!-- Node7 -->
<g id="Node000007" class="node">
<title>Node7</title>
<g id="a_Node000007"><a xlink:href="../../d1/d43/classv8_1_1api__internal_1_1StackAllocated.html" target="_top" xlink:title=" ">
<polygon fill="white" stroke="none" points="524,-229.5 322,-229.5 322,-116.5 524,-116.5 524,-229.5"/>
<text text-anchor="start" x="327" y="-216" font-family="Cascadia Code NF" font-size="10.00">v8::api_internal::StackAllocated</text>
<text text-anchor="start" x="396" y="-203.25" font-family="Cascadia Code NF" font-size="10.00">&lt; false &gt;</text>
<text text-anchor="start" x="420" y="-187" font-family="Cascadia Code NF" font-size="10.00"> </text>
<text text-anchor="start" x="348" y="-171" font-family="Cascadia Code NF" font-size="10.00">+</text>
<text text-anchor="start" x="380" y="-171" font-family="Cascadia Code NF" font-size="10.00">StackAllocated()</text>
<text text-anchor="start" x="348" y="-155" font-family="Cascadia Code NF" font-size="10.00">#</text>
<text text-anchor="start" x="380" y="-155" font-family="Cascadia Code NF" font-size="10.00">StackAllocated()</text>
<text text-anchor="start" x="348" y="-139" font-family="Cascadia Code NF" font-size="10.00">#</text>
<text text-anchor="start" x="380" y="-139" font-family="Cascadia Code NF" font-size="10.00">StackAllocated()</text>
<text text-anchor="start" x="348" y="-123" font-family="Cascadia Code NF" font-size="10.00">#</text>
<text text-anchor="start" x="380" y="-123" font-family="Cascadia Code NF" font-size="10.00">VerifyOnStack()</text>
<polygon fill="#bfbfbf" stroke="#bfbfbf" points="322,-198.5 322,-198.5 524,-198.5 524,-198.5 322,-198.5"/>
<polygon fill="#bfbfbf" stroke="#bfbfbf" points="322,-182.5 322,-182.5 524,-182.5 524,-182.5 322,-182.5"/>
<polygon fill="none" stroke="#bfbfbf" points="322,-116.5 322,-229.5 524,-229.5 524,-116.5 322,-116.5"/>
</a>
</g>
</g>
<!-- Node7&#45;&gt;Node4 -->
<g id="edge6_Node000004_Node000007" class="edge">
<title>Node7&#45;&gt;Node4</title>
<g id="a_edge6_Node000004_Node000007"><a xlink:title=" ">
<path fill="none" stroke="#63b8ff" d="M535.12,-186.82C546.8,-188.28 558.37,-189.72 569.24,-191.07"/>
<polygon fill="none" stroke="#63b8ff" points="535.77,-183.38 525.41,-185.62 534.9,-190.32 535.77,-183.38"/>
</a>
</g>
</g>
<!-- Node9 -->
<g id="Node000009" class="node">
<title>Node9</title>
<g id="a_Node000009"><a xlink:href="../../d3/df9/classv8_1_1Local.html" target="_top" xlink:title=" ">
<polygon fill="white" stroke="none" points="708,-590 560,-590 560,-346 708,-346 708,-590"/>
<text text-anchor="start" x="565" y="-576.5" font-family="Cascadia Code NF" font-size="10.00">v8::Local&lt; v8::String &gt;</text>
<text text-anchor="start" x="631" y="-560.5" font-family="Cascadia Code NF" font-size="10.00"> </text>
<text text-anchor="start" x="578.5" y="-544.5" font-family="Cascadia Code NF" font-size="10.00">+</text>
<text text-anchor="start" x="603" y="-544.5" font-family="Cascadia Code NF" font-size="10.00">Local()</text>
<text text-anchor="start" x="578.5" y="-528.5" font-family="Cascadia Code NF" font-size="10.00">+</text>
<text text-anchor="start" x="603" y="-528.5" font-family="Cascadia Code NF" font-size="10.00">Local()</text>
<text text-anchor="start" x="578.5" y="-512.5" font-family="Cascadia Code NF" font-size="10.00">+</text>
<text text-anchor="start" x="603" y="-512.5" font-family="Cascadia Code NF" font-size="10.00">operator&#45;&gt;()</text>
<text text-anchor="start" x="578.5" y="-496.5" font-family="Cascadia Code NF" font-size="10.00">+</text>
<text text-anchor="start" x="603" y="-496.5" font-family="Cascadia Code NF" font-size="10.00">operator*()</text>
<text text-anchor="start" x="578.5" y="-480.5" font-family="Cascadia Code NF" font-size="10.00">+</text>
<text text-anchor="start" x="603" y="-480.5" font-family="Cascadia Code NF" font-size="10.00">operator==()</text>
<text text-anchor="start" x="578.5" y="-464.5" font-family="Cascadia Code NF" font-size="10.00">+</text>
<text text-anchor="start" x="603" y="-464.5" font-family="Cascadia Code NF" font-size="10.00">operator==()</text>
<text text-anchor="start" x="578.5" y="-448.5" font-family="Cascadia Code NF" font-size="10.00">+</text>
<text text-anchor="start" x="603" y="-448.5" font-family="Cascadia Code NF" font-size="10.00">operator!=()</text>
<text text-anchor="start" x="578.5" y="-432.5" font-family="Cascadia Code NF" font-size="10.00">+</text>
<text text-anchor="start" x="603" y="-432.5" font-family="Cascadia Code NF" font-size="10.00">operator!=()</text>
<text text-anchor="start" x="578.5" y="-416.5" font-family="Cascadia Code NF" font-size="10.00">+</text>
<text text-anchor="start" x="603" y="-416.5" font-family="Cascadia Code NF" font-size="10.00">As()</text>
<text text-anchor="start" x="578.5" y="-400.5" font-family="Cascadia Code NF" font-size="10.00">+</text>
<text text-anchor="start" x="603" y="-400.5" font-family="Cascadia Code NF" font-size="10.00">Cast()</text>
<text text-anchor="start" x="578.5" y="-384.5" font-family="Cascadia Code NF" font-size="10.00">+</text>
<text text-anchor="start" x="603" y="-384.5" font-family="Cascadia Code NF" font-size="10.00">New()</text>
<text text-anchor="start" x="578.5" y="-368.5" font-family="Cascadia Code NF" font-size="10.00">+</text>
<text text-anchor="start" x="603" y="-368.5" font-family="Cascadia Code NF" font-size="10.00">New()</text>
<text text-anchor="start" x="578.5" y="-352.5" font-family="Cascadia Code NF" font-size="10.00">+</text>
<text text-anchor="start" x="603" y="-352.5" font-family="Cascadia Code NF" font-size="10.00">New()</text>
<polygon fill="#666666" stroke="#666666" points="560,-572 560,-572 708,-572 708,-572 560,-572"/>
<polygon fill="#666666" stroke="#666666" points="560,-556 560,-556 708,-556 708,-556 560,-556"/>
<polygon fill="none" stroke="#666666" points="560,-346 560,-590 708,-590 708,-346 560,-346"/>
</a>
</g>
</g>
<!-- Node7&#45;&gt;Node9 -->
<g id="edge11_Node000009_Node000007" class="edge">
<title>Node7&#45;&gt;Node9</title>
<g id="a_edge11_Node000009_Node000007"><a xlink:title=" ">
<path fill="none" stroke="#63b8ff" d="M522.71,-237.4C523.15,-237.93 523.58,-238.46 524,-239 552.8,-275.38 540.65,-294.83 560,-337 561.41,-340.08 562.87,-343.18 564.36,-346.29"/>
<polygon fill="none" stroke="#63b8ff" points="525.53,-235.31 516.25,-230.21 520.33,-239.99 525.53,-235.31"/>
</a>
</g>
</g>
<!-- Node8 -->
<g id="Node000008" class="node">
<title>Node8</title>
<g id="a_Node000008"><a xlink:href="../../d8/db5/structv8_1_1api__internal_1_1StackAllocated_1_1no__checking__tag.html" target="_top" xlink:title=" ">
<polygon fill="white" stroke="none" points="202,-212 0,-212 0,-134 202,-134 202,-212"/>
<text text-anchor="start" x="5" y="-198.5" font-family="Cascadia Code NF" font-size="10.00">v8::api_internal::StackAllocated</text>
<text text-anchor="start" x="5" y="-185.75" font-family="Cascadia Code NF" font-size="10.00">&lt; check_statically_enabled</text>
<text text-anchor="start" x="44" y="-173" font-family="Cascadia Code NF" font-size="10.00"> &gt;::no_checking_tag</text>
<text text-anchor="start" x="98" y="-156.5" font-family="Cascadia Code NF" font-size="10.00"> </text>
<text text-anchor="start" x="98" y="-140.5" font-family="Cascadia Code NF" font-size="10.00"> </text>
<polygon fill="#bfbfbf" stroke="#bfbfbf" points="0,-168 0,-168 202,-168 202,-168 0,-168"/>
<polygon fill="#bfbfbf" stroke="#bfbfbf" points="0,-152 0,-152 202,-152 202,-152 0,-152"/>
<polygon fill="none" stroke="#bfbfbf" points="0,-134 0,-212 202,-212 202,-134 0,-134"/>
</a>
</g>
</g>
<!-- Node8&#45;&gt;Node7 -->
<g id="edge7_Node000007_Node000008" class="edge">
<title>Node8&#45;&gt;Node7</title>
<g id="a_edge7_Node000007_Node000008"><a xlink:title=" ">
<path fill="none" stroke="#63b8ff" d="M201.93,-173C236.07,-173 274.47,-173 309.52,-173"/>
<polygon fill="none" stroke="#63b8ff" points="309.37,-173 315.37,-169 321.37,-173 315.37,-177 309.37,-173"/>
</a>
</g>
<text text-anchor="middle" x="262" y="-176.25" font-family="Cascadia Code NF" font-size="10.00" fill="grey"> #do_not_check</text>
</g>
<!-- Node9&#45;&gt;Node1 -->
<g id="edge8_Node000001_Node000009" class="edge">
<title>Node9&#45;&gt;Node1</title>
<g id="a_edge8_Node000001_Node000009"><a xlink:title=" ">
<path fill="none" stroke="#63b8ff" d="M707.72,-468C749.02,-468 801.12,-468 845.22,-468"/>
<polygon fill="none" stroke="#63b8ff" points="845.12,-468 851.12,-464 857.12,-468 851.12,-472 845.12,-468"/>
</a>
</g>
<text text-anchor="middle" x="783" y="-471.25" font-family="Cascadia Code NF" font-size="10.00" fill="grey"> +message</text>
</g>
<!-- Node10&#45;&gt;Node9 -->
<g id="edge9_Node000009_Node000010" class="edge">
<title>Node10&#45;&gt;Node9</title>
<g id="a_edge9_Node000009_Node000010"><a xlink:title=" ">
<path fill="none" stroke="#63b8ff" d="M496.05,-477.83C516.81,-476.34 539.47,-474.71 560.28,-473.22"/>
<polygon fill="none" stroke="#63b8ff" points="495.97,-474.33 486.24,-478.53 496.47,-481.31 495.97,-474.33"/>
</a>
</g>
</g>
<!-- Node11 -->
<g id="Node000011" class="node">
<title>Node11</title>
<g id="a_Node000011"><a xlink:href="../../d1/da0/classint.html" target="_top" xlink:title=" ">
<polygon fill="white" stroke="none" points="648,-52 620,-52 620,0 648,0 648,-52"/>
<text text-anchor="start" x="625" y="-38.5" font-family="Cascadia Code NF" font-size="10.00">int</text>
<text text-anchor="start" x="631" y="-22.5" font-family="Cascadia Code NF" font-size="10.00"> </text>
<text text-anchor="start" x="631" y="-6.5" font-family="Cascadia Code NF" font-size="10.00"> </text>
<polygon fill="#bfbfbf" stroke="#bfbfbf" points="620,-34 620,-34 648,-34 648,-34 620,-34"/>
<polygon fill="#bfbfbf" stroke="#bfbfbf" points="620,-18 620,-18 648,-18 648,-18 620,-18"/>
<polygon fill="none" stroke="#bfbfbf" points="620,0 620,-52 648,-52 648,0 620,0"/>
</a>
</g>
</g>
<!-- Node11&#45;&gt;Node1 -->
<g id="edge12_Node000001_Node000011" class="edge">
<title>Node11&#45;&gt;Node1</title>
<g id="a_edge12_Node000001_Node000011"><a xlink:title=" ">
<path fill="none" stroke="#63b8ff" d="M647.78,-29.82C663.35,-34.96 689.8,-45.3 708,-61 828.94,-165.37 899.37,-350.18 925.4,-429.78"/>
<polygon fill="none" stroke="#63b8ff" points="925.4,-429.77 931.04,-434.27 929.06,-441.2 923.42,-436.71 925.4,-429.77"/>
</a>
</g>
<text text-anchor="middle" x="783" y="-246" font-family="Cascadia Code NF" font-size="10.00" fill="grey"> +column_number</text>
<text text-anchor="middle" x="783" y="-233.25" font-family="Cascadia Code NF" font-size="10.00" fill="grey">+line_number</text>
</g>
</g>
</svg>

<g id="navigator" transform="translate(0 0)" fill="#404254">
  <rect fill="#f2f5e9" fill-opacity="0.5" stroke="#606060" stroke-width=".5" x="0" y="0" width="60" height="60"/>
  <use id="zoomplus" xlink:href="#zoomPlus" x="17" y="9" onmousedown="handleZoom(evt,'in')"/>
  <use id="zoomminus" xlink:href="#zoomMin" x="42" y="9" onmousedown="handleZoom(evt,'out')"/>
  <use id="reset" xlink:href="#resetDef" x="30" y="36" onmousedown="handleReset()"/>
   <use id="arrowup" xlink:href="#arrowUp" x="0" y="0" onmousedown="handlePan(0,-1)"/>
  <use id="arrowright" xlink:href="#arrowRight" x="0" y="0" onmousedown="handlePan(1,0)"/>
  <use id="arrowdown" xlink:href="#arrowDown" x="0" y="0" onmousedown="handlePan(0,1)"/>
  <use id="arrowleft" xlink:href="#arrowLeft" x="0" y="0" onmousedown="handlePan(-1,0)"/>
</g>
<svg viewBox="0 0 15 15" width="100%" height="30px" preserveAspectRatio="xMaxYMin meet">
 <g id="arrow_out" transform="scale(0.3 0.3)">
  <a xlink:href="structv8_1_1debug_1_1LiveEditResult__coll__graph_org.svg" target="_base">
   <rect id="button" ry="5" rx="5" y="6" x="6" height="38" width="38"
        fill="#f2f5e9" fill-opacity="0.5" stroke="#606060" stroke-width="1.0"/>
   <path id="arrow"
     d="M 11.500037,31.436501 C 11.940474,20.09759 22.043105,11.32322 32.158766,21.979434 L 37.068811,17.246167 C 37.068811,17.246167 37.088388,32 37.088388,32 L 22.160133,31.978069 C 22.160133,31.978069 26.997745,27.140456 26.997745,27.140456 C 18.528582,18.264221 13.291696,25.230495 11.500037,31.436501 z"
     style="fill:#404040;"/>
  </a>
 </g>
</svg>

<style type='text/css'>
<![CDATA[
[data-mouse-over-selected='false'] { opacity: 0.7; }
[data-mouse-over-selected='true']  { opacity: 1.0; }
]]>
</style>
<script type="application/ecmascript"><![CDATA[
document.addEventListener('DOMContentLoaded', (event) => {
  highlightEdges();
  highlightAdjacentNodes();
});
]]></script>
</svg>
