<?xml version="1.0" encoding="UTF-8" standalone="no"?>
<!DOCTYPE svg PUBLIC "-//W3C//DTD SVG 1.1//EN"
 "http://www.w3.org/Graphics/SVG/1.1/DTD/svg11.dtd">
<!-- Generated by graphviz version 11.0.0 (20240428.1522)
 -->
<!-- Title: cppgc::internal::BasePage Pages: 1 -->
<svg width="596pt" height="316pt"
 viewBox="0.00 0.00 596.00 316.00" xmlns="http://www.w3.org/2000/svg" xmlns:xlink="http://www.w3.org/1999/xlink">
<g id="graph0" class="graph" transform="scale(1 1) rotate(0) translate(4 312)">
<title>cppgc::internal::BasePage</title>
<!-- Node1 -->
<g id="Node000001" class="node">
<title>Node1</title>
<g id="a_Node000001"><a xlink:title=" ">
<polygon fill="#999999" stroke="none" points="588,-308 428,-308 428,0 588,0 588,-308"/>
<text text-anchor="start" x="433" y="-294.5" font-family="Cascadia Code NF" font-size="10.00">cppgc::internal::BasePage</text>
<text text-anchor="start" x="505" y="-278.5" font-family="Cascadia Code NF" font-size="10.00"> </text>
<text text-anchor="start" x="440.5" y="-262.5" font-family="Cascadia Code NF" font-size="10.00">+</text>
<text text-anchor="start" x="459" y="-262.5" font-family="Cascadia Code NF" font-size="10.00">BasePage()</text>
<text text-anchor="start" x="440.5" y="-246.5" font-family="Cascadia Code NF" font-size="10.00">+</text>
<text text-anchor="start" x="459" y="-246.5" font-family="Cascadia Code NF" font-size="10.00">operator=()</text>
<text text-anchor="start" x="440.5" y="-230.5" font-family="Cascadia Code NF" font-size="10.00">+</text>
<text text-anchor="start" x="459" y="-230.5" font-family="Cascadia Code NF" font-size="10.00">heap()</text>
<text text-anchor="start" x="440.5" y="-214.5" font-family="Cascadia Code NF" font-size="10.00">+</text>
<text text-anchor="start" x="459" y="-214.5" font-family="Cascadia Code NF" font-size="10.00">space()</text>
<text text-anchor="start" x="440.5" y="-198.5" font-family="Cascadia Code NF" font-size="10.00">+</text>
<text text-anchor="start" x="459" y="-198.5" font-family="Cascadia Code NF" font-size="10.00">is_large()</text>
<text text-anchor="start" x="440.5" y="-182.5" font-family="Cascadia Code NF" font-size="10.00">+</text>
<text text-anchor="start" x="459" y="-182.5" font-family="Cascadia Code NF" font-size="10.00">PayloadStart()</text>
<text text-anchor="start" x="440.5" y="-166.5" font-family="Cascadia Code NF" font-size="10.00">+</text>
<text text-anchor="start" x="459" y="-166.5" font-family="Cascadia Code NF" font-size="10.00">PayloadStart()</text>
<text text-anchor="start" x="440.5" y="-150.5" font-family="Cascadia Code NF" font-size="10.00">+</text>
<text text-anchor="start" x="459" y="-150.5" font-family="Cascadia Code NF" font-size="10.00">PayloadEnd()</text>
<text text-anchor="start" x="440.5" y="-134.5" font-family="Cascadia Code NF" font-size="10.00">+</text>
<text text-anchor="start" x="459" y="-134.5" font-family="Cascadia Code NF" font-size="10.00">PayloadEnd()</text>
<text text-anchor="start" x="440.5" y="-118.5" font-family="Cascadia Code NF" font-size="10.00">+</text>
<text text-anchor="start" x="459" y="-118.5" font-family="Cascadia Code NF" font-size="10.00">AllocatedSize()</text>
<text text-anchor="start" x="459" y="-102.5" font-family="Cascadia Code NF" font-size="10.00">and 12 more...</text>
<text text-anchor="start" x="440.5" y="-86.5" font-family="Cascadia Code NF" font-size="10.00">+</text>
<text text-anchor="start" x="459" y="-86.5" font-family="Cascadia Code NF" font-size="10.00">FromPayload()</text>
<text text-anchor="start" x="440.5" y="-70.5" font-family="Cascadia Code NF" font-size="10.00">+</text>
<text text-anchor="start" x="459" y="-70.5" font-family="Cascadia Code NF" font-size="10.00">FromPayload()</text>
<text text-anchor="start" x="440.5" y="-54.5" font-family="Cascadia Code NF" font-size="10.00">+</text>
<text text-anchor="start" x="459" y="-54.5" font-family="Cascadia Code NF" font-size="10.00">FromInnerAddress()</text>
<text text-anchor="start" x="440.5" y="-38.5" font-family="Cascadia Code NF" font-size="10.00">+</text>
<text text-anchor="start" x="459" y="-38.5" font-family="Cascadia Code NF" font-size="10.00">FromInnerAddress()</text>
<text text-anchor="start" x="440.5" y="-22.5" font-family="Cascadia Code NF" font-size="10.00">+</text>
<text text-anchor="start" x="459" y="-22.5" font-family="Cascadia Code NF" font-size="10.00">Destroy()</text>
<text text-anchor="start" x="440.5" y="-6.5" font-family="Cascadia Code NF" font-size="10.00">#</text>
<text text-anchor="start" x="459" y="-6.5" font-family="Cascadia Code NF" font-size="10.00">BasePage()</text>
<polygon fill="#666666" stroke="#666666" points="428,-290 428,-290 588,-290 588,-290 428,-290"/>
<polygon fill="#666666" stroke="#666666" points="428,-274 428,-274 588,-274 588,-274 428,-274"/>
<polygon fill="none" stroke="#666666" points="428,0 428,-308 588,-308 588,0 428,0"/>
</a>
</g>
</g>
<!-- Node2 -->
<g id="Node000002" class="node">
<title>Node2</title>
<g id="a_Node000002"><a xlink:href="$d7/d79/classcppgc_1_1internal_1_1BasePageHandle.html" xlink:title=" ">
<polygon fill="white" stroke="none" points="392,-218.5 232,-218.5 232,-89.5 392,-89.5 392,-218.5"/>
<text text-anchor="start" x="237" y="-205" font-family="Cascadia Code NF" font-size="10.00">cppgc::internal::BasePage</text>
<text text-anchor="start" x="294" y="-192.25" font-family="Cascadia Code NF" font-size="10.00">Handle</text>
<text text-anchor="start" x="309" y="-176" font-family="Cascadia Code NF" font-size="10.00"> </text>
<text text-anchor="start" x="247.5" y="-160" font-family="Cascadia Code NF" font-size="10.00">+</text>
<text text-anchor="start" x="269" y="-160" font-family="Cascadia Code NF" font-size="10.00">heap_handle()</text>
<text text-anchor="start" x="247.5" y="-144" font-family="Cascadia Code NF" font-size="10.00">+</text>
<text text-anchor="start" x="269" y="-144" font-family="Cascadia Code NF" font-size="10.00">heap_handle()</text>
<text text-anchor="start" x="247.5" y="-128" font-family="Cascadia Code NF" font-size="10.00">+</text>
<text text-anchor="start" x="269" y="-128" font-family="Cascadia Code NF" font-size="10.00">FromPayload()</text>
<text text-anchor="start" x="247.5" y="-112" font-family="Cascadia Code NF" font-size="10.00">+</text>
<text text-anchor="start" x="269" y="-112" font-family="Cascadia Code NF" font-size="10.00">FromPayload()</text>
<text text-anchor="start" x="247.5" y="-96" font-family="Cascadia Code NF" font-size="10.00">#</text>
<text text-anchor="start" x="269" y="-96" font-family="Cascadia Code NF" font-size="10.00">BasePageHandle()</text>
<polygon fill="#bfbfbf" stroke="#bfbfbf" points="232,-187.5 232,-187.5 392,-187.5 392,-187.5 232,-187.5"/>
<polygon fill="#bfbfbf" stroke="#bfbfbf" points="232,-171.5 232,-171.5 392,-171.5 392,-171.5 232,-171.5"/>
<polygon fill="none" stroke="#bfbfbf" points="232,-89.5 232,-218.5 392,-218.5 392,-89.5 232,-89.5"/>
</a>
</g>
</g>
<!-- Node2&#45;&gt;Node1 -->
<g id="edge1_Node000001_Node000002" class="edge">
<title>Node2&#45;&gt;Node1</title>
<g id="a_edge1_Node000001_Node000002"><a xlink:title=" ">
<path fill="none" stroke="#63b8ff" d="M403.21,-154C411.54,-154 419.94,-154 428.16,-154"/>
<polygon fill="none" stroke="#63b8ff" points="403.42,-150.5 393.42,-154 403.42,-157.5 403.42,-150.5"/>
</a>
</g>
</g>
<!-- Node3 -->
<g id="Node000003" class="node">
<title>Node3</title>
<g id="a_Node000003"><a xlink:href="$d9/d10/classcppgc_1_1HeapHandle.html" xlink:title=" ">
<polygon fill="white" stroke="none" points="112,-188 0,-188 0,-120 112,-120 112,-188"/>
<text text-anchor="start" x="5" y="-174.5" font-family="Cascadia Code NF" font-size="10.00">cppgc::HeapHandle</text>
<text text-anchor="start" x="53" y="-158.5" font-family="Cascadia Code NF" font-size="10.00"> </text>
<text text-anchor="start" x="9.5" y="-142.5" font-family="Cascadia Code NF" font-size="10.00">+</text>
<text text-anchor="start" x="25" y="-142.5" font-family="Cascadia Code NF" font-size="10.00">HeapHandle()</text>
<text text-anchor="start" x="9.5" y="-126.5" font-family="Cascadia Code NF" font-size="10.00">+</text>
<text text-anchor="start" x="25" y="-126.5" font-family="Cascadia Code NF" font-size="10.00">operator=()</text>
<polygon fill="#666666" stroke="#666666" points="0,-170 0,-170 112,-170 112,-170 0,-170"/>
<polygon fill="#666666" stroke="#666666" points="0,-154 0,-154 112,-154 112,-154 0,-154"/>
<polygon fill="none" stroke="#666666" points="0,-120 0,-188 112,-188 112,-120 0,-120"/>
</a>
</g>
</g>
<!-- Node3&#45;&gt;Node2 -->
<g id="edge2_Node000002_Node000003" class="edge">
<title>Node3&#45;&gt;Node2</title>
<g id="a_edge2_Node000002_Node000003"><a xlink:title=" ">
<path fill="none" stroke="#63b8ff" d="M111.8,-154C143.1,-154 183.17,-154 219.15,-154"/>
<polygon fill="none" stroke="#63b8ff" points="219.3,-154 225.3,-150 231.3,-154 225.3,-158 219.3,-154"/>
</a>
</g>
<text text-anchor="middle" x="172" y="-157.25" font-family="Cascadia Code NF" font-size="10.00" fill="grey"> #heap_handle_</text>
</g>
</g>
</svg>
