<?xml version="1.0" encoding="UTF-8" standalone="no"?>
<!DOCTYPE svg PUBLIC "-//W3C//DTD SVG 1.1//EN"
 "http://www.w3.org/Graphics/SVG/1.1/DTD/svg11.dtd">
<!-- Generated by graphviz version 11.0.0 (20240428.1522)
 -->
<!-- Title: v8::internal::SafepointTable Pages: 1 -->
<svg width="186pt" height="236pt"
 viewBox="0.00 0.00 186.00 236.00" xmlns="http://www.w3.org/2000/svg" xmlns:xlink="http://www.w3.org/1999/xlink">
<g id="graph0" class="graph" transform="scale(1 1) rotate(0) translate(4 232)">
<title>v8::internal::SafepointTable</title>
<!-- Node1 -->
<g id="Node000001" class="node">
<title>Node1</title>
<g id="a_Node000001"><a xlink:title=" ">
<polygon fill="#999999" stroke="none" points="178,-228 0,-228 0,0 178,0 178,-228"/>
<text text-anchor="start" x="5" y="-214.5" font-family="Cascadia Code NF" font-size="10.00">v8::internal::SafepointTable</text>
<text text-anchor="start" x="86" y="-198.5" font-family="Cascadia Code NF" font-size="10.00"> </text>
<text text-anchor="start" x="20" y="-182.5" font-family="Cascadia Code NF" font-size="10.00">+</text>
<text text-anchor="start" x="46" y="-182.5" font-family="Cascadia Code NF" font-size="10.00">SafepointTable()</text>
<text text-anchor="start" x="20" y="-166.5" font-family="Cascadia Code NF" font-size="10.00">+</text>
<text text-anchor="start" x="46" y="-166.5" font-family="Cascadia Code NF" font-size="10.00">SafepointTable()</text>
<text text-anchor="start" x="20" y="-150.5" font-family="Cascadia Code NF" font-size="10.00">+</text>
<text text-anchor="start" x="46" y="-150.5" font-family="Cascadia Code NF" font-size="10.00">SafepointTable()</text>
<text text-anchor="start" x="20" y="-134.5" font-family="Cascadia Code NF" font-size="10.00">+</text>
<text text-anchor="start" x="46" y="-134.5" font-family="Cascadia Code NF" font-size="10.00">operator=()</text>
<text text-anchor="start" x="20" y="-118.5" font-family="Cascadia Code NF" font-size="10.00">+</text>
<text text-anchor="start" x="46" y="-118.5" font-family="Cascadia Code NF" font-size="10.00">length()</text>
<text text-anchor="start" x="20" y="-102.5" font-family="Cascadia Code NF" font-size="10.00">+</text>
<text text-anchor="start" x="46" y="-102.5" font-family="Cascadia Code NF" font-size="10.00">byte_size()</text>
<text text-anchor="start" x="20" y="-86.5" font-family="Cascadia Code NF" font-size="10.00">+</text>
<text text-anchor="start" x="46" y="-86.5" font-family="Cascadia Code NF" font-size="10.00">find_return_pc()</text>
<text text-anchor="start" x="20" y="-70.5" font-family="Cascadia Code NF" font-size="10.00">+</text>
<text text-anchor="start" x="46" y="-70.5" font-family="Cascadia Code NF" font-size="10.00">GetEntry()</text>
<text text-anchor="start" x="20" y="-54.5" font-family="Cascadia Code NF" font-size="10.00">+</text>
<text text-anchor="start" x="46" y="-54.5" font-family="Cascadia Code NF" font-size="10.00">FindEntry()</text>
<text text-anchor="start" x="20" y="-38.5" font-family="Cascadia Code NF" font-size="10.00">+</text>
<text text-anchor="start" x="46" y="-38.5" font-family="Cascadia Code NF" font-size="10.00">TryFindEntry()</text>
<text text-anchor="start" x="20" y="-22.5" font-family="Cascadia Code NF" font-size="10.00">+</text>
<text text-anchor="start" x="46" y="-22.5" font-family="Cascadia Code NF" font-size="10.00">Print()</text>
<text text-anchor="start" x="20" y="-6.5" font-family="Cascadia Code NF" font-size="10.00">+</text>
<text text-anchor="start" x="46" y="-6.5" font-family="Cascadia Code NF" font-size="10.00">FindEntry()</text>
<polygon fill="#666666" stroke="#666666" points="0,-210 0,-210 178,-210 178,-210 0,-210"/>
<polygon fill="#666666" stroke="#666666" points="0,-194 0,-194 178,-194 178,-194 0,-194"/>
<polygon fill="none" stroke="#666666" points="0,0 0,-228 178,-228 178,0 0,0"/>
</a>
</g>
</g>
</g>
</svg>
