<?xml version="1.0" encoding="UTF-8" standalone="no"?>
<!DOCTYPE svg PUBLIC "-//W3C//DTD SVG 1.1//EN"
 "http://www.w3.org/Graphics/SVG/1.1/DTD/svg11.dtd">
<!-- Generated by graphviz version 11.0.0 (20240428.1522)
 -->
<!-- Title: v8::internal::Smi Pages: 1 -->
<svg width="450pt" height="233pt"
 viewBox="0.00 0.00 450.00 233.00" xmlns="http://www.w3.org/2000/svg" xmlns:xlink="http://www.w3.org/1999/xlink">
<g id="graph0" class="graph" transform="scale(1 1) rotate(0) translate(4 229)">
<title>v8::internal::Smi</title>
<!-- Node1 -->
<g id="Node000001" class="node">
<title>Node1</title>
<g id="a_Node000001"><a xlink:title=" ">
<polygon fill="#999999" stroke="none" points="442,-225 250,-225 250,0 442,0 442,-225"/>
<text text-anchor="start" x="295" y="-211.5" font-family="Cascadia Code NF" font-size="10.00">v8::internal::Smi</text>
<text text-anchor="start" x="343" y="-195.5" font-family="Cascadia Code NF" font-size="10.00"> </text>
<text text-anchor="start" x="254" y="-179.5" font-family="Cascadia Code NF" font-size="10.00">+</text>
<text text-anchor="start" x="264" y="-179.5" font-family="Cascadia Code NF" font-size="10.00">ToUint32Smi()</text>
<text text-anchor="start" x="254" y="-163.5" font-family="Cascadia Code NF" font-size="10.00">+</text>
<text text-anchor="start" x="264" y="-163.5" font-family="Cascadia Code NF" font-size="10.00">ToInt()</text>
<text text-anchor="start" x="254" y="-147.5" font-family="Cascadia Code NF" font-size="10.00">+</text>
<text text-anchor="start" x="264" y="-147.5" font-family="Cascadia Code NF" font-size="10.00">FromInt()</text>
<text text-anchor="start" x="254" y="-131.5" font-family="Cascadia Code NF" font-size="10.00">+</text>
<text text-anchor="start" x="264" y="-131.5" font-family="Cascadia Code NF" font-size="10.00">FromIntptr()</text>
<text text-anchor="start" x="254" y="-115.5" font-family="Cascadia Code NF" font-size="10.00">+</text>
<text text-anchor="start" x="264" y="-115.5" font-family="Cascadia Code NF" font-size="10.00">From31BitPattern()</text>
<text text-anchor="start" x="254" y="-99.5" font-family="Cascadia Code NF" font-size="10.00">+</text>
<text text-anchor="start" x="264" y="-99.5" font-family="Cascadia Code NF" font-size="10.00">FromEnum()</text>
<text text-anchor="start" x="254" y="-83.5" font-family="Cascadia Code NF" font-size="10.00">+</text>
<text text-anchor="start" x="264" y="-83.5" font-family="Cascadia Code NF" font-size="10.00">IsValid()</text>
<text text-anchor="start" x="254" y="-67.5" font-family="Cascadia Code NF" font-size="10.00">+</text>
<text text-anchor="start" x="264" y="-67.5" font-family="Cascadia Code NF" font-size="10.00">LexicographicCompare()</text>
<text text-anchor="start" x="254" y="-51.5" font-family="Cascadia Code NF" font-size="10.00">+</text>
<text text-anchor="start" x="264" y="-51.5" font-family="Cascadia Code NF" font-size="10.00">SmiPrint()</text>
<text text-anchor="start" x="254" y="-35.5" font-family="Cascadia Code NF" font-size="10.00">+</text>
<text text-anchor="start" x="264" y="-35.5" font-family="Cascadia Code NF" font-size="10.00">zero()</text>
<text text-anchor="start" x="254" y="-19.5" font-family="Cascadia Code NF" font-size="10.00">+</text>
<text text-anchor="start" x="264" y="-19.5" font-family="Cascadia Code NF" font-size="10.00">uninitialized_deserialization</text>
<text text-anchor="start" x="264" y="-6.75" font-family="Cascadia Code NF" font-size="10.00">_value()</text>
<polygon fill="#666666" stroke="#666666" points="250,-207 250,-207 442,-207 442,-207 250,-207"/>
<polygon fill="#666666" stroke="#666666" points="250,-191 250,-191 442,-191 442,-191 250,-191"/>
<polygon fill="none" stroke="#666666" points="250,0 250,-225 442,-225 442,0 250,0"/>
</a>
</g>
</g>
<!-- Node2 -->
<g id="Node000002" class="node">
<title>Node2</title>
<g id="a_Node000002"><a xlink:href="$dd/da7/classv8_1_1internal_1_1AllStatic.html" xlink:title=" ">
<polygon fill="white" stroke="none" points="148,-173.5 0,-173.5 0,-121.5 148,-121.5 148,-173.5"/>
<text text-anchor="start" x="5" y="-160" font-family="Cascadia Code NF" font-size="10.00">v8::internal::AllStatic</text>
<text text-anchor="start" x="71" y="-144" font-family="Cascadia Code NF" font-size="10.00"> </text>
<text text-anchor="start" x="71" y="-128" font-family="Cascadia Code NF" font-size="10.00"> </text>
<polygon fill="#bfbfbf" stroke="#bfbfbf" points="0,-155.5 0,-155.5 148,-155.5 148,-155.5 0,-155.5"/>
<polygon fill="#bfbfbf" stroke="#bfbfbf" points="0,-139.5 0,-139.5 148,-139.5 148,-139.5 0,-139.5"/>
<polygon fill="none" stroke="#bfbfbf" points="0,-121.5 0,-173.5 148,-173.5 148,-121.5 0,-121.5"/>
</a>
</g>
</g>
<!-- Node2&#45;&gt;Node1 -->
<g id="edge1_Node000001_Node000002" class="edge">
<title>Node2&#45;&gt;Node1</title>
<g id="a_edge1_Node000001_Node000002"><a xlink:title=" ">
<path fill="none" stroke="#63b8ff" d="M159,-136.61C187.86,-132.87 220.38,-128.65 250.05,-124.81"/>
<polygon fill="none" stroke="#63b8ff" points="158.68,-133.12 149.21,-137.88 159.58,-140.07 158.68,-133.12"/>
</a>
</g>
</g>
<!-- Node3 -->
<g id="Node000003" class="node">
<title>Node3</title>
<g id="a_Node000003"><a xlink:href="$d1/da0/classint.html" xlink:title=" ">
<polygon fill="white" stroke="none" points="88,-103.5 60,-103.5 60,-51.5 88,-51.5 88,-103.5"/>
<text text-anchor="start" x="65" y="-90" font-family="Cascadia Code NF" font-size="10.00">int</text>
<text text-anchor="start" x="71" y="-74" font-family="Cascadia Code NF" font-size="10.00"> </text>
<text text-anchor="start" x="71" y="-58" font-family="Cascadia Code NF" font-size="10.00"> </text>
<polygon fill="#bfbfbf" stroke="#bfbfbf" points="60,-85.5 60,-85.5 88,-85.5 88,-85.5 60,-85.5"/>
<polygon fill="#bfbfbf" stroke="#bfbfbf" points="60,-69.5 60,-69.5 88,-69.5 88,-69.5 60,-69.5"/>
<polygon fill="none" stroke="#bfbfbf" points="60,-51.5 60,-103.5 88,-103.5 88,-51.5 60,-51.5"/>
</a>
</g>
</g>
<!-- Node3&#45;&gt;Node1 -->
<g id="edge2_Node000001_Node000003" class="edge">
<title>Node3&#45;&gt;Node1</title>
<g id="a_edge2_Node000001_Node000003"><a xlink:title=" ">
<path fill="none" stroke="#63b8ff" d="M87.66,-79.14C114.52,-82.62 179.49,-91.05 237.43,-98.56"/>
<polygon fill="none" stroke="#63b8ff" points="237.25,-98.53 243.72,-95.34 249.16,-100.08 242.69,-103.27 237.25,-98.53"/>
</a>
</g>
<text text-anchor="middle" x="199" y="-112.5" font-family="Cascadia Code NF" font-size="10.00" fill="grey"> +kMaxValue</text>
<text text-anchor="middle" x="199" y="-99.75" font-family="Cascadia Code NF" font-size="10.00" fill="grey">+kMinValue</text>
</g>
</g>
</svg>
