<?xml version="1.0" encoding="UTF-8" standalone="no"?>
<!DOCTYPE svg PUBLIC "-//W3C//DTD SVG 1.1//EN"
 "http://www.w3.org/Graphics/SVG/1.1/DTD/svg11.dtd">
<!-- Generated by graphviz version 11.0.0 (20240428.1522)
 -->
<!-- Title: v8::internal::CustomArgumentsBase Pages: 1 -->
<svg width="468pt" height="220pt"
 viewBox="0.00 0.00 468.00 220.00" xmlns="http://www.w3.org/2000/svg" xmlns:xlink="http://www.w3.org/1999/xlink">
<g id="graph0" class="graph" transform="scale(1 1) rotate(0) translate(4 216)">
<title>v8::internal::CustomArgumentsBase</title>
<!-- Node1 -->
<g id="Node000001" class="node">
<title>Node1</title>
<g id="a_Node000001"><a xlink:title=" ">
<polygon fill="#999999" stroke="none" points="460,-132 252,-132 252,-80 460,-80 460,-132"/>
<text text-anchor="start" x="257" y="-118.5" font-family="Cascadia Code NF" font-size="10.00">v8::internal::CustomArgumentsBase</text>
<text text-anchor="start" x="353" y="-102.5" font-family="Cascadia Code NF" font-size="10.00"> </text>
<text text-anchor="start" x="272" y="-86.5" font-family="Cascadia Code NF" font-size="10.00">#</text>
<text text-anchor="start" x="298" y="-86.5" font-family="Cascadia Code NF" font-size="10.00">CustomArgumentsBase()</text>
<polygon fill="#666666" stroke="#666666" points="252,-114 252,-114 460,-114 460,-114 252,-114"/>
<polygon fill="#666666" stroke="#666666" points="252,-98 252,-98 460,-98 460,-98 252,-98"/>
<polygon fill="none" stroke="#666666" points="252,-80 252,-132 460,-132 460,-80 252,-80"/>
</a>
</g>
</g>
<!-- Node2 -->
<g id="Node000002" class="node">
<title>Node2</title>
<g id="a_Node000002"><a xlink:href="../../da/d4f/classv8_1_1internal_1_1Relocatable.html" target="_top" xlink:title=" ">
<polygon fill="white" stroke="none" points="216,-212 0,-212 0,0 216,0 216,-212"/>
<text text-anchor="start" x="33" y="-198.5" font-family="Cascadia Code NF" font-size="10.00">v8::internal::Relocatable</text>
<text text-anchor="start" x="105" y="-182.5" font-family="Cascadia Code NF" font-size="10.00"> </text>
<text text-anchor="start" x="4" y="-166.5" font-family="Cascadia Code NF" font-size="10.00">+</text>
<text text-anchor="start" x="14" y="-166.5" font-family="Cascadia Code NF" font-size="10.00">Relocatable()</text>
<text text-anchor="start" x="4" y="-150.5" font-family="Cascadia Code NF" font-size="10.00">+</text>
<text text-anchor="start" x="14" y="-150.5" font-family="Cascadia Code NF" font-size="10.00">~Relocatable()</text>
<text text-anchor="start" x="4" y="-134.5" font-family="Cascadia Code NF" font-size="10.00">+</text>
<text text-anchor="start" x="14" y="-134.5" font-family="Cascadia Code NF" font-size="10.00">IterateInstance()</text>
<text text-anchor="start" x="4" y="-118.5" font-family="Cascadia Code NF" font-size="10.00">+</text>
<text text-anchor="start" x="14" y="-118.5" font-family="Cascadia Code NF" font-size="10.00">PostGarbageCollection()</text>
<text text-anchor="start" x="4" y="-102.5" font-family="Cascadia Code NF" font-size="10.00">+</text>
<text text-anchor="start" x="14" y="-102.5" font-family="Cascadia Code NF" font-size="10.00">PostGarbageCollectionProcessing()</text>
<text text-anchor="start" x="4" y="-86.5" font-family="Cascadia Code NF" font-size="10.00">+</text>
<text text-anchor="start" x="14" y="-86.5" font-family="Cascadia Code NF" font-size="10.00">ArchiveSpacePerThread()</text>
<text text-anchor="start" x="4" y="-70.5" font-family="Cascadia Code NF" font-size="10.00">+</text>
<text text-anchor="start" x="14" y="-70.5" font-family="Cascadia Code NF" font-size="10.00">ArchiveState()</text>
<text text-anchor="start" x="4" y="-54.5" font-family="Cascadia Code NF" font-size="10.00">+</text>
<text text-anchor="start" x="14" y="-54.5" font-family="Cascadia Code NF" font-size="10.00">RestoreState()</text>
<text text-anchor="start" x="4" y="-38.5" font-family="Cascadia Code NF" font-size="10.00">+</text>
<text text-anchor="start" x="14" y="-38.5" font-family="Cascadia Code NF" font-size="10.00">Iterate()</text>
<text text-anchor="start" x="4" y="-22.5" font-family="Cascadia Code NF" font-size="10.00">+</text>
<text text-anchor="start" x="14" y="-22.5" font-family="Cascadia Code NF" font-size="10.00">Iterate()</text>
<text text-anchor="start" x="4" y="-6.5" font-family="Cascadia Code NF" font-size="10.00">+</text>
<text text-anchor="start" x="14" y="-6.5" font-family="Cascadia Code NF" font-size="10.00">Iterate()</text>
<polygon fill="#bfbfbf" stroke="#bfbfbf" points="0,-194 0,-194 216,-194 216,-194 0,-194"/>
<polygon fill="#bfbfbf" stroke="#bfbfbf" points="0,-178 0,-178 216,-178 216,-178 0,-178"/>
<polygon fill="none" stroke="#bfbfbf" points="0,0 0,-212 216,-212 216,0 0,0"/>
</a>
</g>
</g>
<!-- Node2&#45;&gt;Node1 -->
<g id="edge1_Node000001_Node000002" class="edge">
<title>Node2&#45;&gt;Node1</title>
<g id="a_edge1_Node000001_Node000002"><a xlink:title=" ">
<path fill="none" stroke="#63b8ff" d="M227.18,-106C235.53,-106 243.91,-106 252.16,-106"/>
<polygon fill="none" stroke="#63b8ff" points="227.34,-102.5 217.34,-106 227.34,-109.5 227.34,-102.5"/>
</a>
</g>
</g>
</g>
</svg>
