<?xml version="1.0" encoding="UTF-8" standalone="no"?>
<!DOCTYPE svg PUBLIC "-//W3C//DTD SVG 1.1//EN"
 "http://www.w3.org/Graphics/SVG/1.1/DTD/svg11.dtd">
<!-- Generated by graphviz version 11.0.0 (20240428.1522)
 -->
<!-- Title: v8::internal::torque::ls::JsonGrammar Pages: 1 -->
<!--zoomable 652 -->

<svg id="main" version="1.1" xmlns="http://www.w3.org/2000/svg" xmlns:xlink="http://www.w3.org/1999/xlink" xml:space="preserve" onload="init(evt)">
<style type="text/css"><![CDATA[
.node, .edge {opacity: 0.7;}
.node.selected, .edge.selected {opacity: 1;}
.edge:hover path { stroke: red; }
.edge:hover polygon { stroke: red; fill: red; }
svg#main { background-color: #111; }
]]></style>

<defs>
  <circle id="rim" cx="0" cy="0" r="7"/>
  <circle id="rim2" cx="0" cy="0" r="3.5"/>
  <g id="zoomPlus">
    <use xlink:href="#rim" fill="#404040"><set attributeName="fill" to="#808080" begin="zoomplus.mouseover" end="zoomplus.mouseout"/></use>
    <path d="M-4,0h8M0,-4v8" fill="none" stroke="white" stroke-width="1.5" pointer-events="none"/>
  </g>
  <g id="zoomMin">
    <use xlink:href="#rim" fill="#404040"><set attributeName="fill" to="#808080" begin="zoomminus.mouseover" end="zoomminus.mouseout"/></use>
    <path d="M-4,0h8" fill="none" stroke="white" stroke-width="1.5" pointer-events="none"/>
  </g>
  <g id="arrowUp" transform="translate(30 24)">
    <use xlink:href="#rim"/>
    <path pointer-events="none" fill="none" stroke="white" stroke-width="1.5" d="M0,-3.0v7 M-2.5,-0.5L0,-3.0L2.5,-0.5"/>
  </g>
  <g id="arrowRight" transform="rotate(90) translate(36 -43)">
    <use xlink:href="#rim"/>
    <path pointer-events="none" fill="none" stroke="white" stroke-width="1.5" d="M0,-3.0v7 M-2.5,-0.5L0,-3.0L2.5,-0.5"/>
  </g>
  <g id="arrowDown" transform="rotate(180) translate(-30 -48)">
    <use xlink:href="#rim"/>
    <path pointer-events="none" fill="none" stroke="white" stroke-width="1.5" d="M0,-3.0v7 M-2.5,-0.5L0,-3.0L2.5,-0.5"/>
  </g>
  <g id="arrowLeft" transform="rotate(270) translate(-36 17)">
    <use xlink:href="#rim"/>
    <path pointer-events="none" fill="none" stroke="white" stroke-width="1.5" d="M0,-3.0v7 M-2.5,-0.5L0,-3.0L2.5,-0.5"/>
  </g>
  <g id="resetDef">
    <use xlink:href="#rim2" fill="#404040"><set attributeName="fill" to="#808080" begin="reset.mouseover" end="reset.mouseout"/></use>
  </g>
</defs>
<script type="application/ecmascript">
var viewWidth = 420;
var viewHeight = 652;
var sectionId = 'dynsection-1';
</script>
<script type="application/ecmascript" xlink:href="../../svg.min.js"/>
<svg id="graph" class="graph">
<g id="viewport">
<title>v8::internal::torque::ls::JsonGrammar</title>
<!-- Node1 -->
<g id="Node000001" class="node">
<title>Node1</title>
<g id="a_Node000001"><a xlink:title=" ">
<polygon fill="#999999" stroke="none" points="412,-310 282,-310 282,-229 412,-229 412,-310"/>
<text text-anchor="start" x="287" y="-296.5" font-family="Cascadia Code NF" font-size="10.00">v8::internal::torque</text>
<text text-anchor="start" x="296" y="-283.75" font-family="Cascadia Code NF" font-size="10.00">::ls::JsonGrammar</text>
<text text-anchor="start" x="294.5" y="-267.5" font-family="Cascadia Code NF" font-size="10.00">+</text>
<text text-anchor="start" x="313" y="-267.5" font-family="Cascadia Code NF" font-size="10.00">trueLiteral</text>
<text text-anchor="start" x="294.5" y="-251.5" font-family="Cascadia Code NF" font-size="10.00">+</text>
<text text-anchor="start" x="313" y="-251.5" font-family="Cascadia Code NF" font-size="10.00">value</text>
<text text-anchor="start" x="294.5" y="-235.5" font-family="Cascadia Code NF" font-size="10.00">+</text>
<text text-anchor="start" x="313" y="-235.5" font-family="Cascadia Code NF" font-size="10.00">JsonGrammar()</text>
<polygon fill="#666666" stroke="#666666" points="282,-279 282,-279 412,-279 412,-279 282,-279"/>
<polygon fill="#666666" stroke="#666666" points="282,-247 282,-247 311,-247 311,-247 282,-247"/>
<polygon fill="#666666" stroke="#666666" points="311,-247 311,-247 412,-247 412,-247 311,-247"/>
<polygon fill="none" stroke="#666666" points="282,-229 282,-310 412,-310 412,-229 282,-229"/>
</a>
</g>
</g>
<!-- Node2 -->
<g id="Node000002" class="node">
<title>Node2</title>
<g id="a_Node000002"><a xlink:href="../../db/d09/classv8_1_1internal_1_1torque_1_1Grammar.html" target="_top" xlink:title=" ">
<polygon fill="white" stroke="none" points="156,-644 0,-644 0,-227 156,-227 156,-644"/>
<text text-anchor="start" x="18" y="-630.5" font-family="Cascadia Code NF" font-size="10.00">v8::internal::torque</text>
<text text-anchor="start" x="51" y="-617.75" font-family="Cascadia Code NF" font-size="10.00">::Grammar</text>
<text text-anchor="start" x="75" y="-601.5" font-family="Cascadia Code NF" font-size="10.00"> </text>
<text text-anchor="start" x="4" y="-585.5" font-family="Cascadia Code NF" font-size="10.00">+</text>
<text text-anchor="start" x="14" y="-585.5" font-family="Cascadia Code NF" font-size="10.00">Grammar()</text>
<text text-anchor="start" x="4" y="-569.5" font-family="Cascadia Code NF" font-size="10.00">+</text>
<text text-anchor="start" x="14" y="-569.5" font-family="Cascadia Code NF" font-size="10.00">Parse()</text>
<text text-anchor="start" x="4" y="-553.5" font-family="Cascadia Code NF" font-size="10.00">#</text>
<text text-anchor="start" x="14" y="-553.5" font-family="Cascadia Code NF" font-size="10.00">Token()</text>
<text text-anchor="start" x="4" y="-537.5" font-family="Cascadia Code NF" font-size="10.00">#</text>
<text text-anchor="start" x="14" y="-537.5" font-family="Cascadia Code NF" font-size="10.00">Pattern()</text>
<text text-anchor="start" x="4" y="-521.5" font-family="Cascadia Code NF" font-size="10.00">#</text>
<text text-anchor="start" x="14" y="-521.5" font-family="Cascadia Code NF" font-size="10.00">SetWhitespace()</text>
<text text-anchor="start" x="4" y="-505.5" font-family="Cascadia Code NF" font-size="10.00">#</text>
<text text-anchor="start" x="14" y="-505.5" font-family="Cascadia Code NF" font-size="10.00">NewSymbol()</text>
<text text-anchor="start" x="4" y="-489.5" font-family="Cascadia Code NF" font-size="10.00">#</text>
<text text-anchor="start" x="14" y="-489.5" font-family="Cascadia Code NF" font-size="10.00">Sequence()</text>
<text text-anchor="start" x="4" y="-473.5" font-family="Cascadia Code NF" font-size="10.00">#</text>
<text text-anchor="start" x="14" y="-473.5" font-family="Cascadia Code NF" font-size="10.00">TryOrDefault()</text>
<text text-anchor="start" x="4" y="-457.5" font-family="Cascadia Code NF" font-size="10.00">#</text>
<text text-anchor="start" x="14" y="-457.5" font-family="Cascadia Code NF" font-size="10.00">NonemptyList()</text>
<text text-anchor="start" x="4" y="-441.5" font-family="Cascadia Code NF" font-size="10.00">#</text>
<text text-anchor="start" x="14" y="-441.5" font-family="Cascadia Code NF" font-size="10.00">List()</text>
<text text-anchor="start" x="4" y="-425.5" font-family="Cascadia Code NF" font-size="10.00">#</text>
<text text-anchor="start" x="14" y="-425.5" font-family="Cascadia Code NF" font-size="10.00">Optional()</text>
<text text-anchor="start" x="4" y="-409.5" font-family="Cascadia Code NF" font-size="10.00">#</text>
<text text-anchor="start" x="14" y="-409.5" font-family="Cascadia Code NF" font-size="10.00">CheckIf()</text>
<text text-anchor="start" x="4" y="-393.5" font-family="Cascadia Code NF" font-size="10.00">#</text>
<text text-anchor="start" x="14" y="-393.5" font-family="Cascadia Code NF" font-size="10.00">lexer()</text>
<text text-anchor="start" x="4" y="-377.5" font-family="Cascadia Code NF" font-size="10.00">#</text>
<text text-anchor="start" x="14" y="-377.5" font-family="Cascadia Code NF" font-size="10.00">MatchChar()</text>
<text text-anchor="start" x="4" y="-361.5" font-family="Cascadia Code NF" font-size="10.00">#</text>
<text text-anchor="start" x="14" y="-361.5" font-family="Cascadia Code NF" font-size="10.00">MatchChar()</text>
<text text-anchor="start" x="4" y="-345.5" font-family="Cascadia Code NF" font-size="10.00">#</text>
<text text-anchor="start" x="14" y="-345.5" font-family="Cascadia Code NF" font-size="10.00">MatchAnyChar()</text>
<text text-anchor="start" x="4" y="-329.5" font-family="Cascadia Code NF" font-size="10.00">#</text>
<text text-anchor="start" x="14" y="-329.5" font-family="Cascadia Code NF" font-size="10.00">MatchString()</text>
<text text-anchor="start" x="4" y="-313.5" font-family="Cascadia Code NF" font-size="10.00">#</text>
<text text-anchor="start" x="14" y="-313.5" font-family="Cascadia Code NF" font-size="10.00">YieldMatchedInput()</text>
<text text-anchor="start" x="4" y="-297.5" font-family="Cascadia Code NF" font-size="10.00">#</text>
<text text-anchor="start" x="14" y="-297.5" font-family="Cascadia Code NF" font-size="10.00">YieldIntegralConstant()</text>
<text text-anchor="start" x="4" y="-281.5" font-family="Cascadia Code NF" font-size="10.00">#</text>
<text text-anchor="start" x="14" y="-281.5" font-family="Cascadia Code NF" font-size="10.00">YieldDefaultValue()</text>
<text text-anchor="start" x="4" y="-265.5" font-family="Cascadia Code NF" font-size="10.00">#</text>
<text text-anchor="start" x="14" y="-265.5" font-family="Cascadia Code NF" font-size="10.00">CastParseResult()</text>
<text text-anchor="start" x="4" y="-249.5" font-family="Cascadia Code NF" font-size="10.00">#</text>
<text text-anchor="start" x="14" y="-249.5" font-family="Cascadia Code NF" font-size="10.00">MakeSingletonVector()</text>
<text text-anchor="start" x="4" y="-233.5" font-family="Cascadia Code NF" font-size="10.00">#</text>
<text text-anchor="start" x="14" y="-233.5" font-family="Cascadia Code NF" font-size="10.00">MakeExtendedVector()</text>
<polygon fill="#bfbfbf" stroke="#bfbfbf" points="0,-613 0,-613 156,-613 156,-613 0,-613"/>
<polygon fill="#bfbfbf" stroke="#bfbfbf" points="0,-597 0,-597 156,-597 156,-597 0,-597"/>
<polygon fill="none" stroke="#bfbfbf" points="0,-227 0,-644 156,-644 156,-227 0,-227"/>
</a>
</g>
</g>
<!-- Node2&#45;&gt;Node1 -->
<g id="edge1_Node000001_Node000002" class="edge">
<title>Node2&#45;&gt;Node1</title>
<g id="a_edge1_Node000001_Node000002"><a xlink:title=" ">
<path fill="none" stroke="#63b8ff" d="M166.56,-408.6C198.81,-396.42 234.61,-380.08 264,-359.5 283.57,-345.8 301.84,-326.66 316.14,-309.55"/>
<polygon fill="none" stroke="#63b8ff" points="165.37,-405.31 157.19,-412.05 167.79,-411.88 165.37,-405.31"/>
</a>
</g>
</g>
<!-- Node3 -->
<g id="Node000003" class="node">
<title>Node3</title>
<g id="a_Node000003"><a xlink:href="../../d4/d9e/classv8_1_1internal_1_1torque_1_1Symbol.html" target="_top" xlink:title=" ">
<polygon fill="white" stroke="none" points="143,-209 13,-209 13,0 143,0 143,-209"/>
<text text-anchor="start" x="18" y="-195.5" font-family="Cascadia Code NF" font-size="10.00">v8::internal::torque</text>
<text text-anchor="start" x="54" y="-182.75" font-family="Cascadia Code NF" font-size="10.00">::Symbol</text>
<text text-anchor="start" x="75" y="-166.5" font-family="Cascadia Code NF" font-size="10.00"> </text>
<text text-anchor="start" x="25.5" y="-150.5" font-family="Cascadia Code NF" font-size="10.00">+</text>
<text text-anchor="start" x="44" y="-150.5" font-family="Cascadia Code NF" font-size="10.00">Symbol()</text>
<text text-anchor="start" x="25.5" y="-134.5" font-family="Cascadia Code NF" font-size="10.00">+</text>
<text text-anchor="start" x="44" y="-134.5" font-family="Cascadia Code NF" font-size="10.00">Symbol()</text>
<text text-anchor="start" x="25.5" y="-118.5" font-family="Cascadia Code NF" font-size="10.00">+</text>
<text text-anchor="start" x="44" y="-118.5" font-family="Cascadia Code NF" font-size="10.00">Symbol()</text>
<text text-anchor="start" x="25.5" y="-102.5" font-family="Cascadia Code NF" font-size="10.00">+</text>
<text text-anchor="start" x="44" y="-102.5" font-family="Cascadia Code NF" font-size="10.00">operator=()</text>
<text text-anchor="start" x="25.5" y="-86.5" font-family="Cascadia Code NF" font-size="10.00">+</text>
<text text-anchor="start" x="44" y="-86.5" font-family="Cascadia Code NF" font-size="10.00">operator=()</text>
<text text-anchor="start" x="25.5" y="-70.5" font-family="Cascadia Code NF" font-size="10.00">+</text>
<text text-anchor="start" x="44" y="-70.5" font-family="Cascadia Code NF" font-size="10.00">IsTerminal()</text>
<text text-anchor="start" x="25.5" y="-54.5" font-family="Cascadia Code NF" font-size="10.00">+</text>
<text text-anchor="start" x="44" y="-54.5" font-family="Cascadia Code NF" font-size="10.00">rule()</text>
<text text-anchor="start" x="25.5" y="-38.5" font-family="Cascadia Code NF" font-size="10.00">+</text>
<text text-anchor="start" x="44" y="-38.5" font-family="Cascadia Code NF" font-size="10.00">rule_number()</text>
<text text-anchor="start" x="25.5" y="-22.5" font-family="Cascadia Code NF" font-size="10.00">+</text>
<text text-anchor="start" x="44" y="-22.5" font-family="Cascadia Code NF" font-size="10.00">AddRule()</text>
<text text-anchor="start" x="25.5" y="-6.5" font-family="Cascadia Code NF" font-size="10.00">+</text>
<text text-anchor="start" x="44" y="-6.5" font-family="Cascadia Code NF" font-size="10.00">RunAction()</text>
<polygon fill="#bfbfbf" stroke="#bfbfbf" points="13,-178 13,-178 143,-178 143,-178 13,-178"/>
<polygon fill="#bfbfbf" stroke="#bfbfbf" points="13,-162 13,-162 143,-162 143,-162 13,-162"/>
<polygon fill="none" stroke="#bfbfbf" points="13,0 13,-209 143,-209 143,0 13,0"/>
</a>
</g>
</g>
<!-- Node3&#45;&gt;Node1 -->
<g id="edge2_Node000001_Node000003" class="edge">
<title>Node3&#45;&gt;Node1</title>
<g id="a_edge2_Node000001_Node000003"><a xlink:title=" ">
<path fill="none" stroke="#63b8ff" d="M142.95,-144.02C181.53,-167.86 230.86,-198.35 271.24,-223.3"/>
<polygon fill="none" stroke="#63b8ff" points="271.13,-223.23 278.34,-222.98 281.34,-229.54 274.13,-229.79 271.13,-223.23"/>
</a>
</g>
<text text-anchor="middle" x="219" y="-346.25" font-family="Cascadia Code NF" font-size="10.00" fill="grey"> +array</text>
<text text-anchor="middle" x="219" y="-333.5" font-family="Cascadia Code NF" font-size="10.00" fill="grey">+decimalLiteral</text>
<text text-anchor="middle" x="219" y="-320.75" font-family="Cascadia Code NF" font-size="10.00" fill="grey">+elementList</text>
<text text-anchor="middle" x="219" y="-308" font-family="Cascadia Code NF" font-size="10.00" fill="grey">+falseLiteral</text>
<text text-anchor="middle" x="219" y="-295.25" font-family="Cascadia Code NF" font-size="10.00" fill="grey">+file</text>
<text text-anchor="middle" x="219" y="-282.5" font-family="Cascadia Code NF" font-size="10.00" fill="grey">+member</text>
<text text-anchor="middle" x="219" y="-269.75" font-family="Cascadia Code NF" font-size="10.00" fill="grey">+memberList</text>
<text text-anchor="middle" x="219" y="-257" font-family="Cascadia Code NF" font-size="10.00" fill="grey">+nullLiteral</text>
<text text-anchor="middle" x="219" y="-244.25" font-family="Cascadia Code NF" font-size="10.00" fill="grey">+object</text>
<text text-anchor="middle" x="219" y="-231.5" font-family="Cascadia Code NF" font-size="10.00" fill="grey">+stringLiteral</text>
<text text-anchor="middle" x="219" y="-218.75" font-family="Cascadia Code NF" font-size="10.00" fill="grey">...</text>
</g>
</g>
</svg>

<g id="navigator" transform="translate(0 0)" fill="#404254">
  <rect fill="#f2f5e9" fill-opacity="0.5" stroke="#606060" stroke-width=".5" x="0" y="0" width="60" height="60"/>
  <use id="zoomplus" xlink:href="#zoomPlus" x="17" y="9" onmousedown="handleZoom(evt,'in')"/>
  <use id="zoomminus" xlink:href="#zoomMin" x="42" y="9" onmousedown="handleZoom(evt,'out')"/>
  <use id="reset" xlink:href="#resetDef" x="30" y="36" onmousedown="handleReset()"/>
   <use id="arrowup" xlink:href="#arrowUp" x="0" y="0" onmousedown="handlePan(0,-1)"/>
  <use id="arrowright" xlink:href="#arrowRight" x="0" y="0" onmousedown="handlePan(1,0)"/>
  <use id="arrowdown" xlink:href="#arrowDown" x="0" y="0" onmousedown="handlePan(0,1)"/>
  <use id="arrowleft" xlink:href="#arrowLeft" x="0" y="0" onmousedown="handlePan(-1,0)"/>
</g>
<svg viewBox="0 0 15 15" width="100%" height="30px" preserveAspectRatio="xMaxYMin meet">
 <g id="arrow_out" transform="scale(0.3 0.3)">
  <a xlink:href="classv8_1_1internal_1_1torque_1_1ls_1_1JsonGrammar__coll__graph_org.svg" target="_base">
   <rect id="button" ry="5" rx="5" y="6" x="6" height="38" width="38"
        fill="#f2f5e9" fill-opacity="0.5" stroke="#606060" stroke-width="1.0"/>
   <path id="arrow"
     d="M 11.500037,31.436501 C 11.940474,20.09759 22.043105,11.32322 32.158766,21.979434 L 37.068811,17.246167 C 37.068811,17.246167 37.088388,32 37.088388,32 L 22.160133,31.978069 C 22.160133,31.978069 26.997745,27.140456 26.997745,27.140456 C 18.528582,18.264221 13.291696,25.230495 11.500037,31.436501 z"
     style="fill:#404040;"/>
  </a>
 </g>
</svg>

<style type='text/css'>
<![CDATA[
[data-mouse-over-selected='false'] { opacity: 0.7; }
[data-mouse-over-selected='true']  { opacity: 1.0; }
]]>
</style>
<script type="application/ecmascript"><![CDATA[
document.addEventListener('DOMContentLoaded', (event) => {
  highlightEdges();
  highlightAdjacentNodes();
});
]]></script>
</svg>
