<?xml version="1.0" encoding="UTF-8" standalone="no"?>
<!DOCTYPE svg PUBLIC "-//W3C//DTD SVG 1.1//EN"
 "http://www.w3.org/Graphics/SVG/1.1/DTD/svg11.dtd">
<!-- Generated by graphviz version 11.0.0 (20240428.1522)
 -->
<!-- Title: v8::internal::compiler::JSGraphAssembler::IfBuilder0 Pages: 1 -->
<svg width="198pt" height="185pt"
 viewBox="0.00 0.00 198.00 185.00" xmlns="http://www.w3.org/2000/svg" xmlns:xlink="http://www.w3.org/1999/xlink">
<g id="graph0" class="graph" transform="scale(1 1) rotate(0) translate(4 181)">
<title>v8::internal::compiler::JSGraphAssembler::IfBuilder0</title>
<!-- Node1 -->
<g id="Node000001" class="node">
<title>Node1</title>
<g id="a_Node000001"><a xlink:title=" ">
<polygon fill="#999999" stroke="none" points="190,-177 0,-177 0,0 190,0 190,-177"/>
<text text-anchor="start" x="5" y="-163.5" font-family="Cascadia Code NF" font-size="10.00">v8::internal::compiler</text>
<text text-anchor="start" x="5" y="-150.75" font-family="Cascadia Code NF" font-size="10.00">::JSGraphAssembler::IfBuilder0</text>
<text text-anchor="start" x="92" y="-134.5" font-family="Cascadia Code NF" font-size="10.00"> </text>
<text text-anchor="start" x="27.5" y="-118.5" font-family="Cascadia Code NF" font-size="10.00">+</text>
<text text-anchor="start" x="61" y="-118.5" font-family="Cascadia Code NF" font-size="10.00">IfBuilder0()</text>
<text text-anchor="start" x="27.5" y="-102.5" font-family="Cascadia Code NF" font-size="10.00">+</text>
<text text-anchor="start" x="61" y="-102.5" font-family="Cascadia Code NF" font-size="10.00">ExpectTrue()</text>
<text text-anchor="start" x="27.5" y="-86.5" font-family="Cascadia Code NF" font-size="10.00">+</text>
<text text-anchor="start" x="61" y="-86.5" font-family="Cascadia Code NF" font-size="10.00">ExpectFalse()</text>
<text text-anchor="start" x="27.5" y="-70.5" font-family="Cascadia Code NF" font-size="10.00">+</text>
<text text-anchor="start" x="61" y="-70.5" font-family="Cascadia Code NF" font-size="10.00">Then()</text>
<text text-anchor="start" x="27.5" y="-54.5" font-family="Cascadia Code NF" font-size="10.00">+</text>
<text text-anchor="start" x="61" y="-54.5" font-family="Cascadia Code NF" font-size="10.00">Else()</text>
<text text-anchor="start" x="27.5" y="-38.5" font-family="Cascadia Code NF" font-size="10.00">+</text>
<text text-anchor="start" x="61" y="-38.5" font-family="Cascadia Code NF" font-size="10.00">~IfBuilder0()</text>
<text text-anchor="start" x="27.5" y="-22.5" font-family="Cascadia Code NF" font-size="10.00">+</text>
<text text-anchor="start" x="61" y="-22.5" font-family="Cascadia Code NF" font-size="10.00">IfBuilder0()</text>
<text text-anchor="start" x="27.5" y="-6.5" font-family="Cascadia Code NF" font-size="10.00">+</text>
<text text-anchor="start" x="61" y="-6.5" font-family="Cascadia Code NF" font-size="10.00">operator=()</text>
<polygon fill="#666666" stroke="#666666" points="0,-146 0,-146 190,-146 190,-146 0,-146"/>
<polygon fill="#666666" stroke="#666666" points="0,-130 0,-130 190,-130 190,-130 0,-130"/>
<polygon fill="none" stroke="#666666" points="0,0 0,-177 190,-177 190,0 0,0"/>
</a>
</g>
</g>
</g>
</svg>
