<?xml version="1.0" encoding="UTF-8" standalone="no"?>
<!DOCTYPE svg PUBLIC "-//W3C//DTD SVG 1.1//EN"
 "http://www.w3.org/Graphics/SVG/1.1/DTD/svg11.dtd">
<!-- Generated by graphviz version 11.0.0 (20240428.1522)
 -->
<!-- Title: v8::internal::wasm::ValidateFunctionsStreamingJob Pages: 1 -->
<svg width="372pt" height="118pt"
 viewBox="0.00 0.00 372.00 118.00" xmlns="http://www.w3.org/2000/svg" xmlns:xlink="http://www.w3.org/1999/xlink">

<svg id="main" version="1.1" xmlns="http://www.w3.org/2000/svg" xmlns:xlink="http://www.w3.org/1999/xlink" xml:space="preserve" onload="init(evt)">
<style type="text/css"><![CDATA[
.node, .edge {opacity: 0.7;}
.node.selected, .edge.selected {opacity: 1;}
.edge:hover path { stroke: red; }
.edge:hover polygon { stroke: red; fill: red; }
svg#main { background-color: #111; }
]]></style>
<script type="application/ecmascript" xlink:href="../../svg.min.js"/>
<svg id="graph" class="graph">
<g id="graph0" class="graph" transform="scale(1 1) rotate(0) translate(4 114)">
<title>v8::internal::wasm::ValidateFunctionsStreamingJob</title>
<!-- Node1 -->
<g id="Node000001" class="node">
<title>Node1</title>
<g id="a_Node000001"><a xlink:title=" ">
<polygon fill="#999999" stroke="none" points="364,-110 168,-110 168,0 364,0 364,-110"/>
<text text-anchor="start" x="173" y="-96.5" font-family="Cascadia Code NF" font-size="10.00">v8::internal::wasm</text>
<text text-anchor="start" x="173" y="-83.75" font-family="Cascadia Code NF" font-size="10.00">::ValidateFunctionsStreamingJob</text>
<text text-anchor="start" x="263" y="-67.5" font-family="Cascadia Code NF" font-size="10.00"> </text>
<text text-anchor="start" x="177.5" y="-51.5" font-family="Cascadia Code NF" font-size="10.00">+</text>
<text text-anchor="start" x="193" y="-51.5" font-family="Cascadia Code NF" font-size="10.00">ValidateFunctionsStreaming</text>
<text text-anchor="start" x="193" y="-38.75" font-family="Cascadia Code NF" font-size="10.00">Job()</text>
<text text-anchor="start" x="177.5" y="-22.5" font-family="Cascadia Code NF" font-size="10.00">+</text>
<text text-anchor="start" x="193" y="-22.5" font-family="Cascadia Code NF" font-size="10.00">Run()</text>
<text text-anchor="start" x="177.5" y="-6.5" font-family="Cascadia Code NF" font-size="10.00">+</text>
<text text-anchor="start" x="193" y="-6.5" font-family="Cascadia Code NF" font-size="10.00">GetMaxConcurrency()</text>
<polygon fill="#666666" stroke="#666666" points="168,-79 168,-79 364,-79 364,-79 168,-79"/>
<polygon fill="#666666" stroke="#666666" points="168,-63 168,-63 364,-63 364,-63 168,-63"/>
<polygon fill="none" stroke="#666666" points="168,0 168,-110 364,-110 364,0 168,0"/>
</a>
</g>
</g>
<!-- Node2 -->
<g id="Node000002" class="node">
<title>Node2</title>
<g id="a_Node000002"><a xlink:href="../../db/db3/classv8_1_1JobTask.html" target="_top" xlink:title=" ">
<polygon fill="white" stroke="none" points="132,-97 0,-97 0,-13 132,-13 132,-97"/>
<text text-anchor="start" x="33" y="-83.5" font-family="Cascadia Code NF" font-size="10.00">v8::JobTask</text>
<text text-anchor="start" x="63" y="-67.5" font-family="Cascadia Code NF" font-size="10.00"> </text>
<text text-anchor="start" x="4" y="-51.5" font-family="Cascadia Code NF" font-size="10.00">+</text>
<text text-anchor="start" x="14" y="-51.5" font-family="Cascadia Code NF" font-size="10.00">~JobTask()</text>
<text text-anchor="start" x="4" y="-35.5" font-family="Cascadia Code NF" font-size="10.00">+</text>
<text text-anchor="start" x="14" y="-35.5" font-family="Cascadia Code NF" font-size="10.00">Run()</text>
<text text-anchor="start" x="4" y="-19.5" font-family="Cascadia Code NF" font-size="10.00">+</text>
<text text-anchor="start" x="14" y="-19.5" font-family="Cascadia Code NF" font-size="10.00">GetMaxConcurrency()</text>
<polygon fill="#666666" stroke="#666666" points="0,-79 0,-79 132,-79 132,-79 0,-79"/>
<polygon fill="#666666" stroke="#666666" points="0,-63 0,-63 132,-63 132,-63 0,-63"/>
<polygon fill="none" stroke="#666666" points="0,-13 0,-97 132,-97 132,-13 0,-13"/>
</a>
</g>
</g>
<!-- Node2&#45;&gt;Node1 -->
<g id="edge1_Node000001_Node000002" class="edge">
<title>Node2&#45;&gt;Node1</title>
<g id="a_edge1_Node000001_Node000002"><a xlink:title=" ">
<path fill="none" stroke="#63b8ff" d="M143.19,-55C151.35,-55 159.72,-55 168.07,-55"/>
<polygon fill="none" stroke="#63b8ff" points="143.35,-51.5 133.35,-55 143.35,-58.5 143.35,-51.5"/>
</a>
</g>
</g>
</g>
</svg>
</svg>

<style type='text/css'>
<![CDATA[
[data-mouse-over-selected='false'] { opacity: 0.7; }
[data-mouse-over-selected='true']  { opacity: 1.0; }
]]>
</style>
<script type="application/ecmascript"><![CDATA[
document.addEventListener('DOMContentLoaded', (event) => {
  highlightEdges();
  highlightAdjacentNodes();
});
]]></script>
</svg>
