<?xml version="1.0" encoding="UTF-8" standalone="no"?>
<!DOCTYPE svg PUBLIC "-//W3C//DTD SVG 1.1//EN"
 "http://www.w3.org/Graphics/SVG/1.1/DTD/svg11.dtd">
<!-- Generated by graphviz version 11.0.0 (20240428.1522)
 -->
<!-- Title: v8::internal::WasmSuspendingObject Pages: 1 -->
<svg width="508pt" height="333pt"
 viewBox="0.00 0.00 508.00 333.00" xmlns="http://www.w3.org/2000/svg" xmlns:xlink="http://www.w3.org/1999/xlink">
<g id="graph0" class="graph" transform="scale(1 1) rotate(0) translate(4 329)">
<title>v8::internal::WasmSuspendingObject</title>
<!-- Node1 -->
<g id="Node000001" class="node">
<title>Node1</title>
<g id="a_Node000001"><a xlink:title=" ">
<polygon fill="#999999" stroke="none" points="500,-195 322,-195 322,-130 500,-130 500,-195"/>
<text text-anchor="start" x="327" y="-181.5" font-family="Cascadia Code NF" font-size="10.00">v8::internal::WasmSuspending</text>
<text text-anchor="start" x="393" y="-168.75" font-family="Cascadia Code NF" font-size="10.00">Object</text>
<text text-anchor="start" x="408" y="-152.5" font-family="Cascadia Code NF" font-size="10.00"> </text>
<text text-anchor="start" x="358.5" y="-136.5" font-family="Cascadia Code NF" font-size="10.00">+</text>
<text text-anchor="start" x="401" y="-136.5" font-family="Cascadia Code NF" font-size="10.00">New()</text>
<polygon fill="#666666" stroke="#666666" points="322,-164 322,-164 500,-164 500,-164 322,-164"/>
<polygon fill="#666666" stroke="#666666" points="322,-148 322,-148 500,-148 500,-148 322,-148"/>
<polygon fill="none" stroke="#666666" points="322,-130 322,-195 500,-195 500,-130 322,-130"/>
</a>
</g>
</g>
<!-- Node2 -->
<g id="Node000002" class="node">
<title>Node2</title>
<g id="a_Node000002"><a xlink:href="../../d6/db3/classTorqueGeneratedWasmSuspendingObject.html" target="_top" xlink:title=" ">
<polygon fill="white" stroke="none" points="286,-325 94,-325 94,0 286,0 286,-325"/>
<text text-anchor="start" x="103" y="-311.5" font-family="Cascadia Code NF" font-size="10.00">TorqueGeneratedWasmSuspending</text>
<text text-anchor="start" x="103" y="-298.75" font-family="Cascadia Code NF" font-size="10.00">Object&lt; WasmSuspendingObject,</text>
<text text-anchor="start" x="157" y="-286" font-family="Cascadia Code NF" font-size="10.00"> JSObject &gt;</text>
<text text-anchor="start" x="98" y="-269.5" font-family="Cascadia Code NF" font-size="10.00">+</text>
<text text-anchor="start" x="108" y="-269.5" font-family="Cascadia Code NF" font-size="10.00">kStartOfStrongFieldsOffset</text>
<text text-anchor="start" x="98" y="-253.5" font-family="Cascadia Code NF" font-size="10.00">+</text>
<text text-anchor="start" x="108" y="-253.5" font-family="Cascadia Code NF" font-size="10.00">kCallableOffset</text>
<text text-anchor="start" x="98" y="-237.5" font-family="Cascadia Code NF" font-size="10.00">+</text>
<text text-anchor="start" x="108" y="-237.5" font-family="Cascadia Code NF" font-size="10.00">kCallableOffsetEnd</text>
<text text-anchor="start" x="98" y="-221.5" font-family="Cascadia Code NF" font-size="10.00">+</text>
<text text-anchor="start" x="108" y="-221.5" font-family="Cascadia Code NF" font-size="10.00">kEndOfStrongFieldsOffset</text>
<text text-anchor="start" x="98" y="-205.5" font-family="Cascadia Code NF" font-size="10.00">+</text>
<text text-anchor="start" x="108" y="-205.5" font-family="Cascadia Code NF" font-size="10.00">kStartOfWeakFieldsOffset</text>
<text text-anchor="start" x="98" y="-189.5" font-family="Cascadia Code NF" font-size="10.00">+</text>
<text text-anchor="start" x="108" y="-189.5" font-family="Cascadia Code NF" font-size="10.00">kEndOfWeakFieldsOffset</text>
<text text-anchor="start" x="98" y="-173.5" font-family="Cascadia Code NF" font-size="10.00">+</text>
<text text-anchor="start" x="108" y="-173.5" font-family="Cascadia Code NF" font-size="10.00">kHeaderSize</text>
<text text-anchor="start" x="98" y="-157.5" font-family="Cascadia Code NF" font-size="10.00">+</text>
<text text-anchor="start" x="108" y="-157.5" font-family="Cascadia Code NF" font-size="10.00">callable()</text>
<text text-anchor="start" x="98" y="-141.5" font-family="Cascadia Code NF" font-size="10.00">+</text>
<text text-anchor="start" x="108" y="-141.5" font-family="Cascadia Code NF" font-size="10.00">callable()</text>
<text text-anchor="start" x="98" y="-125.5" font-family="Cascadia Code NF" font-size="10.00">+</text>
<text text-anchor="start" x="108" y="-125.5" font-family="Cascadia Code NF" font-size="10.00">set_callable()</text>
<text text-anchor="start" x="98" y="-109.5" font-family="Cascadia Code NF" font-size="10.00">+</text>
<text text-anchor="start" x="108" y="-109.5" font-family="Cascadia Code NF" font-size="10.00">TorqueGeneratedWasmSuspending</text>
<text text-anchor="start" x="108" y="-96.75" font-family="Cascadia Code NF" font-size="10.00">Object()</text>
<text text-anchor="start" x="98" y="-80.5" font-family="Cascadia Code NF" font-size="10.00">+</text>
<text text-anchor="start" x="108" y="-80.5" font-family="Cascadia Code NF" font-size="10.00">cast()</text>
<text text-anchor="start" x="98" y="-64.5" font-family="Cascadia Code NF" font-size="10.00">+</text>
<text text-anchor="start" x="108" y="-64.5" font-family="Cascadia Code NF" font-size="10.00">unchecked_cast()</text>
<text text-anchor="start" x="98" y="-48.5" font-family="Cascadia Code NF" font-size="10.00">#</text>
<text text-anchor="start" x="108" y="-48.5" font-family="Cascadia Code NF" font-size="10.00">TorqueGeneratedWasmSuspending</text>
<text text-anchor="start" x="108" y="-35.75" font-family="Cascadia Code NF" font-size="10.00">Object()</text>
<text text-anchor="start" x="98" y="-19.5" font-family="Cascadia Code NF" font-size="10.00">#</text>
<text text-anchor="start" x="108" y="-19.5" font-family="Cascadia Code NF" font-size="10.00">TorqueGeneratedWasmSuspending</text>
<text text-anchor="start" x="108" y="-6.75" font-family="Cascadia Code NF" font-size="10.00">Object()</text>
<polygon fill="#bfbfbf" stroke="#bfbfbf" points="94,-281 94,-281 286,-281 286,-281 94,-281"/>
<polygon fill="#bfbfbf" stroke="#bfbfbf" points="94,-169 94,-169 106,-169 106,-169 94,-169"/>
<polygon fill="#bfbfbf" stroke="#bfbfbf" points="106,-169 106,-169 286,-169 286,-169 106,-169"/>
<polygon fill="none" stroke="#bfbfbf" points="94,0 94,-325 286,-325 286,0 94,0"/>
</a>
</g>
</g>
<!-- Node2&#45;&gt;Node1 -->
<g id="edge1_Node000001_Node000002" class="edge">
<title>Node2&#45;&gt;Node1</title>
<g id="a_edge1_Node000001_Node000002"><a xlink:title=" ">
<path fill="none" stroke="#63b8ff" d="M297.22,-162.5C305.63,-162.5 314.06,-162.5 322.32,-162.5"/>
<polygon fill="none" stroke="#63b8ff" points="297.3,-159 287.3,-162.5 297.3,-166 297.3,-159"/>
</a>
</g>
</g>
<!-- Node3 -->
<g id="Node000003" class="node">
<title>Node3</title>
<g id="a_Node000003"><a xlink:title=" ">
<polygon fill="white" stroke="none" points="58,-188.5 0,-188.5 0,-136.5 58,-136.5 58,-188.5"/>
<text text-anchor="start" x="5" y="-175" font-family="Cascadia Code NF" font-size="10.00">JSObject</text>
<text text-anchor="start" x="26" y="-159" font-family="Cascadia Code NF" font-size="10.00"> </text>
<text text-anchor="start" x="26" y="-143" font-family="Cascadia Code NF" font-size="10.00"> </text>
<polygon fill="#bfbfbf" stroke="#bfbfbf" points="0,-170.5 0,-170.5 58,-170.5 58,-170.5 0,-170.5"/>
<polygon fill="#bfbfbf" stroke="#bfbfbf" points="0,-154.5 0,-154.5 58,-154.5 58,-154.5 0,-154.5"/>
<polygon fill="none" stroke="#bfbfbf" points="0,-136.5 0,-188.5 58,-188.5 58,-136.5 0,-136.5"/>
</a>
</g>
</g>
<!-- Node3&#45;&gt;Node2 -->
<g id="edge2_Node000002_Node000003" class="edge">
<title>Node3&#45;&gt;Node2</title>
<g id="a_edge2_Node000002_Node000003"><a xlink:title=" ">
<path fill="none" stroke="#63b8ff" d="M68.94,-162.5C76.75,-162.5 85.27,-162.5 94.06,-162.5"/>
<polygon fill="none" stroke="#63b8ff" points="69.21,-159 59.21,-162.5 69.21,-166 69.21,-159"/>
</a>
</g>
</g>
</g>
</svg>
