<?xml version="1.0" encoding="UTF-8" standalone="no"?>
<!DOCTYPE svg PUBLIC "-//W3C//DTD SVG 1.1//EN"
 "http://www.w3.org/Graphics/SVG/1.1/DTD/svg11.dtd">
<!-- Generated by graphviz version 11.0.0 (20240428.1522)
 -->
<!-- Title: cppgc::internal::RootMarkingVisitor Pages: 1 -->
<svg width="638pt" height="140pt"
 viewBox="0.00 0.00 638.00 140.00" xmlns="http://www.w3.org/2000/svg" xmlns:xlink="http://www.w3.org/1999/xlink">
<g id="graph0" class="graph" transform="scale(1 1) rotate(0) translate(4 136)">
<title>cppgc::internal::RootMarkingVisitor</title>
<!-- Node1 -->
<g id="Node000001" class="node">
<title>Node1</title>
<g id="a_Node000001"><a xlink:title=" ">
<polygon fill="#999999" stroke="none" points="630,-122.5 452,-122.5 452,-9.5 630,-9.5 630,-122.5"/>
<text text-anchor="start" x="457" y="-109" font-family="Cascadia Code NF" font-size="10.00">cppgc::internal::RootMarking</text>
<text text-anchor="start" x="520" y="-96.25" font-family="Cascadia Code NF" font-size="10.00">Visitor</text>
<text text-anchor="start" x="463" y="-80" font-family="Cascadia Code NF" font-size="10.00">#</text>
<text text-anchor="start" x="480" y="-80" font-family="Cascadia Code NF" font-size="10.00">mutator_marking_state_</text>
<text text-anchor="start" x="463" y="-64" font-family="Cascadia Code NF" font-size="10.00">+</text>
<text text-anchor="start" x="480" y="-64" font-family="Cascadia Code NF" font-size="10.00">RootMarkingVisitor()</text>
<text text-anchor="start" x="463" y="-48" font-family="Cascadia Code NF" font-size="10.00">+</text>
<text text-anchor="start" x="480" y="-48" font-family="Cascadia Code NF" font-size="10.00">~RootMarkingVisitor()</text>
<text text-anchor="start" x="463" y="-32" font-family="Cascadia Code NF" font-size="10.00">#</text>
<text text-anchor="start" x="480" y="-32" font-family="Cascadia Code NF" font-size="10.00">VisitRoot()</text>
<text text-anchor="start" x="463" y="-16" font-family="Cascadia Code NF" font-size="10.00">#</text>
<text text-anchor="start" x="480" y="-16" font-family="Cascadia Code NF" font-size="10.00">VisitWeakRoot()</text>
<polygon fill="#666666" stroke="#666666" points="452,-91.5 452,-91.5 630,-91.5 630,-91.5 452,-91.5"/>
<polygon fill="#666666" stroke="#666666" points="452,-75.5 452,-75.5 478,-75.5 478,-75.5 452,-75.5"/>
<polygon fill="#666666" stroke="#666666" points="478,-75.5 478,-75.5 630,-75.5 630,-75.5 478,-75.5"/>
<polygon fill="none" stroke="#666666" points="452,-9.5 452,-122.5 630,-122.5 630,-9.5 452,-9.5"/>
</a>
</g>
</g>
<!-- Node2 -->
<g id="Node000002" class="node">
<title>Node2</title>
<g id="a_Node000002"><a xlink:href="$d8/dea/classcppgc_1_1internal_1_1RootVisitorBase.html" xlink:title=" ">
<polygon fill="white" stroke="none" points="416,-116 214,-116 214,-16 416,-16 416,-116"/>
<text text-anchor="start" x="219" y="-102.5" font-family="Cascadia Code NF" font-size="10.00">cppgc::internal::RootVisitorBase</text>
<text text-anchor="start" x="312" y="-86.5" font-family="Cascadia Code NF" font-size="10.00"> </text>
<text text-anchor="start" x="237" y="-70.5" font-family="Cascadia Code NF" font-size="10.00">+</text>
<text text-anchor="start" x="266" y="-70.5" font-family="Cascadia Code NF" font-size="10.00">RootVisitorBase()</text>
<text text-anchor="start" x="237" y="-54.5" font-family="Cascadia Code NF" font-size="10.00">+</text>
<text text-anchor="start" x="266" y="-54.5" font-family="Cascadia Code NF" font-size="10.00">~RootVisitorBase()</text>
<text text-anchor="start" x="237" y="-38.5" font-family="Cascadia Code NF" font-size="10.00">+</text>
<text text-anchor="start" x="266" y="-38.5" font-family="Cascadia Code NF" font-size="10.00">RootVisitorBase()</text>
<text text-anchor="start" x="237" y="-22.5" font-family="Cascadia Code NF" font-size="10.00">+</text>
<text text-anchor="start" x="266" y="-22.5" font-family="Cascadia Code NF" font-size="10.00">operator=()</text>
<polygon fill="#bfbfbf" stroke="#bfbfbf" points="214,-98 214,-98 416,-98 416,-98 214,-98"/>
<polygon fill="#bfbfbf" stroke="#bfbfbf" points="214,-82 214,-82 416,-82 416,-82 214,-82"/>
<polygon fill="none" stroke="#bfbfbf" points="214,-16 214,-116 416,-116 416,-16 214,-16"/>
</a>
</g>
</g>
<!-- Node2&#45;&gt;Node1 -->
<g id="edge1_Node000001_Node000002" class="edge">
<title>Node2&#45;&gt;Node1</title>
<g id="a_edge1_Node000001_Node000002"><a xlink:title=" ">
<path fill="none" stroke="#63b8ff" d="M427.29,-66C435.68,-66 444.07,-66 452.28,-66"/>
<polygon fill="none" stroke="#63b8ff" points="427.39,-62.5 417.39,-66 427.39,-69.5 427.39,-62.5"/>
</a>
</g>
</g>
<!-- Node3 -->
<g id="Node000003" class="node">
<title>Node3</title>
<g id="a_Node000003"><a xlink:href="$d4/d1c/classcppgc_1_1internal_1_1RootVisitor.html" xlink:title=" ">
<polygon fill="white" stroke="none" points="178,-132 0,-132 0,0 178,0 178,-132"/>
<text text-anchor="start" x="5" y="-118.5" font-family="Cascadia Code NF" font-size="10.00">cppgc::internal::RootVisitor</text>
<text text-anchor="start" x="86" y="-102.5" font-family="Cascadia Code NF" font-size="10.00"> </text>
<text text-anchor="start" x="21.5" y="-86.5" font-family="Cascadia Code NF" font-size="10.00">+</text>
<text text-anchor="start" x="49" y="-86.5" font-family="Cascadia Code NF" font-size="10.00">RootVisitor()</text>
<text text-anchor="start" x="21.5" y="-70.5" font-family="Cascadia Code NF" font-size="10.00">+</text>
<text text-anchor="start" x="49" y="-70.5" font-family="Cascadia Code NF" font-size="10.00">~RootVisitor()</text>
<text text-anchor="start" x="21.5" y="-54.5" font-family="Cascadia Code NF" font-size="10.00">+</text>
<text text-anchor="start" x="49" y="-54.5" font-family="Cascadia Code NF" font-size="10.00">Trace()</text>
<text text-anchor="start" x="21.5" y="-38.5" font-family="Cascadia Code NF" font-size="10.00">+</text>
<text text-anchor="start" x="49" y="-38.5" font-family="Cascadia Code NF" font-size="10.00">Trace()</text>
<text text-anchor="start" x="21.5" y="-22.5" font-family="Cascadia Code NF" font-size="10.00">#</text>
<text text-anchor="start" x="49" y="-22.5" font-family="Cascadia Code NF" font-size="10.00">VisitRoot()</text>
<text text-anchor="start" x="21.5" y="-6.5" font-family="Cascadia Code NF" font-size="10.00">#</text>
<text text-anchor="start" x="49" y="-6.5" font-family="Cascadia Code NF" font-size="10.00">VisitWeakRoot()</text>
<polygon fill="#bfbfbf" stroke="#bfbfbf" points="0,-114 0,-114 178,-114 178,-114 0,-114"/>
<polygon fill="#bfbfbf" stroke="#bfbfbf" points="0,-98 0,-98 178,-98 178,-98 0,-98"/>
<polygon fill="none" stroke="#bfbfbf" points="0,0 0,-132 178,-132 178,0 0,0"/>
</a>
</g>
</g>
<!-- Node3&#45;&gt;Node2 -->
<g id="edge2_Node000002_Node000003" class="edge">
<title>Node3&#45;&gt;Node2</title>
<g id="a_edge2_Node000002_Node000003"><a xlink:title=" ">
<path fill="none" stroke="#63b8ff" d="M189.13,-66C197.43,-66 205.82,-66 214.13,-66"/>
<polygon fill="none" stroke="#63b8ff" points="189.4,-62.5 179.4,-66 189.4,-69.5 189.4,-62.5"/>
</a>
</g>
</g>
</g>
</svg>
