<?xml version="1.0" encoding="UTF-8" standalone="no"?>
<!DOCTYPE svg PUBLIC "-//W3C//DTD SVG 1.1//EN"
 "http://www.w3.org/Graphics/SVG/1.1/DTD/svg11.dtd">
<!-- Generated by graphviz version 11.0.0 (20240428.1522)
 -->
<!-- Title: v8_inspector::StringView Pages: 1 -->
<svg width="334pt" height="156pt"
 viewBox="0.00 0.00 334.00 156.00" xmlns="http://www.w3.org/2000/svg" xmlns:xlink="http://www.w3.org/1999/xlink">
<g id="graph0" class="graph" transform="scale(1 1) rotate(0) translate(4 152)">
<title>v8_inspector::StringView</title>
<!-- Node1 -->
<g id="Node000001" class="node">
<title>Node1</title>
<g id="a_Node000001"><a xlink:title=" ">
<polygon fill="#999999" stroke="none" points="326,-148 172,-148 172,0 326,0 326,-148"/>
<text text-anchor="start" x="177" y="-134.5" font-family="Cascadia Code NF" font-size="10.00">v8_inspector::StringView</text>
<text text-anchor="start" x="246" y="-118.5" font-family="Cascadia Code NF" font-size="10.00"> </text>
<text text-anchor="start" x="189" y="-102.5" font-family="Cascadia Code NF" font-size="10.00">+</text>
<text text-anchor="start" x="212" y="-102.5" font-family="Cascadia Code NF" font-size="10.00">StringView()</text>
<text text-anchor="start" x="189" y="-86.5" font-family="Cascadia Code NF" font-size="10.00">+</text>
<text text-anchor="start" x="212" y="-86.5" font-family="Cascadia Code NF" font-size="10.00">StringView()</text>
<text text-anchor="start" x="189" y="-70.5" font-family="Cascadia Code NF" font-size="10.00">+</text>
<text text-anchor="start" x="212" y="-70.5" font-family="Cascadia Code NF" font-size="10.00">StringView()</text>
<text text-anchor="start" x="189" y="-54.5" font-family="Cascadia Code NF" font-size="10.00">+</text>
<text text-anchor="start" x="212" y="-54.5" font-family="Cascadia Code NF" font-size="10.00">is8Bit()</text>
<text text-anchor="start" x="189" y="-38.5" font-family="Cascadia Code NF" font-size="10.00">+</text>
<text text-anchor="start" x="212" y="-38.5" font-family="Cascadia Code NF" font-size="10.00">length()</text>
<text text-anchor="start" x="189" y="-22.5" font-family="Cascadia Code NF" font-size="10.00">+</text>
<text text-anchor="start" x="212" y="-22.5" font-family="Cascadia Code NF" font-size="10.00">characters8()</text>
<text text-anchor="start" x="189" y="-6.5" font-family="Cascadia Code NF" font-size="10.00">+</text>
<text text-anchor="start" x="212" y="-6.5" font-family="Cascadia Code NF" font-size="10.00">characters16()</text>
<polygon fill="#666666" stroke="#666666" points="172,-130 172,-130 326,-130 326,-130 172,-130"/>
<polygon fill="#666666" stroke="#666666" points="172,-114 172,-114 326,-114 326,-114 172,-114"/>
<polygon fill="none" stroke="#666666" points="172,0 172,-148 326,-148 326,0 172,0"/>
</a>
</g>
</g>
<!-- Node2 -->
<g id="Node000002" class="node">
<title>Node2</title>
<g id="a_Node000002"><a xlink:title=" ">
<polygon fill="white" stroke="none" points="40,-100 0,-100 0,-48 40,-48 40,-100"/>
<text text-anchor="start" x="5" y="-86.5" font-family="Cascadia Code NF" font-size="10.00">const</text>
<text text-anchor="start" x="17" y="-70.5" font-family="Cascadia Code NF" font-size="10.00"> </text>
<text text-anchor="start" x="17" y="-54.5" font-family="Cascadia Code NF" font-size="10.00"> </text>
<polygon fill="#bfbfbf" stroke="#bfbfbf" points="0,-82 0,-82 40,-82 40,-82 0,-82"/>
<polygon fill="#bfbfbf" stroke="#bfbfbf" points="0,-66 0,-66 40,-66 40,-66 0,-66"/>
<polygon fill="none" stroke="#bfbfbf" points="0,-48 0,-100 40,-100 40,-48 0,-48"/>
</a>
</g>
</g>
<!-- Node2&#45;&gt;Node1 -->
<g id="edge1_Node000001_Node000002" class="edge">
<title>Node2&#45;&gt;Node1</title>
<g id="a_edge1_Node000001_Node000002"><a xlink:title=" ">
<path fill="none" stroke="#63b8ff" d="M39.96,-74C66.2,-74 115.3,-74 159.22,-74"/>
<polygon fill="none" stroke="#63b8ff" points="159.15,-74 165.15,-70 171.15,-74 165.15,-78 159.15,-74"/>
</a>
</g>
<text text-anchor="middle" x="106" y="-90" font-family="Cascadia Code NF" font-size="10.00" fill="grey"> +m_characters16</text>
<text text-anchor="middle" x="106" y="-77.25" font-family="Cascadia Code NF" font-size="10.00" fill="grey">+m_characters8</text>
</g>
</g>
</svg>
