<?xml version="1.0" encoding="UTF-8" standalone="no"?>
<!DOCTYPE svg PUBLIC "-//W3C//DTD SVG 1.1//EN"
 "http://www.w3.org/Graphics/SVG/1.1/DTD/svg11.dtd">
<!-- Generated by graphviz version 11.0.0 (20240428.1522)
 -->
<!-- Title: v8::internal::FinalizeUnoptimizedCompilationData Pages: 1 -->
<svg width="216pt" height="179pt"
 viewBox="0.00 0.00 216.00 179.00" xmlns="http://www.w3.org/2000/svg" xmlns:xlink="http://www.w3.org/1999/xlink">
<g id="graph0" class="graph" transform="scale(1 1) rotate(0) translate(4 175)">
<title>v8::internal::FinalizeUnoptimizedCompilationData</title>
<!-- Node1 -->
<g id="Node000001" class="node">
<title>Node1</title>
<g id="a_Node000001"><a xlink:title=" ">
<polygon fill="#999999" stroke="none" points="208,-171 0,-171 0,0 208,0 208,-171"/>
<text text-anchor="start" x="5" y="-157.5" font-family="Cascadia Code NF" font-size="10.00">v8::internal::FinalizeUnoptimized</text>
<text text-anchor="start" x="59" y="-144.75" font-family="Cascadia Code NF" font-size="10.00">CompilationData</text>
<text text-anchor="start" x="101" y="-128.5" font-family="Cascadia Code NF" font-size="10.00"> </text>
<text text-anchor="start" x="6.5" y="-112.5" font-family="Cascadia Code NF" font-size="10.00">+</text>
<text text-anchor="start" x="19" y="-112.5" font-family="Cascadia Code NF" font-size="10.00">FinalizeUnoptimizedCompilation</text>
<text text-anchor="start" x="19" y="-99.75" font-family="Cascadia Code NF" font-size="10.00">Data()</text>
<text text-anchor="start" x="6.5" y="-83.5" font-family="Cascadia Code NF" font-size="10.00">+</text>
<text text-anchor="start" x="19" y="-83.5" font-family="Cascadia Code NF" font-size="10.00">FinalizeUnoptimizedCompilation</text>
<text text-anchor="start" x="19" y="-70.75" font-family="Cascadia Code NF" font-size="10.00">Data()</text>
<text text-anchor="start" x="6.5" y="-54.5" font-family="Cascadia Code NF" font-size="10.00">+</text>
<text text-anchor="start" x="19" y="-54.5" font-family="Cascadia Code NF" font-size="10.00">function_handle()</text>
<text text-anchor="start" x="6.5" y="-38.5" font-family="Cascadia Code NF" font-size="10.00">+</text>
<text text-anchor="start" x="19" y="-38.5" font-family="Cascadia Code NF" font-size="10.00">coverage_info()</text>
<text text-anchor="start" x="6.5" y="-22.5" font-family="Cascadia Code NF" font-size="10.00">+</text>
<text text-anchor="start" x="19" y="-22.5" font-family="Cascadia Code NF" font-size="10.00">time_taken_to_execute()</text>
<text text-anchor="start" x="6.5" y="-6.5" font-family="Cascadia Code NF" font-size="10.00">+</text>
<text text-anchor="start" x="19" y="-6.5" font-family="Cascadia Code NF" font-size="10.00">time_taken_to_finalize()</text>
<polygon fill="#666666" stroke="#666666" points="0,-140 0,-140 208,-140 208,-140 0,-140"/>
<polygon fill="#666666" stroke="#666666" points="0,-124 0,-124 208,-124 208,-124 0,-124"/>
<polygon fill="none" stroke="#666666" points="0,0 0,-171 208,-171 208,0 0,0"/>
</a>
</g>
</g>
</g>
</svg>
