<?xml version="1.0" encoding="UTF-8" standalone="no"?>
<!DOCTYPE svg PUBLIC "-//W3C//DTD SVG 1.1//EN"
 "http://www.w3.org/Graphics/SVG/1.1/DTD/svg11.dtd">
<!-- Generated by graphviz version 11.0.0 (20240428.1522)
 -->
<!-- Title: cppgc::internal::StatsCollector::AllocationObserver Pages: 1 -->
<svg width="480pt" height="944pt"
 viewBox="0.00 0.00 480.00 944.00" xmlns="http://www.w3.org/2000/svg" xmlns:xlink="http://www.w3.org/1999/xlink">
<g id="graph0" class="graph" transform="scale(1 1) rotate(0) translate(4 940)">
<title>cppgc::internal::StatsCollector::AllocationObserver</title>
<!-- Node1 -->
<g id="Node000001" class="node">
<title>Node1</title>
<g id="a_Node000001"><a xlink:title=" ">
<polygon fill="#999999" stroke="none" points="198,-590 0,-590 0,-461 198,-461 198,-590"/>
<text text-anchor="start" x="6" y="-576.5" font-family="Cascadia Code NF" font-size="10.00">cppgc::internal::StatsCollector</text>
<text text-anchor="start" x="39" y="-563.75" font-family="Cascadia Code NF" font-size="10.00">::AllocationObserver</text>
<text text-anchor="start" x="96" y="-547.5" font-family="Cascadia Code NF" font-size="10.00"> </text>
<text text-anchor="start" x="4" y="-531.5" font-family="Cascadia Code NF" font-size="10.00">+</text>
<text text-anchor="start" x="14" y="-531.5" font-family="Cascadia Code NF" font-size="10.00">AllocatedObjectSizeIncreased()</text>
<text text-anchor="start" x="4" y="-515.5" font-family="Cascadia Code NF" font-size="10.00">+</text>
<text text-anchor="start" x="14" y="-515.5" font-family="Cascadia Code NF" font-size="10.00">AllocatedObjectSizeDecreased()</text>
<text text-anchor="start" x="4" y="-499.5" font-family="Cascadia Code NF" font-size="10.00">+</text>
<text text-anchor="start" x="14" y="-499.5" font-family="Cascadia Code NF" font-size="10.00">ResetAllocatedObjectSize()</text>
<text text-anchor="start" x="4" y="-483.5" font-family="Cascadia Code NF" font-size="10.00">+</text>
<text text-anchor="start" x="14" y="-483.5" font-family="Cascadia Code NF" font-size="10.00">AllocatedSizeIncreased()</text>
<text text-anchor="start" x="4" y="-467.5" font-family="Cascadia Code NF" font-size="10.00">+</text>
<text text-anchor="start" x="14" y="-467.5" font-family="Cascadia Code NF" font-size="10.00">AllocatedSizeDecreased()</text>
<polygon fill="#666666" stroke="#666666" points="0,-559 0,-559 198,-559 198,-559 0,-559"/>
<polygon fill="#666666" stroke="#666666" points="0,-543 0,-543 198,-543 198,-543 0,-543"/>
<polygon fill="none" stroke="#666666" points="0,-461 0,-590 198,-590 198,-461 0,-461"/>
</a>
</g>
</g>
<!-- Node2 -->
<g id="Node000002" class="node">
<title>Node2</title>
<g id="a_Node000002"><a xlink:href="$d1/ded/classcppgc_1_1internal_1_1HeapGrowing_1_1HeapGrowingImpl.html" xlink:title=" ">
<polygon fill="white" stroke="none" points="452,-936 254,-936 254,-727 452,-727 452,-936"/>
<text text-anchor="start" x="269" y="-922.5" font-family="Cascadia Code NF" font-size="10.00">cppgc::internal::HeapGrowing</text>
<text text-anchor="start" x="302" y="-909.75" font-family="Cascadia Code NF" font-size="10.00">::HeapGrowingImpl</text>
<text text-anchor="start" x="350" y="-893.5" font-family="Cascadia Code NF" font-size="10.00"> </text>
<text text-anchor="start" x="258" y="-877.5" font-family="Cascadia Code NF" font-size="10.00">+</text>
<text text-anchor="start" x="268" y="-877.5" font-family="Cascadia Code NF" font-size="10.00">HeapGrowingImpl()</text>
<text text-anchor="start" x="258" y="-861.5" font-family="Cascadia Code NF" font-size="10.00">+</text>
<text text-anchor="start" x="268" y="-861.5" font-family="Cascadia Code NF" font-size="10.00">~HeapGrowingImpl()</text>
<text text-anchor="start" x="258" y="-845.5" font-family="Cascadia Code NF" font-size="10.00">+</text>
<text text-anchor="start" x="268" y="-845.5" font-family="Cascadia Code NF" font-size="10.00">HeapGrowingImpl()</text>
<text text-anchor="start" x="258" y="-829.5" font-family="Cascadia Code NF" font-size="10.00">+</text>
<text text-anchor="start" x="268" y="-829.5" font-family="Cascadia Code NF" font-size="10.00">operator=()</text>
<text text-anchor="start" x="258" y="-813.5" font-family="Cascadia Code NF" font-size="10.00">+</text>
<text text-anchor="start" x="268" y="-813.5" font-family="Cascadia Code NF" font-size="10.00">AllocatedObjectSizeIncreased()</text>
<text text-anchor="start" x="258" y="-797.5" font-family="Cascadia Code NF" font-size="10.00">+</text>
<text text-anchor="start" x="268" y="-797.5" font-family="Cascadia Code NF" font-size="10.00">AllocatedObjectSizeDecreased()</text>
<text text-anchor="start" x="258" y="-781.5" font-family="Cascadia Code NF" font-size="10.00">+</text>
<text text-anchor="start" x="268" y="-781.5" font-family="Cascadia Code NF" font-size="10.00">ResetAllocatedObjectSize()</text>
<text text-anchor="start" x="258" y="-765.5" font-family="Cascadia Code NF" font-size="10.00">+</text>
<text text-anchor="start" x="268" y="-765.5" font-family="Cascadia Code NF" font-size="10.00">limit_for_atomic_gc()</text>
<text text-anchor="start" x="258" y="-749.5" font-family="Cascadia Code NF" font-size="10.00">+</text>
<text text-anchor="start" x="268" y="-749.5" font-family="Cascadia Code NF" font-size="10.00">limit_for_incremental_gc()</text>
<text text-anchor="start" x="258" y="-733.5" font-family="Cascadia Code NF" font-size="10.00">+</text>
<text text-anchor="start" x="268" y="-733.5" font-family="Cascadia Code NF" font-size="10.00">DisableForTesting()</text>
<polygon fill="#bfbfbf" stroke="#bfbfbf" points="254,-905 254,-905 452,-905 452,-905 254,-905"/>
<polygon fill="#bfbfbf" stroke="#bfbfbf" points="254,-889 254,-889 452,-889 452,-889 254,-889"/>
<polygon fill="none" stroke="#bfbfbf" points="254,-727 254,-936 452,-936 452,-727 254,-727"/>
</a>
</g>
</g>
<!-- Node1&#45;&gt;Node2 -->
<g id="edge1_Node000001_Node000002" class="edge">
<title>Node1&#45;&gt;Node2</title>
<g id="a_edge1_Node000001_Node000002"><a xlink:title=" ">
<path fill="none" stroke="#63b8ff" d="M146.29,-598.78C170.77,-635.65 202.27,-680.29 234,-717.5 240.38,-724.98 247.18,-732.51 254.17,-739.95"/>
<polygon fill="none" stroke="#63b8ff" points="149.49,-597.27 141.06,-590.85 143.64,-601.12 149.49,-597.27"/>
</a>
</g>
</g>
<!-- Node3 -->
<g id="Node000003" class="node">
<title>Node3</title>
<g id="a_Node000003"><a xlink:href="$d0/d22/classcppgc_1_1internal_1_1MarkerBase_1_1IncrementalMarkingAllocationObserver.html" xlink:title=" ">
<polygon fill="white" stroke="none" points="472,-708.5 234,-708.5 234,-614.5 472,-614.5 472,-708.5"/>
<text text-anchor="start" x="239" y="-695" font-family="Cascadia Code NF" font-size="10.00">cppgc::internal::MarkerBase</text>
<text text-anchor="start" x="239" y="-682.25" font-family="Cascadia Code NF" font-size="10.00">::IncrementalMarkingAllocationObserver</text>
<text text-anchor="start" x="248" y="-666" font-family="Cascadia Code NF" font-size="10.00">+</text>
<text text-anchor="start" x="268" y="-666" font-family="Cascadia Code NF" font-size="10.00">kMinAllocatedBytesPerStep</text>
<text text-anchor="start" x="248" y="-650" font-family="Cascadia Code NF" font-size="10.00">+</text>
<text text-anchor="start" x="268" y="-650" font-family="Cascadia Code NF" font-size="10.00">IncrementalMarkingAllocation</text>
<text text-anchor="start" x="268" y="-637.25" font-family="Cascadia Code NF" font-size="10.00">Observer()</text>
<text text-anchor="start" x="248" y="-621" font-family="Cascadia Code NF" font-size="10.00">+</text>
<text text-anchor="start" x="268" y="-621" font-family="Cascadia Code NF" font-size="10.00">AllocatedObjectSizeIncreased()</text>
<polygon fill="#bfbfbf" stroke="#bfbfbf" points="234,-677.5 234,-677.5 472,-677.5 472,-677.5 234,-677.5"/>
<polygon fill="#bfbfbf" stroke="#bfbfbf" points="234,-661.5 234,-661.5 266,-661.5 266,-661.5 234,-661.5"/>
<polygon fill="#bfbfbf" stroke="#bfbfbf" points="266,-661.5 266,-661.5 472,-661.5 472,-661.5 266,-661.5"/>
<polygon fill="none" stroke="#bfbfbf" points="234,-614.5 234,-708.5 472,-708.5 472,-614.5 234,-614.5"/>
</a>
</g>
</g>
<!-- Node1&#45;&gt;Node3 -->
<g id="edge2_Node000001_Node000003" class="edge">
<title>Node1&#45;&gt;Node3</title>
<g id="a_edge2_Node000001_Node000003"><a xlink:title=" ">
<path fill="none" stroke="#63b8ff" d="M207.76,-591.03C216.58,-596.03 225.41,-600.91 234,-605.5 239.7,-608.55 245.59,-611.61 251.57,-614.64"/>
<polygon fill="none" stroke="#63b8ff" points="209.55,-588.02 199.13,-586.1 206.08,-594.1 209.55,-588.02"/>
</a>
</g>
</g>
<!-- Node4 -->
<g id="Node000004" class="node">
<title>Node4</title>
<g id="a_Node000004"><a xlink:href="$d4/d1c/classcppgc_1_1internal_1_1ProcessHeapStatisticsUpdater_1_1AllocationObserverImpl.html" xlink:title=" ">
<polygon fill="white" stroke="none" points="452,-596.5 254,-596.5 254,-454.5 452,-454.5 452,-596.5"/>
<text text-anchor="start" x="281" y="-583" font-family="Cascadia Code NF" font-size="10.00">cppgc::internal::Process</text>
<text text-anchor="start" x="281" y="-570.25" font-family="Cascadia Code NF" font-size="10.00">HeapStatisticsUpdater</text>
<text text-anchor="start" x="281" y="-557.5" font-family="Cascadia Code NF" font-size="10.00">::AllocationObserverImpl</text>
<text text-anchor="start" x="350" y="-541" font-family="Cascadia Code NF" font-size="10.00"> </text>
<text text-anchor="start" x="258" y="-525" font-family="Cascadia Code NF" font-size="10.00">+</text>
<text text-anchor="start" x="268" y="-525" font-family="Cascadia Code NF" font-size="10.00">AllocatedObjectSizeIncreased()</text>
<text text-anchor="start" x="258" y="-509" font-family="Cascadia Code NF" font-size="10.00">+</text>
<text text-anchor="start" x="268" y="-509" font-family="Cascadia Code NF" font-size="10.00">AllocatedObjectSizeDecreased()</text>
<text text-anchor="start" x="258" y="-493" font-family="Cascadia Code NF" font-size="10.00">+</text>
<text text-anchor="start" x="268" y="-493" font-family="Cascadia Code NF" font-size="10.00">ResetAllocatedObjectSize()</text>
<text text-anchor="start" x="258" y="-477" font-family="Cascadia Code NF" font-size="10.00">+</text>
<text text-anchor="start" x="268" y="-477" font-family="Cascadia Code NF" font-size="10.00">AllocatedSizeIncreased()</text>
<text text-anchor="start" x="258" y="-461" font-family="Cascadia Code NF" font-size="10.00">+</text>
<text text-anchor="start" x="268" y="-461" font-family="Cascadia Code NF" font-size="10.00">AllocatedSizeDecreased()</text>
<polygon fill="#bfbfbf" stroke="#bfbfbf" points="254,-552.5 254,-552.5 452,-552.5 452,-552.5 254,-552.5"/>
<polygon fill="#bfbfbf" stroke="#bfbfbf" points="254,-536.5 254,-536.5 452,-536.5 452,-536.5 254,-536.5"/>
<polygon fill="none" stroke="#bfbfbf" points="254,-454.5 254,-596.5 452,-596.5 452,-454.5 254,-454.5"/>
</a>
</g>
</g>
<!-- Node1&#45;&gt;Node4 -->
<g id="edge3_Node000001_Node000004" class="edge">
<title>Node1&#45;&gt;Node4</title>
<g id="a_edge3_Node000001_Node000004"><a xlink:title=" ">
<path fill="none" stroke="#63b8ff" d="M209.18,-525.5C224.17,-525.5 239.49,-525.5 254.26,-525.5"/>
<polygon fill="none" stroke="#63b8ff" points="209.3,-522 199.3,-525.5 209.3,-529 209.3,-522"/>
</a>
</g>
</g>
<!-- Node5 -->
<g id="Node000005" class="node">
<title>Node5</title>
<g id="a_Node000005"><a xlink:href="$d8/d27/classv8_1_1internal_1_1CppHeap.html" xlink:title=" ">
<polygon fill="white" stroke="none" points="446,-436 260,-436 260,-163 446,-163 446,-436"/>
<text text-anchor="start" x="290" y="-422.5" font-family="Cascadia Code NF" font-size="10.00">v8::internal::CppHeap</text>
<text text-anchor="start" x="350" y="-406.5" font-family="Cascadia Code NF" font-size="10.00"> </text>
<text text-anchor="start" x="264" y="-390.5" font-family="Cascadia Code NF" font-size="10.00">+</text>
<text text-anchor="start" x="274" y="-390.5" font-family="Cascadia Code NF" font-size="10.00">CppHeap()</text>
<text text-anchor="start" x="264" y="-374.5" font-family="Cascadia Code NF" font-size="10.00">+</text>
<text text-anchor="start" x="274" y="-374.5" font-family="Cascadia Code NF" font-size="10.00">~CppHeap()</text>
<text text-anchor="start" x="264" y="-358.5" font-family="Cascadia Code NF" font-size="10.00">+</text>
<text text-anchor="start" x="274" y="-358.5" font-family="Cascadia Code NF" font-size="10.00">CppHeap()</text>
<text text-anchor="start" x="264" y="-342.5" font-family="Cascadia Code NF" font-size="10.00">+</text>
<text text-anchor="start" x="274" y="-342.5" font-family="Cascadia Code NF" font-size="10.00">operator=()</text>
<text text-anchor="start" x="264" y="-326.5" font-family="Cascadia Code NF" font-size="10.00">+</text>
<text text-anchor="start" x="274" y="-326.5" font-family="Cascadia Code NF" font-size="10.00">AsBase()</text>
<text text-anchor="start" x="264" y="-310.5" font-family="Cascadia Code NF" font-size="10.00">+</text>
<text text-anchor="start" x="274" y="-310.5" font-family="Cascadia Code NF" font-size="10.00">AsBase()</text>
<text text-anchor="start" x="264" y="-294.5" font-family="Cascadia Code NF" font-size="10.00">+</text>
<text text-anchor="start" x="274" y="-294.5" font-family="Cascadia Code NF" font-size="10.00">AttachIsolate()</text>
<text text-anchor="start" x="264" y="-278.5" font-family="Cascadia Code NF" font-size="10.00">+</text>
<text text-anchor="start" x="274" y="-278.5" font-family="Cascadia Code NF" font-size="10.00">DetachIsolate()</text>
<text text-anchor="start" x="264" y="-262.5" font-family="Cascadia Code NF" font-size="10.00">+</text>
<text text-anchor="start" x="274" y="-262.5" font-family="Cascadia Code NF" font-size="10.00">Terminate()</text>
<text text-anchor="start" x="264" y="-246.5" font-family="Cascadia Code NF" font-size="10.00">+</text>
<text text-anchor="start" x="274" y="-246.5" font-family="Cascadia Code NF" font-size="10.00">CollectCustomSpaceStatistics</text>
<text text-anchor="start" x="274" y="-233.75" font-family="Cascadia Code NF" font-size="10.00">AtLastGC()</text>
<text text-anchor="start" x="274" y="-217.5" font-family="Cascadia Code NF" font-size="10.00">and 37 more...</text>
<text text-anchor="start" x="264" y="-201.5" font-family="Cascadia Code NF" font-size="10.00">+</text>
<text text-anchor="start" x="274" y="-201.5" font-family="Cascadia Code NF" font-size="10.00">InitializeOncePerProcess()</text>
<text text-anchor="start" x="264" y="-185.5" font-family="Cascadia Code NF" font-size="10.00">+</text>
<text text-anchor="start" x="274" y="-185.5" font-family="Cascadia Code NF" font-size="10.00">From()</text>
<text text-anchor="start" x="264" y="-169.5" font-family="Cascadia Code NF" font-size="10.00">+</text>
<text text-anchor="start" x="274" y="-169.5" font-family="Cascadia Code NF" font-size="10.00">From()</text>
<polygon fill="#bfbfbf" stroke="#bfbfbf" points="260,-418 260,-418 446,-418 446,-418 260,-418"/>
<polygon fill="#bfbfbf" stroke="#bfbfbf" points="260,-402 260,-402 446,-402 446,-402 260,-402"/>
<polygon fill="none" stroke="#bfbfbf" points="260,-163 260,-436 446,-436 446,-163 260,-163"/>
</a>
</g>
</g>
<!-- Node1&#45;&gt;Node5 -->
<g id="edge4_Node000001_Node000005" class="edge">
<title>Node1&#45;&gt;Node5</title>
<g id="a_edge4_Node000001_Node000005"><a xlink:title=" ">
<path fill="none" stroke="#63b8ff" d="M180.38,-453.42C205.79,-430.62 234.07,-405.26 260.22,-381.81"/>
<polygon fill="none" stroke="#63b8ff" points="178.11,-450.75 173,-460.03 182.78,-455.96 178.11,-450.75"/>
</a>
</g>
</g>
<!-- Node6 -->
<g id="Node000006" class="node">
<title>Node6</title>
<g id="a_Node000006"><a xlink:href="$d3/d16/classv8_1_1internal_1_1MinorGCHeapGrowing.html" xlink:title=" ">
<polygon fill="white" stroke="none" points="452,-145 254,-145 254,0 452,0 452,-145"/>
<text text-anchor="start" x="278" y="-131.5" font-family="Cascadia Code NF" font-size="10.00">v8::internal::MinorGCHeap</text>
<text text-anchor="start" x="332" y="-118.75" font-family="Cascadia Code NF" font-size="10.00">Growing</text>
<text text-anchor="start" x="350" y="-102.5" font-family="Cascadia Code NF" font-size="10.00"> </text>
<text text-anchor="start" x="258" y="-86.5" font-family="Cascadia Code NF" font-size="10.00">+</text>
<text text-anchor="start" x="268" y="-86.5" font-family="Cascadia Code NF" font-size="10.00">MinorGCHeapGrowing()</text>
<text text-anchor="start" x="258" y="-70.5" font-family="Cascadia Code NF" font-size="10.00">+</text>
<text text-anchor="start" x="268" y="-70.5" font-family="Cascadia Code NF" font-size="10.00">~MinorGCHeapGrowing()</text>
<text text-anchor="start" x="258" y="-54.5" font-family="Cascadia Code NF" font-size="10.00">+</text>
<text text-anchor="start" x="268" y="-54.5" font-family="Cascadia Code NF" font-size="10.00">AllocatedObjectSizeIncreased()</text>
<text text-anchor="start" x="258" y="-38.5" font-family="Cascadia Code NF" font-size="10.00">+</text>
<text text-anchor="start" x="268" y="-38.5" font-family="Cascadia Code NF" font-size="10.00">AllocatedObjectSizeDecreased()</text>
<text text-anchor="start" x="258" y="-22.5" font-family="Cascadia Code NF" font-size="10.00">+</text>
<text text-anchor="start" x="268" y="-22.5" font-family="Cascadia Code NF" font-size="10.00">ResetAllocatedObjectSize()</text>
<text text-anchor="start" x="258" y="-6.5" font-family="Cascadia Code NF" font-size="10.00">+</text>
<text text-anchor="start" x="268" y="-6.5" font-family="Cascadia Code NF" font-size="10.00">LimitReached()</text>
<polygon fill="#bfbfbf" stroke="#bfbfbf" points="254,-114 254,-114 452,-114 452,-114 254,-114"/>
<polygon fill="#bfbfbf" stroke="#bfbfbf" points="254,-98 254,-98 452,-98 452,-98 254,-98"/>
<polygon fill="none" stroke="#bfbfbf" points="254,0 254,-145 452,-145 452,0 254,0"/>
</a>
</g>
</g>
<!-- Node1&#45;&gt;Node6 -->
<g id="edge5_Node000001_Node000006" class="edge">
<title>Node1&#45;&gt;Node6</title>
<g id="a_edge5_Node000001_Node000006"><a xlink:title=" ">
<path fill="none" stroke="#63b8ff" d="M113.11,-450.05C130.02,-370.09 165.77,-243.32 234,-154.5 239.93,-146.78 246.79,-139.52 254.16,-132.74"/>
<polygon fill="none" stroke="#63b8ff" points="109.74,-449.03 111.15,-459.54 116.6,-450.45 109.74,-449.03"/>
</a>
</g>
</g>
</g>
</svg>
