<?xml version="1.0" encoding="UTF-8" standalone="no"?>
<!DOCTYPE svg PUBLIC "-//W3C//DTD SVG 1.1//EN"
 "http://www.w3.org/Graphics/SVG/1.1/DTD/svg11.dtd">
<!-- Generated by graphviz version 11.0.0 (20240428.1522)
 -->
<!-- Title: v8::internal::Object Pages: 1 -->
<svg width="426pt" height="252pt"
 viewBox="0.00 0.00 426.00 252.00" xmlns="http://www.w3.org/2000/svg" xmlns:xlink="http://www.w3.org/1999/xlink">
<g id="graph0" class="graph" transform="scale(1 1) rotate(0) translate(4 248)">
<title>v8::internal::Object</title>
<!-- Node1 -->
<g id="Node000001" class="node">
<title>Node1</title>
<g id="a_Node000001"><a xlink:title=" ">
<polygon fill="#999999" stroke="none" points="418,-244 262,-244 262,0 418,0 418,-244"/>
<text text-anchor="start" x="280" y="-230.5" font-family="Cascadia Code NF" font-size="10.00">v8::internal::Object</text>
<text text-anchor="start" x="337" y="-214.5" font-family="Cascadia Code NF" font-size="10.00"> </text>
<text text-anchor="start" x="266" y="-198.5" font-family="Cascadia Code NF" font-size="10.00">+</text>
<text text-anchor="start" x="276" y="-198.5" font-family="Cascadia Code NF" font-size="10.00">ToString()</text>
<text text-anchor="start" x="266" y="-182.5" font-family="Cascadia Code NF" font-size="10.00">+</text>
<text text-anchor="start" x="276" y="-182.5" font-family="Cascadia Code NF" font-size="10.00">BooleanValue()</text>
<text text-anchor="start" x="266" y="-166.5" font-family="Cascadia Code NF" font-size="10.00">+</text>
<text text-anchor="start" x="276" y="-166.5" font-family="Cascadia Code NF" font-size="10.00">IsArray()</text>
<text text-anchor="start" x="266" y="-150.5" font-family="Cascadia Code NF" font-size="10.00">+</text>
<text text-anchor="start" x="276" y="-150.5" font-family="Cascadia Code NF" font-size="10.00">Number()</text>
<text text-anchor="start" x="266" y="-134.5" font-family="Cascadia Code NF" font-size="10.00">+</text>
<text text-anchor="start" x="276" y="-134.5" font-family="Cascadia Code NF" font-size="10.00">ToInt32()</text>
<text text-anchor="start" x="266" y="-118.5" font-family="Cascadia Code NF" font-size="10.00">+</text>
<text text-anchor="start" x="276" y="-118.5" font-family="Cascadia Code NF" font-size="10.00">ToUint32()</text>
<text text-anchor="start" x="266" y="-102.5" font-family="Cascadia Code NF" font-size="10.00">+</text>
<text text-anchor="start" x="276" y="-102.5" font-family="Cascadia Code NF" font-size="10.00">OptimalRepresentation()</text>
<text text-anchor="start" x="266" y="-86.5" font-family="Cascadia Code NF" font-size="10.00">+</text>
<text text-anchor="start" x="276" y="-86.5" font-family="Cascadia Code NF" font-size="10.00">OptimalElementsKind()</text>
<text text-anchor="start" x="266" y="-70.5" font-family="Cascadia Code NF" font-size="10.00">+</text>
<text text-anchor="start" x="276" y="-70.5" font-family="Cascadia Code NF" font-size="10.00">FitsRepresentation()</text>
<text text-anchor="start" x="266" y="-54.5" font-family="Cascadia Code NF" font-size="10.00">+</text>
<text text-anchor="start" x="276" y="-54.5" font-family="Cascadia Code NF" font-size="10.00">FilterKey()</text>
<text text-anchor="start" x="266" y="-38.5" font-family="Cascadia Code NF" font-size="10.00">+</text>
<text text-anchor="start" x="276" y="-38.5" font-family="Cascadia Code NF" font-size="10.00">OptimalType()</text>
<text text-anchor="start" x="266" y="-22.5" font-family="Cascadia Code NF" font-size="10.00">+</text>
<text text-anchor="start" x="276" y="-22.5" font-family="Cascadia Code NF" font-size="10.00">NewStorageFor()</text>
<text text-anchor="start" x="276" y="-6.5" font-family="Cascadia Code NF" font-size="10.00">and 73 more...</text>
<polygon fill="#666666" stroke="#666666" points="262,-226 262,-226 418,-226 418,-226 262,-226"/>
<polygon fill="#666666" stroke="#666666" points="262,-210 262,-210 418,-210 418,-210 262,-210"/>
<polygon fill="none" stroke="#666666" points="262,0 262,-244 418,-244 418,0 262,0"/>
</a>
</g>
</g>
<!-- Node2 -->
<g id="Node000002" class="node">
<title>Node2</title>
<g id="a_Node000002"><a xlink:href="$dd/da7/classv8_1_1internal_1_1AllStatic.html" xlink:title=" ">
<polygon fill="white" stroke="none" points="148,-183 0,-183 0,-131 148,-131 148,-183"/>
<text text-anchor="start" x="5" y="-169.5" font-family="Cascadia Code NF" font-size="10.00">v8::internal::AllStatic</text>
<text text-anchor="start" x="71" y="-153.5" font-family="Cascadia Code NF" font-size="10.00"> </text>
<text text-anchor="start" x="71" y="-137.5" font-family="Cascadia Code NF" font-size="10.00"> </text>
<polygon fill="#bfbfbf" stroke="#bfbfbf" points="0,-165 0,-165 148,-165 148,-165 0,-165"/>
<polygon fill="#bfbfbf" stroke="#bfbfbf" points="0,-149 0,-149 148,-149 148,-149 0,-149"/>
<polygon fill="none" stroke="#bfbfbf" points="0,-131 0,-183 148,-183 148,-131 0,-131"/>
</a>
</g>
</g>
<!-- Node2&#45;&gt;Node1 -->
<g id="edge1_Node000001_Node000002" class="edge">
<title>Node2&#45;&gt;Node1</title>
<g id="a_edge1_Node000001_Node000002"><a xlink:title=" ">
<path fill="none" stroke="#63b8ff" d="M158.88,-145.88C192.02,-141.49 229.85,-136.47 262.25,-132.18"/>
<polygon fill="none" stroke="#63b8ff" points="158.79,-142.36 149.34,-147.14 159.71,-149.3 158.79,-142.36"/>
</a>
</g>
</g>
<!-- Node3 -->
<g id="Node000003" class="node">
<title>Node3</title>
<g id="a_Node000003"><a xlink:title=" ">
<polygon fill="white" stroke="none" points="94,-113 54,-113 54,-61 94,-61 94,-113"/>
<text text-anchor="start" x="59" y="-99.5" font-family="Cascadia Code NF" font-size="10.00">const</text>
<text text-anchor="start" x="71" y="-83.5" font-family="Cascadia Code NF" font-size="10.00"> </text>
<text text-anchor="start" x="71" y="-67.5" font-family="Cascadia Code NF" font-size="10.00"> </text>
<polygon fill="#bfbfbf" stroke="#bfbfbf" points="54,-95 54,-95 94,-95 94,-95 54,-95"/>
<polygon fill="#bfbfbf" stroke="#bfbfbf" points="54,-79 54,-79 94,-79 94,-79 54,-79"/>
<polygon fill="none" stroke="#bfbfbf" points="54,-61 54,-113 94,-113 94,-61 54,-61"/>
</a>
</g>
</g>
<!-- Node3&#45;&gt;Node1 -->
<g id="edge2_Node000001_Node000003" class="edge">
<title>Node3&#45;&gt;Node1</title>
<g id="a_edge2_Node000001_Node000003"><a xlink:title=" ">
<path fill="none" stroke="#63b8ff" d="M93.99,-89.52C126.18,-93.79 193.43,-102.7 249.34,-110.11"/>
<polygon fill="none" stroke="#63b8ff" points="249.39,-110.12 255.86,-106.94 261.28,-111.7 254.81,-114.87 249.39,-110.12"/>
</a>
</g>
<text text-anchor="middle" x="205" y="-111.25" font-family="Cascadia Code NF" font-size="10.00" fill="grey"> +kHeaderSize</text>
</g>
</g>
</svg>
