<?xml version="1.0" encoding="UTF-8" standalone="no"?>
<!DOCTYPE svg PUBLIC "-//W3C//DTD SVG 1.1//EN"
 "http://www.w3.org/Graphics/SVG/1.1/DTD/svg11.dtd">
<!-- Generated by graphviz version 11.0.0 (20240428.1522)
 -->
<!-- Title: v8::internal::CpuProfilesCollection Pages: 1 -->
<svg width="420pt" height="310pt"
 viewBox="0.00 0.00 420.00 310.00" xmlns="http://www.w3.org/2000/svg" xmlns:xlink="http://www.w3.org/1999/xlink">

<svg id="main" version="1.1" xmlns="http://www.w3.org/2000/svg" xmlns:xlink="http://www.w3.org/1999/xlink" xml:space="preserve" onload="init(evt)">
<style type="text/css"><![CDATA[
.node, .edge {opacity: 0.7;}
.node.selected, .edge.selected {opacity: 1;}
.edge:hover path { stroke: red; }
.edge:hover polygon { stroke: red; fill: red; }
svg#main { background-color: #111; }
]]></style>
<script type="application/ecmascript" xlink:href="../../svg.min.js"/>
<svg id="graph" class="graph">
<g id="graph0" class="graph" transform="scale(1 1) rotate(0) translate(4 306)">
<title>v8::internal::CpuProfilesCollection</title>
<!-- Node1 -->
<g id="Node000001" class="node">
<title>Node1</title>
<g id="a_Node000001"><a xlink:title=" ">
<polygon fill="#999999" stroke="none" points="412,-302 232,-302 232,0 412,0 412,-302"/>
<text text-anchor="start" x="247" y="-288.5" font-family="Cascadia Code NF" font-size="10.00">v8::internal::CpuProfiles</text>
<text text-anchor="start" x="292" y="-275.75" font-family="Cascadia Code NF" font-size="10.00">Collection</text>
<text text-anchor="start" x="319" y="-259.5" font-family="Cascadia Code NF" font-size="10.00"> </text>
<text text-anchor="start" x="236" y="-243.5" font-family="Cascadia Code NF" font-size="10.00">+</text>
<text text-anchor="start" x="246" y="-243.5" font-family="Cascadia Code NF" font-size="10.00">CpuProfilesCollection()</text>
<text text-anchor="start" x="236" y="-227.5" font-family="Cascadia Code NF" font-size="10.00">+</text>
<text text-anchor="start" x="246" y="-227.5" font-family="Cascadia Code NF" font-size="10.00">CpuProfilesCollection()</text>
<text text-anchor="start" x="236" y="-211.5" font-family="Cascadia Code NF" font-size="10.00">+</text>
<text text-anchor="start" x="246" y="-211.5" font-family="Cascadia Code NF" font-size="10.00">operator=()</text>
<text text-anchor="start" x="236" y="-195.5" font-family="Cascadia Code NF" font-size="10.00">+</text>
<text text-anchor="start" x="246" y="-195.5" font-family="Cascadia Code NF" font-size="10.00">set_cpu_profiler()</text>
<text text-anchor="start" x="236" y="-179.5" font-family="Cascadia Code NF" font-size="10.00">+</text>
<text text-anchor="start" x="246" y="-179.5" font-family="Cascadia Code NF" font-size="10.00">StartProfiling()</text>
<text text-anchor="start" x="236" y="-163.5" font-family="Cascadia Code NF" font-size="10.00">+</text>
<text text-anchor="start" x="246" y="-163.5" font-family="Cascadia Code NF" font-size="10.00">StartProfilingForTesting()</text>
<text text-anchor="start" x="236" y="-147.5" font-family="Cascadia Code NF" font-size="10.00">+</text>
<text text-anchor="start" x="246" y="-147.5" font-family="Cascadia Code NF" font-size="10.00">StopProfiling()</text>
<text text-anchor="start" x="236" y="-131.5" font-family="Cascadia Code NF" font-size="10.00">+</text>
<text text-anchor="start" x="246" y="-131.5" font-family="Cascadia Code NF" font-size="10.00">IsLastProfileLeft()</text>
<text text-anchor="start" x="236" y="-115.5" font-family="Cascadia Code NF" font-size="10.00">+</text>
<text text-anchor="start" x="246" y="-115.5" font-family="Cascadia Code NF" font-size="10.00">Lookup()</text>
<text text-anchor="start" x="236" y="-99.5" font-family="Cascadia Code NF" font-size="10.00">+</text>
<text text-anchor="start" x="246" y="-99.5" font-family="Cascadia Code NF" font-size="10.00">profiles()</text>
<text text-anchor="start" x="236" y="-83.5" font-family="Cascadia Code NF" font-size="10.00">+</text>
<text text-anchor="start" x="246" y="-83.5" font-family="Cascadia Code NF" font-size="10.00">GetName()</text>
<text text-anchor="start" x="236" y="-67.5" font-family="Cascadia Code NF" font-size="10.00">+</text>
<text text-anchor="start" x="246" y="-67.5" font-family="Cascadia Code NF" font-size="10.00">RemoveProfile()</text>
<text text-anchor="start" x="236" y="-51.5" font-family="Cascadia Code NF" font-size="10.00">+</text>
<text text-anchor="start" x="246" y="-51.5" font-family="Cascadia Code NF" font-size="10.00">GetCommonSamplingInterval()</text>
<text text-anchor="start" x="236" y="-35.5" font-family="Cascadia Code NF" font-size="10.00">+</text>
<text text-anchor="start" x="246" y="-35.5" font-family="Cascadia Code NF" font-size="10.00">AddPathToCurrentProfiles()</text>
<text text-anchor="start" x="236" y="-19.5" font-family="Cascadia Code NF" font-size="10.00">+</text>
<text text-anchor="start" x="246" y="-19.5" font-family="Cascadia Code NF" font-size="10.00">UpdateNativeContextAddress</text>
<text text-anchor="start" x="246" y="-6.75" font-family="Cascadia Code NF" font-size="10.00">ForCurrentProfiles()</text>
<polygon fill="#666666" stroke="#666666" points="232,-271 232,-271 412,-271 412,-271 232,-271"/>
<polygon fill="#666666" stroke="#666666" points="232,-255 232,-255 412,-255 412,-255 232,-255"/>
<polygon fill="none" stroke="#666666" points="232,0 232,-302 412,-302 412,0 232,0"/>
</a>
</g>
</g>
<!-- Node2 -->
<g id="Node000002" class="node">
<title>Node2</title>
<g id="a_Node000002"><a xlink:title=" ">
<polygon fill="white" stroke="none" points="40,-177 0,-177 0,-125 40,-125 40,-177"/>
<text text-anchor="start" x="5" y="-163.5" font-family="Cascadia Code NF" font-size="10.00">const</text>
<text text-anchor="start" x="17" y="-147.5" font-family="Cascadia Code NF" font-size="10.00"> </text>
<text text-anchor="start" x="17" y="-131.5" font-family="Cascadia Code NF" font-size="10.00"> </text>
<polygon fill="#bfbfbf" stroke="#bfbfbf" points="0,-159 0,-159 40,-159 40,-159 0,-159"/>
<polygon fill="#bfbfbf" stroke="#bfbfbf" points="0,-143 0,-143 40,-143 40,-143 0,-143"/>
<polygon fill="none" stroke="#bfbfbf" points="0,-125 0,-177 40,-177 40,-125 0,-125"/>
</a>
</g>
</g>
<!-- Node2&#45;&gt;Node1 -->
<g id="edge1_Node000001_Node000002" class="edge">
<title>Node2&#45;&gt;Node1</title>
<g id="a_edge1_Node000001_Node000002"><a xlink:title=" ">
<path fill="none" stroke="#63b8ff" d="M39.77,-151C75.18,-151 154.18,-151 219.46,-151"/>
<polygon fill="none" stroke="#63b8ff" points="219.42,-151 225.42,-147 231.42,-151 225.42,-155 219.42,-151"/>
</a>
</g>
<text text-anchor="middle" x="136" y="-154.25" font-family="Cascadia Code NF" font-size="10.00" fill="grey"> +kMaxSimultaneousProfiles</text>
</g>
</g>
</svg>
</svg>

<style type='text/css'>
<![CDATA[
[data-mouse-over-selected='false'] { opacity: 0.7; }
[data-mouse-over-selected='true']  { opacity: 1.0; }
]]>
</style>
<script type="application/ecmascript"><![CDATA[
document.addEventListener('DOMContentLoaded', (event) => {
  highlightEdges();
  highlightAdjacentNodes();
});
]]></script>
</svg>
