<?xml version="1.0" encoding="UTF-8" standalone="no"?>
<!DOCTYPE svg PUBLIC "-//W3C//DTD SVG 1.1//EN"
 "http://www.w3.org/Graphics/SVG/1.1/DTD/svg11.dtd">
<!-- Generated by graphviz version 11.0.0 (20240428.1522)
 -->
<!-- Title: v8::internal::debug_helper_internal::TqWasmArray Pages: 1 -->
<svg width="964pt" height="169pt"
 viewBox="0.00 0.00 964.00 169.00" xmlns="http://www.w3.org/2000/svg" xmlns:xlink="http://www.w3.org/1999/xlink">
<g id="graph0" class="graph" transform="scale(1 1) rotate(0) translate(4 165)">
<title>v8::internal::debug_helper_internal::TqWasmArray</title>
<!-- Node1 -->
<g id="Node000001" class="node">
<title>Node1</title>
<g id="a_Node000001"><a xlink:title=" ">
<polygon fill="#999999" stroke="none" points="956,-161 772,-161 772,0 956,0 956,-161"/>
<text text-anchor="start" x="777" y="-147.5" font-family="Cascadia Code NF" font-size="10.00">v8::internal::debug</text>
<text text-anchor="start" x="777" y="-134.75" font-family="Cascadia Code NF" font-size="10.00">_helper_internal::TqWasmArray</text>
<text text-anchor="start" x="861" y="-118.5" font-family="Cascadia Code NF" font-size="10.00"> </text>
<text text-anchor="start" x="790.5" y="-102.5" font-family="Cascadia Code NF" font-size="10.00">+</text>
<text text-anchor="start" x="815" y="-102.5" font-family="Cascadia Code NF" font-size="10.00">TqWasmArray()</text>
<text text-anchor="start" x="790.5" y="-86.5" font-family="Cascadia Code NF" font-size="10.00">+</text>
<text text-anchor="start" x="815" y="-86.5" font-family="Cascadia Code NF" font-size="10.00">GetProperties()</text>
<text text-anchor="start" x="790.5" y="-70.5" font-family="Cascadia Code NF" font-size="10.00">+</text>
<text text-anchor="start" x="815" y="-70.5" font-family="Cascadia Code NF" font-size="10.00">GetName()</text>
<text text-anchor="start" x="790.5" y="-54.5" font-family="Cascadia Code NF" font-size="10.00">+</text>
<text text-anchor="start" x="815" y="-54.5" font-family="Cascadia Code NF" font-size="10.00">Visit()</text>
<text text-anchor="start" x="790.5" y="-38.5" font-family="Cascadia Code NF" font-size="10.00">+</text>
<text text-anchor="start" x="815" y="-38.5" font-family="Cascadia Code NF" font-size="10.00">IsSuperclassOf()</text>
<text text-anchor="start" x="790.5" y="-22.5" font-family="Cascadia Code NF" font-size="10.00">+</text>
<text text-anchor="start" x="815" y="-22.5" font-family="Cascadia Code NF" font-size="10.00">GetLengthAddress()</text>
<text text-anchor="start" x="790.5" y="-6.5" font-family="Cascadia Code NF" font-size="10.00">+</text>
<text text-anchor="start" x="815" y="-6.5" font-family="Cascadia Code NF" font-size="10.00">GetLengthValue()</text>
<polygon fill="#666666" stroke="#666666" points="772,-130 772,-130 956,-130 956,-130 772,-130"/>
<polygon fill="#666666" stroke="#666666" points="772,-114 772,-114 956,-114 956,-114 772,-114"/>
<polygon fill="none" stroke="#666666" points="772,0 772,-161 956,-161 956,0 772,0"/>
</a>
</g>
</g>
<!-- Node2 -->
<g id="Node000002" class="node">
<title>Node2</title>
<g id="a_Node000002"><a xlink:href="../../dd/daf/classv8_1_1internal_1_1debug__helper__internal_1_1TqWasmObject.html" target="_top" xlink:title=" ">
<polygon fill="white" stroke="none" points="736,-145 546,-145 546,-16 736,-16 736,-145"/>
<text text-anchor="start" x="551" y="-131.5" font-family="Cascadia Code NF" font-size="10.00">v8::internal::debug</text>
<text text-anchor="start" x="551" y="-118.75" font-family="Cascadia Code NF" font-size="10.00">_helper_internal::TqWasmObject</text>
<text text-anchor="start" x="638" y="-102.5" font-family="Cascadia Code NF" font-size="10.00"> </text>
<text text-anchor="start" x="569" y="-86.5" font-family="Cascadia Code NF" font-size="10.00">+</text>
<text text-anchor="start" x="598" y="-86.5" font-family="Cascadia Code NF" font-size="10.00">TqWasmObject()</text>
<text text-anchor="start" x="569" y="-70.5" font-family="Cascadia Code NF" font-size="10.00">+</text>
<text text-anchor="start" x="598" y="-70.5" font-family="Cascadia Code NF" font-size="10.00">GetProperties()</text>
<text text-anchor="start" x="569" y="-54.5" font-family="Cascadia Code NF" font-size="10.00">+</text>
<text text-anchor="start" x="598" y="-54.5" font-family="Cascadia Code NF" font-size="10.00">GetName()</text>
<text text-anchor="start" x="569" y="-38.5" font-family="Cascadia Code NF" font-size="10.00">+</text>
<text text-anchor="start" x="598" y="-38.5" font-family="Cascadia Code NF" font-size="10.00">Visit()</text>
<text text-anchor="start" x="569" y="-22.5" font-family="Cascadia Code NF" font-size="10.00">+</text>
<text text-anchor="start" x="598" y="-22.5" font-family="Cascadia Code NF" font-size="10.00">IsSuperclassOf()</text>
<polygon fill="#bfbfbf" stroke="#bfbfbf" points="546,-114 546,-114 736,-114 736,-114 546,-114"/>
<polygon fill="#bfbfbf" stroke="#bfbfbf" points="546,-98 546,-98 736,-98 736,-98 546,-98"/>
<polygon fill="none" stroke="#bfbfbf" points="546,-16 546,-145 736,-145 736,-16 546,-16"/>
</a>
</g>
</g>
<!-- Node2&#45;&gt;Node1 -->
<g id="edge1_Node000001_Node000002" class="edge">
<title>Node2&#45;&gt;Node1</title>
<g id="a_edge1_Node000001_Node000002"><a xlink:title=" ">
<path fill="none" stroke="#63b8ff" d="M747.15,-80.5C755.55,-80.5 764.01,-80.5 772.3,-80.5"/>
<polygon fill="none" stroke="#63b8ff" points="747.24,-77 737.24,-80.5 747.24,-84 747.24,-77"/>
</a>
</g>
</g>
<!-- Node3 -->
<g id="Node000003" class="node">
<title>Node3</title>
<g id="a_Node000003"><a xlink:href="../../df/d7b/classv8_1_1internal_1_1debug__helper__internal_1_1TqJSReceiver.html" target="_top" xlink:title=" ">
<polygon fill="white" stroke="none" points="510,-161 320,-161 320,0 510,0 510,-161"/>
<text text-anchor="start" x="325" y="-147.5" font-family="Cascadia Code NF" font-size="10.00">v8::internal::debug</text>
<text text-anchor="start" x="325" y="-134.75" font-family="Cascadia Code NF" font-size="10.00">_helper_internal::TqJSReceiver</text>
<text text-anchor="start" x="412" y="-118.5" font-family="Cascadia Code NF" font-size="10.00"> </text>
<text text-anchor="start" x="325" y="-102.5" font-family="Cascadia Code NF" font-size="10.00">+</text>
<text text-anchor="start" x="336" y="-102.5" font-family="Cascadia Code NF" font-size="10.00">TqJSReceiver()</text>
<text text-anchor="start" x="325" y="-86.5" font-family="Cascadia Code NF" font-size="10.00">+</text>
<text text-anchor="start" x="336" y="-86.5" font-family="Cascadia Code NF" font-size="10.00">GetProperties()</text>
<text text-anchor="start" x="325" y="-70.5" font-family="Cascadia Code NF" font-size="10.00">+</text>
<text text-anchor="start" x="336" y="-70.5" font-family="Cascadia Code NF" font-size="10.00">GetName()</text>
<text text-anchor="start" x="325" y="-54.5" font-family="Cascadia Code NF" font-size="10.00">+</text>
<text text-anchor="start" x="336" y="-54.5" font-family="Cascadia Code NF" font-size="10.00">Visit()</text>
<text text-anchor="start" x="325" y="-38.5" font-family="Cascadia Code NF" font-size="10.00">+</text>
<text text-anchor="start" x="336" y="-38.5" font-family="Cascadia Code NF" font-size="10.00">IsSuperclassOf()</text>
<text text-anchor="start" x="325" y="-22.5" font-family="Cascadia Code NF" font-size="10.00">+</text>
<text text-anchor="start" x="336" y="-22.5" font-family="Cascadia Code NF" font-size="10.00">GetPropertiesOrHashAddress()</text>
<text text-anchor="start" x="325" y="-6.5" font-family="Cascadia Code NF" font-size="10.00">+</text>
<text text-anchor="start" x="336" y="-6.5" font-family="Cascadia Code NF" font-size="10.00">GetPropertiesOrHashValue()</text>
<polygon fill="#bfbfbf" stroke="#bfbfbf" points="320,-130 320,-130 510,-130 510,-130 320,-130"/>
<polygon fill="#bfbfbf" stroke="#bfbfbf" points="320,-114 320,-114 510,-114 510,-114 320,-114"/>
<polygon fill="none" stroke="#bfbfbf" points="320,0 320,-161 510,-161 510,0 320,0"/>
</a>
</g>
</g>
<!-- Node3&#45;&gt;Node2 -->
<g id="edge2_Node000002_Node000003" class="edge">
<title>Node3&#45;&gt;Node2</title>
<g id="a_edge2_Node000002_Node000003"><a xlink:title=" ">
<path fill="none" stroke="#63b8ff" d="M521.12,-80.5C529.53,-80.5 537.99,-80.5 546.32,-80.5"/>
<polygon fill="none" stroke="#63b8ff" points="521.21,-77 511.21,-80.5 521.21,-84 521.21,-77"/>
</a>
</g>
</g>
<!-- Node4 -->
<g id="Node000004" class="node">
<title>Node4</title>
<g id="a_Node000004"><a xlink:href="../../db/deb/classv8_1_1internal_1_1debug__helper__internal_1_1TqHeapObject.html" target="_top" xlink:title=" ">
<polygon fill="white" stroke="none" points="284,-161 94,-161 94,0 284,0 284,-161"/>
<text text-anchor="start" x="99" y="-147.5" font-family="Cascadia Code NF" font-size="10.00">v8::internal::debug</text>
<text text-anchor="start" x="99" y="-134.75" font-family="Cascadia Code NF" font-size="10.00">_helper_internal::TqHeapObject</text>
<text text-anchor="start" x="186" y="-118.5" font-family="Cascadia Code NF" font-size="10.00"> </text>
<text text-anchor="start" x="117" y="-102.5" font-family="Cascadia Code NF" font-size="10.00">+</text>
<text text-anchor="start" x="146" y="-102.5" font-family="Cascadia Code NF" font-size="10.00">TqHeapObject()</text>
<text text-anchor="start" x="117" y="-86.5" font-family="Cascadia Code NF" font-size="10.00">+</text>
<text text-anchor="start" x="146" y="-86.5" font-family="Cascadia Code NF" font-size="10.00">GetProperties()</text>
<text text-anchor="start" x="117" y="-70.5" font-family="Cascadia Code NF" font-size="10.00">+</text>
<text text-anchor="start" x="146" y="-70.5" font-family="Cascadia Code NF" font-size="10.00">GetName()</text>
<text text-anchor="start" x="117" y="-54.5" font-family="Cascadia Code NF" font-size="10.00">+</text>
<text text-anchor="start" x="146" y="-54.5" font-family="Cascadia Code NF" font-size="10.00">Visit()</text>
<text text-anchor="start" x="117" y="-38.5" font-family="Cascadia Code NF" font-size="10.00">+</text>
<text text-anchor="start" x="146" y="-38.5" font-family="Cascadia Code NF" font-size="10.00">IsSuperclassOf()</text>
<text text-anchor="start" x="117" y="-22.5" font-family="Cascadia Code NF" font-size="10.00">+</text>
<text text-anchor="start" x="146" y="-22.5" font-family="Cascadia Code NF" font-size="10.00">GetMapAddress()</text>
<text text-anchor="start" x="117" y="-6.5" font-family="Cascadia Code NF" font-size="10.00">+</text>
<text text-anchor="start" x="146" y="-6.5" font-family="Cascadia Code NF" font-size="10.00">GetMapValue()</text>
<polygon fill="#bfbfbf" stroke="#bfbfbf" points="94,-130 94,-130 284,-130 284,-130 94,-130"/>
<polygon fill="#bfbfbf" stroke="#bfbfbf" points="94,-114 94,-114 284,-114 284,-114 94,-114"/>
<polygon fill="none" stroke="#bfbfbf" points="94,0 94,-161 284,-161 284,0 94,0"/>
</a>
</g>
</g>
<!-- Node4&#45;&gt;Node3 -->
<g id="edge3_Node000003_Node000004" class="edge">
<title>Node4&#45;&gt;Node3</title>
<g id="a_edge3_Node000003_Node000004"><a xlink:title=" ">
<path fill="none" stroke="#63b8ff" d="M295.12,-80.5C303.53,-80.5 311.99,-80.5 320.32,-80.5"/>
<polygon fill="none" stroke="#63b8ff" points="295.21,-77 285.21,-80.5 295.21,-84 295.21,-77"/>
</a>
</g>
</g>
<!-- Node5 -->
<g id="Node000005" class="node">
<title>Node5</title>
<g id="a_Node000005"><a xlink:href="../../dd/d42/classTqObject.html" target="_top" xlink:title=" ">
<polygon fill="white" stroke="none" points="58,-106.5 0,-106.5 0,-54.5 58,-54.5 58,-106.5"/>
<text text-anchor="start" x="5" y="-93" font-family="Cascadia Code NF" font-size="10.00">TqObject</text>
<text text-anchor="start" x="26" y="-77" font-family="Cascadia Code NF" font-size="10.00"> </text>
<text text-anchor="start" x="26" y="-61" font-family="Cascadia Code NF" font-size="10.00"> </text>
<polygon fill="#bfbfbf" stroke="#bfbfbf" points="0,-88.5 0,-88.5 58,-88.5 58,-88.5 0,-88.5"/>
<polygon fill="#bfbfbf" stroke="#bfbfbf" points="0,-72.5 0,-72.5 58,-72.5 58,-72.5 0,-72.5"/>
<polygon fill="none" stroke="#bfbfbf" points="0,-54.5 0,-106.5 58,-106.5 58,-54.5 0,-54.5"/>
</a>
</g>
</g>
<!-- Node5&#45;&gt;Node4 -->
<g id="edge4_Node000004_Node000005" class="edge">
<title>Node5&#45;&gt;Node4</title>
<g id="a_edge4_Node000004_Node000005"><a xlink:title=" ">
<path fill="none" stroke="#63b8ff" d="M69.34,-80.5C77.03,-80.5 85.39,-80.5 94,-80.5"/>
<polygon fill="none" stroke="#63b8ff" points="69.4,-77 59.4,-80.5 69.4,-84 69.4,-77"/>
</a>
</g>
</g>
</g>
</svg>
