<?xml version="1.0" encoding="UTF-8" standalone="no"?>
<!DOCTYPE svg PUBLIC "-//W3C//DTD SVG 1.1//EN"
 "http://www.w3.org/Graphics/SVG/1.1/DTD/svg11.dtd">
<!-- Generated by graphviz version 11.0.0 (20240428.1522)
 -->
<!-- Title: v8::Counter Pages: 1 -->
<svg width="270pt" height="140pt"
 viewBox="0.00 0.00 270.00 140.00" xmlns="http://www.w3.org/2000/svg" xmlns:xlink="http://www.w3.org/1999/xlink">
<g id="graph0" class="graph" transform="scale(1 1) rotate(0) translate(4 136)">
<title>v8::Counter</title>
<!-- Node1 -->
<g id="Node000001" class="node">
<title>Node1</title>
<g id="a_Node000001"><a xlink:title=" ">
<polygon fill="#999999" stroke="none" points="262,-132 160,-132 160,0 262,0 262,-132"/>
<text text-anchor="start" x="178" y="-118.5" font-family="Cascadia Code NF" font-size="10.00">v8::Counter</text>
<text text-anchor="start" x="208" y="-102.5" font-family="Cascadia Code NF" font-size="10.00"> </text>
<text text-anchor="start" x="164" y="-86.5" font-family="Cascadia Code NF" font-size="10.00">+</text>
<text text-anchor="start" x="174" y="-86.5" font-family="Cascadia Code NF" font-size="10.00">Bind()</text>
<text text-anchor="start" x="164" y="-70.5" font-family="Cascadia Code NF" font-size="10.00">+</text>
<text text-anchor="start" x="174" y="-70.5" font-family="Cascadia Code NF" font-size="10.00">ptr()</text>
<text text-anchor="start" x="164" y="-54.5" font-family="Cascadia Code NF" font-size="10.00">+</text>
<text text-anchor="start" x="174" y="-54.5" font-family="Cascadia Code NF" font-size="10.00">count()</text>
<text text-anchor="start" x="164" y="-38.5" font-family="Cascadia Code NF" font-size="10.00">+</text>
<text text-anchor="start" x="174" y="-38.5" font-family="Cascadia Code NF" font-size="10.00">sample_total()</text>
<text text-anchor="start" x="164" y="-22.5" font-family="Cascadia Code NF" font-size="10.00">+</text>
<text text-anchor="start" x="174" y="-22.5" font-family="Cascadia Code NF" font-size="10.00">is_histogram()</text>
<text text-anchor="start" x="164" y="-6.5" font-family="Cascadia Code NF" font-size="10.00">+</text>
<text text-anchor="start" x="174" y="-6.5" font-family="Cascadia Code NF" font-size="10.00">AddSample()</text>
<polygon fill="#666666" stroke="#666666" points="160,-114 160,-114 262,-114 262,-114 160,-114"/>
<polygon fill="#666666" stroke="#666666" points="160,-98 160,-98 262,-98 262,-98 160,-98"/>
<polygon fill="none" stroke="#666666" points="160,0 160,-132 262,-132 262,0 160,0"/>
</a>
</g>
</g>
<!-- Node2 -->
<g id="Node000002" class="node">
<title>Node2</title>
<g id="a_Node000002"><a xlink:title=" ">
<polygon fill="white" stroke="none" points="40,-92 0,-92 0,-40 40,-40 40,-92"/>
<text text-anchor="start" x="5" y="-78.5" font-family="Cascadia Code NF" font-size="10.00">const</text>
<text text-anchor="start" x="17" y="-62.5" font-family="Cascadia Code NF" font-size="10.00"> </text>
<text text-anchor="start" x="17" y="-46.5" font-family="Cascadia Code NF" font-size="10.00"> </text>
<polygon fill="#bfbfbf" stroke="#bfbfbf" points="0,-74 0,-74 40,-74 40,-74 0,-74"/>
<polygon fill="#bfbfbf" stroke="#bfbfbf" points="0,-58 0,-58 40,-58 40,-58 0,-58"/>
<polygon fill="none" stroke="#bfbfbf" points="0,-40 0,-92 40,-92 40,-40 0,-40"/>
</a>
</g>
</g>
<!-- Node2&#45;&gt;Node1 -->
<g id="edge1_Node000001_Node000002" class="edge">
<title>Node2&#45;&gt;Node1</title>
<g id="a_edge1_Node000001_Node000002"><a xlink:title=" ">
<path fill="none" stroke="#63b8ff" d="M39.81,-66C64.7,-66 109.81,-66 147.33,-66"/>
<polygon fill="none" stroke="#63b8ff" points="147.34,-66 153.34,-62 159.34,-66 153.34,-70 147.34,-66"/>
</a>
</g>
<text text-anchor="middle" x="100" y="-69.25" font-family="Cascadia Code NF" font-size="10.00" fill="grey"> +kMaxNameSize</text>
</g>
</g>
</svg>
