<?xml version="1.0" encoding="UTF-8" standalone="no"?>
<!DOCTYPE svg PUBLIC "-//W3C//DTD SVG 1.1//EN"
 "http://www.w3.org/Graphics/SVG/1.1/DTD/svg11.dtd">
<!-- Generated by graphviz version 11.0.0 (20240428.1522)
 -->
<!-- Title: v8::internal::SloppyArgumentsElements Pages: 1 -->
<svg width="874pt" height="438pt"
 viewBox="0.00 0.00 874.00 438.00" xmlns="http://www.w3.org/2000/svg" xmlns:xlink="http://www.w3.org/1999/xlink">
<g id="graph0" class="graph" transform="scale(1 1) rotate(0) translate(4 434)">
<title>v8::internal::SloppyArgumentsElements</title>
<!-- Node1 -->
<g id="Node000001" class="node">
<title>Node1</title>
<g id="a_Node000001"><a xlink:title=" ">
<polygon fill="#999999" stroke="none" points="866,-319.5 682,-319.5 682,-110.5 866,-110.5 866,-319.5"/>
<text text-anchor="start" x="687" y="-306" font-family="Cascadia Code NF" font-size="10.00">v8::internal::SloppyArguments</text>
<text text-anchor="start" x="750" y="-293.25" font-family="Cascadia Code NF" font-size="10.00">Elements</text>
<text text-anchor="start" x="771" y="-277" font-family="Cascadia Code NF" font-size="10.00"> </text>
<text text-anchor="start" x="697.5" y="-261" font-family="Cascadia Code NF" font-size="10.00">+</text>
<text text-anchor="start" x="719" y="-261" font-family="Cascadia Code NF" font-size="10.00">context()</text>
<text text-anchor="start" x="697.5" y="-245" font-family="Cascadia Code NF" font-size="10.00">+</text>
<text text-anchor="start" x="719" y="-245" font-family="Cascadia Code NF" font-size="10.00">set_context()</text>
<text text-anchor="start" x="697.5" y="-229" font-family="Cascadia Code NF" font-size="10.00">+</text>
<text text-anchor="start" x="719" y="-229" font-family="Cascadia Code NF" font-size="10.00">arguments()</text>
<text text-anchor="start" x="697.5" y="-213" font-family="Cascadia Code NF" font-size="10.00">+</text>
<text text-anchor="start" x="719" y="-213" font-family="Cascadia Code NF" font-size="10.00">set_arguments()</text>
<text text-anchor="start" x="697.5" y="-197" font-family="Cascadia Code NF" font-size="10.00">+</text>
<text text-anchor="start" x="719" y="-197" font-family="Cascadia Code NF" font-size="10.00">mapped_entries()</text>
<text text-anchor="start" x="697.5" y="-181" font-family="Cascadia Code NF" font-size="10.00">+</text>
<text text-anchor="start" x="719" y="-181" font-family="Cascadia Code NF" font-size="10.00">set_mapped_entries()</text>
<text text-anchor="start" x="697.5" y="-165" font-family="Cascadia Code NF" font-size="10.00">+</text>
<text text-anchor="start" x="719" y="-165" font-family="Cascadia Code NF" font-size="10.00">set_mapped_entries()</text>
<text text-anchor="start" x="697.5" y="-149" font-family="Cascadia Code NF" font-size="10.00">+</text>
<text text-anchor="start" x="719" y="-149" font-family="Cascadia Code NF" font-size="10.00">AllocatedSize()</text>
<text text-anchor="start" x="697.5" y="-133" font-family="Cascadia Code NF" font-size="10.00">+</text>
<text text-anchor="start" x="719" y="-133" font-family="Cascadia Code NF" font-size="10.00">SizeFor()</text>
<text text-anchor="start" x="697.5" y="-117" font-family="Cascadia Code NF" font-size="10.00">+</text>
<text text-anchor="start" x="719" y="-117" font-family="Cascadia Code NF" font-size="10.00">OffsetOfElementAt()</text>
<polygon fill="#666666" stroke="#666666" points="682,-288.5 682,-288.5 866,-288.5 866,-288.5 682,-288.5"/>
<polygon fill="#666666" stroke="#666666" points="682,-272.5 682,-272.5 866,-272.5 866,-272.5 682,-272.5"/>
<polygon fill="none" stroke="#666666" points="682,-110.5 682,-319.5 866,-319.5 866,-110.5 682,-110.5"/>
</a>
</g>
</g>
<!-- Node2 -->
<g id="Node000002" class="node">
<title>Node2</title>
<g id="a_Node000002"><a xlink:href="$d1/d7a/classv8_1_1internal_1_1FixedArrayBase.html" xlink:title=" ">
<polygon fill="white" stroke="none" points="646,-313 418,-313 418,-117 646,-117 646,-313"/>
<text text-anchor="start" x="448" y="-299.5" font-family="Cascadia Code NF" font-size="10.00">v8::internal::FixedArrayBase</text>
<text text-anchor="start" x="422" y="-283.5" font-family="Cascadia Code NF" font-size="10.00">+</text>
<text text-anchor="start" x="432" y="-283.5" font-family="Cascadia Code NF" font-size="10.00">kLengthOffset</text>
<text text-anchor="start" x="422" y="-267.5" font-family="Cascadia Code NF" font-size="10.00">+</text>
<text text-anchor="start" x="432" y="-267.5" font-family="Cascadia Code NF" font-size="10.00">kHeaderSize</text>
<text text-anchor="start" x="422" y="-251.5" font-family="Cascadia Code NF" font-size="10.00">+</text>
<text text-anchor="start" x="432" y="-251.5" font-family="Cascadia Code NF" font-size="10.00">kMaxLength</text>
<text text-anchor="start" x="422" y="-235.5" font-family="Cascadia Code NF" font-size="10.00">+</text>
<text text-anchor="start" x="432" y="-235.5" font-family="Cascadia Code NF" font-size="10.00">kMaxRegularLength</text>
<text text-anchor="start" x="422" y="-219.5" font-family="Cascadia Code NF" font-size="10.00">+</text>
<text text-anchor="start" x="432" y="-219.5" font-family="Cascadia Code NF" font-size="10.00">kMaxSize</text>
<text text-anchor="start" x="422" y="-203.5" font-family="Cascadia Code NF" font-size="10.00">+</text>
<text text-anchor="start" x="432" y="-203.5" font-family="Cascadia Code NF" font-size="10.00">length()</text>
<text text-anchor="start" x="422" y="-187.5" font-family="Cascadia Code NF" font-size="10.00">+</text>
<text text-anchor="start" x="432" y="-187.5" font-family="Cascadia Code NF" font-size="10.00">length()</text>
<text text-anchor="start" x="422" y="-171.5" font-family="Cascadia Code NF" font-size="10.00">+</text>
<text text-anchor="start" x="432" y="-171.5" font-family="Cascadia Code NF" font-size="10.00">set_length()</text>
<text text-anchor="start" x="422" y="-155.5" font-family="Cascadia Code NF" font-size="10.00">+</text>
<text text-anchor="start" x="432" y="-155.5" font-family="Cascadia Code NF" font-size="10.00">set_length()</text>
<text text-anchor="start" x="422" y="-139.5" font-family="Cascadia Code NF" font-size="10.00">+</text>
<text text-anchor="start" x="432" y="-139.5" font-family="Cascadia Code NF" font-size="10.00">IsCowArray()</text>
<text text-anchor="start" x="422" y="-123.5" font-family="Cascadia Code NF" font-size="10.00">+</text>
<text text-anchor="start" x="432" y="-123.5" font-family="Cascadia Code NF" font-size="10.00">GetMaxLengthForNewSpaceAllocation()</text>
<polygon fill="#bfbfbf" stroke="#bfbfbf" points="418,-295 418,-295 646,-295 646,-295 418,-295"/>
<polygon fill="#bfbfbf" stroke="#bfbfbf" points="418,-215 418,-215 430,-215 430,-215 418,-215"/>
<polygon fill="#bfbfbf" stroke="#bfbfbf" points="430,-215 430,-215 646,-215 646,-215 430,-215"/>
<polygon fill="none" stroke="#bfbfbf" points="418,-117 418,-313 646,-313 646,-117 418,-117"/>
</a>
</g>
</g>
<!-- Node2&#45;&gt;Node1 -->
<g id="edge1_Node000001_Node000002" class="edge">
<title>Node2&#45;&gt;Node1</title>
<g id="a_edge1_Node000001_Node000002"><a xlink:title=" ">
<path fill="none" stroke="#63b8ff" d="M657.38,-215C665.75,-215 674.09,-215 682.23,-215"/>
<polygon fill="none" stroke="#63b8ff" points="657.49,-211.5 647.49,-215 657.49,-218.5 657.49,-211.5"/>
</a>
</g>
</g>
<!-- Node3 -->
<g id="Node000003" class="node">
<title>Node3</title>
<g id="a_Node000003"><a xlink:href="$d0/d31/classv8_1_1internal_1_1HeapObject.html" xlink:title=" ">
<polygon fill="white" stroke="none" points="382,-430 196,-430 196,0 382,0 382,-430"/>
<text text-anchor="start" x="217" y="-416.5" font-family="Cascadia Code NF" font-size="10.00">v8::internal::HeapObject</text>
<text text-anchor="start" x="200" y="-400.5" font-family="Cascadia Code NF" font-size="10.00">+</text>
<text text-anchor="start" x="210" y="-400.5" font-family="Cascadia Code NF" font-size="10.00">kMapOffset</text>
<text text-anchor="start" x="200" y="-384.5" font-family="Cascadia Code NF" font-size="10.00">+</text>
<text text-anchor="start" x="210" y="-384.5" font-family="Cascadia Code NF" font-size="10.00">kHeaderSize</text>
<text text-anchor="start" x="200" y="-368.5" font-family="Cascadia Code NF" font-size="10.00">+</text>
<text text-anchor="start" x="210" y="-368.5" font-family="Cascadia Code NF" font-size="10.00">HeapObject()</text>
<text text-anchor="start" x="200" y="-352.5" font-family="Cascadia Code NF" font-size="10.00">+</text>
<text text-anchor="start" x="210" y="-352.5" font-family="Cascadia Code NF" font-size="10.00">set_map()</text>
<text text-anchor="start" x="200" y="-336.5" font-family="Cascadia Code NF" font-size="10.00">+</text>
<text text-anchor="start" x="210" y="-336.5" font-family="Cascadia Code NF" font-size="10.00">set_map_safe_transition()</text>
<text text-anchor="start" x="200" y="-320.5" font-family="Cascadia Code NF" font-size="10.00">+</text>
<text text-anchor="start" x="210" y="-320.5" font-family="Cascadia Code NF" font-size="10.00">map_slot()</text>
<text text-anchor="start" x="200" y="-304.5" font-family="Cascadia Code NF" font-size="10.00">+</text>
<text text-anchor="start" x="210" y="-304.5" font-family="Cascadia Code NF" font-size="10.00">set_map_no_write_barrier()</text>
<text text-anchor="start" x="200" y="-288.5" font-family="Cascadia Code NF" font-size="10.00">+</text>
<text text-anchor="start" x="210" y="-288.5" font-family="Cascadia Code NF" font-size="10.00">set_map_no_write_barrier()</text>
<text text-anchor="start" x="200" y="-272.5" font-family="Cascadia Code NF" font-size="10.00">+</text>
<text text-anchor="start" x="210" y="-272.5" font-family="Cascadia Code NF" font-size="10.00">set_map_safe_transition</text>
<text text-anchor="start" x="210" y="-259.75" font-family="Cascadia Code NF" font-size="10.00">_no_write_barrier()</text>
<text text-anchor="start" x="200" y="-243.5" font-family="Cascadia Code NF" font-size="10.00">+</text>
<text text-anchor="start" x="210" y="-243.5" font-family="Cascadia Code NF" font-size="10.00">set_map_safe_transition</text>
<text text-anchor="start" x="210" y="-230.75" font-family="Cascadia Code NF" font-size="10.00">_no_write_barrier()</text>
<text text-anchor="start" x="200" y="-214.5" font-family="Cascadia Code NF" font-size="10.00">+</text>
<text text-anchor="start" x="210" y="-214.5" font-family="Cascadia Code NF" font-size="10.00">set_map()</text>
<text text-anchor="start" x="200" y="-198.5" font-family="Cascadia Code NF" font-size="10.00">+</text>
<text text-anchor="start" x="210" y="-198.5" font-family="Cascadia Code NF" font-size="10.00">set_map_safe_transition()</text>
<text text-anchor="start" x="210" y="-182.5" font-family="Cascadia Code NF" font-size="10.00">and 69 more...</text>
<text text-anchor="start" x="200" y="-166.5" font-family="Cascadia Code NF" font-size="10.00">+</text>
<text text-anchor="start" x="210" y="-166.5" font-family="Cascadia Code NF" font-size="10.00">SetFillerMap()</text>
<text text-anchor="start" x="200" y="-150.5" font-family="Cascadia Code NF" font-size="10.00">+</text>
<text text-anchor="start" x="210" y="-150.5" font-family="Cascadia Code NF" font-size="10.00">FromAddress()</text>
<text text-anchor="start" x="200" y="-134.5" font-family="Cascadia Code NF" font-size="10.00">+</text>
<text text-anchor="start" x="210" y="-134.5" font-family="Cascadia Code NF" font-size="10.00">SeqCst_CompareAndSwapField()</text>
<text text-anchor="start" x="200" y="-118.5" font-family="Cascadia Code NF" font-size="10.00">+</text>
<text text-anchor="start" x="210" y="-118.5" font-family="Cascadia Code NF" font-size="10.00">Print()</text>
<text text-anchor="start" x="200" y="-102.5" font-family="Cascadia Code NF" font-size="10.00">+</text>
<text text-anchor="start" x="210" y="-102.5" font-family="Cascadia Code NF" font-size="10.00">Print()</text>
<text text-anchor="start" x="200" y="-86.5" font-family="Cascadia Code NF" font-size="10.00">+</text>
<text text-anchor="start" x="210" y="-86.5" font-family="Cascadia Code NF" font-size="10.00">RequiredAlignment()</text>
<text text-anchor="start" x="200" y="-70.5" font-family="Cascadia Code NF" font-size="10.00">#</text>
<text text-anchor="start" x="210" y="-70.5" font-family="Cascadia Code NF" font-size="10.00">HeapObject()</text>
<text text-anchor="start" x="200" y="-54.5" font-family="Cascadia Code NF" font-size="10.00">#</text>
<text text-anchor="start" x="210" y="-54.5" font-family="Cascadia Code NF" font-size="10.00">HeapObject()</text>
<text text-anchor="start" x="200" y="-38.5" font-family="Cascadia Code NF" font-size="10.00">#</text>
<text text-anchor="start" x="210" y="-38.5" font-family="Cascadia Code NF" font-size="10.00">field_address()</text>
<text text-anchor="start" x="200" y="-22.5" font-family="Cascadia Code NF" font-size="10.00">#</text>
<text text-anchor="start" x="210" y="-22.5" font-family="Cascadia Code NF" font-size="10.00">IsSmi()</text>
<text text-anchor="start" x="200" y="-6.5" font-family="Cascadia Code NF" font-size="10.00">#</text>
<text text-anchor="start" x="210" y="-6.5" font-family="Cascadia Code NF" font-size="10.00">IsHeapObject()</text>
<polygon fill="#bfbfbf" stroke="#bfbfbf" points="196,-412 196,-412 382,-412 382,-412 196,-412"/>
<polygon fill="#bfbfbf" stroke="#bfbfbf" points="196,-380 196,-380 208,-380 208,-380 196,-380"/>
<polygon fill="#bfbfbf" stroke="#bfbfbf" points="208,-380 208,-380 382,-380 382,-380 208,-380"/>
<polygon fill="none" stroke="#bfbfbf" points="196,0 196,-430 382,-430 382,0 196,0"/>
</a>
</g>
</g>
<!-- Node3&#45;&gt;Node2 -->
<g id="edge2_Node000002_Node000003" class="edge">
<title>Node3&#45;&gt;Node2</title>
<g id="a_edge2_Node000002_Node000003"><a xlink:title=" ">
<path fill="none" stroke="#63b8ff" d="M393.12,-215C401.49,-215 409.98,-215 418.41,-215"/>
<polygon fill="none" stroke="#63b8ff" points="393.31,-211.5 383.31,-215 393.31,-218.5 393.31,-211.5"/>
</a>
</g>
</g>
<!-- Node4 -->
<g id="Node000004" class="node">
<title>Node4</title>
<g id="a_Node000004"><a xlink:href="$df/d94/classv8_1_1internal_1_1TaggedImpl.html" xlink:title=" ">
<polygon fill="white" stroke="none" points="160,-358 0,-358 0,-72 160,-72 160,-358"/>
<text text-anchor="start" x="5" y="-344.5" font-family="Cascadia Code NF" font-size="10.00">v8::internal::TaggedImpl</text>
<text text-anchor="start" x="5" y="-331.75" font-family="Cascadia Code NF" font-size="10.00">&lt; HeapObjectReferenceType</text>
<text text-anchor="start" x="23" y="-319" font-family="Cascadia Code NF" font-size="10.00">::STRONG, Address &gt;</text>
<text text-anchor="start" x="17" y="-302.5" font-family="Cascadia Code NF" font-size="10.00">+</text>
<text text-anchor="start" x="40" y="-302.5" font-family="Cascadia Code NF" font-size="10.00">kIsFull</text>
<text text-anchor="start" x="17" y="-286.5" font-family="Cascadia Code NF" font-size="10.00">+</text>
<text text-anchor="start" x="40" y="-286.5" font-family="Cascadia Code NF" font-size="10.00">kCanBeWeak</text>
<text text-anchor="start" x="17" y="-270.5" font-family="Cascadia Code NF" font-size="10.00">+</text>
<text text-anchor="start" x="40" y="-270.5" font-family="Cascadia Code NF" font-size="10.00">TaggedImpl()</text>
<text text-anchor="start" x="17" y="-254.5" font-family="Cascadia Code NF" font-size="10.00">+</text>
<text text-anchor="start" x="40" y="-254.5" font-family="Cascadia Code NF" font-size="10.00">TaggedImpl()</text>
<text text-anchor="start" x="17" y="-238.5" font-family="Cascadia Code NF" font-size="10.00">+</text>
<text text-anchor="start" x="40" y="-238.5" font-family="Cascadia Code NF" font-size="10.00">operator bool()</text>
<text text-anchor="start" x="17" y="-222.5" font-family="Cascadia Code NF" font-size="10.00">+</text>
<text text-anchor="start" x="40" y="-222.5" font-family="Cascadia Code NF" font-size="10.00">operator==()</text>
<text text-anchor="start" x="17" y="-206.5" font-family="Cascadia Code NF" font-size="10.00">+</text>
<text text-anchor="start" x="40" y="-206.5" font-family="Cascadia Code NF" font-size="10.00">operator!=()</text>
<text text-anchor="start" x="17" y="-190.5" font-family="Cascadia Code NF" font-size="10.00">+</text>
<text text-anchor="start" x="40" y="-190.5" font-family="Cascadia Code NF" font-size="10.00">SafeEquals()</text>
<text text-anchor="start" x="17" y="-174.5" font-family="Cascadia Code NF" font-size="10.00">+</text>
<text text-anchor="start" x="40" y="-174.5" font-family="Cascadia Code NF" font-size="10.00">operator&lt;()</text>
<text text-anchor="start" x="17" y="-158.5" font-family="Cascadia Code NF" font-size="10.00">+</text>
<text text-anchor="start" x="40" y="-158.5" font-family="Cascadia Code NF" font-size="10.00">ptr()</text>
<text text-anchor="start" x="17" y="-142.5" font-family="Cascadia Code NF" font-size="10.00">+</text>
<text text-anchor="start" x="40" y="-142.5" font-family="Cascadia Code NF" font-size="10.00">IsObject()</text>
<text text-anchor="start" x="17" y="-126.5" font-family="Cascadia Code NF" font-size="10.00">+</text>
<text text-anchor="start" x="40" y="-126.5" font-family="Cascadia Code NF" font-size="10.00">IsSmi()</text>
<text text-anchor="start" x="40" y="-110.5" font-family="Cascadia Code NF" font-size="10.00">and 25 more...</text>
<text text-anchor="start" x="17" y="-94.5" font-family="Cascadia Code NF" font-size="10.00">#</text>
<text text-anchor="start" x="40" y="-94.5" font-family="Cascadia Code NF" font-size="10.00">ptr_location()</text>
<text text-anchor="start" x="17" y="-78.5" font-family="Cascadia Code NF" font-size="10.00">#</text>
<text text-anchor="start" x="40" y="-78.5" font-family="Cascadia Code NF" font-size="10.00">ptr_location()</text>
<polygon fill="#bfbfbf" stroke="#bfbfbf" points="0,-314 0,-314 160,-314 160,-314 0,-314"/>
<polygon fill="#bfbfbf" stroke="#bfbfbf" points="0,-282 0,-282 38,-282 38,-282 0,-282"/>
<polygon fill="#bfbfbf" stroke="#bfbfbf" points="38,-282 38,-282 160,-282 160,-282 38,-282"/>
<polygon fill="none" stroke="#bfbfbf" points="0,-72 0,-358 160,-358 160,-72 0,-72"/>
</a>
</g>
</g>
<!-- Node4&#45;&gt;Node3 -->
<g id="edge3_Node000003_Node000004" class="edge">
<title>Node4&#45;&gt;Node3</title>
<g id="a_edge3_Node000003_Node000004"><a xlink:title=" ">
<path fill="none" stroke="#63b8ff" d="M171.1,-215C179.42,-215 187.86,-215 196.2,-215"/>
<polygon fill="none" stroke="#63b8ff" points="171.36,-211.5 161.36,-215 171.36,-218.5 171.36,-211.5"/>
</a>
</g>
</g>
</g>
</svg>
