<?xml version="1.0" encoding="UTF-8" standalone="no"?>
<!DOCTYPE svg PUBLIC "-//W3C//DTD SVG 1.1//EN"
 "http://www.w3.org/Graphics/SVG/1.1/DTD/svg11.dtd">
<!-- Generated by graphviz version 11.0.0 (20240428.1522)
 -->
<!-- Title: v8::internal::compiler::turboshaft::detail::ConstOrVTypeHelper&lt; T, std::void_t&lt; ConstOrV&lt; T &gt; &gt; &gt; Pages: 1 -->
<svg width="274pt" height="111pt"
 viewBox="0.00 0.00 274.00 111.00" xmlns="http://www.w3.org/2000/svg" xmlns:xlink="http://www.w3.org/1999/xlink">
<g id="graph0" class="graph" transform="scale(1 1) rotate(0) translate(4 107)">
<title>v8::internal::compiler::turboshaft::detail::ConstOrVTypeHelper&lt; T, std::void_t&lt; ConstOrV&lt; T &gt; &gt; &gt;</title>
<!-- Node1 -->
<g id="Node000001" class="node">
<title>Node1</title>
<g id="a_Node000001"><a xlink:title=" ">
<polygon fill="#999999" stroke="none" points="266,-103 118,-103 118,0 266,0 266,-103"/>
<text text-anchor="start" x="123" y="-89.5" font-family="Cascadia Code NF" font-size="10.00">v8::internal::compiler</text>
<text text-anchor="start" x="123" y="-76.75" font-family="Cascadia Code NF" font-size="10.00">::turboshaft::detail::</text>
<text text-anchor="start" x="123" y="-64" font-family="Cascadia Code NF" font-size="10.00">ConstOrVTypeHelper&lt; T,</text>
<text text-anchor="start" x="123" y="-51.25" font-family="Cascadia Code NF" font-size="10.00"> std::void_t&lt; ConstOrV&lt;</text>
<text text-anchor="start" x="168" y="-38.5" font-family="Cascadia Code NF" font-size="10.00"> T &gt; &gt; &gt;</text>
<text text-anchor="start" x="189" y="-22.5" font-family="Cascadia Code NF" font-size="10.00"> </text>
<text text-anchor="start" x="189" y="-6.5" font-family="Cascadia Code NF" font-size="10.00"> </text>
<polygon fill="#666666" stroke="#666666" points="118,-34 118,-34 266,-34 266,-34 118,-34"/>
<polygon fill="#666666" stroke="#666666" points="118,-18 118,-18 266,-18 266,-18 118,-18"/>
<polygon fill="none" stroke="#666666" points="118,0 118,-103 266,-103 266,0 118,0"/>
</a>
</g>
</g>
<!-- Node2 -->
<g id="Node000002" class="node">
<title>Node2</title>
<g id="a_Node000002"><a xlink:title=" ">
<polygon fill="white" stroke="none" points="34,-77.5 0,-77.5 0,-25.5 34,-25.5 34,-77.5"/>
<text text-anchor="start" x="5" y="-64" font-family="Cascadia Code NF" font-size="10.00">bool</text>
<text text-anchor="start" x="14" y="-48" font-family="Cascadia Code NF" font-size="10.00"> </text>
<text text-anchor="start" x="14" y="-32" font-family="Cascadia Code NF" font-size="10.00"> </text>
<polygon fill="#bfbfbf" stroke="#bfbfbf" points="0,-59.5 0,-59.5 34,-59.5 34,-59.5 0,-59.5"/>
<polygon fill="#bfbfbf" stroke="#bfbfbf" points="0,-43.5 0,-43.5 34,-43.5 34,-43.5 0,-43.5"/>
<polygon fill="none" stroke="#bfbfbf" points="0,-25.5 0,-77.5 34,-77.5 34,-25.5 0,-25.5"/>
</a>
</g>
</g>
<!-- Node2&#45;&gt;Node1 -->
<g id="edge1_Node000001_Node000002" class="edge">
<title>Node2&#45;&gt;Node1</title>
<g id="a_edge1_Node000001_Node000002"><a xlink:title=" ">
<path fill="none" stroke="#63b8ff" d="M33.97,-51.5C50.57,-51.5 77.92,-51.5 105.17,-51.5"/>
<polygon fill="none" stroke="#63b8ff" points="105.17,-51.5 111.17,-47.5 117.17,-51.5 111.17,-55.5 105.17,-51.5"/>
</a>
</g>
<text text-anchor="middle" x="76" y="-54.75" font-family="Cascadia Code NF" font-size="10.00" fill="grey"> +exists</text>
</g>
</g>
</svg>
