<?xml version="1.0" encoding="UTF-8" standalone="no"?>
<!DOCTYPE svg PUBLIC "-//W3C//DTD SVG 1.1//EN"
 "http://www.w3.org/Graphics/SVG/1.1/DTD/svg11.dtd">
<!-- Generated by graphviz version 11.0.0 (20240428.1522)
 -->
<!-- Title: v8::internal::BaselineOutOfLinePrologueDescriptor Pages: 1 -->
<!--zoomable 1017 -->

<svg id="main" version="1.1" xmlns="http://www.w3.org/2000/svg" xmlns:xlink="http://www.w3.org/1999/xlink" xml:space="preserve" onload="init(evt)">
<style type="text/css"><![CDATA[
.node, .edge {opacity: 0.7;}
.node.selected, .edge.selected {opacity: 1;}
.edge:hover path { stroke: red; }
.edge:hover polygon { stroke: red; fill: red; }
svg#main { background-color: #111; }
]]></style>

<defs>
  <circle id="rim" cx="0" cy="0" r="7"/>
  <circle id="rim2" cx="0" cy="0" r="3.5"/>
  <g id="zoomPlus">
    <use xlink:href="#rim" fill="#404040"><set attributeName="fill" to="#808080" begin="zoomplus.mouseover" end="zoomplus.mouseout"/></use>
    <path d="M-4,0h8M0,-4v8" fill="none" stroke="white" stroke-width="1.5" pointer-events="none"/>
  </g>
  <g id="zoomMin">
    <use xlink:href="#rim" fill="#404040"><set attributeName="fill" to="#808080" begin="zoomminus.mouseover" end="zoomminus.mouseout"/></use>
    <path d="M-4,0h8" fill="none" stroke="white" stroke-width="1.5" pointer-events="none"/>
  </g>
  <g id="arrowUp" transform="translate(30 24)">
    <use xlink:href="#rim"/>
    <path pointer-events="none" fill="none" stroke="white" stroke-width="1.5" d="M0,-3.0v7 M-2.5,-0.5L0,-3.0L2.5,-0.5"/>
  </g>
  <g id="arrowRight" transform="rotate(90) translate(36 -43)">
    <use xlink:href="#rim"/>
    <path pointer-events="none" fill="none" stroke="white" stroke-width="1.5" d="M0,-3.0v7 M-2.5,-0.5L0,-3.0L2.5,-0.5"/>
  </g>
  <g id="arrowDown" transform="rotate(180) translate(-30 -48)">
    <use xlink:href="#rim"/>
    <path pointer-events="none" fill="none" stroke="white" stroke-width="1.5" d="M0,-3.0v7 M-2.5,-0.5L0,-3.0L2.5,-0.5"/>
  </g>
  <g id="arrowLeft" transform="rotate(270) translate(-36 17)">
    <use xlink:href="#rim"/>
    <path pointer-events="none" fill="none" stroke="white" stroke-width="1.5" d="M0,-3.0v7 M-2.5,-0.5L0,-3.0L2.5,-0.5"/>
  </g>
  <g id="resetDef">
    <use xlink:href="#rim2" fill="#404040"><set attributeName="fill" to="#808080" begin="reset.mouseover" end="reset.mouseout"/></use>
  </g>
</defs>
<script type="application/ecmascript">
var viewWidth = 948;
var viewHeight = 1017;
var sectionId = 'dynsection-1';
</script>
<script type="application/ecmascript" xlink:href="../../svg.min.js"/>
<svg id="graph" class="graph">
<g id="viewport">
<title>v8::internal::BaselineOutOfLinePrologueDescriptor</title>
<!-- Node1 -->
<g id="Node000001" class="node">
<title>Node1</title>
<g id="a_Node000001"><a xlink:title=" ">
<polygon fill="#999999" stroke="none" points="940,-244.5 780,-244.5 780,-179.5 940,-179.5 940,-244.5"/>
<text text-anchor="start" x="785" y="-231" font-family="Cascadia Code NF" font-size="10.00">v8::internal::BaselineOut</text>
<text text-anchor="start" x="788" y="-218.25" font-family="Cascadia Code NF" font-size="10.00">OfLinePrologueDescriptor</text>
<text text-anchor="start" x="857" y="-202" font-family="Cascadia Code NF" font-size="10.00"> </text>
<text text-anchor="start" x="857" y="-186" font-family="Cascadia Code NF" font-size="10.00"> </text>
<polygon fill="#666666" stroke="#666666" points="780,-213.5 780,-213.5 940,-213.5 940,-213.5 780,-213.5"/>
<polygon fill="#666666" stroke="#666666" points="780,-197.5 780,-197.5 940,-197.5 940,-197.5 780,-197.5"/>
<polygon fill="none" stroke="#666666" points="780,-179.5 780,-244.5 940,-244.5 940,-179.5 780,-179.5"/>
</a>
</g>
</g>
<!-- Node2 -->
<g id="Node000002" class="node">
<title>Node2</title>
<g id="a_Node000002"><a xlink:href="../../d8/d7b/classv8_1_1internal_1_1StaticCallInterfaceDescriptor.html" target="_top" xlink:title=" ">
<polygon fill="white" stroke="none" points="624,-660 420,-660 420,-406 624,-406 624,-660"/>
<text text-anchor="start" x="435" y="-646.5" font-family="Cascadia Code NF" font-size="10.00">v8::internal::StaticCall</text>
<text text-anchor="start" x="435" y="-633.75" font-family="Cascadia Code NF" font-size="10.00">InterfaceDescriptor&lt; Baseline</text>
<text text-anchor="start" x="435" y="-621" font-family="Cascadia Code NF" font-size="10.00">OutOfLinePrologueDescriptor &gt;</text>
<text text-anchor="start" x="519" y="-604.5" font-family="Cascadia Code NF" font-size="10.00"> </text>
<text text-anchor="start" x="424" y="-588.5" font-family="Cascadia Code NF" font-size="10.00">+</text>
<text text-anchor="start" x="434" y="-588.5" font-family="Cascadia Code NF" font-size="10.00">StaticCallInterfaceDescriptor()</text>
<text text-anchor="start" x="424" y="-572.5" font-family="Cascadia Code NF" font-size="10.00">+</text>
<text text-anchor="start" x="434" y="-572.5" font-family="Cascadia Code NF" font-size="10.00">registers()</text>
<text text-anchor="start" x="424" y="-556.5" font-family="Cascadia Code NF" font-size="10.00">+</text>
<text text-anchor="start" x="434" y="-556.5" font-family="Cascadia Code NF" font-size="10.00">double_registers()</text>
<text text-anchor="start" x="424" y="-540.5" font-family="Cascadia Code NF" font-size="10.00">+</text>
<text text-anchor="start" x="434" y="-540.5" font-family="Cascadia Code NF" font-size="10.00">return_registers()</text>
<text text-anchor="start" x="424" y="-524.5" font-family="Cascadia Code NF" font-size="10.00">+</text>
<text text-anchor="start" x="434" y="-524.5" font-family="Cascadia Code NF" font-size="10.00">return_double_registers()</text>
<text text-anchor="start" x="424" y="-508.5" font-family="Cascadia Code NF" font-size="10.00">+</text>
<text text-anchor="start" x="434" y="-508.5" font-family="Cascadia Code NF" font-size="10.00">flags()</text>
<text text-anchor="start" x="424" y="-492.5" font-family="Cascadia Code NF" font-size="10.00">+</text>
<text text-anchor="start" x="434" y="-492.5" font-family="Cascadia Code NF" font-size="10.00">AllowVarArgs()</text>
<text text-anchor="start" x="424" y="-476.5" font-family="Cascadia Code NF" font-size="10.00">+</text>
<text text-anchor="start" x="434" y="-476.5" font-family="Cascadia Code NF" font-size="10.00">HasContextParameter()</text>
<text text-anchor="start" x="424" y="-460.5" font-family="Cascadia Code NF" font-size="10.00">+</text>
<text text-anchor="start" x="434" y="-460.5" font-family="Cascadia Code NF" font-size="10.00">GetReturnCount()</text>
<text text-anchor="start" x="424" y="-444.5" font-family="Cascadia Code NF" font-size="10.00">+</text>
<text text-anchor="start" x="434" y="-444.5" font-family="Cascadia Code NF" font-size="10.00">GetParameterCount()</text>
<text text-anchor="start" x="424" y="-428.5" font-family="Cascadia Code NF" font-size="10.00">+</text>
<text text-anchor="start" x="434" y="-428.5" font-family="Cascadia Code NF" font-size="10.00">GetRegisterParameterCount()</text>
<text text-anchor="start" x="434" y="-412.5" font-family="Cascadia Code NF" font-size="10.00">and 6 more...</text>
<polygon fill="#bfbfbf" stroke="#bfbfbf" points="420,-616 420,-616 624,-616 624,-616 420,-616"/>
<polygon fill="#bfbfbf" stroke="#bfbfbf" points="420,-600 420,-600 624,-600 624,-600 420,-600"/>
<polygon fill="none" stroke="#bfbfbf" points="420,-406 420,-660 624,-660 624,-406 420,-406"/>
</a>
</g>
</g>
<!-- Node2&#45;&gt;Node1 -->
<g id="edge1_Node000001_Node000002" class="edge">
<title>Node2&#45;&gt;Node1</title>
<g id="a_edge1_Node000001_Node000002"><a xlink:title=" ">
<path fill="none" stroke="#63b8ff" d="M631.91,-428.95C698.92,-364.94 780.3,-287.19 825.18,-244.31"/>
<polygon fill="none" stroke="#63b8ff" points="629.72,-426.21 624.91,-435.64 634.55,-431.27 629.72,-426.21"/>
</a>
</g>
</g>
<!-- Node3 -->
<g id="Node000003" class="node">
<title>Node3</title>
<g id="a_Node000003"><a xlink:href="../../d5/d76/classv8_1_1internal_1_1CallInterfaceDescriptor.html" target="_top" xlink:title=" ">
<polygon fill="white" stroke="none" points="204,-1009 0,-1009 0,-627 204,-627 204,-1009"/>
<text text-anchor="start" x="21" y="-995.5" font-family="Cascadia Code NF" font-size="10.00">v8::internal::CallInterface</text>
<text text-anchor="start" x="72" y="-982.75" font-family="Cascadia Code NF" font-size="10.00">Descriptor</text>
<text text-anchor="start" x="99" y="-966.5" font-family="Cascadia Code NF" font-size="10.00"> </text>
<text text-anchor="start" x="4" y="-950.5" font-family="Cascadia Code NF" font-size="10.00">+</text>
<text text-anchor="start" x="14" y="-950.5" font-family="Cascadia Code NF" font-size="10.00">CallInterfaceDescriptor()</text>
<text text-anchor="start" x="4" y="-934.5" font-family="Cascadia Code NF" font-size="10.00">+</text>
<text text-anchor="start" x="14" y="-934.5" font-family="Cascadia Code NF" font-size="10.00">~CallInterfaceDescriptor()</text>
<text text-anchor="start" x="4" y="-918.5" font-family="Cascadia Code NF" font-size="10.00">+</text>
<text text-anchor="start" x="14" y="-918.5" font-family="Cascadia Code NF" font-size="10.00">CallInterfaceDescriptor()</text>
<text text-anchor="start" x="4" y="-902.5" font-family="Cascadia Code NF" font-size="10.00">+</text>
<text text-anchor="start" x="14" y="-902.5" font-family="Cascadia Code NF" font-size="10.00">flags()</text>
<text text-anchor="start" x="4" y="-886.5" font-family="Cascadia Code NF" font-size="10.00">+</text>
<text text-anchor="start" x="14" y="-886.5" font-family="Cascadia Code NF" font-size="10.00">tag()</text>
<text text-anchor="start" x="4" y="-870.5" font-family="Cascadia Code NF" font-size="10.00">+</text>
<text text-anchor="start" x="14" y="-870.5" font-family="Cascadia Code NF" font-size="10.00">HasContextParameter()</text>
<text text-anchor="start" x="4" y="-854.5" font-family="Cascadia Code NF" font-size="10.00">+</text>
<text text-anchor="start" x="14" y="-854.5" font-family="Cascadia Code NF" font-size="10.00">AllowVarArgs()</text>
<text text-anchor="start" x="4" y="-838.5" font-family="Cascadia Code NF" font-size="10.00">+</text>
<text text-anchor="start" x="14" y="-838.5" font-family="Cascadia Code NF" font-size="10.00">CalleeSaveRegisters()</text>
<text text-anchor="start" x="4" y="-822.5" font-family="Cascadia Code NF" font-size="10.00">+</text>
<text text-anchor="start" x="14" y="-822.5" font-family="Cascadia Code NF" font-size="10.00">GetReturnCount()</text>
<text text-anchor="start" x="4" y="-806.5" font-family="Cascadia Code NF" font-size="10.00">+</text>
<text text-anchor="start" x="14" y="-806.5" font-family="Cascadia Code NF" font-size="10.00">GetReturnType()</text>
<text text-anchor="start" x="14" y="-790.5" font-family="Cascadia Code NF" font-size="10.00">and 12 more...</text>
<text text-anchor="start" x="4" y="-774.5" font-family="Cascadia Code NF" font-size="10.00">+</text>
<text text-anchor="start" x="14" y="-774.5" font-family="Cascadia Code NF" font-size="10.00">ContextRegister()</text>
<text text-anchor="start" x="4" y="-758.5" font-family="Cascadia Code NF" font-size="10.00">#</text>
<text text-anchor="start" x="14" y="-758.5" font-family="Cascadia Code NF" font-size="10.00">data()</text>
<text text-anchor="start" x="4" y="-742.5" font-family="Cascadia Code NF" font-size="10.00">#</text>
<text text-anchor="start" x="14" y="-742.5" font-family="Cascadia Code NF" font-size="10.00">CheckFloatingPointParameters()</text>
<text text-anchor="start" x="4" y="-726.5" font-family="Cascadia Code NF" font-size="10.00">#</text>
<text text-anchor="start" x="14" y="-726.5" font-family="Cascadia Code NF" font-size="10.00">IsValidFloatParameterRegister()</text>
<text text-anchor="start" x="4" y="-710.5" font-family="Cascadia Code NF" font-size="10.00">#</text>
<text text-anchor="start" x="14" y="-710.5" font-family="Cascadia Code NF" font-size="10.00">DefaultRegisterArray()</text>
<text text-anchor="start" x="4" y="-694.5" font-family="Cascadia Code NF" font-size="10.00">#</text>
<text text-anchor="start" x="14" y="-694.5" font-family="Cascadia Code NF" font-size="10.00">DefaultDoubleRegisterArray()</text>
<text text-anchor="start" x="4" y="-678.5" font-family="Cascadia Code NF" font-size="10.00">#</text>
<text text-anchor="start" x="14" y="-678.5" font-family="Cascadia Code NF" font-size="10.00">DefaultReturnRegisterArray()</text>
<text text-anchor="start" x="4" y="-662.5" font-family="Cascadia Code NF" font-size="10.00">#</text>
<text text-anchor="start" x="14" y="-662.5" font-family="Cascadia Code NF" font-size="10.00">DefaultReturnDoubleRegister</text>
<text text-anchor="start" x="14" y="-649.75" font-family="Cascadia Code NF" font-size="10.00">Array()</text>
<text text-anchor="start" x="4" y="-633.5" font-family="Cascadia Code NF" font-size="10.00">#</text>
<text text-anchor="start" x="14" y="-633.5" font-family="Cascadia Code NF" font-size="10.00">DefaultJSRegisterArray()</text>
<polygon fill="#bfbfbf" stroke="#bfbfbf" points="0,-978 0,-978 204,-978 204,-978 0,-978"/>
<polygon fill="#bfbfbf" stroke="#bfbfbf" points="0,-962 0,-962 204,-962 204,-962 0,-962"/>
<polygon fill="none" stroke="#bfbfbf" points="0,-627 0,-1009 204,-1009 204,-627 0,-627"/>
</a>
</g>
</g>
<!-- Node3&#45;&gt;Node2 -->
<g id="edge2_Node000002_Node000003" class="edge">
<title>Node3&#45;&gt;Node2</title>
<g id="a_edge2_Node000002_Node000003"><a xlink:title=" ">
<path fill="none" stroke="#63b8ff" d="M213.15,-746.81C269.98,-709.64 340.16,-663.04 402,-620 407.99,-615.83 414.11,-611.52 420.28,-607.13"/>
<polygon fill="none" stroke="#63b8ff" points="211.51,-743.7 205.05,-752.1 215.34,-749.56 211.51,-743.7"/>
</a>
</g>
</g>
<!-- Node4 -->
<g id="Node000004" class="node">
<title>Node4</title>
<g id="a_Node000004"><a xlink:href="../../d1/da0/classint.html" target="_top" xlink:title=" ">
<polygon fill="white" stroke="none" points="116,-609 88,-609 88,-557 116,-557 116,-609"/>
<text text-anchor="start" x="93" y="-595.5" font-family="Cascadia Code NF" font-size="10.00">int</text>
<text text-anchor="start" x="99" y="-579.5" font-family="Cascadia Code NF" font-size="10.00"> </text>
<text text-anchor="start" x="99" y="-563.5" font-family="Cascadia Code NF" font-size="10.00"> </text>
<polygon fill="#bfbfbf" stroke="#bfbfbf" points="88,-591 88,-591 116,-591 116,-591 88,-591"/>
<polygon fill="#bfbfbf" stroke="#bfbfbf" points="88,-575 88,-575 116,-575 116,-575 88,-575"/>
<polygon fill="none" stroke="#bfbfbf" points="88,-557 88,-609 116,-609 116,-557 88,-557"/>
</a>
</g>
</g>
<!-- Node4&#45;&gt;Node2 -->
<g id="edge3_Node000002_Node000004" class="edge">
<title>Node4&#45;&gt;Node2</title>
<g id="a_edge3_Node000002_Node000004"><a xlink:title=" ">
<path fill="none" stroke="#63b8ff" d="M115.9,-582.78C157.57,-581.9 292.16,-577.86 402,-561 403.87,-560.71 405.75,-560.41 407.64,-560.1"/>
<polygon fill="none" stroke="#63b8ff" points="407.56,-560.11 412.77,-555.13 419.37,-558.02 414.16,-563.01 407.56,-560.11"/>
</a>
</g>
<text text-anchor="middle" x="312" y="-606.75" font-family="Cascadia Code NF" font-size="10.00" fill="grey"> +kMaxRegisterParams</text>
<text text-anchor="middle" x="312" y="-594" font-family="Cascadia Code NF" font-size="10.00" fill="grey">+kParameterCount</text>
<text text-anchor="middle" x="312" y="-581.25" font-family="Cascadia Code NF" font-size="10.00" fill="grey">+kReturnCount</text>
</g>
<!-- Node5 -->
<g id="Node000005" class="node">
<title>Node5</title>
<g id="a_Node000005"><a xlink:title=" ">
<polygon fill="white" stroke="none" points="170,-509 34,-509 34,-457 170,-457 170,-509"/>
<text text-anchor="start" x="39" y="-495.5" font-family="Cascadia Code NF" font-size="10.00">static constexpr bool</text>
<text text-anchor="start" x="99" y="-479.5" font-family="Cascadia Code NF" font-size="10.00"> </text>
<text text-anchor="start" x="99" y="-463.5" font-family="Cascadia Code NF" font-size="10.00"> </text>
<polygon fill="#bfbfbf" stroke="#bfbfbf" points="34,-491 34,-491 170,-491 170,-491 34,-491"/>
<polygon fill="#bfbfbf" stroke="#bfbfbf" points="34,-475 34,-475 170,-475 170,-475 34,-475"/>
<polygon fill="none" stroke="#bfbfbf" points="34,-457 34,-509 170,-509 170,-457 34,-457"/>
</a>
</g>
</g>
<!-- Node5&#45;&gt;Node2 -->
<g id="edge4_Node000002_Node000005" class="edge">
<title>Node5&#45;&gt;Node2</title>
<g id="a_edge4_Node000002_Node000005"><a xlink:title=" ">
<path fill="none" stroke="#63b8ff" d="M169.73,-474.33C230.86,-468.29 323.52,-463.96 402,-480.5 403.86,-480.89 405.73,-481.32 407.61,-481.77"/>
<polygon fill="none" stroke="#63b8ff" points="407.57,-481.76 414.41,-479.47 419.14,-484.91 412.3,-487.19 407.57,-481.76"/>
</a>
</g>
<text text-anchor="middle" x="312" y="-547" font-family="Cascadia Code NF" font-size="10.00" fill="grey"> +kAllowVarArgs</text>
<text text-anchor="middle" x="312" y="-534.25" font-family="Cascadia Code NF" font-size="10.00" fill="grey">+kCalleeSaveRegisters</text>
<text text-anchor="middle" x="312" y="-521.5" font-family="Cascadia Code NF" font-size="10.00" fill="grey">+kCustomMachineTypes</text>
<text text-anchor="middle" x="312" y="-508.75" font-family="Cascadia Code NF" font-size="10.00" fill="grey">+kNoContext</text>
<text text-anchor="middle" x="312" y="-496" font-family="Cascadia Code NF" font-size="10.00" fill="grey">+kNoStackScan</text>
<text text-anchor="middle" x="312" y="-483.25" font-family="Cascadia Code NF" font-size="10.00" fill="grey">+kRestrictAllocatableRegisters</text>
</g>
<!-- Node6 -->
<g id="Node000006" class="node">
<title>Node6</title>
<g id="a_Node000006"><a xlink:title=" ">
<polygon fill="white" stroke="none" points="170,-439 34,-439 34,-387 170,-387 170,-439"/>
<text text-anchor="start" x="39" y="-425.5" font-family="Cascadia Code NF" font-size="10.00">static constexpr auto</text>
<text text-anchor="start" x="99" y="-409.5" font-family="Cascadia Code NF" font-size="10.00"> </text>
<text text-anchor="start" x="99" y="-393.5" font-family="Cascadia Code NF" font-size="10.00"> </text>
<polygon fill="#bfbfbf" stroke="#bfbfbf" points="34,-421 34,-421 170,-421 170,-421 34,-421"/>
<polygon fill="#bfbfbf" stroke="#bfbfbf" points="34,-405 34,-405 170,-405 170,-405 34,-405"/>
<polygon fill="none" stroke="#bfbfbf" points="34,-387 34,-439 170,-439 170,-387 34,-387"/>
</a>
</g>
</g>
<!-- Node6&#45;&gt;Node2 -->
<g id="edge5_Node000002_Node000006" class="edge">
<title>Node6&#45;&gt;Node2</title>
<g id="a_edge5_Node000002_Node000006"><a xlink:title=" ">
<path fill="none" stroke="#63b8ff" d="M169.91,-412.64C231.99,-414.36 325.97,-422.23 402,-451.25 404.19,-452.09 406.37,-452.97 408.56,-453.89"/>
<polygon fill="none" stroke="#63b8ff" points="408.45,-453.85 415.58,-452.72 419.36,-458.86 412.24,-459.99 408.45,-453.85"/>
</a>
</g>
<text text-anchor="middle" x="312" y="-454.25" font-family="Cascadia Code NF" font-size="10.00" fill="grey"> +kStackArgumentOrder</text>
</g>
<!-- Node7 -->
<g id="Node000007" class="node">
<title>Node7</title>
<g id="a_Node000007"><a xlink:href="../../d0/dcd/classv8_1_1internal_1_1MachineType.html" target="_top" xlink:title=" ">
<polygon fill="white" stroke="none" points="602,-388 442,-388 442,0 602,0 602,-388"/>
<text text-anchor="start" x="447" y="-374.5" font-family="Cascadia Code NF" font-size="10.00">v8::internal::MachineType</text>
<text text-anchor="start" x="519" y="-358.5" font-family="Cascadia Code NF" font-size="10.00"> </text>
<text text-anchor="start" x="447" y="-342.5" font-family="Cascadia Code NF" font-size="10.00">+</text>
<text text-anchor="start" x="458" y="-342.5" font-family="Cascadia Code NF" font-size="10.00">MachineType()</text>
<text text-anchor="start" x="447" y="-326.5" font-family="Cascadia Code NF" font-size="10.00">+</text>
<text text-anchor="start" x="458" y="-326.5" font-family="Cascadia Code NF" font-size="10.00">MachineType()</text>
<text text-anchor="start" x="447" y="-310.5" font-family="Cascadia Code NF" font-size="10.00">+</text>
<text text-anchor="start" x="458" y="-310.5" font-family="Cascadia Code NF" font-size="10.00">operator==()</text>
<text text-anchor="start" x="447" y="-294.5" font-family="Cascadia Code NF" font-size="10.00">+</text>
<text text-anchor="start" x="458" y="-294.5" font-family="Cascadia Code NF" font-size="10.00">operator!=()</text>
<text text-anchor="start" x="447" y="-278.5" font-family="Cascadia Code NF" font-size="10.00">+</text>
<text text-anchor="start" x="458" y="-278.5" font-family="Cascadia Code NF" font-size="10.00">representation()</text>
<text text-anchor="start" x="447" y="-262.5" font-family="Cascadia Code NF" font-size="10.00">+</text>
<text text-anchor="start" x="458" y="-262.5" font-family="Cascadia Code NF" font-size="10.00">semantic()</text>
<text text-anchor="start" x="447" y="-246.5" font-family="Cascadia Code NF" font-size="10.00">+</text>
<text text-anchor="start" x="458" y="-246.5" font-family="Cascadia Code NF" font-size="10.00">IsNone()</text>
<text text-anchor="start" x="447" y="-230.5" font-family="Cascadia Code NF" font-size="10.00">+</text>
<text text-anchor="start" x="458" y="-230.5" font-family="Cascadia Code NF" font-size="10.00">IsMapWord()</text>
<text text-anchor="start" x="447" y="-214.5" font-family="Cascadia Code NF" font-size="10.00">+</text>
<text text-anchor="start" x="458" y="-214.5" font-family="Cascadia Code NF" font-size="10.00">IsSigned()</text>
<text text-anchor="start" x="447" y="-198.5" font-family="Cascadia Code NF" font-size="10.00">+</text>
<text text-anchor="start" x="458" y="-198.5" font-family="Cascadia Code NF" font-size="10.00">IsUnsigned()</text>
<text text-anchor="start" x="458" y="-182.5" font-family="Cascadia Code NF" font-size="10.00">and 8 more...</text>
<text text-anchor="start" x="447" y="-166.5" font-family="Cascadia Code NF" font-size="10.00">+</text>
<text text-anchor="start" x="458" y="-166.5" font-family="Cascadia Code NF" font-size="10.00">PointerRepresentation()</text>
<text text-anchor="start" x="447" y="-150.5" font-family="Cascadia Code NF" font-size="10.00">+</text>
<text text-anchor="start" x="458" y="-150.5" font-family="Cascadia Code NF" font-size="10.00">UintPtr()</text>
<text text-anchor="start" x="447" y="-134.5" font-family="Cascadia Code NF" font-size="10.00">+</text>
<text text-anchor="start" x="458" y="-134.5" font-family="Cascadia Code NF" font-size="10.00">IntPtr()</text>
<text text-anchor="start" x="447" y="-118.5" font-family="Cascadia Code NF" font-size="10.00">+</text>
<text text-anchor="start" x="458" y="-118.5" font-family="Cascadia Code NF" font-size="10.00">Int8()</text>
<text text-anchor="start" x="447" y="-102.5" font-family="Cascadia Code NF" font-size="10.00">+</text>
<text text-anchor="start" x="458" y="-102.5" font-family="Cascadia Code NF" font-size="10.00">Uint8()</text>
<text text-anchor="start" x="447" y="-86.5" font-family="Cascadia Code NF" font-size="10.00">+</text>
<text text-anchor="start" x="458" y="-86.5" font-family="Cascadia Code NF" font-size="10.00">Int16()</text>
<text text-anchor="start" x="447" y="-70.5" font-family="Cascadia Code NF" font-size="10.00">+</text>
<text text-anchor="start" x="458" y="-70.5" font-family="Cascadia Code NF" font-size="10.00">Uint16()</text>
<text text-anchor="start" x="447" y="-54.5" font-family="Cascadia Code NF" font-size="10.00">+</text>
<text text-anchor="start" x="458" y="-54.5" font-family="Cascadia Code NF" font-size="10.00">Int32()</text>
<text text-anchor="start" x="447" y="-38.5" font-family="Cascadia Code NF" font-size="10.00">+</text>
<text text-anchor="start" x="458" y="-38.5" font-family="Cascadia Code NF" font-size="10.00">Uint32()</text>
<text text-anchor="start" x="447" y="-22.5" font-family="Cascadia Code NF" font-size="10.00">+</text>
<text text-anchor="start" x="458" y="-22.5" font-family="Cascadia Code NF" font-size="10.00">Int64()</text>
<text text-anchor="start" x="458" y="-6.5" font-family="Cascadia Code NF" font-size="10.00">and 21 more...</text>
<polygon fill="#bfbfbf" stroke="#bfbfbf" points="442,-370 442,-370 602,-370 602,-370 442,-370"/>
<polygon fill="#bfbfbf" stroke="#bfbfbf" points="442,-354 442,-354 602,-354 602,-354 442,-354"/>
<polygon fill="none" stroke="#bfbfbf" points="442,0 442,-388 602,-388 602,0 442,0"/>
</a>
</g>
</g>
<!-- Node7&#45;&gt;Node1 -->
<g id="edge6_Node000001_Node000007" class="edge">
<title>Node7&#45;&gt;Node1</title>
<g id="a_edge6_Node000001_Node000007"><a xlink:title=" ">
<path fill="none" stroke="#63b8ff" d="M601.78,-198.22C651.31,-200.87 715.42,-204.31 767.24,-207.08"/>
<polygon fill="none" stroke="#63b8ff" points="767.25,-207.08 773.46,-203.41 779.23,-207.73 773.03,-211.4 767.25,-207.08"/>
</a>
</g>
<text text-anchor="middle" x="702" y="-210.25" font-family="Cascadia Code NF" font-size="10.00" fill="grey"> +kMaxRegisterParams</text>
</g>
</g>
</svg>

<g id="navigator" transform="translate(0 0)" fill="#404254">
  <rect fill="#f2f5e9" fill-opacity="0.5" stroke="#606060" stroke-width=".5" x="0" y="0" width="60" height="60"/>
  <use id="zoomplus" xlink:href="#zoomPlus" x="17" y="9" onmousedown="handleZoom(evt,'in')"/>
  <use id="zoomminus" xlink:href="#zoomMin" x="42" y="9" onmousedown="handleZoom(evt,'out')"/>
  <use id="reset" xlink:href="#resetDef" x="30" y="36" onmousedown="handleReset()"/>
   <use id="arrowup" xlink:href="#arrowUp" x="0" y="0" onmousedown="handlePan(0,-1)"/>
  <use id="arrowright" xlink:href="#arrowRight" x="0" y="0" onmousedown="handlePan(1,0)"/>
  <use id="arrowdown" xlink:href="#arrowDown" x="0" y="0" onmousedown="handlePan(0,1)"/>
  <use id="arrowleft" xlink:href="#arrowLeft" x="0" y="0" onmousedown="handlePan(-1,0)"/>
</g>
<svg viewBox="0 0 15 15" width="100%" height="30px" preserveAspectRatio="xMaxYMin meet">
 <g id="arrow_out" transform="scale(0.3 0.3)">
  <a xlink:href="classv8_1_1internal_1_1BaselineOutOfLinePrologueDescriptor__coll__graph_org.svg" target="_base">
   <rect id="button" ry="5" rx="5" y="6" x="6" height="38" width="38"
        fill="#f2f5e9" fill-opacity="0.5" stroke="#606060" stroke-width="1.0"/>
   <path id="arrow"
     d="M 11.500037,31.436501 C 11.940474,20.09759 22.043105,11.32322 32.158766,21.979434 L 37.068811,17.246167 C 37.068811,17.246167 37.088388,32 37.088388,32 L 22.160133,31.978069 C 22.160133,31.978069 26.997745,27.140456 26.997745,27.140456 C 18.528582,18.264221 13.291696,25.230495 11.500037,31.436501 z"
     style="fill:#404040;"/>
  </a>
 </g>
</svg>

<style type='text/css'>
<![CDATA[
[data-mouse-over-selected='false'] { opacity: 0.7; }
[data-mouse-over-selected='true']  { opacity: 1.0; }
]]>
</style>
<script type="application/ecmascript"><![CDATA[
document.addEventListener('DOMContentLoaded', (event) => {
  highlightEdges();
  highlightAdjacentNodes();
});
]]></script>
</svg>
