<?xml version="1.0" encoding="UTF-8" standalone="no"?>
<!DOCTYPE svg PUBLIC "-//W3C//DTD SVG 1.1//EN"
 "http://www.w3.org/Graphics/SVG/1.1/DTD/svg11.dtd">
<!-- Generated by graphviz version 11.0.0 (20240428.1522)
 -->
<!-- Title: v8::internal::ExitFrame Pages: 1 -->
<svg width="1058pt" height="476pt"
 viewBox="0.00 0.00 1058.00 476.00" xmlns="http://www.w3.org/2000/svg" xmlns:xlink="http://www.w3.org/1999/xlink">
<g id="graph0" class="graph" transform="scale(1 1) rotate(0) translate(4 472)">
<title>v8::internal::ExitFrame</title>
<!-- Node1 -->
<g id="Node000001" class="node">
<title>Node1</title>
<g id="a_Node000001"><a xlink:title=" ">
<polygon fill="#999999" stroke="none" points="852,-307.5 684,-307.5 684,-143.5 852,-143.5 852,-307.5"/>
<text text-anchor="start" x="699" y="-294" font-family="Cascadia Code NF" font-size="10.00">v8::internal::ExitFrame</text>
<text text-anchor="start" x="765" y="-278" font-family="Cascadia Code NF" font-size="10.00"> </text>
<text text-anchor="start" x="688" y="-262" font-family="Cascadia Code NF" font-size="10.00">+</text>
<text text-anchor="start" x="698" y="-262" font-family="Cascadia Code NF" font-size="10.00">type()</text>
<text text-anchor="start" x="688" y="-246" font-family="Cascadia Code NF" font-size="10.00">+</text>
<text text-anchor="start" x="698" y="-246" font-family="Cascadia Code NF" font-size="10.00">Iterate()</text>
<text text-anchor="start" x="688" y="-230" font-family="Cascadia Code NF" font-size="10.00">+</text>
<text text-anchor="start" x="698" y="-230" font-family="Cascadia Code NF" font-size="10.00">cast()</text>
<text text-anchor="start" x="688" y="-214" font-family="Cascadia Code NF" font-size="10.00">+</text>
<text text-anchor="start" x="698" y="-214" font-family="Cascadia Code NF" font-size="10.00">GetStateForFramePointer()</text>
<text text-anchor="start" x="688" y="-198" font-family="Cascadia Code NF" font-size="10.00">+</text>
<text text-anchor="start" x="698" y="-198" font-family="Cascadia Code NF" font-size="10.00">ComputeStackPointer()</text>
<text text-anchor="start" x="688" y="-182" font-family="Cascadia Code NF" font-size="10.00">+</text>
<text text-anchor="start" x="698" y="-182" font-family="Cascadia Code NF" font-size="10.00">ComputeFrameType()</text>
<text text-anchor="start" x="688" y="-166" font-family="Cascadia Code NF" font-size="10.00">+</text>
<text text-anchor="start" x="698" y="-166" font-family="Cascadia Code NF" font-size="10.00">FillState()</text>
<text text-anchor="start" x="688" y="-150" font-family="Cascadia Code NF" font-size="10.00">#</text>
<text text-anchor="start" x="698" y="-150" font-family="Cascadia Code NF" font-size="10.00">ExitFrame()</text>
<polygon fill="#666666" stroke="#666666" points="684,-289.5 684,-289.5 852,-289.5 852,-289.5 684,-289.5"/>
<polygon fill="#666666" stroke="#666666" points="684,-273.5 684,-273.5 852,-273.5 852,-273.5 684,-273.5"/>
<polygon fill="none" stroke="#666666" points="684,-143.5 684,-307.5 852,-307.5 852,-143.5 684,-143.5"/>
</a>
</g>
</g>
<!-- Node5 -->
<g id="Node000005" class="node">
<title>Node5</title>
<g id="a_Node000005"><a xlink:href="../../dd/d7f/classv8_1_1internal_1_1ApiCallbackExitFrame.html" target="_top" xlink:title=" ">
<polygon fill="white" stroke="none" points="1050,-468 888,-468 888,-227 1050,-227 1050,-468"/>
<text text-anchor="start" x="894" y="-454.5" font-family="Cascadia Code NF" font-size="10.00">v8::internal::ApiCallback</text>
<text text-anchor="start" x="942" y="-441.75" font-family="Cascadia Code NF" font-size="10.00">ExitFrame</text>
<text text-anchor="start" x="966" y="-425.5" font-family="Cascadia Code NF" font-size="10.00"> </text>
<text text-anchor="start" x="892" y="-409.5" font-family="Cascadia Code NF" font-size="10.00">+</text>
<text text-anchor="start" x="902" y="-409.5" font-family="Cascadia Code NF" font-size="10.00">type()</text>
<text text-anchor="start" x="892" y="-393.5" font-family="Cascadia Code NF" font-size="10.00">+</text>
<text text-anchor="start" x="902" y="-393.5" font-family="Cascadia Code NF" font-size="10.00">target()</text>
<text text-anchor="start" x="892" y="-377.5" font-family="Cascadia Code NF" font-size="10.00">+</text>
<text text-anchor="start" x="902" y="-377.5" font-family="Cascadia Code NF" font-size="10.00">GetFunction()</text>
<text text-anchor="start" x="892" y="-361.5" font-family="Cascadia Code NF" font-size="10.00">+</text>
<text text-anchor="start" x="902" y="-361.5" font-family="Cascadia Code NF" font-size="10.00">receiver()</text>
<text text-anchor="start" x="892" y="-345.5" font-family="Cascadia Code NF" font-size="10.00">+</text>
<text text-anchor="start" x="902" y="-345.5" font-family="Cascadia Code NF" font-size="10.00">GetParameter()</text>
<text text-anchor="start" x="892" y="-329.5" font-family="Cascadia Code NF" font-size="10.00">+</text>
<text text-anchor="start" x="902" y="-329.5" font-family="Cascadia Code NF" font-size="10.00">ComputeParametersCount()</text>
<text text-anchor="start" x="892" y="-313.5" font-family="Cascadia Code NF" font-size="10.00">+</text>
<text text-anchor="start" x="902" y="-313.5" font-family="Cascadia Code NF" font-size="10.00">GetParameters()</text>
<text text-anchor="start" x="892" y="-297.5" font-family="Cascadia Code NF" font-size="10.00">+</text>
<text text-anchor="start" x="902" y="-297.5" font-family="Cascadia Code NF" font-size="10.00">IsConstructor()</text>
<text text-anchor="start" x="892" y="-281.5" font-family="Cascadia Code NF" font-size="10.00">+</text>
<text text-anchor="start" x="902" y="-281.5" font-family="Cascadia Code NF" font-size="10.00">Print()</text>
<text text-anchor="start" x="892" y="-265.5" font-family="Cascadia Code NF" font-size="10.00">+</text>
<text text-anchor="start" x="902" y="-265.5" font-family="Cascadia Code NF" font-size="10.00">Summarize()</text>
<text text-anchor="start" x="892" y="-249.5" font-family="Cascadia Code NF" font-size="10.00">+</text>
<text text-anchor="start" x="902" y="-249.5" font-family="Cascadia Code NF" font-size="10.00">cast()</text>
<text text-anchor="start" x="892" y="-233.5" font-family="Cascadia Code NF" font-size="10.00">#</text>
<text text-anchor="start" x="902" y="-233.5" font-family="Cascadia Code NF" font-size="10.00">ApiCallbackExitFrame()</text>
<polygon fill="#bfbfbf" stroke="#bfbfbf" points="888,-437 888,-437 1050,-437 1050,-437 888,-437"/>
<polygon fill="#bfbfbf" stroke="#bfbfbf" points="888,-421 888,-421 1050,-421 1050,-421 888,-421"/>
<polygon fill="none" stroke="#bfbfbf" points="888,-227 888,-468 1050,-468 1050,-227 888,-227"/>
</a>
</g>
</g>
<!-- Node1&#45;&gt;Node5 -->
<g id="edge4_Node000001_Node000005" class="edge">
<title>Node1&#45;&gt;Node5</title>
<g id="a_edge4_Node000001_Node000005"><a xlink:title=" ">
<path fill="none" stroke="#63b8ff" d="M861.53,-282.23C870.39,-287.66 879.33,-293.14 888.05,-298.49"/>
<polygon fill="none" stroke="#63b8ff" points="863.6,-279.39 853.24,-277.15 859.94,-285.36 863.6,-279.39"/>
</a>
</g>
</g>
<!-- Node6 -->
<g id="Node000006" class="node">
<title>Node6</title>
<g id="a_Node000006"><a xlink:href="../../d3/db9/classv8_1_1internal_1_1BuiltinExitFrame.html" target="_top" xlink:title=" ">
<polygon fill="white" stroke="none" points="1050,-209 888,-209 888,0 1050,0 1050,-209"/>
<text text-anchor="start" x="894" y="-195.5" font-family="Cascadia Code NF" font-size="10.00">v8::internal::BuiltinExit</text>
<text text-anchor="start" x="954" y="-182.75" font-family="Cascadia Code NF" font-size="10.00">Frame</text>
<text text-anchor="start" x="966" y="-166.5" font-family="Cascadia Code NF" font-size="10.00"> </text>
<text text-anchor="start" x="892" y="-150.5" font-family="Cascadia Code NF" font-size="10.00">+</text>
<text text-anchor="start" x="902" y="-150.5" font-family="Cascadia Code NF" font-size="10.00">type()</text>
<text text-anchor="start" x="892" y="-134.5" font-family="Cascadia Code NF" font-size="10.00">+</text>
<text text-anchor="start" x="902" y="-134.5" font-family="Cascadia Code NF" font-size="10.00">function()</text>
<text text-anchor="start" x="892" y="-118.5" font-family="Cascadia Code NF" font-size="10.00">+</text>
<text text-anchor="start" x="902" y="-118.5" font-family="Cascadia Code NF" font-size="10.00">receiver()</text>
<text text-anchor="start" x="892" y="-102.5" font-family="Cascadia Code NF" font-size="10.00">+</text>
<text text-anchor="start" x="902" y="-102.5" font-family="Cascadia Code NF" font-size="10.00">GetParameter()</text>
<text text-anchor="start" x="892" y="-86.5" font-family="Cascadia Code NF" font-size="10.00">+</text>
<text text-anchor="start" x="902" y="-86.5" font-family="Cascadia Code NF" font-size="10.00">ComputeParametersCount()</text>
<text text-anchor="start" x="892" y="-70.5" font-family="Cascadia Code NF" font-size="10.00">+</text>
<text text-anchor="start" x="902" y="-70.5" font-family="Cascadia Code NF" font-size="10.00">GetParameters()</text>
<text text-anchor="start" x="892" y="-54.5" font-family="Cascadia Code NF" font-size="10.00">+</text>
<text text-anchor="start" x="902" y="-54.5" font-family="Cascadia Code NF" font-size="10.00">IsConstructor()</text>
<text text-anchor="start" x="892" y="-38.5" font-family="Cascadia Code NF" font-size="10.00">+</text>
<text text-anchor="start" x="902" y="-38.5" font-family="Cascadia Code NF" font-size="10.00">Print()</text>
<text text-anchor="start" x="892" y="-22.5" font-family="Cascadia Code NF" font-size="10.00">+</text>
<text text-anchor="start" x="902" y="-22.5" font-family="Cascadia Code NF" font-size="10.00">Summarize()</text>
<text text-anchor="start" x="892" y="-6.5" font-family="Cascadia Code NF" font-size="10.00">#</text>
<text text-anchor="start" x="902" y="-6.5" font-family="Cascadia Code NF" font-size="10.00">BuiltinExitFrame()</text>
<polygon fill="#bfbfbf" stroke="#bfbfbf" points="888,-178 888,-178 1050,-178 1050,-178 888,-178"/>
<polygon fill="#bfbfbf" stroke="#bfbfbf" points="888,-162 888,-162 1050,-162 1050,-162 888,-162"/>
<polygon fill="none" stroke="#bfbfbf" points="888,0 888,-209 1050,-209 1050,0 888,0"/>
</a>
</g>
</g>
<!-- Node1&#45;&gt;Node6 -->
<g id="edge5_Node000001_Node000006" class="edge">
<title>Node1&#45;&gt;Node6</title>
<g id="a_edge5_Node000001_Node000006"><a xlink:title=" ">
<path fill="none" stroke="#63b8ff" d="M861.53,-169.24C870.39,-163.85 879.33,-158.42 888.05,-153.11"/>
<polygon fill="none" stroke="#63b8ff" points="859.97,-166.09 853.25,-174.27 863.61,-172.07 859.97,-166.09"/>
</a>
</g>
</g>
<!-- Node2 -->
<g id="Node000002" class="node">
<title>Node2</title>
<g id="a_Node000002"><a xlink:href="../../db/dfe/classv8_1_1internal_1_1TypedFrame.html" target="_top" xlink:title=" ">
<polygon fill="white" stroke="none" points="648,-275.5 438,-275.5 438,-175.5 648,-175.5 648,-275.5"/>
<text text-anchor="start" x="471" y="-262" font-family="Cascadia Code NF" font-size="10.00">v8::internal::TypedFrame</text>
<text text-anchor="start" x="540" y="-246" font-family="Cascadia Code NF" font-size="10.00"> </text>
<text text-anchor="start" x="442" y="-230" font-family="Cascadia Code NF" font-size="10.00">+</text>
<text text-anchor="start" x="452" y="-230" font-family="Cascadia Code NF" font-size="10.00">unchecked_code()</text>
<text text-anchor="start" x="442" y="-214" font-family="Cascadia Code NF" font-size="10.00">+</text>
<text text-anchor="start" x="452" y="-214" font-family="Cascadia Code NF" font-size="10.00">Iterate()</text>
<text text-anchor="start" x="442" y="-198" font-family="Cascadia Code NF" font-size="10.00">+</text>
<text text-anchor="start" x="452" y="-198" font-family="Cascadia Code NF" font-size="10.00">IterateParamsOfWasmToJSWrapper()</text>
<text text-anchor="start" x="442" y="-182" font-family="Cascadia Code NF" font-size="10.00">#</text>
<text text-anchor="start" x="452" y="-182" font-family="Cascadia Code NF" font-size="10.00">TypedFrame()</text>
<polygon fill="#bfbfbf" stroke="#bfbfbf" points="438,-257.5 438,-257.5 648,-257.5 648,-257.5 438,-257.5"/>
<polygon fill="#bfbfbf" stroke="#bfbfbf" points="438,-241.5 438,-241.5 648,-241.5 648,-241.5 438,-241.5"/>
<polygon fill="none" stroke="#bfbfbf" points="438,-175.5 438,-275.5 648,-275.5 648,-175.5 438,-175.5"/>
</a>
</g>
</g>
<!-- Node2&#45;&gt;Node1 -->
<g id="edge1_Node000001_Node000002" class="edge">
<title>Node2&#45;&gt;Node1</title>
<g id="a_edge1_Node000001_Node000002"><a xlink:title=" ">
<path fill="none" stroke="#63b8ff" d="M659.4,-225.5C667.76,-225.5 676.1,-225.5 684.22,-225.5"/>
<polygon fill="none" stroke="#63b8ff" points="659.51,-222 649.51,-225.5 659.51,-229 659.51,-222"/>
</a>
</g>
</g>
<!-- Node3 -->
<g id="Node000003" class="node">
<title>Node3</title>
<g id="a_Node000003"><a xlink:href="../../d1/d1f/classv8_1_1internal_1_1CommonFrame.html" target="_top" xlink:title=" ">
<polygon fill="white" stroke="none" points="402,-378 234,-378 234,-73 402,-73 402,-378"/>
<text text-anchor="start" x="243" y="-364.5" font-family="Cascadia Code NF" font-size="10.00">v8::internal::CommonFrame</text>
<text text-anchor="start" x="315" y="-348.5" font-family="Cascadia Code NF" font-size="10.00"> </text>
<text text-anchor="start" x="238" y="-332.5" font-family="Cascadia Code NF" font-size="10.00">+</text>
<text text-anchor="start" x="248" y="-332.5" font-family="Cascadia Code NF" font-size="10.00">context()</text>
<text text-anchor="start" x="238" y="-316.5" font-family="Cascadia Code NF" font-size="10.00">+</text>
<text text-anchor="start" x="248" y="-316.5" font-family="Cascadia Code NF" font-size="10.00">position()</text>
<text text-anchor="start" x="238" y="-300.5" font-family="Cascadia Code NF" font-size="10.00">+</text>
<text text-anchor="start" x="248" y="-300.5" font-family="Cascadia Code NF" font-size="10.00">GetExpression()</text>
<text text-anchor="start" x="238" y="-284.5" font-family="Cascadia Code NF" font-size="10.00">+</text>
<text text-anchor="start" x="248" y="-284.5" font-family="Cascadia Code NF" font-size="10.00">SetExpression()</text>
<text text-anchor="start" x="238" y="-268.5" font-family="Cascadia Code NF" font-size="10.00">+</text>
<text text-anchor="start" x="248" y="-268.5" font-family="Cascadia Code NF" font-size="10.00">ComputeExpressionsCount()</text>
<text text-anchor="start" x="238" y="-252.5" font-family="Cascadia Code NF" font-size="10.00">+</text>
<text text-anchor="start" x="248" y="-252.5" font-family="Cascadia Code NF" font-size="10.00">GetCallerStackPointer()</text>
<text text-anchor="start" x="238" y="-236.5" font-family="Cascadia Code NF" font-size="10.00">+</text>
<text text-anchor="start" x="248" y="-236.5" font-family="Cascadia Code NF" font-size="10.00">Summarize()</text>
<text text-anchor="start" x="238" y="-220.5" font-family="Cascadia Code NF" font-size="10.00">+</text>
<text text-anchor="start" x="248" y="-220.5" font-family="Cascadia Code NF" font-size="10.00">cast()</text>
<text text-anchor="start" x="238" y="-204.5" font-family="Cascadia Code NF" font-size="10.00">#</text>
<text text-anchor="start" x="248" y="-204.5" font-family="Cascadia Code NF" font-size="10.00">CommonFrame()</text>
<text text-anchor="start" x="238" y="-188.5" font-family="Cascadia Code NF" font-size="10.00">#</text>
<text text-anchor="start" x="248" y="-188.5" font-family="Cascadia Code NF" font-size="10.00">HasTaggedOutgoingParams()</text>
<text text-anchor="start" x="238" y="-172.5" font-family="Cascadia Code NF" font-size="10.00">#</text>
<text text-anchor="start" x="248" y="-172.5" font-family="Cascadia Code NF" font-size="10.00">ComputeCallerState()</text>
<text text-anchor="start" x="238" y="-156.5" font-family="Cascadia Code NF" font-size="10.00">#</text>
<text text-anchor="start" x="248" y="-156.5" font-family="Cascadia Code NF" font-size="10.00">caller_fp()</text>
<text text-anchor="start" x="238" y="-140.5" font-family="Cascadia Code NF" font-size="10.00">#</text>
<text text-anchor="start" x="248" y="-140.5" font-family="Cascadia Code NF" font-size="10.00">caller_pc()</text>
<text text-anchor="start" x="238" y="-124.5" font-family="Cascadia Code NF" font-size="10.00">#</text>
<text text-anchor="start" x="248" y="-124.5" font-family="Cascadia Code NF" font-size="10.00">IterateExpressions()</text>
<text text-anchor="start" x="238" y="-108.5" font-family="Cascadia Code NF" font-size="10.00">#</text>
<text text-anchor="start" x="248" y="-108.5" font-family="Cascadia Code NF" font-size="10.00">IterateTurbofanOptimized</text>
<text text-anchor="start" x="248" y="-95.75" font-family="Cascadia Code NF" font-size="10.00">Frame()</text>
<text text-anchor="start" x="238" y="-79.5" font-family="Cascadia Code NF" font-size="10.00">#</text>
<text text-anchor="start" x="248" y="-79.5" font-family="Cascadia Code NF" font-size="10.00">GetExpressionAddress()</text>
<polygon fill="#bfbfbf" stroke="#bfbfbf" points="234,-360 234,-360 402,-360 402,-360 234,-360"/>
<polygon fill="#bfbfbf" stroke="#bfbfbf" points="234,-344 234,-344 402,-344 402,-344 234,-344"/>
<polygon fill="none" stroke="#bfbfbf" points="234,-73 234,-378 402,-378 402,-73 234,-73"/>
</a>
</g>
</g>
<!-- Node3&#45;&gt;Node2 -->
<g id="edge2_Node000002_Node000003" class="edge">
<title>Node3&#45;&gt;Node2</title>
<g id="a_edge2_Node000002_Node000003"><a xlink:title=" ">
<path fill="none" stroke="#63b8ff" d="M413,-225.5C421.34,-225.5 429.81,-225.5 438.23,-225.5"/>
<polygon fill="none" stroke="#63b8ff" points="413.23,-222 403.23,-225.5 413.23,-229 413.23,-222"/>
</a>
</g>
</g>
<!-- Node4 -->
<g id="Node000004" class="node">
<title>Node4</title>
<g id="a_Node000004"><a xlink:href="../../d0/d2d/classv8_1_1internal_1_1StackFrame.html" target="_top" xlink:title=" ">
<polygon fill="white" stroke="none" points="198,-426 0,-426 0,-25 198,-25 198,-426"/>
<text text-anchor="start" x="27" y="-412.5" font-family="Cascadia Code NF" font-size="10.00">v8::internal::StackFrame</text>
<text text-anchor="start" x="4" y="-396.5" font-family="Cascadia Code NF" font-size="10.00">#</text>
<text text-anchor="start" x="14" y="-396.5" font-family="Cascadia Code NF" font-size="10.00">iterator_</text>
<text text-anchor="start" x="4" y="-380.5" font-family="Cascadia Code NF" font-size="10.00">+</text>
<text text-anchor="start" x="14" y="-380.5" font-family="Cascadia Code NF" font-size="10.00">StackFrame()</text>
<text text-anchor="start" x="4" y="-364.5" font-family="Cascadia Code NF" font-size="10.00">+</text>
<text text-anchor="start" x="14" y="-364.5" font-family="Cascadia Code NF" font-size="10.00">is_entry()</text>
<text text-anchor="start" x="4" y="-348.5" font-family="Cascadia Code NF" font-size="10.00">+</text>
<text text-anchor="start" x="14" y="-348.5" font-family="Cascadia Code NF" font-size="10.00">is_construct_entry()</text>
<text text-anchor="start" x="4" y="-332.5" font-family="Cascadia Code NF" font-size="10.00">+</text>
<text text-anchor="start" x="14" y="-332.5" font-family="Cascadia Code NF" font-size="10.00">is_exit()</text>
<text text-anchor="start" x="4" y="-316.5" font-family="Cascadia Code NF" font-size="10.00">+</text>
<text text-anchor="start" x="14" y="-316.5" font-family="Cascadia Code NF" font-size="10.00">is_optimized()</text>
<text text-anchor="start" x="4" y="-300.5" font-family="Cascadia Code NF" font-size="10.00">+</text>
<text text-anchor="start" x="14" y="-300.5" font-family="Cascadia Code NF" font-size="10.00">is_unoptimized()</text>
<text text-anchor="start" x="4" y="-284.5" font-family="Cascadia Code NF" font-size="10.00">+</text>
<text text-anchor="start" x="14" y="-284.5" font-family="Cascadia Code NF" font-size="10.00">is_interpreted()</text>
<text text-anchor="start" x="4" y="-268.5" font-family="Cascadia Code NF" font-size="10.00">+</text>
<text text-anchor="start" x="14" y="-268.5" font-family="Cascadia Code NF" font-size="10.00">is_baseline()</text>
<text text-anchor="start" x="4" y="-252.5" font-family="Cascadia Code NF" font-size="10.00">+</text>
<text text-anchor="start" x="14" y="-252.5" font-family="Cascadia Code NF" font-size="10.00">is_maglev()</text>
<text text-anchor="start" x="4" y="-236.5" font-family="Cascadia Code NF" font-size="10.00">+</text>
<text text-anchor="start" x="14" y="-236.5" font-family="Cascadia Code NF" font-size="10.00">is_turbofan()</text>
<text text-anchor="start" x="14" y="-220.5" font-family="Cascadia Code NF" font-size="10.00">and 35 more...</text>
<text text-anchor="start" x="4" y="-204.5" font-family="Cascadia Code NF" font-size="10.00">+</text>
<text text-anchor="start" x="14" y="-204.5" font-family="Cascadia Code NF" font-size="10.00">TypeToMarker()</text>
<text text-anchor="start" x="4" y="-188.5" font-family="Cascadia Code NF" font-size="10.00">+</text>
<text text-anchor="start" x="14" y="-188.5" font-family="Cascadia Code NF" font-size="10.00">MarkerToType()</text>
<text text-anchor="start" x="4" y="-172.5" font-family="Cascadia Code NF" font-size="10.00">+</text>
<text text-anchor="start" x="14" y="-172.5" font-family="Cascadia Code NF" font-size="10.00">IsTypeMarker()</text>
<text text-anchor="start" x="4" y="-156.5" font-family="Cascadia Code NF" font-size="10.00">+</text>
<text text-anchor="start" x="14" y="-156.5" font-family="Cascadia Code NF" font-size="10.00">IsJavaScript()</text>
<text text-anchor="start" x="4" y="-140.5" font-family="Cascadia Code NF" font-size="10.00">+</text>
<text text-anchor="start" x="14" y="-140.5" font-family="Cascadia Code NF" font-size="10.00">unauthenticated_pc()</text>
<text text-anchor="start" x="4" y="-124.5" font-family="Cascadia Code NF" font-size="10.00">+</text>
<text text-anchor="start" x="14" y="-124.5" font-family="Cascadia Code NF" font-size="10.00">maybe_unauthenticated_pc()</text>
<text text-anchor="start" x="4" y="-108.5" font-family="Cascadia Code NF" font-size="10.00">+</text>
<text text-anchor="start" x="14" y="-108.5" font-family="Cascadia Code NF" font-size="10.00">SetReturnAddressLocation</text>
<text text-anchor="start" x="14" y="-95.75" font-family="Cascadia Code NF" font-size="10.00">Resolver()</text>
<text text-anchor="start" x="4" y="-79.5" font-family="Cascadia Code NF" font-size="10.00">+</text>
<text text-anchor="start" x="14" y="-79.5" font-family="Cascadia Code NF" font-size="10.00">ReadPC()</text>
<text text-anchor="start" x="4" y="-63.5" font-family="Cascadia Code NF" font-size="10.00">+</text>
<text text-anchor="start" x="14" y="-63.5" font-family="Cascadia Code NF" font-size="10.00">ResolveReturnAddressLocation()</text>
<text text-anchor="start" x="4" y="-47.5" font-family="Cascadia Code NF" font-size="10.00">#</text>
<text text-anchor="start" x="14" y="-47.5" font-family="Cascadia Code NF" font-size="10.00">StackFrame()</text>
<text text-anchor="start" x="4" y="-31.5" font-family="Cascadia Code NF" font-size="10.00">#</text>
<text text-anchor="start" x="14" y="-31.5" font-family="Cascadia Code NF" font-size="10.00">GetCallerStackPointer()</text>
<polygon fill="#bfbfbf" stroke="#bfbfbf" points="0,-408 0,-408 198,-408 198,-408 0,-408"/>
<polygon fill="#bfbfbf" stroke="#bfbfbf" points="0,-392 0,-392 12,-392 12,-392 0,-392"/>
<polygon fill="#bfbfbf" stroke="#bfbfbf" points="12,-392 12,-392 198,-392 198,-392 12,-392"/>
<polygon fill="none" stroke="#bfbfbf" points="0,-25 0,-426 198,-426 198,-25 0,-25"/>
</a>
</g>
</g>
<!-- Node4&#45;&gt;Node3 -->
<g id="edge3_Node000003_Node000004" class="edge">
<title>Node4&#45;&gt;Node3</title>
<g id="a_edge3_Node000003_Node000004"><a xlink:title=" ">
<path fill="none" stroke="#63b8ff" d="M209.13,-225.5C217.52,-225.5 225.91,-225.5 234.09,-225.5"/>
<polygon fill="none" stroke="#63b8ff" points="209.22,-222 199.22,-225.5 209.22,-229 209.22,-222"/>
</a>
</g>
</g>
</g>
</svg>
