<?xml version="1.0" encoding="UTF-8" standalone="no"?>
<!DOCTYPE svg PUBLIC "-//W3C//DTD SVG 1.1//EN"
 "http://www.w3.org/Graphics/SVG/1.1/DTD/svg11.dtd">
<!-- Generated by graphviz version 11.0.0 (20240428.1522)
 -->
<!-- Title: v8::internal::NativeContextMoveEventRecord Pages: 1 -->
<svg width="620pt" height="165pt"
 viewBox="0.00 0.00 620.00 165.00" xmlns="http://www.w3.org/2000/svg" xmlns:xlink="http://www.w3.org/1999/xlink">
<g id="graph0" class="graph" transform="scale(1 1) rotate(0) translate(4 161)">
<title>v8::internal::NativeContextMoveEventRecord</title>
<!-- Node1 -->
<g id="Node000001" class="node">
<title>Node1</title>
<g id="a_Node000001"><a xlink:title=" ">
<polygon fill="#999999" stroke="none" points="612,-82.5 440,-82.5 440,-17.5 612,-17.5 612,-82.5"/>
<text text-anchor="start" x="445" y="-69" font-family="Cascadia Code NF" font-size="10.00">v8::internal::NativeContext</text>
<text text-anchor="start" x="481" y="-56.25" font-family="Cascadia Code NF" font-size="10.00">MoveEventRecord</text>
<text text-anchor="start" x="523" y="-40" font-family="Cascadia Code NF" font-size="10.00"> </text>
<text text-anchor="start" x="523" y="-24" font-family="Cascadia Code NF" font-size="10.00"> </text>
<polygon fill="#666666" stroke="#666666" points="440,-51.5 440,-51.5 612,-51.5 612,-51.5 440,-51.5"/>
<polygon fill="#666666" stroke="#666666" points="440,-35.5 440,-35.5 612,-35.5 612,-35.5 440,-35.5"/>
<polygon fill="none" stroke="#666666" points="440,-17.5 440,-82.5 612,-82.5 612,-17.5 440,-17.5"/>
</a>
</g>
</g>
<!-- Node2 -->
<g id="Node000002" class="node">
<title>Node2</title>
<g id="a_Node000002"><a xlink:href="$d2/ddb/classv8_1_1internal_1_1CodeEventRecord.html" xlink:title=" ">
<polygon fill="white" stroke="none" points="320,-122 136,-122 136,-70 320,-70 320,-122"/>
<text text-anchor="start" x="141" y="-108.5" font-family="Cascadia Code NF" font-size="10.00">v8::internal::CodeEventRecord</text>
<text text-anchor="start" x="225" y="-92.5" font-family="Cascadia Code NF" font-size="10.00"> </text>
<text text-anchor="start" x="225" y="-76.5" font-family="Cascadia Code NF" font-size="10.00"> </text>
<polygon fill="#bfbfbf" stroke="#bfbfbf" points="136,-104 136,-104 320,-104 320,-104 136,-104"/>
<polygon fill="#bfbfbf" stroke="#bfbfbf" points="136,-88 136,-88 320,-88 320,-88 136,-88"/>
<polygon fill="none" stroke="#bfbfbf" points="136,-70 136,-122 320,-122 320,-70 136,-70"/>
</a>
</g>
</g>
<!-- Node2&#45;&gt;Node1 -->
<g id="edge1_Node000001_Node000002" class="edge">
<title>Node2&#45;&gt;Node1</title>
<g id="a_edge1_Node000001_Node000002"><a xlink:title=" ">
<path fill="none" stroke="#63b8ff" d="M330.75,-80.19C366.4,-74.65 406.04,-68.49 440.16,-63.18"/>
<polygon fill="none" stroke="#63b8ff" points="330.66,-76.66 321.32,-81.65 331.74,-83.58 330.66,-76.66"/>
</a>
</g>
</g>
<!-- Node3 -->
<g id="Node000003" class="node">
<title>Node3</title>
<g id="a_Node000003"><a xlink:title=" ">
<polygon fill="white" stroke="none" points="46,-157 12,-157 12,-105 46,-105 46,-157"/>
<text text-anchor="start" x="17" y="-143.5" font-family="Cascadia Code NF" font-size="10.00">Type</text>
<text text-anchor="start" x="26" y="-127.5" font-family="Cascadia Code NF" font-size="10.00"> </text>
<text text-anchor="start" x="26" y="-111.5" font-family="Cascadia Code NF" font-size="10.00"> </text>
<polygon fill="#bfbfbf" stroke="#bfbfbf" points="12,-139 12,-139 46,-139 46,-139 12,-139"/>
<polygon fill="#bfbfbf" stroke="#bfbfbf" points="12,-123 12,-123 46,-123 46,-123 12,-123"/>
<polygon fill="none" stroke="#bfbfbf" points="12,-105 12,-157 46,-157 46,-105 12,-105"/>
</a>
</g>
</g>
<!-- Node3&#45;&gt;Node2 -->
<g id="edge2_Node000002_Node000003" class="edge">
<title>Node3&#45;&gt;Node2</title>
<g id="a_edge2_Node000002_Node000003"><a xlink:title=" ">
<path fill="none" stroke="#63b8ff" d="M45.79,-128.19C63.28,-125.09 93.06,-119.8 123.48,-114.39"/>
<polygon fill="none" stroke="#63b8ff" points="123.35,-114.41 128.56,-109.43 135.17,-112.32 129.96,-117.3 123.35,-114.41"/>
</a>
</g>
<text text-anchor="middle" x="97" y="-125.25" font-family="Cascadia Code NF" font-size="10.00" fill="grey"> +type</text>
</g>
<!-- Node4 -->
<g id="Node000004" class="node">
<title>Node4</title>
<g id="a_Node000004"><a xlink:title=" ">
<polygon fill="white" stroke="none" points="58,-87 0,-87 0,-35 58,-35 58,-87"/>
<text text-anchor="start" x="5" y="-73.5" font-family="Cascadia Code NF" font-size="10.00">unsigned</text>
<text text-anchor="start" x="26" y="-57.5" font-family="Cascadia Code NF" font-size="10.00"> </text>
<text text-anchor="start" x="26" y="-41.5" font-family="Cascadia Code NF" font-size="10.00"> </text>
<polygon fill="#bfbfbf" stroke="#bfbfbf" points="0,-69 0,-69 58,-69 58,-69 0,-69"/>
<polygon fill="#bfbfbf" stroke="#bfbfbf" points="0,-53 0,-53 58,-53 58,-53 0,-53"/>
<polygon fill="none" stroke="#bfbfbf" points="0,-35 0,-87 58,-87 58,-35 0,-35"/>
</a>
</g>
</g>
<!-- Node4&#45;&gt;Node2 -->
<g id="edge3_Node000002_Node000004" class="edge">
<title>Node4&#45;&gt;Node2</title>
<g id="a_edge3_Node000002_Node000004"><a xlink:title=" ">
<path fill="none" stroke="#63b8ff" d="M57.81,-65.94C75.33,-69.05 99.16,-73.29 123.4,-77.59"/>
<polygon fill="none" stroke="#63b8ff" points="123.38,-77.59 129.99,-74.7 135.2,-79.69 128.59,-82.58 123.38,-77.59"/>
</a>
</g>
<text text-anchor="middle" x="97" y="-79.25" font-family="Cascadia Code NF" font-size="10.00" fill="grey"> +order</text>
</g>
<!-- Node5 -->
<g id="Node000005" class="node">
<title>Node5</title>
<g id="a_Node000005"><a xlink:href="$d0/d60/classuintptr__t.html" xlink:title=" ">
<polygon fill="white" stroke="none" points="260,-52 196,-52 196,0 260,0 260,-52"/>
<text text-anchor="start" x="201" y="-38.5" font-family="Cascadia Code NF" font-size="10.00">uintptr_t</text>
<text text-anchor="start" x="225" y="-22.5" font-family="Cascadia Code NF" font-size="10.00"> </text>
<text text-anchor="start" x="225" y="-6.5" font-family="Cascadia Code NF" font-size="10.00"> </text>
<polygon fill="#bfbfbf" stroke="#bfbfbf" points="196,-34 196,-34 260,-34 260,-34 196,-34"/>
<polygon fill="#bfbfbf" stroke="#bfbfbf" points="196,-18 196,-18 260,-18 260,-18 196,-18"/>
<polygon fill="none" stroke="#bfbfbf" points="196,0 196,-52 260,-52 260,0 196,0"/>
</a>
</g>
</g>
<!-- Node5&#45;&gt;Node1 -->
<g id="edge4_Node000001_Node000005" class="edge">
<title>Node5&#45;&gt;Node1</title>
<g id="a_edge4_Node000001_Node000005"><a xlink:title=" ">
<path fill="none" stroke="#63b8ff" d="M259.8,-27.25C297.93,-28.94 364.83,-32.33 422,-37.5 423.76,-37.66 425.53,-37.82 427.32,-37.99"/>
<polygon fill="none" stroke="#63b8ff" points="427.33,-38 433.7,-34.62 439.27,-39.2 432.9,-42.58 427.33,-38"/>
</a>
</g>
<text text-anchor="middle" x="380" y="-53" font-family="Cascadia Code NF" font-size="10.00" fill="grey"> +from_address</text>
<text text-anchor="middle" x="380" y="-40.25" font-family="Cascadia Code NF" font-size="10.00" fill="grey">+to_address</text>
</g>
</g>
</svg>
