<?xml version="1.0" encoding="UTF-8" standalone="no"?>
<!DOCTYPE svg PUBLIC "-//W3C//DTD SVG 1.1//EN"
 "http://www.w3.org/Graphics/SVG/1.1/DTD/svg11.dtd">
<!-- Generated by graphviz version 11.0.0 (20240428.1522)
 -->
<!-- Title: v8::internal::TurboshaftType Pages: 1 -->
<svg width="704pt" height="176pt"
 viewBox="0.00 0.00 704.00 176.00" xmlns="http://www.w3.org/2000/svg" xmlns:xlink="http://www.w3.org/1999/xlink">
<g id="graph0" class="graph" transform="scale(1 1) rotate(0) translate(4 172)">
<title>v8::internal::TurboshaftType</title>
<!-- Node1 -->
<g id="Node000001" class="node">
<title>Node1</title>
<g id="a_Node000001"><a xlink:title=" ">
<polygon fill="#999999" stroke="none" points="696,-110 518,-110 518,-58 696,-58 696,-110"/>
<text text-anchor="start" x="523" y="-96.5" font-family="Cascadia Code NF" font-size="10.00">v8::internal::TurboshaftType</text>
<text text-anchor="start" x="604" y="-80.5" font-family="Cascadia Code NF" font-size="10.00"> </text>
<text text-anchor="start" x="604" y="-64.5" font-family="Cascadia Code NF" font-size="10.00"> </text>
<polygon fill="#666666" stroke="#666666" points="518,-92 518,-92 696,-92 696,-92 518,-92"/>
<polygon fill="#666666" stroke="#666666" points="518,-76 518,-76 696,-76 696,-76 518,-76"/>
<polygon fill="none" stroke="#666666" points="518,-58 518,-110 696,-110 696,-58 518,-58"/>
</a>
</g>
</g>
<!-- Node2 -->
<g id="Node000002" class="node">
<title>Node2</title>
<g id="a_Node000002"><a xlink:href="$de/d46/classTorqueGeneratedTurboshaftType.html" xlink:title=" ">
<polygon fill="white" stroke="none" points="482,-168 268,-168 268,0 482,0 482,-168"/>
<text text-anchor="start" x="273" y="-154.5" font-family="Cascadia Code NF" font-size="10.00">TorqueGeneratedTurboshaft</text>
<text text-anchor="start" x="273" y="-141.75" font-family="Cascadia Code NF" font-size="10.00">Type&lt; TurboshaftType, HeapObject &gt;</text>
<text text-anchor="start" x="372" y="-125.5" font-family="Cascadia Code NF" font-size="10.00"> </text>
<text text-anchor="start" x="283.5" y="-109.5" font-family="Cascadia Code NF" font-size="10.00">+</text>
<text text-anchor="start" x="305" y="-109.5" font-family="Cascadia Code NF" font-size="10.00">TorqueGeneratedTurboshaft</text>
<text text-anchor="start" x="305" y="-96.75" font-family="Cascadia Code NF" font-size="10.00">Type()</text>
<text text-anchor="start" x="283.5" y="-80.5" font-family="Cascadia Code NF" font-size="10.00">+</text>
<text text-anchor="start" x="305" y="-80.5" font-family="Cascadia Code NF" font-size="10.00">cast()</text>
<text text-anchor="start" x="283.5" y="-64.5" font-family="Cascadia Code NF" font-size="10.00">+</text>
<text text-anchor="start" x="305" y="-64.5" font-family="Cascadia Code NF" font-size="10.00">unchecked_cast()</text>
<text text-anchor="start" x="283.5" y="-48.5" font-family="Cascadia Code NF" font-size="10.00">#</text>
<text text-anchor="start" x="305" y="-48.5" font-family="Cascadia Code NF" font-size="10.00">TorqueGeneratedTurboshaft</text>
<text text-anchor="start" x="305" y="-35.75" font-family="Cascadia Code NF" font-size="10.00">Type()</text>
<text text-anchor="start" x="283.5" y="-19.5" font-family="Cascadia Code NF" font-size="10.00">#</text>
<text text-anchor="start" x="305" y="-19.5" font-family="Cascadia Code NF" font-size="10.00">TorqueGeneratedTurboshaft</text>
<text text-anchor="start" x="305" y="-6.75" font-family="Cascadia Code NF" font-size="10.00">Type()</text>
<polygon fill="#bfbfbf" stroke="#bfbfbf" points="268,-137 268,-137 482,-137 482,-137 268,-137"/>
<polygon fill="#bfbfbf" stroke="#bfbfbf" points="268,-121 268,-121 482,-121 482,-121 268,-121"/>
<polygon fill="none" stroke="#bfbfbf" points="268,0 268,-168 482,-168 482,0 268,0"/>
</a>
</g>
</g>
<!-- Node2&#45;&gt;Node1 -->
<g id="edge1_Node000001_Node000002" class="edge">
<title>Node2&#45;&gt;Node1</title>
<g id="a_edge1_Node000001_Node000002"><a xlink:title=" ">
<path fill="none" stroke="#63b8ff" d="M493.32,-84C501.69,-84 510.04,-84 518.2,-84"/>
<polygon fill="none" stroke="#63b8ff" points="493.43,-80.5 483.43,-84 493.43,-87.5 493.43,-80.5"/>
</a>
</g>
</g>
<!-- Node3 -->
<g id="Node000003" class="node">
<title>Node3</title>
<g id="a_Node000003"><a xlink:title=" ">
<polygon fill="white" stroke="none" points="70,-154 0,-154 0,-102 70,-102 70,-154"/>
<text text-anchor="start" x="5" y="-140.5" font-family="Cascadia Code NF" font-size="10.00">HeapObject</text>
<text text-anchor="start" x="32" y="-124.5" font-family="Cascadia Code NF" font-size="10.00"> </text>
<text text-anchor="start" x="32" y="-108.5" font-family="Cascadia Code NF" font-size="10.00"> </text>
<polygon fill="#bfbfbf" stroke="#bfbfbf" points="0,-136 0,-136 70,-136 70,-136 0,-136"/>
<polygon fill="#bfbfbf" stroke="#bfbfbf" points="0,-120 0,-120 70,-120 70,-120 0,-120"/>
<polygon fill="none" stroke="#bfbfbf" points="0,-102 0,-154 70,-154 70,-102 0,-102"/>
</a>
</g>
</g>
<!-- Node3&#45;&gt;Node2 -->
<g id="edge2_Node000002_Node000003" class="edge">
<title>Node3&#45;&gt;Node2</title>
<g id="a_edge2_Node000002_Node000003"><a xlink:title=" ">
<path fill="none" stroke="#63b8ff" d="M81.12,-124.33C124.51,-120.57 191.89,-114.13 250,-106 255.95,-105.17 262.06,-104.26 268.22,-103.3"/>
<polygon fill="none" stroke="#63b8ff" points="80.99,-120.83 71.33,-125.16 81.59,-127.8 80.99,-120.83"/>
</a>
</g>
</g>
<!-- Node4 -->
<g id="Node000004" class="node">
<title>Node4</title>
<g id="a_Node000004"><a xlink:href="$d1/da0/classint.html" xlink:title=" ">
<polygon fill="white" stroke="none" points="49,-67 21,-67 21,-15 49,-15 49,-67"/>
<text text-anchor="start" x="26" y="-53.5" font-family="Cascadia Code NF" font-size="10.00">int</text>
<text text-anchor="start" x="32" y="-37.5" font-family="Cascadia Code NF" font-size="10.00"> </text>
<text text-anchor="start" x="32" y="-21.5" font-family="Cascadia Code NF" font-size="10.00"> </text>
<polygon fill="#bfbfbf" stroke="#bfbfbf" points="21,-49 21,-49 49,-49 49,-49 21,-49"/>
<polygon fill="#bfbfbf" stroke="#bfbfbf" points="21,-33 21,-33 49,-33 49,-33 21,-33"/>
<polygon fill="none" stroke="#bfbfbf" points="21,-15 21,-67 49,-67 49,-15 21,-15"/>
</a>
</g>
</g>
<!-- Node4&#45;&gt;Node2 -->
<g id="edge3_Node000002_Node000004" class="edge">
<title>Node4&#45;&gt;Node2</title>
<g id="a_edge3_Node000002_Node000004"><a xlink:title=" ">
<path fill="none" stroke="#63b8ff" d="M48.66,-39.68C81.94,-36.52 174.51,-29.66 250,-42.25 251.76,-42.54 253.53,-42.86 255.31,-43.19"/>
<polygon fill="none" stroke="#63b8ff" points="255.41,-43.21 262.1,-40.54 267.14,-45.7 260.45,-48.37 255.41,-43.21"/>
</a>
</g>
<text text-anchor="middle" x="169" y="-96.25" font-family="Cascadia Code NF" font-size="10.00" fill="grey"> +kEndOfStrongFieldsOffset</text>
<text text-anchor="middle" x="169" y="-83.5" font-family="Cascadia Code NF" font-size="10.00" fill="grey">+kEndOfWeakFieldsOffset</text>
<text text-anchor="middle" x="169" y="-70.75" font-family="Cascadia Code NF" font-size="10.00" fill="grey">+kHeaderSize</text>
<text text-anchor="middle" x="169" y="-58" font-family="Cascadia Code NF" font-size="10.00" fill="grey">+kStartOfStrongFieldsOffset</text>
<text text-anchor="middle" x="169" y="-45.25" font-family="Cascadia Code NF" font-size="10.00" fill="grey">+kStartOfWeakFieldsOffset</text>
</g>
</g>
</svg>
