<?xml version="1.0" encoding="UTF-8" standalone="no"?>
<!DOCTYPE svg PUBLIC "-//W3C//DTD SVG 1.1//EN"
 "http://www.w3.org/Graphics/SVG/1.1/DTD/svg11.dtd">
<!-- Generated by graphviz version 11.0.0 (20240428.1522)
 -->
<!-- Title: v8::internal::BufferedUtf16CharacterStream Pages: 1 -->
<svg width="796pt" height="433pt"
 viewBox="0.00 0.00 796.00 432.75" xmlns="http://www.w3.org/2000/svg" xmlns:xlink="http://www.w3.org/1999/xlink">
<g id="graph0" class="graph" transform="scale(1 1) rotate(0) translate(4 428.75)">
<title>v8::internal::BufferedUtf16CharacterStream</title>
<!-- Node1 -->
<g id="Node000001" class="node">
<title>Node1</title>
<g id="a_Node000001"><a xlink:title=" ">
<polygon fill="#999999" stroke="none" points="788,-269.5 590,-269.5 590,-172.5 788,-172.5 788,-269.5"/>
<text text-anchor="start" x="608" y="-256" font-family="Cascadia Code NF" font-size="10.00">v8::internal::BufferedUtf16</text>
<text text-anchor="start" x="644" y="-243.25" font-family="Cascadia Code NF" font-size="10.00">CharacterStream</text>
<text text-anchor="start" x="686" y="-227" font-family="Cascadia Code NF" font-size="10.00"> </text>
<text text-anchor="start" x="594" y="-211" font-family="Cascadia Code NF" font-size="10.00">+</text>
<text text-anchor="start" x="604" y="-211" font-family="Cascadia Code NF" font-size="10.00">BufferedUtf16CharacterStream()</text>
<text text-anchor="start" x="594" y="-195" font-family="Cascadia Code NF" font-size="10.00">#</text>
<text text-anchor="start" x="604" y="-195" font-family="Cascadia Code NF" font-size="10.00">ReadBlock()</text>
<text text-anchor="start" x="594" y="-179" font-family="Cascadia Code NF" font-size="10.00">#</text>
<text text-anchor="start" x="604" y="-179" font-family="Cascadia Code NF" font-size="10.00">FillBuffer()</text>
<polygon fill="#666666" stroke="#666666" points="590,-238.5 590,-238.5 788,-238.5 788,-238.5 590,-238.5"/>
<polygon fill="#666666" stroke="#666666" points="590,-222.5 590,-222.5 788,-222.5 788,-222.5 590,-222.5"/>
<polygon fill="none" stroke="#666666" points="590,-172.5 590,-269.5 788,-269.5 788,-172.5 590,-172.5"/>
</a>
</g>
</g>
<!-- Node2 -->
<g id="Node000002" class="node">
<title>Node2</title>
<g id="a_Node000002"><a xlink:href="$d3/d2d/classv8_1_1internal_1_1Utf16CharacterStream.html" xlink:title=" ">
<polygon fill="white" stroke="none" points="500,-372 322,-372 322,-70 500,-70 500,-372"/>
<text text-anchor="start" x="327" y="-358.5" font-family="Cascadia Code NF" font-size="10.00">v8::internal::Utf16Character</text>
<text text-anchor="start" x="393" y="-345.75" font-family="Cascadia Code NF" font-size="10.00">Stream</text>
<text text-anchor="start" x="408" y="-329.5" font-family="Cascadia Code NF" font-size="10.00"> </text>
<text text-anchor="start" x="331.5" y="-313.5" font-family="Cascadia Code NF" font-size="10.00">+</text>
<text text-anchor="start" x="347" y="-313.5" font-family="Cascadia Code NF" font-size="10.00">~Utf16CharacterStream()</text>
<text text-anchor="start" x="331.5" y="-297.5" font-family="Cascadia Code NF" font-size="10.00">+</text>
<text text-anchor="start" x="347" y="-297.5" font-family="Cascadia Code NF" font-size="10.00">set_parser_error()</text>
<text text-anchor="start" x="331.5" y="-281.5" font-family="Cascadia Code NF" font-size="10.00">+</text>
<text text-anchor="start" x="347" y="-281.5" font-family="Cascadia Code NF" font-size="10.00">reset_parser_error</text>
<text text-anchor="start" x="347" y="-268.75" font-family="Cascadia Code NF" font-size="10.00">_flag()</text>
<text text-anchor="start" x="331.5" y="-252.5" font-family="Cascadia Code NF" font-size="10.00">+</text>
<text text-anchor="start" x="347" y="-252.5" font-family="Cascadia Code NF" font-size="10.00">has_parser_error()</text>
<text text-anchor="start" x="331.5" y="-236.5" font-family="Cascadia Code NF" font-size="10.00">+</text>
<text text-anchor="start" x="347" y="-236.5" font-family="Cascadia Code NF" font-size="10.00">Peek()</text>
<text text-anchor="start" x="331.5" y="-220.5" font-family="Cascadia Code NF" font-size="10.00">+</text>
<text text-anchor="start" x="347" y="-220.5" font-family="Cascadia Code NF" font-size="10.00">Advance()</text>
<text text-anchor="start" x="331.5" y="-204.5" font-family="Cascadia Code NF" font-size="10.00">+</text>
<text text-anchor="start" x="347" y="-204.5" font-family="Cascadia Code NF" font-size="10.00">AdvanceUntil()</text>
<text text-anchor="start" x="331.5" y="-188.5" font-family="Cascadia Code NF" font-size="10.00">+</text>
<text text-anchor="start" x="347" y="-188.5" font-family="Cascadia Code NF" font-size="10.00">Back()</text>
<text text-anchor="start" x="331.5" y="-172.5" font-family="Cascadia Code NF" font-size="10.00">+</text>
<text text-anchor="start" x="347" y="-172.5" font-family="Cascadia Code NF" font-size="10.00">pos()</text>
<text text-anchor="start" x="331.5" y="-156.5" font-family="Cascadia Code NF" font-size="10.00">+</text>
<text text-anchor="start" x="347" y="-156.5" font-family="Cascadia Code NF" font-size="10.00">Seek()</text>
<text text-anchor="start" x="347" y="-140.5" font-family="Cascadia Code NF" font-size="10.00">and 6 more...</text>
<text text-anchor="start" x="331.5" y="-124.5" font-family="Cascadia Code NF" font-size="10.00">#</text>
<text text-anchor="start" x="347" y="-124.5" font-family="Cascadia Code NF" font-size="10.00">Utf16CharacterStream()</text>
<text text-anchor="start" x="331.5" y="-108.5" font-family="Cascadia Code NF" font-size="10.00">#</text>
<text text-anchor="start" x="347" y="-108.5" font-family="Cascadia Code NF" font-size="10.00">Utf16CharacterStream()</text>
<text text-anchor="start" x="331.5" y="-92.5" font-family="Cascadia Code NF" font-size="10.00">#</text>
<text text-anchor="start" x="347" y="-92.5" font-family="Cascadia Code NF" font-size="10.00">ReadBlockChecked()</text>
<text text-anchor="start" x="331.5" y="-76.5" font-family="Cascadia Code NF" font-size="10.00">#</text>
<text text-anchor="start" x="347" y="-76.5" font-family="Cascadia Code NF" font-size="10.00">ReadBlock()</text>
<polygon fill="#bfbfbf" stroke="#bfbfbf" points="322,-341 322,-341 500,-341 500,-341 322,-341"/>
<polygon fill="#bfbfbf" stroke="#bfbfbf" points="322,-325 322,-325 500,-325 500,-325 322,-325"/>
<polygon fill="none" stroke="#bfbfbf" points="322,-70 322,-372 500,-372 500,-70 322,-70"/>
</a>
</g>
</g>
<!-- Node2&#45;&gt;Node1 -->
<g id="edge1_Node000001_Node000002" class="edge">
<title>Node2&#45;&gt;Node1</title>
<g id="a_edge1_Node000001_Node000002"><a xlink:title=" ">
<path fill="none" stroke="#63b8ff" d="M511.03,-221C536.87,-221 564.7,-221 590.46,-221"/>
<polygon fill="none" stroke="#63b8ff" points="511.22,-217.5 501.22,-221 511.22,-224.5 511.22,-217.5"/>
</a>
</g>
</g>
<!-- Node3 -->
<g id="Node000003" class="node">
<title>Node3</title>
<g id="a_Node000003"><a xlink:href="$d3/d87/classuint32__t.html" xlink:title=" ">
<polygon fill="white" stroke="none" points="109,-324 51,-324 51,-272 109,-272 109,-324"/>
<text text-anchor="start" x="56" y="-310.5" font-family="Cascadia Code NF" font-size="10.00">uint32_t</text>
<text text-anchor="start" x="77" y="-294.5" font-family="Cascadia Code NF" font-size="10.00"> </text>
<text text-anchor="start" x="77" y="-278.5" font-family="Cascadia Code NF" font-size="10.00"> </text>
<polygon fill="#bfbfbf" stroke="#bfbfbf" points="51,-306 51,-306 109,-306 109,-306 51,-306"/>
<polygon fill="#bfbfbf" stroke="#bfbfbf" points="51,-290 51,-290 109,-290 109,-290 51,-290"/>
<polygon fill="none" stroke="#bfbfbf" points="51,-272 51,-324 109,-324 109,-272 51,-272"/>
</a>
</g>
</g>
<!-- Node3&#45;&gt;Node2 -->
<g id="edge2_Node000002_Node000003" class="edge">
<title>Node3&#45;&gt;Node2</title>
<g id="a_edge2_Node000002_Node000003"><a xlink:title=" ">
<path fill="none" stroke="#63b8ff" d="M108.77,-291.5C152.68,-281.22 240.31,-260.71 309.79,-244.45"/>
<polygon fill="none" stroke="#63b8ff" points="309.53,-244.51 314.46,-239.25 321.21,-241.78 316.28,-247.04 309.53,-244.51"/>
</a>
</g>
<text text-anchor="middle" x="241" y="-278.25" font-family="Cascadia Code NF" font-size="10.00" fill="grey"> +kEndOfInput</text>
</g>
<!-- Node4 -->
<g id="Node000004" class="node">
<title>Node4</title>
<g id="a_Node000004"><a xlink:title=" ">
<polygon fill="white" stroke="none" points="100,-411 60,-411 60,-359 100,-359 100,-411"/>
<text text-anchor="start" x="65" y="-397.5" font-family="Cascadia Code NF" font-size="10.00">const</text>
<text text-anchor="start" x="77" y="-381.5" font-family="Cascadia Code NF" font-size="10.00"> </text>
<text text-anchor="start" x="77" y="-365.5" font-family="Cascadia Code NF" font-size="10.00"> </text>
<polygon fill="#bfbfbf" stroke="#bfbfbf" points="60,-393 60,-393 100,-393 100,-393 60,-393"/>
<polygon fill="#bfbfbf" stroke="#bfbfbf" points="60,-377 60,-377 100,-377 100,-377 60,-377"/>
<polygon fill="none" stroke="#bfbfbf" points="60,-359 60,-411 100,-411 100,-359 60,-359"/>
</a>
</g>
</g>
<!-- Node4&#45;&gt;Node1 -->
<g id="edge7_Node000001_Node000004" class="edge">
<title>Node4&#45;&gt;Node1</title>
<g id="a_edge7_Node000001_Node000004"><a xlink:title=" ">
<path fill="none" stroke="#63b8ff" d="M99.86,-389.42C160.6,-402.69 355.51,-437.96 500,-381 554.77,-359.41 604.89,-314.93 639.58,-278.33"/>
<polygon fill="none" stroke="#63b8ff" points="639.27,-278.66 640.43,-271.54 647.45,-269.87 646.29,-276.99 639.27,-278.66"/>
</a>
</g>
<text text-anchor="middle" x="411" y="-415.25" font-family="Cascadia Code NF" font-size="10.00" fill="grey"> #kBufferSize</text>
</g>
<!-- Node4&#45;&gt;Node2 -->
<g id="edge3_Node000002_Node000004" class="edge">
<title>Node4&#45;&gt;Node2</title>
<g id="a_edge3_Node000002_Node000004"><a xlink:title=" ">
<path fill="none" stroke="#63b8ff" d="M99.77,-378.58C138.85,-364.91 231.38,-330.98 304,-292 306.23,-290.8 308.48,-289.57 310.73,-288.31"/>
<polygon fill="none" stroke="#63b8ff" points="310.84,-288.24 314.03,-281.77 321.23,-282.23 318.04,-288.7 310.84,-288.24"/>
</a>
</g>
<text text-anchor="middle" x="241" y="-376.75" font-family="Cascadia Code NF" font-size="10.00" fill="grey"> #buffer_cursor_</text>
<text text-anchor="middle" x="241" y="-364" font-family="Cascadia Code NF" font-size="10.00" fill="grey">#buffer_end_</text>
<text text-anchor="middle" x="241" y="-351.25" font-family="Cascadia Code NF" font-size="10.00" fill="grey">#buffer_start_</text>
</g>
<!-- Node5 -->
<g id="Node000005" class="node">
<title>Node5</title>
<g id="a_Node000005"><a xlink:title=" ">
<polygon fill="white" stroke="none" points="103,-184 57,-184 57,-132 103,-132 103,-184"/>
<text text-anchor="start" x="62" y="-170.5" font-family="Cascadia Code NF" font-size="10.00">size_t</text>
<text text-anchor="start" x="77" y="-154.5" font-family="Cascadia Code NF" font-size="10.00"> </text>
<text text-anchor="start" x="77" y="-138.5" font-family="Cascadia Code NF" font-size="10.00"> </text>
<polygon fill="#bfbfbf" stroke="#bfbfbf" points="57,-166 57,-166 103,-166 103,-166 57,-166"/>
<polygon fill="#bfbfbf" stroke="#bfbfbf" points="57,-150 57,-150 103,-150 103,-150 57,-150"/>
<polygon fill="none" stroke="#bfbfbf" points="57,-132 57,-184 103,-184 103,-132 57,-132"/>
</a>
</g>
</g>
<!-- Node5&#45;&gt;Node2 -->
<g id="edge4_Node000002_Node000005" class="edge">
<title>Node5&#45;&gt;Node2</title>
<g id="a_edge4_Node000002_Node000005"><a xlink:title=" ">
<path fill="none" stroke="#63b8ff" d="M102.84,-162.18C144.36,-170.13 237,-187.87 309.76,-201.8"/>
<polygon fill="none" stroke="#63b8ff" points="309.5,-201.76 316.14,-198.95 321.28,-204.01 314.64,-206.81 309.5,-201.76"/>
</a>
</g>
<text text-anchor="middle" x="241" y="-203.25" font-family="Cascadia Code NF" font-size="10.00" fill="grey"> #buffer_pos_</text>
</g>
<!-- Node6 -->
<g id="Node000006" class="node">
<title>Node6</title>
<g id="a_Node000006"><a xlink:href="$d9/d95/classv8_1_1internal_1_1RuntimeCallStats.html" xlink:title=" ">
<polygon fill="white" stroke="none" points="160,-113.5 0,-113.5 0,-48.5 160,-48.5 160,-113.5"/>
<text text-anchor="start" x="5" y="-100" font-family="Cascadia Code NF" font-size="10.00">v8::internal::RuntimeCall</text>
<text text-anchor="start" x="65" y="-87.25" font-family="Cascadia Code NF" font-size="10.00">Stats</text>
<text text-anchor="start" x="77" y="-71" font-family="Cascadia Code NF" font-size="10.00"> </text>
<text text-anchor="start" x="12.5" y="-55" font-family="Cascadia Code NF" font-size="10.00">+</text>
<text text-anchor="start" x="31" y="-55" font-family="Cascadia Code NF" font-size="10.00">RuntimeCallStats()</text>
<polygon fill="#bfbfbf" stroke="#bfbfbf" points="0,-82.5 0,-82.5 160,-82.5 160,-82.5 0,-82.5"/>
<polygon fill="#bfbfbf" stroke="#bfbfbf" points="0,-66.5 0,-66.5 160,-66.5 160,-66.5 0,-66.5"/>
<polygon fill="none" stroke="#bfbfbf" points="0,-48.5 0,-113.5 160,-113.5 160,-48.5 0,-48.5"/>
</a>
</g>
</g>
<!-- Node6&#45;&gt;Node2 -->
<g id="edge5_Node000002_Node000006" class="edge">
<title>Node6&#45;&gt;Node2</title>
<g id="a_edge5_Node000002_Node000006"><a xlink:title=" ">
<path fill="none" stroke="#63b8ff" d="M159.84,-104.61C203.18,-118.59 257.44,-137.75 304,-159.25 306.25,-160.29 308.51,-161.36 310.78,-162.46"/>
<polygon fill="none" stroke="#63b8ff" points="310.64,-162.39 317.8,-161.49 321.37,-167.76 314.22,-168.65 310.64,-162.39"/>
</a>
</g>
<text text-anchor="middle" x="241" y="-162.25" font-family="Cascadia Code NF" font-size="10.00" fill="grey"> #runtime_call_stats_</text>
</g>
<!-- Node7 -->
<g id="Node000007" class="node">
<title>Node7</title>
<g id="a_Node000007"><a xlink:title=" ">
<polygon fill="white" stroke="none" points="97,-254 63,-254 63,-202 97,-202 97,-254"/>
<text text-anchor="start" x="68" y="-240.5" font-family="Cascadia Code NF" font-size="10.00">bool</text>
<text text-anchor="start" x="77" y="-224.5" font-family="Cascadia Code NF" font-size="10.00"> </text>
<text text-anchor="start" x="77" y="-208.5" font-family="Cascadia Code NF" font-size="10.00"> </text>
<polygon fill="#bfbfbf" stroke="#bfbfbf" points="63,-236 63,-236 97,-236 97,-236 63,-236"/>
<polygon fill="#bfbfbf" stroke="#bfbfbf" points="63,-220 63,-220 97,-220 97,-220 63,-220"/>
<polygon fill="none" stroke="#bfbfbf" points="63,-202 63,-254 97,-254 97,-202 63,-202"/>
</a>
</g>
</g>
<!-- Node7&#45;&gt;Node2 -->
<g id="edge6_Node000002_Node000007" class="edge">
<title>Node7&#45;&gt;Node2</title>
<g id="a_edge6_Node000002_Node000007"><a xlink:title=" ">
<path fill="none" stroke="#63b8ff" d="M96.87,-227.66C134.73,-226.86 232.88,-224.77 309.29,-223.14"/>
<polygon fill="none" stroke="#63b8ff" points="309.42,-223.14 315.34,-219.01 321.42,-222.88 315.51,-227.01 309.42,-223.14"/>
</a>
</g>
<text text-anchor="middle" x="241" y="-228.25" font-family="Cascadia Code NF" font-size="10.00" fill="grey"> #has_parser_error_</text>
</g>
<!-- Node8 -->
<g id="Node000008" class="node">
<title>Node8</title>
<g id="a_Node000008"><a xlink:title=" ">
<polygon fill="white" stroke="none" points="440,-52 382,-52 382,0 440,0 440,-52"/>
<text text-anchor="start" x="387" y="-38.5" font-family="Cascadia Code NF" font-size="10.00">uint16_t</text>
<text text-anchor="start" x="408" y="-22.5" font-family="Cascadia Code NF" font-size="10.00"> </text>
<text text-anchor="start" x="408" y="-6.5" font-family="Cascadia Code NF" font-size="10.00"> </text>
<polygon fill="#bfbfbf" stroke="#bfbfbf" points="382,-34 382,-34 440,-34 440,-34 382,-34"/>
<polygon fill="#bfbfbf" stroke="#bfbfbf" points="382,-18 382,-18 440,-18 440,-18 382,-18"/>
<polygon fill="none" stroke="#bfbfbf" points="382,0 382,-52 440,-52 440,0 382,0"/>
</a>
</g>
</g>
<!-- Node8&#45;&gt;Node1 -->
<g id="edge8_Node000001_Node000008" class="edge">
<title>Node8&#45;&gt;Node1</title>
<g id="a_edge8_Node000001_Node000008"><a xlink:title=" ">
<path fill="none" stroke="#63b8ff" d="M439.65,-34.39C457.55,-40.45 480.98,-49.55 500,-61 547.87,-89.81 595.73,-130.76 631.18,-164.03"/>
<polygon fill="none" stroke="#63b8ff" points="631.02,-163.87 638.12,-165.09 639.73,-172.12 632.62,-170.9 631.02,-163.87"/>
</a>
</g>
<text text-anchor="middle" x="545" y="-114.25" font-family="Cascadia Code NF" font-size="10.00" fill="grey"> #buffer_</text>
</g>
</g>
</svg>
