<?xml version="1.0" encoding="UTF-8" standalone="no"?>
<!DOCTYPE svg PUBLIC "-//W3C//DTD SVG 1.1//EN"
 "http://www.w3.org/Graphics/SVG/1.1/DTD/svg11.dtd">
<!-- Generated by graphviz version 11.0.0 (20240428.1522)
 -->
<!-- Title: v8::TracingController::TraceStateObserver Pages: 1 -->
<svg width="366pt" height="284pt"
 viewBox="0.00 0.00 366.00 284.00" xmlns="http://www.w3.org/2000/svg" xmlns:xlink="http://www.w3.org/1999/xlink">
<g id="graph0" class="graph" transform="scale(1 1) rotate(0) translate(4 280)">
<title>v8::TracingController::TraceStateObserver</title>
<!-- Node1 -->
<g id="Node000001" class="node">
<title>Node1</title>
<g id="a_Node000001"><a xlink:title=" ">
<polygon fill="#999999" stroke="none" points="144,-178 0,-178 0,-81 144,-81 144,-178"/>
<text text-anchor="start" x="9" y="-164.5" font-family="Cascadia Code NF" font-size="10.00">v8::TracingController</text>
<text text-anchor="start" x="12" y="-151.75" font-family="Cascadia Code NF" font-size="10.00">::TraceStateObserver</text>
<text text-anchor="start" x="69" y="-135.5" font-family="Cascadia Code NF" font-size="10.00"> </text>
<text text-anchor="start" x="4" y="-119.5" font-family="Cascadia Code NF" font-size="10.00">+</text>
<text text-anchor="start" x="14" y="-119.5" font-family="Cascadia Code NF" font-size="10.00">~TraceStateObserver()</text>
<text text-anchor="start" x="4" y="-103.5" font-family="Cascadia Code NF" font-size="10.00">+</text>
<text text-anchor="start" x="14" y="-103.5" font-family="Cascadia Code NF" font-size="10.00">OnTraceEnabled()</text>
<text text-anchor="start" x="4" y="-87.5" font-family="Cascadia Code NF" font-size="10.00">+</text>
<text text-anchor="start" x="14" y="-87.5" font-family="Cascadia Code NF" font-size="10.00">OnTraceDisabled()</text>
<polygon fill="#666666" stroke="#666666" points="0,-147 0,-147 144,-147 144,-147 0,-147"/>
<polygon fill="#666666" stroke="#666666" points="0,-131 0,-131 144,-131 144,-131 0,-131"/>
<polygon fill="none" stroke="#666666" points="0,-81 0,-178 144,-178 144,-81 0,-81"/>
</a>
</g>
</g>
<!-- Node2 -->
<g id="Node000002" class="node">
<title>Node2</title>
<g id="a_Node000002"><a xlink:href="$da/d97/classv8_1_1internal_1_1TracingCpuProfilerImpl.html" xlink:title=" ">
<polygon fill="white" stroke="none" points="353,-276 185,-276 185,-131 353,-131 353,-276"/>
<text text-anchor="start" x="197" y="-262.5" font-family="Cascadia Code NF" font-size="10.00">v8::internal::TracingCpu</text>
<text text-anchor="start" x="233" y="-249.75" font-family="Cascadia Code NF" font-size="10.00">ProfilerImpl</text>
<text text-anchor="start" x="266" y="-233.5" font-family="Cascadia Code NF" font-size="10.00"> </text>
<text text-anchor="start" x="189" y="-217.5" font-family="Cascadia Code NF" font-size="10.00">+</text>
<text text-anchor="start" x="199" y="-217.5" font-family="Cascadia Code NF" font-size="10.00">TracingCpuProfilerImpl()</text>
<text text-anchor="start" x="189" y="-201.5" font-family="Cascadia Code NF" font-size="10.00">+</text>
<text text-anchor="start" x="199" y="-201.5" font-family="Cascadia Code NF" font-size="10.00">~TracingCpuProfilerImpl()</text>
<text text-anchor="start" x="189" y="-185.5" font-family="Cascadia Code NF" font-size="10.00">+</text>
<text text-anchor="start" x="199" y="-185.5" font-family="Cascadia Code NF" font-size="10.00">TracingCpuProfilerImpl()</text>
<text text-anchor="start" x="189" y="-169.5" font-family="Cascadia Code NF" font-size="10.00">+</text>
<text text-anchor="start" x="199" y="-169.5" font-family="Cascadia Code NF" font-size="10.00">operator=()</text>
<text text-anchor="start" x="189" y="-153.5" font-family="Cascadia Code NF" font-size="10.00">+</text>
<text text-anchor="start" x="199" y="-153.5" font-family="Cascadia Code NF" font-size="10.00">OnTraceEnabled()</text>
<text text-anchor="start" x="189" y="-137.5" font-family="Cascadia Code NF" font-size="10.00">+</text>
<text text-anchor="start" x="199" y="-137.5" font-family="Cascadia Code NF" font-size="10.00">OnTraceDisabled()</text>
<polygon fill="#bfbfbf" stroke="#bfbfbf" points="185,-245 185,-245 353,-245 353,-245 185,-245"/>
<polygon fill="#bfbfbf" stroke="#bfbfbf" points="185,-229 185,-229 353,-229 353,-229 185,-229"/>
<polygon fill="none" stroke="#bfbfbf" points="185,-131 185,-276 353,-276 353,-131 185,-131"/>
</a>
</g>
</g>
<!-- Node1&#45;&gt;Node2 -->
<g id="edge1_Node000001_Node000002" class="edge">
<title>Node1&#45;&gt;Node2</title>
<g id="a_edge1_Node000001_Node000002"><a xlink:title=" ">
<path fill="none" stroke="#8b1a1a" d="M154.44,-160.4C164.6,-164.26 175,-168.21 185.18,-172.07"/>
<polygon fill="none" stroke="#8b1a1a" points="155.96,-157.24 145.37,-156.96 153.47,-163.78 155.96,-157.24"/>
</a>
</g>
</g>
<!-- Node3 -->
<g id="Node000003" class="node">
<title>Node3</title>
<g id="a_Node000003"><a xlink:href="$df/dc5/classv8_1_1tracing_1_1TracingCategoryObserver.html" xlink:title=" ">
<polygon fill="white" stroke="none" points="358,-113 180,-113 180,0 358,0 358,-113"/>
<text text-anchor="start" x="185" y="-99.5" font-family="Cascadia Code NF" font-size="10.00">v8::tracing::TracingCategory</text>
<text text-anchor="start" x="245" y="-86.75" font-family="Cascadia Code NF" font-size="10.00">Observer</text>
<text text-anchor="start" x="266" y="-70.5" font-family="Cascadia Code NF" font-size="10.00"> </text>
<text text-anchor="start" x="198.5" y="-54.5" font-family="Cascadia Code NF" font-size="10.00">+</text>
<text text-anchor="start" x="223" y="-54.5" font-family="Cascadia Code NF" font-size="10.00">OnTraceEnabled()</text>
<text text-anchor="start" x="198.5" y="-38.5" font-family="Cascadia Code NF" font-size="10.00">+</text>
<text text-anchor="start" x="223" y="-38.5" font-family="Cascadia Code NF" font-size="10.00">OnTraceDisabled()</text>
<text text-anchor="start" x="198.5" y="-22.5" font-family="Cascadia Code NF" font-size="10.00">+</text>
<text text-anchor="start" x="223" y="-22.5" font-family="Cascadia Code NF" font-size="10.00">SetUp()</text>
<text text-anchor="start" x="198.5" y="-6.5" font-family="Cascadia Code NF" font-size="10.00">+</text>
<text text-anchor="start" x="223" y="-6.5" font-family="Cascadia Code NF" font-size="10.00">TearDown()</text>
<polygon fill="#bfbfbf" stroke="#bfbfbf" points="180,-82 180,-82 358,-82 358,-82 180,-82"/>
<polygon fill="#bfbfbf" stroke="#bfbfbf" points="180,-66 180,-66 358,-66 358,-66 180,-66"/>
<polygon fill="none" stroke="#bfbfbf" points="180,0 180,-113 358,-113 358,0 180,0"/>
</a>
</g>
</g>
<!-- Node1&#45;&gt;Node3 -->
<g id="edge2_Node000001_Node000003" class="edge">
<title>Node1&#45;&gt;Node3</title>
<g id="a_edge2_Node000001_Node000003"><a xlink:title=" ">
<path fill="none" stroke="#63b8ff" d="M154.55,-98.97C163.01,-95.8 171.63,-92.58 180.15,-89.39"/>
<polygon fill="none" stroke="#63b8ff" points="153.51,-95.62 145.37,-102.41 155.96,-102.18 153.51,-95.62"/>
</a>
</g>
</g>
</g>
</svg>
