<?xml version="1.0" encoding="UTF-8" standalone="no"?>
<!DOCTYPE svg PUBLIC "-//W3C//DTD SVG 1.1//EN"
 "http://www.w3.org/Graphics/SVG/1.1/DTD/svg11.dtd">
<!-- Generated by graphviz version 11.0.0 (20240428.1522)
 -->
<!-- Title: v8::internal::debug_helper_internal::TqWasmObject Pages: 1 -->
<svg width="970pt" height="316pt"
 viewBox="0.00 0.00 970.00 316.00" xmlns="http://www.w3.org/2000/svg" xmlns:xlink="http://www.w3.org/1999/xlink">
<g id="graph0" class="graph" transform="scale(1 1) rotate(0) translate(4 312)">
<title>v8::internal::debug_helper_internal::TqWasmObject</title>
<!-- Node1 -->
<g id="Node000001" class="node">
<title>Node1</title>
<g id="a_Node000001"><a xlink:title=" ">
<polygon fill="#999999" stroke="none" points="736,-210 546,-210 546,-81 736,-81 736,-210"/>
<text text-anchor="start" x="551" y="-196.5" font-family="Cascadia Code NF" font-size="10.00">v8::internal::debug</text>
<text text-anchor="start" x="551" y="-183.75" font-family="Cascadia Code NF" font-size="10.00">_helper_internal::TqWasmObject</text>
<text text-anchor="start" x="638" y="-167.5" font-family="Cascadia Code NF" font-size="10.00"> </text>
<text text-anchor="start" x="569" y="-151.5" font-family="Cascadia Code NF" font-size="10.00">+</text>
<text text-anchor="start" x="598" y="-151.5" font-family="Cascadia Code NF" font-size="10.00">TqWasmObject()</text>
<text text-anchor="start" x="569" y="-135.5" font-family="Cascadia Code NF" font-size="10.00">+</text>
<text text-anchor="start" x="598" y="-135.5" font-family="Cascadia Code NF" font-size="10.00">GetProperties()</text>
<text text-anchor="start" x="569" y="-119.5" font-family="Cascadia Code NF" font-size="10.00">+</text>
<text text-anchor="start" x="598" y="-119.5" font-family="Cascadia Code NF" font-size="10.00">GetName()</text>
<text text-anchor="start" x="569" y="-103.5" font-family="Cascadia Code NF" font-size="10.00">+</text>
<text text-anchor="start" x="598" y="-103.5" font-family="Cascadia Code NF" font-size="10.00">Visit()</text>
<text text-anchor="start" x="569" y="-87.5" font-family="Cascadia Code NF" font-size="10.00">+</text>
<text text-anchor="start" x="598" y="-87.5" font-family="Cascadia Code NF" font-size="10.00">IsSuperclassOf()</text>
<polygon fill="#666666" stroke="#666666" points="546,-179 546,-179 736,-179 736,-179 546,-179"/>
<polygon fill="#666666" stroke="#666666" points="546,-163 546,-163 736,-163 736,-163 546,-163"/>
<polygon fill="none" stroke="#666666" points="546,-81 546,-210 736,-210 736,-81 546,-81"/>
</a>
</g>
</g>
<!-- Node5 -->
<g id="Node000005" class="node">
<title>Node5</title>
<g id="a_Node000005"><a xlink:href="../../d8/dd8/classv8_1_1internal_1_1debug__helper__internal_1_1TqWasmArray.html" target="_top" xlink:title=" ">
<polygon fill="white" stroke="none" points="959,-308 775,-308 775,-147 959,-147 959,-308"/>
<text text-anchor="start" x="780" y="-294.5" font-family="Cascadia Code NF" font-size="10.00">v8::internal::debug</text>
<text text-anchor="start" x="780" y="-281.75" font-family="Cascadia Code NF" font-size="10.00">_helper_internal::TqWasmArray</text>
<text text-anchor="start" x="864" y="-265.5" font-family="Cascadia Code NF" font-size="10.00"> </text>
<text text-anchor="start" x="793.5" y="-249.5" font-family="Cascadia Code NF" font-size="10.00">+</text>
<text text-anchor="start" x="818" y="-249.5" font-family="Cascadia Code NF" font-size="10.00">TqWasmArray()</text>
<text text-anchor="start" x="793.5" y="-233.5" font-family="Cascadia Code NF" font-size="10.00">+</text>
<text text-anchor="start" x="818" y="-233.5" font-family="Cascadia Code NF" font-size="10.00">GetProperties()</text>
<text text-anchor="start" x="793.5" y="-217.5" font-family="Cascadia Code NF" font-size="10.00">+</text>
<text text-anchor="start" x="818" y="-217.5" font-family="Cascadia Code NF" font-size="10.00">GetName()</text>
<text text-anchor="start" x="793.5" y="-201.5" font-family="Cascadia Code NF" font-size="10.00">+</text>
<text text-anchor="start" x="818" y="-201.5" font-family="Cascadia Code NF" font-size="10.00">Visit()</text>
<text text-anchor="start" x="793.5" y="-185.5" font-family="Cascadia Code NF" font-size="10.00">+</text>
<text text-anchor="start" x="818" y="-185.5" font-family="Cascadia Code NF" font-size="10.00">IsSuperclassOf()</text>
<text text-anchor="start" x="793.5" y="-169.5" font-family="Cascadia Code NF" font-size="10.00">+</text>
<text text-anchor="start" x="818" y="-169.5" font-family="Cascadia Code NF" font-size="10.00">GetLengthAddress()</text>
<text text-anchor="start" x="793.5" y="-153.5" font-family="Cascadia Code NF" font-size="10.00">+</text>
<text text-anchor="start" x="818" y="-153.5" font-family="Cascadia Code NF" font-size="10.00">GetLengthValue()</text>
<polygon fill="#bfbfbf" stroke="#bfbfbf" points="775,-277 775,-277 959,-277 959,-277 775,-277"/>
<polygon fill="#bfbfbf" stroke="#bfbfbf" points="775,-261 775,-261 959,-261 959,-261 775,-261"/>
<polygon fill="none" stroke="#bfbfbf" points="775,-147 775,-308 959,-308 959,-147 775,-147"/>
</a>
</g>
</g>
<!-- Node1&#45;&gt;Node5 -->
<g id="edge4_Node000001_Node000005" class="edge">
<title>Node1&#45;&gt;Node5</title>
<g id="a_edge4_Node000001_Node000005"><a xlink:title=" ">
<path fill="none" stroke="#63b8ff" d="M746.48,-183.75C756.07,-187.26 765.73,-190.8 775.19,-194.26"/>
<polygon fill="none" stroke="#63b8ff" points="747.71,-180.47 737.12,-180.32 745.31,-187.04 747.71,-180.47"/>
</a>
</g>
</g>
<!-- Node6 -->
<g id="Node000006" class="node">
<title>Node6</title>
<g id="a_Node000006"><a xlink:href="../../d6/d43/classv8_1_1internal_1_1debug__helper__internal_1_1TqWasmStruct.html" target="_top" xlink:title=" ">
<polygon fill="white" stroke="none" points="962,-129 772,-129 772,0 962,0 962,-129"/>
<text text-anchor="start" x="777" y="-115.5" font-family="Cascadia Code NF" font-size="10.00">v8::internal::debug</text>
<text text-anchor="start" x="777" y="-102.75" font-family="Cascadia Code NF" font-size="10.00">_helper_internal::TqWasmStruct</text>
<text text-anchor="start" x="864" y="-86.5" font-family="Cascadia Code NF" font-size="10.00"> </text>
<text text-anchor="start" x="795" y="-70.5" font-family="Cascadia Code NF" font-size="10.00">+</text>
<text text-anchor="start" x="824" y="-70.5" font-family="Cascadia Code NF" font-size="10.00">TqWasmStruct()</text>
<text text-anchor="start" x="795" y="-54.5" font-family="Cascadia Code NF" font-size="10.00">+</text>
<text text-anchor="start" x="824" y="-54.5" font-family="Cascadia Code NF" font-size="10.00">GetProperties()</text>
<text text-anchor="start" x="795" y="-38.5" font-family="Cascadia Code NF" font-size="10.00">+</text>
<text text-anchor="start" x="824" y="-38.5" font-family="Cascadia Code NF" font-size="10.00">GetName()</text>
<text text-anchor="start" x="795" y="-22.5" font-family="Cascadia Code NF" font-size="10.00">+</text>
<text text-anchor="start" x="824" y="-22.5" font-family="Cascadia Code NF" font-size="10.00">Visit()</text>
<text text-anchor="start" x="795" y="-6.5" font-family="Cascadia Code NF" font-size="10.00">+</text>
<text text-anchor="start" x="824" y="-6.5" font-family="Cascadia Code NF" font-size="10.00">IsSuperclassOf()</text>
<polygon fill="#bfbfbf" stroke="#bfbfbf" points="772,-98 772,-98 962,-98 962,-98 772,-98"/>
<polygon fill="#bfbfbf" stroke="#bfbfbf" points="772,-82 772,-82 962,-82 962,-82 772,-82"/>
<polygon fill="none" stroke="#bfbfbf" points="772,0 772,-129 962,-129 962,0 772,0"/>
</a>
</g>
</g>
<!-- Node1&#45;&gt;Node6 -->
<g id="edge5_Node000001_Node000006" class="edge">
<title>Node1&#45;&gt;Node6</title>
<g id="a_edge5_Node000001_Node000006"><a xlink:title=" ">
<path fill="none" stroke="#63b8ff" d="M746.26,-107.8C754.95,-104.66 763.71,-101.49 772.32,-98.38"/>
<polygon fill="none" stroke="#63b8ff" points="745.34,-104.41 737.12,-111.1 747.72,-110.99 745.34,-104.41"/>
</a>
</g>
</g>
<!-- Node2 -->
<g id="Node000002" class="node">
<title>Node2</title>
<g id="a_Node000002"><a xlink:href="../../df/d7b/classv8_1_1internal_1_1debug__helper__internal_1_1TqJSReceiver.html" target="_top" xlink:title=" ">
<polygon fill="white" stroke="none" points="510,-226 320,-226 320,-65 510,-65 510,-226"/>
<text text-anchor="start" x="325" y="-212.5" font-family="Cascadia Code NF" font-size="10.00">v8::internal::debug</text>
<text text-anchor="start" x="325" y="-199.75" font-family="Cascadia Code NF" font-size="10.00">_helper_internal::TqJSReceiver</text>
<text text-anchor="start" x="412" y="-183.5" font-family="Cascadia Code NF" font-size="10.00"> </text>
<text text-anchor="start" x="325" y="-167.5" font-family="Cascadia Code NF" font-size="10.00">+</text>
<text text-anchor="start" x="336" y="-167.5" font-family="Cascadia Code NF" font-size="10.00">TqJSReceiver()</text>
<text text-anchor="start" x="325" y="-151.5" font-family="Cascadia Code NF" font-size="10.00">+</text>
<text text-anchor="start" x="336" y="-151.5" font-family="Cascadia Code NF" font-size="10.00">GetProperties()</text>
<text text-anchor="start" x="325" y="-135.5" font-family="Cascadia Code NF" font-size="10.00">+</text>
<text text-anchor="start" x="336" y="-135.5" font-family="Cascadia Code NF" font-size="10.00">GetName()</text>
<text text-anchor="start" x="325" y="-119.5" font-family="Cascadia Code NF" font-size="10.00">+</text>
<text text-anchor="start" x="336" y="-119.5" font-family="Cascadia Code NF" font-size="10.00">Visit()</text>
<text text-anchor="start" x="325" y="-103.5" font-family="Cascadia Code NF" font-size="10.00">+</text>
<text text-anchor="start" x="336" y="-103.5" font-family="Cascadia Code NF" font-size="10.00">IsSuperclassOf()</text>
<text text-anchor="start" x="325" y="-87.5" font-family="Cascadia Code NF" font-size="10.00">+</text>
<text text-anchor="start" x="336" y="-87.5" font-family="Cascadia Code NF" font-size="10.00">GetPropertiesOrHashAddress()</text>
<text text-anchor="start" x="325" y="-71.5" font-family="Cascadia Code NF" font-size="10.00">+</text>
<text text-anchor="start" x="336" y="-71.5" font-family="Cascadia Code NF" font-size="10.00">GetPropertiesOrHashValue()</text>
<polygon fill="#bfbfbf" stroke="#bfbfbf" points="320,-195 320,-195 510,-195 510,-195 320,-195"/>
<polygon fill="#bfbfbf" stroke="#bfbfbf" points="320,-179 320,-179 510,-179 510,-179 320,-179"/>
<polygon fill="none" stroke="#bfbfbf" points="320,-65 320,-226 510,-226 510,-65 320,-65"/>
</a>
</g>
</g>
<!-- Node2&#45;&gt;Node1 -->
<g id="edge1_Node000001_Node000002" class="edge">
<title>Node2&#45;&gt;Node1</title>
<g id="a_edge1_Node000001_Node000002"><a xlink:title=" ">
<path fill="none" stroke="#63b8ff" d="M521.12,-145.5C529.53,-145.5 537.99,-145.5 546.32,-145.5"/>
<polygon fill="none" stroke="#63b8ff" points="521.21,-142 511.21,-145.5 521.21,-149 521.21,-142"/>
</a>
</g>
</g>
<!-- Node3 -->
<g id="Node000003" class="node">
<title>Node3</title>
<g id="a_Node000003"><a xlink:href="../../db/deb/classv8_1_1internal_1_1debug__helper__internal_1_1TqHeapObject.html" target="_top" xlink:title=" ">
<polygon fill="white" stroke="none" points="284,-226 94,-226 94,-65 284,-65 284,-226"/>
<text text-anchor="start" x="99" y="-212.5" font-family="Cascadia Code NF" font-size="10.00">v8::internal::debug</text>
<text text-anchor="start" x="99" y="-199.75" font-family="Cascadia Code NF" font-size="10.00">_helper_internal::TqHeapObject</text>
<text text-anchor="start" x="186" y="-183.5" font-family="Cascadia Code NF" font-size="10.00"> </text>
<text text-anchor="start" x="117" y="-167.5" font-family="Cascadia Code NF" font-size="10.00">+</text>
<text text-anchor="start" x="146" y="-167.5" font-family="Cascadia Code NF" font-size="10.00">TqHeapObject()</text>
<text text-anchor="start" x="117" y="-151.5" font-family="Cascadia Code NF" font-size="10.00">+</text>
<text text-anchor="start" x="146" y="-151.5" font-family="Cascadia Code NF" font-size="10.00">GetProperties()</text>
<text text-anchor="start" x="117" y="-135.5" font-family="Cascadia Code NF" font-size="10.00">+</text>
<text text-anchor="start" x="146" y="-135.5" font-family="Cascadia Code NF" font-size="10.00">GetName()</text>
<text text-anchor="start" x="117" y="-119.5" font-family="Cascadia Code NF" font-size="10.00">+</text>
<text text-anchor="start" x="146" y="-119.5" font-family="Cascadia Code NF" font-size="10.00">Visit()</text>
<text text-anchor="start" x="117" y="-103.5" font-family="Cascadia Code NF" font-size="10.00">+</text>
<text text-anchor="start" x="146" y="-103.5" font-family="Cascadia Code NF" font-size="10.00">IsSuperclassOf()</text>
<text text-anchor="start" x="117" y="-87.5" font-family="Cascadia Code NF" font-size="10.00">+</text>
<text text-anchor="start" x="146" y="-87.5" font-family="Cascadia Code NF" font-size="10.00">GetMapAddress()</text>
<text text-anchor="start" x="117" y="-71.5" font-family="Cascadia Code NF" font-size="10.00">+</text>
<text text-anchor="start" x="146" y="-71.5" font-family="Cascadia Code NF" font-size="10.00">GetMapValue()</text>
<polygon fill="#bfbfbf" stroke="#bfbfbf" points="94,-195 94,-195 284,-195 284,-195 94,-195"/>
<polygon fill="#bfbfbf" stroke="#bfbfbf" points="94,-179 94,-179 284,-179 284,-179 94,-179"/>
<polygon fill="none" stroke="#bfbfbf" points="94,-65 94,-226 284,-226 284,-65 94,-65"/>
</a>
</g>
</g>
<!-- Node3&#45;&gt;Node2 -->
<g id="edge2_Node000002_Node000003" class="edge">
<title>Node3&#45;&gt;Node2</title>
<g id="a_edge2_Node000002_Node000003"><a xlink:title=" ">
<path fill="none" stroke="#63b8ff" d="M295.12,-145.5C303.53,-145.5 311.99,-145.5 320.32,-145.5"/>
<polygon fill="none" stroke="#63b8ff" points="295.21,-142 285.21,-145.5 295.21,-149 295.21,-142"/>
</a>
</g>
</g>
<!-- Node4 -->
<g id="Node000004" class="node">
<title>Node4</title>
<g id="a_Node000004"><a xlink:href="../../dd/d42/classTqObject.html" target="_top" xlink:title=" ">
<polygon fill="white" stroke="none" points="58,-171.5 0,-171.5 0,-119.5 58,-119.5 58,-171.5"/>
<text text-anchor="start" x="5" y="-158" font-family="Cascadia Code NF" font-size="10.00">TqObject</text>
<text text-anchor="start" x="26" y="-142" font-family="Cascadia Code NF" font-size="10.00"> </text>
<text text-anchor="start" x="26" y="-126" font-family="Cascadia Code NF" font-size="10.00"> </text>
<polygon fill="#bfbfbf" stroke="#bfbfbf" points="0,-153.5 0,-153.5 58,-153.5 58,-153.5 0,-153.5"/>
<polygon fill="#bfbfbf" stroke="#bfbfbf" points="0,-137.5 0,-137.5 58,-137.5 58,-137.5 0,-137.5"/>
<polygon fill="none" stroke="#bfbfbf" points="0,-119.5 0,-171.5 58,-171.5 58,-119.5 0,-119.5"/>
</a>
</g>
</g>
<!-- Node4&#45;&gt;Node3 -->
<g id="edge3_Node000003_Node000004" class="edge">
<title>Node4&#45;&gt;Node3</title>
<g id="a_edge3_Node000003_Node000004"><a xlink:title=" ">
<path fill="none" stroke="#63b8ff" d="M69.34,-145.5C77.03,-145.5 85.39,-145.5 94,-145.5"/>
<polygon fill="none" stroke="#63b8ff" points="69.4,-142 59.4,-145.5 69.4,-149 69.4,-142"/>
</a>
</g>
</g>
</g>
</svg>
