<?xml version="1.0" encoding="UTF-8" standalone="no"?>
<!DOCTYPE svg PUBLIC "-//W3C//DTD SVG 1.1//EN"
 "http://www.w3.org/Graphics/SVG/1.1/DTD/svg11.dtd">
<!-- Generated by graphviz version 11.0.0 (20240428.1522)
 -->
<!-- Title: v8::internal::maglev::CheckMapsWithMigration Pages: 1 -->
<svg width="944pt" height="805pt"
 viewBox="0.00 0.00 944.00 804.50" xmlns="http://www.w3.org/2000/svg" xmlns:xlink="http://www.w3.org/1999/xlink">
<g id="graph0" class="graph" transform="scale(1 1) rotate(0) translate(4 800.5)">
<title>v8::internal::maglev::CheckMapsWithMigration</title>
<!-- Node1 -->
<g id="Node000001" class="node">
<title>Node1</title>
<g id="a_Node000001"><a xlink:title=" ">
<polygon fill="#999999" stroke="none" points="936,-270.5 744,-270.5 744,-93.5 936,-93.5 936,-270.5"/>
<text text-anchor="start" x="768" y="-257" font-family="Cascadia Code NF" font-size="10.00">v8::internal::maglev</text>
<text text-anchor="start" x="768" y="-244.25" font-family="Cascadia Code NF" font-size="10.00">::CheckMapsWithMigration</text>
<text text-anchor="start" x="837" y="-228" font-family="Cascadia Code NF" font-size="10.00"> </text>
<text text-anchor="start" x="748" y="-212" font-family="Cascadia Code NF" font-size="10.00">+</text>
<text text-anchor="start" x="758" y="-212" font-family="Cascadia Code NF" font-size="10.00">CheckMapsWithMigration()</text>
<text text-anchor="start" x="748" y="-196" font-family="Cascadia Code NF" font-size="10.00">+</text>
<text text-anchor="start" x="758" y="-196" font-family="Cascadia Code NF" font-size="10.00">maps()</text>
<text text-anchor="start" x="748" y="-180" font-family="Cascadia Code NF" font-size="10.00">+</text>
<text text-anchor="start" x="758" y="-180" font-family="Cascadia Code NF" font-size="10.00">receiver_input()</text>
<text text-anchor="start" x="748" y="-164" font-family="Cascadia Code NF" font-size="10.00">+</text>
<text text-anchor="start" x="758" y="-164" font-family="Cascadia Code NF" font-size="10.00">check_type()</text>
<text text-anchor="start" x="748" y="-148" font-family="Cascadia Code NF" font-size="10.00">+</text>
<text text-anchor="start" x="758" y="-148" font-family="Cascadia Code NF" font-size="10.00">MaxCallStackArgs()</text>
<text text-anchor="start" x="748" y="-132" font-family="Cascadia Code NF" font-size="10.00">+</text>
<text text-anchor="start" x="758" y="-132" font-family="Cascadia Code NF" font-size="10.00">SetValueLocationConstraints()</text>
<text text-anchor="start" x="748" y="-116" font-family="Cascadia Code NF" font-size="10.00">+</text>
<text text-anchor="start" x="758" y="-116" font-family="Cascadia Code NF" font-size="10.00">GenerateCode()</text>
<text text-anchor="start" x="748" y="-100" font-family="Cascadia Code NF" font-size="10.00">+</text>
<text text-anchor="start" x="758" y="-100" font-family="Cascadia Code NF" font-size="10.00">PrintParams()</text>
<polygon fill="#666666" stroke="#666666" points="744,-239.5 744,-239.5 936,-239.5 936,-239.5 744,-239.5"/>
<polygon fill="#666666" stroke="#666666" points="744,-223.5 744,-223.5 936,-223.5 936,-223.5 744,-223.5"/>
<polygon fill="none" stroke="#666666" points="744,-93.5 744,-270.5 936,-270.5 936,-93.5 744,-93.5"/>
</a>
</g>
</g>
<!-- Node2 -->
<g id="Node000002" class="node">
<title>Node2</title>
<g id="a_Node000002"><a xlink:href="$df/d36/classv8_1_1internal_1_1maglev_1_1FixedInputNodeTMixin.html" xlink:title=" ">
<polygon fill="white" stroke="none" points="612,-714.5 452,-714.5 452,-585.5 612,-585.5 612,-714.5"/>
<text text-anchor="start" x="457" y="-701" font-family="Cascadia Code NF" font-size="10.00">FixedInputNodeT&lt; 1,</text>
<text text-anchor="start" x="457" y="-688.25" font-family="Cascadia Code NF" font-size="10.00"> CheckMapsWithMigration &gt;</text>
<text text-anchor="start" x="529" y="-672" font-family="Cascadia Code NF" font-size="10.00"> </text>
<text text-anchor="start" x="458.5" y="-656" font-family="Cascadia Code NF" font-size="10.00">+</text>
<text text-anchor="start" x="471" y="-656" font-family="Cascadia Code NF" font-size="10.00">has_inputs()</text>
<text text-anchor="start" x="458.5" y="-640" font-family="Cascadia Code NF" font-size="10.00">+</text>
<text text-anchor="start" x="471" y="-640" font-family="Cascadia Code NF" font-size="10.00">input_count()</text>
<text text-anchor="start" x="458.5" y="-624" font-family="Cascadia Code NF" font-size="10.00">+</text>
<text text-anchor="start" x="471" y="-624" font-family="Cascadia Code NF" font-size="10.00">end()</text>
<text text-anchor="start" x="458.5" y="-608" font-family="Cascadia Code NF" font-size="10.00">+</text>
<text text-anchor="start" x="471" y="-608" font-family="Cascadia Code NF" font-size="10.00">VerifyInputs()</text>
<text text-anchor="start" x="458.5" y="-592" font-family="Cascadia Code NF" font-size="10.00">#</text>
<text text-anchor="start" x="471" y="-592" font-family="Cascadia Code NF" font-size="10.00">FixedInputNodeTMixin()</text>
<polygon fill="#bfbfbf" stroke="#bfbfbf" points="452,-683.5 452,-683.5 612,-683.5 612,-683.5 452,-683.5"/>
<polygon fill="#bfbfbf" stroke="#bfbfbf" points="452,-667.5 452,-667.5 612,-667.5 612,-667.5 452,-667.5"/>
<polygon fill="none" stroke="#bfbfbf" points="452,-585.5 452,-714.5 612,-714.5 612,-585.5 452,-585.5"/>
</a>
</g>
</g>
<!-- Node2&#45;&gt;Node1 -->
<g id="edge1_Node000001_Node000002" class="edge">
<title>Node2&#45;&gt;Node1</title>
<g id="a_edge1_Node000001_Node000002"><a xlink:title=" ">
<path fill="none" stroke="#63b8ff" d="M611.84,-576.69C693.12,-472.95 758.2,-351.39 797.95,-270.37"/>
<polygon fill="none" stroke="#63b8ff" points="609.1,-574.51 605.63,-584.53 614.58,-578.86 609.1,-574.51"/>
</a>
</g>
</g>
<!-- Node3 -->
<g id="Node000003" class="node">
<title>Node3</title>
<g id="a_Node000003"><a xlink:href="$dc/d85/classv8_1_1internal_1_1maglev_1_1NodeTMixin.html" xlink:title=" ">
<polygon fill="white" stroke="none" points="326,-796.5 142,-796.5 142,-667.5 326,-667.5 326,-796.5"/>
<text text-anchor="start" x="147" y="-783" font-family="Cascadia Code NF" font-size="10.00">v8::internal::maglev</text>
<text text-anchor="start" x="147" y="-770.25" font-family="Cascadia Code NF" font-size="10.00">::NodeTMixin&lt; Base, Derived &gt;</text>
<text text-anchor="start" x="231" y="-754" font-family="Cascadia Code NF" font-size="10.00"> </text>
<text text-anchor="start" x="169.5" y="-738" font-family="Cascadia Code NF" font-size="10.00">+</text>
<text text-anchor="start" x="203" y="-738" font-family="Cascadia Code NF" font-size="10.00">opcode()</text>
<text text-anchor="start" x="169.5" y="-722" font-family="Cascadia Code NF" font-size="10.00">+</text>
<text text-anchor="start" x="203" y="-722" font-family="Cascadia Code NF" font-size="10.00">properties()</text>
<text text-anchor="start" x="169.5" y="-706" font-family="Cascadia Code NF" font-size="10.00">+</text>
<text text-anchor="start" x="203" y="-706" font-family="Cascadia Code NF" font-size="10.00">New()</text>
<text text-anchor="start" x="169.5" y="-690" font-family="Cascadia Code NF" font-size="10.00">+</text>
<text text-anchor="start" x="203" y="-690" font-family="Cascadia Code NF" font-size="10.00">New()</text>
<text text-anchor="start" x="169.5" y="-674" font-family="Cascadia Code NF" font-size="10.00">#</text>
<text text-anchor="start" x="203" y="-674" font-family="Cascadia Code NF" font-size="10.00">NodeTMixin()</text>
<polygon fill="#bfbfbf" stroke="#bfbfbf" points="142,-765.5 142,-765.5 326,-765.5 326,-765.5 142,-765.5"/>
<polygon fill="#bfbfbf" stroke="#bfbfbf" points="142,-749.5 142,-749.5 326,-749.5 326,-749.5 142,-749.5"/>
<polygon fill="none" stroke="#bfbfbf" points="142,-667.5 142,-796.5 326,-796.5 326,-667.5 142,-667.5"/>
</a>
</g>
</g>
<!-- Node3&#45;&gt;Node2 -->
<g id="edge2_Node000002_Node000003" class="edge">
<title>Node3&#45;&gt;Node2</title>
<g id="a_edge2_Node000002_Node000003"><a xlink:title=" ">
<path fill="none" stroke="#63b8ff" d="M336.88,-703.78C374.68,-693.31 416.94,-681.6 452.36,-671.79"/>
<polygon fill="none" stroke="#63b8ff" points="335.98,-700.39 327.28,-706.44 337.85,-707.14 335.98,-700.39"/>
</a>
</g>
</g>
<!-- Node4 -->
<g id="Node000004" class="node">
<title>Node4</title>
<g id="a_Node000004"><a xlink:title=" ">
<polygon fill="white" stroke="none" points="34,-758 0,-758 0,-706 34,-706 34,-758"/>
<text text-anchor="start" x="5" y="-744.5" font-family="Cascadia Code NF" font-size="10.00">Base</text>
<text text-anchor="start" x="14" y="-728.5" font-family="Cascadia Code NF" font-size="10.00"> </text>
<text text-anchor="start" x="14" y="-712.5" font-family="Cascadia Code NF" font-size="10.00"> </text>
<polygon fill="#bfbfbf" stroke="#bfbfbf" points="0,-740 0,-740 34,-740 34,-740 0,-740"/>
<polygon fill="#bfbfbf" stroke="#bfbfbf" points="0,-724 0,-724 34,-724 34,-724 0,-724"/>
<polygon fill="none" stroke="#bfbfbf" points="0,-706 0,-758 34,-758 34,-706 0,-706"/>
</a>
</g>
</g>
<!-- Node4&#45;&gt;Node3 -->
<g id="edge3_Node000003_Node000004" class="edge">
<title>Node4&#45;&gt;Node3</title>
<g id="a_edge3_Node000003_Node000004"><a xlink:title=" ">
<path fill="none" stroke="#63b8ff" d="M45.04,-732C69.55,-732 107.11,-732 142.23,-732"/>
<polygon fill="none" stroke="#63b8ff" points="45.32,-728.5 35.32,-732 45.32,-735.5 45.32,-728.5"/>
</a>
</g>
</g>
<!-- Node5 -->
<g id="Node000005" class="node">
<title>Node5</title>
<g id="a_Node000005"><a xlink:href="$d3/d3f/structv8_1_1internal_1_1maglev_1_1detail_1_1YouNeedToDefineAnInputTypesArrayInYourDerivedClass.html" xlink:title=" ">
<polygon fill="white" stroke="none" points="338,-649 130,-649 130,-571 338,-571 338,-649"/>
<text text-anchor="start" x="135" y="-635.5" font-family="Cascadia Code NF" font-size="10.00">v8::internal::maglev</text>
<text text-anchor="start" x="135" y="-622.75" font-family="Cascadia Code NF" font-size="10.00">::detail::YouNeedToDefineAn</text>
<text text-anchor="start" x="135" y="-610" font-family="Cascadia Code NF" font-size="10.00">InputTypesArrayInYourDerivedClass</text>
<text text-anchor="start" x="231" y="-593.5" font-family="Cascadia Code NF" font-size="10.00"> </text>
<text text-anchor="start" x="231" y="-577.5" font-family="Cascadia Code NF" font-size="10.00"> </text>
<polygon fill="#bfbfbf" stroke="#bfbfbf" points="130,-605 130,-605 338,-605 338,-605 130,-605"/>
<polygon fill="#bfbfbf" stroke="#bfbfbf" points="130,-589 130,-589 338,-589 338,-589 130,-589"/>
<polygon fill="none" stroke="#bfbfbf" points="130,-571 130,-649 338,-649 338,-571 130,-571"/>
</a>
</g>
</g>
<!-- Node5&#45;&gt;Node2 -->
<g id="edge4_Node000002_Node000005" class="edge">
<title>Node5&#45;&gt;Node2</title>
<g id="a_edge4_Node000002_Node000005"><a xlink:title=" ">
<path fill="none" stroke="#63b8ff" d="M337.7,-623.88C370.86,-628.36 407.39,-633.3 439.68,-637.66"/>
<polygon fill="none" stroke="#63b8ff" points="439.51,-637.64 445.99,-634.48 451.4,-639.24 444.92,-642.4 439.51,-637.64"/>
</a>
</g>
<text text-anchor="middle" x="395" y="-638.25" font-family="Cascadia Code NF" font-size="10.00" fill="grey"> #kInputTypes</text>
</g>
<!-- Node6 -->
<g id="Node000006" class="node">
<title>Node6</title>
<g id="a_Node000006"><a xlink:href="$df/db9/classv8_1_1internal_1_1maglev_1_1OpProperties.html" xlink:title=" ">
<polygon fill="white" stroke="none" points="604,-567.5 460,-567.5 460,-166.5 604,-166.5 604,-567.5"/>
<text text-anchor="start" x="472" y="-554" font-family="Cascadia Code NF" font-size="10.00">v8::internal::maglev</text>
<text text-anchor="start" x="490" y="-541.25" font-family="Cascadia Code NF" font-size="10.00">::OpProperties</text>
<text text-anchor="start" x="529" y="-525" font-family="Cascadia Code NF" font-size="10.00"> </text>
<text text-anchor="start" x="464" y="-509" font-family="Cascadia Code NF" font-size="10.00">+</text>
<text text-anchor="start" x="474" y="-509" font-family="Cascadia Code NF" font-size="10.00">is_call()</text>
<text text-anchor="start" x="464" y="-493" font-family="Cascadia Code NF" font-size="10.00">+</text>
<text text-anchor="start" x="474" y="-493" font-family="Cascadia Code NF" font-size="10.00">is_any_call()</text>
<text text-anchor="start" x="464" y="-477" font-family="Cascadia Code NF" font-size="10.00">+</text>
<text text-anchor="start" x="474" y="-477" font-family="Cascadia Code NF" font-size="10.00">can_eager_deopt()</text>
<text text-anchor="start" x="464" y="-461" font-family="Cascadia Code NF" font-size="10.00">+</text>
<text text-anchor="start" x="474" y="-461" font-family="Cascadia Code NF" font-size="10.00">can_lazy_deopt()</text>
<text text-anchor="start" x="464" y="-445" font-family="Cascadia Code NF" font-size="10.00">+</text>
<text text-anchor="start" x="474" y="-445" font-family="Cascadia Code NF" font-size="10.00">is_deopt_checkpoint()</text>
<text text-anchor="start" x="464" y="-429" font-family="Cascadia Code NF" font-size="10.00">+</text>
<text text-anchor="start" x="474" y="-429" font-family="Cascadia Code NF" font-size="10.00">can_deopt()</text>
<text text-anchor="start" x="464" y="-413" font-family="Cascadia Code NF" font-size="10.00">+</text>
<text text-anchor="start" x="474" y="-413" font-family="Cascadia Code NF" font-size="10.00">can_throw()</text>
<text text-anchor="start" x="464" y="-397" font-family="Cascadia Code NF" font-size="10.00">+</text>
<text text-anchor="start" x="474" y="-397" font-family="Cascadia Code NF" font-size="10.00">can_read()</text>
<text text-anchor="start" x="464" y="-381" font-family="Cascadia Code NF" font-size="10.00">+</text>
<text text-anchor="start" x="474" y="-381" font-family="Cascadia Code NF" font-size="10.00">can_write()</text>
<text text-anchor="start" x="464" y="-365" font-family="Cascadia Code NF" font-size="10.00">+</text>
<text text-anchor="start" x="474" y="-365" font-family="Cascadia Code NF" font-size="10.00">can_allocate()</text>
<text text-anchor="start" x="474" y="-349" font-family="Cascadia Code NF" font-size="10.00">and 14 more...</text>
<text text-anchor="start" x="464" y="-333" font-family="Cascadia Code NF" font-size="10.00">+</text>
<text text-anchor="start" x="474" y="-333" font-family="Cascadia Code NF" font-size="10.00">Pure()</text>
<text text-anchor="start" x="464" y="-317" font-family="Cascadia Code NF" font-size="10.00">+</text>
<text text-anchor="start" x="474" y="-317" font-family="Cascadia Code NF" font-size="10.00">Call()</text>
<text text-anchor="start" x="464" y="-301" font-family="Cascadia Code NF" font-size="10.00">+</text>
<text text-anchor="start" x="474" y="-301" font-family="Cascadia Code NF" font-size="10.00">EagerDeopt()</text>
<text text-anchor="start" x="464" y="-285" font-family="Cascadia Code NF" font-size="10.00">+</text>
<text text-anchor="start" x="474" y="-285" font-family="Cascadia Code NF" font-size="10.00">LazyDeopt()</text>
<text text-anchor="start" x="464" y="-269" font-family="Cascadia Code NF" font-size="10.00">+</text>
<text text-anchor="start" x="474" y="-269" font-family="Cascadia Code NF" font-size="10.00">DeoptCheckpoint()</text>
<text text-anchor="start" x="464" y="-253" font-family="Cascadia Code NF" font-size="10.00">+</text>
<text text-anchor="start" x="474" y="-253" font-family="Cascadia Code NF" font-size="10.00">CanThrow()</text>
<text text-anchor="start" x="464" y="-237" font-family="Cascadia Code NF" font-size="10.00">+</text>
<text text-anchor="start" x="474" y="-237" font-family="Cascadia Code NF" font-size="10.00">CanRead()</text>
<text text-anchor="start" x="464" y="-221" font-family="Cascadia Code NF" font-size="10.00">+</text>
<text text-anchor="start" x="474" y="-221" font-family="Cascadia Code NF" font-size="10.00">CanWrite()</text>
<text text-anchor="start" x="464" y="-205" font-family="Cascadia Code NF" font-size="10.00">+</text>
<text text-anchor="start" x="474" y="-205" font-family="Cascadia Code NF" font-size="10.00">CanAllocate()</text>
<text text-anchor="start" x="464" y="-189" font-family="Cascadia Code NF" font-size="10.00">+</text>
<text text-anchor="start" x="474" y="-189" font-family="Cascadia Code NF" font-size="10.00">NotIdempotent()</text>
<text text-anchor="start" x="474" y="-173" font-family="Cascadia Code NF" font-size="10.00">and 13 more...</text>
<polygon fill="#bfbfbf" stroke="#bfbfbf" points="460,-536.5 460,-536.5 604,-536.5 604,-536.5 460,-536.5"/>
<polygon fill="#bfbfbf" stroke="#bfbfbf" points="460,-520.5 460,-520.5 604,-520.5 604,-520.5 460,-520.5"/>
<polygon fill="none" stroke="#bfbfbf" points="460,-166.5 460,-567.5 604,-567.5 604,-166.5 460,-166.5"/>
</a>
</g>
</g>
<!-- Node6&#45;&gt;Node1 -->
<g id="edge5_Node000001_Node000006" class="edge">
<title>Node6&#45;&gt;Node1</title>
<g id="a_edge5_Node000001_Node000006"><a xlink:title=" ">
<path fill="none" stroke="#63b8ff" d="M603.97,-324.09C642.3,-300.92 690.38,-271.85 733.06,-246.05"/>
<polygon fill="none" stroke="#63b8ff" points="733.03,-246.07 736.09,-239.54 743.29,-239.86 740.23,-246.39 733.03,-246.07"/>
</a>
</g>
<text text-anchor="middle" x="678" y="-310.25" font-family="Cascadia Code NF" font-size="10.00" fill="grey"> +kProperties</text>
</g>
<!-- Node7 -->
<g id="Node000007" class="node">
<title>Node7</title>
<g id="a_Node000007"><a xlink:title=" ">
<polygon fill="white" stroke="none" points="254,-393 214,-393 214,-341 254,-341 254,-393"/>
<text text-anchor="start" x="219" y="-379.5" font-family="Cascadia Code NF" font-size="10.00">const</text>
<text text-anchor="start" x="231" y="-363.5" font-family="Cascadia Code NF" font-size="10.00"> </text>
<text text-anchor="start" x="231" y="-347.5" font-family="Cascadia Code NF" font-size="10.00"> </text>
<polygon fill="#bfbfbf" stroke="#bfbfbf" points="214,-375 214,-375 254,-375 254,-375 214,-375"/>
<polygon fill="#bfbfbf" stroke="#bfbfbf" points="214,-359 214,-359 254,-359 254,-359 214,-359"/>
<polygon fill="none" stroke="#bfbfbf" points="214,-341 214,-393 254,-393 254,-341 214,-341"/>
</a>
</g>
</g>
<!-- Node7&#45;&gt;Node6 -->
<g id="edge6_Node000006_Node000007" class="edge">
<title>Node7&#45;&gt;Node6</title>
<g id="a_edge6_Node000006_Node000007"><a xlink:title=" ">
<path fill="none" stroke="#63b8ff" d="M253.97,-367C292.19,-367 380.5,-367 447.22,-367"/>
<polygon fill="none" stroke="#63b8ff" points="447.35,-367 453.35,-363 459.35,-367 453.35,-371 447.35,-367"/>
</a>
</g>
<text text-anchor="middle" x="395" y="-370.25" font-family="Cascadia Code NF" font-size="10.00" fill="grey"> +kSize</text>
</g>
<!-- Node8 -->
<g id="Node000008" class="node">
<title>Node8</title>
<g id="a_Node000008"><a xlink:href="$d1/d62/classv8_1_1internal_1_1maglev_1_1detail_1_1ArrayWrapper.html" xlink:title=" ">
<polygon fill="white" stroke="none" points="603,-148 461,-148 461,-70 603,-70 603,-148"/>
<text text-anchor="start" x="466" y="-134.5" font-family="Cascadia Code NF" font-size="10.00">v8::internal::maglev</text>
<text text-anchor="start" x="466" y="-121.75" font-family="Cascadia Code NF" font-size="10.00">::detail::ArrayWrapper</text>
<text text-anchor="start" x="508" y="-109" font-family="Cascadia Code NF" font-size="10.00">&lt; Size &gt;</text>
<text text-anchor="start" x="529" y="-92.5" font-family="Cascadia Code NF" font-size="10.00"> </text>
<text text-anchor="start" x="475" y="-76.5" font-family="Cascadia Code NF" font-size="10.00">+</text>
<text text-anchor="start" x="495" y="-76.5" font-family="Cascadia Code NF" font-size="10.00">ArrayWrapper()</text>
<polygon fill="#bfbfbf" stroke="#bfbfbf" points="461,-104 461,-104 603,-104 603,-104 461,-104"/>
<polygon fill="#bfbfbf" stroke="#bfbfbf" points="461,-88 461,-88 603,-88 603,-88 461,-88"/>
<polygon fill="none" stroke="#bfbfbf" points="461,-70 461,-148 603,-148 603,-70 461,-70"/>
</a>
</g>
</g>
<!-- Node8&#45;&gt;Node1 -->
<g id="edge7_Node000001_Node000008" class="edge">
<title>Node8&#45;&gt;Node1</title>
<g id="a_edge7_Node000001_Node000008"><a xlink:title=" ">
<path fill="none" stroke="#63b8ff" d="M602.82,-125.66C640.95,-134.75 688.98,-146.21 731.76,-156.42"/>
<polygon fill="none" stroke="#63b8ff" points="731.71,-156.4 738.47,-153.91 743.38,-159.19 736.61,-161.69 731.71,-156.4"/>
</a>
</g>
<text text-anchor="middle" x="678" y="-157.25" font-family="Cascadia Code NF" font-size="10.00" fill="grey"> +kInputTypes</text>
</g>
<!-- Node9 -->
<g id="Node000009" class="node">
<title>Node9</title>
<g id="a_Node000009"><a xlink:title=" ">
<polygon fill="white" stroke="none" points="284,-135 184,-135 184,-83 284,-83 284,-135"/>
<text text-anchor="start" x="189" y="-121.5" font-family="Cascadia Code NF" font-size="10.00">std::array&lt; T &gt;</text>
<text text-anchor="start" x="231" y="-105.5" font-family="Cascadia Code NF" font-size="10.00"> </text>
<text text-anchor="start" x="231" y="-89.5" font-family="Cascadia Code NF" font-size="10.00"> </text>
<polygon fill="#666666" stroke="#666666" points="184,-117 184,-117 284,-117 284,-117 184,-117"/>
<polygon fill="#666666" stroke="#666666" points="184,-101 184,-101 284,-101 284,-101 184,-101"/>
<polygon fill="none" stroke="#666666" points="184,-83 184,-135 284,-135 284,-83 184,-83"/>
</a>
</g>
</g>
<!-- Node9&#45;&gt;Node8 -->
<g id="edge8_Node000008_Node000009" class="edge">
<title>Node9&#45;&gt;Node8</title>
<g id="a_edge8_Node000008_Node000009"><a xlink:title=" ">
<path fill="none" stroke="#63b8ff" d="M295.34,-109C343.36,-109 410.62,-109 461,-109"/>
<polygon fill="none" stroke="#63b8ff" points="295.39,-105.5 285.39,-109 295.39,-112.5 295.39,-105.5"/>
</a>
</g>
</g>
<!-- Node10 -->
<g id="Node000010" class="node">
<title>Node10</title>
<g id="a_Node000010"><a xlink:title=" ">
<polygon fill="white" stroke="none" points="25,-135 9,-135 9,-83 25,-83 25,-135"/>
<text text-anchor="start" x="14" y="-121.5" font-family="Cascadia Code NF" font-size="10.00">T</text>
<text text-anchor="start" x="14" y="-105.5" font-family="Cascadia Code NF" font-size="10.00"> </text>
<text text-anchor="start" x="14" y="-89.5" font-family="Cascadia Code NF" font-size="10.00"> </text>
<polygon fill="#bfbfbf" stroke="#bfbfbf" points="9,-117 9,-117 25,-117 25,-117 9,-117"/>
<polygon fill="#bfbfbf" stroke="#bfbfbf" points="9,-101 9,-101 25,-101 25,-101 9,-101"/>
<polygon fill="none" stroke="#bfbfbf" points="9,-83 9,-135 25,-135 25,-83 9,-83"/>
</a>
</g>
</g>
<!-- Node10&#45;&gt;Node9 -->
<g id="edge9_Node000009_Node000010" class="edge">
<title>Node10&#45;&gt;Node9</title>
<g id="a_edge9_Node000009_Node000010"><a xlink:title=" ">
<path fill="none" stroke="#63b8ff" d="M24.67,-109C46.61,-109 118.14,-109 171.3,-109"/>
<polygon fill="none" stroke="#63b8ff" points="171.13,-109 177.13,-105 183.13,-109 177.13,-113 171.13,-109"/>
</a>
</g>
<text text-anchor="middle" x="82" y="-112.25" font-family="Cascadia Code NF" font-size="10.00" fill="grey"> +elements</text>
</g>
<!-- Node11 -->
<g id="Node000011" class="node">
<title>Node11</title>
<g id="a_Node000011"><a xlink:href="$d1/da0/classint.html" xlink:title=" ">
<polygon fill="white" stroke="none" points="546,-52 518,-52 518,0 546,0 546,-52"/>
<text text-anchor="start" x="523" y="-38.5" font-family="Cascadia Code NF" font-size="10.00">int</text>
<text text-anchor="start" x="529" y="-22.5" font-family="Cascadia Code NF" font-size="10.00"> </text>
<text text-anchor="start" x="529" y="-6.5" font-family="Cascadia Code NF" font-size="10.00"> </text>
<polygon fill="#bfbfbf" stroke="#bfbfbf" points="518,-34 518,-34 546,-34 546,-34 518,-34"/>
<polygon fill="#bfbfbf" stroke="#bfbfbf" points="518,-18 518,-18 546,-18 546,-18 518,-18"/>
<polygon fill="none" stroke="#bfbfbf" points="518,0 518,-52 546,-52 546,0 518,0"/>
</a>
</g>
</g>
<!-- Node11&#45;&gt;Node1 -->
<g id="edge10_Node000001_Node000011" class="edge">
<title>Node11&#45;&gt;Node1</title>
<g id="a_edge10_Node000001_Node000011"><a xlink:title=" ">
<path fill="none" stroke="#63b8ff" d="M545.91,-31.59C561.59,-38.41 588.83,-50.35 612,-61 662.99,-84.42 676.46,-88.9 726,-115.25 728.23,-116.43 730.47,-117.64 732.73,-118.86"/>
<polygon fill="none" stroke="#63b8ff" points="732.79,-118.9 739.97,-118.29 743.3,-124.68 736.12,-125.3 732.79,-118.9"/>
</a>
</g>
<text text-anchor="middle" x="678" y="-118.25" font-family="Cascadia Code NF" font-size="10.00" fill="grey"> +kReceiverIndex</text>
</g>
</g>
</svg>
