<?xml version="1.0" encoding="UTF-8" standalone="no"?>
<!DOCTYPE svg PUBLIC "-//W3C//DTD SVG 1.1//EN"
 "http://www.w3.org/Graphics/SVG/1.1/DTD/svg11.dtd">
<!-- Generated by graphviz version 11.0.0 (20240428.1522)
 -->
<!-- Title: v8::internal::compiler::turboshaft::OperationMatcher Pages: 1 -->
<svg width="198pt" height="233pt"
 viewBox="0.00 0.00 198.00 233.00" xmlns="http://www.w3.org/2000/svg" xmlns:xlink="http://www.w3.org/1999/xlink">
<g id="graph0" class="graph" transform="scale(1 1) rotate(0) translate(4 229)">
<title>v8::internal::compiler::turboshaft::OperationMatcher</title>
<!-- Node1 -->
<g id="Node000001" class="node">
<title>Node1</title>
<g id="a_Node000001"><a xlink:title=" ">
<polygon fill="#999999" stroke="none" points="190,-225 0,-225 0,0 190,0 190,-225"/>
<text text-anchor="start" x="5" y="-211.5" font-family="Cascadia Code NF" font-size="10.00">v8::internal::compiler</text>
<text text-anchor="start" x="5" y="-198.75" font-family="Cascadia Code NF" font-size="10.00">::turboshaft::OperationMatcher</text>
<text text-anchor="start" x="92" y="-182.5" font-family="Cascadia Code NF" font-size="10.00"> </text>
<text text-anchor="start" x="14" y="-166.5" font-family="Cascadia Code NF" font-size="10.00">+</text>
<text text-anchor="start" x="34" y="-166.5" font-family="Cascadia Code NF" font-size="10.00">OperationMatcher()</text>
<text text-anchor="start" x="14" y="-150.5" font-family="Cascadia Code NF" font-size="10.00">+</text>
<text text-anchor="start" x="34" y="-150.5" font-family="Cascadia Code NF" font-size="10.00">Is()</text>
<text text-anchor="start" x="14" y="-134.5" font-family="Cascadia Code NF" font-size="10.00">+</text>
<text text-anchor="start" x="34" y="-134.5" font-family="Cascadia Code NF" font-size="10.00">TryCast()</text>
<text text-anchor="start" x="14" y="-118.5" font-family="Cascadia Code NF" font-size="10.00">+</text>
<text text-anchor="start" x="34" y="-118.5" font-family="Cascadia Code NF" font-size="10.00">Cast()</text>
<text text-anchor="start" x="14" y="-102.5" font-family="Cascadia Code NF" font-size="10.00">+</text>
<text text-anchor="start" x="34" y="-102.5" font-family="Cascadia Code NF" font-size="10.00">Get()</text>
<text text-anchor="start" x="14" y="-86.5" font-family="Cascadia Code NF" font-size="10.00">+</text>
<text text-anchor="start" x="34" y="-86.5" font-family="Cascadia Code NF" font-size="10.00">Index()</text>
<text text-anchor="start" x="14" y="-70.5" font-family="Cascadia Code NF" font-size="10.00">+</text>
<text text-anchor="start" x="34" y="-70.5" font-family="Cascadia Code NF" font-size="10.00">MatchZero()</text>
<text text-anchor="start" x="14" y="-54.5" font-family="Cascadia Code NF" font-size="10.00">+</text>
<text text-anchor="start" x="34" y="-54.5" font-family="Cascadia Code NF" font-size="10.00">MatchIntegralZero()</text>
<text text-anchor="start" x="14" y="-38.5" font-family="Cascadia Code NF" font-size="10.00">+</text>
<text text-anchor="start" x="34" y="-38.5" font-family="Cascadia Code NF" font-size="10.00">MatchSmiZero()</text>
<text text-anchor="start" x="14" y="-22.5" font-family="Cascadia Code NF" font-size="10.00">+</text>
<text text-anchor="start" x="34" y="-22.5" font-family="Cascadia Code NF" font-size="10.00">MatchFloat32Constant()</text>
<text text-anchor="start" x="34" y="-6.5" font-family="Cascadia Code NF" font-size="10.00">and 37 more...</text>
<polygon fill="#666666" stroke="#666666" points="0,-194 0,-194 190,-194 190,-194 0,-194"/>
<polygon fill="#666666" stroke="#666666" points="0,-178 0,-178 190,-178 190,-178 0,-178"/>
<polygon fill="none" stroke="#666666" points="0,0 0,-225 190,-225 190,0 0,0"/>
</a>
</g>
</g>
</g>
</svg>
