<?xml version="1.0" encoding="UTF-8" standalone="no"?>
<!DOCTYPE svg PUBLIC "-//W3C//DTD SVG 1.1//EN"
 "http://www.w3.org/Graphics/SVG/1.1/DTD/svg11.dtd">
<!-- Generated by graphviz version 11.0.0 (20240428.1522)
 -->
<!-- Title: v8::internal::torque::VisitResultVector Pages: 1 -->
<svg width="394pt" height="105pt"
 viewBox="0.00 0.00 394.00 105.00" xmlns="http://www.w3.org/2000/svg" xmlns:xlink="http://www.w3.org/1999/xlink">
<g id="graph0" class="graph" transform="scale(1 1) rotate(0) translate(4 101)">
<title>v8::internal::torque::VisitResultVector</title>
<!-- Node1 -->
<g id="Node000001" class="node">
<title>Node1</title>
<g id="a_Node000001"><a xlink:title=" ">
<polygon fill="#999999" stroke="none" points="386,-97 254,-97 254,0 386,0 386,-97"/>
<text text-anchor="start" x="260" y="-83.5" font-family="Cascadia Code NF" font-size="10.00">v8::internal::torque</text>
<text text-anchor="start" x="263" y="-70.75" font-family="Cascadia Code NF" font-size="10.00">::VisitResultVector</text>
<text text-anchor="start" x="317" y="-54.5" font-family="Cascadia Code NF" font-size="10.00"> </text>
<text text-anchor="start" x="258" y="-38.5" font-family="Cascadia Code NF" font-size="10.00">+</text>
<text text-anchor="start" x="268" y="-38.5" font-family="Cascadia Code NF" font-size="10.00">VisitResultVector()</text>
<text text-anchor="start" x="258" y="-22.5" font-family="Cascadia Code NF" font-size="10.00">+</text>
<text text-anchor="start" x="268" y="-22.5" font-family="Cascadia Code NF" font-size="10.00">VisitResultVector()</text>
<text text-anchor="start" x="258" y="-6.5" font-family="Cascadia Code NF" font-size="10.00">+</text>
<text text-anchor="start" x="268" y="-6.5" font-family="Cascadia Code NF" font-size="10.00">ComputeTypeVector()</text>
<polygon fill="#666666" stroke="#666666" points="254,-66 254,-66 386,-66 386,-66 254,-66"/>
<polygon fill="#666666" stroke="#666666" points="254,-50 254,-50 386,-50 386,-50 254,-50"/>
<polygon fill="none" stroke="#666666" points="254,0 254,-97 386,-97 386,0 254,0"/>
</a>
</g>
</g>
<!-- Node2 -->
<g id="Node000002" class="node">
<title>Node2</title>
<g id="a_Node000002"><a xlink:title=" ">
<polygon fill="white" stroke="none" points="218,-74.5 112,-74.5 112,-22.5 218,-22.5 218,-74.5"/>
<text text-anchor="start" x="117" y="-61" font-family="Cascadia Code NF" font-size="10.00">std::vector&lt; T &gt;</text>
<text text-anchor="start" x="162" y="-45" font-family="Cascadia Code NF" font-size="10.00"> </text>
<text text-anchor="start" x="162" y="-29" font-family="Cascadia Code NF" font-size="10.00"> </text>
<polygon fill="#666666" stroke="#666666" points="112,-56.5 112,-56.5 218,-56.5 218,-56.5 112,-56.5"/>
<polygon fill="#666666" stroke="#666666" points="112,-40.5 112,-40.5 218,-40.5 218,-40.5 112,-40.5"/>
<polygon fill="none" stroke="#666666" points="112,-22.5 112,-74.5 218,-74.5 218,-22.5 112,-22.5"/>
</a>
</g>
</g>
<!-- Node2&#45;&gt;Node1 -->
<g id="edge1_Node000001_Node000002" class="edge">
<title>Node2&#45;&gt;Node1</title>
<g id="a_edge1_Node000001_Node000002"><a xlink:title=" ">
<path fill="none" stroke="#63b8ff" d="M229.27,-48.5C237.51,-48.5 245.97,-48.5 254.23,-48.5"/>
<polygon fill="none" stroke="#63b8ff" points="229.31,-45 219.31,-48.5 229.31,-52 229.31,-45"/>
</a>
</g>
</g>
<!-- Node3 -->
<g id="Node000003" class="node">
<title>Node3</title>
<g id="a_Node000003"><a xlink:title=" ">
<polygon fill="white" stroke="none" points="16,-74.5 0,-74.5 0,-22.5 16,-22.5 16,-74.5"/>
<text text-anchor="start" x="5" y="-61" font-family="Cascadia Code NF" font-size="10.00">T</text>
<text text-anchor="start" x="5" y="-45" font-family="Cascadia Code NF" font-size="10.00"> </text>
<text text-anchor="start" x="5" y="-29" font-family="Cascadia Code NF" font-size="10.00"> </text>
<polygon fill="#bfbfbf" stroke="#bfbfbf" points="0,-56.5 0,-56.5 16,-56.5 16,-56.5 0,-56.5"/>
<polygon fill="#bfbfbf" stroke="#bfbfbf" points="0,-40.5 0,-40.5 16,-40.5 16,-40.5 0,-40.5"/>
<polygon fill="none" stroke="#bfbfbf" points="0,-22.5 0,-74.5 16,-74.5 16,-22.5 0,-22.5"/>
</a>
</g>
</g>
<!-- Node3&#45;&gt;Node2 -->
<g id="edge2_Node000002_Node000003" class="edge">
<title>Node3&#45;&gt;Node2</title>
<g id="a_edge2_Node000002_Node000003"><a xlink:title=" ">
<path fill="none" stroke="#63b8ff" d="M15.66,-48.5C30.24,-48.5 66.31,-48.5 99.23,-48.5"/>
<polygon fill="none" stroke="#63b8ff" points="99.22,-48.5 105.22,-44.5 111.22,-48.5 105.22,-52.5 99.22,-48.5"/>
</a>
</g>
<text text-anchor="middle" x="64" y="-51.75" font-family="Cascadia Code NF" font-size="10.00" fill="grey"> +elements</text>
</g>
</g>
</svg>
