<?xml version="1.0" encoding="UTF-8" standalone="no"?>
<!DOCTYPE svg PUBLIC "-//W3C//DTD SVG 1.1//EN"
 "http://www.w3.org/Graphics/SVG/1.1/DTD/svg11.dtd">
<!-- Generated by graphviz version 11.0.0 (20240428.1522)
 -->
<!-- Title: cppgc::CustomSpace&lt; ConcreteCustomSpace &gt; Pages: 1 -->
<svg width="336pt" height="92pt"
 viewBox="0.00 0.00 336.00 92.00" xmlns="http://www.w3.org/2000/svg" xmlns:xlink="http://www.w3.org/1999/xlink">
<g id="graph0" class="graph" transform="scale(1 1) rotate(0) translate(4 88)">
<title>cppgc::CustomSpace&lt; ConcreteCustomSpace &gt;</title>
<!-- Node1 -->
<g id="Node000001" class="node">
<title>Node1</title>
<g id="a_Node000001"><a xlink:title=" ">
<polygon fill="#999999" stroke="none" points="328,-82.5 180,-82.5 180,-1.5 328,-1.5 328,-82.5"/>
<text text-anchor="start" x="185" y="-69" font-family="Cascadia Code NF" font-size="10.00">cppgc::CustomSpace</text>
<text text-anchor="start" x="185" y="-56.25" font-family="Cascadia Code NF" font-size="10.00">&lt; ConcreteCustomSpace &gt;</text>
<text text-anchor="start" x="185" y="-40" font-family="Cascadia Code NF" font-size="10.00">+</text>
<text text-anchor="start" x="196" y="-40" font-family="Cascadia Code NF" font-size="10.00">kSupportsCompaction</text>
<text text-anchor="start" x="185" y="-24" font-family="Cascadia Code NF" font-size="10.00">+</text>
<text text-anchor="start" x="196" y="-24" font-family="Cascadia Code NF" font-size="10.00">GetCustomSpaceIndex()</text>
<text text-anchor="start" x="185" y="-8" font-family="Cascadia Code NF" font-size="10.00">+</text>
<text text-anchor="start" x="196" y="-8" font-family="Cascadia Code NF" font-size="10.00">IsCompactable()</text>
<polygon fill="#666666" stroke="#666666" points="180,-51.5 180,-51.5 328,-51.5 328,-51.5 180,-51.5"/>
<polygon fill="#666666" stroke="#666666" points="180,-35.5 180,-35.5 194,-35.5 194,-35.5 180,-35.5"/>
<polygon fill="#666666" stroke="#666666" points="194,-35.5 194,-35.5 328,-35.5 328,-35.5 194,-35.5"/>
<polygon fill="none" stroke="#666666" points="180,-1.5 180,-82.5 328,-82.5 328,-1.5 180,-1.5"/>
</a>
</g>
</g>
<!-- Node2 -->
<g id="Node000002" class="node">
<title>Node2</title>
<g id="a_Node000002"><a xlink:href="$da/d8d/classcppgc_1_1CustomSpaceBase.html" xlink:title=" ">
<polygon fill="white" stroke="none" points="144,-84 0,-84 0,0 144,0 144,-84"/>
<text text-anchor="start" x="6" y="-70.5" font-family="Cascadia Code NF" font-size="10.00">cppgc::CustomSpaceBase</text>
<text text-anchor="start" x="69" y="-54.5" font-family="Cascadia Code NF" font-size="10.00"> </text>
<text text-anchor="start" x="4" y="-38.5" font-family="Cascadia Code NF" font-size="10.00">+</text>
<text text-anchor="start" x="14" y="-38.5" font-family="Cascadia Code NF" font-size="10.00">~CustomSpaceBase()</text>
<text text-anchor="start" x="4" y="-22.5" font-family="Cascadia Code NF" font-size="10.00">+</text>
<text text-anchor="start" x="14" y="-22.5" font-family="Cascadia Code NF" font-size="10.00">GetCustomSpaceIndex()</text>
<text text-anchor="start" x="4" y="-6.5" font-family="Cascadia Code NF" font-size="10.00">+</text>
<text text-anchor="start" x="14" y="-6.5" font-family="Cascadia Code NF" font-size="10.00">IsCompactable()</text>
<polygon fill="#666666" stroke="#666666" points="0,-66 0,-66 144,-66 144,-66 0,-66"/>
<polygon fill="#666666" stroke="#666666" points="0,-50 0,-50 144,-50 144,-50 0,-50"/>
<polygon fill="none" stroke="#666666" points="0,0 0,-84 144,-84 144,0 0,0"/>
</a>
</g>
</g>
<!-- Node2&#45;&gt;Node1 -->
<g id="edge1_Node000001_Node000002" class="edge">
<title>Node2&#45;&gt;Node1</title>
<g id="a_edge1_Node000001_Node000002"><a xlink:title=" ">
<path fill="none" stroke="#63b8ff" d="M155.15,-42C163.48,-42 171.89,-42 180.11,-42"/>
<polygon fill="none" stroke="#63b8ff" points="155.4,-38.5 145.4,-42 155.4,-45.5 155.4,-38.5"/>
</a>
</g>
</g>
</g>
</svg>
