<?xml version="1.0" encoding="UTF-8" standalone="no"?>
<!DOCTYPE svg PUBLIC "-//W3C//DTD SVG 1.1//EN"
 "http://www.w3.org/Graphics/SVG/1.1/DTD/svg11.dtd">
<!-- Generated by graphviz version 11.0.0 (20240428.1522)
 -->
<!-- Title: cppgc::internal::NormalPage Pages: 1 -->
<svg width="812pt" height="332pt"
 viewBox="0.00 0.00 812.00 332.00" xmlns="http://www.w3.org/2000/svg" xmlns:xlink="http://www.w3.org/1999/xlink">
<g id="graph0" class="graph" transform="scale(1 1) rotate(0) translate(4 328)">
<title>cppgc::internal::NormalPage</title>
<!-- Node1 -->
<g id="Node000001" class="node">
<title>Node1</title>
<g id="a_Node000001"><a xlink:title=" ">
<polygon fill="#999999" stroke="none" points="804,-324 624,-324 624,0 804,0 804,-324"/>
<text text-anchor="start" x="633" y="-310.5" font-family="Cascadia Code NF" font-size="10.00">cppgc::internal::NormalPage</text>
<text text-anchor="start" x="711" y="-294.5" font-family="Cascadia Code NF" font-size="10.00"> </text>
<text text-anchor="start" x="628" y="-278.5" font-family="Cascadia Code NF" font-size="10.00">+</text>
<text text-anchor="start" x="638" y="-278.5" font-family="Cascadia Code NF" font-size="10.00">begin()</text>
<text text-anchor="start" x="628" y="-262.5" font-family="Cascadia Code NF" font-size="10.00">+</text>
<text text-anchor="start" x="638" y="-262.5" font-family="Cascadia Code NF" font-size="10.00">begin()</text>
<text text-anchor="start" x="628" y="-246.5" font-family="Cascadia Code NF" font-size="10.00">+</text>
<text text-anchor="start" x="638" y="-246.5" font-family="Cascadia Code NF" font-size="10.00">end()</text>
<text text-anchor="start" x="628" y="-230.5" font-family="Cascadia Code NF" font-size="10.00">+</text>
<text text-anchor="start" x="638" y="-230.5" font-family="Cascadia Code NF" font-size="10.00">end()</text>
<text text-anchor="start" x="628" y="-214.5" font-family="Cascadia Code NF" font-size="10.00">+</text>
<text text-anchor="start" x="638" y="-214.5" font-family="Cascadia Code NF" font-size="10.00">PayloadStart()</text>
<text text-anchor="start" x="628" y="-198.5" font-family="Cascadia Code NF" font-size="10.00">+</text>
<text text-anchor="start" x="638" y="-198.5" font-family="Cascadia Code NF" font-size="10.00">PayloadStart()</text>
<text text-anchor="start" x="628" y="-182.5" font-family="Cascadia Code NF" font-size="10.00">+</text>
<text text-anchor="start" x="638" y="-182.5" font-family="Cascadia Code NF" font-size="10.00">PayloadEnd()</text>
<text text-anchor="start" x="628" y="-166.5" font-family="Cascadia Code NF" font-size="10.00">+</text>
<text text-anchor="start" x="638" y="-166.5" font-family="Cascadia Code NF" font-size="10.00">PayloadEnd()</text>
<text text-anchor="start" x="628" y="-150.5" font-family="Cascadia Code NF" font-size="10.00">+</text>
<text text-anchor="start" x="638" y="-150.5" font-family="Cascadia Code NF" font-size="10.00">PayloadContains()</text>
<text text-anchor="start" x="628" y="-134.5" font-family="Cascadia Code NF" font-size="10.00">+</text>
<text text-anchor="start" x="638" y="-134.5" font-family="Cascadia Code NF" font-size="10.00">AllocatedBytesAtLastGC()</text>
<text text-anchor="start" x="628" y="-118.5" font-family="Cascadia Code NF" font-size="10.00">+</text>
<text text-anchor="start" x="638" y="-118.5" font-family="Cascadia Code NF" font-size="10.00">SetAllocatedBytesAtLastGC()</text>
<text text-anchor="start" x="628" y="-102.5" font-family="Cascadia Code NF" font-size="10.00">+</text>
<text text-anchor="start" x="638" y="-102.5" font-family="Cascadia Code NF" font-size="10.00">object_start_bitmap()</text>
<text text-anchor="start" x="628" y="-86.5" font-family="Cascadia Code NF" font-size="10.00">+</text>
<text text-anchor="start" x="638" y="-86.5" font-family="Cascadia Code NF" font-size="10.00">object_start_bitmap()</text>
<text text-anchor="start" x="628" y="-70.5" font-family="Cascadia Code NF" font-size="10.00">+</text>
<text text-anchor="start" x="638" y="-70.5" font-family="Cascadia Code NF" font-size="10.00">TryCreate()</text>
<text text-anchor="start" x="628" y="-54.5" font-family="Cascadia Code NF" font-size="10.00">+</text>
<text text-anchor="start" x="638" y="-54.5" font-family="Cascadia Code NF" font-size="10.00">Destroy()</text>
<text text-anchor="start" x="628" y="-38.5" font-family="Cascadia Code NF" font-size="10.00">+</text>
<text text-anchor="start" x="638" y="-38.5" font-family="Cascadia Code NF" font-size="10.00">From()</text>
<text text-anchor="start" x="628" y="-22.5" font-family="Cascadia Code NF" font-size="10.00">+</text>
<text text-anchor="start" x="638" y="-22.5" font-family="Cascadia Code NF" font-size="10.00">From()</text>
<text text-anchor="start" x="628" y="-6.5" font-family="Cascadia Code NF" font-size="10.00">+</text>
<text text-anchor="start" x="638" y="-6.5" font-family="Cascadia Code NF" font-size="10.00">PayloadSize()</text>
<polygon fill="#666666" stroke="#666666" points="624,-306 624,-306 804,-306 804,-306 624,-306"/>
<polygon fill="#666666" stroke="#666666" points="624,-290 624,-290 804,-290 804,-290 624,-290"/>
<polygon fill="none" stroke="#666666" points="624,0 624,-324 804,-324 804,0 624,0"/>
</a>
</g>
</g>
<!-- Node2 -->
<g id="Node000002" class="node">
<title>Node2</title>
<g id="a_Node000002"><a xlink:href="$d5/ded/classcppgc_1_1internal_1_1BasePage.html" xlink:title=" ">
<polygon fill="white" stroke="none" points="588,-316 428,-316 428,-8 588,-8 588,-316"/>
<text text-anchor="start" x="433" y="-302.5" font-family="Cascadia Code NF" font-size="10.00">cppgc::internal::BasePage</text>
<text text-anchor="start" x="505" y="-286.5" font-family="Cascadia Code NF" font-size="10.00"> </text>
<text text-anchor="start" x="440.5" y="-270.5" font-family="Cascadia Code NF" font-size="10.00">+</text>
<text text-anchor="start" x="459" y="-270.5" font-family="Cascadia Code NF" font-size="10.00">BasePage()</text>
<text text-anchor="start" x="440.5" y="-254.5" font-family="Cascadia Code NF" font-size="10.00">+</text>
<text text-anchor="start" x="459" y="-254.5" font-family="Cascadia Code NF" font-size="10.00">operator=()</text>
<text text-anchor="start" x="440.5" y="-238.5" font-family="Cascadia Code NF" font-size="10.00">+</text>
<text text-anchor="start" x="459" y="-238.5" font-family="Cascadia Code NF" font-size="10.00">heap()</text>
<text text-anchor="start" x="440.5" y="-222.5" font-family="Cascadia Code NF" font-size="10.00">+</text>
<text text-anchor="start" x="459" y="-222.5" font-family="Cascadia Code NF" font-size="10.00">space()</text>
<text text-anchor="start" x="440.5" y="-206.5" font-family="Cascadia Code NF" font-size="10.00">+</text>
<text text-anchor="start" x="459" y="-206.5" font-family="Cascadia Code NF" font-size="10.00">is_large()</text>
<text text-anchor="start" x="440.5" y="-190.5" font-family="Cascadia Code NF" font-size="10.00">+</text>
<text text-anchor="start" x="459" y="-190.5" font-family="Cascadia Code NF" font-size="10.00">PayloadStart()</text>
<text text-anchor="start" x="440.5" y="-174.5" font-family="Cascadia Code NF" font-size="10.00">+</text>
<text text-anchor="start" x="459" y="-174.5" font-family="Cascadia Code NF" font-size="10.00">PayloadStart()</text>
<text text-anchor="start" x="440.5" y="-158.5" font-family="Cascadia Code NF" font-size="10.00">+</text>
<text text-anchor="start" x="459" y="-158.5" font-family="Cascadia Code NF" font-size="10.00">PayloadEnd()</text>
<text text-anchor="start" x="440.5" y="-142.5" font-family="Cascadia Code NF" font-size="10.00">+</text>
<text text-anchor="start" x="459" y="-142.5" font-family="Cascadia Code NF" font-size="10.00">PayloadEnd()</text>
<text text-anchor="start" x="440.5" y="-126.5" font-family="Cascadia Code NF" font-size="10.00">+</text>
<text text-anchor="start" x="459" y="-126.5" font-family="Cascadia Code NF" font-size="10.00">AllocatedSize()</text>
<text text-anchor="start" x="459" y="-110.5" font-family="Cascadia Code NF" font-size="10.00">and 12 more...</text>
<text text-anchor="start" x="440.5" y="-94.5" font-family="Cascadia Code NF" font-size="10.00">+</text>
<text text-anchor="start" x="459" y="-94.5" font-family="Cascadia Code NF" font-size="10.00">FromPayload()</text>
<text text-anchor="start" x="440.5" y="-78.5" font-family="Cascadia Code NF" font-size="10.00">+</text>
<text text-anchor="start" x="459" y="-78.5" font-family="Cascadia Code NF" font-size="10.00">FromPayload()</text>
<text text-anchor="start" x="440.5" y="-62.5" font-family="Cascadia Code NF" font-size="10.00">+</text>
<text text-anchor="start" x="459" y="-62.5" font-family="Cascadia Code NF" font-size="10.00">FromInnerAddress()</text>
<text text-anchor="start" x="440.5" y="-46.5" font-family="Cascadia Code NF" font-size="10.00">+</text>
<text text-anchor="start" x="459" y="-46.5" font-family="Cascadia Code NF" font-size="10.00">FromInnerAddress()</text>
<text text-anchor="start" x="440.5" y="-30.5" font-family="Cascadia Code NF" font-size="10.00">+</text>
<text text-anchor="start" x="459" y="-30.5" font-family="Cascadia Code NF" font-size="10.00">Destroy()</text>
<text text-anchor="start" x="440.5" y="-14.5" font-family="Cascadia Code NF" font-size="10.00">#</text>
<text text-anchor="start" x="459" y="-14.5" font-family="Cascadia Code NF" font-size="10.00">BasePage()</text>
<polygon fill="#bfbfbf" stroke="#bfbfbf" points="428,-298 428,-298 588,-298 588,-298 428,-298"/>
<polygon fill="#bfbfbf" stroke="#bfbfbf" points="428,-282 428,-282 588,-282 588,-282 428,-282"/>
<polygon fill="none" stroke="#bfbfbf" points="428,-8 428,-316 588,-316 588,-8 428,-8"/>
</a>
</g>
</g>
<!-- Node2&#45;&gt;Node1 -->
<g id="edge1_Node000001_Node000002" class="edge">
<title>Node2&#45;&gt;Node1</title>
<g id="a_edge1_Node000001_Node000002"><a xlink:title=" ">
<path fill="none" stroke="#63b8ff" d="M599.12,-162C607.44,-162 615.86,-162 624.16,-162"/>
<polygon fill="none" stroke="#63b8ff" points="599.39,-158.5 589.39,-162 599.39,-165.5 599.39,-158.5"/>
</a>
</g>
</g>
<!-- Node3 -->
<g id="Node000003" class="node">
<title>Node3</title>
<g id="a_Node000003"><a xlink:href="$d7/d79/classcppgc_1_1internal_1_1BasePageHandle.html" xlink:title=" ">
<polygon fill="white" stroke="none" points="392,-226.5 232,-226.5 232,-97.5 392,-97.5 392,-226.5"/>
<text text-anchor="start" x="237" y="-213" font-family="Cascadia Code NF" font-size="10.00">cppgc::internal::BasePage</text>
<text text-anchor="start" x="294" y="-200.25" font-family="Cascadia Code NF" font-size="10.00">Handle</text>
<text text-anchor="start" x="309" y="-184" font-family="Cascadia Code NF" font-size="10.00"> </text>
<text text-anchor="start" x="247.5" y="-168" font-family="Cascadia Code NF" font-size="10.00">+</text>
<text text-anchor="start" x="269" y="-168" font-family="Cascadia Code NF" font-size="10.00">heap_handle()</text>
<text text-anchor="start" x="247.5" y="-152" font-family="Cascadia Code NF" font-size="10.00">+</text>
<text text-anchor="start" x="269" y="-152" font-family="Cascadia Code NF" font-size="10.00">heap_handle()</text>
<text text-anchor="start" x="247.5" y="-136" font-family="Cascadia Code NF" font-size="10.00">+</text>
<text text-anchor="start" x="269" y="-136" font-family="Cascadia Code NF" font-size="10.00">FromPayload()</text>
<text text-anchor="start" x="247.5" y="-120" font-family="Cascadia Code NF" font-size="10.00">+</text>
<text text-anchor="start" x="269" y="-120" font-family="Cascadia Code NF" font-size="10.00">FromPayload()</text>
<text text-anchor="start" x="247.5" y="-104" font-family="Cascadia Code NF" font-size="10.00">#</text>
<text text-anchor="start" x="269" y="-104" font-family="Cascadia Code NF" font-size="10.00">BasePageHandle()</text>
<polygon fill="#bfbfbf" stroke="#bfbfbf" points="232,-195.5 232,-195.5 392,-195.5 392,-195.5 232,-195.5"/>
<polygon fill="#bfbfbf" stroke="#bfbfbf" points="232,-179.5 232,-179.5 392,-179.5 392,-179.5 232,-179.5"/>
<polygon fill="none" stroke="#bfbfbf" points="232,-97.5 232,-226.5 392,-226.5 392,-97.5 232,-97.5"/>
</a>
</g>
</g>
<!-- Node3&#45;&gt;Node2 -->
<g id="edge2_Node000002_Node000003" class="edge">
<title>Node3&#45;&gt;Node2</title>
<g id="a_edge2_Node000002_Node000003"><a xlink:title=" ">
<path fill="none" stroke="#63b8ff" d="M403.21,-162C411.54,-162 419.94,-162 428.16,-162"/>
<polygon fill="none" stroke="#63b8ff" points="403.42,-158.5 393.42,-162 403.42,-165.5 403.42,-158.5"/>
</a>
</g>
</g>
<!-- Node4 -->
<g id="Node000004" class="node">
<title>Node4</title>
<g id="a_Node000004"><a xlink:href="$d9/d10/classcppgc_1_1HeapHandle.html" xlink:title=" ">
<polygon fill="white" stroke="none" points="112,-196 0,-196 0,-128 112,-128 112,-196"/>
<text text-anchor="start" x="5" y="-182.5" font-family="Cascadia Code NF" font-size="10.00">cppgc::HeapHandle</text>
<text text-anchor="start" x="53" y="-166.5" font-family="Cascadia Code NF" font-size="10.00"> </text>
<text text-anchor="start" x="9.5" y="-150.5" font-family="Cascadia Code NF" font-size="10.00">+</text>
<text text-anchor="start" x="25" y="-150.5" font-family="Cascadia Code NF" font-size="10.00">HeapHandle()</text>
<text text-anchor="start" x="9.5" y="-134.5" font-family="Cascadia Code NF" font-size="10.00">+</text>
<text text-anchor="start" x="25" y="-134.5" font-family="Cascadia Code NF" font-size="10.00">operator=()</text>
<polygon fill="#666666" stroke="#666666" points="0,-178 0,-178 112,-178 112,-178 0,-178"/>
<polygon fill="#666666" stroke="#666666" points="0,-162 0,-162 112,-162 112,-162 0,-162"/>
<polygon fill="none" stroke="#666666" points="0,-128 0,-196 112,-196 112,-128 0,-128"/>
</a>
</g>
</g>
<!-- Node4&#45;&gt;Node3 -->
<g id="edge3_Node000003_Node000004" class="edge">
<title>Node4&#45;&gt;Node3</title>
<g id="a_edge3_Node000003_Node000004"><a xlink:title=" ">
<path fill="none" stroke="#63b8ff" d="M111.8,-162C143.1,-162 183.17,-162 219.15,-162"/>
<polygon fill="none" stroke="#63b8ff" points="219.3,-162 225.3,-158 231.3,-162 225.3,-166 219.3,-162"/>
</a>
</g>
<text text-anchor="middle" x="172" y="-165.25" font-family="Cascadia Code NF" font-size="10.00" fill="grey"> #heap_handle_</text>
</g>
</g>
</svg>
