<?xml version="1.0" encoding="UTF-8" standalone="no"?>
<!DOCTYPE svg PUBLIC "-//W3C//DTD SVG 1.1//EN"
 "http://www.w3.org/Graphics/SVG/1.1/DTD/svg11.dtd">
<!-- Generated by graphviz version 11.0.0 (20240428.1522)
 -->
<!-- Title: v8::internal::wasm::WasmDeoptData Pages: 1 -->
<svg width="370pt" height="135pt"
 viewBox="0.00 0.00 370.00 135.25" xmlns="http://www.w3.org/2000/svg" xmlns:xlink="http://www.w3.org/1999/xlink">
<g id="graph0" class="graph" transform="scale(1 1) rotate(0) translate(4 131.25)">
<title>v8::internal::wasm::WasmDeoptData</title>
<!-- Node1 -->
<g id="Node000001" class="node">
<title>Node1</title>
<g id="a_Node000001"><a xlink:title=" ">
<polygon fill="#999999" stroke="none" points="362,-93.5 244,-93.5 244,-28.5 362,-28.5 362,-93.5"/>
<text text-anchor="start" x="249" y="-80" font-family="Cascadia Code NF" font-size="10.00">v8::internal::wasm</text>
<text text-anchor="start" x="258" y="-67.25" font-family="Cascadia Code NF" font-size="10.00">::WasmDeoptData</text>
<text text-anchor="start" x="300" y="-51" font-family="Cascadia Code NF" font-size="10.00"> </text>
<text text-anchor="start" x="300" y="-35" font-family="Cascadia Code NF" font-size="10.00"> </text>
<polygon fill="#666666" stroke="#666666" points="244,-62.5 244,-62.5 362,-62.5 362,-62.5 244,-62.5"/>
<polygon fill="#666666" stroke="#666666" points="244,-46.5 244,-46.5 362,-46.5 362,-46.5 244,-46.5"/>
<polygon fill="none" stroke="#666666" points="244,-28.5 244,-93.5 362,-93.5 362,-28.5 244,-28.5"/>
</a>
</g>
</g>
<!-- Node2 -->
<g id="Node000002" class="node">
<title>Node2</title>
<g id="a_Node000002"><a xlink:href="$d3/d87/classuint32__t.html" xlink:title=" ">
<polygon fill="white" stroke="none" points="58,-122 0,-122 0,-70 58,-70 58,-122"/>
<text text-anchor="start" x="5" y="-108.5" font-family="Cascadia Code NF" font-size="10.00">uint32_t</text>
<text text-anchor="start" x="26" y="-92.5" font-family="Cascadia Code NF" font-size="10.00"> </text>
<text text-anchor="start" x="26" y="-76.5" font-family="Cascadia Code NF" font-size="10.00"> </text>
<polygon fill="#bfbfbf" stroke="#bfbfbf" points="0,-104 0,-104 58,-104 58,-104 0,-104"/>
<polygon fill="#bfbfbf" stroke="#bfbfbf" points="0,-88 0,-88 58,-88 58,-88 0,-88"/>
<polygon fill="none" stroke="#bfbfbf" points="0,-70 0,-122 58,-122 58,-70 0,-70"/>
</a>
</g>
</g>
<!-- Node2&#45;&gt;Node1 -->
<g id="edge1_Node000001_Node000002" class="edge">
<title>Node2&#45;&gt;Node1</title>
<g id="a_edge1_Node000001_Node000002"><a xlink:title=" ">
<path fill="none" stroke="#63b8ff" d="M57.83,-92.42C98.28,-87.21 174.65,-77.39 231.25,-70.1"/>
<polygon fill="none" stroke="#63b8ff" points="231.3,-70.1 236.74,-65.36 243.2,-68.57 237.76,-73.3 231.3,-70.1"/>
</a>
</g>
<text text-anchor="middle" x="151" y="-117.75" font-family="Cascadia Code NF" font-size="10.00" fill="grey"> +deopt_literals_size</text>
<text text-anchor="middle" x="151" y="-105" font-family="Cascadia Code NF" font-size="10.00" fill="grey">+entry_count</text>
<text text-anchor="middle" x="151" y="-92.25" font-family="Cascadia Code NF" font-size="10.00" fill="grey">+translation_array_size</text>
</g>
<!-- Node3 -->
<g id="Node000003" class="node">
<title>Node3</title>
<g id="a_Node000003"><a xlink:href="$d1/da0/classint.html" xlink:title=" ">
<polygon fill="white" stroke="none" points="43,-52 15,-52 15,0 43,0 43,-52"/>
<text text-anchor="start" x="20" y="-38.5" font-family="Cascadia Code NF" font-size="10.00">int</text>
<text text-anchor="start" x="26" y="-22.5" font-family="Cascadia Code NF" font-size="10.00"> </text>
<text text-anchor="start" x="26" y="-6.5" font-family="Cascadia Code NF" font-size="10.00"> </text>
<polygon fill="#bfbfbf" stroke="#bfbfbf" points="15,-34 15,-34 43,-34 43,-34 15,-34"/>
<polygon fill="#bfbfbf" stroke="#bfbfbf" points="15,-18 15,-18 43,-18 43,-18 15,-18"/>
<polygon fill="none" stroke="#bfbfbf" points="15,0 15,-52 43,-52 43,0 15,0"/>
</a>
</g>
</g>
<!-- Node3&#45;&gt;Node1 -->
<g id="edge2_Node000001_Node000003" class="edge">
<title>Node3&#45;&gt;Node1</title>
<g id="a_edge2_Node000001_Node000003"><a xlink:title=" ">
<path fill="none" stroke="#63b8ff" d="M42.94,-26.25C74.45,-27.04 157.65,-30.12 226,-41.5 227.85,-41.81 229.72,-42.14 231.6,-42.49"/>
<polygon fill="none" stroke="#63b8ff" points="231.49,-42.47 238.17,-39.75 243.24,-44.88 236.56,-47.59 231.49,-42.47"/>
</a>
</g>
<text text-anchor="middle" x="151" y="-57" font-family="Cascadia Code NF" font-size="10.00" fill="grey"> +deopt_exit_start_offset</text>
<text text-anchor="middle" x="151" y="-44.25" font-family="Cascadia Code NF" font-size="10.00" fill="grey">+eager_deopt_count</text>
</g>
</g>
</svg>
