<?xml version="1.0" encoding="UTF-8" standalone="no"?>
<!DOCTYPE svg PUBLIC "-//W3C//DTD SVG 1.1//EN"
 "http://www.w3.org/Graphics/SVG/1.1/DTD/svg11.dtd">
<!-- Generated by graphviz version 11.0.0 (20240428.1522)
 -->
<!-- Title: cppgc::internal::BaseSpace Pages: 1 -->
<svg width="384pt" height="284pt"
 viewBox="0.00 0.00 384.00 284.00" xmlns="http://www.w3.org/2000/svg" xmlns:xlink="http://www.w3.org/1999/xlink">

<svg id="main" version="1.1" xmlns="http://www.w3.org/2000/svg" xmlns:xlink="http://www.w3.org/1999/xlink" xml:space="preserve" onload="init(evt)">
<style type="text/css"><![CDATA[
.node, .edge {opacity: 0.7;}
.node.selected, .edge.selected {opacity: 1;}
.edge:hover path { stroke: red; }
.edge:hover polygon { stroke: red; fill: red; }
svg#main { background-color: #111; }
]]></style>
<script type="application/ecmascript" xlink:href="../../svg.min.js"/>
<svg id="graph" class="graph">
<g id="graph0" class="graph" transform="scale(1 1) rotate(0) translate(4 280)">
<title>cppgc::internal::BaseSpace</title>
<!-- Node1 -->
<g id="Node000001" class="node">
<title>Node1</title>
<g id="a_Node000001"><a xlink:title=" ">
<polygon fill="#999999" stroke="none" points="166,-267.5 0,-267.5 0,-39.5 166,-39.5 166,-267.5"/>
<text text-anchor="start" x="5" y="-254" font-family="Cascadia Code NF" font-size="10.00">cppgc::internal::BaseSpace</text>
<text text-anchor="start" x="80" y="-238" font-family="Cascadia Code NF" font-size="10.00"> </text>
<text text-anchor="start" x="21.5" y="-222" font-family="Cascadia Code NF" font-size="10.00">+</text>
<text text-anchor="start" x="49" y="-222" font-family="Cascadia Code NF" font-size="10.00">BaseSpace()</text>
<text text-anchor="start" x="21.5" y="-206" font-family="Cascadia Code NF" font-size="10.00">+</text>
<text text-anchor="start" x="49" y="-206" font-family="Cascadia Code NF" font-size="10.00">operator=()</text>
<text text-anchor="start" x="21.5" y="-190" font-family="Cascadia Code NF" font-size="10.00">+</text>
<text text-anchor="start" x="49" y="-190" font-family="Cascadia Code NF" font-size="10.00">~BaseSpace()</text>
<text text-anchor="start" x="21.5" y="-174" font-family="Cascadia Code NF" font-size="10.00">+</text>
<text text-anchor="start" x="49" y="-174" font-family="Cascadia Code NF" font-size="10.00">begin()</text>
<text text-anchor="start" x="21.5" y="-158" font-family="Cascadia Code NF" font-size="10.00">+</text>
<text text-anchor="start" x="49" y="-158" font-family="Cascadia Code NF" font-size="10.00">begin()</text>
<text text-anchor="start" x="21.5" y="-142" font-family="Cascadia Code NF" font-size="10.00">+</text>
<text text-anchor="start" x="49" y="-142" font-family="Cascadia Code NF" font-size="10.00">end()</text>
<text text-anchor="start" x="21.5" y="-126" font-family="Cascadia Code NF" font-size="10.00">+</text>
<text text-anchor="start" x="49" y="-126" font-family="Cascadia Code NF" font-size="10.00">end()</text>
<text text-anchor="start" x="21.5" y="-110" font-family="Cascadia Code NF" font-size="10.00">+</text>
<text text-anchor="start" x="49" y="-110" font-family="Cascadia Code NF" font-size="10.00">size()</text>
<text text-anchor="start" x="21.5" y="-94" font-family="Cascadia Code NF" font-size="10.00">+</text>
<text text-anchor="start" x="49" y="-94" font-family="Cascadia Code NF" font-size="10.00">is_large()</text>
<text text-anchor="start" x="21.5" y="-78" font-family="Cascadia Code NF" font-size="10.00">+</text>
<text text-anchor="start" x="49" y="-78" font-family="Cascadia Code NF" font-size="10.00">index()</text>
<text text-anchor="start" x="49" y="-62" font-family="Cascadia Code NF" font-size="10.00">and 7 more...</text>
<text text-anchor="start" x="21.5" y="-46" font-family="Cascadia Code NF" font-size="10.00">#</text>
<text text-anchor="start" x="49" y="-46" font-family="Cascadia Code NF" font-size="10.00">BaseSpace()</text>
<polygon fill="#666666" stroke="#666666" points="0,-249.5 0,-249.5 166,-249.5 166,-249.5 0,-249.5"/>
<polygon fill="#666666" stroke="#666666" points="0,-233.5 0,-233.5 166,-233.5 166,-233.5 0,-233.5"/>
<polygon fill="none" stroke="#666666" points="0,-39.5 0,-267.5 166,-267.5 166,-39.5 0,-39.5"/>
</a>
</g>
</g>
<!-- Node2 -->
<g id="Node000002" class="node">
<title>Node2</title>
<g id="a_Node000002"><a xlink:href="../../dd/d28/classcppgc_1_1internal_1_1LargePageSpace.html" target="_top" xlink:title=" ">
<polygon fill="white" stroke="none" points="372,-276 206,-276 206,-179 372,-179 372,-276"/>
<text text-anchor="start" x="211" y="-262.5" font-family="Cascadia Code NF" font-size="10.00">cppgc::internal::LargePage</text>
<text text-anchor="start" x="274" y="-249.75" font-family="Cascadia Code NF" font-size="10.00">Space</text>
<text text-anchor="start" x="286" y="-233.5" font-family="Cascadia Code NF" font-size="10.00"> </text>
<text text-anchor="start" x="223" y="-217.5" font-family="Cascadia Code NF" font-size="10.00">+</text>
<text text-anchor="start" x="246" y="-217.5" font-family="Cascadia Code NF" font-size="10.00">LargePageSpace()</text>
<text text-anchor="start" x="223" y="-201.5" font-family="Cascadia Code NF" font-size="10.00">+</text>
<text text-anchor="start" x="246" y="-201.5" font-family="Cascadia Code NF" font-size="10.00">From()</text>
<text text-anchor="start" x="223" y="-185.5" font-family="Cascadia Code NF" font-size="10.00">+</text>
<text text-anchor="start" x="246" y="-185.5" font-family="Cascadia Code NF" font-size="10.00">From()</text>
<polygon fill="#bfbfbf" stroke="#bfbfbf" points="206,-245 206,-245 372,-245 372,-245 206,-245"/>
<polygon fill="#bfbfbf" stroke="#bfbfbf" points="206,-229 206,-229 372,-229 372,-229 206,-229"/>
<polygon fill="none" stroke="#bfbfbf" points="206,-179 206,-276 372,-276 372,-179 206,-179"/>
</a>
</g>
</g>
<!-- Node1&#45;&gt;Node2 -->
<g id="edge1_Node000001_Node000002" class="edge">
<title>Node1&#45;&gt;Node2</title>
<g id="a_edge1_Node000001_Node000002"><a xlink:title=" ">
<path fill="none" stroke="#63b8ff" d="M176.48,-187.05C186.39,-190.64 196.41,-194.28 206.18,-197.82"/>
<polygon fill="none" stroke="#63b8ff" points="177.82,-183.81 167.22,-183.69 175.43,-190.39 177.82,-183.81"/>
</a>
</g>
</g>
<!-- Node3 -->
<g id="Node000003" class="node">
<title>Node3</title>
<g id="a_Node000003"><a xlink:href="../../d9/ddc/classcppgc_1_1internal_1_1NormalPageSpace.html" target="_top" xlink:title=" ">
<polygon fill="white" stroke="none" points="376,-161 202,-161 202,0 376,0 376,-161"/>
<text text-anchor="start" x="208" y="-147.5" font-family="Cascadia Code NF" font-size="10.00">cppgc::internal::NormalPage</text>
<text text-anchor="start" x="274" y="-134.75" font-family="Cascadia Code NF" font-size="10.00">Space</text>
<text text-anchor="start" x="286" y="-118.5" font-family="Cascadia Code NF" font-size="10.00"> </text>
<text text-anchor="start" x="206" y="-102.5" font-family="Cascadia Code NF" font-size="10.00">+</text>
<text text-anchor="start" x="216" y="-102.5" font-family="Cascadia Code NF" font-size="10.00">NormalPageSpace()</text>
<text text-anchor="start" x="206" y="-86.5" font-family="Cascadia Code NF" font-size="10.00">+</text>
<text text-anchor="start" x="216" y="-86.5" font-family="Cascadia Code NF" font-size="10.00">linear_allocation_buffer()</text>
<text text-anchor="start" x="206" y="-70.5" font-family="Cascadia Code NF" font-size="10.00">+</text>
<text text-anchor="start" x="216" y="-70.5" font-family="Cascadia Code NF" font-size="10.00">linear_allocation_buffer()</text>
<text text-anchor="start" x="206" y="-54.5" font-family="Cascadia Code NF" font-size="10.00">+</text>
<text text-anchor="start" x="216" y="-54.5" font-family="Cascadia Code NF" font-size="10.00">free_list()</text>
<text text-anchor="start" x="206" y="-38.5" font-family="Cascadia Code NF" font-size="10.00">+</text>
<text text-anchor="start" x="216" y="-38.5" font-family="Cascadia Code NF" font-size="10.00">free_list()</text>
<text text-anchor="start" x="206" y="-22.5" font-family="Cascadia Code NF" font-size="10.00">+</text>
<text text-anchor="start" x="216" y="-22.5" font-family="Cascadia Code NF" font-size="10.00">From()</text>
<text text-anchor="start" x="206" y="-6.5" font-family="Cascadia Code NF" font-size="10.00">+</text>
<text text-anchor="start" x="216" y="-6.5" font-family="Cascadia Code NF" font-size="10.00">From()</text>
<polygon fill="#bfbfbf" stroke="#bfbfbf" points="202,-130 202,-130 376,-130 376,-130 202,-130"/>
<polygon fill="#bfbfbf" stroke="#bfbfbf" points="202,-114 202,-114 376,-114 376,-114 202,-114"/>
<polygon fill="none" stroke="#bfbfbf" points="202,0 202,-161 376,-161 376,0 202,0"/>
</a>
</g>
</g>
<!-- Node1&#45;&gt;Node3 -->
<g id="edge2_Node000001_Node000003" class="edge">
<title>Node1&#45;&gt;Node3</title>
<g id="a_edge2_Node000001_Node000003"><a xlink:title=" ">
<path fill="none" stroke="#63b8ff" d="M176.55,-120.38C185.08,-117.33 193.71,-114.24 202.18,-111.21"/>
<polygon fill="none" stroke="#63b8ff" points="175.46,-117.05 167.22,-123.72 177.82,-123.64 175.46,-117.05"/>
</a>
</g>
</g>
</g>
</svg>
</svg>

<style type='text/css'>
<![CDATA[
[data-mouse-over-selected='false'] { opacity: 0.7; }
[data-mouse-over-selected='true']  { opacity: 1.0; }
]]>
</style>
<script type="application/ecmascript"><![CDATA[
document.addEventListener('DOMContentLoaded', (event) => {
  highlightEdges();
  highlightAdjacentNodes();
});
]]></script>
</svg>
