<?xml version="1.0" encoding="UTF-8" standalone="no"?>
<!DOCTYPE svg PUBLIC "-//W3C//DTD SVG 1.1//EN"
 "http://www.w3.org/Graphics/SVG/1.1/DTD/svg11.dtd">
<!-- Generated by graphviz version 11.0.0 (20240428.1522)
 -->
<!-- Title: v8::internal::I16x8T Pages: 1 -->
<svg width="656pt" height="536pt"
 viewBox="0.00 0.00 656.00 536.00" xmlns="http://www.w3.org/2000/svg" xmlns:xlink="http://www.w3.org/1999/xlink">
<g id="graph0" class="graph" transform="scale(1 1) rotate(0) translate(4 532)">
<title>v8::internal::I16x8T</title>
<!-- Node1 -->
<g id="Node000001" class="node">
<title>Node1</title>
<g id="a_Node000001"><a xlink:title=" ">
<polygon fill="#999999" stroke="none" points="648,-458 518,-458 518,-406 648,-406 648,-458"/>
<text text-anchor="start" x="523" y="-444.5" font-family="Cascadia Code NF" font-size="10.00">v8::internal::I16x8T</text>
<text text-anchor="start" x="580" y="-428.5" font-family="Cascadia Code NF" font-size="10.00"> </text>
<text text-anchor="start" x="580" y="-412.5" font-family="Cascadia Code NF" font-size="10.00"> </text>
<polygon fill="#666666" stroke="#666666" points="518,-440 518,-440 648,-440 648,-440 518,-440"/>
<polygon fill="#666666" stroke="#666666" points="518,-424 518,-424 648,-424 648,-424 518,-424"/>
<polygon fill="none" stroke="#666666" points="518,-406 518,-458 648,-458 648,-406 518,-406"/>
</a>
</g>
</g>
<!-- Node2 -->
<g id="Node000002" class="node">
<title>Node2</title>
<g id="a_Node000002"><a xlink:href="../../dc/de7/structv8_1_1internal_1_1Simd128T.html" target="_top" xlink:title=" ">
<polygon fill="white" stroke="none" points="482,-458 340,-458 340,-406 482,-406 482,-458"/>
<text text-anchor="start" x="345" y="-444.5" font-family="Cascadia Code NF" font-size="10.00">v8::internal::Simd128T</text>
<text text-anchor="start" x="408" y="-428.5" font-family="Cascadia Code NF" font-size="10.00"> </text>
<text text-anchor="start" x="408" y="-412.5" font-family="Cascadia Code NF" font-size="10.00"> </text>
<polygon fill="#bfbfbf" stroke="#bfbfbf" points="340,-440 340,-440 482,-440 482,-440 340,-440"/>
<polygon fill="#bfbfbf" stroke="#bfbfbf" points="340,-424 340,-424 482,-424 482,-424 340,-424"/>
<polygon fill="none" stroke="#bfbfbf" points="340,-406 340,-458 482,-458 482,-406 340,-406"/>
</a>
</g>
</g>
<!-- Node2&#45;&gt;Node1 -->
<g id="edge1_Node000001_Node000002" class="edge">
<title>Node2&#45;&gt;Node1</title>
<g id="a_edge1_Node000001_Node000002"><a xlink:title=" ">
<path fill="none" stroke="#63b8ff" d="M493.08,-432C501.52,-432 510,-432 518.21,-432"/>
<polygon fill="none" stroke="#63b8ff" points="493.15,-428.5 483.15,-432 493.15,-435.5 493.15,-428.5"/>
</a>
</g>
</g>
<!-- Node3 -->
<g id="Node000003" class="node">
<title>Node3</title>
<g id="a_Node000003"><a xlink:href="../../df/d93/structv8_1_1internal_1_1UntaggedT.html" target="_top" xlink:title=" ">
<polygon fill="white" stroke="none" points="154,-528 6,-528 6,-476 154,-476 154,-528"/>
<text text-anchor="start" x="11" y="-514.5" font-family="Cascadia Code NF" font-size="10.00">v8::internal::UntaggedT</text>
<text text-anchor="start" x="77" y="-498.5" font-family="Cascadia Code NF" font-size="10.00"> </text>
<text text-anchor="start" x="77" y="-482.5" font-family="Cascadia Code NF" font-size="10.00"> </text>
<polygon fill="#bfbfbf" stroke="#bfbfbf" points="6,-510 6,-510 154,-510 154,-510 6,-510"/>
<polygon fill="#bfbfbf" stroke="#bfbfbf" points="6,-494 6,-494 154,-494 154,-494 6,-494"/>
<polygon fill="none" stroke="#bfbfbf" points="6,-476 6,-528 154,-528 154,-476 6,-476"/>
</a>
</g>
</g>
<!-- Node3&#45;&gt;Node2 -->
<g id="edge2_Node000002_Node000003" class="edge">
<title>Node3&#45;&gt;Node2</title>
<g id="a_edge2_Node000002_Node000003"><a xlink:title=" ">
<path fill="none" stroke="#63b8ff" d="M164.59,-484.21C218.87,-472.67 288.8,-457.79 340.12,-446.87"/>
<polygon fill="none" stroke="#63b8ff" points="164.14,-480.73 155.09,-486.24 165.6,-487.58 164.14,-480.73"/>
</a>
</g>
</g>
<!-- Node4 -->
<g id="Node000004" class="node">
<title>Node4</title>
<g id="a_Node000004"><a xlink:title=" ">
<polygon fill="white" stroke="none" points="100,-458 60,-458 60,-406 100,-406 100,-458"/>
<text text-anchor="start" x="65" y="-444.5" font-family="Cascadia Code NF" font-size="10.00">const</text>
<text text-anchor="start" x="77" y="-428.5" font-family="Cascadia Code NF" font-size="10.00"> </text>
<text text-anchor="start" x="77" y="-412.5" font-family="Cascadia Code NF" font-size="10.00"> </text>
<polygon fill="#bfbfbf" stroke="#bfbfbf" points="60,-440 60,-440 100,-440 100,-440 60,-440"/>
<polygon fill="#bfbfbf" stroke="#bfbfbf" points="60,-424 60,-424 100,-424 100,-424 60,-424"/>
<polygon fill="none" stroke="#bfbfbf" points="60,-406 60,-458 100,-458 100,-406 60,-406"/>
</a>
</g>
</g>
<!-- Node4&#45;&gt;Node2 -->
<g id="edge3_Node000002_Node000004" class="edge">
<title>Node4&#45;&gt;Node2</title>
<g id="a_edge3_Node000002_Node000004"><a xlink:title=" ">
<path fill="none" stroke="#63b8ff" d="M99.63,-432C142.55,-432 250.56,-432 327.07,-432"/>
<polygon fill="none" stroke="#63b8ff" points="327.11,-432 333.11,-428 339.11,-432 333.11,-436 327.11,-432"/>
</a>
</g>
<text text-anchor="middle" x="250" y="-435.25" font-family="Cascadia Code NF" font-size="10.00" fill="grey"> +kMachineRepresentation</text>
</g>
<!-- Node5 -->
<g id="Node000005" class="node">
<title>Node5</title>
<g id="a_Node000005"><a xlink:href="../../d0/dcd/classv8_1_1internal_1_1MachineType.html" target="_top" xlink:title=" ">
<polygon fill="white" stroke="none" points="160,-388 0,-388 0,0 160,0 160,-388"/>
<text text-anchor="start" x="5" y="-374.5" font-family="Cascadia Code NF" font-size="10.00">v8::internal::MachineType</text>
<text text-anchor="start" x="77" y="-358.5" font-family="Cascadia Code NF" font-size="10.00"> </text>
<text text-anchor="start" x="5" y="-342.5" font-family="Cascadia Code NF" font-size="10.00">+</text>
<text text-anchor="start" x="16" y="-342.5" font-family="Cascadia Code NF" font-size="10.00">MachineType()</text>
<text text-anchor="start" x="5" y="-326.5" font-family="Cascadia Code NF" font-size="10.00">+</text>
<text text-anchor="start" x="16" y="-326.5" font-family="Cascadia Code NF" font-size="10.00">MachineType()</text>
<text text-anchor="start" x="5" y="-310.5" font-family="Cascadia Code NF" font-size="10.00">+</text>
<text text-anchor="start" x="16" y="-310.5" font-family="Cascadia Code NF" font-size="10.00">operator==()</text>
<text text-anchor="start" x="5" y="-294.5" font-family="Cascadia Code NF" font-size="10.00">+</text>
<text text-anchor="start" x="16" y="-294.5" font-family="Cascadia Code NF" font-size="10.00">operator!=()</text>
<text text-anchor="start" x="5" y="-278.5" font-family="Cascadia Code NF" font-size="10.00">+</text>
<text text-anchor="start" x="16" y="-278.5" font-family="Cascadia Code NF" font-size="10.00">representation()</text>
<text text-anchor="start" x="5" y="-262.5" font-family="Cascadia Code NF" font-size="10.00">+</text>
<text text-anchor="start" x="16" y="-262.5" font-family="Cascadia Code NF" font-size="10.00">semantic()</text>
<text text-anchor="start" x="5" y="-246.5" font-family="Cascadia Code NF" font-size="10.00">+</text>
<text text-anchor="start" x="16" y="-246.5" font-family="Cascadia Code NF" font-size="10.00">IsNone()</text>
<text text-anchor="start" x="5" y="-230.5" font-family="Cascadia Code NF" font-size="10.00">+</text>
<text text-anchor="start" x="16" y="-230.5" font-family="Cascadia Code NF" font-size="10.00">IsMapWord()</text>
<text text-anchor="start" x="5" y="-214.5" font-family="Cascadia Code NF" font-size="10.00">+</text>
<text text-anchor="start" x="16" y="-214.5" font-family="Cascadia Code NF" font-size="10.00">IsSigned()</text>
<text text-anchor="start" x="5" y="-198.5" font-family="Cascadia Code NF" font-size="10.00">+</text>
<text text-anchor="start" x="16" y="-198.5" font-family="Cascadia Code NF" font-size="10.00">IsUnsigned()</text>
<text text-anchor="start" x="16" y="-182.5" font-family="Cascadia Code NF" font-size="10.00">and 8 more...</text>
<text text-anchor="start" x="5" y="-166.5" font-family="Cascadia Code NF" font-size="10.00">+</text>
<text text-anchor="start" x="16" y="-166.5" font-family="Cascadia Code NF" font-size="10.00">PointerRepresentation()</text>
<text text-anchor="start" x="5" y="-150.5" font-family="Cascadia Code NF" font-size="10.00">+</text>
<text text-anchor="start" x="16" y="-150.5" font-family="Cascadia Code NF" font-size="10.00">UintPtr()</text>
<text text-anchor="start" x="5" y="-134.5" font-family="Cascadia Code NF" font-size="10.00">+</text>
<text text-anchor="start" x="16" y="-134.5" font-family="Cascadia Code NF" font-size="10.00">IntPtr()</text>
<text text-anchor="start" x="5" y="-118.5" font-family="Cascadia Code NF" font-size="10.00">+</text>
<text text-anchor="start" x="16" y="-118.5" font-family="Cascadia Code NF" font-size="10.00">Int8()</text>
<text text-anchor="start" x="5" y="-102.5" font-family="Cascadia Code NF" font-size="10.00">+</text>
<text text-anchor="start" x="16" y="-102.5" font-family="Cascadia Code NF" font-size="10.00">Uint8()</text>
<text text-anchor="start" x="5" y="-86.5" font-family="Cascadia Code NF" font-size="10.00">+</text>
<text text-anchor="start" x="16" y="-86.5" font-family="Cascadia Code NF" font-size="10.00">Int16()</text>
<text text-anchor="start" x="5" y="-70.5" font-family="Cascadia Code NF" font-size="10.00">+</text>
<text text-anchor="start" x="16" y="-70.5" font-family="Cascadia Code NF" font-size="10.00">Uint16()</text>
<text text-anchor="start" x="5" y="-54.5" font-family="Cascadia Code NF" font-size="10.00">+</text>
<text text-anchor="start" x="16" y="-54.5" font-family="Cascadia Code NF" font-size="10.00">Int32()</text>
<text text-anchor="start" x="5" y="-38.5" font-family="Cascadia Code NF" font-size="10.00">+</text>
<text text-anchor="start" x="16" y="-38.5" font-family="Cascadia Code NF" font-size="10.00">Uint32()</text>
<text text-anchor="start" x="5" y="-22.5" font-family="Cascadia Code NF" font-size="10.00">+</text>
<text text-anchor="start" x="16" y="-22.5" font-family="Cascadia Code NF" font-size="10.00">Int64()</text>
<text text-anchor="start" x="16" y="-6.5" font-family="Cascadia Code NF" font-size="10.00">and 21 more...</text>
<polygon fill="#bfbfbf" stroke="#bfbfbf" points="0,-370 0,-370 160,-370 160,-370 0,-370"/>
<polygon fill="#bfbfbf" stroke="#bfbfbf" points="0,-354 0,-354 160,-354 160,-354 0,-354"/>
<polygon fill="none" stroke="#bfbfbf" points="0,0 0,-388 160,-388 160,0 0,0"/>
</a>
</g>
</g>
<!-- Node5&#45;&gt;Node2 -->
<g id="edge4_Node000002_Node000005" class="edge">
<title>Node5&#45;&gt;Node2</title>
<g id="a_edge4_Node000002_Node000005"><a xlink:title=" ">
<path fill="none" stroke="#63b8ff" d="M159.8,-251.01C223.47,-297.07 310.91,-360.32 363.77,-398.56"/>
<polygon fill="none" stroke="#63b8ff" points="363.73,-398.53 370.93,-398.8 373.45,-405.56 366.25,-405.29 363.73,-398.53"/>
</a>
</g>
<text text-anchor="middle" x="250" y="-371.25" font-family="Cascadia Code NF" font-size="10.00" fill="grey"> +kMachineType</text>
</g>
</g>
</svg>
