<?xml version="1.0" encoding="UTF-8" standalone="no"?>
<!DOCTYPE svg PUBLIC "-//W3C//DTD SVG 1.1//EN"
 "http://www.w3.org/Graphics/SVG/1.1/DTD/svg11.dtd">
<!-- Generated by graphviz version 11.0.0 (20240428.1522)
 -->
<!-- Title: v8::internal::JSPromise Pages: 1 -->
<svg width="604pt" height="358pt"
 viewBox="0.00 0.00 604.00 358.00" xmlns="http://www.w3.org/2000/svg" xmlns:xlink="http://www.w3.org/1999/xlink">
<g id="graph0" class="graph" transform="scale(1 1) rotate(0) translate(4 354)">
<title>v8::internal::JSPromise</title>
<!-- Node1 -->
<g id="Node000001" class="node">
<title>Node1</title>
<g id="a_Node000001"><a xlink:title=" ">
<polygon fill="#999999" stroke="none" points="596,-273 440,-273 440,-77 596,-77 596,-273"/>
<text text-anchor="start" x="449" y="-259.5" font-family="Cascadia Code NF" font-size="10.00">v8::internal::JSPromise</text>
<text text-anchor="start" x="444" y="-243.5" font-family="Cascadia Code NF" font-size="10.00">+</text>
<text text-anchor="start" x="454" y="-243.5" font-family="Cascadia Code NF" font-size="10.00">kSizeWithEmbedderFields</text>
<text text-anchor="start" x="444" y="-227.5" font-family="Cascadia Code NF" font-size="10.00">+</text>
<text text-anchor="start" x="454" y="-227.5" font-family="Cascadia Code NF" font-size="10.00">result()</text>
<text text-anchor="start" x="444" y="-211.5" font-family="Cascadia Code NF" font-size="10.00">+</text>
<text text-anchor="start" x="454" y="-211.5" font-family="Cascadia Code NF" font-size="10.00">reactions()</text>
<text text-anchor="start" x="444" y="-195.5" font-family="Cascadia Code NF" font-size="10.00">+</text>
<text text-anchor="start" x="454" y="-195.5" font-family="Cascadia Code NF" font-size="10.00">async_task_id()</text>
<text text-anchor="start" x="444" y="-179.5" font-family="Cascadia Code NF" font-size="10.00">+</text>
<text text-anchor="start" x="454" y="-179.5" font-family="Cascadia Code NF" font-size="10.00">set_async_task_id()</text>
<text text-anchor="start" x="444" y="-163.5" font-family="Cascadia Code NF" font-size="10.00">+</text>
<text text-anchor="start" x="454" y="-163.5" font-family="Cascadia Code NF" font-size="10.00">status()</text>
<text text-anchor="start" x="444" y="-147.5" font-family="Cascadia Code NF" font-size="10.00">+</text>
<text text-anchor="start" x="454" y="-147.5" font-family="Cascadia Code NF" font-size="10.00">set_status()</text>
<text text-anchor="start" x="444" y="-131.5" font-family="Cascadia Code NF" font-size="10.00">+</text>
<text text-anchor="start" x="454" y="-131.5" font-family="Cascadia Code NF" font-size="10.00">Status()</text>
<text text-anchor="start" x="444" y="-115.5" font-family="Cascadia Code NF" font-size="10.00">+</text>
<text text-anchor="start" x="454" y="-115.5" font-family="Cascadia Code NF" font-size="10.00">Fulfill()</text>
<text text-anchor="start" x="444" y="-99.5" font-family="Cascadia Code NF" font-size="10.00">+</text>
<text text-anchor="start" x="454" y="-99.5" font-family="Cascadia Code NF" font-size="10.00">Reject()</text>
<text text-anchor="start" x="444" y="-83.5" font-family="Cascadia Code NF" font-size="10.00">+</text>
<text text-anchor="start" x="454" y="-83.5" font-family="Cascadia Code NF" font-size="10.00">Resolve()</text>
<polygon fill="#666666" stroke="#666666" points="440,-255 440,-255 596,-255 596,-255 440,-255"/>
<polygon fill="#666666" stroke="#666666" points="440,-239 440,-239 452,-239 452,-239 440,-239"/>
<polygon fill="#666666" stroke="#666666" points="452,-239 452,-239 596,-239 596,-239 452,-239"/>
<polygon fill="none" stroke="#666666" points="440,-77 440,-273 596,-273 596,-77 440,-77"/>
</a>
</g>
</g>
<!-- Node2 -->
<g id="Node000002" class="node">
<title>Node2</title>
<g id="a_Node000002"><a xlink:href="../../d9/d16/classTorqueGeneratedJSPromise.html" target="_top" xlink:title=" ">
<polygon fill="white" stroke="none" points="404,-350 196,-350 196,0 404,0 404,-350"/>
<text text-anchor="start" x="201" y="-336.5" font-family="Cascadia Code NF" font-size="10.00">TorqueGeneratedJSPromise</text>
<text text-anchor="start" x="201" y="-323.75" font-family="Cascadia Code NF" font-size="10.00">&lt; JSPromise, JSObjectWithEmbedder</text>
<text text-anchor="start" x="279" y="-311" font-family="Cascadia Code NF" font-size="10.00">Slots &gt;</text>
<text text-anchor="start" x="207" y="-294.5" font-family="Cascadia Code NF" font-size="10.00">+</text>
<text text-anchor="start" x="224" y="-294.5" font-family="Cascadia Code NF" font-size="10.00">kStartOfStrongFieldsOffset</text>
<text text-anchor="start" x="207" y="-278.5" font-family="Cascadia Code NF" font-size="10.00">+</text>
<text text-anchor="start" x="224" y="-278.5" font-family="Cascadia Code NF" font-size="10.00">kReactionsOrResultOffset</text>
<text text-anchor="start" x="207" y="-262.5" font-family="Cascadia Code NF" font-size="10.00">+</text>
<text text-anchor="start" x="224" y="-262.5" font-family="Cascadia Code NF" font-size="10.00">kReactionsOrResultOffsetEnd</text>
<text text-anchor="start" x="207" y="-246.5" font-family="Cascadia Code NF" font-size="10.00">+</text>
<text text-anchor="start" x="224" y="-246.5" font-family="Cascadia Code NF" font-size="10.00">kFlagsOffset</text>
<text text-anchor="start" x="207" y="-230.5" font-family="Cascadia Code NF" font-size="10.00">+</text>
<text text-anchor="start" x="224" y="-230.5" font-family="Cascadia Code NF" font-size="10.00">kFlagsOffsetEnd</text>
<text text-anchor="start" x="207" y="-214.5" font-family="Cascadia Code NF" font-size="10.00">+</text>
<text text-anchor="start" x="224" y="-214.5" font-family="Cascadia Code NF" font-size="10.00">kEndOfStrongFieldsOffset</text>
<text text-anchor="start" x="207" y="-198.5" font-family="Cascadia Code NF" font-size="10.00">+</text>
<text text-anchor="start" x="224" y="-198.5" font-family="Cascadia Code NF" font-size="10.00">kStartOfWeakFieldsOffset</text>
<text text-anchor="start" x="207" y="-182.5" font-family="Cascadia Code NF" font-size="10.00">+</text>
<text text-anchor="start" x="224" y="-182.5" font-family="Cascadia Code NF" font-size="10.00">kEndOfWeakFieldsOffset</text>
<text text-anchor="start" x="207" y="-166.5" font-family="Cascadia Code NF" font-size="10.00">+</text>
<text text-anchor="start" x="224" y="-166.5" font-family="Cascadia Code NF" font-size="10.00">kHeaderSize</text>
<text text-anchor="start" x="207" y="-150.5" font-family="Cascadia Code NF" font-size="10.00">+</text>
<text text-anchor="start" x="224" y="-150.5" font-family="Cascadia Code NF" font-size="10.00">reactions_or_result()</text>
<text text-anchor="start" x="207" y="-134.5" font-family="Cascadia Code NF" font-size="10.00">+</text>
<text text-anchor="start" x="224" y="-134.5" font-family="Cascadia Code NF" font-size="10.00">reactions_or_result()</text>
<text text-anchor="start" x="207" y="-118.5" font-family="Cascadia Code NF" font-size="10.00">+</text>
<text text-anchor="start" x="224" y="-118.5" font-family="Cascadia Code NF" font-size="10.00">set_reactions_or_result()</text>
<text text-anchor="start" x="207" y="-102.5" font-family="Cascadia Code NF" font-size="10.00">+</text>
<text text-anchor="start" x="224" y="-102.5" font-family="Cascadia Code NF" font-size="10.00">flags()</text>
<text text-anchor="start" x="207" y="-86.5" font-family="Cascadia Code NF" font-size="10.00">+</text>
<text text-anchor="start" x="224" y="-86.5" font-family="Cascadia Code NF" font-size="10.00">set_flags()</text>
<text text-anchor="start" x="207" y="-70.5" font-family="Cascadia Code NF" font-size="10.00">+</text>
<text text-anchor="start" x="224" y="-70.5" font-family="Cascadia Code NF" font-size="10.00">TorqueGeneratedJSPromise()</text>
<text text-anchor="start" x="207" y="-54.5" font-family="Cascadia Code NF" font-size="10.00">+</text>
<text text-anchor="start" x="224" y="-54.5" font-family="Cascadia Code NF" font-size="10.00">cast()</text>
<text text-anchor="start" x="207" y="-38.5" font-family="Cascadia Code NF" font-size="10.00">+</text>
<text text-anchor="start" x="224" y="-38.5" font-family="Cascadia Code NF" font-size="10.00">unchecked_cast()</text>
<text text-anchor="start" x="207" y="-22.5" font-family="Cascadia Code NF" font-size="10.00">#</text>
<text text-anchor="start" x="224" y="-22.5" font-family="Cascadia Code NF" font-size="10.00">TorqueGeneratedJSPromise()</text>
<text text-anchor="start" x="207" y="-6.5" font-family="Cascadia Code NF" font-size="10.00">#</text>
<text text-anchor="start" x="224" y="-6.5" font-family="Cascadia Code NF" font-size="10.00">TorqueGeneratedJSPromise()</text>
<polygon fill="#bfbfbf" stroke="#bfbfbf" points="196,-306 196,-306 404,-306 404,-306 196,-306"/>
<polygon fill="#bfbfbf" stroke="#bfbfbf" points="196,-162 196,-162 222,-162 222,-162 196,-162"/>
<polygon fill="#bfbfbf" stroke="#bfbfbf" points="222,-162 222,-162 404,-162 404,-162 222,-162"/>
<polygon fill="none" stroke="#bfbfbf" points="196,0 196,-350 404,-350 404,0 196,0"/>
</a>
</g>
</g>
<!-- Node2&#45;&gt;Node1 -->
<g id="edge1_Node000001_Node000002" class="edge">
<title>Node2&#45;&gt;Node1</title>
<g id="a_edge1_Node000001_Node000002"><a xlink:title=" ">
<path fill="none" stroke="#63b8ff" d="M415.35,-175C423.72,-175 432.03,-175 440.09,-175"/>
<polygon fill="none" stroke="#63b8ff" points="415.45,-171.5 405.45,-175 415.45,-178.5 415.45,-171.5"/>
</a>
</g>
</g>
<!-- Node3 -->
<g id="Node000003" class="node">
<title>Node3</title>
<g id="a_Node000003"><a xlink:title=" ">
<polygon fill="white" stroke="none" points="160,-201 0,-201 0,-149 160,-149 160,-201"/>
<text text-anchor="start" x="5" y="-187.5" font-family="Cascadia Code NF" font-size="10.00">JSObjectWithEmbedderSlots</text>
<text text-anchor="start" x="77" y="-171.5" font-family="Cascadia Code NF" font-size="10.00"> </text>
<text text-anchor="start" x="77" y="-155.5" font-family="Cascadia Code NF" font-size="10.00"> </text>
<polygon fill="#bfbfbf" stroke="#bfbfbf" points="0,-183 0,-183 160,-183 160,-183 0,-183"/>
<polygon fill="#bfbfbf" stroke="#bfbfbf" points="0,-167 0,-167 160,-167 160,-167 0,-167"/>
<polygon fill="none" stroke="#bfbfbf" points="0,-149 0,-201 160,-201 160,-149 0,-149"/>
</a>
</g>
</g>
<!-- Node3&#45;&gt;Node2 -->
<g id="edge2_Node000002_Node000003" class="edge">
<title>Node3&#45;&gt;Node2</title>
<g id="a_edge2_Node000002_Node000003"><a xlink:title=" ">
<path fill="none" stroke="#63b8ff" d="M171.21,-175C179.43,-175 187.8,-175 196.12,-175"/>
<polygon fill="none" stroke="#63b8ff" points="171.22,-171.5 161.22,-175 171.22,-178.5 171.22,-171.5"/>
</a>
</g>
</g>
</g>
</svg>
