<?xml version="1.0" encoding="UTF-8" standalone="no"?>
<!DOCTYPE svg PUBLIC "-//W3C//DTD SVG 1.1//EN"
 "http://www.w3.org/Graphics/SVG/1.1/DTD/svg11.dtd">
<!-- Generated by graphviz version 11.0.0 (20240428.1522)
 -->
<!-- Title: v8::internal::maglev::GetKeyedGeneric Pages: 1 -->
<svg width="676pt" height="265pt"
 viewBox="0.00 0.00 676.00 265.00" xmlns="http://www.w3.org/2000/svg" xmlns:xlink="http://www.w3.org/1999/xlink">
<g id="graph0" class="graph" transform="scale(1 1) rotate(0) translate(4 261)">
<title>v8::internal::maglev::GetKeyedGeneric</title>
<!-- Node1 -->
<g id="Node000001" class="node">
<title>Node1</title>
<g id="a_Node000001"><a xlink:title=" ">
<polygon fill="#999999" stroke="none" points="668,-257 476,-257 476,0 668,0 668,-257"/>
<text text-anchor="start" x="512" y="-243.5" font-family="Cascadia Code NF" font-size="10.00">v8::internal::maglev</text>
<text text-anchor="start" x="521" y="-230.75" font-family="Cascadia Code NF" font-size="10.00">::GetKeyedGeneric</text>
<text text-anchor="start" x="480" y="-214.5" font-family="Cascadia Code NF" font-size="10.00">+</text>
<text text-anchor="start" x="490" y="-214.5" font-family="Cascadia Code NF" font-size="10.00">kProperties</text>
<text text-anchor="start" x="480" y="-198.5" font-family="Cascadia Code NF" font-size="10.00">+</text>
<text text-anchor="start" x="490" y="-198.5" font-family="Cascadia Code NF" font-size="10.00">kInputTypes</text>
<text text-anchor="start" x="480" y="-182.5" font-family="Cascadia Code NF" font-size="10.00">+</text>
<text text-anchor="start" x="490" y="-182.5" font-family="Cascadia Code NF" font-size="10.00">kContextIndex</text>
<text text-anchor="start" x="480" y="-166.5" font-family="Cascadia Code NF" font-size="10.00">+</text>
<text text-anchor="start" x="490" y="-166.5" font-family="Cascadia Code NF" font-size="10.00">kObjectIndex</text>
<text text-anchor="start" x="480" y="-150.5" font-family="Cascadia Code NF" font-size="10.00">+</text>
<text text-anchor="start" x="490" y="-150.5" font-family="Cascadia Code NF" font-size="10.00">kKeyIndex</text>
<text text-anchor="start" x="480" y="-134.5" font-family="Cascadia Code NF" font-size="10.00">+</text>
<text text-anchor="start" x="490" y="-134.5" font-family="Cascadia Code NF" font-size="10.00">GetKeyedGeneric()</text>
<text text-anchor="start" x="480" y="-118.5" font-family="Cascadia Code NF" font-size="10.00">+</text>
<text text-anchor="start" x="490" y="-118.5" font-family="Cascadia Code NF" font-size="10.00">feedback()</text>
<text text-anchor="start" x="480" y="-102.5" font-family="Cascadia Code NF" font-size="10.00">+</text>
<text text-anchor="start" x="490" y="-102.5" font-family="Cascadia Code NF" font-size="10.00">context()</text>
<text text-anchor="start" x="480" y="-86.5" font-family="Cascadia Code NF" font-size="10.00">+</text>
<text text-anchor="start" x="490" y="-86.5" font-family="Cascadia Code NF" font-size="10.00">object_input()</text>
<text text-anchor="start" x="480" y="-70.5" font-family="Cascadia Code NF" font-size="10.00">+</text>
<text text-anchor="start" x="490" y="-70.5" font-family="Cascadia Code NF" font-size="10.00">key_input()</text>
<text text-anchor="start" x="480" y="-54.5" font-family="Cascadia Code NF" font-size="10.00">+</text>
<text text-anchor="start" x="490" y="-54.5" font-family="Cascadia Code NF" font-size="10.00">MaxCallStackArgs()</text>
<text text-anchor="start" x="480" y="-38.5" font-family="Cascadia Code NF" font-size="10.00">+</text>
<text text-anchor="start" x="490" y="-38.5" font-family="Cascadia Code NF" font-size="10.00">SetValueLocationConstraints()</text>
<text text-anchor="start" x="480" y="-22.5" font-family="Cascadia Code NF" font-size="10.00">+</text>
<text text-anchor="start" x="490" y="-22.5" font-family="Cascadia Code NF" font-size="10.00">GenerateCode()</text>
<text text-anchor="start" x="480" y="-6.5" font-family="Cascadia Code NF" font-size="10.00">+</text>
<text text-anchor="start" x="490" y="-6.5" font-family="Cascadia Code NF" font-size="10.00">PrintParams()</text>
<polygon fill="#666666" stroke="#666666" points="476,-226 476,-226 668,-226 668,-226 476,-226"/>
<polygon fill="#666666" stroke="#666666" points="476,-146 476,-146 488,-146 488,-146 476,-146"/>
<polygon fill="#666666" stroke="#666666" points="488,-146 488,-146 668,-146 668,-146 488,-146"/>
<polygon fill="none" stroke="#666666" points="476,0 476,-257 668,-257 668,0 476,0"/>
</a>
</g>
</g>
<!-- Node2 -->
<g id="Node000002" class="node">
<title>Node2</title>
<g id="a_Node000002"><a xlink:href="../../df/d36/classv8_1_1internal_1_1maglev_1_1FixedInputNodeTMixin.html" target="_top" xlink:title=" ">
<polygon fill="white" stroke="none" points="440,-193 290,-193 290,-64 440,-64 440,-193"/>
<text text-anchor="start" x="299" y="-179.5" font-family="Cascadia Code NF" font-size="10.00">FixedInputValueNodeT</text>
<text text-anchor="start" x="299" y="-166.75" font-family="Cascadia Code NF" font-size="10.00">&lt; 3, GetKeyedGeneric &gt;</text>
<text text-anchor="start" x="294" y="-150.5" font-family="Cascadia Code NF" font-size="10.00">#</text>
<text text-anchor="start" x="304" y="-150.5" font-family="Cascadia Code NF" font-size="10.00">kInputTypes</text>
<text text-anchor="start" x="294" y="-134.5" font-family="Cascadia Code NF" font-size="10.00">+</text>
<text text-anchor="start" x="304" y="-134.5" font-family="Cascadia Code NF" font-size="10.00">has_inputs()</text>
<text text-anchor="start" x="294" y="-118.5" font-family="Cascadia Code NF" font-size="10.00">+</text>
<text text-anchor="start" x="304" y="-118.5" font-family="Cascadia Code NF" font-size="10.00">input_count()</text>
<text text-anchor="start" x="294" y="-102.5" font-family="Cascadia Code NF" font-size="10.00">+</text>
<text text-anchor="start" x="304" y="-102.5" font-family="Cascadia Code NF" font-size="10.00">end()</text>
<text text-anchor="start" x="294" y="-86.5" font-family="Cascadia Code NF" font-size="10.00">+</text>
<text text-anchor="start" x="304" y="-86.5" font-family="Cascadia Code NF" font-size="10.00">VerifyInputs()</text>
<text text-anchor="start" x="294" y="-70.5" font-family="Cascadia Code NF" font-size="10.00">#</text>
<text text-anchor="start" x="304" y="-70.5" font-family="Cascadia Code NF" font-size="10.00">FixedInputNodeTMixin()</text>
<polygon fill="#bfbfbf" stroke="#bfbfbf" points="290,-162 290,-162 440,-162 440,-162 290,-162"/>
<polygon fill="#bfbfbf" stroke="#bfbfbf" points="290,-146 290,-146 302,-146 302,-146 290,-146"/>
<polygon fill="#bfbfbf" stroke="#bfbfbf" points="302,-146 302,-146 440,-146 440,-146 302,-146"/>
<polygon fill="none" stroke="#bfbfbf" points="290,-64 290,-193 440,-193 440,-64 290,-64"/>
</a>
</g>
</g>
<!-- Node2&#45;&gt;Node1 -->
<g id="edge1_Node000001_Node000002" class="edge">
<title>Node2&#45;&gt;Node1</title>
<g id="a_edge1_Node000001_Node000002"><a xlink:title=" ">
<path fill="none" stroke="#63b8ff" d="M451.23,-128.5C459.46,-128.5 467.84,-128.5 476.16,-128.5"/>
<polygon fill="none" stroke="#63b8ff" points="451.23,-125 441.23,-128.5 451.23,-132 451.23,-125"/>
</a>
</g>
</g>
<!-- Node3 -->
<g id="Node000003" class="node">
<title>Node3</title>
<g id="a_Node000003"><a xlink:href="../../dc/d85/classv8_1_1internal_1_1maglev_1_1NodeTMixin.html" target="_top" xlink:title=" ">
<polygon fill="white" stroke="none" points="254,-193 70,-193 70,-64 254,-64 254,-193"/>
<text text-anchor="start" x="75" y="-179.5" font-family="Cascadia Code NF" font-size="10.00">v8::internal::maglev</text>
<text text-anchor="start" x="75" y="-166.75" font-family="Cascadia Code NF" font-size="10.00">::NodeTMixin&lt; Base, Derived &gt;</text>
<text text-anchor="start" x="159" y="-150.5" font-family="Cascadia Code NF" font-size="10.00"> </text>
<text text-anchor="start" x="97.5" y="-134.5" font-family="Cascadia Code NF" font-size="10.00">+</text>
<text text-anchor="start" x="131" y="-134.5" font-family="Cascadia Code NF" font-size="10.00">opcode()</text>
<text text-anchor="start" x="97.5" y="-118.5" font-family="Cascadia Code NF" font-size="10.00">+</text>
<text text-anchor="start" x="131" y="-118.5" font-family="Cascadia Code NF" font-size="10.00">properties()</text>
<text text-anchor="start" x="97.5" y="-102.5" font-family="Cascadia Code NF" font-size="10.00">+</text>
<text text-anchor="start" x="131" y="-102.5" font-family="Cascadia Code NF" font-size="10.00">New()</text>
<text text-anchor="start" x="97.5" y="-86.5" font-family="Cascadia Code NF" font-size="10.00">+</text>
<text text-anchor="start" x="131" y="-86.5" font-family="Cascadia Code NF" font-size="10.00">New()</text>
<text text-anchor="start" x="97.5" y="-70.5" font-family="Cascadia Code NF" font-size="10.00">#</text>
<text text-anchor="start" x="131" y="-70.5" font-family="Cascadia Code NF" font-size="10.00">NodeTMixin()</text>
<polygon fill="#bfbfbf" stroke="#bfbfbf" points="70,-162 70,-162 254,-162 254,-162 70,-162"/>
<polygon fill="#bfbfbf" stroke="#bfbfbf" points="70,-146 70,-146 254,-146 254,-146 70,-146"/>
<polygon fill="none" stroke="#bfbfbf" points="70,-64 70,-193 254,-193 254,-64 70,-64"/>
</a>
</g>
</g>
<!-- Node3&#45;&gt;Node2 -->
<g id="edge2_Node000002_Node000003" class="edge">
<title>Node3&#45;&gt;Node2</title>
<g id="a_edge2_Node000002_Node000003"><a xlink:title=" ">
<path fill="none" stroke="#63b8ff" d="M265.24,-128.5C273.64,-128.5 282.03,-128.5 290.17,-128.5"/>
<polygon fill="none" stroke="#63b8ff" points="265.31,-125 255.31,-128.5 265.31,-132 265.31,-125"/>
</a>
</g>
</g>
<!-- Node4 -->
<g id="Node000004" class="node">
<title>Node4</title>
<g id="a_Node000004"><a xlink:title=" ">
<polygon fill="white" stroke="none" points="34,-154.5 0,-154.5 0,-102.5 34,-102.5 34,-154.5"/>
<text text-anchor="start" x="5" y="-141" font-family="Cascadia Code NF" font-size="10.00">Base</text>
<text text-anchor="start" x="14" y="-125" font-family="Cascadia Code NF" font-size="10.00"> </text>
<text text-anchor="start" x="14" y="-109" font-family="Cascadia Code NF" font-size="10.00"> </text>
<polygon fill="#bfbfbf" stroke="#bfbfbf" points="0,-136.5 0,-136.5 34,-136.5 34,-136.5 0,-136.5"/>
<polygon fill="#bfbfbf" stroke="#bfbfbf" points="0,-120.5 0,-120.5 34,-120.5 34,-120.5 0,-120.5"/>
<polygon fill="none" stroke="#bfbfbf" points="0,-102.5 0,-154.5 34,-154.5 34,-102.5 0,-102.5"/>
</a>
</g>
</g>
<!-- Node4&#45;&gt;Node3 -->
<g id="edge3_Node000003_Node000004" class="edge">
<title>Node4&#45;&gt;Node3</title>
<g id="a_edge3_Node000003_Node000004"><a xlink:title=" ">
<path fill="none" stroke="#63b8ff" d="M45.25,-128.5C52.68,-128.5 61.15,-128.5 70.07,-128.5"/>
<polygon fill="none" stroke="#63b8ff" points="45.36,-125 35.36,-128.5 45.36,-132 45.36,-125"/>
</a>
</g>
</g>
</g>
</svg>
