<?xml version="1.0" encoding="UTF-8" standalone="no"?>
<!DOCTYPE svg PUBLIC "-//W3C//DTD SVG 1.1//EN"
 "http://www.w3.org/Graphics/SVG/1.1/DTD/svg11.dtd">
<!-- Generated by graphviz version 11.0.0 (20240428.1522)
 -->
<!-- Title: v8::internal::HiddenFactory Pages: 1 -->
<!--zoomable 425 -->

<svg id="main" version="1.1" xmlns="http://www.w3.org/2000/svg" xmlns:xlink="http://www.w3.org/1999/xlink" xml:space="preserve" onload="init(evt)">
<style type="text/css"><![CDATA[
.node, .edge {opacity: 0.7;}
.node.selected, .edge.selected {opacity: 1;}
.edge:hover path { stroke: red; }
.edge:hover polygon { stroke: red; fill: red; }
svg#main { background-color: #111; }
]]></style>

<defs>
  <circle id="rim" cx="0" cy="0" r="7"/>
  <circle id="rim2" cx="0" cy="0" r="3.5"/>
  <g id="zoomPlus">
    <use xlink:href="#rim" fill="#404040"><set attributeName="fill" to="#808080" begin="zoomplus.mouseover" end="zoomplus.mouseout"/></use>
    <path d="M-4,0h8M0,-4v8" fill="none" stroke="white" stroke-width="1.5" pointer-events="none"/>
  </g>
  <g id="zoomMin">
    <use xlink:href="#rim" fill="#404040"><set attributeName="fill" to="#808080" begin="zoomminus.mouseover" end="zoomminus.mouseout"/></use>
    <path d="M-4,0h8" fill="none" stroke="white" stroke-width="1.5" pointer-events="none"/>
  </g>
  <g id="arrowUp" transform="translate(30 24)">
    <use xlink:href="#rim"/>
    <path pointer-events="none" fill="none" stroke="white" stroke-width="1.5" d="M0,-3.0v7 M-2.5,-0.5L0,-3.0L2.5,-0.5"/>
  </g>
  <g id="arrowRight" transform="rotate(90) translate(36 -43)">
    <use xlink:href="#rim"/>
    <path pointer-events="none" fill="none" stroke="white" stroke-width="1.5" d="M0,-3.0v7 M-2.5,-0.5L0,-3.0L2.5,-0.5"/>
  </g>
  <g id="arrowDown" transform="rotate(180) translate(-30 -48)">
    <use xlink:href="#rim"/>
    <path pointer-events="none" fill="none" stroke="white" stroke-width="1.5" d="M0,-3.0v7 M-2.5,-0.5L0,-3.0L2.5,-0.5"/>
  </g>
  <g id="arrowLeft" transform="rotate(270) translate(-36 17)">
    <use xlink:href="#rim"/>
    <path pointer-events="none" fill="none" stroke="white" stroke-width="1.5" d="M0,-3.0v7 M-2.5,-0.5L0,-3.0L2.5,-0.5"/>
  </g>
  <g id="resetDef">
    <use xlink:href="#rim2" fill="#404040"><set attributeName="fill" to="#808080" begin="reset.mouseover" end="reset.mouseout"/></use>
  </g>
</defs>
<script type="application/ecmascript">
var viewWidth = 988;
var viewHeight = 425;
var sectionId = 'dynsection-1';
</script>
<script type="application/ecmascript" xlink:href="../../svg.min.js"/>
<svg id="graph" class="graph">
<g id="viewport">
<title>v8::internal::HiddenFactory</title>
<!-- Node1 -->
<g id="Node000001" class="node">
<title>Node1</title>
<g id="a_Node000001"><a xlink:title=" ">
<polygon fill="#999999" stroke="none" points="980,-234.5 808,-234.5 808,-182.5 980,-182.5 980,-234.5"/>
<text text-anchor="start" x="813" y="-221" font-family="Cascadia Code NF" font-size="10.00">v8::internal::HiddenFactory</text>
<text text-anchor="start" x="891" y="-205" font-family="Cascadia Code NF" font-size="10.00"> </text>
<text text-anchor="start" x="891" y="-189" font-family="Cascadia Code NF" font-size="10.00"> </text>
<polygon fill="#666666" stroke="#666666" points="808,-216.5 808,-216.5 980,-216.5 980,-216.5 808,-216.5"/>
<polygon fill="#666666" stroke="#666666" points="808,-200.5 808,-200.5 980,-200.5 980,-200.5 808,-200.5"/>
<polygon fill="none" stroke="#666666" points="808,-182.5 808,-234.5 980,-234.5 980,-182.5 808,-182.5"/>
</a>
</g>
</g>
<!-- Node2 -->
<g id="Node000002" class="node">
<title>Node2</title>
<g id="a_Node000002"><a xlink:href="../../db/d08/classv8_1_1internal_1_1Factory.html" target="_top" xlink:title=" ">
<polygon fill="white" stroke="none" points="772,-353 574,-353 574,-64 772,-64 772,-353"/>
<text text-anchor="start" x="610" y="-339.5" font-family="Cascadia Code NF" font-size="10.00">v8::internal::Factory</text>
<text text-anchor="start" x="670" y="-323.5" font-family="Cascadia Code NF" font-size="10.00"> </text>
<text text-anchor="start" x="578" y="-307.5" font-family="Cascadia Code NF" font-size="10.00">+</text>
<text text-anchor="start" x="588" y="-307.5" font-family="Cascadia Code NF" font-size="10.00">read_only_roots()</text>
<text text-anchor="start" x="578" y="-291.5" font-family="Cascadia Code NF" font-size="10.00">+</text>
<text text-anchor="start" x="588" y="-291.5" font-family="Cascadia Code NF" font-size="10.00">NewHole()</text>
<text text-anchor="start" x="578" y="-275.5" font-family="Cascadia Code NF" font-size="10.00">+</text>
<text text-anchor="start" x="588" y="-275.5" font-family="Cascadia Code NF" font-size="10.00">NewPropertyArray()</text>
<text text-anchor="start" x="578" y="-259.5" font-family="Cascadia Code NF" font-size="10.00">+</text>
<text text-anchor="start" x="588" y="-259.5" font-family="Cascadia Code NF" font-size="10.00">TryNewFixedArray()</text>
<text text-anchor="start" x="578" y="-243.5" font-family="Cascadia Code NF" font-size="10.00">+</text>
<text text-anchor="start" x="588" y="-243.5" font-family="Cascadia Code NF" font-size="10.00">NewFeedbackVector()</text>
<text text-anchor="start" x="578" y="-227.5" font-family="Cascadia Code NF" font-size="10.00">+</text>
<text text-anchor="start" x="588" y="-227.5" font-family="Cascadia Code NF" font-size="10.00">NewEmbedderDataArray()</text>
<text text-anchor="start" x="578" y="-211.5" font-family="Cascadia Code NF" font-size="10.00">+</text>
<text text-anchor="start" x="588" y="-211.5" font-family="Cascadia Code NF" font-size="10.00">NewFixedDoubleArrayWithHoles()</text>
<text text-anchor="start" x="578" y="-195.5" font-family="Cascadia Code NF" font-size="10.00">+</text>
<text text-anchor="start" x="588" y="-195.5" font-family="Cascadia Code NF" font-size="10.00">NewNameDictionary()</text>
<text text-anchor="start" x="578" y="-179.5" font-family="Cascadia Code NF" font-size="10.00">+</text>
<text text-anchor="start" x="588" y="-179.5" font-family="Cascadia Code NF" font-size="10.00">NewOrderedHashSet()</text>
<text text-anchor="start" x="578" y="-163.5" font-family="Cascadia Code NF" font-size="10.00">+</text>
<text text-anchor="start" x="588" y="-163.5" font-family="Cascadia Code NF" font-size="10.00">NewOrderedHashMap()</text>
<text text-anchor="start" x="588" y="-147.5" font-family="Cascadia Code NF" font-size="10.00">and 172 more...</text>
<text text-anchor="start" x="578" y="-131.5" font-family="Cascadia Code NF" font-size="10.00">+</text>
<text text-anchor="start" x="588" y="-131.5" font-family="Cascadia Code NF" font-size="10.00">TypeAndSizeForElementsKind()</text>
<text text-anchor="start" x="578" y="-115.5" font-family="Cascadia Code NF" font-size="10.00">+</text>
<text text-anchor="start" x="588" y="-115.5" font-family="Cascadia Code NF" font-size="10.00">IsFunctionModeWithPrototype()</text>
<text text-anchor="start" x="578" y="-99.5" font-family="Cascadia Code NF" font-size="10.00">+</text>
<text text-anchor="start" x="588" y="-99.5" font-family="Cascadia Code NF" font-size="10.00">IsFunctionModeWithWritable</text>
<text text-anchor="start" x="588" y="-86.75" font-family="Cascadia Code NF" font-size="10.00">Prototype()</text>
<text text-anchor="start" x="578" y="-70.5" font-family="Cascadia Code NF" font-size="10.00">+</text>
<text text-anchor="start" x="588" y="-70.5" font-family="Cascadia Code NF" font-size="10.00">IsFunctionModeWithName()</text>
<polygon fill="#bfbfbf" stroke="#bfbfbf" points="574,-335 574,-335 772,-335 772,-335 574,-335"/>
<polygon fill="#bfbfbf" stroke="#bfbfbf" points="574,-319 574,-319 772,-319 772,-319 574,-319"/>
<polygon fill="none" stroke="#bfbfbf" points="574,-64 574,-353 772,-353 772,-64 574,-64"/>
</a>
</g>
</g>
<!-- Node2&#45;&gt;Node1 -->
<g id="edge1_Node000001_Node000002" class="edge">
<title>Node2&#45;&gt;Node1</title>
<g id="a_edge1_Node000001_Node000002"><a xlink:title=" ">
<path fill="none" stroke="#8b1a1a" d="M783.32,-208.5C791.67,-208.5 800.01,-208.5 808.16,-208.5"/>
<polygon fill="none" stroke="#8b1a1a" points="783.48,-205 773.48,-208.5 783.48,-212 783.48,-205"/>
</a>
</g>
</g>
<!-- Node3 -->
<g id="Node000003" class="node">
<title>Node3</title>
<g id="a_Node000003"><a xlink:href="../../dc/d2c/classv8_1_1internal_1_1FactoryBase.html" target="_top" xlink:title=" ">
<polygon fill="white" stroke="none" points="538,-417 340,-417 340,0 538,0 538,-417"/>
<text text-anchor="start" x="364" y="-403.5" font-family="Cascadia Code NF" font-size="10.00">v8::internal::FactoryBase</text>
<text text-anchor="start" x="406" y="-390.75" font-family="Cascadia Code NF" font-size="10.00">&lt; Factory &gt;</text>
<text text-anchor="start" x="436" y="-374.5" font-family="Cascadia Code NF" font-size="10.00"> </text>
<text text-anchor="start" x="344" y="-358.5" font-family="Cascadia Code NF" font-size="10.00">+</text>
<text text-anchor="start" x="354" y="-358.5" font-family="Cascadia Code NF" font-size="10.00">NewCode()</text>
<text text-anchor="start" x="344" y="-342.5" font-family="Cascadia Code NF" font-size="10.00">+</text>
<text text-anchor="start" x="354" y="-342.5" font-family="Cascadia Code NF" font-size="10.00">NewCodeWrapper()</text>
<text text-anchor="start" x="344" y="-326.5" font-family="Cascadia Code NF" font-size="10.00">+</text>
<text text-anchor="start" x="354" y="-326.5" font-family="Cascadia Code NF" font-size="10.00">ToBoolean()</text>
<text text-anchor="start" x="344" y="-310.5" font-family="Cascadia Code NF" font-size="10.00">+</text>
<text text-anchor="start" x="354" y="-310.5" font-family="Cascadia Code NF" font-size="10.00">NewNumber()</text>
<text text-anchor="start" x="344" y="-294.5" font-family="Cascadia Code NF" font-size="10.00">+</text>
<text text-anchor="start" x="354" y="-294.5" font-family="Cascadia Code NF" font-size="10.00">NewNumberFromInt()</text>
<text text-anchor="start" x="344" y="-278.5" font-family="Cascadia Code NF" font-size="10.00">+</text>
<text text-anchor="start" x="354" y="-278.5" font-family="Cascadia Code NF" font-size="10.00">NewNumberFromUint()</text>
<text text-anchor="start" x="344" y="-262.5" font-family="Cascadia Code NF" font-size="10.00">+</text>
<text text-anchor="start" x="354" y="-262.5" font-family="Cascadia Code NF" font-size="10.00">NewNumberFromSize()</text>
<text text-anchor="start" x="344" y="-246.5" font-family="Cascadia Code NF" font-size="10.00">+</text>
<text text-anchor="start" x="354" y="-246.5" font-family="Cascadia Code NF" font-size="10.00">NewNumberFromInt64()</text>
<text text-anchor="start" x="344" y="-230.5" font-family="Cascadia Code NF" font-size="10.00">+</text>
<text text-anchor="start" x="354" y="-230.5" font-family="Cascadia Code NF" font-size="10.00">NewHeapNumber()</text>
<text text-anchor="start" x="344" y="-214.5" font-family="Cascadia Code NF" font-size="10.00">+</text>
<text text-anchor="start" x="354" y="-214.5" font-family="Cascadia Code NF" font-size="10.00">NewHeapNumber()</text>
<text text-anchor="start" x="354" y="-198.5" font-family="Cascadia Code NF" font-size="10.00">and 69 more...</text>
<text text-anchor="start" x="344" y="-182.5" font-family="Cascadia Code NF" font-size="10.00">#</text>
<text text-anchor="start" x="354" y="-182.5" font-family="Cascadia Code NF" font-size="10.00">AllocateRawArray()</text>
<text text-anchor="start" x="344" y="-166.5" font-family="Cascadia Code NF" font-size="10.00">#</text>
<text text-anchor="start" x="354" y="-166.5" font-family="Cascadia Code NF" font-size="10.00">AllocateRawFixedArray()</text>
<text text-anchor="start" x="344" y="-150.5" font-family="Cascadia Code NF" font-size="10.00">#</text>
<text text-anchor="start" x="354" y="-150.5" font-family="Cascadia Code NF" font-size="10.00">AllocateRawWeakArrayList()</text>
<text text-anchor="start" x="344" y="-134.5" font-family="Cascadia Code NF" font-size="10.00">#</text>
<text text-anchor="start" x="354" y="-134.5" font-family="Cascadia Code NF" font-size="10.00">NewStructInternal()</text>
<text text-anchor="start" x="344" y="-118.5" font-family="Cascadia Code NF" font-size="10.00">#</text>
<text text-anchor="start" x="354" y="-118.5" font-family="Cascadia Code NF" font-size="10.00">NewStructInternal()</text>
<text text-anchor="start" x="344" y="-102.5" font-family="Cascadia Code NF" font-size="10.00">#</text>
<text text-anchor="start" x="354" y="-102.5" font-family="Cascadia Code NF" font-size="10.00">AllocateRawWithImmortalMap()</text>
<text text-anchor="start" x="344" y="-86.5" font-family="Cascadia Code NF" font-size="10.00">#</text>
<text text-anchor="start" x="354" y="-86.5" font-family="Cascadia Code NF" font-size="10.00">NewWithImmortalMap()</text>
<text text-anchor="start" x="344" y="-70.5" font-family="Cascadia Code NF" font-size="10.00">#</text>
<text text-anchor="start" x="354" y="-70.5" font-family="Cascadia Code NF" font-size="10.00">NewFixedArrayWithFiller()</text>
<text text-anchor="start" x="344" y="-54.5" font-family="Cascadia Code NF" font-size="10.00">#</text>
<text text-anchor="start" x="354" y="-54.5" font-family="Cascadia Code NF" font-size="10.00">NewSharedFunctionInfo()</text>
<text text-anchor="start" x="344" y="-38.5" font-family="Cascadia Code NF" font-size="10.00">#</text>
<text text-anchor="start" x="354" y="-38.5" font-family="Cascadia Code NF" font-size="10.00">NewSharedFunctionInfo()</text>
<text text-anchor="start" x="344" y="-22.5" font-family="Cascadia Code NF" font-size="10.00">#</text>
<text text-anchor="start" x="354" y="-22.5" font-family="Cascadia Code NF" font-size="10.00">MakeOrFindTwoCharacterString()</text>
<text text-anchor="start" x="344" y="-6.5" font-family="Cascadia Code NF" font-size="10.00">#</text>
<text text-anchor="start" x="354" y="-6.5" font-family="Cascadia Code NF" font-size="10.00">NewRawStringWithMap()</text>
<polygon fill="#bfbfbf" stroke="#bfbfbf" points="340,-386 340,-386 538,-386 538,-386 340,-386"/>
<polygon fill="#bfbfbf" stroke="#bfbfbf" points="340,-370 340,-370 538,-370 538,-370 340,-370"/>
<polygon fill="none" stroke="#bfbfbf" points="340,0 340,-417 538,-417 538,0 340,0"/>
</a>
</g>
</g>
<!-- Node3&#45;&gt;Node2 -->
<g id="edge2_Node000002_Node000003" class="edge">
<title>Node3&#45;&gt;Node2</title>
<g id="a_edge2_Node000002_Node000003"><a xlink:title=" ">
<path fill="none" stroke="#63b8ff" d="M549.04,-208.5C557.38,-208.5 565.76,-208.5 574.02,-208.5"/>
<polygon fill="none" stroke="#63b8ff" points="549.23,-205 539.23,-208.5 549.23,-212 549.23,-205"/>
</a>
</g>
</g>
<!-- Node4 -->
<g id="Node000004" class="node">
<title>Node4</title>
<g id="a_Node000004"><a xlink:title=" ">
<polygon fill="white" stroke="none" points="142,-280 0,-280 0,-215 142,-215 142,-280"/>
<text text-anchor="start" x="5" y="-266.5" font-family="Cascadia Code NF" font-size="10.00">TorqueGeneratedFactory</text>
<text text-anchor="start" x="38" y="-253.75" font-family="Cascadia Code NF" font-size="10.00">&lt; Factory &gt;</text>
<text text-anchor="start" x="68" y="-237.5" font-family="Cascadia Code NF" font-size="10.00"> </text>
<text text-anchor="start" x="68" y="-221.5" font-family="Cascadia Code NF" font-size="10.00"> </text>
<polygon fill="#bfbfbf" stroke="#bfbfbf" points="0,-249 0,-249 142,-249 142,-249 0,-249"/>
<polygon fill="#bfbfbf" stroke="#bfbfbf" points="0,-233 0,-233 142,-233 142,-233 0,-233"/>
<polygon fill="none" stroke="#bfbfbf" points="0,-215 0,-280 142,-280 142,-215 0,-215"/>
</a>
</g>
</g>
<!-- Node4&#45;&gt;Node3 -->
<g id="edge3_Node000003_Node000004" class="edge">
<title>Node4&#45;&gt;Node3</title>
<g id="a_edge3_Node000003_Node000004"><a xlink:title=" ">
<path fill="none" stroke="#63b8ff" d="M152.85,-238.88C208.11,-233 281.66,-225.16 340.22,-218.92"/>
<polygon fill="none" stroke="#63b8ff" points="152.78,-235.37 143.21,-239.91 153.52,-242.33 152.78,-235.37"/>
</a>
</g>
</g>
<!-- Node5 -->
<g id="Node000005" class="node">
<title>Node5</title>
<g id="a_Node000005"><a xlink:href="../../d1/da0/classint.html" target="_top" xlink:title=" ">
<polygon fill="white" stroke="none" points="85,-196.5 57,-196.5 57,-144.5 85,-144.5 85,-196.5"/>
<text text-anchor="start" x="62" y="-183" font-family="Cascadia Code NF" font-size="10.00">int</text>
<text text-anchor="start" x="68" y="-167" font-family="Cascadia Code NF" font-size="10.00"> </text>
<text text-anchor="start" x="68" y="-151" font-family="Cascadia Code NF" font-size="10.00"> </text>
<polygon fill="#bfbfbf" stroke="#bfbfbf" points="57,-178.5 57,-178.5 85,-178.5 85,-178.5 57,-178.5"/>
<polygon fill="#bfbfbf" stroke="#bfbfbf" points="57,-162.5 57,-162.5 85,-162.5 85,-162.5 57,-162.5"/>
<polygon fill="none" stroke="#bfbfbf" points="57,-144.5 57,-196.5 85,-196.5 85,-144.5 57,-144.5"/>
</a>
</g>
</g>
<!-- Node5&#45;&gt;Node3 -->
<g id="edge4_Node000003_Node000005" class="edge">
<title>Node5&#45;&gt;Node3</title>
<g id="a_edge4_Node000003_Node000005"><a xlink:title=" ">
<path fill="none" stroke="#63b8ff" d="M84.6,-171.81C122.52,-175.74 238.43,-187.78 327.27,-197"/>
<polygon fill="none" stroke="#63b8ff" points="327.34,-197.01 333.72,-193.65 339.28,-198.25 332.9,-201.61 327.34,-197.01"/>
</a>
</g>
<text text-anchor="middle" x="241" y="-198.75" font-family="Cascadia Code NF" font-size="10.00" fill="grey"> #kNumberToStringBufferSize</text>
</g>
</g>
</svg>

<g id="navigator" transform="translate(0 0)" fill="#404254">
  <rect fill="#f2f5e9" fill-opacity="0.5" stroke="#606060" stroke-width=".5" x="0" y="0" width="60" height="60"/>
  <use id="zoomplus" xlink:href="#zoomPlus" x="17" y="9" onmousedown="handleZoom(evt,'in')"/>
  <use id="zoomminus" xlink:href="#zoomMin" x="42" y="9" onmousedown="handleZoom(evt,'out')"/>
  <use id="reset" xlink:href="#resetDef" x="30" y="36" onmousedown="handleReset()"/>
   <use id="arrowup" xlink:href="#arrowUp" x="0" y="0" onmousedown="handlePan(0,-1)"/>
  <use id="arrowright" xlink:href="#arrowRight" x="0" y="0" onmousedown="handlePan(1,0)"/>
  <use id="arrowdown" xlink:href="#arrowDown" x="0" y="0" onmousedown="handlePan(0,1)"/>
  <use id="arrowleft" xlink:href="#arrowLeft" x="0" y="0" onmousedown="handlePan(-1,0)"/>
</g>
<svg viewBox="0 0 15 15" width="100%" height="30px" preserveAspectRatio="xMaxYMin meet">
 <g id="arrow_out" transform="scale(0.3 0.3)">
  <a xlink:href="classv8_1_1internal_1_1HiddenFactory__coll__graph_org.svg" target="_base">
   <rect id="button" ry="5" rx="5" y="6" x="6" height="38" width="38"
        fill="#f2f5e9" fill-opacity="0.5" stroke="#606060" stroke-width="1.0"/>
   <path id="arrow"
     d="M 11.500037,31.436501 C 11.940474,20.09759 22.043105,11.32322 32.158766,21.979434 L 37.068811,17.246167 C 37.068811,17.246167 37.088388,32 37.088388,32 L 22.160133,31.978069 C 22.160133,31.978069 26.997745,27.140456 26.997745,27.140456 C 18.528582,18.264221 13.291696,25.230495 11.500037,31.436501 z"
     style="fill:#404040;"/>
  </a>
 </g>
</svg>

<style type='text/css'>
<![CDATA[
[data-mouse-over-selected='false'] { opacity: 0.7; }
[data-mouse-over-selected='true']  { opacity: 1.0; }
]]>
</style>
<script type="application/ecmascript"><![CDATA[
document.addEventListener('DOMContentLoaded', (event) => {
  highlightEdges();
  highlightAdjacentNodes();
});
]]></script>
</svg>
