<?xml version="1.0" encoding="UTF-8" standalone="no"?>
<!DOCTYPE svg PUBLIC "-//W3C//DTD SVG 1.1//EN"
 "http://www.w3.org/Graphics/SVG/1.1/DTD/svg11.dtd">
<!-- Generated by graphviz version 11.0.0 (20240428.1522)
 -->
<!-- Title: v8::internal::Coverage Pages: 1 -->
<svg width="404pt" height="92pt"
 viewBox="0.00 0.00 404.00 92.00" xmlns="http://www.w3.org/2000/svg" xmlns:xlink="http://www.w3.org/1999/xlink">
<g id="graph0" class="graph" transform="scale(1 1) rotate(0) translate(4 88)">
<title>v8::internal::Coverage</title>
<!-- Node1 -->
<g id="Node000001" class="node">
<title>Node1</title>
<g id="a_Node000001"><a xlink:title=" ">
<polygon fill="#999999" stroke="none" points="396,-84 254,-84 254,0 396,0 396,-84"/>
<text text-anchor="start" x="259" y="-70.5" font-family="Cascadia Code NF" font-size="10.00">v8::internal::Coverage</text>
<text text-anchor="start" x="322" y="-54.5" font-family="Cascadia Code NF" font-size="10.00"> </text>
<text text-anchor="start" x="260.5" y="-38.5" font-family="Cascadia Code NF" font-size="10.00">+</text>
<text text-anchor="start" x="273" y="-38.5" font-family="Cascadia Code NF" font-size="10.00">CollectPrecise()</text>
<text text-anchor="start" x="260.5" y="-22.5" font-family="Cascadia Code NF" font-size="10.00">+</text>
<text text-anchor="start" x="273" y="-22.5" font-family="Cascadia Code NF" font-size="10.00">CollectBestEffort()</text>
<text text-anchor="start" x="260.5" y="-6.5" font-family="Cascadia Code NF" font-size="10.00">+</text>
<text text-anchor="start" x="273" y="-6.5" font-family="Cascadia Code NF" font-size="10.00">SelectMode()</text>
<polygon fill="#666666" stroke="#666666" points="254,-66 254,-66 396,-66 396,-66 254,-66"/>
<polygon fill="#666666" stroke="#666666" points="254,-50 254,-50 396,-50 396,-50 254,-50"/>
<polygon fill="none" stroke="#666666" points="254,0 254,-84 396,-84 396,0 254,0"/>
</a>
</g>
</g>
<!-- Node2 -->
<g id="Node000002" class="node">
<title>Node2</title>
<g id="a_Node000002"><a xlink:title=" ">
<polygon fill="white" stroke="none" points="218,-68 112,-68 112,-16 218,-16 218,-68"/>
<text text-anchor="start" x="117" y="-54.5" font-family="Cascadia Code NF" font-size="10.00">std::vector&lt; T &gt;</text>
<text text-anchor="start" x="162" y="-38.5" font-family="Cascadia Code NF" font-size="10.00"> </text>
<text text-anchor="start" x="162" y="-22.5" font-family="Cascadia Code NF" font-size="10.00"> </text>
<polygon fill="#666666" stroke="#666666" points="112,-50 112,-50 218,-50 218,-50 112,-50"/>
<polygon fill="#666666" stroke="#666666" points="112,-34 112,-34 218,-34 218,-34 112,-34"/>
<polygon fill="none" stroke="#666666" points="112,-16 112,-68 218,-68 218,-16 112,-16"/>
</a>
</g>
</g>
<!-- Node2&#45;&gt;Node1 -->
<g id="edge1_Node000001_Node000002" class="edge">
<title>Node2&#45;&gt;Node1</title>
<g id="a_edge1_Node000001_Node000002"><a xlink:title=" ">
<path fill="none" stroke="#63b8ff" d="M229.13,-42C237.33,-42 245.76,-42 254.06,-42"/>
<polygon fill="none" stroke="#63b8ff" points="229.25,-38.5 219.25,-42 229.25,-45.5 229.25,-38.5"/>
</a>
</g>
</g>
<!-- Node3 -->
<g id="Node000003" class="node">
<title>Node3</title>
<g id="a_Node000003"><a xlink:title=" ">
<polygon fill="white" stroke="none" points="16,-68 0,-68 0,-16 16,-16 16,-68"/>
<text text-anchor="start" x="5" y="-54.5" font-family="Cascadia Code NF" font-size="10.00">T</text>
<text text-anchor="start" x="5" y="-38.5" font-family="Cascadia Code NF" font-size="10.00"> </text>
<text text-anchor="start" x="5" y="-22.5" font-family="Cascadia Code NF" font-size="10.00"> </text>
<polygon fill="#bfbfbf" stroke="#bfbfbf" points="0,-50 0,-50 16,-50 16,-50 0,-50"/>
<polygon fill="#bfbfbf" stroke="#bfbfbf" points="0,-34 0,-34 16,-34 16,-34 0,-34"/>
<polygon fill="none" stroke="#bfbfbf" points="0,-16 0,-68 16,-68 16,-16 0,-16"/>
</a>
</g>
</g>
<!-- Node3&#45;&gt;Node2 -->
<g id="edge2_Node000002_Node000003" class="edge">
<title>Node3&#45;&gt;Node2</title>
<g id="a_edge2_Node000002_Node000003"><a xlink:title=" ">
<path fill="none" stroke="#63b8ff" d="M15.66,-42C30.24,-42 66.31,-42 99.23,-42"/>
<polygon fill="none" stroke="#63b8ff" points="99.22,-42 105.22,-38 111.22,-42 105.22,-46 99.22,-42"/>
</a>
</g>
<text text-anchor="middle" x="64" y="-45.25" font-family="Cascadia Code NF" font-size="10.00" fill="grey"> +elements</text>
</g>
</g>
</svg>
