<?xml version="1.0" encoding="UTF-8" standalone="no"?>
<!DOCTYPE svg PUBLIC "-//W3C//DTD SVG 1.1//EN"
 "http://www.w3.org/Graphics/SVG/1.1/DTD/svg11.dtd">
<!-- Generated by graphviz version 11.0.0 (20240428.1522)
 -->
<!-- Title: v8_inspector::WrapSerializationOptions Pages: 1 -->
<svg width="882pt" height="289pt"
 viewBox="0.00 0.00 882.00 288.50" xmlns="http://www.w3.org/2000/svg" xmlns:xlink="http://www.w3.org/1999/xlink">
<g id="graph0" class="graph" transform="scale(1 1) rotate(0) translate(4 284.5)">
<title>v8_inspector::WrapSerializationOptions</title>
<!-- Node1 -->
<g id="Node000001" class="node">
<title>Node1</title>
<g id="a_Node000001"><a xlink:title=" ">
<polygon fill="#999999" stroke="none" points="874,-216 678,-216 678,-151 874,-151 874,-216"/>
<text text-anchor="start" x="683" y="-202.5" font-family="Cascadia Code NF" font-size="10.00">v8_inspector::WrapSerialization</text>
<text text-anchor="start" x="755" y="-189.75" font-family="Cascadia Code NF" font-size="10.00">Options</text>
<text text-anchor="start" x="773" y="-173.5" font-family="Cascadia Code NF" font-size="10.00"> </text>
<text text-anchor="start" x="773" y="-157.5" font-family="Cascadia Code NF" font-size="10.00"> </text>
<polygon fill="#666666" stroke="#666666" points="678,-185 678,-185 874,-185 874,-185 678,-185"/>
<polygon fill="#666666" stroke="#666666" points="678,-169 678,-169 874,-169 874,-169 678,-169"/>
<polygon fill="none" stroke="#666666" points="678,-151 678,-216 874,-216 874,-151 678,-151"/>
</a>
</g>
</g>
<!-- Node2 -->
<g id="Node000002" class="node">
<title>Node2</title>
<g id="a_Node000002"><a xlink:href="../../d1/da0/classint.html" target="_top" xlink:title=" ">
<polygon fill="white" stroke="none" points="447,-280.5 419,-280.5 419,-228.5 447,-228.5 447,-280.5"/>
<text text-anchor="start" x="424" y="-267" font-family="Cascadia Code NF" font-size="10.00">int</text>
<text text-anchor="start" x="430" y="-251" font-family="Cascadia Code NF" font-size="10.00"> </text>
<text text-anchor="start" x="430" y="-235" font-family="Cascadia Code NF" font-size="10.00"> </text>
<polygon fill="#bfbfbf" stroke="#bfbfbf" points="419,-262.5 419,-262.5 447,-262.5 447,-262.5 419,-262.5"/>
<polygon fill="#bfbfbf" stroke="#bfbfbf" points="419,-246.5 419,-246.5 447,-246.5 447,-246.5 419,-246.5"/>
<polygon fill="none" stroke="#bfbfbf" points="419,-228.5 419,-280.5 447,-280.5 447,-228.5 419,-228.5"/>
</a>
</g>
</g>
<!-- Node2&#45;&gt;Node1 -->
<g id="edge1_Node000001_Node000002" class="edge">
<title>Node2&#45;&gt;Node1</title>
<g id="a_edge1_Node000001_Node000002"><a xlink:title=" ">
<path fill="none" stroke="#63b8ff" d="M446.95,-251.8C482.59,-244.38 584.85,-223.09 665.82,-206.23"/>
<polygon fill="none" stroke="#63b8ff" points="665.48,-206.3 670.54,-201.16 677.23,-203.86 672.17,-209 665.48,-206.3"/>
</a>
</g>
<text text-anchor="middle" x="594" y="-236.75" font-family="Cascadia Code NF" font-size="10.00" fill="grey"> +maxDepth</text>
</g>
<!-- Node3 -->
<g id="Node000003" class="node">
<title>Node3</title>
<g id="a_Node000003"><a xlink:href="../../dd/d89/classv8_1_1Global.html" target="_top" xlink:title=" ">
<polygon fill="white" stroke="none" points="510,-210.5 356,-210.5 356,-14.5 510,-14.5 510,-210.5"/>
<text text-anchor="start" x="361" y="-197" font-family="Cascadia Code NF" font-size="10.00">v8::Global&lt; v8::Object &gt;</text>
<text text-anchor="start" x="430" y="-181" font-family="Cascadia Code NF" font-size="10.00"> </text>
<text text-anchor="start" x="377.5" y="-165" font-family="Cascadia Code NF" font-size="10.00">+</text>
<text text-anchor="start" x="405" y="-165" font-family="Cascadia Code NF" font-size="10.00">Global()</text>
<text text-anchor="start" x="377.5" y="-149" font-family="Cascadia Code NF" font-size="10.00">+</text>
<text text-anchor="start" x="405" y="-149" font-family="Cascadia Code NF" font-size="10.00">Global()</text>
<text text-anchor="start" x="377.5" y="-133" font-family="Cascadia Code NF" font-size="10.00">+</text>
<text text-anchor="start" x="405" y="-133" font-family="Cascadia Code NF" font-size="10.00">Global()</text>
<text text-anchor="start" x="377.5" y="-117" font-family="Cascadia Code NF" font-size="10.00">+</text>
<text text-anchor="start" x="405" y="-117" font-family="Cascadia Code NF" font-size="10.00">Global()</text>
<text text-anchor="start" x="377.5" y="-101" font-family="Cascadia Code NF" font-size="10.00">+</text>
<text text-anchor="start" x="405" y="-101" font-family="Cascadia Code NF" font-size="10.00">Global()</text>
<text text-anchor="start" x="377.5" y="-85" font-family="Cascadia Code NF" font-size="10.00">+</text>
<text text-anchor="start" x="405" y="-85" font-family="Cascadia Code NF" font-size="10.00">~Global()</text>
<text text-anchor="start" x="377.5" y="-69" font-family="Cascadia Code NF" font-size="10.00">+</text>
<text text-anchor="start" x="405" y="-69" font-family="Cascadia Code NF" font-size="10.00">operator=()</text>
<text text-anchor="start" x="377.5" y="-53" font-family="Cascadia Code NF" font-size="10.00">+</text>
<text text-anchor="start" x="405" y="-53" font-family="Cascadia Code NF" font-size="10.00">operator=()</text>
<text text-anchor="start" x="377.5" y="-37" font-family="Cascadia Code NF" font-size="10.00">+</text>
<text text-anchor="start" x="405" y="-37" font-family="Cascadia Code NF" font-size="10.00">operator=()</text>
<text text-anchor="start" x="377.5" y="-21" font-family="Cascadia Code NF" font-size="10.00">+</text>
<text text-anchor="start" x="405" y="-21" font-family="Cascadia Code NF" font-size="10.00">Pass()</text>
<polygon fill="#666666" stroke="#666666" points="356,-192.5 356,-192.5 510,-192.5 510,-192.5 356,-192.5"/>
<polygon fill="#666666" stroke="#666666" points="356,-176.5 356,-176.5 510,-176.5 510,-176.5 356,-176.5"/>
<polygon fill="none" stroke="#666666" points="356,-14.5 356,-210.5 510,-210.5 510,-14.5 356,-14.5"/>
</a>
</g>
</g>
<!-- Node3&#45;&gt;Node1 -->
<g id="edge2_Node000001_Node000003" class="edge">
<title>Node3&#45;&gt;Node1</title>
<g id="a_edge2_Node000001_Node000003"><a xlink:title=" ">
<path fill="none" stroke="#63b8ff" d="M509.68,-128.26C555.44,-137.79 614.57,-150.1 665.39,-160.68"/>
<polygon fill="none" stroke="#63b8ff" points="665.49,-160.7 672.18,-158.01 677.23,-163.14 670.55,-165.84 665.49,-160.7"/>
</a>
</g>
<text text-anchor="middle" x="594" y="-161.75" font-family="Cascadia Code NF" font-size="10.00" fill="grey"> +additionalParameters</text>
</g>
<!-- Node4 -->
<g id="Node000004" class="node">
<title>Node4</title>
<g id="a_Node000004"><a xlink:href="../../d5/dcc/classv8_1_1PersistentBase.html" target="_top" xlink:title=" ">
<polygon fill="white" stroke="none" points="320,-225 202,-225 202,0 320,0 320,-225"/>
<text text-anchor="start" x="207" y="-211.5" font-family="Cascadia Code NF" font-size="10.00">v8::PersistentBase</text>
<text text-anchor="start" x="219" y="-198.75" font-family="Cascadia Code NF" font-size="10.00">&lt; v8::Object &gt;</text>
<text text-anchor="start" x="258" y="-182.5" font-family="Cascadia Code NF" font-size="10.00"> </text>
<text text-anchor="start" x="207" y="-166.5" font-family="Cascadia Code NF" font-size="10.00">+</text>
<text text-anchor="start" x="218" y="-166.5" font-family="Cascadia Code NF" font-size="10.00">PersistentBase()</text>
<text text-anchor="start" x="207" y="-150.5" font-family="Cascadia Code NF" font-size="10.00">+</text>
<text text-anchor="start" x="218" y="-150.5" font-family="Cascadia Code NF" font-size="10.00">Reset()</text>
<text text-anchor="start" x="207" y="-134.5" font-family="Cascadia Code NF" font-size="10.00">+</text>
<text text-anchor="start" x="218" y="-134.5" font-family="Cascadia Code NF" font-size="10.00">Reset()</text>
<text text-anchor="start" x="207" y="-118.5" font-family="Cascadia Code NF" font-size="10.00">+</text>
<text text-anchor="start" x="218" y="-118.5" font-family="Cascadia Code NF" font-size="10.00">Reset()</text>
<text text-anchor="start" x="207" y="-102.5" font-family="Cascadia Code NF" font-size="10.00">+</text>
<text text-anchor="start" x="218" y="-102.5" font-family="Cascadia Code NF" font-size="10.00">Reset()</text>
<text text-anchor="start" x="207" y="-86.5" font-family="Cascadia Code NF" font-size="10.00">+</text>
<text text-anchor="start" x="218" y="-86.5" font-family="Cascadia Code NF" font-size="10.00">Reset()</text>
<text text-anchor="start" x="207" y="-70.5" font-family="Cascadia Code NF" font-size="10.00">+</text>
<text text-anchor="start" x="218" y="-70.5" font-family="Cascadia Code NF" font-size="10.00">Get()</text>
<text text-anchor="start" x="207" y="-54.5" font-family="Cascadia Code NF" font-size="10.00">+</text>
<text text-anchor="start" x="218" y="-54.5" font-family="Cascadia Code NF" font-size="10.00">operator==()</text>
<text text-anchor="start" x="207" y="-38.5" font-family="Cascadia Code NF" font-size="10.00">+</text>
<text text-anchor="start" x="218" y="-38.5" font-family="Cascadia Code NF" font-size="10.00">operator==()</text>
<text text-anchor="start" x="207" y="-22.5" font-family="Cascadia Code NF" font-size="10.00">+</text>
<text text-anchor="start" x="218" y="-22.5" font-family="Cascadia Code NF" font-size="10.00">operator!=()</text>
<text text-anchor="start" x="218" y="-6.5" font-family="Cascadia Code NF" font-size="10.00">and 11 more...</text>
<polygon fill="#666666" stroke="#666666" points="202,-194 202,-194 320,-194 320,-194 202,-194"/>
<polygon fill="#666666" stroke="#666666" points="202,-178 202,-178 320,-178 320,-178 202,-178"/>
<polygon fill="none" stroke="#666666" points="202,0 202,-225 320,-225 320,0 202,0"/>
</a>
</g>
</g>
<!-- Node4&#45;&gt;Node3 -->
<g id="edge3_Node000003_Node000004" class="edge">
<title>Node4&#45;&gt;Node3</title>
<g id="a_edge3_Node000003_Node000004"><a xlink:title=" ">
<path fill="none" stroke="#63b8ff" d="M331.05,-112.5C339.31,-112.5 347.77,-112.5 356.12,-112.5"/>
<polygon fill="none" stroke="#63b8ff" points="331.07,-109 321.07,-112.5 331.07,-116 331.07,-109"/>
</a>
</g>
</g>
<!-- Node5 -->
<g id="Node000005" class="node">
<title>Node5</title>
<g id="a_Node000005"><a xlink:href="../../d4/d76/classv8_1_1api__internal_1_1IndirectHandleBase.html" target="_top" xlink:title=" ">
<polygon fill="white" stroke="none" points="166,-217 0,-217 0,-8 166,-8 166,-217"/>
<text text-anchor="start" x="5" y="-203.5" font-family="Cascadia Code NF" font-size="10.00">v8::api_internal::Indirect</text>
<text text-anchor="start" x="53" y="-190.75" font-family="Cascadia Code NF" font-size="10.00">HandleBase</text>
<text text-anchor="start" x="80" y="-174.5" font-family="Cascadia Code NF" font-size="10.00"> </text>
<text text-anchor="start" x="11" y="-158.5" font-family="Cascadia Code NF" font-size="10.00">+</text>
<text text-anchor="start" x="28" y="-158.5" font-family="Cascadia Code NF" font-size="10.00">IsEmpty()</text>
<text text-anchor="start" x="11" y="-142.5" font-family="Cascadia Code NF" font-size="10.00">+</text>
<text text-anchor="start" x="28" y="-142.5" font-family="Cascadia Code NF" font-size="10.00">Clear()</text>
<text text-anchor="start" x="11" y="-126.5" font-family="Cascadia Code NF" font-size="10.00">#</text>
<text text-anchor="start" x="28" y="-126.5" font-family="Cascadia Code NF" font-size="10.00">IndirectHandleBase()</text>
<text text-anchor="start" x="11" y="-110.5" font-family="Cascadia Code NF" font-size="10.00">#</text>
<text text-anchor="start" x="28" y="-110.5" font-family="Cascadia Code NF" font-size="10.00">IndirectHandleBase()</text>
<text text-anchor="start" x="11" y="-94.5" font-family="Cascadia Code NF" font-size="10.00">#</text>
<text text-anchor="start" x="28" y="-94.5" font-family="Cascadia Code NF" font-size="10.00">operator=()</text>
<text text-anchor="start" x="11" y="-78.5" font-family="Cascadia Code NF" font-size="10.00">#</text>
<text text-anchor="start" x="28" y="-78.5" font-family="Cascadia Code NF" font-size="10.00">IndirectHandleBase()</text>
<text text-anchor="start" x="11" y="-62.5" font-family="Cascadia Code NF" font-size="10.00">#</text>
<text text-anchor="start" x="28" y="-62.5" font-family="Cascadia Code NF" font-size="10.00">ptr()</text>
<text text-anchor="start" x="11" y="-46.5" font-family="Cascadia Code NF" font-size="10.00">#</text>
<text text-anchor="start" x="28" y="-46.5" font-family="Cascadia Code NF" font-size="10.00">slot()</text>
<text text-anchor="start" x="11" y="-30.5" font-family="Cascadia Code NF" font-size="10.00">#</text>
<text text-anchor="start" x="28" y="-30.5" font-family="Cascadia Code NF" font-size="10.00">slot()</text>
<text text-anchor="start" x="11" y="-14.5" font-family="Cascadia Code NF" font-size="10.00">#</text>
<text text-anchor="start" x="28" y="-14.5" font-family="Cascadia Code NF" font-size="10.00">value()</text>
<polygon fill="#666666" stroke="#666666" points="0,-186 0,-186 166,-186 166,-186 0,-186"/>
<polygon fill="#666666" stroke="#666666" points="0,-170 0,-170 166,-170 166,-170 0,-170"/>
<polygon fill="none" stroke="#666666" points="0,-8 0,-217 166,-217 166,-8 0,-8"/>
</a>
</g>
</g>
<!-- Node5&#45;&gt;Node4 -->
<g id="edge4_Node000004_Node000005" class="edge">
<title>Node5&#45;&gt;Node4</title>
<g id="a_edge4_Node000004_Node000005"><a xlink:title=" ">
<path fill="none" stroke="#63b8ff" d="M177.08,-112.5C185.63,-112.5 194.13,-112.5 202.23,-112.5"/>
<polygon fill="none" stroke="#63b8ff" points="177.33,-109 167.33,-112.5 177.33,-116 177.33,-109"/>
</a>
</g>
</g>
</g>
</svg>
