<?xml version="1.0" encoding="UTF-8" standalone="no"?>
<!DOCTYPE svg PUBLIC "-//W3C//DTD SVG 1.1//EN"
 "http://www.w3.org/Graphics/SVG/1.1/DTD/svg11.dtd">
<!-- Generated by graphviz version 11.0.0 (20240428.1522)
 -->
<!-- Title: v8::internal::compiler::TurboshaftAdapter Pages: 1 -->
<svg width="570pt" height="336pt"
 viewBox="0.00 0.00 570.00 336.00" xmlns="http://www.w3.org/2000/svg" xmlns:xlink="http://www.w3.org/1999/xlink">
<g id="graph0" class="graph" transform="scale(1 1) rotate(0) translate(4 332)">
<title>v8::internal::compiler::TurboshaftAdapter</title>
<!-- Node1 -->
<g id="Node000001" class="node">
<title>Node1</title>
<g id="a_Node000001"><a xlink:title=" ">
<polygon fill="#999999" stroke="none" points="562,-273 406,-273 406,0 562,0 562,-273"/>
<text text-anchor="start" x="418" y="-259.5" font-family="Cascadia Code NF" font-size="10.00">v8::internal::compiler</text>
<text text-anchor="start" x="427" y="-246.75" font-family="Cascadia Code NF" font-size="10.00">::TurboshaftAdapter</text>
<text text-anchor="start" x="481" y="-230.5" font-family="Cascadia Code NF" font-size="10.00"> </text>
<text text-anchor="start" x="410" y="-214.5" font-family="Cascadia Code NF" font-size="10.00">+</text>
<text text-anchor="start" x="420" y="-214.5" font-family="Cascadia Code NF" font-size="10.00">TurboshaftAdapter()</text>
<text text-anchor="start" x="410" y="-198.5" font-family="Cascadia Code NF" font-size="10.00">+</text>
<text text-anchor="start" x="420" y="-198.5" font-family="Cascadia Code NF" font-size="10.00">is_constant()</text>
<text text-anchor="start" x="410" y="-182.5" font-family="Cascadia Code NF" font-size="10.00">+</text>
<text text-anchor="start" x="420" y="-182.5" font-family="Cascadia Code NF" font-size="10.00">is_load()</text>
<text text-anchor="start" x="410" y="-166.5" font-family="Cascadia Code NF" font-size="10.00">+</text>
<text text-anchor="start" x="420" y="-166.5" font-family="Cascadia Code NF" font-size="10.00">is_load_root_register()</text>
<text text-anchor="start" x="410" y="-150.5" font-family="Cascadia Code NF" font-size="10.00">+</text>
<text text-anchor="start" x="420" y="-150.5" font-family="Cascadia Code NF" font-size="10.00">constant_view()</text>
<text text-anchor="start" x="410" y="-134.5" font-family="Cascadia Code NF" font-size="10.00">+</text>
<text text-anchor="start" x="420" y="-134.5" font-family="Cascadia Code NF" font-size="10.00">call_view()</text>
<text text-anchor="start" x="410" y="-118.5" font-family="Cascadia Code NF" font-size="10.00">+</text>
<text text-anchor="start" x="420" y="-118.5" font-family="Cascadia Code NF" font-size="10.00">branch_view()</text>
<text text-anchor="start" x="410" y="-102.5" font-family="Cascadia Code NF" font-size="10.00">+</text>
<text text-anchor="start" x="420" y="-102.5" font-family="Cascadia Code NF" font-size="10.00">word_binop_view()</text>
<text text-anchor="start" x="410" y="-86.5" font-family="Cascadia Code NF" font-size="10.00">+</text>
<text text-anchor="start" x="420" y="-86.5" font-family="Cascadia Code NF" font-size="10.00">load_view()</text>
<text text-anchor="start" x="410" y="-70.5" font-family="Cascadia Code NF" font-size="10.00">+</text>
<text text-anchor="start" x="420" y="-70.5" font-family="Cascadia Code NF" font-size="10.00">store_view()</text>
<text text-anchor="start" x="420" y="-54.5" font-family="Cascadia Code NF" font-size="10.00">and 38 more...</text>
<text text-anchor="start" x="410" y="-38.5" font-family="Cascadia Code NF" font-size="10.00">+</text>
<text text-anchor="start" x="420" y="-38.5" font-family="Cascadia Code NF" font-size="10.00">valid()</text>
<text text-anchor="start" x="410" y="-22.5" font-family="Cascadia Code NF" font-size="10.00">+</text>
<text text-anchor="start" x="420" y="-22.5" font-family="Cascadia Code NF" font-size="10.00">valid()</text>
<text text-anchor="start" x="410" y="-6.5" font-family="Cascadia Code NF" font-size="10.00">+</text>
<text text-anchor="start" x="420" y="-6.5" font-family="Cascadia Code NF" font-size="10.00">value()</text>
<polygon fill="#666666" stroke="#666666" points="406,-242 406,-242 562,-242 562,-242 406,-242"/>
<polygon fill="#666666" stroke="#666666" points="406,-226 406,-226 562,-226 562,-226 406,-226"/>
<polygon fill="none" stroke="#666666" points="406,0 406,-273 562,-273 562,0 406,0"/>
</a>
</g>
</g>
<!-- Node2 -->
<g id="Node000002" class="node">
<title>Node2</title>
<g id="a_Node000002"><a xlink:href="../../dd/dee/classv8_1_1internal_1_1compiler_1_1turboshaft_1_1OperationMatcher.html" target="_top" xlink:title=" ">
<polygon fill="white" stroke="none" points="190,-328 0,-328 0,-103 190,-103 190,-328"/>
<text text-anchor="start" x="5" y="-314.5" font-family="Cascadia Code NF" font-size="10.00">v8::internal::compiler</text>
<text text-anchor="start" x="5" y="-301.75" font-family="Cascadia Code NF" font-size="10.00">::turboshaft::OperationMatcher</text>
<text text-anchor="start" x="92" y="-285.5" font-family="Cascadia Code NF" font-size="10.00"> </text>
<text text-anchor="start" x="14" y="-269.5" font-family="Cascadia Code NF" font-size="10.00">+</text>
<text text-anchor="start" x="34" y="-269.5" font-family="Cascadia Code NF" font-size="10.00">OperationMatcher()</text>
<text text-anchor="start" x="14" y="-253.5" font-family="Cascadia Code NF" font-size="10.00">+</text>
<text text-anchor="start" x="34" y="-253.5" font-family="Cascadia Code NF" font-size="10.00">Is()</text>
<text text-anchor="start" x="14" y="-237.5" font-family="Cascadia Code NF" font-size="10.00">+</text>
<text text-anchor="start" x="34" y="-237.5" font-family="Cascadia Code NF" font-size="10.00">TryCast()</text>
<text text-anchor="start" x="14" y="-221.5" font-family="Cascadia Code NF" font-size="10.00">+</text>
<text text-anchor="start" x="34" y="-221.5" font-family="Cascadia Code NF" font-size="10.00">Cast()</text>
<text text-anchor="start" x="14" y="-205.5" font-family="Cascadia Code NF" font-size="10.00">+</text>
<text text-anchor="start" x="34" y="-205.5" font-family="Cascadia Code NF" font-size="10.00">Get()</text>
<text text-anchor="start" x="14" y="-189.5" font-family="Cascadia Code NF" font-size="10.00">+</text>
<text text-anchor="start" x="34" y="-189.5" font-family="Cascadia Code NF" font-size="10.00">Index()</text>
<text text-anchor="start" x="14" y="-173.5" font-family="Cascadia Code NF" font-size="10.00">+</text>
<text text-anchor="start" x="34" y="-173.5" font-family="Cascadia Code NF" font-size="10.00">MatchZero()</text>
<text text-anchor="start" x="14" y="-157.5" font-family="Cascadia Code NF" font-size="10.00">+</text>
<text text-anchor="start" x="34" y="-157.5" font-family="Cascadia Code NF" font-size="10.00">MatchIntegralZero()</text>
<text text-anchor="start" x="14" y="-141.5" font-family="Cascadia Code NF" font-size="10.00">+</text>
<text text-anchor="start" x="34" y="-141.5" font-family="Cascadia Code NF" font-size="10.00">MatchSmiZero()</text>
<text text-anchor="start" x="14" y="-125.5" font-family="Cascadia Code NF" font-size="10.00">+</text>
<text text-anchor="start" x="34" y="-125.5" font-family="Cascadia Code NF" font-size="10.00">MatchFloat32Constant()</text>
<text text-anchor="start" x="34" y="-109.5" font-family="Cascadia Code NF" font-size="10.00">and 37 more...</text>
<polygon fill="#bfbfbf" stroke="#bfbfbf" points="0,-297 0,-297 190,-297 190,-297 0,-297"/>
<polygon fill="#bfbfbf" stroke="#bfbfbf" points="0,-281 0,-281 190,-281 190,-281 0,-281"/>
<polygon fill="none" stroke="#bfbfbf" points="0,-103 0,-328 190,-328 190,-103 0,-103"/>
</a>
</g>
</g>
<!-- Node2&#45;&gt;Node1 -->
<g id="edge1_Node000001_Node000002" class="edge">
<title>Node2&#45;&gt;Node1</title>
<g id="a_edge1_Node000001_Node000002"><a xlink:title=" ">
<path fill="none" stroke="#63b8ff" d="M201.32,-204.2C257.29,-196.96 326.95,-185.98 388,-170.5 393.94,-168.99 400.04,-167.26 406.13,-165.4"/>
<polygon fill="none" stroke="#63b8ff" points="200.93,-200.72 191.45,-205.45 201.81,-207.66 200.93,-200.72"/>
</a>
</g>
</g>
<!-- Node3 -->
<g id="Node000003" class="node">
<title>Node3</title>
<g id="a_Node000003"><a xlink:title=" ">
<polygon fill="white" stroke="none" points="112,-84.5 78,-84.5 78,-32.5 112,-32.5 112,-84.5"/>
<text text-anchor="start" x="83" y="-71" font-family="Cascadia Code NF" font-size="10.00">bool</text>
<text text-anchor="start" x="92" y="-55" font-family="Cascadia Code NF" font-size="10.00"> </text>
<text text-anchor="start" x="92" y="-39" font-family="Cascadia Code NF" font-size="10.00"> </text>
<polygon fill="#bfbfbf" stroke="#bfbfbf" points="78,-66.5 78,-66.5 112,-66.5 112,-66.5 78,-66.5"/>
<polygon fill="#bfbfbf" stroke="#bfbfbf" points="78,-50.5 78,-50.5 112,-50.5 112,-50.5 78,-50.5"/>
<polygon fill="none" stroke="#bfbfbf" points="78,-32.5 78,-84.5 112,-84.5 112,-32.5 78,-32.5"/>
</a>
</g>
</g>
<!-- Node3&#45;&gt;Node1 -->
<g id="edge2_Node000001_Node000003" class="edge">
<title>Node3&#45;&gt;Node1</title>
<g id="a_edge2_Node000001_Node000003"><a xlink:title=" ">
<path fill="none" stroke="#63b8ff" d="M111.65,-61.65C158.36,-71.07 299.36,-99.49 393.55,-118.47"/>
<polygon fill="none" stroke="#63b8ff" points="393.58,-118.48 400.25,-115.74 405.35,-120.85 398.67,-123.58 393.58,-118.48"/>
</a>
</g>
<text text-anchor="start" x="208" y="-157" font-family="Cascadia Code NF" font-size="10.00" fill="grey"> +AllowsImplicitWord64ToWord32</text>
<text text-anchor="middle" x="298" y="-144.25" font-family="Cascadia Code NF" font-size="10.00" fill="grey">Truncation</text>
<text text-anchor="middle" x="298" y="-131.5" font-family="Cascadia Code NF" font-size="10.00" fill="grey">+IsTurbofan</text>
<text text-anchor="middle" x="298" y="-118.75" font-family="Cascadia Code NF" font-size="10.00" fill="grey">+IsTurboshaft</text>
</g>
</g>
</svg>
