<?xml version="1.0" encoding="UTF-8" standalone="no"?>
<!DOCTYPE svg PUBLIC "-//W3C//DTD SVG 1.1//EN"
 "http://www.w3.org/Graphics/SVG/1.1/DTD/svg11.dtd">
<!-- Generated by graphviz version 11.0.0 (20240428.1522)
 -->
<!-- Title: v8::internal::maglev::CallForwardVarargs Pages: 1 -->
<svg width="454pt" height="281pt"
 viewBox="0.00 0.00 454.00 281.00" xmlns="http://www.w3.org/2000/svg" xmlns:xlink="http://www.w3.org/1999/xlink">

<svg id="main" version="1.1" xmlns="http://www.w3.org/2000/svg" xmlns:xlink="http://www.w3.org/1999/xlink" xml:space="preserve" onload="init(evt)">
<style type="text/css"><![CDATA[
.node, .edge {opacity: 0.7;}
.node.selected, .edge.selected {opacity: 1;}
.edge:hover path { stroke: red; }
.edge:hover polygon { stroke: red; fill: red; }
svg#main { background-color: #111; }
]]></style>
<script type="application/ecmascript" xlink:href="../../svg.min.js"/>
<svg id="graph" class="graph">
<g id="graph0" class="graph" transform="scale(1 1) rotate(0) translate(4 277)">
<title>v8::internal::maglev::CallForwardVarargs</title>
<!-- Node1 -->
<g id="Node000001" class="node">
<title>Node1</title>
<g id="a_Node000001"><a xlink:title=" ">
<polygon fill="#999999" stroke="none" points="446,-273 308,-273 308,0 446,0 446,-273"/>
<text text-anchor="start" x="317" y="-259.5" font-family="Cascadia Code NF" font-size="10.00">v8::internal::maglev</text>
<text text-anchor="start" x="317" y="-246.75" font-family="Cascadia Code NF" font-size="10.00">::CallForwardVarargs</text>
<text text-anchor="start" x="312" y="-230.5" font-family="Cascadia Code NF" font-size="10.00">+</text>
<text text-anchor="start" x="322" y="-230.5" font-family="Cascadia Code NF" font-size="10.00">kFunctionIndex</text>
<text text-anchor="start" x="312" y="-214.5" font-family="Cascadia Code NF" font-size="10.00">+</text>
<text text-anchor="start" x="322" y="-214.5" font-family="Cascadia Code NF" font-size="10.00">kContextIndex</text>
<text text-anchor="start" x="312" y="-198.5" font-family="Cascadia Code NF" font-size="10.00">+</text>
<text text-anchor="start" x="322" y="-198.5" font-family="Cascadia Code NF" font-size="10.00">kFixedInputCount</text>
<text text-anchor="start" x="312" y="-182.5" font-family="Cascadia Code NF" font-size="10.00">+</text>
<text text-anchor="start" x="322" y="-182.5" font-family="Cascadia Code NF" font-size="10.00">kProperties</text>
<text text-anchor="start" x="312" y="-166.5" font-family="Cascadia Code NF" font-size="10.00">+</text>
<text text-anchor="start" x="322" y="-166.5" font-family="Cascadia Code NF" font-size="10.00">CallForwardVarargs()</text>
<text text-anchor="start" x="312" y="-150.5" font-family="Cascadia Code NF" font-size="10.00">+</text>
<text text-anchor="start" x="322" y="-150.5" font-family="Cascadia Code NF" font-size="10.00">function()</text>
<text text-anchor="start" x="312" y="-134.5" font-family="Cascadia Code NF" font-size="10.00">+</text>
<text text-anchor="start" x="322" y="-134.5" font-family="Cascadia Code NF" font-size="10.00">function()</text>
<text text-anchor="start" x="312" y="-118.5" font-family="Cascadia Code NF" font-size="10.00">+</text>
<text text-anchor="start" x="322" y="-118.5" font-family="Cascadia Code NF" font-size="10.00">context()</text>
<text text-anchor="start" x="312" y="-102.5" font-family="Cascadia Code NF" font-size="10.00">+</text>
<text text-anchor="start" x="322" y="-102.5" font-family="Cascadia Code NF" font-size="10.00">context()</text>
<text text-anchor="start" x="312" y="-86.5" font-family="Cascadia Code NF" font-size="10.00">+</text>
<text text-anchor="start" x="322" y="-86.5" font-family="Cascadia Code NF" font-size="10.00">num_args()</text>
<text text-anchor="start" x="312" y="-70.5" font-family="Cascadia Code NF" font-size="10.00">+</text>
<text text-anchor="start" x="322" y="-70.5" font-family="Cascadia Code NF" font-size="10.00">arg()</text>
<text text-anchor="start" x="312" y="-54.5" font-family="Cascadia Code NF" font-size="10.00">+</text>
<text text-anchor="start" x="322" y="-54.5" font-family="Cascadia Code NF" font-size="10.00">set_arg()</text>
<text text-anchor="start" x="312" y="-38.5" font-family="Cascadia Code NF" font-size="10.00">+</text>
<text text-anchor="start" x="322" y="-38.5" font-family="Cascadia Code NF" font-size="10.00">args()</text>
<text text-anchor="start" x="312" y="-22.5" font-family="Cascadia Code NF" font-size="10.00">+</text>
<text text-anchor="start" x="322" y="-22.5" font-family="Cascadia Code NF" font-size="10.00">VerifyInputs()</text>
<text text-anchor="start" x="322" y="-6.5" font-family="Cascadia Code NF" font-size="10.00">and 6 more...</text>
<polygon fill="#666666" stroke="#666666" points="308,-242 308,-242 446,-242 446,-242 308,-242"/>
<polygon fill="#666666" stroke="#666666" points="308,-178 308,-178 320,-178 320,-178 308,-178"/>
<polygon fill="#666666" stroke="#666666" points="320,-178 320,-178 446,-178 446,-178 320,-178"/>
<polygon fill="none" stroke="#666666" points="308,0 308,-273 446,-273 446,0 308,0"/>
</a>
</g>
</g>
<!-- Node2 -->
<g id="Node000002" class="node">
<title>Node2</title>
<g id="a_Node000002"><a xlink:href="../../dc/d85/classv8_1_1internal_1_1maglev_1_1NodeTMixin.html" target="_top" xlink:title=" ">
<polygon fill="white" stroke="none" points="272,-194.5 70,-194.5 70,-78.5 272,-78.5 272,-194.5"/>
<text text-anchor="start" x="75" y="-181" font-family="Cascadia Code NF" font-size="10.00">ValueNodeT&lt; CallForwardVarargs &gt;</text>
<text text-anchor="start" x="168" y="-165" font-family="Cascadia Code NF" font-size="10.00"> </text>
<text text-anchor="start" x="102" y="-149" font-family="Cascadia Code NF" font-size="10.00">+</text>
<text text-anchor="start" x="140" y="-149" font-family="Cascadia Code NF" font-size="10.00">opcode()</text>
<text text-anchor="start" x="102" y="-133" font-family="Cascadia Code NF" font-size="10.00">+</text>
<text text-anchor="start" x="140" y="-133" font-family="Cascadia Code NF" font-size="10.00">properties()</text>
<text text-anchor="start" x="102" y="-117" font-family="Cascadia Code NF" font-size="10.00">+</text>
<text text-anchor="start" x="140" y="-117" font-family="Cascadia Code NF" font-size="10.00">New()</text>
<text text-anchor="start" x="102" y="-101" font-family="Cascadia Code NF" font-size="10.00">+</text>
<text text-anchor="start" x="140" y="-101" font-family="Cascadia Code NF" font-size="10.00">New()</text>
<text text-anchor="start" x="102" y="-85" font-family="Cascadia Code NF" font-size="10.00">#</text>
<text text-anchor="start" x="140" y="-85" font-family="Cascadia Code NF" font-size="10.00">NodeTMixin()</text>
<polygon fill="#bfbfbf" stroke="#bfbfbf" points="70,-176.5 70,-176.5 272,-176.5 272,-176.5 70,-176.5"/>
<polygon fill="#bfbfbf" stroke="#bfbfbf" points="70,-160.5 70,-160.5 272,-160.5 272,-160.5 70,-160.5"/>
<polygon fill="none" stroke="#bfbfbf" points="70,-78.5 70,-194.5 272,-194.5 272,-78.5 70,-78.5"/>
</a>
</g>
</g>
<!-- Node2&#45;&gt;Node1 -->
<g id="edge1_Node000001_Node000002" class="edge">
<title>Node2&#45;&gt;Node1</title>
<g id="a_edge1_Node000001_Node000002"><a xlink:title=" ">
<path fill="none" stroke="#63b8ff" d="M283.16,-136.5C291.69,-136.5 300.14,-136.5 308.26,-136.5"/>
<polygon fill="none" stroke="#63b8ff" points="283.42,-133 273.42,-136.5 283.42,-140 283.42,-133"/>
</a>
</g>
</g>
<!-- Node3 -->
<g id="Node000003" class="node">
<title>Node3</title>
<g id="a_Node000003"><a xlink:title=" ">
<polygon fill="white" stroke="none" points="34,-162.5 0,-162.5 0,-110.5 34,-110.5 34,-162.5"/>
<text text-anchor="start" x="5" y="-149" font-family="Cascadia Code NF" font-size="10.00">Base</text>
<text text-anchor="start" x="14" y="-133" font-family="Cascadia Code NF" font-size="10.00"> </text>
<text text-anchor="start" x="14" y="-117" font-family="Cascadia Code NF" font-size="10.00"> </text>
<polygon fill="#bfbfbf" stroke="#bfbfbf" points="0,-144.5 0,-144.5 34,-144.5 34,-144.5 0,-144.5"/>
<polygon fill="#bfbfbf" stroke="#bfbfbf" points="0,-128.5 0,-128.5 34,-128.5 34,-128.5 0,-128.5"/>
<polygon fill="none" stroke="#bfbfbf" points="0,-110.5 0,-162.5 34,-162.5 34,-110.5 0,-110.5"/>
</a>
</g>
</g>
<!-- Node3&#45;&gt;Node2 -->
<g id="edge2_Node000002_Node000003" class="edge">
<title>Node3&#45;&gt;Node2</title>
<g id="a_edge2_Node000002_Node000003"><a xlink:title=" ">
<path fill="none" stroke="#63b8ff" d="M45.38,-136.5C52.82,-136.5 61.33,-136.5 70.33,-136.5"/>
<polygon fill="none" stroke="#63b8ff" points="45.49,-133 35.49,-136.5 45.49,-140 45.49,-133"/>
</a>
</g>
</g>
</g>
</svg>
</svg>

<style type='text/css'>
<![CDATA[
[data-mouse-over-selected='false'] { opacity: 0.7; }
[data-mouse-over-selected='true']  { opacity: 1.0; }
]]>
</style>
<script type="application/ecmascript"><![CDATA[
document.addEventListener('DOMContentLoaded', (event) => {
  highlightEdges();
  highlightAdjacentNodes();
});
]]></script>
</svg>
