<?xml version="1.0" encoding="UTF-8" standalone="no"?>
<!DOCTYPE svg PUBLIC "-//W3C//DTD SVG 1.1//EN"
 "http://www.w3.org/Graphics/SVG/1.1/DTD/svg11.dtd">
<!-- Generated by graphviz version 11.0.0 (20240428.1522)
 -->
<!-- Title: v8::internal::Deoptimizer Pages: 1 -->
<svg width="492pt" height="361pt"
 viewBox="0.00 0.00 492.00 361.00" xmlns="http://www.w3.org/2000/svg" xmlns:xlink="http://www.w3.org/1999/xlink">

<svg id="main" version="1.1" xmlns="http://www.w3.org/2000/svg" xmlns:xlink="http://www.w3.org/1999/xlink" xml:space="preserve" onload="init(evt)">
<style type="text/css"><![CDATA[
.node, .edge {opacity: 0.7;}
.node.selected, .edge.selected {opacity: 1;}
.edge:hover path { stroke: red; }
.edge:hover polygon { stroke: red; fill: red; }
svg#main { background-color: #111; }
]]></style>
<script type="application/ecmascript" xlink:href="../../svg.min.js"/>
<svg id="graph" class="graph">
<g id="graph0" class="graph" transform="scale(1 1) rotate(0) translate(4 357)">
<title>v8::internal::Deoptimizer</title>
<!-- Node1 -->
<g id="Node000001" class="node">
<title>Node1</title>
<g id="a_Node000001"><a xlink:title=" ">
<polygon fill="#999999" stroke="none" points="484,-353 310,-353 310,0 484,0 484,-353"/>
<text text-anchor="start" x="322" y="-339.5" font-family="Cascadia Code NF" font-size="10.00">v8::internal::Deoptimizer</text>
<text text-anchor="start" x="394" y="-323.5" font-family="Cascadia Code NF" font-size="10.00"> </text>
<text text-anchor="start" x="314" y="-307.5" font-family="Cascadia Code NF" font-size="10.00">+</text>
<text text-anchor="start" x="324" y="-307.5" font-family="Cascadia Code NF" font-size="10.00">GetDeoptInfo()</text>
<text text-anchor="start" x="314" y="-291.5" font-family="Cascadia Code NF" font-size="10.00">+</text>
<text text-anchor="start" x="324" y="-291.5" font-family="Cascadia Code NF" font-size="10.00">function()</text>
<text text-anchor="start" x="314" y="-275.5" font-family="Cascadia Code NF" font-size="10.00">+</text>
<text text-anchor="start" x="324" y="-275.5" font-family="Cascadia Code NF" font-size="10.00">compiled_code()</text>
<text text-anchor="start" x="314" y="-259.5" font-family="Cascadia Code NF" font-size="10.00">+</text>
<text text-anchor="start" x="324" y="-259.5" font-family="Cascadia Code NF" font-size="10.00">deopt_kind()</text>
<text text-anchor="start" x="314" y="-243.5" font-family="Cascadia Code NF" font-size="10.00">+</text>
<text text-anchor="start" x="324" y="-243.5" font-family="Cascadia Code NF" font-size="10.00">bytecode_offset_in</text>
<text text-anchor="start" x="324" y="-230.75" font-family="Cascadia Code NF" font-size="10.00">_outermost_frame()</text>
<text text-anchor="start" x="314" y="-214.5" font-family="Cascadia Code NF" font-size="10.00">+</text>
<text text-anchor="start" x="324" y="-214.5" font-family="Cascadia Code NF" font-size="10.00">~Deoptimizer()</text>
<text text-anchor="start" x="314" y="-198.5" font-family="Cascadia Code NF" font-size="10.00">+</text>
<text text-anchor="start" x="324" y="-198.5" font-family="Cascadia Code NF" font-size="10.00">MaterializeHeapObjects()</text>
<text text-anchor="start" x="314" y="-182.5" font-family="Cascadia Code NF" font-size="10.00">+</text>
<text text-anchor="start" x="324" y="-182.5" font-family="Cascadia Code NF" font-size="10.00">isolate()</text>
<text text-anchor="start" x="314" y="-166.5" font-family="Cascadia Code NF" font-size="10.00">+</text>
<text text-anchor="start" x="324" y="-166.5" font-family="Cascadia Code NF" font-size="10.00">DeoptExitIsInsideOsrLoop()</text>
<text text-anchor="start" x="314" y="-150.5" font-family="Cascadia Code NF" font-size="10.00">+</text>
<text text-anchor="start" x="324" y="-150.5" font-family="Cascadia Code NF" font-size="10.00">GetDeoptInfo()</text>
<text text-anchor="start" x="314" y="-134.5" font-family="Cascadia Code NF" font-size="10.00">+</text>
<text text-anchor="start" x="324" y="-134.5" font-family="Cascadia Code NF" font-size="10.00">MessageFor()</text>
<text text-anchor="start" x="314" y="-118.5" font-family="Cascadia Code NF" font-size="10.00">+</text>
<text text-anchor="start" x="324" y="-118.5" font-family="Cascadia Code NF" font-size="10.00">New()</text>
<text text-anchor="start" x="314" y="-102.5" font-family="Cascadia Code NF" font-size="10.00">+</text>
<text text-anchor="start" x="324" y="-102.5" font-family="Cascadia Code NF" font-size="10.00">Grab()</text>
<text text-anchor="start" x="314" y="-86.5" font-family="Cascadia Code NF" font-size="10.00">+</text>
<text text-anchor="start" x="324" y="-86.5" font-family="Cascadia Code NF" font-size="10.00">DeleteForWasm()</text>
<text text-anchor="start" x="314" y="-70.5" font-family="Cascadia Code NF" font-size="10.00">+</text>
<text text-anchor="start" x="324" y="-70.5" font-family="Cascadia Code NF" font-size="10.00">DebuggerInspectableFrame()</text>
<text text-anchor="start" x="314" y="-54.5" font-family="Cascadia Code NF" font-size="10.00">+</text>
<text text-anchor="start" x="324" y="-54.5" font-family="Cascadia Code NF" font-size="10.00">DeoptimizeFunction()</text>
<text text-anchor="start" x="314" y="-38.5" font-family="Cascadia Code NF" font-size="10.00">+</text>
<text text-anchor="start" x="324" y="-38.5" font-family="Cascadia Code NF" font-size="10.00">DeoptimizeAll()</text>
<text text-anchor="start" x="314" y="-22.5" font-family="Cascadia Code NF" font-size="10.00">+</text>
<text text-anchor="start" x="324" y="-22.5" font-family="Cascadia Code NF" font-size="10.00">DeoptimizeMarkedCode()</text>
<text text-anchor="start" x="324" y="-6.5" font-family="Cascadia Code NF" font-size="10.00">and 10 more...</text>
<polygon fill="#666666" stroke="#666666" points="310,-335 310,-335 484,-335 484,-335 310,-335"/>
<polygon fill="#666666" stroke="#666666" points="310,-319 310,-319 484,-319 484,-319 310,-319"/>
<polygon fill="none" stroke="#666666" points="310,0 310,-353 484,-353 484,0 310,0"/>
</a>
</g>
</g>
<!-- Node2 -->
<g id="Node000002" class="node">
<title>Node2</title>
<g id="a_Node000002"><a xlink:href="../../d4/db9/classv8_1_1internal_1_1Malloced.html" target="_top" xlink:title=" ">
<polygon fill="white" stroke="none" points="142,-323.5 0,-323.5 0,-255.5 142,-255.5 142,-323.5"/>
<text text-anchor="start" x="5" y="-310" font-family="Cascadia Code NF" font-size="10.00">v8::internal::Malloced</text>
<text text-anchor="start" x="68" y="-294" font-family="Cascadia Code NF" font-size="10.00"> </text>
<text text-anchor="start" x="9.5" y="-278" font-family="Cascadia Code NF" font-size="10.00">+</text>
<text text-anchor="start" x="25" y="-278" font-family="Cascadia Code NF" font-size="10.00">operator new()</text>
<text text-anchor="start" x="9.5" y="-262" font-family="Cascadia Code NF" font-size="10.00">+</text>
<text text-anchor="start" x="25" y="-262" font-family="Cascadia Code NF" font-size="10.00">operator delete()</text>
<polygon fill="#bfbfbf" stroke="#bfbfbf" points="0,-305.5 0,-305.5 142,-305.5 142,-305.5 0,-305.5"/>
<polygon fill="#bfbfbf" stroke="#bfbfbf" points="0,-289.5 0,-289.5 142,-289.5 142,-289.5 0,-289.5"/>
<polygon fill="none" stroke="#bfbfbf" points="0,-255.5 0,-323.5 142,-323.5 142,-255.5 0,-255.5"/>
</a>
</g>
</g>
<!-- Node2&#45;&gt;Node1 -->
<g id="edge1_Node000001_Node000002" class="edge">
<title>Node2&#45;&gt;Node1</title>
<g id="a_edge1_Node000001_Node000002"><a xlink:title=" ">
<path fill="none" stroke="#63b8ff" d="M152.67,-264.36C194.46,-251.02 246.19,-234.01 292,-217.5 297.93,-215.36 304.04,-213.11 310.17,-210.8"/>
<polygon fill="none" stroke="#63b8ff" points="151.63,-261.02 143.16,-267.39 153.75,-267.69 151.63,-261.02"/>
</a>
</g>
</g>
<!-- Node3 -->
<g id="Node000003" class="node">
<title>Node3</title>
<g id="a_Node000003"><a xlink:href="../../d1/da0/classint.html" target="_top" xlink:title=" ">
<polygon fill="white" stroke="none" points="85,-237.5 57,-237.5 57,-185.5 85,-185.5 85,-237.5"/>
<text text-anchor="start" x="62" y="-224" font-family="Cascadia Code NF" font-size="10.00">int</text>
<text text-anchor="start" x="68" y="-208" font-family="Cascadia Code NF" font-size="10.00"> </text>
<text text-anchor="start" x="68" y="-192" font-family="Cascadia Code NF" font-size="10.00"> </text>
<polygon fill="#bfbfbf" stroke="#bfbfbf" points="57,-219.5 57,-219.5 85,-219.5 85,-219.5 57,-219.5"/>
<polygon fill="#bfbfbf" stroke="#bfbfbf" points="57,-203.5 57,-203.5 85,-203.5 85,-203.5 57,-203.5"/>
<polygon fill="none" stroke="#bfbfbf" points="57,-185.5 57,-237.5 85,-237.5 85,-185.5 57,-185.5"/>
</a>
</g>
</g>
<!-- Node3&#45;&gt;Node1 -->
<g id="edge2_Node000001_Node000003" class="edge">
<title>Node3&#45;&gt;Node1</title>
<g id="a_edge2_Node000001_Node000003"><a xlink:title=" ">
<path fill="none" stroke="#63b8ff" d="M84.7,-210.13C119.72,-206.34 220.2,-195.49 297.62,-187.13"/>
<polygon fill="none" stroke="#63b8ff" points="297.5,-187.14 303.03,-182.52 309.43,-185.85 303.89,-190.47 297.5,-187.14"/>
</a>
</g>
<text text-anchor="middle" x="226" y="-203.75" font-family="Cascadia Code NF" font-size="10.00" fill="grey"> +kMaxNumberOfEntries</text>
</g>
<!-- Node4 -->
<g id="Node000004" class="node">
<title>Node4</title>
<g id="a_Node000004"><a xlink:title=" ">
<polygon fill="white" stroke="none" points="100,-167.5 42,-167.5 42,-115.5 100,-115.5 100,-167.5"/>
<text text-anchor="start" x="47" y="-154" font-family="Cascadia Code NF" font-size="10.00">unsigned</text>
<text text-anchor="start" x="68" y="-138" font-family="Cascadia Code NF" font-size="10.00"> </text>
<text text-anchor="start" x="68" y="-122" font-family="Cascadia Code NF" font-size="10.00"> </text>
<polygon fill="#bfbfbf" stroke="#bfbfbf" points="42,-149.5 42,-149.5 100,-149.5 100,-149.5 42,-149.5"/>
<polygon fill="#bfbfbf" stroke="#bfbfbf" points="42,-133.5 42,-133.5 100,-133.5 100,-133.5 42,-133.5"/>
<polygon fill="none" stroke="#bfbfbf" points="42,-115.5 42,-167.5 100,-167.5 100,-115.5 42,-115.5"/>
</a>
</g>
</g>
<!-- Node4&#45;&gt;Node1 -->
<g id="edge3_Node000001_Node000004" class="edge">
<title>Node4&#45;&gt;Node1</title>
<g id="a_edge3_Node000001_Node000004"><a xlink:title=" ">
<path fill="none" stroke="#63b8ff" d="M99.9,-144.51C143.31,-149.2 229.09,-158.47 297.19,-165.83"/>
<polygon fill="none" stroke="#63b8ff" points="297.3,-165.84 303.69,-162.51 309.23,-167.13 302.84,-170.46 297.3,-165.84"/>
</a>
</g>
<text text-anchor="middle" x="226" y="-167.75" font-family="Cascadia Code NF" font-size="10.00" fill="grey"> +kFixedExitSizeMarker</text>
</g>
<!-- Node5 -->
<g id="Node000005" class="node">
<title>Node5</title>
<g id="a_Node000005"><a xlink:title=" ">
<polygon fill="white" stroke="none" points="91,-97.5 51,-97.5 51,-45.5 91,-45.5 91,-97.5"/>
<text text-anchor="start" x="56" y="-84" font-family="Cascadia Code NF" font-size="10.00">const</text>
<text text-anchor="start" x="68" y="-68" font-family="Cascadia Code NF" font-size="10.00"> </text>
<text text-anchor="start" x="68" y="-52" font-family="Cascadia Code NF" font-size="10.00"> </text>
<polygon fill="#bfbfbf" stroke="#bfbfbf" points="51,-79.5 51,-79.5 91,-79.5 91,-79.5 51,-79.5"/>
<polygon fill="#bfbfbf" stroke="#bfbfbf" points="51,-63.5 51,-63.5 91,-63.5 91,-63.5 51,-63.5"/>
<polygon fill="none" stroke="#bfbfbf" points="51,-45.5 51,-97.5 91,-97.5 91,-45.5 51,-45.5"/>
</a>
</g>
</g>
<!-- Node5&#45;&gt;Node1 -->
<g id="edge4_Node000001_Node000005" class="edge">
<title>Node5&#45;&gt;Node1</title>
<g id="a_edge4_Node000001_Node000005"><a xlink:title=" ">
<path fill="none" stroke="#63b8ff" d="M90.72,-74.13C129.27,-79.91 219.96,-95.36 292,-122 294.07,-122.77 296.15,-123.56 298.24,-124.39"/>
<polygon fill="none" stroke="#63b8ff" points="298.33,-124.43 305.41,-123.06 309.4,-129.06 302.32,-130.44 298.33,-124.43"/>
</a>
</g>
<text text-anchor="middle" x="226" y="-137.5" font-family="Cascadia Code NF" font-size="10.00" fill="grey"> +kEagerDeoptExitSize</text>
<text text-anchor="middle" x="226" y="-124.75" font-family="Cascadia Code NF" font-size="10.00" fill="grey">+kLazyDeoptExitSize</text>
</g>
</g>
</svg>
</svg>

<style type='text/css'>
<![CDATA[
[data-mouse-over-selected='false'] { opacity: 0.7; }
[data-mouse-over-selected='true']  { opacity: 1.0; }
]]>
</style>
<script type="application/ecmascript"><![CDATA[
document.addEventListener('DOMContentLoaded', (event) => {
  highlightEdges();
  highlightAdjacentNodes();
});
]]></script>
</svg>
