<?xml version="1.0" encoding="UTF-8" standalone="no"?>
<!DOCTYPE svg PUBLIC "-//W3C//DTD SVG 1.1//EN"
 "http://www.w3.org/Graphics/SVG/1.1/DTD/svg11.dtd">
<!-- Generated by graphviz version 11.0.0 (20240428.1522)
 -->
<!-- Title: v8::internal::TurboshaftType Pages: 1 -->
<svg width="542pt" height="240pt"
 viewBox="0.00 0.00 542.00 240.00" xmlns="http://www.w3.org/2000/svg" xmlns:xlink="http://www.w3.org/1999/xlink">
<g id="graph0" class="graph" transform="scale(1 1) rotate(0) translate(4 236)">
<title>v8::internal::TurboshaftType</title>
<!-- Node1 -->
<g id="Node000001" class="node">
<title>Node1</title>
<g id="a_Node000001"><a xlink:title=" ">
<polygon fill="#999999" stroke="none" points="534,-142 356,-142 356,-90 534,-90 534,-142"/>
<text text-anchor="start" x="361" y="-128.5" font-family="Cascadia Code NF" font-size="10.00">v8::internal::TurboshaftType</text>
<text text-anchor="start" x="442" y="-112.5" font-family="Cascadia Code NF" font-size="10.00"> </text>
<text text-anchor="start" x="442" y="-96.5" font-family="Cascadia Code NF" font-size="10.00"> </text>
<polygon fill="#666666" stroke="#666666" points="356,-124 356,-124 534,-124 534,-124 356,-124"/>
<polygon fill="#666666" stroke="#666666" points="356,-108 356,-108 534,-108 534,-108 356,-108"/>
<polygon fill="none" stroke="#666666" points="356,-90 356,-142 534,-142 534,-90 356,-90"/>
</a>
</g>
</g>
<!-- Node2 -->
<g id="Node000002" class="node">
<title>Node2</title>
<g id="a_Node000002"><a xlink:href="$de/d46/classTorqueGeneratedTurboshaftType.html" xlink:title=" ">
<polygon fill="white" stroke="none" points="320,-232 106,-232 106,0 320,0 320,-232"/>
<text text-anchor="start" x="111" y="-218.5" font-family="Cascadia Code NF" font-size="10.00">TorqueGeneratedTurboshaft</text>
<text text-anchor="start" x="111" y="-205.75" font-family="Cascadia Code NF" font-size="10.00">Type&lt; TurboshaftType, HeapObject &gt;</text>
<text text-anchor="start" x="120" y="-189.5" font-family="Cascadia Code NF" font-size="10.00">+</text>
<text text-anchor="start" x="140" y="-189.5" font-family="Cascadia Code NF" font-size="10.00">kStartOfWeakFieldsOffset</text>
<text text-anchor="start" x="120" y="-173.5" font-family="Cascadia Code NF" font-size="10.00">+</text>
<text text-anchor="start" x="140" y="-173.5" font-family="Cascadia Code NF" font-size="10.00">kEndOfWeakFieldsOffset</text>
<text text-anchor="start" x="120" y="-157.5" font-family="Cascadia Code NF" font-size="10.00">+</text>
<text text-anchor="start" x="140" y="-157.5" font-family="Cascadia Code NF" font-size="10.00">kStartOfStrongFieldsOffset</text>
<text text-anchor="start" x="120" y="-141.5" font-family="Cascadia Code NF" font-size="10.00">+</text>
<text text-anchor="start" x="140" y="-141.5" font-family="Cascadia Code NF" font-size="10.00">kEndOfStrongFieldsOffset</text>
<text text-anchor="start" x="120" y="-125.5" font-family="Cascadia Code NF" font-size="10.00">+</text>
<text text-anchor="start" x="140" y="-125.5" font-family="Cascadia Code NF" font-size="10.00">kHeaderSize</text>
<text text-anchor="start" x="120" y="-109.5" font-family="Cascadia Code NF" font-size="10.00">+</text>
<text text-anchor="start" x="140" y="-109.5" font-family="Cascadia Code NF" font-size="10.00">TorqueGeneratedTurboshaft</text>
<text text-anchor="start" x="140" y="-96.75" font-family="Cascadia Code NF" font-size="10.00">Type()</text>
<text text-anchor="start" x="120" y="-80.5" font-family="Cascadia Code NF" font-size="10.00">+</text>
<text text-anchor="start" x="140" y="-80.5" font-family="Cascadia Code NF" font-size="10.00">cast()</text>
<text text-anchor="start" x="120" y="-64.5" font-family="Cascadia Code NF" font-size="10.00">+</text>
<text text-anchor="start" x="140" y="-64.5" font-family="Cascadia Code NF" font-size="10.00">unchecked_cast()</text>
<text text-anchor="start" x="120" y="-48.5" font-family="Cascadia Code NF" font-size="10.00">#</text>
<text text-anchor="start" x="140" y="-48.5" font-family="Cascadia Code NF" font-size="10.00">TorqueGeneratedTurboshaft</text>
<text text-anchor="start" x="140" y="-35.75" font-family="Cascadia Code NF" font-size="10.00">Type()</text>
<text text-anchor="start" x="120" y="-19.5" font-family="Cascadia Code NF" font-size="10.00">#</text>
<text text-anchor="start" x="140" y="-19.5" font-family="Cascadia Code NF" font-size="10.00">TorqueGeneratedTurboshaft</text>
<text text-anchor="start" x="140" y="-6.75" font-family="Cascadia Code NF" font-size="10.00">Type()</text>
<polygon fill="#bfbfbf" stroke="#bfbfbf" points="106,-201 106,-201 320,-201 320,-201 106,-201"/>
<polygon fill="#bfbfbf" stroke="#bfbfbf" points="106,-121 106,-121 138,-121 138,-121 106,-121"/>
<polygon fill="#bfbfbf" stroke="#bfbfbf" points="138,-121 138,-121 320,-121 320,-121 138,-121"/>
<polygon fill="none" stroke="#bfbfbf" points="106,0 106,-232 320,-232 320,0 106,0"/>
</a>
</g>
</g>
<!-- Node2&#45;&gt;Node1 -->
<g id="edge1_Node000001_Node000002" class="edge">
<title>Node2&#45;&gt;Node1</title>
<g id="a_edge1_Node000001_Node000002"><a xlink:title=" ">
<path fill="none" stroke="#63b8ff" d="M331.32,-116C339.69,-116 348.04,-116 356.2,-116"/>
<polygon fill="none" stroke="#63b8ff" points="331.43,-112.5 321.43,-116 331.43,-119.5 331.43,-112.5"/>
</a>
</g>
</g>
<!-- Node3 -->
<g id="Node000003" class="node">
<title>Node3</title>
<g id="a_Node000003"><a xlink:title=" ">
<polygon fill="white" stroke="none" points="70,-142 0,-142 0,-90 70,-90 70,-142"/>
<text text-anchor="start" x="5" y="-128.5" font-family="Cascadia Code NF" font-size="10.00">HeapObject</text>
<text text-anchor="start" x="32" y="-112.5" font-family="Cascadia Code NF" font-size="10.00"> </text>
<text text-anchor="start" x="32" y="-96.5" font-family="Cascadia Code NF" font-size="10.00"> </text>
<polygon fill="#bfbfbf" stroke="#bfbfbf" points="0,-124 0,-124 70,-124 70,-124 0,-124"/>
<polygon fill="#bfbfbf" stroke="#bfbfbf" points="0,-108 0,-108 70,-108 70,-108 0,-108"/>
<polygon fill="none" stroke="#bfbfbf" points="0,-90 0,-142 70,-142 70,-90 0,-90"/>
</a>
</g>
</g>
<!-- Node3&#45;&gt;Node2 -->
<g id="edge2_Node000002_Node000003" class="edge">
<title>Node3&#45;&gt;Node2</title>
<g id="a_edge2_Node000002_Node000003"><a xlink:title=" ">
<path fill="none" stroke="#63b8ff" d="M81.25,-116C89.03,-116 97.41,-116 106.02,-116"/>
<polygon fill="none" stroke="#63b8ff" points="81.45,-112.5 71.45,-116 81.45,-119.5 81.45,-112.5"/>
</a>
</g>
</g>
</g>
</svg>
