<?xml version="1.0" encoding="UTF-8" standalone="no"?>
<!DOCTYPE svg PUBLIC "-//W3C//DTD SVG 1.1//EN"
 "http://www.w3.org/Graphics/SVG/1.1/DTD/svg11.dtd">
<!-- Generated by graphviz version 11.0.0 (20240428.1522)
 -->
<!-- Title: v8::internal::PreparseDataBuilder Pages: 1 -->
<svg width="814pt" height="758pt"
 viewBox="0.00 0.00 814.00 757.50" xmlns="http://www.w3.org/2000/svg" xmlns:xlink="http://www.w3.org/1999/xlink">
<g id="graph0" class="graph" transform="scale(1 1) rotate(0) translate(4 753.5)">
<title>v8::internal::PreparseDataBuilder</title>
<!-- Node1 -->
<g id="Node000001" class="node">
<title>Node1</title>
<g id="a_Node000001"><a xlink:title=" ">
<polygon fill="#999999" stroke="none" points="806,-625 638,-625 638,-384 806,-384 806,-625"/>
<text text-anchor="start" x="644" y="-611.5" font-family="Cascadia Code NF" font-size="10.00">v8::internal::PreparseData</text>
<text text-anchor="start" x="701" y="-598.75" font-family="Cascadia Code NF" font-size="10.00">Builder</text>
<text text-anchor="start" x="719" y="-582.5" font-family="Cascadia Code NF" font-size="10.00"> </text>
<text text-anchor="start" x="642" y="-566.5" font-family="Cascadia Code NF" font-size="10.00">+</text>
<text text-anchor="start" x="652" y="-566.5" font-family="Cascadia Code NF" font-size="10.00">PreparseDataBuilder()</text>
<text text-anchor="start" x="642" y="-550.5" font-family="Cascadia Code NF" font-size="10.00">+</text>
<text text-anchor="start" x="652" y="-550.5" font-family="Cascadia Code NF" font-size="10.00">~PreparseDataBuilder()</text>
<text text-anchor="start" x="642" y="-534.5" font-family="Cascadia Code NF" font-size="10.00">+</text>
<text text-anchor="start" x="652" y="-534.5" font-family="Cascadia Code NF" font-size="10.00">PreparseDataBuilder()</text>
<text text-anchor="start" x="642" y="-518.5" font-family="Cascadia Code NF" font-size="10.00">+</text>
<text text-anchor="start" x="652" y="-518.5" font-family="Cascadia Code NF" font-size="10.00">operator=()</text>
<text text-anchor="start" x="642" y="-502.5" font-family="Cascadia Code NF" font-size="10.00">+</text>
<text text-anchor="start" x="652" y="-502.5" font-family="Cascadia Code NF" font-size="10.00">parent()</text>
<text text-anchor="start" x="642" y="-486.5" font-family="Cascadia Code NF" font-size="10.00">+</text>
<text text-anchor="start" x="652" y="-486.5" font-family="Cascadia Code NF" font-size="10.00">SaveScopeAllocationData()</text>
<text text-anchor="start" x="642" y="-470.5" font-family="Cascadia Code NF" font-size="10.00">+</text>
<text text-anchor="start" x="652" y="-470.5" font-family="Cascadia Code NF" font-size="10.00">Bailout()</text>
<text text-anchor="start" x="642" y="-454.5" font-family="Cascadia Code NF" font-size="10.00">+</text>
<text text-anchor="start" x="652" y="-454.5" font-family="Cascadia Code NF" font-size="10.00">bailed_out()</text>
<text text-anchor="start" x="642" y="-438.5" font-family="Cascadia Code NF" font-size="10.00">+</text>
<text text-anchor="start" x="652" y="-438.5" font-family="Cascadia Code NF" font-size="10.00">HasInnerFunctions()</text>
<text text-anchor="start" x="642" y="-422.5" font-family="Cascadia Code NF" font-size="10.00">+</text>
<text text-anchor="start" x="652" y="-422.5" font-family="Cascadia Code NF" font-size="10.00">HasData()</text>
<text text-anchor="start" x="642" y="-406.5" font-family="Cascadia Code NF" font-size="10.00">+</text>
<text text-anchor="start" x="652" y="-406.5" font-family="Cascadia Code NF" font-size="10.00">HasDataForParent()</text>
<text text-anchor="start" x="642" y="-390.5" font-family="Cascadia Code NF" font-size="10.00">+</text>
<text text-anchor="start" x="652" y="-390.5" font-family="Cascadia Code NF" font-size="10.00">ScopeNeedsData()</text>
<polygon fill="#666666" stroke="#666666" points="638,-594 638,-594 806,-594 806,-594 638,-594"/>
<polygon fill="#666666" stroke="#666666" points="638,-578 638,-578 806,-578 806,-578 638,-578"/>
<polygon fill="none" stroke="#666666" points="638,-384 638,-625 806,-625 806,-384 638,-384"/>
</a>
</g>
</g>
<!-- Node2 -->
<g id="Node000002" class="node">
<title>Node2</title>
<g id="a_Node000002"><a xlink:href="../../dc/dca/classv8_1_1internal_1_1ZoneObject.html" target="_top" xlink:title=" ">
<polygon fill="white" stroke="none" points="455,-749.5 301,-749.5 301,-649.5 455,-649.5 455,-749.5"/>
<text text-anchor="start" x="306" y="-736" font-family="Cascadia Code NF" font-size="10.00">v8::internal::ZoneObject</text>
<text text-anchor="start" x="375" y="-720" font-family="Cascadia Code NF" font-size="10.00"> </text>
<text text-anchor="start" x="313.5" y="-704" font-family="Cascadia Code NF" font-size="10.00">+</text>
<text text-anchor="start" x="332" y="-704" font-family="Cascadia Code NF" font-size="10.00">operator new()</text>
<text text-anchor="start" x="313.5" y="-688" font-family="Cascadia Code NF" font-size="10.00">+</text>
<text text-anchor="start" x="332" y="-688" font-family="Cascadia Code NF" font-size="10.00">operator new()</text>
<text text-anchor="start" x="313.5" y="-672" font-family="Cascadia Code NF" font-size="10.00">+</text>
<text text-anchor="start" x="332" y="-672" font-family="Cascadia Code NF" font-size="10.00">operator delete()</text>
<text text-anchor="start" x="313.5" y="-656" font-family="Cascadia Code NF" font-size="10.00">+</text>
<text text-anchor="start" x="332" y="-656" font-family="Cascadia Code NF" font-size="10.00">operator delete()</text>
<polygon fill="#bfbfbf" stroke="#bfbfbf" points="301,-731.5 301,-731.5 455,-731.5 455,-731.5 301,-731.5"/>
<polygon fill="#bfbfbf" stroke="#bfbfbf" points="301,-715.5 301,-715.5 455,-715.5 455,-715.5 301,-715.5"/>
<polygon fill="none" stroke="#bfbfbf" points="301,-649.5 301,-749.5 455,-749.5 455,-649.5 301,-649.5"/>
</a>
</g>
</g>
<!-- Node2&#45;&gt;Node1 -->
<g id="edge1_Node000001_Node000002" class="edge">
<title>Node2&#45;&gt;Node1</title>
<g id="a_edge1_Node000001_Node000002"><a xlink:title=" ">
<path fill="none" stroke="#63b8ff" d="M464.74,-656.3C474.66,-651.07 484.58,-645.73 494,-640.5 542.4,-613.62 595.53,-581.92 638.21,-555.88"/>
<polygon fill="none" stroke="#63b8ff" points="463.42,-653.04 456.18,-660.78 466.67,-659.24 463.42,-653.04"/>
</a>
</g>
</g>
<!-- Node3 -->
<g id="Node000003" class="node">
<title>Node3</title>
<g id="a_Node000003"><a xlink:href="../../de/d43/structv8_1_1internal_1_1PreparseByteDataConstants.html" target="_top" xlink:title=" ">
<polygon fill="white" stroke="none" points="461,-631 295,-631 295,-566 461,-566 461,-631"/>
<text text-anchor="start" x="300" y="-617.5" font-family="Cascadia Code NF" font-size="10.00">v8::internal::PreparseByte</text>
<text text-anchor="start" x="339" y="-604.75" font-family="Cascadia Code NF" font-size="10.00">DataConstants</text>
<text text-anchor="start" x="375" y="-588.5" font-family="Cascadia Code NF" font-size="10.00"> </text>
<text text-anchor="start" x="375" y="-572.5" font-family="Cascadia Code NF" font-size="10.00"> </text>
<polygon fill="#bfbfbf" stroke="#bfbfbf" points="295,-600 295,-600 461,-600 461,-600 295,-600"/>
<polygon fill="#bfbfbf" stroke="#bfbfbf" points="295,-584 295,-584 461,-584 461,-584 295,-584"/>
<polygon fill="none" stroke="#bfbfbf" points="295,-566 295,-631 461,-631 461,-566 295,-566"/>
</a>
</g>
</g>
<!-- Node3&#45;&gt;Node1 -->
<g id="edge2_Node000001_Node000003" class="edge">
<title>Node3&#45;&gt;Node1</title>
<g id="a_edge2_Node000001_Node000003"><a xlink:title=" ">
<path fill="none" stroke="#63b8ff" d="M471.81,-572.99C523.78,-558.71 588.03,-541.05 638.27,-527.24"/>
<polygon fill="none" stroke="#63b8ff" points="471.09,-569.56 462.38,-575.58 472.95,-576.31 471.09,-569.56"/>
</a>
</g>
</g>
<!-- Node4 -->
<g id="Node000004" class="node">
<title>Node4</title>
<g id="a_Node000004"><a xlink:title=" ">
<polygon fill="white" stroke="none" points="46,-659.5 0,-659.5 0,-607.5 46,-607.5 46,-659.5"/>
<text text-anchor="start" x="5" y="-646" font-family="Cascadia Code NF" font-size="10.00">size_t</text>
<text text-anchor="start" x="20" y="-630" font-family="Cascadia Code NF" font-size="10.00"> </text>
<text text-anchor="start" x="20" y="-614" font-family="Cascadia Code NF" font-size="10.00"> </text>
<polygon fill="#bfbfbf" stroke="#bfbfbf" points="0,-641.5 0,-641.5 46,-641.5 46,-641.5 0,-641.5"/>
<polygon fill="#bfbfbf" stroke="#bfbfbf" points="0,-625.5 0,-625.5 46,-625.5 46,-625.5 0,-625.5"/>
<polygon fill="none" stroke="#bfbfbf" points="0,-607.5 0,-659.5 46,-659.5 46,-607.5 0,-607.5"/>
</a>
</g>
</g>
<!-- Node4&#45;&gt;Node3 -->
<g id="edge3_Node000003_Node000004" class="edge">
<title>Node4&#45;&gt;Node3</title>
<g id="a_edge3_Node000003_Node000004"><a xlink:title=" ">
<path fill="none" stroke="#63b8ff" d="M45.82,-631.34C91.97,-626.76 201.89,-615.86 282.49,-607.87"/>
<polygon fill="none" stroke="#63b8ff" points="282.32,-607.89 287.89,-603.32 294.26,-606.7 288.68,-611.28 282.32,-607.89"/>
</a>
</g>
<text text-anchor="middle" x="154" y="-682.75" font-family="Cascadia Code NF" font-size="10.00" fill="grey"> +kPlaceholderSize</text>
<text text-anchor="middle" x="154" y="-670" font-family="Cascadia Code NF" font-size="10.00" fill="grey">+kUint32Size</text>
<text text-anchor="middle" x="154" y="-657.25" font-family="Cascadia Code NF" font-size="10.00" fill="grey">+kUint8Size</text>
<text text-anchor="middle" x="154" y="-644.5" font-family="Cascadia Code NF" font-size="10.00" fill="grey">+kVarint32MaxSize</text>
<text text-anchor="middle" x="154" y="-631.75" font-family="Cascadia Code NF" font-size="10.00" fill="grey">+kVarint32MinSize</text>
</g>
<!-- Node5 -->
<g id="Node000005" class="node">
<title>Node5</title>
<g id="a_Node000005"><a xlink:title=" ">
<polygon fill="white" stroke="none" points="43,-589.5 3,-589.5 3,-537.5 43,-537.5 43,-589.5"/>
<text text-anchor="start" x="8" y="-576" font-family="Cascadia Code NF" font-size="10.00">const</text>
<text text-anchor="start" x="20" y="-560" font-family="Cascadia Code NF" font-size="10.00"> </text>
<text text-anchor="start" x="20" y="-544" font-family="Cascadia Code NF" font-size="10.00"> </text>
<polygon fill="#bfbfbf" stroke="#bfbfbf" points="3,-571.5 3,-571.5 43,-571.5 43,-571.5 3,-571.5"/>
<polygon fill="#bfbfbf" stroke="#bfbfbf" points="3,-555.5 3,-555.5 43,-555.5 43,-555.5 3,-555.5"/>
<polygon fill="none" stroke="#bfbfbf" points="3,-537.5 3,-589.5 43,-589.5 43,-537.5 3,-537.5"/>
</a>
</g>
</g>
<!-- Node5&#45;&gt;Node3 -->
<g id="edge4_Node000003_Node000005" class="edge">
<title>Node5&#45;&gt;Node3</title>
<g id="a_edge4_Node000003_Node000005"><a xlink:title=" ">
<path fill="none" stroke="#63b8ff" d="M42.92,-562.79C81.11,-561.62 170.04,-560.23 244,-569.25 256.5,-570.77 269.55,-572.93 282.39,-575.39"/>
<polygon fill="none" stroke="#63b8ff" points="282.47,-575.4 289.14,-572.66 294.24,-577.76 287.57,-580.5 282.47,-575.4"/>
</a>
</g>
<text text-anchor="start" x="64" y="-597.25" font-family="Cascadia Code NF" font-size="10.00" fill="grey"> +kSkippableFunctionMaxData</text>
<text text-anchor="middle" x="154" y="-584.5" font-family="Cascadia Code NF" font-size="10.00" fill="grey">Size</text>
<text text-anchor="middle" x="154" y="-571.75" font-family="Cascadia Code NF" font-size="10.00" fill="grey">+kSkippableFunctionMinDataSize</text>
</g>
<!-- Node6 -->
<g id="Node000006" class="node">
<title>Node6</title>
<g id="a_Node000006"><a xlink:href="../../d0/d67/classv8_1_1internal_1_1ScopedList.html" target="_top" xlink:title=" ">
<polygon fill="white" stroke="none" points="494,-548 262,-548 262,-275 494,-275 494,-548"/>
<text text-anchor="start" x="267" y="-534.5" font-family="Cascadia Code NF" font-size="10.00">v8::internal::ScopedList</text>
<text text-anchor="start" x="267" y="-521.75" font-family="Cascadia Code NF" font-size="10.00">&lt; v8::internal::PreparseDataBuilder &gt;</text>
<text text-anchor="start" x="375" y="-505.5" font-family="Cascadia Code NF" font-size="10.00"> </text>
<text text-anchor="start" x="297" y="-489.5" font-family="Cascadia Code NF" font-size="10.00">+</text>
<text text-anchor="start" x="338" y="-489.5" font-family="Cascadia Code NF" font-size="10.00">ScopedList()</text>
<text text-anchor="start" x="297" y="-473.5" font-family="Cascadia Code NF" font-size="10.00">+</text>
<text text-anchor="start" x="338" y="-473.5" font-family="Cascadia Code NF" font-size="10.00">~ScopedList()</text>
<text text-anchor="start" x="297" y="-457.5" font-family="Cascadia Code NF" font-size="10.00">+</text>
<text text-anchor="start" x="338" y="-457.5" font-family="Cascadia Code NF" font-size="10.00">Rewind()</text>
<text text-anchor="start" x="297" y="-441.5" font-family="Cascadia Code NF" font-size="10.00">+</text>
<text text-anchor="start" x="338" y="-441.5" font-family="Cascadia Code NF" font-size="10.00">MergeInto()</text>
<text text-anchor="start" x="297" y="-425.5" font-family="Cascadia Code NF" font-size="10.00">+</text>
<text text-anchor="start" x="338" y="-425.5" font-family="Cascadia Code NF" font-size="10.00">length()</text>
<text text-anchor="start" x="297" y="-409.5" font-family="Cascadia Code NF" font-size="10.00">+</text>
<text text-anchor="start" x="338" y="-409.5" font-family="Cascadia Code NF" font-size="10.00">at()</text>
<text text-anchor="start" x="297" y="-393.5" font-family="Cascadia Code NF" font-size="10.00">+</text>
<text text-anchor="start" x="338" y="-393.5" font-family="Cascadia Code NF" font-size="10.00">at()</text>
<text text-anchor="start" x="297" y="-377.5" font-family="Cascadia Code NF" font-size="10.00">+</text>
<text text-anchor="start" x="338" y="-377.5" font-family="Cascadia Code NF" font-size="10.00">ToConstVector()</text>
<text text-anchor="start" x="297" y="-361.5" font-family="Cascadia Code NF" font-size="10.00">+</text>
<text text-anchor="start" x="338" y="-361.5" font-family="Cascadia Code NF" font-size="10.00">Add()</text>
<text text-anchor="start" x="297" y="-345.5" font-family="Cascadia Code NF" font-size="10.00">+</text>
<text text-anchor="start" x="338" y="-345.5" font-family="Cascadia Code NF" font-size="10.00">AddAll()</text>
<text text-anchor="start" x="297" y="-329.5" font-family="Cascadia Code NF" font-size="10.00">+</text>
<text text-anchor="start" x="338" y="-329.5" font-family="Cascadia Code NF" font-size="10.00">begin()</text>
<text text-anchor="start" x="297" y="-313.5" font-family="Cascadia Code NF" font-size="10.00">+</text>
<text text-anchor="start" x="338" y="-313.5" font-family="Cascadia Code NF" font-size="10.00">begin()</text>
<text text-anchor="start" x="297" y="-297.5" font-family="Cascadia Code NF" font-size="10.00">+</text>
<text text-anchor="start" x="338" y="-297.5" font-family="Cascadia Code NF" font-size="10.00">end()</text>
<text text-anchor="start" x="297" y="-281.5" font-family="Cascadia Code NF" font-size="10.00">+</text>
<text text-anchor="start" x="338" y="-281.5" font-family="Cascadia Code NF" font-size="10.00">end()</text>
<polygon fill="#bfbfbf" stroke="#bfbfbf" points="262,-517 262,-517 494,-517 494,-517 262,-517"/>
<polygon fill="#bfbfbf" stroke="#bfbfbf" points="262,-501 262,-501 494,-501 494,-501 262,-501"/>
<polygon fill="none" stroke="#bfbfbf" points="262,-275 262,-548 494,-548 494,-275 262,-275"/>
</a>
</g>
</g>
<!-- Node6&#45;&gt;Node1 -->
<g id="edge5_Node000001_Node000006" class="edge">
<title>Node6&#45;&gt;Node1</title>
<g id="a_edge5_Node000001_Node000006"><a xlink:title=" ">
<path fill="none" stroke="#63b8ff" d="M493.83,-442.73C536.65,-454.37 584.76,-467.45 625.65,-478.57"/>
<polygon fill="none" stroke="#63b8ff" points="625.64,-478.57 632.48,-476.28 637.22,-481.72 630.38,-484 625.64,-478.57"/>
</a>
</g>
<text text-anchor="middle" x="566" y="-479.75" font-family="Cascadia Code NF" font-size="10.00" fill="grey"> +children_buffer_</text>
</g>
<!-- Node7 -->
<g id="Node000007" class="node">
<title>Node7</title>
<g id="a_Node000007"><a xlink:href="../../dd/d31/classv8_1_1base_1_1Vector.html" target="_top" xlink:title=" ">
<polygon fill="white" stroke="none" points="488,-257 268,-257 268,0 488,0 488,-257"/>
<text text-anchor="start" x="273" y="-243.5" font-family="Cascadia Code NF" font-size="10.00">v8::base::Vector&lt; v8</text>
<text text-anchor="start" x="273" y="-230.75" font-family="Cascadia Code NF" font-size="10.00">::internal::PreparseDataBuilder * &gt;</text>
<text text-anchor="start" x="375" y="-214.5" font-family="Cascadia Code NF" font-size="10.00"> </text>
<text text-anchor="start" x="300" y="-198.5" font-family="Cascadia Code NF" font-size="10.00">+</text>
<text text-anchor="start" x="338" y="-198.5" font-family="Cascadia Code NF" font-size="10.00">Vector()</text>
<text text-anchor="start" x="300" y="-182.5" font-family="Cascadia Code NF" font-size="10.00">+</text>
<text text-anchor="start" x="338" y="-182.5" font-family="Cascadia Code NF" font-size="10.00">Vector()</text>
<text text-anchor="start" x="300" y="-166.5" font-family="Cascadia Code NF" font-size="10.00">+</text>
<text text-anchor="start" x="338" y="-166.5" font-family="Cascadia Code NF" font-size="10.00">SubVector()</text>
<text text-anchor="start" x="300" y="-150.5" font-family="Cascadia Code NF" font-size="10.00">+</text>
<text text-anchor="start" x="338" y="-150.5" font-family="Cascadia Code NF" font-size="10.00">SubVectorFrom()</text>
<text text-anchor="start" x="300" y="-134.5" font-family="Cascadia Code NF" font-size="10.00">+</text>
<text text-anchor="start" x="338" y="-134.5" font-family="Cascadia Code NF" font-size="10.00">OverwriteWith()</text>
<text text-anchor="start" x="300" y="-118.5" font-family="Cascadia Code NF" font-size="10.00">+</text>
<text text-anchor="start" x="338" y="-118.5" font-family="Cascadia Code NF" font-size="10.00">OverwriteWith()</text>
<text text-anchor="start" x="300" y="-102.5" font-family="Cascadia Code NF" font-size="10.00">+</text>
<text text-anchor="start" x="338" y="-102.5" font-family="Cascadia Code NF" font-size="10.00">length()</text>
<text text-anchor="start" x="300" y="-86.5" font-family="Cascadia Code NF" font-size="10.00">+</text>
<text text-anchor="start" x="338" y="-86.5" font-family="Cascadia Code NF" font-size="10.00">size()</text>
<text text-anchor="start" x="300" y="-70.5" font-family="Cascadia Code NF" font-size="10.00">+</text>
<text text-anchor="start" x="338" y="-70.5" font-family="Cascadia Code NF" font-size="10.00">empty()</text>
<text text-anchor="start" x="300" y="-54.5" font-family="Cascadia Code NF" font-size="10.00">+</text>
<text text-anchor="start" x="338" y="-54.5" font-family="Cascadia Code NF" font-size="10.00">operator[]()</text>
<text text-anchor="start" x="338" y="-38.5" font-family="Cascadia Code NF" font-size="10.00">and 22 more...</text>
<text text-anchor="start" x="300" y="-22.5" font-family="Cascadia Code NF" font-size="10.00">+</text>
<text text-anchor="start" x="338" y="-22.5" font-family="Cascadia Code NF" font-size="10.00">New()</text>
<text text-anchor="start" x="300" y="-6.5" font-family="Cascadia Code NF" font-size="10.00">+</text>
<text text-anchor="start" x="338" y="-6.5" font-family="Cascadia Code NF" font-size="10.00">cast()</text>
<polygon fill="#bfbfbf" stroke="#bfbfbf" points="268,-226 268,-226 488,-226 488,-226 268,-226"/>
<polygon fill="#bfbfbf" stroke="#bfbfbf" points="268,-210 268,-210 488,-210 488,-210 268,-210"/>
<polygon fill="none" stroke="#bfbfbf" points="268,0 268,-257 488,-257 488,0 268,0"/>
</a>
</g>
</g>
<!-- Node7&#45;&gt;Node1 -->
<g id="edge6_Node000001_Node000007" class="edge">
<title>Node7&#45;&gt;Node1</title>
<g id="a_edge6_Node000001_Node000007"><a xlink:title=" ">
<path fill="none" stroke="#63b8ff" d="M487.92,-248.24C533.56,-298.43 586.04,-356.12 629.63,-404.04"/>
<polygon fill="none" stroke="#63b8ff" points="629.54,-403.95 636.54,-405.69 637.61,-412.82 630.62,-411.08 629.54,-403.95"/>
</a>
</g>
<text text-anchor="middle" x="566" y="-395.75" font-family="Cascadia Code NF" font-size="10.00" fill="grey"> +children_</text>
</g>
</g>
</svg>
